<?xml version="1.0" encoding="utf-8"?>
<!-- Generator: Adobe Illustrator 23.0.5, SVG Export Plug-In . SVG Version: 6.00 Build 0)  -->
<svg version="1.0" id="Layer_1" xmlns="http://www.w3.org/2000/svg" xmlns:xlink="http://www.w3.org/1999/xlink" x="0px" y="0px"
	 viewBox="0 0 624 320" style="enable-background:new 0 0 624 320;" xml:space="preserve">
<style type="text/css">
	.st0{opacity:0.3;fill:#35B24A;}
	.st1{clip-path:url(#SVGID_2_);}
	.st2{fill:#F2922A;}
	.st3{fill:#EF6A1C;}
	.st4{fill:#B68E62;}
	.st5{fill:#FBBA84;}
	.st6{fill:#FDD5AE;}
	.st7{fill:#FFEED7;}
	.st8{fill:#233143;}
	.st9{fill:#8BC751;}
	.st10{fill:#FEC438;}
	.st11{fill:#FFF465;}
	.st12{fill:#FFFFFF;}
	.st13{fill:#C0AEC3;}
	.st14{fill:#81C453;}
	.st15{fill:#A0CD4E;}
	.st16{fill:#B6D54B;}
	.st17{fill:none;stroke:#E5EEBB;stroke-width:0.8495;stroke-miterlimit:10;}
	.st18{fill:#7F6041;}
	.st19{fill:#364973;}
	.st20{fill:#162334;}
</style>
<rect y="0" class="st0" width="624" height="320"/>
<g>
	<defs>
		<rect id="SVGID_1_" y="0" width="624" height="320"/>
	</defs>
	<clipPath id="SVGID_2_">
		<use xlink:href="#SVGID_1_"  style="overflow:visible;"/>
	</clipPath>
	<g class="st1">
		<path class="st2" d="M435.33,158.11c0.01-0.44-0.46-0.82-0.89-0.68c-1.75,0.57-3.5,1.11-5.27,1.62c-0.82,0.23-1.63,0.45-2.45,0.68
			c-0.27,0.08-2.86,0.76-1.68,0.28c0.11-0.04,0.06-0.21-0.05-0.17c-0.61,0.21-0.8,0.43-1.28,0.91c-0.24,0.24-0.08,0.75,0.3,0.72
			c2.37-0.21,4.76-0.83,7.09-1.53c-27.15,22.2-54.26,44.45-81.36,66.71c-5.23-5.9-10.45-11.8-15.67-17.7c-0.32-0.36-0.98-0.35-1.3,0
			c-8.24,9.07-16.49,18.14-24.73,27.2c-8.84-8.71-15.66-19.2-19.97-30.85c-0.25-0.69-1.01-0.9-1.57-0.41
			c-22.16,19.03-43.45,39.05-63.82,59.98c-3.73-6.2-6.8-12.73-9.15-19.59c-0.24-0.7-0.99-0.84-1.54-0.41
			c-19.73,15.59-39.12,32.06-56.51,50.26c-0.41,0.43,0.21,1.04,0.65,0.65c18.31-16.74,36.6-33.35,56.08-48.73
			c2.45,6.94,5.61,13.57,9.48,19.83c0.31,0.51,1.05,0.64,1.48,0.19c20.3-20.92,41.53-40.92,63.62-59.95
			c4.56,11.73,11.54,22.31,20.62,31.06c0.35,0.34,0.98,0.38,1.32,0c8.23-9.07,16.46-18.14,24.69-27.21
			c5.2,5.86,10.38,11.73,15.58,17.6c0.35,0.4,0.94,0.3,1.3,0c27.84-22.83,55.68-45.67,83.47-68.56c-0.31,3.12-0.74,6.45-0.31,9.44
			c0.09,0.65,1.09,0.58,1.24,0C435.57,165.94,435.23,161.73,435.33,158.11z"/>
		<rect x="378.55" y="231.18" class="st3" width="15.57" height="88.82"/>
		<rect x="393.59" y="231.18" class="st2" width="16.26" height="88.82"/>
		<rect x="325.32" y="275.59" class="st3" width="15.8" height="44.41"/>
		<rect x="340.97" y="275.59" class="st2" width="15.65" height="44.41"/>
		<rect x="427.37" y="208.74" class="st3" width="15.76" height="111.26"/>
		<rect x="443.02" y="208.74" class="st2" width="15.65" height="111.26"/>
		<rect x="272.09" y="264.58" class="st3" width="16.03" height="55.42"/>
		<rect x="287.74" y="264.58" class="st2" width="15.65" height="55.42"/>
		<rect x="218.86" y="303.31" class="st3" width="16.26" height="16.69"/>
		<rect x="234.51" y="303.31" class="st2" width="15.65" height="16.69"/>
	</g>
	<g class="st1">
		<g>
			<path class="st4" d="M409.5,51.42c-6.52-10.02-16.34-17.85-27.57-21.97c-6.05-2.22-12.5-3.36-18.95-3.4
				c-2.13-0.01-4.34-0.68-6.41-0.63c-3.06,0.06-6.57,2.01-8.99,3.75c-0.65,0.47,10.66,6.23,11.47,6.66
				c2.87,1.53,5.79,2.96,8.76,4.29c6.27,2.8,12.74,5.14,19.35,6.99C394.49,49.14,401.96,50.6,409.5,51.42z"/>
			<path class="st5" d="M355.35,153.56c2.55,0.86,5.48,1.68,7.8,0.32c2.03-1.19,2.9-3.82,2.51-6.14c-0.4-2.32-1.85-4.34-3.56-5.95
				c-0.66-0.62-1.41-1.63-0.8-2.3c0.26-0.29,0.69-0.36,1.08-0.39c3.05-0.22,6.03,0.88,9.07,1.2c3.04,0.31,6.62-0.5,7.98-3.24
				c1.08-2.18,0.34-4.9-1.18-6.8c-1.52-1.9-3.68-3.14-5.79-4.34c2.26-0.31,4.6-0.66,6.49-1.93c1.89-1.27,3.18-3.75,2.35-5.87
				c-1.27-3.23-5.79-3.18-8.87-4.8c-4.1-2.16-5.42-7.25-6.88-11.65c-2.5-7.53-6.61-14.53-11.97-20.39
				c-2.87-3.14-6.16-5.99-10.05-7.69c-3.9-1.7-8.48-2.13-12.39-0.48c-3.94,1.66-6.75,5.14-9.4,8.49c-2.45,3.1-4.9,6.21-7.35,9.31
				c-2.52,3.2-5.1,6.49-6.33,10.37c-1.69,5.33-0.86,11.98-0.16,17.44c1.05,8.24,3.93,17.86,9.42,24.23c3.15,3.65,7,6.64,10.91,9.46
				c0.94,0.68,1.93,1.37,3.07,1.62c1.14,0.25,2.48-0.04,3.13-1.01c0.65-0.95,0.47-2.24,0.87-3.33
				C337.31,144.29,352.03,152.45,355.35,153.56z"/>
			<path class="st5" d="M359.54,27.12c14.93,3.49,29.62,8.04,43.91,13.6c0.94,0.37-1.16,6.39-3.69,12.68
				c-11.15-11.38-27.9-17.55-43.12-22.09C357.61,29.91,358.56,28.49,359.54,27.12z"/>
			<path class="st6" d="M325.1,154.49c-3.48-1.01-6.63-2.88-10.08-3.96c-3.53-1.11-7.16-2.28-10.02-4.64
				c-3.73-3.09-5.51-7.72-6.49-12.34c-0.97-4.61-1.9-8.73-3.21-13.24c-1.79-6.19,0.25-13.38,1.72-19.42
				c2.27-9.32,4.54-18.64,6.8-27.95c0.94-3.86,1.97-7.9,4.62-10.86c1.96-2.19,4.63-3.6,7.24-4.95c7.98-4.14,15.96-8.29,23.93-12.43
				c2.72-1.41,6.03-2.39,8.53-4.09c3.53-2.39,6.09-5.8,8.49-9.29c15.22,4.54,31.97,10.71,43.12,22.09
				c-2.69,6.69-5.86,13.7-6.37,14.53c-3.29,5.44-7.64,10.69-13.43,13.56c-5.47,2.71-11.87,2.19-16.87,5.84
				c-2.09,1.52-3.91,3.55-6.36,4.35c-3.41,1.11-7.05-0.41-10.44-1.59c-2.37-0.83-5.35-1.65-7.84-0.87
				c-1.96,0.61-3.42,2.15-5.12,3.22c-1.82,1.15-3.54,1.43-5.49,2.1c-4.41,1.51-7.96,6-9.72,10.18c-2.6,6.17-0.97,10.81,0.36,16.75
				c0.22,0.98,0.49,10.6,0.13,10.45c3.12,1.3,6.36,2.48,8.74,4.98c-2.4,4.95-1.48,11.33,2.23,15.39
				C332.79,155.84,327.18,155.09,325.1,154.49z"/>
			<path class="st5" d="M296.17,114.65c0.56-0.29,1.11-0.5,1.73-0.62c0.55-0.11,1.33-0.27,1.84,0.02c0.27,0.16,0.24,0.51-0.04,0.64
				c-0.44,0.21-1.04,0.11-1.52,0.17c-0.58,0.07-1.16,0.19-1.72,0.35C296.14,115.31,295.83,114.83,296.17,114.65z"/>
			<path class="st5" d="M305.7,141.65c0.21-1.6,1.13-2.89,2.38-3.87c0.7-0.54,2.92-2.24,3.81-1.68c0.12,0.08,0.16,0.19,0.11,0.32
				c-0.06,0.18-0.11,0.2-0.28,0.28c-0.07,0.03-0.17-0.01-0.21-0.07c-0.02-0.03-0.04-0.05-0.06-0.08c-0.01-0.01,0-0.02-0.01-0.03
				c-0.45,0.3-1.37,0.85-1.49,0.92c-0.5,0.3-0.99,0.61-1.43,0.98c-1.06,0.88-1.8,2-1.95,3.39
				C306.51,142.38,305.62,142.21,305.7,141.65z"/>
			<path class="st5" d="M307.05,143.48c0.14-0.63,0.75-1.12,1.18-1.58c0.48-0.53,0.95-1.07,1.5-1.53c0.18-0.15,0.45,0.1,0.34,0.29
				c-0.36,0.62-0.82,1.17-1.26,1.73c-0.39,0.5-0.76,1.17-1.36,1.42C307.23,143.9,307,143.7,307.05,143.48z"/>
			<path class="st5" d="M302.81,140.13c0.07-0.4,0.3-0.76,0.49-1.11c0.21-0.39,0.42-0.77,0.63-1.16c0.18-0.32,0.68-0.08,0.52,0.25
				c-0.19,0.4-0.37,0.8-0.57,1.19c-0.18,0.36-0.33,0.76-0.61,1.05C303.09,140.54,302.76,140.4,302.81,140.13z"/>
			<path class="st7" d="M320.72,148.8c0.28,0.12,0.6,0.28,0.95,0.47c1.95,1.03,6.06,3.02,6.25,5.5c-1.06-0.27-10.37-4.75-10.98-3.74
				C318.35,148.69,318.71,147.93,320.72,148.8z"/>
			<path class="st7" d="M409.45,50.39c0.94-5.2,2.86-10.23,5.62-14.73c0.56-0.92-16.19-9.77-17.77-10.49
				c-6.42-2.94-13.15-5.21-20.05-6.76c-6.89-1.55-13.94-2.37-21.01-2.43c-2.93-0.03-4.68-0.23-5.82,2.63
				c-1.25,3.15-2.12,6.76-2.65,10.08c2.94-0.41,6.12-1.22,9.1-1.31c4.1-0.12,8.66,1.53,12.57,2.62c8.57,2.39,16.86,5.8,24.63,10.12
				C399.48,43.11,404.63,46.55,409.45,50.39z"/>
			<path class="st8" d="M430.88,1.93c-2.74,6.67-5.48,13.34-8.23,20.02c-2.1,5.12-3.23,11.21-6.2,15.89
				c-2.22-1.3-3.82-3.26-5.94-4.68c-2.66-1.78-5.7-3.14-8.57-4.54c-5.69-2.77-11.64-5.01-17.74-6.7c-6.27-1.73-12.7-2.88-19.18-3.41
				c-1.76-0.14-18.1-1.28-18.43,0.18c2.96-13.26,5.91-26.52,8.87-39.78c23.76-4.69,49.15-0.64,70.28,11.2
				c2.9,1.62,6.04,3.89,6.25,7.21C432.11-1.09,431.49,0.45,430.88,1.93z"/>
			<path class="st9" d="M402.47,38.26c0.93,1.08,2.43,1.52,3.64,0.75c1.45-0.92,1.99-3.53,1.02-4.97
				C405.2,31.16,399.37,34.65,402.47,38.26z"/>
		</g>
		<g>
			
				<ellipse transform="matrix(0.2139 -0.9769 0.9769 0.2139 100.3101 459.2939)" class="st10" cx="335.52" cy="167.32" rx="25.37" ry="25.37"/>
			
				<ellipse transform="matrix(0.0326 -0.9995 0.9995 0.0326 157.942 499.9942)" class="st11" cx="337.25" cy="168.41" rx="25.37" ry="25.37"/>
			
				<ellipse transform="matrix(0.5349 -0.8449 0.8449 0.5349 14.5672 363.2841)" class="st10" cx="337.25" cy="168.41" rx="20.3" ry="20.3"/>
			<g>
				<path class="st11" d="M341.15,186.07c-9.74,2.15-19.41-4.02-21.57-13.75c-2.15-9.74,4.02-19.41,13.75-21.57
					c9.74-2.15,19.41,4.02,21.57,13.75C357.06,174.24,350.89,183.92,341.15,186.07z M333.49,151.44
					c-9.36,2.07-15.29,11.37-13.22,20.72c2.07,9.36,11.37,15.29,20.72,13.22c9.36-2.07,15.29-11.37,13.22-20.72
					C352.15,155.3,342.85,149.37,333.49,151.44z"/>
			</g>
			<g>
				<g>
					<path class="st12" d="M338.38,176.54l-0.18,0.04c-0.48,0.11-0.91,0.19-1.3,0.24c-0.39,0.05-0.76,0.09-1.11,0.1
						c-0.36,0.01-0.71,0-1.07-0.03c-0.36-0.03-0.73-0.07-1.13-0.14c-0.05-0.43-0.07-0.88-0.04-1.33c0.02-0.46,0.06-0.94,0.12-1.44
						c0.67,0.11,1.28,0.16,1.84,0.13c0.56-0.02,1.15-0.1,1.76-0.24c0.92-0.2,1.59-0.52,2.03-0.94c0.43-0.42,0.57-0.99,0.42-1.69
						c-0.08-0.35-0.21-0.62-0.4-0.82c-0.19-0.2-0.4-0.34-0.65-0.44c-0.24-0.1-0.51-0.17-0.79-0.21c-0.28-0.04-0.56-0.1-0.84-0.16
						l-1.27-0.25c-0.53-0.1-1.01-0.22-1.46-0.35c-0.44-0.14-0.84-0.33-1.19-0.58s-0.65-0.57-0.9-0.96s-0.44-0.89-0.57-1.5
						c-0.29-1.31-0.15-2.43,0.43-3.35c0.58-0.92,1.5-1.61,2.78-2.06l-0.51-2.32c0.29-0.16,0.59-0.27,0.91-0.34
						c0.31-0.07,0.64-0.09,0.99-0.08l0.5,2.25c0.59-0.09,1.17-0.12,1.74-0.12c0.57,0,1.17,0.04,1.81,0.11
						c0.1,0.86,0.05,1.75-0.15,2.65c-0.24-0.04-0.48-0.08-0.73-0.11c-0.25-0.04-0.5-0.06-0.77-0.06c-0.27,0-0.57,0.01-0.89,0.05
						c-0.33,0.03-0.7,0.1-1.11,0.19c-0.25,0.05-0.5,0.13-0.74,0.22c-0.25,0.09-0.46,0.22-0.64,0.38c-0.18,0.16-0.31,0.36-0.39,0.6
						c-0.08,0.24-0.09,0.53-0.01,0.86c0.06,0.29,0.17,0.53,0.32,0.71c0.15,0.18,0.32,0.32,0.53,0.42c0.21,0.1,0.43,0.18,0.67,0.23
						c0.24,0.05,0.48,0.1,0.72,0.14l1.43,0.26c0.6,0.11,1.16,0.23,1.66,0.37c0.5,0.13,0.95,0.33,1.33,0.59
						c0.39,0.26,0.72,0.61,1,1.04c0.28,0.44,0.5,1.01,0.66,1.72c0.26,1.2,0.15,2.28-0.35,3.25c-0.5,0.97-1.36,1.75-2.59,2.33
						l0.56,2.54c-0.29,0.15-0.59,0.27-0.91,0.34c-0.32,0.07-0.65,0.1-0.99,0.08L338.38,176.54z"/>
				</g>
			</g>
		</g>
		<g>
			<path class="st6" d="M349.33,99.79c0.23,1.37,0.38,2.73,0.36,4.09c-0.06,5.07-2.55,10.89-4.31,15.57
				c-2.09,5.58-5.86,10.48-10.65,14.02c-4.27,3.15-7.23,7.28-6.77,13.01c0.31,3.84,2.62,9.23,7.22,8.64
				c2.16-0.28,4.04-1.57,5.69-2.99c1.65-1.41,3.18-3,5.08-4.07c2.76-1.55,6.07-1.87,8.83-3.42c4.3-2.41,6.49-7.27,9.63-11.07
				c3.28-3.99,7.73-6.93,10.79-11.08c4.37-5.93,5.51-13.7,7.54-20.63c2.4-8.22,4.53-16.52,6.4-24.87c0.52-2.31,1.01-4.75,0.27-7
				c-0.9-2.75-3.47-4.62-6.08-5.88c-10.32-4.95-25.15-3.17-31.77,6.84c-3.14,4.76-4.43,10.57-4.41,16.27
				C347.16,91.45,348.63,95.65,349.33,99.79z"/>
			<path class="st7" d="M338.05,154.17c-3.07,0.16-5.94-2.7-5.8-5.77c0.12-2.57,2.75-5.46,5.45-5.35c2.66,0.11,4.94,3.47,7.02,4.85
				C342.73,150.15,340.26,152.12,338.05,154.17z"/>
			<path class="st5" d="M352.24,143.79c-1.05-1.18-1.72-2.61-2.86-3.75c-1.12-1.13-2.44-2.03-3.76-2.9
				c-0.17-0.11-0.06-0.36,0.14-0.29c2.73,1,6.26,3.71,7.07,6.64C352.93,143.87,352.49,144.06,352.24,143.79z"/>
			<path class="st5" d="M353.8,139.61c-0.09-0.2-0.06-0.43-0.1-0.65c-0.04-0.26-0.13-0.52-0.26-0.75c-0.27-0.47-0.65-0.74-1.13-0.98
				c-0.23-0.11-0.1-0.44,0.14-0.41c0.64,0.07,1.23,0.53,1.59,1.05c0.33,0.49,0.63,1.29,0.27,1.83
				C354.17,139.9,353.88,139.79,353.8,139.61z"/>
			<path class="st5" d="M373.81,115.43c-1.93-1.29-3.85-2.47-6.05-3.25c-1.11-0.4-2.25-0.71-3.4-0.95c-0.98-0.2-3.03-0.8-3.85-0.13
				c-0.14,0.12-0.37-0.08-0.27-0.24c0.94-1.64,4.72-0.48,6.08-0.14c2.93,0.73,5.82,2.02,8.17,3.92
				C375.03,115.08,374.35,115.8,373.81,115.43z"/>
			<path class="st5" d="M373.28,109.57c-0.32-0.21-0.09-0.74,0.27-0.55c0.51,0.28,1.03,0.56,1.54,0.85c0.46,0.27,0.97,0.5,1.35,0.88
				c0.19,0.19,0.06,0.61-0.25,0.52C375.16,110.96,374.17,110.15,373.28,109.57z"/>
		</g>
	</g>
	<g class="st1">
		<g>
			<path class="st4" d="M65.02,206.15c-7.89-8.24-13.03-19.07-14.42-30.39c-0.75-6.11-0.4-12.34,0.96-18.34
				c0.45-1.99,0.32-4.18,0.81-6.09c0.73-2.83,3.3-5.67,5.44-7.54c0.58-0.5,3.47,11.26,3.69,12.11c0.8,3,1.49,6.03,2.08,9.07
				c1.24,6.43,2,12.96,2.28,19.5C66.17,191.7,65.9,198.96,65.02,206.15z"/>
			<path class="st5" d="M171.71,178.07c0.24,2.56,0.37,5.46-1.4,7.32c-1.55,1.63-4.18,1.87-6.25,0.99
				c-2.07-0.87-3.63-2.66-4.75-4.61c-0.43-0.75-1.21-1.66-1.97-1.24c-0.33,0.18-0.48,0.56-0.59,0.92c-0.87,2.79-0.49,5.79-0.86,8.69
				c-0.37,2.89-1.9,6.04-4.74,6.71c-2.26,0.53-4.63-0.75-6.06-2.57c-1.43-1.82-2.12-4.1-2.78-6.32c-0.78,2.03-1.62,4.13-3.21,5.61
				c-1.59,1.48-4.17,2.14-5.96,0.9c-2.73-1.88-1.7-6.08-2.53-9.28c-1.11-4.28-5.56-6.61-9.32-8.92c-6.45-3.96-12.06-9.3-16.34-15.55
				c-2.29-3.35-4.23-7.02-4.95-11.01c-0.73-3.99-0.13-8.34,2.25-11.62c2.4-3.3,6.25-5.15,9.94-6.88c3.42-1.6,6.83-3.2,10.25-4.8
				c3.52-1.65,7.14-3.32,11.02-3.62c5.32-0.41,11.32,1.81,16.24,3.65c7.42,2.77,15.74,7.54,20.46,14.03
				c2.71,3.72,4.65,7.95,6.42,12.2c0.43,1.03,0.85,2.09,0.84,3.2c-0.01,1.11-0.58,2.29-1.62,2.69c-1.03,0.4-2.19-0.05-3.28,0.08
				C167.01,159.3,171.39,174.74,171.71,178.07z"/>
			<path class="st5" d="M53.32,154.44c-0.01,14.63,1.02,29.27,3.08,43.76c0.14,0.95,6.19,0.31,12.59-0.67
				c-8.14-12.84-10.24-29.74-11.14-44.87C56.33,153.26,54.8,153.83,53.32,154.44z"/>
			<path class="st6" d="M179.15,150.17c-0.18-3.45-1.23-6.79-1.49-10.23c-0.27-3.53-0.56-7.15-2.13-10.32
				c-2.06-4.14-5.97-6.8-10.05-8.71c-4.72-2.21-9.31-4.78-14.06-6.97c-5.86-2.7-12.34-2.21-18.57-1.59
				c-5.79,0.58-12.07,0.97-17.94,0.84c-5.12-0.11-10.13-0.5-14.8,2.18c-2.28,1.3-4.18,3.15-6.05,4.99
				c-8.74,8.61-16.76,18.13-25.75,26.42c-2.99,2.76-6.71,4.39-10.48,5.87c0.9,15.13,2.99,32.03,11.14,44.87
				c6.81-1.04,14-2.46,14.89-2.75c5.77-1.87,11.6-4.77,15.52-9.53c3.7-4.49,4.62-10.55,9.1-14.4c1.87-1.61,4.15-2.86,5.43-4.97
				c1.78-2.93,1.16-6.64,0.79-10.04c-0.25-2.39-0.37-5.33,0.9-7.48c0.99-1.69,2.74-2.71,4.11-4.06c1.46-1.44,2.1-2.97,3.15-4.64
				c2.37-3.77,7.31-6.09,11.57-6.82c6.3-1.08,10.25,1.45,15.49,3.98c0.87,0.42,9.74,2.76,9.68,2.4c0.61,3.71,1.43,7.45,3.13,10.83
				c-0.1-0.21,6.54,0.19,7.2,0.39c2.26,0.67,4.3,1.9,6.13,3.28c1.28,0.97,1.3,2.05,2.56,0.57
				C179.34,153.45,179.21,151.2,179.15,150.17z"/>
			<path class="st7" d="M174.82,144.86c0.05,0.29,0.13,0.62,0.23,0.99c0.53,2.04,1.48,6.29,3.75,7c-0.02-1.04-2.16-10.67-1.09-11.02
				C175.23,142.63,174.45,142.81,174.82,144.86z"/>
			<path class="st11" d="M57.33,143.86c-0.84,2.17-1.97,4.44-2.75,6.71c-0.13,0.36-0.24,0.72-0.34,1.09
				c-0.04,0.12-0.07,0.25-0.11,0.38c-0.15,0.55-0.26,1.12-0.34,1.7c-0.06,0.38-0.11,0.78-0.14,1.17c-0.27,3.1,0.06,6.44,0.18,9.38
				c0.03,0.76,0.08,1.51,0.12,2.27c0.02,0.38,0.05,0.76,0.08,1.14c0.14,1.92,0.33,3.84,0.58,5.76c0.05,0.39,0.1,0.78,0.16,1.17
				c0.65,4.75,1.63,9.45,2.92,14.07c0.06,0.23,0.12,0.46,0.19,0.68c0.03,0.12,0.07,0.23,0.11,0.36c0.37,1.3,0.8,2.58,1.25,3.84
				c0.13,0.38,0.27,0.75,0.41,1.13c1.37,3.71,2.94,7.33,4.22,11.03c-0.97,0.07-1.94,0.14-2.92,0.22c-0.24,0.02-0.47,0.04-0.71,0.07
				c-1.1,0.1-2.22,0.21-3.33,0.33c-0.32,0.03-0.64,0.07-0.96,0.1c-2.22,0.26-4.46,0.55-6.7,0.86c-0.34,0.05-0.68,0.1-1.02,0.15
				c-1.19,0.17-2.38,0.35-3.57,0.53c-0.35,0.06-0.69,0.11-1.04,0.16c-2.28,0.37-4.56,0.74-6.81,1.13c-0.33,0.05-0.64,0.11-0.96,0.17
				c-1.53,0.26-3.04,0.52-4.55,0.78c-3.73,0.65-8.03,2.09-12.5,3.53c-0.32,0.1-0.65,0.21-0.97,0.31c-4.78,1.51-9.75,2.95-14.43,3.33
				c-0.3,0.02-0.58,0.04-0.87,0.06c-5.14,0.27-9.9-0.83-13.68-4.62c-0.97-0.97-1.82-2.01-2.58-3.13c-0.1-0.14-0.19-0.28-0.28-0.42
				c-0.75-1.16-1.4-2.39-1.96-3.67c-0.09-0.19-0.18-0.38-0.25-0.58c-1.38-3.31-2.2-6.91-2.67-10.47c-0.24-1.85-0.4-3.7-0.47-5.56
				c-0.01-0.27-0.02-0.55-0.03-0.82c-0.05-1.78-0.02-3.57,0.08-5.35c0.01-0.25,0.03-0.5,0.05-0.75c0.38-5.58,1.48-11.12,3.3-16.41
				c0.09-0.26,0.18-0.52,0.27-0.77c0.1-0.28,0.19-0.54,0.29-0.82c1.07-2.85,2.39-5.69,4.4-7.95c0.25-0.28,0.51-0.55,0.78-0.82
				c0.1-0.1,0.19-0.18,0.3-0.28c0.8-0.73,1.67-1.35,2.6-1.87c0.34-0.2,0.7-0.39,1.06-0.57c2.83-1.4,6.04-2.12,9.16-2.75
				c1.28-0.26,2.58-0.52,3.89-0.78c0.36-0.07,0.71-0.14,1.07-0.21c7.04-1.4,14.33-2.76,21.65-3.74c0.42-0.06,0.85-0.12,1.28-0.17
				c0.91-0.12,1.83-0.23,2.74-0.34c0.36-0.04,0.72-0.07,1.08-0.12c1.21-0.13,2.42-0.25,3.63-0.35c0.46-0.04,0.91-0.08,1.37-0.11
				c2.74-0.22,5.47-0.36,8.19-0.41c0.38-0.01,0.76-0.01,1.15-0.02c1.13-0.01,2.25,0,3.36,0.03c0.41,0.01,0.82,0.02,1.22,0.04
				C54.8,143.7,56.07,143.77,57.33,143.86z"/>
			<path class="st5" d="M163.45,134.58c-0.2,0.2,0.09,0.5,0.32,0.36c1.62-1.05,3.16-2.07,5-2.73c1.67-0.6,3.42-0.73,5.13-1.14
				c0.07-0.02,0.05-0.11-0.01-0.13C170.42,130.23,165.87,132.14,163.45,134.58z"/>
			<path class="st5" d="M167.27,129.47c-0.24,0.18,0,0.52,0.26,0.38c0.73-0.39,1.52-0.68,2.34-0.82c0.73-0.12,1.44-0.02,2.17-0.1
				c0.23-0.03,0.33-0.38,0.09-0.48C170.61,127.83,168.51,128.55,167.27,129.47z"/>
			<path class="st5" d="M168.06,126.89c-0.24,0.12,0,0.47,0.24,0.35c0.48-0.25,0.98-0.29,1.48-0.45c0.15-0.05,0.12-0.26-0.02-0.29
				C169.19,126.38,168.55,126.63,168.06,126.89z"/>
			<path class="st5" d="M147.66,114.62c-3,1.46-5.91,5.08-6.21,8.44c-0.02,0.27,0.33,0.33,0.41,0.07c0.58-1.83,1.51-3.4,2.81-4.81
				c1.04-1.13,2.4-2,3.31-3.23C148.12,114.88,147.94,114.48,147.66,114.62z"/>
			<path class="st5" d="M141.07,116.14c-0.51,0.32-0.8,0.8-1.14,1.29c-0.3,0.43-0.59,0.86-0.75,1.36c-0.05,0.16,0.17,0.27,0.28,0.19
				c0.48-0.32,0.82-0.79,1.18-1.24c0.34-0.43,0.65-0.81,0.81-1.35C141.51,116.17,141.24,116.03,141.07,116.14z"/>
			<path class="st5" d="M103.34,118.56c-0.63,1.6-1.62,3.18-1.81,4.91c-0.18,1.7,0.59,3.17,0.7,4.83c0.02,0.28,0.43,0.24,0.43-0.03
				c-0.01-1.78-0.82-3.39-0.42-5.2c0.34-1.54,1.6-2.83,1.51-4.44C103.74,118.43,103.42,118.36,103.34,118.56z"/>
			<path class="st5" d="M100.64,118.82c-0.16,0.38-0.18,0.78-0.26,1.18c-0.1,0.47-0.24,0.93-0.43,1.37
				c-0.12,0.29,0.27,0.46,0.43,0.21c0.48-0.74,0.98-1.84,0.66-2.73C100.98,118.67,100.72,118.64,100.64,118.82z"/>
			<path class="st13" d="M53.53,143.66c-0.4-0.02-0.81-0.03-1.22-0.04c-0.54,2.35-1.03,4.71-1.45,7.06c-1.1,0.03-2.2,0.07-3.3,0.1
				c0.32-2.43,0.8-4.83,1.38-7.19c-0.39,0.01-0.77,0.01-1.15,0.02c-0.57,2.37-1,4.78-1.3,7.2c-2.41,0.07-4.81,0.14-7.21,0.21
				c0.05-2.27,0.14-4.54,0.3-6.81c0-0.07,0.01-0.14,0.01-0.2c-0.46,0.03-0.92,0.07-1.37,0.11c-0.12,2.33-0.15,4.67-0.19,6.93
				c-1.16,0.04-2.31,0.07-3.47,0.11c-0.02-1.28-0.03-2.57-0.02-3.86c0.01-0.95,0.02-1.89,0.05-2.83c-0.36,0.04-0.73,0.08-1.08,0.12
				c-0.06,2.2-0.07,4.41-0.04,6.61c-1.12,0.04-2.24,0.08-3.36,0.12c0.17-2.14,0.39-4.27,0.66-6.39c-0.43,0.05-0.85,0.11-1.28,0.17
				c-0.25,2.09-0.45,4.18-0.61,6.28c-7.01,0.28-14.01,0.69-20.99,1.37c-0.01-1.12-0.04-2.24-0.05-3.36c0-0.18,0-0.37,0-0.55
				c-0.36,0.08-0.71,0.14-1.07,0.21c0.01,1.27,0.03,2.54,0.06,3.81c-2.08,0.21-4.16,0.44-6.23,0.71c-2.34,0.31-4.67,0.64-7,1.04
				c0.03-0.67,0.08-1.35,0.12-2.02c-0.36,0.18-0.72,0.36-1.06,0.57c-0.02,0.25-0.03,0.5-0.04,0.76c-0.01,0.29-0.01,0.58-0.03,0.87
				c-0.94,0.17-1.88,0.34-2.82,0.52c-0.27,0.26-0.53,0.53-0.78,0.82c1.19-0.19,2.38-0.38,3.58-0.56c-0.09,2.35-0.14,4.71-0.13,7.07
				c-2.73,0.7-5.44,1.46-8.14,2.26c-0.09,0.25-0.19,0.52-0.27,0.77c2.8-0.74,5.6-1.43,8.41-2.11c0.03,3.06,0.15,6.12,0.37,9.18
				c0.1,1.52,0.24,3.04,0.39,4.55c-4.22,1.43-8.38,3.05-12.47,4.8c-0.02,0.25-0.03,0.5-0.05,0.75c4.18-1.61,8.37-3.21,12.61-4.63
				c0.17,1.63,0.36,3.27,0.59,4.9c-4.51,1.45-8.96,3.12-13.28,5.09c0,0.27,0.01,0.55,0.03,0.82c4.4-1.83,8.86-3.46,13.39-4.89
				c0.76,5.29,1.78,10.56,3.07,15.75c-0.18,0.06-0.37,0.12-0.55,0.19c-4.29,1.51-8.59,3.13-12.78,5c0.08,0.19,0.16,0.39,0.25,0.58
				c4.41-1.71,8.82-3.38,13.27-4.92c0.26,1.06,0.56,2.1,0.85,3.15c-4.13,1.61-8.22,3.41-12.16,5.44c0.1,0.14,0.19,0.28,0.28,0.42
				c3.98-1.85,8-3.57,12.07-5.14c0.51,1.83,1.05,3.65,1.63,5.46c0.8,2.47,1.64,4.96,2.55,7.43c0.29-0.02,0.58-0.04,0.87-0.06
				c-0.67-1.76-1.31-3.53-1.91-5.32c-0.86-2.58-1.63-5.18-2.35-7.81c4.33-1.64,8.74-3.1,13.23-4.34c0.63,2.17,1.32,4.32,2.12,6.44
				c0.97,2.61,2.08,5.18,3.35,7.69c0.33-0.1,0.65-0.21,0.97-0.31c-2.22-4.55-3.99-9.27-5.39-14.11c0.52-0.14,1.05-0.29,1.57-0.43
				c5.65-1.44,11.38-2.56,17.15-3.36c0.46,2.08,0.95,4.16,1.51,6.22c0.66,2.48,1.4,4.93,2.21,7.37c0.32-0.06,0.64-0.11,0.96-0.17
				c-1.4-4.47-2.6-9-3.6-13.56c2.14-0.27,4.29-0.51,6.45-0.7c0.04,0.15,0.07,0.31,0.12,0.46c1.13,4.19,2.31,8.51,3.83,12.67
				c0.35-0.05,0.69-0.1,1.04-0.16c-1.13-3.34-2.3-6.68-3.26-10.09c-0.28-0.99-0.54-1.97-0.8-2.97c1.07-0.08,2.15-0.15,3.23-0.22
				c0.41,1.39,0.83,2.76,1.27,4.14c0.94,2.91,1.98,5.78,3.13,8.6c0.34-0.05,0.68-0.1,1.02-0.15c-1.55-4.18-2.93-8.4-4.15-12.67
				c1.55-0.08,3.1-0.14,4.64-0.17c0.66-0.01,1.3-0.01,1.95-0.01c0.26,0.96,0.52,1.92,0.81,2.88c0.94,3.1,2.06,6.18,3.44,9.12
				c0.32-0.04,0.63-0.07,0.96-0.1c-1.73-3.85-3.09-7.83-4.22-11.89c1,0.01,2,0.03,3,0.06c0.38,1.19,0.78,2.39,1.2,3.56
				c0.98,2.74,2.09,5.37,3.35,7.93c0.24-0.02,0.47-0.04,0.71-0.07c-1.63-3.7-3.03-7.53-4.22-11.4c0.98,0.04,1.95,0.08,2.92,0.14
				c-0.14-0.38-0.28-0.75-0.41-1.13c-0.95-0.03-1.89-0.05-2.83-0.06c-0.37-1.23-0.72-2.47-1.05-3.71c0.34-0.01,0.68-0.04,1.03-0.05
				c0.53-0.01,1.06-0.03,1.6-0.03c-0.04-0.12-0.07-0.24-0.11-0.36c-0.06-0.23-0.13-0.45-0.19-0.68c-0.86,0.02-1.73,0.07-2.6,0.1
				c-0.27-1.08-0.54-2.16-0.79-3.25c-0.81-3.56-1.47-7.16-1.99-10.77c0.82-0.06,1.65-0.11,2.47-0.15c-0.05-0.39-0.11-0.78-0.16-1.17
				c-0.82,0.05-1.65,0.1-2.47,0.16c-0.12-0.91-0.25-1.83-0.36-2.74c-0.11-0.87-0.2-1.74-0.29-2.6c0.07-0.02,0.14-0.04,0.21-0.05
				c0.78-0.18,1.56-0.35,2.33-0.52c-0.03-0.38-0.05-0.76-0.08-1.14c-0.86,0.19-1.72,0.39-2.59,0.6c-0.38-3.93-0.55-7.9-0.11-11.84
				c0.01-0.11,0.03-0.21,0.04-0.31c0.2-0.01,0.39-0.03,0.59-0.03c0.59-0.02,1.18-0.05,1.77-0.06c0.03-0.4,0.08-0.79,0.14-1.17
				c-0.78,0.03-1.56,0.07-2.34,0.1c0.1-0.71,0.21-1.41,0.33-2.12c0.82-0.03,1.63-0.05,2.45-0.07c0.1-0.36,0.21-0.73,0.34-1.09
				c-0.87,0.03-1.74,0.06-2.6,0.09C52.42,148.31,52.97,145.99,53.53,143.66z M46.37,151.87c-0.08,0.76-0.14,1.51-0.2,2.27
				c-2.3,0.15-4.61,0.32-6.91,0.52c0-0.43-0.01-0.86-0.01-1.29c0-0.43,0.02-0.87,0.03-1.3C41.64,151.99,44.01,151.93,46.37,151.87z
				 M36.04,171.65c1-0.16,2-0.34,2.99-0.53c0.14,1.16,0.29,2.33,0.46,3.49c-0.9,0.08-1.8,0.16-2.69,0.25
				c-0.1,0.01-0.2,0.02-0.31,0.03C36.33,173.81,36.18,172.73,36.04,171.65z M35.49,175c-1.76,0.18-3.52,0.38-5.29,0.59
				c-0.09-1.08-0.17-2.16-0.24-3.24c1.35-0.11,2.7-0.24,4.05-0.41c0.34-0.04,0.68-0.1,1.01-0.15
				C35.18,172.86,35.33,173.93,35.49,175z M36.76,170.51c-0.28,0.05-0.56,0.08-0.84,0.12c-0.59-4.77-0.99-9.57-1.2-14.37
				c1.1-0.11,2.21-0.23,3.31-0.33c0.05,3.83,0.25,7.66,0.6,11.48c0.08,0.9,0.19,1.8,0.28,2.7C38.2,170.25,37.48,170.38,36.76,170.51
				z M34.9,170.78c-1.66,0.23-3.33,0.41-5,0.54c-0.27-4.83-0.31-9.67-0.11-14.51c1.29-0.15,2.57-0.3,3.85-0.44
				C33.87,161.19,34.29,166,34.9,170.78z M28.71,171.42c-4.39,0.32-8.81,0.44-13.19,0.84c-2.25,0.2-4.5,0.52-6.71,0.92
				c-0.37-4.32-0.58-8.65-0.73-12.97c6.8-1.29,13.63-2.38,20.5-3.24C28.39,161.79,28.43,166.61,28.71,171.42z M13.11,173.49
				c5.2-0.61,10.45-0.68,15.67-1.05c0.07,1.1,0.15,2.19,0.25,3.29c-6.59,0.83-13.15,1.87-19.64,3.27c-0.19-1.63-0.35-3.25-0.5-4.89
				C10.28,173.87,11.69,173.66,13.11,173.49z M29.12,176.85c0.45,4.83,1.13,9.63,2.04,14.39c-0.03,0.01-0.07,0.01-0.11,0.01
				c-6.33,1.04-12.61,2.38-18.82,4c-1.21-4.99-2.09-10.07-2.73-15.21C16,178.68,22.54,177.65,29.12,176.85z M30.3,176.71
				c1.79-0.21,3.58-0.41,5.37-0.59c0.76,4.74,1.68,9.43,2.79,14.07c-2.06,0.26-4.12,0.55-6.17,0.88
				C31.4,186.31,30.74,181.53,30.3,176.71z M37.47,181c-0.3-1.66-0.57-3.31-0.82-4.97c1-0.1,2-0.19,3-0.28
				c0.71,4.71,1.65,9.37,2.82,13.99c-1.03,0.11-2.07,0.22-3.1,0.34C38.67,187.06,38.03,184.04,37.47,181z M40.92,175.63
				c2.11-0.18,4.21-0.36,6.33-0.52c0.12-0.01,0.25-0.02,0.37-0.02c0.43,2.45,0.91,4.89,1.37,7.33c0.42,2.22,0.88,4.43,1.37,6.63
				c-0.46,0.03-0.92,0.05-1.39,0.09c-1.75,0.13-3.49,0.28-5.23,0.46C42.59,184.98,41.65,180.33,40.92,175.63z M40.76,174.49
				c-0.18-1.21-0.33-2.41-0.48-3.61c2.15-0.45,4.3-0.96,6.44-1.47c0.21,1.52,0.44,3.03,0.7,4.54
				C45.2,174.11,42.98,174.29,40.76,174.49z M40.16,169.85c-0.53-4.64-0.83-9.31-0.88-14.03c2.27-0.2,4.54-0.36,6.82-0.51
				c-0.2,3.49-0.13,6.98,0.2,10.41c0.08,0.87,0.18,1.74,0.29,2.62C44.44,168.86,42.3,169.39,40.16,169.85z M38.03,152.1
				c-0.01,0.89-0.02,1.78-0.01,2.67c-1.09,0.1-2.19,0.2-3.28,0.31c-0.02,0-0.04,0-0.06,0.01c-0.03-0.97-0.05-1.93-0.07-2.89
				C35.74,152.17,36.89,152.13,38.03,152.1z M33.51,152.24c0.02,0.99,0.04,1.98,0.08,2.98c-1.25,0.13-2.5,0.27-3.75,0.41
				c0.01-0.22,0.02-0.44,0.03-0.67c0.05-0.87,0.12-1.73,0.19-2.6C31.2,152.32,32.35,152.28,33.51,152.24z M15.67,153.08
				c4.38-0.29,8.77-0.5,13.16-0.67c-0.08,1.12-0.15,2.25-0.19,3.38c-6.9,0.85-13.77,1.96-20.58,3.31c-0.06-1.8-0.1-3.6-0.13-5.39
				C10.5,153.47,13.08,153.25,15.67,153.08z M-6.47,156.14c0.01-0.24,0.03-0.47,0.03-0.71c4.42-0.65,8.85-1.19,13.3-1.62
				c0.04,1.83,0.08,3.66,0.15,5.49c-3.69,0.74-7.36,1.55-11.02,2.44c-0.86,0.21-1.71,0.44-2.57,0.65
				C-6.57,160.3-6.54,158.22-6.47,156.14z M-6.56,163.33c4.52-1.07,9.07-2.04,13.62-2.92c0.12,2.86,0.25,5.71,0.44,8.57
				c0.09,1.46,0.21,2.92,0.33,4.37c-4.05,0.77-8.06,1.82-12,3.08c-0.56,0.18-1.11,0.37-1.67,0.55
				C-6.29,172.44-6.52,167.89-6.56,163.33z M-5.76,177.9c4.47-1.47,9.01-2.74,13.66-3.61c0.15,1.64,0.31,3.29,0.49,4.93
				c-4.46,0.99-8.9,2.12-13.26,3.48c-0.11,0.04-0.21,0.07-0.33,0.1C-5.41,181.17-5.6,179.53-5.76,177.9z M-3.42,193.6
				c-0.65-3.24-1.2-6.5-1.65-9.78c4.46-1.38,8.99-2.57,13.59-3.57c0.62,5.14,1.47,10.26,2.68,15.27c-4.47,1.2-8.9,2.55-13.27,4.05
				C-2.55,197.6-3.01,195.6-3.42,193.6z M12.15,199.17c-4.02,1.13-7.99,2.41-11.9,3.87c-0.44,0.16-0.87,0.33-1.3,0.5
				c-0.29-1.04-0.56-2.09-0.81-3.14c4.36-1.49,8.77-2.86,13.27-4.04C11.65,197.3,11.89,198.24,12.15,199.17z M13.2,198.87
				c-0.26-0.92-0.51-1.85-0.75-2.78c6.24-1.59,12.55-2.89,18.9-3.9c0.19,0.94,0.4,1.88,0.6,2.81
				C25.63,195.9,19.36,197.18,13.2,198.87z M34.8,194.61c-0.59,0.07-1.17,0.16-1.76,0.24c-0.21-0.94-0.4-1.89-0.59-2.83
				c2.07-0.32,4.15-0.61,6.22-0.86c0.24,0.99,0.5,1.98,0.76,2.96C37.89,194.26,36.34,194.42,34.8,194.61z M40.36,194.05
				c-0.25-1-0.51-2-0.74-3c1.03-0.12,2.07-0.24,3.1-0.35c0.27,1.04,0.56,2.07,0.85,3.1C42.5,193.87,41.43,193.96,40.36,194.05z
				 M44.84,193.74c-0.29-1.05-0.58-2.1-0.84-3.15c0.84-0.08,1.68-0.17,2.53-0.25c1.35-0.11,2.7-0.21,4.06-0.29
				c0.27,1.16,0.56,2.32,0.86,3.47C49.24,193.54,47.03,193.62,44.84,193.74z M55.39,193.5c-0.91-0.01-1.82-0.01-2.73-0.01
				c-0.08,0-0.15,0.01-0.23,0.01c-0.31-1.17-0.6-2.33-0.88-3.51c0.93-0.05,1.85-0.1,2.79-0.15
				C54.67,191.07,55.02,192.29,55.39,193.5z M54.07,188.83c-0.92,0.04-1.83,0.11-2.75,0.16c-0.38-1.65-0.72-3.31-1.04-4.99
				c-0.58-2.99-1.15-5.98-1.66-8.98c0.88-0.06,1.76-0.12,2.65-0.18C51.96,179.55,52.87,184.22,54.07,188.83z M50.53,169.27
				c0.17,1.47,0.36,2.94,0.57,4.41c-0.89,0.06-1.78,0.12-2.67,0.19c-0.26-1.57-0.48-3.14-0.68-4.72c0.9-0.22,1.8-0.44,2.71-0.65
				C50.47,168.76,50.5,169.01,50.53,169.27z M50.33,167.4c-0.91,0.22-1.82,0.45-2.72,0.67c-0.5-4.25-0.72-8.53-0.47-12.83
				c1.03-0.06,2.05-0.13,3.08-0.18C49.77,159.17,49.93,163.29,50.33,167.4z M50.4,153.51c-0.02,0.12-0.03,0.25-0.05,0.37
				c-1.05,0.05-2.1,0.12-3.15,0.19c0.04-0.54,0.08-1.09,0.14-1.64c0.02-0.2,0.05-0.4,0.07-0.6c0.75-0.02,1.49-0.04,2.23-0.07
				c0.34-0.01,0.68-0.02,1.02-0.03C50.58,152.33,50.48,152.92,50.4,153.51z"/>
		</g>
		<g>
			<path class="st14" d="M242.22,133.48c-0.01,0.38,1.73,20.68,4.68,30.89c2.95,10.21,7.85,24.1,7.85,24.1s-29.59,29.5-88.08,30.71
				c-41.98,0.87-55.27-7.29-55.27-7.29l-8.81-54.23c0,0,41.26,6.32,80.3,0.78C201.57,155.8,242.22,133.48,242.22,133.48z"/>
			<path class="st15" d="M236.34,123.43c0.02,0.38,3.35,20.48,7.09,30.43c3.74,9.95,9.72,23.41,9.72,23.41S225.97,209,167.75,214.8
				c-41.78,4.17-55.67-2.93-55.67-2.93l-13.05-53.37c0,0,41.63,3.05,80.11-5.53C197.57,148.87,236.34,123.43,236.34,123.43z"/>
			<path class="st16" d="M228.72,114.53c0.04,0.38,4.37,20.29,8.61,30.04c4.24,9.75,10.87,22.89,10.87,22.89
				s-25.56,33.05-83.41,41.76c-41.52,6.25-55.75-0.14-55.75-0.14l-15.7-52.65c0,0,41.73,0.97,79.73-9.53
				C191.27,141.87,228.72,114.53,228.72,114.53z"/>
			<path class="st9" d="M117.21,196.87c3.58,1.72,5.47,5.55,4.88,9.28c-4.14-0.37-6.96-0.92-8.69-1.34l-2.52-8.43
				C112.91,195.76,115.16,195.88,117.21,196.87z"/>
			<path class="st9" d="M109.92,161.55c0.05,1.45-0.25,2.93-0.92,4.32c-1.19,2.47-3.32,4.18-5.75,4.9l-2.67-8.95
				C103.15,161.79,106.3,161.71,109.92,161.55z"/>
			<path class="st9" d="M236.19,155.11c2.1,4.46,4.17,8.71,5.56,11.5c-1.89,2-5.02,5.05-9.43,8.6c-3.41-3.73-4.4-9.3-2.08-14.13
				C231.54,158.37,233.67,156.32,236.19,155.11z"/>
			<path class="st9" d="M225.27,123.59c0.71,2.9,1.58,6.28,2.55,9.68c-2.22,0.59-4.65,0.41-6.89-0.66
				c-1.65-0.79-2.99-1.98-3.94-3.39C220.14,127.13,222.96,125.2,225.27,123.59z"/>
			<path class="st9" d="M188.08,160.35c8.82,8.29,9.55,18.13,5.57,28.99c-1.1,3.02-2.36,6.06-4.28,8.6
				c-6.8,2.19-14.26,4.07-22.4,5.46l-0.01,0c-1.36-0.48-2.71-1.01-4.14-1.5c-8.42-2.9-15.62-8.88-19.21-17.16
				c-4.15-9.57-1.06-20.92,6.72-27.36l23.03-4.97l0.06-0.01c0.15,0.02,0.29,0.03,0.44,0.06
				C179.25,153.27,184.12,156.62,188.08,160.35z"/>
			<path class="st17" d="M225.27,123.59c0.71,2.9,1.58,6.28,2.55,9.68c1.38,4.88,2.97,9.8,4.55,13.45c1.16,2.68,2.49,5.58,3.81,8.4
				c2.1,4.46,4.17,8.71,5.56,11.5c-1.89,2-5.02,5.05-9.43,8.6c-8.91,7.16-23.08,16.3-42.95,22.73c-6.8,2.19-14.26,4.07-22.4,5.46
				l-0.01,0c-0.98,0.17-1.97,0.33-2.97,0.48c-20.23,3.05-33.66,3.01-41.9,2.27c-4.14-0.37-6.96-0.92-8.69-1.34l-2.52-8.43
				l-7.64-25.59l-2.67-8.95c2.57-0.04,5.72-0.12,9.34-0.28c10.5-0.46,24.95-1.57,40.41-4.17c7.55-1.27,15.34-2.89,23.03-4.97
				l0.06-0.01c0.37-0.1,0.73-0.2,1.09-0.3c11.51-3.18,29.68-14.36,42.48-22.88C220.14,127.13,222.96,125.2,225.27,123.59z"/>
			<g>
				<g>
					<path class="st12" d="M172.97,188.4l-0.18,0.08c-0.5,0.22-0.95,0.4-1.35,0.54c-0.41,0.14-0.8,0.25-1.18,0.34
						c-0.38,0.09-0.77,0.15-1.17,0.2c-0.39,0.05-0.81,0.08-1.25,0.09c-0.15-0.46-0.26-0.93-0.33-1.43c-0.07-0.5-0.13-1.02-0.18-1.58
						c0.75-0.02,1.42-0.1,2.02-0.25c0.6-0.15,1.22-0.36,1.85-0.63c0.95-0.42,1.62-0.9,1.99-1.45c0.38-0.55,0.41-1.19,0.09-1.91
						c-0.16-0.36-0.36-0.63-0.61-0.8c-0.25-0.17-0.51-0.28-0.8-0.34c-0.28-0.06-0.58-0.08-0.9-0.06c-0.32,0.01-0.63,0.02-0.94,0.01
						l-1.43,0c-0.59,0.01-1.14-0.02-1.65-0.07c-0.51-0.06-0.98-0.18-1.42-0.38c-0.44-0.2-0.83-0.48-1.18-0.85
						c-0.35-0.37-0.66-0.87-0.94-1.5c-0.59-1.36-0.68-2.6-0.25-3.72c0.43-1.12,1.28-2.06,2.57-2.82l-1.05-2.4
						c0.28-0.23,0.58-0.42,0.91-0.56c0.32-0.14,0.67-0.24,1.06-0.3l1.02,2.33c0.62-0.22,1.24-0.38,1.86-0.5
						c0.61-0.12,1.28-0.2,1.99-0.26c0.29,0.91,0.43,1.88,0.4,2.9c-0.27,0.01-0.54,0.02-0.81,0.03c-0.27,0.01-0.56,0.05-0.84,0.1
						c-0.29,0.06-0.61,0.14-0.96,0.24c-0.35,0.11-0.74,0.25-1.16,0.44c-0.26,0.11-0.51,0.24-0.76,0.4
						c-0.25,0.15-0.45,0.34-0.61,0.55c-0.16,0.21-0.26,0.46-0.3,0.74c-0.04,0.28,0.02,0.59,0.17,0.94c0.13,0.3,0.3,0.53,0.49,0.7
						c0.2,0.17,0.42,0.28,0.66,0.34c0.25,0.06,0.5,0.1,0.77,0.11c0.27,0.01,0.54,0.01,0.81,0l1.6-0.03
						c0.68-0.01,1.31,0.01,1.88,0.04c0.57,0.04,1.1,0.15,1.57,0.35c0.47,0.2,0.91,0.5,1.3,0.91c0.39,0.41,0.75,0.99,1.08,1.73
						c0.54,1.24,0.65,2.44,0.32,3.6c-0.33,1.16-1.1,2.18-2.31,3.07l1.15,2.62c-0.28,0.23-0.58,0.42-0.91,0.56
						c-0.33,0.14-0.68,0.24-1.05,0.3L172.97,188.4z"/>
				</g>
			</g>
		</g>
		<g>
			<path class="st6" d="M120.87,152.75c1.43,0.42,2.92,0.51,4.55,0.74c2.98,0.43,6.02,1.29,8.88,2.23
				c5.36,1.75,11.09,1.68,16.41-0.27c3.44-1.26,6.8-2.91,10.45-3.29c5.52-0.56,13.38,1.44,16.78,5.99c1.58,2.11,3.85,5.21,1.12,7.59
				c-1.95,1.7-4.93,0.71-7.51,0.8c-4.92,0.17-8.55,4.38-12.5,7.31c-5.54,4.11-12.33,5.91-19,7.19c-2.95,0.57-5.06,1.84-7.84,2.74
				c-3.41,1.1-7.02,1.61-10.49,2.52c-10.77,2.81-20.37,7.5-31.69,8.83c-2.05,0.24-4.15,0.41-6.17-0.04
				c-2.01-0.46-3.96-1.64-4.87-3.49c-0.93-1.9-0.65-4.14-0.29-6.23c1.82-10.32,4.75-23.67,14.36-29.64c2.36-1.47,4.9-2.88,7.35-4.2
				c2.53-1.36,5.22-2.41,8-3.14c2.09-0.54,4.42-0.87,6.32,0.15c1.21,0.65,2.09,1.76,3.14,2.64
				C118.86,151.98,119.85,152.45,120.87,152.75z"/>
			<path class="st7" d="M176.01,165.93c1.6-1.57,1.5-4.52-0.22-5.97c-1.44-1.21-4.29-1.24-5.57,0.27c-1.26,1.48-0.58,4.37-0.88,6.17
				C171.53,166.44,173.81,166.1,176.01,165.93z"/>
			<path class="st5" d="M129.07,177.36c-0.19-0.31-0.71-0.1-0.53,0.24c0.25,0.5,0.5,1,0.77,1.49c0.24,0.44,0.45,0.94,0.8,1.31
				c0.17,0.18,0.58,0.07,0.5-0.23C130.34,179.19,129.59,178.22,129.07,177.36z"/>
			<path class="st5" d="M153.01,160.46c0.22,2.31,1.14,4.57,2.26,6.59c0.98,1.76,2.56,4.43,4.51,5.2c0.05,0.02,0.13-0.03,0.1-0.09
				c-0.43-0.87-1.18-1.5-1.8-2.25c-0.72-0.88-1.38-1.82-1.96-2.8c-1.26-2.14-1.92-4.39-2.62-6.75
				C153.42,160.08,152.99,160.18,153.01,160.46z"/>
			<path class="st5" d="M151.17,164.82c0.14,1.27,0.7,2.5,1.31,3.62c0.55,1.02,1.27,2.42,2.34,2.97c0.1,0.05,0.21-0.06,0.18-0.16
				c-0.35-1.03-1.24-1.89-1.76-2.85c-0.65-1.19-1.04-2.45-1.6-3.68C151.52,164.49,151.14,164.53,151.17,164.82z"/>
			<path class="st5" d="M149.65,169.66c0.05,0.67,0.4,1.45,0.95,1.86c0.17,0.12,0.41-0.02,0.34-0.23c-0.1-0.32-0.3-0.6-0.45-0.91
				c-0.14-0.29-0.32-0.57-0.51-0.84C149.88,169.4,149.64,169.48,149.65,169.66z"/>
			<path class="st5" d="M131.77,172.79c0.55,2.35,1.6,4.88,2.99,6.86c0.18,0.25,0.6,0.05,0.49-0.24c-0.88-2.28-1.95-4.58-2.99-6.79
				C132.12,172.31,131.7,172.46,131.77,172.79z"/>
			<path class="st5" d="M117.61,167.75c-0.26,2.68,0.05,5.39,0.67,8c0.46,1.95,1,5.09,3,6.09c0.08,0.04,0.16-0.06,0.11-0.13
				c-2.45-4.22-2.91-9.15-3.3-13.93C118.06,167.51,117.63,167.47,117.61,167.75z"/>
		</g>
	</g>
	<g class="st1">
		<g>
			<path class="st18" d="M592.92,161.34l-2.25-1.71c0,0-2.12-0.72-2.43,4.37c-0.32,5.09,7.75,5,7.75,5L592.92,161.34z"/>
			<path class="st4" d="M561.78,224.44c9.56-7.15,16.72-17.46,20.09-28.91c1.82-6.18,2.53-12.67,2.15-19.1
				c-0.13-2.13,0.39-4.36,0.21-6.43c-0.26-3.05-2.44-6.42-4.33-8.71c-0.51-0.62-5.51,11.03-5.89,11.86
				c-1.34,2.96-2.57,5.96-3.7,9.01c-2.38,6.43-4.29,13.03-5.7,19.74C563.05,209.33,562.1,216.87,561.78,224.44z"/>
			<path class="st5" d="M456.45,177.18c-0.69,2.6-1.32,5.57,0.19,7.8c1.32,1.95,4,2.64,6.29,2.1c2.29-0.55,4.2-2.13,5.7-3.94
				c0.58-0.7,1.53-1.51,2.24-0.94c0.31,0.24,0.4,0.67,0.46,1.05c0.42,3.02-0.48,6.07-0.6,9.12c-0.11,3.05,0.93,6.56,3.75,7.74
				c2.24,0.93,4.9,0.02,6.69-1.62c1.79-1.64,2.89-3.87,3.95-6.05c0.46,2.23,0.96,4.54,2.35,6.34c1.39,1.8,3.94,2.92,6,1.95
				c3.14-1.48,2.79-5.98,4.2-9.15c1.88-4.23,6.87-5.87,11.15-7.61c7.34-2.99,14.04-7.54,19.53-13.26c2.94-3.06,5.57-6.53,7-10.52
				c1.43-3.99,1.57-8.58-0.33-12.38c-1.91-3.81-5.57-6.39-9.08-8.81c-3.25-2.24-6.51-4.47-9.76-6.71c-3.35-2.31-6.8-4.66-10.75-5.63
				c-5.43-1.33-11.99-0.07-17.39,0.98c-8.14,1.59-17.54,5.08-23.53,10.97c-3.43,3.38-6.16,7.41-8.72,11.49
				c-0.62,0.99-1.24,2.01-1.41,3.16c-0.18,1.15,0.21,2.46,1.21,3.06c0.99,0.59,2.27,0.32,3.37,0.65
				C464.51,158.6,457.34,173.79,456.45,177.18z"/>
			<path class="st5" d="M582.71,173.06c-2.5,15.11-6.07,30.04-10.68,44.65c-0.3,0.96-6.44-0.74-12.88-2.85
				c10.61-11.86,15.66-28.95,19.19-44.41C579.81,171.33,581.28,172.18,582.71,173.06z"/>
			<path class="st6" d="M453.54,147.09c0.77-3.53,2.43-6.8,3.29-10.3c0.88-3.59,1.8-7.29,3.97-10.28c2.83-3.92,7.33-6,11.87-7.27
				c4.53-1.27,8.58-2.47,12.98-4.07c6.05-2.19,13.35-0.63,19.46,0.44c9.43,1.65,18.87,3.3,28.3,4.95c3.91,0.68,8,1.44,11.13,3.89
				c2.31,1.81,3.89,4.38,5.41,6.89c4.65,7.68,9.3,15.36,13.95,23.03c1.59,2.62,2.78,5.85,4.63,8.23c2.62,3.36,6.18,5.68,9.81,7.86
				c-3.52,15.46-8.58,32.55-19.19,44.41c-6.85-2.24-14.03-4.94-14.9-5.39c-5.63-2.92-11.15-6.91-14.39-12.5
				c-3.06-5.27-2.96-11.68-6.93-16.43c-1.66-1.98-3.79-3.66-4.75-6.06c-1.33-3.33-0.06-7.05,0.9-10.5c0.67-2.42,1.29-5.43,0.36-7.87
				c-0.73-1.91-2.37-3.27-3.55-4.89c-1.26-1.74-1.66-3.43-2.45-5.33c-1.8-4.3-6.5-7.54-10.78-9.02c-6.32-2.19-10.83-0.26-16.67,1.46
				c-0.97,0.28-10.53,1.18-10.4,0.82c-1.09,3.2-2.05,6.5-4.39,9.04c-5.09-2.07-11.38-0.73-15.19,3.23
				C452.7,154.85,453.08,149.2,453.54,147.09z"/>
			<path class="st5" d="M491.34,115.66c0.32,0.54,0.57,1.07,0.73,1.68c0.14,0.54,0.36,1.31,0.1,1.83c-0.14,0.28-0.49,0.27-0.64,0.01
				c-0.24-0.43-0.18-1.03-0.27-1.51c-0.11-0.57-0.26-1.14-0.46-1.69C490.69,115.67,491.14,115.34,491.34,115.66z"/>
			<path class="st5" d="M465.07,126.92c1.61,0.11,2.95,0.93,4.01,2.12c0.59,0.66,2.42,2.77,1.92,3.68
				c-0.07,0.12-0.17,0.17-0.31,0.13c-0.18-0.05-0.21-0.1-0.3-0.27c-0.04-0.07,0-0.17,0.05-0.21c0.03-0.02,0.05-0.04,0.08-0.06
				c0.01-0.01,0.02,0,0.03-0.01c-0.32-0.43-0.93-1.31-1.01-1.42c-0.33-0.47-0.67-0.94-1.07-1.36c-0.95-1-2.11-1.66-3.5-1.72
				C464.39,127.78,464.5,126.88,465.07,126.92z"/>
			<path class="st5" d="M463.33,128.38c0.63,0.1,1.16,0.68,1.65,1.07c0.56,0.44,1.13,0.87,1.62,1.39c0.16,0.17-0.07,0.46-0.27,0.36
				c-0.64-0.32-1.22-0.74-1.81-1.14c-0.52-0.36-1.22-0.68-1.5-1.26C462.92,128.6,463.11,128.35,463.33,128.38z"/>
			<path class="st5" d="M466.39,123.95c0.4,0.05,0.77,0.25,1.14,0.42c0.4,0.18,0.8,0.37,1.19,0.56c0.33,0.16,0.13,0.67-0.22,0.53
				c-0.41-0.16-0.82-0.32-1.22-0.49c-0.37-0.15-0.78-0.28-1.08-0.54C466,124.25,466.12,123.92,466.39,123.95z"/>
			<path class="st7" d="M458.92,142.35c-0.1,0.29-0.24,0.61-0.4,0.98c-0.9,2.01-2.61,6.24-5.07,6.59c0.2-1.07,4.05-10.65,3.01-11.19
				C458.88,139.99,459.65,140.3,458.92,142.35z"/>
			<path class="st7" d="M562.79,224.32c5.25,0.59,10.38,2.18,15.05,4.64c0.95,0.5,8.67-16.77,9.29-18.39
				c2.51-6.59,4.33-13.45,5.42-20.42c1.09-6.97,1.45-14.05,1.05-21.09c-0.17-2.92-0.08-4.68-3-5.62c-3.22-1.04-6.87-1.67-10.22-1.98
				c0.6,2.9,1.62,6.02,1.9,8.98c0.38,4.08-0.95,8.73-1.79,12.7c-1.82,8.7-4.67,17.17-8.47,25.21
				C569.4,213.91,566.31,219.26,562.79,224.32z"/>
			<path class="st10" d="M612.49,242.51c-6.83-2.3-13.66-4.59-20.48-6.89c-5.24-1.76-11.38-2.49-16.24-5.14
				c1.15-2.3,2.99-4.02,4.27-6.22c1.6-2.76,2.76-5.88,3.96-8.83c2.39-5.85,4.23-11.92,5.51-18.11c1.32-6.36,2.04-12.84,2.14-19.34
				c0.03-1.77,0.09-18.12-1.38-18.35c13.41,2.08,50.82,9.97,64.22,12.05c6.23,23.37,3.86,48.93-6.55,70.76
				c-1.43,3-3.48,6.27-6.77,6.7C639.58,249.35,614,243.01,612.49,242.51z"/>
		</g>
		<g>
			<path class="st8" d="M492.93,128.73l-10.5-8.77l32.48-38.89c1.38-1.66,3.85-1.88,5.51-0.49l7.49,6.26L492.93,128.73z"/>
			
				<rect x="481.93" y="121.35" transform="matrix(0.7675 0.6411 -0.6411 0.7675 192.5267 -284.7239)" class="st7" width="13.68" height="3.4"/>
			<path class="st19" d="M505.63,118.36L505.63,118.36l24.66-29.53l3.03,2.53l-22.14,26.5C509.79,119.53,507.3,119.75,505.63,118.36
				z"/>
			
				<rect x="464.52" y="118.13" transform="matrix(0.7675 0.6411 -0.6411 0.7675 202.5266 -267.5367)" class="st8" width="11.12" height="54.58"/>
			
				<rect x="480.57" y="123.96" transform="matrix(0.7675 0.6411 -0.6411 0.7675 193.9384 -282.297)" class="st20" width="11.12" height="4.5"/>
			<path class="st8" d="M441.98,179.06l3.2-1.96c-0.62-0.44-1.29-0.81-2.01-1.09L441.98,179.06z"/>
			<path class="st19" d="M448.32,162.81l-5.15,13.2c0.71,0.28,1.39,0.65,2.01,1.09l11.67-7.16L448.32,162.81z"/>
			
				<rect x="523.49" y="86.36" transform="matrix(0.7675 0.6411 -0.6411 0.7675 178.4391 -317.5851)" class="st19" width="7.09" height="1.68"/>
		</g>
		<g>
			<path class="st6" d="M516.09,166.58c-1.52,0.36-3.03,0.63-4.55,0.71c-5.68,0.3-12.39-2.06-17.76-3.68
				c-6.4-1.93-12.17-5.79-16.48-10.9c-3.85-4.55-8.68-7.57-15.06-6.62c-4.28,0.64-10.15,3.62-9.15,8.72
				c0.47,2.39,2.06,4.41,3.76,6.15c1.71,1.74,3.6,3.34,4.93,5.39c1.94,2.97,2.55,6.66,4.48,9.64c3.01,4.64,8.62,6.74,13.11,9.97
				c4.71,3.38,8.33,8.14,13.21,11.27c6.96,4.46,15.75,5.17,23.66,6.92c9.38,2.08,18.83,3.86,28.33,5.34
				c2.62,0.41,5.4,0.78,7.86-0.21c3.02-1.21,4.92-4.22,6.13-7.24c4.79-11.93,1.7-28.4-10-35.08c-5.56-3.17-12.16-4.18-18.55-3.74
				C525.27,163.53,520.67,165.49,516.09,166.58z"/>
			<path class="st7" d="M454.35,157.95c-0.32-2.7,2.19-7.49,5.51-6.08c1.12,0.48,1.94,1.45,2.72,2.39c1.22,1.48,2.93,3.8,2.55,5.89
				c-0.13,0.71-3.3,4.78-3.26,4.81C459.2,162.89,456.81,160.28,454.35,157.95z"/>
			<path class="st5" d="M505.35,185.87c-1.33,1.27-2.31,2.9-3.63,4.21c-1.44,1.44-3.09,2.61-4.62,3.94
				c-0.17,0.15-0.01,0.43,0.2,0.34c3.22-1.31,7.33-4.76,8.6-8.07C506.02,185.98,505.62,185.61,505.35,185.87z"/>
			<path class="st5" d="M499.38,187.65c-0.21,0.29-0.27,0.63-0.43,0.94c-0.16,0.32-0.38,0.64-0.61,0.91
				c-0.49,0.58-1.17,0.87-1.72,1.36c-0.17,0.15-0.11,0.46,0.13,0.49c0.86,0.09,1.69-0.51,2.25-1.1c0.55-0.57,1.23-1.58,1.06-2.42
				C500.01,187.51,499.58,187.36,499.38,187.65z"/>
			<path class="st5" d="M498.56,183.53c-0.64,0.6-6.47,7.66-6.66,7.5c-0.15-0.14-0.4,0.06-0.31,0.24c0.03,0.06,0.06,0.13,0.09,0.19
				c0.04,0.07,0.11,0.14,0.19,0.15c1.17,0.05,2.25-1.68,2.96-2.45c1.46-1.6,3.11-3.24,4.28-5.07
				C499.35,183.74,498.91,183.2,498.56,183.53z"/>
			<path class="st5" d="M474.2,166.88c-2.59,0.73-5.23,2.94-6.59,5.23c-0.08,0.13,0.08,0.34,0.21,0.21c1.01-0.95,1.98-1.95,3.1-2.78
				c1.13-0.84,2.38-1.42,3.57-2.16C474.81,167.2,474.49,166.8,474.2,166.88z"/>
			<path class="st5" d="M472.75,171.89c-1.07,0.52-1.81,1.58-2.56,2.47c-0.11,0.14,0.08,0.31,0.21,0.21
				c0.93-0.66,2.03-1.31,2.62-2.32C473.14,172.07,472.99,171.78,472.75,171.89z"/>
			<path class="st5" d="M475.91,171.74c-0.62,1.15-1.22,2.28-2.15,3.21c-0.95,0.95-2.07,1.5-3.23,2.16
				c-0.19,0.11-0.13,0.39,0.1,0.37c2.74-0.2,5.47-2.92,5.93-5.56C476.63,171.51,476.08,171.42,475.91,171.74z"/>
			<path class="st5" d="M510.16,191.32c-0.85,1.43-1.63,2.84-2.75,4.08c-1.22,1.35-2.72,2.2-4.06,3.39
				c-0.13,0.12-0.06,0.4,0.15,0.35c3.19-0.8,6.29-4.44,7.23-7.49C510.83,191.32,510.37,190.97,510.16,191.32z"/>
		</g>
	</g>
</g>
</svg>
