<?xml version="1.0" encoding="utf-8"?>
<!-- Generator: Adobe Illustrator 23.0.5, SVG Export Plug-In . SVG Version: 6.00 Build 0)  -->
<svg version="1.0" id="Layer_1" xmlns="http://www.w3.org/2000/svg" xmlns:xlink="http://www.w3.org/1999/xlink" x="0px" y="0px"
	 viewBox="0 0 624 320" style="enable-background:new 0 0 624 320;" xml:space="preserve">
<style type="text/css">
	.st0{opacity:0.3;fill:#35B24A;}
	.st1{fill:#E1E1E1;}
	.st2{fill:#375A64;}
	.st3{fill:#FFFFFF;}
	.st4{fill:#00A26D;}
	.st5{fill:#1A2E35;}
	.st6{fill:#EF6A1C;}
	.st7{fill:#FF4F5B;}
	.st8{fill:#F99746;}
	.st9{fill:#CC6C2B;}
	.st10{fill:#015E3A;}
	.st11{fill:#FFBF9D;}
	.st12{fill:#FF9A6C;}
	.st13{opacity:0.6;}
	.st14{fill:none;stroke:#7A9198;stroke-width:0.05;stroke-miterlimit:10;}
	.st15{opacity:0.6;fill:#FFFFFF;}
	.st16{opacity:0.1;}
	.st17{fill:#F5F5F5;}
	.st18{fill:#ECECEC;}
	.st19{fill:#FAFAFA;}
	.st20{fill:#B78876;}
	.st21{fill:#AA6550;}
	.st22{opacity:0.4;}
	.st23{opacity:0.3;}
</style>
<rect y="0" class="st0" width="624" height="320"/>
<g>
	<g>
		<path class="st1" d="M58.86,55.73C58.58,37.91,72.78,23.18,90.51,22.9c17.74-0.29,32.4,13.98,32.68,31.8
			c0.28,17.82-13.91,32.55-31.65,32.84C73.81,87.82,59.15,73.55,58.86,55.73z M106.41,54.96c-0.14-8.52-7.15-15.34-15.63-15.2
			c-8.48,0.14-15.27,7.18-15.13,15.7c0.14,8.52,7.15,15.34,15.63,15.2C99.76,70.53,106.55,63.48,106.41,54.96z"/>
	</g>
	<g>
		<g>
			<g>
				<path class="st2" d="M151.76,314.94c-0.83-0.71-2.67-2.96-1.25-5.57c0.52-0.96,1.63-1.43,2.63-1.85c1-0.42,2.06-0.79,2.89-1.49
					c1.56-1.33,2-3.54,3.03-5.32c1.19-2.04,3.42-3.56,5.77-3.46c2.69,0.12,4.94,2.32,5.95,4.83c1.02,2.51,1.05,5.29,1.07,8
					c0.01,1.5-0.05,3.18-1.15,4.2c-1.01,0.93-2.54,0.94-3.91,0.9c-4.9-0.15-9.81-0.3-14.71-0.45"/>
			</g>
		</g>
		<g>
			<g>
				<g>
					<path class="st3" d="M179.9,274.49h-38.69l6.97,41.56c0.3,1.82,1.62,3.21,3.3,3.7c0.04,0.01,0.09,0.02,0.14,0.04
						c0.12,0.03,0.23,0.07,0.34,0.09c0.26,0.05,0.52,0.08,0.79,0.09c0,0.01,0,0.03,0.01,0.04l0.19-0.03c0,0,0,0,0,0h17.24
						c0.32,0,0.64-0.03,0.95-0.09c2.04-0.31,3.67-1.95,3.91-4.06l3.36-28.63l0.15-1.14h-0.02l1.33-11.34L179.9,274.49z M172.6,301
						h-3.97l0.4-12.06h4.6L172.6,301z M174.02,288.94h3.8L176.4,301h-3.42L174.02,288.94z M162.67,314.37l-0.24-10.48h5.72
						l-0.35,10.48H162.67z M156.49,303.89h5.56l0.24,10.48h-4.98L156.49,303.89z M156.92,314.37h-4.66
						c-0.44-2.83-1.02-6.51-1.64-10.48h5.49L156.92,314.37z M156.27,301l-0.94-12.06h6.37l0.28,12.06H156.27z M162.37,301
						l-0.28-12.06h6.56l-0.4,12.06H162.37z M162.02,286.04l-0.26-11.17h7.35l-0.37,11.17H162.02z M161.64,286.04h-6.53l-0.87-11.17
						h7.14L161.64,286.04z M154.72,286.04h-6.91c-0.24-1.54-0.48-3-0.69-4.32c-0.72-4.52-0.99-6.21-1.14-6.85h7.87L154.72,286.04z
						 M154.95,288.94l0.94,12.06h-5.72c-0.19-1.22-0.39-2.46-0.58-3.7c-0.45-2.85-0.9-5.69-1.32-8.36H154.95z M149.78,301h-3.73
						l-2.02-12.06h3.86C148.47,292.66,149.12,296.81,149.78,301z M150.23,303.89c0.57,3.63,1.13,7.2,1.64,10.48h-3.59l-1.76-10.48
						H150.23z M168.19,314.37l0.35-10.48h3.82l-0.9,10.48H168.19z M169.13,286.04l0.37-11.17h5.33l-0.95,11.17H169.13z
						 M145.62,274.87c0.15,0.81,0.86,5.2,1.81,11.17h-3.88l-1.87-11.17H145.62z M174.83,314.37h-2.99l0.9-10.48h3.32L174.83,314.37z
						 M178.16,286.04h-3.89l0.95-11.17h4.25L178.16,286.04z"/>
				</g>
			</g>
		</g>
	</g>
	<g>
		
			<rect x="552.63" y="269.4" transform="matrix(-1 -4.490509e-11 4.490509e-11 -1 1117.7667 588.8056)" class="st4" width="12.52" height="50"/>
		
			<rect x="534.22" y="280.31" transform="matrix(-1 -4.490509e-11 4.490509e-11 -1 1080.9493 599.7124)" class="st4" width="12.52" height="39.09"/>
		
			<rect x="515.53" y="289.24" transform="matrix(-1 -4.475987e-11 4.475987e-11 -1 1043.5715 608.6423)" class="st4" width="12.52" height="30.16"/>
		
			<rect x="498.23" y="301.49" transform="matrix(-1 -4.490509e-11 4.490509e-11 -1 1008.9673 620.8931)" class="st4" width="12.52" height="17.91"/>
	</g>
	<g>
		<g>
			<path class="st1" d="M556.67,140.82c-11.55-10.73-29.73-10.11-40.53,1.37c-10.79,11.48-10.17,29.55,1.38,40.28
				c11.55,10.73,29.73,10.11,40.53-1.37C568.84,169.62,568.22,151.55,556.67,140.82z M547.12,170.95
				c-5.16,5.49-13.85,5.78-19.38,0.66c-5.52-5.13-5.82-13.77-0.66-19.26c5.16-5.49,13.85-5.78,19.38-0.66
				C551.98,156.82,552.28,165.46,547.12,170.95z"/>
			<g>
				<path class="st3" d="M555.5,136.16c14.15,13.14,15.85,34.51,2.63,48.57l-14.36-12.44c6.32-6.73,7.69-15.71,0.93-21.99
					L555.5,136.16z"/>
			</g>
		</g>
	</g>
	<g>
		<g>
			<g>
				<path class="st4" d="M210.75,220.85h-76.49c-1.31,0-2.38-1.06-2.38-2.38v-18.13c0-1.31,1.06-2.38,2.38-2.38h76.49
					c1.31,0,2.38,1.06,2.38,2.38v18.13C213.12,219.78,212.06,220.85,210.75,220.85z"/>
			</g>
		</g>
		<g>
			<g>
				<ellipse class="st3" cx="145.14" cy="210.11" rx="4.95" ry="4.97"/>
			</g>
		</g>
		<g>
			<g>
				<g>
					<path class="st4" d="M147.92,208.42c0.07,0.08-1.12,1.36-2.66,2.88c-0.22,0.22-0.44,0.43-0.65,0.63l-0.13,0.13l-0.13-0.13
						c-1.2-1.24-2.05-2.2-1.99-2.26c0.06-0.06,1.02,0.79,2.25,2l-0.26,0c0.21-0.21,0.42-0.42,0.65-0.64
						C146.54,209.51,147.85,208.35,147.92,208.42z"/>
				</g>
			</g>
		</g>
		<g>
			<g>
				<g>
					<path class="st3" d="M205.12,207.66c0,0.11-10.9,0.19-24.35,0.19c-13.45,0-24.36-0.09-24.36-0.19c0-0.11,10.9-0.19,24.36-0.19
						C194.22,207.46,205.12,207.55,205.12,207.66z"/>
				</g>
			</g>
		</g>
		<g>
			<g>
				<g>
					<path class="st3" d="M205.34,211.8c0,0.11-10.9,0.19-24.35,0.19c-13.45,0-24.36-0.09-24.36-0.19s10.9-0.19,24.36-0.19
						C194.43,211.61,205.34,211.69,205.34,211.8z"/>
				</g>
			</g>
		</g>
	</g>
	<g>
		<g>
			<g>
				<g>
					<rect x="199.13" y="49.69" class="st3" width="196.63" height="128.97"/>
				</g>
			</g>
		</g>
		<g>
			<g>
				<g>
					<g>
						<path class="st4" d="M259.22,120.91l19.34,0.27c-0.15,10.31-8.83,18.71-19.34,18.71c-0.04,0-0.08,0-0.11,0L259.22,120.91z"/>
					</g>
				</g>
				<g>
					<g>
						<g>
							<path class="st5" d="M291.2,147.1c0,0.01-0.14,0.02-0.41,0.03c-0.31,0.01-0.7,0.02-1.18,0.03c-1.07,0.01-2.53,0.03-4.32,0.05
								l-0.05,0l-0.04-0.04c-1.73-2.17-3.95-4.98-6.38-8.04c-1.89-2.41-3.65-4.65-5.14-6.56l0.1,0.05
								c-2.33-0.02-4.28-0.04-5.69-0.05c-0.66-0.01-1.19-0.03-1.59-0.04c-0.37-0.01-0.56-0.03-0.56-0.04s0.2-0.03,0.56-0.04
								c0.4-0.01,0.94-0.02,1.59-0.04c1.41-0.01,3.36-0.03,5.69-0.05l0.06,0l0.04,0.05c1.5,1.9,3.28,4.14,5.18,6.53
								c2.41,3.08,4.62,5.9,6.33,8.08l-0.09-0.04c1.79,0.02,3.25,0.04,4.32,0.05c0.48,0.01,0.88,0.02,1.18,0.03
								C291.06,147.08,291.2,147.09,291.2,147.1z"/>
						</g>
					</g>
				</g>
				<g>
					<g>
						<g>
							<path class="st5" d="M298.14,149.33c0,0.08-2.8,0.15-6.26,0.15c-3.46,0-6.26-0.07-6.26-0.15c0-0.08,2.8-0.15,6.26-0.15
								C295.34,149.18,298.14,149.25,298.14,149.33z"/>
						</g>
					</g>
				</g>
				<g>
					<g>
						<g>
							<path class="st5" d="M298.14,151.65c0,0.08-2.8,0.15-6.26,0.15c-3.46,0-6.26-0.07-6.26-0.15c0-0.08,2.8-0.15,6.26-0.15
								C295.34,151.5,298.14,151.57,298.14,151.65z"/>
						</g>
					</g>
				</g>
			</g>
			<g>
				<g>
					<g>
						<path class="st6" d="M256.16,118.16l-0.27,18.97c-10.51-0.14-19.07-8.66-19.07-18.97c0-10.41,8.73-18.97,19.34-18.97
							c10.61,0,19.34,8.56,19.34,18.97H256.16z"/>
					</g>
				</g>
				<g>
					<g>
						<g>
							<path class="st5" d="M248.61,111.96c0,0.01-0.11,0.04-0.34,0.08c-0.26,0.04-0.58,0.09-0.96,0.15
								c-0.89,0.12-2.07,0.29-3.47,0.49l-0.06,0.01l-0.04-0.04c-1.32-1.29-2.92-2.84-4.63-4.51c-2.23-2.18-4.23-4.17-5.67-5.62
								c-0.69-0.7-1.26-1.28-1.69-1.73c-0.4-0.41-0.61-0.65-0.59-0.66c0.01-0.01,0.25,0.19,0.67,0.58c0.45,0.43,1.05,0.99,1.76,1.66
								c1.48,1.41,3.5,3.38,5.73,5.56c1.7,1.69,3.29,3.25,4.6,4.55l-0.1-0.03c1.41-0.16,2.6-0.29,3.49-0.38
								c0.38-0.03,0.71-0.06,0.97-0.09C248.49,111.95,248.61,111.94,248.61,111.96z"/>
						</g>
					</g>
				</g>
				<g>
					<g>
						<g>
							<path class="st5" d="M226.25,99.29c0,0.08-2.8,0.15-6.26,0.15c-3.46,0-6.26-0.07-6.26-0.15c0-0.08,2.8-0.15,6.26-0.15
								C223.45,99.14,226.25,99.21,226.25,99.29z"/>
						</g>
					</g>
				</g>
				<g>
					<g>
						<g>
							<path class="st5" d="M226.25,101.6c0,0.08-2.8,0.15-6.26,0.15c-3.46,0-6.26-0.07-6.26-0.15c0-0.08,2.8-0.15,6.26-0.15
								C223.45,101.46,226.25,101.52,226.25,101.6z"/>
						</g>
					</g>
				</g>
			</g>
		</g>
		<g>
			<g>
				<g>
					<g>
						<g>
							<path class="st7" d="M323.83,80.68l-0.08-11.79c-3.47,0.02-7.01,1.39-9.73,3.79c-3.2,2.83-5.25,7.08-4.69,12.21
								c0.06,0.56,0.15,1.13,0.28,1.71c0,0.01,0,0.03,0.01,0.04l0,0l14.21-3.2V80.68z"/>
						</g>
					</g>
					<g>
						<g>
							<path class="st8" d="M323.83,80.68l-0.08-11.79c-3.47,0.02-7.01,1.39-9.73,3.79c-3.2,2.83-5.25,7.08-4.69,12.21
								c0.06,0.56,0.15,1.13,0.28,1.71c0,0.01,0,0.03,0.01,0.04l0,0l14.21-3.2V80.68z"/>
						</g>
					</g>
					<g>
						<g>
							<path class="st7" d="M338.47,77.05c-1.99-4.15-5.9-7.47-11.47-8.03c-0.15-0.01-0.3-0.03-0.45-0.04
								c-0.1-0.01-0.19-0.02-0.29-0.02c-0.28-0.02-0.57-0.02-0.86-0.02c-0.01,0-0.03,0-0.04,0c0,0,0,0,0,0c-0.01,0-0.02,0-0.04,0v0
								v0l0.08,11.79l0.02,2.77l14.21,3.1l0.02,0v0c0.22-1,0.32-2.02,0.32-3.06C339.96,81.33,339.45,79.09,338.47,77.05z"/>
						</g>
					</g>
					<g>
						<g>
							<path class="st9" d="M338.47,77.05c-1.99-4.15-5.9-7.47-11.47-8.03c-0.15-0.01-0.3-0.03-0.45-0.04
								c-0.1-0.01-0.19-0.02-0.29-0.02c-0.28-0.02-0.57-0.02-0.86-0.02c-0.01,0-0.03,0-0.04,0c0,0,0,0,0,0c-0.01,0-0.02,0-0.04,0v0
								v0l0.08,11.79l0.02,2.77l14.21,3.1l0.02,0v0c0.22-1,0.32-2.02,0.32-3.06C339.96,81.33,339.45,79.09,338.47,77.05z"/>
						</g>
					</g>
				</g>
				<g>
					<g>
						<path class="st6" d="M324.59,84.92l-14.21,3.2c1.46,6.5,7.26,11.37,14.21,11.37c6.98,0,12.81-4.91,14.23-11.46l-14.21-3.1"/>
					</g>
				</g>
			</g>
			<g>
				<g>
					<g>
						<path class="st5" d="M379.89,82.8c0,0.11-7.34,0.19-16.4,0.19c-9.06,0-16.4-0.09-16.4-0.19c0-0.11,7.34-0.19,16.4-0.19
							C372.54,82.61,379.89,82.69,379.89,82.8z"/>
					</g>
				</g>
			</g>
			<g>
				<g>
					<g>
						<path class="st5" d="M379.89,79.06c0,0.11-7.34,0.19-16.4,0.19c-9.06,0-16.4-0.09-16.4-0.19c0-0.11,7.34-0.19,16.4-0.19
							C372.54,78.87,379.89,78.95,379.89,79.06z"/>
					</g>
				</g>
			</g>
			<g>
				<g>
					<g>
						<path class="st5" d="M379.89,75.32c0,0.11-7.34,0.19-16.4,0.19c-9.06,0-16.4-0.09-16.4-0.19c0-0.11,7.34-0.19,16.4-0.19
							C372.54,75.13,379.89,75.21,379.89,75.32z"/>
					</g>
				</g>
			</g>
			<g>
				<g>
					<g>
						<path class="st5" d="M379.89,86.28c0,0.11-7.34,0.19-16.4,0.19c-9.06,0-16.4-0.09-16.4-0.19c0-0.11,7.34-0.19,16.4-0.19
							C372.54,86.09,379.89,86.17,379.89,86.28z"/>
					</g>
				</g>
			</g>
			<g>
				<g>
					<g>
						<path class="st5" d="M369.73,90.06c0,0.11-5.04,0.19-11.27,0.19c-6.22,0-11.27-0.09-11.27-0.19c0-0.11,5.04-0.19,11.27-0.19
							C364.68,89.87,369.73,89.96,369.73,90.06z"/>
					</g>
				</g>
			</g>
		</g>
		<g>
			<g>
				<g>
					<g>
						<rect x="312.67" y="117.13" class="st6" width="3.38" height="37.74"/>
					</g>
				</g>
			</g>
			<g>
				<g>
					<g>
						<rect x="319.2" y="129.95" class="st7" width="3.38" height="24.92"/>
					</g>
				</g>
			</g>
			<g>
				<g>
					<g>
						<rect x="325.72" y="121.82" class="st6" width="3.38" height="33.24"/>
					</g>
				</g>
			</g>
			<g>
				<g>
					<g>
						<rect x="332.25" y="118.59" class="st7" width="3.38" height="36.28"/>
					</g>
				</g>
			</g>
			<g>
				<g>
					<g>
						<rect x="338.77" y="130.72" class="st6" width="3.38" height="24.15"/>
					</g>
				</g>
			</g>
			<g>
				<g>
					<g>
						<rect x="345.29" y="135.46" class="st7" width="3.38" height="19.42"/>
					</g>
				</g>
			</g>
			<g>
				<g>
					<g>
						<rect x="351.82" y="121.01" class="st6" width="3.38" height="33.87"/>
					</g>
				</g>
			</g>
			<g>
				<g>
					<g>
						<rect x="358.34" y="127.11" class="st7" width="3.38" height="27.76"/>
					</g>
				</g>
			</g>
			<g>
				<g>
					<g>
						<rect x="364.87" y="122.23" class="st6" width="3.38" height="32.64"/>
					</g>
				</g>
			</g>
			<g>
				<g>
					<g>
						<rect x="371.39" y="132.64" class="st7" width="3.38" height="22.24"/>
					</g>
				</g>
			</g>
			<g>
				<g>
					<g>
						<rect x="377.91" y="128.41" class="st6" width="3.38" height="26.47"/>
					</g>
				</g>
			</g>
			<g>
				<g>
					<g>
						<g>
							<path class="st5" d="M382.67,157.5c0,0.08-16.03,0.14-35.8,0.14c-19.78,0-35.8-0.06-35.8-0.14c0-0.08,16.03-0.14,35.8-0.14
								C366.64,157.36,382.67,157.43,382.67,157.5z"/>
						</g>
					</g>
				</g>
			</g>
			<g>
				<g>
					<g>
						<g>
							<path class="st5" d="M317.49,160.47c0,0.08-1.12,0.14-2.51,0.14c-1.39,0-2.51-0.06-2.51-0.14c0-0.08,1.12-0.14,2.51-0.14
								C316.37,160.33,317.49,160.4,317.49,160.47z"/>
						</g>
					</g>
				</g>
			</g>
			<g>
				<g>
					<g>
						<g>
							<path class="st5" d="M325.81,160.62c0,0.08-1.34,0.14-3,0.14c-1.66,0-3-0.06-3-0.14c0-0.08,1.34-0.14,3-0.14
								C324.47,160.49,325.81,160.55,325.81,160.62z"/>
						</g>
					</g>
				</g>
			</g>
			<g>
				<g>
					<g>
						<g>
							<path class="st5" d="M332.91,160.62c0,0.08-1.34,0.14-3,0.14c-1.66,0-3-0.06-3-0.14c0-0.08,1.34-0.14,3-0.14
								C331.57,160.49,332.91,160.55,332.91,160.62z"/>
						</g>
					</g>
				</g>
			</g>
			<g>
				<g>
					<g>
						<g>
							<path class="st5" d="M340,160.62c0,0.08-1.34,0.14-3,0.14c-1.66,0-3-0.06-3-0.14c0-0.08,1.34-0.14,3-0.14
								C338.66,160.49,340,160.55,340,160.62z"/>
						</g>
					</g>
				</g>
			</g>
			<g>
				<g>
					<g>
						<g>
							<path class="st5" d="M347.1,160.62c0,0.08-1.34,0.14-3,0.14c-1.66,0-3-0.06-3-0.14c0-0.08,1.34-0.14,3-0.14
								C345.76,160.49,347.1,160.55,347.1,160.62z"/>
						</g>
					</g>
				</g>
			</g>
			<g>
				<g>
					<g>
						<g>
							<path class="st5" d="M354.19,160.62c0,0.08-1.34,0.14-3,0.14c-1.66,0-3-0.06-3-0.14c0-0.08,1.34-0.14,3-0.14
								C352.85,160.49,354.19,160.55,354.19,160.62z"/>
						</g>
					</g>
				</g>
			</g>
			<g>
				<g>
					<g>
						<g>
							<path class="st5" d="M361.29,160.62c0,0.08-1.34,0.14-3,0.14c-1.66,0-3-0.06-3-0.14c0-0.08,1.34-0.14,3-0.14
								C359.95,160.49,361.29,160.55,361.29,160.62z"/>
						</g>
					</g>
				</g>
			</g>
			<g>
				<g>
					<g>
						<g>
							<path class="st5" d="M368.38,160.62c0,0.08-1.34,0.14-3,0.14c-1.66,0-3-0.06-3-0.14c0-0.08,1.34-0.14,3-0.14
								C367.04,160.49,368.38,160.55,368.38,160.62z"/>
						</g>
					</g>
				</g>
			</g>
			<g>
				<g>
					<g>
						<g>
							<path class="st5" d="M375.48,160.62c0,0.08-1.34,0.14-3,0.14c-1.66,0-3-0.06-3-0.14c0-0.08,1.34-0.14,3-0.14
								C374.14,160.49,375.48,160.55,375.48,160.62z"/>
						</g>
					</g>
				</g>
			</g>
			<g>
				<g>
					<g>
						<g>
							<path class="st5" d="M382.57,160.62c0,0.08-1.34,0.14-3,0.14c-1.66,0-3-0.06-3-0.14c0-0.08,1.34-0.14,3-0.14
								C381.23,160.49,382.57,160.55,382.57,160.62z"/>
						</g>
					</g>
				</g>
			</g>
			<g>
				<g>
					<g>
						<rect x="319.2" y="129.95" class="st8" width="3.38" height="24.92"/>
					</g>
				</g>
			</g>
			<g>
				<g>
					<g>
						<rect x="332.25" y="118.59" class="st8" width="3.38" height="36.28"/>
					</g>
				</g>
			</g>
			<g>
				<g>
					<g>
						<rect x="345.29" y="135.46" class="st8" width="3.38" height="19.42"/>
					</g>
				</g>
			</g>
			<g>
				<g>
					<g>
						<rect x="358.34" y="127.11" class="st8" width="3.38" height="27.76"/>
					</g>
				</g>
			</g>
			<g>
				<g>
					<g>
						<rect x="371.39" y="132.64" class="st8" width="3.38" height="22.24"/>
					</g>
				</g>
			</g>
		</g>
		<g>
			<g>
				<path class="st6" d="M223.02,73.93c0,1.8-1.46,3.25-3.25,3.25c-1.8,0-3.25-1.46-3.25-3.25c0-1.8,1.46-3.25,3.25-3.25
					C221.56,70.68,223.02,72.14,223.02,73.93z"/>
			</g>
		</g>
		<g>
			<g>
				<g>
					<path class="st6" d="M278.94,71.37c0,0.11-10.97,0.19-24.49,0.19c-13.53,0-24.5-0.09-24.5-0.19c0-0.11,10.97-0.19,24.5-0.19
						C267.98,71.18,278.94,71.26,278.94,71.37z"/>
				</g>
			</g>
		</g>
		<g>
			<g>
				<g>
					<path class="st6" d="M249.62,75.3c0,0.03-0.27,0.05-0.76,0.07c-0.49,0.02-1.2,0.04-2.07,0.06c-1.75,0.03-4.16,0.06-6.83,0.06
						c-2.67,0-5.08-0.02-6.83-0.06c-0.87-0.02-1.58-0.04-2.07-0.06c-0.49-0.02-0.76-0.05-0.76-0.07c0-0.03,0.27-0.05,0.76-0.07
						c0.49-0.02,1.2-0.04,2.07-0.06c1.75-0.03,4.16-0.06,6.83-0.06c2.67,0,5.08,0.02,6.83,0.06c0.87,0.02,1.58,0.04,2.07,0.06
						C249.35,75.25,249.62,75.27,249.62,75.3z"/>
				</g>
			</g>
		</g>
	</g>
	<g>
		<g>
			<rect x="92.21" y="61.37" class="st3" width="102.91" height="117.45"/>
		</g>
	</g>
	<g>
		<g>
			<g>
				<g>
					<path class="st6" d="M186.28,121.34c-0.03,0.07-1.14-0.57-3.31-1.26c-2.15-0.67-5.47-1.31-9.49-0.7
						c-1.99,0.32-4.15,0.92-6.26,2.01c-2.12,1.06-4.15,2.64-6.15,4.43c-2.02,1.78-4.02,3.8-6.33,5.67
						c-2.31,1.84-4.96,3.58-8.08,4.37c-1.55,0.4-3.17,0.5-4.72,0.28c-1.55-0.21-3.02-0.72-4.37-1.35c-2.71-1.28-5.03-2.96-7.32-4.36
						c-2.28-1.43-4.57-2.56-6.89-3.09c-2.3-0.56-4.54-0.67-6.55-0.5c-4.05,0.35-7.11,1.79-9.05,2.95c-1.94,1.19-2.86,2.08-2.91,2.02
						c-0.02-0.02,0.21-0.24,0.66-0.65c0.44-0.41,1.14-0.97,2.11-1.6c1.91-1.24,5-2.78,9.14-3.21c2.06-0.21,4.36-0.12,6.74,0.43
						c2.39,0.52,4.79,1.68,7.09,3.1c2.33,1.4,4.65,3.06,7.28,4.28c2.6,1.25,5.67,1.81,8.63,1.01c2.96-0.75,5.55-2.43,7.82-4.23
						c2.27-1.83,4.29-3.84,6.33-5.62c2.04-1.79,4.12-3.39,6.32-4.46c2.18-1.1,4.41-1.69,6.45-1.98c4.12-0.56,7.49,0.18,9.65,0.94
						c1.09,0.38,1.9,0.76,2.43,1.05C186.02,121.16,186.29,121.32,186.28,121.34z"/>
				</g>
			</g>
		</g>
		<g>
			<g>
				<g>
					<rect x="120.54" y="137.11" class="st6" width="8.75" height="23.66"/>
				</g>
			</g>
			<g>
				<g>
					<rect x="157.67" y="137.11" class="st6" width="8.75" height="23.66"/>
				</g>
			</g>
			<g>
				<g>
					<rect x="170.04" y="123.22" class="st6" width="8.75" height="37.56"/>
				</g>
			</g>
			<g>
				<g>
					<rect x="109.22" y="153.33" class="st6" width="8.75" height="7.96"/>
				</g>
			</g>
			<g>
				<g>
					<rect x="132.92" y="147.8" class="st6" width="8.75" height="12.98"/>
				</g>
			</g>
			<g>
				<g>
					<rect x="145.29" y="144.82" class="st6" width="8.75" height="15.96"/>
				</g>
			</g>
		</g>
		<g>
			<g>
				<g>
					<g>
						<path class="st10" d="M129.64,163.56c0,0.19-2.12,0.35-4.73,0.35c-2.61,0-4.73-0.16-4.73-0.35c0-0.19,2.12-0.35,4.73-0.35
							C127.53,163.21,129.64,163.37,129.64,163.56z"/>
					</g>
				</g>
			</g>
			<g>
				<g>
					<g>
						<path class="st10" d="M118.75,163.56c0,0.19-2.12,0.35-4.73,0.35c-2.61,0-4.73-0.16-4.73-0.35c0-0.19,2.12-0.35,4.73-0.35
							C116.64,163.21,118.75,163.37,118.75,163.56z"/>
					</g>
				</g>
			</g>
			<g>
				<g>
					<g>
						<path class="st10" d="M180.51,163.56c0,0.19-2.39,0.35-5.34,0.35c-2.95,0-5.34-0.16-5.34-0.35c0-0.19,2.39-0.35,5.34-0.35
							C178.12,163.21,180.51,163.37,180.51,163.56z"/>
					</g>
				</g>
			</g>
			<g>
				<g>
					<g>
						<ellipse class="st10" cx="162.17" cy="163.56" rx="5.34" ry="0.35"/>
					</g>
				</g>
			</g>
			<g>
				<g>
					<g>
						<path class="st10" d="M154.04,163.56c0,0.19-2.12,0.35-4.73,0.35c-2.61,0-4.73-0.16-4.73-0.35c0-0.19,2.12-0.35,4.73-0.35
							C151.92,163.21,154.04,163.37,154.04,163.56z"/>
					</g>
				</g>
			</g>
			<g>
				<g>
					<g>
						<path class="st10" d="M141.25,163.56c0,0.19-2.12,0.35-4.73,0.35c-2.61,0-4.73-0.16-4.73-0.35c0-0.19,2.12-0.35,4.73-0.35
							C139.14,163.21,141.25,163.37,141.25,163.56z"/>
					</g>
				</g>
			</g>
		</g>
	</g>
	<g>
		<g>
			<g>
				<rect x="109.01" y="78.49" class="st1" width="71.5" height="29.69"/>
			</g>
		</g>
		<g>
			<g>
				<g>
					<path class="st4" d="M123.87,87.87c0,1.84-1.49,3.33-3.33,3.33c-1.84,0-3.33-1.49-3.33-3.33c0-1.84,1.49-3.33,3.33-3.33
						C122.37,84.54,123.87,86.03,123.87,87.87z"/>
				</g>
			</g>
			<g>
				<g>
					<rect x="127.2" y="85.57" class="st4" width="23.23" height="1.29"/>
				</g>
			</g>
			<g>
				<g>
					<rect x="127.2" y="88.5" class="st3" width="45.18" height="1.29"/>
				</g>
			</g>
		</g>
		<g>
			<g>
				<g>
					<path class="st6" d="M123.87,98.12c0,1.84-1.49,3.33-3.33,3.33c-1.84,0-3.33-1.49-3.33-3.33c0-1.84,1.49-3.33,3.33-3.33
						C122.37,94.79,123.87,96.28,123.87,98.12z"/>
				</g>
			</g>
			<g>
				<g>
					<rect x="127.2" y="95.82" class="st6" width="11.86" height="1.29"/>
				</g>
			</g>
			<g>
				<g>
					<rect x="127.2" y="98.75" class="st3" width="45.18" height="1.29"/>
				</g>
			</g>
		</g>
	</g>
	<g>
		<g>
			<g>
				<g>
					<rect x="405.41" y="40.28" class="st3" width="113.01" height="128.97"/>
				</g>
			</g>
		</g>
		<g>
			<g>
				<g>
					<rect x="414.45" y="50.59" class="st1" width="91.55" height="73.44"/>
				</g>
			</g>
			<g>
				<g>
					<g>
						<g>
							<rect x="420.85" y="110.98" class="st5" width="3" height="0.87"/>
						</g>
					</g>
					<g>
						<g>
							<rect x="427.65" y="115.61" class="st5" width="3.84" height="0.87"/>
						</g>
					</g>
					<g>
						<g>
							<rect x="441.02" y="115.61" class="st5" width="3.84" height="0.87"/>
						</g>
					</g>
					<g>
						<g>
							<rect x="454.4" y="115.61" class="st5" width="3.84" height="0.87"/>
						</g>
					</g>
					<g>
						<g>
							<rect x="467.77" y="115.61" class="st5" width="3.84" height="0.87"/>
						</g>
					</g>
					<g>
						<g>
							<rect x="481.15" y="115.61" class="st5" width="3.84" height="0.87"/>
						</g>
					</g>
					<g>
						<g>
							<rect x="494.53" y="115.61" class="st5" width="3.84" height="0.87"/>
						</g>
					</g>
					<g>
						<g>
							<rect x="420.85" y="99.41" class="st5" width="3" height="0.87"/>
						</g>
					</g>
					<g>
						<g>
							<rect x="420.85" y="77.65" class="st5" width="3" height="0.87"/>
						</g>
					</g>
					<g>
						<g>
							<rect x="420.85" y="66.71" class="st5" width="3" height="0.87"/>
						</g>
					</g>
					<g>
						<g>
							<rect x="421" y="88.53" class="st5" width="3" height="0.87"/>
						</g>
					</g>
					<g>
						<g>
							<g>
								<path class="st5" d="M498.26,111.84c0,0.01-0.11,0.01-0.32,0.02c-0.23,0-0.54,0.01-0.95,0.02
									c-0.85,0.01-2.07,0.02-3.64,0.04c-3.18,0.01-7.74,0.04-13.37,0.06c-11.31,0.01-26.89,0.03-44.11,0.06
									c-3.58,0-7.09,0-10.45,0h-0.19l0-0.19c0.03-14.75,0.05-27.72,0.06-37.04c0.02-4.63,0.04-8.35,0.06-10.94
									c0.01-1.27,0.02-2.25,0.03-2.94c0.01-0.32,0.01-0.57,0.02-0.76c0.01-0.17,0.01-0.26,0.02-0.26c0.01,0,0.01,0.09,0.02,0.26
									c0,0.19,0.01,0.44,0.02,0.76c0.01,0.69,0.02,1.68,0.03,2.94c0.01,2.58,0.03,6.3,0.06,10.94c0.02,9.31,0.04,22.29,0.06,37.04
									l-0.19-0.19c3.36,0,6.87,0,10.45,0c17.22,0.02,32.81,0.04,44.11,0.06c5.63,0.03,10.19,0.05,13.37,0.06
									c1.56,0.02,2.78,0.03,3.64,0.04c0.4,0.01,0.72,0.01,0.95,0.02C498.15,111.83,498.26,111.84,498.26,111.84z"/>
							</g>
						</g>
					</g>
					<g>
						<g>
							<g>
								<path class="st5" d="M499.11,88.97c0,0.11-15.85,0.19-35.39,0.19c-19.55,0-35.39-0.09-35.39-0.19
									c0-0.11,15.84-0.19,35.39-0.19C483.26,88.77,499.11,88.86,499.11,88.97z"/>
							</g>
						</g>
					</g>
					<g>
						<g>
							<g>
								<path class="st5" d="M499.11,78.08c0,0.11-15.85,0.19-35.39,0.19c-19.55,0-35.39-0.09-35.39-0.19s15.84-0.19,35.39-0.19
									C483.26,77.89,499.11,77.98,499.11,78.08z"/>
							</g>
						</g>
					</g>
					<g>
						<g>
							<g>
								<path class="st5" d="M499.11,67.15c0,0.11-15.85,0.19-35.39,0.19c-19.55,0-35.39-0.09-35.39-0.19
									c0-0.11,15.84-0.19,35.39-0.19C483.26,66.95,499.11,67.04,499.11,67.15z"/>
							</g>
						</g>
					</g>
					<g>
						<g>
							<g>
								<path class="st5" d="M499.11,99.85c0,0.11-15.85,0.19-35.39,0.19c-19.55,0-35.39-0.09-35.39-0.19
									c0-0.11,15.84-0.19,35.39-0.19C483.26,99.66,499.11,99.74,499.11,99.85z"/>
							</g>
						</g>
					</g>
					<g>
						<g>
							<path class="st4" d="M429.06,109.5c0-1.82,0-9.66,0-9.66l6.02-9.34l4.08,3.13l8.38-13.02l4.94,3.48l6.88-12.01l5.59,4.55
								l8.38-15.93l9.03,17.81l7.31-8.91l8.6-2.46v42.36H429.06z"/>
						</g>
					</g>
				</g>
				<g>
					<g>
						<g>
							<path class="st6" d="M499.11,63.72c0,0-0.05,0.01-0.15,0.01c-0.12,0-0.26,0.01-0.45,0.01c-0.42,0.01-1,0.02-1.74,0.03
								c-1.55,0.01-3.78,0.03-6.6,0.05l0.08-0.04c-1.92,2.52-4.31,5.65-7.06,9.25l-0.05,0.06l-0.08,0
								c-5.14,0.01-11.16,0.02-17.7,0.03l0.16-0.09c-2.33,3.88-4.84,8.06-7.44,12.39c-2.54,4.21-4.99,8.29-7.31,12.14l-0.14,0.24
								l-0.16-0.23c-3.49-4.81-6.72-9.26-9.58-13.19l0.26-0.01c-3.64,5.66-6.65,10.34-8.76,13.62c-1.05,1.61-1.87,2.88-2.45,3.76
								c-0.28,0.42-0.49,0.74-0.65,0.98c-0.15,0.22-0.24,0.33-0.24,0.33s0.06-0.12,0.2-0.35c0.15-0.24,0.35-0.58,0.61-1
								c0.56-0.89,1.36-2.18,2.38-3.81c2.08-3.3,5.05-8,8.65-13.69l0.12-0.19l0.14,0.19c2.87,3.92,6.12,8.36,9.63,13.15l-0.31,0.01
								c2.31-3.85,4.76-7.93,7.3-12.15c2.6-4.32,5.12-8.51,7.45-12.38l0.05-0.09l0.1,0c6.54,0.01,12.56,0.02,17.7,0.03l-0.12,0.06
								c2.78-3.58,5.19-6.69,7.13-9.19l0.03-0.04l0.05,0c2.82,0.02,5.05,0.04,6.6,0.05c0.75,0.01,1.33,0.02,1.74,0.03
								c0.18,0.01,0.33,0.01,0.45,0.01C499.06,63.71,499.11,63.71,499.11,63.72z"/>
						</g>
					</g>
				</g>
				<g>
					<g>
						<path class="st6" d="M443.92,87.39c0,0.36-0.3,0.65-0.68,0.65c-0.38,0-0.68-0.29-0.68-0.65c0-0.36,0.3-0.65,0.68-0.65
							C443.62,86.74,443.92,87.03,443.92,87.39z"/>
					</g>
				</g>
				<g>
					<g>
						<path class="st6" d="M464.34,75.79c0,0.36-0.3,0.65-0.68,0.65c-0.38,0-0.68-0.29-0.68-0.65c0-0.36,0.3-0.65,0.68-0.65
							C464.03,75.13,464.34,75.43,464.34,75.79z"/>
					</g>
				</g>
				<g>
					<g>
						<path class="st6" d="M480.21,72.94c0,0.36-0.3,0.65-0.68,0.65c-0.38,0-0.68-0.29-0.68-0.65c0-0.36,0.3-0.65,0.68-0.65
							C479.9,72.28,480.21,72.58,480.21,72.94z"/>
					</g>
				</g>
			</g>
		</g>
		<g>
			<g>
				<g>
					<path class="st5" d="M501.87,134.95c0,0.11-19.32,0.19-43.14,0.19c-23.83,0-43.15-0.09-43.15-0.19
						c0-0.11,19.31-0.19,43.15-0.19C482.56,134.76,501.87,134.85,501.87,134.95z"/>
				</g>
			</g>
		</g>
		<g>
			<g>
				<g>
					<path class="st5" d="M501.87,139.62c0,0.11-19.32,0.19-43.14,0.19c-23.83,0-43.15-0.09-43.15-0.19
						c0-0.11,19.31-0.19,43.15-0.19C482.56,139.43,501.87,139.51,501.87,139.62z"/>
				</g>
			</g>
		</g>
		<g>
			<g>
				<g>
					<path class="st5" d="M501.87,144.28c0,0.11-19.32,0.19-43.14,0.19c-23.83,0-43.15-0.09-43.15-0.19s19.31-0.19,43.15-0.19
						C482.56,144.09,501.87,144.18,501.87,144.28z"/>
				</g>
			</g>
		</g>
		<g>
			<g>
				<g>
					<path class="st5" d="M501.87,148.95c0,0.11-19.32,0.19-43.14,0.19c-23.83,0-43.15-0.09-43.15-0.19s19.31-0.19,43.15-0.19
						C482.56,148.76,501.87,148.84,501.87,148.95z"/>
				</g>
			</g>
		</g>
	</g>
	<g>
		<g>
			<g>
				<g>
					<g>
						<path class="st5" d="M467.8,147.12c2.36-3.96,3.05-9.25,3.66-13.82c0.29-2.15,0.79-5.22-0.72-6.57
							c-1.62-1.45-1.77-3.67-3.63-4.79c-1.86-1.12-4.39-1.22-6.15,0.05"/>
					</g>
				</g>
				<g>
					<g>
						<g>
							<g>
								<g>
									<g>
										<g>
											<g>
												<g>
													<path class="st11" d="M461.25,161.16L461.25,161.16c-3.6,0.28-6.71-2.5-6.85-6.11c-0.13-3.47-0.25-6.97-0.25-6.97
														s-5.25-0.49-5.64-5.69c-0.38-5.2-0.21-17.2-0.21-17.2l0,0c5.87-2.96,12.87-2.51,18.31,1.18l-0.32,18.3v9.85
														C466.26,157.81,464.54,160.91,461.25,161.16z"/>
												</g>
											</g>
										</g>
									</g>
								</g>
							</g>
						</g>
						<g>
							<g>
								<path class="st5" d="M453.69,136.04c0.9-1.11,2.36-1.55,3.55-0.78c1.2,0.78,1.66,2.51,1.01,3.78
									c-0.46,0.9-1.51,1.71-2.55,1.93c-0.98,0.21-1.68,1.15-1.56,2.15c0.15,1.31,2.32,1.8,3.3,2.88c1.52,1.68,4.87,2.39,7.12,2.66
									c2.21,0.26,1.95,0.28,3.24-1.54c0.94-1.32,1.23-2.6,1.26-4.22c0.08-3.83,0.16-7.67,0.24-11.5c0.03-1.38,0.06-2.78-0.26-4.13
									c-0.32-1.35-1.02-2.65-2.18-3.41c-1.26-0.83-2.87-0.9-4.31-1.37c-1.8-0.58-3.33-1.78-5.02-2.64
									c-1.69-0.86-3.75-1.38-5.44-0.53c-1.21,0.61-2.03,1.82-3.21,2.49c-1.68,0.96-3.97,0.74-4.79,3.21
									c-0.28,0.85-0.26,1.79,0.03,2.64c1.14,3.36,5.31,4.72,8.31,3.27c0.06,0.57-0.5,1.84,0.1,3.64
									C452.73,135.15,452.8,136.02,453.69,136.04"/>
							</g>
						</g>
					</g>
					<g>
						<g>
							<g>
								<path class="st12" d="M454.62,139.28c0.04-0.03,0.22,0.27,0.65,0.25c0.41-0.02,0.95-0.51,0.97-1.19
									c0.05-0.68-0.47-1.16-0.89-1.29c-0.43-0.16-0.73-0.08-0.75-0.14c-0.02-0.04,0.29-0.23,0.82-0.12
									c0.26,0.06,0.57,0.2,0.82,0.47c0.25,0.27,0.41,0.68,0.38,1.1c-0.02,0.87-0.77,1.49-1.35,1.44
									c-0.29-0.02-0.49-0.17-0.58-0.29C454.6,139.38,454.6,139.29,454.62,139.28z"/>
							</g>
						</g>
					</g>
					<g>
						<g>
							<g>
								<path class="st2" d="M460.04,123.61c-0.01-0.01,0.11-0.2,0.44-0.44c0.32-0.24,0.86-0.51,1.58-0.61
									c0.72-0.1,1.61-0.02,2.49,0.38c0.88,0.4,1.69,1.14,2.29,2.05c1.22,1.86,1.45,3.89,1.61,5.27c0.14,1.4,0.19,2.26,0.14,2.27
									c-0.06,0.01-0.2-0.85-0.41-2.24c-0.23-1.36-0.5-3.33-1.67-5.09c-0.58-0.86-1.32-1.56-2.13-1.94
									c-0.8-0.39-1.63-0.49-2.31-0.43C460.7,122.95,460.08,123.68,460.04,123.61z"/>
							</g>
						</g>
					</g>
					<g>
						<g>
							<g>
								<path class="st2" d="M445.39,128.92c0,0.01-0.07,0.01-0.2-0.01c-0.13-0.03-0.31-0.09-0.52-0.23
									c-0.21-0.14-0.43-0.36-0.6-0.68c-0.17-0.31-0.27-0.75-0.16-1.2c0.1-0.45,0.38-0.91,0.84-1.21c0.47-0.32,1.09-0.33,1.64-0.32
									c0.57,0.01,1.12-0.03,1.57-0.4c0.46-0.35,0.81-0.88,1.27-1.37c0.92-1,2.11-1.6,3.24-1.87c1.13-0.28,2.2-0.25,3.05-0.07
									c0.86,0.18,1.51,0.48,1.92,0.74c0.41,0.26,0.61,0.44,0.59,0.46c-0.04,0.08-0.89-0.65-2.56-0.93
									c-0.83-0.14-1.85-0.14-2.92,0.14c-1.07,0.27-2.18,0.86-3.04,1.79c-0.43,0.46-0.79,1.01-1.33,1.41
									c-0.26,0.2-0.58,0.35-0.9,0.4c-0.32,0.06-0.62,0.05-0.9,0.05c-0.56-0.02-1.08-0.01-1.47,0.24
									c-0.39,0.24-0.65,0.63-0.75,1.01c-0.21,0.79,0.25,1.43,0.59,1.7C445.13,128.85,445.4,128.89,445.39,128.92z"/>
							</g>
						</g>
					</g>
					<g>
						<g>
							<g>
								<path class="st2" d="M459.31,143.39c-0.01-0.03,0.26-0.13,0.69-0.41c0.42-0.28,1-0.78,1.42-1.58
									c0.42-0.79,0.61-1.92,0.24-3.05c-0.18-0.56-0.49-1.11-0.94-1.56c-0.45-0.46-1.02-0.84-1.63-1.19
									c-0.61-0.35-1.23-0.68-1.79-1.07c-0.57-0.38-1.06-0.85-1.44-1.36c-0.76-1.02-1.12-2.14-1.22-3.08
									c-0.11-0.95,0.03-1.72,0.17-2.22c0.07-0.25,0.15-0.44,0.21-0.57c0.06-0.13,0.09-0.19,0.11-0.18
									c0.09,0.01-0.47,1.11-0.21,2.94c0.13,0.9,0.5,1.95,1.23,2.9c0.37,0.47,0.83,0.9,1.37,1.26c0.54,0.37,1.15,0.69,1.77,1.05
									c0.62,0.36,1.22,0.76,1.7,1.26c0.49,0.5,0.83,1.11,1.01,1.72c0.38,1.23,0.14,2.46-0.34,3.28c-0.48,0.84-1.12,1.33-1.58,1.58
									C459.6,143.36,459.31,143.41,459.31,143.39z"/>
							</g>
						</g>
					</g>
					<g>
						<g>
							<g>
								<path class="st2" d="M468.32,135.76c0,0.03-0.23,0.08-0.67,0.15c-0.44,0.06-1.08,0.11-1.87,0.06
									c-1.57-0.07-3.79-0.61-5.8-1.99c-2.01-1.36-3.4-3.22-3.81-4.79c-0.21-0.78-0.18-1.45-0.08-1.88
									c0.11-0.44,0.24-0.65,0.26-0.64c0.08,0.01-0.4,0.96,0.08,2.45c0.45,1.46,1.81,3.23,3.76,4.55c1.95,1.33,4.08,1.9,5.61,2.04
									C467.35,135.87,468.31,135.68,468.32,135.76z"/>
							</g>
						</g>
					</g>
				</g>
				<g>
					<g>
						<path class="st5" d="M469.15,132.2c1.8-2.03,4.46-3.4,7.17-3.25c2.71,0.15,5.35,2.02,6.02,4.66c0.5,1.98-0.11,4.05-0.37,6.07
							c-0.26,2.03-0.01,4.4,1.65,5.6c1,0.72,2.29,0.86,3.48,1.15c1.2,0.29,2.48,0.89,2.89,2.05c0.47,1.33-0.5,2.84-1.79,3.41
							c-1.3,0.56-2.79,0.39-4.16,0.06c0.63,1.49-0.14,3.35-1.54,4.17c-1.4,0.81-3.24,0.65-4.62-0.19c-1.38-0.84-2.33-2.28-2.82-3.82
							c-0.89,1.57-3.23,1.9-4.73,0.9c-1.5-1-2.15-2.97-1.91-4.75c0.23-1.79,1.21-3.39,2.4-4.75c0.59-0.68,1.25-1.33,1.67-2.13
							c0.42-0.8,0.57-1.82,0.11-2.6c-0.46-0.78-1.67-1.1-2.31-0.46"/>
					</g>
				</g>
			</g>
			<g>
				<g>
					<g>
						<path class="st7" d="M472.28,137.66c0.03,0.03-0.6,0.34-1.56-0.02c-0.94-0.32-2.04-1.43-2.27-2.96
							c-0.12-0.75-0.01-1.5,0.25-2.11c0.26-0.61,0.63-1.08,1-1.41c0.74-0.67,1.36-0.8,1.37-0.76c0.03,0.06-0.54,0.28-1.18,0.96
							c-0.64,0.65-1.3,1.87-1.06,3.27c0.21,1.39,1.16,2.42,1.99,2.77C471.66,137.78,472.27,137.59,472.28,137.66z"/>
					</g>
				</g>
			</g>
			<g>
				<g>
					<g>
						<path class="st12" d="M453.97,147.99c0,0.04-0.47,0.07-1.19-0.12c-0.72-0.18-1.68-0.62-2.54-1.37
							c-0.86-0.76-1.41-1.66-1.68-2.35c-0.27-0.69-0.31-1.16-0.26-1.16c0.06-0.02,0.19,0.42,0.51,1.05
							c0.32,0.63,0.88,1.45,1.68,2.17c0.81,0.71,1.7,1.16,2.36,1.4C453.54,147.86,453.98,147.93,453.97,147.99z"/>
					</g>
				</g>
			</g>
			<g>
				<g>
					<g>
						<path class="st2" d="M473.99,152.26c0,0.01-0.09,0-0.25-0.04c-0.16-0.04-0.4-0.13-0.68-0.3c-0.54-0.34-1.2-1.11-1.48-2.25
							c-0.13-0.56-0.19-1.21-0.06-1.89c0.11-0.67,0.36-1.36,0.69-2.05c0.66-1.37,1.69-2.67,2.45-4.19c0.38-0.76,0.67-1.54,0.77-2.31
							c0.1-0.78,0.01-1.54-0.25-2.21c-0.52-1.35-1.61-2.26-2.64-2.61c-1.04-0.37-1.97-0.29-2.57-0.16c-0.61,0.13-0.92,0.3-0.94,0.27
							c-0.01-0.01,0.07-0.06,0.21-0.14c0.15-0.08,0.38-0.18,0.69-0.27c0.61-0.18,1.58-0.3,2.7,0.05c1.11,0.34,2.3,1.29,2.88,2.74
							c0.29,0.72,0.4,1.56,0.29,2.39c-0.11,0.84-0.41,1.66-0.8,2.44c-0.79,1.56-1.83,2.85-2.48,4.17c-0.67,1.31-0.94,2.64-0.68,3.72
							c0.23,1.08,0.81,1.82,1.3,2.18C473.65,152.15,474.01,152.22,473.99,152.26z"/>
					</g>
				</g>
			</g>
			<g>
				<g>
					<g>
						<path class="st2" d="M481.84,156.06c0,0.01-0.11,0.02-0.33,0.02c-0.21-0.01-0.53-0.04-0.93-0.17
							c-0.79-0.23-1.87-0.88-2.71-2.11c-0.86-1.22-1.27-3.03-1.17-4.96c0.07-1.94,0.64-4,1-6.16c0.18-1.08,0.28-2.15,0.22-3.17
							c-0.06-1.02-0.28-1.99-0.67-2.84c-0.38-0.85-0.93-1.57-1.58-2.07c-0.65-0.52-1.38-0.81-2.07-0.98
							c-1.39-0.32-2.57-0.15-3.35,0.01c-0.78,0.18-1.2,0.35-1.21,0.32c-0.01-0.01,0.09-0.06,0.29-0.15c0.2-0.09,0.49-0.2,0.89-0.31
							c0.78-0.21,1.99-0.43,3.44-0.13c0.72,0.16,1.5,0.45,2.2,0.99c0.71,0.52,1.3,1.29,1.71,2.18c0.41,0.89,0.65,1.91,0.72,2.97
							c0.07,1.06-0.04,2.16-0.22,3.25c-0.37,2.19-0.94,4.22-1.03,6.11c-0.12,1.88,0.25,3.61,1.04,4.79c0.77,1.2,1.79,1.86,2.53,2.12
							C481.38,156.05,481.84,156.01,481.84,156.06z"/>
					</g>
				</g>
			</g>
		</g>
		<polygon class="st11" points="483.41,179.74 472.33,188.38 476.98,196.01 490.32,186.19 		"/>
		<path class="st11" d="M453.78,150.72c0,0,0.05-0.92-2.36-1.06c-2.42-0.13-2.68-0.09-2.68-0.09s-1.09-1.39-1.16-2.24
			c-0.07-0.85,0.52-2.28,0.52-2.28l2.44-0.22l-0.66-1.66l-1.72,0.12l-4.87,0.58l-1.94,8.52l-13.28,24.79
			c-2.16,3.23-0.96,7.63,2.54,9.32l0,0c3.43,1.66,8.03-1.86,9.31-5.46l7.35-27.57l2.59-2.02l3.7-0.68"/>
		<path class="st11" d="M423.51,315.71l18.08-104.02l-0.03-0.01c0.04-0.15,0.08-0.3,0.11-0.45l0-0.02l0,0
			c3.08-12.2,7.82-16.11,7.82-16.11l27.67,1.74c2.35,4.23,2.65,14.38,2.65,14.38c0.32,1.24-5.85,102.03-5.85,102.03l-9.25-0.25
			l-5.02-95.36l-26.93,98.47L423.51,315.71z"/>
		<g>
			<g>
				<g>
					<g>
						<g>
							<path class="st6" d="M423.29,316.64l0.04-0.94l9.52,0.28l-0.08,3.1l-0.59,0.02c-2.62,0.06-13.32,0.16-15.05-0.38
								C415.19,318.11,423.29,316.64,423.29,316.64z"/>
						</g>
					</g>
					<g class="st13">
						<g>
							<path class="st3" d="M429.33,318.91c0.16-0.73,0.62-1.4,1.27-1.85c0.65-0.44,1.44-0.66,2.23-0.58l-0.07,2.46L429.33,318.91z"
								/>
						</g>
					</g>
				</g>
				<g class="st13">
					<g>
						<path class="st3" d="M419.33,317.49c0,0-2.85,0.68-2.51,1.12c0.34,0.44,11.16,0.73,15.94,0.46l-0.01-0.2l-12.62-0.23
							C420.13,318.65,419.88,317.53,419.33,317.49z"/>
					</g>
				</g>
				<g>
					<g>
						<g>
							<path class="st5" d="M432.9,318.88c0,0-0.06,0.01-0.16,0.01c-0.14,0-0.29,0.01-0.47,0.01c-0.47,0.01-1.04,0.01-1.72,0.02
								c-1.46,0.01-3.47,0-5.69-0.06c-2.22-0.06-4.23-0.15-5.68-0.23c-0.68-0.04-1.25-0.08-1.72-0.11
								c-0.17-0.01-0.33-0.03-0.47-0.04c-0.11-0.01-0.16-0.02-0.16-0.02c0,0,0.06,0,0.16,0c0.14,0.01,0.29,0.01,0.47,0.02
								c0.47,0.02,1.04,0.05,1.72,0.08c1.45,0.07,3.46,0.15,5.68,0.2c2.22,0.06,4.23,0.08,5.69,0.09c0.68,0,1.26,0.01,1.72,0.01
								c0.17,0,0.33,0,0.47,0.01C432.84,318.87,432.9,318.87,432.9,318.88z"/>
						</g>
					</g>
				</g>
				<g>
					<g>
						<g>
							<path class="st5" d="M420.13,318.78c-0.04,0-0.05-0.38-0.3-0.77c-0.24-0.4-0.59-0.6-0.57-0.63c0.01-0.03,0.41,0.15,0.67,0.58
								C420.19,318.38,420.16,318.79,420.13,318.78z"/>
						</g>
					</g>
				</g>
				<g>
					<g>
						<g>
							<path class="st5" d="M422.96,317.54c-0.03,0.02-0.16-0.14-0.29-0.35c-0.13-0.21-0.22-0.39-0.19-0.4
								c0.03-0.02,0.16,0.14,0.29,0.35C422.91,317.34,422.99,317.52,422.96,317.54z"/>
						</g>
					</g>
				</g>
				<g>
					<g>
						<g>
							<path class="st5" d="M423.74,317.18c-0.02,0.02-0.17-0.08-0.33-0.22c-0.16-0.14-0.27-0.27-0.25-0.29
								c0.02-0.02,0.17,0.08,0.33,0.22C423.65,317.03,423.76,317.16,423.74,317.18z"/>
						</g>
					</g>
				</g>
				<g>
					<g>
						<g>
							<path class="st5" d="M424.25,316.36c0,0.03-0.22,0.05-0.5,0.05c-0.27,0-0.49-0.03-0.49-0.06c0-0.03,0.22-0.05,0.5-0.05
								S424.25,316.33,424.25,316.36z"/>
						</g>
					</g>
				</g>
				<g>
					<g>
						<g>
							<path class="st5" d="M424.44,315.78c0.01,0.03-0.23,0.12-0.56,0.13c-0.32,0.01-0.57-0.06-0.57-0.09
								c0.01-0.03,0.26-0.01,0.56-0.02C424.18,315.8,424.43,315.75,424.44,315.78z"/>
						</g>
					</g>
				</g>
				<g>
					<g>
						<g>
							<path class="st5" d="M422.67,316.76c0,0.01-0.23,0.03-0.61-0.02c-0.19-0.03-0.41-0.07-0.64-0.15
								c-0.12-0.04-0.24-0.08-0.37-0.15c-0.06-0.04-0.12-0.09-0.15-0.18c-0.02-0.09,0.03-0.18,0.1-0.22
								c0.59-0.27,1.16,0.05,1.37,0.34c0.11,0.15,0.16,0.29,0.19,0.38c0.02,0.1,0.02,0.15,0.01,0.15c-0.02,0.01-0.03-0.22-0.26-0.49
								c-0.11-0.13-0.29-0.26-0.51-0.33c-0.21-0.06-0.52-0.09-0.73,0.03c-0.1,0.06-0.06,0.17,0.04,0.23c0.1,0.06,0.23,0.1,0.34,0.14
								c0.23,0.08,0.44,0.13,0.62,0.17C422.43,316.74,422.67,316.74,422.67,316.76z"/>
						</g>
					</g>
				</g>
				<g>
					<g>
						<g>
							<path class="st5" d="M422.51,316.79c-0.01,0.01-0.09-0.14-0.06-0.39c0.02-0.12,0.07-0.27,0.18-0.41
								c0.11-0.12,0.25-0.29,0.52-0.28c0.14,0.02,0.21,0.17,0.18,0.27c-0.01,0.1-0.06,0.18-0.11,0.25c-0.09,0.14-0.2,0.25-0.3,0.34
								c-0.2,0.17-0.35,0.23-0.36,0.22c-0.01-0.01,0.12-0.1,0.3-0.27c0.09-0.09,0.18-0.2,0.27-0.33c0.09-0.12,0.15-0.33,0-0.36
								c-0.15-0.02-0.31,0.12-0.41,0.23c-0.1,0.12-0.16,0.25-0.18,0.36C422.48,316.63,422.53,316.78,422.51,316.79z"/>
						</g>
					</g>
				</g>
				<g>
					<g>
						<g>
							<path class="st5" d="M432.78,316.46c0,0.02-0.27-0.03-0.7,0c-0.43,0.03-1.02,0.18-1.55,0.55c-0.52,0.37-0.84,0.86-0.99,1.23
								c-0.16,0.37-0.18,0.63-0.2,0.62c-0.01,0-0.01-0.06,0.01-0.18c0.01-0.11,0.05-0.28,0.12-0.47c0.14-0.39,0.45-0.91,1-1.29
								c0.55-0.38,1.17-0.52,1.61-0.54c0.22-0.01,0.4,0.01,0.52,0.03C432.72,316.44,432.78,316.45,432.78,316.46z"/>
						</g>
					</g>
				</g>
				<g>
					<g>
						<g>
							<path class="st5" d="M428.16,318.02c0,0.03-0.62,0.11-1.39,0.09c-0.77-0.01-1.39-0.11-1.38-0.14c0-0.03,0.62,0.02,1.38,0.03
								C427.54,318.02,428.16,317.99,428.16,318.02z"/>
						</g>
					</g>
				</g>
				<g>
					<g>
						<g>
							<path class="st5" d="M430.02,318.07c0.02,0.02-0.05,0.12-0.12,0.25c-0.07,0.13-0.11,0.25-0.14,0.24
								c-0.03,0-0.04-0.14,0.03-0.29C429.87,318.12,430,318.05,430.02,318.07z"/>
						</g>
					</g>
				</g>
				<g>
					<g>
						<g>
							<path class="st5" d="M430.74,317.28c0.02,0.02-0.04,0.11-0.14,0.2c-0.1,0.09-0.2,0.15-0.22,0.12
								c-0.02-0.02,0.04-0.11,0.14-0.2C430.62,317.31,430.72,317.26,430.74,317.28z"/>
						</g>
					</g>
				</g>
				<g>
					<g>
						<g>
							<path class="st5" d="M431.76,316.93c-0.01,0.03-0.13,0.03-0.27,0.07c-0.14,0.04-0.24,0.11-0.27,0.09
								c-0.02-0.02,0.06-0.14,0.23-0.19C431.62,316.85,431.77,316.91,431.76,316.93z"/>
						</g>
					</g>
				</g>
				<g>
					<g>
						<g>
							<path class="st5" d="M432.47,316.78c0.01,0.03-0.05,0.07-0.12,0.1c-0.08,0.03-0.15,0.03-0.16,0
								c-0.01-0.03,0.05-0.07,0.12-0.1C432.39,316.75,432.46,316.75,432.47,316.78z"/>
						</g>
					</g>
				</g>
			</g>
		</g>
		<g>
			<g>
				<g>
					<path class="st5" d="M469.77,153.64c0,0,3.4,0.34,7.32,2.88c8.75,5.67,23.38,17.66,22.17,23.22
						c-1.03,4.73-12.44,10.47-12.44,10.47l-7.41-8.91l4.54-2.6l-11.17-7.43L469.77,153.64z"/>
				</g>
			</g>
			<g>
				<g>
					<g>
						<path class="st5" d="M474.76,171.7l-0.36,1.33l-1.29,6.15l-0.32,9.01c6.64,8.54,6.74,15.74,6.74,15.74l-33.52,3.92
							c0.01-6.62,2.42-14.96,2.42-14.96c1.94-3.29,1.85-13.13,1.48-13.49c-2.09-2.08-2.6-3.6-0.93-6.26c0,0-10.39,10.92-11.46,11.9
							c-3.67,3.37-7.2,2.43-8.84,0.96c-4.59-4.1,0.12-9.38,0.12-9.38l17.5-20.06c1.2-1.37,2.78-2.36,4.55-2.77
							c1.87-0.44,3.75-0.66,3.75-0.66l11.69,0.1c0,0,2.24,0.08,3.48,0.43c0,0,4.06,1.3,5.1,6.33
							C475.93,164.99,474.76,171.7,474.76,171.7z"/>
					</g>
				</g>
			</g>
			<g>
				<g>
					<g>
						<path class="st2" d="M475.13,163.66c0.03,0,0.05,0.34,0.07,0.97c0.02,0.63,0,1.53-0.06,2.65c-0.13,2.24-0.51,5.31-1.15,8.67
							c-0.22,1.14-0.45,2.25-0.69,3.27l0-0.04c-0.1,2.6-0.21,4.86-0.29,6.46c-0.05,0.74-0.09,1.37-0.12,1.87
							c-0.04,0.44-0.06,0.67-0.09,0.67c-0.02,0-0.03-0.24-0.04-0.68c0-0.51,0.01-1.13,0.01-1.88c0.02-1.6,0.08-3.86,0.16-6.46
							l0-0.02l0-0.02c0.23-1.01,0.46-2.11,0.67-3.25c0.64-3.34,1.06-6.39,1.26-8.61c0.1-1.11,0.15-2.01,0.18-2.63
							C475.08,164.01,475.1,163.66,475.13,163.66z"/>
					</g>
				</g>
			</g>
			<g>
				<g>
					<g>
						<path class="st2" d="M475.24,172.67c0.06-0.09,2.8,1.7,6.12,4c3.32,2.3,5.96,4.23,5.9,4.32c-0.06,0.09-2.8-1.7-6.12-4
							C477.83,174.69,475.18,172.76,475.24,172.67z"/>
					</g>
				</g>
			</g>
			<g>
				<g>
					<g>
						<path class="st2" d="M453.57,159.54c0.01-0.01,0.07,0.04,0.17,0.13c0.11,0.09,0.25,0.25,0.42,0.45
							c0.33,0.42,0.71,1.13,0.91,2.08c0.2,0.94,0.18,2.13-0.19,3.36c-0.4,1.21-1.02,2.47-1.88,3.65c-0.43,0.59-0.89,1.14-1.38,1.63
							c-0.49,0.5-1.01,0.9-1.46,1.32c-0.93,0.83-1.73,1.62-2.39,2.29c-0.66,0.67-1.18,1.23-1.54,1.62c-0.36,0.39-0.56,0.6-0.59,0.58
							c-0.02-0.02,0.14-0.26,0.47-0.68c0.33-0.42,0.82-1.01,1.46-1.71c0.64-0.7,1.42-1.51,2.35-2.37c0.46-0.43,0.97-0.84,1.44-1.32
							c0.47-0.48,0.92-1.01,1.34-1.58c0.83-1.15,1.45-2.38,1.85-3.54c0.37-1.16,0.42-2.29,0.26-3.2
							C454.49,160.39,453.49,159.58,453.57,159.54z"/>
					</g>
				</g>
			</g>
			<g>
				<g>
					<polygon class="st2" points="449.67,189.17 450.06,184.67 472.92,184.67 472.8,188.18 					"/>
				</g>
			</g>
			<g>
				<g>
					<g>
						<path class="st2" d="M430.17,175.73c0.04,0.06-0.58,0.43-1.27,1.32c-0.69,0.87-1.4,2.35-1.33,4.05
							c0.07,1.71,0.9,3.12,1.66,3.93c0.76,0.83,1.41,1.16,1.37,1.22c-0.01,0.02-0.18-0.04-0.47-0.19c-0.29-0.16-0.68-0.43-1.1-0.83
							c-0.84-0.8-1.76-2.28-1.84-4.11c-0.07-1.83,0.73-3.38,1.5-4.24c0.39-0.44,0.75-0.74,1.03-0.92
							C429.99,175.78,430.16,175.71,430.17,175.73z"/>
					</g>
				</g>
			</g>
		</g>
		<g>
			<polygon class="st6" points="473.97,313.25 476.57,319.28 464.97,319.14 464.72,312.99 			"/>
			<g>
				<path class="st5" d="M464.88,318.1c0,0.03,0.62,0.07,1.62,0.08c1,0.02,2.39,0.01,3.92-0.01c1.46-0.03,2.78-0.06,3.92-0.08
					c1-0.03,1.62-0.05,1.62-0.08c0-0.03-0.62-0.06-1.62-0.08c-1-0.02-2.39-0.01-3.92,0.01c-1.46,0.03-2.78,0.06-3.92,0.08
					C465.5,318.04,464.88,318.06,464.88,318.1z"/>
			</g>
			<g>
				<path class="st5" d="M469.72,313.11c-0.1,0.01-0.12,1.1-0.05,2.45c0.07,1.35,0.22,2.43,0.32,2.43c0.1-0.01,0.12-1.1,0.05-2.45
					C469.96,314.19,469.82,313.11,469.72,313.11z"/>
			</g>
			<polyline class="st15" points="476.55,319.4 464.95,319.01 464.88,317.91 475.97,318.01 476.55,319.27 			"/>
		</g>
		<g>
			<g>
				<g>
					<g>
						<path class="st6" d="M478.79,198.11c8.73,27.55-2.52,60.98,0.17,93.08c0.27,3.15,1.55,6.93-1.4,8.72
							c-0.79,0.48-1.73,0.68-2.66,0.65c-2.36-0.08-4.33-1.3-6.43-2.14c-4-1.6-8.54-1.77-12.65-0.49c-2.79,0.87-5.55,2.4-8.43,1.97
							c-3.83-0.58-6.31-4.37-9.84-5.97c-3.3-1.5-7.11-0.94-10.74-1.03c-0.04,0-0.07,0-0.11,0c-5.23-0.16-8.89-5.25-7.51-10.3
							c5.27-19.3,22.74-81.98,30.48-93.43l23.12-0.98C474.93,190.76,477.67,194.6,478.79,198.11z"/>
					</g>
				</g>
			</g>
			<g>
				<g>
					<g>
						<path class="st5" d="M470.69,211.08c0.04,0.04-0.44,0.64-1.26,1.58c-0.82,0.94-1.97,2.23-3.41,3.49
							c-1.45,1.26-2.93,2.17-4.03,2.77c-1.1,0.59-1.81,0.89-1.84,0.85c-0.08-0.13,2.75-1.45,5.61-3.91c1.42-1.24,2.59-2.5,3.47-3.38
							C470.1,211.59,470.65,211.05,470.69,211.08z"/>
					</g>
				</g>
			</g>
			<g class="st16">
				<g>
					<g>
						<path d="M460.48,221.48c-7.28,18.64-8.66,39.53-3.87,58.96c0.41,1.68,0.84,3.6-0.12,5.04c-1.24,1.87-4.25,1.74-5.95,0.27
							c-1.7-1.47-2.38-3.78-2.8-5.98c-3.17-16.43,2.58-32.95,8.79-48.49"/>
					</g>
				</g>
			</g>
		</g>
	</g>
	<g>
		<g>
			<g>
				<g>
					<g>
						<g>
							<g>
								<g>
									<g>
										<rect x="273.49" y="230.76" class="st5" width="43.83" height="2.13"/>
									</g>
								</g>
							</g>
						</g>
						<g>
							<g>
								<g>
									<g>
										<polygon class="st5" points="266.7,232.89 258.48,202.08 292.7,202.08 300.14,232.89 										"/>
									</g>
								</g>
							</g>
						</g>
					</g>
					<g>
						<g>
							<g>
								<g>
									<polygon class="st17" points="298.09,230.56 267.52,230.56 260.4,203.51 291.13,203.51 									"/>
								</g>
							</g>
						</g>
					</g>
				</g>
				<g>
					<g>
						<g>
							<path class="st18" d="M260.92,205.45c10.35,0,20.38,0,30.73,0l-0.52-1.94H260.4L260.92,205.45z"/>
						</g>
					</g>
				</g>
				<g>
					<g>
						<g>
							<g>
								<path class="st19" d="M264.23,204.48c0,0.19,0.15,0.34,0.34,0.34c0.19,0,0.34-0.15,0.34-0.34c0-0.19-0.15-0.34-0.34-0.34
									C264.38,204.14,264.23,204.3,264.23,204.48z"/>
							</g>
						</g>
					</g>
					<g>
						<g>
							<g>
								<path class="st19" d="M263.08,204.48c0,0.19,0.15,0.34,0.34,0.34c0.19,0,0.34-0.15,0.34-0.34c0-0.19-0.15-0.34-0.34-0.34
									C263.23,204.14,263.08,204.3,263.08,204.48z"/>
							</g>
						</g>
					</g>
					<g>
						<g>
							<g>
								<path class="st19" d="M261.92,204.48c0,0.19,0.15,0.34,0.34,0.34c0.19,0,0.34-0.15,0.34-0.34c0-0.19-0.15-0.34-0.34-0.34
									C262.07,204.14,261.92,204.3,261.92,204.48z"/>
							</g>
						</g>
					</g>
				</g>
			</g>
			<g>
				<g>
					<g>
						<path class="st6" d="M284.01,217.31l3.37,3.85c1.31-0.93,2.07-2.36,2.07-3.87c-0.01-2.69-2.47-4.9-5.45-4.89
							c-2.98,0.01-5.42,2.24-5.41,4.93L284.01,217.31z"/>
					</g>
				</g>
				<g>
					<g>
						<g>
							<path class="st5" d="M283.58,217.92c0.01-0.03,0.36,0.32,0.96,0.96c0.6,0.64,1.46,1.59,2.49,2.74l0.12,0.13l-0.14,0.11
								c-1.36,1.02-3.63,1.46-5.67,0.56c-0.97-0.41-1.77-1.09-2.33-1.88c-0.55-0.79-0.83-1.7-0.87-2.53l-0.01-0.17l0.17,0
								c1.61-0.01,2.94,0,3.87,0.01C283.08,217.87,283.6,217.89,283.58,217.92c-0.01,0.03-0.56,0.07-1.48,0.11
								c-0.93,0.04-2.24,0.09-3.81,0.13l0.16-0.17c0.05,0.77,0.32,1.6,0.84,2.33c0.53,0.72,1.28,1.36,2.19,1.74
								c1.91,0.84,4.03,0.46,5.33-0.47l-0.03,0.24c-0.97-1.14-1.78-2.1-2.34-2.79C283.89,218.36,283.57,217.95,283.58,217.92z"/>
						</g>
					</g>
				</g>
				<g>
					<g>
						<path class="st5" d="M281.39,214.4c0,0.17,0.14,0.3,0.31,0.3c0.17,0,0.3-0.14,0.3-0.31c0-0.17-0.14-0.3-0.31-0.3
							C281.52,214.1,281.39,214.23,281.39,214.4z"/>
					</g>
				</g>
				<g>
					<g>
						<g>
							<path class="st5" d="M275.33,212.2c0-0.11,1.63-0.2,3.64-0.21c0.17,0,0.33,0,0.48,0h0.08l0.05,0.06
								c1.26,1.26,2.17,2.29,2.1,2.35c-0.07,0.07-1.1-0.84-2.37-2.09l0.13,0.06c-0.16,0-0.32,0-0.48,0
								C276.96,212.38,275.33,212.3,275.33,212.2z"/>
						</g>
					</g>
				</g>
				<g>
					<g>
						<g>
							<path class="st5" d="M268.45,216.05c-0.02,0.02-0.14-0.48-0.35-1.42c-0.21-0.93-0.5-2.3-0.83-3.97l-0.04-0.18l0.19,0
								c2.16-0.02,4.78-0.04,7.61-0.07c-0.04-0.03,0.36,0.3,0.19,0.16l0,0l0,0l0,0.01l0,0.01l0,0.02l0.01,0.05l0.02,0.09l0.03,0.18
								l0.07,0.36c0.05,0.24,0.09,0.48,0.13,0.71c0.09,0.47,0.17,0.94,0.26,1.39c0.17,0.91,0.33,1.78,0.48,2.6l0.04,0.21l-0.21,0
								c-2.28-0.01-4.21-0.03-5.54-0.06c-0.61-0.02-1.12-0.03-1.54-0.04C268.62,216.08,268.44,216.06,268.45,216.05
								c0.01-0.01,0.22-0.03,0.59-0.05c0.43-0.01,0.95-0.03,1.58-0.05c1.34-0.04,3.22-0.08,5.44-0.1l-0.17,0.21
								c-0.16-0.82-0.33-1.69-0.5-2.59c-0.09-0.45-0.18-0.92-0.27-1.39c-0.04-0.24-0.09-0.47-0.14-0.71l-0.07-0.36l-0.03-0.18
								l-0.02-0.09l-0.01-0.05l0-0.02l0-0.01l0-0.01l0,0l0,0c-0.17-0.14,0.23,0.19,0.19,0.16c-2.83,0-5.44,0-7.61-0.01l0.15-0.18
								c0.29,1.62,0.51,2.96,0.66,3.91C268.39,215.47,268.47,216.02,268.45,216.05z"/>
						</g>
					</g>
				</g>
				<g>
					<g>
						<g>
							<path class="st5" d="M280.93,220.53c0,0.17,0.14,0.3,0.31,0.3c0.17,0,0.3-0.14,0.3-0.31c0-0.17-0.14-0.3-0.31-0.3
								C281.07,220.22,280.93,220.36,280.93,220.53z"/>
						</g>
					</g>
					<g>
						<g>
							<g>
								<path class="st5" d="M275.71,220.55c0-0.11,1.24-0.2,2.76-0.2c1.53-0.01,2.76,0.07,2.76,0.18c0,0.11-1.24,0.2-2.76,0.2
									C276.95,220.73,275.71,220.65,275.71,220.55z"/>
							</g>
						</g>
					</g>
				</g>
				<g>
					<g>
						<g>
							<path class="st5" d="M268.48,222.95c-0.02,0.02-0.13-0.34-0.33-1.02c-0.2-0.68-0.49-1.68-0.83-2.93l-0.05-0.18l0.19,0
								c2.07-0.04,4.83-0.07,7.84-0.08c-0.17-0.13,0.23,0.18,0.19,0.14l0,0l0,0l0,0l0,0.01l0,0.02l0.01,0.03l0.02,0.07l0.03,0.13
								l0.07,0.26l0.13,0.52c0.09,0.34,0.17,0.68,0.26,1.02c0.17,0.67,0.33,1.31,0.49,1.93l0.06,0.23l-0.23,0
								c-2.33,0-4.31-0.03-5.69-0.06c-0.63-0.02-1.16-0.03-1.6-0.04C268.66,222.98,268.46,222.96,268.48,222.95
								c0.01-0.02,0.23-0.03,0.61-0.05c0.45-0.02,0.99-0.03,1.64-0.06c1.39-0.04,3.33-0.08,5.59-0.1l-0.17,0.22
								c-0.16-0.62-0.33-1.26-0.5-1.92c-0.09-0.33-0.17-0.67-0.26-1.01l-0.13-0.52l-0.07-0.26l-0.03-0.13l-0.02-0.07l-0.01-0.03
								l0-0.02l0-0.01l0,0l0,0l0,0c-0.04-0.03,0.35,0.27,0.19,0.14c-3.02,0.01-5.77,0-7.84-0.02l0.14-0.18
								c0.29,1.2,0.51,2.19,0.67,2.89C268.41,222.52,268.49,222.92,268.48,222.95z"/>
						</g>
					</g>
				</g>
				<g>
					<g>
						<g>
							<path class="st5" d="M269.05,212.29c0-0.11,1.16-0.2,2.6-0.2c1.44-0.01,2.6,0.08,2.6,0.18c0,0.11-1.16,0.2-2.6,0.2
								C270.22,212.48,269.05,212.4,269.05,212.29z"/>
						</g>
					</g>
				</g>
				<g>
					<g>
						<g>
							<path class="st5" d="M269.12,213.14c0-0.11,1.17-0.2,2.62-0.2c1.45-0.01,2.62,0.08,2.62,0.18c0,0.11-1.17,0.2-2.62,0.2
								C270.29,213.33,269.12,213.25,269.12,213.14z"/>
						</g>
					</g>
				</g>
				<g>
					<g>
						<g>
							<path class="st5" d="M269.27,213.96c0-0.11,1.13-0.2,2.53-0.2c1.4-0.01,2.53,0.08,2.53,0.18c0,0.11-1.13,0.2-2.53,0.2
								C270.4,214.15,269.27,214.07,269.27,213.96z"/>
						</g>
					</g>
				</g>
				<g>
					<g>
						<g>
							<path class="st5" d="M269.21,220.48c0-0.11,1.11-0.2,2.48-0.2c1.37-0.01,2.48,0.08,2.48,0.18c0,0.11-1.11,0.2-2.48,0.2
								C270.32,220.66,269.21,220.58,269.21,220.48z"/>
						</g>
					</g>
				</g>
				<g>
					<g>
						<g>
							<path class="st5" d="M269.51,221.42c0-0.11,0.95-0.2,2.11-0.2c1.17,0,2.12,0.08,2.12,0.18c0,0.11-0.95,0.2-2.11,0.2
								C270.46,221.61,269.52,221.52,269.51,221.42z"/>
						</g>
					</g>
				</g>
			</g>
		</g>
		<g>
			<g>
				<polygon class="st5" points="221.59,232.79 221.59,236.83 224.23,236.83 224.23,318.63 229.66,318.63 229.66,236.83 
					258.47,236.83 258.47,318.63 263.9,318.63 263.9,236.83 388.89,236.83 388.89,318.61 394.32,318.61 394.32,236.83 
					396.67,236.83 396.67,232.79 				"/>
			</g>
		</g>
		<g>
			<g>
				<g>
					<g>
						<path class="st5" d="M339.3,263.27c0,0.08,1.58,0.15,3.53,0.15c1.95,0,3.53-0.07,3.53-0.15c0-0.08-1.58-0.15-3.53-0.15
							C340.88,263.12,339.3,263.19,339.3,263.27z"/>
					</g>
				</g>
			</g>
		</g>
		<g>
			<g>
				<g>
					<ellipse class="st2" cx="287.88" cy="264.01" rx="0.19" ry="0.09"/>
				</g>
			</g>
		</g>
		<g>
			<g>
				<g>
					<g>
						<path class="st20" d="M322.47,191.3l-20.28-20.6l-0.44-2.23c-0.08-0.41-0.17-0.86-0.25-1.38c-0.09-0.6-0.08-1.22,0.03-1.82
							c0.13-0.72,0.35-1.68,0.63-2.16c0.34-0.6-0.21-1.32-0.77-1.07c-0.56,0.25-1.55,1.87-1.76,4.09c-0.21,2.23-2.11-0.73-2.82-1.79
							c-0.71-1.06-3.06-4.25-3.55-4.29c-0.72-0.06-0.9,0.72-0.17,1.77c0.74,1.06,2.72,4.34,2.16,4.69c0,0-0.01,0-0.02,0
							c-1.14-0.19-2.27,0.37-2.8,1.39c-0.51,0.98-1.08,2.38-0.61,3.02c0.88,1.21,3.23,3.42,3.23,3.42l0.68,0.58
							c0,0,17.54,25.42,21.37,26.25c2.38,0.51,39.14,3.56,39.14,3.56l2.77-10.13L322.47,191.3z"/>
					</g>
				</g>
				<g>
					<g>
						<g>
							<path class="st20" d="M291.67,170.49c0.63,0.6,1.25,1.2,1.88,1.8c0.21,0.2,0.43,0.41,0.71,0.52
								c0.27,0.11,0.62,0.08,0.82-0.13c0.18-0.2,0.2-0.5,0.11-0.75c-0.09-0.25-0.26-0.46-0.43-0.67c-0.61-0.73-1.22-1.46-1.82-2.19"
								/>
						</g>
					</g>
					<g>
						<g>
							<g>
								<path class="st21" d="M292.92,169.06c0.04-0.03,0.39,0.31,0.93,0.91c0.3,0.34,0.61,0.69,0.93,1.05
									c0.17,0.2,0.37,0.4,0.52,0.7c0.14,0.29,0.2,0.7-0.05,1.04c-0.28,0.34-0.71,0.34-1.03,0.24c-0.32-0.12-0.54-0.33-0.73-0.52
									c-0.34-0.34-0.66-0.68-0.98-1c-0.55-0.58-0.87-0.95-0.84-0.99c0.04-0.04,0.43,0.27,1.02,0.8c0.34,0.3,0.68,0.62,1.04,0.94
									c0.19,0.17,0.39,0.34,0.61,0.42c0.22,0.07,0.49,0.04,0.6-0.12c0.13-0.16,0.12-0.43,0.01-0.64c-0.1-0.22-0.29-0.43-0.45-0.64
									c-0.3-0.38-0.58-0.75-0.86-1.1C293.16,169.51,292.88,169.1,292.92,169.06z"/>
							</g>
						</g>
					</g>
				</g>
				<g>
					<g>
						<g>
							<path class="st20" d="M293,169.18c0.63,0.6,1.25,1.2,1.88,1.8c0.21,0.2,0.43,0.41,0.71,0.52c0.27,0.11,0.62,0.08,0.82-0.13
								c0.18-0.2,0.2-0.5,0.11-0.75c-0.09-0.25-0.26-0.46-0.43-0.67c-0.61-0.73-1.22-1.46-1.82-2.19"/>
						</g>
					</g>
					<g>
						<g>
							<g>
								<path class="st21" d="M294.26,167.75c0.04-0.03,0.39,0.31,0.93,0.91c0.3,0.34,0.61,0.69,0.93,1.05
									c0.17,0.2,0.37,0.4,0.52,0.7c0.14,0.29,0.2,0.7-0.05,1.04c-0.28,0.34-0.71,0.34-1.03,0.24c-0.32-0.12-0.54-0.33-0.73-0.52
									c-0.34-0.34-0.66-0.68-0.98-1c-0.55-0.58-0.87-0.95-0.84-0.99c0.04-0.04,0.43,0.27,1.02,0.8c0.34,0.3,0.68,0.62,1.04,0.94
									c0.19,0.17,0.39,0.34,0.61,0.42c0.22,0.07,0.49,0.04,0.6-0.12c0.13-0.16,0.12-0.43,0.01-0.64c-0.1-0.22-0.29-0.43-0.45-0.64
									c-0.3-0.38-0.58-0.75-0.86-1.1C294.49,168.2,294.21,167.79,294.26,167.75z"/>
							</g>
						</g>
					</g>
				</g>
				<g>
					<g>
						<g>
							<path class="st20" d="M294.46,168.1c0.63,0.6,1.25,1.2,1.88,1.8c0.21,0.2,0.43,0.41,0.71,0.52c0.27,0.11,0.62,0.08,0.82-0.13
								c0.18-0.2,0.2-0.5,0.11-0.75c-0.09-0.25-0.26-0.46-0.43-0.67c-0.61-0.73-1.22-1.46-1.82-2.19"/>
						</g>
					</g>
					<g>
						<g>
							<g>
								<path class="st21" d="M295.72,166.68c0.04-0.03,0.39,0.31,0.93,0.91c0.3,0.34,0.61,0.69,0.93,1.05
									c0.17,0.2,0.37,0.4,0.52,0.7c0.14,0.29,0.2,0.7-0.05,1.04c-0.28,0.34-0.71,0.34-1.03,0.24c-0.32-0.12-0.54-0.33-0.73-0.52
									c-0.34-0.34-0.66-0.68-0.98-1c-0.55-0.58-0.87-0.95-0.84-0.99c0.04-0.04,0.43,0.27,1.02,0.8c0.34,0.3,0.68,0.62,1.04,0.94
									c0.19,0.17,0.39,0.34,0.61,0.42c0.22,0.07,0.49,0.04,0.6-0.12c0.13-0.16,0.12-0.43,0.01-0.64c-0.1-0.22-0.29-0.43-0.45-0.64
									c-0.3-0.38-0.58-0.75-0.86-1.1C295.95,167.12,295.68,166.71,295.72,166.68z"/>
							</g>
						</g>
					</g>
				</g>
				<g>
					<g>
						<g>
							<path class="st21" d="M297.42,171.22c-0.01-0.06,0.46-0.15,1.14,0.05l-0.22,0.18c-0.09-0.36-0.13-0.82-0.05-1.29
								c0.11-0.68,0.42-1.23,0.7-1.57c0.29-0.34,0.53-0.47,0.56-0.43c0.08,0.07-0.7,0.83-0.89,2.06c-0.07,0.42-0.06,0.83-0.01,1.16
								l0.04,0.29l-0.26-0.11C297.87,171.33,297.42,171.29,297.42,171.22z"/>
						</g>
					</g>
				</g>
			</g>
			<g>
				<g>
					<g>
						<g>
							<path class="st20" d="M349.03,160.41l0.09,28.22l-11,0.52l-0.45-6.76c0,0-5.31,0.81-6.42-3.19
								c-0.71-2.55-0.53-22.27-0.53-22.27L349.03,160.41z"/>
						</g>
					</g>
					<g>
						<g>
							<path class="st5" d="M327.99,159.72c0.82,1.69,4.7,4.77,4.7,4.77l1.75,4.7c1.52-1.19,3.57-1.12,3.96,1.55
								c0.28,1.93-2.13,2.33-2.13,2.33c1.4,2.38,2.35,4.31,4.39,6.58c2.21,2.45,3.44,2.7,5.84,2.74h2.64c0,0,5.4-4.51,4.33-16.4
								s-11.75-8.42-14.3-11.39C335.01,149.77,325.27,154.09,327.99,159.72z"/>
						</g>
					</g>
				</g>
				<g>
					<g>
						<g>
							<path class="st2" d="M352.87,175.93c0,0-0.47,0.09-1.31-0.06c-0.83-0.15-2.01-0.62-3.15-1.62c-1.16-0.99-2.17-2.51-3.19-4.21
								c-1.03-1.68-2.15-3.64-4.04-4.95c-1.91-1.28-4.16-1.54-6.1-1.94c-1.95-0.37-3.72-0.92-4.92-1.87
								c-1.21-0.94-1.8-2.1-1.97-2.92c-0.18-0.84-0.05-1.3-0.05-1.3c0.03,0-0.08,0.47,0.11,1.29c0.19,0.81,0.79,1.94,1.98,2.85
								c1.19,0.92,2.94,1.46,4.88,1.82c1.93,0.39,4.2,0.64,6.15,1.95c1.93,1.34,3.06,3.32,4.08,5c1.01,1.71,2.01,3.22,3.14,4.21
								c1.12,1,2.28,1.48,3.09,1.65c0.41,0.09,0.74,0.1,0.96,0.11C352.75,175.92,352.87,175.93,352.87,175.93z"/>
						</g>
					</g>
				</g>
				<g>
					<g>
						<g>
							<path class="st2" d="M353.5,166.26c0,0-0.2-0.06-0.57-0.17c-0.37-0.11-0.92-0.29-1.66-0.37c-0.72-0.07-1.69-0.03-2.55,0.57
								c-0.42,0.3-0.79,0.76-0.89,1.34c-0.1,0.56,0.04,1.25,0.51,1.68c0.23,0.22,0.56,0.34,0.89,0.35c0.33,0.01,0.67-0.1,0.98-0.27
								c0.61-0.36,1.1-0.97,1.33-1.7c0.5-1.44,0.15-3.32-1.18-4.47c-0.64-0.57-1.48-0.97-2.37-1.06c-0.9-0.1-1.82,0.1-2.73,0.36
								c-0.91,0.26-1.85,0.56-2.83,0.68c-0.98,0.13-1.99,0.14-3,0.01c-1.01-0.14-1.99-0.38-2.89-0.8c-0.89-0.42-1.71-1.12-1.98-2.09
								c-0.26-0.94-0.01-2,0.67-2.67c0.69-0.67,1.78-0.76,2.58-0.38c0.41,0.19,0.76,0.5,0.96,0.9c0.21,0.39,0.26,0.85,0.2,1.27
								c-0.11,0.85-0.62,1.59-1.29,2.02c-0.67,0.43-1.45,0.59-2.17,0.6c-0.73,0.02-1.43-0.12-2.06-0.32
								c-1.28-0.4-2.29-1.12-3.03-1.87c-0.75-0.75-1.23-1.54-1.55-2.21c-0.32-0.67-0.45-1.24-0.55-1.62
								c-0.07-0.39-0.09-0.59-0.09-0.59s0.05,0.2,0.12,0.58c0.11,0.37,0.24,0.93,0.57,1.6c0.32,0.66,0.81,1.44,1.55,2.17
								c0.74,0.73,1.74,1.44,3,1.82c0.63,0.19,1.31,0.32,2.03,0.3c0.71-0.02,1.46-0.18,2.11-0.59c0.64-0.41,1.12-1.12,1.22-1.93
								c0.13-0.8-0.29-1.69-1.09-2.02c-0.76-0.35-1.78-0.27-2.42,0.36c-0.64,0.62-0.88,1.63-0.63,2.52c0.25,0.91,1.04,1.58,1.9,1.99
								c0.88,0.42,1.86,0.65,2.85,0.79c0.99,0.13,1.99,0.12,2.96-0.01c0.97-0.12,1.89-0.42,2.81-0.67c0.92-0.26,1.86-0.46,2.79-0.36
								c0.93,0.1,1.79,0.51,2.45,1.1c1.37,1.19,1.72,3.13,1.2,4.61c-0.24,0.76-0.75,1.39-1.39,1.76c-0.32,0.18-0.68,0.3-1.04,0.28
								c-0.36-0.02-0.71-0.15-0.96-0.39c-0.51-0.47-0.64-1.19-0.54-1.78c0.1-0.61,0.5-1.09,0.93-1.39c0.89-0.61,1.88-0.64,2.6-0.56
								c0.74,0.09,1.29,0.28,1.66,0.4C353.31,166.19,353.5,166.26,353.5,166.26z"/>
						</g>
					</g>
				</g>
			</g>
			<g>
				<g>
					<g>
						<g>
							<g>
								<g>
									<g>
										<g>
											<g>
												<path class="st6" d="M339.51,311.74l-3.6-4.61l8.6-6.79l5.33,6.7l-0.51,0.46c-2.27,2.01-11.68,10.04-13.65,10.81
													C333.5,319.16,339.51,311.74,339.51,311.74z"/>
											</g>
										</g>
									</g>
								</g>
							</g>
						</g>
						<g class="st22">
							<g>
								<g>
									<g>
										<g>
											<path class="st3" d="M336.67,315.49c0,0-1.98,2.76-1.33,2.93c0.65,0.17,10.47-7.59,14.5-11.39l-0.17-0.18L338.31,316
												C338.31,316,337.19,315.12,336.67,315.49z"/>
										</g>
									</g>
								</g>
							</g>
						</g>
						<g>
							<g>
								<g>
									<g>
										<g>
											<g>
												<path class="st5" d="M349.81,306.74c0,0-0.04,0.05-0.14,0.13c-0.12,0.11-0.25,0.23-0.4,0.36
													c-0.41,0.35-0.91,0.79-1.51,1.3c-1.28,1.09-3.07,2.57-5.09,4.17c-2.01,1.59-3.87,3-5.22,4
													c-0.64,0.46-1.18,0.85-1.61,1.17c-0.16,0.12-0.31,0.22-0.44,0.31c-0.1,0.07-0.16,0.1-0.16,0.1c0,0,0.05-0.05,0.14-0.12
													c0.13-0.1,0.27-0.21,0.43-0.33c0.43-0.33,0.96-0.73,1.59-1.2c1.34-1.02,3.19-2.43,5.2-4.03
													c2.01-1.59,3.81-3.07,5.11-4.14c0.61-0.5,1.12-0.92,1.54-1.27c0.16-0.13,0.29-0.24,0.42-0.34
													C349.76,306.77,349.81,306.73,349.81,306.74z"/>
											</g>
										</g>
									</g>
								</g>
							</g>
						</g>
						<g>
							<g>
								<g>
									<g>
										<g>
											<g>
												<path class="st5" d="M338.42,316.13c-0.03,0.03-0.35-0.32-0.88-0.52c-0.53-0.2-1-0.14-1.01-0.18
													c-0.01-0.03,0.48-0.16,1.05,0.05C338.15,315.7,338.45,316.12,338.42,316.13z"/>
											</g>
										</g>
									</g>
								</g>
							</g>
						</g>
						<g>
							<g>
								<g>
									<g>
										<g>
											<g>
												<path class="st5" d="M339.94,312.84c-0.01,0.03-0.25-0.02-0.53-0.12c-0.28-0.1-0.5-0.21-0.49-0.24
													c0.01-0.03,0.25,0.02,0.53,0.12C339.73,312.7,339.95,312.8,339.94,312.84z"/>
											</g>
										</g>
									</g>
								</g>
							</g>
						</g>
						<g>
							<g>
								<g>
									<g>
										<g>
											<g>
												<path class="st5" d="M340.34,311.92c0,0.04-0.21,0.05-0.46,0.04c-0.25-0.02-0.46-0.06-0.45-0.1
													c0-0.04,0.21-0.05,0.46-0.04C340.14,311.84,340.34,311.88,340.34,311.92z"/>
											</g>
										</g>
									</g>
								</g>
							</g>
						</g>
						<g>
							<g>
								<g>
									<g>
										<g>
											<g>
												<path class="st5" d="M340.14,310.76c0.02,0.03-0.16,0.21-0.4,0.41c-0.25,0.2-0.46,0.34-0.49,0.31
													c-0.02-0.03,0.16-0.21,0.4-0.41S340.12,310.73,340.14,310.76z"/>
											</g>
										</g>
									</g>
								</g>
							</g>
						</g>
						<g>
							<g>
								<g>
									<g>
										<g>
											<g>
												<path class="st5" d="M339.84,310.07c0.03,0.02-0.11,0.29-0.39,0.54c-0.27,0.25-0.56,0.37-0.57,0.34
													c-0.02-0.03,0.22-0.2,0.48-0.44C339.62,310.27,339.81,310.05,339.84,310.07z"/>
											</g>
										</g>
									</g>
								</g>
							</g>
						</g>
						<g>
							<g>
								<g>
									<g>
										<g>
											<g>
												<path class="st5" d="M339.05,312.32c0.01,0.01-0.18,0.2-0.56,0.43c-0.19,0.11-0.42,0.23-0.69,0.34
													c-0.14,0.05-0.27,0.11-0.45,0.13c-0.08,0.01-0.18,0-0.27-0.06c-0.09-0.06-0.12-0.19-0.09-0.29
													c0.31-0.69,1.08-0.81,1.49-0.69c0.22,0.05,0.37,0.15,0.47,0.23c0.1,0.08,0.14,0.13,0.13,0.14
													c-0.01,0.02-0.21-0.19-0.62-0.27c-0.2-0.04-0.46-0.04-0.71,0.07c-0.24,0.1-0.53,0.3-0.62,0.57
													c-0.04,0.13,0.08,0.21,0.22,0.19c0.14-0.01,0.28-0.07,0.42-0.11c0.27-0.09,0.5-0.2,0.69-0.3
													C338.83,312.47,339.04,312.3,339.05,312.32z"/>
											</g>
										</g>
									</g>
								</g>
							</g>
						</g>
						<g>
							<g>
								<g>
									<g>
										<g>
											<g>
												<path class="st5" d="M338.93,312.46c0,0.01-0.2-0.06-0.37-0.33c-0.08-0.13-0.15-0.31-0.17-0.52
													c0-0.2-0.01-0.47,0.24-0.65c0.14-0.08,0.32,0.01,0.37,0.12c0.07,0.1,0.09,0.22,0.1,0.32c0.03,0.2,0.02,0.39,0,0.54
													c-0.04,0.31-0.13,0.48-0.14,0.47c-0.02-0.01,0.03-0.19,0.05-0.48c0.01-0.15,0-0.32-0.03-0.51
													c-0.02-0.18-0.13-0.43-0.29-0.34c-0.15,0.1-0.18,0.35-0.18,0.52c0.01,0.19,0.06,0.35,0.13,0.48
													C338.78,312.34,338.95,312.44,338.93,312.46z"/>
											</g>
										</g>
									</g>
								</g>
							</g>
						</g>
						<g>
							<g>
								<g>
									<g>
										<g>
											<g>
												<path class="st5" d="M347.78,304.52c0.01,0.02-0.26,0.17-0.62,0.52c-0.35,0.35-0.76,0.93-0.93,1.67
													c-0.17,0.74-0.06,1.44,0.1,1.91c0.16,0.47,0.34,0.73,0.32,0.74c-0.01,0-0.06-0.05-0.14-0.17
													c-0.08-0.12-0.18-0.3-0.27-0.54c-0.19-0.47-0.32-1.2-0.14-1.97c0.18-0.77,0.62-1.37,1-1.7
													c0.19-0.17,0.36-0.29,0.48-0.36C347.7,304.55,347.77,304.52,347.78,304.52z"/>
											</g>
										</g>
									</g>
								</g>
							</g>
						</g>
						<g>
							<g>
								<g>
									<g>
										<g>
											<g>
												<path class="st5" d="M344.06,301.65c0.03-0.02,0.69,0.74,1.47,1.71c0.78,0.97,1.4,1.77,1.37,1.79
													c-0.03,0.02-0.69-0.74-1.47-1.71C344.64,302.48,344.03,301.67,344.06,301.65z"/>
											</g>
										</g>
									</g>
								</g>
							</g>
						</g>
						<g>
							<g>
								<g>
									<g>
										<g>
											<g>
												<path class="st5" d="M344.93,309.44c0.02,0.02-0.46,0.56-1.16,1.12c-0.69,0.56-1.32,0.92-1.34,0.89
													c-0.02-0.03,0.57-0.44,1.25-1C344.38,309.9,344.9,309.42,344.93,309.44z"/>
											</g>
										</g>
									</g>
								</g>
							</g>
						</g>
						<g>
							<g>
								<g>
									<g>
										<g>
											<g>
												<path class="st5" d="M346.61,308.11c0.04,0,0.05,0.16,0.09,0.33c0.04,0.17,0.1,0.31,0.07,0.33
													c-0.03,0.02-0.15-0.1-0.2-0.3C346.53,308.27,346.58,308.1,346.61,308.11z"/>
											</g>
										</g>
									</g>
								</g>
							</g>
						</g>
						<g>
							<g>
								<g>
									<g>
										<g>
											<g>
												<path class="st5" d="M346.62,306.82c0.04,0,0.05,0.14,0.03,0.3c-0.02,0.16-0.06,0.29-0.1,0.28
													c-0.04,0-0.05-0.14-0.03-0.3C346.54,306.94,346.59,306.81,346.62,306.82z"/>
											</g>
										</g>
									</g>
								</g>
							</g>
						</g>
						<g>
							<g>
								<g>
									<g>
										<g>
											<g>
												<path class="st5" d="M347.25,305.74c0.02,0.03-0.1,0.12-0.19,0.27c-0.09,0.14-0.13,0.28-0.17,0.28
													c-0.04,0-0.06-0.18,0.06-0.35C347.06,305.75,347.23,305.7,347.25,305.74z"/>
											</g>
										</g>
									</g>
								</g>
							</g>
						</g>
						<g>
							<g>
								<g>
									<g>
										<g>
											<g>
												<path class="st5" d="M347.76,305.06c0.03,0.02,0.02,0.1-0.03,0.19c-0.05,0.08-0.12,0.14-0.15,0.12
													c-0.03-0.02-0.02-0.1,0.03-0.19C347.66,305.09,347.73,305.04,347.76,305.06z"/>
											</g>
										</g>
									</g>
								</g>
							</g>
						</g>
					</g>
				</g>
				<g class="st23">
					<g>
						<g>
							<polygon points="347.58,304.3 338.88,310.95 338.08,309.9 347.22,303.71 							"/>
						</g>
					</g>
				</g>
			</g>
			<g>
				<g>
					<g>
						<g>
							<g>
								<g>
									<g>
										<g>
											<g>
												<path class="st6" d="M299.96,316.38l0.02-5.85l10.96-0.04l0.07,8.56l-0.68,0.05c-3.02,0.18-15.39,0.7-17.41,0.09
													C290.66,318.51,299.96,316.38,299.96,316.38z"/>
											</g>
										</g>
									</g>
								</g>
							</g>
						</g>
						<g class="st22">
							<g>
								<g>
									<g>
										<g>
											<path class="st3" d="M295.41,317.58c0,0-3.26,0.95-2.85,1.49c0.41,0.54,12.92,0.48,18.44-0.02l-0.02-0.24l-14.59,0.19
												C296.39,318.99,296.05,317.6,295.41,317.58z"/>
										</g>
									</g>
								</g>
							</g>
						</g>
						<g>
							<g>
								<g>
									<g>
										<g>
											<g>
												<path class="st5" d="M311.16,318.79c0,0-0.06,0.01-0.19,0.02c-0.16,0.01-0.34,0.02-0.54,0.03
													c-0.54,0.03-1.21,0.06-1.99,0.09c-1.68,0.07-4.01,0.13-6.58,0.14c-2.57,0.01-4.9-0.03-6.58-0.08
													c-0.79-0.03-1.45-0.05-1.99-0.07c-0.2-0.01-0.38-0.02-0.54-0.03c-0.12-0.01-0.19-0.01-0.19-0.02
													c0,0,0.07-0.01,0.19-0.01c0.16,0,0.34,0,0.54,0c0.54,0.01,1.21,0.02,1.99,0.03c1.68,0.03,4.01,0.05,6.58,0.04
													c2.57-0.01,4.89-0.06,6.57-0.1c0.79-0.02,1.45-0.04,1.99-0.05c0.2,0,0.38-0.01,0.54-0.01
													C311.09,318.79,311.16,318.79,311.16,318.79z"/>
											</g>
										</g>
									</g>
								</g>
							</g>
						</g>
						<g>
							<g>
								<g>
									<g>
										<g>
											<g>
												<path class="st5" d="M296.39,319.16c-0.04,0.01-0.07-0.47-0.38-0.95c-0.29-0.48-0.7-0.73-0.68-0.76
													c0.01-0.03,0.48,0.17,0.8,0.69C296.45,318.65,296.43,319.16,296.39,319.16z"/>
											</g>
										</g>
									</g>
								</g>
							</g>
						</g>
						<g>
							<g>
								<g>
									<g>
										<g>
											<g>
												<path class="st5" d="M299.62,317.5c-0.03,0.02-0.19-0.17-0.35-0.42c-0.16-0.25-0.27-0.47-0.24-0.49
													c0.03-0.02,0.19,0.17,0.35,0.42C299.55,317.26,299.65,317.48,299.62,317.5z"/>
											</g>
										</g>
									</g>
								</g>
							</g>
						</g>
						<g>
							<g>
								<g>
									<g>
										<g>
											<g>
												<path class="st5" d="M300.5,317.03c-0.02,0.03-0.2-0.09-0.39-0.26c-0.19-0.17-0.32-0.33-0.3-0.36
													c0.02-0.03,0.2,0.09,0.39,0.26C300.4,316.84,300.53,317,300.5,317.03z"/>
											</g>
										</g>
									</g>
								</g>
							</g>
						</g>
						<g>
							<g>
								<g>
									<g>
										<g>
											<g>
												<path class="st5" d="M301.06,315.99c0,0.04-0.26,0.07-0.57,0.08c-0.32,0-0.57-0.02-0.57-0.06
													c0-0.04,0.26-0.07,0.57-0.08C300.8,315.93,301.06,315.96,301.06,315.99z"/>
											</g>
										</g>
									</g>
								</g>
							</g>
						</g>
						<g>
							<g>
								<g>
									<g>
										<g>
											<g>
												<path class="st5" d="M301.25,315.26c0.01,0.03-0.27,0.16-0.64,0.19c-0.37,0.03-0.67-0.05-0.66-0.09
													c0.01-0.04,0.3-0.02,0.65-0.05C300.96,315.29,301.24,315.23,301.25,315.26z"/>
											</g>
										</g>
									</g>
								</g>
							</g>
						</g>
						<g>
							<g>
								<g>
									<g>
										<g>
											<g>
												<path class="st5" d="M299.24,316.55c0,0.01-0.27,0.05-0.7,0c-0.22-0.03-0.47-0.08-0.75-0.16
													c-0.14-0.05-0.28-0.08-0.43-0.17c-0.07-0.05-0.15-0.11-0.18-0.22c-0.03-0.11,0.03-0.22,0.11-0.28
													c0.67-0.35,1.35,0.02,1.6,0.37c0.14,0.18,0.2,0.35,0.23,0.47c0.03,0.12,0.03,0.19,0.02,0.19
													c-0.02,0.01-0.05-0.28-0.32-0.6c-0.14-0.16-0.34-0.31-0.6-0.39c-0.25-0.07-0.6-0.09-0.84,0.06
													c-0.11,0.08-0.07,0.21,0.06,0.29c0.12,0.07,0.27,0.12,0.4,0.17c0.27,0.09,0.52,0.15,0.73,0.19
													C298.98,316.53,299.24,316.53,299.24,316.55z"/>
											</g>
										</g>
									</g>
								</g>
							</g>
						</g>
						<g>
							<g>
								<g>
									<g>
										<g>
											<g>
												<path class="st5" d="M299.06,316.58c-0.01,0.01-0.11-0.17-0.08-0.49c0.02-0.16,0.07-0.34,0.19-0.52
													c0.12-0.16,0.28-0.37,0.58-0.36c0.16,0.02,0.24,0.21,0.22,0.32c-0.01,0.12-0.07,0.23-0.12,0.32
													c-0.1,0.18-0.22,0.32-0.33,0.43c-0.22,0.22-0.39,0.3-0.4,0.29c-0.01-0.02,0.14-0.13,0.33-0.35
													c0.1-0.11,0.2-0.25,0.29-0.42c0.1-0.15,0.16-0.42-0.02-0.45c-0.18-0.02-0.36,0.16-0.46,0.3
													c-0.11,0.15-0.17,0.32-0.2,0.46C299.02,316.4,299.08,316.58,299.06,316.58z"/>
											</g>
										</g>
									</g>
								</g>
							</g>
						</g>
						<g>
							<g>
								<g>
									<g>
										<g>
											<g>
												<path class="st5" d="M310.92,315.79c0,0.02-0.31-0.03-0.81,0.03c-0.49,0.06-1.17,0.26-1.76,0.74
													c-0.59,0.48-0.94,1.1-1.1,1.56c-0.17,0.47-0.18,0.79-0.2,0.78c-0.01,0-0.01-0.08,0-0.22c0.01-0.14,0.04-0.35,0.12-0.59
													c0.14-0.49,0.49-1.14,1.1-1.64c0.62-0.5,1.33-0.69,1.84-0.73c0.25-0.02,0.46-0.01,0.6,0.01
													C310.84,315.77,310.92,315.79,310.92,315.79z"/>
											</g>
										</g>
									</g>
								</g>
							</g>
						</g>
						<g>
							<g>
								<g>
									<g>
										<g>
											<g>
												<path class="st5" d="M309.76,311.24c0.04,0,0.08,1.01,0.1,2.25c0.02,1.24,0.01,2.25-0.03,2.25
													c-0.04,0-0.08-1.01-0.1-2.25C309.71,312.25,309.73,311.24,309.76,311.24z"/>
											</g>
										</g>
									</g>
								</g>
							</g>
						</g>
						<g>
							<g>
								<g>
									<g>
										<g>
											<g>
												<path class="st5" d="M305.64,317.91c0,0.03-0.71,0.15-1.6,0.17c-0.89,0.01-1.61-0.09-1.6-0.12c0-0.04,0.72,0,1.6-0.01
													C304.93,317.93,305.64,317.87,305.64,317.91z"/>
											</g>
										</g>
									</g>
								</g>
							</g>
						</g>
						<g>
							<g>
								<g>
									<g>
										<g>
											<g>
												<path class="st5" d="M307.79,317.9c0.03,0.03-0.06,0.15-0.13,0.32c-0.07,0.16-0.11,0.31-0.15,0.31
													c-0.04,0-0.06-0.17,0.03-0.36C307.63,317.97,307.77,317.87,307.79,317.9z"/>
											</g>
										</g>
									</g>
								</g>
							</g>
						</g>
						<g>
							<g>
								<g>
									<g>
										<g>
											<g>
												<path class="st5" d="M308.6,316.89c0.03,0.03-0.04,0.14-0.16,0.26c-0.11,0.12-0.23,0.19-0.25,0.16
													c-0.03-0.03,0.04-0.14,0.16-0.26C308.46,316.93,308.57,316.86,308.6,316.89z"/>
											</g>
										</g>
									</g>
								</g>
							</g>
						</g>
						<g>
							<g>
								<g>
									<g>
										<g>
											<g>
												<path class="st5" d="M309.75,316.42c-0.01,0.04-0.15,0.04-0.31,0.09c-0.16,0.05-0.28,0.14-0.31,0.12
													c-0.03-0.02,0.06-0.18,0.26-0.24C309.6,316.32,309.76,316.39,309.75,316.42z"/>
											</g>
										</g>
									</g>
								</g>
							</g>
						</g>
						<g>
							<g>
								<g>
									<g>
										<g>
											<g>
												<path class="st5" d="M310.58,316.2c0.01,0.03-0.05,0.09-0.14,0.13c-0.09,0.04-0.18,0.04-0.19,0
													c-0.01-0.03,0.05-0.09,0.14-0.13C310.48,316.17,310.56,316.17,310.58,316.2z"/>
											</g>
										</g>
									</g>
								</g>
							</g>
						</g>
					</g>
				</g>
				<g class="st23">
					<g>
						<g>
							<polygon points="311,315.35 299.95,315.37 299.97,314.05 310.96,313.97 							"/>
						</g>
					</g>
				</g>
			</g>
			<g>
				<g>
					<g>
						<g>
							<path class="st20" d="M327.01,215.4l-4.39,13.21c-1.19,3.57-4.3,4.18-8.06,4.18h-24.41v-5.48l22.3-3.18l5.31-13.58
								L327.01,215.4z"/>
						</g>
					</g>
				</g>
				<g>
					<g>
						<g>
							<g>
								<path class="st20" d="M287.47,226.18l-1.94-0.92c0,0-2.09-4.03-2.57-3.87c-0.48,0.16-0.62,1.35,0.22,3.2l-2.57-0.73
									c0,0-5.58,2.58-5.33,2.92c0.25,0.35,0.7,1.17,1.92,0.55c1.22-0.62,2.81-1.35,2.81-1.35l3.01,0.86l-3.88,0.49l-3.65,3.32
									c0,0,1.2,0.9,2.23-0.06l9.47,2.03l2.97,0.17v-5.48L287.47,226.18z"/>
							</g>
						</g>
					</g>
					<g>
						<g>
							<g>
								<g>
									<path class="st21" d="M277.72,230.59c0.04,0.03,0.22-0.25,0.56-0.63c0.17-0.18,0.4-0.37,0.69-0.53
										c0.28-0.15,0.63-0.22,1.02-0.27c1.58-0.19,2.85-0.4,2.84-0.48c-0.01-0.08-1.3,0-2.88,0.19c-0.4,0.05-0.8,0.13-1.12,0.32
										c-0.31,0.19-0.55,0.42-0.71,0.63C277.79,230.26,277.69,230.57,277.72,230.59z"/>
								</g>
							</g>
						</g>
					</g>
					<g>
						<g>
							<g>
								<g>
									<path class="st21" d="M279.2,230.97c0.04,0,0.07-0.2,0.33-0.25c0.27-0.05,0.7-0.1,1.15-0.15c0.91-0.09,1.66-0.09,1.66-0.17
										c0.01-0.08-0.75-0.22-1.69-0.13c-0.47,0.05-0.88,0.13-1.19,0.24c-0.16,0.07-0.27,0.2-0.29,0.3
										C279.15,230.92,279.18,230.97,279.2,230.97z"/>
								</g>
							</g>
						</g>
					</g>
				</g>
			</g>
			<g>
				<g>
					<g>
						<g>
							<g>
								<g>
									<g>
										<g>
											<g>
												<path class="st6" d="M329.08,212.52l-1.88,6.36l-11.91-5.39c0.43-1.33,2.4-7.26,6.17-16.67
													c2.1-5.24,6.78-9.03,12.35-9.95c3.9-0.65,8.14-1.15,11.41-1.12c6.68,0.07,16.52,4.25,17.84,10.8
													c1.01,5,0.04,13.83,0.04,24.55l-0.87,20.49l-34.24,1.16L329.08,212.52z"/>
											</g>
										</g>
									</g>
								</g>
							</g>
						</g>
					</g>
					<g class="st23">
						<g>
							<g>
								<g>
									<path d="M363.05,216.34c-4.17,0.85-8.44-0.01-12.69-0.26c-2.57-0.15-5.43-0.43-7.47,1.15c-1.61,1.25-2.26,3.36-2.73,5.35
										c-1.78,7.59-2.1,12.67-2.5,20.46l20.61,1.25L363.05,216.34z"/>
								</g>
							</g>
						</g>
					</g>
				</g>
				<g>
					<g>
						<g>
							<g>
								<path class="st5" d="M328.2,190.28c0,0.03,0.34,0.05,0.91,0.27c0.56,0.23,1.33,0.72,1.97,1.6c0.65,0.87,1.09,2.13,1.18,3.57
									c0.1,1.44-0.11,3.03-0.36,4.69c-0.53,3.32-1.34,6.26-1.91,8.39c-0.28,1.03-0.52,1.88-0.69,2.52
									c-0.16,0.6-0.24,0.93-0.22,0.94c0.02,0.01,0.14-0.32,0.33-0.9c0.19-0.59,0.46-1.44,0.78-2.5c0.63-2.12,1.47-5.06,2-8.4
									c0.25-1.67,0.46-3.28,0.34-4.76c-0.1-1.48-0.58-2.79-1.28-3.67c-0.69-0.9-1.51-1.38-2.1-1.58c-0.3-0.1-0.54-0.14-0.7-0.16
									C328.29,190.27,328.2,190.27,328.2,190.28z"/>
							</g>
						</g>
					</g>
				</g>
				<g>
					<g>
						<g>
							<g>
								<path class="st5" d="M315.66,211.86c-0.02,0.04,0.62,0.41,1.68,0.96c1.06,0.55,2.54,1.28,4.2,2.03
									c1.66,0.75,3.19,1.38,4.31,1.8c1.12,0.43,1.82,0.66,1.83,0.62c0.02-0.04-0.66-0.34-1.75-0.81c-1.09-0.48-2.6-1.13-4.26-1.88
									c-1.66-0.75-3.15-1.45-4.23-1.95C316.35,212.13,315.68,211.82,315.66,211.86z"/>
							</g>
						</g>
					</g>
				</g>
			</g>
			<g>
				<g>
					<g>
						<g>
							<path class="st5" d="M310.2,244.29c-5.83,3.18-8.05,10.45-4.98,16.34l29.8,51.16l13.75-8.3l-23.14-46.19l16.77-10.95"/>
						</g>
					</g>
				</g>
				<g>
					<g>
						<g>
							<g>
								<path class="st5" d="M346.48,241.76l-40.91,1.45c-6.64,0.24-11.87,5.74-11.77,12.38l1.7,58.42l17.2-0.04l-0.57-55.24
									l34.35-0.9V241.76z"/>
							</g>
						</g>
					</g>
					<g>
						<g>
							<g>
								<path class="st2" d="M312.14,260.73c0.01,0,0.03,0.19,0.05,0.54c0.02,0.39,0.04,0.91,0.07,1.55c0.05,1.35,0.1,3.3,0.15,5.7
									c0.1,4.82,0.17,11.47,0.21,18.82c0.04,7.33,0.07,13.97,0.1,18.83c0.01,2.38,0.02,4.32,0.03,5.7c0,0.64,0,1.16-0.01,1.55
									c-0.01,0.35-0.01,0.54-0.03,0.54c-0.01,0-0.03-0.19-0.05-0.54c-0.02-0.39-0.04-0.91-0.07-1.55c-0.05-1.35-0.1-3.3-0.15-5.7
									c-0.1-4.82-0.17-11.47-0.21-18.83c-0.04-7.33-0.07-13.97-0.1-18.82c-0.01-2.38-0.02-4.32-0.03-5.71c0-0.64,0-1.16,0.01-1.55
									C312.11,260.92,312.12,260.73,312.14,260.73z"/>
							</g>
						</g>
					</g>
				</g>
			</g>
		</g>
		<g>
			<g>
				<g>
					<path class="st2" d="M364.2,204.68h-12.38c-4.98,0-9.02,4.04-9.02,9.02v43.18h-24.73c-3.45,0-6.25,2.8-6.25,6.25h56.46
						c0-0.01,0-0.02,0-0.04c2.74-0.12,4.93-2.37,4.93-5.15V213.7C373.22,208.72,369.19,204.68,364.2,204.68z"/>
				</g>
			</g>
			<g>
				<g>
					<g>
						<path class="st5" d="M346.41,206.1c0.11,0,0.19,12.69,0.19,28.34c0,15.65-0.09,28.34-0.19,28.34
							c-0.11,0-0.19-12.69-0.19-28.34C346.21,218.79,346.3,206.1,346.41,206.1z"/>
					</g>
				</g>
			</g>
			<g>
				<g>
					<path class="st2" d="M344.84,308.44v-45.29h-4.02v45.29c-2.46,4.84-8.23,8.12-15.27,10.8h35.87
						C354.14,316.28,347.56,314.01,344.84,308.44z"/>
				</g>
			</g>
		</g>
	</g>
	<g>
		<g>
			<g>
				<g>
					<path class="st5" d="M88.25,302.58c-0.01,0,0.03-0.09,0.11-0.27c0.09-0.19,0.21-0.44,0.36-0.77c0.31-0.68,0.7-1.71,1.06-3.08
						c0.7-2.74,0.95-6.92-0.09-11.88c-0.48-2.49-1.26-5.15-2.2-7.98c-0.93-2.83-2.02-5.84-2.9-9.09c-0.88-3.24-1.57-6.76-1.43-10.45
						c0.13-3.69,1.23-7.38,2.43-11.05c1.2-3.68,2.44-7.27,2.81-10.89c0.42-3.61-0.35-7.15-2-10.05c-1.59-2.93-3.6-5.44-5.1-8.04
						c-1.52-2.59-2.48-5.25-3.06-7.73c-1.14-4.99-0.74-9.2-0.19-11.98c0.59-2.79,1.25-4.23,1.25-4.23c0.01,0-0.02,0.1-0.07,0.28
						c-0.06,0.2-0.15,0.47-0.25,0.81c-0.22,0.71-0.51,1.78-0.78,3.17c-0.5,2.77-0.85,6.95,0.31,11.89c0.6,2.45,1.56,5.08,3.07,7.63
						c1.5,2.57,3.51,5.07,5.13,8.03c1.68,2.93,2.49,6.59,2.06,10.26c-0.37,3.68-1.63,7.29-2.82,10.97
						c-1.2,3.67-2.28,7.32-2.42,10.95c-0.14,3.63,0.54,7.11,1.4,10.34c0.87,3.23,1.94,6.24,2.86,9.08c0.94,2.84,1.7,5.52,2.17,8.03
						c1.01,5,0.72,9.22-0.03,11.97c-0.38,1.37-0.8,2.4-1.13,3.07c-0.17,0.32-0.3,0.57-0.4,0.75
						C88.3,302.5,88.26,302.58,88.25,302.58z"/>
				</g>
			</g>
			<g>
				<g>
					<path class="st4" d="M83.34,221.6c0,0-3.04-9.74,2.42-15.44c0.19-0.2,0.53-0.11,0.58,0.17C86.63,207.94,87,212.84,83.34,221.6z
						"/>
				</g>
				<g>
					<g>
						<path class="st5" d="M85.17,209.41c0.05,0.01-0.04,0.7-0.21,1.8c-0.2,1.24-0.43,2.69-0.69,4.29c-0.25,1.6-0.49,3.06-0.68,4.29
							c-0.17,1.1-0.27,1.78-0.32,1.78c-0.05,0-0.04-0.7,0.05-1.81c0.1-1.11,0.3-2.64,0.57-4.32c0.27-1.68,0.57-3.19,0.81-4.28
							C84.94,210.07,85.12,209.4,85.17,209.41z"/>
					</g>
				</g>
			</g>
			<g>
				<g>
					<path class="st4" d="M86.92,244.56c0,0,1.86-10.03,9.35-12.51c0.26-0.09,0.52,0.15,0.43,0.42
						C96.21,234.03,94.25,238.52,86.92,244.56z"/>
				</g>
				<g>
					<g>
						<path class="st5" d="M94.23,234.64c0.04,0.03-0.36,0.6-1.02,1.49c-0.76,1-1.64,2.17-2.62,3.47c-0.98,1.3-1.86,2.47-2.61,3.48
							c-0.66,0.89-1.07,1.45-1.12,1.42c-0.04-0.03,0.29-0.64,0.89-1.57c0.61-0.94,1.5-2.2,2.53-3.55c1.03-1.36,1.99-2.56,2.71-3.41
							C93.72,235.11,94.19,234.61,94.23,234.64z"/>
					</g>
				</g>
			</g>
			<g>
				<g>
					<path class="st4" d="M84.9,269.72c0,0-1.13-10.14,5.32-14.69c0.23-0.16,0.54,0,0.54,0.27
						C90.73,256.94,90.15,261.82,84.9,269.72z"/>
				</g>
				<g>
					<g>
						<path class="st5" d="M89.01,258.1c0.05,0.02-0.17,0.68-0.54,1.72c-0.43,1.18-0.94,2.56-1.5,4.08
							c-0.56,1.53-1.06,2.91-1.49,4.08c-0.37,1.05-0.6,1.7-0.66,1.68c-0.05-0.01,0.09-0.69,0.4-1.77c0.31-1.07,0.8-2.54,1.39-4.13
							c0.59-1.6,1.17-3.03,1.61-4.05C88.66,258.7,88.96,258.08,89.01,258.1z"/>
					</g>
				</g>
			</g>
			<g>
				<g>
					<path class="st4" d="M90.54,295.03c0,0-0.77-10.17,5.84-14.49c0.23-0.15,0.54,0.02,0.53,0.29
						C96.83,282.46,96.08,287.32,90.54,295.03z"/>
				</g>
				<g>
					<g>
						<path class="st5" d="M95.07,283.56c0.05,0.02-0.19,0.67-0.61,1.7c-0.47,1.16-1.03,2.52-1.65,4.03
							c-0.61,1.51-1.16,2.87-1.63,4.03c-0.41,1.03-0.66,1.67-0.72,1.66c-0.05-0.01,0.11-0.69,0.46-1.75
							c0.35-1.06,0.89-2.51,1.53-4.08c0.65-1.57,1.27-2.98,1.75-3.99C94.7,284.15,95.02,283.54,95.07,283.56z"/>
					</g>
				</g>
			</g>
			<g>
				<g>
					<path class="st4" d="M78.97,213.05c0,0-9.04-4.72-9.22-12.61c-0.01-0.28,0.3-0.45,0.53-0.29
						C71.62,201.07,75.35,204.27,78.97,213.05z"/>
				</g>
				<g>
					<g>
						<path class="st5" d="M71.63,203.15c0.04-0.03,0.47,0.52,1.13,1.41c0.73,1.02,1.6,2.21,2.55,3.52c0.96,1.31,1.82,2.5,2.56,3.52
							c0.66,0.89,1.07,1.45,1.03,1.48c-0.04,0.03-0.52-0.46-1.24-1.32c-0.72-0.86-1.66-2.08-2.66-3.46
							c-0.99-1.38-1.86-2.66-2.46-3.59C71.93,203.78,71.58,203.18,71.63,203.15z"/>
					</g>
				</g>
			</g>
			<g>
				<g>
					<path class="st4" d="M88.68,233.96c0,0-9.31-4.16-9.97-12.03c-0.02-0.28,0.27-0.47,0.51-0.32
						C80.62,222.45,84.53,225.42,88.68,233.96z"/>
				</g>
				<g>
					<g>
						<path class="st5" d="M80.75,224.52c0.04-0.03,0.5,0.49,1.21,1.34c0.79,0.97,1.73,2.11,2.76,3.36
							c1.03,1.25,1.97,2.39,2.77,3.35c0.71,0.85,1.16,1.38,1.12,1.42c-0.04,0.03-0.55-0.43-1.32-1.24
							c-0.77-0.81-1.78-1.97-2.86-3.29c-1.08-1.32-2.02-2.54-2.68-3.44C81.09,225.13,80.71,224.55,80.75,224.52z"/>
					</g>
				</g>
			</g>
			<g>
				<g>
					<path class="st4" d="M83.32,257.28c0,0-6.39-7.95-3.39-15.25c0.11-0.26,0.45-0.29,0.6-0.06
						C81.39,243.36,83.51,247.79,83.32,257.28z"/>
				</g>
				<g>
					<g>
						<path class="st5" d="M80.56,245.26c0.05-0.01,0.22,0.66,0.47,1.75c0.27,1.22,0.58,2.66,0.92,4.25
							c0.35,1.59,0.67,3.02,0.94,4.25c0.25,1.08,0.4,1.76,0.35,1.77c-0.05,0.01-0.3-0.63-0.61-1.7c-0.31-1.07-0.69-2.57-1.05-4.23
							c-0.36-1.66-0.64-3.18-0.82-4.28C80.58,245.96,80.51,245.27,80.56,245.26z"/>
					</g>
				</g>
			</g>
			<g>
				<g>
					<path class="st4" d="M89.65,284.72c0,0-9.24-4.32-9.76-12.2c-0.02-0.28,0.28-0.46,0.51-0.31
						C81.79,273.08,85.65,276.11,89.65,284.72z"/>
				</g>
				<g>
					<g>
						<path class="st5" d="M81.88,275.15c0.04-0.03,0.49,0.5,1.19,1.36c0.78,0.98,1.69,2.14,2.7,3.41c1.01,1.27,1.93,2.42,2.71,3.4
							c0.7,0.86,1.14,1.4,1.09,1.44c-0.04,0.03-0.54-0.44-1.3-1.26c-0.75-0.82-1.75-2-2.8-3.34c-1.05-1.34-1.97-2.57-2.62-3.48
							C82.21,275.77,81.84,275.18,81.88,275.15z"/>
					</g>
				</g>
			</g>
			<g>
				<g>
					<g>
						<path class="st5" d="M108.06,244.62c0.01,0,0.01,0.08,0.01,0.22c0,0.18-0.01,0.39-0.02,0.65c-0.03,0.61-0.06,1.44-0.11,2.47
							c-0.12,2.17-0.29,5.21-0.48,8.83l0,0.01l0,0.01c-0.66,3.69-2.54,7.78-5.06,11.75c-1.85,2.93-3.79,5.59-5.47,8.06
							c-1.69,2.47-3.11,4.75-4.1,6.78c-1,2.02-1.58,3.76-1.92,4.97c-0.16,0.61-0.28,1.08-0.35,1.41c-0.08,0.32-0.12,0.49-0.14,0.49
							c-0.01,0,0.01-0.18,0.06-0.51c0.05-0.33,0.15-0.81,0.29-1.43c0.3-1.23,0.84-3,1.82-5.05c0.97-2.06,2.38-4.37,4.05-6.86
							c1.66-2.49,3.59-5.16,5.44-8.07c2.51-3.95,4.38-7.98,5.07-11.61l0,0.02c0.25-3.62,0.47-6.65,0.62-8.82
							c0.08-1.03,0.15-1.86,0.2-2.47c0.03-0.26,0.05-0.47,0.07-0.65C108.04,244.69,108.05,244.62,108.06,244.62z"/>
					</g>
				</g>
				<g>
					<g>
						<path class="st10" d="M102.56,267.82c0,0,3.91-9.42-1.01-15.59c-0.17-0.22-0.52-0.15-0.59,0.11
							C100.52,253.91,99.71,258.76,102.56,267.82z"/>
					</g>
					<g>
						<g>
							<path class="st5" d="M101.84,255.51c0.05-0.01,0.17,0.68,0.31,1.78c0.14,1.11,0.29,2.64,0.41,4.34
								c0.12,1.7,0.18,3.24,0.18,4.36c0,1.12-0.06,1.81-0.11,1.81c-0.06,0-0.09-0.69-0.16-1.8c-0.08-1.25-0.18-2.72-0.29-4.34
								c-0.11-1.62-0.22-3.09-0.3-4.34C101.82,256.2,101.79,255.52,101.84,255.51z"/>
						</g>
					</g>
				</g>
				<g>
					<g>
						<path class="st10" d="M90.44,290.51c0,0,3.14-9.71-2.27-15.46c-0.19-0.2-0.53-0.11-0.58,0.16
							C87.28,276.82,86.87,281.72,90.44,290.51z"/>
					</g>
					<g>
						<g>
							<path class="st5" d="M88.73,278.31c0.05-0.01,0.23,0.66,0.45,1.75c0.23,1.09,0.51,2.61,0.77,4.29
								c0.26,1.68,0.44,3.21,0.53,4.33c0.09,1.11,0.09,1.81,0.04,1.81c-0.06,0-0.15-0.68-0.31-1.78c-0.18-1.24-0.4-2.69-0.64-4.3
								c-0.24-1.61-0.47-3.06-0.65-4.3C88.76,279,88.68,278.32,88.73,278.31z"/>
						</g>
					</g>
				</g>
				<g>
					<g>
						<path class="st10" d="M107.54,256.3c0,0,8.36-5.85,7.51-13.7c-0.03-0.28-0.35-0.41-0.56-0.22
							C113.28,243.48,110,247.13,107.54,256.3z"/>
					</g>
					<g>
						<g>
							<path class="st5" d="M113.54,245.54c0.05,0.02-0.22,0.66-0.69,1.67c-0.48,1.01-1.17,2.38-1.98,3.88
								c-0.81,1.5-1.59,2.83-2.19,3.77c-0.6,0.94-1.02,1.49-1.06,1.47c-0.05-0.03,0.29-0.63,0.83-1.6c0.6-1.1,1.3-2.39,2.08-3.82
								c0.77-1.43,1.48-2.72,2.07-3.82C113.14,246.11,113.49,245.51,113.54,245.54z"/>
						</g>
					</g>
				</g>
				<g>
					<g>
						<path class="st10" d="M93.81,280.89c0,0,10.08-1.57,12.78-8.99c0.09-0.26-0.14-0.52-0.41-0.45
							C104.61,271.91,100.05,273.74,93.81,280.89z"/>
					</g>
					<g>
						<g>
							<path class="st5" d="M103.94,273.87c0.03,0.04-0.49,0.5-1.36,1.19c-0.87,0.7-2.1,1.63-3.48,2.62
								c-1.38,0.99-2.67,1.84-3.62,2.42c-0.95,0.58-1.57,0.89-1.6,0.85c-0.03-0.05,0.54-0.44,1.45-1.07
								c1.02-0.72,2.22-1.57,3.55-2.51c1.32-0.94,2.52-1.79,3.54-2.52C103.33,274.21,103.9,273.83,103.94,273.87z"/>
						</g>
					</g>
				</g>
			</g>
		</g>
		<g>
			<polygon class="st10" points="84.19,299.44 81.25,319.23 99.57,319.23 97.2,299.44 			"/>
		</g>
		<g>
			<g>
				<path class="st3" d="M97.93,305.57c0,0.11-3.31,0.19-7.39,0.19c-4.08,0-7.39-0.09-7.39-0.19c0-0.11,3.31-0.19,7.39-0.19
					C94.62,305.38,97.93,305.47,97.93,305.57z"/>
			</g>
		</g>
		<g>
			<g>
				<path class="st3" d="M98.29,307.15c0,0.11-3.42,0.19-7.63,0.19c-4.21,0-7.63-0.09-7.63-0.19c0-0.11,3.42-0.19,7.63-0.19
					C94.88,306.95,98.29,307.04,98.29,307.15z"/>
			</g>
		</g>
	</g>
	<path class="st3" d="M125.26,56.78C124.85,36,108.33,19.97,87.63,20.3l0.33,20.85c9.77-0.16,17.25,5.93,17.64,15.63H125.26z"/>
</g>
</svg>
