<?xml version="1.0" encoding="utf-8"?>
<!-- Generator: Adobe Illustrator 23.0.5, SVG Export Plug-In . SVG Version: 6.00 Build 0)  -->
<svg version="1.0" id="Layer_1" xmlns="http://www.w3.org/2000/svg" xmlns:xlink="http://www.w3.org/1999/xlink" x="0px" y="0px"
	 viewBox="0 0 624 320" style="enable-background:new 0 0 624 320;" xml:space="preserve">
<style type="text/css">
	.st0{opacity:0.3;fill:#35B24A;}
	.st1{opacity:0.5;fill:#999999;}
	.st2{fill:#9FE2CA;}
	.st3{fill:#FFFFFF;}
	.st4{fill:#BDCDFF;}
	.st5{fill:#006641;}
	.st6{fill:#00A26D;}
	.st7{fill:#95A6DB;}
	.st8{fill:#8197DB;}
	.st9{fill:#DE623C;}
	.st10{fill:#F37A50;}
	.st11{fill:#201D40;}
	.st12{fill:#494C7F;}
	.st13{fill:#768FDB;}
	.st14{fill:#E62552;}
	.st15{fill:#2C2858;}
	.st16{fill:#F5A3B7;}
	.st17{fill:#C4204A;}
	.st18{fill:#0E6A41;}
	.st19{fill:#181630;}
	.st20{fill:#3F964F;}
	.st21{fill:#F7A491;}
	.st22{fill:#FFBF9D;}
	.st23{fill:#1A2E35;}
	.st24{fill:#7F99EB;}
	.st25{fill:#CDD8FA;}
	.st26{fill:#E3EAFF;}
</style>
<rect y="0" class="st0" width="624" height="320"/>
<g>
	<ellipse class="st1" cx="326.52" cy="287.4" rx="282.48" ry="17.05"/>
	<g>
		<path class="st2" d="M431.96,264.88c8.15,2.93,16.92,1.01,26.31-5.75C446.91,256.92,438.14,258.83,431.96,264.88z"/>
		<path class="st2" d="M444.44,254.13c7.48,2.52,15.44,1.14,23.87-5.19C457.91,247.12,449.95,248.51,444.44,254.13z"/>
		<path class="st2" d="M456.26,243.88c7.48,0.5,14.33-3.18,20.54-11.05C466.8,233.68,459.95,237.36,456.26,243.88z"/>
		<path class="st2" d="M481.91,218.22c-8.06,2.64-12.99,7-14.78,13.09C473.41,230.25,478.33,225.89,481.91,218.22z"/>
		<path class="st2" d="M481.53,206.7c-6.25,3.37-9.66,7.69-10.23,12.96C476.3,217.88,479.72,213.56,481.53,206.7z"/>
		<path class="st2" d="M469.22,214.51c4.03-3.45,5.67-8.71,4.92-15.77C469.51,204.13,467.87,209.39,469.22,214.51z"/>
		<path class="st2" d="M436.21,238.27c-6.31,9.83-7.76,18.77-4.36,26.82C437.6,258.55,439.06,249.61,436.21,238.27z"/>
		<path class="st2" d="M451.17,246.22c2.61-6.65,1.23-13.93-4.13-21.85C444.94,233.68,446.32,240.97,451.17,246.22z"/>
		<path class="st2" d="M455.17,216.27c-1.83,8.11-0.63,14.45,3.6,19.02C461.04,229.51,459.85,223.17,455.17,216.27z"/>
		<path class="st2" d="M464.14,224.35c2.26-5.78,1.07-12.12-3.6-19.02C458.72,213.45,459.92,219.79,464.14,224.35z"/>
		<path class="st2" d="M417.3,275.26c17.62-10.9,15.9-10.89,25.45-19.21c2.58-2.25,4.98-4.52,7.2-6.83
			c4.48-4.78,8.43-10.04,11.78-15.67c4.06-6.52,6.4-11.79,7.03-15.79l0.27-0.45c0.12-0.1,0.16-0.27,0.08-0.41
			c0.02-0.15-0.03-0.31-0.13-0.42c-0.14-0.08-0.29-0.13-0.45-0.15c-0.15-0.02-0.31,0.03-0.42,0.13l-0.25,0.22
			c-0.08,0.14-0.13,0.3-0.15,0.46l-0.07,0.02l-0.02,0.35c-0.69,3.9-3,9.01-6.91,15.34c-3.35,5.55-7.3,10.72-11.78,15.42
			c-2.23,2.38-4.57,4.65-7.03,6.78l-0.64,0.55c4.27-6.6,4.37-14.77,0.32-24.5c-4.32,9.61-4.42,17.77-0.32,24.5
			c-9.43,8.12-7.44,7.87-24.62,18.49L417.3,275.26z"/>
	</g>
	<g>
		<path class="st2" d="M232.22,272.35c7.45,2.68,15.48,0.93,24.07-5.26C245.89,265.07,237.86,266.82,232.22,272.35z"/>
		<path class="st2" d="M243.6,262.11c7.09,1.39,14.07-1.3,20.95-8.06C254.9,253.66,247.92,256.35,243.6,262.11z"/>
		<path class="st2" d="M254.65,251.3c6.85,0.31,13.04-3.19,18.57-10.5C264.09,241.76,257.9,245.26,254.65,251.3z"/>
		<path class="st2" d="M277.25,227.63c-7.38,2.41-11.88,6.4-13.52,11.97C269.47,238.64,273.98,234.65,277.25,227.63z"/>
		<path class="st2" d="M276.9,217.09c-5.72,3.08-8.84,7.03-9.36,11.85C272.12,227.32,275.24,223.36,276.9,217.09z"/>
		<path class="st2" d="M265.64,224.23c3.69-3.16,5.19-7.97,4.5-14.42C265.9,214.74,264.4,219.55,265.64,224.23z"/>
		<path class="st2" d="M234.02,246.22c-5.77,8.99-7.1,17.17-3.99,24.53C235.29,264.77,236.62,256.59,234.02,246.22z"/>
		<path class="st2" d="M249.48,251.94c2.39-6.08,1.13-12.74-3.78-19.99C243.79,240.48,245.05,247.14,249.48,251.94z"/>
		<path class="st2" d="M252.79,225.85c-1.67,7.42-0.58,13.22,3.29,17.39C258.16,237.95,257.06,232.15,252.79,225.85z"/>
		<path class="st2" d="M261,233.24c2.07-5.29,0.97-11.09-3.29-17.39C256.04,223.27,257.13,229.07,261,233.24z"/>
		<path class="st2" d="M218.15,279.8c16.11-9.97,14.54-9.96,23.28-17.57c2.36-2.06,4.56-4.14,6.59-6.25
			c4.1-4.37,7.71-9.18,10.78-14.33c3.71-5.97,5.86-10.78,6.43-14.44l0.24-0.41c0.11-0.09,0.14-0.25,0.08-0.37
			c0.01-0.14-0.03-0.28-0.12-0.39c-0.13-0.08-0.27-0.12-0.42-0.13c-0.14-0.01-0.28,0.03-0.39,0.12l-0.23,0.2
			c-0.07,0.13-0.12,0.27-0.14,0.42l-0.06,0.02l-0.02,0.32c-0.64,3.56-2.74,8.24-6.32,14.03c-3.07,5.08-6.68,9.81-10.77,14.1
			c-2.04,2.18-4.18,4.25-6.43,6.21l-0.59,0.51c3.9-6.04,4-13.51,0.29-22.41c-3.95,8.79-4.04,16.26-0.29,22.41
			c-8.63,7.43-6.8,7.2-22.52,16.91L218.15,279.8z"/>
	</g>
	<g>
		<path class="st2" d="M45.06,190.79c0,0-3.83,6.73,1.96,18.86c5.91,12.36,4.68,20.92,4.68,20.92l5.48,4.77c0,0,1.21-13.02-4-22.73
			C46.63,200.47,45.06,190.79,45.06,190.79z"/>
		<path class="st2" d="M28.63,194.38c0,0-1.07,5.6,5.55,13.5c6.76,8.04,7.83,14.55,7.83,14.55l4.57,3.74c0,0-1.88-10.96-7.58-17.18
			C31.87,201.2,28.63,194.38,28.63,194.38z"/>
		<path class="st2" d="M56.92,203.79c0,0,4.99,3.55,8.04,17.73c2.49,11.56-0.21,17.57,1.36,24.65l-7.04-7.76
			c-0.38-5.02,2.88-8.29,1.13-18.88C58.78,209.63,56.92,203.79,56.92,203.79z"/>
		<path class="st2" d="M101.58,247.01c0,0,2.17,5.75-3.21,19.21c-4.38,10.98-10.15,12.39-11.28,14.92l-2.42-5.59
			c3.11-4.3,6.58-3.74,11.03-13.51C99.87,252.88,101.58,247.01,101.58,247.01z"/>
		<path class="st2" d="M68.56,212.75c0,0,3.36,10.03,4.08,16.4c1.05,9.07-2.57,13.88-2.17,23.22l7.16,10.08
			c0,0,2.28-13.72,0.54-24.85C75.25,218.92,68.56,212.75,68.56,212.75z"/>
		<path class="st2" d="M85.83,217.59c-1.05,5.84-1.24,11.8-0.57,17.69c2.17,17.84-7.36,31.26-7.36,31.26l3.69,3.6
			c0,0,11.6-9.31,9.36-24.24C88.56,230.12,85.83,217.59,85.83,217.59z"/>
		<path class="st2" d="M59.66,239.69c0,0-4.2-1.52-21.7,0.58c-11.21,1.35-7.91-2.87-18.51,0.26c8.04,0.77,10.74,6.66,21.25,6.01
			c8.4-0.53,16.83-0.4,25.21,0.39L59.66,239.69z"/>
		<path class="st2" d="M25.67,250.82c0,0,6.81,8.69,22.32,7.69c9.55-0.59,19.14,0.39,28.37,2.91l-4.63-7.85
			c0,0-6.39-4.71-22.43-2.12C38.29,253.23,25.67,250.82,25.67,250.82z"/>
		<path class="st2" d="M34.81,265.63c0,0,6.81,8.69,22.32,7.69c9.55-0.59,19.14,0.39,28.37,2.91l-4.63-7.85
			c0,0-6.39-4.71-22.43-2.12C47.43,268.03,34.81,265.63,34.81,265.63z"/>
		<path class="st2" d="M14.91,222.35c0,0,4.92,4.52,14.7,3.52c9.92-1.02,17.19,1.16,17.19,1.16l-2.77-2.94c0,0-4.04-2.98-14.18-1.34
			C22.89,223.87,14.91,222.35,14.91,222.35z"/>
		<path class="st2" d="M50.98,231.84c0,0-7.63-0.83-18.86,0.08c-7.09,0.55-16.47-3.78-16.47-3.78s7.19,10.19,17.79,8.71
			c12.15-1.71,24.14,0.01,24.14,0.01L50.98,231.84z"/>
		<path class="st2" d="M44.77,225.27c0,0-6.27-9.99-16.91-12.04c-6.29-1.27-12.33-3.57-17.86-6.83c0,0,5.82,10.31,15.78,11.14
			c9.2,0.79,15.54,6.9,15.54,6.9L44.77,225.27z"/>
		<path class="st2" d="M86.23,281.32l1.6-0.66c-4.05-9.89-22.39-42.06-45.63-58.19l-0.99,1.42
			C64.13,239.81,82.23,271.55,86.23,281.32z"/>
	</g>
	<g>
		<path class="st2" d="M363.09,201.93c0,0-2.94,5.17,1.51,14.5c4.54,9.5,3.6,16.09,3.6,16.09l4.21,3.67c0,0,0.93-10.02-3.08-17.48
			C364.3,209.37,363.09,201.93,363.09,201.93z"/>
		<path class="st2" d="M350.46,204.69c0,0-0.83,4.31,4.26,10.38c5.2,6.18,6.02,11.19,6.02,11.19l3.51,2.87c0,0-1.44-8.43-5.83-13.21
			C352.94,209.93,350.46,204.69,350.46,204.69z"/>
		<path class="st2" d="M372.21,211.92c0,0,3.84,2.73,6.18,13.64c1.91,8.89-0.16,13.51,1.04,18.96l-5.41-5.96
			c-0.29-3.86,2.21-6.37,0.87-14.52C373.64,216.41,372.21,211.92,372.21,211.92z"/>
		<path class="st2" d="M406.56,245.16c0,0,1.67,4.42-2.47,14.77c-3.37,8.45-7.8,9.53-8.68,11.48l-1.86-4.3
			c2.39-3.31,5.06-2.88,8.48-10.39C405.24,249.67,406.56,245.16,406.56,245.16z"/>
		<path class="st2" d="M381.16,218.81c0,0,2.58,7.71,3.14,12.62c0.81,6.97-1.98,10.67-1.67,17.85l3.8,4.7c0,0,3.46-7.5,2.12-16.06
			C386.31,223.55,381.16,218.81,381.16,218.81z"/>
		<path class="st2" d="M395.16,222.79c-0.81,4.49-0.96,9.07-0.44,13.6c1.67,13.72-5.66,24.04-5.66,24.04l2.84,2.76
			c0,0,8.92-7.16,7.2-18.64C397.26,232.43,395.16,222.79,395.16,222.79z"/>
		<path class="st2" d="M374.31,239.53c0,0-3.23-1.17-16.68,0.45c-8.62,1.04-6.08-2.21-14.23,0.2c6.18,0.59,8.26,5.12,16.34,4.62
			c6.46-0.41,12.94-0.3,19.38,0.3L374.31,239.53z"/>
		<path class="st2" d="M348.18,248.09c0,0,5.23,6.68,17.17,5.91c7.35-0.46,14.72,0.3,21.81,2.24l-3.56-6.03
			c0,0-4.92-3.62-17.25-1.63C357.88,249.94,348.18,248.09,348.18,248.09z"/>
		<path class="st2" d="M355.21,259.47c0,0,5.23,6.68,17.17,5.91c7.35-0.46,14.71,0.3,21.81,2.24l-3.56-6.03
			c0,0-4.92-3.62-17.25-1.63C364.91,261.33,355.21,259.47,355.21,259.47z"/>
		<path class="st2" d="M339.9,226.19c0,0,3.78,3.47,11.31,2.7c7.63-0.78,13.22,0.9,13.22,0.9l-2.13-2.26c0,0-3.11-2.29-10.9-1.03
			C346.04,227.36,339.9,226.19,339.9,226.19z"/>
		<path class="st2" d="M367.64,233.49c0,0-5.87-0.64-14.5,0.06c-5.45,0.42-12.67-2.9-12.67-2.9s5.53,7.84,13.68,6.69
			c9.35-1.32,18.56,0.01,18.56,0.01L367.64,233.49z"/>
		<path class="st2" d="M362.86,228.44c0,0-4.82-7.68-13-9.26c-4.84-0.97-9.48-2.75-13.73-5.25c0,0,4.47,7.93,12.14,8.56
			c7.07,0.61,11.95,5.31,11.95,5.31L362.86,228.44z"/>
		<path class="st2" d="M394.75,271.54l1.23-0.5c-3.11-7.61-17.21-32.34-35.09-44.75l-0.76,1.1
			C377.76,239.62,391.67,264.03,394.75,271.54z"/>
	</g>
	<g>
		<path class="st2" d="M519.97,221.01c0,0,1.5,5.7-5.14,13.49c-6.77,7.94-7.54,14.48-7.54,14.48l-4.97,2.44c0,0,1.66-9.82,7.4-15.94
			C516.92,227.82,519.97,221.01,519.97,221.01z"/>
		<path class="st2" d="M531.36,226.86c0,0-0.31,4.33-6.72,8.85c-6.55,4.59-8.61,9.17-8.61,9.17l-4.09,1.86c0,0,3.53-7.7,8.94-11.16
			C527.64,231.25,531.36,226.86,531.36,226.86z"/>
		<path class="st2" d="M508.7,228.25c0,0-4.37,1.63-9.39,11.48c-4.09,8.02-3.28,12.97-5.82,17.88l6.7-4.33
			c1.26-3.62-0.49-6.66,2.86-14.11C506.19,232.18,508.7,228.25,508.7,228.25z"/>
		<path class="st2" d="M467.37,251.32c0,0-2.72,3.81-1.4,14.76c1.07,8.94,5.04,11.11,5.38,13.19l2.88-3.64
			c-1.45-3.77-4.11-4.04-5.48-12.1C467.48,255.97,467.37,251.32,467.37,251.32z"/>
		<path class="st2" d="M498.38,232.57c0,0-4.43,6.72-6.22,11.27c-2.55,6.47-0.82,10.72-2.95,17.51l-4.83,3.53
			c0,0-1.41-8.06,2.06-15.91C492.25,235.8,498.38,232.57,498.38,232.57z"/>
		<path class="st2" d="M484.72,232.75c-0.37,4.5-1.39,8.93-3.04,13.13c-5.09,12.71-0.7,24.45-0.7,24.45l-3.42,1.92
			c0,0-6.72-9.12-2.14-19.67C480.26,241.44,484.72,232.75,484.72,232.75z"/>
		<path class="st2" d="M499.66,254.13c0,0,3.39-0.3,15.85,4.68c7.99,3.19,6.38-0.56,13.57,3.81c-6.07-1.01-9.21,2.8-16.81,0.26
			c-6.08-2.03-12.31-3.58-18.63-4.64L499.66,254.13z"/>
		<path class="st2" d="M522.49,268.98c0,0-6.71,5.06-17.93,1.29c-6.91-2.31-14.16-3.46-21.45-3.41l4.94-4.87
			c0,0,5.63-2.21,16.92,2.83C512.73,268.28,522.49,268.98,522.49,268.98z"/>
		<path class="st2" d="M512.87,278.09c0,0-6.71,5.06-17.93,1.29c-6.91-2.31-14.16-3.46-21.45-3.41l4.94-4.87
			c0,0,5.63-2.21,16.92,2.83C503.11,277.39,512.87,278.09,512.87,278.09z"/>
		<path class="st2" d="M535.99,250.13c0,0-4.5,2.36-11.51-0.29c-7.1-2.69-12.88-2.51-12.88-2.51l2.61-1.62c0,0,3.56-1.4,10.7,1.79
			C529.82,249.69,535.99,250.13,535.99,250.13z"/>
		<path class="st2" d="M507.58,250.06c0,0,5.78,0.89,13.86,3.75c5.11,1.79,12.86,0.45,12.86,0.45s-7.29,6.09-14.8,2.92
			c-8.61-3.64-17.76-4.72-17.76-4.72L507.58,250.06z"/>
		<path class="st2" d="M513.44,246.44c0,0,6.57-6.13,14.8-5.55c4.88,0.3,9.77-0.22,14.48-1.53c0,0-6.3,6.45-13.79,5.11
			c-6.92-1.22-12.79,2.04-12.79,2.04L513.44,246.44z"/>
		<path class="st2" d="M471.95,279.57l-1.05-0.8c4.92-6.49,24.71-26.57,44.97-33.9l0.45,1.24
			C496.34,253.34,476.81,273.17,471.95,279.57z"/>
	</g>
	<g>
		<g>
			<path class="st3" d="M261.92,75.38c-0.91-1.6-2.02-3.24-3.3-4.86c-0.49-0.62-0.38-1.51,0.23-2c0.62-0.49,1.51-0.38,2,0.23
				c1.37,1.74,2.57,3.5,3.54,5.23c0.39,0.68,0.15,1.55-0.54,1.94c-0.16,0.09-0.33,0.15-0.5,0.17
				C262.8,76.17,262.22,75.91,261.92,75.38z M254.67,66.11c-1.42-1.39-2.92-2.7-4.47-3.88c-0.63-0.48-0.75-1.37-0.27-1.99
				c0.48-0.63,1.37-0.75,1.99-0.27c1.64,1.25,3.24,2.63,4.74,4.11c0.56,0.55,0.57,1.45,0.02,2.01c-0.23,0.23-0.52,0.37-0.82,0.41
				C255.44,66.57,254.99,66.44,254.67,66.11z M182.65,70.62c-0.78,0.05-1.46-0.55-1.51-1.33c-0.05-0.78,0.55-1.46,1.33-1.51
				c1.85-0.12,3.84-0.37,5.88-0.74c0.77-0.14,1.51,0.37,1.66,1.14c0.14,0.77-0.37,1.51-1.14,1.66c-0.8,0.15-1.59,0.27-2.37,0.38
				C185.19,70.4,183.89,70.54,182.65,70.62z M193.18,67.44c-0.21-0.76,0.24-1.54,1-1.75c1.86-0.51,3.78-1.11,5.73-1.79
				c0.74-0.26,1.55,0.13,1.81,0.87c0.26,0.74-0.13,1.55-0.87,1.81c-2.01,0.7-4,1.32-5.92,1.85c-0.06,0.02-0.12,0.03-0.18,0.04
				C194.05,68.58,193.37,68.14,193.18,67.44z M176.32,70.52c-2.27-0.24-4.39-0.72-6.28-1.42c-0.74-0.27-1.11-1.09-0.84-1.83
				c0.27-0.74,1.09-1.11,1.83-0.84c1.67,0.62,3.55,1.05,5.58,1.26c0.78,0.08,1.35,0.78,1.27,1.56c-0.07,0.66-0.58,1.17-1.22,1.26
				C176.56,70.53,176.44,70.53,176.32,70.52z M245.27,58.99c-1.76-0.99-3.55-1.81-5.32-2.44c-0.74-0.26-1.13-1.08-0.86-1.82
				c0.26-0.74,1.08-1.13,1.82-0.86c1.92,0.68,3.86,1.57,5.76,2.64c0.69,0.38,0.93,1.25,0.55,1.94c-0.23,0.4-0.62,0.65-1.04,0.71
				C245.87,59.2,245.56,59.15,245.27,58.99z M204.76,63.61c-0.3-0.73,0.04-1.56,0.77-1.86c1.83-0.76,3.68-1.58,5.5-2.45
				c0.71-0.34,1.56-0.04,1.9,0.67c0.34,0.71,0.04,1.56-0.67,1.9c-1.87,0.89-3.77,1.74-5.64,2.51c-0.11,0.05-0.23,0.08-0.35,0.1
				C205.65,64.57,205.02,64.23,204.76,63.61z M215.83,58.5c-0.37-0.69-0.12-1.55,0.58-1.93c0.66-0.36,1.31-0.72,1.95-1.08
				c1.19-0.67,2.42-1.26,3.66-1.73c0.73-0.28,1.56,0.09,1.84,0.82c0.28,0.73-0.09,1.56-0.82,1.84c-1.11,0.42-2.21,0.94-3.28,1.55
				c-0.65,0.37-1.32,0.74-2,1.1c-0.15,0.08-0.31,0.13-0.48,0.16C216.71,59.31,216.12,59.04,215.83,58.5z M164.37,65.82
				c-1.48-1.25-2.76-2.75-3.8-4.46c-0.41-0.67-0.2-1.55,0.47-1.96c0.67-0.41,1.55-0.2,1.96,0.47c0.88,1.45,1.96,2.71,3.21,3.76
				c0.6,0.51,0.68,1.4,0.17,2.01c-0.23,0.28-0.55,0.44-0.89,0.49C165.1,66.2,164.69,66.09,164.37,65.82z M234.33,55.16
				c-1.94-0.26-3.87-0.29-5.73-0.09c-0.78,0.09-1.48-0.48-1.57-1.26c-0.09-0.78,0.48-1.48,1.26-1.57c2.1-0.23,4.26-0.2,6.43,0.1
				c0.78,0.11,1.32,0.82,1.22,1.6c-0.09,0.65-0.6,1.13-1.21,1.22C234.59,55.18,234.46,55.18,234.33,55.16z"/>
		</g>
		<g>
			<polygon class="st4" points="264.98,70.51 262.27,76.74 295.28,93.18 			"/>
			<polygon class="st4" points="260.1,84.06 262.83,90.39 293.81,92.42 			"/>
			<polygon class="st3" points="295.28,93.18 241.99,82.83 258.75,74.22 			"/>
			<polygon class="st3" points="264.98,70.51 295.28,93.18 275.4,64.32 			"/>
		</g>
	</g>
	<g>
		<g>
			<g>
				<path class="st5" d="M190.93,282.92l-100.19,0.06c-9.33,0.01-17.82-7.55-18.97-16.88l-27.6-223.6
					c-1.15-9.33,5.48-16.89,14.8-16.9l100.19-0.06c9.33-0.01,17.82,7.55,18.97,16.88l27.6,223.6
					C206.88,275.35,200.25,282.91,190.93,282.92z"/>
				<path class="st6" d="M200.23,282.92l-100.19,0.06c-9.33,0.01-17.82-7.55-18.97-16.88l-27.6-223.6
					c-1.15-9.33,5.48-16.89,14.8-16.9l100.19-0.06c9.33-0.01,17.82,7.55,18.97,16.88l27.6,223.6
					C216.18,275.35,209.56,282.91,200.23,282.92z"/>
				<path class="st3" d="M195.27,275.8l-92.04,0.06c-7.27,0-13.9-5.89-14.8-13.16L61.88,47.45c-0.9-7.27,4.27-13.18,11.55-13.18
					l92.04-0.06c7.27,0,13.9,5.89,14.8,13.16l26.56,215.24C207.72,269.89,202.55,275.79,195.27,275.8z"/>
				<g>
					<path class="st7" d="M191.37,266.14l-86.65,0.06c-5.62,0-10.73-4.55-11.43-10.17l-2.26-18.29l-0.97-7.9l-1.88-15.22
						L73.72,97.31l-5.51-44.67c-0.69-5.62,3.3-10.18,8.92-10.18l13.18-0.01l0.25,2.06c0.47,3.78,3.91,6.84,7.7,6.84l49.05-0.05
						c3.78,0,6.47-3.07,6-6.86l-0.25-2.03l10.72-0.01c5.62,0,10.73,4.55,11.43,10.17l1.51,12.26l23.57,191.13
						C200.98,261.58,196.99,266.14,191.37,266.14z"/>
				</g>
				<path class="st8" d="M141.8,47.33h-41.38c-1.33,0-2.55-1.08-2.71-2.41l0,0c-0.16-1.33,0.78-2.41,2.12-2.41h41.38
					c1.33,0,2.55,1.08,2.71,2.41l0,0C144.08,46.25,143.14,47.33,141.8,47.33z"/>
				<path class="st8" d="M191.37,266.14l-86.65,0.06c-5.62,0-10.73-4.55-11.43-10.17l-2.26-18.29l109.25,18.22
					C200.98,261.58,196.99,266.14,191.37,266.14z"/>
				<path class="st8" d="M176.72,64.83l-103,32.48l-5.51-44.67c-0.69-5.62,3.3-10.18,8.92-10.18l13.18-0.01l0.25,2.06
					c0.47,3.78,3.91,6.84,7.7,6.84l49.05-0.05c3.78,0,6.47-3.07,6-6.86l-0.25-2.03l10.72-0.01c5.62,0,10.73,4.55,11.43,10.17
					L176.72,64.83z"/>
			</g>
		</g>
		<g>
			<g>
				<polygon class="st9" points="374.24,187.4 371.08,186.46 373.59,180.25 377.73,181.03 				"/>
				<path class="st10" d="M378.08,186.89c0.21-3.39,4.24-5.35,4.42-4.13c0.22,1.44-0.36,3.58-0.36,3.58
					c0.94,0.46,5.26-1.17,3.34-6.63l1.48-2.35l-3.19-2.56l-2.11,1.27c-6.63,1.65-7.59,3.77-7.83,9.02
					C373.6,190.26,377.89,190.08,378.08,186.89z"/>
				<path id="c_1_" class="st9" d="M382.04,183.11c-0.11,0.04-0.22,0.06-0.33,0.07c0.01,0.02,0.02,0.03,0.02,0.05
					c0.42,1.07,0.15,2.18-0.62,2.48c-0.13,0.05-0.26,0.07-0.39,0.07c0.03,0.73-0.27,1.36-0.81,1.58c-0.22,0.09-0.45,0.1-0.68,0.04
					c0.08,0.73-0.25,1.41-0.86,1.65c-0.77,0.3-1.68-0.19-2.04-1.1c-0.36-0.91-0.03-1.89,0.73-2.2c0.19-0.08,0.4-0.1,0.6-0.08
					c-0.26-0.97,0.03-1.9,0.72-2.17c0.13-0.05,0.26-0.07,0.39-0.07c-0.03-0.73,0.27-1.36,0.81-1.58c0.2-0.08,0.42-0.09,0.63-0.06
					c-0.1-0.64,0.18-1.25,0.72-1.47c0.65-0.26,1.42,0.16,1.72,0.93C382.96,182.02,382.69,182.85,382.04,183.11z"/>
				<path class="st9" d="M376.19,178.3c0.16-0.92,1.09-2.81,2.76-2.98c1.67-0.18,3.93,2.92,2.59,2.98
					c-1.34,0.06-2.43-1.09-2.43-1.09L376.19,178.3z"/>
			</g>
			<g>
				<path class="st11" d="M433.55,110.34c-9.74,0.03-19.66,3.94-19.41,22.51c0.24,18.58-1.38,36.34-6.52,39.08
					c4.88,4.71,39.31,14.59,53.06,2.02c-6.12-7.44-9.58-32.68-9.58-39.53C451.1,125.11,448.5,110.3,433.55,110.34z"/>
				<g>
					<path class="st10" d="M441.28,275.2c-0.44-4.42,4.88-37.95,4.88-37.95c6.45-29.59,0.88-50.91,0.88-50.91l-17.67,15.88
						l4.28,29.55c0,0-0.78,2.15-1.19,3.87c-2.23,9.32-0.01,20.46,1.36,27.89c0.64,3.44,1.62,10.67,1.65,12.32l-2.79,3.6
						c0,0,10.09,11.16,11.64,11.23c3.02,0.14,2.13-2.85,2.13-2.85C442.3,283.57,441.41,276.47,441.28,275.2z"/>
					<path class="st11" d="M432.51,283.4l0.55,7.17l1.29,0.06l0.65-6.66c3.43,0.88,5.89,7.1,5.89,7.1
						c2.36,0.85,8.37,1.43,10.51,0.33c0.52-2.1-4.97-3.56-4.97-3.56c-0.5,0.59-3.42,1.04-4.46,0.41c-3.83-3.26-5.69-7.99-6.51-12.4
						C435.47,275.84,429.42,276.26,432.51,283.4z"/>
				</g>
				<g>
					<path class="st10" d="M418.33,193.19c-4.94,12.22-5.55,30.13-5.87,36.45c-11.17,1.93-33.05,18.46-33.05,18.46l-4.06,0.21
						c0,0-1.7,13.31-0.84,14.4c1.66,2.12,3.16-0.22,3.16-0.22c0.47-5.28,3.83-9.11,4.52-10.01c1.03-1.36,34.68-9.66,41.33-12.5
						c6.65-2.84,12.89-45.58,12.89-45.58L418.33,193.19z"/>
					<path class="st11" d="M372.57,250.48l-4.53,4.54l0.71,0.91l4.89-3.43c1.4,2.83-1.39,8.11-1.39,8.11
						c0.8,2.09,3.89,6.49,5.88,7.3c1.72-0.87-0.47-5.43-0.47-5.43c-0.68,0.01-2.69-1.71-2.87-2.78c-0.02-4.48,2.1-8.49,4.61-11.6
						C379.41,248.1,375.61,244.25,372.57,250.48z"/>
				</g>
				<path class="st10" d="M443.16,145.18c0,0,9.69,7.79,17.53,17.88c2.16,3.57,4.28,10.15,4.28,10.15
					c-2.7,0.92-26.31-17.91-26.31-17.91s-3.14-1.54-2-5.55C437.89,145.42,443.16,145.18,443.16,145.18z"/>
				<g>
					<g>
						<g>
							<path class="st9" d="M435.82,139.17l-6.75-1.01l0.54,6.27c0,0,3.42,6.16,6.67,5.1c3.25-1.06,1.66-3.78,1.66-3.78
								L435.82,139.17z"/>
						</g>
					</g>
				</g>
				<g>
					<path class="st10" d="M426.21,132.82c2.68,7.4,6.77,10.84,12.7,9.57c4.89-1.05,8.87-8.98,6.78-16.41
						c-2.08-7.43-8.5-12.12-14.33-10.48C425.52,117.14,423.58,125.57,426.21,132.82z"/>
					<g>
						<path class="st11" d="M432.33,129.87c0.08-0.04,0.15-0.1,0.19-0.18c0.63-1.2,2.18-1.37,2.2-1.37
							c0.22-0.02,0.38-0.21,0.36-0.43c-0.02-0.22-0.36-0.58-0.77-0.5c-0.08,0.02-1.74,0.19-2.57,1.78c-0.1,0.19,0.05,0.58,0.25,0.68
							C432.1,129.91,432.23,129.91,432.33,129.87z"/>
					</g>
					<g>
						<path class="st11" d="M444.41,127.09c0.04-0.02,0.07-0.05,0.1-0.08c0.15-0.16,0.14-0.41-0.02-0.56
							c-1.26-1.15-2.73-0.59-2.79-0.57c-0.2,0.08-0.31,0.31-0.23,0.51c0.08,0.2,0.31,0.3,0.51,0.23c0.05-0.02,1.08-0.39,1.97,0.42
							C444.09,127.15,444.27,127.17,444.41,127.09z"/>
					</g>
					<path class="st9" d="M439.44,131.01c0.57,0.54,1.08,1.11,1.62,1.42c0.18,0.1,0.25,0.34,0.15,0.52
						c-0.4,0.77-1.61,1.44-2.36,1.79c-0.11,0.05-0.21-0.09-0.12-0.17c0.74-0.7,1.05-1.21,1.18-1.49c0.06-0.14,0.06-0.3-0.02-0.43
						c-0.17-0.3-0.51-0.93-0.74-1.44C439.07,131.03,439.3,130.87,439.44,131.01z"/>
					<path class="st3" d="M436.08,137.69c-0.23-0.19-0.12-0.57,0.18-0.6c0.76-0.09,2.02-0.25,3.19-0.53
						c1.17-0.28,2.37-0.68,3.09-0.95c0.28-0.1,0.55,0.18,0.43,0.46c-0.37,0.85-1.22,2.22-3.01,2.64
						C438.16,139.13,436.79,138.29,436.08,137.69z"/>
					<path class="st11" d="M422.05,132.99c6.99-1.21,16.53-9.62,17.2-13.33c-1.53-4.36-6.5-7.16-10.51-4.95
						C424.73,116.91,418.86,127.55,422.05,132.99z"/>
					<path class="st11" d="M436.94,122.55c0,0,4.55,2.12,8.91,2.56c-2.11-4.77-3.65-8.4-6.35-9.29c-2.7-0.89-5.53-0.75-5.53-0.75
						L436.94,122.55z"/>
					<g>
						<path class="st10" d="M428.03,130.11c1.47,1.06,1.97,2.89,1.1,4.1c-0.87,1.21-2.76,1.33-4.23,0.27
							c-1.47-1.06-1.97-2.89-1.1-4.1C424.66,129.17,426.56,129.05,428.03,130.11z"/>
						<g>
							<path class="st9" d="M427.37,133.94c0.05-0.03,0.1-0.07,0.14-0.12c0.52-0.75,0.54-1.58,0.05-2.2
								c-0.5-0.64-1.39-0.91-2.12-0.64c-0.21,0.08-0.31,0.31-0.23,0.51c0.08,0.21,0.31,0.31,0.51,0.23c0.4-0.15,0.93,0.02,1.22,0.38
								c0.27,0.35,0.24,0.8-0.08,1.26c-0.12,0.18-0.08,0.43,0.1,0.55C427.08,134,427.24,134.01,427.37,133.94z"/>
						</g>
					</g>
					<path d="M441.44,128.8c0.08,0.59,0.62,1.01,1.21,0.94c0.59-0.08,1.01-0.62,0.94-1.21c-0.08-0.59-0.62-1.01-1.21-0.94
						C441.79,127.66,441.37,128.2,441.44,128.8z"/>
					<path d="M433.56,131.03c0.08,0.63,0.66,1.08,1.29,1c0.63-0.08,1.08-0.66,1-1.29c-0.08-0.63-0.66-1.08-1.29-1
						C433.93,129.82,433.48,130.4,433.56,131.03z"/>
				</g>
				<g>
					<path class="st10" d="M457.93,143.09c-0.54,8.97,1.28,19.8,0.94,25.45l6.1,4.67c3.23-4.5,1.46-18.04-2.43-27.06
						C460.99,144.14,457.93,143.09,457.93,143.09z"/>
					<g>
						<g>
							<path class="st9" d="M462.12,137.06c0,0,1.58,3.27,2.27,6.27c-0.02,0.07-1.35,1.97-1.85,2.82c-1.88-1.04-3.38-1.57-4.77-2.92
								C458.38,138.26,461.65,137.06,462.12,137.06z"/>
						</g>
						<path class="st12" d="M462.92,148.65L462.92,148.65c-1.43,0.28-2.82-0.66-3.1-2.1l-2.4-12.5l5.19-1l2.4,12.5
							C465.29,146.99,464.35,148.37,462.92,148.65z"/>
						<path id="c_7_" class="st10" d="M465.02,143.51c-0.07-0.09-0.17-0.17-0.26-0.23c0.02-0.01,0.03-0.02,0.05-0.04
							c0.93-0.75,1.25-1.9,0.71-2.57c-0.09-0.11-0.2-0.2-0.32-0.27c0.4-0.65,0.46-1.37,0.07-1.85c-0.15-0.19-0.36-0.32-0.6-0.39
							c0.44-0.62,0.5-1.41,0.07-1.94c-0.54-0.67-1.62-0.69-2.42-0.05c-0.8,0.64-1.01,1.7-0.47,2.37c0.14,0.17,0.31,0.3,0.5,0.38
							c-0.74,0.74-0.95,1.74-0.46,2.35c0.09,0.11,0.2,0.2,0.32,0.27c-0.4,0.65-0.46,1.37-0.07,1.85c0.14,0.18,0.33,0.3,0.55,0.38
							c-0.42,0.53-0.48,1.23-0.1,1.7c0.46,0.57,1.37,0.58,2.04,0.04C465.3,144.98,465.48,144.08,465.02,143.51z"/>
						<path class="st10" d="M457.6,143.27c-0.82-1.29-1.36-5.09,1.46-6.75c3.24-1.91,1.98,0.82,1.23,1.43
							c-2.01,1.64-0.33,2.96-1.1,4.42C458.8,143.13,458.13,144.09,457.6,143.27z"/>
					</g>
					<g>
						<path class="st7" d="M470.64,105.25c0,0-4.02,11.82-12.75,17.14c0.28,0.66,5.89,10.18,5.89,10.18s11.01-2.2,21.64,0.83
							C481.15,126.75,470.64,105.25,470.64,105.25z"/>
						<path class="st12" d="M482.94,116.57c4.02,8.02,5.42,15.45,3.12,16.6c-2.3,1.15-7.41-4.42-11.43-12.44
							c-4.02-8.02-5.42-15.45-3.12-16.6C473.8,102.98,478.92,108.55,482.94,116.57z"/>
						<path class="st12" d="M458.37,122.08c-2.09,0.95-8.69,4.06-6.07,9.91c2.11,4.7,8.54,2.34,11.48,0.57
							C462.57,130.51,458.37,122.08,458.37,122.08z"/>
						<path class="st13" d="M472.51,115.96c0,0,4.46-2.59,7.02,1.3c2.09,3.7-1.96,6.36-3.19,6.64
							C475.03,122.31,472.51,115.96,472.51,115.96z"/>
					</g>
				</g>
				<g>
					<g>
						<g>
							<g>
								<path class="st14" d="M409.75,228.39c1.59-5.33-0.16-36.53,13.89-46.89l24.18,2.55c5.59,9.04,4.31,34.34,5.03,55.95
									C425.59,247.07,429.07,227.08,409.75,228.39z"/>
							</g>
						</g>
					</g>
				</g>
				<g>
					<g>
						<g>
							<path class="st14" d="M448.11,178.08c0-5.3,4.59-13.23,2.39-18.57c-1.6-4.3-4.75-14-8.18-14.66
								c-1.39-0.27-3.13-0.41-4.85-0.53c0,0,1.01,4.49-1.26,4.67c-4.36,0.35-6.65-5.24-6.65-5.24c-2.35-0.22-10.55,2.22-10.55,3.11
								c0.03,6.94,3.08,18.15,4.92,25.65c0.34,3.82,0.07,6.78-0.31,8.94c-0.7,2.25-1.55,3.54-1.56,4.03c0,0,16.16,5.49,26.45-0.17
								C448.52,185.31,448.11,181.66,448.11,178.08z"/>
						</g>
					</g>
				</g>
				<path class="st10" d="M386.58,177.69c7.29-5.52,11.54-12.39,14.9-16.95l-6.64-6.1c-3.91,3.97-7.86,11.87-11.4,20.36
					C383.63,177.54,386.58,177.69,386.58,177.69z"/>
				<path class="st10" d="M425.15,155.75c0,0-15.4,5.38-23.67,5c-4.08-0.87-6.64-6.1-6.64-6.1l25.96-9.26c0,0,3.27-1.23,5.42,2.34
					C428.52,151.59,425.15,155.75,425.15,155.75z"/>
			</g>
			<g>
				<path class="st15" d="M534.47,112.63c-0.49-6.72,1.45-12.66,6.81-15.69c5.43-3.07,12.24-0.06,12.24-0.06l0,0
					c0,0,5.76-2.05,10.98,3.7c5.22,5.75,1.27,10.81,3.41,15.01c1.27,2.48,7.7,3,6.04,11.09c-0.48,2.33-3.29,3.9-5.66,4.06
					c-4.18,0.27-8.07-1.34-9.76,0.27c-5.58,5.32-17.94,3.4-19.67-1.47c-0.54-1.51-11.66,1.41-10.55-8.87
					C528.87,115.47,534.91,118.63,534.47,112.63z"/>
				<g>
					<path class="st16" d="M568.37,145.72c5.65-2.9,18.62-7.79,24.09-13.13l-8.39-5.97c0,0-19.19,6.26-23.46,8.53
						C557.34,137.82,562,144.44,568.37,145.72z"/>
					<g>
						<path class="st9" d="M600.29,94.41c-2.06-2.68-3.21-0.82-4.28-0.27c-2.98,1.54-0.91-5.48-4.19-4.52
							c0.87,4.96-1.13,4.85,0.38,9.64l-0.35,1.99l4.8,3.53l0.54-2.2C600.26,101.19,603.61,98.6,600.29,94.41z"/>
						<path class="st10" d="M601.03,95.5c-0.66-1.62-1.8-2.39-2.34-2.64c-0.64-0.29-2.59,0.41-2.91,1.15
							c-0.32,0.75-0.09,1.55,0.5,1.85c0.16,0.07,0.31,0.1,0.51,0.07c-0.27,0.79-0.04,1.59,0.5,1.85c0.1,0.03,0.21,0.06,0.31,0.1
							c-0.05,0.6,0.19,1.16,0.61,1.33c0.16,0.07,0.36,0.09,0.51,0.07c-0.11,0.51,0.05,1.27,0.47,1.45c0.41,0.57,1.21,0.29,1.68-0.18
							C601.81,99.56,602.14,98.24,601.03,95.5z"/>
						<path class="st16" d="M591.64,100.7c0,0-5.87,18.55-7.58,25.93c-0.68,2.93,6.08,5.51,8.39,5.97c2.5-2.46,4.18-8.56,4.97-28.98
							C595.66,101.6,591.64,100.7,591.64,100.7z"/>
					</g>
				</g>
				<g>
					<path class="st16" d="M537.08,145.72c-6.35-1.8-21.01-8.93-26.48-14.27l6.52-6.12c0,0,18.79,5.21,23.07,7.48
						C540.61,136.74,540.28,143.37,537.08,145.72z"/>
					<g>
						<path class="st9" d="M501.77,92.02c2.06-2.68,3.21-0.82,4.28-0.27c2.98,1.54,0.91-5.48,4.19-4.52
							c-0.87,4.96,1.13,4.85-0.38,9.64l0.35,1.99l-4.8,3.53l-0.54-2.2C501.8,98.8,498.45,96.21,501.77,92.02z"/>
						<path class="st10" d="M501.03,93.11c0.66-1.62,1.8-2.39,2.34-2.64c0.64-0.29,2.59,0.41,2.91,1.15
							c0.32,0.75,0.09,1.55-0.5,1.85c-0.16,0.07-0.31,0.1-0.51,0.07c0.27,0.79,0.04,1.59-0.5,1.85c-0.1,0.03-0.21,0.06-0.31,0.1
							c0.05,0.6-0.19,1.16-0.61,1.33c-0.16,0.07-0.36,0.09-0.51,0.07c0.11,0.51-0.05,1.27-0.47,1.45c-0.41,0.57-1.21,0.29-1.68-0.18
							C500.25,97.17,499.92,95.84,501.03,93.11z"/>
						<path class="st16" d="M510.42,98.3c0,0,5.82,19.42,7.52,26.8c0.68,2.93-5.03,5.89-7.34,6.35c-0.71-2.75-6.16-10.33-5.96-30.23
							C506.4,99.21,510.42,98.3,510.42,98.3z"/>
					</g>
				</g>
				<g>
					<path class="st9" d="M545.89,121.12v15.39c0,0,5.71,2.74,10.67,0c-0.76-3.42-1.21-14.31-1.21-14.31L545.89,121.12z"/>
					<path class="st16" d="M539.6,132.82h6.29c0,0,2.68,4.46,6.54,4.11c3.85-0.34,3.62-4.11,3.62-4.11l7.76,1.03
						c0,0,5.97,10.43,5.05,18.74c-0.98,8.83-7.24,12.43-6.9,25.86c-9.85,3.1-19.65,3.1-26.49-5.07c2.48-9.39,2.61-17.04,0.67-28.34
						C537.15,139.62,539.6,132.82,539.6,132.82z"/>
					<g>
						<path class="st10" d="M563.3,115.38c0,8.07-4.87,14.61-10.87,14.61c-6,0-10.87-6.54-10.87-14.61
							c0-8.07,4.87-14.61,10.87-14.61C558.43,100.77,563.3,107.31,563.3,115.38z"/>
						<path class="st15" d="M540.84,115.38c6-0.77,11.58-4.11,14.73-8.43c2.04,5.05,7.73,8.43,7.73,8.43s4.27-9.66-3.49-14.87
							C552.4,95.54,534.73,98.94,540.84,115.38z"/>
						<path d="M547.86,118.5c-0.64,0-1.15-0.52-1.15-1.15c0-0.64,0.52-1.16,1.15-1.16s1.15,0.52,1.15,1.16
							C549.01,117.98,548.5,118.5,547.86,118.5z"/>
						<path d="M557.06,118.5c-0.64,0-1.15-0.52-1.15-1.15c0-0.64,0.52-1.16,1.15-1.16c0.64,0,1.16,0.52,1.16,1.16
							C558.22,117.98,557.7,118.5,557.06,118.5z"/>
						<g>
							<path class="st15" d="M559.1,116.3c-0.19,0-0.37-0.1-0.48-0.27c-0.29-0.48-0.63-0.77-1.03-0.86
								c-0.68-0.15-1.36,0.31-1.37,0.31c-0.25,0.17-0.6,0.11-0.77-0.14c-0.17-0.25-0.11-0.59,0.14-0.77
								c0.04-0.03,1.07-0.74,2.23-0.49c0.71,0.15,1.3,0.62,1.75,1.38c0.16,0.26,0.07,0.6-0.19,0.76
								C559.29,116.28,559.19,116.3,559.1,116.3z"/>
						</g>
						<g>
							<path class="st15" d="M545.67,116.36c-0.12,0-0.24-0.04-0.35-0.12c-0.24-0.19-0.28-0.54-0.09-0.78
								c0.73-0.91,1.54-1.41,2.4-1.47c1.11-0.09,1.88,0.6,1.91,0.63c0.23,0.21,0.24,0.56,0.03,0.78c-0.21,0.23-0.55,0.24-0.78,0.04
								c-0.02-0.01-0.47-0.4-1.09-0.34c-0.54,0.05-1.08,0.4-1.6,1.06C545.99,116.29,545.83,116.36,545.67,116.36z"/>
						</g>
						<path class="st9" d="M553.58,118.86c1.49,1.08,1.96,1.52,2.54,1.88c-0.4,1.33-2.49,2-3.08,1.84c1.46-0.72,1.66-1.69,1.66-1.69
							L553.58,118.86z"/>
						<path class="st17" d="M540.83,115.07c0,0-0.99-13.37,12.2-14.03c5.73-0.29,9.57,3.74,9.57,3.74s-2.67-6.61-11.02-5.86
							C543.33,99.59,537.36,105.36,540.83,115.07z"/>
						<path class="st10" d="M543.19,116.51c1.25,1.58,1.31,3.6,0.14,4.53c-1.17,0.92-3.13,0.39-4.37-1.18
							c-1.25-1.58-1.31-3.6-0.14-4.53C539.98,114.4,541.94,114.93,543.19,116.51z"/>
						<g>
							<path class="st9" d="M542.09,119.92c-0.05,0-0.1-0.01-0.14-0.03c-0.19-0.08-0.28-0.3-0.2-0.48c0.26-0.63,0.27-1.13,0.02-1.5
								c-0.39-0.57-1.31-0.74-1.98-0.72c-0.2,0.01-0.38-0.15-0.38-0.36c-0.01-0.2,0.15-0.38,0.36-0.38c0.9-0.03,2.05,0.23,2.61,1.04
								c0.28,0.4,0.51,1.11,0.05,2.2C542.37,119.83,542.24,119.92,542.09,119.92z"/>
						</g>
						<path class="st3" d="M549.55,124.55c-0.15-0.25,0.07-0.57,0.36-0.51c0.74,0.16,1.96,0.39,3.14,0.49
							c1.18,0.11,2.42,0.09,3.17,0.07c0.3-0.01,0.46,0.34,0.26,0.56c-0.61,0.68-1.82,1.69-3.63,1.53
							C551.04,126.54,550.02,125.33,549.55,124.55z"/>
					</g>
					<path class="st3" d="M545.89,132.6c0,0,2.23,3.98,6.21,4.35c-0.88,1.52-1.8,2.67-3.69,2.22
						C544.87,138.33,545.89,132.6,545.89,132.6z"/>
					<path class="st3" d="M556.05,132.82c-0.25,0.99,0.22,3.84-3.94,4.13c0.41,0.76,1.25,2.97,3.7,2.18
						C558.6,138.23,557.13,133.38,556.05,132.82z"/>
				</g>
				<g>
					<path class="st12" d="M507.08,203.26l-4.74,5.19c0,0-2.66,0.54-4.57,1.34c-0.36,0.15-0.7,0.32-0.99,0.49
						c-0.01,0.01-0.02,0.01-0.03,0.02c-0.35,0.21-0.81,0.48-1.33,0.76c-0.31,0.16-0.64,0.33-0.99,0.5c-2.08,0.99-4.75,1.87-6.4,0.98
						c-3.75-4.77,2.04-10.6,6.81-12.79c4.78-2.19,6.27-5.41,8.55-4.69C505.68,195.76,507.08,203.26,507.08,203.26z"/>
				</g>
				<path class="st10" d="M504.43,201.17c0.93,0.68,4.33,3.45,4.33,3.45l-4.62,6.76c0,0-0.89-1.36-2.95-3.3
					C496.9,204.05,502.22,199.55,504.43,201.17z"/>
				<path class="st5" d="M533.95,224.76c-7.04-11.41-26.18-22.29-26.18-22.29s-3.25,4.34-4.63,9.16c0,0,17.3,18.69,22.34,23.79
					C530.57,239.26,537.46,231.65,533.95,224.76z"/>
				<polygon class="st10" points="544.5,244.81 540.7,250.31 546.77,252.59 550.65,248.22 				"/>
				<path class="st5" d="M561.61,186.45l-17.36,9.54c0,0,17.35,23.94,27.78,29.68c1.82,1,11.74-4.81,11.62-6.89
					C583.2,211.18,561.61,186.45,561.61,186.45z"/>
				<path class="st5" d="M570.55,214.72c-1.9-0.23-26.05,30.09-26.05,30.09s3.99,3.44,8.18,4.99
					c16.97-16.34,25.46-22.95,31.05-29.49C585.79,215.03,577.72,211.04,570.55,214.72z"/>
				<path class="st6" d="M551.94,191.39c0,0-15.51-16.86-19.95-12.58c-4.44,4.28-5.4,38.86-7.91,51.84
					c-1.25,6.48,8.3,8.75,10.55,5.61C538.68,230.59,551.94,191.39,551.94,191.39z"/>
				<g>
					<path class="st12" d="M553.65,264.02c-7.45-2.28-12.6-6.68-15.01-9.09c-0.91-0.91-0.92-2.37-0.04-3.3
						c1.22-1.28,2.77-2.84,3.77-3.74c0.2-0.18,0.37-0.33,0.52-0.45l5.76,3.03l0.23,0.12c-0.15,1.18,0.1,2.2,0.59,3.1
						c0.15,0.29,0.33,0.56,0.52,0.83c0.25,0.35,0.53,0.69,0.83,1.02c0.22,0.24,0.45,0.48,0.68,0.71
						C553.96,258.69,556.77,260.63,553.65,264.02z"/>
				</g>
				<path class="st6" d="M529.41,188.71c0,0-1.05-7.03,6.06-15.33c6,4.73,12.01,7.65,26.49,5.07c1.17,7.47,0.54,9.62,0.54,9.62
					l-12.13,6.87L529.41,188.71z"/>
			</g>
			<path class="st9" d="M262.86,200.15c0,0-2.59-0.67-1.77-1.49c1.31-1.32,1.39,0.51,2.78,0.79c1.23,0.25-0.64-5.86-6.61-4.85
				c-0.87,0.15-2.53-1.34-2.53-1.34l-1.87,4.49l0.12,0.93c-0.04,3.43,1.61,4.46,2.95,5.28L262.86,200.15z"/>
			<g>
				<g>
					<path class="st18" d="M220.1,151.79c-4.63,6.97-1.1,17.76,7.01,35.22c7.3-0.4,8.97-5.25,8.97-5.25s-1.73-16.22-3.21-21.1
						C229.33,148.95,222.33,148.43,220.1,151.79z"/>
					<path class="st18" d="M255.12,193.26l-19.03-11.5l-8.97,5.25c5.24,4.69,11.84,8.87,25.71,12.04
						C254.63,196.62,255.12,193.26,255.12,193.26z"/>
				</g>
				<g>
					<path class="st19" d="M159.1,207.68l-4.79,5.25c0,0-2.69,0.54-4.62,1.36c-0.37,0.16-0.71,0.32-1,0.49
						c-0.01,0.01-0.02,0.01-0.03,0.02c-0.35,0.21-0.82,0.48-1.35,0.77c-0.31,0.16-0.65,0.33-1,0.5c-2.11,1-4.81,1.9-6.48,0.99
						c-3.79-4.82,2.06-10.73,6.89-12.94c4.84-2.21,6.34-5.48,8.65-4.75C157.67,200.09,159.1,207.68,159.1,207.68z"/>
					<path class="st3" d="M149.68,214.28c-0.37,0.16-0.71,0.32-1,0.49l-1.4-3.52c-0.11-0.29,0.02-0.61,0.31-0.72
						c0.08-0.03,0.16-0.04,0.23-0.04c0.21,0.01,0.41,0.14,0.49,0.35L149.68,214.28z"/>
					<path class="st3" d="M147.3,215.56c-0.31,0.16-0.65,0.33-1,0.5l-1.16-2.91c-0.11-0.29,0.03-0.61,0.31-0.72
						c0.08-0.03,0.16-0.04,0.23-0.04c0.21,0.01,0.41,0.14,0.49,0.35L147.3,215.56z"/>
				</g>
				<path class="st10" d="M156.41,205.56c0.94,0.69,4.38,3.49,4.38,3.49l-4.67,6.84c0,0-0.9-1.38-2.99-3.34
					C148.79,208.48,154.18,203.93,156.41,205.56z"/>
				<path class="st17" d="M186.28,229.43c-7.13-11.55-26.49-22.56-26.49-22.56s-3.29,4.39-4.68,9.27c0,0,17.51,18.91,22.6,24.07
					C182.86,244.11,189.84,236.41,186.28,229.43z"/>
				<polygon class="st10" points="228.16,272.99 230.45,279.35 235.9,275.69 234.58,269.93 				"/>
				<path class="st17" d="M212.39,193.26L193.9,201c0,0,14.89,25.94,24.78,32.84c1.72,1.2,12.33-3.58,12.43-5.69
					C231.46,220.46,212.39,193.26,212.39,193.26z"/>
				<path class="st17" d="M218.68,233.85c-1.31,1.43,9.48,39.14,9.48,39.14s5.18-1.27,8.91-3.81c-3.49-23.58-3.95-34.46-6.05-42.91
					C227.88,221.48,219.86,225.78,218.68,233.85z"/>
				<path class="st14" d="M204.48,195.73c0,0-13.99-13.15-18.49-8.82c-4.5,4.33-7.17,35.41-9.71,48.55
					c-1.27,6.56,8.39,8.86,10.67,5.68C191.07,235.4,204.48,195.73,204.48,195.73z"/>
				<path class="st11" d="M228.23,117.96c2.13-6.12-1.35-14.67-8.13-13.18c-6.79,1.49-10.79,3.68-13.16-4.55
					c-1.89-6.55-10.2-10.56-18.98-6.81c-11.23,4.81-3.53,10.72-9.85,11.29c-6.32,0.57-12.44,1.81-9.19,9.92
					c3.25,8.11,12.64,11.47,21.37,6.62c8.73-4.84,7.88,2.43,13.12,2.2C210.86,123.13,228.23,117.96,228.23,117.96z"/>
				<path class="st10" d="M215.14,125.93c-2.9,7.64-0.38,15.69,5.62,17.96c6,2.28,13.22-2.07,16.12-9.72
					c2.9-7.64,0.38-15.69-5.62-17.96C225.25,113.93,218.04,118.28,215.14,125.93z"/>
				<path class="st10" d="M216.01,134.92l6.91,8.22c0,0-0.55,4.49-0.58,5.13c-0.11,2.67-3.53,2.57-5.57,0.13
					c-2.04-2.44-3.1-5.19-3.1-5.19L216.01,134.92z"/>
				<path class="st15" d="M237.74,132.78c-2.02-0.96-12.52-8.28-13.08-10.87c-1.74,5.02-11.36,7.92-11.82,6.09
					c-0.1-10.52,5.4-17.46,16.47-15.69C244.49,114.74,237.74,132.78,237.74,132.78z"/>
				<path d="M223.08,131.78c0.15,0.7,0.83,1.14,1.52,1c0.7-0.15,1.14-0.83,1-1.52c-0.15-0.7-0.83-1.14-1.52-1
					C223.39,130.4,222.94,131.08,223.08,131.78z"/>
				<path d="M231.56,134.8c0.14,0.65,0.78,1.07,1.43,0.94c0.65-0.14,1.07-0.78,0.94-1.43c-0.14-0.65-0.78-1.07-1.43-0.94
					C231.85,133.5,231.43,134.14,231.56,134.8z"/>
				<g>
					<path class="st15" d="M235.57,133.56c0.05,0,0.1-0.02,0.15-0.04c0.24-0.11,0.35-0.41,0.25-0.68c-0.78-2.06-2.63-2.23-2.7-2.24
						c-0.26-0.02-0.48,0.2-0.49,0.48c-0.01,0.29,0.18,0.53,0.44,0.56c0.06,0.01,1.35,0.14,1.9,1.6
						C235.19,133.45,235.38,133.57,235.57,133.56z"/>
				</g>
				<g>
					<path class="st15" d="M222.76,129.06c-0.04-0.04-0.07-0.08-0.09-0.13c-0.11-0.24,0.01-0.54,0.26-0.67
						c1.94-1.05,3.45,0.02,3.51,0.07c0.21,0.15,0.23,0.46,0.06,0.69c-0.18,0.23-0.49,0.29-0.69,0.14c-0.05-0.04-1.12-0.77-2.48-0.03
						C223.12,129.22,222.9,129.19,222.76,129.06z"/>
				</g>
				<path class="st9" d="M230.4,135.3c0.08,0.88,0.09,1.72,0.31,2.37c0.07,0.22-0.04,0.46-0.26,0.55c-0.9,0.35-2.4,0.02-3.28-0.24
					c-0.13-0.04-0.11-0.23,0.03-0.23c1.13-0.04,1.77-0.24,2.08-0.38c0.15-0.07,0.26-0.21,0.3-0.37c0.08-0.38,0.26-1.15,0.44-1.75
					C230.08,135.05,230.38,135.08,230.4,135.3z"/>
				<path class="st10" d="M216.85,130.03c0.78,1.76,0.24,3.7-1.2,4.34c-1.44,0.64-3.24-0.27-4.01-2.03c-0.78-1.76-0.24-3.7,1.2-4.34
					C214.27,127.36,216.07,128.27,216.85,130.03z"/>
				<g>
					<path class="st9" d="M214.84,132.85c0.06-0.01,0.12-0.04,0.17-0.08c0.76-0.6,1.03-1.43,0.73-2.22c-0.31-0.8-1.13-1.35-1.95-1.3
						c-0.23,0.01-0.41,0.21-0.39,0.45c0.01,0.23,0.21,0.41,0.45,0.39c0.45-0.03,0.94,0.31,1.12,0.76c0.17,0.44,0,0.88-0.47,1.26
						c-0.18,0.14-0.21,0.41-0.07,0.59C214.53,132.83,214.69,132.88,214.84,132.85z"/>
				</g>
				<path class="st20" d="M216.36,197.97c-17.48,0.2-32-9.45-32-9.45c0.8-2.02,2.94-6.1,8.63-11.97c1.45-6.22,4.52-20.6,5.55-24.11
					c5.23-8.51,6.98-5.74,6.94-10.67l8.28,1.14c0,0,1.49,5.67,6.06,6.7c2.86,0.65,2.57-2.47,2.57-2.47s4.03,3.15,5.11,4.4
					c0,0,2.46,10.72,1.77,13.69c-1.25,5.41-9.75,19.96-9.75,19.96S216.22,196.42,216.36,197.97z"/>
				<g>
					<path class="st10" d="M167.58,183.03c-0.12-2.04-0.05-5,1.1-4.82c1.84,0.29,2.45,0.99,3.82,1.36c1.21,0.33,0.63-1.93-3.65-5.48
						l0.17-1.64L164.6,171l-0.12,0.77c-2.92,1.63-4.46,5.75-2.86,10.03C162.29,183.64,167.73,185.75,167.58,183.03z"/>
					<path class="st18" d="M211.02,144.72c-5.92-5.91-16.56-3.8-35.28,0.71c-0.27,5.41,1.23,9.69,1.23,9.69s17.76,0.87,22.84,0.38
						C211.99,154.33,213.87,147.57,211.02,144.72z"/>
					<path class="st18" d="M169.63,173.23l12.54-18.37c0,0-3.94-7.25-6.42-9.43c-4.58,6.3-8.89,13.97-11.88,25.42
						C166.27,172.69,169.63,173.23,169.63,173.23z"/>
				</g>
				<g>
					<path class="st19" d="M251.93,276.42c-6.26,4.79-15.48,6.78-18.88,7.35c-1.28,0.21-2.5-0.63-2.74-1.91
						c-0.34-1.76-0.71-3.95-0.87-5.3c-0.03-0.27-0.05-0.5-0.06-0.69l5.88-2.97l0.24-0.12c0.88,0.82,1.87,1.21,2.9,1.34
						c0.33,0.04,0.66,0.06,0.99,0.06c0.44,0,0.88-0.03,1.33-0.09c0.33-0.04,0.66-0.09,0.98-0.14
						C245.15,273.36,250.97,271.85,251.93,276.42z"/>
					<path class="st3" d="M239.39,274.18l0.04,1.73c0.01,0.27-0.21,0.5-0.48,0.51c-0.27,0.01-0.5-0.21-0.51-0.48l-0.05-1.82
						C238.73,274.16,239.06,274.18,239.39,274.18z"/>
					<path class="st3" d="M241.7,273.95l0.03,1.31c0.01,0.27-0.21,0.5-0.48,0.51c-0.27,0.01-0.5-0.21-0.51-0.48l-0.03-1.19
						C241.05,274.05,241.38,274,241.7,273.95z"/>
				</g>
				<g>
					<path class="st18" d="M204.93,196.84l-0.74-0.18c3.33-7.73,10.28-20.36,14.44-28.11c0.38-0.71,0.73-1.37,1.06-1.98
						c3.79-7.07,0.52-16.8,0.48-16.9l0.8-0.02c0.03,0.1,0.92,2.59,1.24,5.89c0.29,3.07,0.21,7.53-1.86,11.38
						c-0.33,0.61-0.68,1.27-1.06,1.98C215.14,176.64,208.25,189.14,204.93,196.84z"/>
				</g>
				<path class="st3" d="M223.07,138.85c-0.04-0.27,0.25-0.49,0.47-0.35c0.55,0.36,1.48,0.93,2.41,1.37c0.93,0.44,1.96,0.8,2.58,1
					c0.25,0.08,0.26,0.44,0.02,0.58c-0.73,0.43-2.08,0.98-3.5,0.3C223.62,141.08,223.2,139.69,223.07,138.85z"/>
			</g>
			<g id="c_5_">
				<path class="st21" d="M328.08,142.58c-9.08,5.29,0.23,28.99,9.7,36.43c0,0,11.48-1.88,9.02-6.62
					C339.8,158.9,335.19,138.44,328.08,142.58z"/>
				<path class="st21" d="M373.74,180.21l-28.33-10.11c0,0-4.2,3.72-7.63,8.9c4.52,3.11,12.81,6.51,33.45,7.42
					C372.68,184.86,373.74,180.21,373.74,180.21z"/>
				<g>
					<polygon id="v-2_1_" class="st10" points="320.46,128.71 320.47,128.71 325.11,129.5 324.72,141.28 318.43,142.6 
						313.12,138.81 315.89,127.96 					"/>
					<g>
						<g>
							<path class="st10" d="M312.54,119.34c-0.27,8.13,4.68,14.89,11.07,15.11c6.39,0.21,11.78-6.2,12.05-14.33
								c0.27-8.13-4.68-14.89-11.07-15.11C318.21,104.79,312.81,111.21,312.54,119.34z"/>
							<path class="st9" d="M327.75,122.06c0.9,1.69,2.04,3.75,2.04,3.75s-0.71,1.67-2.96,1.53c0.98-0.33,1.97-0.9,1.67-2.2
								C328.2,123.85,327.75,122.06,327.75,122.06z"/>
							<path class="st11" d="M311.03,112.52c0.59-7.69,7.97-9.02,7.97-9.02s-1.47-0.81-0.71-3.04c0.99,0.86,2.28,1.4,3.59,1.49
								c8.81,0.59,14.02,2.92,12.59,6.18c-0.51,1.16,5.01,2.72,1.17,10.32c-0.38-1.04-0.27-4.67-1.82-5.73
								c-1.56-1.07-1.02,1.87-4.77,0.8c-3.79-1.08-6.03-3.1-9.1-2.05c-2.48,1.01-6.83,9.76-6.81,10.42
								C313.08,120.38,310.77,115.9,311.03,112.52z"/>
							<path class="st11" d="M335,124.47c0,0-1.46,4.2-2.6,5.2c0.11-1.9-4.17-1.41-5.97-1.55c-3.26-0.25-6.04-3.65-7.83,0.39
								c-4.13-0.45-4.12-9.7-4.12-9.7c-4.02,8.58-0.61,15.89,9.15,18.46C330.07,138.96,335.08,131.23,335,124.47z"/>
							<path d="M323.2,120.82c-0.62-0.06-1.06-0.61-1-1.22c0.06-0.62,0.61-1.06,1.22-1c0.62,0.06,1.06,0.61,1,1.22
								C324.36,120.43,323.82,120.88,323.2,120.82z"/>
							<path d="M332.37,122c-0.62-0.06-1.07-0.61-1-1.22c0.06-0.62,0.61-1.06,1.22-1c0.62,0.06,1.06,0.61,1,1.22
								C333.54,121.61,332.99,122.06,332.37,122z"/>
							<g>
								<path class="st11" d="M334.59,120c-0.19-0.02-0.36-0.13-0.45-0.32c-0.24-0.51-0.55-0.83-0.94-0.95
									c-0.67-0.22-1.39,0.17-1.4,0.17c-0.27,0.15-0.61,0.05-0.75-0.22c-0.15-0.27-0.05-0.6,0.21-0.75
									c0.05-0.03,1.14-0.63,2.27-0.26c0.7,0.22,1.24,0.74,1.61,1.54c0.13,0.28,0.01,0.61-0.27,0.74
									C334.79,120,334.69,120.01,334.59,120z"/>
							</g>
							<g>
								<path class="st11" d="M321,118.64c-0.12-0.01-0.24-0.06-0.33-0.16c-0.22-0.21-0.22-0.57-0.01-0.79
									c0.82-0.84,1.67-1.25,2.53-1.23c1.12,0.02,1.81,0.78,1.84,0.81c0.2,0.23,0.19,0.58-0.04,0.78c-0.23,0.2-0.58,0.19-0.78-0.04
									c-0.01-0.02-0.43-0.44-1.06-0.45c-0.54-0.01-1.12,0.3-1.7,0.9C321.33,118.6,321.17,118.65,321,118.64z"/>
							</g>
							<g>
								<path class="st10" d="M314.38,118.83c1.15,1.53,1.07,3.53-0.18,4.47c-1.25,0.94-3.2,0.46-4.35-1.06
									c-1.15-1.53-1.07-3.53,0.18-4.47C311.28,116.82,313.23,117.3,314.38,118.83z"/>
								<g>
									<path class="st9" d="M312.5,122.47c0.06-0.01,0.12-0.04,0.17-0.08c0.76-0.59,1.04-1.42,0.75-2.2
										c-0.3-0.8-1.11-1.35-1.93-1.31c-0.23,0.01-0.41,0.21-0.39,0.44c0.01,0.23,0.21,0.41,0.44,0.39
										c0.45-0.02,0.93,0.31,1.1,0.77c0.16,0.44-0.01,0.88-0.48,1.25c-0.18,0.14-0.21,0.4-0.07,0.59
										C312.19,122.44,312.35,122.5,312.5,122.47z"/>
								</g>
							</g>
						</g>
					</g>
					<g>
						<path class="st9" d="M326.5,131.7c-2.84,0-4.65-2.4-4.68-2.43c-0.15-0.2-0.11-0.49,0.1-0.64c0.2-0.15,0.49-0.11,0.64,0.1l0,0
							c0.11,0.14,2.65,3.47,6.36,1.36c0.22-0.12,0.5-0.05,0.63,0.17c0.12,0.22,0.05,0.5-0.17,0.63
							C328.34,131.47,327.37,131.7,326.5,131.7z"/>
					</g>
				</g>
				<polygon class="st10" points="328.06,271.4 329.36,276.41 336.67,273.98 336.51,270.35 				"/>
				<polygon class="st10" points="278.39,274.31 279.44,269.63 287.58,270.15 285.75,273.92 				"/>
				<path class="st19" d="M336.66,273.79c3.96,6.05,14.38,1.95,13.66,9.84c-15.83-0.85-22.41-1.06-22.41-1.06
					c0.11-1.82,0.62-6.11,1.07-7.78L336.66,273.79z"/>
				<path class="st19" d="M285.72,273.55c3.64,6.25,14.65,2.85,13.52,10.7l-22.33-1.51c0-2.9,0.94-6.78,1.47-8.42L285.72,273.55z"/>
				<path class="st19" d="M320.37,183.22l-20.64,11.6c0,0,18,31.75,28.1,41.45c1.76,1.69,11.48-1.29,12.12-3.39
					C342.31,225.22,320.37,183.22,320.37,183.22z"/>
				<path class="st19" d="M326.16,232.21c-3.53,14.55,0.75,40.26,0.75,40.26s6.51,0.23,11.46-1.75
					c-0.54-24.79,2.71-33.11,1.48-42.13C336.78,223.14,328.87,224.13,326.16,232.21z"/>
				<path class="st11" d="M315.89,188.33l-23.65-1.06c0,0-1.5,36.47,1.95,50.05c0.6,2.36,8.2,5.39,9.86,3.95
					C310.1,236,315.89,188.33,315.89,188.33z"/>
				<path class="st11" d="M294.1,231.38c-9.58,11.5-15.88,37.75-15.88,37.75s4.72,3.57,10.03,3.98c12.4-21.6,14.16-28.22,17.9-35.65
					C308.57,230.31,300.09,225.33,294.1,231.38z"/>
				<g id="v_1_">
					<path id="h-5_1_" class="st22" d="M298.31,138.88c0,0,7.1-3.62,15.24-1.2c8.01,6.59,11.19,3.16,11.19,3.16
						c3.36,0.07,6.98,1.76,6.98,1.76c0.85,16.85-3.24,51.78-3.24,51.78s-12.31,2.17-21.47,0c-9.13-2.3-17.14-6.13-17.14-6.13
						S295.92,148.64,298.31,138.88z"/>
				</g>
				<g>
					<path class="st21" d="M309.44,140.53c-8-11.03-24.4,8.11-32.72,16.98c0,0,0.74,11.18,8.89,10.8
						C292.01,166.1,314.27,147.19,309.44,140.53z"/>
					<path class="st9" d="M258.01,202.2c0.21-3.39,4.24-5.35,4.42-4.13c0.22,1.44-0.36,3.58-0.36,3.58
						c0.94,0.46,5.26-1.17,3.34-6.63l2.6-2.48l-5.07-4.36l-1.34,3.19c-6.63,1.65-8.1,3.94-8.33,9.19
						C253.02,205.73,257.81,205.38,258.01,202.2z"/>
					<path class="st21" d="M268.57,195.7l18.3-28.39c0,0-6.39-4.86-10.15-9.8c-4.22,4.7-7.62,12.58-15.27,31.77
						C262.45,191.17,268.57,195.7,268.57,195.7z"/>
				</g>
			</g>
			<path id="c_3_" class="st10" d="M257.11,201.05c0.1,0,0.2,0.03,0.3,0.07c0-0.02,0-0.04,0-0.05c0.04-1.05,0.69-1.88,1.44-1.85
				c0.12,0.01,0.24,0.04,0.35,0.08c0.25-0.62,0.73-1.04,1.27-1.02c0.21,0.01,0.41,0.09,0.59,0.22c0.21-0.64,0.73-1.08,1.33-1.06
				c0.75,0.03,1.33,0.78,1.3,1.68c-0.04,0.9-0.68,1.6-1.43,1.57c-0.19-0.01-0.37-0.06-0.53-0.15c-0.14,0.91-0.73,1.58-1.41,1.55
				c-0.12-0.01-0.24-0.03-0.35-0.08c-0.25,0.62-0.73,1.04-1.27,1.02c-0.2-0.01-0.38-0.08-0.55-0.19c-0.16,0.57-0.62,0.98-1.15,0.96
				c-0.64-0.03-1.13-0.66-1.1-1.42C255.93,201.61,256.47,201.02,257.11,201.05z"/>
		</g>
		<g>
			<polygon class="st10" points="120.22,255.18 120.9,259.41 127.98,257.56 127.92,253.99 			"/>
			<path class="st19" d="M128.01,257.1c3.8,5.81,13.83,1.52,13.14,9.1l-21.63-0.01c0.1-1.74,0.69-6.53,1.12-8.13L128.01,257.1z"/>
			<path class="st19" d="M114.13,173.35l-17.44,9.8c0,0,15.22,26.84,23.75,35.04c1.49,1.43,9.7-1.09,10.25-2.87
				C132.68,208.85,114.13,173.35,114.13,173.35z"/>
			<path class="st19" d="M119.02,214.75c-4.16,13.66,0.22,41.33,0.22,41.33s5.51,0.19,9.69-1.48c-0.46-20.96,2.7-35.28,1.66-42.91
				C128,207.09,121.31,207.93,119.02,214.75z"/>
			<path class="st11" d="M110.34,177.66l-19.99-0.9c0,0-1.27,30.82,1.64,42.3c0.51,2,6.93,4.55,8.34,3.34
				C105.44,217.96,110.34,177.66,110.34,177.66z"/>
			<path class="st11" d="M99.33,223.54c-2.38,1.36-5.38,3.56-9.27,6.29l-1.88-15.21c1.86-0.6,3.71-0.96,5.5-0.98
				C100.74,212.17,104.39,219.64,99.33,223.54z"/>
			<g>
				<g>
					<g>
						<g>
							<g>
								<g>
									<g>
										<g>
											<path class="st10" d="M149.7,135.04c-0.9,1.05-2.49,3.5-3.58,4.67l-3.38-1.74c-1.07-4.3,0.88-8.79,1.05-9.33
												c0.44-1.41,0.56-2.1,0.78-2.13c0.23-0.03,1.57,0.13,1,2.2c-0.72,2.6,2.14,2.75,4.46-2.57c0.58-1.33,2.37-1.31,2.44,0.04
												C152.56,127.68,153.8,130.25,149.7,135.04z"/>
										</g>
									</g>
								</g>
							</g>
						</g>
						<path class="st17" d="M125.9,151.02c-0.79,2.11,1.96,10.82,2.73,10.69c8.6-4.72,17.96-22.13,17.96-22.13l-4.7-2.94
							C141.89,136.64,136.13,143.92,125.9,151.02z"/>
					</g>
					<path class="st17" d="M108.01,139.78c3.26,5.7,18.27,21.62,20.63,21.93l0.82-11.2c0,0-11.28-17.38-13.58-20.24
						C111.91,125.3,102.67,130.48,108.01,139.78z"/>
					<g>
						<path class="st11" d="M152.91,125.78l-7.05,10.95c-0.28,0.44-0.87,0.57-1.31,0.28l-1.48-0.95c-0.44-0.28-0.57-0.87-0.28-1.31
							l7.05-10.95c0.28-0.44,0.87-0.57,1.31-0.28l1.48,0.95C153.07,124.75,153.19,125.34,152.91,125.78z"/>
						<path class="st3" d="M152.26,125.35l-7.05,10.95c-0.28,0.44-0.87,0.57-1.31,0.28l-1.48-0.95c-0.44-0.28-0.57-0.87-0.28-1.31
							l7.05-10.95c0.28-0.44,0.87-0.57,1.31-0.28l1.48,0.95C152.41,124.33,152.54,124.91,152.26,125.35z"/>
					</g>
					<path class="st10" d="M149.37,131.4c0.17-0.8-0.07-4.15,0.94-4.14c0.25,0.09,0.34,0.58,0.34,0.58c0.14-0.5,0.44-2.68,1.25-2.29
						c0.69,0.6,0.58,1.08,0.58,1.08L149.37,131.4z"/>
				</g>
				<path class="st9" d="M113.42,130.61c1,1.73-8.71,2.17-9.55-1.27c-0.83-3.43,2.41-12.48,2.41-12.48l8.55,3.36
					C114.83,120.23,112.12,128.35,113.42,130.61z"/>
				<g>
					<path class="st10" d="M103.57,109.48c-0.11,7.92,4.84,14.41,11.05,14.5c6.22,0.09,11.35-6.26,11.46-14.17
						s-4.84-14.41-11.05-14.5C108.81,95.22,103.68,101.56,103.57,109.48z"/>
					<path d="M122.66,112.44c0.27,0.59,0.97,0.84,1.56,0.57c0.59-0.27,0.84-0.97,0.57-1.56c-0.27-0.59-0.97-0.84-1.56-0.57
						C122.64,111.16,122.38,111.85,122.66,112.44z"/>
					<path d="M114.85,111.46c0.3,0.64,1.05,0.91,1.69,0.62c0.64-0.3,0.91-1.05,0.62-1.69c-0.3-0.64-1.05-0.91-1.69-0.62
						C114.83,110.07,114.56,110.83,114.85,111.46z"/>
					<path class="st9" d="M120.41,112.4c0.41,1.82,0.96,4.05,0.96,4.05s-1.09,1.38-3.18,0.68c1-0.06,2.08-0.35,2.13-1.64
						C120.37,114.19,120.41,112.4,120.41,112.4z"/>
					<g>
						<path class="st11" d="M122.76,109.74c0.14,0.07,0.31,0.06,0.44-0.03c0.01-0.01,0.48-0.3,0.95-0.17
							c0.33,0.09,0.62,0.39,0.85,0.87c0.11,0.22,0.38,0.32,0.6,0.21c0.22-0.11,0.32-0.38,0.21-0.6c-0.35-0.73-0.83-1.19-1.43-1.35
							c-0.88-0.24-1.65,0.27-1.68,0.29c-0.21,0.14-0.26,0.42-0.12,0.62C122.63,109.66,122.69,109.71,122.76,109.74z"/>
					</g>
					<g>
						<path class="st11" d="M116.82,109c-0.15,0.04-0.31,0.01-0.43-0.1c-0.01-0.01-0.43-0.37-0.91-0.31
							c-0.34,0.04-0.67,0.29-0.97,0.73c-0.14,0.2-0.42,0.26-0.63,0.12c-0.2-0.14-0.26-0.42-0.12-0.63c0.46-0.67,1-1.04,1.62-1.11
							c0.9-0.1,1.59,0.52,1.61,0.54c0.18,0.17,0.19,0.45,0.03,0.64C116.96,108.93,116.89,108.97,116.82,109z"/>
					</g>
					<path class="st3" d="M120.59,119.94c0.24-0.19,0.14-0.57-0.16-0.61c-0.76-0.12-2.02-0.33-3.19-0.65
						c-1.17-0.32-2.36-0.78-3.07-1.07c-0.28-0.11-0.56,0.16-0.45,0.45c0.34,0.87,1.14,2.27,2.93,2.77
						C118.44,121.31,119.85,120.51,120.59,119.94z"/>
					<path class="st15" d="M105.6,113.12c0.64-2.83,1.87-2.77,3.97-5.44c1.11-3.67,3.2-5.88,6.14-3.67
						c3.02,2.27,5.66,2.45,7.17,1.67c3.5-1.81,3.21,3.83,3.21,3.83s3.54-5.92,1.5-9.17c-2.91-4.63-4.53-2.33-7.8-5.52
						c-3.27-3.19-9.09-2.86-10.72-0.79c-1.72,2.18-1.61,3.09-5.31,4.05c-3.7,0.96-6.46,4.78-4.17,9.01
						c2.29,4.24-3.64,5.11,0.81,9.55c1.72,1.72,4.73,2.3,5.44,1.71C105.08,116.86,105.19,114.94,105.6,113.12z"/>
					<g>
						<g>
							<path class="st10" d="M107.94,109.69c0.83,1.67,0.4,3.57-0.96,4.25c-1.36,0.68-3.14-0.12-3.97-1.78
								c-0.83-1.67-0.4-3.57,0.96-4.25C105.33,107.23,107.11,108.03,107.94,109.69z"/>
						</g>
						<g>
							<path class="st9" d="M105.73,112.67c-0.04-0.02-0.07-0.04-0.1-0.07c-0.13-0.13-0.13-0.34,0-0.46
								c0.47-0.47,0.66-0.9,0.57-1.27c-0.15-0.62-1.05-1.03-1.38-1.14c-0.17-0.06-0.27-0.24-0.21-0.41
								c0.06-0.17,0.24-0.27,0.41-0.21c0.06,0.02,1.55,0.52,1.82,1.61c0.15,0.61-0.1,1.24-0.74,1.89
								C106,112.7,105.85,112.73,105.73,112.67z"/>
						</g>
					</g>
				</g>
				<path class="st14" d="M119.61,180.73c-6.95,0.47-27.04,3.11-33.14-0.26c-1.97-3.82,1.81-21.54,2.85-28.67
					c2.97-20.32,4.75-26.01,14.41-26.77c2.17,1.37,7.43,3.05,9.97,3.41c0,0,4.68,8.77,5.03,14.72c0.35,6.04-0.93,16.52-1.62,22.53
					C116.33,172.36,119.31,176.42,119.61,180.73z"/>
				<path class="st17" d="M79.6,145.02c0,0,15.65-22.54,22.19-18.81c4.99,4.05-6.66,19.77-20.76,30.42L79.6,145.02z"/>
			</g>
		</g>
	</g>
	<g>
		<path class="st3" d="M460.51,86.22h25.29c8.68,0,15.71-7.03,15.71-15.71v0c0-8.68-7.03-15.71-15.71-15.71h-25.29
			c-8.68,0-15.71,7.03-15.71,15.71v0C444.8,79.19,451.83,86.22,460.51,86.22z"/>
		<path class="st3" d="M452.83,84.82v11.7c0,0.94,1.26,1.24,1.69,0.4l6.15-12.1H452.83z"/>
		<path class="st23" d="M455.67,65.68h34.42c1.32,0,2.4-1.07,2.4-2.4l0,0c0-1.32-1.07-2.4-2.4-2.4h-34.42c-1.32,0-2.4,1.07-2.4,2.4
			l0,0C453.27,64.6,454.35,65.68,455.67,65.68z"/>
		<path class="st23" d="M455.67,73.28h34.42c1.32,0,2.4-1.07,2.4-2.4l0,0c0-1.32-1.07-2.4-2.4-2.4h-34.42c-1.32,0-2.4,1.07-2.4,2.4
			l0,0C453.27,72.21,454.35,73.28,455.67,73.28z"/>
		<path class="st23" d="M455.67,80.88h21.39c1.32,0,2.4-1.07,2.4-2.4v0c0-1.32-1.07-2.4-2.4-2.4h-21.39c-1.32,0-2.4,1.07-2.4,2.4v0
			C453.27,79.81,454.35,80.88,455.67,80.88z"/>
	</g>
	<g>
		<g>
			<path class="st24" d="M351.22,58.12c2.05,6.12-1.25,12.74-7.37,14.78c-6.12,2.05-12.74-1.25-14.78-7.37
				c-2.05-6.12,1.25-12.74,7.37-14.78C342.55,48.7,349.17,52,351.22,58.12z"/>
		</g>
		<g>
			<g>
				<path class="st3" d="M334.13,59.97c1.03-0.34,2.14,0.21,2.49,1.24c0.34,1.03-0.21,2.14-1.24,2.49
					c-1.03,0.34-2.14-0.21-2.49-1.24C332.54,61.42,333.1,60.31,334.13,59.97z"/>
				<path class="st3" d="M343.62,56.79c1.03-0.34,2.14,0.21,2.49,1.24c0.34,1.03-0.21,2.14-1.24,2.49
					c-1.03,0.34-2.14-0.21-2.49-1.24C342.03,58.25,342.59,57.13,343.62,56.79z"/>
			</g>
		</g>
		<g>
			<path class="st3" d="M336.37,66.34c-0.1,0.03-0.2,0.08-0.28,0.14c-0.4,0.27-0.5,0.72-0.22,1c1.36,1.37,3.83,1.77,6.15,1
				c2.25-0.75,3.93-2.44,4.28-4.31c0.07-0.39-0.26-0.7-0.73-0.69c-0.48,0.01-0.93,0.33-1,0.72c-0.24,1.3-1.41,2.47-2.98,3
				c-1.61,0.54-3.33,0.26-4.28-0.7C337.09,66.28,336.72,66.23,336.37,66.34z"/>
		</g>
	</g>
	<g>
		<g>
			<path class="st24" d="M504.14,165.71c-2.21,6.06-8.92,9.18-14.98,6.97c-6.06-2.21-9.18-8.92-6.97-14.98
				c2.21-6.06,8.92-9.18,14.98-6.97C503.23,152.95,506.35,159.65,504.14,165.71z"/>
		</g>
		<g>
			<g>
				<path class="st3" d="M489.62,156.5c1.02,0.37,1.55,1.5,1.17,2.52c-0.37,1.02-1.5,1.55-2.52,1.17c-1.02-0.37-1.55-1.5-1.17-2.52
					C487.47,156.66,488.6,156.13,489.62,156.5z"/>
				<path class="st3" d="M499.03,159.94c1.02,0.37,1.55,1.5,1.17,2.52c-0.37,1.02-1.5,1.54-2.52,1.17c-1.02-0.37-1.55-1.5-1.17-2.52
					C496.88,160.09,498.01,159.56,499.03,159.94z"/>
			</g>
		</g>
		<g>
			<path class="st3" d="M487.41,162.89c-0.1-0.04-0.2-0.06-0.31-0.07c-0.48-0.04-0.84,0.25-0.79,0.64c0.21,1.92,1.89,3.78,4.19,4.61
				c2.23,0.81,4.59,0.54,6.03-0.7c0.3-0.26,0.24-0.71-0.14-1c-0.38-0.29-0.93-0.32-1.23-0.06c-1,0.86-2.65,1.05-4.2,0.49
				c-1.6-0.58-2.77-1.87-2.91-3.21C488.01,163.29,487.75,163.01,487.41,162.89z"/>
		</g>
	</g>
	<g>
		<g>
			<path class="st3" d="M389.13,89.73c-2.62,5.66-9.34,8.12-15,5.5c-5.66-2.62-8.12-9.34-5.5-15c2.62-5.66,9.34-8.12,15-5.5
				C389.29,77.35,391.75,84.07,389.13,89.73z"/>
		</g>
		<g>
			<g>
				<path class="st25" d="M375.89,79.68c0.95,0.44,1.37,1.57,0.93,2.52c-0.44,0.95-1.57,1.37-2.52,0.93
					c-0.95-0.44-1.37-1.57-0.93-2.52C373.81,79.65,374.94,79.24,375.89,79.68z"/>
				<path class="st25" d="M384.67,83.75c0.95,0.44,1.37,1.57,0.93,2.52c-0.44,0.95-1.57,1.37-2.52,0.93
					c-0.95-0.44-1.37-1.57-0.93-2.52C382.59,83.72,383.72,83.31,384.67,83.75z"/>
			</g>
		</g>
		<g>
			<path class="st25" d="M373.23,85.65c-0.09-0.04-0.19-0.07-0.29-0.09c-0.46-0.07-0.83,0.18-0.82,0.55
				c0.05,1.87,1.52,3.79,3.66,4.78c2.08,0.96,4.38,0.89,5.87-0.19c0.31-0.22,0.28-0.66-0.06-0.98c-0.34-0.31-0.87-0.39-1.18-0.16
				c-1.03,0.75-2.63,0.8-4.08,0.13c-1.49-0.69-2.51-2.03-2.55-3.33C373.78,86.09,373.55,85.8,373.23,85.65z"/>
		</g>
	</g>
	<g>
		<g>
			<path class="st3" d="M49.63,158.73c2.26,5.13-0.06,11.11-5.19,13.37c-5.13,2.26-11.11-0.06-13.37-5.19
				c-2.26-5.13,0.06-11.11,5.19-13.37C41.38,151.28,47.37,153.6,49.63,158.73z"/>
		</g>
		<g>
			<g>
				<path class="st25" d="M35,161.69c0.86-0.38,1.87,0.01,2.25,0.87c0.38,0.86-0.01,1.87-0.87,2.25c-0.86,0.38-1.87-0.01-2.25-0.87
					C33.75,163.08,34.14,162.07,35,161.69z"/>
				<path class="st25" d="M42.95,158.19c0.86-0.38,1.87,0.01,2.25,0.87c0.38,0.86-0.01,1.87-0.87,2.25
					c-0.86,0.38-1.87-0.01-2.25-0.87C41.7,159.57,42.09,158.57,42.95,158.19z"/>
			</g>
		</g>
		<g>
			<path class="st25" d="M37.45,167.02c-0.08,0.04-0.16,0.08-0.23,0.14c-0.32,0.27-0.37,0.66-0.11,0.88
				c1.29,1.08,3.46,1.23,5.4,0.37c1.88-0.83,3.2-2.43,3.35-4.07c0.03-0.34-0.28-0.58-0.69-0.54c-0.41,0.04-0.77,0.36-0.81,0.7
				c-0.11,1.14-1.02,2.25-2.33,2.83c-1.35,0.6-2.86,0.49-3.75-0.26C38.07,166.91,37.74,166.9,37.45,167.02z"/>
		</g>
	</g>
	<g>
		<path class="st25" d="M604.05,236.82l4.67,14.86c0.18,0.57-0.14,1.17-0.7,1.35l-25.82,8.12c-0.57,0.18-1.17-0.14-1.35-0.7
			l-4.67-14.86c-0.18-0.57,0.14-1.17,0.7-1.35l25.82-8.12C603.27,235.94,603.88,236.25,604.05,236.82z"/>
		<path class="st3" d="M604.05,236.82l0.26,0.82l-9.11,12.15c-0.87,1.21-2.43,1.72-3.85,1.25l-15.02-4.99l-0.15-0.47
			c-0.18-0.57,0.14-1.17,0.7-1.35l25.82-8.12C603.27,235.94,603.88,236.25,604.05,236.82z"/>
	</g>
	<g>
		<path class="st25" d="M429.03,50.39l-6.07,15.67c-0.23,0.6-0.9,0.89-1.5,0.66l-27.24-10.55c-0.6-0.23-0.89-0.9-0.66-1.5L399.63,39
			c0.23-0.6,0.9-0.89,1.5-0.66l27.24,10.55C428.97,49.12,429.27,49.79,429.03,50.39z"/>
		<path class="st3" d="M429.03,50.39l-0.34,0.87l-15.86,4.11c-1.55,0.43-3.21-0.19-4.09-1.54l-9.3-14.32l0.19-0.49
			c0.23-0.6,0.9-0.89,1.5-0.66l27.24,10.55C428.97,49.12,429.26,49.79,429.03,50.39z"/>
	</g>
	<g>
		<g>
			<path class="st3" d="M251.57,126.12c-0.06-0.37-0.03-0.73,0.06-1.07c0.44-3.34,5.1-3.9,11.64-5.19c1.09-0.21,0.24-1.4-0.63-4.17
				c-0.57-1.8,0.14-4.84,2.15-5.18c3.31-0.57,0.57,2.58,4.6,8.5c2.15,3.16,5.32,0.64,5.91,4.09l1.35,7.85
				c0.23,1.34,0.32,2.66-1.54,3.19c-1.8,0.52-1.16,1.76-3.82,2.21l-13.27,2.28c-1.35,0.23-2.64-0.67-2.87-2.02
				c-0.1-0.56,0.01-1.1,0.26-1.57c-0.82-0.29-1.47-0.99-1.63-1.91c-0.1-0.56,0.01-1.1,0.26-1.56c-0.82-0.29-1.48-0.99-1.63-1.91
				c-0.11-0.67,0.05-1.32,0.41-1.83C252.18,127.5,251.7,126.88,251.57,126.12L251.57,126.12z"/>
			<path class="st4" d="M260.77,127.05l-6.33,1.09c-0.86,0.15-1.75-0.17-2.31-0.83c-0.23-0.27-0.2-0.68,0.07-0.92
				c0.27-0.23,0.69-0.2,0.92,0.07c0.27,0.31,0.69,0.47,1.1,0.4l6.48-1.12c0.64-0.11,1.07-0.72,0.96-1.36
				c-0.11-0.64-0.72-1.07-1.36-0.96l-4.33,0.75c-0.36,0.06-0.69-0.18-0.75-0.53c-0.06-0.35,0.18-0.69,0.53-0.75l4.33-0.75
				c1.35-0.23,2.64,0.67,2.87,2.02c0.13,0.75-0.11,1.48-0.57,2.02c0.53,0.37,0.92,0.93,1.03,1.61c0.13,0.75-0.11,1.48-0.57,2.02
				c0.53,0.36,0.91,0.93,1.03,1.61c0.14,0.82-0.15,1.61-0.69,2.17c0.46,0.36,0.8,0.89,0.9,1.51c0.23,1.35-0.68,2.63-2.03,2.86
				l-4.03,0.69c-0.86,0.15-1.75-0.17-2.31-0.83c-0.23-0.27-0.2-0.68,0.07-0.92c0.28-0.23,0.69-0.2,0.92,0.07
				c0.27,0.31,0.69,0.47,1.1,0.4l4.03-0.69c0.64-0.11,1.08-0.72,0.96-1.36c-0.11-0.64-0.72-1.07-1.36-0.96l-4.79,0.82
				c-0.86,0.15-1.75-0.17-2.31-0.83c-0.23-0.27-0.2-0.68,0.07-0.92c0.28-0.24,0.69-0.2,0.92,0.07c0.27,0.32,0.69,0.47,1.1,0.4
				l5.2-0.89c0.64-0.11,1.07-0.72,0.96-1.36c-0.11-0.64-0.72-1.07-1.36-0.96l-5.95,1.02c-0.86,0.15-1.75-0.17-2.31-0.83
				c-0.23-0.27-0.2-0.68,0.07-0.92c0.28-0.23,0.69-0.2,0.92,0.07c0.27,0.32,0.69,0.47,1.1,0.4l6.11-1.05
				c0.64-0.11,1.08-0.72,0.97-1.36C262.03,127.37,261.41,126.94,260.77,127.05L260.77,127.05z"/>
		</g>
		<path class="st4" d="M277.05,134.42l4.13-0.71c0.57-0.1,0.96-0.64,0.86-1.21l-2.11-12.28c-0.1-0.57-0.64-0.96-1.21-0.86
			l-4.13,0.71c-0.57,0.1-0.96,0.64-0.86,1.21l2.11,12.28C275.93,134.14,276.48,134.52,277.05,134.42z"/>
	</g>
	<g>
		<g>
			<path class="st26" d="M556.47,49.13c0.09-0.36,0.09-0.73,0.02-1.07c-0.21-3.36-4.82-4.25-11.25-5.98
				c-1.08-0.29-0.15-1.41,0.92-4.11c0.69-1.76,0.2-4.83-1.78-5.32c-3.26-0.8-0.75,2.53-5.18,8.16c-2.37,3.01-5.35,0.27-6.18,3.67
				l-1.89,7.74c-0.32,1.32-0.5,2.63,1.31,3.29c1.76,0.65,1.04,1.83,3.65,2.47l13.08,3.2c1.33,0.33,2.68-0.49,3.01-1.82
				c0.13-0.55,0.06-1.1-0.15-1.58c0.84-0.23,1.54-0.89,1.76-1.79c0.13-0.55,0.06-1.1-0.15-1.58c0.84-0.23,1.54-0.88,1.76-1.79
				c0.16-0.66,0.04-1.32-0.28-1.86C555.77,50.46,556.29,49.88,556.47,49.13L556.47,49.13z"/>
			<path class="st4" d="M547.23,49.42l6.24,1.53c0.85,0.21,1.76-0.05,2.37-0.67c0.25-0.26,0.25-0.67-0.01-0.92
				c-0.26-0.25-0.67-0.25-0.92,0.01c-0.29,0.3-0.72,0.42-1.12,0.32l-6.39-1.56c-0.63-0.15-1.02-0.79-0.87-1.42
				c0.15-0.63,0.79-1.02,1.43-0.86l4.27,1.04c0.35,0.09,0.7-0.13,0.79-0.48c0.09-0.35-0.13-0.7-0.48-0.79l-4.27-1.04
				c-1.33-0.33-2.68,0.49-3.01,1.81c-0.18,0.74,0,1.48,0.42,2.05c-0.55,0.33-0.98,0.87-1.14,1.54c-0.18,0.74,0,1.48,0.43,2.06
				c-0.55,0.33-0.97,0.86-1.14,1.53c-0.2,0.81,0.03,1.62,0.54,2.21c-0.48,0.33-0.86,0.83-1.01,1.44c-0.32,1.33,0.5,2.67,1.83,3
				l3.98,0.97c0.85,0.21,1.76-0.05,2.37-0.67c0.25-0.26,0.25-0.67-0.01-0.92c-0.26-0.25-0.67-0.25-0.92,0.01
				c-0.29,0.3-0.72,0.42-1.13,0.32l-3.98-0.97c-0.63-0.15-1.02-0.79-0.87-1.42c0.15-0.63,0.79-1.02,1.43-0.86l4.72,1.15
				c0.85,0.21,1.76-0.05,2.37-0.67c0.25-0.26,0.25-0.67-0.01-0.92c-0.26-0.26-0.67-0.25-0.92,0.01c-0.3,0.3-0.72,0.42-1.13,0.32
				l-5.12-1.25c-0.63-0.15-1.02-0.79-0.87-1.42c0.15-0.63,0.79-1.02,1.43-0.86l5.87,1.44c0.85,0.21,1.76-0.05,2.37-0.67
				c0.25-0.26,0.25-0.67-0.01-0.92c-0.26-0.25-0.67-0.25-0.92,0.01c-0.3,0.3-0.72,0.42-1.13,0.32l-6.03-1.47
				c-0.63-0.15-1.02-0.79-0.87-1.42C545.96,49.65,546.6,49.26,547.23,49.42L547.23,49.42z"/>
		</g>
		<path class="st4" d="M530.48,55.64l-4.07-1c-0.56-0.14-0.91-0.71-0.77-1.27l2.96-12.11c0.14-0.56,0.71-0.91,1.27-0.77l4.07,1
			c0.56,0.14,0.91,0.71,0.77,1.27l-2.96,12.11C531.61,55.44,531.04,55.78,530.48,55.64z"/>
	</g>
	
		<ellipse transform="matrix(0.2298 -0.9732 0.9732 0.2298 86.9843 526.6002)" class="st3" cx="376.19" cy="208.35" rx="7.23" ry="7.23"/>
	<circle class="st3" cx="255.49" cy="36.49" r="5.13"/>
	<path class="st3" d="M612.5,155.87c-2,2-5.25,2-7.25,0c-2-2-2-5.25,0-7.25c2-2,5.25-2,7.25,0
		C614.5,150.63,614.5,153.87,612.5,155.87z"/>
	<path class="st3" d="M361.49,39.89c-2,2-5.25,2-7.25,0c-2-2-2-5.25,0-7.25c2-2,5.25-2,7.25,0C363.5,34.64,363.5,37.88,361.49,39.89
		z"/>
	<g>
		<path class="st3" d="M391.53,202.17c-2.94,0-5.33-2.39-5.33-5.33s2.39-5.33,5.33-5.33c2.94,0,5.33,2.39,5.33,5.33
			S394.47,202.17,391.53,202.17z M391.53,193.55c-1.81,0-3.29,1.48-3.29,3.29c0,1.81,1.48,3.29,3.29,3.29
			c1.81,0,3.29-1.48,3.29-3.29C394.82,195.03,393.34,193.55,391.53,193.55z"/>
	</g>
	<g>
		<path class="st3" d="M602.14,177.05c-3.71,0-6.74-3.02-6.74-6.74c0-3.71,3.02-6.74,6.74-6.74c3.71,0,6.74,3.02,6.74,6.74
			C608.87,174.03,605.85,177.05,602.14,177.05z M602.14,166.16c-2.29,0-4.16,1.86-4.16,4.16c0,2.29,1.86,4.16,4.16,4.16
			c2.29,0,4.16-1.86,4.16-4.16C606.29,168.02,604.43,166.16,602.14,166.16z"/>
	</g>
</g>
</svg>
