<?xml version="1.0" encoding="utf-8"?>
<!-- Generator: Adobe Illustrator 23.0.5, SVG Export Plug-In . SVG Version: 6.00 Build 0)  -->
<svg version="1.0" id="Layer_1" xmlns="http://www.w3.org/2000/svg" xmlns:xlink="http://www.w3.org/1999/xlink" x="0px" y="0px"
	 viewBox="0 0 624 320" style="enable-background:new 0 0 624 320;" xml:space="preserve">
<style type="text/css">
	.st0{opacity:0.3;clip-path:url(#SVGID_2_);fill:#35B24A;}
	.st1{clip-path:url(#SVGID_2_);}
	.st2{fill:#00A26D;}
	.st3{opacity:0.38;}
	.st4{fill:#B9CBFD;}
	.st5{opacity:0.18;}
	.st6{opacity:0.8;clip-path:url(#SVGID_4_);}
	.st7{clip-path:url(#SVGID_4_);}
	.st8{opacity:0.8;clip-path:url(#SVGID_6_);}
	.st9{clip-path:url(#SVGID_6_);}
	.st10{opacity:0.8;clip-path:url(#SVGID_8_);}
	.st11{clip-path:url(#SVGID_8_);}
	.st12{opacity:0.8;clip-path:url(#SVGID_10_);}
	.st13{clip-path:url(#SVGID_10_);}
	.st14{opacity:0.8;fill:#B9CBFD;}
	.st15{opacity:0.4;clip-path:url(#XMLID_17_);fill:#2E7DCA;}
	.st16{opacity:0.5;clip-path:url(#XMLID_17_);fill:#0776F4;}
	.st17{opacity:0.31;clip-path:url(#XMLID_18_);fill:#F2B285;}
	.st18{fill:#F2B285;}
	.st19{opacity:0.28;clip-path:url(#XMLID_19_);fill:#C27139;}
	.st20{opacity:0.31;clip-path:url(#XMLID_20_);fill:#B073B1;}
	.st21{fill:#FDBA8D;}
	.st22{opacity:0.28;clip-path:url(#XMLID_21_);fill:#C27139;}
	.st23{fill:#1A2E35;}
	.st24{fill:#404449;}
	.st25{fill:#E11E76;}
	.st26{fill:#FFFFFF;}
	.st27{fill:#0776F4;}
	.st28{fill:#FD9D90;}
	.st29{fill:#CACFD6;}
	.st30{opacity:0.61;clip-path:url(#XMLID_22_);fill:#808BC2;}
	.st31{fill:#808BC2;}
	.st32{clip-path:url(#SVGID_12_);fill:#D3BDFA;}
	.st33{clip-path:url(#SVGID_12_);}
	.st34{fill:#41ABA3;}
	.st35{opacity:0.45;clip-path:url(#XMLID_23_);fill:#F7B59C;}
	.st36{fill:#005173;}
	.st37{fill:#F7B59C;}
	.st38{fill:#72002C;}
	.st39{fill:#E9FCFF;}
	.st40{fill:#F59F9D;}
	.st41{fill:#AB6251;}
	.st42{opacity:0.22;clip-path:url(#XMLID_24_);fill:#606060;}
	.st43{opacity:0.22;clip-path:url(#XMLID_27_);fill:#F5B847;}
	.st44{clip-path:url(#SVGID_14_);fill:#4EBFB9;}
	.st45{clip-path:url(#SVGID_14_);}
	.st46{opacity:0.45;clip-path:url(#XMLID_28_);fill:#F7B59C;}
	.st47{fill:#FFCA33;}
	.st48{opacity:0.52;clip-path:url(#XMLID_29_);fill:#AF73B1;}
	.st49{opacity:0.45;clip-path:url(#XMLID_30_);fill:#F7B59C;}
	.st50{opacity:0.45;clip-path:url(#XMLID_31_);fill:#F7B59C;}
	.st51{fill:#AF73B1;}
	.st52{fill:#F5A29D;}
</style>
<g>
	<defs>
		<rect id="SVGID_1_" width="624" height="320"/>
	</defs>
	<clipPath id="SVGID_2_">
		<use xlink:href="#SVGID_1_"  style="overflow:visible;"/>
	</clipPath>
	<rect y="0" class="st0" width="624" height="320"/>
	<g class="st1">
		<g>
			<g>
				<path class="st2" d="M312,284.13c-33.16,0-64.33-12.91-87.77-36.36c-23.44-23.45-36.36-54.62-36.36-87.77
					c0-33.16,12.91-64.33,36.36-87.77c23.44-23.44,54.62-36.36,87.77-36.36c33.16,0,64.33,12.91,87.77,36.36
					c23.44,23.44,36.36,54.62,36.36,87.77c0,33.16-12.91,64.33-36.36,87.77C376.33,271.22,345.16,284.13,312,284.13z M312,36.22
					c-33.06,0-64.15,12.88-87.53,36.25s-36.25,54.46-36.25,87.53c0,33.06,12.88,64.15,36.25,87.53s54.46,36.25,87.53,36.25
					c33.06,0,64.15-12.88,87.53-36.25c23.38-23.38,36.25-54.46,36.25-87.53c0-33.06-12.88-64.15-36.25-87.53
					C376.15,49.09,345.06,36.22,312,36.22z"/>
			</g>
			<g>
				<path class="st2" d="M312,298.91c-18.75,0-36.94-3.67-54.07-10.92c-16.54-7-31.4-17.01-44.15-29.77
					c-12.76-12.76-22.77-27.61-29.77-44.15c-7.24-17.13-10.92-35.32-10.92-54.07c0-18.75,3.67-36.94,10.92-54.07
					c7-16.54,17.01-31.4,29.77-44.15c12.76-12.76,27.61-22.77,44.15-29.77c17.13-7.24,35.32-10.92,54.07-10.92
					c18.75,0,36.94,3.67,54.07,10.92c16.54,7,31.4,17.01,44.15,29.77c12.76,12.76,22.77,27.61,29.77,44.15
					c7.24,17.13,10.92,35.32,10.92,54.07c0,18.75-3.67,36.94-10.92,54.07c-7,16.54-17.01,31.4-29.77,44.15
					c-12.76,12.76-27.61,22.77-44.15,29.77C348.94,295.23,330.75,298.91,312,298.91z M312,21.48c-18.7,0-36.84,3.66-53.92,10.89
					c-16.49,6.98-31.31,16.96-44.03,29.69c-12.72,12.72-22.71,27.53-29.69,44.03c-7.22,17.08-10.89,35.22-10.89,53.92
					c0,18.7,3.66,36.84,10.89,53.92c6.98,16.49,16.96,31.31,29.69,44.03c12.72,12.72,27.53,22.71,44.03,29.69
					c17.08,7.22,35.22,10.89,53.92,10.89c18.7,0,36.84-3.66,53.92-10.89c16.49-6.98,31.31-16.96,44.03-29.69
					c12.72-12.72,22.71-27.53,29.69-44.03c7.22-17.08,10.89-35.22,10.89-53.92c0-18.7-3.66-36.84-10.89-53.92
					c-6.98-16.49-16.96-31.31-29.69-44.03c-12.72-12.72-27.53-22.71-44.03-29.69C348.84,25.15,330.7,21.48,312,21.48z"/>
			</g>
			<g>
				<path class="st2" d="M312,258.14c-13.25,0-26.1-2.59-38.2-7.71c-11.69-4.94-22.18-12.02-31.2-21.03
					c-9.01-9.01-16.09-19.51-21.03-31.2c-5.12-12.1-7.71-24.95-7.71-38.2c0-13.25,2.6-26.1,7.71-38.2
					c4.94-11.69,12.02-22.18,21.03-31.2c9.01-9.01,19.51-16.09,31.2-21.03c12.1-5.12,24.95-7.71,38.2-7.71
					c13.25,0,26.1,2.6,38.2,7.71c11.69,4.94,22.18,12.02,31.2,21.03c9.01,9.01,16.09,19.51,21.03,31.2
					c5.12,12.1,7.71,24.95,7.71,38.2c0,13.25-2.59,26.1-7.71,38.2c-4.94,11.69-12.02,22.18-21.03,31.2
					c-9.01,9.01-19.51,16.09-31.2,21.03C338.1,255.55,325.25,258.14,312,258.14z M312,62.13c-13.21,0-26.03,2.59-38.1,7.69
					c-11.65,4.93-22.12,11.99-31.11,20.97s-16.04,19.45-20.97,31.11c-5.1,12.07-7.69,24.88-7.69,38.1c0,13.21,2.59,26.03,7.69,38.1
					c4.93,11.65,11.99,22.12,20.97,31.11c8.99,8.99,19.45,16.05,31.11,20.97c12.07,5.1,24.88,7.69,38.1,7.69s26.03-2.59,38.1-7.69
					c11.65-4.93,22.12-11.99,31.11-20.97c8.99-8.99,16.05-19.45,20.97-31.11c5.1-12.07,7.69-24.88,7.69-38.1
					c0-13.21-2.59-26.03-7.69-38.1c-4.93-11.65-11.99-22.12-20.97-31.11s-19.45-16.04-31.11-20.97
					C338.03,64.72,325.21,62.13,312,62.13z"/>
			</g>
			<g class="st3">
				<path class="st4" d="M312,316.37c-21.11,0-41.59-4.13-60.86-12.29c-18.62-7.88-35.34-19.15-49.7-33.51
					c-14.36-14.36-25.63-31.08-33.51-49.7c-8.15-19.28-12.29-39.76-12.29-60.86c0-21.11,4.13-41.59,12.29-60.86
					c7.88-18.62,19.15-35.34,33.51-49.7c14.36-14.36,31.08-25.63,49.7-33.51C270.41,7.77,290.89,3.63,312,3.63
					c21.11,0,41.59,4.13,60.86,12.29c18.62,7.88,35.34,19.15,49.7,33.51c14.36,14.36,25.63,31.08,33.51,49.7
					c8.15,19.28,12.29,39.76,12.29,60.86c0,21.11-4.13,41.59-12.29,60.86c-7.88,18.62-19.15,35.34-33.51,49.7
					c-14.36,14.36-31.08,25.63-49.7,33.51C353.59,312.23,333.11,316.37,312,316.37z M312,4.07c-21.05,0-41.47,4.12-60.69,12.25
					c-18.57,7.85-35.24,19.1-49.56,33.42c-14.32,14.32-25.56,31-33.42,49.56c-8.13,19.22-12.25,39.64-12.25,60.69
					c0,21.05,4.12,41.47,12.25,60.69c7.85,18.57,19.1,35.24,33.42,49.56c14.32,14.32,31,25.56,49.56,33.42
					c19.22,8.13,39.64,12.25,60.69,12.25c21.05,0,41.47-4.12,60.69-12.25c18.57-7.85,35.24-19.1,49.56-33.42
					c14.32-14.32,25.56-31,33.42-49.56c8.13-19.22,12.25-39.64,12.25-60.69c0-21.05-4.12-41.47-12.25-60.69
					c-7.85-18.57-19.1-35.24-33.42-49.56c-14.32-14.32-31-25.56-49.56-33.42C353.47,8.19,333.05,4.07,312,4.07z"/>
			</g>
			<g class="st5">
				<path class="st4" d="M312,335c-23.62,0-46.54-4.63-68.12-13.75c-20.84-8.81-39.55-21.43-55.63-37.5
					c-16.07-16.07-28.69-34.79-37.5-55.63C141.63,206.54,137,183.62,137,160c0-23.62,4.63-46.54,13.75-68.12
					c8.81-20.84,21.43-39.55,37.5-55.63c16.07-16.07,34.79-28.69,55.63-37.5C265.46-10.37,288.38-15,312-15
					c23.62,0,46.54,4.63,68.12,13.75c20.84,8.81,39.55,21.43,55.63,37.5c16.07,16.07,28.69,34.79,37.5,55.63
					C482.37,113.46,487,136.38,487,160c0,23.62-4.63,46.54-13.75,68.12c-8.81,20.84-21.43,39.55-37.5,55.63
					c-16.07,16.07-34.79,28.69-55.63,37.5C358.54,330.37,335.62,335,312,335z M312-14.51c-23.56,0-46.41,4.61-67.93,13.71
					c-20.78,8.79-39.44,21.37-55.47,37.4s-28.61,34.69-37.4,55.47c-9.1,21.51-13.71,44.37-13.71,67.93
					c0,23.56,4.61,46.41,13.71,67.93c8.79,20.78,21.37,39.44,37.4,55.47s34.69,28.61,55.47,37.4c21.51,9.1,44.37,13.71,67.93,13.71
					c23.56,0,46.41-4.61,67.93-13.71c20.78-8.79,39.44-21.37,55.47-37.4s28.61-34.69,37.4-55.47c9.1-21.51,13.71-44.37,13.71-67.93
					c0-23.56-4.61-46.41-13.71-67.93c-8.79-20.78-21.37-39.44-37.4-55.47S400.71,7.99,379.93-0.8C358.41-9.9,335.56-14.51,312-14.51
					z"/>
			</g>
			<g>
				<path class="st2" d="M312,321.57c-21.81,0-42.97-4.27-62.89-12.7c-19.24-8.14-36.52-19.79-51.36-34.63
					c-14.84-14.84-26.49-32.12-34.63-51.36c-8.43-19.92-12.7-41.08-12.7-62.89c0-21.81,4.27-42.97,12.7-62.89
					c8.14-19.24,19.79-36.52,34.63-51.36c14.84-14.84,32.12-26.49,51.36-34.63C269.03,2.7,290.19-1.57,312-1.57
					c21.81,0,42.97,4.27,62.89,12.7c19.24,8.14,36.52,19.79,51.36,34.63c14.84,14.84,26.49,32.12,34.63,51.36
					c8.43,19.92,12.7,41.08,12.7,62.89c0,21.81-4.27,42.97-12.7,62.89c-8.14,19.24-19.79,36.52-34.63,51.36
					c-14.84,14.84-32.12,26.49-51.36,34.63C354.97,317.3,333.81,321.57,312,321.57z M312-1.12c-21.75,0-42.85,4.26-62.71,12.66
					c-19.19,8.12-36.42,19.73-51.21,34.53c-14.8,14.8-26.41,32.03-34.53,51.21c-8.4,19.86-12.66,40.96-12.66,62.71
					c0,21.75,4.26,42.85,12.66,62.71c8.12,19.19,19.73,36.42,34.53,51.21c14.8,14.8,32.03,26.41,51.21,34.53
					c19.86,8.4,40.96,12.66,62.71,12.66c21.75,0,42.85-4.26,62.71-12.66c19.19-8.11,36.42-19.73,51.21-34.53
					c14.8-14.8,26.41-32.03,34.53-51.21c8.4-19.86,12.66-40.96,12.66-62.71c0-21.75-4.26-42.85-12.66-62.71
					c-8.11-19.19-19.73-36.42-34.53-51.21c-14.8-14.8-32.03-26.41-51.21-34.53C354.85,3.14,333.75-1.12,312-1.12z"/>
			</g>
			<g>
				<defs>
					
						<ellipse id="SVGID_3_" transform="matrix(0.2308 -0.973 0.973 0.2308 197.1026 321.2288)" cx="301.73" cy="35.95" rx="8.75" ry="8.75"/>
				</defs>
				<clipPath id="SVGID_4_">
					<use xlink:href="#SVGID_3_"  style="overflow:visible;"/>
				</clipPath>
				<g class="st6">
					
						<ellipse transform="matrix(0.225 -0.9744 0.9744 0.225 198.8091 321.8488)" class="st4" cx="301.73" cy="35.95" rx="11.83" ry="11.83"/>
				</g>
				<g class="st7">
					<g>
						<path class="st2" d="M301.73,47.67c0,0-0.02,0-0.05-0.01c-0.03,0.01-0.05,0.01-0.05,0.01H301.73z"/>
					</g>
					<g>
						<path class="st2" d="M308.6,44.13c-0.1-2.24-1.46-3.7-2.4-3.59c-0.94,0.1-3.13-0.21-3.13-0.21c-0.16-0.36-0.18-0.81-0.14-1.26
							c1.01-0.66,1.77-2.11,1.95-3.87c0.23-0.05,0.47-0.32,0.58-0.69c0.14-0.46,0.04-0.9-0.23-0.98c-0.1-0.03-0.2-0.01-0.3,0.05
							c0.01-2.41-0.07-4.25-3.2-4.25c-2.97,0-3.19,1.81-3.2,4.2c-0.08-0.07-0.18-0.1-0.27-0.09c-0.28,0.03-0.46,0.45-0.4,0.92
							c0.06,0.48,0.33,0.84,0.61,0.8c0.03,0,0.07-0.01,0.1-0.03c0.16,1.71,0.87,3.15,1.83,3.85c0.05,0.47,0.04,0.96-0.13,1.34
							c0,0-2.19,0.31-3.13,0.21c-0.94-0.1-2.29,1.35-2.4,3.59c-0.1,2.13,6.29,3.41,6.93,3.53C302.31,47.54,308.7,46.26,308.6,44.13z
							"/>
					</g>
				</g>
			</g>
			<g>
				<defs>
					<circle id="SVGID_5_" cx="233.99" cy="275.3" r="13.32"/>
				</defs>
				<clipPath id="SVGID_6_">
					<use xlink:href="#SVGID_5_"  style="overflow:visible;"/>
				</clipPath>
				<g class="st8">
					<circle class="st4" cx="233.99" cy="275.3" r="18"/>
				</g>
				<g class="st9">
					<g>
						<path class="st2" d="M233.99,293.14c0,0-0.03-0.01-0.08-0.02c-0.05,0.01-0.08,0.02-0.08,0.02H233.99z"/>
					</g>
					<g>
						<path class="st2" d="M244.46,287.75c-0.16-3.41-2.22-5.63-3.65-5.47c-1.43,0.16-4.76-0.32-4.76-0.32
							c-0.24-0.54-0.28-1.24-0.21-1.92c1.54-1,2.69-3.21,2.96-5.88c0.35-0.07,0.71-0.49,0.88-1.05c0.21-0.7,0.05-1.37-0.35-1.49
							c-0.15-0.04-0.31-0.01-0.46,0.08c0.02-3.66-0.1-6.46-4.88-6.46c-4.51,0-4.85,2.76-4.87,6.39c-0.13-0.11-0.27-0.16-0.42-0.14
							c-0.42,0.05-0.69,0.68-0.61,1.41c0.09,0.73,0.5,1.27,0.92,1.22c0.05-0.01,0.1-0.02,0.15-0.05c0.25,2.61,1.32,4.79,2.79,5.85
							c0.08,0.72,0.06,1.47-0.2,2.04c0,0-3.33,0.48-4.76,0.32c-1.43-0.16-3.49,2.06-3.65,5.47c-0.15,3.24,9.57,5.19,10.54,5.38
							C234.89,292.93,244.61,290.98,244.46,287.75z"/>
					</g>
				</g>
			</g>
			<g>
				<defs>
					
						<ellipse id="SVGID_7_" transform="matrix(0.1608 -0.987 0.987 0.1608 249.203 548.398)" cx="447.09" cy="127.66" rx="9.89" ry="9.89"/>
				</defs>
				<clipPath id="SVGID_8_">
					<use xlink:href="#SVGID_7_"  style="overflow:visible;"/>
				</clipPath>
				<g class="st10">
					
						<ellipse transform="matrix(0.1778 -0.9841 0.9841 0.1778 241.9745 544.9219)" class="st4" cx="447.09" cy="127.66" rx="13.37" ry="13.37"/>
				</g>
				<g class="st11">
					<g>
						<path class="st2" d="M447.09,140.91c0,0-0.02,0-0.06-0.01c-0.04,0.01-0.06,0.01-0.06,0.01H447.09z"/>
					</g>
					<g>
						<path class="st2" d="M454.86,136.9c-0.12-2.53-1.65-4.18-2.71-4.06s-3.53-0.24-3.53-0.24c-0.18-0.4-0.2-0.92-0.16-1.43
							c1.15-0.74,2-2.38,2.2-4.37c0.26-0.05,0.53-0.36,0.66-0.78c0.16-0.52,0.04-1.02-0.26-1.11c-0.11-0.03-0.23-0.01-0.34,0.06
							c0.02-2.72-0.07-4.8-3.62-4.8c-3.35,0-3.6,2.05-3.62,4.75c-0.1-0.08-0.2-0.12-0.31-0.1c-0.31,0.04-0.51,0.51-0.45,1.05
							c0.06,0.54,0.37,0.95,0.68,0.91c0.04,0,0.08-0.02,0.11-0.03c0.18,1.94,0.98,3.56,2.07,4.35c0.06,0.53,0.05,1.09-0.15,1.52
							c0,0-2.47,0.35-3.53,0.24c-1.06-0.12-2.59,1.53-2.71,4.06c-0.11,2.41,7.11,3.85,7.83,3.99
							C447.75,140.76,454.97,139.31,454.86,136.9z"/>
					</g>
				</g>
			</g>
			<g>
				<path class="st2" d="M186.81,210.23c0,2.31-1.87,4.19-4.19,4.19c-2.31,0-4.19-1.87-4.19-4.19c0-2.31,1.87-4.19,4.19-4.19
					C184.93,206.04,186.81,207.92,186.81,210.23z"/>
			</g>
			<g>
				<path class="st2" d="M455.08,170.27c0,2.31-1.87,4.19-4.19,4.19c-2.31,0-4.19-1.87-4.19-4.19c0-2.31,1.87-4.19,4.19-4.19
					C453.2,166.09,455.08,167.96,455.08,170.27z"/>
			</g>
			<g>
				<path class="st2" d="M352.47,28.45c-0.9,1.13-2.55,1.31-3.67,0.41c-1.13-0.9-1.31-2.55-0.41-3.67c0.9-1.13,2.55-1.31,3.67-0.41
					C353.19,25.68,353.38,27.32,352.47,28.45z"/>
			</g>
			<g>
				<path class="st2" d="M338.93,280.95c0.24,1.42-0.71,2.77-2.13,3.02s-2.77-0.71-3.02-2.13c-0.24-1.42,0.71-2.77,2.13-3.02
					C337.33,278.57,338.68,279.52,338.93,280.95z"/>
			</g>
			<g>
				<path class="st2" d="M265.5,313.38c0.24,1.42-0.71,2.77-2.13,3.02c-1.42,0.24-2.77-0.71-3.02-2.13
					c-0.24-1.42,0.71-2.77,2.13-3.02C263.91,311,265.26,311.96,265.5,313.38z"/>
			</g>
			<g>
				<path class="st2" d="M473.25,189.62c0.24,1.42-0.71,2.77-2.13,3.02c-1.42,0.24-2.77-0.71-3.02-2.13
					c-0.24-1.42,0.71-2.77,2.13-3.02C471.66,187.24,473.01,188.2,473.25,189.62z"/>
			</g>
			<g>
				<path class="st2" d="M209.55,35.51c0.24,1.42-0.71,2.77-2.13,3.02c-1.42,0.24-2.77-0.71-3.02-2.13s0.71-2.77,2.13-3.02
					C207.95,33.13,209.31,34.08,209.55,35.51z"/>
			</g>
		</g>
		<g>
			<defs>
				<circle id="SVGID_9_" cx="151.42" cy="178.03" r="6.47"/>
			</defs>
			<clipPath id="SVGID_10_">
				<use xlink:href="#SVGID_9_"  style="overflow:visible;"/>
			</clipPath>
			<g class="st12">
				<circle class="st4" cx="151.42" cy="178.03" r="8.74"/>
			</g>
			<g class="st13">
				<g>
					<path class="st2" d="M151.42,186.69c0,0-0.01,0-0.04-0.01c-0.02,0-0.04,0.01-0.04,0.01H151.42z"/>
				</g>
				<g>
					<path class="st2" d="M156.5,184.07c-0.08-1.66-1.08-2.73-1.77-2.66c-0.69,0.08-2.31-0.15-2.31-0.15
						c-0.12-0.26-0.13-0.6-0.1-0.93c0.75-0.48,1.31-1.56,1.44-2.86c0.17-0.03,0.35-0.24,0.43-0.51c0.1-0.34,0.03-0.66-0.17-0.72
						c-0.07-0.02-0.15-0.01-0.22,0.04c0.01-1.78-0.05-3.14-2.37-3.14c-2.19,0-2.36,1.34-2.37,3.1c-0.06-0.05-0.13-0.08-0.2-0.07
						c-0.2,0.02-0.34,0.33-0.29,0.68c0.04,0.35,0.24,0.62,0.45,0.59c0.03,0,0.05-0.01,0.07-0.02c0.12,1.27,0.64,2.33,1.36,2.84
						c0.04,0.35,0.03,0.71-0.1,0.99c0,0-1.62,0.23-2.31,0.15c-0.69-0.08-1.69,1-1.77,2.66c-0.07,1.57,4.65,2.52,5.12,2.61
						C151.85,186.59,156.57,185.65,156.5,184.07z"/>
				</g>
			</g>
		</g>
		<path class="st14" d="M426.86,163.4c0-62.47-50.65-113.12-113.12-113.12S200.62,100.93,200.62,163.4
			c0,27.27,9.65,52.29,25.72,71.82h174.79C417.2,215.69,426.86,190.67,426.86,163.4z"/>
		<g>
			<g>
				<defs>
					<path id="XMLID_12_" d="M396.62,186.91c-6.55-16-14-18.99-14-18.99s0.23-0.31,0.61-0.87c3.04,1.31,5.66,3.73,7.32,6.49
						c0.13,0.22,0.48,0.02,0.35-0.2c-1.69-2.8-4.35-5.28-7.43-6.63c0.16-0.24,0.34-0.52,0.53-0.83c2.31,0.47,4.56,1.36,6.65,2.39
						c0.23,0.11,0.43-0.23,0.2-0.35c-2.1-1.03-4.33-1.92-6.64-2.4c4.05-6.66,12.77-25.02-12.74-27.12c1.59-1.73,3.8-2.82,5.99-3.6
						c0.24-0.09,0.14-0.47-0.11-0.39c-2.19,0.78-4.37,1.84-6,3.53c0.25-1.13,0.62-2.23,1.05-3.29c0.1-0.24-0.29-0.34-0.39-0.11
						c-0.47,1.16-0.87,2.37-1.11,3.61c-0.4-0.37-1.31-1.2-2.61-2.24c-0.7-1.04-1.49-2.01-2.33-2.87
						c-4.35-4.48-10.45-5.98-16.54-5.39c-0.1,0.01-0.16,0.07-0.18,0.15c-3.67-0.03-7.4,1.04-10.85,3.92
						c-4.27,3.57-4.88,9.04-3.79,14.3c0.07,0.83,0.22,1.64,0.3,2.18c0.64,3.94,2.36,7.64,4.46,11.03c-2.61,0.44-7.31,2.01-6.34,7.61
						c1.34,7.67,7.65,17.33,0.17,18.34c-7.47,1.01-11.08,18.12,15.39,34.11c26.47,15.98,51.63,0.85,41.19-11.81
						C389.77,207.48,403.17,202.91,396.62,186.91z M335.57,149.54c1.36,3.91,3.47,7.42,5.42,9.52c0,0-0.48,0.01-1.21,0.11
						C337.92,156.18,336.37,152.97,335.57,149.54z M365.82,133.49c0.46,0.49,0.91,1.01,1.34,1.56c-3.69-2.77-9.54-6.37-15.8-7.11
						C356.76,127.82,362,129.45,365.82,133.49z"/>
				</defs>
				<use xlink:href="#XMLID_12_"  style="overflow:visible;fill:#1A2E35;"/>
				<clipPath id="XMLID_17_">
					<use xlink:href="#XMLID_12_"  style="overflow:visible;"/>
				</clipPath>
				<path class="st15" d="M371.29,159.86c0,0-2.89,1.47-3.53,2.79c-0.65,1.32,0.69,9.59,0.69,9.59l16.8,13.33
					c0,0,4.53,34.67-6.67,44c-11.2,9.33-52.53-32.8-52.53-32.8l11.73-14.93l10.93-3.47l1.87-8c0,0-11.73-5.55-2.26-24.64
					c9.46-19.09,0,0,0,0L371.29,159.86"/>
				<path class="st16" d="M350.05,142.63l-5.87-1.06c0,0,2.13,3.2,8,1.87C358.05,142.1,350.05,142.63,350.05,142.63"/>
			</g>
			<g>
				<defs>
					<path id="XMLID_11_" d="M349.52,182.64l-2.4-4.27c0,0-6.96,0.69-9.49,3.64c-2.53,2.95-18.58,32.32-18.58,32.32
						s-6.95,3.3-12.67,6.12c1.43,0.89,3.06,2.52,4,5.69c5.02-1.81,11.59-4.58,13.97-6.29c0,0,15.5-11.86,17.18-19.87
						C343.2,191.96,349.52,182.64,349.52,182.64z"/>
				</defs>
				<use xlink:href="#XMLID_11_"  style="overflow:visible;fill:#F2B285;"/>
				<clipPath id="XMLID_18_">
					<use xlink:href="#XMLID_11_"  style="overflow:visible;"/>
				</clipPath>
				<path class="st17" d="M334.32,212.24c0,0-6.4-5.07,3.47-18.13c8.99-11.91,7.47,3.73,7.47,3.73l-6.57,14.31L334.32,212.24z"/>
			</g>
			<path class="st18" d="M306.37,220.44c-7.15,3.52-15.29,7.52-15.76,7.76c-0.84,0.42-7.59-1.69-8.43-1.27
				c-0.84,0.42-5.48,2.95-7.17,3.37c-1.69,0.42,4.22,1.27,6.75,0c2.53-1.27,3.37,1.27,5.48,1.69c2.11,0.42,3.37,0.84,4.64,0
				c0,0,9.73-2.7,18.49-5.87C309.43,222.96,307.8,221.33,306.37,220.44z"/>
			<g>
				<defs>
					<path id="XMLID_10_" d="M353.86,167.89c0,0,1.27,4.64-4.22,10.12l-2.95,5.48l6.33,7.17l6.33,2.11l13.49-15.6l-5.9-3.8
						l-1.69-17.29L353.86,167.89z"/>
				</defs>
				<use xlink:href="#XMLID_10_"  style="overflow:visible;fill:#FDBA8D;"/>
				<clipPath id="XMLID_19_">
					<use xlink:href="#XMLID_10_"  style="overflow:visible;"/>
				</clipPath>
				<path class="st19" d="M352.98,170.9c0,0,11.73-0.53,12-7.73C365.25,155.97,351.65,167.97,352.98,170.9z"/>
			</g>
			<g>
				<defs>
					<path id="XMLID_9_" d="M351.78,175.48c0,0,2.5,7.17,15.16-2.1c0,0,7.89,4.21,10.04,5.53c4.8,2.93,5.82,2.44,7.09,7.08
						l-11.23,37.15l3.8,14.76l-40.5,0.07l3.59-16.41c0.39-4.14-1.22-8.08-4.16-10.92c-5.79-5.6,1.97-14.86,8.08-31.73
						C344.15,177.51,351.78,175.48,351.78,175.48z"/>
				</defs>
				<use xlink:href="#XMLID_9_"  style="overflow:visible;fill:#FD4471;"/>
				<clipPath id="XMLID_20_">
					<use xlink:href="#XMLID_9_"  style="overflow:visible;"/>
				</clipPath>
				<path class="st20" d="M372.45,192.77c0,0-7.2,9.33-6.4,27.2c0,0-22.21,7.65-31.64,7.16c-9.43-0.49,1.24,6.44,1.24,6.44
					s26.67,2.03,38.93-6.45S372.45,192.77,372.45,192.77"/>
			</g>
			<path class="st21" d="M336.47,228l-10.44-4.44l-4.36-3.27c-0.28-0.21-0.62-0.3-0.96-0.27l-5.03,0.46
				c-0.2,0.02-0.4,0.09-0.56,0.22c-0.88,0.67-3.73,2.87-3.02,2.87c0.84,0,2.53-0.42,3.8-1.27c0,0,3.8,0,4.22-0.42
				c0,0,1.69,1.69,2.53,2.11c0.84,0.42,0.42,0,0.42,0l-5.65,1.72c-0.29,0.09-0.54,0.27-0.72,0.52c-0.71,1.03-2.65,3.82-3.34,4.51
				c0,0,2.11,0.84,3.8-1.69c1.69-2.53,6.33-2.53,6.75-2.11c0,0-5.9,3.37-7.59,6.75c0,0,0.8,2.07,2.11,0.42
				c2.54-3.2,5.88-4.2,7.17-4.64l-2.4,2.75c-0.3,0.35-0.26,0.87,0.08,1.17l2.32,1.99c0,0,0.42-1.69-0.42-2.53l2.11-2.11
				c0,0,2.33,4.64,9.18,1.9V228z"/>
			<path class="st21" d="M354.87,224.68c-9,1.88-19.11,3.43-19.11,3.43l0.18,4.5c9.23,0.2,16.67-0.37,22.5-1.23
				C358.25,227.94,356.53,225.88,354.87,224.68z"/>
			<path class="st21" d="M382.32,182.1c-5.45-2.36-10.06,10.63-10.06,10.63c-5.9,12.23-4.48,28.3-4.48,28.3
				c-1.96,1.14-7.21,2.47-12.91,3.65c1.66,1.19,3.37,3.25,3.57,6.7c12.15-1.8,17.35-4.87,17.35-4.87
				C380.85,218.92,387.77,184.47,382.32,182.1z"/>
			<g>
				<defs>
					<path id="XMLID_8_" d="M356.18,135.97c0,0-11.73,8.8-10.19,22.34c0.71,6.19,2.1,8.12,4.59,9.93c2.93,2.13,12.71,0.8,15.26-4.12
						l1.35-4c0,0,2.39,2.14,4.8-1.05c2.41-3.19,1.9-8.26-1.58-5.87l2.16-6.39l-2.11-5.61L356.18,135.97z"/>
				</defs>
				<use xlink:href="#XMLID_8_"  style="overflow:visible;fill:#FDBA8D;"/>
				<clipPath id="XMLID_21_">
					<use xlink:href="#XMLID_8_"  style="overflow:visible;"/>
				</clipPath>
				<path class="st22" d="M347.77,143.23c0,0,4.41,1.8,8.41-5.93c0,0,1.07,12.53,9.33,12.27l-2.4-2.13c0,0,0.95,8.8,6.47,5.6
					c5.53-3.2-11.27-20-11.27-20l-11.22,4L347.77,143.23"/>
			</g>
			<path class="st23" d="M372.45,141.84l-8.53-4.27l-12-2.93c0,0-14.67,5.07-8,8c5.85,2.57,10.88-3.27,12.02-4.74
				c-0.12,1.81,0.04,4.67,1.72,7.11c1.44,2.09,3.71,3.5,6.76,4.21c-0.15,4.14,4.83,4.89,4.83,4.89l2.13-1.6l4.27-1.33L372.45,141.84
				z M357.88,144.85c-0.99-1.44-1.44-3.04-1.61-4.47c1.3,4.94,8.18,8.38,8.18,8.38c-0.01,0.06-0.01,0.12-0.01,0.18
				C361.47,148.25,359.27,146.88,357.88,144.85z"/>
			<path class="st24" d="M364.45,133.16c0,0,3.2-1.45,6.4,4.95c0,0,4,9.33,0,17.87h-0.8C370.05,155.97,371.65,140.21,364.45,133.16z
				"/>
			<circle class="st25" cx="370.85" cy="156.77" r="3.73"/>
			<path class="st24" d="M357.5,153.7c-0.21,0.86-0.62,1.49-0.9,1.42c-0.29-0.07-0.34-0.82-0.13-1.68c0.21-0.86,0.62-1.49,0.9-1.42
				C357.66,152.09,357.71,152.84,357.5,153.7z"/>
			<path class="st24" d="M350.31,152.28c-0.07,0.88-0.37,1.58-0.66,1.55c-0.29-0.02-0.47-0.76-0.4-1.64
				c0.07-0.88,0.37-1.58,0.66-1.55C350.21,150.67,350.39,151.4,350.31,152.28z"/>
			<path class="st26" d="M349.52,163.13c0,0,4.93,1.41,8.8-2.46c0,0,0,4.58-6.34,5.28C351.98,165.94,350.92,165.94,349.52,163.13z"
				/>
			<path class="st27" d="M348.81,148.13c0.06-0.24,0.18-0.47,0.35-0.67c0.17-0.2,0.39-0.37,0.65-0.47c0.25-0.1,0.53-0.2,0.8-0.13
				c0.13,0.02,0.26,0.08,0.38,0.14c0.11,0.07,0.22,0.15,0.31,0.26l-0.02,0.05c-0.14,0.04-0.26,0.05-0.38,0.06
				c-0.12,0.02-0.23,0.02-0.34,0.03c-0.11,0.01-0.21,0-0.31,0c-0.11-0.02-0.21-0.01-0.31,0.01c-0.21,0.04-0.41,0.13-0.59,0.25
				c-0.19,0.12-0.35,0.3-0.48,0.49L348.81,148.13z"/>
			<path class="st27" d="M359.56,148.13c-0.06-0.24-0.18-0.47-0.35-0.67c-0.17-0.2-0.39-0.37-0.65-0.47c-0.25-0.1-0.53-0.2-0.8-0.13
				c-0.13,0.02-0.26,0.08-0.38,0.14c-0.11,0.07-0.22,0.15-0.31,0.26l0.02,0.05c0.14,0.04,0.26,0.05,0.38,0.06
				c0.12,0.02,0.23,0.02,0.34,0.03c0.11,0.01,0.21,0,0.31,0c0.11-0.02,0.21-0.01,0.31,0.01c0.21,0.04,0.41,0.13,0.59,0.25
				c0.19,0.12,0.35,0.3,0.48,0.49L359.56,148.13z"/>
			<path class="st28" d="M351.71,159.86c0,0-3.65-1.4-2.81-1.96c0.67-0.44,2.22-2.83,2.83-4.22c0.08-0.17,0.33-0.13,0.34,0.06
				C352.19,155.17,352.32,158.03,351.71,159.86z"/>
			<g>
				<circle class="st24" cx="370.85" cy="156.77" r="1.6"/>
				<g>
					<path class="st24" d="M367.44,164.5h-12.06v-0.62h11.74c0.48-0.93,2.99-5.77,3.23-6.32l0.5,0.28c-0.28,0.62-3.2,6.26-3.33,6.5
						L367.44,164.5z"/>
				</g>
				<ellipse class="st24" cx="354.85" cy="164.1" rx="1.6" ry="0.67"/>
			</g>
			<path class="st29" d="M405.78,238.9H222.05c-1.33,0-2.4-1.07-2.4-2.4l0,0c0-1.33,1.07-2.4,2.4-2.4h183.73
				c1.33,0,2.4,1.07,2.4,2.4l0,0C408.18,237.83,407.11,238.9,405.78,238.9z"/>
			<g>
				<defs>
					<path id="XMLID_7_" d="M233.97,175.71l1.56,45.67c0.1,2.83,2.42,5.08,5.26,5.08h65.68c2.98,0,5.36-2.47,5.26-5.44l-1.56-45.67
						c-0.1-2.83-2.42-5.08-5.26-5.08h-65.68C236.25,170.27,233.87,172.74,233.97,175.71z"/>
				</defs>
				<use xlink:href="#XMLID_7_"  style="overflow:visible;fill:#808BC2;"/>
				<clipPath id="XMLID_22_">
					<use xlink:href="#XMLID_7_"  style="overflow:visible;"/>
				</clipPath>
				<path class="st30" d="M277.78,205.57c0,0-5.07,19.73,0,25.33c5.07,5.6-28-2.13-28-2.13s4.53-16.27,17.07-23.2
					c12.53-6.93,0,0,0,0l5.87,3.73L277.78,205.57"/>
			</g>
			<path class="st31" d="M266.85,205.57h10.93c0,0-16.53,26.67-1.73,28.53h-22.8C253.25,234.1,248.72,223.44,266.85,205.57z"/>
			<path class="st26" d="M270.58,187c0-0.51,0.08-1,0.23-1.45c-0.07,0-0.15-0.01-0.23-0.01c-3.11,0-5.63,2.52-5.63,5.63
				c0,3.11,2.52,5.63,5.63,5.63c2.92,0,5.32-2.23,5.6-5.07c-0.26,0.04-0.53,0.07-0.81,0.07C272.73,191.79,270.58,189.65,270.58,187z
				"/>
		</g>
		<g>
			<defs>
				
					<ellipse id="SVGID_11_" transform="matrix(0.0308 -0.9995 0.9995 0.0308 37.096 244.8373)" cx="144.79" cy="103.29" rx="55.49" ry="55.49"/>
			</defs>
			<use xlink:href="#SVGID_11_"  style="overflow:visible;fill:#739FE0;"/>
			<clipPath id="SVGID_12_">
				<use xlink:href="#SVGID_11_"  style="overflow:visible;"/>
			</clipPath>
			
				<ellipse transform="matrix(0.7071 -0.7071 0.7071 0.7071 -30.629 132.6371)" class="st32" cx="144.79" cy="103.29" rx="67.6" ry="67.6"/>
			<g class="st33">
				<path class="st34" d="M139,108c0,0-14.48,0-19.54,2.53c-5.07,2.53-7.6,9.05-6.51,13.39c1.09,4.34-4.71,15.2,1.45,20.99
					c5.53,5.2,9.88,4.56,11.76,3.86c0.21-0.08,0.39-0.16,0.54-0.24c1.45-0.72,0,19.18,0,19.18s36.56,2.17,38.73,0
					c2.17-2.17,2.9-47.78-2.17-52.84c-5.07-5.07-19.18-6.88-19.18-6.88H139z"/>
				<g>
					<defs>
						<path id="XMLID_3_" d="M137.73,95.15L137.19,108l11.88,7.88c0.46,0.3,1.08,0.03,1.18-0.51l1.96-10.45L140.63,90.8
							L137.73,95.15z"/>
					</defs>
					<use xlink:href="#XMLID_3_"  style="overflow:visible;fill:#F7B59C;"/>
					<clipPath id="XMLID_23_">
						<use xlink:href="#XMLID_3_"  style="overflow:visible;"/>
					</clipPath>
					<path class="st35" d="M136.83,103.29c0,0,1.81,1.45,3.26,0c0,0,8.32,14.12,15.56,11.58c7.24-2.53-7.6-14.12-7.6-14.12
						l-7.58-5.73l-4.36,3.2L136.83,103.29z"/>
				</g>
				<path class="st36" d="M138.46,90.44c5.79-0.36,6.52-9.77,6.52-10.86c0-1.09,9.05-3.98,11.22-2.9c2.07,1.03,2.61,7.67,2.71,8.14
					c3.18-1.93,5.97-8.8,4.52-12.85c-1.81-5.07-3.98-3.26-5.43-2.17c-1.45,1.09-1.45-3.98-9.05-8.32c-7.6-4.34,1.09,5.07-7.96,4.34
					c-9.05-0.72-9.77,8.32-9.77,8.32c-4.71,0-7.96,3.98-4.34,7.96c3.62,3.98,0.72,4.34,0,7.96c-0.38,1.89,3.28,2.69,6.87,3.03
					C134.78,91.73,136.29,90.58,138.46,90.44z"/>
				<path class="st37" d="M147.87,95.87c6.66,2.9,12.85-0.46,15.06-1.92c-1.61-2.55-2.99-5.11-3.12-7.49
					c-0.06-1.17-0.23-2.25-0.46-3.24c0.03-0.02,0.06-0.04,0.09-0.06c-0.1-0.48-1.18-5.44-3.25-6.47c-2.17-1.09-11.22,1.81-11.22,2.9
					c0,0.86-0.46,6.98-3.56,9.64C142.54,91.8,144.49,94.4,147.87,95.87z"/>
				<path class="st36" d="M162.93,93.95c-2.21,1.46-8.4,4.82-15.06,1.92c-3.38-1.47-5.33-4.07-6.45-6.65
					c-0.8,0.69-1.77,1.15-2.96,1.22c-2.17,0.14-3.67,1.28-4.71,2.67c3.29,0.31,6.52,0.23,6.52,0.23
					c1.81,20.63,23.53,19.18,27.15,13.75C169.78,103.54,165.96,98.76,162.93,93.95z"/>
				
					<rect x="127.07" y="88.66" transform="matrix(-0.9985 -0.0555 0.0555 -0.9985 265.4186 193.2261)" class="st38" width="16.65" height="8.55"/>
				<path class="st37" d="M126.15,103.47c0,0,0-11.22,1.81-12.67c1.81-1.45,6.15-6.88,8.32-5.43c2.17,1.45,1.09,2.17,2.53,2.9
					c1.45,0.72,0.72,1.81,1.81,2.53c1.09,0.72,2.53,3.62,1.81,3.62s-3.26,0-3.26,0s-5.07,9.41-7.24,9.05l-0.36,1.45h-5.43V103.47z"
					/>
				<path class="st37" d="M131.4,104.74c0,0,0.72,35.83-2.53,38c-3.26,2.17-11.94-0.36-10.13-7.6c1.81-7.24,8.32-33.66,8.32-33.66
					L131.4,104.74z"/>
				<path class="st39" d="M148.05,98.22c0,0,6.33,1.9,9.22,1.26c0.23-0.05,0.42,0.17,0.34,0.39c-0.31,0.88-0.88,2.53-0.88,3.06
					C156.74,103.65,150.22,102.57,148.05,98.22z"/>
				<path class="st40" d="M155.14,87.37c0,0,8.45,5.08,6.16,7.27c-2.29,2.19-4.07,1.84-4.07,1.84S154.28,88.66,155.14,87.37z"/>
				<path class="st41" d="M148.05,89.18c-0.04-0.45,0.09-0.91,0.36-1.31c0.27-0.4,0.77-0.7,1.29-0.73c0.53-0.05,0.98,0.16,1.37,0.38
					c0.18,0.13,0.37,0.27,0.53,0.42c0.15,0.17,0.3,0.33,0.42,0.52c-0.22-0.06-0.42-0.14-0.62-0.22c-0.19-0.08-0.4-0.13-0.58-0.2
					c-0.38-0.1-0.75-0.21-1.08-0.17c-0.33,0.02-0.63,0.15-0.92,0.38C148.55,88.48,148.3,88.81,148.05,89.18z"/>
				<path class="st41" d="M159.81,85.68c-0.13-0.34-0.38-0.63-0.72-0.83c-0.34-0.2-0.81-0.25-1.2-0.09
					c-0.4,0.15-0.66,0.45-0.87,0.75c-0.09,0.16-0.18,0.32-0.24,0.49c-0.05,0.17-0.11,0.34-0.13,0.52c0.14-0.12,0.26-0.25,0.38-0.37
					c0.11-0.12,0.25-0.23,0.35-0.35c0.24-0.2,0.47-0.41,0.73-0.5c0.25-0.1,0.51-0.11,0.8-0.04C159.2,85.35,159.5,85.5,159.81,85.68z
					"/>
				<g>
					<path class="st36" d="M146.16,86.37c0.09-0.58,0.35-1.18,0.69-1.65c0.93-1.31,2.44-1.47,3.92-1.17
						c0.69,0.14,0.83-0.94,0.15-1.08c-1.75-0.35-3.56-0.08-4.75,1.36c-0.55,0.66-0.95,1.54-1.08,2.39
						C144.98,86.91,146.06,87.06,146.16,86.37L146.16,86.37z"/>
				</g>
				<g>
					<path class="st36" d="M155.44,81.86c0.39-0.28,0.89-0.46,1.36-0.53c1.3-0.19,2.25,0.61,2.91,1.65
						c0.31,0.48,1.03-0.04,0.72-0.52c-0.78-1.23-1.97-2.15-3.49-2.04c-0.7,0.05-1.45,0.31-2.02,0.72
						C154.46,81.47,154.97,82.19,155.44,81.86L155.44,81.86z"/>
				</g>
			</g>
		</g>
		<g>
			<g>
				<defs>
					<path id="XMLID_2_" d="M344.65,42.74h99.27c1.73,0,3.14,1.41,3.14,3.14v25.05c0,1.04-0.52,2.02-1.38,2.6l-15.88,10.73
						c-0.82,0.56-1.89-0.23-1.6-1.18l3.18-10.48h-86.73c-1.73,0-3.14-1.41-3.14-3.14V45.88C341.51,44.15,342.92,42.74,344.65,42.74z
						"/>
				</defs>
				<use xlink:href="#XMLID_2_"  style="overflow:visible;fill:#AE72AF;"/>
				<clipPath id="XMLID_24_">
					<use xlink:href="#XMLID_2_"  style="overflow:visible;"/>
				</clipPath>
				<polygon class="st42" points="426.25,75.51 429.77,72.58 440.03,72.58 426.83,79.91 				"/>
			</g>
			<path class="st26" d="M353.51,50.74h82.98c0.74,0,1.33-0.6,1.33-1.33l0,0c0-0.74-0.6-1.33-1.33-1.33h-82.98
				c-0.74,0-1.33,0.6-1.33,1.33l0,0C352.17,50.14,352.77,50.74,353.51,50.74z"/>
			<path class="st26" d="M353.51,57.49h82.98c0.74,0,1.33-0.6,1.33-1.33l0,0c0-0.74-0.6-1.33-1.33-1.33h-82.98
				c-0.74,0-1.33,0.6-1.33,1.33l0,0C352.17,56.89,352.77,57.49,353.51,57.49z"/>
			<path class="st26" d="M396.14,64.24h40.54c0.63,0,1.14-0.51,1.14-1.14v-0.38c0-0.63-0.51-1.14-1.14-1.14h-40.54
				c-0.63,0-1.14,0.51-1.14,1.14v0.38C395,63.73,395.51,64.24,396.14,64.24z"/>
		</g>
		<g>
			<defs>
				<path id="XMLID_14_" d="M303.66,290.45h20.67c0.75,0,1.37,0.61,1.37,1.37v10.89c0,0.45-0.23,0.88-0.6,1.13l-6.91,4.67
					c-0.36,0.24-0.82-0.1-0.7-0.51l1.38-4.56h-15.21c-0.75,0-1.37-0.61-1.37-1.37v-10.25C302.3,291.06,302.91,290.45,303.66,290.45z
					"/>
			</defs>
			<use xlink:href="#XMLID_14_"  style="overflow:visible;fill:#00A26D;"/>
			<clipPath id="XMLID_25_">
				<use xlink:href="#XMLID_14_"  style="overflow:visible;"/>
			</clipPath>
		</g>
		<g>
			<defs>
				<path id="XMLID_15_" d="M450.77,88.12h12.6c0.46,0,0.83,0.37,0.83,0.83v6.64c0,0.28-0.14,0.54-0.37,0.69l-4.21,2.84
					c-0.22,0.15-0.5-0.06-0.43-0.31l0.84-2.78h-9.28c-0.46,0-0.83-0.37-0.83-0.83v-6.25C449.94,88.5,450.31,88.12,450.77,88.12z"/>
			</defs>
			<use xlink:href="#XMLID_15_"  style="overflow:visible;fill:#00A26D;"/>
			<clipPath id="XMLID_26_">
				<use xlink:href="#XMLID_15_"  style="overflow:visible;"/>
			</clipPath>
		</g>
		<g>
			<g>
				<defs>
					<path id="XMLID_1_" d="M413.22,77.71H305.22c-1.89,0-3.42,1.53-3.42,3.42v27.25c0,1.13,0.56,2.2,1.5,2.83l17.27,11.67
						c0.9,0.61,2.06-0.25,1.74-1.29l-3.45-11.4h94.36c1.89,0,3.42-1.53,3.42-3.42V81.13C416.64,79.24,415.11,77.71,413.22,77.71z"/>
				</defs>
				<use xlink:href="#XMLID_1_"  style="overflow:visible;fill:#F5B847;"/>
				<clipPath id="XMLID_27_">
					<use xlink:href="#XMLID_1_"  style="overflow:visible;"/>
				</clipPath>
				<polygon class="st43" points="324.45,113.37 320.62,110.18 309.46,110.18 323.81,118.15 				"/>
			</g>
			<path class="st26" d="M403.59,86.41H313.3c-0.8,0-1.45-0.65-1.45-1.45l0,0c0-0.8,0.65-1.45,1.45-1.45h90.29
				c0.8,0,1.45,0.65,1.45,1.45l0,0C405.04,85.76,404.39,86.41,403.59,86.41z"/>
			<path class="st26" d="M403.59,93.76H313.3c-0.8,0-1.45-0.65-1.45-1.45l0,0c0-0.8,0.65-1.45,1.45-1.45h90.29
				c0.8,0,1.45,0.65,1.45,1.45l0,0C405.04,93.11,404.39,93.76,403.59,93.76z"/>
			<path class="st26" d="M357.2,101.1H313.1c-0.69,0-1.24-0.56-1.24-1.24v-0.41c0-0.69,0.56-1.24,1.24-1.24h44.11
				c0.69,0,1.24,0.56,1.24,1.24v0.41C358.45,100.55,357.89,101.1,357.2,101.1z"/>
		</g>
		<g>
			<defs>
				
					<ellipse id="SVGID_13_" transform="matrix(0.7071 -0.7071 0.7071 0.7071 -43.1499 416.7268)" cx="481.46" cy="260.45" rx="46.04" ry="46.04"/>
			</defs>
			<clipPath id="SVGID_14_">
				<use xlink:href="#SVGID_13_"  style="overflow:visible;"/>
			</clipPath>
			
				<ellipse transform="matrix(0.7071 -0.7071 0.7071 0.7071 -43.1499 416.7268)" class="st44" cx="481.46" cy="260.45" rx="56.94" ry="56.94"/>
			<g class="st45">
				<g>
					<defs>
						<path id="XMLID_5_" d="M485.36,265.38c-3.49,8.02-9.66,14.59-14.39,8.22c-3.52-4.75-0.77-11.21,0.87-14.2
							c4.93-1.6,9.94-2.25,9.94-2.25h4.69c0,0,2.78,0,6.25,0.22C490.22,258.77,487.18,261.21,485.36,265.38z"/>
					</defs>
					<use xlink:href="#XMLID_5_"  style="overflow:visible;fill:#F7B59C;"/>
					<clipPath id="XMLID_28_">
						<use xlink:href="#XMLID_5_"  style="overflow:visible;"/>
					</clipPath>
					<path class="st46" d="M476.11,257.16c0,0.41-0.21,6.78-0.21,6.78l-3.91-6.58L476.11,257.16z"/>
				</g>
				<path class="st47" d="M464.03,263.52c1.78-1.78,4.78-3.13,7.81-4.12c-1.63,2.98-4.39,9.45-0.87,14.2
					c4.73,6.37,10.89-0.21,14.39-8.22c1.82-4.17,4.86-6.61,7.36-8c4.15,0.26,9.29,0.85,11.84,2.12c4.69,2.34,7.03,8.37,6.03,12.39
					c-1,4.02,4.35,14.07-1.34,19.43c-5.11,4.81-9.15,4.22-10.89,3.57c-0.2-0.07-0.37-0.15-0.5-0.22c-1.34-0.67,0,17.75,0,17.75
					s-33.83,2.01-35.84,0C460.01,310.42,459.34,268.21,464.03,263.52z"/>
				<g>
					<defs>
						<path id="XMLID_13_" d="M484.54,223.04c0,0-3.29-4.73-11.31-1.03c-8.02,3.7-18.09,21.79-5.55,37.82c0,0,2.67-3.91,12.33-4.93
							C489.68,253.87,484.54,223.04,484.54,223.04z"/>
					</defs>
					<use xlink:href="#XMLID_13_"  style="overflow:visible;fill:#AF73B1;"/>
					<clipPath id="XMLID_29_">
						<use xlink:href="#XMLID_13_"  style="overflow:visible;"/>
					</clipPath>
					<polygon class="st48" points="486.19,221.4 477.35,224.89 483.51,220.57 					"/>
					<path class="st48" d="M466.58,236.7c0,0-8.15,20.67,6.24,21.08C487.21,258.19,466.58,236.7,466.58,236.7"/>
				</g>
				<g>
					<defs>
						<path id="XMLID_4_" d="M487.44,245.27l0.5,11.89l-10.99,7.29c-0.43,0.28-1,0.03-1.09-0.47l-1.81-9.67l10.72-13.06
							L487.44,245.27z"/>
					</defs>
					<use xlink:href="#XMLID_4_"  style="overflow:visible;fill:#F7B59C;"/>
					<clipPath id="XMLID_30_">
						<use xlink:href="#XMLID_4_"  style="overflow:visible;"/>
					</clipPath>
					<path class="st49" d="M488.28,252.81c0,0-1.98-1.71-3.32-3.05c0,0-3.49,10.07-13.98,8.84c-7.05-0.83,6.92-8.13,6.92-8.13
						l7.02-5.3l4.04,2.96L488.28,252.81z"/>
				</g>
				<g>
					<defs>
						<path id="XMLID_6_" d="M465.01,244.42c0.26-3.62,2.32-10.46,2.33-10.23c0.09-0.44,1.09-5.04,3.01-5.99
							c2.01-1,10.38,1.67,10.38,2.68c0,0.8,0.43,6.46,3.29,8.92c0.74,0.64,1.64,1.06,2.74,1.13c2,0.13,3.4,1.19,4.36,2.47
							c-3.05,0.29-6.04,0.21-6.04,0.21c-2.61,14.8-12.31,13.14-15.15,12.74C467.07,255.93,464.6,250.22,465.01,244.42z"/>
					</defs>
					<use xlink:href="#XMLID_6_"  style="overflow:visible;fill:#F7B59C;"/>
					<clipPath id="XMLID_31_">
						<use xlink:href="#XMLID_6_"  style="overflow:visible;"/>
					</clipPath>
					<path class="st50" d="M474.06,227.15c0.62,0,0.72,13,12.79,15.14c12.08,2.13-4.37-12.46-4.37-12.46L474.06,227.15z"/>
				</g>
				<path class="st39" d="M477.67,249.82c0,0-5.11,1.53-7.44,1.01c-0.18-0.04-0.34,0.14-0.28,0.31c0.25,0.71,0.71,2.04,0.71,2.47
					C470.66,254.2,475.92,253.32,477.67,249.82z"/>
				<path class="st41" d="M477.67,242.52c0.03-0.36-0.07-0.73-0.29-1.06c-0.22-0.32-0.62-0.57-1.04-0.59
					c-0.42-0.04-0.79,0.13-1.11,0.31c-0.15,0.11-0.3,0.21-0.43,0.34c-0.12,0.13-0.24,0.27-0.34,0.42c0.18-0.05,0.34-0.11,0.5-0.17
					c0.16-0.06,0.32-0.1,0.47-0.16c0.31-0.08,0.6-0.17,0.87-0.14c0.27,0.02,0.51,0.12,0.74,0.31
					C477.26,241.96,477.47,242.23,477.67,242.52z"/>
				<path class="st41" d="M468.18,239.7c0.1-0.28,0.31-0.51,0.58-0.67c0.27-0.16,0.65-0.2,0.96-0.07c0.32,0.12,0.53,0.37,0.7,0.61
					c0.07,0.13,0.14,0.26,0.19,0.39c0.04,0.14,0.09,0.28,0.11,0.42c-0.11-0.1-0.21-0.2-0.3-0.3c-0.09-0.1-0.2-0.19-0.28-0.28
					c-0.2-0.16-0.38-0.33-0.59-0.4c-0.2-0.08-0.41-0.09-0.65-0.03C468.67,239.44,468.43,239.56,468.18,239.7z"/>
				<path class="st51" d="M474.06,227.97c0,0,3.49,12.13,13.46,13.16c9.97,1.03-8.12-14.8-8.12-14.8h-10.07l-3.08,7.61
					C466.25,233.93,472.21,232.08,474.06,227.97z"/>
				<path class="st51" d="M474.04,226.33c0.22,0,9.88-5.34,14-4.11c4.11,1.23,13.36,14.18,12.13,27.13
					c-1.23,12.95-18.71,11.1-18.71,11.1s9.04-11.72,0.82-25.08l-6.17-5.76L474.04,226.33z"/>
				
					<rect x="482.32" y="240.7" transform="matrix(0.5767 -0.817 0.817 0.5767 7.5482 503.8889)" class="st38" width="15.41" height="7.91"/>
				<path class="st37" d="M497.75,252.75c0,0,0-8.99-1.45-10.15c-1.45-1.16-4.93-5.51-6.67-4.35c-1.74,1.16-0.87,1.74-2.03,2.32
					c-1.16,0.58-0.58,1.45-1.45,2.03c-0.87,0.58-2.03,2.9-1.45,2.9c0.58,0,2.61,0,2.61,0s4.06,7.54,5.8,7.25l0.29,1.16h4.35V252.75z
					"/>
				<path class="st37" d="M492.76,250.99c0,0-0.13,36.31,2.88,38.32c3.01,2.01,11.05-0.33,9.38-7.03c-1.67-6.7-7.7-31.15-7.7-31.15
					L492.76,250.99z"/>
				<path class="st52" d="M471.8,247.29l-1.85-1.03c0,0,1.34-1.75,1.97-2.96c0.08-0.16,0.32-0.1,0.32,0.08
					C472.25,244.37,472.21,246.06,471.8,247.29z"/>
				<g>
					<path class="st51" d="M478.95,240.72c-0.43-1.39-1.59-2.54-2.99-2.91c-0.19-0.05-0.11-0.35,0.08-0.3
						c1.5,0.39,2.74,1.63,3.2,3.12C479.31,240.83,479.01,240.91,478.95,240.72L478.95,240.72z"/>
				</g>
				<g>
					<path class="st51" d="M471.24,236.14c-1.24-0.13-2.54,0.38-3.31,1.36c-0.11,0.13-0.31-0.03-0.21-0.17
						c0.82-1.05,2.22-1.6,3.55-1.46C471.44,235.89,471.41,236.15,471.24,236.14L471.24,236.14z"/>
				</g>
				<path class="st51" d="M473.55,226.33l-0.01,0.44c0,0.16,0,0.32,0.01,0.48c0.01,0.32,0.03,0.63,0.06,0.95
					c0.06,0.63,0.16,1.25,0.3,1.86c0.27,1.22,0.7,2.41,1.27,3.52c0.57,1.11,1.28,2.14,2.09,3.06c0.83,0.92,1.75,1.73,2.75,2.44
					c-0.95-0.77-1.81-1.65-2.55-2.6c-0.74-0.96-1.36-2.01-1.83-3.12c-0.47-1.11-0.8-2.27-0.98-3.44c-0.09-0.59-0.14-1.18-0.16-1.78
					c-0.01-0.3-0.01-0.59,0-0.89c0.01-0.15,0.01-0.29,0.02-0.44l0.04-0.48H473.55z"/>
			</g>
		</g>
	</g>
</g>
</svg>
