<?xml version="1.0" encoding="utf-8"?>
<!-- Generator: Adobe Illustrator 23.0.5, SVG Export Plug-In . SVG Version: 6.00 Build 0)  -->
<svg version="1.0" id="Layer_1" xmlns="http://www.w3.org/2000/svg" xmlns:xlink="http://www.w3.org/1999/xlink" x="0px" y="0px"
	 viewBox="0 0 624 320" style="enable-background:new 0 0 624 320;" xml:space="preserve">
<style type="text/css">
	.st0{opacity:0.3;fill:#35B24A;}
	.st1{fill:#FFFFFF;}
	.st2{fill:#F8D06A;}
	.st3{fill:#F9AA4B;}
	.st4{fill:#FFDD87;}
	.st5{fill:#FFB968;}
	.st6{fill:#C3D2D7;}
	.st7{fill:#435277;}
	.st8{fill:#CCCCCC;}
	.st9{fill:#95A4B1;}
	.st10{fill:#DEE7EA;}
	.st11{clip-path:url(#SVGID_2_);fill:#00C5FF;}
	.st12{clip-path:url(#SVGID_2_);fill:#9BF2FF;}
	.st13{fill:#00C5FF;}
	.st14{clip-path:url(#SVGID_4_);fill:#00C5FF;}
	.st15{clip-path:url(#SVGID_4_);fill:#9BF2FF;}
	.st16{clip-path:url(#SVGID_6_);fill:#00C5FF;}
	.st17{clip-path:url(#SVGID_6_);fill:#9BF2FF;}
	.st18{fill:#D8FBFF;}
	.st19{fill:#00A26D;}
	.st20{fill:#EF6A1C;}
	.st21{clip-path:url(#SVGID_8_);fill:#CCCCCC;}
	.st22{clip-path:url(#SVGID_8_);}
	.st23{fill:#FFBF9B;}
	.st24{opacity:0.5;fill:#2D426D;}
	.st25{fill:#47284F;}
	.st26{fill:#FFA687;}
	.st27{fill:#A03E4B;}
	.st28{fill:#797D9B;}
	.st29{opacity:0.5;fill:#FFFFFF;}
	.st30{opacity:0.8;}
</style>
<rect y="0" class="st0" width="624" height="320"/>
<g>
	<g>
		<g>
			<path class="st1" d="M117.1,147.03c3.35-6.55,8.07-12.53,9.78-19.68c2.94-12.28-3.57-24.62-5.65-37.08
				c-2.94-17.64,3.75-36.58,17.11-48.46c13.36-11.88,32.96-16.31,50.13-11.33c23.14,6.71,40.7,28.7,64.69,30.93
				c15.09,1.4,29.72-5.47,42.46-13.68c12.74-8.2,24.66-18,38.74-23.62c14.07-5.62,31.39-6.29,43.28,3.11
				c10.49,8.29,14.37,22.12,19.83,34.32c5.47,12.2,15.37,24.77,28.74,24.55c14.14-0.22,24.22-14.58,38.02-17.65
				c12.17-2.72,24.96,4.27,32.29,14.37c7.32,10.1,10.14,22.74,11.77,35.11c4.36,33.11,1.25,67.59-12.08,98.21
				c-13.33,30.62-37.35,57.06-67.97,70.38c-28.27,12.3-60.03,12.98-90.86,13.47c-35.17,0.56-70.91,1.05-104.79-8.38
				c-29.4-8.18-51.2-24.1-72.08-45.7c-15.22-15.76-34.15-30.35-43.94-50.45C109.23,180.36,109.46,161.97,117.1,147.03z"/>
		</g>
		<g>
			<g>
				<path class="st2" d="M35.22,284.04L35.22,284.04L35.22,284.04c4.19,8.38,10.1,15.29,17.12,20.44
					c7.01,5.16,15.13,8.55,23.57,9.99c8.45,1.44,17.23,0.92,25.55-1.63c8.33-2.54,16.2-7.1,22.92-13.63l0,0h0
					c-11.53-14.81-26.04-23.42-41.44-26.05C67.54,270.56,51.01,273.88,35.22,284.04z"/>
				<g>
					<path class="st3" d="M110.38,297.41c-7.88-0.8-15.74-1.8-23.57-3c-3.67-8.62-8.2-16.14-13.21-22.08
						c-0.52,0-1.04,0.01-1.57,0.01c5.07,5.79,9.65,13.25,13.37,21.86c-6.86-1.08-13.69-2.31-20.49-3.7
						c-3.02-5.98-6.48-11.15-10.38-15.44c-0.42,0.13-0.84,0.25-1.26,0.38c1.9,2.07,3.7,4.3,5.38,6.78c1.69,2.45,3.27,5.12,4.75,7.98
						c-9.23-1.91-18.4-4.12-27.49-6.58c-0.23,0.15-0.46,0.29-0.69,0.44l0,0l0,0c0.13,0.24,0.25,0.48,0.37,0.72
						c7.49,2.04,15.03,3.89,22.61,5.54c-4.19,3.34-8.59,5.95-13.13,7.79c0.31,0.31,0.61,0.62,0.91,0.93
						c2.38-0.99,4.72-2.19,7.01-3.59c2.29-1.39,4.53-3,6.71-4.8c7.61,1.64,15.25,3.08,22.93,4.33
						c-6.03,6.81-12.99,12.08-20.19,15.41c0.49,0.21,0.99,0.43,1.48,0.64c7.22-3.53,14.15-8.94,20.12-15.82
						c7.99,1.28,16.02,2.35,24.06,3.2c-3.72,5.53-9.34,12.06-17.05,16.57c0.97-0.1,1.94-0.22,2.9-0.37
						c6.98-4.68,12.08-10.84,15.5-16.06c4.77,0.51,9.55,0.9,14.34,1.26c0.2-0.19,0.39-0.37,0.59-0.56l0,0h0
						c-0.17-0.22-0.34-0.43-0.51-0.64c-4.06-0.3-8.11-0.63-12.16-1.04c-2.15-5.39-5.35-11.9-9.86-17.79
						c-0.85-0.46-1.71-0.9-2.57-1.32C104.45,284.52,108.02,291.58,110.38,297.41z"/>
				</g>
			</g>
			<g>
				<path class="st2" d="M76.61,191.99L76.61,191.99L76.61,191.99c-2.93,7.18-3.8,14.8-2.76,22.12c1.03,7.32,3.97,14.33,8.4,20.24
					c4.43,5.91,10.33,10.7,17.07,13.74c6.74,3.05,14.29,4.35,22,3.56l0,0v0c0.06-7.77-0.96-14.83-2.86-21.18
					c-1.91-6.34-4.74-11.97-8.45-16.93c-3.71-4.96-8.32-9.24-13.87-12.86C90.58,197.07,84.08,194.12,76.61,191.99z"/>
				<g>
					<path class="st3" d="M113.27,243.17c-4.58-4.68-8.92-9.6-13.01-14.71c2.6-7.31,4.23-14.29,4.86-20.53
						c-0.3-0.29-0.6-0.57-0.9-0.86c-0.52,6.18-2.11,13.15-4.7,20.48c-3.55-4.51-6.91-9.17-10.06-13.97
						c1.74-5.25,2.88-10.24,3.3-14.92c-0.31-0.17-0.62-0.35-0.93-0.52c-0.21,2.28-0.53,4.58-1.07,6.99
						c-0.49,2.38-1.18,4.86-2.01,7.39c-4.23-6.54-8.06-13.34-11.51-20.33c-0.22-0.06-0.43-0.13-0.65-0.19h0h0
						c-0.08,0.21-0.16,0.42-0.24,0.63c2.83,5.78,5.95,11.41,9.33,16.88c-4.4-0.57-8.5-1.77-12.21-3.56
						c-0.01,0.37-0.03,0.73-0.04,1.1c0.98,0.46,1.99,0.88,3.01,1.26c1.04,0.37,2.1,0.71,3.18,1.01c1.08,0.3,2.18,0.55,3.29,0.77
						c1.13,0.21,2.28,0.38,3.44,0.5c3.42,5.46,7.11,10.76,11.05,15.87c-7.51,0.71-14.76-0.26-21.04-2.69
						c0.17,0.43,0.34,0.86,0.51,1.28c6.41,2.31,13.74,3.14,21.25,2.34c4.12,5.29,8.52,10.37,13.17,15.2
						c-2.66,0.76-5.74,1.38-9.12,1.65c-1.68,0.12-3.42,0.14-5.22,0.03c-1.8-0.1-3.63-0.35-5.47-0.76c0.67,0.49,1.35,0.98,2.05,1.44
						c3.53,0.52,6.89,0.53,10.05,0.18c3.14-0.33,6-0.98,8.49-1.73l2.08,2.13l2.13,2.08c1.41,1.4,2.89,2.73,4.34,4.09
						c0.22-0.02,0.44-0.04,0.67-0.06h0v0c0-0.23,0-0.45,0-0.68c-2.47-2.28-4.91-4.6-7.27-6.99c1.49-4.57,2.96-10.35,3.46-16.37
						c-0.26-0.73-0.53-1.45-0.83-2.16c-0.12,3.22-0.6,6.42-1.21,9.42C114.85,237.88,114.07,240.7,113.27,243.17z"/>
				</g>
			</g>
			<g>
				<path class="st4" d="M37.41,215.98L37.41,215.98L37.41,215.98c-1.87,11.81-0.38,23.63,4,34.28
					c4.36,10.65,11.58,20.11,20.65,27.25c9.07,7.13,19.97,11.93,31.35,13.65c11.38,1.74,23.22,0.41,34.26-4.19h0v0
					c-3.37-11.52-7.87-21.5-13.3-30.06c-5.43-8.55-11.81-15.68-19.21-21.49c-7.39-5.82-15.82-10.34-25.41-13.61
					C60.16,218.56,49.4,216.54,37.41,215.98z"/>
				<g>
					<path class="st5" d="M112.06,277.94c-8.8-4.97-17.3-10.46-25.46-16.42c0.9-11.94,0.61-22.95-0.79-32.46l-1.66-0.92
						c1.54,9.36,1.87,20.35,0.98,32.32c-7.11-5.28-13.96-10.92-20.5-16.88c0.59-8.52,0.45-16.39-0.62-23.52
						c-0.52-0.14-1.05-0.29-1.57-0.43c0.24,1.74,0.47,3.49,0.64,5.29c0.16,1.8,0.27,3.65,0.32,5.55c0.15,3.74,0.05,7.69-0.22,11.8
						c-8.83-8.16-17.07-16.95-24.71-26.23c-0.35-0.02-0.7-0.04-1.05-0.05h0v0c-0.05,0.34-0.09,0.68-0.14,1.03
						c6.29,7.69,13.03,15.01,20.15,21.92c-6.8,0.8-13.41,0.52-19.65-0.84c0.12,0.56,0.23,1.11,0.35,1.67
						c1.65,0.34,3.31,0.61,4.99,0.81c1.7,0.18,3.42,0.29,5.15,0.34c1.73,0.05,3.47,0.02,5.23-0.07c1.77-0.11,3.56-0.29,5.35-0.54
						c7.19,6.88,14.78,13.36,22.7,19.38c-10.91,4.08-22.16,5.46-32.57,4.18c0.42,0.58,0.85,1.16,1.28,1.74
						c10.56,1.04,21.87-0.58,32.73-4.81c8.28,6.22,16.93,11.95,25.9,17.13c-3.62,2.27-7.93,4.49-12.86,6.3
						c-2.46,0.89-5.04,1.62-7.77,2.21c-1.36,0.29-2.76,0.54-4.18,0.73c-1.41,0.18-2.85,0.3-4.32,0.37c1.22,0.47,2.44,0.91,3.68,1.31
						c5.5-0.68,10.53-2.04,15.09-3.9c2.27-0.91,4.4-1.91,6.37-2.94c1.98-1.04,3.83-2.15,5.5-3.23l4.01,2.27l4.07,2.16
						c2.69,1.47,5.48,2.77,8.22,4.15c0.32-0.13,0.64-0.25,0.96-0.38h0v0c-0.1-0.34-0.2-0.67-0.3-1c-2.32-1.16-4.67-2.27-6.96-3.48
						l-3.44-1.82c-1.15-0.6-2.29-1.22-3.41-1.87c0.13-3.72,0.1-7.85-0.15-12.22c-0.12-2.19-0.3-4.43-0.57-6.68
						c-0.13-1.13-0.29-2.25-0.46-3.38c-0.17-1.15-0.35-2.29-0.57-3.43c-0.68-0.97-1.38-1.92-2.09-2.83c0.56,2.4,1,4.83,1.33,7.27
						c0.33,2.44,0.6,4.81,0.76,7.17c0.17,2.35,0.25,4.69,0.29,6.91C112.14,273.8,112.12,275.93,112.06,277.94z"/>
				</g>
			</g>
		</g>
		<g>
			<g>
				<path class="st2" d="M588.78,284.04L588.78,284.04L588.78,284.04c-4.19,8.38-10.1,15.29-17.12,20.44
					c-7.01,5.16-15.13,8.55-23.57,9.99c-8.45,1.44-17.23,0.92-25.55-1.63c-8.33-2.54-16.2-7.1-22.92-13.63l0,0h0
					c11.53-14.81,26.04-23.42,41.44-26.05C556.46,270.56,572.99,273.88,588.78,284.04z"/>
				<g>
					<path class="st3" d="M513.62,297.41c7.88-0.8,15.74-1.8,23.57-3c3.67-8.62,8.2-16.14,13.21-22.08c0.52,0,1.04,0.01,1.57,0.01
						c-5.07,5.79-9.65,13.25-13.37,21.86c6.86-1.08,13.69-2.31,20.49-3.7c3.02-5.98,6.48-11.15,10.38-15.44
						c0.42,0.13,0.84,0.25,1.26,0.38c-1.9,2.07-3.7,4.3-5.38,6.78c-1.69,2.45-3.27,5.12-4.75,7.98c9.23-1.91,18.4-4.12,27.49-6.58
						c0.23,0.15,0.46,0.29,0.69,0.44l0,0l0,0c-0.13,0.24-0.25,0.48-0.37,0.72c-7.49,2.04-15.03,3.89-22.61,5.54
						c4.19,3.34,8.59,5.95,13.13,7.79c-0.31,0.31-0.61,0.62-0.91,0.93c-2.38-0.99-4.72-2.19-7.01-3.59c-2.29-1.39-4.53-3-6.71-4.8
						c-7.61,1.64-15.25,3.08-22.93,4.33c6.03,6.81,12.99,12.08,20.19,15.41c-0.49,0.21-0.99,0.43-1.48,0.64
						c-7.22-3.53-14.15-8.94-20.12-15.82c-7.99,1.28-16.02,2.35-24.06,3.2c3.72,5.53,9.34,12.06,17.05,16.57
						c-0.97-0.1-1.94-0.22-2.9-0.37c-6.98-4.68-12.08-10.84-15.5-16.06c-4.77,0.51-9.55,0.9-14.34,1.26
						c-0.2-0.19-0.39-0.37-0.59-0.56l0,0h0c0.17-0.22,0.34-0.43,0.51-0.64c4.06-0.3,8.11-0.63,12.16-1.04
						c2.15-5.39,5.35-11.9,9.86-17.79c0.85-0.46,1.71-0.9,2.57-1.32C519.55,284.52,515.98,291.58,513.62,297.41z"/>
				</g>
			</g>
			<g>
				<path class="st2" d="M547.39,191.99L547.39,191.99L547.39,191.99c2.93,7.18,3.8,14.8,2.76,22.12
					c-1.03,7.32-3.97,14.33-8.4,20.24c-4.43,5.91-10.33,10.7-17.07,13.74c-6.74,3.05-14.29,4.35-22,3.56l0,0v0
					c-0.06-7.77,0.96-14.83,2.86-21.18c1.91-6.34,4.74-11.97,8.45-16.93c3.71-4.96,8.32-9.24,13.87-12.86
					C533.42,197.07,539.92,194.12,547.39,191.99z"/>
				<g>
					<path class="st3" d="M510.73,243.17c4.58-4.68,8.92-9.6,13.01-14.71c-2.6-7.31-4.23-14.29-4.86-20.53
						c0.3-0.29,0.6-0.57,0.9-0.86c0.52,6.18,2.11,13.15,4.7,20.48c3.55-4.51,6.91-9.17,10.06-13.97c-1.74-5.25-2.88-10.24-3.3-14.92
						c0.31-0.17,0.62-0.35,0.93-0.52c0.21,2.28,0.53,4.58,1.07,6.99c0.49,2.38,1.18,4.86,2.01,7.39
						c4.23-6.54,8.06-13.34,11.51-20.33c0.22-0.06,0.43-0.13,0.65-0.19h0l0,0c0.08,0.21,0.16,0.42,0.24,0.63
						c-2.83,5.78-5.95,11.41-9.33,16.88c4.4-0.57,8.5-1.77,12.21-3.56c0.01,0.37,0.03,0.73,0.04,1.1c-0.98,0.46-1.99,0.88-3.01,1.26
						c-1.04,0.37-2.1,0.71-3.18,1.01c-1.08,0.3-2.18,0.55-3.29,0.77c-1.13,0.21-2.28,0.38-3.44,0.5
						c-3.42,5.46-7.11,10.76-11.05,15.87c7.51,0.71,14.76-0.26,21.04-2.69c-0.17,0.43-0.34,0.86-0.51,1.28
						c-6.41,2.31-13.74,3.14-21.25,2.34c-4.12,5.29-8.52,10.37-13.17,15.2c2.66,0.76,5.74,1.38,9.12,1.65
						c1.68,0.12,3.42,0.14,5.22,0.03c1.8-0.1,3.63-0.35,5.47-0.76c-0.67,0.49-1.35,0.98-2.05,1.44c-3.53,0.52-6.89,0.53-10.05,0.18
						c-3.14-0.33-6-0.98-8.49-1.73l-2.08,2.13l-2.13,2.08c-1.41,1.4-2.89,2.73-4.34,4.09c-0.22-0.02-0.44-0.04-0.67-0.06h0v0
						c0-0.23,0-0.45,0-0.68c2.47-2.28,4.91-4.6,7.27-6.99c-1.49-4.57-2.96-10.35-3.46-16.37c0.26-0.73,0.53-1.45,0.83-2.16
						c0.12,3.22,0.6,6.42,1.21,9.42C509.15,237.88,509.93,240.7,510.73,243.17z"/>
				</g>
			</g>
			<g>
				<path class="st4" d="M586.59,215.98L586.59,215.98L586.59,215.98c1.87,11.81,0.38,23.63-4,34.28
					c-4.36,10.65-11.58,20.11-20.65,27.25c-9.07,7.13-19.97,11.93-31.35,13.65c-11.38,1.74-23.22,0.41-34.26-4.19h0v0
					c3.37-11.52,7.87-21.5,13.3-30.06c5.43-8.55,11.81-15.68,19.21-21.49c7.39-5.82,15.82-10.34,25.41-13.61
					C563.84,218.56,574.6,216.54,586.59,215.98z"/>
				<g>
					<path class="st5" d="M511.94,277.94c8.8-4.97,17.3-10.46,25.46-16.42c-0.9-11.94-0.61-22.95,0.79-32.46l1.66-0.92
						c-1.54,9.36-1.87,20.35-0.98,32.32c7.11-5.28,13.96-10.92,20.5-16.88c-0.59-8.52-0.45-16.39,0.62-23.52
						c0.52-0.14,1.05-0.29,1.57-0.43c-0.24,1.74-0.47,3.49-0.64,5.29c-0.16,1.8-0.27,3.65-0.32,5.55c-0.15,3.74-0.05,7.69,0.22,11.8
						c8.83-8.16,17.07-16.95,24.71-26.23c0.35-0.02,0.7-0.04,1.05-0.05h0v0c0.05,0.34,0.09,0.68,0.14,1.03
						c-6.29,7.69-13.03,15.01-20.15,21.92c6.8,0.8,13.41,0.52,19.65-0.84c-0.12,0.56-0.23,1.11-0.35,1.67
						c-1.65,0.34-3.31,0.61-4.99,0.81c-1.7,0.18-3.42,0.29-5.15,0.34c-1.73,0.05-3.47,0.02-5.23-0.07
						c-1.77-0.11-3.56-0.29-5.35-0.54c-7.19,6.88-14.78,13.36-22.7,19.38c10.91,4.08,22.16,5.46,32.57,4.18
						c-0.42,0.58-0.85,1.16-1.28,1.74c-10.56,1.04-21.87-0.58-32.73-4.81c-8.28,6.22-16.93,11.95-25.9,17.13
						c3.62,2.27,7.92,4.49,12.86,6.3c2.46,0.89,5.04,1.62,7.77,2.21c1.36,0.29,2.76,0.54,4.18,0.73c1.41,0.18,2.85,0.3,4.32,0.37
						c-1.22,0.47-2.44,0.91-3.68,1.31c-5.5-0.68-10.53-2.04-15.09-3.9c-2.27-0.91-4.4-1.91-6.37-2.94c-1.98-1.04-3.83-2.15-5.5-3.23
						l-4.01,2.27l-4.07,2.16c-2.69,1.47-5.48,2.77-8.22,4.15c-0.32-0.13-0.64-0.25-0.96-0.38h0v0c0.1-0.34,0.2-0.67,0.3-1
						c2.32-1.16,4.67-2.27,6.96-3.48l3.44-1.82c1.15-0.6,2.29-1.22,3.41-1.87c-0.13-3.72-0.1-7.85,0.15-12.22
						c0.12-2.19,0.3-4.43,0.57-6.68c0.13-1.13,0.29-2.25,0.46-3.38c0.17-1.15,0.35-2.29,0.57-3.43c0.68-0.97,1.38-1.92,2.09-2.83
						c-0.56,2.4-1,4.83-1.33,7.27c-0.33,2.44-0.6,4.81-0.76,7.17c-0.17,2.35-0.25,4.69-0.29,6.91
						C511.86,273.8,511.88,275.93,511.94,277.94z"/>
				</g>
			</g>
		</g>
	</g>
	<g>
		<g>
			<path class="st6" d="M469.78,296.57H150.31V95.15c0-11.47,9.29-20.76,20.76-20.76h277.95c11.47,0,20.76,9.29,20.76,20.76V296.57z
				"/>
			<path class="st7" d="M154.22,296.57V90.61c0-6.79,5.52-12.31,12.31-12.31h287.04c6.79,0,12.31,5.52,12.31,12.31v205.96H154.22z"
				/>
			<rect x="168.28" y="92.36" class="st8" width="283.54" height="190.15"/>
			<g>
				<rect x="133.12" y="296.57" class="st6" width="353.86" height="11.72"/>
				<path class="st9" d="M455.65,320h-291.2c-11.52,0-22.64-4.16-31.33-11.72h0h353.86l0,0C478.29,315.84,467.16,320,455.65,320z"/>
				<path class="st10" d="M333.87,302.42h-47.65c-3.24,0-5.86-2.62-5.86-5.86l0,0h59.37l0,0
					C339.73,299.8,337.11,302.42,333.87,302.42z"/>
			</g>
			<g>
				<g>
					<rect x="176.99" y="111.43" class="st1" width="92.19" height="157.99"/>
					<g>
						<defs>
							<circle id="SVGID_1_" cx="221.97" cy="152.07" r="30.69"/>
						</defs>
						<clipPath id="SVGID_2_">
							<use xlink:href="#SVGID_1_"  style="overflow:visible;"/>
						</clipPath>
						<circle class="st11" cx="221.97" cy="152.07" r="30.69"/>
						<path class="st12" d="M240.82,173.08c-0.64-4.26-3.67-7.76-7.78-9.03l-5.91-1.81c-0.24-0.35-0.54-0.64-0.89-0.87v-3.53
							c0.01,0,0.02-0.01,0.02-0.01l1.17-0.74c1.69-1.07,2.9-2.77,3.35-4.72l1.54-6.61c0.19-0.79,0.28-1.61,0.28-2.42v-0.53
							c0-5.87-4.76-10.64-10.64-10.64l0,0c-5.87,0-10.64,4.76-10.64,10.64v0.53c0,0.82,0.09,1.63,0.28,2.42l1.54,6.61
							c0.46,1.95,1.66,3.65,3.35,4.72l1.17,0.74c0.01,0,0.02,0.01,0.02,0.01v3.53c-0.35,0.23-0.66,0.52-0.89,0.87l-5.91,1.81
							c-4.11,1.26-7.14,4.77-7.78,9.03l-1.22,8.12l6.23,1.01v4.92h13.85l0,0h13.85v-4.92l6.23-1.01L240.82,173.08z"/>
					</g>
					<g>
						<rect x="200.47" y="187.92" class="st13" width="43" height="3.96"/>
						<rect x="208.36" y="194.44" class="st13" width="27.22" height="2.87"/>
					</g>
					<rect x="187.15" y="204.39" class="st13" width="69.64" height="4.09"/>
					<rect x="187.15" y="212.95" class="st13" width="69.64" height="4.09"/>
					<rect x="187.15" y="221.51" class="st13" width="33.29" height="4.09"/>
					<rect x="187.15" y="234.55" class="st13" width="69.64" height="4.09"/>
					<rect x="187.15" y="243.11" class="st13" width="46.99" height="4.09"/>
					<rect x="187.15" y="251.67" class="st13" width="22.13" height="4.09"/>
				</g>
				<g>
					<rect x="351.19" y="111.43" class="st1" width="92.19" height="157.99"/>
					<g>
						<defs>
							<circle id="SVGID_3_" cx="396.17" cy="152.07" r="30.69"/>
						</defs>
						<clipPath id="SVGID_4_">
							<use xlink:href="#SVGID_3_"  style="overflow:visible;"/>
						</clipPath>
						<circle class="st14" cx="396.17" cy="152.07" r="30.69"/>
						<path class="st15" d="M415.02,173.08c-0.64-4.26-3.67-7.76-7.78-9.03l-5.91-1.81c-0.24-0.35-0.54-0.64-0.89-0.87v-3.53
							c0.01,0,0.02-0.01,0.02-0.01l1.17-0.74c1.69-1.07,2.9-2.77,3.35-4.72l1.54-6.61c0.19-0.79,0.28-1.61,0.28-2.42v-0.53
							c0-5.87-4.76-10.64-10.64-10.64l0,0c-5.87,0-10.64,4.76-10.64,10.64v0.53c0,0.82,0.09,1.63,0.28,2.42l1.54,6.61
							c0.46,1.95,1.66,3.65,3.35,4.72l1.17,0.74c0.01,0,0.02,0.01,0.02,0.01v3.53c-0.35,0.23-0.66,0.52-0.89,0.87l-5.91,1.81
							c-4.11,1.26-7.14,4.77-7.78,9.03l-1.22,8.12l6.23,1.01v4.92h13.85l0,0h13.85v-4.92l6.23-1.01L415.02,173.08z"/>
					</g>
					<g>
						<rect x="374.67" y="187.92" class="st13" width="43" height="3.96"/>
						<rect x="382.56" y="194.44" class="st13" width="27.22" height="2.87"/>
					</g>
					<rect x="361.35" y="204.39" class="st13" width="69.64" height="4.09"/>
					<rect x="361.35" y="212.95" class="st13" width="69.64" height="4.09"/>
					<rect x="361.35" y="221.51" class="st13" width="33.29" height="4.09"/>
					<rect x="361.35" y="234.55" class="st13" width="69.64" height="4.09"/>
					<rect x="361.35" y="243.11" class="st13" width="46.99" height="4.09"/>
					<rect x="361.35" y="251.67" class="st13" width="22.13" height="4.09"/>
				</g>
				<g>
					<rect x="259.64" y="104.05" class="st1" width="100.81" height="172.76"/>
					<g>
						<defs>
							<circle id="SVGID_5_" cx="308.83" cy="148.48" r="33.56"/>
						</defs>
						<clipPath id="SVGID_6_">
							<use xlink:href="#SVGID_5_"  style="overflow:visible;"/>
						</clipPath>
						<circle class="st16" cx="308.83" cy="148.48" r="33.56"/>
						<path class="st17" d="M329.44,171.46c-0.7-4.65-4.01-8.49-8.51-9.87l-6.46-1.98c-0.26-0.38-0.59-0.7-0.98-0.95v-3.86
							c0.01-0.01,0.02-0.01,0.03-0.01l1.28-0.81c1.85-1.17,3.17-3.03,3.67-5.16l1.69-7.23c0.2-0.87,0.31-1.76,0.31-2.65v-0.58
							c0-6.42-5.21-11.63-11.63-11.63h0c-6.42,0-11.63,5.21-11.63,11.63v0.58c0,0.89,0.1,1.78,0.31,2.65l1.69,7.23
							c0.5,2.13,1.82,3.99,3.67,5.16l1.28,0.81c0.01,0.01,0.02,0.01,0.03,0.01v3.86c-0.39,0.25-0.72,0.57-0.98,0.95l-6.46,1.98
							c-4.5,1.38-7.81,5.22-8.51,9.87l-1.34,8.88l6.81,1.1v5.39h15.14h0h15.14v-5.39l6.81-1.1L329.44,171.46z"/>
					</g>
					<g>
						<rect x="285.32" y="187.69" class="st13" width="47.02" height="4.33"/>
						<rect x="293.95" y="194.81" class="st13" width="29.76" height="3.14"/>
					</g>
					<rect x="270.75" y="205.7" class="st13" width="76.16" height="4.47"/>
					<rect x="270.75" y="215.06" class="st13" width="76.16" height="4.47"/>
					<rect x="270.75" y="224.42" class="st13" width="36.4" height="4.47"/>
					<rect x="270.75" y="238.67" class="st13" width="76.16" height="4.47"/>
					<rect x="270.75" y="248.03" class="st13" width="51.39" height="4.47"/>
					<rect x="270.75" y="257.4" class="st13" width="58.82" height="4.47"/>
				</g>
			</g>
		</g>
		<g>
			<g>
				<rect x="238.39" y="44.4" class="st18" width="164.61" height="214.92"/>
				<rect x="249.19" y="77.17" class="st19" width="124.05" height="8.8"/>
				<rect x="249.19" y="94.17" class="st19" width="107.79" height="8.8"/>
				<rect x="249.19" y="111.18" class="st19" width="80.33" height="8.8"/>
				<rect x="249.19" y="139.23" class="st8" width="144.21" height="6.75"/>
				<rect x="249.19" y="151.07" class="st8" width="144.21" height="6.75"/>
				<rect x="249.19" y="162.91" class="st8" width="144.21" height="6.75"/>
				<rect x="249.19" y="174.75" class="st8" width="81.94" height="6.75"/>
				<g>
					<rect x="268.56" y="191.5" class="st8" width="70.03" height="6.75"/>
					<polygon class="st20" points="255.14,189.23 256.97,192.95 261.08,193.55 258.11,196.44 258.81,200.53 255.14,198.6 
						251.46,200.53 252.17,196.44 249.19,193.55 253.3,192.95 					"/>
				</g>
				<g>
					<rect x="268.56" y="210.53" class="st8" width="93.62" height="6.75"/>
					<polygon class="st20" points="255.14,208.26 256.97,211.98 261.08,212.58 258.11,215.47 258.81,219.56 255.14,217.63 
						251.46,219.56 252.17,215.47 249.19,212.58 253.3,211.98 					"/>
				</g>
				<g>
					<rect x="268.56" y="229.56" class="st8" width="52.14" height="6.75"/>
					<polygon class="st20" points="255.14,227.29 256.97,231.01 261.08,231.6 258.11,234.5 258.81,238.59 255.14,236.66 
						251.46,238.59 252.17,234.5 249.19,231.6 253.3,231.01 					"/>
				</g>
				<g>
					<polygon class="st20" points="284.02,57.15 286.52,62.21 292.11,63.02 288.06,66.97 289.02,72.54 284.02,69.91 279.02,72.54 
						279.97,66.97 275.93,63.02 281.52,62.21 					"/>
					<polygon class="st20" points="308.82,57.15 311.32,62.21 316.91,63.02 312.86,66.97 313.82,72.54 308.82,69.91 303.82,72.54 
						304.77,66.97 300.73,63.02 306.32,62.21 					"/>
					<polygon class="st20" points="333.62,57.15 336.12,62.21 341.71,63.02 337.66,66.97 338.62,72.54 333.62,69.91 328.62,72.54 
						329.57,66.97 325.52,63.02 331.12,62.21 					"/>
					<polygon class="st20" points="358.41,57.15 360.91,62.21 366.51,63.02 362.46,66.97 363.41,72.54 358.41,69.91 353.41,72.54 
						354.37,66.97 350.32,63.02 355.91,62.21 					"/>
					<polygon class="st20" points="383.21,57.15 385.71,62.21 391.3,63.02 387.26,66.97 388.21,72.54 383.21,69.91 378.21,72.54 
						379.17,66.97 375.12,63.02 380.71,62.21 					"/>
				</g>
			</g>
			<g>
				<path class="st1" d="M290.15,161.28h-58.96c-4.68,0-8.47-3.79-8.47-8.47V74.28c0-4.68,3.79-8.47,8.47-8.47h58.96
					c4.68,0,8.47,3.79,8.47,8.47v78.53C298.62,157.49,294.83,161.28,290.15,161.28z"/>
				<g>
					<defs>
						
							<ellipse id="SVGID_7_" transform="matrix(0.1625 -0.9867 0.9867 0.1625 114.1798 345.5972)" cx="260.67" cy="105.54" rx="35.5" ry="35.5"/>
					</defs>
					<clipPath id="SVGID_8_">
						<use xlink:href="#SVGID_7_"  style="overflow:visible;"/>
					</clipPath>
					
						<ellipse transform="matrix(0.1625 -0.9867 0.9867 0.1625 114.1798 345.5972)" class="st21" cx="260.67" cy="105.54" rx="35.5" ry="35.5"/>
					<g class="st22">
						<g>
							<g>
								<path class="st1" d="M284.95,136.24l-1.48-9.82c-0.78-5.15-4.44-9.39-9.41-10.91l-13.38-4.1l-13.38,4.1
									c-4.98,1.52-8.64,5.77-9.41,10.91l-1.48,9.82l7.53,1.22v5.96h16.75l0,0h16.75v-5.96L284.95,136.24z"/>
								<polygon class="st23" points="236.39,136.24 235.31,143.42 243.92,143.42 243.92,137.46 								"/>
								<polygon class="st23" points="284.95,136.24 277.42,137.46 277.42,143.42 286.03,143.42 								"/>
							</g>
							<path class="st1" d="M260.67,122.3l-4.93,5.58l-2.35-10.12c-0.15-0.66-0.12-1.35,0.09-1.99l0.51-1.55
								c0.46-1.41,1.73-2.41,3.21-2.53l3.47-0.28V122.3z"/>
							<path class="st1" d="M260.67,122.3l4.93,5.58l2.35-10.12c0.15-0.66,0.12-1.35-0.09-1.99l-0.51-1.55
								c-0.46-1.41-1.73-2.41-3.21-2.53l-3.47-0.28L260.67,122.3z"/>
							<polygon class="st24" points="243.92,143.42 243.92,124.36 241.45,143.42 							"/>
							<polygon class="st24" points="277.42,143.42 277.42,124.36 279.89,143.42 							"/>
							<polygon class="st20" points="260.67,122.3 257.27,126.16 258.99,129.21 260.67,129.21 262.35,129.21 264.07,126.16 							
								"/>
							<polygon class="st20" points="262.35,129.21 260.67,129.21 258.99,129.21 255.51,143.42 260.67,143.42 265.83,143.42 							
								"/>
						</g>
						<g>
							<path class="st23" d="M265.83,100.08h-10.31v14.03c0,1.14,0.38,2.2,1.01,3.05l-0.01,0l0.08,0.1
								c0.05,0.07,0.11,0.14,0.17,0.21l3.91,4.83l3.91-4.83c0.06-0.07,0.11-0.14,0.17-0.21l0.08-0.1l-0.01,0
								c0.63-0.86,1.01-1.91,1.01-3.05V100.08z"/>
							<path class="st25" d="M255.51,100.08v8.97l0.86,0.72c1.28,1.07,2.77,1.64,4.29,1.64l0,0c1.52,0,3.01-0.57,4.29-1.64
								l0.86-0.72v-8.97H255.51z"/>
						</g>
						<g>
							<g>
								<path class="st23" d="M251.94,99.15c0,2.14-1.74,3.88-3.88,3.88c-2.14,0-3.88-1.74-3.88-3.88s1.74-3.88,3.88-3.88
									C250.2,95.26,251.94,97,251.94,99.15z"/>
								<path class="st26" d="M250.1,99.15c0,1.13-0.91,2.04-2.04,2.04c-1.13,0-2.04-0.91-2.04-2.04s0.91-2.04,2.04-2.04
									C249.18,97.1,250.1,98.02,250.1,99.15z"/>
							</g>
							<g>
								<path class="st23" d="M269.4,99.15c0,2.14,1.74,3.88,3.88,3.88c2.14,0,3.88-1.74,3.88-3.88s-1.74-3.88-3.88-3.88
									C271.14,95.26,269.4,97,269.4,99.15z"/>
								<path class="st26" d="M271.24,99.15c0,1.13,0.91,2.04,2.04,2.04c1.13,0,2.04-0.91,2.04-2.04s-0.91-2.04-2.04-2.04
									C272.16,97.1,271.24,98.02,271.24,99.15z"/>
							</g>
							<path class="st23" d="M260.67,76.95L260.67,76.95L260.67,76.95L260.67,76.95L260.67,76.95c-7.1,0-12.86,5.76-12.86,12.86
								v0.65c0,0.99,0.11,1.97,0.34,2.93l1.87,7.99c0.55,2.36,2.01,4.41,4.05,5.71l1.42,0.9c1.55,0.98,3.35,1.51,5.19,1.51l0,0l0,0
								l0,0l0,0l0,0c1.84,0,3.63-0.52,5.19-1.51l1.42-0.9c2.05-1.3,3.5-3.35,4.05-5.71l1.87-7.99c0.22-0.96,0.34-1.94,0.34-2.93
								v-0.65C273.53,82.71,267.77,76.95,260.67,76.95z"/>
							<g>
								<path class="st27" d="M254.84,89.01c-1.47,0.07-2.74,0.83-3.51,1.95l7.19-0.32C257.64,89.59,256.31,88.95,254.84,89.01z"/>
							</g>
							<path class="st25" d="M256.32,93.81c0,0.65-0.53,1.18-1.18,1.18c-0.65,0-1.18-0.53-1.18-1.18c0-0.65,0.53-1.18,1.18-1.18
								C255.79,92.63,256.32,93.16,256.32,93.81z"/>
							<g>
								<path class="st27" d="M266.5,89.01c1.47,0.07,2.74,0.83,3.51,1.95l-7.19-0.32C263.7,89.59,265.03,88.95,266.5,89.01z"/>
							</g>
							<circle class="st25" cx="266.21" cy="93.81" r="1.18"/>
							<path class="st26" d="M262.66,98.63h-3.94c-0.01,0-0.02,0-0.04,0c0.32,0.28,0.64,0.52,1,0.73c0.37,0.21,0.79,0.34,1.21,0.3
								C261.54,99.59,262.18,99.07,262.66,98.63z"/>
							<path class="st1" d="M265.16,101.11c-2.78,1.42-6.25,1.36-8.98-0.15c1.04,1.27,2.78,2.2,4.42,2.26
								C262.24,103.28,264.02,102.29,265.16,101.11z"/>
							<path class="st26" d="M262.6,103.91h-3.87c0.54,0.44,1.21,0.73,1.91,0.74C261.35,104.67,262.04,104.33,262.6,103.91z"/>
							<path class="st27" d="M275.33,92.63c1.54-4,0.91-11.05-1.39-14.67c-2.29-3.62-6.36-6.05-10.63-6.36
								c-4.27-0.31-8.58,1.57-11.37,4.82c-2.51,0.11-4.77,1.84-5.94,4.07c-1.17,2.23-1.35,4.86-0.98,7.35
								c0.37,2.49,1.25,5.18,2.12,7.53l2.88,6l-1.65-7.13c2.48-2.15,3.85-6.31,3.74-9.58c0.75,0.7,1.42,1.53,1.95,2.42
								c0.6-1.15,0.47-2.9-0.47-3.78c1.26,1.63,3.2,2.64,5.2,3.13c2,0.49,4.09,0.49,6.15,0.41c-1.77-0.82-3.55-1.54-5.37-2.24
								c3.74,0.47,7.47,1.02,11.14,1.89c-0.42,2.63,0.71,5.62,2.3,7.76l-1.67,7.13L275.33,92.63z"/>
							<g>
								<path class="st26" d="M256.56,95.47c-0.8-0.3-2.11-0.3-2.91,0C254.45,95.77,255.75,95.77,256.56,95.47z"/>
							</g>
							<g>
								<path class="st26" d="M264.78,95.47c0.8-0.3,2.11-0.3,2.91,0C266.89,95.77,265.59,95.77,264.78,95.47z"/>
							</g>
						</g>
					</g>
				</g>
				<rect x="238.39" y="146.07" class="st19" width="44.56" height="4.1"/>
				<rect x="246.57" y="152.82" class="st8" width="28.21" height="2.98"/>
			</g>
		</g>
		<g>
			
				<rect x="461.03" y="229.49" transform="matrix(0.7071 -0.7071 0.7071 0.7071 -38.2255 403.155)" class="st9" width="13.02" height="36.45"/>
			<g>
				<path class="st28" d="M368.91,149.09c-24.28,24.28-24.28,63.64,0,87.92s63.64,24.28,87.92,0c24.28-24.28,24.28-63.64,0-87.92
					C432.55,124.81,393.19,124.81,368.91,149.09z M450.2,230.38c-20.58,20.58-54.08,20.58-74.66,0c-20.58-20.58-20.58-54.08,0-74.66
					c20.58-20.58,54.08-20.58,74.66,0C470.78,176.3,470.78,209.79,450.2,230.38z"/>
				<ellipse class="st29" cx="412.87" cy="193.05" rx="52.75" ry="52.83"/>
			</g>
			<path class="st7" d="M477.85,258.03c-3.49,3.49-5.17,7.48-3.75,8.9l48.79,48.79l12.65-12.65l-48.79-48.79
				C485.33,252.86,481.35,254.54,477.85,258.03z"/>
			<path class="st28" d="M535.55,303.07c1.42,1.42-0.25,5.41-3.75,8.9c-3.49,3.49-7.48,5.17-8.9,3.75c-1.42-1.42,0.25-5.41,3.75-8.9
				C530.14,303.33,534.12,301.65,535.55,303.07z"/>
			<g class="st30">
				<path class="st1" d="M397.42,158.51c-0.02,0.35-0.04,0.71-0.06,1.06c-0.21,4.19,2.97,7.79,7.15,8.11c0.05,0,0.1,0.01,0.15,0.01
					c3.85,0.32,7.33-2.26,8.18-6.03c0.07-0.29,0.14-0.59,0.2-0.88c1.3-5.5-3.6-10.57-9.13-9.39c-0.17,0.04-0.34,0.07-0.51,0.11
					C400.09,152.25,397.64,155.11,397.42,158.51z"/>
				<path class="st1" d="M421.26,158.9c-0.85,2.07-1.7,4.13-2.55,6.2c-1.38,3.34-0.25,7.17,2.68,9.28c1.89,1.36,3.72,2.92,5.47,4.67
					c3.22,3.22,5.79,6.74,7.68,10.33c1.83,3.47,6.07,4.97,9.7,3.49c1.9-0.78,3.76-1.64,5.58-2.58c3.35-1.74,5.01-5.56,3.96-9.19
					c-1.93-6.67-5.52-12.95-10.77-18.2c-3.33-3.33-7.08-5.99-11.09-7.99C427.89,152.9,422.98,154.72,421.26,158.9z"/>
			</g>
		</g>
	</g>
</g>
</svg>
