<?xml version="1.0" encoding="utf-8"?>
<!-- Generator: Adobe Illustrator 23.0.5, SVG Export Plug-In . SVG Version: 6.00 Build 0)  -->
<svg version="1.0" id="Layer_1" xmlns="http://www.w3.org/2000/svg" xmlns:xlink="http://www.w3.org/1999/xlink" x="0px" y="0px"
	 viewBox="0 0 624 320" style="enable-background:new 0 0 624 320;" xml:space="preserve">
<style type="text/css">
	.st0{clip-path:url(#SVGID_2_);}
	.st1{fill:url(#SVGID_3_);}
	.st2{fill:url(#SVGID_4_);}
	.st3{fill:#FFFFFF;}
	.st4{fill:#015E3A;}
	.st5{opacity:0.5;fill:#9EACEE;}
	.st6{fill:#00A26D;}
	.st7{fill:#E4FFFA;}
	.st8{fill:#333333;}
	.st9{fill:#757574;}
	.st10{fill:#F9EDEC;}
	.st11{opacity:0.46;fill:#776E6C;}
	.st12{fill:#BBDBFF;}
	.st13{fill:#41FF00;}
	.st14{fill:#EF6A1C;}
	.st15{opacity:0.69;fill:#363950;}
	.st16{fill:#121936;}
	.st17{fill:#363950;}
	.st18{fill:#E5BE84;}
	.st19{fill:#C78B5B;}
	.st20{fill:none;stroke:#FF6969;stroke-width:5;stroke-linecap:round;stroke-linejoin:round;stroke-miterlimit:10;}
	.st21{fill:#F99746;}
	.st22{fill:#BBC7F9;}
	.st23{opacity:0.47;fill:#FFFFFF;}
	.st24{fill:#E6E6E6;}
	.st25{fill:#B3B3B3;}
	.st26{fill:#FFD084;}
	.st27{fill:none;}
</style>
<g>
	<g>
		<defs>
			<rect id="SVGID_1_" y="0" width="624" height="320"/>
		</defs>
		<clipPath id="SVGID_2_">
			<use xlink:href="#SVGID_1_"  style="overflow:visible;"/>
		</clipPath>
		<g class="st0">
			<linearGradient id="SVGID_3_" gradientUnits="userSpaceOnUse" x1="335.3872" y1="390.571" x2="283.9154" y2="-24.2339">
				<stop  offset="0" style="stop-color:#00A26D"/>
				<stop  offset="1" style="stop-color:#FFFFFF"/>
			</linearGradient>
			<rect x="-1.87" y="0" class="st1" width="628.77" height="412.4"/>
			<linearGradient id="SVGID_4_" gradientUnits="userSpaceOnUse" x1="312" y1="258.1179" x2="312" y2="430.0496">
				<stop  offset="0.027" style="stop-color:#00A26D"/>
				<stop  offset="1" style="stop-color:#FFFFFF"/>
			</linearGradient>
			<rect x="-3" y="236.51" class="st2" width="630" height="177.73"/>
			<rect x="-1.87" y="234.68" class="st3" width="628.87" height="6.66"/>
			<rect x="-1.87" y="241.33" class="st4" width="628.87" height="5.07"/>
			<g>
				<path class="st5" d="M28.58,1.94v91.55c0,10.25,8.08,18.57,18.05,18.57h61.4c9.97,0,18.05-8.31,18.05-18.57V1.94
					c0-0.66-0.03-1.3-0.1-1.94H28.68C28.61,0.64,28.58,1.28,28.58,1.94z"/>
				<path class="st6" d="M33.05,1.89v89.03c0,9.97,8.08,18.05,18.05,18.05h61.4c9.97,0,18.05-8.08,18.05-18.05V1.89
					c0-0.64-0.03-1.27-0.1-1.89H33.15C33.08,0.62,33.05,1.25,33.05,1.89z"/>
				<g>
					<path class="st3" d="M123.58,57.03H40.84c-0.62,0-1.12-0.5-1.12-1.12c0-0.62,0.5-1.12,1.12-1.12h82.75
						c0.62,0,1.12,0.5,1.12,1.12C124.7,56.53,124.2,57.03,123.58,57.03z"/>
				</g>
				<g>
					<path class="st3" d="M123.52,7.33h-7.83c-0.62,0-1.12-0.5-1.12-1.12c0-0.62,0.5-1.12,1.12-1.12h7.83c0.62,0,1.12,0.5,1.12,1.12
						C124.64,6.83,124.14,7.33,123.52,7.33z"/>
				</g>
				<g>
					<path class="st3" d="M123.52,13.54h-7.83c-0.62,0-1.12-0.5-1.12-1.12c0-0.62,0.5-1.12,1.12-1.12h7.83
						c0.62,0,1.12,0.5,1.12,1.12C124.64,13.04,124.14,13.54,123.52,13.54z"/>
				</g>
				<g>
					<path class="st3" d="M123.52,19.76h-7.83c-0.62,0-1.12-0.5-1.12-1.12c0-0.62,0.5-1.12,1.12-1.12h7.83
						c0.62,0,1.12,0.5,1.12,1.12C124.64,19.26,124.14,19.76,123.52,19.76z"/>
				</g>
				<g>
					<path class="st3" d="M123.52,25.97h-7.83c-0.62,0-1.12-0.5-1.12-1.12c0-0.62,0.5-1.12,1.12-1.12h7.83
						c0.62,0,1.12,0.5,1.12,1.12C124.64,25.47,124.14,25.97,123.52,25.97z"/>
				</g>
				<g>
					<path class="st3" d="M123.52,32.18h-7.83c-0.62,0-1.12-0.5-1.12-1.12c0-0.62,0.5-1.12,1.12-1.12h7.83
						c0.62,0,1.12,0.5,1.12,1.12C124.64,31.68,124.14,32.18,123.52,32.18z"/>
				</g>
				<g>
					<path class="st3" d="M123.52,38.4h-7.83c-0.62,0-1.12-0.5-1.12-1.12c0-0.62,0.5-1.12,1.12-1.12h7.83c0.62,0,1.12,0.5,1.12,1.12
						C124.64,37.89,124.14,38.4,123.52,38.4z"/>
				</g>
				<g>
					<path class="st3" d="M103.08,7.33H43.44c-0.62,0-1.12-0.5-1.12-1.12c0-0.62,0.5-1.12,1.12-1.12h59.64
						c0.62,0,1.12,0.5,1.12,1.12C104.2,6.83,103.7,7.33,103.08,7.33z"/>
				</g>
				<g>
					<path class="st3" d="M103.08,13.54H43.44c-0.62,0-1.12-0.5-1.12-1.12c0-0.62,0.5-1.12,1.12-1.12h59.64
						c0.62,0,1.12,0.5,1.12,1.12C104.2,13.04,103.7,13.54,103.08,13.54z"/>
				</g>
				<g>
					<path class="st3" d="M103.08,19.76H43.44c-0.62,0-1.12-0.5-1.12-1.12c0-0.62,0.5-1.12,1.12-1.12h59.64
						c0.62,0,1.12,0.5,1.12,1.12C104.2,19.26,103.7,19.76,103.08,19.76z"/>
				</g>
				<g>
					<path class="st3" d="M103.08,25.97H43.44c-0.62,0-1.12-0.5-1.12-1.12c0-0.62,0.5-1.12,1.12-1.12h59.64
						c0.62,0,1.12,0.5,1.12,1.12C104.2,25.47,103.7,25.97,103.08,25.97z"/>
				</g>
				<g>
					<path class="st3" d="M103.08,32.18H43.44c-0.62,0-1.12-0.5-1.12-1.12c0-0.62,0.5-1.12,1.12-1.12h59.64
						c0.62,0,1.12,0.5,1.12,1.12C104.2,31.68,103.7,32.18,103.08,32.18z"/>
				</g>
				<g>
					<path class="st3" d="M103.08,38.4H43.44c-0.62,0-1.12-0.5-1.12-1.12c0-0.62,0.5-1.12,1.12-1.12h59.64
						c0.62,0,1.12,0.5,1.12,1.12C104.2,37.89,103.7,38.4,103.08,38.4z"/>
				</g>
			</g>
			<path class="st4" d="M503.88,93.27H276.95c-1.54,0-2.8-1.25-2.8-2.8l0,0c0-1.54,1.25-2.8,2.8-2.8h226.93V93.27z"/>
			<rect x="501.88" y="0" class="st4" width="7.6" height="234.5"/>
			<path class="st4" d="M503.88,166.77H276.95c-1.54,0-2.8-1.25-2.8-2.8l0,0c0-1.54,1.25-2.8,2.8-2.8h226.93V166.77z"/>
			<rect x="509.44" y="0" class="st7" width="117.56" height="221.59"/>
			<g>
				<path class="st8" d="M118.18,234.15H19.55v-71.68c0-14.89,12.07-26.96,26.96-26.96h44.72c14.89,0,26.96,12.07,26.96,26.96
					V234.15z"/>
				<rect x="54.06" y="176.91" class="st9" width="3.8" height="15.05"/>
				<rect x="79.08" y="176.91" class="st9" width="3.8" height="15.05"/>
				<path class="st4" d="M96.03,181.37H40.4v-4.04c0-2.69,2.18-4.87,4.87-4.87h45.88c2.69,0,4.87,2.18,4.87,4.87V181.37z"/>
				<path class="st4" d="M103.5,161H77.44c-1.12,0-2.02-0.9-2.02-2.02v-3.35c0-1.12,0.9-2.02,2.02-2.02h26.07
					c1.11,0,2.02,0.9,2.02,2.02v3.35C105.52,160.09,104.62,161,103.5,161z"/>
				<g>
					<path class="st10" d="M64.1,212.92H43.51c-0.27,0-0.51,0.23-0.51,0.51v1.38h-1.38c-2.34,0-4.24,1.88-4.24,4.17
						s1.9,4.16,4.24,4.16h1.88c1.24,3.53,4.62,6.06,8.64,6.06h3.34c0.95,0,1.85-0.14,2.71-0.4c3.72-1.13,6.42-4.53,6.42-8.56v-6.81
						C64.61,213.15,64.39,212.92,64.1,212.92z M41.62,221.63c-1.49,0-2.7-1.19-2.7-2.65c0-1.46,1.21-2.65,2.7-2.65H43v3.91
						c0,0.48,0.05,0.94,0.12,1.39H41.62z"/>
					<path class="st11" d="M47.01,212.92h-3.49c-0.27,0-0.51,0.23-0.51,0.51v1.38h-1.38c-2.34,0-4.24,1.88-4.24,4.17
						s1.9,4.16,4.24,4.16h1.88c1.24,3.53,4.62,6.06,8.64,6.06h3.34c0.95,0,1.85-0.14,2.71-0.4
						C50.72,223.96,47.92,217.84,47.01,212.92z M41.62,221.63c-1.49,0-2.7-1.19-2.7-2.65c0-1.46,1.21-2.65,2.7-2.65H43v3.91
						c0,0.48,0.05,0.94,0.12,1.39H41.62z"/>
					<g>
						<path class="st10" d="M97.53,214.81h-1.38v-1.38c0-0.29-0.24-0.51-0.51-0.51H75.05c-0.29,0-0.51,0.23-0.51,0.51v6.81
							c0,4.96,4.09,8.96,9.13,8.96h3.35c0.95,0,1.87-0.14,2.72-0.42c2.77-0.84,4.97-2.95,5.91-5.65h1.88c2.34,0,4.24-1.87,4.24-4.16
							S99.87,214.81,97.53,214.81z M97.53,221.63h-1.5c0.07-0.45,0.12-0.92,0.12-1.39v-3.91h1.38c1.49,0,2.7,1.19,2.7,2.65
							C100.23,220.45,99.01,221.63,97.53,221.63z"/>
						<path class="st11" d="M89.74,228.79c-0.86,0.27-1.77,0.42-2.72,0.42h-3.35c-5.04,0-9.13-4.01-9.13-8.96v-6.81
							c0-0.29,0.23-0.51,0.51-0.51h2.73C78.03,218.5,80.23,226.08,89.74,228.79z"/>
					</g>
				</g>
				<rect x="41.02" y="229.21" class="st12" width="59.21" height="5.29"/>
				<rect x="78.39" y="156.51" class="st13" width="11.06" height="2.61"/>
			</g>
			<path class="st14" d="M615.19,167.81c-7.26-3.6-11.99-8.45-21.16-8.45h0.42c0-2.13-1.73-3.86-3.86-3.86h-8.5
				c-0.45-7.23-6.28-13.01-13.54-13.38V0h-1.49v142.11c-7.26,0.37-13.08,6.15-13.54,13.38h-8.5c-2.13,0-3.86,1.73-3.86,3.86h1.18
				c-3.84,0-7.61,0.93-11.01,2.72l-10.87,5.72c-0.17,0.04-0.25,0.09-0.25,0.13c0,1.7,95.2,1.7,95.2,0
				C615.41,167.89,615.33,167.85,615.19,167.81z"/>
		</g>
	</g>
	<g>
		<g>
			<g>
				<g>
					<path class="st15" d="M198.25,49.5c-0.03,0.02-0.07,0.05-0.1,0.07C198.19,49.54,198.22,49.52,198.25,49.5L198.25,49.5z"/>
					<g>
						<path class="st16" d="M316.72,79.58c0.06-7.57-2.72-14.59-7.46-20.39c-1.07-1.52-2.09-2.9-3.04-4.12
							c-2.25-2.9-5.15-5.91-6.61-9.13c4.94-2.13,8.02-4.55,8.02-4.55c-2.65-26.99-17.55-35.54-43.55-29.41
							c-4.65-2.38-19.31-8.73-37.78,5.18c-3.54,2.67-4.67,5.92-6.51,9.27c-4.66,8.5-11.05,14.2-20.05,19.87
							c-0.03,0.02-0.07,0.04-0.1,0.06l-1.23,0.77c-16.7,10.51-18.78,32.1-8.9,43.16l2.84,3.22c0.44,0.5,0.9,0.98,1.37,1.44
							c1.72,1.69,2.41,3.92,1.8,6.08c-1.13,4.02-1.46,8.3-0.75,12.75c0.5,3.1,1.47,6.08,2.87,8.88c0.46,0.93,0.98,1.85,1.53,2.74
							c0.83,1.34,1.76,2.63,2.78,3.86c1.02,1.23,2.13,2.41,3.32,3.52c1.19,1.11,2.46,2.16,3.8,3.14c1.34,0.98,2.76,1.89,4.23,2.72
							c0.49,0.28,0.99,0.55,1.5,0.81c2.03,1.04,4.16,1.94,6.38,2.68c1.67,0.56,3.38,1.02,5.14,1.4c1.76,0.37,3.55,0.65,5.38,0.82
							c0.61,0.06,1.22,0.1,1.84,0.14c4.27,0.24,8.42-0.06,12.35-0.83c1.57-0.31,3.11-0.69,4.61-1.15c1.5-0.45,2.96-0.98,4.37-1.57
							c4.95-2.07,9.34-4.95,12.94-8.43c0.61-0.59,1.23-1.18,1.86-1.77c1.88-1.75,3.81-3.46,5.79-5.14c3.96-3.34,8.1-6.54,12.35-9.63
							c1.42-1.03,2.85-2.05,4.28-3.06c2.16-1.51,4.34-3,6.53-4.48c0.73-0.49,1.46-0.98,2.2-1.47c0.44-0.29,0.87-0.6,1.3-0.91
							c0.08-0.06,0.16-0.12,0.25-0.18c0.41-0.3,0.82-0.61,1.21-0.93c0.07-0.05,0.14-0.11,0.2-0.16c0.39-0.32,0.78-0.64,1.15-0.96
							c0.02-0.02,0.04-0.04,0.07-0.06c0.39-0.34,0.78-0.7,1.15-1.05c0.06-0.06,0.13-0.12,0.19-0.18c0.37-0.36,0.74-0.72,1.09-1.09
							c0.03-0.03,0.06-0.06,0.09-0.1c0.35-0.37,0.7-0.75,1.04-1.14c0.02-0.02,0.04-0.05,0.07-0.07c0.34-0.39,0.67-0.8,1-1.2
							c0.04-0.05,0.08-0.11,0.13-0.16c0.29-0.37,0.57-0.74,0.84-1.12c0.03-0.05,0.07-0.09,0.11-0.14c0,0-0.01,0.01-0.01,0.01
							C314.47,92.31,316.66,86.17,316.72,79.58z"/>
						<path class="st17" d="M300.89,29.5c-0.3,0-0.57-0.22-0.63-0.52c-2.47-13.05-19.75-14.17-19.93-14.18
							c-0.35-0.02-0.63-0.32-0.61-0.68c0.02-0.35,0.33-0.63,0.68-0.61c0.18,0.01,18.47,1.18,21.12,15.22
							c0.07,0.35-0.16,0.69-0.51,0.75C300.97,29.5,300.93,29.5,300.89,29.5z"/>
					</g>
					<g>
						<g>
							<g>
								<path class="st18" d="M260.13,36.67c-1.77,11.19-8.15,20.77-13.57,21.02l-4.46-1.54l-0.01,0.35l-4.38-0.41
									c-5.91-0.55-11.18,3.84-11.73,9.75l-0.02,0.24c-0.55,5.91,3.84,11.18,9.75,11.73l4.31,0.4l-5.37,33.81
									c-1.17,9.68,7.69,16.35,17.53,17.54l0.41,0.05c9.84,1.19,18.85-5.76,20.02-15.45l1.06-8.74
									c11.66-1.51,20.79-11.33,21.08-23.44l0.83-34.45c0-0.02,0-0.05,0-0.07C286.09,50.4,272.52,50.75,260.13,36.67z"/>
							</g>
						</g>
						<path class="st19" d="M273.59,105.71c0,0-21.11-1.55-23.73-9.45c-2.61-7.9,0,0,0,0s-2.33,11.29,22.26,20.29L273.59,105.71z"/>
						<g>
							<path class="st19" d="M235.21,71.05c-0.48,0-0.94-0.27-1.16-0.73c-0.31-0.64-0.04-1.41,0.6-1.72l2.43-1.18l-2.35-3.39
								c-0.4-0.58-0.26-1.39,0.33-1.79c0.58-0.4,1.39-0.26,1.79,0.33l3.2,4.63c0.21,0.31,0.28,0.7,0.19,1.06
								c-0.1,0.36-0.35,0.67-0.68,0.83l-3.78,1.83C235.59,71.01,235.4,71.05,235.21,71.05z"/>
							<path class="st3" d="M229.87,76.54c-0.42,2.19,1.02,4.31,3.22,4.73c2.2,0.42,4.32-1.02,4.73-3.22
								c0.42-2.19-1.02-4.31-3.22-4.73C232.41,72.9,230.29,74.34,229.87,76.54z"/>
							<g>
								
									<ellipse transform="matrix(0.7984 -0.6021 0.6021 0.7984 16.3698 188.2625)" class="st16" cx="289.33" cy="69.69" rx="2.09" ry="2.09"/>
								<path class="st3" d="M266.2,75.07c-0.36,0-0.72-0.02-1.08-0.06c-5.37-0.58-9.26-5.43-8.68-10.8
									c0.58-5.37,5.43-9.26,10.8-8.68c2.6,0.28,4.94,1.56,6.58,3.6c1.64,2.04,2.39,4.6,2.1,7.2l0,0c-0.28,2.6-1.56,4.94-3.6,6.58
									C270.57,74.32,268.43,75.07,266.2,75.07z M266.18,57.4c-3.96,0-7.38,2.99-7.81,7.02c-0.47,4.31,2.66,8.2,6.97,8.67
									c2.09,0.23,4.14-0.37,5.78-1.69c1.64-1.32,2.66-3.19,2.89-5.28c0.23-2.09-0.37-4.14-1.69-5.78
									c-1.32-1.64-3.19-2.66-5.28-2.89C266.75,57.42,266.46,57.4,266.18,57.4z"/>
								<path class="st16" d="M270.24,66.75c-0.18,0-0.37-0.08-0.49-0.23c-0.1-0.12-2.49-2.9-5.45-0.59
									c-0.28,0.22-0.68,0.17-0.9-0.11c-0.22-0.28-0.17-0.68,0.11-0.9c3.16-2.46,6.11-0.56,7.23,0.79
									c0.23,0.27,0.19,0.68-0.08,0.91C270.53,66.7,270.38,66.75,270.24,66.75z"/>
								<path class="st3" d="M290.4,77.42c-0.35,0-0.71-0.02-1.07-0.06c-2.6-0.28-4.94-1.56-6.58-3.6c-1.64-2.04-2.39-4.59-2.1-7.2
									c0.28-2.6,1.56-4.94,3.6-6.58c2.04-1.64,4.59-2.39,7.2-2.1c5.37,0.58,9.26,5.43,8.68,10.8l0,0
									C299.59,73.7,295.33,77.42,290.4,77.42z M290.38,59.76c-1.78,0-3.5,0.6-4.91,1.74c-1.64,1.32-2.66,3.19-2.89,5.28
									c-0.23,2.09,0.37,4.14,1.69,5.78c1.32,1.64,3.19,2.66,5.28,2.89c4.32,0.47,8.2-2.66,8.67-6.97c0.47-4.31-2.66-8.2-6.97-8.67
									C290.95,59.78,290.66,59.76,290.38,59.76z"/>
								<path class="st19" d="M277.51,77.3c-0.19,0-0.39-0.01-0.59-0.03l-2.4-0.23c-0.53-0.05-0.92-0.52-0.87-1.05
									c0.05-0.53,0.53-0.92,1.05-0.87l2.4,0.23c1.13,0.1,2.24-0.23,3.11-0.96c0.88-0.72,1.42-1.75,1.53-2.88
									c0.03-0.3-0.06-0.6-0.26-0.84c-0.19-0.24-0.47-0.38-0.77-0.41l-1.53-0.15c-0.67-0.06-1.27-0.38-1.7-0.9
									c-0.43-0.52-0.63-1.17-0.56-1.84l0.66-6.89c0.05-0.53,0.53-0.92,1.05-0.87c0.53,0.05,0.92,0.52,0.87,1.05l-0.66,6.89
									c-0.01,0.15,0.03,0.31,0.13,0.43c0.1,0.12,0.24,0.19,0.39,0.21l1.53,0.15c0.82,0.08,1.56,0.47,2.08,1.1
									c0.52,0.63,0.77,1.43,0.69,2.25C283.36,74.9,280.66,77.3,277.51,77.3z"/>
								<path class="st3" d="M281.12,66.42c-2.33-2.35-5.54-0.65-5.67-0.58l-0.93-1.69c1.58-0.87,5.28-1.81,7.97,0.91L281.12,66.42z
									"/>
								<path class="st3" d="M257.54,63.25c-0.13,0-0.26-0.03-0.38-0.08l-15.53-6.74c-0.49-0.21-0.71-0.78-0.5-1.27
									c0.21-0.49,0.78-0.71,1.27-0.5l15.53,6.74c0.49,0.21,0.71,0.78,0.5,1.27C258.26,63.03,257.91,63.25,257.54,63.25z"/>
								<g>
									<g>
										<path class="st19" d="M276.42,95.18c-0.1,0.02-0.2,0-0.29-0.05c-0.09-0.05-2.29-1.28-4.16,0.36
											c-0.18,0.16-0.45,0.14-0.61-0.04c-0.16-0.18-0.14-0.46,0.04-0.61c2.35-2.05,5.14-0.47,5.17-0.45
											c0.21,0.12,0.28,0.39,0.16,0.59C276.66,95.09,276.55,95.16,276.42,95.18z"/>
									</g>
								</g>
								<g>
									<g>
										<g>
											<g>
												<g>
													<g>
														<path class="st16" d="M262.27,54.22c0.8,0.26,1.79,0.07,2.76-0.05c0.97-0.15,1.95-0.27,2.81-0.35
															c0.86-0.08,1.84-0.14,2.83-0.17c0.98-0.05,1.99-0.05,2.72-0.45c0.71-0.38,0.92-1.3-0.05-2.31
															c-0.92-0.99-3.16-1.95-6-1.7c-2.83,0.27-4.83,1.62-5.51,2.76C261.08,53.12,261.49,53.98,262.27,54.22z"/>
													</g>
												</g>
											</g>
											<g>
												<g>
													<g>
														<path class="st16" d="M287.32,59.4c0.66-0.11,1.4,0.16,2.14,0.38c0.74,0.23,1.48,0.45,2.14,0.61
															c0.66,0.17,1.42,0.33,2.18,0.47c0.75,0.16,1.54,0.28,2.06,0.68c0.5,0.38,0.56,1.12-0.32,1.79
															c-0.83,0.66-2.69,1.13-4.87,0.59c-2.17-0.55-3.56-1.85-3.95-2.81C286.27,60.12,286.69,59.5,287.32,59.4z"/>
													</g>
												</g>
											</g>
										</g>
									</g>
								</g>
								<path class="st19" d="M273.49,84.92c-0.06,0-0.11-0.01-0.17-0.02l-5.93-1.05c-2.38-0.42-4.01-2.63-3.72-5.03l0.1-0.82
									c0.06-0.53,0.55-0.91,1.07-0.84c0.53,0.06,0.91,0.55,0.84,1.07l-0.1,0.82c-0.17,1.38,0.78,2.65,2.14,2.9l5.93,1.05
									c0.52,0.09,0.87,0.59,0.78,1.12C274.36,84.59,273.95,84.92,273.49,84.92z"/>
							</g>
						</g>
					</g>
				</g>
				<g>
					<g>
						<g>
							<path class="st21" d="M304.26,139.47c-1.98-9.61-12.44-17.75-21.69-21.02l-9.22-3.16l-40.31-3.38l-19.18,3.31
								c-13.27,2.29-25.3,9.51-33.16,20.45c-6.3,8.77-11.13,21.23-10.64,38.71c0.03,0.95,0.71,1.75,1.65,1.92l33.67,5.83l1.18,52.82
								h84.12C290.68,234.95,310.91,171.78,304.26,139.47z"/>
							<path class="st14" d="M304.26,139.47c-1.98-9.61-12.44-17.75-21.69-21.02l-9.22-3.16l-40.31-3.38l-4.41,0.76l31.22,2.62
								l9.22,3.16c9.25,3.28,19.71,11.41,21.69,21.02c6.65,32.32-13.58,95.48-13.58,95.48h13.5
								C290.68,234.95,310.91,171.78,304.26,139.47z"/>
							<g>
								<g>
									<path class="st14" d="M219.46,174.66c-0.05,0-0.11,0-0.17-0.01l-46.73-8.08c-0.52-0.09-0.88-0.59-0.79-1.12
										c0.09-0.53,0.59-0.88,1.12-0.79l46.73,8.07c0.52,0.09,0.88,0.59,0.79,1.12C220.33,174.33,219.92,174.66,219.46,174.66z"/>
									<path class="st14" d="M217.14,184.72c-0.13,0-0.27-0.01-0.4-0.03l-2.31-0.29c-0.53-0.07-0.9-0.55-0.84-1.08
										c0.07-0.53,0.55-0.91,1.08-0.84l2.31,0.29c0.38,0.05,0.74-0.06,1.03-0.31c0.29-0.25,0.46-0.59,0.47-0.97l0.74-22.65
										c0.02-0.53,0.47-0.96,1-0.93c0.53,0.02,0.95,0.46,0.93,1l-0.74,22.65c-0.03,0.92-0.45,1.78-1.14,2.38
										C218.67,184.45,217.91,184.72,217.14,184.72z"/>
									<path class="st14" d="M176.45,175.95c-0.04,0-0.07,0-0.11-0.01c-0.53-0.06-0.91-0.54-0.85-1.07l0.94-8.1
										c0.06-0.53,0.54-0.91,1.07-0.85c0.53,0.06,0.91,0.54,0.85,1.07l-0.94,8.1C177.35,175.59,176.93,175.95,176.45,175.95z"/>
									<path class="st14" d="M184.66,177.03c-0.04,0-0.07,0-0.11-0.01c-0.53-0.06-0.91-0.54-0.85-1.07l0.94-8.1
										c0.06-0.53,0.54-0.91,1.07-0.85c0.53,0.06,0.91,0.54,0.85,1.07l-0.94,8.1C185.57,176.66,185.15,177.03,184.66,177.03z"/>
									<path class="st14" d="M192.94,178.85c-0.04,0-0.07,0-0.11-0.01c-0.53-0.06-0.91-0.54-0.85-1.07l0.94-8.1
										c0.06-0.53,0.54-0.91,1.07-0.85c0.53,0.06,0.91,0.54,0.85,1.07l-0.94,8.1C193.84,178.48,193.42,178.85,192.94,178.85z"/>
									<path class="st14" d="M201.24,180.42c-0.04,0-0.07,0-0.11-0.01c-0.53-0.06-0.91-0.54-0.85-1.07l0.94-8.1
										c0.06-0.53,0.54-0.91,1.07-0.85c0.53,0.06,0.91,0.54,0.85,1.07l-0.94,8.1C202.14,180.06,201.72,180.42,201.24,180.42z"/>
									<path class="st14" d="M210.4,182.07c-0.04,0-0.07,0-0.11-0.01c-0.53-0.06-0.91-0.54-0.85-1.07l0.94-8.1
										c0.06-0.53,0.54-0.91,1.07-0.85c0.53,0.06,0.91,0.54,0.85,1.07l-0.94,8.1C211.3,181.71,210.88,182.07,210.4,182.07z"/>
								</g>
							</g>
						</g>
						<path class="st3" d="M275.97,111.16c0,0-10.07,0.74-10.55,0.53l-25.86-10.33c-2.03-0.85-4.36,0.26-4.97,2.38l-2.67,9.25
							c-0.46,1.59,0.19,3.28,1.59,4.16l21.33,13.29c1.92,1.2,4.46,0.4,5.35-1.68l5.34-12.51c0.1-0.23,0.17-0.47,0.22-0.7
							c0.06-0.31,0.07-0.61,0.06-0.92l6.97,11.25c2.71,4.38,9.44,2.73,9.82-2.41l0.4-5.43C283.3,114.05,279.94,110.77,275.97,111.16
							z"/>
					</g>
					<g>
						<g>
							<path class="st16" d="M257.97,139.05l-1.47-2.01c-1.3-1.77-0.91-4.26,0.85-5.55l28.88-21.17c1.77-1.3,4.26-0.91,5.55,0.85
								l1.47,2.01c1.3,1.77,0.91,4.26-0.85,5.55l-28.88,21.17C261.76,141.21,259.27,140.82,257.97,139.05z"/>
							<path class="st22" d="M285.81,121.93l-4.84-6.61c-0.95-1.3-0.67-3.12,0.63-4.07l2.21-1.62c1.3-0.95,3.12-0.67,4.07,0.63
								l4.84,6.61c0.95,1.3,0.67,3.12-0.63,4.07l-2.21,1.62C288.59,123.51,286.76,123.23,285.81,121.93z"/>
							<g>
								<path class="st21" d="M330.98,83.98c-8.68-11.83-25.31-14.39-37.14-5.72c-11.83,8.68-14.39,25.31-5.72,37.14
									c8.68,11.83,25.31,14.39,37.14,5.72C337.1,112.44,339.66,95.81,330.98,83.98z M320.95,115.23
									c-8.58,6.29-20.64,4.44-26.94-4.15c-6.29-8.58-4.44-20.64,4.15-26.94c8.58-6.29,20.64-4.44,26.94,4.15
									C331.39,96.88,329.53,108.94,320.95,115.23z"/>
								
									<ellipse transform="matrix(0.9372 -0.3488 0.3488 0.9372 -15.3315 114.2273)" class="st23" cx="309.55" cy="99.69" rx="19.27" ry="19.27"/>
							</g>
							<path class="st23" d="M307.79,91.53c-2.15,1.57-5.16,1.11-6.73-1.04c-1.57-2.15-1.11-5.16,1.04-6.73
								c2.15-1.57,5.16-1.11,6.73,1.04C310.4,86.94,309.93,89.96,307.79,91.53z"/>
						</g>
						<g>
							<g>
								<g>
									<path class="st18" d="M278.71,121.97c-2.37-0.35-4.53-0.71-6.55-1.05c1.82-1.5,3.66-3.03,4.83-5.06
										c0.38-0.66,0.68-1.46,0.39-2.15c-0.23-0.53-0.77-0.88-1.34-1.01c-0.57-0.13-1.16-0.07-1.73-0.01
										c-5.38,0.63-20.52,5.4-20.52,5.4c-9.54,4.02-18.04,12.89-17.38,19.94c0.01,0.11,0.04,0.22,0.06,0.33l-25.75,44.51
										l-38.09-6.6l1.87,29.99c0.94,18.09,12.41,34.34,30.37,31.94c14.14-1.24,22.68-4.27,29.02-16.87l29.05-71.55l8.53,0.68
										c3.87,0.51,7.5-2.95,5.18-4.83c2.8,1.15,6.29,1.4,7.34-2.17c0.81-1.91-0.25-3.11-1.76-3.96c2.59,0.99,5.31,1.45,6.4-1.45
										c1.64-2.97-0.49-4.78-2.96-5.95c1.85,0.47,3.71,0.33,4.53-1.83C292.03,123.9,283.65,123.08,278.71,121.97z M278.08,137.78
										c0.34,0.11,0.73,0.27,1.15,0.45C278.8,138.07,278.41,137.92,278.08,137.78z"/>
									<path class="st19" d="M237.19,139.67c-0.36-0.36-0.61-0.81-0.72-1.3l-5.32,9.19l7.93-6.01
										C238.29,140.78,237.64,140.12,237.19,139.67z"/>
									<polygon class="st19" points="261.74,149.72 260.37,156.11 262.94,149.79 262.18,149.73 									"/>
									<path class="st19" d="M272.16,120.92l-11.47-0.95c0,0,12.6-2.28,14.65-1.92L272.16,120.92z"/>
								</g>
								<path class="st19" d="M286.69,133.02c-0.09,0-0.18-0.02-0.27-0.06c-0.68-0.31-4.97-1.08-7.52-1.49
									c-0.35-0.06-0.59-0.39-0.53-0.74c0.06-0.35,0.39-0.59,0.74-0.53c1.13,0.18,6.82,1.11,7.86,1.59
									c0.32,0.15,0.46,0.53,0.31,0.85C287.16,132.88,286.93,133.02,286.69,133.02z"/>
								<path class="st19" d="M282.77,140.33c-0.04,0-0.08,0-0.11-0.01l-6.15-1.1c-0.35-0.06-0.58-0.4-0.52-0.75
									c0.06-0.35,0.39-0.59,0.75-0.52l6.15,1.1c0.35,0.06,0.58,0.4,0.52,0.75C283.35,140.12,283.08,140.33,282.77,140.33z"/>
								<path class="st19" d="M276.64,146.28c-0.04,0-0.08,0-0.13-0.01l-3.3-0.66c-0.35-0.07-0.57-0.41-0.5-0.76
									c0.07-0.35,0.41-0.58,0.76-0.5l3.3,0.66c0.35,0.07,0.57,0.41,0.5,0.76C277.21,146.07,276.94,146.28,276.64,146.28z"/>
							</g>
							<polyline class="st19" points="210.72,182.88 198.12,204.92 203.07,181.53 210.04,182.88 							"/>
						</g>
					</g>
				</g>
			</g>
		</g>
		<g>
			<g>
				<g>
					<path class="st24" d="M317.07,106.16h1.08h1.08c2.24,0,4.37,0.42,6.35,1.15h50.67v127.58l-77.64-0.13v-72.5v-29.32v-8.33
						C298.62,114.42,306.88,106.16,317.07,106.16z"/>
					<path class="st25" d="M318.59,106.16L318.59,106.16c9.92,0,20.19,4.87,22.31,18.69l0.07,10.93c-0.03,0.23-0.04,0.46-0.07,0.69
						l0.08,0.2l0.12,17.67c0.71,5.29,4.97,9.6,10.62,11.11c-0.39,0.23-1.06,0.39-1.93,0.47c-8.51,0.87-15.87-5.46-15.87-13.34
						v-25.87c0-10.25-8.16-18.73-18.82-20.27C316.24,106.27,317.4,106.16,318.59,106.16z"/>
					<path class="st3" d="M379.93,106.16c8.81,0,15.94,7.14,15.94,15.94v20.91h22.14v22.93h-66.96c-0.3,0-0.59-0.03-0.88-0.04
						c0,0-0.01,0-0.01,0c-0.01,0-0.02,0-0.04,0c-0.34-0.02-0.67-0.06-1-0.11c-0.1-0.01-0.19-0.03-0.29-0.04
						c-0.29-0.05-0.57-0.1-0.85-0.17c-0.14-0.03-0.27-0.07-0.41-0.11c-0.24-0.07-0.48-0.13-0.72-0.21
						c-0.18-0.06-0.35-0.13-0.53-0.19c-0.19-0.07-0.39-0.14-0.58-0.23c-0.25-0.11-0.49-0.23-0.73-0.35
						c-0.11-0.06-0.23-0.11-0.34-0.17c-0.73-0.4-1.41-0.86-2.05-1.39c-0.04-0.03-0.08-0.07-0.12-0.11
						c-0.27-0.23-0.54-0.47-0.79-0.72c-0.06-0.06-0.11-0.12-0.17-0.17c-0.23-0.24-0.45-0.48-0.67-0.73
						c-0.06-0.07-0.12-0.14-0.18-0.22c-0.2-0.25-0.39-0.5-0.57-0.76c-0.06-0.08-0.11-0.16-0.17-0.25c-0.17-0.26-0.33-0.53-0.49-0.8
						c-0.05-0.09-0.1-0.18-0.15-0.27c-0.15-0.28-0.28-0.56-0.41-0.85c-0.04-0.09-0.09-0.18-0.13-0.28
						c-0.13-0.31-0.24-0.62-0.34-0.94c-0.03-0.08-0.06-0.16-0.09-0.24c-0.12-0.38-0.22-0.77-0.3-1.17
						c-0.05-0.23-0.08-0.48-0.12-0.71c-0.02-0.14-0.05-0.29-0.07-0.43h-0.17v-29.65c0-10.19-8.26-18.45-18.45-18.45H379.93z"/>
					<g>
						<path class="st18" d="M347.48,184.38c-0.02-1.58,1.14-2.9,2.59-2.93l0.31-0.01c0.1-0.05,0.19-0.09,0.28-0.14
							c-1.09-0.34-1.91-1.41-1.93-2.71c-0.02-1.58,1.14-2.9,2.59-2.93c0,0,24.94-2.59,24.94-2.59l-2.94-4.36
							c-1.06-1.58-0.73-3.89,0.76-5.29c0.83-0.78,1.99-0.88,2.8-0.26c5.25,4.04,10.82,8.31,13.51,14.6
							c2.82,6.59,1.79,15.93-4.79,19.93c-4.37,2.66-9.91,3.14-14.91,2.73c-2.17-0.17-13.85-2.94-14.43-3.02
							c-2.01-0.29-4.31-0.94-3.96-3.31c0.1-0.69,0.5-1.34,1.08-1.74c0.04-0.03,0.08-0.05,0.1-0.09c0.07-0.15-0.16-0.26-0.33-0.27
							c-1.77-0.06-3.56-0.72-3.66-2.75c-0.04-0.73,0.23-1.34,0.57-1.97c-0.6-0.3-1.21-0.32-1.74-0.85
							C347.78,185.89,347.49,185.14,347.48,184.38z"/>
						<polygon class="st19" points="376.27,173.09 380.32,172.64 374.05,169.77 						"/>
						<path class="st19" d="M350.49,181.83c-0.35,0-0.64-0.28-0.64-0.63c-0.01-0.36,0.28-0.65,0.63-0.65l11.43-0.2
							c0.38,0,0.65,0.28,0.65,0.63c0.01,0.36-0.28,0.65-0.63,0.65l-11.43,0.2C350.5,181.83,350.49,181.83,350.49,181.83z"/>
						<path class="st19" d="M351.25,187.58c-0.35,0-0.64-0.28-0.64-0.63c-0.01-0.36,0.28-0.65,0.63-0.65l11.43-0.2
							c0.33-0.02,0.65,0.28,0.65,0.63c0.01,0.36-0.28,0.65-0.63,0.65l-11.43,0.2C351.26,187.58,351.25,187.58,351.25,187.58z"/>
						<path class="st19" d="M362.68,192.92c0,0-0.01,0-0.01,0l-9.02-0.17c-0.36-0.01-0.64-0.3-0.63-0.66
							c0.01-0.35,0.29-0.63,0.64-0.63c0,0,0.01,0,0.01,0l9.02,0.17c0.36,0.01,0.64,0.3,0.63,0.66
							C363.32,192.65,363.03,192.92,362.68,192.92z"/>
					</g>
				</g>
				<g>
					<path class="st26" d="M370.95,123.65h1.52c-0.52,0.03-1.03,0.12-1.52,0.22V123.65z"/>
					<g>
						<path class="st27" d="M376.17,124.58c0.15,0.07,0.29,0.14,0.43,0.21C376.45,124.72,376.31,124.65,376.17,124.58z"/>
						<path class="st27" d="M376.99,125.01c0.15,0.08,0.29,0.17,0.44,0.26C377.28,125.18,377.14,125.09,376.99,125.01z"/>
						<path class="st27" d="M375.3,124.23c0.14,0.05,0.28,0.11,0.41,0.16C375.58,124.34,375.44,124.28,375.3,124.23z"/>
						<path class="st27" d="M377.76,125.49c0.15,0.1,0.3,0.21,0.45,0.32C378.06,125.7,377.91,125.59,377.76,125.49z"/>
						<path class="st27" d="M374.39,123.96c0.13,0.03,0.26,0.08,0.39,0.11C374.65,124.03,374.52,123.99,374.39,123.96z"/>
						<path class="st27" d="M373.44,123.76c0.11,0.02,0.22,0.04,0.33,0.07C373.66,123.8,373.56,123.78,373.44,123.76z"/>
						<path class="st27" d="M378.47,126.02c0.16,0.13,0.31,0.26,0.46,0.4C378.78,126.28,378.62,126.15,378.47,126.02z"/>
						<path class="st27" d="M379.59,127.09c-0.15-0.17-0.32-0.33-0.48-0.49C379.27,126.76,379.44,126.92,379.59,127.09z"/>
						<path class="st27" d="M382.22,132.75c-0.28-2.13-1.2-4.05-2.56-5.58C381.02,128.7,381.94,130.63,382.22,132.75L382.22,132.75z
							"/>
						<path class="st25" d="M362.54,152.7v-19.95h0.17c0.59-4.42,3.92-7.96,8.23-8.88c0.5-0.11,1-0.19,1.52-0.22
							c0.33,0.02,0.66,0.06,0.98,0.11c0.11,0.02,0.22,0.04,0.33,0.07c0.21,0.04,0.41,0.08,0.62,0.13c0.13,0.03,0.26,0.08,0.39,0.11
							c0.17,0.05,0.35,0.1,0.52,0.16c0.14,0.05,0.28,0.11,0.41,0.16c0.15,0.06,0.3,0.12,0.45,0.19c0.15,0.07,0.29,0.14,0.43,0.21
							c0.13,0.07,0.26,0.14,0.39,0.21c0.15,0.08,0.29,0.17,0.44,0.26c0.11,0.07,0.22,0.14,0.33,0.22c0.15,0.1,0.3,0.21,0.45,0.32
							c0.09,0.07,0.18,0.14,0.26,0.21c0.16,0.13,0.31,0.26,0.46,0.4c0.06,0.06,0.12,0.12,0.18,0.18c0.17,0.16,0.33,0.32,0.48,0.49
							c0.03,0.03,0.05,0.06,0.07,0.09c1.36,1.53,2.28,3.45,2.56,5.58l0,0c0.06,0.46,0.1,0.93,0.1,1.4v5.68h54.94v12.82
							c0,7.34-5.95,13.29-13.29,13.29h-72.96v-0.14C357.52,164.96,362.54,159.43,362.54,152.7z"/>
						<path class="st24" d="M382.33,134.16c0-0.48-0.04-0.94-0.1-1.4c-0.28-2.13-1.2-4.05-2.56-5.58c-0.02-0.03-0.05-0.06-0.07-0.09
							c-0.15-0.17-0.32-0.33-0.48-0.49c-0.06-0.06-0.12-0.12-0.18-0.18c-0.15-0.14-0.3-0.27-0.46-0.4
							c-0.09-0.07-0.17-0.14-0.26-0.21c-0.15-0.11-0.3-0.22-0.45-0.32c-0.11-0.07-0.22-0.15-0.33-0.22
							c-0.14-0.09-0.29-0.18-0.44-0.26c-0.13-0.07-0.26-0.14-0.39-0.21c-0.14-0.07-0.28-0.14-0.43-0.21
							c-0.15-0.07-0.3-0.13-0.45-0.19c-0.14-0.06-0.27-0.11-0.41-0.16c-0.17-0.06-0.35-0.11-0.52-0.16
							c-0.13-0.04-0.26-0.08-0.39-0.11c-0.2-0.05-0.41-0.09-0.62-0.13c-0.11-0.02-0.22-0.05-0.33-0.07
							c-0.32-0.05-0.65-0.09-0.98-0.11h68.22c7.34,0,13.29,5.95,13.29,13.29v2.9h-16.71h-54.94V134.16z"/>
					</g>
				</g>
			</g>
		</g>
	</g>
</g>
</svg>
