<?xml version="1.0" encoding="utf-8"?>
<!-- Generator: Adobe Illustrator 23.0.5, SVG Export Plug-In . SVG Version: 6.00 Build 0)  -->
<svg version="1.0" id="Layer_1" xmlns="http://www.w3.org/2000/svg" xmlns:xlink="http://www.w3.org/1999/xlink" x="0px" y="0px"
	 viewBox="0 0 624 320" style="enable-background:new 0 0 624 320;" xml:space="preserve">
<style type="text/css">
	.st0{opacity:0.3;fill:#35B24A;}
	.st1{fill:#EBF3FA;}
	.st2{fill:#82B378;}
	.st3{fill:#A8D29F;}
	.st4{opacity:0.3;}
	.st5{fill:#80C251;}
	.st6{fill:#945D25;}
	.st7{opacity:0.1;}
	.st8{fill:#333333;}
	.st9{fill:#E9F1DF;}
	.st10{fill:#D3D3D3;}
	.st11{opacity:0.3;fill:#FFFFFF;}
	.st12{fill:#1E1E1E;}
	.st13{fill:#015E3A;}
	.st14{fill:#FFF0D7;}
	.st15{fill:#F4E5CD;}
	.st16{fill:#EEDEC9;}
	.st17{fill:#082738;}
	.st18{fill:#FBAE17;}
	.st19{fill:#F7FBFF;}
	.st20{fill:#5E5F5E;}
	.st21{fill:#55C8E9;}
	.st22{fill:#353535;}
	.st23{fill:#5A5B5C;}
	.st24{fill:#282827;}
	.st25{fill:#FFFFFF;}
	.st26{fill:#B4B4B4;}
	.st27{fill:#7FC4EC;}
	.st28{fill:#BDE6FA;}
	.st29{fill:#E3F4FC;}
	.st30{fill:#EF6A1C;}
	.st31{fill:#FDDB00;}
	.st32{fill:#EAB120;}
	.st33{fill:#FCBF10;}
	.st34{fill:#BF8F2D;}
</style>
<g>
	<g>
		<rect class="st0" width="624" height="320"/>
		<path class="st1" d="M71.04,319.85c0,0-65.46-70.97-11.07-147.81c48.26-68.18,104.52-63.52,145.79-35.85
			c17.58,11.78,68.27,1.45,111.41-67.92C376-26.33,579.94,31.04,542.75,176.6c-17.99,70.44,54.76,73,17.69,143.4L71.04,319.85z"/>
	</g>
	<g>
		<g>
			<path class="st2" d="M267.01,252.82c0,0,12.47-14.54,0.77-23.78c0,0-8.54-5.17-15.51-4.75c0,0,9.87,16.56,6.68,18.2
				c-3.19,1.65-9.67-19.24-9.67-19.24s-19.45-1.89-25.7,1.12c0,0,16.62,13.6,13.12,14.41c-3.5,0.81-21.46-12.54-21.46-12.54
				s-18.1,3.08-17.13,14.12c0.96,11.04,7.2,14.45,9.94,14.16c2.74-0.29,18.77-6.41,19.12-4.17c0.35,2.25-9.3,9.58-16.06,9.93
				c0,0,12.76,14.07,21.24,10.01c8.48-4.06,9.2-10.5,14.49-12.91c5.29-2.41,9.8-2.41,7.62,0.05c-2.18,2.46-11.75,4.86-14.77,10.2
				c-3.02,5.35-5.74,8.95,3.04,7.63c8.77-1.32,23.03-7.74,23.66-15.09C267.01,252.82,267.01,252.82,267.01,252.82z"/>
			<g>
				<path class="st2" d="M207,240.65c0,0,49.16-1.89,60.01,12.16c0,0,2.4,7.19,9.79,13.74l1.15,3.14c0,0-8.52-8.98-11.57-9.52
					C266.38,260.17,271.15,242.75,207,240.65z"/>
				<path class="st2" d="M276.8,266.56c0,0,10.55,7.8,11.28,21.74l-1.91,0.17c0,0-3.37-14.42-9.46-20.05
					C270.61,262.78,276.8,266.56,276.8,266.56z"/>
			</g>
		</g>
		<g>
			<path class="st3" d="M279.05,219.21c0,0,26.14-14.64,13.94-34.51c0,0-9.76-12.2-20.22-15.34c0,0,5.58,29.63,0,30.32
				c-5.58,0.7-3.83-33.46-3.83-33.46s-27.54-13.25-38.34-12.2c0,0,17.08,28.93,11.5,28.23c-5.58-0.7-24.75-29.98-24.75-29.98
				s-28.23-5.23-32.76,11.5c-4.53,16.73,2.79,25.1,6.97,26.14c4.18,1.05,31.02,0.7,30.32,4.18c-0.7,3.49-18.82,9.06-28.93,5.93
				c0,0,11.15,27.54,25.79,26.14c14.64-1.39,19.17-10.46,28.23-11.15c9.06-0.7,15.69,1.74,11.15,4.18
				c-4.53,2.44-19.87,0.8-27.19,7.02c-7.32,6.22-13.25,10.06,0.35,12.85c13.59,2.79,37.99,1.05,42.87-9.41
				C279.05,219.21,279.05,219.21,279.05,219.21z"/>
			<g>
				<path class="st2" d="M197.48,169.02c0,0,73.2,23.7,81.56,50.19c0,0-0.35,11.85,6.97,25.44v5.23c0,0-7.67-17.78-11.85-20.22
					C274.17,229.67,290.55,206.66,197.48,169.02z"/>
				<path class="st2" d="M286.02,244.65c0,0,11.29,17.14,4.85,38.01l-2.9-0.78c0,0,2.82-22.98-3.09-34.54
					C278.97,235.78,286.02,244.65,286.02,244.65z"/>
			</g>
		</g>
		<g>
			<ellipse class="st4" cx="286.05" cy="315.63" rx="167.03" ry="4.37"/>
			<g>
				<path class="st5" d="M464.03,239.74c-1.53,2.18-21.32,21.84-70.17,10.38c0,0,11.03-5.32,31.97-5.74
					c20.46-0.4,35.09-2.48,37.93-4.56c0.07-0.05,0.13-0.1,0.18-0.14C464.15,239.48,464.19,239.52,464.03,239.74z"/>
				<path class="st5" d="M393.15,253.85C393.15,253.85,393.15,253.85,393.15,253.85c-0.26-0.44-16.61-28.37-17.9-36.62
					c-1.35-8.6-0.24-19.83-0.11-28.26c0.06-4.33-0.14-7.92-1.07-10.03c-0.05-0.12-0.11-0.24-0.16-0.35
					C374.52,179.73,394.03,216.41,393.15,253.85z"/>
				<path class="st5" d="M483.17,224.71c0,0-10.75,0.65-13.92,2.34c-6.03,3.21-18.89,3.03-32.14,0.72c-8.19-1.43-13-1.36-31.99,4.68
					c0.01,0,0.02-0.01,0.04-0.02c1.14-0.63,25.63-13.91,44.45-10.62c19.27,3.37,20.06-2.2,24.53-1.55
					C478.62,220.89,483.17,224.71,483.17,224.71z"/>
				<path class="st5" d="M402.69,238.43c-0.16-12.74-8.53-28.05-10.59-32.71c-2.05-4.66-2.92-13.27-2.45-22.31
					c0.47-9.05-11.38-20.77-11.38-20.77c14.96,5.36,20.95,19.36,20.74,25.16c-0.21,5.8,1.14,14.59,4.79,24.79
					C407.46,222.78,402.69,238.43,402.69,238.43z"/>
				<path class="st5" d="M502.22,193.89c-4.99,6.73-21.93,17.72-39.84,14.98c-17.63-2.7-39.8,1.32-40.49,1.45
					c0,0,0.01-0.01,0.02-0.01c0.26-0.07,0.53-0.16,0.83-0.28c5.75-2.18,18.26-11.19,39.96-8.23
					C485.55,204.92,502.22,193.89,502.22,193.89z"/>
				<path class="st5" d="M395.36,137.16c-0.32-0.27-0.49-0.41-0.49-0.41S395.05,136.85,395.36,137.16z"/>
				<path class="st5" d="M419.2,215.32c0,0-7.77-0.81-12.67-38.1c-3.28-24.99-7.49-34.7-9.85-38.36c0-0.01-0.01-0.02-0.02-0.03
					c-0.54-0.83-0.98-1.35-1.29-1.66c3.09,2.63,19.37,17.54,18.34,38.77c-1.14,23.43,3.22,34.56,5.48,39.36
					C419.19,215.31,419.2,215.32,419.2,215.32z"/>
				<path class="st5" d="M498.48,179.81C498.47,179.81,498.47,179.82,498.48,179.81c-0.02,0.02-0.03,0.02-0.05,0.03
					c-1.02,0.64-17.6,10.97-28.11,14.37c-10.76,3.49-36.39,1.91-36.79,1.88c0.26-0.14,15.78-7.99,30.2-7.97
					C478.17,188.15,498.17,179.94,498.48,179.81z"/>
				<path class="st5" d="M432.61,198.57c0-0.01-0.01-0.01-0.01-0.01c-0.49-0.47-16.19-15.6-17.2-42.03
					c-1.03-26.85,6.37-23.93,3.1-42.19c0,0,0,0,0.01,0.01c0.25,0.5,8.15,16.83,3.68,43.79
					C422.18,158.15,420.08,175.78,432.61,198.57z"/>
				<path class="st5" d="M474.79,176.63c-7.3,1.45-26.59,5.11-29.84,5.73l0,0c0,0-0.01,0-0.02,0c-0.3,0.06-0.45,0.09-0.45,0.09
					s0.07-0.08,0.2-0.21c1.6-1.73,12.93-13.29,29.81-14.06c17.96-0.81,32.6-11.85,33.06-12.19c0,0,0.01-0.01,0.01-0.01
					C499.72,168.22,482.77,175.04,474.79,176.63z"/>
				<path class="st5" d="M443.31,184.77c-0.01,0-0.01-0.01-0.02-0.02c-0.52-0.8-11.56-17.96-9.21-37.12
					c2.41-19.61,4.55-28.27,2.62-34.63c0,0,0,0,0,0c0.26,0.54,8.45,17.86,3.59,41.06c0,0-1.39,8.85,3,30.65
					C443.3,184.72,443.3,184.75,443.31,184.77z"/>
				<path class="st5" d="M455.26,168.54c-0.47-1.78-3.98-16.07-0.97-33.48c3.22-18.6,4.32-24.85,2.47-27.6
					c0.07,0.07,0.56,0.58,1.23,1.55c0.02,0.03,0.04,0.06,0.06,0.1c2.62,3.81,7.82,14.26,2.45,31.93
					c-4.92,16.17-5.48,23.33-5.38,26.13C455.14,167.88,455.21,168.31,455.26,168.54z"/>
				<polygon class="st5" points="455.3,168.71 455.3,168.72 455.3,168.71 				"/>
				<path class="st5" d="M502.31,134.15c0,0.02-0.01,0.03-0.01,0.05C502.31,134.17,502.31,134.15,502.31,134.15z"/>
				<path class="st5" d="M480.75,155.83c-19,6.47-22.15,7.59-22.24,7.63c0,0,0,0,0-0.01c0.26-0.23,8.71-7.63,21.35-13.57
					c12.29-5.77,21.34-12.78,22.36-15.41c0.01-0.02,0.02-0.05,0.02-0.07c0.03-0.07,0.05-0.14,0.06-0.2
					C502.15,135.12,499.42,149.48,480.75,155.83z"/>
				<path class="st6" d="M382.94,273.33c0-0.38,0.04-0.55,0.06-0.8c0.02-0.25,0.07-0.45,0.11-0.67l0.12-0.65
					c0.05-0.21,0.1-0.41,0.15-0.62c0.11-0.41,0.2-0.83,0.32-1.22l0.38-1.18l0.19-0.59c0.06-0.2,0.14-0.38,0.21-0.58l0.43-1.15
					c0.15-0.38,0.28-0.77,0.44-1.14l0.48-1.11l0.48-1.11c0.16-0.37,0.32-0.74,0.5-1.1l1.06-2.17l0.53-1.09l0.57-1.06l1.14-2.12
					l0.57-1.06l0.6-1.04l1.21-2.07c0.41-0.69,0.8-1.39,1.22-2.07l1.27-2.03l1.27-2.03c0.43-0.68,0.84-1.36,1.29-2.02l2.66-3.98
					c7.15-10.56,14.95-20.63,23-30.48c3.99-4.95,8.08-9.8,12.09-14.73c4.02-4.92,8.02-9.84,11.94-14.84
					c0.97-1.25,1.97-2.49,2.93-3.75l2.88-3.79c1.87-2.56,3.75-5.12,5.41-7.81c0.44-0.66,0.82-1.35,1.2-2.04
					c0.41-0.68,0.74-1.4,1.09-2.11c0.34-0.71,0.66-1.44,0.97-2.17c0.31-0.73,0.62-1.46,0.95-2.19c1.28-2.91,2.85-5.68,4.47-8.41
					c-1.56,2.77-3.07,5.56-4.29,8.49c-0.31,0.73-0.61,1.47-0.9,2.2c-0.3,0.73-0.6,1.47-0.93,2.2c-0.34,0.72-0.66,1.45-1.06,2.14
					c-0.38,0.7-0.75,1.41-1.17,2.08c-1.61,2.75-3.45,5.35-5.27,7.96l-2.8,3.86c-0.93,1.29-1.9,2.55-2.85,3.82
					c-3.82,5.08-7.73,10.09-11.64,15.09c-3.91,5-7.91,9.95-11.79,14.97c-7.82,9.98-15.38,20.18-22.26,30.8l-2.55,4
					c-0.43,0.66-0.83,1.34-1.24,2.02l-1.22,2.03l-1.22,2.03c-0.4,0.68-0.77,1.38-1.15,2.06l-1.15,2.06l-0.57,1.03l-0.54,1.05
					l-1.07,2.1l-0.54,1.05l-0.49,1.07l-0.98,2.13c-0.17,0.35-0.32,0.71-0.46,1.07l-0.44,1.08l-0.44,1.08
					c-0.15,0.36-0.26,0.73-0.4,1.09l-0.39,1.09c-0.06,0.18-0.13,0.36-0.19,0.55l-0.16,0.55l-0.32,1.09
					c-0.11,0.36-0.17,0.73-0.27,1.09c-0.04,0.18-0.09,0.36-0.12,0.54l-0.09,0.53c-0.03,0.17-0.07,0.36-0.07,0.51
					c-0.01,0.14-0.03,0.36-0.03,0.38c0.09,0.86-0.53,1.64-1.39,1.73c-0.86,0.09-1.64-0.53-1.73-1.39c-0.01-0.06-0.01-0.12-0.01-0.17
					L382.94,273.33z"/>
				<path class="st5" d="M476.03,138.26c-10.92,12.4-14.28,19.16-14.58,19.8c-0.01,0.02-0.01,0.03-0.02,0.05
					c0,0-0.1-10.62,11.68-27.18c10.11-14.2,11.3-20.87,11.44-22.48c0-0.05,0-0.09,0.01-0.13c0-0.03,0-0.06,0-0.09
					c0-0.06,0-0.1,0-0.13c0-0.01,0-0.02,0-0.03C484.66,108.67,487.32,125.46,476.03,138.26z"/>
				<path class="st7" d="M464.03,239.74c-1.53,2.18-21.32,21.84-70.17,10.38c0,0,53.55,3.07,69.9-10.3c0.06-0.05,0.12-0.1,0.18-0.14
					L464.03,239.74z"/>
				<path class="st7" d="M393.15,253.84c-0.25-0.44-16.6-28.36-17.9-36.61c-1.35-8.6-0.24-19.83-0.11-28.26
					C379.79,224.16,392.93,253.35,393.15,253.84z"/>
				<path class="st7" d="M483.2,224.68c0,0-10.75,0.65-13.92,2.34c-6.03,3.21-18.89,3.03-32.14,0.72c-8.19-1.43-13-1.36-31.99,4.68
					c0.01,0,0.02-0.01,0.03-0.02c1.11-0.5,24.01-10.66,37.27-7.46c13.6,3.28,25.91-0.72,26.69-0.87
					C469.94,223.91,477.5,222.33,483.2,224.68z"/>
				<path class="st7" d="M402.69,238.43c-0.16-12.74-8.53-28.05-10.59-32.71c-2.05-4.66-2.92-13.27-2.45-22.31
					c0.47-9.05-11.38-20.77-11.38-20.77s13.55,9.74,13.13,16.54c-0.42,6.8,2.18,21.75,6.86,29.48
					C402.94,216.37,403.02,235.36,402.69,238.43z"/>
				<path class="st7" d="M502.22,193.89c-4.99,6.73-21.93,17.72-39.84,14.98c-17.63-2.7-39.8,1.32-40.49,1.45
					c0,0,0.01-0.01,0.02-0.01c0.1-0.04,0.38-0.13,0.83-0.28c4.4-1.43,24.65-7.62,38.05-4.73
					C475.88,208.55,497.55,199.74,502.22,193.89z"/>
				<path class="st7" d="M498.43,179.84c-1.02,0.64-17.6,10.97-28.11,14.37c-10.76,3.49-36.39,1.91-36.79,1.88
					c0.36-0.08,16.02-3.38,25.03-4.12C467.67,191.21,488.35,185.85,498.43,179.84z"/>
				<path class="st7" d="M419.2,215.32c0,0-7.77-0.81-12.67-38.1c-3.28-24.99-7.49-34.7-9.85-38.36
					c9.93,14.19,11.78,22.24,12.05,30.42c1.14,34.32,10.14,45.56,10.46,46.03C419.19,215.31,419.2,215.32,419.2,215.32z"/>
				<path class="st5" d="M444.68,182.23l0.25,0.13c-0.3,0.06-0.45,0.09-0.45,0.09S444.55,182.37,444.68,182.23z"/>
				<path class="st7" d="M474.79,176.63c-7.3,1.45-26.59,5.11-29.84,5.73c0.51-0.28,17.11-9.1,28.25-8.96
					c11.3,0.14,25.47-8.26,34.34-17.41c0,0,0.01-0.01,0.01-0.01C499.72,168.22,482.77,175.04,474.79,176.63z"/>
				<path class="st7" d="M480.75,155.83c-19,6.47-22.15,7.59-22.24,7.63c0,0,0,0,0-0.01c0.43-0.24,15.42-8.66,25.6-12.15
					c10.08-3.46,16.82-12.32,18.12-16.83c0.01-0.02,0.02-0.05,0.02-0.07c0.02-0.09,0.04-0.17,0.06-0.25c0,0.02-0.01,0.03-0.01,0.05
					C502.15,135.12,499.42,149.48,480.75,155.83z"/>
				<path class="st7" d="M476.03,138.26c-10.92,12.4-14.28,19.16-14.58,19.8c7.29-16.6,12.3-20.8,17.48-26.59
					c4.73-5.29,5.51-20.37,5.61-23.01c0-0.05,0-0.09,0.01-0.13c0-0.03,0-0.06,0-0.09c0-0.06,0-0.1,0-0.13c0-0.01,0-0.02,0-0.03
					C484.66,108.67,487.32,125.46,476.03,138.26z"/>
				<path class="st7" d="M432.59,198.56c-0.49-0.47-16.19-15.6-17.2-42.03c-1.03-26.85,6.37-23.93,3.1-42.19c0,0,0,0,0.01,0.01
					c0.16,0.53,4.92,16,0.97,47.01C419.48,161.37,419.57,182.34,432.59,198.56z"/>
				<path class="st7" d="M443.29,184.74c-0.52-0.8-11.56-17.96-9.21-37.12c2.41-19.61,4.55-28.27,2.62-34.63c0,0,0,0,0,0
					c0.19,0.5,5.61,15.12,1.29,36.1c-4.39,21.35,5.3,35.6,5.3,35.6L443.29,184.74z"/>
				<path class="st7" d="M455.3,168.71L455.3,168.71C455.3,168.71,455.3,168.71,455.3,168.71
					C455.3,168.71,455.3,168.71,455.3,168.71c-0.01-0.01-0.01-0.02-0.01-0.02c0,0,0-0.01,0-0.01c0,0,0-0.01-0.01-0.02
					c0-0.01,0-0.02-0.01-0.04c0-0.01,0-0.03-0.01-0.04c-0.01-0.01-0.01-0.03-0.01-0.05c-0.47-1.78-3.98-16.07-0.97-33.48
					c3.22-18.6,4.32-24.85,2.47-27.6c0,0,0-0.01-0.01-0.01c0,0,0.55,0.49,1.24,1.56c0.02,0.03,0.04,0.06,0.06,0.1
					c1.83,2.92,4.48,9.93,0.31,22.86c-4.81,14.9-3.75,30.33-3.24,35.2C455.21,168.08,455.29,168.62,455.3,168.71z"/>
			</g>
			<g id="Smartphone_2_">
				<path class="st8" d="M402.74,313.25H265.2c-5.35,0-9.72-4.38-9.72-9.72V23.75c0-2.06,1.69-3.75,3.75-3.75h149.49
					c2.06,0,3.75,1.69,3.75,3.75v279.78C412.47,308.88,408.09,313.25,402.74,313.25z"/>
				<path class="st9" d="M404.68,281.93H263.27c-1.16,0-2.1-0.95-2.1-2.1V39.54c0-1.16,0.95-2.1,2.1-2.1h141.41
					c1.16,0,2.1,0.95,2.1,2.1v240.29C406.78,280.98,405.84,281.93,404.68,281.93z"/>
				<path class="st10" d="M359,30.71h-49.02c-0.75,0-1.36-0.61-1.36-1.36l0,0c0-0.75,0.61-1.36,1.36-1.36H359
					c0.75,0,1.36,0.61,1.36,1.36l0,0C360.36,30.1,359.75,30.71,359,30.71z"/>
				<path class="st11" d="M345.09,298.04c0,6.14-4.98,11.12-11.12,11.12c-6.14,0-11.12-4.98-11.12-11.12
					c0-6.14,4.98-11.12,11.12-11.12C340.11,286.92,345.09,291.9,345.09,298.04z"/>
			</g>
			<g>
				<g>
					<g>
						<path class="st12" d="M181.82,307.77c0,0,8.97,2.56,14.24-1.64c0,0,8.13,8.52,16.84,9.17c0,0,1.51,1.61,0,1.94
							c-1.51,0.32-18.61,0.97-21.83-1.4c0,0-5.14,2.11-9.25-0.43C179.57,314.01,181.82,307.77,181.82,307.77z"/>
						<path class="st12" d="M156.02,307.29c0,0-8.74,2.49-13.87-1.6c0,0-7.92,8.3-16.41,8.93c0,0-1.47,1.57,0,1.89
							c1.47,0.31,18.13,0.94,21.27-1.36c0,0,5.01,2.06,9.01-0.42C158.22,313.37,156.02,307.29,156.02,307.29z"/>
						<path class="st13" d="M146.08,188.32l-4.85,118c0,0,9.72,4.55,14.84,1.05l3.18-49.52l10.11-45l17.06,44.19l-4.85,50.87
							c0,0,12.07,2.54,15.63-1.77l5.77-52.43c0.15-1.36,0.06-2.74-0.25-4.07l-13.53-57.09
							C189.18,192.54,158.27,197.75,146.08,188.32z"/>
						<path class="st14" d="M171.53,105.33c2.05-0.05,3.77-0.8,5.2-1.96l-0.55,14.17h-13.47l-1.78-16.64
							C163.11,103.17,166.54,105.44,171.53,105.33z"/>
						<path class="st15" d="M177.17,92.21l-0.38,9.8c-1.34,1.58-3.15,2.54-5.6,2.54c-5.62,0-8.86-3.73-10.74-8.13l-0.52-4.84
							L177.17,92.21z"/>
						<path class="st14" d="M176.79,102.01c-1.34,1.58-3.15,2.54-5.6,2.54c-5.62,0-8.86-3.73-10.74-8.13
							c-2.7-6.34-2.55-14.08-2.55-14.08l2.32-2.2l4.32-4.1l14.38-1.76c0,0,1.25,6.31,1.29,13.17
							C180.26,92.94,179.53,98.77,176.79,102.01z"/>
						<path class="st16" d="M176.79,102.01l-0.05,1.36c-1.44,1.16-3.16,1.91-5.2,1.96c-4.99,0.12-8.43-2.16-10.6-4.43l-0.48-4.47
							c1.87,4.4,5.12,8.13,10.74,8.13C173.63,104.55,175.45,103.59,176.79,102.01z"/>
						<path class="st14" d="M176.79,102.01c-1.34,1.58-3.15,2.54-5.6,2.54c-5.62,0-8.86-3.73-10.74-8.13
							c-2.7-6.34-2.55-14.08-2.55-14.08l2.32-2.2l19.99,7.31C180.26,92.94,179.53,98.77,176.79,102.01z"/>
						<path class="st17" d="M160.51,80.23c0,0,16.94,4.7,23.74-7.03c0,0-11.07-4.64-17.19-4.64s-9.63,6.6-9.63,6.6
							s-8.41,5.09,3.19,22.76L160.51,80.23z"/>
						<path class="st14" d="M161.17,86.26c1.21,1.72,1.34,3.72,0.28,4.47c-1.06,0.75-2.9-0.04-4.11-1.76
							c-1.21-1.72-1.34-3.72-0.28-4.47C158.11,83.75,159.95,84.54,161.17,86.26z"/>
						<path class="st18" d="M161.6,107.17l-3.23,3.73l-12.3,3.4v78.24c0,0,23.68,7.43,43.1,0v-77.85l-10.21-3.02l-2.23-3.56
							l-7.67,7.35L161.6,107.17z"/>
						<path class="st18" d="M217.2,154.79l-8.41,6.59c0,0-2.18,1.56-3.74,0c-1.56-1.56-15.88-22.04-15.88-22.04v-24.66
							c0,0,2.22,1.38,8.12,11.07c5.89,9.69,12.07,19.43,12.07,19.43l2.98-1.7C212.94,146.67,214.28,150.9,217.2,154.79z"/>
						<path class="st18" d="M146.08,114.3v22.9c0,0-16.35,12.31-16.64,21.13c-0.05,1.5,0.43,3.15,1.26,4.86
							c-4.42,2.1-7.26,4.31-9.08,6.26c-0.04-0.06-0.09-0.11-0.13-0.17c-7.85-10.28-4.17-18.9-4.17-18.9
							C124.58,132.94,146.08,114.3,146.08,114.3z"/>
						<path class="st14" d="M244.82,136.23c0,0-2.95,1.36-5.84,1.47l-21.78,17.09c-2.93-3.89-4.26-8.12-4.86-11.31l20.13-11.49
							c0,0,2.94-12.29,11.38-9.24c0,0,0.11-0.07,0.29-0.2c1.18,0.68,1.92,1.13,2.97,2.04c-0.03,0.02,0.36,0.37,0.36,0.37
							S248.7,132.35,244.82,136.23z"/>
						<path class="st14" d="M151.82,195.84c-4.95,0.99-9.11-6.38-9.11-6.38s-13.23-9.78-21.1-20c1.82-1.95,4.66-4.16,9.08-6.26
							c4.06,8.36,16.48,18.11,16.48,18.11l6.3,3.01C159.77,187.32,156.77,194.85,151.82,195.84z"/>
					</g>
					<polygon class="st19" points="168.47,114.81 163.14,119.96 158.38,110.9 161.6,107.17 					"/>
					<polygon class="st19" points="169.65,114.9 174.29,120.51 178.96,111.67 176.74,108.11 					"/>
				</g>
				<g>
					<polygon class="st20" points="235.89,133.55 243.79,113.36 251.01,114.97 242.57,136.23 					"/>
					<polygon class="st21" points="236.33,133.3 242.39,135.79 250.48,115.28 243.9,113.82 					"/>
					<polygon class="st22" points="251.01,114.97 251.31,115.24 242.87,136.23 242.57,136.23 					"/>
				</g>
				<path class="st14" d="M237.3,123.77c0,0,2.59-2.03,4.45-1.45c1.86,0.59-1.78,2.85-1.78,2.85l-3.41,2.47L237.3,123.77z"/>
				<path class="st14" d="M243.98,135.45c0,0-0.77-3.16,0-5.12c0.77-1.96,3.18-5.92,3.5-5.37c0.32,0.55-0.82,5.37-0.82,5.37
					L243.98,135.45z"/>
			</g>
			<g>
				<g>
					<path class="st23" d="M433.11,72.53h-164.6c-1.29,0-2.34-1.05-2.34-2.34V56.57c0-1.29,1.05-2.34,2.34-2.34h164.6
						c1.29,0,2.34,1.05,2.34,2.34v13.62C435.45,71.48,434.4,72.53,433.11,72.53z"/>
					<rect x="273.75" y="60.71" class="st24" width="152.71" height="4.08"/>
				</g>
				<g>
					<path class="st25" d="M428.23,64.94H308.85c0-8.26-6.07-15.17-13.96-16.49c0.9-0.15,1.82-0.23,2.76-0.23h113.86
						C420.71,48.22,428.23,55.75,428.23,64.94z"/>
					<path class="st26" d="M308.96,64.84h-27.93c0-4.6,1.88-8.78,4.91-11.81c2.41-2.41,5.56-4.1,9.06-4.68
						C302.89,49.67,308.96,56.58,308.96,64.84z"/>
					<path class="st25" d="M439.54,254.18l-6.34-9.69l0.55,10.03h-0.65l-1.88-4.64l-3.26-6.56l-2.17,5.15l-0.5,6.05h-5.11
						l-3.58-11.2l-3.91,3.75v7.45h-5.74l-3.73-11.2l-4.34,4.42v6.78h-2.1l-3.36-8.12l-2.87,8.12h-2.46l-2.35-8.52l-1.52,5.11
						l-4.73,3.41h-6.94l-0.84-8.6l-8.06,8.6h-3.85c-2.75-3.77-7.93-10.85-8.38-11.19c-0.37-0.28-1.23,6.14-1.84,11.19h-4.04
						l-6.09-10.68l-1.2,10.68h-3.95l-5.38-7.91l-3.79,7.91h-5.04l-2.92-10.2l-6.02,10.2h-2.18V48.12h113.86
						c9.2,0,16.73,7.53,16.73,16.73V254.18z"/>
					<rect x="315.67" y="72.69" class="st27" width="117.37" height="10.03"/>
					<rect x="315.67" y="174.31" class="st28" width="117.17" height="3.44"/>
					<rect x="315.67" y="180.83" class="st28" width="117.17" height="3.44"/>
					<rect x="315.67" y="187.34" class="st28" width="117.17" height="3.44"/>
					<rect x="315.67" y="102.3" class="st29" width="117.37" height="62.83"/>
					<rect x="320.01" y="85.4" class="st28" width="108.88" height="3.44"/>
					<rect x="320.87" y="118.1" class="st27" width="51.82" height="3.44"/>
					<rect x="419.67" y="118.1" class="st27" width="10.62" height="3.44"/>
					<rect x="417.4" y="124.62" class="st27" width="12.88" height="3.44"/>
					<rect x="415.82" y="131.13" class="st27" width="14.47" height="3.44"/>
					<rect x="403.46" y="159.77" class="st27" width="26.83" height="3.44"/>
					<rect x="420.07" y="137.64" class="st27" width="10.22" height="3.44"/>
					<rect x="320.87" y="124.62" class="st27" width="49.47" height="3.44"/>
					<rect x="320.87" y="131.13" class="st27" width="55.2" height="3.44"/>
					<rect x="320.87" y="137.64" class="st27" width="51.82" height="3.44"/>
					<rect x="315.67" y="91.21" class="st27" width="117.37" height="0.31"/>
					
						<rect x="311.37" y="87.02" transform="matrix(-1.836970e-16 1 -1 -1.836970e-16 402.8899 -228.6491)" class="st27" width="8.81" height="0.2"/>
					
						<rect x="428.54" y="87.02" transform="matrix(-1.836970e-16 1 -1 -1.836970e-16 520.0616 -345.8207)" class="st27" width="8.81" height="0.2"/>
					<rect x="315.67" y="102.3" class="st27" width="117.37" height="10.03"/>
					<rect x="315.67" y="165.13" class="st27" width="117.37" height="0.31"/>
					<rect x="315.67" y="157.54" class="st27" width="117.37" height="0.31"/>
					
						<rect x="289.21" y="138.78" transform="matrix(-1.836970e-16 1 -1 -1.836970e-16 454.6526 -176.8864)" class="st27" width="53.11" height="0.2"/>
					
						<rect x="368.49" y="138.78" transform="matrix(-1.836970e-16 1 -1 -1.836970e-16 533.9303 -256.1641)" class="st27" width="53.11" height="0.2"/>
					
						<rect x="406.39" y="138.78" transform="matrix(-1.836970e-16 1 -1 -1.836970e-16 571.8243 -294.058)" class="st27" width="53.11" height="0.2"/>
					<path class="st30" d="M415.11,226.61h-81.72c-5.52,0-10.05-4.52-10.05-10.05l0,0c0-5.53,4.52-10.05,10.05-10.05h81.72
						c5.53,0,10.05,4.52,10.05,10.05l0,0C425.15,222.09,420.63,226.61,415.11,226.61z"/>
					<g>
						<path class="st25" d="M361.46,211c0.77-0.13,1.86-0.23,3.39-0.23c1.55,0,2.65,0.3,3.39,0.89c0.71,0.56,1.19,1.48,1.19,2.57
							s-0.36,2.01-1.02,2.63c-0.86,0.81-2.12,1.17-3.61,1.17c-0.33,0-0.63-0.02-0.86-0.05v3.97h-2.49V211z M363.94,216.04
							c0.21,0.05,0.48,0.07,0.84,0.07c1.33,0,2.16-0.68,2.16-1.81c0-1.02-0.71-1.63-1.96-1.63c-0.51,0-0.86,0.05-1.04,0.1V216.04z"
							/>
						<path class="st25" d="M372.62,219.11l-0.79,2.85h-2.6l3.39-11.1h3.29l3.44,11.1h-2.7l-0.86-2.85H372.62z M375.44,217.23
							l-0.69-2.36c-0.2-0.66-0.4-1.48-0.56-2.14h-0.03c-0.16,0.66-0.33,1.5-0.51,2.14l-0.66,2.36H375.44z"/>
						<path class="st25" d="M381.85,221.96v-4.55l-3.51-6.55h2.87l1.14,2.67c0.35,0.81,0.58,1.4,0.86,2.12h0.03
							c0.25-0.69,0.51-1.33,0.84-2.12l1.12-2.67h2.82l-3.66,6.47v4.63H381.85z"/>
					</g>
				</g>
			</g>
			<g id="Gold_coins_1_">
				<g>
					<path class="st31" d="M463.4,277.57c0,21.8-17.66,39.45-39.45,39.45c-2.53,0-5-0.24-7.39-0.69c-3.67-0.7-7.16-1.9-10.4-3.55
						c-0.82-0.41-1.61-0.85-2.39-1.31c-6.44-3.84-11.68-9.47-15.08-16.19c-2.68-5.33-4.19-11.35-4.19-17.72
						c0-21.79,17.67-39.44,39.45-39.44c4.19,0,8.23,0.65,12.01,1.86c7.25,2.31,13.58,6.66,18.32,12.38
						c0.58,0.69,1.15,1.41,1.67,2.15c2.14,2.96,3.87,6.22,5.13,9.72C462.59,268.4,463.4,272.89,463.4,277.57z"/>
					
						<ellipse transform="matrix(0.7071 -0.7071 0.7071 0.7071 -72.0981 381.0792)" class="st32" cx="423.95" cy="277.57" rx="31.1" ry="31.1"/>
					
						<ellipse transform="matrix(0.2298 -0.9732 0.9732 0.2298 55.0287 626.2501)" class="st33" cx="423.16" cy="278.36" rx="31.1" ry="31.1"/>
				</g>
				<path class="st33" d="M454.29,252.36l-5.53,6.47l-0.73,0.85L409.3,305l-0.71,0.83l-4.82,5.65c-6.44-3.84-11.68-9.47-15.08-16.19
					l5.28-6.18l0.75-0.88l34.51-40.36l0.69-0.81l6.04-7.06C443.21,242.29,449.54,246.64,454.29,252.36z"/>
				<path class="st33" d="M461.09,264.24l-6.56,7.67l-0.76,0.9l-30.64,35.85l-0.68,0.79l-5.88,6.88c-3.67-0.7-7.16-1.9-10.4-3.55
					l4.92-5.76l0.71-0.83l37.81-44.22l0.74-0.87l5.63-6.58C458.1,257.47,459.84,260.73,461.09,264.24z"/>
				<g>
					<g>
						<path class="st34" d="M420.64,302.3v-5.58c-3.91-0.16-7.76-1.26-9.96-2.52l1.75-6.85c2.49,1.32,5.95,2.57,9.75,2.57
							c3.34,0,5.64-1.32,5.64-3.64c0-2.25-1.88-3.62-6.25-5.09c-6.28-2.12-10.55-5.07-10.55-10.73c0-5.19,3.62-9.25,9.92-10.46
							v-5.58h5.77v5.18c3.88,0.13,6.53,1,8.5,1.92l-1.75,6.63c-1.49-0.67-4.21-2.03-8.43-2.03c-3.78,0-5.02,1.68-5.02,3.32
							c0,1.91,2.04,3.18,7.02,5.02c6.99,2.46,9.78,5.69,9.78,11.01c0,5.22-3.66,9.63-10.4,10.8v6.02H420.64z"/>
					</g>
				</g>
			</g>
		</g>
	</g>
</g>
</svg>
