<?xml version="1.0" encoding="utf-8"?>
<!-- Generator: Adobe Illustrator 23.0.5, SVG Export Plug-In . SVG Version: 6.00 Build 0)  -->
<svg version="1.0" id="Layer_1" xmlns="http://www.w3.org/2000/svg" xmlns:xlink="http://www.w3.org/1999/xlink" x="0px" y="0px"
	 viewBox="0 0 624 320" style="enable-background:new 0 0 624 320;" xml:space="preserve">
<style type="text/css">
	.st0{fill:url(#SVGID_1_);}
	.st1{fill:url(#SVGID_2_);}
	.st2{fill:#A9D1FF;}
	.st3{fill:url(#SVGID_3_);}
	.st4{fill:#FFFFFF;}
	.st5{fill:#015E3A;}
	.st6{opacity:0.5;fill:#9EACEE;}
	.st7{fill:#00A26D;}
	.st8{fill:#EF6A1C;}
	.st9{fill:#3A3256;}
	.st10{fill:#BB4C48;}
	.st11{fill:#E4FFFA;}
	.st12{fill:#C78B5B;}
	.st13{fill:#8CA4BF;}
	.st14{fill:#00044F;}
	.st15{fill:#FF916C;}
	.st16{fill:#E5BE84;}
	.st17{fill:#000444;}
	.st18{fill:#B3CBFF;}
	.st19{fill:#F4D2A2;}
	.st20{fill:#010032;}
	.st21{fill:#101F40;}
	.st22{fill:#BBDBFF;}
	.st23{fill:#000886;}
	.st24{opacity:0.29;fill:#000343;}
	.st25{fill:#000343;}
	.st26{fill:#417CFE;}
	.st27{opacity:0.44;fill:#427CFE;}
	.st28{fill:#010042;}
	.st29{fill:#F4F4F4;}
	.st30{fill:#4C4272;}
	.st31{fill:#FF7C4F;}
	.st32{fill:#F4C886;}
	.st33{fill:#3C5FB3;}
	.st34{fill:#C22C0D;}
	.st35{fill:#397EFF;}
	.st36{fill:#BF544C;}
	.st37{opacity:0.61;fill:#2A5FBF;}
	.st38{fill:#FB9900;}
	.st39{fill:#00083E;}
	.st40{fill:#507EEF;}
	.st41{opacity:0.68;fill:#507EEF;}
	.st42{fill:#BFBFBF;}
	.st43{fill:#F9F8BD;}
	.st44{fill:#E23410;}
	.st45{fill:#333333;}
	.st46{fill:#757574;}
	.st47{fill:#F9EDEC;}
	.st48{opacity:0.46;fill:#776E6C;}
	.st49{fill:#41FF00;}
	.st50{fill:#F78500;}
	.st51{fill:#7F372F;}
	.st52{fill:#FD5E5A;}
	.st53{fill:#C18226;}
	.st54{opacity:0.68;fill:#774B11;}
	.st55{fill:#4C1E00;}
	.st56{fill:#EA001C;}
	.st57{fill:#7C0015;}
	.st58{fill:#9EAAEC;}
	.st59{opacity:0.39;fill:#CFE6FF;}
	.st60{fill:#EAD1B7;}
	.st61{fill:#172EA9;}
	.st62{fill:#C9B4A1;}
	.st63{fill:#E9E9E9;}
</style>
<g>
	<linearGradient id="SVGID_1_" gradientUnits="userSpaceOnUse" x1="312.488" y1="222.3048" x2="287.1957" y2="18.4774">
		<stop  offset="0" style="stop-color:#F58C97"/>
		<stop  offset="1" style="stop-color:#FFF4F7"/>
	</linearGradient>
	<path class="st0" d="M561.05,225.43H62.95V0h272.67C460.12,0,561.05,100.93,561.05,225.43L561.05,225.43z"/>
	<linearGradient id="SVGID_2_" gradientUnits="userSpaceOnUse" x1="326.129" y1="226.5804" x2="294.3408" y2="-29.5958">
		<stop  offset="0" style="stop-color:#00A26D"/>
		<stop  offset="1" style="stop-color:#FFFFFF"/>
	</linearGradient>
	<rect x="-0.05" class="st1" width="624.11" height="225.43"/>
	<rect x="-0.05" y="225.43" class="st2" width="624.05" height="94.57"/>
	<linearGradient id="SVGID_3_" gradientUnits="userSpaceOnUse" x1="312" y1="140.0964" x2="312" y2="234.0804">
		<stop  offset="0.027" style="stop-color:#00A26D"/>
		<stop  offset="1" style="stop-color:#FFFFFF"/>
	</linearGradient>
	<rect x="-0.05" y="128.28" class="st3" width="624.11" height="97.15"/>
	<rect x="-0.05" y="128.28" class="st4" width="624.11" height="3.64"/>
	<rect x="-0.05" y="131.92" class="st5" width="624.11" height="2.77"/>
	<path class="st6" d="M89.36,1.06V51.1c0,5.6,4.42,10.15,9.87,10.15h33.56c5.45,0,9.87-4.54,9.87-10.15V1.06
		c0-0.36-0.02-0.71-0.05-1.06H89.41C89.38,0.35,89.36,0.7,89.36,1.06z"/>
	<path class="st7" d="M91.8,1.03V49.7c0,5.45,4.42,9.87,9.87,9.87h33.56c5.45,0,9.87-4.42,9.87-9.87V1.03
		c0-0.35-0.02-0.69-0.05-1.03H91.86C91.82,0.34,91.8,0.68,91.8,1.03z"/>
	<path class="st6" d="M529.19,54.12h-44.77c-13.8,0-24.99-11.19-24.99-24.99v0c0-13.8,11.19-24.99,24.99-24.99h44.77
		c13.8,0,24.99,11.19,24.99,24.99v0C554.18,42.93,542.99,54.12,529.19,54.12z"/>
	<path class="st4" d="M527.73,52.67h-44.77c-13.8,0-24.99-11.19-24.99-24.99v0c0-13.8,11.19-24.99,24.99-24.99h44.77
		c13.8,0,24.99,11.19,24.99,24.99v0C552.72,41.48,541.54,52.67,527.73,52.67z"/>
	<path class="st5" d="M519.65,16.17h-52.78c-0.81,0-1.46-0.66-1.46-1.46l0,0c0-0.81,0.66-1.46,1.46-1.46h52.78
		c0.81,0,1.46,0.66,1.46,1.46l0,0C521.11,15.52,520.46,16.17,519.65,16.17z"/>
	<path class="st5" d="M538.09,16.17h-9.2c-0.81,0-1.46-0.66-1.46-1.46l0,0c0-0.81,0.66-1.46,1.46-1.46h9.2
		c0.81,0,1.46,0.66,1.46,1.46l0,0C539.56,15.52,538.9,16.17,538.09,16.17z"/>
	<path class="st5" d="M519.65,22.9h-52.78c-0.81,0-1.46-0.66-1.46-1.46l0,0c0-0.81,0.66-1.46,1.46-1.46h52.78
		c0.81,0,1.46,0.66,1.46,1.46l0,0C521.11,22.24,520.46,22.9,519.65,22.9z"/>
	<path class="st5" d="M538.09,22.9h-9.2c-0.81,0-1.46-0.66-1.46-1.46l0,0c0-0.81,0.66-1.46,1.46-1.46h9.2
		c0.81,0,1.46,0.66,1.46,1.46l0,0C539.56,22.24,538.9,22.9,538.09,22.9z"/>
	<path class="st5" d="M519.65,29.14h-52.78c-0.81,0-1.46-0.66-1.46-1.46l0,0c0-0.81,0.66-1.46,1.46-1.46h52.78
		c0.81,0,1.46,0.66,1.46,1.46l0,0C521.11,28.49,520.46,29.14,519.65,29.14z"/>
	<path class="st5" d="M538.09,29.14h-9.2c-0.81,0-1.46-0.66-1.46-1.46l0,0c0-0.81,0.66-1.46,1.46-1.46h9.2
		c0.81,0,1.46,0.66,1.46,1.46l0,0C539.56,28.49,538.9,29.14,538.09,29.14z"/>
	<path class="st5" d="M519.65,36.48h-52.78c-0.81,0-1.46-0.66-1.46-1.46l0,0c0-0.81,0.66-1.46,1.46-1.46h52.78
		c0.81,0,1.46,0.66,1.46,1.46l0,0C521.11,35.82,520.46,36.48,519.65,36.48z"/>
	<path class="st5" d="M538.09,36.48h-9.2c-0.81,0-1.46-0.66-1.46-1.46l0,0c0-0.81,0.66-1.46,1.46-1.46h9.2
		c0.81,0,1.46,0.66,1.46,1.46l0,0C539.56,35.82,538.9,36.48,538.09,36.48z"/>
	<path class="st5" d="M519.65,43.82h-52.78c-0.81,0-1.46-0.66-1.46-1.46l0,0c0-0.81,0.66-1.46,1.46-1.46h52.78
		c0.81,0,1.46,0.66,1.46,1.46l0,0C521.11,43.16,520.46,43.82,519.65,43.82z"/>
	<path class="st5" d="M538.09,43.82h-9.2c-0.81,0-1.46-0.66-1.46-1.46l0,0c0-0.81,0.66-1.46,1.46-1.46h9.2
		c0.81,0,1.46,0.66,1.46,1.46l0,0C539.56,43.16,538.9,43.82,538.09,43.82z"/>
	<g>
		<path class="st4" d="M141.29,31.18H96.06c-0.34,0-0.61-0.27-0.61-0.61c0-0.34,0.27-0.61,0.61-0.61h45.23
			c0.34,0,0.61,0.27,0.61,0.61C141.9,30.9,141.63,31.18,141.29,31.18z"/>
	</g>
	<g>
		<path class="st4" d="M141.26,4.01h-4.28c-0.34,0-0.61-0.27-0.61-0.61c0-0.34,0.27-0.61,0.61-0.61h4.28c0.34,0,0.61,0.27,0.61,0.61
			C141.87,3.73,141.59,4.01,141.26,4.01z"/>
	</g>
	<g>
		<path class="st4" d="M141.26,7.4h-4.28c-0.34,0-0.61-0.27-0.61-0.61c0-0.34,0.27-0.61,0.61-0.61h4.28c0.34,0,0.61,0.27,0.61,0.61
			C141.87,7.13,141.59,7.4,141.26,7.4z"/>
	</g>
	<g>
		<path class="st4" d="M141.26,10.8h-4.28c-0.34,0-0.61-0.27-0.61-0.61c0-0.34,0.27-0.61,0.61-0.61h4.28c0.34,0,0.61,0.27,0.61,0.61
			C141.87,10.53,141.59,10.8,141.26,10.8z"/>
	</g>
	<g>
		<path class="st4" d="M141.26,14.2h-4.28c-0.34,0-0.61-0.27-0.61-0.61c0-0.34,0.27-0.61,0.61-0.61h4.28c0.34,0,0.61,0.27,0.61,0.61
			C141.87,13.92,141.59,14.2,141.26,14.2z"/>
	</g>
	<g>
		<path class="st4" d="M141.26,17.59h-4.28c-0.34,0-0.61-0.27-0.61-0.61c0-0.34,0.27-0.61,0.61-0.61h4.28
			c0.34,0,0.61,0.27,0.61,0.61C141.87,17.32,141.59,17.59,141.26,17.59z"/>
	</g>
	<g>
		<path class="st4" d="M141.26,20.99h-4.28c-0.34,0-0.61-0.27-0.61-0.61c0-0.34,0.27-0.61,0.61-0.61h4.28
			c0.34,0,0.61,0.27,0.61,0.61C141.87,20.71,141.59,20.99,141.26,20.99z"/>
	</g>
	<g>
		<path class="st4" d="M130.08,4.01h-32.6c-0.34,0-0.61-0.27-0.61-0.61c0-0.34,0.27-0.61,0.61-0.61h32.6c0.34,0,0.61,0.27,0.61,0.61
			C130.69,3.73,130.42,4.01,130.08,4.01z"/>
	</g>
	<g>
		<path class="st4" d="M130.08,7.4h-32.6c-0.34,0-0.61-0.27-0.61-0.61c0-0.34,0.27-0.61,0.61-0.61h32.6c0.34,0,0.61,0.27,0.61,0.61
			C130.69,7.13,130.42,7.4,130.08,7.4z"/>
	</g>
	<g>
		<path class="st4" d="M130.08,10.8h-32.6c-0.34,0-0.61-0.27-0.61-0.61c0-0.34,0.27-0.61,0.61-0.61h32.6c0.34,0,0.61,0.27,0.61,0.61
			C130.69,10.53,130.42,10.8,130.08,10.8z"/>
	</g>
	<g>
		<path class="st4" d="M130.08,14.2h-32.6c-0.34,0-0.61-0.27-0.61-0.61c0-0.34,0.27-0.61,0.61-0.61h32.6c0.34,0,0.61,0.27,0.61,0.61
			C130.69,13.92,130.42,14.2,130.08,14.2z"/>
	</g>
	<g>
		<path class="st4" d="M130.08,17.59h-32.6c-0.34,0-0.61-0.27-0.61-0.61c0-0.34,0.27-0.61,0.61-0.61h32.6
			c0.34,0,0.61,0.27,0.61,0.61C130.69,17.32,130.42,17.59,130.08,17.59z"/>
	</g>
	<g>
		<path class="st4" d="M130.08,20.99h-32.6c-0.34,0-0.61-0.27-0.61-0.61c0-0.34,0.27-0.61,0.61-0.61h32.6
			c0.34,0,0.61,0.27,0.61,0.61C130.69,20.71,130.42,20.99,130.08,20.99z"/>
	</g>
	<path class="st8" d="M214.61,0v17.47c-3.97,0.2-7.15,3.36-7.4,7.31h-4.65c-1.17,0-2.11,0.94-2.11,2.11h0.64
		c-2.1,0-4.16,0.51-6.02,1.49l-5.94,3.13c-0.09,0.02-0.14,0.05-0.14,0.07c0,0.93,52.04,0.93,52.04,0c0-0.02-0.04-0.05-0.12-0.07
		c-3.97-1.97-6.55-4.62-11.57-4.62h0.23c0-1.17-0.94-2.11-2.11-2.11h-4.65c-0.25-3.95-3.43-7.11-7.4-7.31V0H214.61z"/>
	<g>
		<path class="st9" d="M131.06,224.85h-25.84c0.97-4.95,12.46-41.02,20.31-65.16c0.1-0.32-0.08-0.65-0.4-0.75
			c-0.32-0.1-0.67,0.07-0.77,0.39c-0.05,0.16-5.34,16.43-10.47,32.6c-7.68,24.23-9.54,30.92-9.87,32.92H92.89
			c0.97-4.95,12.46-41.02,20.31-65.16c0.1-0.32-0.08-0.65-0.4-0.75c-0.32-0.1-0.67,0.07-0.77,0.39c-0.05,0.16-5.34,16.43-10.47,32.6
			c-10.46,33.01-10.13,33.46-9.83,33.86l0.2,0.26h39.11c0.34,0,0.61-0.27,0.61-0.6C131.67,225.12,131.39,224.85,131.06,224.85z"/>
		<path class="st10" d="M129.23,162.2h-24.31l0,0c0-2.24,1.81-4.05,4.05-4.05h16.22C127.42,158.15,129.23,159.96,129.23,162.2
			L129.23,162.2z"/>
		<path class="st9" d="M132.36,211.16H96.28v-1.63h36.09c0.45,0,0.82,0.37,0.82,0.82l0,0C133.18,210.79,132.82,211.16,132.36,211.16
			z"/>
	</g>
	<path class="st5" d="M276.41,50.98H152.36c-0.84,0-1.53-0.68-1.53-1.53l0,0c0-0.84,0.68-1.53,1.53-1.53h124.05V50.98z"/>
	<rect x="275.31" class="st5" width="4.16" height="128.19"/>
	<rect x="335.85" class="st5" width="8.79" height="128.19"/>
	<path class="st5" d="M276.41,91.16H152.36c-0.84,0-1.53-0.68-1.53-1.53l0,0c0-0.84,0.68-1.53,1.53-1.53h124.05V91.16z"/>
	<rect x="344.64" class="st11" width="98.52" height="121.13"/>
	<rect x="279" class="st11" width="57" height="121.13"/>
	<g>
		<path class="st12" d="M364.82,201.8c0,0,1.47,2.12,0,4.97c-1.47,2.85-3.86,4.41-3.22,6.43c0.64,2.02,12.33-7.54,12.33-7.54
			l-5.74-6.43L364.82,201.8z"/>
		<path class="st13" d="M372.68,146.9c0,0-32.99,4.07-35.01,10.88c-2.02,6.81,27.57,45.54,27.57,45.54l5.56-2.66
			c0,0-16.94-30-16.21-34.78c0.74-4.78,30.08-5.61,31.83-7.36C388.17,156.77,372.68,146.9,372.68,146.9z"/>
		<path class="st14" d="M363.69,208.58c-1.29,1.8-2.58,3.07-2.09,4.63c0.64,2.02,12.33-7.54,12.33-7.54l-2.77-3.1
			C369.99,203.9,366.14,208.1,363.69,208.58z"/>
		<path class="st9" d="M399.17,229.43h-25.84c0.97-5.05,12.46-41.86,20.31-66.49c0.1-0.32-0.08-0.67-0.4-0.77s-0.67,0.08-0.77,0.4
			c-0.05,0.17-5.34,16.76-10.47,33.27c-7.68,24.73-9.54,31.55-9.87,33.59h-11.13c0.97-5.05,12.46-41.86,20.31-66.49
			c0.1-0.32-0.08-0.67-0.4-0.77s-0.67,0.08-0.77,0.4c-0.05,0.17-5.34,16.76-10.47,33.27c-10.46,33.68-10.13,34.14-9.83,34.55
			l0.2,0.26h39.11c0.34,0,0.61-0.27,0.61-0.61C399.78,229.7,399.51,229.43,399.17,229.43z"/>
		<path class="st9" d="M400.48,215.76h-36.09v-1.63h36.09c0.45,0,0.82,0.37,0.82,0.82l0,0C401.3,215.4,400.93,215.76,400.48,215.76z
			"/>
		<g>
			<path class="st15" d="M288.53,219.21c0,0-1.29,6.76-0.71,7.32c0.58,0.56,14.72,0.13,14.72-0.38c0-0.52-4.9-1.94-6.39-2.46
				c-1.48-0.52-2.28-4.82-2.28-4.82L288.53,219.21z"/>
			<path class="st9" d="M273.54,224.82H247.7c0.97-5.05,12.46-41.86,20.31-66.49c0.1-0.32-0.08-0.67-0.4-0.77
				c-0.32-0.1-0.67,0.08-0.77,0.4c-0.05,0.17-5.34,16.76-10.47,33.27c-7.68,24.73-9.54,31.55-9.87,33.59h-11.13
				c0.97-5.05,12.46-41.86,20.31-66.49c0.1-0.32-0.08-0.67-0.4-0.77c-0.32-0.1-0.67,0.08-0.77,0.4
				c-0.05,0.17-5.34,16.76-10.47,33.27c-10.46,33.68-10.13,34.14-9.83,34.55l0.2,0.26h39.11c0.34,0,0.61-0.27,0.61-0.61
				C274.15,225.1,273.87,224.82,273.54,224.82z"/>
			<path class="st5" d="M253.11,155.95c0,0,21.53,20.48,23.58,23.93c2.05,3.44,10.77,40.11,10.77,40.11H296
				c0,0-4.98-36.84-8.54-42.52c-3.56-5.68-16.58-21.52-16.58-21.52H253.11z"/>
			<path class="st10" d="M271.72,162.2H247.4l0,0c0-2.24,1.81-4.05,4.05-4.05h16.22C269.9,158.15,271.72,159.96,271.72,162.2
				L271.72,162.2z"/>
			<g>
				<path class="st16" d="M278.7,89.7c0,0,0.33,3.75-0.58,8.99c-0.92,5.24-2.91,8.9-4.08,8.9c-1.17,0-6.83-6.82-7.66-10.48
					c-0.83-3.66-0.25-11.07,3.91-10.07C274.46,88.04,278.7,89.7,278.7,89.7z"/>
				<path class="st16" d="M267.96,112.43l3.25-8.32l-4.96-7.7l-4.48,9.55C261.77,105.95,265.18,109.64,267.96,112.43z"/>
				<path class="st12" d="M271.21,104.1l-4.96-7.7l-0.65,1.38c1.26,1.87,3.32,5.15,3.32,6.63c0,2.14-0.95,8.01-0.95,8.01
					L271.21,104.1z"/>
				<path class="st17" d="M268.8,85.87c0,0,1.07-2,3.61-1.5c2.55,0.5,5.63,2.75,9.04,4.5c3.41,1.75,1.5,3.5-1.08,2.75
					c-2.58-0.75-4.74-2.25-7.41-1.17c-2.66,1.08-3.08,4.5-3.08,4.5l-5.52,5.48c0,0-1.85-10.13,0-11.97
					C266.2,86.61,268.8,85.87,268.8,85.87z"/>
				<path class="st16" d="M270.54,94.67c0,0,0.02-0.07,0.06-0.18c0.22-0.77,0.97-3.69-0.72-3.45c-1.94,0.28-2.47,4.02-1.39,4.8
					C269.57,96.61,270.54,94.67,270.54,94.67z"/>
			</g>
			<path class="st4" d="M262.9,106.09c-2.35-1.18-5.46-0.18-9.08,5.34c-4.62,7.06-12.31,30.89-7.83,36.43
				c3.02,3.73,17.26-0.78,19.22-0.78c1.96,0,7.47-26.26,5.87-31.6C269.49,110.14,265.68,107.49,262.9,106.09z"/>
			<path class="st18" d="M271.09,115.47c-1.6-5.34-5.15-8.24-5.49-7.98c0,0-3.82,0.29-5.09,3.85c-0.73,2.05,1.22,7.07,2.57,8.42
				c3.69,3.69,4.4,8.08,2.98,16.23c-1.13,6.48-2,9.26-1.32,11.12c0.2-0.03,0.36-0.05,0.47-0.05
				C267.17,147.07,272.69,120.81,271.09,115.47z"/>
			<path class="st9" d="M274.85,211.16h-36.09v-1.63h36.09c0.45,0,0.82,0.37,0.82,0.82l0,0
				C275.66,210.79,275.3,211.16,274.85,211.16z"/>
			<path class="st16" d="M276.78,198.26c0,0-4,6.35-4.67,7.4c-0.67,1.06-2.4,3.59,0,5.01c2.4,1.43,10.26,6.89,10.82,6.31
				c0.56-0.57-2.08-7.16-3.06-9.32c-0.98-2.16,1.36-6.56,1.36-6.56L276.78,198.26z"/>
			<path class="st7" d="M247.95,145.46c0,0,0.09,9.84,2.67,12.51c2.58,2.67,35.99,7.12,35.99,12.45c0,5.34-11.07,28.76-11.07,28.76
				l7.47,6.07c0,0,20-39.65,17.97-43.23c-4.79-8.45-37.55-15.27-37.55-15.27L247.95,145.46z"/>
			<g>
				<path class="st8" d="M273.29,203.56c-0.25-0.28-0.7-0.23-0.89,0.09c-0.92,1.59-4.5,3.72-2.77,5.88
					c0.4,0.5,13.27,9.43,14.01,8.69c0.74-0.74-2.63-8.4-2.63-9.32c0-0.92-1.6,0.21-3.54-1.25
					C276.05,206.58,274.17,204.54,273.29,203.56z"/>
				<path class="st19" d="M269.42,207.29c-0.35,0.73-0.4,1.48,0.21,2.23c0.4,0.5,13.27,9.43,14.01,8.69
					c0.19-0.19,0.11-0.82-0.11-1.67C280.93,216.15,272.14,209.42,269.42,207.29z"/>
			</g>
			<g>
				<path class="st8" d="M287.94,221.85c-0.37-0.08-0.7,0.23-0.66,0.6c0.21,1.82-1.39,5.67,1.29,6.37
					c0.62,0.16,16.28-0.37,16.43-1.4c0.15-1.03-7.97-5.65-8.85-5.9c-1.72-0.49-1.24,1.32-3.67,1.31
					C290.7,222.82,289.24,222.11,287.94,221.85z"/>
				<path class="st19" d="M287.08,227.15c0.15,0.79,0.56,1.42,1.5,1.66c0.62,0.16,16.28-0.37,16.43-1.4
					c0.04-0.26-0.4-0.72-1.08-1.28C301.59,227.39,290.53,227.23,287.08,227.15z"/>
			</g>
		</g>
		<path class="st16" d="M363.7,204.99c0,0,1.47,2.12,0,4.97c-1.47,2.85-3.86,4.41-3.22,6.43c0.64,2.02,12.33-7.54,12.33-7.54
			l-5.74-6.43L363.7,204.99z"/>
		<path class="st20" d="M371.43,85.38c0,0-3.4-2.02-7.36-0.55c-3.96,1.47-4.32,5.15-4.32,8.1c0,2.94,2.76,5.15,2.3,9.75
			c-0.46,4.6-2.58,6.81,0.18,8c2.76,1.2,8,1.29,14.17-2.39s9.84-1.91,9.84-1.91S378.24,83.45,371.43,85.38z"/>
		<path class="st16" d="M305.94,212.52c-0.5-0.16-1.09-0.42-1.65-0.84c-0.93-2.13-2.23-5.64-2.62-7.39
			c-0.55-2.46,11.04-31.77,11.04-31.77s-7.91-4.06-10.67,0.86c-2.76,4.92-3.63,28.08-4.69,29.31c-1.06,1.23-2.58,2.03-2.58,3.74
			c0,1.71,4.78,7.45,4.78,7.45s4.16,0.58,6.39-0.04C306.6,213.66,306.6,212.73,305.94,212.52z"/>
		<path class="st12" d="M302.03,173.38c-0.71,1.27-1.3,3.76-1.8,6.77c0.59-0.24,1.44-0.3,2.54,0.35c1.35,0.8,3.92,1.69,6,2.17
			c2.13-5.63,3.92-10.14,3.92-10.14S304.79,168.46,302.03,173.38z"/>
		<path class="st21" d="M333.33,197.64c0,0-6.06,2.95-6.24,3.9c-0.08,0.4,0.04,0.8,0.3,1.2c0.41,0.63,1.64,0.93,3.21,0
			c2.73-1.6,12.41-8.09,12.63-8.53c0.18-0.36-0.33-1.01-0.33-1.01C341.92,193.32,333.33,197.64,333.33,197.64z"/>
		<path class="st19" d="M332.93,197.15c0,0-5.65,3.44-5.83,4.38c-0.18,0.94,0.38,2.32,3.11,0.71c2.73-1.6,12.25-7.76,12.63-8.53
			c0.22-0.44,0.25-0.74-0.74-0.61C341.1,193.23,332.93,197.15,332.93,197.15z"/>
		<path class="st16" d="M320.94,184.61c3.32,4.4,5.57,12.69,5.57,14.48c0,1.8,2.01,1.56,2.74,1.3c0.59-0.21,14.46-6.59,13.68-7.39
			c-0.78-0.8-8.4,1-10.65-0.4c-2.25-1.4-7.81-23.97-7.81-23.97l-7.62,4.79C316.84,173.42,317.62,180.21,320.94,184.61z"/>
		<path class="st12" d="M324.46,168.63l-7.62,4.79c0,0,0.51,4.45,2.47,8.48c0.83-0.13,1.85-0.52,2.99-1.41
			c2.21-1.71,3.02-3.19,4.17-4.17C325.31,172.06,324.46,168.63,324.46,168.63z"/>
		<path class="st8" d="M335.21,193.15c-0.61,0.87,0.15,4.59,0.15,4.59l5.52-2.79c0,0-0.19-2.12-0.64-2.41
			C339.17,191.85,335.93,192.11,335.21,193.15z"/>
		<path class="st22" d="M285.56,147.01c0,0-1.79,10.35,0,12.14c1.79,1.79,4.88,3.4,5.7,8.1c0.83,4.69-0.74,9.94-0.74,9.94
			s5.15,3.22,8.56,1.75c3.4-1.47,9.66,2.21,12.6,1.47c2.94-0.74,7.82-6.99,10.58-5.43c2.76,1.56,6.26-2.21,6.26-2.21
			s-6.9-21.94-10.12-23.32c-3.22-1.38-9.1-0.13-11.58-1.23c-2.48-1.1-2.48-2.43-2.48-2.43L285.56,147.01z"/>
		<polygon class="st8" points="302.58,207.29 304.85,211.16 303.73,212.19 300.55,208.7 		"/>
		<path d="M294.76,208.57c0,0-0.46-1.71,0.92-2.25c1.38-0.53,2.99,0.16,5.7,3.32c2.71,3.16,4.23,4.27,4.23,4.27l-5.98,0.86
			L294.76,208.57z"/>
		<polygon class="st8" points="318.11,116.51 325.88,127.3 330.32,124.07 326.1,112.04 		"/>
		<path class="st16" d="M312.1,125.07c0,0,1.72,13.66,3,13.66c1.28,0,7.61-11.54,8.31-12.25c0.71-0.71-3.13-4.03-2.48-4.68
			c0.64-0.64,0.83,0.85,3.31,0.85c2.48,0,3.79-5.79,4.28-5.31s1.66,1.89,2.35,4.46c0.69,2.58-13.66,26.41-17.52,26.41
			c-3.86,0-8.02-21.73-8.02-21.73L312.1,125.07z"/>
		<path class="st12" d="M306.55,132.15c1.27-1.1,4.03-3.36,6-3.86c-0.27-1.86-0.45-3.22-0.45-3.22l-6.78,1.41
			C305.32,126.48,305.79,128.91,306.55,132.15z"/>
		<path class="st8" d="M326.1,112.04c0.32,0.55-1.21,2.02-3.4,3.29c-2.19,1.27-4.23,1.85-4.55,1.3c-0.32-0.55,1.21-2.02,3.4-3.29
			C323.75,112.07,325.78,111.49,326.1,112.04z"/>
		<path class="st4" d="M318.71,116.63c-0.2,0-0.34-0.04-0.38-0.1c-0.16-0.28,0.83-1.57,3.33-3.01c1.56-0.9,3.09-1.48,3.89-1.48
			c0.2,0,0.34,0.04,0.38,0.1c0.16,0.28-0.83,1.57-3.33,3.01C321.04,116.04,319.51,116.63,318.71,116.63z"/>
		<path class="st22" d="M375.02,146.19c0,0-28.33,8.28-33.48,15.27c-5.15,6.99,21.89,44.52,21.89,44.52l5.7-1.84
			c0,0-16.01-35.14-12.69-36.24c3.31-1.1,29.8-4.97,32.01-7.18c2.21-2.21,7.16-10.15,3.5-13.82c-3.67-3.67-17.11-1.82-17.11-1.82
			L375.02,146.19z"/>
		<g>
			<g>
				<path class="st4" d="M384.49,142.84C384.48,142.84,384.48,142.84,384.49,142.84c-0.12,0-0.21-0.1-0.2-0.21l0.06-1.43
					c0-0.11,0.1-0.2,0.2-0.2c0,0,0.01,0,0.01,0c0.11,0,0.2,0.1,0.19,0.21l-0.06,1.43C384.68,142.76,384.59,142.84,384.49,142.84z"/>
			</g>
			<g>
				<path class="st4" d="M362.59,199.53c-0.07,0-0.14-0.04-0.18-0.11c-0.39-0.74-0.82-1.58-1.28-2.49c-0.05-0.1-0.01-0.22,0.09-0.27
					c0.1-0.05,0.22-0.01,0.27,0.09c0.46,0.91,0.9,1.75,1.28,2.49c0.05,0.1,0.01,0.22-0.09,0.27
					C362.66,199.52,362.62,199.53,362.59,199.53z M360.04,194.54c-0.07,0-0.15-0.04-0.18-0.11c-0.4-0.8-0.82-1.64-1.24-2.51
					c-0.05-0.1-0.01-0.22,0.09-0.27c0.1-0.05,0.22-0.01,0.27,0.09c0.42,0.87,0.84,1.71,1.24,2.51c0.05,0.1,0.01,0.22-0.09,0.27
					C360.11,194.53,360.08,194.54,360.04,194.54z M357.59,189.51c-0.08,0-0.15-0.04-0.18-0.12c-0.4-0.83-0.8-1.68-1.19-2.54
					c-0.05-0.1,0-0.22,0.1-0.27c0.1-0.05,0.22,0,0.27,0.1c0.4,0.85,0.79,1.7,1.19,2.53c0.05,0.1,0.01,0.22-0.1,0.27
					C357.64,189.5,357.62,189.51,357.59,189.51z M355.23,184.43c-0.08,0-0.15-0.04-0.19-0.12c-0.38-0.86-0.76-1.71-1.13-2.57
					c-0.04-0.1,0-0.22,0.11-0.27c0.1-0.04,0.22,0,0.27,0.11c0.36,0.85,0.74,1.71,1.12,2.56c0.05,0.1,0,0.22-0.1,0.27
					C355.29,184.42,355.26,184.43,355.23,184.43z M353.03,179.28c-0.08,0-0.16-0.05-0.19-0.13c-0.37-0.9-0.71-1.78-1.02-2.61
					c-0.04-0.11,0.01-0.22,0.12-0.26c0.11-0.04,0.22,0.01,0.26,0.12c0.31,0.83,0.65,1.7,1.02,2.6c0.04,0.1-0.01,0.22-0.11,0.27
					C353.08,179.27,353.05,179.28,353.03,179.28z M351.08,174.03c-0.09,0-0.17-0.05-0.19-0.14c-0.32-0.97-0.59-1.87-0.81-2.69
					c-0.03-0.11,0.04-0.22,0.14-0.25c0.11-0.03,0.22,0.04,0.25,0.14c0.22,0.81,0.49,1.71,0.8,2.67c0.04,0.11-0.02,0.22-0.13,0.26
					C351.12,174.03,351.1,174.03,351.08,174.03z M349.7,168.61c-0.1,0-0.19-0.07-0.2-0.18c-0.07-0.51-0.1-0.97-0.1-1.39
					c0-0.59,0.07-1.09,0.21-1.48c0.04-0.11,0.15-0.16,0.26-0.12c0.11,0.04,0.16,0.15,0.12,0.26c-0.12,0.35-0.19,0.8-0.19,1.35
					c0,0.39,0.03,0.84,0.1,1.33c0.02,0.11-0.06,0.21-0.17,0.23C349.72,168.61,349.71,168.61,349.7,168.61z M352.03,164.37
					c-0.08,0-0.16-0.05-0.19-0.14c-0.04-0.11,0.02-0.22,0.13-0.26c0.72-0.25,1.62-0.55,2.67-0.88c0.11-0.03,0.22,0.03,0.26,0.13
					c0.03,0.11-0.03,0.22-0.13,0.26c-1.04,0.33-1.94,0.62-2.66,0.87C352.08,164.36,352.05,164.37,352.03,164.37z M357.37,162.67
					c-0.09,0-0.17-0.06-0.2-0.14c-0.03-0.11,0.03-0.22,0.14-0.25c0.85-0.26,1.75-0.53,2.69-0.8c0.11-0.03,0.22,0.03,0.25,0.14
					c0.03,0.11-0.03,0.22-0.14,0.25c-0.93,0.27-1.83,0.54-2.68,0.8C357.41,162.66,357.39,162.67,357.37,162.67z M362.74,161.08
					c-0.09,0-0.17-0.06-0.2-0.15c-0.03-0.11,0.03-0.22,0.14-0.25c0.89-0.26,1.79-0.51,2.69-0.77c0.11-0.03,0.22,0.03,0.25,0.14
					c0.03,0.11-0.03,0.22-0.14,0.25c-0.91,0.26-1.81,0.52-2.69,0.77C362.78,161.08,362.76,161.08,362.74,161.08z M368.13,159.55
					c-0.09,0-0.17-0.06-0.2-0.15c-0.03-0.11,0.03-0.22,0.14-0.25c0.91-0.26,1.81-0.51,2.7-0.75c0.11-0.03,0.22,0.03,0.25,0.14
					c0.03,0.11-0.03,0.22-0.14,0.25c-0.89,0.25-1.79,0.5-2.69,0.75C368.16,159.55,368.15,159.55,368.13,159.55z M373.52,158.05
					c-0.09,0-0.17-0.06-0.2-0.15c-0.03-0.11,0.03-0.22,0.14-0.25c0.94-0.26,1.84-0.51,2.7-0.74c0.11-0.03,0.22,0.03,0.25,0.14
					c0.03,0.11-0.03,0.22-0.14,0.25c-0.86,0.24-1.76,0.48-2.7,0.74C373.56,158.04,373.54,158.05,373.52,158.05z M378.92,156.57
					c-0.09,0-0.17-0.06-0.2-0.15c-0.03-0.11,0.03-0.22,0.14-0.25l2.2-0.6c0.16-0.04,0.32-0.1,0.47-0.16
					c0.1-0.04,0.22,0.01,0.27,0.11c0.04,0.1-0.01,0.22-0.11,0.27c-0.17,0.07-0.34,0.13-0.52,0.18l-2.2,0.6
					C378.96,156.56,378.94,156.57,378.92,156.57z M383.64,153.95c-0.03,0-0.06-0.01-0.09-0.02c-0.1-0.05-0.14-0.17-0.09-0.27
					c0.26-0.5,0.4-1.03,0.43-1.6l0.04-1.04c0-0.11,0.08-0.2,0.21-0.19c0.11,0,0.2,0.1,0.2,0.21l-0.04,1.04
					c-0.03,0.62-0.19,1.22-0.47,1.77C383.78,153.91,383.71,153.95,383.64,153.95z M384.25,148.43
					C384.25,148.43,384.24,148.43,384.25,148.43c-0.12-0.01-0.21-0.1-0.2-0.21l0.12-2.79c0-0.11,0.08-0.21,0.21-0.19
					c0.11,0,0.2,0.1,0.19,0.21l-0.12,2.79C384.45,148.35,384.36,148.43,384.25,148.43z"/>
			</g>
			<g>
				<path class="st4" d="M364.53,203.19c-0.07,0-0.14-0.04-0.18-0.11c0,0-0.25-0.45-0.67-1.26c-0.05-0.1-0.02-0.22,0.08-0.28
					c0.1-0.05,0.22-0.02,0.28,0.08c0.43,0.8,0.67,1.25,0.67,1.25c0.05,0.1,0.02,0.22-0.08,0.28
					C364.6,203.18,364.56,203.19,364.53,203.19z"/>
			</g>
		</g>
		<path class="st22" d="M391.94,146.9c-3.67-3.67-17.11-1.82-17.11-1.82l0.18,1.1c0,0-1.49,0.44-3.86,1.19
			c0.93,1.95,2.41,4.27,4.63,5.69c3.26,2.08,11.21,2.57,16.7,1.04C393.47,151.46,393.72,148.68,391.94,146.9z"/>
		<path class="st16" d="M362.07,123.76c0,0-4.53,7.3-7.48,7.3c-2.94,0-9.74-10.42-11.96-12.63c-2.22-2.22-7.54-4.06-9.02-2.59
			c-1.47,1.47-1.29,7.93,1.47,7.93c2.76,0,6.44-0.76,10.12,5.41c3.68,6.17,6.62,12.42,9.2,12.42c2.58,0,14.17-14,14.17-14
			L362.07,123.76z"/>
		<path class="st12" d="M364.53,101.48c0,0,2.18,3.29,2.18,7.25c0,3.97-0.43,6.96,1.13,6.57c1.56-0.39,5.34-10.51,5.34-10.51
			l-0.95-9.75L364.53,101.48z"/>
		<path class="st10" d="M402.18,164.29h-25.13v-2.02c0,0,10.23-0.4,11.85-2.02c0.24-0.24,5.4-0.18,9.22-0.1
			C400.37,160.19,402.18,162.03,402.18,164.29L402.18,164.29z"/>
		<path class="st16" d="M301.94,88.04c0,0,3.31,0.46,4.51,4.78c1.2,4.32,0.92,13.25-1.56,14.44c-2.48,1.2-4.6,1.1-5.7,0
			C298.07,106.17,301.94,88.04,301.94,88.04z"/>
		<path class="st23" d="M296.88,112.88c0,0,8.19,0.09,11.68,3.59c3.5,3.5,4.78,8.6,4.78,8.6l-7.6,3.64c0,0-0.63,14.07-0.63,16.37
			c0,2.3-19.55,1.93-19.55,1.93s-2.12-22.45-1.66-26.31C284.37,116.84,293.21,112.54,296.88,112.88z"/>
		<path class="st24" d="M296.88,112.88c-3.67-0.34-12.51,3.96-12.97,7.82c-0.31,2.57,0.53,13.4,1.12,20.33
			c5.2,1.96,9.73-1.52,9.73-6.57c0-5.43-0.6-9.2,5.2-12.82c2.73-1.71,3.84-4.52,4.13-7.62
			C300.59,112.92,296.88,112.88,296.88,112.88z"/>
		<path class="st25" d="M306.64,93.65c0,0-4.78,3.4-3.59,8.65c1.2,5.25,2.7,13.11-3.1,16.42c-5.8,3.31-5.2,6.76-5.2,11.73
			c0,4.97-5.24,8.28-10.92,5.52c-5.68-2.76-7.43-7.31-7.43-13.22c0-5.9,2.84-13.52,6.58-17.26c3.73-3.73,2.35-5.54,5.38-9.82
			c3.04-4.28,7.66-8.35,11.94-8.35S307.6,90.87,306.64,93.65z"/>
		<path class="st26" d="M373.18,104.79c0,0-3.15,0.6-6.99,4.45c-3.85,3.85-8.46,15.97-8.46,15.97l8.83,8.66c0,0,1.29-4.05,2.58-4.05
			c1.29,0,4.23,6.06,3.13,10.02c-1.1,3.96-2.39,6.35-2.39,6.35s19.26,10.85,26.49,2.39c2.66-3.12-3.22-23.4-13.06-33.24
			C373.45,105.5,373.18,104.79,373.18,104.79z"/>
		<path class="st27" d="M389.11,123.89c-1.61-3.27-3.53-6.27-5.81-8.55c-9.84-9.84-10.12-10.55-10.12-10.55s-1.75,0.34-4.23,2.1l0,0
			c-0.18,1.1,0,2.23,0.51,3.23c0.47,0.92,7.1,5.68,7.59,9.1C378.06,126.25,382.52,125.48,389.11,123.89L389.11,123.89z"/>
		<path class="st16" d="M364.53,86.49c0,0-3.5,0.46-4.42,8c-0.92,7.54-0.09,12.23,2.21,11.87c2.3-0.37,9.29-5.43,9.84-9.02
			C372.72,93.75,369.77,85.38,364.53,86.49z"/>
		<path class="st28" d="M365.27,84.28c0,0-1.1,2.02-1.75,5.61c-0.64,3.59,3.47,3.26,2.47,7.82c-1,4.56,4.38,12.08,7.19,14.88
			c2.81,2.81,7.35,3.73,7.35,7.74c0,4.01,12.08-3.45,13.63-5c1.55-1.55,7.45-9.07-1.01-14.13s-7.91-5.43-10.12-10.85
			C380.81,84.92,368.39,81.15,365.27,84.28z"/>
		<path class="st16" d="M274.54,122.87c0,0,7.89,5.57,11.43,5.57c3.53,0,16.79-10.64,18.75-10.64c1.96,0,5.84,0,5.84,0
			s-2.38-5.93-5.54-5.48c-3.16,0.45-16.66,8.42-20.25,6.87c-3.6-1.55-6.95-5.2-6.95-5.2L274.54,122.87z"/>
		<path class="st12" d="M277.82,114.01l-3.27,8.86c0,0,1.69,1.19,3.86,2.48c0.73-2.89,2.68-5.88,3.88-7.53
			C279.76,116.13,277.82,114.01,277.82,114.01z"/>
		<path class="st29" d="M264.05,107.57c-0.05,0.01-0.11,0.01-0.16,0.02c-3.47,0.44-4.32,4.25-2.35,7.14
			c2.72,3.97,7.95,7.29,13.87,10.8c2.41-2.79,5.64-7.06,7.08-10.43C277.12,111.15,269.69,106.95,264.05,107.57z"/>
		<path class="st9" d="M312.66,228.44h-25.84c0.97-5.05,12.46-41.86,20.31-66.49c0.1-0.32-0.08-0.67-0.4-0.77
			c-0.32-0.1-0.67,0.07-0.77,0.4c-0.05,0.17-5.34,16.76-10.47,33.27c-7.68,24.73-9.54,31.55-9.87,33.59H274.5
			c0.97-5.05,12.46-41.86,20.31-66.49c0.1-0.32-0.08-0.67-0.4-0.77c-0.32-0.1-0.67,0.07-0.77,0.4c-0.05,0.17-5.34,16.76-10.47,33.27
			c-10.46,33.68-10.13,34.14-9.83,34.55l0.2,0.26h39.11c0.34,0,0.61-0.27,0.61-0.61C313.27,228.71,313,228.44,312.66,228.44z"/>
		<path class="st9" d="M313.97,214.77h-36.09v-1.63h36.09c0.45,0,0.82,0.37,0.82,0.82l0,0
			C314.79,214.41,314.42,214.77,313.97,214.77z"/>
		<path class="st8" d="M311.55,162.92h-25.13v-3.31c0,0,6.82,0.63,9.14,0.64c2.64,0.02,8.62-0.36,12.48-0.62
			C309.93,159.5,311.55,161.01,311.55,162.92L311.55,162.92z"/>
		<path class="st14" d="M362.57,211.77c-1.29,1.8-2.58,3.07-2.09,4.63c0.64,2.02,12.33-7.54,12.33-7.54l-2.77-3.1
			C368.87,207.09,365.02,211.29,362.57,211.77z"/>
	</g>
	<g>
		<rect x="424.75" y="220.43" class="st30" width="2.76" height="86.1"/>
		<path class="st31" d="M507.58,278.45c0,0,6.92,5.62,8,6.7c1.08,1.08-8,9.65-8,9.65s0.93-8.73,0-9.65
			c-0.93-0.93-6.19-1.58-6.19-1.58L507.58,278.45z"/>
		<path class="st32" d="M511.43,280.3c0,0,7.44,3.94,7.44,5.5c0,1.57-10.18,14.54-11.51,15.28c-1.91,1.06-8.51,1.6-9.6,0.51
			c-1.09-1.09,1.92-3.39,3.63-5.09s3.09-4.28,3.09-5.91c0-1.63-3.18-6.04,0-6.04C507.66,284.55,511.43,280.3,511.43,280.3z"/>
		<path class="st31" d="M512.98,291.81l2.15,4.26c0.99,1.96,2.61,3.54,4.6,4.47l0,0l-4.99,8.13c0,0-7.06,4.68-9.73,3.6
			c-2.68-1.08,5.68-5.05,5.68-5.05l-3.54-11.61L512.98,291.81z"/>
		<path class="st16" d="M463.82,184.61c0,0-1.33,4.28,0,5.61c1.33,1.33,3.55,2.7,3.55,4.26s-0.98,21.67,3.62,22.66
			c4.6,0.99,21.08-15.94,21.08-15.94l-6.7-8.18c0,0-10.57,12.61-10.57,11.3c0-1.31-4.27-11.43-4.27-11.43l2.1-4.2
			c0,0,1.31-4.99-1.18-6.04C468.95,181.58,463.82,184.61,463.82,184.61z"/>
		<g>
			<path class="st12" d="M470.95,213.04c-3.24-1.8-3.28-14.88-3.58-18.52c-0.02,1.89-0.94,21.63,3.62,22.61
				c4.6,0.99,21.08-15.94,21.08-15.94l-3.09-3.77C484.76,202.45,474.02,214.74,470.95,213.04z"/>
			<path class="st12" d="M467.15,193.6c0.08,0.16,0.14,0.32,0.18,0.49C467.28,193.71,467.22,193.53,467.15,193.6z"/>
		</g>
		<path class="st33" d="M502.27,178.1c0,0-1.49-0.88-4.86,0.57c-3.36,1.44-14.68,15.27-14.68,15.27l9.77,8.41
			c0,0,4.55-5.2,9.02-12.12C505.99,183.29,502.27,178.1,502.27,178.1z"/>
		<path class="st5" d="M519.8,229.79l-2.75,1.65c0,0-51.19,9.38-53.23,17.66c-2.04,8.27,39.9,36.06,39.9,36.06l7.91-6.3
			c0,0-26.65-18.37-23.64-21.38c3-3,38.42-9.75,38.42-9.75L519.8,229.79z"/>
		<path class="st31" d="M452.51,296.18c0,0,1.64,13.74,2.54,13.74c0.9,0,18.59,0,18.59,0s-10.06-4.09-11.94-5.96
			c-1.88-1.88-3.86-8.3-3.86-8.3L452.51,296.18z"/>
		<path class="st34" d="M453.73,306.42c0,0,11,1.58,12.41,0.17c1.41-1.41,8.18,2.51,8.18,3.33c0,0.83-17.9,1.59-20.85,0.63
			C452.47,310.22,453.73,306.93,453.73,306.42z"/>
		<path class="st16" d="M421.69,167.78c0,0-0.13,7.86,1.49,11.95c1.62,4.09-10.97,3.76-10.97,3.76l1.55-23.97L421.69,167.78z"/>
		<path class="st12" d="M421.69,167.78l-3.85-4.02c-0.17,2.58-0.1,4.68,0.28,5.54c0.7,1.61,2.2,3.1,3.79,3.86
			C421.65,170.26,421.69,167.78,421.69,167.78z"/>
		<path class="st4" d="M429.93,165.86v6.99c0,1.61,1.3,2.91,2.91,2.91h2.49c1.61,0,2.91-1.3,2.91-2.91v-7.88h-8.31V165.86z"/>
		<path class="st16" d="M447.06,178.66c0,0-3.1-6.6-4.53-8.03c-1.43-1.43-4.33-2.86-4.33-2.86s0.84,2.46,0.3,3
			c-0.54,0.54-1.43,1.58-3.05,1.58s-1.82,0.94-0.69,2.07c1.13,1.13,4.73,3.99,6.21,4.53l0,0c0.62,0,1.18,0.39,1.4,0.97l0.38,1
			l4.33-1.18V178.66z"/>
		<path class="st35" d="M441.99,179.94c0,0,1.18,17.63,1.77,22.66c0.59,5.02,9.06,7.69,9.06,7.69s0-4.24,0-11.04
			c0-6.8-5.42-20.59-5.42-20.59L441.99,179.94z"/>
		<path class="st10" d="M502.97,221.71H394.21l0,0c0-2.2,1.78-3.98,3.98-3.98h100.8C501.19,217.73,502.97,219.51,502.97,221.71
			L502.97,221.71z"/>
		<path class="st36" d="M537.89,221.07c0,0,11.85-3.34,15.38-2.19l-4.67,13.86l-14.08-2.41L537.89,221.07z"/>
		<path class="st16" d="M424.42,147.17c0,0,3.22,2.04,3.94,3.87c0.72,1.84-0.07,15.3-1.97,17.93c-1.9,2.63-6.83,0.2-8.27-2.69
			C416.67,163.39,419.69,144.35,424.42,147.17z"/>
		<path class="st35" d="M444.05,191.67c-3.21-4.82-6.62-8.63-9.51-11.44c-3.82-3.73-9.29-5.23-14.5-4.07
			c-1.23,0.27-2.54,0.56-3.89,0.83c-7.29,1.47-12.6,7.75-12.79,15.18l-0.93,36.59c-0.24,9.64,8.11,17.43,17.67,16.19
			c1.79-0.23,3.29-0.74,4.19-1.64c4.33-4.33,2.48-31.54,4.32-36.67c1.19-3.31,1.81-3.28,2-7.61c0,0,15.5,16.87,18.65,16.87
			c3.55,0,3.55-3.45,3.55-7.65S451.74,203.19,444.05,191.67z"/>
		<path class="st37" d="M420.05,176.15c-1.23,0.27-2.54,0.56-3.89,0.83c-7.29,1.47-12.6,7.75-12.79,15.18l-0.53,21.12
			c1.27,0.33,2.56,0.46,3.82,0.35c9.31-0.87,18.69-9.38,19.13-18.29c0.35-7.05-1.94-13.76-3.61-19.52
			C421.46,175.89,420.75,176,420.05,176.15z"/>
		<rect x="421.69" y="263.48" class="st30" width="1.67" height="50.34"/>
		<rect x="396.77" y="263.48" class="st30" width="1.67" height="50.34"/>
		<rect x="428.24" y="263.48" class="st9" width="1.67" height="50.34"/>
		<rect x="486.34" y="221.21" class="st30" width="2.76" height="86.1"/>
		<path class="st7" d="M526.41,231.35c0,0-24.25,6.83-42.56,13.73c-18.3,6.89,22.85,52.49,22.85,52.49l8.67-3.94
			c0,0-19.83-34.75-16.78-37.8c3.05-3.05,33.13-10.87,33.13-10.87L526.41,231.35z"/>
		<path class="st31" d="M464.53,298.53c0,0,1.64,13.74,2.54,13.74c0.9,0,18.59,0,18.59,0s-10.06-4.09-11.94-5.96
			c-1.88-1.88-3.86-8.3-3.86-8.3L464.53,298.53z"/>
		<path class="st5" d="M452.01,254.64c-3.55-3.55-30.32-17.76-30.32-17.76l-19.6,5.91c0,0,0.89,7.59,4.33,11.03
			c3.45,3.45,37.21,9.65,37.21,9.65s5.84,36.98,5.85,37.09c1.73-0.13,9-1.62,10.73-1.66C459.96,297.1,455.56,258.19,452.01,254.64z"
			/>
		<path class="st7" d="M429.08,233.93c0,0,26.54,2.27,33.1,18.95c1.99,5.06,11.14,48.2,11.14,48.2l-9.1,1.19
			c0,0-12.82-32.1-13.71-37.81c-0.89-5.71-25.13-8.5-30.05-9.49c-4.93-0.99-13.8-12.7-13.8-12.7L429.08,233.93z"/>
		<path class="st38" d="M381.2,214.42c0,0,1.61,38.62,15.56,49.06h46.86c0,0,9.24-4.53,9.24-13.4c0-8.87-4.43-18.52-28.55-29.16
			C400.21,210.29,381.2,214.42,381.2,214.42z"/>
		<path class="st4" d="M424.33,220.92c-9.17-4.05-17.61-5.95-24.54-6.77c4.99,1.26,13.58,3.19,19.34,6.07
			c24.11,12.06,29.11,20.91,29.11,30.96c0,8.93-4.63,10.82-7.32,12.29h2.71c0,0,9.24-4.53,9.24-13.4
			C452.88,241.22,448.44,231.56,424.33,220.92z"/>
		<rect x="441.8" y="264.47" class="st30" width="1.67" height="49.35"/>
		<rect x="396.77" y="263.48" class="st30" width="46.7" height="4.53"/>
		<rect x="496.92" y="262.15" class="st9" width="1.68" height="51.67"/>
		<rect x="537.4" y="262.48" class="st9" width="1.67" height="51.34"/>
		<rect x="496.92" y="260.92" class="st9" width="42.15" height="3.56"/>
		<path class="st39" d="M424.29,142.44c0,0-3.55-2.76-11.03,0c-7.48,2.76-6.31,9.32-5.65,13.53c0.69,4.43-6.04,5.93-8.43,8.44
			c-8.39,8.8-11.65,22.62-9.58,34.4c1.32,7.53,8.35,12.38,15.84,11.68c9.31-0.87,15.8-9.89,16.23-18.79
			c0.66-13.4-4.07-21.94-0.13-28.63c3.94-6.7,2.63-10.25,3.94-11.56c1.31-1.31,2.89-0.46,2.89-0.46S438.42,141.22,424.29,142.44z"/>
		<path class="st40" d="M497.42,178.66c0,0-2.07,9.49-1.28,16.45c0.62,5.44,13.25,24.95,18.73,33.2c1.6,2.4,3.99,4.16,6.76,4.95
			l18.38,5.29l3.42,2.4c0,0,0.53-6.3-0.92-17.08c-1.44-10.77-25.09-50.18-30.47-50.18C506.64,173.7,497.42,178.66,497.42,178.66z"/>
		<path class="st22" d="M499.57,183.64c0.05,0,0.1,0,0.15-0.01c8.81-0.75,11.91-8.81,12.04-9.16l0.2-0.55l-0.13-0.22
			c-5.41,0.12-14.41,4.96-14.41,4.96s-0.08,0.38-0.21,1.04C497.42,181.62,497.84,183.64,499.57,183.64z"/>
		<path class="st41" d="M517.18,178.23l-5.75-0.94c0,0-7.3,18.59-10.89,27.92c1.17,2.12,2.49,4.39,3.87,6.68
			c0.54-1.41,1.23-2.84,2.02-3.63c1.94-1.94,4.13-0.87,4.99-1.73c0.87-0.87,8.3-12.23,8.3-19.26
			C519.73,180.23,517.18,178.23,517.18,178.23z"/>
		<path class="st16" d="M509.93,196.33c0,0-9.38,20.78-13,21.43c-3.98,0.72-24.54-0.04-24.54-0.04l-5.68,0
			c-2.05,0.03-3.84-1.52-3.96-3.57c-0.05-0.84,0.18-1.49,1-1.49c2.31,0,7.57,0.44,8.88,0.44s14.12-1.25,15.56-2.69
			c1.44-1.44,12.77-23.15,12.77-23.15L509.93,196.33z"/>
		<path class="st12" d="M505.46,205.51c2.49-4.8,4.47-9.18,4.47-9.18l-8.96-9.06c0,0-3.02,5.8-6.15,11.6
			C497.54,201.2,501.8,204.46,505.46,205.51z"/>
		<path class="st38" d="M496.92,259.34c0,0,4.6-9.72,16.68-19.7c12.08-9.98,39.67-20.75,39.67-20.75s1.18,37.17-14.05,42.03h-42.29
			V259.34z"/>
		<path class="st8" d="M537.73,256.2h-39c-1.24,1.96-1.8,3.15-1.8,3.15v1.58h42.29c11.94-3.81,13.8-27.44,14.04-37.51
			C550.97,238.15,546.48,252.59,537.73,256.2z"/>
		<path class="st16" d="M500.82,157.41l9.79,16.64c0,0-2.85,7.67-11,8.37c-1.24,0.11-1.17-3.89-1.46-5.1l-2.4-10.18L500.82,157.41z"
			/>
		<path class="st12" d="M500.82,157.41l-5.06,9.72l1.01,4.29c2.37-3.84,4.26-9.87,4.64-13.02L500.82,157.41z"/>
		<path class="st16" d="M496.83,146.95c0,0,3.99,7.01,3.99,10.46c0,3.45-5.07,13.48-9.28,12.08c-4.21-1.4-5.82-13.7-5.82-19.41
			C485.72,144.36,494.13,143.17,496.83,146.95z"/>
		<path class="st17" d="M496.61,141.13c0,0,3.24,0.11,3.24,2.7c0,2.59,3.24,0.97,3.88,4.1c0.65,3.13-1.88,11.24-1.88,11.24
			s-3.08-2.28-5.23-4.44c-2.16-2.16-2.26-5.45-3.34-5.45c-1.08,0-3.99,0.38-7.55,3.94c-3.56,3.56-10.03,0.54-7.66-4.75
			c2.37-5.28,6.36-4.53,11-5.07C493.7,142.85,496.61,141.13,496.61,141.13z"/>
		<path class="st22" d="M503.72,178.09c-2.94,4.36-6.93,15.8-7.59,17.02c-1.66,3.09,9.63,8.11,11.73,7.58
			c2.1-0.53,8.25-13.32,9.55-18.09c0.93-3.42,0.12-8.17-3.15-10.18C510.5,172.12,506.12,174.54,503.72,178.09z"/>
		<g>
			<path class="st42" d="M436.81,172.36h-1.38v-1.18h1.38c0.65,0,1.18-0.53,1.18-1.18v-1.18c0-0.65-0.53-1.18-1.18-1.18h-1.77v-1.18
				h1.77c1.3,0,2.36,1.06,2.36,2.36v1.18C439.18,171.3,438.12,172.36,436.81,172.36z"/>
		</g>
		<path class="st4" d="M478.95,181.81v6.99c0,1.61-1.3,2.91-2.91,2.91h-2.49c-1.61,0-2.91-1.3-2.91-2.91v-7.88h8.31V181.81z"/>
		<g>
			<path class="st42" d="M469.51,188.32h1.38v-1.18h-1.38c-0.65,0-1.18-0.53-1.18-1.18v-1.18c0-0.65,0.53-1.18,1.18-1.18h1.77v-1.18
				h-1.77c-1.3,0-2.36,1.06-2.36,2.36v1.18C467.15,187.26,468.21,188.32,469.51,188.32z"/>
		</g>
		<path class="st4" d="M496.92,259.34c3.23-9.24,11.68-18.39,19.71-24.18c8.69-6.33,25.91-13.64,36.64-16.27
			c-24.57,13.71-36.26,17.31-50.84,33.56C500.48,254.63,498.62,256.9,496.92,259.34z"/>
		<path class="st16" d="M463.82,184.61c0,0,6.71-1.1,7.81,0c1.1,1.1-5.37,1.99-5.37,1.99L463.82,184.61z"/>
		<path class="st16" d="M465.11,188.32c0,0,5.41-0.44,5.54-1.58c0.12-1.14-4.99-0.42-4.99-0.42L465.11,188.32z"/>
		<path class="st16" d="M466.76,184.12c0,0,2.43,0.11,3.89-0.53c1.46-0.64-2.77-0.77-2.77-0.77L466.76,184.12z"/>
		<path class="st43" d="M514.94,295.55c0,0,6.52,3.45,6.52,4.83c0,1.37-8.85,12.91-10.1,13.4c-0.5,0.2-9.64,0.04-9.98-0.3
			c-0.95-0.95,3.25-2.23,4.74-3.72c1.5-1.5,2.71-3.75,2.71-5.18c0-1.43-2.79-5.3,0-5.3C511.64,299.27,514.94,295.55,514.94,295.55z"
			/>
		<path class="st44" d="M465.74,308.78c0,0,11,1.58,12.41,0.17c1.41-1.41,8.18,2.51,8.18,3.33c0,0.83-17.9,1.59-20.85,0.63
			C464.49,312.58,465.74,309.28,465.74,308.78z"/>
	</g>
	<g>
		<path class="st45" d="M123.37,127.99H69.45v-26.96c0-14.89,12.07-26.96,26.96-26.96h0c14.89,0,26.96,12.07,26.96,26.96V127.99z"/>
		<rect x="88.32" y="96.7" class="st46" width="2.07" height="8.22"/>
		<rect x="102" y="96.7" class="st46" width="2.07" height="8.22"/>
		<path class="st5" d="M111.26,99.14H80.85v0c0-2.69,2.18-4.87,4.87-4.87h20.66C109.08,94.27,111.26,96.45,111.26,99.14
			L111.26,99.14z"/>
		<path class="st5" d="M114.43,88.01h-12.42c-1.12,0-2.02-0.9-2.02-2.02v0c0-1.12,0.9-2.02,2.02-2.02h12.42
			c1.11,0,2.02,0.9,2.02,2.02v0C116.45,87.1,115.55,88.01,114.43,88.01z"/>
		<g>
			<path class="st47" d="M93.81,116.39H82.55c-0.15,0-0.28,0.12-0.28,0.28v0.75h-0.75c-1.28,0-2.32,1.03-2.32,2.28
				c0,1.25,1.04,2.27,2.32,2.27h1.03c0.68,1.93,2.53,3.31,4.72,3.31h1.83c0.52,0,1.01-0.08,1.48-0.22c2.03-0.62,3.51-2.48,3.51-4.68
				v-3.72C94.09,116.51,93.96,116.39,93.81,116.39z M81.52,121.15c-0.81,0-1.47-0.65-1.47-1.45c0-0.8,0.66-1.45,1.47-1.45h0.75v2.14
				c0,0.26,0.03,0.51,0.07,0.76H81.52z"/>
			<path class="st48" d="M84.46,116.39h-1.91c-0.15,0-0.28,0.12-0.28,0.28v0.75h-0.75c-1.28,0-2.32,1.03-2.32,2.28
				c0,1.25,1.04,2.27,2.32,2.27h1.03c0.68,1.93,2.53,3.31,4.72,3.31h1.83c0.52,0,1.01-0.08,1.48-0.22
				C86.49,122.43,84.96,119.08,84.46,116.39z M81.52,121.15c-0.81,0-1.47-0.65-1.47-1.45c0-0.8,0.66-1.45,1.47-1.45h0.75v2.14
				c0,0.26,0.03,0.51,0.07,0.76H81.52z"/>
			<g>
				<path class="st47" d="M112.08,117.42h-0.75v-0.75c0-0.16-0.13-0.28-0.28-0.28H99.79c-0.16,0-0.28,0.12-0.28,0.28v3.72
					c0,2.71,2.24,4.9,4.99,4.9h1.83c0.52,0,1.02-0.08,1.49-0.23c1.51-0.46,2.72-1.61,3.23-3.09h1.03c1.28,0,2.32-1.02,2.32-2.27
					C114.4,118.45,113.36,117.42,112.08,117.42z M112.08,121.15h-0.82c0.04-0.25,0.06-0.5,0.06-0.76v-2.14h0.75
					c0.81,0,1.48,0.65,1.48,1.45C113.56,120.5,112.89,121.15,112.08,121.15z"/>
				<path class="st48" d="M107.82,125.07c-0.47,0.15-0.97,0.23-1.49,0.23h-1.83c-2.76,0-4.99-2.19-4.99-4.9v-3.72
					c0-0.16,0.12-0.28,0.28-0.28h1.49C101.42,119.44,102.63,123.58,107.82,125.07z"/>
			</g>
		</g>
		<rect x="81.19" y="125.29" class="st22" width="32.36" height="2.89"/>
		<rect x="101.62" y="85.55" class="st49" width="6.05" height="1.43"/>
	</g>
	<path class="st50" d="M475.08,111.17h-6.33c-2.2,0-3.99-1.8-3.99-3.99l0,0c0-2.2,1.8-4,3.99-4h6.33c2.2,0,4,1.8,4,4l0,0
		C479.08,109.37,477.28,111.17,475.08,111.17z"/>
	<path class="st51" d="M479.94,108.9h-15.88c-0.64,0-1.17-0.52-1.17-1.17l0,0c0-0.64,0.52-1.17,1.17-1.17h15.88
		c0.64,0,1.17,0.52,1.17,1.17l0,0C481.11,108.38,480.58,108.9,479.94,108.9z"/>
	<path class="st52" d="M479.08,106.57h-14.38c-0.29,0-0.53-0.24-0.53-0.53l0,0c0-0.29,0.24-0.53,0.53-0.53h14.38
		c0.29,0,0.53,0.24,0.53,0.53l0,0C479.61,106.33,479.37,106.57,479.08,106.57z"/>
	<rect x="451.42" y="94.96" class="st4" width="7.54" height="2.56"/>
	<rect x="452.16" y="109.42" class="st4" width="6.81" height="4.08"/>
	<g>
		<path class="st2" d="M513.67,128.32h-70.88l11.71-35.91c4.06-12.45,15.67-20.87,28.76-20.87h30.42V128.32z"/>
		<g>
			<g>
				<polygon class="st53" points="456.09,96.91 447.35,96.91 447.47,96.33 448.75,90.27 454.82,90.27 				"/>
				<polygon class="st54" points="450.9,96.91 448.29,96.91 449.65,90.27 450.68,90.27 				"/>
				<polygon class="st54" points="454.28,96.91 452.28,96.91 452.01,90.27 453.06,90.27 				"/>
			</g>
			<path class="st55" d="M448.64,89.93c-0.09,0.11-0.24,0.08-0.23,0.29c0.02,0.42,0.68,0.57,0.97,0.56
				c0.44-0.02,0.82-0.27,1.22-0.45c0.33-0.15,0.62,0.27,0.79,0.54c0.22,0.34,0.33,0.77,0.19,1.17c-0.34,0.96,0.06,1.63,0.55,1.21
				c0.49-0.42-0.3-1.3-0.26-1.72c0.05-0.42,0.02-1.08,0.54-1.01c0.52,0.07,0.84,0.49,0.73,0.84c-0.11,0.34,0.11,1.21,0.84,0.57
				c0,0,0.29-0.34-0.16-0.89c-0.45-0.54,0.24-0.57,0.25-0.57c0.21-0.01,0.32,0.27,0.52,0.32c0.22,0.05,0.44-0.18,0.5-0.4
				c0.17-0.64-0.49-0.76-0.9-0.83c-0.39-0.07-0.78-0.04-1.15,0.12c-0.41,0.18-0.91,0.08-1.33,0.04c-0.48-0.05-0.97-0.13-1.45-0.22
				C449.14,89.29,448.64,89.92,448.64,89.93z"/>
			<path class="st56" d="M452.9,89.36c0,0.41-0.36,0.74-0.8,0.74c-0.44,0-0.8-0.33-0.8-0.74c0-0.41,0.36-0.74,0.8-0.74
				C452.54,88.62,452.9,88.95,452.9,89.36z"/>
			<path class="st56" d="M452.9,89.36c0,0.41-0.36,0.74-0.8,0.74c-0.44,0-0.8-0.33-0.8-0.74c0-0.41,0.36-0.74,0.8-0.74
				C452.54,88.62,452.9,88.95,452.9,89.36z"/>
			<path class="st57" d="M452.44,88.7c0.08,0.12,0.13,0.26,0.13,0.41c0,0.41-0.36,0.74-0.8,0.74c-0.12,0-0.24-0.03-0.35-0.07
				c0.14,0.2,0.39,0.33,0.67,0.33c0.44,0,0.8-0.33,0.8-0.74C452.9,89.07,452.71,88.81,452.44,88.7z"/>
			<path class="st57" d="M452.18,86.14c0.12,0.05,0.22,0.12,0.32,0.19c0.1,0.08,0.19,0.17,0.26,0.28c0.07,0.11,0.13,0.23,0.16,0.36
				c0.03,0.13,0.03,0.26,0.02,0.39c-0.03,0.26-0.13,0.5-0.25,0.72c-0.03,0.05-0.06,0.11-0.1,0.16l-0.1,0.15l-0.21,0.31l0.19-0.32
				l0.1-0.16c0.03-0.05,0.06-0.11,0.09-0.16c0.11-0.22,0.19-0.46,0.21-0.7c0.02-0.24-0.05-0.49-0.19-0.67
				c-0.14-0.19-0.34-0.32-0.54-0.4L452.18,86.14z"/>
		</g>
		<g>
			<g>
				<polygon class="st53" points="467.21,96.91 458.48,96.91 458.6,96.33 459.88,90.27 465.95,90.27 				"/>
				<polygon class="st54" points="462.03,96.91 459.42,96.91 460.78,90.27 461.81,90.27 				"/>
				<polygon class="st54" points="465.4,96.91 463.41,96.91 463.14,90.27 464.19,90.27 				"/>
			</g>
			<path class="st55" d="M459.77,89.93c-0.09,0.11-0.24,0.08-0.23,0.29c0.02,0.42,0.68,0.57,0.97,0.56
				c0.44-0.02,0.82-0.27,1.22-0.45c0.33-0.15,0.62,0.27,0.79,0.54c0.22,0.34,0.33,0.77,0.19,1.17c-0.34,0.96,0.06,1.63,0.55,1.21
				c0.49-0.42-0.3-1.3-0.26-1.72c0.05-0.42,0.02-1.08,0.54-1.01c0.52,0.07,0.84,0.49,0.73,0.84c-0.11,0.34,0.11,1.21,0.84,0.57
				c0,0,0.29-0.34-0.16-0.89c-0.45-0.54,0.24-0.57,0.25-0.57c0.21-0.01,0.32,0.27,0.52,0.32c0.22,0.05,0.44-0.18,0.5-0.4
				c0.17-0.64-0.49-0.76-0.9-0.83c-0.39-0.07-0.78-0.04-1.15,0.12c-0.41,0.18-0.91,0.08-1.33,0.04c-0.49-0.05-0.97-0.13-1.45-0.22
				C460.27,89.29,459.77,89.92,459.77,89.93z"/>
			<path class="st56" d="M464.02,89.36c0,0.41-0.36,0.74-0.8,0.74c-0.44,0-0.8-0.33-0.8-0.74c0-0.41,0.36-0.74,0.8-0.74
				C463.66,88.62,464.02,88.95,464.02,89.36z"/>
			<path class="st56" d="M464.02,89.36c0,0.41-0.36,0.74-0.8,0.74c-0.44,0-0.8-0.33-0.8-0.74c0-0.41,0.36-0.74,0.8-0.74
				C463.66,88.62,464.02,88.95,464.02,89.36z"/>
			<path class="st57" d="M463.57,88.7c0.08,0.12,0.13,0.26,0.13,0.41c0,0.41-0.36,0.74-0.8,0.74c-0.12,0-0.24-0.03-0.35-0.07
				c0.14,0.2,0.39,0.33,0.67,0.33c0.44,0,0.8-0.33,0.8-0.74C464.02,89.07,463.84,88.81,463.57,88.7z"/>
			<path class="st57" d="M463.31,86.14c0.12,0.05,0.22,0.12,0.32,0.19c0.1,0.08,0.19,0.17,0.26,0.28c0.07,0.11,0.13,0.23,0.16,0.36
				c0.03,0.13,0.03,0.26,0.02,0.39c-0.03,0.26-0.13,0.5-0.25,0.72c-0.03,0.05-0.06,0.11-0.1,0.16l-0.1,0.15l-0.21,0.31l0.19-0.32
				l0.1-0.16c0.03-0.05,0.06-0.11,0.09-0.16c0.11-0.22,0.19-0.46,0.21-0.7c0.02-0.24-0.05-0.49-0.19-0.67
				c-0.14-0.19-0.34-0.32-0.54-0.4L463.31,86.14z"/>
		</g>
		<g>
			<g>
				<polygon class="st53" points="480.62,96.91 471.88,96.91 472.01,96.33 473.29,90.27 479.35,90.27 				"/>
				<polygon class="st54" points="475.43,96.91 472.82,96.91 474.19,90.27 475.22,90.27 				"/>
				<polygon class="st54" points="478.81,96.91 476.82,96.91 476.55,90.27 477.6,90.27 				"/>
			</g>
			<path class="st55" d="M473.17,89.93c-0.09,0.11-0.24,0.08-0.23,0.29c0.02,0.42,0.68,0.57,0.97,0.56
				c0.44-0.02,0.82-0.27,1.22-0.45c0.33-0.15,0.62,0.27,0.79,0.54c0.22,0.34,0.33,0.77,0.19,1.17c-0.34,0.96,0.06,1.63,0.55,1.21
				c0.49-0.42-0.3-1.3-0.26-1.72c0.05-0.42,0.02-1.08,0.54-1.01c0.52,0.07,0.84,0.49,0.73,0.84c-0.11,0.34,0.11,1.21,0.84,0.57
				c0,0,0.29-0.34-0.16-0.89c-0.45-0.54,0.24-0.57,0.25-0.57c0.21-0.01,0.32,0.27,0.52,0.32c0.22,0.05,0.44-0.18,0.5-0.4
				c0.17-0.64-0.49-0.76-0.9-0.83c-0.39-0.07-0.78-0.04-1.15,0.12c-0.41,0.18-0.91,0.08-1.33,0.04c-0.48-0.05-0.97-0.13-1.45-0.22
				C473.67,89.29,473.18,89.92,473.17,89.93z"/>
			<path class="st56" d="M477.43,89.36c0,0.41-0.36,0.74-0.8,0.74s-0.8-0.33-0.8-0.74c0-0.41,0.36-0.74,0.8-0.74
				S477.43,88.95,477.43,89.36z"/>
			<path class="st56" d="M477.43,89.36c0,0.41-0.36,0.74-0.8,0.74s-0.8-0.33-0.8-0.74c0-0.41,0.36-0.74,0.8-0.74
				S477.43,88.95,477.43,89.36z"/>
			<path class="st57" d="M476.97,88.7c0.08,0.12,0.13,0.26,0.13,0.41c0,0.41-0.36,0.74-0.8,0.74c-0.12,0-0.24-0.03-0.35-0.07
				c0.14,0.2,0.39,0.33,0.67,0.33c0.44,0,0.8-0.33,0.8-0.74C477.43,89.07,477.24,88.81,476.97,88.7z"/>
			<path class="st57" d="M476.71,86.14c0.12,0.05,0.22,0.12,0.32,0.19c0.1,0.08,0.19,0.17,0.26,0.28c0.07,0.11,0.13,0.23,0.16,0.36
				c0.03,0.13,0.03,0.26,0.02,0.39c-0.03,0.26-0.13,0.5-0.25,0.72c-0.03,0.05-0.06,0.11-0.1,0.16l-0.1,0.15l-0.21,0.31l0.19-0.32
				l0.1-0.16c0.03-0.05,0.06-0.11,0.09-0.16c0.11-0.22,0.19-0.46,0.21-0.7c0.02-0.24-0.05-0.49-0.19-0.67
				c-0.14-0.19-0.34-0.32-0.54-0.4L476.71,86.14z"/>
		</g>
		<g>
			<g>
				<polygon class="st53" points="461.28,110.57 452.54,110.57 452.66,110 453.94,103.94 460.01,103.94 				"/>
				<polygon class="st54" points="456.09,110.57 453.48,110.57 454.84,103.94 455.87,103.94 				"/>
				<polygon class="st54" points="459.47,110.57 457.48,110.57 457.21,103.94 458.25,103.94 				"/>
			</g>
			<path class="st55" d="M453.83,103.59c-0.09,0.11-0.24,0.08-0.23,0.29c0.02,0.42,0.68,0.57,0.97,0.56
				c0.44-0.02,0.82-0.27,1.22-0.45c0.33-0.15,0.62,0.27,0.79,0.54c0.22,0.34,0.33,0.77,0.19,1.17c-0.34,0.96,0.06,1.63,0.55,1.21
				c0.49-0.42-0.3-1.3-0.26-1.72c0.05-0.42,0.02-1.08,0.54-1.01c0.52,0.07,0.84,0.49,0.73,0.84c-0.11,0.34,0.11,1.21,0.84,0.57
				c0,0,0.29-0.34-0.16-0.89c-0.45-0.54,0.24-0.57,0.25-0.57c0.21-0.01,0.32,0.27,0.52,0.32c0.22,0.05,0.44-0.18,0.5-0.4
				c0.17-0.64-0.49-0.76-0.9-0.83c-0.39-0.07-0.78-0.04-1.15,0.12c-0.41,0.18-0.91,0.08-1.33,0.04c-0.49-0.05-0.97-0.13-1.45-0.22
				C454.33,102.95,453.83,103.59,453.83,103.59z"/>
			<path class="st56" d="M458.09,103.03c0,0.41-0.36,0.74-0.8,0.74c-0.44,0-0.8-0.33-0.8-0.74c0-0.41,0.36-0.74,0.8-0.74
				C457.73,102.29,458.09,102.62,458.09,103.03z"/>
			<path class="st56" d="M458.09,103.03c0,0.41-0.36,0.74-0.8,0.74c-0.44,0-0.8-0.33-0.8-0.74c0-0.41,0.36-0.74,0.8-0.74
				C457.73,102.29,458.09,102.62,458.09,103.03z"/>
			<path class="st57" d="M457.63,102.36c0.08,0.12,0.13,0.26,0.13,0.41c0,0.41-0.36,0.74-0.8,0.74c-0.12,0-0.24-0.03-0.35-0.07
				c0.14,0.2,0.39,0.33,0.67,0.33c0.44,0,0.8-0.33,0.8-0.74C458.09,102.73,457.9,102.48,457.63,102.36z"/>
			<path class="st57" d="M457.37,99.81c0.12,0.05,0.22,0.12,0.32,0.19c0.1,0.08,0.19,0.17,0.26,0.28c0.07,0.11,0.13,0.23,0.16,0.36
				c0.03,0.13,0.03,0.26,0.02,0.39c-0.03,0.26-0.13,0.5-0.25,0.72c-0.03,0.05-0.06,0.11-0.1,0.16l-0.1,0.15l-0.21,0.31l0.19-0.32
				l0.1-0.16c0.03-0.05,0.06-0.11,0.09-0.16c0.11-0.22,0.19-0.46,0.21-0.7c0.02-0.24-0.05-0.49-0.19-0.67
				c-0.14-0.19-0.34-0.32-0.54-0.4L457.37,99.81z"/>
		</g>
		<rect x="441.1" y="96.91" class="st58" width="41.43" height="1.17"/>
		<rect x="436.62" y="110.45" class="st58" width="48.9" height="1.49"/>
		<path class="st59" d="M504.85,128.32h-79.01l13.05-35.91c4.52-12.45,17.46-20.87,32.05-20.87h33.91V128.32z"/>
		<path class="st4" d="M425.84,128.32c1.78-6.26,9.2-30.85,12.59-38.63c3.8-8.71,11.92-15.01,20.3-17.74
			c6.76-2.41,14.17-1.69,17.92-1.68c9.4,0.24,18.8,0.59,28.2,1.27c-23.17,1.67-32.03,0.81-39.68,2
			c-8.17,1.28-15.78,5.77-20.82,12.32C438.93,92.92,438.62,99.73,425.84,128.32z"/>
	</g>
	<path class="st8" d="M446.89,18.67c-3.97-1.97-6.55-4.62-11.57-4.62h0.23c0-1.17-0.94-2.11-2.11-2.11h-4.65
		c-0.25-3.95-3.43-7.11-7.4-7.31V0h-0.81v4.63c-3.97,0.2-7.15,3.36-7.4,7.31h-4.65c-1.17,0-2.11,0.94-2.11,2.11h0.64
		c-2.1,0-4.16,0.51-6.02,1.49l-5.94,3.13c-0.09,0.02-0.14,0.05-0.14,0.07c0,0.93,52.04,0.93,52.04,0
		C447.01,18.72,446.96,18.7,446.89,18.67z"/>
	<path class="st8" d="M351.78,21.73c-3.97-1.97-6.55-4.62-11.57-4.62h0.23c0-1.17-0.94-2.11-2.11-2.11h-4.65
		c-0.25-3.95-3.43-7.11-7.4-7.31V0h-0.82v7.68c-3.97,0.2-7.15,3.36-7.4,7.31h-4.65c-1.17,0-2.11,0.94-2.11,2.11h0.64
		c-2.1,0-4.16,0.51-6.02,1.49L300,21.72c-0.09,0.02-0.14,0.05-0.14,0.07c0,0.93,52.04,0.93,52.04,0
		C351.9,21.77,351.86,21.75,351.78,21.73z"/>
	<g>
		<g>
			<g>
				<path class="st47" d="M200.35,138.84h-11.25c-0.15,0-0.28,0.12-0.28,0.28v0.75h-0.75c-1.28,0-2.32,1.03-2.32,2.28
					c0,1.25,1.04,2.27,2.32,2.27h1.03c0.68,1.93,2.53,3.31,4.72,3.31h1.83c0.52,0,1.01-0.08,1.48-0.22
					c2.03-0.62,3.51-2.48,3.51-4.68v-3.72C200.63,138.97,200.5,138.84,200.35,138.84z M188.06,143.6c-0.81,0-1.48-0.65-1.48-1.45
					c0-0.8,0.66-1.45,1.48-1.45h0.75v2.14c0,0.26,0.03,0.51,0.07,0.76H188.06z"/>
				<path class="st48" d="M191,138.84h-1.91c-0.15,0-0.28,0.12-0.28,0.28v0.75h-0.75c-1.28,0-2.32,1.03-2.32,2.28
					c0,1.25,1.04,2.27,2.32,2.27h1.03c0.68,1.93,2.53,3.31,4.72,3.31h1.83c0.52,0,1.01-0.08,1.48-0.22
					C193.03,144.88,191.5,141.53,191,138.84z M188.06,143.6c-0.81,0-1.48-0.65-1.48-1.45c0-0.8,0.66-1.45,1.48-1.45h0.75v2.14
					c0,0.26,0.03,0.51,0.07,0.76H188.06z"/>
				<g>
					<path class="st47" d="M218.62,139.88h-0.75v-0.75c0-0.16-0.13-0.28-0.28-0.28h-11.25c-0.16,0-0.28,0.12-0.28,0.28v3.72
						c0,2.71,2.24,4.9,4.99,4.9h1.83c0.52,0,1.02-0.08,1.49-0.23c1.51-0.46,2.72-1.61,3.23-3.09h1.03c1.28,0,2.32-1.02,2.32-2.27
						C220.94,140.9,219.9,139.88,218.62,139.88z M218.62,143.6h-0.82c0.04-0.25,0.06-0.5,0.06-0.76v-2.14h0.75
						c0.81,0,1.47,0.65,1.47,1.45C220.09,142.96,219.43,143.6,218.62,143.6z"/>
					<path class="st48" d="M214.36,147.52c-0.47,0.15-0.97,0.23-1.49,0.23h-1.83c-2.76,0-4.99-2.19-4.99-4.9v-3.72
						c0-0.16,0.12-0.28,0.28-0.28h1.49C207.96,141.89,209.17,146.04,214.36,147.52z"/>
				</g>
			</g>
			<path class="st12" d="M173.2,133.84c0,0,7.49,20.06,10.79,20.06c3.3,0,23.77-3.93,23.77-3.93l10.49-0.21
				c0,0-6.39,2.79-10.49,4.65c-4.09,1.86-18.06,13.65-24.47,14.37c-6.41,0.72-17.58-15.4-17.58-15.4L173.2,133.84z"/>
			<path class="st16" d="M138.05,276.51c0,0-12.99,12.32-12.74,14.14c0.24,1.82,10.73,12.29,12.18,13.55c1.45,1.26-2-10.85-2.1-11.6
				c-0.1-0.76,9.53-8.7,9.53-8.7L138.05,276.51z"/>
			<path class="st16" d="M182.8,286.48c0,0,8.38,15.42,10.09,15.18c1.72-0.23,18.64-11.96,18.64-11.96s-6.81-0.75-13.06,1.89
				c-6.25,2.65-8.57-9.41-8.57-9.41L182.8,286.48z"/>
			<path class="st5" d="M164.02,178.23l3.53,7.53l5.43,15.02c0,0,13.18,37.81,5.93,48.91c-7.25,11.1-37,39.36-37,39.36l-10.02-10.88
				c0,0,28.76-32.33,32.16-43.03c3.4-10.7-18.38-44.67-18.38-44.67L164.02,178.23z"/>
			<path class="st7" d="M142.72,215.17c11.93,24.14,36.27,72.62,40.75,76.02l11.7-6.15c0,0-32.77-78.16-29.05-82.01
				c4-4.14,6.85-2.24,6.85-2.24l-6.17-12.39l-16.78-11.96l-6.3,10.68C138.71,195.65,138.32,206.27,142.72,215.17z"/>
			<path class="st60" d="M157.42,113.99c0,0-10.99-0.83-15.98,7.86c0,0-9.99,67.69-5.39,74.68c4.59,6.99,40.13,1.47,41.55,0
				c0.63-0.65-2.95-11.69-2.92-24.77c0.05-16.23,3.58-35.33,2.92-38.54c-1.2-5.79-3.6-13.23-7.79-13.23
				C165.61,119.99,157.42,113.99,157.42,113.99z"/>
			<path class="st12" d="M169.99,121.44c0.73,0.05,1.41-0.28,1.83-0.84c-0.62-0.39-1.29-0.62-2.01-0.62c-4.19,0-12.38-6-12.38-6
				s-0.02,0-0.07,0c-0.21,0.68-0.06,1.44,0.42,2.01C159.34,117.83,163,120.97,169.99,121.44z"/>
			<path class="st16" d="M170.36,94.72l-12.94,19.27c0,0,3.48,6.22,13.84,6.22l2.97-13.04L170.36,94.72z"/>
			<path class="st12" d="M172.74,113.71l1.49-6.55l-3.87-12.45l-1.4,2.13c0.15,0.39,0.26,0.79,0.26,1.12v9.86
				C169.22,109.29,171.33,112.03,172.74,113.71z"/>
			<path class="st16" d="M172.9,85.59c0,0-2.77,7.62-2.77,11.3c0,3.69,3.88,14.29,8.22,12.79c4.34-1.5,6.01-14.64,6.01-20.75
				C184.37,82.83,175.68,81.56,172.9,85.59z"/>
			<path class="st17" d="M193.66,85.77c-2.45-5.65-7.79-6.05-12.58-6.63c-4.79-0.58-7.97-1.43-7.97-1.43s-3.34,1.76-3.34,4.53
				c0,2.77-3.34,1.04-4.01,4.38c-0.67,3.34,2.78,10.84,2.78,10.84s0.72-0.83,1.79-1.99c-0.36,2.25-1.32,9.22-0.11,12.48
				c1.45,3.92,9.47,7.95,11.82,6.69c2.36-1.27,0-10.22,0-10.22s-3.63,0.24-5.57-1.77c-1.37-1.42-2.62-6.01-3.23-8.6
				c-0.19-0.81,0-1.65,0.48-2.31c1.42-1.92,1.92-3.67,2.84-3.67c1.11,0,4.12,0.4,7.8,4.21C188.04,96.08,196.11,91.42,193.66,85.77z"
				/>
			<path class="st16" d="M171.67,92.44c0,0,0.05-0.23,0.06-0.55c0.05-0.96-0.2-2.79-2.96-1.92c-3.67,1.15,0.09,7.57,1.28,6.78
				C170.36,96.55,171.67,92.44,171.67,92.44z"/>
			<path class="st16" d="M196.77,149.86c-0.85,0.88-0.1,1.03-3.9,2.89c-3.8,1.86-27.77,6.82-30.76,6
				c-1.67-0.46-4.12-6.79-5.83-13.37c-5.31,4-9,6.83-14.68,10.55c6.41,11.36,17.22,18.12,23.51,18.12
				c7.79,0,42.65-23.05,42.65-24.09C207.76,148.93,197.62,148.98,196.77,149.86z"/>
			<path class="st12" d="M156.28,145.38c-5.31,4-9,6.83-14.68,10.55c0.4,0.71,0.82,1.41,1.26,2.08c2.92-2.33,10.26-7.9,14.6-8.54
				C157.04,148.16,156.65,146.78,156.28,145.38z"/>
			<path class="st5" d="M228.69,151.32h-40.73c-1.61,0-2.91-1.3-2.91-2.91v0h46.54v0C231.6,150.02,230.3,151.32,228.69,151.32z"/>
			<path class="st61" d="M185.24,149.44h46.18c0.12-0.32,0.18-0.67,0.18-1.03h-46.54C185.06,148.78,185.12,149.12,185.24,149.44z"/>
			<rect x="183.39" y="147.07" class="st45" width="50.34" height="1.34"/>
			<path class="st62" d="M152.93,130.53c-3.1-10.13-4.19-14.02-7.99-13.54c-7.73,0.97-11.89,13.54-8.49,31.01
				c0.65,3.36,1.83,6.39,3.36,9.09c5.68-3.71,11.93-6.93,17.24-10.93C155.68,140.92,154.3,135.03,152.93,130.53z"/>
		</g>
		<path class="st4" d="M189.42,294.86c-1.31,0.32-2.01,1.81-1.44,3.07c1.22,2.71,3.06,6.62,3.5,6.62c0.68,0,20.78-13.57,21.33-15.51
			c0.54-1.94-15.24-0.46-17.12,1.48C194.03,292.26,195.33,293.43,189.42,294.86z"/>
		<path class="st29" d="M189.91,302.02c0.68,1.29,1.36,2.53,1.58,2.53c0.68,0,20.95-13.5,21.5-15.37c0.08-0.29-0.15-0.59-0.74-0.73
			C208.6,291.74,194.91,299.31,189.91,302.02z"/>
		<path class="st63" d="M212.24,288.45c-4.37,4.2-17.13,11.18-22.24,13.76C204.24,293.67,209.47,290.72,212.24,288.45z"/>
		<path class="st4" d="M130.51,284.9c-0.31-1.29-1.78-1.83-2.81-1.05c-2.25,1.72-5.39,4.27-5.39,5.19c0,1.44,5.74,7.3,7.03,12.63
			c0.69,2.86,6.5,3.37,9.78,2.88c3.28-0.49,4.53-2.51,3.26-2.88c-1.27-0.37-4.69-2.6-5.5-5.21c-0.82-2.61,1.67-2.8,0-4.53
			c-1.67-1.73-3.87-0.84-4.99-2.89C131.33,288.03,130.85,286.35,130.51,284.9z"/>
		<path class="st29" d="M130.7,297.38c0-2.55-4.44-7.71-6.86-10.34c-0.9,0.85-1.54,1.59-1.54,2.01c0,1.44,5.74,7.3,7.03,12.63
			c0.69,2.86,6.5,3.37,9.78,2.88c2.49-0.37,3.82-1.64,3.75-2.38l-0.49-0.5c0,0-2.65,1.18-5.5,1.18
			C134.02,302.85,130.7,300.89,130.7,297.38z"/>
	</g>
	<path class="st12" d="M493.52,160.9c0,0-0.46-2.94,0.76-2.94c1.22,0,2.48,3.87,1.41,4.93C494.63,163.95,493.52,160.9,493.52,160.9z
		"/>
</g>
</svg>
