<?xml version="1.0" encoding="utf-8"?>
<!-- Generator: Adobe Illustrator 23.0.5, SVG Export Plug-In . SVG Version: 6.00 Build 0)  -->
<svg version="1.0" id="Layer_1" xmlns="http://www.w3.org/2000/svg" xmlns:xlink="http://www.w3.org/1999/xlink" x="0px" y="0px"
	 viewBox="0 0 624 320" style="enable-background:new 0 0 624 320;" xml:space="preserve">
<style type="text/css">
	.st0{opacity:0.3;fill:#35B24A;}
	.st1{fill:#EBF3FA;}
	.st2{fill:#184655;}
	.st3{fill:#F7A491;}
	.st4{fill:#EF6A1C;}
	.st5{fill:#FB9900;}
	.st6{fill:#F47458;}
	.st7{fill:#F7CC7F;}
	.st8{fill:#B75742;}
	.st9{fill:#9BC1F9;}
	.st10{fill:#00A26D;}
	.st11{fill:#16D892;}
	.st12{fill:#015E3A;}
	.st13{fill:#466EB6;}
	.st14{fill:#FAE0B2;}
	.st15{fill:#F48C7F;}
	.st16{fill:#028958;}
	.st17{fill:#3C8F7C;}
	.st18{fill:#50BFA5;}
	.st19{fill:#13375B;}
	.st20{fill:#F8A492;}
	.st21{fill:#355389;}
	.st22{fill:#FFFC97;}
	.st23{fill:#FFFFE9;}
	.st24{fill:#F47257;}
	.st25{fill:#899DAD;}
	.st26{fill:#EBECED;}
	.st27{fill:#86B1F2;}
	.st28{fill:#96D9C9;}
</style>
<g>
	<rect class="st0" width="624" height="320"/>
	<path class="st1" d="M59.76,319.85c0,0-70.65-73.11-11.95-152.26c52.08-70.23,112.8-65.43,157.35-36.93
		c18.97,12.14,73.68,1.5,120.24-69.96c63.5-97.45,283.6-38.35,243.47,111.58c-19.42,72.55,59.11,75.19,19.09,147.72L59.76,319.85z"
		/>
</g>
<g>
	<g>
		<path class="st2" d="M542.99,155.25c1.05-4.74,3.99-10.12,9.33-10.65c6.62-0.66,13.26,6.78,16.58,11.71
			c2.36,3.5,3.81,7.83,3.01,11.98c-1.24,6.5-8.14,11.08-14.73,10.54c-5.24-0.43-9.92-3.68-12.78-7.99
			C541.56,166.54,541.91,160.15,542.99,155.25z"/>
		<path class="st3" d="M562.17,177.95l5.25-2.66c0,0,5.56,13.55,6.24,17.5c0.25,1.44-0.76,16.23-1.18,19.21
			c0.14,5.76-1.9,7.07-3,8.85c0,0-2.34,1.21-2.44,1.03c-0.12-0.22,0.11-0.51,0.47-0.77c0.14-0.1,0.33-0.14,0.48-0.24
			c0.15-0.1,0.29-0.28,0.42-0.37c0.31-0.21,0.54-0.28,0.54-0.28s0.15-0.38,0.38-0.77c0.17-0.29,0.42-0.61,0.46-0.69
			c0.21-0.5-0.03-0.33-0.03-0.33c-0.24,0.39-1.56,1.99-1.56,1.99s-2.52,1.95-2.55,1.75c-0.01-0.1,0.06-0.43,0.46-0.95
			c0.11-0.14,0.41-0.31,0.56-0.48c0.12-0.13,0.22-0.3,0.37-0.45c0.16-0.16,0.38-0.26,0.54-0.42c0.24-0.24,0.33-0.57,0.48-0.77
			c0.61-0.8,0.84-1.42,0.58-1.16c-0.38,0.38-0.96,1.94-2.71,3.19c-0.3,0.2-0.5,0.28-0.53,0.15c-0.02-0.1-0.01-0.46,0.21-0.78
			c0.15-0.22,0.47-0.35,0.67-0.63c0.12-0.16,0.19-0.38,0.31-0.56c0.48-0.7,0.7-0.33,1.15-3.05c-0.25,0.11-0.47,0.28-0.58,0.37
			c-0.19,0.17-1.11,1.74-1.44,1.4c-0.33-0.35,1.57-3.99,1.57-3.99l1.58-2.07c-0.36-14.04-0.78-17.4-0.88-17.51L562.17,177.95z"/>
		<path class="st3" d="M552.81,223.71l-3.38,30.98c0,0,1.65,6.55,1.45,8.41c-0.2,1.86-3.67,26.27-3.67,26.27l0.16,1.34l0.08,3.97
			l-12.98,0.1c0,0,2.74-1.26,6.56-3.74c0.28-0.18,1.21-0.79,1.37-1.96c1.02-7.52-1.27-32.6-1.27-32.6l-1.59-32.67L552.81,223.71z"/>
		<path class="st4" d="M548.49,286.8l-6.99-0.43c0,0-0.41-28.01-1.36-34.1c-0.96-6.08-1.51-26.4-0.55-34.24
			c0.83-6.74,3.92-17.57,3.92-17.57l10.82,2.29l2.18,0.57l-5.87,51.07c0,0,0.54,3.45,0.82,6.99
			C551.73,264.93,548.49,286.8,548.49,286.8z"/>
		<path class="st3" d="M563.04,229.42c0.73,0.19,1.85,26.77,2.45,27.95c3.82,7.47,4.73,30.18,4.73,30.18l1.58,3.18l-0.36,3.06
			c0,0-2.85,1.68-4.85,0.55l0.31-3.07l0.24-4.1l-9.64-28.29l-5.28-28.86L563.04,229.42z"/>
		<path class="st2" d="M547.51,295.71h-13.4c-0.5-0.05-0.62-0.46-0.44-0.72c0.35-0.53,2.97-1.79,4.73-2.63
			c3.08,0.33,8.49-0.93,8.97-1.66C547.64,292.16,547.79,295.64,547.51,295.71z"/>
		<path class="st2" d="M571.79,290.72c0,0-1.1,2.37-2.39,2.27c-1.29-0.1-2.51-1.74-2.51-1.74s-0.48,2.3-0.26,3.57
			c0.23,1.27,2.06,2.57,3.31,2C571.21,296.26,572.92,293.32,571.79,290.72z"/>
		<path class="st5" d="M557.35,197.12c0,0,0.3,2.48,0.61,2.97c0.85,1.33,3.18,5.52,4.49,8.79c1.17,2.94,1.55,5.36,2,8.08
			c1.41,8.49,0.96,34.38,0.96,34.38s2.53,5.59,3.55,13.02c1.02,7.43,1.78,19.72,1.78,19.72l-5.22,1.38l-10.61-32.98
			c0,0-5.05-28.88-6.68-32.7c-1.64-3.82-4.72-19.33-4.72-19.33L557.35,197.12z"/>
		<path class="st6" d="M565.38,244.28C565.38,244.28,565.38,244.28,565.38,244.28L565.38,244.28z"/>
		<path class="st3" d="M511.88,142.67c0.12-1.1,3.16-1.99,4.06-2.25c0.9-0.26,0.31-0.05,1.31,0.27c0.12,0.04,3.13,4.62,3.13,4.62
			c0.95,1.49,9.65,14.79,12.58,16.81c2.99,2.06,14.92,5.66,14.92,5.66l0.55,7.62c0,0-16.47-5.65-20-8.67
			c-2.92-2.51-8.74-14.57-11.51-19.02l0,0C516.19,146.77,511.76,143.77,511.88,142.67z"/>
		<path class="st7" d="M553.88,165.55c7.33,0.1,10.15-1.03,15.83,12.35c0.99,2.33,1.55,4.01,1.57,4.05c0,0-5,2.25-6.79,2.97
			c0,0-1.76-5.39-2.49-4.76c-1.64,1.41-4.4,17.62-3.99,19.83c0,0-8.33,1.79-14.52,0.49c0,0-0.94-16.08-1.24-16.8
			c-0.31-0.72-2.18-3.88-0.65-7.45c0.27-0.64,0.96-2.55,0.48-2.68c-3.75-1.03-9.42-3.85-9.42-3.85l2.68-6.8
			c0,0,8.29,1.89,11.11,2.24c2.45,0.31,4.93,0.37,7.4,0.41C553.85,165.55,553.86,165.55,553.88,165.55z"/>
		<path class="st3" d="M553.59,159.74c0,0,0.2,4.64,0.79,6.35s-1.24,7.9-4.94,8.81s-0.07-7.36-0.13-9.16
			c-0.06-1.8-1.25-7.12-1.25-7.12L553.59,159.74z"/>
		<path class="st6" d="M548.64,161.3c-0.29-1.46-0.56-2.68-0.56-2.68l5.52,1.13c0,0,0.04,0.95,0.14,2.15
			C551.67,162.84,549.9,162.42,548.64,161.3z"/>
		<path class="st3" d="M552.48,147.07c0,0,2.17,0.6,3.42,2.74c1.25,2.13,1.87,8.26-2.73,10.87c-4.6,2.61-7.86-1.57-7.72-5.49
			C545.59,151.27,546.69,146.09,552.48,147.07z"/>
		<path class="st3" d="M544.49,153.91c0.33,0.96,1.06,1.59,1.62,1.39c0.56-0.19,0.75-1.13,0.41-2.1c-0.33-0.96-1.06-1.59-1.62-1.39
			C544.34,152.01,544.16,152.95,544.49,153.91z"/>
		<path class="st2" d="M551.83,146.91c0,0,2.48,6.41,4.91,7.09c2.43,0.68,2.23,3.83,2.23,3.83s0.31-7.28-1.91-9.07
			C554.85,146.98,551.83,146.91,551.83,146.91z"/>
		<path class="st3" d="M555.7,155.25c-0.37,1-0.13,2.02,0.55,2.27c0.68,0.25,1.53-0.35,1.9-1.36c0.37-1,0.13-2.02-0.55-2.27
			C556.92,153.64,556.07,154.25,555.7,155.25z"/>
		<path class="st3" d="M514.14,139.47c0,0-2.99,2.65-2.24,3.76c0.83,1.23,1.89,1.89,1.95,1.52c0.06-0.37-0.64-2.16-0.64-2.16
			s0.95-1.2,1.13-1.85C514.52,140.1,514.66,139.43,514.14,139.47z"/>
		<path class="st3" d="M512.21,140.41c0,0,1.63-1.84,1.69-1.23c0.08,0.74-1.28,2.89-1.94,2.89
			C511.29,142.08,511.29,141.44,512.21,140.41z"/>
		<path class="st3" d="M515.53,140.89c0,0,1.88,0.81,1.99,0.58c0.11-0.23-0.28-0.78-0.28-0.78s-2.53-1.92-2.62-1.23
			C514.53,140.14,515.53,140.89,515.53,140.89z"/>
	</g>
	<path class="st3" d="M378,102.18c-1.75-0.71-2.44-1.89-4.32-2.32c-0.13,1.73-3.65,11.39-3.96,11.88c-1.25,1.98-3.23,2.61-3.23,2.61
		s6.78,9.29,7.47,8.52c0.69-0.77-0.22-0.83-0.16-3.82c0-0.27-1.1-3.95,0.87-8.47C376.35,106.72,377.46,104.46,378,102.18z"/>
	<path class="st2" d="M366.2,114.47l7.83,9.47c0.32,0.32,0.67,0.18,0.75-0.09c0.15-0.55-0.51-3.11-0.96-4.82
		c-2.03-1.99-4.3-6.55-4.08-7.31C368.57,112.35,366.08,114.24,366.2,114.47z"/>
	<path class="st4" d="M358.88,59.85l6.47,10.38c0,0,17.33,7.67,20.48,13.44c3.14,5.77-11.12,28.29-11.12,28.29s-1.7-0.34-2.96-0.82
		c-0.96-0.36-2.05-1.28-2.05-1.28l6.38-22.28l-20.55-9.21L358.88,59.85z"/>
	<g>
		<path class="st8" d="M213.45,195.25l-19.01-40.43c-11.16,5.25-15.96,18.55-10.71,29.72C188.98,195.7,202.28,200.49,213.45,195.25z
			"/>
		<g>
			<path class="st6" d="M196.94,190.98l3.98-13.91l-12.52,5.89C190.24,186.56,193.23,189.37,196.94,190.98z"/>
			<path class="st6" d="M203.13,178.35l-3.85,13.46c3.32,0.92,6.82,0.85,10.08-0.22L203.13,178.35z"/>
			<path class="st6" d="M200.24,174.66c-4.56-2.07-8.57-3.84-12.73-5.37c-1.31,3.72-1.33,7.68-0.05,11.38L200.24,174.66z"/>
			<path class="st6" d="M188.49,167.02c3.82,1.41,7.51,3.01,11.6,4.86l-5.44-11.58C192.05,161.94,189.91,164.27,188.49,167.02z"/>
		</g>
		<path class="st7" d="M203.3,185.25c0.52,0.08,1.02-0.35,1.11-0.95c0.09-0.6-0.33-2.33-0.85-2.37c-0.52-0.04-0.94,1.48-1.03,2.08
			C202.43,184.62,202.78,185.17,203.3,185.25z"/>
		<path class="st7" d="M206.46,190.61c0.5-0.15,0.76-0.75,0.58-1.34c-0.18-0.58-1.31-1.95-1.8-1.76c-0.49,0.19-0.2,1.74-0.02,2.32
			C205.41,190.42,205.96,190.77,206.46,190.61z"/>
		<path class="st7" d="M193.61,188.91c0.47,0.24,1.07-0.01,1.35-0.55c0.28-0.54,0.42-2.31-0.06-2.52c-0.48-0.2-1.36,1.11-1.63,1.65
			C192.99,188.03,193.14,188.67,193.61,188.91z"/>
		<path class="st7" d="M193.49,183.78c0.2,0.49,0.82,0.69,1.39,0.46c0.56-0.23,1.82-1.49,1.58-1.96c-0.24-0.47-1.75-0.03-2.31,0.2
			C193.59,182.72,193.29,183.3,193.49,183.78z"/>
		<path class="st7" d="M189.25,177.54c0.2,0.49,0.82,0.69,1.39,0.46c0.56-0.23,1.82-1.49,1.58-1.96c-0.24-0.47-1.75-0.03-2.31,0.2
			C189.34,176.47,189.05,177.05,189.25,177.54z"/>
		<path class="st7" d="M193.53,174.91c-0.11,0.51,0.28,1.04,0.88,1.16c0.6,0.13,2.34-0.19,2.42-0.71s-1.42-1.02-2.02-1.15
			C194.22,174.09,193.64,174.4,193.53,174.91z"/>
		<path class="st7" d="M191.35,166c-0.3,0.43-0.13,1.07,0.37,1.41c0.5,0.35,2.24,0.72,2.51,0.26c0.27-0.45-0.92-1.49-1.43-1.83
			C192.3,165.5,191.65,165.57,191.35,166z"/>
		<path class="st7" d="M195.12,166.25c-0.46,0.25-0.61,0.89-0.32,1.43c0.29,0.54,1.66,1.66,2.11,1.38c0.44-0.28-0.14-1.74-0.43-2.28
			C196.19,166.24,195.58,166,195.12,166.25z"/>
	</g>
	<ellipse class="st9" cx="322.38" cy="268.91" rx="200.47" ry="23.78"/>
	<path class="st10" d="M358.78,262.34c0,0,25.42-15.82,28.53-21.36c3.11-5.55-0.73-6.88-1.12-9.7c-0.49-3.58,0.34-4.81,4.17-7.56
		c3.83-2.75,11.17-4.84,13.38-10.07c2.21-5.23-2.3-21.03-2.3-21.03l-3.77-1.61l3.87-2.42c0,0,5.16-28.14,1.69-33.03
		c0,0-7.43,6.23-11.97,13.45c-4.54,7.22-7.62,7.32-7.62,7.32l3.64,3.55l-4.1-2.46c0,0-6.42,7.37-6.55,14.93
		c-0.13,7.56-1.71,8.81-1.71,8.81l4.61,3.09l-5.52-1.36c0,0-3.26,6.9-7.02,9.5c-4.9,3.38-11.16,8.06-11.4,18.94
		C355.35,242.22,358.78,262.34,358.78,262.34z"/>
	<g>
		<path class="st11" d="M385.58,258.95c0,0,35.06-10.17,40.58-15.92c5.53-5.76,1.51-8.88,2.03-12.54c0.65-4.66,2.05-5.89,7.46-7.87
			c5.41-1.99,14.68-1.83,19.05-7.54c4.37-5.7,4.54-27.14,4.54-27.14l-7.38-3.13l8.89-1.86c0,0,14.66-27.6,12.29-35.02
			c0,0-12.48-0.58-20.25,6.72c-7.77,7.31-7.77,7.31-7.77,7.31l3.8,7.06l-6-4.65c0,0-9.64,4.5-12.39,13.89
			c-2.75,9.39-5.02,10.37-5.02,10.37l4.31,5.59l-5.96-3.78c0,0-4.21,9.17-11.45,9.21c-7.24,0.04-17.91,0.82-21.93,14.33
			C386.36,227.49,385.58,258.95,385.58,258.95z"/>
		<path class="st10" d="M426.17,243.03c5.53-5.76,1.51-8.88,2.03-12.54c0.65-4.66,2.05-5.89,7.46-7.87
			c5.41-1.99,14.68-1.83,19.05-7.54c4.37-5.7,4.54-27.14,4.54-27.14l-7.38-3.13l8.89-1.86c0,0,14.66-27.6,12.29-35.02
			c0,0-12.79,16.83-24.54,26.13c-11.75,9.29-1.09,18.32-12.03,28.98c-10.93,10.66-11.21,4.1-24.88,13.12
			c-13.67,9.02-26.01,42.8-26.01,42.8S420.64,248.79,426.17,243.03z"/>
	</g>
	<path class="st10" d="M409.77,282.44c0,0,42.73-5.79,49.73-9.73c7-3.94,2.38-6.4,3.22-9.04c1.08-3.37,2.83-4.19,9.45-5.39
		c6.62-1.2,17.85-1.26,23.46-5.21c5.61-3.95,8.11-18.5,8.11-18.5l-7.24-2.96l8.31-1.07c0,0-2.38-10.83,16.95-24.95
		c0,0-14.94-1-24.73,3.97c-9.79,4.97-9.79,4.97-9.79,4.97l4.12,5.32l-6.92-3.66c0,0-11.85,2.83-15.75,9.55
		c-3.9,6.72-6.68,7.32-6.68,7.32l4.82,4.27l-6.92-3.03c0,0-5.63,6.49-14.32,6.19c-8.69-0.3-21.56-0.22-27.22,9.43
		C412.68,259.56,409.77,282.44,409.77,282.44z"/>
	<path class="st10" d="M194.62,294.08c-0.01,0.06-0.01,0.12-0.01,0.18c0,8.69,56.96,15.74,127.22,15.74
		c70.26,0,127.22-7.05,127.22-15.74c0-0.06,0-0.12-0.01-0.18H194.62z"/>
	<path class="st12" d="M139.96,265.91c-0.01,0.15-0.01,0.3-0.01,0.45c0,21.38,81.68,38.72,182.43,38.72
		c100.75,0,182.43-17.34,182.43-38.72c0-0.15-0.01-0.3-0.01-0.45H139.96z"/>
	<path class="st13" d="M488.92,264.78c0,7.33-75.15,13.28-167.85,13.28c-54.56,0-103.03-2.06-133.69-5.25
		c-1.74-0.18-3.43-0.37-5.05-0.56c-14.63-1.69-24.42-3.67-27.8-5.81c0,0-0.01,0-0.01-0.01c-0.86-0.54-1.3-1.1-1.3-1.66
		c0-1.47,3.02-2.89,8.61-4.21c4.28-1.01,10.06-1.97,17.13-2.86c29.72-3.73,82.26-6.21,142.12-6.21
		C413.77,251.5,488.92,257.45,488.92,264.78z"/>
	<g>
		<path class="st11" d="M345.45,267.12c0,0-10.67-14.23-9.33-19.18c1.34-4.95,4.32-4.5,5.98-5.82c2.11-1.68,0.75-3.86,0.27-7.7
			c-0.48-3.84,0.66-8.55,2.29-12.78c1.63-4.23,8.4-11.13,8.4-11.13l3.52,3.64l-1.48-5.93c0,0,9.62-16.52,13.9-17.11
			c0,0,3.64,7.45,2.14,14.19c-1.5,6.75-1.5,6.75-1.5,6.75l-3.41,1.8l3.31-0.54c0,0,1.9,8.7-1.97,12.96
			c-3.87,4.26-2.82,5.81-2.82,5.81l0.86,1.47c0,0-2.54,3.94-0.62,8.37c1.92,4.43-0.67,11.6-6.22,17.76
			C353.23,265.81,345.45,267.12,345.45,267.12z"/>
	</g>
	<path class="st2" d="M362.98,242.42c5.14,3.71,4.57,13.27-1.27,21.35c-5.84,8.08-14.74,11.62-19.88,7.9
		c-5.14-3.71-4.57-13.27,1.27-21.35C348.95,242.25,357.85,238.71,362.98,242.42z"/>
	<g>
		<g>
			<path class="st11" d="M204.46,284.67c0,0,6.72-46.12,2.59-58.15c-4.13-12.04-10.07-3.8-10.07-3.8s-3.59-25.61-10.54-27.88
				c-6.96-2.27-6.7,9.89-6.7,9.89s-13.46-25.41-18.37-22.36c-9.13,5.67,4.22,34.23,4.22,34.23s-7.49-9.77-10.96-3.65
				c-5.24,9.24,15.67,25.14,15.67,25.14L204.46,284.67z"/>
		</g>
		<path class="st10" d="M160.87,240.23c-2.93-7.49,4.08-4.76,4.08-4.76s-15.57-13.3-10.33-22.53c3.47-6.12,10.96,3.65,10.96,3.65
			s-13.35-28.56-4.22-34.23l42.82,101.8C198.97,280.53,165.41,251.83,160.87,240.23z"/>
	</g>
	<g>
		<path class="st11" d="M394.7,215.88c-4.13-2-6-6.91-4.26-11.17c4.55-11.17,6.86-23.05,6.86-35.3
			c0-57.41-51.36-101.94-108.93-92.67c-7.64,1.23-12.88-7.23-8.66-13.5c1.34-1.99,3.46-3.35,5.82-3.73
			c5.91-0.95,11.94-1.44,17.92-1.44c14.58,0,28.78,2.79,42.21,8.3c13.68,5.61,25.96,13.79,36.49,24.32
			c31.97,31.97,41.14,79.54,24.46,120.6C404.68,216.04,399.21,218.07,394.7,215.88z"/>
	</g>
	<g>
		<path class="st10" d="M277.51,206.1c-23.24-14.88-34.03-42.88-27.67-69.17c1.14-4.71,6.09-7.3,10.58-5.69
			c3.89,1.4,6.09,5.48,5.12,9.5c-3.48,14.42-0.21,29.37,8.97,41.03c16.69,21.2,46.84,24.27,67.35,8.24c1.42-1.11,3.2-1.72,5-1.72
			c3.67,0,5.83,2.5,5.87,2.53c0.04,0.06,2.44,2.35,2.18,6.1c-0.16,2.28-1.27,4.39-3.06,5.79
			C329.88,219.93,300.13,220.59,277.51,206.1z"/>
	</g>
	<g>
		<path class="st7" d="M480.1,258.01c0,0-3.17,19.02-28.1,16.29c-25.45-2.78-33.68,5.94-55.3,5c-17.42-0.76-39.95-24.49-31.12-53.98
			C374.42,195.85,476.19,185.37,480.1,258.01z"/>
		<path class="st6" d="M480.06,256.74c0.15,1.45-0.05,2.91-0.54,4.28c-1.87,5.15-8.24,16.53-27.64,14.41
			c-25.45-2.78-33.58,5-55.18,3.91c-17.41-0.87-40.17-22.52-31.66-49C373.46,204.11,473.6,193.26,480.06,256.74z"/>
		<path class="st14" d="M365.04,230.34c8.88-24.17,98-34.08,113.1,17.53c0.85,2.9,1.48,5.87,1.92,8.87
			c-1.29-18.75-11.43-33.75-31.07-42.06c-28.91-12.03-65.72-4.6-78.98,8.07C367.76,224.83,365.9,227.41,365.04,230.34z"/>
		<path class="st15" d="M385.62,269.29c0,0-16.01-7.85-16.57-21.71c-0.57-13.86,11.66-25.68,22.02-28.08
			c10.36-2.4-2.04,2.99-6.46,20.48C380.2,257.46,394.1,269.58,385.62,269.29z"/>
		<path class="st15" d="M468.18,257.42c4.74-0.15,8.35-4.39,7.65-9.08c-0.58-3.83-2.88-8.69-9.06-14.14
			c-14.95-13.19-59.7-24.07-63.57-14.28c-3.86,9.79,19.91,12.26,23.15,26.48C428.86,257.41,456.04,257.81,468.18,257.42z"/>
		<path class="st15" d="M466.84,263.12c2.76,0.56,4.02,3.81,2.33,6.07c-2.04,2.73-5.85,5.39-12.87,4.62
			c-13.5-1.48-28.84-0.26-41.17,1.28c-12.33,1.54-22.1,1.75-21.65-2.37c0.45-4.12,23.68-10.54,28.58-14.04
			C426.69,255.38,455.48,260.81,466.84,263.12z"/>
	</g>
	<g>
		<path class="st3" d="M296.04,161.81l-3.05,9.25l-8.88-13.49l0-0.01c0,0-3.31-1.76-4.15-1.93c-0.75-0.15-3.14-0.42-3.53-0.03
			c-0.02-0.03-0.04-0.05-0.07-0.06c-0.32-0.09-0.92,0.98-1.01,1.24c-0.09,0.26,0.55,1.79,0.61,1.9c0.06,0.12-0.17,0.17-0.46,0.06
			c-0.29-0.12-1.18-1.18-1.18-1.18s-0.06-1.7-0.61-1.7s-0.09,2.13-0.09,2.13l0.52,0.72l-0.78-0.49c0,0-0.52-1.15-0.66-1.1
			c-0.14,0.06-0.35,0.63-0.06,1.24c0.29,0.61,0.92,1.27,0.92,1.27l1.18,0.63c0,0-1.38-0.14-1.79-0.46c-0.4-0.32-0.58,0.12-0.26,0.49
			c0.32,0.37,2.13,1.04,3.29,1.18c1.15,0.14,4.75,0.12,5.27,0.03c0.42-0.07,1.21-0.18,1.59,0.05c0.49,1.5,4.65,17.79,10,19.77
			c0,0,2.49-0.28,5.43-6.67c2.94-6.39,4.53-10.24,4.53-10.24L296.04,161.81z M279.38,158.22c-0.4,0.14-1.84,0.2-2.22,0.06
			c-0.37-0.14-0.92-1.61-0.92-1.61s0.18-0.43,0.22-0.76c0.41,0.47,2.2,0.29,2.6,0.56C279.5,156.75,279.78,158.08,279.38,158.22z"/>
		<path class="st3" d="M328.36,164.41c0,0,1.58,3.85,4.52,10.24c2.94,6.39,5.43,6.67,5.43,6.67c5.34-1.98,9.51-18.27,10-19.77
			c0.39-0.23,1.17-0.12,1.59-0.05c0.52,0.09,4.12,0.12,5.27-0.03c1.15-0.14,2.97-0.81,3.29-1.18c0.32-0.37,0.14-0.81-0.26-0.49
			c-0.4,0.32-1.79,0.46-1.79,0.46l1.18-0.63c0,0,0.63-0.66,0.92-1.27c0.29-0.61,0.09-1.18-0.06-1.24c-0.14-0.06-0.66,1.1-0.66,1.1
			l-0.78,0.49l0.52-0.72c0,0,0.46-2.13-0.09-2.13s-0.61,1.7-0.61,1.7s-0.89,1.07-1.18,1.18c-0.29,0.12-0.52,0.06-0.46-0.06
			c0.06-0.12,0.69-1.64,0.61-1.9c-0.09-0.26-0.69-1.33-1.01-1.24c-0.03,0.01-0.06,0.03-0.07,0.06c-0.38-0.4-2.78-0.13-3.53,0.03
			c-0.84,0.17-4.15,1.93-4.15,1.93l0,0.01l-8.88,13.49l-3.05-9.25L328.36,164.41z M352.1,156.47c0.4-0.27,2.19-0.09,2.6-0.56
			c0.04,0.33,0.22,0.76,0.22,0.76s-0.55,1.47-0.92,1.61c-0.37,0.14-1.82,0.09-2.22-0.06C351.38,158.08,351.66,156.75,352.1,156.47z"
			/>
		<path class="st12" d="M313.49,187.97c0,0-4.01-2.17-9.51-3.9c-7.36-2.32-17.3-3.95-23.04,0.67c-3.37,2.72,30.98,6.97,30.98,6.97
			L313.49,187.97z"/>
		<path class="st12" d="M350.71,187.71c0,0-3.19-4.86-11.62-4.9c-3.28-0.01-7.84,0.56-12,1.31c-7.42,1.33-14.44,3.67-14.44,3.67
			l-0.72,3.92L350.71,187.71z"/>
		<polygon class="st12" points="302.66,193.71 317.5,201.26 329.38,192.1 325.69,183.62 304.43,184.59 		"/>
		<path class="st2" d="M306.85,140.51c-1.62-3.45-1.59-9.9-0.22-13.67c1.12-3.05,3.69-4.75,6.98-5.05c3.81-0.35,6.22,0.44,9.15,2.43
			c3.05,2.07,6.7,4.32,10.23,5.27c4.6,1.24,9.36,2.18,13.56,4.45c2.77,1.5,5.33,3.7,6.39,6.66c1.52,4.24-0.39,9.06-3.4,12.41
			c-4.54,5.05-11.64,7.68-18.38,6.81c-5.24-0.68-10.15-3.47-13.54-7.52c-1.52-1.83-2.68-3.19-4.51-4.67
			C310.77,145.71,308.15,143.29,306.85,140.51z"/>
		<path class="st4" d="M326.72,145.35c0,0-5.84-0.69-11.6-0.97c-5.14-0.25-10.66,0.6-11.03,0.97c-1.46,1.46-2.21,14.25-1.44,16.63
			c0.76,2.38,4.41,8.57,3.65,12.56c-0.76,3.99-2.3,9.54-2.3,9.54s4.84,2.88,11.01,2.94c3.7,0.04,8.84-0.61,12.06-2.91
			c0,0-1.77-4.99-1.51-8.9c0.25-3.9,2.38-10.52,3.48-12.9C330.15,159.95,328.68,145.78,326.72,145.35z"/>
		<path class="st4" d="M306.39,146.46l-2.18-1.16c0,0-2.51,0.67-3.84,2.51c-1.09,1.52-6.11,15.36-6.11,15.36s6.62,2.72,8.74,2.63
			l3.39-8.48V146.46z"/>
		<path class="st4" d="M324.38,146.46l2.38-1.1c0,0,1.5,0.33,3.39,2.61c1.19,1.44,6.36,15.21,6.36,15.21s-6.62,2.72-8.74,2.63
			l-3.39-8.48V146.46z"/>
		<path class="st3" d="M317.84,137.04c0,0,0.3,5.72,0.63,7.55c0.34,1.89,0.7,10.54-3.23,11.5c-3.93,0.96-2.77-9.82-2.84-11.73
			c-0.06-1.91-0.85-8.46-0.85-8.46L317.84,137.04z"/>
		<path class="st6" d="M311.56,135.9c0,0,0.16,1.32,0.34,2.95c1.44,1.13,3.44,1.44,5.76,0.13c0.1-0.06,0.19-0.12,0.29-0.18
			c-0.06-1.03-0.1-1.76-0.1-1.76L311.56,135.9z"/>
		<path class="st3" d="M316.23,123.65c0,0,2.3,0.64,3.63,2.91c1.33,2.26,1.99,8.77-2.89,11.54c-4.88,2.78-8.35-1.67-8.2-5.83
			C308.91,128.1,310.08,122.6,316.23,123.65z"/>
		<path class="st3" d="M307.75,130.91c0.35,1.02,1.12,1.69,1.72,1.48c0.6-0.21,0.79-1.2,0.44-2.23c-0.35-1.02-1.12-1.69-1.72-1.48
			C307.59,128.89,307.39,129.89,307.75,130.91z"/>
		<path class="st2" d="M315.54,123.47c0,0,2.63,6.8,5.21,7.53c2.58,0.72,2.37,4.07,2.37,4.07s0.33-7.73-2.02-9.63
			C318.74,123.55,315.54,123.47,315.54,123.47z"/>
		<path class="st3" d="M319.65,132.33c-0.4,1.06-0.14,2.14,0.58,2.41c0.72,0.27,1.62-0.38,2.02-1.44c0.4-1.06,0.14-2.14-0.58-2.41
			C320.95,130.63,320.04,131.27,319.65,132.33z"/>
		<path class="st3" d="M290.03,196.72c0,0-1.7-1.45-3.74-2.03c-2.04-0.58-2.03,0.92-2.59,3.23c-0.57,2.31-1.48,3.81-2.64,6.04
			c-1.16,2.23,0.13,7.37,0.75,7.45c1.52,0.19,2.28-3.06,3.77-5.81c1.49-2.75,5.52-3.62,6.69-3.72c0.21-0.02,5.44-0.76,12.44-0.58
			c-1.42-2.82-3.5-5.13-5.64-7.6C293.72,195.44,290.03,196.72,290.03,196.72z"/>
		<path class="st16" d="M351.78,190.29c-0.65-3.62-3.65-5.14-7.14-5.11c-8.05,0.07-30.82,4.86-44.39,8.86
			c0.76,2.92,0.11,4.81,1.02,7.81c14.31-0.51,41.19-2.28,49.02-6.61C351.51,194.56,352.1,192.04,351.78,190.29z"/>
		<path class="st3" d="M342.12,205.93c-0.98-2.32-1.97-3.85-2.35-6.2c-0.45-2.78-0.19-4.32-3.61-3.07
			c-1.96,0.72-4.12,0.69-6.04-0.13c-1.26-0.54-2.82-1.21-4.59-1.96c-1.19,2.39-1.96,4.94-2.19,7.66c4.21,0.51,7.28,0.99,7.44,1.01
			c0.68,0.08,5.24,1.13,6.5,3.99c1.26,2.86,1.78,6.41,3.28,6.1C341.43,213.15,343.1,208.25,342.12,205.93z"/>
		<path class="st11" d="M289.06,182.94c-3.16-0.14-8.64,0.36-9.52,3.92c-0.43,1.72-0.32,4.16,0.36,5.8c0.84,2.05,2.85,3.2,4.85,4.09
			c3.81,1.69,27.51,4.62,39.72,6.09c1.49-2.59,2.73-5.47,2.69-8.02C315.42,189.89,295.12,183.22,289.06,182.94z"/>
	</g>
	<g>
		<path class="st17" d="M222.26,264.34L222.2,264c-0.15-0.72,0.12-1.48,0.7-1.96c0,0,0.02,0,0.01-0.02c0.51-0.4,0.81-1.01,0.79-1.66
			l0-0.33c-0.03-0.65-0.36-1.24-0.88-1.62c-0.02,0-0.02-0.01-0.03-0.01c-0.6-0.43-0.91-1.18-0.79-1.92l0.05-0.34
			c0.1-0.73,0.6-1.37,1.32-1.6l0.02,0c0.61-0.21,1.11-0.69,1.31-1.3l0.1-0.32c0.2-0.61,0.11-1.29-0.26-1.81
			c-0.02-0.01-0.02-0.01-0.02-0.03c-0.43-0.62-0.46-1.42-0.1-2.08l0.17-0.3c0.35-0.65,1.04-1.07,1.79-1.05c0.02,0,0.02,0,0.03-0.01
			c0.64,0.02,1.26-0.25,1.67-0.76l0.21-0.26c0.4-0.5,0.53-1.18,0.36-1.8c0-0.02,0-0.02-0.01-0.03c-0.18-0.71,0.07-1.49,0.63-1.98
			l0.24-0.22c0.56-0.5,1.35-0.67,2.04-0.38c0.02,0,0.02,0,0.03,0.01c0.6,0.24,1.28,0.19,1.82-0.15l0.3-0.18
			c0.54-0.34,0.89-0.91,0.95-1.56c0.01-0.02,0.01-0.02,0.01-0.03c0.07-0.74,0.57-1.38,1.26-1.65l0.31-0.12
			c0.7-0.27,1.5-0.15,2.05,0.35l0.02,0.01c0.48,0.43,1.13,0.61,1.76,0.5l0.33-0.08c0.64-0.14,1.17-0.55,1.44-1.14l0.01-0.02
			c0.32-0.68,1-1.11,1.76-1.13l0.33-0.01c0.74-0.01,1.45,0.38,1.81,1.03c0,0.02,0,0.02,0.01,0.03c0.31,0.56,0.86,0.97,1.5,1.05
			l0.33,0.05c0.65,0.1,1.28-0.13,1.75-0.58l0.01-0.02c0.54-0.53,1.32-0.69,2.03-0.46l0.32,0.11c0.71,0.23,1.24,0.83,1.35,1.58
			c0,0.02,0,0.02,0.01,0.03c0.1,0.63,0.48,1.2,1.05,1.5l0.3,0.17c0.57,0.31,1.25,0.32,1.84,0.04l0.02,0
			c0.69-0.32,1.49-0.2,2.07,0.26l0.26,0.21c0.6,0.46,0.88,1.22,0.73,1.96l0,0.02c-0.14,0.63,0.02,1.3,0.46,1.77L260,246
			c0.42,0.48,1.06,0.72,1.7,0.67c0.02,0,0.03-0.01,0.03-0.01c0.75-0.06,1.46,0.33,1.85,0.96l0.18,0.28c0.39,0.64,0.41,1.45,0.01,2.1
			c0,0,0,0-0.01,0.02c-0.33,0.54-0.41,1.22-0.17,1.83l0.12,0.31c0.24,0.61,0.75,1.05,1.37,1.22c0.02,0,0.02,0,0.03-0.01
			c0.72,0.2,1.27,0.81,1.42,1.53l0.06,0.34c0.07,0.37,0.05,0.75-0.08,1.1l-3.75,0.7l-34.78,6.57l-5.62,1.06
			C222.32,264.57,222.28,264.45,222.26,264.34z"/>
		<path class="st18" d="M227.99,263.61c-1.67-8.88,4.36-17.46,13.47-19.17c9.08-1.7,17.79,4.09,19.48,12.94L227.99,263.61z"/>
		<path class="st7" d="M255.82,252.51c0.82-0.4,1.81-0.06,2.2,0.76c0.4,0.82,0.06,1.81-0.76,2.2c-0.82,0.4-4.14,0.99-4.54,0.17
			C252.32,254.83,255,252.91,255.82,252.51z"/>
		<path class="st7" d="M248.83,249.09c0.2-0.89,1.08-1.45,1.97-1.24c0.89,0.2,1.45,1.08,1.24,1.97c-0.2,0.89-1.81,3.85-2.7,3.65
			C248.47,253.27,248.63,249.98,248.83,249.09z"/>
		<path class="st7" d="M240.57,249.99c-0.37-0.83,0.01-1.81,0.85-2.17c0.83-0.37,1.81,0.01,2.17,0.85c0.37,0.83,0.84,4.17,0,4.54
			C242.76,253.57,240.94,250.82,240.57,249.99z"/>
		<path class="st7" d="M234.56,254.35c-0.67-0.61-0.72-1.66-0.11-2.33c0.61-0.67,1.66-0.72,2.33-0.11c0.67,0.61,2.46,3.47,1.84,4.15
			C238.01,256.74,235.23,254.97,234.56,254.35z"/>
		<path class="st7" d="M231.46,261.04c-0.89-0.2-1.45-1.08-1.25-1.97c0.2-0.89,1.08-1.45,1.97-1.25c0.89,0.2,3.86,1.79,3.66,2.68
			C235.64,261.39,232.35,261.24,231.46,261.04z"/>
	</g>
	<g>
		<path class="st4" d="M267.93,245.95c-57.26-23.45-76.55-94.71-39.39-143.86c3.13-4.14,9.04-4.62,12.81-1.27
			c0.04,0.05,2.62,2.06,2.98,5.76c0.22,2.2-0.4,4.38-1.73,6.14c-30.29,40.08-14.23,97.97,32.01,116.9
			c16.76,6.86,34.58,7.47,51.04,2.46c0.84-0.25,1.7-0.38,2.58-0.38c5.86,0,7.98,5.13,7.99,5.15c2.25,4.83-0.3,10.54-5.4,12.09
			C310.73,255.05,288.56,254.4,267.93,245.95z"/>
	</g>
	<path class="st7" d="M340.67,236.51c-14.42-2.89-15.9,3.8-34.72,3.44c-15.9-0.31-17.95,6.99-18.2,9.26l0.03,0.01
		c-0.32,1.39-0.85,2.42-0.85,2.42c-0.93,2.09-2.84,9.43,11.04,17.18c16.43,9.18,14.33,15.71,28.24,20.49
		c12.14,4.17,23.98-2.4,30.03-13.05c6.52-11.48,4.65-27.93-6.57-35.89C346.98,238.46,343.9,237.16,340.67,236.51z"/>
	<path class="st19" d="M273.02,247.36l-0.03,0c-0.03,0.06,2.29,1.57,7.21,2.62c2.42,0.39,2.99,0.7,8.49,0.91l0.25,0.01
		c1,0.04,1.03,1.52,0.02,1.59c-0.74,0.05-1.47,0.11-2.2,0.15c-0.04,0-9.42,0.55-15.06-2.11c-0.88-0.36-1.3-1.36-0.94-2.24
		C271.14,247.42,272.14,247,273.02,247.36z"/>
	<path class="st20" d="M391.02,50.9c0.02-0.24-6.65-1.32-6.65-1.32c-0.74-0.09-4.78-1.44-4.78-1.44s-10.39-4.38-11-4.58l-8.03-7.72
		l-4.65,4.27c0,0,9.82,8.6,10.43,8.94c0.59,0.32,15.63,2.43,16.61,2.77c0,0,1.23,0.75,2.02,1.19c0.79,0.44,1.73,0.57,1.99,0.63
		c0.58,0.12,2,0.05,2,0.05S391,51.06,391.02,50.9z"/>
	<path class="st6" d="M390.52,50.52c0,0-1.3,2.44-1.83,2.75c-0.53,0.31-1.45,0.15-1.45,0.15L390.52,50.52z"/>
	<path class="st3" d="M403.05,105.36c-1.88,0.12-3.02-0.65-4.9-0.22c0.63,1.61,1.64,11.85,1.58,12.42
		c-0.27,2.32-1.78,3.75-1.78,3.75s10.14,5.44,10.42,4.45c0.29-0.99-0.55-0.66-1.8-3.37c-0.11-0.24-2.7-3.09-2.89-8.01
		C403.53,110.16,403.55,107.64,403.05,105.36z"/>
	<path class="st2" d="M397.74,121.55l11.16,5.15c0.43,0.15,0.68-0.13,0.64-0.41c-0.1-0.56-1.81-2.58-2.96-3.93
		c-2.69-0.92-6.71-4.04-6.84-4.82C398.95,118.61,397.53,121.39,397.74,121.55z"/>
	<path class="st5" d="M358.79,59.26c-0.21,2.6-11.68,0.67-11.68,0.67c-0.44-0.07-0.73,3.67-0.73,3.88
		c-0.05,2.24-1.09,7.21,3.74,11.57c2.8,2.53,37.52,11.21,38.29,11.54c3,10.44,6.43,18.31,10.78,28.24c0,0,1.13,0.35,2.6,0.32
		c0.93-0.02,2.82-0.27,2.82-0.27s-4.3-33.62-7.75-38.45c-1.47-2.05-19.82-6.19-30.89-11.48C360.91,62.84,358.79,59.23,358.79,59.26z
		"/>
	<path class="st2" d="M337.96,17.51c-4.64,1.27-7.76,5.41-7.34,10.07c-2.4,1.19-4.3,3.38-5.08,5.88
		c-1.54,4.93-0.19,11.91,5.15,12.21c3.39,2.28,9.47,3.02,12.46,0.29c4.71,1.48,8.8-2.78,9.18-8.65c3.55-1.73,6.07-5.41,5.97-9.31
		c-0.02-0.94-0.13-2.37-0.05-2.6c-0.08,0.29,5.5-5.75-1.65-11.96C349.31,7.09,339.48,10.16,337.96,17.51z"/>
	<path class="st21" d="M359.78,45.44c2.01-0.38,4.64-2.67,5.34-5.78c0.02-0.08-7.28-7.9-9.41-8.96c-0.19-0.1-0.45-0.22-0.65-0.21
		c1.12,3.25-0.39,7.52,0.32,10.94C355.43,41.28,359.53,45.49,359.78,45.44z"/>
	<path class="st13" d="M347.67,30.72c0,0-4.03,0.79-5.58,1.59c-3.6,1.84-0.05,11.57,0.27,12.41c0.56,1.47,5.66,11.78,4.03,18.29
		c0,0,7.45,1.75,12.97-0.06c0,0,0.5-15.62,0.71-16.33c0.21-0.71,1.53-3.03,0.02-6.36c-0.11-0.24-3.04-6.97-5.04-9.77
		C351.23,30.48,347.67,30.72,347.67,30.72z"/>
	<path class="st3" d="M347.89,24.62c0,0-0.08,4.53-0.25,6.12c-0.17,1.66,1.56,6.72,5.02,7.2c3.46,0.48,0.04-5.7-0.08-7.36
		c-0.12-1.66,0.23-7.52,0.23-7.52L347.89,24.62z"/>
	<path class="st6" d="M347.85,26.06c0.04,0.02,0.07,0.04,0.11,0.05c1.98,0.87,3.58,0.53,4.71-0.43c0.07-1.45,0.14-2.64,0.14-2.64
		l-4.92,1.57C347.89,24.62,347.88,25.22,347.85,26.06z"/>
	<path class="st3" d="M347.67,12.86c0,0-1.92,0.76-2.85,2.85c-0.93,2.08-0.91,7.78,3.54,9.74c4.45,1.96,7.02-2.2,6.51-5.79
		C354.37,16.06,352.86,11.4,347.67,12.86z"/>
	<path class="st3" d="M355.64,18c0.15,0.93-0.17,1.76-0.71,1.84c-0.54,0.08-1.09-0.6-1.24-1.53c-0.15-0.93,0.17-1.76,0.71-1.84
		C354.94,16.38,355.49,17.07,355.64,18z"/>
	<path class="st2" d="M348.25,12.65c0,0-1.64,6.13-3.78,6.99c-2.15,0.86-1.66,3.74-1.66,3.74s-0.99-6.67,0.86-8.52
		C345.51,13,348.25,12.65,348.25,12.65z"/>
	<path class="st3" d="M345.53,20.69c0.44,0.89,0.31,1.84-0.28,2.14c-0.59,0.3-1.43-0.18-1.87-1.06c-0.44-0.89-0.31-1.84,0.28-2.14
		C344.26,19.33,345.1,19.81,345.53,20.69z"/>
	<g>
		<g>
			<g>
				<path class="st11" d="M187.38,272.81c-1.74-0.18-3.43-0.37-5.05-0.56c-14.63-1.69-24.42-3.67-27.8-5.81
					c0.04-0.01,0.06-0.01,0.06-0.01s-0.02,0-0.07,0c-1.19,0.01-16.67,0-17.01-6.23c-0.23-4.23,6.94-2.46,7.15-2.41
					c-0.28-0.15-16.98-8.83-14.04-15.01c1.59-3.33,17.37,3.76,17.58,3.85c-0.09-0.12-4.27-5.82,0.21-7.36
					c4.53-1.55,17.1,5.28,23.47,9.54c2.35,1.58,4.03,3.96,7.08,8.89C182.31,263.14,185.52,269.21,187.38,272.81z"/>
			</g>
			<path class="st10" d="M154.53,266.45c0.04-0.01,0.06-0.01,0.06-0.01s-0.02,0-0.07,0c-1.19,0.01-20.05-1.06-20.39-7.29
				c-0.23-4.23,5.7-3.54,5.91-3.49c-0.28-0.15-12.35-6.69-9.41-12.87l31.2,17.79l20.5,11.68
				C167.7,270.56,157.91,268.58,154.53,266.45z"/>
		</g>
		<path class="st8" d="M173.97,216.97c-13.26,21.48-9.18,48.03,9.1,59.32c18.28,11.29,43.85,3.02,57.11-18.45
			C240.38,257.52,174.17,216.65,173.97,216.97z"/>
		<g>
			<polygon class="st22" points="210.44,238.15 209.85,237.79 210.06,238.97 			"/>
			<polygon class="st23" points="210.06,238.97 210.44,238.15 209.85,237.79 210.06,238.97 			"/>
		</g>
		<g>
			<path class="st7" d="M212.19,241.22l5.91,33.15c8.24-3.24,15.39-9.19,20.34-16.95L212.19,241.22z"/>
			<path class="st7" d="M174.88,261.26c2.81,4.38,6.47,7.97,10.87,10.69c1.92,1.18,3.96,2.18,6.08,2.97l16.26-35.71L174.88,261.26z"
				/>
			<path class="st7" d="M169.04,237.52c-0.51,7.32,0.94,14.59,4.14,20.8l31.2-20.72L169.04,237.52z"/>
			<path class="st7" d="M175.13,218.34c-2.95,4.93-4.87,10.24-5.71,15.79l31.4,0.07L175.13,218.34z"/>
			<path class="st7" d="M195.1,275.94c6.38,1.67,13.14,1.52,19.76-0.45l-5.51-30.86L195.1,275.94z"/>
		</g>
		<path class="st14" d="M240.22,257.77c0.19-0.3,0.35-0.61,0.53-0.91l-30.9-19.06l0-0.01c-1.68-1.04-33.43-20.64-35.26-21.77
			c-4.07,6.27-6.38,13.01-7.11,19.8c-0.95,8.84,0.83,17.61,5.1,24.93l0,0c2.94,5.05,7.06,9.42,12.28,12.64
			c2.52,1.55,5.16,2.76,7.88,3.63c7.8,2.51,16.21,2.28,24.04-0.36C226.03,273.54,234.49,267.06,240.22,257.77z M171.43,232.44
			c0.82-4.08,2.26-8.01,4.29-11.73l19.09,11.78L171.43,232.44z M173.86,255.83c-2.28-5.08-3.39-10.8-3.21-16.61l28.13,0.06
			L173.86,255.83z M236.05,257.95c-4.28,6.16-10.06,11.02-16.66,14.04l-4.88-27.33L236.05,257.95z M186.65,270.5
			c-3.72-2.29-6.87-5.24-9.4-8.78l26.85-17.83l-13.13,28.85C189.47,272.1,188.02,271.35,186.65,270.5z M197.5,274.76l11.14-24.47
			l4.28,23.98C207.75,275.59,202.52,275.75,197.5,274.76z"/>
	</g>
	<path class="st11" d="M487.51,255.43l-9.52,4.63c7.07,1.47,10.94,3.06,10.94,4.72c0,7.33-75.15,13.28-167.85,13.28
		c-90.42,0-164.14-5.66-167.72-12.74l-21.21-3.93c-6.64,2.36-10.24,4.89-10.24,7.52c0,13.13,89.76,23.78,200.47,23.78
		c110.72,0,200.47-10.65,200.47-23.78C522.85,263.91,509.8,259.26,487.51,255.43z"/>
	<path class="st17" d="M169.65,270.37c-0.58-0.37-16.1-4.68-16.29-5.05l-17.74-3.29C139.99,265.59,168.62,270.38,169.65,270.37z"/>
	<path class="st2" d="M467.8,270.44c0,4.82-6.15,8.73-13.72,8.73c-7.58,0-13.72-3.91-13.72-8.73c0-4.82,6.14-8.73,13.72-8.73
		C461.66,261.71,467.8,265.62,467.8,270.44z"/>
	<g>
		<path class="st2" d="M430.44,260.38c0,0-0.01,19.87-18.42,24.84c-18.41,4.97-48.68-6.04-51.69-10.15
			c-2.47-3.37-2.49-7.06-2.1-11.03c0.34-3.44,1.21-1.42,12.84-5.67s13.06-0.61,24.31-7.11
			C406.63,244.78,429.96,246.97,430.44,260.38z"/>
		<path class="st17" d="M364.57,270.84c-2.49-0.84-4.51-2.65-5.68-5c-0.01-0.01-0.01-0.02-0.02-0.03
			c-1.56-3.08-1.2-7.12,10.43-11.37c11.63-4.25,13.98-2.7,25.23-9.19c11.25-6.49,35.59,1.46,36.06,14.87c0,0,0,1.01-0.27,2.03
			c-3.07,5.95-8.59,11.84-18.48,14.21C398.22,279.63,378.75,275.61,364.57,270.84z"/>
		<path class="st7" d="M426.54,264.76c1.99-2.75,2.19-6.41,0.44-9.32c-5.32-8.82-22.92-13.54-31.51-8.58
			c-7.27,4.2-10.95,5.13-15.61,6.32c-4.66,1.19-23.52,5.08-19.29,12.96c2.28,4.25,10.13,4.72,14.28,5.8
			c4.06,1.06,8.17,1.95,12.32,2.6c4.12,0.65,9.25,1.77,13.41,1.13C403.53,275.22,417.95,276.66,426.54,264.76z"/>
		<path class="st8" d="M399.35,251.48c-8.34,1.4-14.32,7.2-13.36,12.95c0.97,5.75,8.51,9.28,16.85,7.88
			c8.34-1.4,14.32-7.2,13.36-12.95C415.23,253.61,407.69,250.08,399.35,251.48z"/>
	</g>
	<g>
		<path class="st2" d="M118.41,150.87c-1.93,1.88-4.25,1.15-6.95,1.09c-1.81-0.04-3.61,2.47-4.02,4.62
			c-1.04,5.45-4.35,2.05-8.32,3.34c-9.56,3.12-5.96,18.8-0.1,20.28c1.98,0.5,5.64,2.15,6.6,2.79c2.9,1.95,8.5,0.23,12.79-2.12
			c4.29-2.35,1.79-4.48,3.31-6.62c1.52-2.14,5.1-0.15,7.16-4.89c2.23-5.12,2.63-9.95,1.38-13.13c-2.06-5.27-7.7-7.12-10.15-6.36
			C119.38,150.12,118.83,150.46,118.41,150.87z"/>
		<path class="st3" d="M137.16,269.88c-0.95,4.32-2.46,8.09-2.66,8.54c-0.1,0.21-0.99,0.97-1.09,1.19
			c0.28,5.31,3.55,8.58,6.64,10.93c-0.6-2.7-2.02-5.81-1.8-6.4c0.35-0.93,1.72-5.21,4.52-10.55
			C140.14,273.2,139.26,271.56,137.16,269.88z"/>
		<path class="st4" d="M125.22,206.76l-16.48,12.51c0,0,8.16,7.85,11.22,10.77s19.42,15.17,19.68,15.84
			c0.2,0.5-2.92,18.95-4.67,25.78c1.74,1.78,5.58,3.53,7.85,4.1c4.38-11.01,9.92-29.33,9.92-31.85
			C152.74,241.04,125.22,206.76,125.22,206.76z"/>
		<path class="st3" d="M79,231.73c0.54,0.53,4.12,7.49,5.48,11.22c1.99-1.25,3.2-2.75,5.42-3.59c-1.76-2.54-5.18-8.66-5.46-10.11
			c-0.67-3.45-1.45-3.96-1.45-3.96s-11.58,3.92-12.35,5.01C69.87,231.4,76.84,229.62,79,231.73z"/>
		<path class="st2" d="M84.57,230.01c0.9,0-0.08-4.06-0.28-4.99c-0.23-1.05-0.84-1.37-0.99-1.4c-0.41-0.1-13.27,4.25-15.45,5.81
			c-0.15,0.11-0.41,0.44-0.45,0.52c-1.19,2.22,9.41,2.64,10.94,1.67C79.7,230.76,80.53,230,84.57,230.01z"/>
		<path class="st5" d="M128.7,210.51c0,0-14.35-5.86-14.35-5.86c0.06,0.03-0.09,0.59-0.1,0.63c-1.35,5.25-8.55,3.23-11.52,12.35
			c-2.1,6.44-5.17,30.55-5.17,30.55s-2.18-4.14-8.94-11.77c-0.52-0.59-7.19,3.99-7.19,3.99c4.96,13.14,17.13,23.82,18.78,23.07
			c11.14-5.11,24.51-45.42,24.5-45.42C125.98,215.57,128.7,210.51,128.7,210.51z"/>
		<path class="st3" d="M128.03,171.37c0,0,1.2-1.18,2.69-2.95c3.57-4.23,9.52-11.61,9.89-12.68c0.45-1.32-0.53-20.29-0.64-21.5
			c-0.11-1.2-4.19-4.49-3.55-5.43c0.64-0.95,6.27-1.72,7.21-1.53c0.94,0.18,2.78,0.02,3.53,0.78c0.1,0.1-2.13,4.99-2.09,5.68
			c0.27,4.71,2.41,19.2,2.41,23.35c0,2.99-14.16,19.2-14.16,19.2L128.03,171.37z"/>
		<path class="st24" d="M143.63,127.28c-0.94-0.18-6.57,0.59-7.21,1.53c-0.19,0.28,0.04,0.78,0.46,1.36
			c1.78,0.15,3.65,0.47,5.5,0.47c1.37,0,2.69-0.25,4.01-0.57c0.43-1.14,0.82-1.96,0.77-2.01
			C146.41,127.3,144.57,127.47,143.63,127.28z"/>
		<path class="st3" d="M104.78,174.25c0,0-18.04,0.45-22.01,0.77c-3.96,0.33-18.34-0.87-18.89-0.94c-0.56-0.06-4.24-6.3-4.85-5.63
			c-0.61,0.67,2.05,3.09,1.23,3.72c-0.82,0.63-9.66-0.78-9.55-0.13c0.22,1.22,5.38,1.07,5.37,1.66c-0.01,0.59-5.4-0.33-5.76,0.65
			c-0.37,0.98,5.19,0.4,5.41,0.84c0.22,0.44-5.15,1.24-4.6,2.15c0.3,0.5,4.76-0.83,4.74-0.15c-0.02,0.67-3.28,2.21-2.88,2.75
			c0.4,0.54,2.55-1.65,4.44-1.68c1.89-0.03,3.24-1.01,6.26-0.19c3.02,0.83,13.29,4.97,19.73,4.67c6.43-0.3,20.65-0.94,20.65-0.94
			L104.78,174.25z"/>
		<path class="st12" d="M131.26,191.4c0.25-2.98,2.48-5.74,0.46-11.12c-0.12-3.01,4.6-6.63,5.28-7.93c0,0-3.38-4.03-6.12-4.78
			c0,0-5.5,4-8.11,5.36c-0.04-0.01-0.92,0.39-1.31,0.39c-2.52-0.02-11.32-0.28-12.96,0.21l0.84,11.9c0.47,0.78,2.77,1.88,3.46,20.41
			c0.06,1.61,13.56,6.18,15.91,4.67c0.06-0.04,0.77-4.2,1.38-9.18C130.52,197.91,131.06,193.85,131.26,191.4z"/>
		<path class="st12" d="M113.09,173.84c-1.62-0.78-13.48-0.75-13.48-0.75s-1.01,8.41,0.31,10.38c0,0,9.88,1.33,9.58,2.19
			L113.09,173.84z"/>
		<path class="st2" d="M134.46,278.54c-0.3-0.85-3.75,1.7-4.56,2.21c-0.91,0.58-1,1.26-0.98,1.41c0.04,0.41,8.21,11.21,10.65,12.74
			c0.23,0.15,0.73,0.17,0.87,0.11c1.4-0.49-0.55-9.16-2.31-10.92C137,282.97,135.82,282.35,134.46,278.54z"/>
		<path class="st3" d="M136.51,128.96c-0.54,0.79,2.39,3.31,3.2,4.7l1.84-2.5C140.64,130.98,137.13,128.06,136.51,128.96z"/>
		<path class="st3" d="M120.01,166.38c0,0-1.02,4.45-1.89,5.99c-0.87,1.55-0.21,7.86,3.21,9.39c3.41,1.53,1.37-7.1,1.75-8.83
			c0.38-1.73,2.47-6.66,2.47-6.66L120.01,166.38z"/>
		<path class="st6" d="M124.52,168.77c0.54-1.36,1.02-2.49,1.02-2.49l-5.53,0.11c0,0-0.21,0.91-0.52,2.05
			C121.32,169.72,123.1,169.62,124.52,168.77z"/>
		<path class="st3" d="M123.33,154.33c0,0-2.2,0.2-3.79,2.04c-1.59,1.84-3.28,7.65,0.7,10.99c3.98,3.34,7.88-0.12,8.44-3.94
			S129.11,154.41,123.33,154.33z"/>
		<path class="st3" d="M129.84,162.37c-0.49,0.87-1.3,1.35-1.81,1.06c-0.51-0.29-0.52-1.23-0.03-2.1c0.49-0.87,1.3-1.35,1.81-1.06
			C130.32,160.55,130.33,161.49,129.84,162.37z"/>
		<path class="st3" d="M118.77,161.67c0.18,1.03-0.23,1.97-0.93,2.1c-0.7,0.12-1.41-0.61-1.6-1.65c-0.18-1.03,0.23-1.97,0.93-2.1
			C117.87,159.9,118.59,160.64,118.77,161.67z"/>
		<g>
			<ellipse class="st14" cx="142.77" cy="111.53" rx="29.01" ry="18.69"/>
			<ellipse class="st4" cx="137.66" cy="110.66" rx="14.76" ry="11.5"/>
		</g>
		<path class="st3" d="M136.51,128.96c-0.54,0.79,2.39,3.31,3.2,4.7l1.84-2.5C140.64,130.98,137.13,128.06,136.51,128.96z"/>
	</g>
	<g>
		<g>
			<path class="st7" d="M235.36,163.19c1.89-1.51,2.75-4.85,2.85-6.91c0.13-2.69-0.66-5.48-2.23-7.85c-1.56-2.36-3.81-4.17-6.31-5.1
				c-1.93-0.72-4.16-0.97-6.19-0.39c-0.91,0.26-2.11,0.67-2.59,1.51c-0.55,0.97-0.38,2.25,0.22,3.16c0.93,1.4,2.71,1.85,3.99,1.01
				c0,0,0.01,0,0.01-0.01l6.42,9.81c-0.01,0-0.01,0.01-0.02,0.01c-1.27,0.84-1.55,2.66-0.62,4.07c0.69,1.03,2.03,1.71,3.27,1.34
				C234.6,163.71,235,163.49,235.36,163.19z"/>
			<path class="st14" d="M231.28,162.25c-0.78-1.18-0.56-2.72,0.49-3.42c0.01,0,0.01-0.01,0.02-0.01c0.1-0.07,0.18-0.17,0.2-0.29
				c0.03-0.12,0-0.25-0.07-0.35c0,0-6.42-9.81-6.42-9.81c-0.07-0.11-0.18-0.18-0.3-0.2c-0.12-0.02-0.25,0.01-0.36,0.08
				c-1.06,0.7-2.55,0.3-3.34-0.88c-0.54-0.82-0.63-1.92-0.2-2.67c0.39-0.68,1.44-1.05,2.31-1.3c1.78-0.51,3.88-0.37,5.9,0.38
				c2.42,0.9,4.58,2.64,6.09,4.92c1.52,2.29,2.28,4.98,2.15,7.57c-0.09,1.85-0.88,5.13-2.68,6.57c-0.33,0.27-0.68,0.46-1.05,0.57
				C232.94,163.72,231.82,163.06,231.28,162.25L231.28,162.25z"/>
		</g>
		<path class="st14" d="M219.87,163.8c-2.61-1.4-4.05-3.57-4.32-6.52c3.49-3.25,7.4-5.84,11.75-7.78c2.61,1.4,4.05,3.57,4.32,6.52
			C228.14,159.26,224.22,161.86,219.87,163.8z"/>
		<path class="st7" d="M228.34,151.42c0,0-3.29-5.81-3.56-5.67C223.82,146.24,228.34,151.42,228.34,151.42z"/>
		<path class="st7" d="M228.72,151.39c0,0-1.3-6.55-1.6-6.51C226.07,145.04,228.72,151.39,228.72,151.39z"/>
		<path class="st7" d="M229.17,151.52c0,0,1.19-6.57,0.9-6.64C229.02,144.64,229.17,151.52,229.17,151.52z"/>
		<path class="st7" d="M229.59,151.89c0,0,4.09-5.28,3.86-5.48C232.63,145.72,229.59,151.89,229.59,151.89z"/>
		<path class="st7" d="M229.76,152.28c0,0,5.55-3.71,5.39-3.97C234.6,147.39,229.76,152.28,229.76,152.28z"/>
		<path class="st7" d="M230.04,153.9c0,0,4.64,4.8,4.43,5.02C233.73,159.71,230.04,153.9,230.04,153.9z"/>
		<path class="st7" d="M230.18,153.46c0,0,6.07,2.77,5.96,3.05C235.74,157.51,230.18,153.46,230.18,153.46z"/>
		<path class="st7" d="M230.12,152.9c0,0,6.67-0.34,6.7-0.04C236.92,153.93,230.12,152.9,230.12,152.9z"/>
		<path class="st7" d="M229.9,152.54c0,0,6.22-2.44,6.34-2.16C236.67,151.36,229.9,152.54,229.9,152.54z"/>
	</g>
	<g>
		<g>
			<path class="st7" d="M503.92,269.1c3.03-1.04,5.61-4.81,6.66-7.35c1.37-3.29,1.64-7.13,0.74-10.8c-0.89-3.64-2.88-6.91-5.59-9.2
				c-2.09-1.76-4.76-3.07-7.56-3.26c-1.25-0.08-2.93-0.11-3.91,0.73c-1.12,0.96-1.48,2.64-1.14,4.04c0.53,2.17,2.55,3.53,4.52,3.05
				c0,0,0.01,0,0.01,0l3.62,15.12c-0.01,0-0.02,0-0.03,0.01c-1.97,0.48-3.13,2.63-2.6,4.79c0.39,1.6,1.77,3.05,3.48,3.14
				C502.73,269.39,503.33,269.3,503.92,269.1z"/>
			<path class="st14" d="M499.24,266.08c-0.45-1.83,0.51-3.64,2.14-4.05c0.01,0,0.02,0,0.03-0.01c0.16-0.04,0.3-0.14,0.38-0.28
				c0.09-0.14,0.11-0.31,0.07-0.47c0,0-3.62-15.12-3.62-15.12c-0.04-0.16-0.14-0.3-0.29-0.39c-0.15-0.08-0.32-0.11-0.48-0.06
				c-1.63,0.39-3.32-0.77-3.77-2.6c-0.31-1.27,0.08-2.68,0.94-3.42c0.78-0.67,2.26-0.66,3.46-0.58c2.45,0.16,5.01,1.27,7.2,3.12
				c2.62,2.2,4.53,5.35,5.39,8.87c0.87,3.54,0.62,7.24-0.71,10.41c-0.95,2.27-3.4,6.01-6.29,7c-0.53,0.18-1.06,0.26-1.57,0.23
				C500.65,268.67,499.55,267.34,499.24,266.08L499.24,266.08z"/>
		</g>
		<path class="st14" d="M484.31,262.91c-1.17-1.29-1.99-2.68-2.44-4.15c-0.96-3.09,0.79-6.37,3.84-7.42
			c4.61-1.6,9.38-2.58,14.29-2.95c2.64,2.91,3.46,6.27,2.47,10.07C496.67,260.95,490.61,262.44,484.31,262.91z"/>
		<path class="st7" d="M500.43,251.26c0,0-1.5-8.73-1.9-8.68C497.11,242.76,500.43,251.26,500.43,251.26z"/>
		<path class="st7" d="M500.92,251.39c0,0,1.32-8.76,0.92-8.83C500.45,242.28,500.92,251.39,500.92,251.39z"/>
		<path class="st7" d="M501.42,251.75c0,0,4.43-7.67,4.09-7.88C504.32,243.1,501.42,251.75,501.42,251.75z"/>
		<path class="st7" d="M501.78,252.4c0,0,7.47-4.76,7.27-5.1C508.34,246.07,501.78,252.4,501.78,252.4z"/>
		<path class="st7" d="M501.82,252.96c0,0,8.59-2.15,8.51-2.54C510.05,249.03,501.82,252.96,501.82,252.96z"/>
		<path class="st7" d="M501.43,255.11c0,0,3.63,8.08,3.28,8.26C503.44,264.01,501.43,255.11,501.43,255.11z"/>
		<path class="st7" d="M501.82,254.63c0,0,6.34,6.18,6.07,6.49C506.94,262.17,501.82,254.63,501.82,254.63z"/>
		<path class="st7" d="M501.98,253.9c0,0,8.48,2.56,8.38,2.95C510.01,258.23,501.98,253.9,501.98,253.9z"/>
		<path class="st7" d="M501.87,253.35c0,0,8.85-0.25,8.88,0.15C510.86,254.91,501.87,253.35,501.87,253.35z"/>
	</g>
	<g>
		<g>
			<path class="st7" d="M419.76,165.76c-3.55-1.88-9.77-1.49-13.09-0.37c-4.38,1.35-7.9,4.17-9.76,7.39
				c-1.87,3.22-2.06,6.57-1.07,9.35c0.77,2.15,2.26,4.14,4.25,5.48c0.9,0.6,2.09,1.38,3.22,1.28c1.3-0.11,2.49-1.02,3.12-2.1
				c0.97-1.67,0.53-3.68-1.27-4.4c0,0-0.01,0-0.01,0c2.46-3.97,5.54-7.74,9.22-11.15c0.01,0.01,0.02,0.01,0.03,0.02
				c1.98,1.04,4.77,0.89,6.52-0.37c1.28-0.93,1.78-2.54,0.54-3.89C421.02,166.52,420.44,166.11,419.76,165.76z"/>
			<path class="st14" d="M420.34,170.5c-1.47,1.08-3.84,1.23-5.49,0.36c-0.01-0.01-0.02-0.01-0.03-0.02
				c-0.16-0.09-0.36-0.13-0.56-0.11c-0.2,0.02-0.37,0.09-0.49,0.2c0-0.01-2.78,2.59-5.03,5.43c-2.34,2.8-4.13,5.85-4.13,5.83
				c-0.08,0.13-0.09,0.28-0.04,0.41c0.05,0.13,0.17,0.23,0.32,0.29c1.48,0.59,1.86,2.28,1.05,3.69c-0.57,0.99-1.63,1.72-2.64,1.8
				c-0.91,0.08-1.97-0.61-2.83-1.2c-1.74-1.2-3.22-3.01-4-5.28c-0.93-2.68-0.71-5.92,1.12-9c1.82-3.09,5.21-5.77,9.4-7.05
				c2.95-1,8.97-1.47,12.34,0.3c0.62,0.31,1.12,0.67,1.49,1.06C421.89,168.39,421.35,169.75,420.34,170.5L420.34,170.5z"/>
		</g>
		<path class="st14" d="M422.86,180.9c-1.41,2.95-3.65,4.72-6.55,5.86c-3.66-2.53-7.54-4.87-11.76-7.12
			c0.29-3.07,2.16-5.86,5.86-7.77C416.12,173.19,420.37,176.54,422.86,180.9z"/>
		<path class="st7" d="M406.54,177.68c-0.19-0.07-4.92,6.62-4.4,6.83C403.13,185.02,406.38,177.65,406.54,177.68z"/>
		<path class="st7" d="M406.25,177.33c-0.19-0.16-7.19,5.35-6.72,5.71C400.27,183.73,406.03,177.22,406.25,177.33z"/>
		<path class="st7" d="M406.12,176.83c0,0-2.36,0.63-4.58,1.55c-2.24,0.88-4.34,2.04-4.26,2.18c0.28,0.53,2.33-0.6,4.48-1.65
			C403.9,177.82,406.12,176.83,406.12,176.83z"/>
		<path class="st7" d="M406.34,176.21c0,0-2.42-0.27-4.9-0.21c-2.48,0.01-5.01,0.35-5.03,0.53c-0.09,0.62,2.39,0.27,4.89,0.06
			C403.8,176.32,406.34,176.21,406.34,176.21z"/>
		<path class="st7" d="M406.74,175.83c0,0.01-2.14-0.86-4.45-1.45c-2.29-0.62-4.75-0.97-4.85-0.8c-0.38,0.6,2.05,0.91,4.46,1.34
			C404.33,175.31,406.74,175.83,406.74,175.83z"/>
		<path class="st7" d="M408.76,174.7c-0.14-0.04,4.02-6.93,4.63-6.74C414.9,168.38,408.57,174.6,408.76,174.7z"/>
		<path class="st7" d="M408.07,174.78c-0.01,0-0.07-7.44,0.47-7.47C410.3,167.21,407.98,174.77,408.07,174.78z"/>
		<path class="st7" d="M407.35,175.14c0.14-0.07-5.13-6.18-4.84-6.34C404.12,167.96,407.44,175.12,407.35,175.14z"/>
		<path class="st7" d="M407,175.55c0.17-0.17-7.74-4.35-7.61-4.49C400.59,169.81,407.18,175.44,407,175.55z"/>
	</g>
	<path class="st7" d="M420.91,77.43c0,1.76-1.23,3.18-2.74,3.18c-1.51,0-2.74-1.43-2.74-3.18s2.7-7.65,2.7-7.65
		S420.91,75.67,420.91,77.43z"/>
	<path class="st7" d="M418.64,99.78c0,1.19-0.83,2.16-1.86,2.16c-1.03,0-1.86-0.97-1.86-2.16c0-1.19,1.83-5.19,1.83-5.19
		S418.64,98.59,418.64,99.78z"/>
	<g>
		<path class="st17" d="M390.59,51.51L357.3,74.59c-1.37,0.95-3.22,0.83-4.45-0.31c-0.02-0.02-0.03-0.03-0.05-0.05
			c-1.41-1.32-2.98-3.2-4.44-5.3c-1.45-2.1-2.66-4.24-3.39-6.02c-0.01-0.03-0.02-0.05-0.03-0.07c-0.63-1.54-0.1-3.32,1.27-4.27
			l33.3-23.09c2.05-1.42,4.87-0.91,6.29,1.15l0,0c0.37,0.53,1.12,0.61,1.59,0.18l6.44-5.93l6.1,8.83l-7.81,3.95
			c-0.57,0.29-0.76,1.02-0.39,1.55c0,0.01,0,0.01,0,0C393.16,47.26,392.64,50.09,390.59,51.51z"/>
		<path class="st17" d="M396.89,35.29c-1.84-2.67-2.52-4.56-2.52-5.16c0.56,0.22,2.09,1.52,3.93,4.18c1.84,2.67,2.52,4.56,2.52,5.16
			C400.26,39.26,398.73,37.96,396.89,35.29z"/>
		<g>
			<path class="st7" d="M391.74,45.21L391.74,45.21C391.74,45.21,391.74,45.21,391.74,45.21z"/>
			<path class="st7" d="M391.74,45.21C391.74,45.21,391.74,45.21,391.74,45.21c-0.37-0.53-0.18-1.26,0.39-1.55l7.81-3.95l-0.83-1.21
				c-3.56,0.59-9.28,3.71-9.32,5.66c-0.05,2.21-1.49,7.61-9.51,7.37c-7.5-0.23-19.37-1.88-20.88-2.09l-13.17,9.13
				c-1.37,0.95-1.9,2.72-1.27,4.27c0.01,0.02,0.02,0.05,0.03,0.07c0.73,1.78,1.94,3.92,3.39,6.02c1.45,2.1,3.03,3.98,4.44,5.3
				c0.02,0.02,0.03,0.03,0.05,0.05c1.22,1.14,3.08,1.26,4.45,0.31l33.29-23.08C392.64,50.09,393.16,47.26,391.74,45.21z"/>
		</g>
		<g>
			<path class="st25" d="M380.86,58.8c0.03-0.02,0.06-0.06,0.08-0.1l-0.2,0.14C380.79,58.84,380.83,58.83,380.86,58.8z"/>
			<path class="st25" d="M369.27,42.03c-0.04,0.03-0.07,0.07-0.09,0.12l0.22-0.16C369.36,41.99,369.31,42,369.27,42.03z"/>
			<path class="st26" d="M361.39,68.36c-0.72,0.5-3.28-1.97-5.72-5.51c-2.44-3.54-3.85-6.81-3.13-7.3c0.72-0.5,3.28,1.97,5.72,5.51
				S362.11,67.87,361.39,68.36z"/>
			<path class="st14" d="M379.39,46.7c-2.58-3.74-4.56-6.85-4.42-6.95l-23.28,16.14c-0.72,0.5,0.8,3.93,3.38,7.67
				c2.58,3.74,5.26,6.37,5.98,5.87l23.28-16.14C384.18,53.39,381.97,50.44,379.39,46.7z"/>
			<path class="st2" d="M398.75,34.01c-1.98-2.87-4.16-4.8-4.86-4.31c-0.7,0.49,0.34,3.2,2.32,6.07c1.98,2.87,4.16,4.8,4.86,4.31
				C401.77,39.59,400.73,36.87,398.75,34.01z M396.89,35.29c-1.84-2.67-2.52-4.56-2.52-5.16c0.56,0.22,2.09,1.52,3.93,4.18
				c1.84,2.67,2.52,4.56,2.52,5.16C400.26,39.26,398.73,37.96,396.89,35.29z"/>
			<path class="st2" d="M392.21,31.16c-0.04,0.1,0.23,5.15,5.59,9.5c0.35,0.28,0.81,0.36,1.24,0.23c0.76-0.25,1.92-0.65,2.11-0.87
				c0.3-0.34-1.09-0.54-1.09-0.54l-2.04-2.08l-2.5-3.8l-1.35-2.94l-0.2-1.02C393.97,29.63,392.72,29.84,392.21,31.16z"/>
		</g>
		<path class="st7" d="M409.43,52.73c-2.59-5.76-5.8-14.12-9-14.32c-0.22-0.01-0.46-0.01-0.72,0.01l0.83,1.44
			c0.92,1.89,1.63,3.09,2.7,6.27c1.06,3.18,1.35,6.54,1.02,9.87c-0.09,0.9,0.04,1.87,0.66,2.69
			C406.67,61.07,412.02,58.5,409.43,52.73z"/>
	</g>
	<g>
		<path class="st2" d="M196,237.7c-4.38,8.39,1.21,17.86,1.22,17.94c2.1,3.72,5.5,6.94,10.39,9.13c1.41,0.62,2.85,1.1,4.37,1.41
			l0.61-2.83c-1.26,0.1-4.96-0.77-7.71-2.54c-2.4-1.47-4.49-3.55-5.91-6.07c-2.57-4.39-3.44-10.73-1.01-15.47
			C197.37,238.64,196.69,238.1,196,237.7z"/>
		<path class="st21" d="M317.14,261.52c0-13.49-14.14-24.43-31.58-24.43c-12.69,0-23.62,5.79-28.64,14.14
			c-26.06,1.13-46.18,8.43-46.18,17.28c0,4.13,4.1,7.03,7.32,8.83c5.95,3.32,12.8,5.06,19.45,6.31c8.27,1.56,16.65,2.56,25.04,3.13
			c8.06,0.54,16.3,0.97,24.37,0.29c6.44-0.54,12.82-2.09,18.47-5.3c4.69-2.67,8.52-6.67,10.37-11.8
			C316.73,267.26,317.14,264.38,317.14,261.52z"/>
		<path class="st13" d="M224.6,262.95c0,0,35.9-2.97,39.34-4.18s2.57-9.14,15.98-11.88c13.4-2.74,21.55,1.73,23.17,8.79
			c1.62,7.06-7.89,12.83-11.35,8.07c-3.46-4.76-4.47-10.2-12.25-9.21c-7.78,0.99-13.69,7.71-13.69,7.71L224.6,262.95z"/>
		<path class="st17" d="M226.87,261.78l-2.4,1.24c-0.32,0.17-0.38,0.6-0.11,0.84l1.8,1.6c0.3,0.26,0.19,0.75-0.18,0.87l-2.31,0.75
			c-0.41,0.13-0.48,0.67-0.13,0.91l3.17,2.19l0.13,0.09l-3.86,2.19c-0.31,0.18-0.35,0.61-0.08,0.84l2.45,2.06
			c0.29,0.24,0.23,0.71-0.12,0.86l-3.37,1.53c-0.22,0.1-0.34,0.34-0.29,0.57l0.37,1.81c0.07,0.35-0.23,0.67-0.58,0.61
			c-11.3-1.83-13.81-10.54-13.96-11.11c-0.01-0.02-0.01-0.04-0.01-0.06c-0.2-1.23-0.23-2.38-0.13-3.41
			c0.96-9.76,13.89-11.34,18.77-11.59c0.53-0.03,0.75,0.66,0.3,0.95l-0.52,0.33c-0.37,0.24-0.29,0.79,0.12,0.92l0,0
			c0.39,0.12,0.49,0.63,0.17,0.89l-1.13,0.94c-0.26,0.21-0.25,0.61,0.02,0.81l1.96,1.48C227.25,261.14,227.21,261.6,226.87,261.78z"
			/>
	</g>
	<g>
		<g>
			<g>
				<path class="st6" d="M353.95,292.74c0.54,0.55,0.4,0.24,0.91,0.78c-12.64,7.33-19.79,10.08-22.22,6.07
					c-1.52-0.74,1.57-5.62,3.37-6.74C340.92,289.76,350.07,292.14,353.95,292.74z"/>
				<g>
					<path class="st6" d="M341.51,260.98c1.71,6.06,2.04,9.25-1.09,14.64c0.06,0.02,0.12,0.03,0.18,0.04
						c1.49,0.37,2.98,0.46,4.52,0.18c0.4-0.08,1.96,0.04,2.73-0.07c0,0,0,0.01,0.01,0c0.18-0.02,0.32-0.06,0.39-0.11
						c4.29-3.64,4.79-7.91,4.44-13.53C352.72,261.12,346.2,258.97,341.51,260.98z"/>
					<path class="st6" d="M341.72,260.91c-3.21-1.52-8.46,1.33-10.97,2.86c3.24,3.72,3.75,7.11,2.64,11.94
						c1.4,0.28,6.19,1.01,7.21-0.05c0.03-0.03,0.06-0.06,0.08-0.1c3.27-3.89,3.76-7.37,3.33-9.95
						C343.59,262.98,342.06,261,341.72,260.91z"/>
					<path class="st6" d="M360.23,265.75c-2.95-4.45-7.73-3.85-7.81-3.73c-0.05,0-0.09,0-0.13,0.01c0.47,7.53-1.22,9.82-4.79,13.55
						c0.11,0.06,0.23,0.13,0.35,0.19c0,0,0,0.01,0.01,0c1.11,0.58,3.58,1.4,4.68,0.86c2.24-1.05,3.78-2.25,4.93-3.73
						c1.32-1.7,3.15-5.91,2.92-6.79C360.37,266,360.32,265.88,360.23,265.75z"/>
					<path class="st6" d="M367.49,281.96c-0.54,8.39-6.77,9.43-12.13,11.46c-0.39,0.15-0.78,0.21-1.13,0.19
						c-0.77-0.05-1.3-0.5-0.95-1.33c1.07-2.56,2.8-5.33,2.81-9.11c0.01-0.01,0-0.02,0-0.02
						C360.08,284.52,363.51,283.55,367.49,281.96z"/>
					<path class="st6" d="M360.41,266.1c0,0.01-0.01,0.01,0,0.02c-2.24,6.37-2.63,6.7-8.45,10.13c0.39,1.17,2.39,4.49,3.5,4.25
						c1.41-0.37,2.73-0.79,3.98-1.32c3.71-1.58,6.1-4.16,6.24-4.55l0.01,0C366.03,273.76,364.08,268.59,360.41,266.1z"/>
					<path class="st6" d="M365.68,274.63L365.68,274.63c-4.31,4.13-4.29,3.36-10.1,5.25c-0.21,0.07-0.33,0.3-0.38,0.63
						c-0.14,0.93,0.32,2.55,1.14,2.8c4.63,1.58,9.92,0.99,11.07-0.59C368.86,280.78,367.45,276.37,365.68,274.63z"/>
					<path class="st8" d="M354.3,292.87c-4.48-0.56-12.28-2.13-16.79-0.09c-0.74,0.33-1.82,0.97-2.55,1.38
						c-1.91-1.06,0.19-6.14,7.96-5.32C345.86,289.16,351.64,291.91,354.3,292.87z"/>
					<path class="st8" d="M317.74,281.53c-4.21,2.9-5.84,4.9-12.61,4.89c9.7-1.63,8.43-5.72,11.99-4.94
						C317.29,281.52,317.47,281.51,317.74,281.53z"/>
					<path class="st8" d="M312.38,288.5c2.81-1.31,5.33-2.4,7.42-5.87c0.9-1.49,1.55-1.15,2.72-1.27
						C320.18,285.06,316.85,287.6,312.38,288.5z"/>
					<path class="st8" d="M343.13,281.58c0.59-1.78,2.95-4.44,4.56-5.61c0.26,0.17,1.16,0.75,1.45,0.93
						C347.27,277.75,344.29,280.07,343.13,281.58z"/>
					<path class="st8" d="M342.15,276.21c-0.77,1.69-1.88,4.78-1.64,6.47c-0.81-0.94-0.12-5.04,0.53-6.79
						C341.31,275.94,341.86,276.15,342.15,276.21z"/>
					<path class="st8" d="M345.22,275.69c-1.13,1.35-3.38,5.02-3.77,6.61c-0.37-1.12,0.32-2.76,0.85-3.88
						C343.32,275.78,344.34,275.55,345.22,275.69z"/>
					<path class="st8" d="M361.65,282.27c-1.97-1.17-2.2-2.59-1.44-3.9l0.01,0c0.27-0.47,0.6-0.77,0.6-0.77
						c-4.26-1.18-0.14-4.71-3.74-5.07c-3.1-0.22-4.15-7.78-4.45-10.57c0-0.05,0-0.07,0-0.07s0,0.02-0.02,0.08
						c-0.02,0.08-0.07,0.23-0.14,0.41c-0.47,1.35-2.02,5.08-4.96,5.7c-1.51,0.32-3.02-0.86-4.27-2.35c-1.67-2.01-2.94-4.7-2.95-4.72
						c-0.47,4.92-4.51,8.34-7.72,10.3l-0.16,5.65c0.92,2.05,5.29,2.29,6.85,1.41c3.06,0.52,4.35-0.06,6.01-0.09
						c0.62-0.02,1.48,0.08,2.19,0c1.29,0.53,1.82-0.15,3.28-0.27c0.61,1.08,2.8,2.16,4.02,2.64c-0.02,0.86,0.32,1.91,1.01,2.48
						c0,3.58-1.67,6.1-2.88,8.97c-0.4,0.84,0.17,1.28,1.02,1.31C357.45,291.07,364.93,284.21,361.65,282.27z"/>
					<path class="st6" d="M334.78,276.41c-11.11,12.1-45.54,1.87-45.77,1.74c0.44-0.28,19.18-9.08,21.04-9.59
						c0.88,4.89,8.55,1.86,6.2-2.08c4.83-1.36,9.28-2.56,15.2-3.08c0.2-0.02,0.46,0.07,0.58,0.19
						C336.65,268.94,336.05,275.32,334.78,276.41z"/>
				</g>
				<path class="st2" d="M317.24,268.23c0.45,2.45-1.02,4.83-3.28,5.31c-2.26,0.48-4.45-1.11-4.89-3.56
					c-0.45-2.45,1.02-4.83,3.28-5.31S316.79,265.78,317.24,268.23z"/>
			</g>
		</g>
		<path class="st6" d="M278.92,278.18c4.43-4.38,11.25-9.4,16.87-7.06c3.32,1.35,5.27,5.29,5.26,5.27c0.29,0.52,0.92,0.69,1.4,0.37
			c0.49-0.32,0.65-1.03,0.31-1.57c-2.63-4.15-5.96-6.76-10.62-6.27c-6.07,0.65-12.6,6.78-16.42,11.85
			c-0.24,0.32,0.19,0.72,0.45,0.42C276.15,281.18,277.94,279.15,278.92,278.18z"/>
	</g>
	<g>
		<path class="st17" d="M498.69,169.99l0.13,0.14c0.28,0.3,0.37,0.75,0.23,1.14c0,0-0.01,0.01,0,0.01c-0.13,0.34-0.1,0.72,0.1,1.02
			l0.1,0.16c0.2,0.3,0.53,0.49,0.89,0.52c0.01-0.01,0.01,0,0.02-0.01c0.41,0.03,0.78,0.3,0.94,0.69l0.08,0.18
			c0.17,0.38,0.11,0.83-0.17,1.15l-0.01,0.01c-0.23,0.28-0.33,0.65-0.25,1l0.05,0.18c0.08,0.35,0.32,0.65,0.65,0.79
			c0.01,0,0.01,0,0.02,0.01c0.39,0.17,0.63,0.55,0.65,0.97l0.01,0.19c0.02,0.42-0.19,0.81-0.55,1.02c-0.01,0.01-0.01,0.01-0.01,0.01
			c-0.31,0.17-0.53,0.49-0.58,0.85l-0.02,0.18c-0.04,0.36,0.09,0.72,0.35,0.97c0.01,0.01,0.01,0.01,0.01,0.01
			c0.29,0.29,0.4,0.74,0.27,1.13l-0.05,0.18c-0.12,0.4-0.46,0.71-0.87,0.78c-0.01,0.01-0.01,0.01-0.02,0.01
			c-0.36,0.06-0.67,0.28-0.83,0.6l-0.09,0.17c-0.16,0.32-0.16,0.7,0,1.02c0,0.01,0,0.01,0.01,0.02c0.18,0.38,0.13,0.83-0.13,1.16
			l-0.11,0.15c-0.25,0.33-0.67,0.51-1.08,0.43l-0.01,0c-0.36-0.07-0.72,0.03-0.99,0.27l-0.14,0.14c-0.27,0.25-0.4,0.6-0.36,0.97
			l0,0.01c0.05,0.42-0.16,0.82-0.52,1.05l-0.15,0.1c-0.35,0.22-0.81,0.24-1.17,0.03c-0.01-0.01-0.01-0.01-0.01-0.01
			c-0.31-0.18-0.7-0.21-1.03-0.07l-0.17,0.07c-0.34,0.14-0.58,0.43-0.67,0.79l0,0.01c-0.1,0.41-0.43,0.71-0.84,0.81l-0.19,0.04
			c-0.41,0.1-0.84-0.04-1.1-0.37c-0.01-0.01-0.01-0.01-0.01-0.01c-0.23-0.27-0.58-0.43-0.94-0.42l-0.19,0.01
			c-0.36,0.02-0.69,0.21-0.89,0.52l-0.01,0.01c-0.24,0.35-0.66,0.53-1.07,0.47l-0.18-0.02c-0.42-0.05-0.78-0.33-0.92-0.73
			l-0.01-0.01c-0.12-0.34-0.39-0.62-0.74-0.72l-0.18-0.06c-0.34-0.11-0.72-0.04-1.01,0.17c-0.01,0.01-0.01,0.01-0.01,0.01
			c-0.34,0.25-0.8,0.27-1.16,0.08l-0.17-0.08c-0.37-0.19-0.62-0.57-0.61-1c0,0,0,0,0-0.01c0-0.35-0.16-0.7-0.45-0.92l-0.15-0.11
			c-0.29-0.22-0.67-0.29-1.01-0.19c-0.01,0.01-0.01,0.01-0.01,0.01c-0.4,0.11-0.84-0.02-1.12-0.32l-0.13-0.14
			c-0.14-0.16-0.24-0.35-0.28-0.55l1.59-1.43L496.15,172l2.39-2.14C498.6,169.9,498.65,169.95,498.69,169.99z"/>
		<path class="st18" d="M496.15,172c3.38,3.77,2.98,9.64-0.89,13.1c-3.86,3.45-9.72,3.21-13.1-0.55L496.15,172z"/>
		<path class="st7" d="M486.04,185.4c-0.28,0.43-0.85,0.55-1.28,0.27c-0.43-0.28-0.55-0.85-0.27-1.28c0.28-0.43,1.7-1.68,2.12-1.4
			C487.04,183.28,486.31,184.98,486.04,185.4z"/>
		<path class="st7" d="M490.38,185.02c0.16,0.48-0.1,1.01-0.58,1.17c-0.48,0.16-1.01-0.1-1.17-0.58c-0.16-0.48-0.25-2.37,0.23-2.53
			C489.34,182.91,490.22,184.53,490.38,185.02z"/>
		<path class="st7" d="M494.14,182.51c0.42,0.29,0.52,0.87,0.23,1.29c-0.29,0.42-0.87,0.52-1.29,0.23
			c-0.42-0.29-1.61-1.76-1.32-2.18C492.05,181.43,493.72,182.22,494.14,182.51z"/>
		<path class="st7" d="M495.7,178.35c0.5,0.1,0.83,0.58,0.73,1.09c-0.1,0.5-0.58,0.83-1.09,0.73c-0.5-0.1-2.19-0.95-2.09-1.45
			S495.19,178.25,495.7,178.35z"/>
		<path class="st7" d="M495.23,174.24c0.48-0.16,1.01,0.1,1.17,0.58c0.16,0.48-0.09,1.01-0.58,1.17c-0.48,0.16-2.37,0.26-2.53-0.22
			C493.13,175.29,494.75,174.41,495.23,174.24z"/>
	</g>
	<path class="st2" d="M501.16,259.85c1.27,5.44-4.63,11.46-13.18,13.46c-8.55,1.99-16.51-0.8-17.78-6.23
		c-1.27-5.44,4.63-11.46,13.18-13.46C491.94,251.62,499.89,254.41,501.16,259.85z"/>
	<path class="st20" d="M381.64,55.65c-0.4-0.32-1.02-0.7-1.2-1.12c-0.18-0.42,2.49,0.24,2.34-0.17c-0.15-0.42-1.5-0.97-2-0.97
		c-0.5,0-2.77-0.06-2.77-0.06l-6.33-1.72c0,0-12.92-3.55-13.72-3.79l-10.96-10.03l-5.33,4.08c0,0,11.94,11.07,12.76,11.49
		c0.69,0.35,22.09,2.93,22.09,2.93s2.28,2.41,3.6,2.55c1.32,0.14,3.64-2.57,3.64-2.57S382.04,55.97,381.64,55.65z"/>
	<path class="st27" d="M346.8,34.47c-1.14-1.58-2.77-2.78-4.85-2.19c-1.29,0.37-2.32,1.44-2.74,2.7c-0.5,1.5-0.07,3.86,0.74,5.14
		c1.85,2.9,4.24,5.39,6.58,7.92c2.5-1.87,5.7-4.43,6.3-6.4C352.83,41.62,348.31,36.56,346.8,34.47z"/>
	<path class="st20" d="M388.97,53.69c0,0-0.27-1.64-0.05-2.14c0.23-0.51,0.34-0.23,0.4-0.03c0.06,0.2,0.16,0.91,0.16,0.91
		s-0.18-1.33-0.04-1.73c0.13-0.4,0.48-0.45,0.62-0.33c0.13,0.13,0.38,1.35,0.38,1.35s-0.49-1.91-0.18-2.17
		c0.31-0.27,1.41,1.51,1.17,2.39C391.2,52.82,388.97,53.69,388.97,53.69z"/>
	<g>
		<path class="st17" d="M514.37,144.97c-3.35,3.75-9.78,3.17-15.05-0.35c-5.25-3.57-8.2-9.3-5.98-13.82
			c2.19-4.49,9.77-5.63,16.17-1.3C515.92,133.8,517.71,141.25,514.37,144.97z"/>
		<path class="st18" d="M513.15,143.47c-2.63,3.4-8.14,3.17-12.77,0.23c-4.61-2.98-7.24-7.93-5.47-11.83
			c1.75-3.88,8-4.95,13.48-1.49C513.88,133.84,515.77,140.09,513.15,143.47z"/>
		<g>
			<path class="st28" d="M498.84,140.36c-0.44,0.14-1.01-0.1-1.29-0.53c-0.28-0.43-0.15-0.89,0.29-1.04c0.44-0.15,2.3-0.2,2.58,0.25
				C500.69,139.49,499.28,140.22,498.84,140.36z"/>
			<path class="st28" d="M503.05,143.04c-0.09,0.42-0.56,0.61-1.06,0.42c-0.5-0.19-0.84-0.68-0.76-1.1
				c0.08-0.42,0.86-1.75,1.37-1.56C503.12,140.98,503.14,142.62,503.05,143.04z"/>
			<path class="st28" d="M507.52,143.86c0.21,0.48,0.01,0.92-0.44,0.98c-0.46,0.07-0.99-0.25-1.21-0.72
				c-0.21-0.47-0.55-2.22-0.1-2.3C506.23,141.74,507.31,143.38,507.52,143.86z"/>
			<path class="st28" d="M511.1,142.23c0.39,0.43,0.42,0.98,0.08,1.22c-0.34,0.24-0.92,0.1-1.3-0.32c-0.37-0.42-1.44-2.15-1.11-2.41
				C509.1,140.45,510.72,141.79,511.1,142.23z"/>
			<path class="st28" d="M512.3,138.4c0.53,0.2,0.93,0.74,0.89,1.2c-0.04,0.46-0.5,0.66-1.02,0.45c-0.52-0.21-2.35-1.35-2.33-1.8
				C509.86,137.79,511.77,138.19,512.3,138.4z"/>
			<path class="st28" d="M496.43,134.27c-0.54-0.07-0.93,0.25-0.87,0.69c0.06,0.44,0.54,0.85,1.07,0.92
				c0.53,0.06,2.39-0.1,2.35-0.55C498.93,134.87,496.97,134.32,496.43,134.27z"/>
			<path class="st28" d="M498.5,131.45c-0.43-0.38-1.07-0.48-1.42-0.22c-0.36,0.26-0.3,0.77,0.13,1.14
				c0.43,0.36,2.27,1.47,2.62,1.23C500.19,133.36,498.93,131.83,498.5,131.45z"/>
			<path class="st28" d="M502.61,130.26c-0.12-0.47-0.68-0.88-1.23-0.92c-0.55-0.04-0.89,0.31-0.76,0.77
				c0.14,0.46,1.12,2.14,1.65,2.19C502.81,132.36,502.74,130.73,502.61,130.26z"/>
			<path class="st28" d="M507.49,131.82c0.13-0.4-0.21-0.95-0.76-1.21c-0.55-0.26-1.1-0.13-1.22,0.27c-0.12,0.41-0.01,2.1,0.52,2.36
				C506.57,133.5,507.36,132.23,507.49,131.82z"/>
			<path class="st28" d="M511.28,134.97c0.39-0.2,0.4-0.73,0.01-1.19c-0.39-0.46-1.03-0.65-1.41-0.45c-0.39,0.21-1.36,1.4-0.98,1.84
				C509.28,135.61,510.89,135.17,511.28,134.97z"/>
		</g>
	</g>
</g>
</svg>
