<?xml version="1.0" encoding="utf-8"?>
<!-- Generator: Adobe Illustrator 23.0.5, SVG Export Plug-In . SVG Version: 6.00 Build 0)  -->
<svg version="1.0" id="Layer_1" xmlns="http://www.w3.org/2000/svg" xmlns:xlink="http://www.w3.org/1999/xlink" x="0px" y="0px"
	 viewBox="0 0 624 320" style="enable-background:new 0 0 624 320;" xml:space="preserve">
<style type="text/css">
	.st0{opacity:0.3;fill:#35B24A;}
	.st1{fill:#D1A454;}
	.st2{fill:#BBDEFB;}
	.st3{fill:#A5D1EF;}
	.st4{fill:#CFECFF;}
	.st5{opacity:0.1;fill:#231F20;}
	.st6{fill:#E2B760;}
	.st7{fill:#FFCF7B;}
	.st8{fill:#105E99;}
	.st9{opacity:0.25;fill:#231F20;}
	.st10{fill:#0E3944;}
	.st11{fill:#EF6A1C;}
	.st12{fill:#BC5019;}
	.st13{fill:#FF8B66;}
	.st14{fill:#EF6E4B;}
	.st15{fill:#007048;}
	.st16{fill:#ADBEC4;}
	.st17{fill:#EA824E;}
	.st18{fill:#FFFFFF;}
	.st19{fill:none;stroke:#FFFFFF;stroke-miterlimit:10;}
	.st20{fill:#DB614D;}
	.st21{fill:#1A4850;}
	.st22{opacity:0.25;fill:#FFFFFF;}
	.st23{fill:none;stroke:#0E3944;stroke-miterlimit:10;}
	.st24{fill:#00A26D;}
</style>
<rect x="0" class="st0" width="624" height="320"/>
<g>
	<rect x="180.56" y="56.88" class="st1" width="268.43" height="263.03"/>
	<g>
		<rect x="187.3" y="63.83" class="st2" width="254.95" height="256.08"/>
		<rect x="187.3" y="304.58" class="st3" width="254.95" height="15.33"/>
		<g>
			<polygon class="st3" points="371.8,304.8 327.24,304.8 334.07,166.21 364.97,166.21 			"/>
			
				<rect x="349.52" y="167.97" transform="matrix(-1 -1.224647e-16 1.224647e-16 -1 767.3546 472.7729)" class="st2" width="68.31" height="136.83"/>
			<g>
				
					<rect x="392.25" y="171.95" transform="matrix(-1 -1.224647e-16 1.224647e-16 -1 798.3849 356.0201)" class="st3" width="13.88" height="12.13"/>
				
					<rect x="369.56" y="212.23" transform="matrix(-1 -1.224647e-16 1.224647e-16 -1 753.0066 436.5801)" class="st3" width="13.88" height="12.13"/>
				
					<rect x="382.55" y="176.36" transform="matrix(-1 -1.224647e-16 1.224647e-16 -1 773.9376 360.4294)" class="st3" width="8.83" height="7.72"/>
				
					<rect x="363.57" y="176.36" transform="matrix(-1 -1.224647e-16 1.224647e-16 -1 735.9734 360.4294)" class="st3" width="8.83" height="7.72"/>
				
					<rect x="351.74" y="174.67" transform="matrix(-1 -1.224647e-16 1.224647e-16 -1 714.2589 358.7394)" class="st3" width="10.77" height="9.41"/>
				
					<rect x="373.06" y="173.61" transform="matrix(-1 -1.224647e-16 1.224647e-16 -1 754.9556 357.6799)" class="st3" width="8.83" height="10.47"/>
				
					<rect x="388.95" y="233.19" transform="matrix(-1 -1.224647e-16 1.224647e-16 -1 791.7853 478.509)" class="st3" width="13.88" height="12.13"/>
				
					<rect x="379.25" y="237.6" transform="matrix(-1 -1.224647e-16 1.224647e-16 -1 767.3381 482.9184)" class="st3" width="8.83" height="7.72"/>
				
					<rect x="360.27" y="237.6" transform="matrix(-1 -1.224647e-16 1.224647e-16 -1 729.3739 482.9184)" class="st3" width="8.83" height="7.72"/>
				
					<rect x="348.45" y="235.91" transform="matrix(-1 -1.224647e-16 1.224647e-16 -1 707.6592 481.2284)" class="st3" width="10.77" height="9.41"/>
				
					<rect x="369.76" y="234.85" transform="matrix(-1 -1.224647e-16 1.224647e-16 -1 748.356 480.1688)" class="st3" width="8.83" height="10.47"/>
				<rect x="350.96" y="191.79" class="st3" width="13.88" height="12.13"/>
				<rect x="365.7" y="196.2" class="st3" width="8.83" height="7.72"/>
				<rect x="384.68" y="196.2" class="st3" width="8.83" height="7.72"/>
				<rect x="384.68" y="216.64" class="st3" width="8.83" height="7.72"/>
				<rect x="348.29" y="216.64" class="st3" width="8.83" height="7.72"/>
				<rect x="394.58" y="194.51" class="st3" width="10.77" height="9.41"/>
				<rect x="357.9" y="214.95" class="st3" width="10.77" height="9.41"/>
				<rect x="375.19" y="193.45" class="st3" width="8.83" height="10.47"/>
				<rect x="394.77" y="213.89" class="st3" width="8.83" height="10.47"/>
				
					<rect x="366.92" y="274.01" transform="matrix(-1 -1.224647e-16 1.224647e-16 -1 747.7236 560.15)" class="st3" width="13.88" height="12.13"/>
				<rect x="348.31" y="253.57" class="st3" width="13.88" height="12.13"/>
				<rect x="363.06" y="257.98" class="st3" width="8.84" height="7.72"/>
				<rect x="382.04" y="257.98" class="st3" width="8.83" height="7.72"/>
				<rect x="382.04" y="278.42" class="st3" width="8.83" height="7.72"/>
				<rect x="345.65" y="278.42" class="st3" width="8.83" height="7.72"/>
				<rect x="391.93" y="256.29" class="st3" width="10.77" height="9.41"/>
				<rect x="355.26" y="276.73" class="st3" width="10.77" height="9.41"/>
				<rect x="372.55" y="255.23" class="st3" width="8.83" height="10.47"/>
				<rect x="392.13" y="275.67" class="st3" width="8.83" height="10.47"/>
			</g>
			<g>
				
					<rect x="330.81" y="182.94" transform="matrix(-1 -1.224647e-16 1.224647e-16 -1 743.5403 368.2484)" class="st4" width="81.93" height="2.38"/>
				
					<rect x="330.84" y="203.45" transform="matrix(-1 -1.224647e-16 1.224647e-16 -1 743.6065 409.2706)" class="st4" width="81.93" height="2.38"/>
				
					<rect x="330.87" y="223.96" transform="matrix(-1 -1.224647e-16 1.224647e-16 -1 743.673 450.2928)" class="st4" width="81.93" height="2.38"/>
				
					<rect x="330.91" y="244.47" transform="matrix(-1 -1.224647e-16 1.224647e-16 -1 743.7393 491.315)" class="st4" width="81.93" height="2.38"/>
				
					<rect x="330.94" y="264.98" transform="matrix(-1 -1.224647e-16 1.224647e-16 -1 743.8055 532.3373)" class="st4" width="81.93" height="2.38"/>
				
					<rect x="330.97" y="285.49" transform="matrix(-1 -1.224647e-16 1.224647e-16 -1 743.8718 573.3594)" class="st4" width="81.93" height="2.38"/>
				<polygon class="st4" points="440.12,304.8 395.55,304.8 402.38,166.21 433.29,166.21 				"/>
			</g>
		</g>
		<g>
			<rect x="363.95" y="84.63" class="st3" width="76.85" height="64.65"/>
			<rect x="276.35" y="84.63" class="st3" width="76.85" height="64.65"/>
			<rect x="188.74" y="84.63" class="st3" width="76.85" height="64.65"/>
		</g>
		<polygon class="st5" points="442.25,63.83 442.25,132.04 254.38,319.91 187.3,319.91 187.3,63.83 		"/>
	</g>
	<g>
		<rect x="405.11" y="63.83" class="st6" width="37.13" height="256.08"/>
		<rect x="401.31" y="63.83" class="st7" width="37.13" height="256.08"/>
		<g>
			<rect x="405.88" y="110.98" class="st8" width="28.01" height="105.82"/>
			<g>
				<path class="st6" d="M414.76,228.56v81.86h-5.11v-81.86H414.76 M418.54,224.78h-12.66v89.42h12.66V224.78L418.54,224.78z"/>
			</g>
			<g>
				<path class="st6" d="M430.11,228.56v81.86H425v-81.86H430.11 M433.89,224.78h-12.66v89.42h12.66V224.78L433.89,224.78z"/>
			</g>
			<g>
				<rect x="414.91" y="104.9" class="st7" width="0.74" height="114.62"/>
				<rect x="424.19" y="104.9" class="st7" width="0.74" height="114.62"/>
			</g>
			<g>
				
					<rect x="418.66" y="127.3" transform="matrix(-1.836970e-16 1 -1 -1.836970e-16 563.9159 -275.9237)" class="st7" width="2.53" height="33.39"/>
				
					<rect x="418.66" y="163.72" transform="matrix(-1.836970e-16 1 -1 -1.836970e-16 600.3363 -239.5033)" class="st7" width="2.53" height="33.39"/>
			</g>
			<rect x="405.88" y="84.93" class="st8" width="28.01" height="20.73"/>
		</g>
		<polygon class="st9" points="442.25,63.83 442.25,195.68 438.45,199.48 405.11,232.81 401.31,236.61 401.31,63.83 		"/>
		<g>
			<path class="st6" d="M404.74,204.61c0,0.89-0.72,1.62-1.62,1.62h-4.17v-3.25h4.17C404.02,202.98,404.74,203.7,404.74,204.61z"/>
			<path class="st6" d="M404.74,228.89c0,0.89-0.72,1.62-1.62,1.62h-4.17v-3.25h4.23C404.05,227.29,404.74,228.01,404.74,228.89z"/>
		</g>
		<path class="st9" d="M401.91,206.23h-2.96v-3.25h4.11C402.89,203.89,402.57,205.08,401.91,206.23z"/>
		<path class="st9" d="M403.18,227.26c-0.08,0.87-0.3,2.09-0.83,3.25h-3.4v-3.25H403.18z"/>
		<path class="st6" d="M398.95,237.1L398.95,237.1c-0.73,0-1.33-0.6-1.33-1.33v-38.05c0-0.73,0.6-1.33,1.33-1.33l0,0
			c0.73,0,1.33,0.6,1.33,1.33v38.05C400.28,236.5,399.68,237.1,398.95,237.1z"/>
	</g>
	<g>
		<path class="st10" d="M342.11,133.31c11.82-0.59,14.2,9.56,12.92,21.47c-1.27,11.91,1.47,27.08,3.1,32.97
			c1.64,5.89-0.73,11.09-0.73,11.09s1.46-4.42-1.09-11.09c0,0,4.08,13.58-6.88,16.11c-10.96,2.53-13.39-1.37-16.6-20.32
			C329.62,164.6,325,134.17,342.11,133.31z"/>
		<path class="st11" d="M312.01,167.69v13.91l10.07-2.95l2.18-18.99C324.26,159.65,318.33,163.48,312.01,167.69z"/>
		<path class="st12" d="M373.06,178.12c1.95-0.42,6.87,5.54,6.96,9.53l-6.56,3.52L373.06,178.12z"/>
		<path class="st11" d="M359.44,167.48c1.49,0.78,15.79,32.1,15.79,32.1s-0.45,6.29-3.55,6.99c-3.1,0.71-18.74-19.7-18.74-19.7
			S353.4,164.33,359.44,167.48z"/>
		<path class="st13" d="M375.99,197.49c1.73-4.99,2.29-18.89,1.02-25.16l-3.12,0.29c0,0-2.05,15.12-4.15,19.75
			c-2.1,4.63-1.74,8.39,1.22,10.25C373.93,204.48,375.63,198.54,375.99,197.49z"/>
		<g>
			<path class="st13" d="M371.95,165.75c0,0,0,0,0.46,4.02c0.46,4.02,1.09,3.72,2.97,4.82c1.76,1.03,4-1.97,4.58-3.46
				c0.5-1.26,3.36-3.16,3.49-4.31c0.05-0.46-0.31-0.3-1.13,0.42c-0.96,0.83-2.13,1.27-2.13,1.27c-0.31-1.39,3.48-4.06,2.93-5.49
				c-0.27-0.7-3.13,4.07-3.99,3.97c0,0-0.16-0.49,1.05-2.94c0.69-1.41,1.42-2.85,1.11-3.26c-0.56-0.74-1.5,2.46-3.85,5.43
				c0,0,0.48-1.64,1.02-3.14c0.5-1.36,1.12-2.58,0.49-2.75c-0.51-0.14-1.24,2.01-1.76,3.36c-0.96,2.51-2.22,4.14-2.92,4.94
				c-0.33,0.38-0.55,0.57-0.55,0.57C372.92,165.12,371.95,165.75,371.95,165.75z"/>
			<path class="st14" d="M373.74,169.18c0,0,1.46,1.03,1.51,2.39c0,0,0.96-1.83-0.96-2.96
				C373.95,168.99,373.74,169.18,373.74,169.18z"/>
		</g>
		<g>
			<g>
				<path class="st15" d="M362.07,307.37l-4.9,1.14c0,0-7.66-41.07-9.43-45.41c-1.52-3.74-7.99-18.07-10.14-29.06
					c-0.1,0.05-0.77-0.07-1.68-0.24h-0.01c-0.23-0.05-0.47-0.1-0.72-0.15c-0.23-0.05-0.47-0.1-0.71-0.15
					c-0.18,10.96-2.56,24.48-3.29,28.27c-0.88,4.6-0.41,46.4-0.41,46.4l-5.03-0.17c-9.55-33.85-4.51-46.57-4.51-46.57
					s-8.76-30.47-5.65-41.21c1.03-3.58,2.29-6.83,3.52-9.56c0.1-0.23,0.2-0.44,0.31-0.66c2.33-5.08,4.45-8.24,4.45-8.24l10.23,1.28
					l0.09-0.17l0.3,0.06v3.21l1.3-0.07l0.29-0.02h0.01l4.25-0.23l0.58-0.03l3.71-0.2c0,0,2.23,3.55,5.4,9.25
					c0.12,0.22,0.24,0.44,0.36,0.66c1.13,2.05,2.37,4.35,3.66,6.85c5.14,9.94,3.38,38.48,3.38,38.48S364.85,272.31,362.07,307.37z"
					/>
			</g>
			<g>
				<path class="st10" d="M327.24,202.94c-0.04,0.07-2.67,6.34-8.13,7.71c0.1-0.23,0.2-0.44,0.31-0.66c4.9-1.52,7.28-7.2,7.31-7.26
					L327.24,202.94z"/>
			</g>
			<g>
				<path class="st10" d="M350.39,215.51c-6.11-1.31-9.23-7.71-10.06-9.68c-0.15-0.36-0.22-0.57-0.23-0.58l0.52-0.18
					c0.01,0.01,0.1,0.29,0.29,0.74c0.87,2.02,3.74,7.63,9.12,9.05C350.15,215.07,350.28,215.29,350.39,215.51z"/>
			</g>
			<g>
				<path class="st10" d="M335.91,233.8c-0.23-0.05-0.47-0.1-0.72-0.15c-0.89-1.64-2.51-5.16-3.83-11.04
					c-1.91-8.46,2.43-17.48,2.48-17.57l0.5,0.24c-0.04,0.09-4.31,8.94-2.44,17.21c0.08,0.35,0.16,0.69,0.24,1.02
					c0.04,0.18,0.09,0.36,0.13,0.53C333.62,229.42,335.2,232.55,335.91,233.8z"/>
			</g>
			<g>
				<path class="st10" d="M331.98,224.07c-0.03,0-0.05,0-0.08,0l0.03-0.54c0.29,0.01,0.63-0.15,0.9-0.45
					c0.36-0.41,1.14-1.72,0.51-4.93c-0.84-4.31,2.35-11.87,2.49-12.19l0.5,0.21c-0.03,0.08-3.26,7.72-2.46,11.87
					c0.65,3.32-0.12,4.81-0.64,5.4C332.89,223.84,332.43,224.07,331.98,224.07z"/>
			</g>
		</g>
		<path class="st13" d="M344.63,205.6c0,0-10.69,3.77-20.77-3.85c0,0-1.87-38.48,1.69-41.06c1.56-1.13,4.63-0.23,7.6,1.15
			c3.82,1.78,7.48,4.33,7.48,4.33s6.64-0.94,11.87-0.36c3.33,0.36,6.08,1.33,6.21,3.54C359.03,175.04,344.63,205.6,344.63,205.6z"/>
		<path class="st14" d="M352.78,165.9c-2.24-0.23-2.66,1.46-4.9,2.28c-2.25,0.82-4.95,1.46-5.97,1.55s-1.56,1.36-1.56,1.36
			s-0.36-1.71-0.92-1.86c-0.54-0.14-5.3-4.92-6.29-7.39c3.82,1.78,7.48,4.33,7.48,4.33s6.64-0.94,11.87-0.36
			C352.68,165.87,352.78,165.9,352.78,165.9z"/>
		<g>
			<path class="st10" d="M321.64,320h12.38c0.25-1.61,0.34-4.25-1.27-6.24c-1.94-2.4,0.71-5.69-1.42-6.96
				c-0.55-0.33-0.96,0.23-1.21,0.8c-0.13-0.25-0.25-0.51-0.35-0.8c-0.4-1.09-4.38-1.09-4.45,1.29c0,0-0.89-1.97-1.74-0.41
				c-0.55,1.01,0.23,2.5-0.08,4.59C323.21,314.19,320.93,314.86,321.64,320z"/>
			<path class="st16" d="M330.79,311.48c0,0-2.79-1.47-6.5,0.48l0.73-1.34c0,0,2.45-1.53,5.43-0.39L330.79,311.48z"/>
			<path class="st16" d="M331.27,313.7c0,0-3.97-1.38-7.68,0.56l0.7-1.42c0,0,3.52-1.52,6.5-0.38L331.27,313.7z"/>
		</g>
		<g>
			<path class="st10" d="M366.09,320c0.71-5.14-1.57-5.81-1.85-7.73c-0.31-2.09,0.47-3.58-0.08-4.59c-0.85-1.56-1.74,0.41-1.74,0.41
				c-0.07-2.38-4.06-2.37-4.45-1.29c-0.11,0.29-0.23,0.55-0.35,0.8c-0.25-0.57-0.67-1.13-1.21-0.8c-2.13,1.27,0.52,4.57-1.42,6.96
				c-1.61,1.99-1.52,4.63-1.27,6.24H366.09z"/>
			<path class="st16" d="M356.94,311.48c0,0,2.79-1.47,6.5,0.48l-0.73-1.34c0,0-2.45-1.53-5.43-0.39L356.94,311.48z"/>
			<path class="st16" d="M356.46,313.7c0,0,3.97-1.38,7.68,0.56l-0.7-1.42c0,0-3.52-1.52-6.5-0.38L356.46,313.7z"/>
		</g>
		<path class="st11" d="M373.06,178.12c0,0,2.59,9.37,6.96,9.53c0,0-1.92,18.24-8.74,18.94c0,0-4.27-7.5-2.86-14.24
			c1.41-6.73,2.41-6,2.41-6L373.06,178.12z"/>
		<path class="st17" d="M353.52,165.95c0,0-8.86,6.85-13.41,7.4c0,0-5.55-4.57-7.95-11.94c0,0-5.36-2.33-7.9-1.75
			c-2.54,0.58-2.88,19.42-0.89,42.87l-3.24,4.25c0,0,7.77,7.85,27.98,4.69l-2.54-5.52c0,0,12.43-27.03,13.86-38.47L353.52,165.95z"
			/>
		<path class="st18" d="M327.24,170.63c0,0,12.51,5.13,24.79,5.17c0,0,1.09,22.26-6.44,30.15l4.81,9.56l1.57,32.85
			c0,0-22.26,3.18-35.4,0c0,0-4.83-39.96,6.81-45.84C323.37,202.53,318.14,185.57,327.24,170.63z"/>
		<path class="st19" d="M327.24,171.57c1.27-2.96,7.75-8.77,14.87-7.64c7.68,1.21,9.34,8.61,9.34,12.35"/>
		<path class="st14" d="M339.78,153.45c0,0,0.85,10.27-2.01,11.74c0,0,2.11,3.89,7.78,1.52c0,0-0.96-5.28,2.79-11.56
			C350.84,150.96,339.78,153.45,339.78,153.45z"/>
		<g>
			<path class="st13" d="M350.82,148.46c0,0,2.13-2.47,2.61,0.19c0.56,3.09-2.16,4.55-2.79,3.61
				C350.02,151.32,350.82,148.46,350.82,148.46z"/>
			<path class="st13" d="M334.72,149.85c0,0-2.48-2.12-2.56,0.59c-0.09,3.14,2.83,4.17,3.31,3.14
				C335.95,152.55,334.72,149.85,334.72,149.85z"/>
			<path class="st13" d="M343.87,160.33c5.11-0.39,7.74-3.94,6.97-13.95c-0.39-5.16-3.26-8.13-8.98-7.69
				c-5.72,0.44-7.89,3.78-7.5,8.95C335.18,158.38,338.59,160.73,343.87,160.33z"/>
			<path class="st20" d="M336.33,151.07c-0.05,0.52,0.44,0.99,1.09,1.06c0.65,0.06,1.22-0.31,1.27-0.83
				c0.05-0.52-0.44-0.99-1.09-1.06C336.95,150.18,336.38,150.55,336.33,151.07z"/>
			<path class="st20" d="M346.85,150.55c0.07,0.52,0.66,0.86,1.3,0.77c0.65-0.09,1.11-0.59,1.04-1.1c-0.07-0.52-0.66-0.86-1.3-0.77
				C347.24,149.54,346.78,150.03,346.85,150.55z"/>
			<g>
				<path class="st10" d="M338.14,145.68c0.1,0.05,0.23,0.02,0.31-0.07c0.65-0.8,1.9-0.86,1.91-0.86c0.14-0.01,0.25-0.13,0.24-0.27
					c-0.01-0.14-0.12-0.25-0.27-0.24c-0.06,0-1.49,0.08-2.28,1.05c-0.09,0.11-0.07,0.27,0.04,0.36
					C338.1,145.66,338.12,145.67,338.14,145.68z"/>
			</g>
			<g>
				<path class="st10" d="M345.54,144.32c0.04,0.02,0.09,0.03,0.14,0.02c0.01,0,1.26-0.13,2.02,0.56c0.11,0.1,0.27,0.09,0.36-0.02
					c0.09-0.11,0.09-0.27-0.02-0.36c-0.93-0.84-2.36-0.7-2.42-0.69c-0.14,0.02-0.24,0.14-0.23,0.28
					C345.4,144.21,345.46,144.29,345.54,144.32z"/>
			</g>
			<path class="st21" d="M338.92,148.38c0.05,0.63,0.37,1.13,0.73,1.1c0.35-0.03,0.6-0.56,0.55-1.2c-0.05-0.63-0.37-1.13-0.73-1.1
				C339.11,147.21,338.87,147.74,338.92,148.38z"/>
			<path class="st21" d="M346.12,147.8c0.05,0.63,0.37,1.13,0.73,1.1c0.35-0.03,0.6-0.56,0.55-1.2c-0.05-0.63-0.37-1.13-0.73-1.1
				C346.32,146.63,346.07,147.16,346.12,147.8z"/>
			<path class="st21" d="M345.56,154.06c0,0-3.15,0.69-4.85-0.04c0,0,1.1,2.28,2.83,1.94C345.26,155.61,345.56,154.06,345.56,154.06
				z"/>
			<path class="st21" d="M340.61,147.93c0,0-0.58-1.53-1.19-1.37c-0.61,0.16-0.97,1.53-0.97,1.53l-0.94-0.41l0.92,0.05
				c0,0,0.37-1.43,0.97-1.48C340.26,146.19,340.61,147.93,340.61,147.93z"/>
			<path class="st21" d="M345.58,147.75c0,0,0.35-1.6,0.97-1.53c0.62,0.07,1.19,1.37,1.19,1.37l0.87-0.55l-0.9,0.19
				c0,0-0.58-1.36-1.19-1.32C345.66,145.97,345.58,147.75,345.58,147.75z"/>
			<g>
				<path class="st20" d="M342.8,151.64c0.11,0.05,0.24,0.09,0.37,0.12l0.1-0.54c-0.46-0.09-0.58-0.36-0.6-0.57
					c-0.03-0.3,0.13-0.6,0.3-0.66c0.1-0.04,0.2,0.02,0.32,0.17l0.44-0.34c-0.38-0.5-0.8-0.41-0.96-0.35
					c-0.41,0.16-0.69,0.7-0.65,1.22C342.16,151.13,342.4,151.46,342.8,151.64z"/>
			</g>
			<path class="st10" d="M342.64,139.1c0,0-0.31,3.63,2.38,5.87c0,0-1.12-2.23-1.2-3.69c0,0,2.19,3.73,4.2,4.1
				c2.01,0.36,4.92,1.44,4.92,1.44s-1.3-8.82-10.03-9.37c-8.73-0.55-10.66,4.9-9.05,10.87c0,0,3.46-1.49,4.12-4.95
				c0,0-0.84,2.64,3.78,1.59C341.77,144.97,340.81,142.19,342.64,139.1z"/>
		</g>
		<circle class="st15" cx="337.51" cy="187.65" r="8.9"/>
		<g>
			<path class="st18" d="M338.4,190.2c0.05,0.04,0.08,0.1,0.15,0.12c0.04,0.01,0.09,0.02,0.13,0.02c0.06,0,0.11-0.03,0.17-0.05
				l1.93,0.38c0.03,0.01,0.05,0.01,0.08,0.01c0.16,0,0.31-0.09,0.38-0.24l2.44-5.14c0.12-0.25-0.03-0.54-0.3-0.59l-8.83-1.72
				c-0.01,0-0.03,0-0.04,0l-1.42-1.32c-0.18-0.16-0.46-0.16-0.63,0.02c-0.17,0.18-0.16,0.46,0.02,0.63l1.51,1.41
				c0.02,0.02,0.05,0.01,0.07,0.03l0.09,2.36c-0.01,0.02-0.02,0.02-0.03,0.04c-0.01,0.06,0.02,0.12,0.04,0.18l0.1,2.76
				c0.01,0.2,0.15,0.36,0.34,0.4l1.88,0.37c0.04,0.01,0.06,0.05,0.1,0.05c0.02,0,0.04,0,0.05,0c0.02,0,0.03-0.02,0.05-0.02
				L338.4,190.2z M338.93,187.52l-0.54,1.78l-1.26-0.25l0.23-1.84L338.93,187.52z M337.47,186.33l0.23-1.84l2.03,0.4l-0.54,1.78
				L337.47,186.33z M340.59,189.73l-1.32-0.26l0.54-1.78l1.6,0.31L340.59,189.73z M341.8,187.18l-1.74-0.34l0.54-1.78l2.02,0.39
				L341.8,187.18z M336.83,184.32l-0.23,1.84l-1.57-0.31l-0.07-1.9L336.83,184.32z M335.07,186.77l1.42,0.28l-0.23,1.84l-1.13-0.22
				L335.07,186.77z"/>
			<path class="st18" d="M340.15,190.77c-0.82-0.16-1.62,0.38-1.78,1.2c-0.16,0.82,0.37,1.62,1.2,1.78c0.1,0.02,0.2,0.03,0.29,0.03
				c0.3,0,0.59-0.09,0.85-0.26c0.34-0.23,0.56-0.57,0.64-0.97c0.08-0.4,0-0.8-0.23-1.14C340.89,191.08,340.55,190.85,340.15,190.77z
				 M340.21,192.78c-0.14,0.09-0.3,0.12-0.47,0.1c-0.16-0.03-0.31-0.13-0.4-0.27s-0.13-0.31-0.1-0.47c0.03-0.16,0.13-0.31,0.27-0.4
				c0.11-0.07,0.23-0.11,0.35-0.11c0.04,0,0.08,0,0.12,0.01c0.16,0.03,0.31,0.13,0.4,0.27c0.09,0.14,0.13,0.31,0.1,0.47
				C340.44,192.54,340.35,192.69,340.21,192.78z"/>
			<path class="st18" d="M334.17,189.61c-0.4-0.08-0.8,0-1.14,0.23c-0.33,0.23-0.56,0.57-0.64,0.97c-0.08,0.4,0,0.8,0.23,1.14
				c0.23,0.33,0.57,0.56,0.97,0.64c0.1,0.02,0.2,0.03,0.29,0.03c0.3,0,0.59-0.09,0.84-0.26c0.34-0.23,0.56-0.57,0.64-0.97
				c0.08-0.4,0-0.8-0.23-1.14C334.91,189.91,334.57,189.68,334.17,189.61z M334.24,191.61c-0.14,0.09-0.3,0.12-0.47,0.1
				c-0.16-0.03-0.31-0.13-0.4-0.27c-0.09-0.14-0.13-0.31-0.1-0.47c0.03-0.17,0.13-0.31,0.27-0.4c0.11-0.07,0.23-0.11,0.35-0.11
				c0.04,0,0.08,0.01,0.12,0.01c0.16,0.03,0.31,0.13,0.4,0.27c0.09,0.14,0.13,0.31,0.1,0.47
				C334.47,191.38,334.37,191.52,334.24,191.61z"/>
		</g>
	</g>
	<g>
		<rect x="187.3" y="63.83" class="st7" width="127.47" height="256.08"/>
		<g>
			<rect x="202.96" y="110.98" class="st8" width="96.17" height="105.82"/>
			<polygon class="st22" points="202.96,110.98 248.94,110.98 202.96,156.96 			"/>
			<polygon class="st22" points="260.71,110.98 295.61,110.98 202.96,203.64 202.96,168.73 			"/>
			<polygon class="st22" points="299.12,135.66 299.12,144.51 226.83,216.8 217.98,216.8 			"/>
			<g>
				<path class="st6" d="M239.43,231.78v75.42h-29.47v-75.42H239.43 M246.43,224.78h-43.47v89.42h43.47V224.78L246.43,224.78z"/>
			</g>
			<g>
				<path class="st6" d="M292.12,231.78v75.42h-29.47v-75.42H292.12 M299.12,224.78h-43.47v89.42h43.47V224.78L299.12,224.78z"/>
			</g>
			<g>
				<rect x="233.96" y="104.9" class="st7" width="2.53" height="114.62"/>
				<rect x="265.83" y="104.9" class="st7" width="2.53" height="114.62"/>
			</g>
			<g>
				
					<rect x="249.9" y="86.69" transform="matrix(-1.836970e-16 1 -1 -1.836970e-16 395.156 -107.1637)" class="st7" width="2.53" height="114.62"/>
				
					<rect x="249.9" y="123.11" transform="matrix(-1.836970e-16 1 -1 -1.836970e-16 431.5764 -70.7433)" class="st7" width="2.53" height="114.62"/>
			</g>
			<rect x="202.96" y="84.93" class="st8" width="96.17" height="20.72"/>
			<polygon class="st22" points="274.98,84.93 254.26,105.66 202.96,105.66 202.96,84.93 			"/>
			<polygon class="st22" points="299.12,84.93 299.12,105.66 266.03,105.66 286.75,84.93 			"/>
		</g>
		<path class="st9" d="M314.77,63.83v31.32c-8.3-0.8-14.79-7.8-14.79-16.31c0,4.52-1.84,8.62-4.8,11.59
			c-2.96,2.96-7.06,4.8-11.59,4.8c-9.05,0-16.39-7.34-16.39-16.39c0,4.52-1.84,8.62-4.8,11.59c-2.96,2.96-7.06,4.8-11.59,4.8
			c-9.05,0-16.39-7.34-16.39-16.39c0,4.52-1.84,8.62-4.8,11.59c-2.96,2.96-7.06,4.8-11.59,4.8c-9.05,0-16.39-7.34-16.39-16.39
			c0,8.36-6.26,15.26-14.36,16.26V63.83H314.77z"/>
		<path class="st6" d="M307.14,237.1L307.14,237.1c-1.15,0-2.09-0.93-2.09-2.09v-36.53c0-1.15,0.93-2.09,2.09-2.09l0,0
			c1.15,0,2.09,0.93,2.09,2.09v36.53C309.23,236.16,308.29,237.1,307.14,237.1z"/>
	</g>
	<g>
		<path class="st18" d="M252.52,134.49c0,1.14-0.93,2.07-2.07,2.07c-1.14,0-2.07-0.93-2.07-2.07c0-1.14,0.93-2.07,2.07-2.07
			C251.6,132.42,252.52,133.35,252.52,134.49z"/>
		<path class="st23" d="M228.86,146.58l20.78-12.77c0.49-0.3,1.11-0.25,1.54,0.12l25.06,21.09"/>
		<path class="st3" d="M251.63,134.49c0,0.65-0.53,1.17-1.17,1.17c-0.65,0-1.17-0.53-1.17-1.17c0-0.65,0.53-1.17,1.17-1.17
			C251.1,133.32,251.63,133.84,251.63,134.49z"/>
		<g>
			<path class="st11" d="M270.38,182.83l-46.57-8.94c-0.99-0.19-1.63-1.14-1.44-2.13l5.11-26.62c0.19-0.99,1.14-1.63,2.13-1.44
				l46.57,8.94c0.99,0.19,1.63,1.14,1.44,2.13l-5.11,26.62C272.32,182.37,271.36,183.02,270.38,182.83z"/>
			<g>
				<path class="st18" d="M236.73,153.78l0.41-2.12l-1.03-3.18l0.73,0.14l0.44,1.51c0.12,0.41,0.21,0.75,0.3,1.12l0.01,0
					c0.2-0.3,0.44-0.59,0.7-0.93l0.98-1.24l0.73,0.14l-2.23,2.55l-0.41,2.13L236.73,153.78z"/>
				<path class="st18" d="M239.72,152.62c-0.15,0.88,0.34,1.36,0.99,1.48c0.47,0.09,0.76,0.06,1.03,0.01l0.02,0.49
					c-0.25,0.06-0.67,0.1-1.24-0.01c-1.1-0.21-1.62-1.06-1.42-2.15c0.21-1.08,1.01-1.81,2.05-1.61c1.17,0.22,1.28,1.31,1.16,1.97
					c-0.03,0.13-0.06,0.23-0.08,0.3L239.72,152.62z M241.72,152.52c0.09-0.41,0.03-1.09-0.7-1.23c-0.66-0.13-1.06,0.43-1.2,0.87
					L241.72,152.52z"/>
				<path class="st18" d="M242.79,154.25c0.17,0.16,0.48,0.36,0.81,0.43c0.47,0.09,0.74-0.1,0.8-0.4c0.06-0.31-0.09-0.52-0.54-0.79
					c-0.6-0.35-0.84-0.77-0.75-1.2c0.11-0.58,0.67-0.96,1.44-0.82c0.36,0.07,0.66,0.23,0.84,0.39l-0.25,0.44
					c-0.12-0.12-0.36-0.28-0.69-0.35c-0.39-0.07-0.64,0.11-0.69,0.37c-0.06,0.3,0.13,0.47,0.57,0.74c0.58,0.36,0.84,0.73,0.73,1.26
					c-0.12,0.63-0.69,0.98-1.55,0.82c-0.39-0.07-0.74-0.24-0.96-0.44L242.79,154.25z"/>
				<path class="st18" d="M245.63,155.1c0.05-0.27,0.27-0.42,0.53-0.37c0.27,0.05,0.4,0.28,0.35,0.54
					c-0.05,0.26-0.26,0.43-0.53,0.38C245.72,155.59,245.58,155.36,245.63,155.1z M246.02,154.07l0.58-3.58l0.71,0.14l-0.79,3.54
					L246.02,154.07z"/>
				<path class="st18" d="M249.9,152.59l0.12,1.91c0.03,0.42,0.05,0.81,0.05,1.19l0.02,0c0.15-0.35,0.34-0.71,0.54-1.07l0.94-1.72
					l0.55,0.11l0.21,1.9c0.05,0.46,0.08,0.85,0.09,1.23l0.02,0c0.13-0.35,0.3-0.71,0.5-1.11l0.86-1.7l0.64,0.12l-1.84,3.36
					l-0.59-0.11l-0.22-1.82c-0.05-0.42-0.08-0.8-0.09-1.24l-0.01,0c-0.17,0.41-0.35,0.76-0.55,1.12l-0.91,1.59l-0.59-0.11
					l-0.39-3.79L249.9,152.59z"/>
				<path class="st18" d="M255.01,155.55c-0.15,0.88,0.34,1.36,0.99,1.48c0.47,0.09,0.76,0.06,1.03,0.01l0.02,0.49
					c-0.25,0.06-0.67,0.1-1.24-0.01c-1.1-0.21-1.62-1.06-1.42-2.15c0.21-1.08,1.01-1.81,2.05-1.61c1.17,0.22,1.28,1.31,1.16,1.97
					c-0.03,0.13-0.06,0.23-0.08,0.3L255.01,155.55z M257.01,155.45c0.09-0.41,0.03-1.09-0.7-1.23c-0.66-0.13-1.06,0.43-1.2,0.87
					L257.01,155.45z"/>
				<path class="st18" d="M261.59,158.55l0.03-0.46l-0.02,0c-0.25,0.24-0.69,0.42-1.2,0.32c-0.73-0.14-1-0.72-0.9-1.24
					c0.17-0.87,1.03-1.19,2.41-0.92l0.01-0.07c0.06-0.3,0.08-0.85-0.66-0.99c-0.33-0.06-0.7-0.03-0.98,0.09l-0.07-0.46
					c0.33-0.14,0.79-0.18,1.24-0.09c1.1,0.21,1.22,1.01,1.08,1.73l-0.26,1.34c-0.06,0.31-0.1,0.62-0.11,0.87L261.59,158.55z
					 M261.85,156.7c-0.71-0.15-1.54-0.18-1.67,0.52c-0.08,0.42,0.16,0.68,0.5,0.74c0.47,0.09,0.82-0.15,0.98-0.43
					c0.03-0.06,0.06-0.13,0.08-0.2L261.85,156.7z"/>
				<path class="st18" d="M263.65,156.39c0.08-0.42,0.14-0.79,0.19-1.12l0.57,0.11l-0.11,0.71l0.03,0.01
					c0.26-0.45,0.71-0.68,1.14-0.6c0.07,0.01,0.12,0.03,0.18,0.06l-0.12,0.61c-0.06-0.03-0.13-0.05-0.22-0.06
					c-0.46-0.09-0.85,0.2-1.03,0.67c-0.03,0.09-0.07,0.19-0.09,0.3l-0.37,1.91l-0.64-0.12L263.65,156.39z"/>
				<path class="st18" d="M266.21,157.7c-0.15,0.88,0.34,1.36,0.99,1.48c0.47,0.09,0.76,0.06,1.03,0.01l0.02,0.49
					c-0.25,0.06-0.67,0.1-1.24-0.01c-1.1-0.21-1.62-1.06-1.42-2.15c0.21-1.08,1.01-1.81,2.05-1.61c1.17,0.23,1.28,1.31,1.16,1.97
					c-0.03,0.13-0.06,0.23-0.08,0.3L266.21,157.7z M268.21,157.6c0.09-0.41,0.03-1.09-0.7-1.23c-0.66-0.13-1.06,0.43-1.2,0.87
					L268.21,157.6z"/>
			</g>
			<path class="st18" d="M270,181.15l-45.22-8.68c-0.57-0.11-0.95-0.66-0.84-1.24l2.99-15.59c0.11-0.57,0.66-0.95,1.24-0.84
				l45.22,8.68c0.57,0.11,0.95,0.66,0.84,1.24l-2.99,15.59C271.13,180.88,270.57,181.26,270,181.15z"/>
			<g>
				<path class="st10" d="M238.65,165.85c-0.7,3.65-3.29,5.16-5.99,4.64c-2.8-0.54-4.35-3.08-3.73-6.29
					c0.65-3.37,3.16-5.17,5.99-4.62C237.81,160.13,239.25,162.71,238.65,165.85z M230.39,164.45c-0.43,2.26,0.4,4.53,2.56,4.94
					c2.17,0.42,3.78-1.34,4.24-3.75c0.4-2.11-0.27-4.52-2.55-4.96C232.37,160.24,230.84,162.12,230.39,164.45z"/>
				<path class="st10" d="M241.4,161.13c0.68,0.02,1.56,0.09,2.67,0.3c1.35,0.26,2.28,0.76,2.8,1.45c0.49,0.61,0.68,1.45,0.5,2.4
					c-0.18,0.96-0.61,1.66-1.25,2.11c-0.87,0.63-2.13,0.8-3.46,0.54c-0.41-0.08-0.78-0.17-1.08-0.3l-0.81,4.25l-1.37-0.26
					L241.4,161.13z M241.79,166.5c0.28,0.14,0.65,0.24,1.11,0.33c1.65,0.32,2.81-0.29,3.09-1.76c0.27-1.4-0.59-2.27-2.1-2.56
					c-0.6-0.11-1.06-0.16-1.31-0.14L241.79,166.5z"/>
				<path class="st10" d="M254.2,169.29l-4.12-0.79l-0.73,3.82l4.59,0.88l-0.22,1.15l-5.96-1.14l2.03-10.6l5.72,1.1l-0.22,1.15
					l-4.36-0.84l-0.64,3.35l4.12,0.79L254.2,169.29z"/>
				<path class="st10" d="M255.5,174.69l2.03-10.6l1.49,0.29l2.37,6.02c0.55,1.39,0.95,2.63,1.24,3.81l0.04-0.01
					c0.15-1.44,0.36-2.74,0.68-4.39l0.85-4.44l1.29,0.25l-2.03,10.6l-1.38-0.27l-2.33-6.02c-0.51-1.32-0.99-2.67-1.3-3.92
					l-0.05,0.01c-0.18,1.35-0.39,2.63-0.73,4.39l-0.87,4.53L255.5,174.69z"/>
			</g>
		</g>
	</g>
	<g>
		<g>
			<path class="st15" d="M105.4,257.11c0,0-8.83-42.24-1.5-61.7c7.33-19.45,1.56-30.16-2.34-25.04c-3.9,5.12-2.14,20.57-2.14,20.57
				S88,174.08,89.24,161.82c1.24-12.26-1-19.19-7.27-18.22c-6.27,0.97-1.1,30.82,3.45,36.92c0,0-5.1-3.5-9.65-9.68
				c-4.55-6.18-9.82-11.47-12.17-2.58c-2.35,8.89,15.59,22.2,20.99,28.95c5.4,6.76,7.57,12.92,7.57,12.92s-10.64-11.72-15.81-7.48
				c-5.17,4.23,20.61,12.85,20.61,67.7L105.4,257.11z"/>
			<path class="st15" d="M96.96,270.35c0,0,7.47-23.07,12.91-46.58c5.44-23.52,9.33-61.71,20.81-62.12
				c11.47-0.41-3.85,31.65-3.85,31.65s15.44-12.87,20.75-27.66c5.31-14.79,14-20.19,12.93-6.06c-1.07,14.12-21.94,39-21.94,39
				s8.87-2.86,17.19-3.5c8.32-0.64,6.42,16.84-3.95,15.89c-10.37-0.95-25.05,12.14-25.05,12.14s13.72-5.96,13.06,3.25
				c-0.66,9.21-25.71,15.22-36.58,45.56L96.96,270.35z"/>
			<path class="st24" d="M96.96,279.07c0,0-12.67-39.15-12.24-66.41c0.43-27.26-8.98-40.33-11.03-32.77
				c-2.05,7.56,5.06,27.72,5.06,27.72s-17.13-20.13-20.18-36.65c-3.05-16.52-7.67-25.27-13.5-22.75
				c-5.84,2.52,9.66,41.12,16.26,48.32c0,0-6.24-3.64-12.88-10.95c-6.64-7.31-13.66-13.29-12.88-1.03
				c0.78,12.26,23.08,26.39,30.76,34.29c7.67,7.9,11.95,15.65,11.95,15.65s-14.55-13.46-18.17-6.82
				c-3.62,6.63,21.69,11.41,29.88,51.39H96.96z"/>
			<path class="st24" d="M108.37,279.07c0,0,2.77-26.36,19.6-38.58c16.82-12.22,17.89-24.33,11.82-22.2
				c-6.07,2.13-13.11,16-13.11,16s-0.27-20.37,7.52-29.93c7.78-9.56,9.72-16.57,3.95-19.21c-5.77-2.64-17.87,25.14-17.43,32.73
				c0,0-2.33-5.73-2.73-13.4c-0.4-7.67-1.89-14.98-8.75-8.84c-6.85,6.13,0.81,27.11,1.61,35.73c0.8,8.61-0.78,14.95-0.78,14.95
				s-2.44-15.63-9.09-14.94c-6.65,0.69,6.47,26.6-0.87,48.79L108.37,279.07z"/>
		</g>
		<g>
			<polygon class="st3" points="131.58,258.55 68.99,258.55 75.22,319.91 125.36,319.91 			"/>
			<polygon class="st4" points="133.8,258.55 66.77,258.55 67.86,268.59 132.71,268.59 			"/>
		</g>
	</g>
	<g>
		<g>
			<path class="st15" d="M518.6,257.11c0,0,8.83-42.24,1.5-61.7c-7.33-19.45-1.56-30.16,2.34-25.04c3.9,5.12,2.14,20.57,2.14,20.57
				s11.43-16.87,10.18-29.13c-1.24-12.26,1-19.19,7.27-18.22c6.27,0.97,1.1,30.82-3.45,36.92c0,0,5.1-3.5,9.65-9.68
				s9.82-11.47,12.17-2.58c2.35,8.89-15.59,22.2-20.99,28.95c-5.4,6.76-7.57,12.92-7.57,12.92s10.64-11.72,15.81-7.48
				c5.17,4.23-20.61,12.85-20.61,67.7L518.6,257.11z"/>
			<path class="st15" d="M527.04,270.35c0,0-7.47-23.07-12.91-46.58c-5.44-23.52-9.33-61.71-20.81-62.12
				c-11.47-0.41,3.85,31.65,3.85,31.65s-15.44-12.87-20.75-27.66c-5.31-14.79-14-20.19-12.93-6.06c1.07,14.12,21.94,39,21.94,39
				s-8.87-2.86-17.19-3.5c-8.32-0.64-6.42,16.84,3.95,15.89c10.37-0.95,25.05,12.14,25.05,12.14s-13.72-5.96-13.06,3.25
				c0.66,9.21,25.71,15.22,36.58,45.56L527.04,270.35z"/>
			<path class="st24" d="M527.04,279.07c0,0,12.67-39.15,12.24-66.41c-0.43-27.26,8.98-40.33,11.03-32.77
				c2.05,7.56-5.06,27.72-5.06,27.72s17.13-20.13,20.18-36.65c3.05-16.52,7.67-25.27,13.5-22.75c5.84,2.52-9.66,41.12-16.26,48.32
				c0,0,6.24-3.64,12.88-10.95c6.64-7.31,13.66-13.29,12.88-1.03c-0.78,12.26-23.08,26.39-30.76,34.29
				c-7.67,7.9-11.95,15.65-11.95,15.65s14.55-13.46,18.17-6.82c3.62,6.63-21.69,11.41-29.88,51.39H527.04z"/>
			<path class="st24" d="M515.63,279.07c0,0-2.77-26.36-19.6-38.58c-16.82-12.22-17.89-24.33-11.82-22.2
				c6.07,2.13,13.11,16,13.11,16s0.27-20.37-7.52-29.93c-7.78-9.56-9.72-16.57-3.95-19.21c5.77-2.64,17.87,25.14,17.43,32.73
				c0,0,2.33-5.73,2.73-13.4c0.4-7.67,1.89-14.98,8.75-8.84c6.85,6.13-0.81,27.11-1.61,35.73c-0.8,8.61,0.78,14.95,0.78,14.95
				s2.44-15.63,9.09-14.94c6.65,0.69-6.47,26.6,0.87,48.79L515.63,279.07z"/>
		</g>
		<g>
			<polygon class="st3" points="492.42,258.55 555.01,258.55 548.78,319.91 498.64,319.91 			"/>
			<polygon class="st4" points="490.2,258.55 557.23,258.55 556.14,268.59 491.29,268.59 			"/>
		</g>
	</g>
	<g>
		<g>
			<g>
				<polygon class="st24" points="200.06,50.3 207.45,30 176.78,30 167.29,50.3 				"/>
				<polygon class="st17" points="232.84,50.3 238.11,30 207.45,30 200.06,50.3 				"/>
				<polygon class="st24" points="265.61,50.3 268.78,30 238.11,30 232.84,50.3 				"/>
				<polygon class="st17" points="298.38,50.3 299.44,30 268.78,30 265.61,50.3 				"/>
				<polygon class="st24" points="331.16,50.3 330.1,30 299.44,30 298.38,50.3 				"/>
				<polygon class="st17" points="363.93,50.3 360.77,30 330.1,30 331.16,50.3 				"/>
				<polygon class="st24" points="396.71,50.3 391.43,30 360.77,30 363.93,50.3 				"/>
				<polygon class="st17" points="429.48,50.3 422.1,30 391.43,30 396.71,50.3 				"/>
				<polygon class="st24" points="462.26,50.3 452.76,30 422.1,30 429.48,50.3 				"/>
			</g>
			<path class="st15" d="M167.29,50.3v13.56c0,9.05,7.34,16.39,16.39,16.39s16.39-7.34,16.39-16.39V50.3H167.29z"/>
			<path class="st11" d="M200.06,50.3v13.56c0,9.05,7.34,16.39,16.39,16.39l0,0c9.05,0,16.39-7.34,16.39-16.39V50.3H200.06z"/>
			<path class="st15" d="M232.84,50.3v13.56c0,9.05,7.34,16.39,16.39,16.39h0c9.05,0,16.39-7.34,16.39-16.39V50.3H232.84z"/>
			<path class="st11" d="M265.61,50.3v13.56c0,9.05,7.34,16.39,16.39,16.39h0c9.05,0,16.39-7.34,16.39-16.39V50.3H265.61z"/>
			<path class="st15" d="M298.38,50.3v13.56c0,9.05,7.34,16.39,16.39,16.39l0,0c9.05,0,16.39-7.34,16.39-16.39V50.3H298.38z"/>
			<path class="st11" d="M331.16,50.3v13.56c0,9.05,7.34,16.39,16.39,16.39h0c9.05,0,16.39-7.34,16.39-16.39V50.3H331.16z"/>
			<path class="st15" d="M363.93,50.3v13.56c0,9.05,7.34,16.39,16.39,16.39h0c9.05,0,16.39-7.34,16.39-16.39V50.3H363.93z"/>
			<path class="st11" d="M396.71,50.3v13.56c0,9.05,7.34,16.39,16.39,16.39c9.05,0,16.39-7.34,16.39-16.39V50.3H396.71z"/>
			<path class="st15" d="M429.48,50.3v13.56c0,9.05,7.34,16.39,16.39,16.39c9.05,0,16.39-7.34,16.39-16.39V50.3H429.48z"/>
		</g>
	</g>
</g>
</svg>
