<?xml version="1.0" encoding="utf-8"?>
<!-- Generator: Adobe Illustrator 23.0.5, SVG Export Plug-In . SVG Version: 6.00 Build 0)  -->
<svg version="1.0" id="Layer_1" xmlns="http://www.w3.org/2000/svg" xmlns:xlink="http://www.w3.org/1999/xlink" x="0px" y="0px"
	 viewBox="0 0 624 320" style="enable-background:new 0 0 624 320;" xml:space="preserve">
<style type="text/css">
	.st0{opacity:0.3;fill:#35B24A;}
	.st1{fill:#A5BACE;}
	.st2{fill:#BAD2ED;}
	.st3{fill:#F0F8FF;}
	.st4{fill:#FF7F27;}
	.st5{fill:#00A26D;}
	.st6{fill:#E25345;}
	.st7{fill:#FF7A70;}
	.st8{fill:#38D69A;}
	.st9{fill:#FFFFFF;}
	.st10{fill:#FF862E;}
	.st11{fill:#224554;}
	.st12{fill:#2C5972;}
	.st13{fill:#FFB27B;}
	.st14{fill:#FF9841;}
	.st15{fill:#FFA668;}
	.st16{fill:#EB8D5A;}
	.st17{fill:#59BDCD;}
	.st18{fill:#E3F0FD;}
	.st19{fill:#2F9AA9;}
	.st20{fill:#E05344;}
	.st21{fill:#FA9960;}
	.st22{fill:#FCC79B;}
	.st23{fill:#C49A7A;}
</style>
<g>
	<rect x="0" class="st0" width="624" height="320"/>
	<g>
		<g>
			<g>
				
					<rect x="452.76" y="53.78" transform="matrix(-1 -1.224647e-16 1.224647e-16 -1 1030.9567 318.3119)" class="st1" width="125.44" height="210.76"/>
				<rect x="448.83" y="53.78" class="st2" width="125.44" height="210.76"/>
				<rect x="457.37" y="65.55" class="st3" width="108.65" height="73.41"/>
				<rect x="505.83" y="207.85" class="st3" width="58.31" height="39.2"/>
				<path class="st4" d="M461.85,103.02c0,0,18.55-2.31,29.89,8.13c11.34,10.44,32.45,0.93,40.96,0
					c14.78-1.61,26.37,3.23,29.81,8.54v15.95H461.85V103.02z"/>
				<rect x="476.23" y="77.35" class="st5" width="0.78" height="24.91"/>
				<rect x="506.74" y="88.04" class="st5" width="0.78" height="24.91"/>
				<rect x="538.22" y="82.4" class="st5" width="0.78" height="24.91"/>
				<path class="st5" d="M485.68,81.17h-5.96c-0.36,0-0.65-0.29-0.65-0.65l0,0c0-0.36,0.29-0.65,0.65-0.65h5.96
					c0.36,0,0.65,0.29,0.65,0.65l0,0C486.33,80.88,486.04,81.17,485.68,81.17z"/>
				<path class="st5" d="M485.68,83.5h-5.96c-0.36,0-0.65-0.29-0.65-0.65l0,0c0-0.36,0.29-0.65,0.65-0.65h5.96
					c0.36,0,0.65,0.29,0.65,0.65l0,0C486.33,83.21,486.04,83.5,485.68,83.5z"/>
				<path class="st5" d="M515.74,93.87h-5.96c-0.36,0-0.65-0.29-0.65-0.65l0,0c0-0.36,0.29-0.65,0.65-0.65h5.96
					c0.36,0,0.65,0.29,0.65,0.65l0,0C516.39,93.57,516.09,93.87,515.74,93.87z"/>
				<path class="st5" d="M515.74,96.15h-5.96c-0.36,0-0.65-0.29-0.65-0.65l0,0c0-0.36,0.29-0.65,0.65-0.65h5.96
					c0.36,0,0.65,0.29,0.65,0.65l0,0C516.39,95.86,516.09,96.15,515.74,96.15z"/>
				<path class="st5" d="M547.74,84.47h-5.96c-0.36,0-0.65-0.29-0.65-0.65l0,0c0-0.36,0.29-0.65,0.65-0.65h5.96
					c0.36,0,0.65,0.29,0.65,0.65l0,0C548.38,84.18,548.09,84.47,547.74,84.47z"/>
				<path class="st5" d="M547.74,86.76h-5.96c-0.36,0-0.65-0.29-0.65-0.65l0,0c0-0.36,0.29-0.65,0.65-0.65h5.96
					c0.36,0,0.65,0.29,0.65,0.65l0,0C548.38,86.47,548.09,86.76,547.74,86.76z"/>
				<g>
					<path class="st3" d="M544.57,157.74c0-5.93,4.8-10.73,10.73-10.73c5.92,0,10.73,4.8,10.73,10.73c0,5.93-4.8,10.73-10.73,10.73
						C549.37,168.47,544.57,163.66,544.57,157.74z"/>
					<path class="st6" d="M565.11,157.74c0,5.42-4.4,9.82-9.82,9.82c-2.56,0-4.89-0.98-6.64-2.58l6.64-7.24v-9.82
						C560.72,147.92,565.11,152.32,565.11,157.74z"/>
					<path class="st5" d="M551.55,156.01h-3.53c-0.16,0-0.3-0.13-0.3-0.3l0,0c0-0.16,0.13-0.3,0.3-0.3h3.53c0.16,0,0.3,0.13,0.3,0.3
						l0,0C551.85,155.88,551.72,156.01,551.55,156.01z"/>
				</g>
				<g>
					<circle class="st3" cx="528.66" cy="157.74" r="10.73"/>
					<path class="st7" d="M528.66,157.74l6.03,7.75c-1.66,1.3-3.76,2.07-6.03,2.07c-5.42,0-9.82-4.4-9.82-9.82
						c0-5.42,4.4-9.82,9.82-9.82c5.12,0,9.33,3.92,9.78,8.92L528.66,157.74z"/>
					<path class="st5" d="M536.22,160.17h-2.45c-0.16,0-0.3-0.13-0.3-0.3l0,0c0-0.16,0.13-0.3,0.3-0.3h2.45c0.16,0,0.3,0.13,0.3,0.3
						l0,0C536.51,160.03,536.38,160.17,536.22,160.17z"/>
				</g>
				<g>
					<path class="st3" d="M544.57,187.29c0-5.92,4.8-10.73,10.73-10.73c5.92,0,10.73,4.8,10.73,10.73c0,5.93-4.8,10.73-10.73,10.73
						C549.37,198.02,544.57,193.21,544.57,187.29z"/>
					<path class="st4" d="M565.11,187.29c0,5.42-4.4,9.82-9.82,9.82c-2.56,0-4.89-0.98-6.64-2.58l6.64-7.24v-9.82
						C560.72,177.47,565.11,181.86,565.11,187.29z"/>
					<path class="st5" d="M551.55,185.56h-3.53c-0.16,0-0.3-0.13-0.3-0.3l0,0c0-0.16,0.13-0.3,0.3-0.3h3.53c0.16,0,0.3,0.13,0.3,0.3
						l0,0C551.85,185.42,551.72,185.56,551.55,185.56z"/>
				</g>
				<g>
					<path class="st3" d="M517.93,187.29c0-5.92,4.8-10.73,10.73-10.73s10.73,4.8,10.73,10.73c0,5.93-4.8,10.73-10.73,10.73
						S517.93,193.21,517.93,187.29z"/>
					<path class="st6" d="M538.44,186.39c-0.45-5-4.66-8.92-9.78-8.92c-5.42,0-9.82,4.4-9.82,9.82c0,5.42,4.4,9.82,9.82,9.82
						c2.27,0,4.37-0.77,6.03-2.07l-6.03-7.75L538.44,186.39z"/>
					<path class="st5" d="M536.22,189.72h-2.45c-0.16,0-0.3-0.13-0.3-0.3l0,0c0-0.16,0.13-0.3,0.3-0.3h2.45c0.16,0,0.3,0.13,0.3,0.3
						l0,0C536.51,189.58,536.38,189.72,536.22,189.72z"/>
				</g>
				<g>
					<polygon class="st5" points="561.63,244.31 508.11,244.31 508.11,212.68 508.78,212.68 508.78,243.64 561.63,243.64 					"/>
				</g>
				<g>
					<path class="st8" d="M524.84,232.87c-6.55-5.22-13.52,0-13.52,0v8.92h48.98v-23.05C546.99,219.08,531.39,238.09,524.84,232.87z
						"/>
					<path class="st8" d="M511.88,215.09h22.83c0.31,0,0.56-0.25,0.56-0.56c0-0.31-0.25-0.56-0.56-0.56h-22.83
						c-0.31,0-0.56,0.25-0.56,0.56C511.32,214.84,511.57,215.09,511.88,215.09z"/>
					<path class="st8" d="M511.88,217.83h22.83c0.31,0,0.56-0.25,0.56-0.56c0-0.31-0.25-0.56-0.56-0.56h-22.83
						c-0.31,0-0.56,0.25-0.56,0.56C511.32,217.58,511.57,217.83,511.88,217.83z"/>
					<path class="st8" d="M511.78,220.42h15.11c0.25,0,0.46-0.21,0.46-0.46v-0.2c0-0.25-0.21-0.46-0.46-0.46h-15.11
						c-0.25,0-0.46,0.21-0.46,0.46v0.2C511.32,220.21,511.53,220.42,511.78,220.42z"/>
				</g>
			</g>
			<g>
				<rect x="256.43" y="21.01" class="st2" width="171.64" height="258.85"/>
				<rect x="273.02" y="35.49" class="st3" width="138.19" height="154.03"/>
				
					<ellipse transform="matrix(0.9988 -0.0498 0.0498 0.9988 -11.5186 15.2808)" class="st3" cx="300.81" cy="238.73" rx="24.85" ry="24.85"/>
				<path class="st4" d="M321.81,238.73c0-11.6-9.4-21.01-21.01-21.01c-11.6,0-21.01,9.41-21.01,21.01c0,11.6,9.4,21.01,21.01,21.01
					c4.79,0,9.21-1.6,12.74-4.31l-12.74-16.7l19.63,7.49C321.33,243.9,321.81,241.37,321.81,238.73z"/>
				
					<ellipse transform="matrix(0.9981 -0.0621 0.0621 0.9981 -14.0892 24.4143)" class="st3" cx="385.48" cy="238.73" rx="24.85" ry="24.85"/>
				<path class="st4" d="M385.48,217.72c-11.6,0-21.01,9.41-21.01,21.01c0,5.74,2.3,10.94,6.04,14.74l14.97-14.74l19.63,7.49
					c0.89-2.33,1.38-4.85,1.38-7.49C406.49,227.13,397.09,217.72,385.48,217.72z"/>
				<g>
					<path class="st9" d="M382.41,228.07h-8.94c-0.35,0-0.64,0.29-0.64,0.64l0,0c0,0.35,0.29,0.64,0.64,0.64h8.94
						c0.35,0,0.64-0.29,0.64-0.64l0,0C383.05,228.35,382.76,228.07,382.41,228.07z"/>
					<path class="st9" d="M382.41,230.09h-8.94c-0.35,0-0.64,0.29-0.64,0.64c0,0.35,0.29,0.64,0.64,0.64h8.94
						c0.35,0,0.64-0.29,0.64-0.64C383.05,230.38,382.76,230.09,382.41,230.09z"/>
					<path class="st9" d="M377.16,232.11h-3.69c-0.35,0-0.64,0.29-0.64,0.64c0,0.35,0.29,0.64,0.64,0.64h3.69
						c0.35,0,0.64-0.29,0.64-0.64C377.8,232.4,377.51,232.11,377.16,232.11z"/>
				</g>
				<g>
					<path class="st9" d="M297.57,228.07h-8.94c-0.35,0-0.64,0.29-0.64,0.64l0,0c0,0.35,0.29,0.64,0.64,0.64h8.94
						c0.35,0,0.64-0.29,0.64-0.64l0,0C298.2,228.35,297.92,228.07,297.57,228.07z"/>
					<path class="st9" d="M297.57,230.09h-8.94c-0.35,0-0.64,0.29-0.64,0.64c0,0.35,0.29,0.64,0.64,0.64h8.94
						c0.35,0,0.64-0.29,0.64-0.64C298.2,230.38,297.92,230.09,297.57,230.09z"/>
					<path class="st9" d="M292.32,232.11h-3.69c-0.35,0-0.64,0.29-0.64,0.64c0,0.35,0.29,0.64,0.64,0.64h3.69
						c0.35,0,0.64-0.29,0.64-0.64C292.96,232.4,292.67,232.11,292.32,232.11z"/>
				</g>
				<g>
					<rect x="285.32" y="90.54" class="st8" width="14.58" height="90.84"/>
					<rect x="309.21" y="65.22" class="st8" width="14.58" height="116.16"/>
					<rect x="335.28" y="112.51" class="st8" width="14.58" height="68.87"/>
					<rect x="360.64" y="80.73" class="st8" width="14.58" height="100.65"/>
					<rect x="386.14" y="125.99" class="st8" width="14.58" height="55.39"/>
				</g>
				<g>
					<path class="st5" d="M374.54,67.63h-12.35c-0.7,0-1.28,0.57-1.28,1.28c0,0.7,0.57,1.28,1.28,1.28h12.35
						c0.7,0,1.28-0.57,1.28-1.28C375.81,68.21,375.24,67.63,374.54,67.63z"/>
					<path class="st5" d="M365,72.28h-2.81c-0.7,0-1.28,0.57-1.28,1.28c0,0.7,0.57,1.28,1.28,1.28H365c0.7,0,1.28-0.57,1.28-1.28
						C366.28,72.86,365.7,72.28,365,72.28z"/>
					<path class="st5" d="M323.65,47.85H311.3c-0.7,0-1.28,0.57-1.28,1.28c0,0.7,0.58,1.28,1.28,1.28h12.35
						c0.7,0,1.28-0.57,1.28-1.28C324.93,48.42,324.35,47.85,323.65,47.85z"/>
					<path class="st5" d="M314.11,52.5h-2.81c-0.7,0-1.28,0.57-1.28,1.28l0,0c0,0.7,0.58,1.28,1.28,1.28h2.81
						c0.7,0,1.28-0.57,1.28-1.28l0,0C315.39,53.07,314.81,52.5,314.11,52.5z"/>
					<path class="st5" d="M348.75,98.95H336.4c-0.7,0-1.28,0.57-1.28,1.28c0,0.7,0.58,1.28,1.28,1.28h12.35
						c0.7,0,1.28-0.57,1.28-1.28C350.02,99.52,349.45,98.95,348.75,98.95z"/>
					<path class="st5" d="M339.21,103.6h-2.81c-0.7,0-1.28,0.57-1.28,1.28l0,0c0,0.7,0.58,1.28,1.28,1.28h2.81
						c0.7,0,1.28-0.57,1.28-1.28l0,0C340.49,104.17,339.91,103.6,339.21,103.6z"/>
					<path class="st5" d="M399.61,112.51h-12.35c-0.7,0-1.28,0.57-1.28,1.28c0,0.7,0.58,1.28,1.28,1.28h12.35
						c0.7,0,1.28-0.57,1.28-1.28C400.88,113.08,400.31,112.51,399.61,112.51z"/>
					<path class="st5" d="M390.07,117.16h-2.81c-0.7,0-1.28,0.57-1.28,1.28c0,0.7,0.58,1.28,1.28,1.28h2.81
						c0.7,0,1.28-0.57,1.28-1.28C391.35,117.73,390.77,117.16,390.07,117.16z"/>
				</g>
			</g>
			<g>
				<rect x="107.83" y="119.13" class="st1" width="125.44" height="70.62"/>
				<rect x="111.91" y="119.13" class="st2" width="125.44" height="70.62"/>
				<circle class="st3" cx="146.22" cy="152.85" r="22.68"/>
				<g>
					<path class="st3" d="M223.25,140.18h-37.57c-1.36,0-2.48,1.11-2.48,2.48l0,0c0,1.36,1.11,2.48,2.48,2.48h37.57
						c1.36,0,2.48-1.11,2.48-2.48l0,0C225.73,141.29,224.61,140.18,223.25,140.18z"/>
					<path class="st3" d="M223.25,150.37h-37.57c-1.36,0-2.48,1.11-2.48,2.48l0,0c0,1.36,1.11,2.48,2.48,2.48h37.57
						c1.36,0,2.48-1.11,2.48-2.48l0,0C225.73,151.49,224.61,150.37,223.25,150.37z"/>
					<path class="st3" d="M223.25,160.57h-37.57c-1.36,0-2.48,1.11-2.48,2.48s1.11,2.48,2.48,2.48h37.57c1.36,0,2.48-1.11,2.48-2.48
						S224.61,160.57,223.25,160.57z"/>
				</g>
				<path class="st8" d="M125.45,152.52h20.77v-20.77C134.75,131.75,125.45,141.05,125.45,152.52z"/>
				<path class="st4" d="M166.98,153.19h-20.77h0h-20.77c0,11.47,9.3,20.77,20.77,20.77l0,0h0c0,0,0,0,0,0l0,0
					C157.69,173.95,166.98,164.65,166.98,153.19z"/>
				<g>
					<path class="st5" d="M142.63,141.84h-11.27c-0.64,0-1.17,0.52-1.17,1.17c0,0.64,0.52,1.17,1.17,1.17h11.27
						c0.64,0,1.17-0.52,1.17-1.17C143.8,142.37,143.27,141.84,142.63,141.84z"/>
					<path class="st5" d="M133.93,146.08h-2.57c-0.64,0-1.17,0.52-1.17,1.17c0,0.64,0.52,1.17,1.17,1.17h2.57
						c0.64,0,1.17-0.52,1.17-1.17C135.09,146.61,134.57,146.08,133.93,146.08z"/>
				</g>
				<g>
					<path class="st9" d="M159.36,158.26h-11.27c-0.64,0-1.17,0.52-1.17,1.17c0,0.64,0.52,1.17,1.17,1.17h11.27
						c0.64,0,1.17-0.52,1.17-1.17C160.53,158.79,160,158.26,159.36,158.26z"/>
					<path class="st9" d="M150.66,162.5h-2.57c-0.64,0-1.17,0.52-1.17,1.17l0,0c0,0.64,0.52,1.17,1.17,1.17h2.57
						c0.64,0,1.17-0.52,1.17-1.17l0,0C151.83,163.03,151.3,162.5,150.66,162.5z"/>
				</g>
			</g>
			<g>
				<path class="st1" d="M99,202.4v72.22h125.44V202.4H99z"/>
				<path class="st2" d="M103.08,202.4v72.22h125.44V202.4H103.08z"/>
				<circle class="st3" cx="137.38" cy="236.28" r="22.68"/>
				<g>
					<path class="st3" d="M176.84,228.56h37.57c1.36,0,2.48-1.11,2.48-2.48c0-1.36-1.11-2.48-2.48-2.48h-37.57
						c-1.36,0-2.48,1.11-2.48,2.48C174.36,227.45,175.48,228.56,176.84,228.56z"/>
					<path class="st3" d="M214.41,233.8h-37.57c-1.36,0-2.48,1.11-2.48,2.48c0,1.36,1.11,2.48,2.48,2.48h37.57
						c1.36,0,2.48-1.11,2.48-2.48C216.89,234.92,215.78,233.8,214.41,233.8z"/>
					<path class="st3" d="M214.41,244h-37.57c-1.36,0-2.48,1.11-2.48,2.48l0,0c0,1.36,1.11,2.48,2.48,2.48h37.57
						c1.36,0,2.48-1.11,2.48-2.48l0,0C216.89,245.11,215.78,244,214.41,244z"/>
				</g>
				<path class="st4" d="M137.38,236.65l-20.76-0.26c0,0.09,0,0.18,0,0.26c0,11.47,9.3,20.77,20.77,20.77
					c4.1,0,7.92-1.19,11.14-3.24L137.38,236.65z"/>
				<g>
					<path class="st9" d="M138.15,243.19h-11.27c-0.64,0-1.17,0.52-1.17,1.17v0c0,0.64,0.52,1.17,1.17,1.17h11.27
						c0.64,0,1.17-0.52,1.17-1.17v0C139.31,243.71,138.79,243.19,138.15,243.19z"/>
					<path class="st9" d="M129.44,247.43h-2.57c-0.64,0-1.17,0.52-1.17,1.17c0,0.64,0.52,1.17,1.17,1.17h2.57
						c0.64,0,1.17-0.52,1.17-1.17C130.61,247.95,130.08,247.43,129.44,247.43z"/>
				</g>
			</g>
			<g>
				<rect x="99" y="42.11" class="st1" width="125.44" height="65.45"/>
				<rect x="103.08" y="42.11" class="st2" width="125.44" height="65.45"/>
				
					<ellipse transform="matrix(0.6834 -0.7301 0.7301 0.6834 -11.8383 124.3009)" class="st3" cx="137.38" cy="75.8" rx="22.68" ry="22.68"/>
				<path class="st8" d="M137.38,55.03c-11.47,0-20.77,9.3-20.77,20.76c0,7.86,4.36,14.69,10.8,18.22
					c3.33-6.16,9.97-18.22,9.97-18.22l9.83,18.29c6.51-3.51,10.93-10.38,10.93-18.29C158.15,64.33,148.85,55.03,137.38,55.03z"/>
				<g>
					<path class="st3" d="M214.41,63.13h-37.57c-1.36,0-2.48,1.11-2.48,2.48l0,0c0,1.36,1.11,2.48,2.48,2.48h37.57
						c1.36,0,2.48-1.11,2.48-2.48l0,0C216.89,64.24,215.78,63.13,214.41,63.13z"/>
					<path class="st3" d="M214.41,73.32h-37.57c-1.36,0-2.48,1.11-2.48,2.48c0,1.36,1.11,2.48,2.48,2.48h37.57
						c1.36,0,2.48-1.11,2.48-2.48C216.89,74.44,215.78,73.32,214.41,73.32z"/>
					<path class="st3" d="M214.41,83.52h-37.57c-1.36,0-2.48,1.11-2.48,2.48c0,1.36,1.11,2.48,2.48,2.48h37.57
						c1.36,0,2.48-1.11,2.48-2.48C216.89,84.63,215.78,83.52,214.41,83.52z"/>
				</g>
				<g>
					<path class="st5" d="M138.15,65.88h-11.27c-0.64,0-1.17,0.52-1.17,1.17c0,0.64,0.52,1.17,1.17,1.17h11.27
						c0.64,0,1.17-0.52,1.17-1.17C139.31,66.41,138.79,65.88,138.15,65.88z"/>
					<path class="st5" d="M129.44,70.12h-2.57c-0.64,0-1.17,0.52-1.17,1.17l0,0c0,0.64,0.52,1.17,1.17,1.17h2.57
						c0.64,0,1.17-0.52,1.17-1.17l0,0C130.61,70.65,130.08,70.12,129.44,70.12z"/>
				</g>
			</g>
		</g>
		<g>
			<path class="st10" d="M257.61,155.14c0,0,14.63,15.11,15.33,20.8c0.7,5.7-6.96,14.61-6.96,14.61L257.61,155.14z"/>
			<path d="M251.36,311.84c0,0-0.5,8.03-2.05,8.15c-0.21,0.02-7.88,0.02-7.88,0.02l-9.79-0.06c0,0,0.06-2.36,2.93-2.86
				c2.86-0.5,7.66-2.51,9.39-6.3C245.77,306.81,251.36,311.84,251.36,311.84z"/>
			<path d="M273.17,311.84c0,0-0.5,8.03-2.05,8.15c-0.21,0.02-7.88,0.02-7.88,0.02l-9.82-0.03c0,0,0.09-2.38,2.96-2.88
				c2.86-0.5,7.66-2.51,9.39-6.3C267.59,306.81,273.17,311.84,273.17,311.84z"/>
			<path class="st11" d="M240.51,225.73c0,0,2.56,16.38,12.12,45.47c9.56,29.09,10.86,41.68,10.86,41.68s2.58,0.37,5.32,0.37
				c1.73,0,4.94-0.66,4.94-0.66s0.09-31.79-4.32-46.41c-4.4-14.63-0.95-52.73-0.95-52.73L240.51,225.73z"/>
			<path class="st12" d="M235.52,214.34c0,0-0.36,24.69,3.91,55.01c4.27,30.32,2.82,43.18,2.82,43.18s3.52,0.63,4.75,0.67
				c1.32,0.04,5.48-0.33,5.48-0.33s6.11-30.33,4.36-45.5c-1.75-15.17,8.37-52.07,8.37-52.07L235.52,214.34z"/>
			<path class="st13" d="M255.33,156.57l-4.83,3.57l-6.97-1.47c0.1-0.64,0.56-3.27,0.98-5.66c0.03-0.14,0.05-0.28,0.07-0.42
				c0.36-2.03,0.67-3.78,0.67-3.78l6.51-3.25l2.43-1.21c-0.01,0.04-0.19,2.25-0.21,2.58C253.52,152.67,255.33,156.57,255.33,156.57z
				"/>
			<path class="st10" d="M244.01,154.76c0.15-0.06,9.49-2.82,10.5-2.48c1.01,0.33,1.61,2.3,1.61,2.3l-15.27,3.45
				C240.86,158.03,242.06,155.58,244.01,154.76z"/>
			<path class="st14" d="M269.15,217.39c-1.58,7.22-27.91,8.07-34.7,1.52c-0.77-0.75-0.81-4.22-0.52-8.91
				c0.57-9.15,2.4-22.92,2.47-29.96c0.03-3.4,0.5-6.87,1.12-10.03c1.32-6.72,3.34-12,3.34-12s12.86-4.16,15.27-3.45
				C267.72,157.98,270.73,210.18,269.15,217.39z"/>
			<path class="st10" d="M233.93,210.01c0.57-9.15,2.4-22.92,2.47-29.96c0.03-3.4,0.5-6.87,1.12-10.03l7.74-1.37
				C245.26,168.66,252.82,199.56,233.93,210.01z"/>
			<path class="st13" d="M238.12,197.25c0,0,0.53,1.26-0.58,2.11c-1.11,0.85-1.83,2.22-1.57,3.22c0.25,1,2.68,2.64,3.53,2.37
				c0.84-0.26,2.56-1.58,2.37-2.11c-0.18-0.53,1.15-4.64-0.9-6.22C238.91,195.04,238.12,197.25,238.12,197.25z"/>
			<path class="st14" d="M246.77,156.17c0,0-7.55,1.41-13.56,10.27c-6.01,8.86-9.97,15.45-8.86,18.64
				c1.11,3.19,11.2,14.27,12.94,14.27c1.74,0,4.55-1.27,4.71-4.11c0,0-7.11-10.65-5.71-12.25c0.6-0.68,9.23-7.69,10.46-4.52
				C248.79,183.71,246.77,156.17,246.77,156.17z"/>
			<path class="st15" d="M253.49,147.04c-1.43,2.74-6.76,5.1-8.98,5.97c0.03-0.14,0.05-0.28,0.07-0.42
				c0.36-2.03,0.67-3.78,0.67-3.78l6.51-3.25C253.2,145.55,254.08,145.91,253.49,147.04z"/>
			<path class="st13" d="M243.15,148.96c0,0,9.64,3.01,11.42-3.03c1.78-6.03,4.22-9.71-1.86-11.88c-6.08-2.18-7.96-0.23-9.05,1.64
				C242.58,137.56,240.69,148.03,243.15,148.96z"/>
			<path d="M244.05,135.11c0,0,0.61,7.02,2.07,6.72c1.45-0.3,2.77-0.53,2.56,1.59c-0.21,2.12-2.23,4.56,2.25,4.93
				c4.47,0.37,10.91-11.17,9.68-13.35C257.05,128.69,238.92,127.42,244.05,135.11z"/>
		</g>
		<g>
			<polygon class="st13" points="70.44,298.27 73.37,310.64 77.77,310.61 77.93,298.27 			"/>
			<polygon class="st13" points="107.42,298.8 115.78,310.64 119.03,306.46 114.01,297.17 			"/>
			<path d="M85.71,135.8c-1.52-0.86-3.34-0.96-4.61-0.88c0.33-0.34,0.97-0.46,0.97-0.46c-0.79-0.12-2.55,0.67-2.55,0.67
				c-10.98-4.23-12.7,11.93-12.47,15.69c0.23,3.75-3.69,4.98-9.4,7.94c-10.9,5.64-11.85,13.2-11.85,13.2
				c0.08,0.05,0.17,0.11,0.27,0.17c0.54-0.92,1.65-2.64,2.59-2.89c-0.04,0.08-1.11,2.37-1.51,3.68c3.21,2.45,9.23,7.86,13.42,11.7
				c-0.02-0.75,0.01-1.82,0.29-2.38l0.52,3.12c2.24,2.06,3.79,3.51,3.79,3.51c-0.28-3.03,13.72-19.04,21.03-23.84
				c1.78-2.62,2.41-7.24,2.46-7.61c-0.31,3.67-0.93,5.72-1.49,6.88C93.33,158.6,89.73,138.09,85.71,135.8z"/>
			<path class="st13" d="M85.75,165.26c0.04,0.02-3.53,1.87-6.21,1.13c-2.52-0.69-4.17-3.96-4.13-3.96
				c1.07-0.21,1.38-1.68,1.35-7.98l0.48,0.1l8.11,1.61c0,0-0.18,2.55-0.19,4.96C85.17,163.12,85.29,165.04,85.75,165.26z"/>
			<path class="st7" d="M76,140c0,0,4-7,9.61-1.77C85.61,138.23,82.1,139.28,76,140z"/>
			<path class="st16" d="M85.36,156.14c0,0-0.18,2.55-0.19,4.96c-4.54-0.13-6.94-4.27-7.92-6.57L85.36,156.14z"/>
			<path d="M76.41,153.65c0,0-2.38-3.76-2.95-6.98c-0.41-2.3,1.54-9.68,9.31-9.58c0,0,2.48,0.24,4.82,1.82
				c1.86,1.25,4.54,3.96,1.54,11.39l-0.78,2.51L76.41,153.65z"/>
			<path class="st17" d="M117.71,303.21l-4.3,0.13l-4.66,0.14c0,0-10.75-11.97-16.79-31.17c-0.14-0.45-0.29-0.9-0.45-1.35
				c-3.3-9.63-10.15-21.71-13.75-32.65c-0.57-1.74-1.09-3.38-1.55-4.93c-0.15-0.5-0.29-0.99-0.43-1.47
				c-2.66-9.24-3.43-15.3-4.14-21.78l26.04,0.21C97.69,210.35,101.89,254.59,117.71,303.21z"/>
			<path class="st18" d="M94.04,195.38c-0.07,12.39,1.82,17.71,1.82,17.71s-11.15,5.67-24.4,1.5c-0.16-0.05-10.97-2.52-10.97-2.52
				c0.22-0.5,2.19-8.85,2.41-9.31c2.8-6.01,4.92-8.64,5.25-10.49c0.62-3.45,0.63-7.02,0.32-10.38c-0.81-8.91-3.21-16.31-3.21-16.31
				c3.61-0.82,7.09-2.23,10.85-3.64c0.86,1.08,3.41,2.16,5.71,2.11c2.64-0.06,3.46-1.17,3.37-2.43c2.81,1.57,5.05,3.05,5.05,3.05
				c2.39,4.15,7.24,8.19,7.59,14.56C97.9,180.8,94.05,195.04,94.04,195.38z"/>
			<path class="st19" d="M71.65,196.76c-1.14,1.61-3.32,11.41-8.75,12.64c2.8-6.98,4.92-10.04,5.25-12.19
				c0.62-4.01,0.63-8.15,0.32-12.06c1.82-3.19,3.17-5.37,3.17-5.37c0.14-0.52,2.89-9.01,3.77-1.42
				C76.29,185.96,72.92,194.96,71.65,196.76z"/>
			<path class="st13" d="M86.88,158.42c0,0-10.74,0.18-10.75-6.52c-0.01-6.69-1.4-11.18,5.46-11.57s8.19,2.16,8.74,4.39
				C90.88,146.96,89.67,158.2,86.88,158.42z"/>
			<path d="M90.01,141c-1.66-2.01-2.91-1.57-3.62-0.97c-2.32-3.47-9.66,1.55-9.66,1.55c-0.72,4.8-4.18,7.55-4.18,7.55
				s1.96,1.21,6.47,0.05c3.55-0.91,6.13-5.97,7.07-8.08c0.64,0.57,1.99,1.88,2.39,3.17c0.54,1.7,0.78,5.21,1.8,5.09
				C90.29,149.36,92.5,144.02,90.01,141z"/>
			<path class="st13" d="M73.22,309.95c0,0,0.35,2.45-0.56,5.07c0,0-0.72,3.28,2.51,3.34c3.23,0.06,4.02-0.24,3.66-2.25
				c-0.37-2.01-1.06-5.49-1.06-5.49L73.22,309.95z"/>
			<path class="st20" d="M79.14,319.97c0,0,0,0-0.01,0.01h-6.68c-0.01-0.01-0.01-0.01-0.01-0.01c-0.37-1.72,0.23-4.95,0.23-4.95
				c3.66,3.5,5.95-0.09,5.95-0.09C79.2,316.43,79.14,319.97,79.14,319.97z"/>
			<path class="st13" d="M126.82,316.58c0,0-5.95-6.76-7.78-10.12l-4.43,2.27l9.9,9.29l2.32-0.3L126.82,316.58z"/>
			<path class="st20" d="M130.47,319.95h-8.26c-0.73-0.66-1.42-1.98-2.27-3.71c-0.49-0.99-1.58-1.54-2.7-1.84v5.55h-1.71l-1.58-5.9
				c-1.05-1.98-0.26-3.79,0.48-5.35c0.86,0,3.36,0.62,7.76,5.68c1.45,1.66,3.04,2.25,4.63,2.2c0.02,0.01,0.04,0.03,0.06,0.04
				C129.39,317.77,130.2,319.18,130.47,319.95z"/>
			<path class="st7" d="M130.07,169.53c0,0-7.05,3.94-9.57,5.08c-0.9,0.4-2.52,1.16-4.18,1.93c-1,0.47-2.01,0.94-2.89,1.36
				c-1.48,0.7-3.24,0.31-4.31-0.93c-3.82-4.46-13.7-14.12-23.91-15.33l-0.04-0.02c0,0,0,0,0,0.01c0,0-0.01,0-0.01,0l0.06,0.11
				c0.57,1.43,6.17,15.41,6.34,18.35c0.18,3.11,0.73,50.82,0.73,50.82s-0.37,2.19,3.84,1.28c4.2-0.91,5.3-1.83,5.3-1.83
				s-4.02-29.43-2.92-39.67c0.22-2.01,0.02-4.27-0.43-6.6c6.22,3.76,13.54,5.44,13.54,5.44s2.73-1.19,6.98-3.82
				c1.78-1.11,3.85-2.87,5.89-4.74c2.46-2.25,6.69-7.7,6.69-7.7L130.07,169.53z"/>
			<path class="st19" d="M113.41,303.35l-4.66,0.14c0,0-10.75-11.97-16.79-31.17c-0.14-0.45-0.29-0.9-0.45-1.35
				c-3.3-9.63-10.15-21.71-13.75-32.65c-0.57-1.74-1.09-3.38-1.55-4.93c-0.15-0.5-0.29-0.99-0.43-1.47l3.84-2.91
				c0,0,11.51,18.65,15.08,36.19C97.79,280.44,110.2,298.78,113.41,303.35z"/>
			<path class="st17" d="M80.02,266.84c0.07,8.53-0.37,28.15-1.48,36.27h-4.12c-2.28,0-3.42-0.03-3.42-0.03
				c-2.79-14.12-4.77-25.81-6.22-35.88c-1.18-8.26-2.24-15.35-3.05-21.45c-0.82-6.14-1.38-11.28-1.58-15.62
				c-0.03-0.68-0.05-1.35-0.07-1.99c-0.01-0.65-0.02-1.28-0.01-1.89l22.5-2.19C82.29,239.01,79.98,261.88,80.02,266.84z"/>
			<path class="st19" d="M74.42,303.11c-2.28,0-3.42-0.03-3.42-0.03c-2.79-14.12-4.77-25.81-6.22-35.88
				c-1.18-8.26-2.24-15.35-3.05-21.45c-0.82-6.14-1.38-11.28-1.58-15.62l8.26,4.86c0,0-5.27,1.86-3.26,15.94
				C67.16,265.01,71.62,301.12,74.42,303.11z"/>
			<path class="st7" d="M75.48,230c0,0-1.58,5.73-7.07,5c-5.48-0.73-13.28-4.02-13.28-4.02s2.34-7.41,5.26-17.13
				c3.53-11.78,7.9-26.96,9.95-36.54c0.58-2.68,0.97-4.92,1.12-6.53l4.64-8.83c0,0,6.69,15.23,7.06,19.07
				C83.52,184.85,75.48,230,75.48,230z"/>
			<path class="st13" d="M95.07,185.29c-2.64,0.35-3.65,1.75-3.98,3.64c-0.18,1.02-0.7,2.03-1.15,2.74
				c-2.63,0.14-8.89,0.48-14.15,0.81l-0.43,6.9c4.32-0.54,9.63-1.63,15.74-3.73c0.47-0.08,1.06-0.37,1.79-0.97
				c3.79-3.1,5.94-8.3,5.94-9.04C98.84,184.91,97.71,184.95,95.07,185.29z"/>
			<path class="st20" d="M75.24,189.05c-0.24,6.22-1.71,18.28-14.75,24.74c-0.03,0.02-0.07,0.03-0.1,0.05
				c3.53-11.78,7.9-26.96,9.95-36.54C72.73,180.88,75.37,185.63,75.24,189.05z"/>
			<path class="st7" d="M76.1,161.94c0,0-11.15,0.79-13.84,6.76c-2.68,5.97-3.53,25.84-0.12,31.69c0,0,4.7,1.34,13.01-0.22
				c0.1-0.02,0.2-0.04,0.31-0.06c0,0,2.65-6.49,0.27-7.77c0,0-7.01,0.37-6.28-1.95C70.19,188.08,76.1,161.94,76.1,161.94z"/>
			<g>
				<path class="st13" d="M137.63,164.84c-6-0.77-7.52,4.69-7.52,4.69l1.12,3.75c1.85,0.26,3.47-0.23,4.96-2.36
					c1.49-2.13,1.9-1.31,2.85-2.9C140.33,165.86,138.32,165.06,137.63,164.84z"/>
				<path class="st13" d="M120.5,174.61c-0.9,0.4-2.52,1.16-4.18,1.93c0.89,1.58,2,4.44,2.29,9.17c1.78-1.11,4.09-2.95,6.06-4.88
					c3.16-3.1,6.52-7.55,6.52-7.55l-1.12-3.75C130.07,169.53,123.01,173.47,120.5,174.61z"/>
			</g>
		</g>
		<g>
			<g>
				<path class="st21" d="M438.83,218.09c0,0-4.27,1.1-6.98,0.28c-2.71-0.82-7.38,0.53-8.13,1.51c-0.75,0.99-0.48,1.38,0.87,1.72
					c1.34,0.34,6.09,2.37,9.22,1.2c3.12-1.17,7.2-1.22,7.2-1.22L438.83,218.09z"/>
				<path class="st22" d="M475.71,181.02c0,0-4.79,34.07-12.73,37.12c-3.92,1.51-21.23,4.92-26.35,5.26c0,0-1.25-1.02-0.95-5.16
					c0,0,18.14-6.66,20.71-10.28c3.83-5.39-2.38-22.01,2.43-27.08C463.64,175.83,471.74,173.66,475.71,181.02z"/>
			</g>
			<path class="st11" d="M475.1,312.3v-7.43h11.69c0.32,0,0.57-0.26,0.57-0.57v-1.19c0-0.32-0.26-0.57-0.57-0.57H475.1v-42.29
				c0-1.19-0.97-2.16-2.16-2.16h-2.31c-1.19,0-2.16,0.97-2.16,2.16v42.29h-11.69c-0.32,0-0.57,0.26-0.57,0.57v1.19
				c0,0.32,0.26,0.57,0.57,0.57h11.69v7.43c-8.46,0.64-15.24,3.69-17.14,7.62h40.91C490.34,315.98,483.56,312.94,475.1,312.3z"/>
			<path class="st11" d="M474.1,252.8c-1.4,2.37-3.02,4.59-4.68,6.7c-5.15,6.5-10.76,11.87-11.74,16.94
				c-0.19,1.01-0.5,2.1-0.91,3.24c-0.41,1.16-0.91,2.38-1.49,3.64c-2.19,4.75-5.46,10.07-8.72,14.91
				c-5.64,8.36-10.95,15.34-10.95,15.34l-9.73-0.41c0.39-0.98,4.63-12.52,10.31-26.63c2.31-5.73,4.76-11.82,7.12-17.7
				c0.32-0.78,0.63-1.57,0.94-2.34c0.72-1.8,1.43-3.57,2.13-5.29c5.33-13.25,9.58-23.8,9.58-23.8s21.31-8.07,23.52-2.84
				C481.31,238.87,479.82,243.1,474.1,252.8z"/>
			<path d="M435.3,311.8c0,0-0.5,8.03-2.05,8.15c-0.21,0.02-7.88,0.02-7.88,0.02l-9.8-0.06c0,0,0.06-2.36,2.93-2.86
				c2.86-0.5,7.66-2.51,9.39-6.3C429.72,306.77,435.3,311.8,435.3,311.8z"/>
			<path d="M457.84,288.86c0,0,6.77,4.35,6.11,5.76c-0.09,0.19-3.83,6.89-3.83,6.89l-4.82,8.52c0,0-2.03-1.21-1.07-3.95
				c0.96-2.74,1.54-7.91-0.92-11.27C450.72,291.29,457.84,288.86,457.84,288.86z"/>
			<path class="st12" d="M448.68,233.57c0,0-26.75,16.66-29.73,27.86c-2.99,11.2,35.58,35.08,35.58,35.08s4.23-3.73,4.98-6.47
				c0,0-17.43-20.88-21.21-25.57c-2.32-2.88,34.34-9.95,38.82-16.92c4.48-6.97,2.88-12.83,2.88-12.83L448.68,233.57z"/>
			<path class="st4" d="M499.16,254.96h-54.74c-1.09,0-1.99,0.9-1.99,1.99v10.95c0,1.09,0.9,1.99,1.99,1.99h54.74
				c1.09,0,1.99-0.9,1.99-1.99v-10.95C501.15,255.86,500.25,254.96,499.16,254.96z"/>
			<path class="st21" d="M461.05,175.18c-2.63,1.63-4.07,3.69-4.07,3.69c6.41,1.66,17.03-4.28,17.03-4.28s-4.12-2.77-5.65-8.86
				c-0.08-0.31-0.15-0.62-0.21-0.94c-0.2-1.03-0.32-2.14-0.35-3.33l-2.94,2.64l-4.89,4.39c0,0,0.11,1.82,0.72,4.95
				C460.78,173.97,460.91,174.56,461.05,175.18z"/>
			<path class="st22" d="M480.76,205.41c-0.92,12.34,0.63,31.11-0.42,34.36c-0.9,2.81-11.47,1.14-15.56,0.21
				c-1.51-0.35-3.34-0.84-5.24-1.43c-5.28-1.63-11.03-3.97-11.65-5.7c-0.02-0.07-0.04-0.13-0.06-0.2c-0.06-0.25-0.04-0.49,0.01-0.73
				c0.21-0.88,1-1.84,1.09-4.03c0.1-2.44,0.09-5.32,0.18-8.41c0-0.35,0.01-0.73,0.05-1.07l0-0.13c0-0.07,0-0.13,0-0.2
				c0.09-3.45,0.27-7.07,0.48-10.67c0.13-2.26,0.29-4.49,0.46-6.64c0.46-5.53,1.08-10.45,1.9-13.56c1.34-5.07,4.3-8.37,6.99-10.8
				l1.95-1.67c2.17,0.47,4.74,0.16,7.07-0.94c2.52-1.19,3.38-2.05,3.82-1.73C477.66,176.58,481.84,190.32,480.76,205.41z"/>
			<path class="st23" d="M459.57,238.58c-5.28-1.63-11.03-3.97-11.65-5.7c-0.02-0.07-0.04-0.13-0.06-0.2c0-0.24,0.01-0.48,0.01-0.73
				c0.21-0.88,1-1.84,1.09-4.03c0.1-2.44,0.09-5.32,0.18-8.41c0-0.35,0.01-0.73,0.05-1.07l0-0.13c0-0.07,0-0.13,0-0.2l19.94-9.04
				C469.15,209.08,470.29,225.15,459.57,238.58z"/>
			<path class="st16" d="M459.95,168.48c0,0,0.11,1.82,0.72,4.95c4.78-1.54,6.95-5.86,7.67-7.69c0.21-0.52,0.3-0.84,0.3-0.84
				s-0.19-0.04-0.51-0.11c-0.67-0.14-1.94-0.41-3.29-0.7L459.95,168.48z"/>
			<path class="st21" d="M458.02,168.43c0,0,10.5,1.18,11.14-5.37c0.64-6.55,2.42-10.81-4.26-11.84c-6.68-1.03-8.22,1.34-8.97,3.47
				C455.19,156.83,455.3,167.95,458.02,168.43z"/>
			<path d="M469.11,163.51c0,0-0.67-8.7-10.22-9.6c-6.55-0.62-2.9-6.25-2.2-7.15c0,0,5.02,0.69,10.16,1.54
				C477.64,150.09,470.17,162.16,469.11,163.51z"/>
			<g>
				
					<rect x="413.43" y="202.09" transform="matrix(0.9511 -0.309 0.309 0.9511 -46.0997 138.4086)" class="st11" width="0.97" height="25.31"/>
				
					<rect x="417.35" y="225.06" transform="matrix(0.9998 -0.0214 0.0214 0.9998 -4.7251 9.248)" class="st11" width="26.56" height="1.59"/>
			</g>
			<g>
				<path class="st22" d="M441.03,223.33c0,0-4.12,1.56-6.91,1.05c-2.79-0.51-7.28,1.34-7.92,2.4c-0.64,1.07-0.32,1.43,1.05,1.62
					c1.37,0.19,6.32,1.68,9.29,0.17c2.98-1.51,7.02-2,7.02-2L441.03,223.33z"/>
				<path class="st22" d="M473.6,182.42c0,0-1.01,34.39-8.56,38.3c-3.73,1.93-20.55,7.23-25.61,8.13c0,0-1.36-0.87-1.51-5.02
					c0,0,17.29-8.62,19.45-12.5c3.22-5.78-4.79-21.62-0.57-27.18C461.03,178.59,468.84,175.54,473.6,182.42z"/>
			</g>
		</g>
	</g>
</g>
</svg>
