<?xml version="1.0" encoding="utf-8"?>
<!-- Generator: Adobe Illustrator 23.0.5, SVG Export Plug-In . SVG Version: 6.00 Build 0)  -->
<svg version="1.0" id="Layer_1" xmlns="http://www.w3.org/2000/svg" xmlns:xlink="http://www.w3.org/1999/xlink" x="0px" y="0px"
	 viewBox="0 0 624 320" style="enable-background:new 0 0 624 320;" xml:space="preserve">
<style type="text/css">
	.st0{opacity:0.3;fill:#35B24A;}
	.st1{fill:#FFC400;}
	.st2{fill:#FFFF00;}
	.st3{fill:#FFF799;}
	.st4{fill:#CCA309;}
	.st5{fill:#587790;}
	.st6{fill:#FFFFFF;}
	.st7{fill:#027787;}
	.st8{fill:#005362;}
	.st9{fill:#E2BF85;}
	.st10{fill:#EDB36A;}
	.st11{fill:#3C3C3B;}
	.st12{opacity:0.4;fill:#1D1D1B;}
	.st13{fill:#1C3238;}
	.st14{fill:#1D1D1B;}
	.st15{fill:#575756;}
	.st16{fill:#F6F6F6;}
	.st17{fill:#DADADA;}
	.st18{fill:#FFBB7D;}
	.st19{opacity:0.1;fill:#1D1D1B;}
	.st20{fill:#FFCEA1;}
	.st21{fill:#FD6222;}
	.st22{fill:#EA4A49;}
	.st23{fill:#C94C20;}
	.st24{fill:#343038;}
	.st25{fill:#A16958;}
	.st26{fill:#78321A;}
	.st27{opacity:0.1;fill:#21211F;}
</style>
<g>
	<rect x="0" class="st0" width="624" height="320"/>
	<g>
		<g id="XMLID_19_">
			<path id="XMLID_8_" class="st1" d="M358.02,33.34c-1.33-5.15-3.43-9.63-5.92-14.29c-1.25-2.33-2.19-7.12-4.07-8.75
				c-0.99-0.86-2.41-0.97-3.71-1.01c-8.89-0.3-20.34-1-28.21,3.56c-6.4,3.7-11.47,9.33-15.25,15.62
				c-7.53,12.54-10.62,28.28-8.87,42.76c2.71,22.57,18.95,34.79,40.6,36.4c2.34,0.17,4.78,0.24,6.9-0.76
				c3.93-1.84,5.4-6.91,7.96-10.11c3.56-4.45,6.6-8.41,8.8-13.82C362.43,67.76,362.09,49.07,358.02,33.34z"/>
			<path id="XMLID_24_" class="st2" d="M368.52,34.31c-3.8-14.7-12.02-27.04-28.32-25.04c-3.77,0.46-7.25,1.49-10.45,2.96
				c-0.14-0.41-0.5-0.74-1.07-0.74c-3.44,0.03-7.77-0.55-11.03,0.63c-0.54,0.19-0.54,0.9,0,1.1c2.63,0.95,5.94,0.76,8.92,0.67
				c-1.06,0.62-2.1,1.29-3.09,2.01c-1.7-0.7-3.88-0.43-5.67-0.52c-2.01-0.1-4.36-0.53-6.19,0.43c-0.39,0.21-0.33,0.75,0,0.97
				c1.7,1.15,4.2,0.94,6.19,1.06c0.94,0.05,1.93,0.2,2.92,0.26c-1.58,1.38-3.06,2.87-4.44,4.49c-1.65-0.11-3.32-0.13-4.92-0.22
				c-2.2-0.12-4.75-0.81-6.56,0.62c-0.15,0.12-0.12,0.37,0,0.49c1.59,1.67,4.39,1.29,6.56,1.47c0.93,0.07,1.87,0.17,2.82,0.26
				c-2.04,2.77-3.82,5.78-5.34,8.96c-3.89-0.23-8.04-0.32-11.72,0.37c-0.56,0.11-0.53,0.97,0,1.1c3.3,0.79,7.03,0.95,10.61,0.94
				c-1.39,3.25-2.53,6.65-3.41,10.1c-1.74-0.55-3.85-0.01-5.65,0.16c-1.99,0.18-4.03,0.31-5.96,0.85c-0.92,0.26-0.65,1.48,0.21,1.57
				c2.2,0.24,4.44-0.02,6.64-0.18c1.42-0.1,2.95-0.03,4.3-0.48c-1.14,5.05-1.75,10.18-1.82,15.14c-1.65-0.03-3.36,0.48-5.01,0.6
				c-1.49,0.11-3.05-0.03-4.38,0.71c-0.37,0.2-0.31,0.69,0,0.91c1.44,1.02,3.45,0.82,5.13,0.7c1.37-0.1,2.92-0.17,4.27-0.63
				c0.04,2.1,0.17,4.17,0.42,6.18c0.17,1.42,0.42,2.79,0.7,4.14c-1.27,0.03-2.59,0.26-3.69,0.33c-1.81,0.11-4.44-0.35-5.7,1.15
				c-0.19,0.22-0.23,0.55,0,0.77c1.5,1.47,4.21,0.68,6.15,0.6c1.24-0.05,2.62,0.07,3.9-0.1c0.59,2.16,1.33,4.2,2.19,6.15
				c-1.06,0.12-2.13,0.39-3.14,0.56c-1.96,0.32-4.02,0.52-5.8,1.46c-0.31,0.16-0.25,0.7,0.1,0.77c1.97,0.41,4,0.03,5.97-0.21
				c1.24-0.15,2.6-0.18,3.84-0.49c1.44,2.86,3.17,5.44,5.09,7.75c-0.67,0.07-1.36,0.22-2.01,0.31c-1.73,0.23-3.5,0.43-5.08,1.2
				c-0.58,0.28-0.44,1.26,0.18,1.39c1.83,0.38,3.73,0.09,5.57-0.12c1.13-0.13,2.31-0.1,3.23-0.65c0.63,0.65,1.28,1.27,1.95,1.86
				c-1.54,0.13-3.15,0.45-4.37,0.99c-0.55,0.25-0.38,1.13,0.17,1.27c1.98,0.48,4.73,0.3,6.71-0.19
				c15.43,11.53,37.75,8.8,48.33-17.21C372.93,68.73,372.59,50.04,368.52,34.31z"/>
			<path id="XMLID_16_" class="st3" d="M361.33,39.75c-2.94-11.37-9.3-20.91-21.91-19.37c-22,2.7-31.49,29.4-29.18,48.67
				c3.43,28.51,37.2,39.82,49.71,9.06C364.74,66.37,364.48,51.92,361.33,39.75z"/>
			<path id="XMLID_26_" class="st4" d="M361.33,39.75c-2.94-11.37-9.3-20.91-21.91-19.37c-7.58,0.93-13.68,4.71-18.32,10.06
				c4.13-3.6,9.14-6.08,15.07-6.81c12.61-1.55,18.96,8,21.91,19.37c3.15,12.17,3.41,26.62-1.37,38.37c-1.63,4-3.62,7.27-5.85,9.91
				c3.56-2.98,6.72-7.3,9.1-13.15C364.74,66.37,364.48,51.92,361.33,39.75z"/>
			<path id="XMLID_25_" class="st4" d="M339.67,55.75c-5.74-2.45-11.03-4.08-10.5-11.54c0.15-2.08,0.78-4.2,2.19-5.75
				c1.41-1.54,3.69-2.38,5.67-1.7c1.97,0.68,3.29,3.1,2.44,5.01c2.3,0.02,4.59,0.05,6.89,0.07c0.66,0.01-0.75-4.69-0.94-5.08
				c-0.9-1.75-2.13-2.75-3.79-3.69c-3.22-1.82-7.15-1.81-10.41,0.03c-5.3,2.99-9.47,11.54-8.26,17.52c0.67,3.29,2.71,6.29,5.53,8.11
				c2.43,1.56,5.3,2.25,7.95,3.38c2.66,1.13,5.29,2.95,6.15,5.7c0.91,2.91,0.85,6.14-1.52,8.36c-1.45,1.36-3.63,1.97-5.52,1.35
				c-1.89-0.61-3.34-2.53-3.22-4.51c-2.51,0.05-5.01,0.71-7.2,1.92c-0.08,7.16,4.55,9.37,10.69,9.18
				c6.96-0.21,13.19-5.82,13.91-12.77C350.46,64.15,346.03,58.46,339.67,55.75z"/>
		</g>
		<g>
			<g>
				<g>
					<path class="st5" d="M512.05,305.28c-1.15,0-1.79-0.04-1.83-0.04l0.12-2c0.01,0,0.89,0.05,2.42,0.03l0.03,2
						C512.53,305.28,512.28,305.28,512.05,305.28z"/>
				</g>
				<g>
					<path class="st5" d="M517.83,305.03l-0.16-1.99c1.62-0.13,3.26-0.32,4.89-0.55l0.28,1.98
						C521.17,304.7,519.48,304.89,517.83,305.03z M527.8,303.61l-0.4-1.96c1.61-0.33,3.22-0.7,4.79-1.11l0.51,1.93
						C531.1,302.9,529.45,303.28,527.8,303.61z M537.53,301.04l-0.63-1.9c1.57-0.52,3.12-1.09,4.61-1.69l0.75,1.86
						C540.73,299.93,539.14,300.51,537.53,301.04z M546.88,297.28l-0.87-1.8c1.48-0.71,2.94-1.48,4.34-2.28l0.99,1.74
						C549.9,295.76,548.4,296.55,546.88,297.28z M555.64,292.29l-1.11-1.66c1.36-0.91,2.7-1.87,3.97-2.87l1.23,1.58
						C558.42,290.36,557.04,291.36,555.64,292.29z M563.59,286.09l-1.34-1.48c1.2-1.09,2.38-2.24,3.5-3.42l1.45,1.38
						C566.04,283.78,564.83,284.97,563.59,286.09z M570.53,278.78l-1.55-1.27c1.02-1.25,2.02-2.57,2.96-3.9l1.64,1.15
						C572.61,276.14,571.58,277.49,570.53,278.78z M576.32,270.55l-1.71-1.03c0.83-1.38,1.63-2.82,2.38-4.28l1.78,0.92
						C578,267.65,577.17,269.13,576.32,270.55z M580.92,261.6l-1.83-0.8c0.64-1.48,1.26-3.01,1.83-4.56l1.88,0.69
						C582.21,258.52,581.58,260.09,580.92,261.6z M584.39,252.18l-1.91-0.58c0.47-1.54,0.91-3.13,1.31-4.74l1.94,0.49
						C585.32,248.98,584.87,250.61,584.39,252.18z M586.83,242.45l-1.96-0.39c0.32-1.58,0.61-3.21,0.86-4.85l1.98,0.31
						C587.45,239.18,587.16,240.84,586.83,242.45z M588.37,232.54l-1.99-0.22c0.19-1.64,0.33-3.29,0.44-4.91l2,0.13
						C588.71,229.19,588.56,230.88,588.37,232.54z M589.06,222.54l-2-0.04c0.02-0.83,0.03-1.65,0.03-2.48
						c0-0.82-0.01-1.64-0.03-2.45l2-0.05c0.02,0.83,0.03,1.66,0.03,2.5C589.08,220.85,589.07,221.69,589.06,222.54z M586.83,212.65
						c-0.11-1.63-0.27-3.28-0.46-4.9l1.99-0.23c0.19,1.65,0.35,3.33,0.47,5L586.83,212.65z M490.05,209.3
						c-1.71-0.03-3.41-0.14-5.04-0.32l0.21-1.99c1.58,0.17,3.22,0.27,4.87,0.3L490.05,209.3z M495.11,209.19l-0.14-1.99
						c1.57-0.11,3.17-0.34,4.77-0.69l0.42,1.96C498.47,208.83,496.77,209.08,495.11,209.19z M480.01,208.21
						c-1.67-0.34-3.32-0.77-4.91-1.27l0.6-1.91c1.52,0.48,3.1,0.89,4.71,1.22L480.01,208.21z M505.06,207.06l-0.67-1.88
						c1.49-0.53,2.99-1.16,4.47-1.89l0.88,1.8C508.19,205.84,506.62,206.51,505.06,207.06z M470.35,205.15
						c-1.55-0.69-3.08-1.46-4.52-2.31l1.01-1.73c1.38,0.81,2.84,1.55,4.32,2.21L470.35,205.15z M585.68,202.87
						c-0.27-1.61-0.58-3.24-0.92-4.83l1.96-0.42c0.35,1.63,0.67,3.29,0.94,4.93L585.68,202.87z M514.18,202.64l-1.05-1.7
						c1.35-0.83,2.71-1.76,4.04-2.74l1.19,1.61C516.99,200.82,515.58,201.77,514.18,202.64z M461.59,200.02
						c-1.35-1.01-2.65-2.12-3.88-3.28l1.38-1.45c1.17,1.11,2.42,2.17,3.71,3.14L461.59,200.02z M522.3,196.63l-1.31-1.51
						c1.21-1.05,2.41-2.17,3.59-3.34l1.41,1.42C524.78,194.4,523.54,195.56,522.3,196.63z M583.6,193.25
						c-0.42-1.58-0.88-3.17-1.38-4.73l1.91-0.61c0.51,1.59,0.98,3.21,1.41,4.82L583.6,193.25z M454.23,193.04
						c-1.08-1.28-2.11-2.64-3.06-4.05l1.66-1.12c0.91,1.35,1.89,2.66,2.93,3.88L454.23,193.04z M529.44,189.53l-1.5-1.32
						c1.07-1.21,2.13-2.48,3.15-3.78l1.57,1.23C531.62,186.99,530.53,188.29,529.44,189.53z M448.56,184.64
						c-0.79-1.47-1.52-3.01-2.17-4.58l1.85-0.77c0.63,1.51,1.33,2.99,2.09,4.4L448.56,184.64z M580.62,183.87
						c-0.57-1.53-1.18-3.07-1.82-4.57l1.84-0.79c0.65,1.54,1.28,3.1,1.86,4.66L580.62,183.87z M535.66,181.62l-1.64-1.15
						c0.93-1.32,1.84-2.71,2.72-4.1l1.7,1.06C537.54,178.86,536.6,180.27,535.66,181.62z M444.66,175.3
						c-0.5-1.6-0.93-3.24-1.29-4.89l1.96-0.42c0.35,1.59,0.76,3.18,1.24,4.72L444.66,175.3z M576.76,174.81
						c-0.71-1.47-1.47-2.95-2.24-4.38l1.76-0.95c0.79,1.46,1.56,2.96,2.29,4.47L576.76,174.81z M540.99,173.1l-1.75-0.97
						c0.8-1.43,1.57-2.89,2.3-4.36l1.79,0.89C542.59,170.15,541.8,171.65,540.99,173.1z M572.07,166.15
						c-0.84-1.4-1.73-2.8-2.64-4.16l1.67-1.11c0.92,1.39,1.83,2.81,2.68,4.24L572.07,166.15z M442.51,165.42
						c-0.21-1.67-0.35-3.36-0.42-5.04l2-0.08c0.07,1.62,0.2,3.26,0.41,4.87L442.51,165.42z M545.46,164.11l-1.83-0.8
						c0.66-1.5,1.29-3.03,1.87-4.56l1.87,0.72C546.77,161.02,546.13,162.58,545.46,164.11z M566.61,157.94
						c-0.96-1.31-1.97-2.63-3-3.91l1.56-1.25c1.05,1.31,2.07,2.65,3.05,3.98L566.61,157.94z M444.1,155.42l-2-0.09
						c0.08-1.69,0.23-3.38,0.45-5.04l1.98,0.27C444.32,152.15,444.18,153.79,444.1,155.42z M549.05,154.74l-1.9-0.63
						c0.51-1.55,1-3.14,1.43-4.71l1.93,0.54C550.07,151.54,549.57,153.15,549.05,154.74z M560.45,150.26
						c-1.08-1.23-2.2-2.45-3.33-3.64l1.45-1.38c1.15,1.21,2.29,2.45,3.39,3.7L560.45,150.26z M445.4,145.75l-1.95-0.45
						c0.38-1.66,0.84-3.3,1.36-4.88l1.9,0.63C446.21,142.58,445.77,144.16,445.4,145.75z M551.74,145.08l-1.95-0.45
						c0.32-1.41,0.61-2.83,0.87-4.25c-0.22-0.2-0.44-0.39-0.66-0.59l1.32-1.5c1.24,1.09,2.48,2.23,3.69,3.39l-1.38,1.44
						c-0.41-0.39-0.82-0.78-1.23-1.16C552.2,143.01,551.98,144.05,551.74,145.08z M546.23,136.62c-1.27-1.03-2.58-2.04-3.9-3.01
						l1.19-1.61c1.34,0.99,2.68,2.02,3.97,3.06L546.23,136.62z M448.47,136.52l-1.82-0.82c0.7-1.56,1.49-3.07,2.33-4.51l1.72,1.02
						C449.9,133.58,449.15,135.03,448.47,136.52z M553.5,135.2l-1.98-0.25c0.21-1.63,0.37-3.27,0.49-4.89l1.99,0.15
						C553.87,131.86,553.7,133.54,553.5,135.2z M538.3,130.77c-1.35-0.91-2.75-1.81-4.15-2.66l1.04-1.71
						c1.43,0.87,2.85,1.78,4.23,2.71L538.3,130.77z M453.41,128.19l-1.59-1.21c1.04-1.36,2.16-2.65,3.34-3.85l1.42,1.41
						C455.46,125.67,454.4,126.9,453.41,128.19z M529.88,125.64c-1.44-0.79-2.91-1.56-4.37-2.28l0.88-1.79
						c1.49,0.73,2.99,1.52,4.45,2.32L529.88,125.64z M554.24,125.19l-2-0.04c0.01-0.65,0.02-1.3,0.02-1.95
						c0-0.99-0.02-1.98-0.05-2.96l2-0.07c0.03,1.01,0.05,2.02,0.05,3.03C554.26,123.86,554.25,124.52,554.24,125.19z M460.2,121.33
						l-1.22-1.58c1.35-1.04,2.78-1.99,4.25-2.83l0.99,1.74C462.83,119.45,461.48,120.35,460.2,121.33z M521.04,121.29
						c-1.5-0.65-3.04-1.28-4.56-1.86l0.71-1.87c1.55,0.59,3.12,1.23,4.65,1.89L521.04,121.29z M511.84,117.8
						c-1.57-0.51-3.16-0.97-4.72-1.39l0.51-1.93c1.59,0.42,3.22,0.9,4.82,1.42L511.84,117.8z M468.57,116.56l-0.74-1.86
						c1.56-0.62,3.19-1.15,4.85-1.58l0.49,1.94C471.59,115.46,470.05,115.97,468.57,116.56z M551.91,115.33
						c-0.15-1.63-0.34-3.27-0.58-4.87l1.98-0.29c0.24,1.64,0.44,3.32,0.59,4.99L551.91,115.33z M502.33,115.28
						c-1.62-0.33-3.25-0.62-4.84-0.86l0.29-1.98c1.63,0.24,3.3,0.53,4.95,0.88L502.33,115.28z M477.94,114.16l-0.26-1.98
						c1.65-0.22,3.34-0.37,5.03-0.46l0.11,2C481.17,113.8,479.53,113.95,477.94,114.16z M492.61,113.87
						c-1.63-0.14-3.28-0.22-4.9-0.25l0.03-2c1.66,0.03,3.36,0.11,5.03,0.25L492.61,113.87z M550.47,105.63
						c-0.34-1.6-0.73-3.21-1.16-4.77l1.93-0.53c0.44,1.6,0.84,3.25,1.19,4.89L550.47,105.63z M547.86,96.18
						c-0.53-1.54-1.12-3.09-1.75-4.58l1.85-0.77c0.64,1.54,1.25,3.12,1.79,4.7L547.86,96.18z M544.07,87.13
						c-0.72-1.46-1.5-2.92-2.32-4.32l1.73-1c0.84,1.44,1.64,2.93,2.38,4.43L544.07,87.13z M539.16,78.65
						c-0.9-1.35-1.86-2.69-2.85-3.99l1.59-1.21c1.01,1.33,2,2.7,2.93,4.09L539.16,78.65z M533.21,70.86
						c-1.06-1.23-2.18-2.44-3.32-3.61l1.43-1.4c1.17,1.2,2.32,2.44,3.41,3.7L533.21,70.86z M526.35,63.84
						c-1.19-1.08-2.44-2.16-3.72-3.21l1.26-1.55c1.31,1.07,2.59,2.17,3.81,3.28L526.35,63.84z M518.74,57.63
						c-1.3-0.95-2.66-1.89-4.04-2.8l1.1-1.67c1.41,0.93,2.8,1.89,4.12,2.86L518.74,57.63z M510.52,52.22
						c-1.39-0.82-2.83-1.63-4.29-2.41l0.94-1.76c1.49,0.79,2.96,1.62,4.37,2.46L510.52,52.22z M501.84,47.58
						c-1.47-0.71-2.98-1.4-4.48-2.05l0.8-1.83c1.53,0.66,3.06,1.37,4.55,2.08L501.84,47.58z M492.79,43.65
						c-1.51-0.59-3.07-1.17-4.63-1.72l0.66-1.89c1.58,0.56,3.16,1.14,4.69,1.74L492.79,43.65z M483.48,40.37
						c-1.56-0.49-3.15-0.97-4.73-1.42l0.54-1.92c1.6,0.45,3.21,0.94,4.79,1.44L483.48,40.37z M473.98,37.67
						c-1.58-0.4-3.18-0.78-4.81-1.15l0.44-1.95c1.63,0.37,3.26,0.76,4.86,1.16L473.98,37.67z M464.33,35.49
						c-1.6-0.32-3.22-0.62-4.86-0.91l0.34-1.97c1.66,0.29,3.3,0.6,4.91,0.92L464.33,35.49z M454.59,33.79
						c-1.61-0.24-3.24-0.47-4.9-0.69l0.26-1.98c1.67,0.22,3.32,0.45,4.94,0.7L454.59,33.79z M444.77,32.51
						c-1.62-0.18-3.26-0.34-4.93-0.5l0.18-1.99c1.68,0.15,3.33,0.32,4.96,0.5L444.77,32.51z M434.9,31.6
						c-1.63-0.12-3.28-0.23-4.94-0.32l0.11-2c1.68,0.09,3.34,0.2,4.98,0.32L434.9,31.6z M425.01,31.04
						c-1.63-0.07-3.28-0.12-4.95-0.16l0.05-2c1.68,0.04,3.34,0.1,4.99,0.16L425.01,31.04z M400.22,30.93l-0.06-2
						c1.68-0.05,3.34-0.09,4.98-0.11l0.03,2C403.54,30.85,401.89,30.89,400.22,30.93z M415.1,30.79c-1.26-0.01-2.52-0.02-3.8-0.02
						l-1.15,0l-0.01-2l1.16,0c1.28,0,2.56,0.01,3.82,0.02L415.1,30.79z"/>
				</g>
				<g>
					<path class="st5" d="M392.33,31.24l-0.1-2c0.84-0.04,1.67-0.08,2.5-0.11l0.08,2C394,31.16,393.17,31.2,392.33,31.24z"/>
				</g>
			</g>
			<g>
				<g>
					<path class="st6" d="M459.98,131.06H326.74c0,0-14.95,3.11-13.22,15.89l-0.14,147.35h102.4c0,0-2.82,13.97,14.3,14.75
						c0,0,12.51,0.98,15.44-12.82l0.6-150.86C446.11,145.37,445.03,134.76,459.98,131.06z"/>
					<path class="st5" d="M429.76,309.05l-125.58-0.12c0,0-13.09-3.16-10.94-14.64h123.63
						C416.87,294.29,414.37,308.12,429.76,309.05z"/>
					
						<rect x="345.84" y="148.1" transform="matrix(-1 -1.390145e-11 1.390145e-11 -1 780.1339 299.6548)" class="st5" width="88.45" height="3.46"/>
					
						<rect x="345.84" y="156.48" transform="matrix(-1 -1.388102e-11 1.388102e-11 -1 780.1339 316.4247)" class="st5" width="88.45" height="3.46"/>
					
						<rect x="345.84" y="164.87" transform="matrix(-1 -1.388102e-11 1.388102e-11 -1 780.1339 333.1946)" class="st5" width="88.45" height="3.46"/>
					
						<rect x="345.84" y="173.25" transform="matrix(-1 -1.388102e-11 1.388102e-11 -1 780.1339 349.9645)" class="st5" width="88.45" height="3.46"/>
					
						<rect x="345.84" y="181.64" transform="matrix(-1 -1.388102e-11 1.388102e-11 -1 780.1339 366.7344)" class="st5" width="88.45" height="3.46"/>
					
						<rect x="345.84" y="190.02" transform="matrix(-1 -1.388102e-11 1.388102e-11 -1 780.1339 383.5043)" class="st5" width="88.45" height="3.46"/>
					<path class="st5" d="M445.97,173.13h29.93v-28.38h0.16c0-7.77-6.71-13.4-14.98-13.4c-8.27,0-14.98,7.11-14.98,13.4h0.04
						L445.97,173.13z"/>
				</g>
				<g>
					<polygon class="st7" points="404.79,190.11 403.79,196.11 408.79,195.11 					"/>
					<polygon class="st8" points="408.79,195.11 484.79,136.11 480.79,130.11 404.79,190.11 					"/>
					<g>
						<path class="st9" d="M448.79,168.11c0,0,0,4-2,4s-4-3-4-3l-0.5-1.5c0,0-4-8,0-10c0,0,1-1,2,0c0,0,1,8,3,8l1-1
							C448.29,164.61,449.29,164.61,448.79,168.11z"/>
						<g>
							<path class="st9" d="M464.29,140.61v4c0,0,0,7,6,7s5-2,5-2v-6l-4-6L464.29,140.61z"/>
							<path class="st10" d="M469.29,159.61l2.07-2.46c0,0-0.07-3.54-1.07-5.54c0,0,5-3,5-7c0,0,2,7,7,10s0,10,0,10L469.29,159.61z"
								/>
							<path d="M464.29,144.61c0,0,2,1,2-1c0,0,2,3,4,2s5-2,5-2s3-2,0-7s-8-5-10-3s-4,4-6,3
								C459.29,136.61,459.29,143.61,464.29,144.61z"/>
							<path d="M502.29,290.61c0,0,2,4-1,7s-15,13-4,9c0,0,7-6,10-5s2-3,0-8s-4-15-4-15L502.29,290.61z"/>
							<path d="M481.29,284.61v13c0,0,3,7,2,9h-4c0,0,0-2-6,1s-11,1-2-3c0,0,5-3,6-7s1-16,1-16L481.29,284.61z"/>
							<path class="st8" d="M494.29,201.61l5.14,3.12c0,0,1.86,14.88-2.14,32.88c0,0-1,6,4,15c5,9,6,41,6,41h-6c0,0-5-28-14-42
								c0,0-3-4-2-23s1-24,1-24L494.29,201.61z"/>
							<path class="st7" d="M488.29,201.61l3.25,9.48c0,0,0.75,11.52-6.25,28.52c0,0-4,6-2,14c2,8,2,33-2,44h-4c0,0-2-34-6-44
								c0,0-1,1,1-17s3-34,3-34L488.29,201.61z"/>
							<path class="st2" d="M466.29,173.61l4,6c0,0,6,11,3,23s7,11,7,11s12,1,20-10c0,0-2-5-3-13s0-29-15-36c0,0-4,3-8,2
								c-2,0-6,9-6,9L466.29,173.61z"/>
							<path class="st1" d="M442.79,169.11c0,0,3,2,6-1c0,0,3.5,9.5,6.5,11.5c0,0,8-23,19-23c0,0-2,7-1,11c0,0,0,9-3,12
								c0,0-14,19-19,10C451.29,189.61,443.29,180.61,442.79,169.11z"/>
						</g>
					</g>
					<g>
						<g>
							<path class="st5" d="M401.24,231.68c-0.62,0-1.11-0.16-1.49-0.54c-0.5-0.5-0.68-1.13-0.49-1.76c1-3.29,12.4-5.81,15.87-6.51
								c3.25-0.65,5.31-1.82,5.95-3.38c0.71-1.72-0.42-3.45-0.43-3.46c-0.64-0.79-1.36-1.18-2.18-1.11
								c-2.42,0.18-5.19,4.08-6.05,5.57c-0.75,1.03-3.21,4.12-5.19,3.47c-1.53-0.5-1.71-2.72-1.71-4.35c0-0.91-0.11-1.31-0.18-1.46
								c-1.04,0.42-3.9,4.79-6.4,9.79l-1.37-0.6c2.92-7.79,3.45-18.17,3.45-18.27c0.27-4.02-0.63-4.65-0.91-4.75
								c-1.98-0.68-7.46,5.55-10.73,10.21l-1.23-0.86c1.42-2.03,8.7-12.09,12.45-10.77c1.53,0.54,2.15,2.58,1.91,6.25
								c-0.01,0.31-0.3,6.02-1.67,12.21c1.8-2.88,3.62-5.02,4.89-4.72c1.28,0.3,1.28,2.23,1.28,2.96c0,2.63,0.61,2.9,0.68,2.92
								c0.64,0.21,2.35-1.34,3.47-2.87c0.1-0.18,3.49-5.97,7.19-6.25c1.33-0.09,2.5,0.48,3.5,1.72c0.1,0.15,1.62,2.47,0.61,4.92
								c-0.86,2.08-3.23,3.52-7.05,4.28c-10.14,2.03-14.41,4.43-14.73,5.47c-0.02,0.05-0.04,0.12,0.11,0.26
								c0.4,0.4,2.63-0.34,4.77-1.07c5.34-1.79,14.26-4.79,27.73-4.15l-0.07,1.5c-13.19-0.63-21.95,2.32-27.18,4.08
								C403.9,231.16,402.35,231.68,401.24,231.68z"/>
						</g>
					</g>
				</g>
			</g>
			<g>
				<polygon class="st8" points="412,19.06 387,30.06 412,30.06 				"/>
				<polygon class="st7" points="412,41.06 387,30.06 412,30.06 				"/>
			</g>
		</g>
		<g>
			<g>
				<g>
					<path class="st5" d="M87.11,310.94c-0.04-0.01-0.92-0.29-2.43-0.95l0.8-1.83c1.39,0.61,2.21,0.87,2.22,0.87L87.11,310.94z"/>
				</g>
				<g>
					<path class="st5" d="M80.15,307.71c-1.43-0.81-2.88-1.72-4.29-2.69l1.13-1.65c1.36,0.94,2.75,1.81,4.14,2.6L80.15,307.71z
						 M71.82,301.99c-1.29-1.05-2.57-2.17-3.79-3.33l1.38-1.45c1.19,1.13,2.43,2.21,3.68,3.23L71.82,301.99z M64.5,295.06
						c-1.12-1.23-2.22-2.53-3.26-3.85l1.57-1.24c1.01,1.28,2.08,2.54,3.17,3.74L64.5,295.06z M58.26,287.16
						c-0.93-1.37-1.84-2.8-2.7-4.25l1.72-1.02c0.84,1.41,1.72,2.81,2.63,4.14L58.26,287.16z M53.14,278.5
						c-0.75-1.48-1.47-3-2.14-4.55l1.83-0.8c0.66,1.5,1.36,3,2.09,4.44L53.14,278.5z M49.12,269.29c-0.57-1.55-1.12-3.15-1.62-4.75
						l1.91-0.59c0.49,1.57,1.02,3.14,1.58,4.65L49.12,269.29z M46.14,259.71c-0.41-1.6-0.79-3.24-1.13-4.88l1.96-0.41
						c0.34,1.61,0.71,3.23,1.11,4.79L46.14,259.71z M44.09,249.89c-0.26-1.62-0.5-3.29-0.7-4.96l1.99-0.24
						c0.2,1.64,0.43,3.28,0.69,4.88L44.09,249.89z M42.89,239.96c-0.13-1.63-0.24-3.31-0.32-4.99l2-0.09
						c0.08,1.66,0.18,3.32,0.32,4.92L42.89,239.96z M42.42,229.96c-0.01-0.7-0.01-1.4-0.01-2.11c0-0.95,0.01-1.92,0.03-2.9l2,0.04
						c-0.02,0.96-0.03,1.92-0.03,2.86c0,0.7,0,1.39,0.01,2.08L42.42,229.96z M161.86,220.19c-0.41,0-0.82-0.01-1.23-0.02l0.06-2
						c1.62,0.05,3.25,0,4.83-0.17l0.21,1.99C164.46,220.12,163.16,220.19,161.86,220.19z M44.59,220.06l-2-0.11
						c0.09-1.68,0.22-3.36,0.4-5l1.99,0.21C44.81,216.78,44.68,218.42,44.59,220.06z M155.56,219.69c-1.64-0.26-3.31-0.62-4.96-1.07
						l0.53-1.93c1.58,0.43,3.18,0.78,4.74,1.02L155.56,219.69z M170.74,219.16l-0.44-1.95c1.59-0.35,3.16-0.8,4.67-1.33l0.66,1.89
						C174.04,218.32,172.4,218.79,170.74,219.16z M145.78,217.03c-1.54-0.6-3.1-1.28-4.63-2.04l0.89-1.79
						c1.48,0.73,2.98,1.39,4.47,1.96L145.78,217.03z M180.32,215.81l-0.88-1.79c1.45-0.71,2.87-1.52,4.2-2.4l1.1,1.67
						C183.33,214.21,181.85,215.06,180.32,215.81z M136.72,212.57c-1.42-0.85-2.84-1.79-4.22-2.77l1.16-1.63
						c1.34,0.95,2.72,1.86,4.09,2.69L136.72,212.57z M45.64,210.3l-1.97-0.32c0.27-1.65,0.59-3.31,0.95-4.93l1.95,0.44
						C46.21,207.06,45.9,208.68,45.64,210.3z M188.81,210.22l-1.3-1.52c1.22-1.04,2.39-2.18,3.47-3.37l1.48,1.34
						C191.32,207.93,190.09,209.13,188.81,210.22z M128.5,206.73c-1.28-1.05-2.55-2.17-3.78-3.33l1.37-1.46
						c1.2,1.13,2.43,2.22,3.68,3.25L128.5,206.73z M195.64,202.7l-1.64-1.15c0.92-1.31,1.78-2.7,2.54-4.13l1.76,0.94
						C197.5,199.87,196.61,201.32,195.64,202.7z M47.78,200.73l-1.92-0.55c0.46-1.61,0.98-3.22,1.53-4.79l1.88,0.67
						C48.73,197.59,48.23,199.16,47.78,200.73z M121.18,199.82c-1.13-1.22-2.25-2.49-3.32-3.78l1.54-1.27
						c1.04,1.26,2.13,2.51,3.24,3.69L121.18,199.82z M200.43,193.75l-1.86-0.73c0.59-1.5,1.09-3.05,1.5-4.61l1.93,0.51
						C201.58,190.56,201.05,192.18,200.43,193.75z M114.78,192.06c-0.98-1.35-1.94-2.74-2.84-4.15l1.68-1.08
						c0.88,1.38,1.82,2.74,2.77,4.05L114.78,192.06z M51.05,191.49l-1.84-0.78c0.65-1.54,1.37-3.07,2.11-4.56l1.79,0.9
						C52.39,188.5,51.69,189.99,51.05,191.49z M203.01,183.94l-1.98-0.28c0.23-1.59,0.36-3.22,0.41-4.83l2,0.05
						C203.4,180.56,203.25,182.27,203.01,183.94z M109.34,183.61c-0.82-1.45-1.61-2.95-2.34-4.45l1.8-0.88
						c0.72,1.47,1.49,2.93,2.29,4.35L109.34,183.61z M55.45,182.73l-1.73-1.01c0.84-1.44,1.73-2.87,2.67-4.26l1.66,1.11
						C57.14,179.93,56.27,181.33,55.45,182.73z M60.9,174.58l-1.59-1.21c1.01-1.33,2.08-2.65,3.17-3.92l1.52,1.3
						C62.93,171.99,61.89,173.28,60.9,174.58z M104.92,174.58c-0.65-1.54-1.26-3.11-1.81-4.69l1.88-0.67
						c0.55,1.54,1.14,3.08,1.77,4.58L104.92,174.58z M201.29,173.97c-0.15-1.61-0.39-3.22-0.72-4.79l1.96-0.42
						c0.35,1.65,0.61,3.34,0.76,5.03L201.29,173.97z M67.31,167.12l-1.44-1.39c1.15-1.19,2.36-2.37,3.59-3.52l1.36,1.47
						C69.61,164.8,68.43,165.96,67.31,167.12z M101.56,165.1c-0.47-1.61-0.89-3.25-1.26-4.87l1.95-0.44
						c0.36,1.58,0.77,3.18,1.23,4.75L101.56,165.1z M199.27,164.5c-0.53-1.53-1.15-3.03-1.86-4.47l1.79-0.88
						c0.74,1.51,1.4,3.1,1.95,4.7L199.27,164.5z M74.52,160.44l-1.28-1.54c1.28-1.07,2.61-2.11,3.95-3.11l1.19,1.6
						C77.08,158.37,75.78,159.4,74.52,160.44z M195,155.82c-0.88-1.34-1.86-2.64-2.91-3.87l1.52-1.3c1.1,1.29,2.13,2.66,3.06,4.07
						L195,155.82z M99.34,155.3c-0.27-1.65-0.5-3.33-0.68-4.98l1.99-0.21c0.17,1.62,0.39,3.25,0.66,4.86L99.34,155.3z M82.41,154.56
						l-1.11-1.66c1.37-0.92,2.8-1.83,4.24-2.7l1.03,1.71C85.15,152.76,83.75,153.65,82.41,154.56z M90.84,149.47l-0.95-1.76
						c1.46-0.79,2.96-1.56,4.47-2.29l0.87,1.8C93.75,147.93,92.27,148.69,90.84,149.47z M188.72,148.48
						c-1.18-1.08-2.45-2.1-3.77-3.04l1.16-1.63c1.39,0.99,2.72,2.06,3.96,3.19L188.72,148.48z M98.29,145.3
						c-0.06-1.24-0.08-2.5-0.08-3.74c0-0.43,0-0.85,0.01-1.28l2,0.03c-0.01,0.42-0.01,0.84-0.01,1.25c0,0.4,0,0.81,0.01,1.21
						c1.11-0.46,2.24-0.92,3.36-1.34l0.71,1.87c-1.34,0.51-2.69,1.06-4.01,1.62c0,0.1,0.01,0.2,0.01,0.29L98.29,145.3z
						 M180.84,142.85c-1.39-0.77-2.86-1.49-4.37-2.13l0.78-1.84c1.57,0.67,3.1,1.42,4.56,2.23L180.84,142.85z M108.94,141.63
						l-0.64-1.9c1.58-0.53,3.19-1.03,4.78-1.5l0.56,1.92C112.07,140.61,110.49,141.11,108.94,141.63z M171.9,139.02
						c-1.5-0.49-3.09-0.93-4.71-1.33l0.47-1.94c1.67,0.41,3.31,0.87,4.85,1.37L171.9,139.02z M118.4,138.87l-0.48-1.94
						c1.61-0.4,3.26-0.77,4.89-1.11l0.4,1.96C121.61,138.12,119.99,138.48,118.4,138.87z M128.07,136.89l-0.32-1.97
						c1.64-0.27,3.31-0.5,4.97-0.7l0.24,1.99C131.33,136.4,129.68,136.63,128.07,136.89z M162.38,136.69
						c-1.57-0.28-3.21-0.51-4.86-0.7l0.23-1.99c1.69,0.19,3.37,0.44,4.98,0.72L162.38,136.69z M137.86,135.71l-0.16-1.99
						c1.67-0.13,3.36-0.22,5.01-0.28l0.07,2C141.16,135.49,139.5,135.59,137.86,135.71z M152.62,135.56
						c-1.61-0.1-3.26-0.16-4.92-0.18l0.02-2c1.69,0.02,3.38,0.08,5.02,0.18L152.62,135.56z M100.43,135.4l-1.99-0.15
						c0.13-1.66,0.3-3.34,0.53-5l1.98,0.27C100.73,132.14,100.56,133.78,100.43,135.4z M101.76,125.68l-1.96-0.39
						c0.32-1.63,0.7-3.28,1.12-4.9l1.94,0.5C102.44,122.47,102.07,124.09,101.76,125.68z M104.22,116.17l-1.9-0.61
						c0.51-1.58,1.07-3.17,1.67-4.74l1.87,0.72C105.26,113.07,104.71,114.63,104.22,116.17z M107.74,106.99l-1.83-0.82
						c0.68-1.51,1.41-3.04,2.17-4.53l1.78,0.91C109.11,104.02,108.4,105.51,107.74,106.99z M112.21,98.24l-1.73-1
						c0.83-1.43,1.71-2.87,2.61-4.28l1.68,1.08C113.89,95.42,113.02,96.84,112.21,98.24z M117.54,89.96l-1.63-1.15
						c0.97-1.37,1.96-2.73,2.95-4.04l1.6,1.21C119.47,87.26,118.49,88.6,117.54,89.96z M123.48,82.07l-1.56-1.25
						c1.04-1.29,2.12-2.59,3.2-3.84l1.52,1.3C125.57,79.52,124.51,80.8,123.48,82.07z M129.92,74.59l-1.47-1.35
						c1.12-1.22,2.28-2.44,3.45-3.63l1.43,1.4C132.17,72.19,131.02,73.39,129.92,74.59z M136.84,67.55l-1.38-1.45
						c1.21-1.15,2.45-2.29,3.68-3.39l1.33,1.49C139.25,65.29,138.03,66.41,136.84,67.55z M144.2,60.98l-1.28-1.54
						c1.27-1.06,2.58-2.12,3.89-3.14l1.23,1.58C146.75,58.89,145.46,59.93,144.2,60.98z M151.98,54.91l-1.18-1.62
						c1.32-0.97,2.7-1.94,4.09-2.88l1.13,1.65C154.65,53,153.29,53.95,151.98,54.91z M160.15,49.35l-1.07-1.69
						c1.41-0.89,2.85-1.77,4.27-2.61l1.02,1.72C162.96,47.6,161.54,48.47,160.15,49.35z M168.65,44.32l-0.96-1.75
						c1.47-0.81,2.95-1.6,4.42-2.34l0.91,1.78C171.57,42.75,170.1,43.53,168.65,44.32z M177.45,39.83l-0.86-1.81
						c1.5-0.71,3.03-1.41,4.55-2.08l0.8,1.83C180.44,38.44,178.93,39.13,177.45,39.83z M186.5,35.85L185.75,34
						c1.54-0.63,3.11-1.23,4.66-1.81l0.7,1.87C189.58,34.63,188.03,35.24,186.5,35.85z M195.76,32.4l-0.65-1.89
						c1.59-0.55,3.18-1.06,4.75-1.56l0.6,1.91C198.91,31.34,197.34,31.86,195.76,32.4z M205.2,29.44l-0.55-1.92
						c1.62-0.46,3.23-0.9,4.82-1.31l0.5,1.94C208.4,28.54,206.81,28.98,205.2,29.44z M214.79,26.95l-0.46-1.95
						c1.65-0.39,3.28-0.75,4.88-1.08l0.41,1.96C218.03,26.22,216.42,26.57,214.79,26.95z M224.48,24.93l-0.37-1.97
						c1.68-0.31,3.32-0.6,4.92-0.86l0.32,1.97C227.77,24.33,226.14,24.62,224.48,24.93z M234.26,23.33l-0.28-1.98
						c1.71-0.24,3.36-0.46,4.95-0.66l0.24,1.98C237.59,22.87,235.95,23.09,234.26,23.33z M244.1,22.12l-0.21-1.99
						c1.76-0.18,3.42-0.34,4.97-0.48l0.18,1.99C247.49,21.77,245.84,21.93,244.1,22.12z"/>
				</g>
				<g>
					<path class="st5" d="M254.12,21.2l-0.16-1.99c0.89-0.07,1.71-0.14,2.48-0.21l0.17,1.99C255.84,21.05,255.01,21.12,254.12,21.2z
						"/>
				</g>
			</g>
			<g>
				<g>
					<path class="st11" d="M243.28,156.34l-6.88,21.22c-0.62,0.41-1.25,0.81-1.9,1.22c-10.03,6.37-22.59,12.76-24.73,10.68
						c-1.84-1.79-2.76-4.64-1.99-7.24c0,0,14.4-9.17,18.03-12.74l5.23-18.38C233.83,142.47,246.84,145.33,243.28,156.34z"/>
					<path class="st12" d="M234.5,178.78c-10.03,6.37-22.59,12.76-24.73,10.68c9.41-4.31,17.42-11.06,24.4-19.65L234.5,178.78z"/>
					<path d="M233.15,294.23c2.12,0.03,8.47-2.6,12.12-4.88h0.01v-0.01c0.17-0.1,0.33-0.21,0.49-0.32c0,0,0.01,0.01,0.01,0
						c0.31-0.21,0.59-0.42,0.85-0.62c0.26-0.19,0.49-0.39,0.68-0.57c0.28-0.28,0.47-0.52,0.57-0.75c-0.03-1.12-0.1-2.2-0.25-3.18
						c-0.18-1.25-0.48-2.35-0.95-3.19l-0.45-4.14l-0.15-1.34h-9.44l0.21,2.72l0.26,3.27c0,0-0.1,0.16-0.32,0.47
						c-0.72,0.99-2.78,3.46-7.21,6.55C227.85,289.45,227.7,294.23,233.15,294.23z"/>
					<g>
						<g>
							<path class="st13" d="M236.1,207.73l-2.39,30.61c0.53,16.37,2.25,23.51,2.93,42.4c0.14,3.82,11.92,5.41,11.64,2.49
								c0.8-12.64,1.37-28.35-0.42-39.65c2.49-8.92,4.2-22.67,4.25-31.07L236.1,207.73z"/>
						</g>
						<g>
							<path class="st14" d="M236.1,207.73l-2.39,30.61c0.53,16.37,2.25,23.51,2.93,42.4c0.14,3.82,11.92,5.41,11.64,2.49
								c0.8-12.64,1.37-28.35-0.42-39.65c2.49-8.92,4.2-22.67,4.25-31.07L236.1,207.73z"/>
						</g>
					</g>
					<path d="M253,309.06c2.12,0.03,8.47-2.6,12.12-4.87v-0.01c0.18-0.1,0.34-0.21,0.49-0.32c0,0,0,0,0.01,0
						c0.3-0.2,0.59-0.41,0.84-0.62c0.16-0.12,0.31-0.24,0.45-0.35c0.08-0.08,0.17-0.15,0.24-0.22c0.28-0.27,0.47-0.52,0.57-0.74
						c-0.03-1.12-0.09-2.2-0.25-3.18c-0.01-0.04-0.01-0.08-0.02-0.13c-0.18-1.2-0.47-2.26-0.93-3.07l-0.45-4.13l-0.14-1.34h-9.44
						l0.2,2.72l0.26,3.27c0,0-0.1,0.17-0.32,0.47c-0.05,0.08-0.12,0.15-0.19,0.24c-0.85,1.11-2.93,3.45-7.03,6.31
						C247.7,304.27,247.55,309.06,253,309.06z"/>
					<path class="st14" d="M245.4,222.36l4.16,28.36c3.27,16.55,4.43,24,6.51,44.88c0.02,0.13,0.03,0.25,0.04,0.38
						c0.03,0.27,0.14,0.54,0.33,0.8c1.18,1.63,5.22,2.96,8.24,2.76c1.13-0.07,2.12-0.35,2.76-0.93c0.2-0.17,0.36-0.37,0.49-0.61
						c0.18-0.32,0.28-0.71,0.28-1.16c-0.17-4.3-0.18-23.35-0.81-29.49c-0.04-0.4-0.08-0.8-0.12-1.22c-0.06-0.56-0.13-1.13-0.19-1.7
						c-0.01-0.13-0.03-0.28-0.04-0.41c-0.03-0.19-0.05-0.37-0.08-0.56c-0.15-1.21-0.32-2.42-0.53-3.64c-0.06-0.34-0.12-0.67-0.18-1
						c-0.06-0.33-0.12-0.66-0.19-0.98c-0.06-0.33-0.13-0.65-0.19-0.96c-0.07-0.31-0.14-0.63-0.21-0.94
						c-0.09-0.39-0.19-0.76-0.28-1.13c-0.3-1.11-0.62-2.18-0.97-3.18c1.56-9.12,1.74-19.31,0.91-27.66
						c1.59-4.88,1.62-10.15,0.3-16.26c0,0-27.2-6.73-28.94-7.17l-0.46-0.12C235.67,212.48,236.05,217.18,245.4,222.36z"/>
					<path d="M265.18,202.26c0.02,0.05,0.37,2.77,0.42,3.81c-8.34,7.32-27.81,1.59-30.12-4.26c-0.09-1.26-0.43-2.46-0.42-4.11
						C241.4,204.66,258.83,206.8,265.18,202.26z"/>
					<path class="st15" d="M241.58,205.94c1,0.68,2.34,1.02,3.92,1.45l-0.25-2.34c-1.47-0.41-2.77-0.77-3.92-1.45L241.58,205.94z"/>
					<g>
						<path class="st16" d="M235.12,198.82c5.46,6.05,22.71,10.48,30.1,3.72c1.54-1.41,0.87-2.89,0.97-6.58
							c0-3.94-0.02-7.55-0.07-10.85c-0.22-12.88-0.83-21.06-1.45-25.26l0-0.02c-0.1-0.8-0.01-1.07-0.12-1.59
							c-3.68-3.51-9.99-7.3-15.03-9.8c-6.69-2.19-7.18-1.96-10.51-2.78C225.75,142.4,233.34,196.84,235.12,198.82z"/>
						<path class="st11" d="M271.83,218.68c-1.63,0.91-3.22,1.7-4.78,2.34c-3.08,1.25-5.99,1.9-8.77,1.89
							c-1.26,0-2.48-0.15-3.67-0.44c-3.08-0.77-5.33-3.41-5.75-6.55l-0.89-13.48l-0.1-1.47l-0.48-7.05l-0.8-12.02
							c0.2-12.69,1.12-24.59,6.07-31.83c4.34,2.34,8.33,5.02,11.89,8.19l2.16,18.06l0.99,8.13L271.83,218.68z"/>
						<path class="st11" d="M241.74,145.8c-2.55,9.46-4.61,20.64-4.17,32.56l0.86,31.02c0.33,2.72,0.8,7.5-3.93,5.8l-2.24-0.97
							l-1.67-47.61C230.62,152.59,232.53,143.32,241.74,145.8z"/>
					</g>
					<path class="st8" d="M241.3,157.89c-1.5,6.25-2.37,13.22-2.75,20.74l2.34,3.57l2.38-2.72c-0.76-6.84-0.76-13.92-0.2-21.19
						l2.13-3.97l-4.06-0.98L241.3,157.89z"/>
					<path class="st17" d="M253.77,150.39c1.57,2.85-5.01,8.29-8.41,8.66c-1.04-1.23-1.26-3.23-2.23-4.69
						c-1.04,0.89-2.18,2.25-3.46,3.38c-2.3-9.65,8.6-14.06,11.56-10.29C251.8,148.2,253.32,149.57,253.77,150.39z"/>
					<path class="st14" d="M251.22,147.46c1,4.41-0.69,5.57-1.95,10.11c-1.95,7-2.67,17.02-2.66,24.34l6.68-20.7l-3.62-2.35
						l3.68,0.02c0.88-2.78,1.41-5.46,1.02-7.86C253.68,149.96,252.54,148.37,251.22,147.46z"/>
					<path class="st14" d="M242.33,145.67c-3.47,8.45-4.84,21-4.71,34.78c-1.69-8.85-2.9-17.2-3-24.4l2.99,0.14l-2.77-1.71
						l4.78-9.15L242.33,145.67z"/>
					<g>
						<polygon class="st18" points="238.19,138.4 249.45,136.19 251.42,148.47 240.31,150.05 						"/>
						<path class="st18" d="M251.42,148.47c0.16,0.26-4.04,5.22-8.3,5.91c-2.44-0.94-4.06-6.72-2.02-8.36
							c0.47-0.36,1.01-0.68,1.6-0.93c0.31-0.14,0.64-0.26,0.98-0.36c0.18-0.05,0.34-0.09,0.52-0.13c0.28-0.07,0.56-0.13,0.84-0.17
							c1.46-0.23,2.97-0.13,4.18,0.33c0.84,0.33,1.02,0.79,1.35,1.32c0.09,0.13,0.13,0.49,0.18,0.64
							C250.9,147.15,251.57,148,251.42,148.47z"/>
						<path class="st19" d="M239.98,148.22c-0.02,0.46,0.13,0.9,0.41,1.3c0.31,0.42,0.46,1.18,1.48,1.07
							c3.38-0.36,3.85-3.8,4.17-6.28c0.1-0.74,0.12-1.5,0.09-2.31l-0.01,0l-7.57,1.96l0.3,4.38L239.98,148.22z"/>
						<g>
							<path class="st18" d="M233.27,140.94l1,0.19c0.07,0.68,0.21,3.61,0.21,3.61c0.2,1.71,1.33,3.95,3.4,3.74l0.66-0.08l1.13-0.12
								l0.4-0.05c1.59-0.31,3.6-1.71,4.81-3.78c0.43-0.72,0.76-1.53,0.92-2.4c0.15-0.72,0.19-1.46,0.1-2.24l0.17-0.03
								c1.69-0.2,4.71,0.69,5.18-0.8c0.67-2.11,0.85-4.21,0.74-6.45c-0.1-0.93-0.11-1.22-0.31-1.96c-1.93-7.42-7.29-6.94-10.69-6.67
								c-3.02,0.37-5.83,2.05-7.19,5.27c-0.61,1.46-0.93,3.22-0.84,5.32c0.27,0.64,0.57,1.17,0.57,1.17l-1.15,3.89
								C232.2,140.18,232.62,140.84,233.27,140.94z"/>
							<path class="st14" d="M250.31,141.75c-6.74,2.02-3.49-6.11-3.49-6.11s-1.35,2.59-1.85,3.32c-1.12,0.07-1.12,0.07-2.13,0.07
								c-1.07-8.59,1.19-14.19-8.17-11.45c-0.29-1.33,0.39-3.66,6.92-4.42c5.06-0.59,10.22,1.55,10.86,6.61
								C253.04,134.44,253.05,136.8,250.31,141.75z"/>
							<path class="st18" d="M248.03,136.21c0.12,1.59-1.09,3.53-2.13,3.6c-1.04,0.08-1.02-1.22-1.15-2.81
								c-0.09-1.05-0.47-2.53,0.65-2.94C246.38,133.69,247.86,133.88,248.03,136.21z"/>
						</g>
					</g>
					<path class="st12" d="M271.83,218.68c-5.73-10.38-13.34-18.46-23.85-16.24h-0.01l-0.57-8.52l8.13-9.3V171.3l12.18,13.14
						L271.83,218.68z"/>
					<path class="st11" d="M264.03,157.82c5.22,4.33,8.22,23.51,8.75,28.48c-0.05,7.76-11.34,12.13-22.61,14.77
						c-3.6-1.04-5.07-5.12-3.13-6.85c5.45-4.55,9.44-6.72,13.02-9.86c-2-4.61-3.09-7.33-4.86-14.33
						C254.06,162.31,258.61,155.35,264.03,157.82z"/>
					<g>
						<path class="st18" d="M240.44,203.76c-0.01,0.64,0.14,1.07,0.38,1.32c0.08,0.09,0.17,0.15,0.26,0.2
							c0.04,0.02,0.07,0.04,0.11,0.05c0.06,0.02,0.11,0.04,0.17,0.05c0.57,0.11,1.22-0.2,1.48-0.65l1.01-1.01
							c0.02-0.02,0.03-0.04,0.05-0.05c0.15-0.17,0.25-0.34,0.32-0.5c0.1-0.24,0.12-0.47,0.09-0.67c-0.09-0.48-0.52-0.77-1.06-0.54
							c-0.04,0.02-0.08,0.03-0.11,0.05c-0.1,0.06-0.21,0.13-0.31,0.23l0.03-0.53l0.03-0.59l0.02-0.27l-2.25-1.39l-0.08,1.56
							l-0.06,1.19L240.44,203.76z"/>
						<path class="st18" d="M242.07,195.74c0.2-0.02,4.56-0.33,4.67-0.49c1.49-0.17,3.49,0.95,3.46,4.13
							c-0.15,0.07-0.3,0.16-0.5,0.37c-0.06,0.17-0.13,0.33-0.19,0.47l-0.01,0c-0.83,1.77-2.6,2.23-4.68,2.28l-0.04,0.01
							c-0.07,0-0.14,0-0.2,0c-0.06,0-0.12,0.01-0.2,0c-0.02,0-0.05,0-0.07,0c-0.26,0-0.5-0.01-0.75-0.03l-0.01,0l-0.33-0.03
							l-1.7-0.14l-0.14-0.01l-0.15-0.01l-0.43-0.04l-0.27-0.03l-0.38-0.03l-2.6-2.7l-1.49-1.55
							C237.76,196.84,239.65,196.24,242.07,195.74z"/>
						<path class="st18" d="M232.63,203.04l4.66-3.3l0.23-0.16l0.07-0.05l0.2-0.14l-0.24-0.2l-0.12-0.1l-0.13-0.11l-1.27-1.07
							l-4.58,3.64c-0.27,0.18-0.46,0.42-0.58,0.67C230.47,203.08,230.95,204.03,232.63,203.04z"/>
						<path class="st18" d="M237.31,198.98l-0.09,4.51c-0.03,1.31,0.83,1.72,1.46,1.57c0.09-0.02,0.17-0.05,0.25-0.1
							c0.05-0.03,0.09-0.06,0.13-0.09l0.38-3.42l0,0l0.11-0.96l0.01-0.12l-0.01,0l-0.38-0.24l-0.41-0.25l-1.19-0.74l-0.1-0.06
							L237.31,198.98z"/>
						<path class="st19" d="M232.63,203.04l4.66-3.3l-0.06,3.23l0.3-3.39l0.01-0.11l0.02-0.28l0-0.05l0.01-0.15l-0.12,0.09
							l-0.02,0.02l-0.13,0.1l-0.02,0.02l-4.35,3.25c-0.58,0.55-2.21,1.28-2.05-0.23C230.47,203.08,230.95,204.03,232.63,203.04z"/>
						<path class="st19" d="M238.77,199.6l0,0.28l-0.01,0.85l-0.06,4.33c0.09-0.02,0.17-0.05,0.25-0.1
							c0.03,0.49,0.17,0.82,0.36,1.02l0.21-4.47l0.05-1.02l0.01-0.12l0.01-0.28l-0.38-0.23L238.77,199.6z"/>
						<path class="st18" d="M238.93,204.68c0,0.1,0,0.2,0,0.29c0.03,0.49,0.17,0.82,0.36,1.02c0.41,0.43,1.09,0.29,1.54-0.07
							c0.11-0.09,0.21-0.19,0.29-0.3c0.02-0.03,0.04-0.06,0.06-0.1l0.01-0.19l0.18-3.06l0.03-0.52l-0.15-0.13l-0.49-0.45l-0.18-0.17
							l-1.01-0.92l-0.37-0.34l-0.01,0.11l-0.01,0.27l-0.05,0.98v0L238.93,204.68z"/>
						<path class="st19" d="M240.76,200.73l0.01,0.45l0.02,1.05l0.04,2.86l0.01,0.84c0.11-0.09,0.21-0.19,0.29-0.3
							c0.04,0.24,0.12,0.43,0.21,0.58l0.04-0.82l0.14-3.1l0.05-1.06l-0.27-0.17L240.76,200.73z"/>
						<path class="st18" d="M241.08,205.05c0,0.08,0,0.16,0,0.23c0,0.12,0.02,0.23,0.04,0.34c0.04,0.24,0.12,0.43,0.21,0.58
							c0.54,0.86,1.78,0.48,2.16-0.17l1.01-1.01c0.54-0.58,0.57-1.22,0.31-1.57c-0.13-0.19-0.34-0.29-0.59-0.28
							c-0.22,0.01-0.48,0.12-0.75,0.36l0.06-1.06l0.02-0.33l-0.3-0.19l-0.14-0.09l0,0l-0.25-0.16l-1.55-0.96l-0.02,0.31l-0.03,0.57
							l-0.03,0.64L241.08,205.05z"/>
						<path class="st19" d="M243.21,202.44c-0.01-0.15-0.04-0.28-0.06-0.43c-0.01-0.05-0.03-0.09-0.03-0.15
							c-0.07-0.24-0.13-0.49-0.23-0.75c0.51,0.47,1.24,0.8,1.91,0.66c1.62,0.14,2.72-0.42,3.57-1.55c0.38-0.49,0.71-1.08,1.01-1.76
							c0.14-0.04,0.54-0.16,0.69-0.27c0.16,0.33,0.18,0.73,0.13,1.18c-0.15,0.07-0.3,0.16-0.5,0.37c-0.06,0.17-0.13,0.33-0.19,0.47
							l-0.01,0c-0.83,1.77-2.6,2.23-4.68,2.28l-0.04-0.01c-0.06,0-0.12,0.01-0.2,0.01c-0.06,0-0.12,0.01-0.2,0
							c-0.02,0-0.05,0-0.07,0c0.05,0.2,0.02,0.43-0.07,0.66c0.24,0,0.46,0.11,0.59,0.3c-0.38-0.02-0.65,0.05-0.91,0.22
							c-0.31,0.2-0.62,0.56-1.07,1.06C243.16,203.84,243.29,203.18,243.21,202.44z"/>
					</g>
				</g>
				<g>
					<path class="st18" d="M214.6,206.47l-4.01,0.62L204.37,190c-0.59-2.14-2.4-10.73-0.27-11.32l4.74-4.43
						c2.14-0.59,2.75,11.44,3.35,13.58L214.6,206.47z"/>
					<path class="st18" d="M209.68,212.19c-0.03-0.1,0-0.2,0.03-0.3c0.47-1.56,0.93-3.13,1.4-4.69c1.05-0.53,2.22-0.82,3.4-0.84
						c1.03,3.29,1.11,7.3-0.44,10.44c-0.95-1.51-3.02-3.14-4.26-4.42C209.75,212.31,209.7,212.26,209.68,212.19z"/>
					<path d="M187.73,304c4.37-0.27,3.41-7.7,2.22-11.74c-0.43-1.46-2.18-2.17-3.63-1.7c-1.44,0.48-2.33,3.22-2.29,4.74
						C184.08,296.73,182.56,304.32,187.73,304z"/>
					<path class="st18" d="M190.12,296.28c0.74-6.27-6.11-6.79-5.18,0.04c0.25,1.82,1.39,3.14,2.54,3.19
						C189.27,299.58,189.97,297.59,190.12,296.28z"/>
					<g>
						<g>
							<path class="st20" d="M212.27,299.44c1.9,1.52,4.31,2.34,6.71,2.27c0.33-0.01,0.69-0.05,0.91-0.31c0.32-0.4,0.1-1-0.17-1.44
								c-2.21-3.6-6.35-6.66-8.17-10.49c-0.21-0.44-0.4-0.92-0.77-1.22c-0.57-0.46-1.37-0.35-2.07-0.53
								c-0.64-0.17-1.33-0.58-1.92-0.26c-0.53,0.29-0.64,1.02-0.8,1.63c-0.17,0.65-0.47,2.27-0.68,2.91
								c-0.21,0.64-0.33,1.34-0.15,1.98c0.23,0.8,0.9,1.38,1.62,1.77c0.71,0.38,1.49,0.62,2.2,1.01
								C210.22,297.44,211.17,298.56,212.27,299.44z"/>
							<path d="M219.89,301.4c-0.21,0.25-0.58,0.29-0.9,0.3c-2.4,0.07-4.81-0.74-6.71-2.27c-1.11-0.88-2.06-2.01-3.29-2.69
								c-0.71-0.39-1.49-0.63-2.2-1.01c-0.71-0.39-1.38-0.98-1.61-1.78c-0.19-0.64-0.06-1.34,0.14-1.98
								c0.18-0.55,0.43-2.09,0.6-2.65c0.03-0.08,0.06-0.16,0.08-0.25c0.16-0.6,0.27-1.33,0.81-1.63c0.58-0.33,1.27,0.09,1.91,0.26
								c0.7,0.17,1.5,0.07,2.07,0.53c0.38,0.3,0.56,0.78,0.77,1.22c0.71,1.51,1.8,2.74,2.98,3.91c1.81,1.78,3.86,4.41,5.19,6.58
								C219.98,300.4,220.22,301.01,219.89,301.4z"/>
							<path class="st18" d="M215.82,295.47c0.03,0.24-0.05,0.51-0.25,0.65c-0.17,0.1-0.39,0.1-0.59,0.09
								c-2.13-0.16-4.01-1.44-5.67-2.8c-0.85-0.7-1.69-1.44-2.37-2.32c-0.42-0.54-0.78-1.13-1.04-1.76
								c0.03-0.08,0.06-0.16,0.08-0.25c0.16-0.6,0.18-1.87,0.72-2.17c0.58-0.32,1.36,0.02,2,0.19c0.7,0.17,1.75-0.22,2.32,0.24
								c0.38,0.3,0.21,1.32,0.42,1.76c0.71,1.51,1.9,3.11,3.08,4.28c0.37,0.5,0.71,0.98,1,1.43
								C215.66,295.01,215.78,295.23,215.82,295.47z"/>
						</g>
						<path class="st18" d="M214.06,248.36c0,0-0.09,1.42-0.24,3.72c-0.64,10.04-2.36,36.99-2.36,37.02c-0.99,2.04-5.1,2.54-5.46,0
							c-0.71-12.78-3.99-22.85-3.78-32.16c0.06-2.73,0.41-5.38,1.22-8.02c0-4.67-1.02-18.04-1.21-19.46l-0.18-1.46l-1.36-10.46
							l-1.42-10.94l-0.27-2.03c-0.09-0.23-0.16-0.44-0.2-0.64c-0.24-1.28,0.44-2.47,1.55-3.51c0.5-0.47,1.08-0.91,1.7-1.31
							c0.92-0.6,1.93-1.12,2.88-1.56c2.13-0.98,3.99-1.55,3.99-1.55c0.35,0.7,0.7,1.42,0.99,2.16v0.01c0.16,0.34,0.3,0.68,0.43,1.02
							C215.9,213.54,214.85,241.74,214.06,248.36z"/>
					</g>
					<g>
						<path class="st18" d="M202.25,224.25l-0.2,3.7v0.03l-0.17,2.98c-2.6,12.73-3.39,21.35-5.2,26.64c-0.1,0.3-0.2,0.6-0.31,0.87
							l-7.27,34.83c0,2.19-3.35,1.45-3.55-0.4c-2.61-23.42-0.98-28.19,0.82-37.63c-0.06-0.41-0.1-0.82-0.14-1.23
							c-1.65-14.08-0.09-23-0.45-26.46c-0.2-3.89-0.87-6.49-0.81-9.61v-0.14c0.01-1.14,0.14-2.33,0.43-3.68c0-0.03,0-0.06,0.01-0.09
							c0.33-1.59,0.87-3.39,1.7-5.54l1.56-5.04l0.89-2.9l0.11-0.38c0.53,0.09,1.02,0.16,1.49,0.18h0.01
							c2.63,0.26,4.78-0.09,7.65-0.92h0.01c1.7-0.48,3.65-1.15,6.08-1.94c0.99-0.33,2.06-0.68,3.24-1.05
							c0.28,0.58,0.54,1.18,0.77,1.77C212.35,207.19,209.56,217.61,202.25,224.25z"/>
					</g>
					<path class="st21" d="M210.05,198.13l-0.65-1.04l-19.94,3.38l-2.48,8.01c-4.22,10.82-0.83,12.26-1.42,24.17
						c-0.23,4.73-0.58,11.88,0.53,21.4l0,0.04l0.03,0.03c6.55,7.31,23.38,1.9,27.78-1.96l0.04-0.04l0-0.06
						C214.93,237.77,216.1,211.45,210.05,198.13z"/>
					<path class="st22" d="M212.4,177.38l-4.22-17.67c-0.42-2.18-7.18,2.45-6.76,4.62l3.61,17.45c0.06,0.31,0.16,0.6,0.28,0.88
						C208.34,182.17,210.54,179.92,212.4,177.38z"/>
					<path class="st21" d="M210.42,181.92c-0.48,0.53-1.04,1.01-1.39,1.64c-0.41,0.73-0.48,1.61-0.55,2.44
						c-0.12,2.04-0.14,4.09-0.07,6.14c0.01,0.22,0.02,0.42,0.02,0.63c0.06,1.65,0.07,3.36-0.72,4.79c-0.32,0.57-0.74,1.06-1.2,1.52
						c-0.96,0.95-2.06,1.74-3.27,2.36c-2.74,1.4-5.96,1.88-8.98,1.23c-0.37-0.08-0.75-0.19-1.11-0.31
						c-1.23-0.42-2.35-1.12-2.99-2.24c-0.41-0.74-0.57-1.58-0.64-2.43c-0.05-0.48-0.07-0.98-0.1-1.46
						c-0.01-0.18-0.03-0.35-0.04-0.53c-0.35-3.86-1.66-7.63-3.76-10.88c-0.06-0.1-0.12-0.21-0.2-0.31c-0.08-0.12-0.16-0.26-0.26-0.4
						c-1.49-2.39-3.63-7.05-3.64-9.58c-0.01-6.63,12.92-16,14.5-16.69c1.96-0.87,3.98-1.7,6.12-1.78c2.15-0.08,4.44,0.74,5.55,2.57
						c1.36,2.23,0.62,5.12,1.26,7.64c0.6,2.39,2.41,4.31,3.27,6.63C213.33,175.91,212.61,179.54,210.42,181.92z"/>
					<path class="st23" d="M201.14,187.15c-2.04,0.81-4.5,0.36-6.2-1.04c-1.7-1.4-2.61-3.65-2.48-5.85
						c0.91,2.28,2.72,4.24,5.01,5.14c2.29,0.9,5.04,0.65,7.02-0.8C203.54,185.64,202.46,186.63,201.14,187.15z"/>
					<path class="st24" d="M209.83,198.15c-0.31,0.97-0.84,1.88-1.5,2.65c-1.4,1.62-7.53,6.38-14.84,4.37
						c-0.69-0.19-1.4-0.35-2.04-0.68c-1.4-0.72-1.93-0.98-2.46-2.47l0.53-4.34c0.08,0.85,0.23,1.69,0.65,2.43
						c0.82,1.45,2.48,2.2,4.1,2.55c1.32,0.29,2.68,0.36,4.02,0.22c1.72-0.17,3.42-0.66,4.95-1.45c1.2-0.61,2.31-1.41,3.27-2.36
						c0.46-0.45,0.88-0.95,1.2-1.51c0.45-0.8,0.64-1.69,0.71-2.6C208.93,195.98,209.4,197.05,209.83,198.15z"/>
					<path class="st18" d="M205.15,176c-0.51-4.84-3.06-9.3-3.52-14.15c-1.11,0.4-2.22,0.8-3.34,1.21
						c-0.24,0.09-0.49,0.18-0.63,0.39C200.07,167.73,204.12,171.2,205.15,176z"/>
					<g>
						<path class="st18" d="M201.17,158.61c2.01,1.16,2.01,3.04,0,4.21c-2.01,1.16-5.27,1.16-7.29,0c-2.01-1.16-2.01-3.04,0-4.21
							C195.89,157.44,199.16,157.44,201.17,158.61z"/>
						<path class="st26" d="M205.05,133.68c1.71,0.08,6.44,2.67,6.34,8.15c-0.07,3.76-1.69,5.23,0.35,9.58
							c-2.87-0.13-8.11-3.81-9.59-6.28c-1.48-2.46,0.27-7.8,2.12-9.99C204.63,134.71,205.09,134.25,205.05,133.68z"/>
						<polygon class="st18" points="202.71,147.36 202.7,152.5 202.67,160.08 202.67,160.71 192.38,160.78 192.38,147.36 						"/>
						<path class="st27" d="M204.03,152.73c2.75,3.18,1.54,7.52-1.36,8.52c-4.58,1.63-6.31-5.1-5.15-8.28L204.03,152.73z"/>
						<path class="st18" d="M208.41,146.64c0.05-0.61,0.3-1.9,0.41-2.5c0.42-2.32-0.76-4.81-2.29-6.5c-2.72-3-6.93-3.53-10.62-2.38
							c-3,0.94-5.37,3.52-6.3,6.52c-0.8,2.6-0.24,3.96,0.83,6.46c1.67,3.89,6.43,4.92,6.7,5.27c0.09,0.11,0.21,3.08,2.9,5.18
							c1.08,0.85,3.92,1.39,5.6-0.95c1.31-1.83,1.57-3.29,1.83-4.56c0.03-0.16,0.08-0.34,0.19-0.47c0.26-0.3,1.08-0.11,1.22-0.8
							C209.07,150.94,208.17,149.36,208.41,146.64z"/>
						<path class="st26" d="M192.37,158.72c0.32-4.65,2.51-2.79,3.16-4.62c0.47-1.35,1.3-2.55,1.76-3.9
							c0.69-2.01,0.66-4.35-0.35-6.23c2.16,0.71,4.98,0.74,6.8,0.14c1.83-0.6,3.98-2.37,4.62-4.15c0.87-2.41,0.06-4.06-1.92-5.7
							c-0.62-0.51-1.34-0.89-2.08-1.19c-3.81-1.58-8.83-2.2-12.28,0.06C179.93,141.09,187.37,153.23,192.37,158.72z"/>
						<path class="st18" d="M194.93,148.47c-0.17,1.18-0.23,2.43,0.13,3.51c0.07,0.22,0.16,0.43,0.29,0.6
							c0.15,0.19,0.35,0.32,0.55,0.43c0.3,0.17,0.65,0.3,0.98,0.15c0.42-0.2,0.63-0.79,0.76-1.33c0.21-0.86,0.37-1.75,0.31-2.62
							c-0.06-0.87-0.38-1.73-0.97-2.2c-0.44-0.35-1.08-0.42-1.5,0.01C195.12,147.38,195,147.95,194.93,148.47z"/>
					</g>
					<path class="st18" d="M212.19,206.44c-0.43,0.76-0.54,1.69-0.3,2.53c0.12,0.42,0.33,0.82,0.4,1.25
						c0.12,0.72-0.14,1.46-0.02,2.18c0.08,0.47,0.33,0.91,0.68,1.22c0.1,0.09,0.21,0.17,0.34,0.17c0.24,0.01,0.42-0.25,0.43-0.49
						c0.02-0.24-0.07-0.47-0.12-0.71c-0.17-0.84,0.2-1.68,0.5-2.48c0.4-1.06,0.71-2.19,0.54-3.31c-0.07-0.47-0.26-0.98-0.69-1.2
						c-0.32-0.16-0.73-0.12-1.04,0.06C212.61,205.83,212.37,206.12,212.19,206.44z"/>
					<g>
						<g>
							<path class="st18" d="M198.74,205.56c-8.36-3.5-20.17-8.03-19.82-11.11l0.79-8.2l8.05,1.14l-0.25,4.71l13.54,9.67
								L198.74,205.56z"/>
							<path class="st21" d="M186.11,171.09l-0.08-0.01c-2.2-0.3-4.22,1.24-4.52,3.43l-2.42,15.85c2.24,1.65,5.68,2.13,8.43,1.73
								l2.03-16.48C189.85,173.42,188.31,171.39,186.11,171.09z"/>
							<g>
								<path class="st18" d="M206.84,203.57c-0.28,0.68-0.35,1.42-0.12,2.25l-0.25,0.64l-0.23,0.58l-0.25,1.03
									c-0.24,0.24-0.52,0.32-0.83,0.35l-0.46,0.72c-0.1,0.18-0.35,0.22-0.7,0.16l-0.56,0.58c-0.36,0.3-1.29,0.11-2.37,0.05
									c-0.03,0-0.05,0-0.08,0l-1.84-0.89c0,0-0.57-0.25-0.69-0.66c-0.16-0.58,0.05-0.7-0.05-0.97c-0.1-0.28-0.51-0.48-0.51-1.13
									c0-0.78,0.52-0.79,0.56-1.13c0.04-0.3-0.26-0.37-0.02-1.17c0.18-0.62,0.89-0.63,1.08-0.96c0.16-0.29,0.19-1.03,0.71-1.56
									c0.49-0.5,1.66,0,1.66,0l1.28,0.72l2.76-0.32l0.29,0.13C206.82,202.26,207.09,202.96,206.84,203.57z"/>
								<path class="st19" d="M203.5,202.39l2.07,0.25c0,0,0.01,2.2,0,2.02c-0.01-0.11-0.77-0.92-1.37-1.55
									C203.81,202.71,203.5,202.39,203.5,202.39z"/>
								<path class="st19" d="M205.82,206.15l0.48,0.7l-0.31,1.22c-0.24,0.24-0.52,0.32-0.83,0.35l-0.46,0.72
									c-0.1,0.18-0.35,0.22-0.7,0.16l-0.56,0.58c-0.36,0.3-1.29,0.11-2.37,0.05c0.8-1.24,1.26-2.6,1.35-4.11l-1.14-1.74l4.59,1.56
									L205.82,206.15z"/>
								<path class="st19" d="M201.52,202.07l3.85,2.21l-1.87-1.89C203.27,202.38,202.08,202.13,201.52,202.07z"/>
							</g>
						</g>
						<path class="st18" d="M200.63,203.53l2.04,1.71l2.74,0.85c1.06,0.34,1.5-0.95,0.47-1.47c-0.12-0.06-2.19-0.92-2.19-0.92
							l-1.68-2.09C200.82,201.39,200.28,202.63,200.63,203.53z"/>
					</g>
				</g>
			</g>
			<g>
				<rect x="34.92" y="296.74" class="st4" width="26.3" height="12.31"/>
				<g>
					<g>
						<rect x="34.92" y="303.19" class="st1" width="9.39" height="5.86"/>
						<rect x="44.31" y="303.19" class="st2" width="16.91" height="5.86"/>
					</g>
					<g>
						<rect x="34.92" y="296.74" class="st1" width="9.39" height="5.86"/>
						<rect x="44.31" y="296.74" class="st2" width="16.91" height="5.86"/>
					</g>
				</g>
				<g>
					<rect x="59.34" y="258.05" class="st4" width="26.3" height="51.01"/>
					<g>
						<g>
							<rect x="59.34" y="303.19" class="st1" width="9.39" height="5.86"/>
							<rect x="68.73" y="303.19" class="st2" width="16.91" height="5.86"/>
						</g>
						<g>
							<rect x="59.34" y="296.74" class="st1" width="9.39" height="5.86"/>
							<rect x="68.73" y="296.74" class="st2" width="16.91" height="5.86"/>
						</g>
						<g>
							<rect x="59.34" y="290.29" class="st1" width="9.39" height="5.86"/>
							<rect x="68.73" y="290.29" class="st2" width="16.91" height="5.86"/>
						</g>
						<g>
							<rect x="59.34" y="283.85" class="st1" width="9.39" height="5.86"/>
							<rect x="68.73" y="283.85" class="st2" width="16.91" height="5.86"/>
						</g>
						<g>
							<rect x="59.34" y="277.4" class="st1" width="9.39" height="5.86"/>
							<rect x="68.73" y="277.4" class="st2" width="16.91" height="5.86"/>
						</g>
						<g>
							<rect x="59.34" y="270.95" class="st1" width="9.39" height="5.86"/>
							<rect x="68.73" y="270.95" class="st2" width="16.91" height="5.86"/>
						</g>
						<g>
							<rect x="59.34" y="264.5" class="st1" width="9.39" height="5.86"/>
							<rect x="68.73" y="264.5" class="st2" width="16.91" height="5.86"/>
						</g>
						<g>
							<rect x="59.34" y="258.05" class="st1" width="9.39" height="5.86"/>
							<rect x="68.73" y="258.05" class="st2" width="16.91" height="5.86"/>
						</g>
					</g>
				</g>
				<g>
					<rect x="83.76" y="258.05" class="st4" width="26.3" height="51.01"/>
					<g>
						<g>
							<rect x="83.76" y="303.19" class="st1" width="9.39" height="5.86"/>
							<rect x="93.16" y="303.19" class="st2" width="16.91" height="5.86"/>
						</g>
						<g>
							<rect x="83.76" y="296.74" class="st1" width="9.39" height="5.86"/>
							<rect x="93.16" y="296.74" class="st2" width="16.91" height="5.86"/>
						</g>
						<g>
							<rect x="83.76" y="290.29" class="st1" width="9.39" height="5.86"/>
							<rect x="93.16" y="290.29" class="st2" width="16.91" height="5.86"/>
						</g>
						<g>
							<rect x="83.76" y="283.85" class="st1" width="9.39" height="5.86"/>
							<rect x="93.16" y="283.85" class="st2" width="16.91" height="5.86"/>
						</g>
						<g>
							<rect x="83.76" y="277.4" class="st1" width="9.39" height="5.86"/>
							<rect x="93.16" y="277.4" class="st2" width="16.91" height="5.86"/>
						</g>
						<g>
							<rect x="83.76" y="270.95" class="st1" width="9.39" height="5.86"/>
							<rect x="93.16" y="270.95" class="st2" width="16.91" height="5.86"/>
						</g>
						<g>
							<rect x="83.76" y="264.5" class="st1" width="9.39" height="5.86"/>
							<rect x="93.16" y="264.5" class="st2" width="16.91" height="5.86"/>
						</g>
						<g>
							<rect x="83.76" y="258.05" class="st1" width="9.39" height="5.86"/>
							<rect x="93.16" y="258.05" class="st2" width="16.91" height="5.86"/>
						</g>
					</g>
				</g>
				<g>
					<rect x="75.31" y="226.39" class="st4" width="26.3" height="31.66"/>
					<g>
						<rect x="75.31" y="252.18" class="st1" width="9.39" height="5.86"/>
						<rect x="84.7" y="252.18" class="st2" width="16.91" height="5.86"/>
					</g>
					<g>
						<rect x="75.31" y="245.74" class="st1" width="9.39" height="5.86"/>
						<rect x="84.7" y="245.74" class="st2" width="16.91" height="5.86"/>
					</g>
					<g>
						<rect x="75.31" y="239.29" class="st1" width="9.39" height="5.86"/>
						<rect x="84.7" y="239.29" class="st2" width="16.91" height="5.86"/>
					</g>
					<g>
						<rect x="75.31" y="232.84" class="st1" width="9.39" height="5.86"/>
						<rect x="84.7" y="232.84" class="st2" width="16.91" height="5.86"/>
					</g>
					<g>
						<rect x="75.31" y="226.39" class="st1" width="9.39" height="5.86"/>
						<rect x="84.7" y="226.39" class="st2" width="16.91" height="5.86"/>
					</g>
				</g>
				<g>
					<rect x="108.19" y="264.5" class="st4" width="26.3" height="44.56"/>
					<g>
						<g>
							<rect x="108.19" y="303.19" class="st1" width="9.39" height="5.86"/>
							<rect x="117.58" y="303.19" class="st2" width="16.91" height="5.86"/>
						</g>
						<g>
							<rect x="108.19" y="296.74" class="st1" width="9.39" height="5.86"/>
							<rect x="117.58" y="296.74" class="st2" width="16.91" height="5.86"/>
						</g>
						<g>
							<rect x="108.19" y="290.29" class="st1" width="9.39" height="5.86"/>
							<rect x="117.58" y="290.29" class="st2" width="16.91" height="5.86"/>
						</g>
						<g>
							<rect x="108.19" y="283.85" class="st1" width="9.39" height="5.86"/>
							<rect x="117.58" y="283.85" class="st2" width="16.91" height="5.86"/>
						</g>
						<g>
							<rect x="108.19" y="277.4" class="st1" width="9.39" height="5.86"/>
							<rect x="117.58" y="277.4" class="st2" width="16.91" height="5.86"/>
						</g>
						<g>
							<rect x="108.19" y="270.95" class="st1" width="9.39" height="5.86"/>
							<rect x="117.58" y="270.95" class="st2" width="16.91" height="5.86"/>
						</g>
						<g>
							<rect x="108.19" y="264.5" class="st1" width="9.39" height="5.86"/>
							<rect x="117.58" y="264.5" class="st2" width="16.91" height="5.86"/>
						</g>
					</g>
				</g>
				<g>
					<rect x="132.61" y="277.4" class="st4" width="26.3" height="31.66"/>
					<g>
						<rect x="132.61" y="303.19" class="st1" width="9.39" height="5.86"/>
						<rect x="142.01" y="303.19" class="st2" width="16.91" height="5.86"/>
					</g>
					<g>
						<rect x="132.61" y="296.74" class="st1" width="9.39" height="5.86"/>
						<rect x="142.01" y="296.74" class="st2" width="16.91" height="5.86"/>
					</g>
					<g>
						<rect x="132.61" y="290.29" class="st1" width="9.39" height="5.86"/>
						<rect x="142.01" y="290.29" class="st2" width="16.91" height="5.86"/>
					</g>
					<g>
						<rect x="132.61" y="283.85" class="st1" width="9.39" height="5.86"/>
						<rect x="142.01" y="283.85" class="st2" width="16.91" height="5.86"/>
					</g>
					<g>
						<rect x="132.61" y="277.4" class="st1" width="9.39" height="5.86"/>
						<rect x="142.01" y="277.4" class="st2" width="16.91" height="5.86"/>
					</g>
				</g>
			</g>
			<g>
				<polygon class="st8" points="251,9.06 276,20.06 251,20.06 				"/>
				<polygon class="st7" points="251,31.06 276,20.06 251,20.06 				"/>
			</g>
		</g>
	</g>
	<path class="st6" d="M110.47,43.5c-0.81,0-1.58,0.12-2.31,0.35c-0.65-5.21-5.08-9.24-10.46-9.24c-1.67,0-3.24,0.4-4.65,1.09
		c-1.56-3.89-5.35-6.64-9.8-6.64c-4.18,0-7.79,2.44-9.5,5.97c-1.8-0.97-3.87-1.53-6.06-1.53c-7.06,0-12.78,5.72-12.78,12.78
		c0,7.06,5.72,12.78,12.78,12.78c0.19,0,0.37-0.02,0.56-0.02v0.02h42.22c4.3,0,7.78-3.48,7.78-7.78
		C118.25,46.98,114.77,43.5,110.47,43.5z"/>
	<path class="st6" d="M231.81,82.07c-0.62,0-1.21,0.09-1.77,0.27c-0.5-3.99-3.9-7.08-8.02-7.08c-1.28,0-2.49,0.31-3.56,0.83
		c-1.19-2.98-4.1-5.09-7.51-5.09c-3.21,0-5.97,1.87-7.28,4.58c-1.38-0.75-2.96-1.17-4.64-1.17c-5.41,0-9.8,4.39-9.8,9.8
		c0,5.41,4.39,9.8,9.8,9.8c0.14,0,0.28-0.01,0.43-0.02V94h32.37c3.29,0,5.96-2.67,5.96-5.96C237.78,84.74,235.11,82.07,231.81,82.07
		z"/>
	<path class="st6" d="M583.64,47.11c-0.56,0-1.11,0.09-1.62,0.24c-0.45-3.64-3.56-6.47-7.33-6.47c-1.17,0-2.27,0.28-3.25,0.76
		c-1.09-2.72-3.75-4.65-6.86-4.65c-2.93,0-5.45,1.71-6.65,4.18c-1.26-0.68-2.71-1.07-4.24-1.07c-4.94,0-8.94,4-8.94,8.94
		c0,4.94,4,8.94,8.94,8.94c0.13,0,0.26-0.01,0.39-0.02V58h29.56c3.01,0,5.44-2.44,5.44-5.44C589.08,49.55,586.65,47.11,583.64,47.11
		z"/>
	<path class="st6" d="M433.56,94.11c-0.56,0-1.11,0.09-1.62,0.24c-0.45-3.64-3.56-6.47-7.33-6.47c-1.17,0-2.27,0.28-3.25,0.76
		c-1.09-2.72-3.75-4.65-6.86-4.65c-2.93,0-5.45,1.71-6.65,4.18c-1.26-0.68-2.71-1.07-4.24-1.07c-4.94,0-8.94,4-8.94,8.94
		c0,4.94,4,8.94,8.94,8.94c0.13,0,0.26-0.01,0.39-0.02V105h29.56c3.01,0,5.44-2.44,5.44-5.44C439,96.55,436.56,94.11,433.56,94.11z"
		/>
</g>
</svg>
