<?xml version="1.0" encoding="utf-8"?>
<!-- Generator: Adobe Illustrator 23.0.5, SVG Export Plug-In . SVG Version: 6.00 Build 0)  -->
<svg version="1.0" id="Layer_1" xmlns="http://www.w3.org/2000/svg" xmlns:xlink="http://www.w3.org/1999/xlink" x="0px" y="0px"
	 viewBox="0 0 624 320" style="enable-background:new 0 0 624 320;" xml:space="preserve">
<style type="text/css">
	.st0{opacity:0.3;fill:#35B24A;}
	.st1{fill:#005362;}
	.st2{fill:#00A26D;}
	.st3{fill:#CCCCCC;}
	.st4{fill:#CB5731;}
	.st5{fill:#ECEDE7;}
	.st6{fill:#587790;}
	.st7{fill:#FD6222;}
	.st8{fill:#FF9762;}
	.st9{fill:#6B2D6E;}
	.st10{fill:#FFD121;}
	.st11{fill:#CCA309;}
	.st12{fill:#FFC400;}
	.st13{fill:#FFFF00;}
	.st14{fill:#7DA5E0;}
	.st15{fill:#A0B9EF;}
	.st16{fill:#C78B5B;}
	.st17{fill:#E5BE84;}
	.st18{fill:#EAD1B7;}
	.st19{fill:#F7EEE5;}
	.st20{fill:#444248;}
	.st21{fill:#FFFFFF;}
	.st22{fill:#C13600;}
	.st23{fill:#FF5300;}
	.st24{fill:#FFA254;}
</style>
<rect x="0" class="st0" width="624" height="320"/>
<g>
	<g>
		<g>
			<g>
				<g>
					<path class="st1" d="M398.66,264.97c-0.74,0-1.39-0.03-1.95-0.06H218.58c-0.55,0.04-1.21,0.06-1.95,0.06
						c-13.96,0-28.98-9.47-28.98-30.28V133.75c0-20.8,15.03-30.28,28.98-30.28c0.74,0,1.39,0.03,1.95,0.06h178.14
						c0.55-0.04,1.21-0.06,1.95-0.06c13.96,0,28.98,9.47,28.98,30.28v100.94C427.65,255.49,412.62,264.97,398.66,264.97z"/>
					<path class="st2" d="M198.04,133.75c0-20.31,19.83-19.83,19.83-19.83h179.57c0,0,19.83-0.48,19.83,19.83v100.94
						c0,20.43-19.83,19.83-19.83,19.83H217.86c0,0-19.83,0.6-19.83-19.83V133.75z"/>
				</g>
				<g>
					<rect x="252.4" y="286.09" class="st3" width="112.23" height="17.27"/>
					<rect x="283.48" y="265.37" class="st3" width="50.07" height="20.72"/>
				</g>
			</g>
			<g>
				<polygon class="st4" points="306.64,89.17 240.15,145.87 245.73,145.87 297.08,191.64 318.22,191.64 369.57,145.87 
					375.15,145.87 				"/>
				<rect x="248.4" y="36.7" class="st5" width="118.5" height="157.96"/>
				<rect x="254.56" y="58.83" class="st6" width="106.17" height="4.33"/>
				<rect x="264.66" y="135.08" class="st6" width="85.97" height="4.33"/>
				<rect x="254.56" y="146.33" class="st6" width="106.17" height="4.33"/>
				<rect x="254.56" y="157.58" class="st6" width="106.17" height="4.33"/>
				<rect x="266.18" y="168.83" class="st6" width="82.94" height="4.33"/>
				<polygon class="st7" points="245.73,145.87 240.15,145.87 240.15,233 297.08,191.64 				"/>
				<polygon class="st7" points="369.57,145.87 375.15,145.87 375.15,233 318.22,191.64 				"/>
				<polygon class="st8" points="240.15,233 375.15,233 318.22,191.64 297.08,191.64 				"/>
				<rect x="333.59" y="40" class="st7" width="27" height="12"/>
			</g>
			<g>
				<path class="st9" d="M316.04,122.45c-0.11,0-0.22-0.02-0.32-0.07c-0.18-0.09-0.31-0.24-0.37-0.43l-6.55-20.03
					c-0.1-0.31,0.02-0.65,0.29-0.83c0.12-0.08,0.26-0.12,0.4-0.12c0.17,0,0.34,0.06,0.47,0.18l15.93,13.78
					c0.15,0.13,0.24,0.31,0.25,0.51c0.01,0.2-0.06,0.39-0.19,0.53c-2.67,2.87-6.01,5.09-9.66,6.43
					C316.21,122.44,316.12,122.45,316.04,122.45z"/>
				<path class="st10" d="M326.57,114.87c-0.17,0-0.34-0.06-0.47-0.18l-16.84-14.57c-0.22-0.19-0.3-0.48-0.22-0.76
					c0.08-0.27,0.32-0.47,0.6-0.51l22.09-2.77c0.03,0,0.06-0.01,0.09-0.01c0.16,0,0.33,0.06,0.45,0.16c0.15,0.12,0.25,0.3,0.27,0.5
					c0.58,6.45-1.35,12.79-5.41,17.86c-0.12,0.15-0.3,0.25-0.5,0.27C326.62,114.87,326.59,114.87,326.57,114.87z"/>
				<path class="st7" d="M308.42,98.68c-0.16,0-0.32-0.05-0.44-0.15c-0.15-0.12-0.25-0.29-0.27-0.48l-2.91-23.19
					c-0.02-0.19,0.03-0.39,0.15-0.54c0.12-0.15,0.3-0.25,0.5-0.27c0.74-0.07,1.49-0.1,2.24-0.1c12.31,0,22.67,8.83,24.64,20.99
					c0.03,0.19-0.02,0.39-0.14,0.55c-0.12,0.16-0.29,0.26-0.49,0.28l-23.19,2.91C308.48,98.68,308.45,98.68,308.42,98.68z"/>
				<path class="st6" d="M307.62,123.94c-4.89,0-9.65-1.43-13.74-4.14c-0.16-0.11-0.28-0.28-0.31-0.47
					c-0.04-0.19,0.01-0.39,0.12-0.55l13.08-18.32c0.14-0.19,0.36-0.3,0.59-0.3c0.04,0,0.07,0,0.11,0.01
					c0.27,0.04,0.49,0.23,0.58,0.49l7,21.39c0.06,0.19,0.04,0.39-0.05,0.56c-0.09,0.17-0.25,0.3-0.44,0.36
					c-1.23,0.35-2.51,0.61-3.79,0.77C309.72,123.88,308.66,123.94,307.62,123.94L307.62,123.94z"/>
				<path class="st2" d="M292.83,118.89c-0.16,0-0.31-0.05-0.44-0.15c-1-0.77-1.94-1.61-2.79-2.51l-1.19-1.34
					c-3.05-3.68-4.96-8.11-5.56-12.84c-1.68-13.42,7.45-25.62,20.79-27.78c0.04-0.01,0.08-0.01,0.12-0.01
					c0.16,0,0.31,0.05,0.43,0.14c0.16,0.12,0.26,0.29,0.28,0.49l3.01,24.05c0.02,0.18-0.02,0.37-0.13,0.52l-13.94,19.14
					c-0.11,0.16-0.29,0.26-0.48,0.29C292.9,118.89,292.87,118.89,292.83,118.89z"/>
			</g>
			<g>
				<rect x="204.59" y="260.36" class="st11" width="28" height="43"/>
				<rect x="234.59" y="216.36" class="st11" width="28" height="87"/>
				<g>
					<g>
						<rect x="234.59" y="293.36" class="st12" width="10" height="10"/>
						<rect x="244.59" y="293.36" class="st13" width="18" height="10"/>
					</g>
					<g>
						<rect x="234.59" y="282.36" class="st12" width="10" height="10"/>
						<rect x="244.59" y="282.36" class="st13" width="18" height="10"/>
					</g>
					<g>
						<rect x="234.59" y="271.36" class="st12" width="10" height="10"/>
						<rect x="244.59" y="271.36" class="st13" width="18" height="10"/>
					</g>
					<g>
						<rect x="234.59" y="260.36" class="st12" width="10" height="10"/>
						<rect x="244.59" y="260.36" class="st13" width="18" height="10"/>
					</g>
					<g>
						<rect x="234.59" y="249.36" class="st12" width="10" height="10"/>
						<rect x="244.59" y="249.36" class="st13" width="18" height="10"/>
					</g>
					<g>
						<rect x="234.59" y="238.36" class="st12" width="10" height="10"/>
						<rect x="244.59" y="238.36" class="st13" width="18" height="10"/>
					</g>
					<g>
						<rect x="234.59" y="227.36" class="st12" width="10" height="10"/>
						<rect x="244.59" y="227.36" class="st13" width="18" height="10"/>
					</g>
					<g>
						<rect x="234.59" y="216.36" class="st12" width="10" height="10"/>
						<rect x="244.59" y="216.36" class="st13" width="18" height="10"/>
					</g>
				</g>
				<g>
					<g>
						<rect x="204.59" y="293.36" class="st12" width="10" height="10"/>
						<rect x="214.59" y="293.36" class="st13" width="18" height="10"/>
					</g>
					<g>
						<rect x="204.59" y="282.36" class="st12" width="10" height="10"/>
						<rect x="214.59" y="282.36" class="st13" width="18" height="10"/>
					</g>
					<g>
						<rect x="204.59" y="271.36" class="st12" width="10" height="10"/>
						<rect x="214.59" y="271.36" class="st13" width="18" height="10"/>
					</g>
					<g>
						<rect x="204.59" y="260.36" class="st12" width="10" height="10"/>
						<rect x="214.59" y="260.36" class="st13" width="18" height="10"/>
					</g>
				</g>
			</g>
		</g>
		<g>
			<path class="st14" d="M550.15,87.94l-9.45,17.63l-0.02-0.01c-4.93,8.09-15.4,11.03-23.85,6.5c-8.45-4.53-11.8-14.88-7.79-23.46
				l-0.02-0.01l9.45-17.63l-5.29-2.83l-9.45,17.63c-4.98,10.29-1.93,22.57,6.9,29.41l-15.28,28.5l5.29,2.83l15.16-28.28
				c11.02,4.78,24.03,0.62,30.19-9.81l9.45-17.63L550.15,87.94z"/>
			<g>
				<g>
					<g>
						
							<rect x="440.95" y="146.14" transform="matrix(6.123234e-17 -1 1 6.123234e-17 281.4472 610.4472)" class="st1" width="10" height="36.71"/>
						<g>
							
								<rect x="457.37" y="163.71" transform="matrix(6.123234e-17 -1 1 6.123234e-17 291.4405 626.8691)" class="st14" width="3.57" height="8"/>
							
								<rect x="448.56" y="163.71" transform="matrix(6.123234e-17 -1 1 6.123234e-17 282.6355 618.064)" class="st14" width="3.57" height="8"/>
							
								<rect x="455.94" y="158.71" transform="matrix(6.123234e-17 -1 1 6.123234e-17 296.4405 621.8691)" class="st15" width="6.43" height="8"/>
							
								<rect x="447.14" y="158.71" transform="matrix(6.123234e-17 -1 1 6.123234e-17 287.6355 613.064)" class="st15" width="6.43" height="8"/>
							
								<rect x="439.76" y="163.71" transform="matrix(6.123234e-17 -1 1 6.123234e-17 273.8304 609.259)" class="st14" width="3.57" height="8"/>
							
								<rect x="438.33" y="158.71" transform="matrix(6.123234e-17 -1 1 6.123234e-17 278.8304 604.259)" class="st15" width="6.43" height="8"/>
							
								<rect x="430.95" y="163.71" transform="matrix(6.123234e-17 -1 1 6.123234e-17 265.0254 600.454)" class="st14" width="3.57" height="8"/>
							
								<rect x="429.53" y="158.71" transform="matrix(6.123234e-17 -1 1 6.123234e-17 270.0254 595.454)" class="st15" width="6.43" height="8"/>
						</g>
					</g>
					<g>
						
							<rect x="476.45" y="134.64" transform="matrix(-0.5804 -0.8143 0.8143 -0.5804 636.6864 633.071)" class="st1" width="10" height="35.71"/>
						<g>
							
								<rect x="491.99" y="143.77" transform="matrix(-0.5804 -0.8143 0.8143 -0.5804 660.1102 635.4624)" class="st14" width="3.57" height="7.79"/>
							
								<rect x="485.01" y="148.74" transform="matrix(-0.5804 -0.8143 0.8143 -0.5804 645.0388 637.6387)" class="st14" width="3.57" height="7.79"/>
							
								<rect x="487.66" y="139.7" transform="matrix(-0.5804 -0.8143 0.8143 -0.5804 658.8398 626.6644)" class="st15" width="6.43" height="7.79"/>
							
								<rect x="480.68" y="144.67" transform="matrix(-0.5804 -0.8143 0.8143 -0.5804 643.7684 628.8407)" class="st15" width="6.43" height="7.79"/>
							
								<rect x="478.04" y="153.71" transform="matrix(-0.5804 -0.8143 0.8143 -0.5804 629.9675 639.815)" class="st14" width="3.57" height="7.79"/>
							
								<rect x="473.71" y="149.64" transform="matrix(-0.5804 -0.8143 0.8143 -0.5804 628.697 631.017)" class="st15" width="6.43" height="7.79"/>
							
								<rect x="471.06" y="158.68" transform="matrix(-0.5804 -0.8143 0.8143 -0.5804 614.8961 641.9913)" class="st14" width="3.57" height="7.79"/>
							
								<rect x="466.73" y="154.61" transform="matrix(-0.5804 -0.8143 0.8143 -0.5804 613.6256 633.1933)" class="st15" width="6.43" height="7.79"/>
						</g>
					</g>
				</g>
				<g>
					<circle class="st5" cx="464.09" cy="164.5" r="11.5"/>
					<circle class="st1" cx="464.09" cy="164.5" r="6"/>
				</g>
				<g>
					<circle class="st5" cx="500.09" cy="139.5" r="9"/>
					<circle class="st1" cx="500.09" cy="139.5" r="4.7"/>
				</g>
			</g>
		</g>
		<g>
			<path class="st14" d="M534.85,231.62l-16.96-10.6l0.01-0.02c-7.74-5.46-9.98-16.1-4.9-24.23c5.08-8.13,15.63-10.78,23.93-6.2
				l0.01-0.02l16.96,10.6l3.18-5.09l-16.96-10.6c-9.93-5.66-22.39-3.43-29.8,4.92l-27.42-17.15l-3.18,5.09l27.21,17.02
				c-5.51,10.68-2.22,23.94,7.77,30.78l16.96,10.6L534.85,231.62z"/>
			<g>
				<g>
					<g>
						
							<rect x="440.45" y="202.64" transform="matrix(6.123234e-17 -1 1 6.123234e-17 224.9473 665.9472)" class="st1" width="10" height="35.71"/>
						<g>
							
								<rect x="456.51" y="219.82" transform="matrix(6.123234e-17 -1 1 6.123234e-17 234.5808 682.0093)" class="st14" width="3.57" height="7.79"/>
							
								<rect x="447.94" y="219.82" transform="matrix(6.123234e-17 -1 1 6.123234e-17 226.0156 673.4441)" class="st14" width="3.57" height="7.79"/>
							
								<rect x="455.08" y="214.82" transform="matrix(6.123234e-17 -1 1 6.123234e-17 239.5808 677.0093)" class="st15" width="6.43" height="7.79"/>
							
								<rect x="446.52" y="214.82" transform="matrix(6.123234e-17 -1 1 6.123234e-17 231.0156 668.4441)" class="st15" width="6.43" height="7.79"/>
							
								<rect x="439.38" y="219.82" transform="matrix(6.123234e-17 -1 1 6.123234e-17 217.4504 664.8789)" class="st14" width="3.57" height="7.79"/>
							
								<rect x="437.95" y="214.82" transform="matrix(6.123234e-17 -1 1 6.123234e-17 222.4504 659.8789)" class="st15" width="6.43" height="7.79"/>
							
								<rect x="430.81" y="219.82" transform="matrix(6.123234e-17 -1 1 6.123234e-17 208.8852 656.3137)" class="st14" width="3.57" height="7.79"/>
							
								<rect x="429.39" y="214.82" transform="matrix(6.123234e-17 -1 1 6.123234e-17 213.8852 651.3137)" class="st15" width="6.43" height="7.79"/>
						</g>
					</g>
					<g>
						
							<rect x="467.45" y="183.64" transform="matrix(-0.8291 -0.5592 0.5592 -0.8291 751.4647 632.7284)" class="st1" width="10" height="35.71"/>
						<g>
							
								<rect x="480.51" y="188.75" transform="matrix(-0.8291 -0.5592 0.5592 -0.8291 774.4296 622.0403)" class="st14" width="3.57" height="7.79"/>
							
								<rect x="475.72" y="195.85" transform="matrix(-0.8291 -0.5592 0.5592 -0.8291 761.6991 632.3506)" class="st14" width="3.57" height="7.79"/>
							
								<rect x="474.94" y="185.96" transform="matrix(-0.8291 -0.5592 0.5592 -0.8291 768.4109 614.6088)" class="st15" width="6.43" height="7.79"/>
							
								<rect x="470.15" y="193.06" transform="matrix(-0.8291 -0.5592 0.5592 -0.8291 755.6804 624.9191)" class="st15" width="6.43" height="7.79"/>
							
								<rect x="470.93" y="202.95" transform="matrix(-0.8291 -0.5592 0.5592 -0.8291 748.9686 642.6609)" class="st14" width="3.57" height="7.79"/>
							
								<rect x="465.36" y="200.16" transform="matrix(-0.8291 -0.5592 0.5592 -0.8291 742.9498 635.2294)" class="st15" width="6.43" height="7.79"/>
							
								<rect x="466.14" y="210.06" transform="matrix(-0.8291 -0.5592 0.5592 -0.8291 736.238 652.9713)" class="st14" width="3.57" height="7.79"/>
							
								<rect x="460.57" y="207.26" transform="matrix(-0.8291 -0.5592 0.5592 -0.8291 730.2193 645.5397)" class="st15" width="6.43" height="7.79"/>
						</g>
					</g>
				</g>
				<g>
					<circle class="st5" cx="461.09" cy="218.5" r="11.5"/>
					<circle class="st1" cx="461.09" cy="218.5" r="6"/>
				</g>
				<g>
					<circle class="st5" cx="486.09" cy="181.5" r="9"/>
					<circle class="st1" cx="486.09" cy="181.5" r="4.7"/>
				</g>
			</g>
		</g>
		<g>
			<path class="st14" d="M103.44,55.27l10.93,16.75l-0.02,0.01c4.73,8.21,2.28,18.81-5.75,24.04c-8.03,5.24-18.72,3.2-24.32-4.43
				l-0.02,0.01L73.33,74.91l-5.03,3.28l10.93,16.75c6.63,9.31,18.87,12.53,29.11,8.07l17.67,27.09l5.03-3.28l-17.53-26.88
				c9.48-7.37,12.08-20.78,5.89-31.19l-10.93-16.75L103.44,55.27z"/>
			<g>
				<g>
					<g>
						<g>
							
								<rect x="163.23" y="140.14" transform="matrix(6.123234e-17 -1 1 6.123234e-17 10.733 327.7329)" class="st1" width="12" height="36.71"/>
							<g>
								
									<rect x="180.3" y="158.35" transform="matrix(6.123234e-17 -1 1 6.123234e-17 20.0834 344.7976)" class="st14" width="4.29" height="8"/>
								
									<rect x="171.49" y="158.35" transform="matrix(6.123234e-17 -1 1 6.123234e-17 11.2783 335.9926)" class="st14" width="4.29" height="8"/>
								
									<rect x="178.58" y="152.35" transform="matrix(6.123234e-17 -1 1 6.123234e-17 26.0834 338.7976)" class="st15" width="7.71" height="8"/>
								
									<rect x="169.78" y="152.35" transform="matrix(6.123234e-17 -1 1 6.123234e-17 17.2783 329.9926)" class="st15" width="7.71" height="8"/>
								
									<rect x="162.69" y="158.35" transform="matrix(6.123234e-17 -1 1 6.123234e-17 2.4733 327.1876)" class="st14" width="4.29" height="8"/>
								
									<rect x="160.97" y="152.35" transform="matrix(6.123234e-17 -1 1 6.123234e-17 8.4733 321.1876)" class="st15" width="7.71" height="8"/>
								
									<rect x="153.88" y="158.35" transform="matrix(6.123234e-17 -1 1 6.123234e-17 -6.3317 318.3825)" class="st14" width="4.29" height="8"/>
								
									<rect x="152.17" y="152.35" transform="matrix(6.123234e-17 -1 1 6.123234e-17 -0.3317 312.3825)" class="st15" width="7.71" height="8"/>
							</g>
						</g>
						<g>
							
								<rect x="131.05" y="120.64" transform="matrix(0.8186 -0.5744 0.5744 0.8186 -54.8724 103.2738)" class="st1" width="10" height="35.71"/>
							<g>
								
									<rect x="124.25" y="125.94" transform="matrix(0.8186 -0.5744 0.5744 0.8186 -51.7083 95.9503)" class="st14" width="3.57" height="7.79"/>
								
									<rect x="129.17" y="132.95" transform="matrix(0.8186 -0.5744 0.5744 0.8186 -54.8429 100.0484)" class="st14" width="3.57" height="7.79"/>
								
									<rect x="126.91" y="123.06" transform="matrix(0.8186 -0.5744 0.5744 0.8186 -49.316 97.7802)" class="st15" width="6.43" height="7.79"/>
								
									<rect x="131.83" y="130.08" transform="matrix(0.8186 -0.5744 0.5744 0.8186 -52.4507 101.8783)" class="st15" width="6.43" height="7.79"/>
								
									<rect x="134.09" y="139.96" transform="matrix(0.8186 -0.5744 0.5744 0.8186 -57.9776 104.1465)" class="st14" width="3.57" height="7.79"/>
								
									<rect x="136.75" y="137.09" transform="matrix(0.8186 -0.5744 0.5744 0.8186 -55.5853 105.9763)" class="st15" width="6.43" height="7.79"/>
								
									<rect x="139.01" y="146.97" transform="matrix(0.8186 -0.5744 0.5744 0.8186 -61.1123 108.2445)" class="st14" width="3.57" height="7.79"/>
								
									<rect x="141.67" y="144.1" transform="matrix(0.8186 -0.5744 0.5744 0.8186 -58.72 110.0744)" class="st15" width="6.43" height="7.79"/>
							</g>
						</g>
					</g>
					<g>
						<circle class="st5" cx="122.38" cy="119.5" r="9"/>
						<circle class="st1" cx="122.38" cy="119.5" r="4.7"/>
					</g>
				</g>
				<g>
					<circle class="st5" cx="150.38" cy="158.5" r="11.5"/>
					<circle class="st1" cx="150.38" cy="158.5" r="6"/>
				</g>
			</g>
		</g>
		<g>
			<path class="st14" d="M90.13,278.56l11.45-16.39l-0.02-0.01c4.99-8.05,2.88-18.72-4.98-24.22s-18.6-3.8-24.45,3.66l-0.02-0.01
				l-11.45,16.39l-4.92-3.44l11.45-16.39c6.93-9.09,19.26-11.92,29.35-7.13l18.52-26.51l4.92,3.44l-18.38,26.3
				c9.24,7.67,11.41,21.16,4.89,31.37L95.05,282L90.13,278.56z"/>
			<g>
				<g>
					<g>
						<g>
							
								<rect x="163.73" y="168.67" transform="matrix(-1.836970e-16 1 -1 -1.836970e-16 356.2616 16.7957)" class="st1" width="12" height="35.71"/>
							<g>
								
									<rect x="180.44" y="178.78" transform="matrix(-1.836970e-16 1 -1 -1.836970e-16 365.2523 0.0908)" class="st14" width="4.29" height="7.79"/>
								
									<rect x="171.87" y="178.78" transform="matrix(-1.836970e-16 1 -1 -1.836970e-16 356.6871 8.656)" class="st14" width="4.29" height="7.79"/>
								
									<rect x="178.72" y="184.78" transform="matrix(-1.836970e-16 1 -1 -1.836970e-16 371.2523 6.0908)" class="st15" width="7.71" height="7.79"/>
								
									<rect x="170.16" y="184.78" transform="matrix(-1.836970e-16 1 -1 -1.836970e-16 362.6871 14.656)" class="st15" width="7.71" height="7.79"/>
								
									<rect x="163.31" y="178.78" transform="matrix(-1.836970e-16 1 -1 -1.836970e-16 348.1219 17.2211)" class="st14" width="4.29" height="7.79"/>
								
									<rect x="161.59" y="184.78" transform="matrix(-1.836970e-16 1 -1 -1.836970e-16 354.1219 23.2211)" class="st15" width="7.71" height="7.79"/>
								
									<rect x="154.74" y="178.78" transform="matrix(-1.836970e-16 1 -1 -1.836970e-16 339.5567 25.7863)" class="st14" width="4.29" height="7.79"/>
								
									<rect x="153.03" y="184.78" transform="matrix(-1.836970e-16 1 -1 -1.836970e-16 345.5567 31.7863)" class="st15" width="7.71" height="7.79"/>
							</g>
						</g>
						<g>
							
								<rect x="128.05" y="179.67" transform="matrix(0.5804 0.8143 -0.8143 0.5804 216.6834 -25.4596)" class="st1" width="10" height="35.71"/>
							<g>
								
									<rect x="118.93" y="198.47" transform="matrix(0.5804 0.8143 -0.8143 0.5804 215.4512 -13.3898)" class="st14" width="3.57" height="7.79"/>
								
									<rect x="125.91" y="193.5" transform="matrix(0.5804 0.8143 -0.8143 0.5804 214.3298 -21.1558)" class="st14" width="3.57" height="7.79"/>
								
									<rect x="120.41" y="202.55" transform="matrix(0.5804 0.8143 -0.8143 0.5804 219.9846 -14.0445)" class="st15" width="6.43" height="7.79"/>
								
									<rect x="127.38" y="197.58" transform="matrix(0.5804 0.8143 -0.8143 0.5804 218.8632 -21.8104)" class="st15" width="6.43" height="7.79"/>
								
									<rect x="132.88" y="188.53" transform="matrix(0.5804 0.8143 -0.8143 0.5804 213.2084 -28.9218)" class="st14" width="3.57" height="7.79"/>
								
									<rect x="134.36" y="192.6" transform="matrix(0.5804 0.8143 -0.8143 0.5804 217.7418 -29.5764)" class="st15" width="6.43" height="7.79"/>
								
									<rect x="139.86" y="183.56" transform="matrix(0.5804 0.8143 -0.8143 0.5804 212.087 -36.6877)" class="st14" width="3.57" height="7.79"/>
								
									<rect x="141.33" y="187.63" transform="matrix(0.5804 0.8143 -0.8143 0.5804 216.6204 -37.3424)" class="st15" width="6.43" height="7.79"/>
							</g>
						</g>
					</g>
					<g>
						<circle class="st5" cx="113.38" cy="211.53" r="9"/>
						<circle class="st1" cx="113.38" cy="211.53" r="4.7"/>
					</g>
				</g>
				<g>
					<circle class="st5" cx="150.38" cy="187.53" r="11.5"/>
					<circle class="st1" cx="150.38" cy="187.53" r="6"/>
				</g>
			</g>
		</g>
	</g>
	<g>
		<g>
			
				<rect x="56.78" y="241.32" transform="matrix(0.5581 -0.8298 0.8298 0.5581 -188.4099 188.0648)" class="st16" width="51.16" height="59.2"/>
			
				<rect x="42.96" y="232.29" transform="matrix(0.5581 -0.8298 0.8298 0.5581 -186.8047 172.4922)" class="st17" width="51.16" height="58.67"/>
			
				<rect x="51.36" y="269.52" transform="matrix(0.5581 -0.8298 0.8298 0.5581 -204.5701 170.661)" class="st18" width="13.16" height="15.74"/>
			
				<rect x="72.56" y="237.99" transform="matrix(0.5581 -0.8298 0.8298 0.5581 -169.0392 174.3235)" class="st18" width="13.16" height="15.74"/>
			<g>
				
					<rect x="59.37" y="227.5" transform="matrix(0.5581 -0.8298 0.8298 0.5581 -167.0551 156.5328)" class="st19" width="8.13" height="15.22"/>
				<g>
					
						<rect x="65.58" y="237.71" transform="matrix(0.5581 -0.8298 0.8298 0.5581 -167.6439 162.2442)" class="st20" width="5.85" height="1.62"/>
					
						<rect x="63.86" y="237.08" transform="matrix(0.5581 -0.8298 0.8298 0.5581 -167.4442 160.3067)" class="st20" width="5.85" height="0.57"/>
					
						<rect x="61.15" y="234.87" transform="matrix(0.5581 -0.8298 0.8298 0.5581 -167.1293 157.2522)" class="st20" width="5.85" height="1.32"/>
					
						<rect x="62.75" y="236.21" transform="matrix(0.5581 -0.8298 0.8298 0.5581 -167.3151 159.0551)" class="st20" width="5.85" height="0.81"/>
					
						<rect x="59.55" y="234.19" transform="matrix(0.5581 -0.8298 0.8298 0.5581 -166.9436 155.4507)" class="st20" width="5.85" height="0.55"/>
					
						<rect x="57.17" y="232.32" transform="matrix(0.5581 -0.8298 0.8298 0.5581 -166.6678 152.7757)" class="st20" width="5.85" height="1.09"/>
					
						<rect x="56.18" y="231.93" transform="matrix(0.5581 -0.8298 0.8298 0.5581 -166.5527 151.6587)" class="st20" width="5.85" height="0.54"/>
					
						<rect x="58.35" y="233.28" transform="matrix(0.5581 -0.8298 0.8298 0.5581 -166.8041 154.0971)" class="st20" width="5.85" height="0.75"/>
					
						<rect x="55.14" y="231.09" transform="matrix(0.5581 -0.8298 0.8298 0.5581 -166.4314 150.4821)" class="st20" width="5.85" height="0.81"/>
				</g>
			</g>
		</g>
		
			<rect x="37.74" y="263.82" transform="matrix(0.8298 0.5581 -0.5581 0.8298 161.4464 3.2169)" class="st18" width="75.41" height="4.91"/>
	</g>
	<g>
		<g>
			<polygon class="st15" points="41.07,66.56 38.3,68.33 66.08,111.66 81.2,72.94 			"/>
			<polygon class="st15" points="102.65,27.07 105.42,25.29 133.2,68.61 91.71,66.2 			"/>
			<polygon class="st21" points="66.08,111.66 133.2,68.61 91.71,66.2 81.2,72.94 			"/>
			<polygon class="st21" points="41.07,66.56 38.3,68.33 89.43,75.32 105.42,25.29 102.65,27.07 			"/>
			<polygon class="st3" points="90.68,76.23 105.68,25.22 89.23,75.06 38.56,68.26 			"/>
		</g>
		<g>
			<circle class="st12" cx="123.59" cy="53" r="8"/>
			<circle class="st13" cx="123.59" cy="53" r="6"/>
		</g>
		<g>
			<circle class="st12" cx="25.59" cy="206" r="10"/>
			<circle class="st13" cx="25.59" cy="206" r="7.5"/>
		</g>
		<g>
			<circle class="st12" cx="459.59" cy="265" r="13"/>
			<circle class="st13" cx="459.59" cy="265" r="9.75"/>
		</g>
		<g>
			<circle class="st12" cx="545.59" cy="147" r="11.5"/>
			<circle class="st13" cx="545.59" cy="147" r="8.63"/>
		</g>
		<g>
			<circle class="st12" cx="394.59" cy="83" r="11.5"/>
			<circle class="st13" cx="394.59" cy="83" r="8.63"/>
		</g>
	</g>
	<g>
		<g>
			<circle class="st7" cx="553" cy="221" r="30"/>
			<circle class="st21" cx="553" cy="221" r="25"/>
			<circle class="st7" cx="553" cy="221" r="20"/>
			<circle class="st21" cx="553" cy="221" r="15"/>
			<circle class="st7" cx="553" cy="221" r="10"/>
		</g>
		<polygon class="st1" points="584.82,196.25 579.71,194.29 577.75,189.18 569.89,197.04 571.46,201.12 552.29,220.29 553,221 
			553.71,221.71 572.88,202.54 576.96,204.11 		"/>
	</g>
	<g>
		<polyline class="st22" points="569.7,46.46 574.37,53.68 574.49,45.34 569.7,46.46 541.31,31.75 539.47,27.19 532.72,32.1 
			541.31,31.75 		"/>
		<polygon class="st23" points="547.29,112.89 499.96,88.37 532.72,32.1 574.37,53.68 		"/>
		<g>
			<g>
				<circle class="st22" cx="534.48" cy="42.62" r="2.13"/>
				<circle class="st22" cx="564.77" cy="58.31" r="2.13"/>
			</g>
			<path class="st21" d="M563.68,57.75c-4.52,6.45-13.25,8.75-20.43,5.02s-10.34-12.17-7.68-19.59l-1.91-0.99
				c-3.19,8.47,0.38,18.21,8.61,22.47s18.25,1.57,23.33-5.92L563.68,57.75z"/>
		</g>
		<polygon class="st24" points="571.24,48.46 575.07,45.64 556.98,36.27 538.88,26.89 538.79,31.64 532.72,32.1 553.54,42.89 
			574.37,53.68 		"/>
	</g>
	<path class="st21" d="M217.95,269.07c0.4-6.21-6.9-6.07-6.9-6.07H195.4h-5.47h-15.64c0,0-7.3-0.14-6.9,6.07
		c0,0,0.02,0.11,0.06,0.33h-2.49c-0.66-0.06-3.89-0.2-5.53,2.32c-1.07,1.64-1.15,3.84-0.24,6.55c1.63,4.87,7.02,8.19,10.09,9.73
		c3.49,1.75,7.19,2.87,9.89,3.04c1.11,0.88,2.32,1.67,3.63,2.31h-9.42v0h-5.8c-0.09,0-0.19,0.01-0.29,0.01
		c-0.92,0.1-3.75,0.5-4.16,1.85c0,0.01,0,0.01,0,0.02c0,0-2.5,3.9,13.5,5.92V303h32.09v-1.86l0.02,0
		c14.75-1.86,13.78-5.06,13.54-5.82c-0.01-0.03-0.02-0.06-0.04-0.1c-0.49-1.61-4.45-1.88-4.45-1.88h-8.76v0h-6.46
		C214.9,287.27,217.95,269.07,217.95,269.07z M170.53,284.61c-4.38-2.2-7.52-5.07-8.39-7.68c-0.27-0.81-0.65-2.27-0.19-2.99
		c0.52-0.81,2.11-0.93,2.8-0.87l0.14,0.01h3.46c1.02,3.52,2.96,8.76,6.32,13.26C173.38,285.91,171.97,285.33,170.53,284.61z
		 M205.39,287.86c0,0,3.74-3.74,5.91-15.77c0,0,0.49-2.46-0.79-2.66h-6.01c0,0-3.45-1.38,0-3.25h5.62c0,0,5.12,0,5.12,3.15
		C215.24,269.33,212.49,283.91,205.39,287.86z"/>
	<path class="st14" d="M492.52,52l-3.29-0.13c-0.37-2.13-1.2-4.11-2.41-5.81l2.24-2.42c-0.93-1.22-2.02-2.31-3.24-3.24l-2.42,2.24
		c-1.7-1.2-3.67-2.04-5.81-2.41l-0.13-3.29c-0.75-0.1-1.52-0.15-2.29-0.15c-0.78,0-1.54,0.06-2.29,0.15l-0.13,3.29
		c-2.13,0.37-4.11,1.2-5.81,2.41l-2.42-2.24c-1.22,0.93-2.31,2.02-3.24,3.24l2.24,2.42c-1.2,1.7-2.04,3.67-2.41,5.81L457.83,52
		c-0.1,0.75-0.15,1.52-0.15,2.29c0,0.78,0.06,1.54,0.15,2.29l3.29,0.13c0.37,2.13,1.2,4.11,2.41,5.81l-2.24,2.42
		c0.93,1.22,2.03,2.31,3.24,3.24l2.42-2.24c1.7,1.2,3.67,2.04,5.81,2.41l0.13,3.29c0.75,0.1,1.52,0.15,2.29,0.15
		c0.78,0,1.54-0.06,2.29-0.15l0.13-3.29c2.13-0.37,4.11-1.2,5.81-2.41l2.42,2.24c1.22-0.93,2.31-2.03,3.24-3.24l-2.24-2.42
		c1.2-1.7,2.04-3.67,2.41-5.81l3.29-0.13c0.1-0.75,0.15-1.52,0.15-2.29C492.68,53.52,492.62,52.75,492.52,52z M475.18,61.99
		c-4.25,0-7.7-3.45-7.7-7.7c0-4.25,3.45-7.7,7.7-7.7s7.7,3.45,7.7,7.7C482.88,58.55,479.43,61.99,475.18,61.99z"/>
	<path class="st21" d="M524.52,274l-3.29-0.13c-0.36-2.13-1.2-4.11-2.41-5.81l2.24-2.42c-0.93-1.22-2.03-2.31-3.24-3.24l-2.42,2.24
		c-1.7-1.2-3.67-2.04-5.81-2.41l-0.13-3.29c-0.75-0.1-1.52-0.15-2.29-0.15c-0.78,0-1.54,0.06-2.29,0.15l-0.13,3.29
		c-2.13,0.37-4.11,1.2-5.81,2.41l-2.42-2.24c-1.22,0.93-2.31,2.02-3.24,3.24l2.24,2.42c-1.2,1.7-2.04,3.67-2.41,5.81l-3.29,0.13
		c-0.1,0.75-0.15,1.52-0.15,2.29c0,0.78,0.06,1.54,0.15,2.29l3.29,0.13c0.37,2.13,1.2,4.11,2.41,5.81l-2.24,2.42
		c0.93,1.22,2.03,2.31,3.24,3.24l2.42-2.24c1.7,1.2,3.67,2.04,5.81,2.41l0.13,3.29c0.75,0.1,1.52,0.15,2.29,0.15
		c0.78,0,1.54-0.06,2.29-0.15l0.13-3.29c2.13-0.37,4.11-1.2,5.81-2.41l2.42,2.24c1.22-0.93,2.31-2.03,3.24-3.24l-2.24-2.42
		c1.2-1.7,2.04-3.67,2.41-5.81l3.29-0.13c0.1-0.75,0.15-1.52,0.15-2.29C524.68,275.52,524.62,274.75,524.52,274z M507.18,283.99
		c-4.25,0-7.7-3.45-7.7-7.7c0-4.25,3.45-7.7,7.7-7.7s7.7,3.45,7.7,7.7C514.88,280.55,511.43,283.99,507.18,283.99z"/>
	<path class="st14" d="M82.52,184l-3.29-0.13c-0.36-2.13-1.2-4.11-2.41-5.81l2.24-2.42c-0.93-1.22-2.03-2.31-3.24-3.24l-2.42,2.24
		c-1.7-1.2-3.67-2.04-5.81-2.41l-0.13-3.29c-0.75-0.1-1.52-0.15-2.29-0.15c-0.78,0-1.54,0.06-2.29,0.15l-0.13,3.29
		c-2.13,0.37-4.11,1.2-5.81,2.41l-2.42-2.24c-1.22,0.93-2.31,2.02-3.24,3.24l2.24,2.42c-1.2,1.7-2.04,3.67-2.41,5.81L47.83,184
		c-0.1,0.75-0.15,1.52-0.15,2.29c0,0.78,0.06,1.54,0.15,2.29l3.29,0.13c0.37,2.13,1.2,4.11,2.41,5.81l-2.24,2.42
		c0.93,1.22,2.03,2.31,3.24,3.24l2.42-2.24c1.7,1.2,3.67,2.04,5.81,2.41l0.13,3.29c0.75,0.1,1.52,0.15,2.29,0.15
		c0.78,0,1.54-0.06,2.29-0.15l0.13-3.29c2.13-0.37,4.11-1.2,5.81-2.41l2.42,2.24c1.22-0.93,2.31-2.03,3.24-3.24l-2.24-2.42
		c1.2-1.7,2.04-3.67,2.41-5.81l3.29-0.13c0.1-0.75,0.15-1.52,0.15-2.29C82.68,185.52,82.62,184.75,82.52,184z M65.18,193.99
		c-4.25,0-7.7-3.45-7.7-7.7c0-4.25,3.45-7.7,7.7-7.7s7.7,3.45,7.7,7.7C72.88,190.55,69.43,193.99,65.18,193.99z"/>
	<path class="st21" d="M460.96,75.02l-4.71-0.18c-0.52-3.05-1.72-5.87-3.44-8.29l3.2-3.46c-1.34-1.74-2.89-3.3-4.63-4.63l-3.46,3.2
		c-2.43-1.72-5.24-2.92-8.29-3.44l-0.18-4.71c-1.07-0.14-2.16-0.22-3.28-0.22c-1.11,0-2.2,0.08-3.28,0.22l-0.18,4.71
		c-3.05,0.52-5.87,1.72-8.29,3.44l-3.46-3.2c-1.74,1.34-3.3,2.89-4.63,4.63l3.2,3.46c-1.72,2.43-2.92,5.24-3.44,8.29l-4.71,0.18
		c-0.14,1.07-0.22,2.16-0.22,3.28s0.08,2.2,0.22,3.28l4.71,0.18c0.52,3.05,1.72,5.87,3.44,8.29l-3.2,3.46
		c1.34,1.74,2.89,3.3,4.63,4.63l3.46-3.2c2.43,1.72,5.24,2.92,8.29,3.44l0.18,4.71c1.07,0.14,2.16,0.22,3.28,0.22
		c1.11,0,2.2-0.08,3.28-0.22l0.18-4.71c3.05-0.52,5.87-1.72,8.29-3.44l3.46,3.2c1.74-1.34,3.3-2.89,4.63-4.63l-3.2-3.46
		c1.72-2.43,2.92-5.24,3.44-8.29l4.71-0.18c0.14-1.07,0.22-2.16,0.22-3.28S461.1,76.09,460.96,75.02z M436.18,89.29
		c-6.08,0-11-4.92-11-11c0-6.08,4.92-11,11-11s11,4.92,11,11C447.18,84.37,442.25,89.29,436.18,89.29z"/>
	<rect x="142.59" y="303" class="st2" width="330" height="17"/>
</g>
</svg>
