<?xml version="1.0" encoding="utf-8"?>
<!-- Generator: Adobe Illustrator 23.0.5, SVG Export Plug-In . SVG Version: 6.00 Build 0)  -->
<svg version="1.0" id="Layer_1" xmlns="http://www.w3.org/2000/svg" xmlns:xlink="http://www.w3.org/1999/xlink" x="0px" y="0px"
	 viewBox="0 0 624 320" style="enable-background:new 0 0 624 320;" xml:space="preserve">
<style type="text/css">
	.st0{opacity:0.3;fill:#35B24A;}
	.st1{opacity:0.5;}
	.st2{fill:#0071BC;}
	.st3{fill:#041E30;}
	.st4{fill:#013F26;}
	.st5{fill:#FFFFFF;}
	.st6{fill:#242449;}
	.st7{fill:#F4CDAF;}
	.st8{fill:#C69C6D;}
	.st9{fill:#ECD1BD;}
	.st10{fill:#00A26D;}
	.st11{fill:#015E3A;}
	.st12{fill:#2DD397;}
	.st13{fill:#005362;}
	.st14{fill:#EA824E;}
	.st15{fill:#D35A1E;}
	.st16{opacity:0.2;fill:#FFFFFF;}
	.st17{fill:#EF6A1C;}
	.st18{fill:#FBFBFB;}
	.st19{opacity:0.05;}
	.st20{opacity:0.12;}
	.st21{fill:#DDE4E8;}
	.st22{opacity:0.47;}
	.st23{fill:#879499;}
	.st24{opacity:0.32;fill:#879499;}
	.st25{fill:#E6E6E6;}
</style>
<rect x="0" class="st0" width="624" height="320"/>
<g>
	<g class="st1">
		<path class="st2" d="M303.57,265.94c-15.88,0.04-31.75,0.32-47.6,1.62c-5.98,0.49-11.83,1.57-17.82,2.01
			c-11.96,0.87-23.71,2.5-35.72,3.25c-9.67,0.6-19.38,0.96-29.02,1.73c-9.04,0.72-19.04,0.55-28.01-0.63
			c-6.64-0.88-13.31-1.37-19.84-2.78c-7.3-1.58-15.24-2.71-22.84-2.67c-10.85,0.06-21.42,0.06-31.8,2.85
			c-3.64,0.98-8.11,2.59-10.87,4.64c-6.34,4.7-7.19,16.42-0.87,21.3c10.66,8.2,33.4,11.42,48.33,11.57
			c16.37,0.17,32.27-0.73,48.66-1.26c15.23-0.49,30.42-1.19,45.68-1.16c31.16,0.05,62.32,0,93.43-1.54
			c29.22-1.45,58.52-0.95,87.8-0.95c30.03,0,59.86,0.17,89.67,3.13c12.99,1.29,26.23,1.74,39.28,2.64
			c11.69,0.81,22.93-0.02,34.58-0.76c9.78-0.63,19.49-2.48,28.38-5.62c7.03-2.49,19.57-10.21,21.73-16.14
			c6.05-16.63-85.21-16.23-99.22-16.2c-15.67,0.04-31.47,0.42-47.13-0.02c-6.59-0.19-13.08-1.14-19.51-2.18
			c-6.4-1.04-12.86-0.78-19.35-1.21c-27.08-1.82-54.23-1.56-81.4-1.56C321.26,265.98,312.41,265.92,303.57,265.94z"/>
	</g>
	<g>
		<g>
			<g>
				<g>
					<path class="st3" d="M313.54,277.29c-0.21-0.66-0.55-1.26-1.05-1.69c-0.26-0.23-0.56-0.41-0.82-0.64
						c-1.2-1.12-1.09-2.21-2.82-1.93c-1.98,0.32-3.94,0.73-5.91,1.09c-0.08,0.01-0.16,0.03-0.22,0.09c-0.09,0.08-0.1,0.21-0.12,0.33
						c-0.07,0.71-0.14,1.42-0.21,2.13c-0.19,1.92-1.84,2.5-3.18,3.28c-0.35,0.2-0.7,0.4-1.07,0.61c-1.53,0.87-6.17,2.83-3.82,5.28
						c0.97,1.01,2.62,0.98,3.89,1.09c1.23,0.11,2.46-0.22,3.66-0.41c3.86-0.82,7.42-2.07,10.89-4.07c1.24-0.71,1.13-2.67,1-4.06
						C313.72,278.01,313.65,277.64,313.54,277.29z"/>
					<g>
						<polygon class="st4" points="305.95,153.06 310.16,168.98 306.53,214.6 312.68,275.1 301.12,276.32 285.15,218.62 
							272.27,155.41 						"/>
					</g>
				</g>
				<g>
					<path class="st3" d="M259.88,283.08c-0.05-0.69-0.24-1.36-0.62-1.9c-0.2-0.29-0.45-0.53-0.64-0.83
						c-0.91-1.38-0.54-2.41-2.29-2.58c-1.99-0.19-4-0.27-5.99-0.41c-0.08-0.01-0.16-0.01-0.23,0.03c-0.1,0.05-0.15,0.18-0.19,0.29
						c-0.23,0.67-0.47,1.34-0.7,2.01c-0.63,1.81-2.37,1.97-3.85,2.4c-0.38,0.11-0.78,0.22-1.18,0.33c-1.68,0.47-6.64,1.21-4.94,4.18
						c0.71,1.23,2.31,1.61,3.52,2.03c1.17,0.41,2.43,0.4,3.65,0.51c3.94,0.16,7.68-0.17,11.52-1.24c1.37-0.38,1.72-2.31,1.91-3.7
						C259.89,283.83,259.9,283.45,259.88,283.08z"/>
					<g>
						<polygon class="st4" points="281.44,160.62 286.99,172.17 267.67,220.49 259.55,280.74 248.05,279.05 245.99,219.07 
							248.2,154.51 						"/>
					</g>
				</g>
			</g>
			<path class="st5" d="M319.25,153.18c-0.46-2.94-0.93-5.38-1.06-6.26c-1.8-11.93-6.97-23.34-10.3-34.87
				c-3.96-13.71-8.58-27.21-13.84-40.45c-1.95-4.9-4.42-10.23-9.18-12.21c-5.47-2.27-10.75-6.86-16.21-3.54
				c-1.12,0.68-2.48,1-3.65,1.6c-6.94,3.59-10.44,9.44-11.97,17.29c-1.23,6.32-2.46,12.63-3.7,18.95
				c-1.01,5.19-2.02,10.38-2.81,15.61c-2.06,13.69-2.56,27.59-2.48,41.44c0.04,6.95,0.23,13.89,0.44,20.83
				c0.14,4.44,2.07,2.31,4.45,0.63c4.1-2.89,8.16-5.89,12.98-7.38c2.34-0.72,4.77-1.06,7.2-1.34c14.76-1.72,29.82-1.4,44.3,2.01
				c0.86,0.2,1.74,0.42,2.48,0.92c0.99,0.66,2.42,2.26,3.6,1.17c0.73-0.68,0.69-2.66,0.73-3.56
				C320.37,160.41,319.8,156.73,319.25,153.18z"/>
		</g>
		<g>
			<g>
				<g>
					<path class="st6" d="M260.44,28.4c-1.1,2.66-1.45,5.63-1.27,8.53c0.05,0.77,0.09,1.66-0.45,2.18
						c-0.58,0.56,0.09,1.56-0.46,0.96c-0.55-0.59-2.42-2.66-2.57-3.47c-0.37-1.9-0.57-3.83-0.59-5.77
						c-0.02-1.68,0.12-3.46,1.03-4.85c0.54-0.82,1.3-1.45,2.06-2.05c1.09-0.88,2.23-1.77,3.54-2.18c2.27-0.72,3.79,0,1.92,1.93
						C262.29,25.06,261.2,26.58,260.44,28.4z"/>
				</g>
				<g>
					<g>
						<path class="st7" d="M278.29,59.51c-3.16,0.68-6.32,1.35-9.48,2.03c-0.79-2.85-1.38-5.76-1.77-8.71
							c-2.83-0.19-6.2-0.76-7.48-3.72c-0.4-0.93-0.52-1.98-0.63-3.01c-0.47-4.24-0.95-8.48-1.42-12.72
							c-0.16-1.47-0.32-2.98,0.01-4.4c0.59-2.49,2.57-4.15,4.57-5.29c5.1-2.89,11.32-3.51,16.59-0.81c1.4,0.72,2.75,1.69,3.67,3.12
							c1.41,2.2,1.56,5.09,1.66,7.81c0.09,2.5,0.18,5,0.28,7.51c0.11,2.88,0.04,6.21-1.91,7.96c-1.04,0.93-2.47,1.24-3.33,2.38
							C277.53,53.7,278.65,56.86,278.29,59.51z"/>
					</g>
				</g>
				<g>
					<path class="st6" d="M258.46,48.67c0.77,2.59,2.25,4.97,4.45,6.22c2.49,1.42,5.42,1.21,8.18,0.97c1.51-0.13,3.02-0.27,4.53-0.4
						c3.82-0.34,7.55-1.28,9.07-5.72c0.7-2.05,0.75-4.34,0.39-6.52c-0.1-0.6-0.24-1.21-0.56-1.7c-0.33-0.49-0.88-0.83-1.4-0.69
						c-0.66,0.18-0.99,0.99-1.36,1.63c-0.81,1.4-2.41,2.32-3.84,1.78c-0.42-0.16-0.8-0.43-1.18-0.7c-0.15-0.11-0.31-0.22-0.47-0.33
						c-1.56-1.05-3.37-1.41-5.15-1.45c-1.54-0.04-3.84-0.37-4.83,1.12c-0.57,0.87-1.15,1.73-1.72,2.6
						c-0.24,0.36-0.48,0.72-0.81,0.97c-0.34,0.26-0.74,0.37-1.15,0.43c-1.02,0.14-2.22-0.23-2.68-1.28c-0.2-0.46-0.23-0.98-0.3-1.48
						c-0.07-0.5-0.2-1.03-0.53-1.38c-1.28-1.32-1.36,1.02-1.33,1.81C257.83,45.93,258.06,47.33,258.46,48.67z M268.91,48.22
						c1.3,0.72,2.56,0.58,3.86,0.01c0.67-0.3,1.08,0.88,0.42,1.18c-1.56,0.69-3.17,0.82-4.72-0.04
						C267.81,49.01,268.26,47.86,268.91,48.22z"/>
				</g>
				<g>
					<path class="st6" d="M254.79,21.6c-0.37-1-0.68-2.02-0.91-3.07c0.97,0.24,1.99,0.21,2.95-0.07c-0.06-0.61-0.12-1.22-0.18-1.83
						c-0.05-0.51,6.45-1.6,6.97-1.71c4.92-0.99,9.43-1.91,14.21,0.38c4.09,1.96,6.92,5.26,8,9.84c1.03,4.38,0.25,10.35-1.81,14.32
						c-0.11-1.19,0.25-4.05-0.14-5.15c-0.28-1.11-0.76-2.15-1.38-3.1c-1.23-1.89-2.99-3.4-4.94-4.39c-3.11-1.59-6.6-2.22-10.04-2.33
						c-3.15-0.1-6.97-0.09-9.94,1.12c-1.43,0.58-1.63,1-2.69-0.46c-0.19-0.26-1.77-3.33-1.65-3.35
						C253.76,21.73,254.28,21.67,254.79,21.6z"/>
				</g>
			</g>
		</g>
	</g>
	<g>
		<g>
			<g>
				<path class="st7" d="M71.9,40.98c0.66,0.46,1.19,1.25,1.61,1.98c0.68,1.19,1.6,2.54,2.93,2.52c1.15-0.02,2.09-1.12,3.25-1.14
					c1.26-0.03,2.21,1.27,2.46,2.55c0.25,1.28,0.01,2.6,0.1,3.9c0.15,2.35,1.82,5.6-0.49,7.33c-0.66,0.49-2.43,0.98-3.22,0.74
					c-1.17-0.36-1.04-0.9-1.48-2.07c-0.47-1.27-0.95-2.53-1.42-3.8c-0.7-1.88-2.28-2.1-3.73-3.25c-0.98-0.78-1.6-1.94-2.19-3.06
					c-0.57-1.08-1.15-2.21-1.16-3.43c-0.01-1.23,0.78-2.55,1.96-2.67C71.03,40.53,71.49,40.69,71.9,40.98z"/>
				<path class="st8" d="M82.35,85.88c-2.3-6.8-3.86-13.85-5.27-20.91c-0.42-2.1-3.56-8.49-2.37-10.26c1.45-2.16,7.65-1.1,9.42,0.05
					c2.31,1.51,3.8,5.8,5,8.21c3.29,6.62,5.94,14.02,11.8,18.75c-0.83-0.67,14.41-10.03,15.88-10.62
					c4.89-1.95,15.35-6.65,15.33,1.83c-0.01,3.6-0.13,7.19-0.37,10.78c-0.4,6.04-3.01,12.13-8.04,15.51
					c-3.87,2.61-8.48,3.76-13.03,4.62c-5.56,1.04-11.19,1.71-16.83,1.98c-5.11,0.25-5.98-6.83-7.92-10.94
					C84.57,91.95,83.39,88.95,82.35,85.88z"/>
			</g>
			<g>
				<g>
					<g>
						<path class="st9" d="M164.56,281.33c1.62,0.21,3.13-0.3,4.71-0.39c0.24-5.74-0.06-11.28-0.95-17.01
							c-2.6,2.66-4.57,0.91-4.77,6.18C163.49,271.82,165.02,278.76,164.56,281.33z"/>
						<path class="st3" d="M169.79,278.11c1.88-0.57,2.05,4,2,5.07c-0.03,0.64-0.14,1.3-0.01,1.93c0.14,0.69,0.54,1.3,0.94,1.87
							c0.83,1.21,1.66,2.42,2.49,3.64c0.37,0.54,0.75,1.1,0.93,1.74c0.45,1.59-0.53,3.38-2,4.04c-5.09,2.29-9.27-4.23-10.11-8.42
							c-0.13-0.64-0.21-1.29-0.3-1.94c-0.17-1.35-0.99-4.31-0.41-5.58c0.68-1.48,2.43-0.28,3.64-0.78
							C168.08,279.22,169.03,278.35,169.79,278.11z"/>
					</g>
					<path class="st4" d="M139.61,185.03c3.9,13.25,8.53,26.26,10.82,40.03c2.83,17.01,7.98,33.73,10.17,50.74
						c2,0.18,4.02,0.21,6.02,0.09c2.3-0.15,5.96-0.57,6.93-3.1c0.49-1.29,0.16-3.46,0.17-4.84c0.03-4.4-0.03-8.79-0.1-13.19
						c-0.2-12.44-0.12-25.01-1.66-37.35c-1.62-12.98-3.13-26-4.47-38.96c-0.69-6.7-1.63-13.37-2.87-19.99
						c-0.32-1.7-3.66-19.27-4.51-19.19c-10.08,1.06-19.61,3.93-28.59,8.75c-0.87,0.47-1.72,1.04-2.07,1.94
						c-0.34,0.91-0.12,1.72,0.11,2.57c2.16,8.14,5.22,15.82,7.55,23.94C137.93,179.31,138.76,182.13,139.61,185.03z"/>
				</g>
				<g>
					<g>
						<path class="st9" d="M131.91,276.47c-1.55,0.52-3.13,0.32-4.7,0.54c-1.28-5.59-1.99-11.09-2.16-16.9
							c3.03,2.11,4.65,0.01,5.81,5.15C131.24,266.92,130.99,274.03,131.91,276.47z"/>
						<path class="st3" d="M125.72,275.26c-0.17,3.11-2.73,6.32-4.19,9.04c-0.17,0.32-0.35,0.65-0.37,1.02
							c-0.04,0.54,0.26,1.04,0.54,1.5c0.39,0.64,0.82,1.31,1.49,1.62c0.65,0.31,1.41,0.22,2.12,0.1c1.19-0.2,2.36-0.45,3.53-0.76
							c0.29-0.08,0.59-0.16,0.83-0.34c0.29-0.21,0.47-0.54,0.65-0.86c0.9-1.63,1.65-2.79,1.71-4.66c0.06-1.94-0.07-3.96,0.38-5.86
							c0.22-0.92,0.51-2.1-0.23-2.65c-0.57-0.43-1.7,0.05-2.35,0.12c-1.16,0.13-2.21-0.01-3.3,0.55c-0.22,0.11-0.44,0.25-0.58,0.46
							C125.78,274.75,125.73,275,125.72,275.26z"/>
					</g>
					<path class="st4" d="M138.92,177.04c-1.43,13.77-3.61,27.45-3.36,41.42c0.31,17.26-1.71,34.68-0.76,51.81
						c-1.93,0.57-3.91,0.99-5.9,1.25c-2.29,0.3-5.96,0.6-7.37-1.7c-0.72-1.17-0.79-3.37-1.05-4.72c-0.83-4.31-1.57-8.64-2.3-12.98
						c-2.06-12.26-4.42-24.59-5.16-37.01c-0.77-13.06-1.65-26.15-2.69-39.14c-0.54-6.71-0.83-13.45-0.81-20.19
						c0-1.74,0.09-19.64,0.94-19.72c10.09-0.92,19.97,0.05,29.68,3.05c0.94,0.29,1.88,0.69,2.38,1.51c0.5,0.82,0.43,1.66,0.36,2.54
						c-0.65,8.41-2.25,16.56-3.07,24.98C139.53,171.09,139.23,174.02,138.92,177.04z"/>
				</g>
				<path class="st8" d="M150.61,66.51c0.16,0.07,0.32,0.14,0.48,0.21c2.63,1.21,4.81,3.24,6.94,5.24c3.2,3,4.79,4.33,5.86,8.55
					c1,3.94,1.53,8.08,2.05,12.11c2.68,20.71,2.3,41.15,3.9,61.95c0.44,5.66,0.65,12.3-3.58,15.92c-6.82-6.15-15.76-7.01-24.41-7.52
					c-6.07-0.36-11.9-2.74-18.03-2.4c-5.86,0.33-10.86-1.47-16.78-1.42c-1.43,0.01-3.24-0.11-3.73-1.5
					c2.39-6.21,2.73-13.02,3.55-19.65c2.14-17.15,8.56-33.35,11.73-50.33c1.08-5.77,2.01-15.4,6.6-19.54
					c5-4.51,15.8-3.97,21.83-2.68C148.24,65.7,149.45,66.03,150.61,66.51z"/>
				<g>
					<g>
						<g>
							<g>
								<path class="st7" d="M145.33,69.25c-0.11,0.19-0.24,0.36-0.42,0.53c-0.71,0.65-1.67,0.98-2.61,1.07
									c-1.23,0.11-2.47-0.17-3.67-0.48c-1.62-0.42-1.51-1.41-1.66-2.96c-0.08-0.85-0.12-1.7-0.13-2.55
									c-0.01-0.47,0.26-2.12-0.01-2.47c-0.18-0.23-0.98-0.2-1.32-0.41c-0.53-0.33-0.96-0.9-1.27-1.46
									c-0.49-0.89-0.73-1.9-0.96-2.89c-0.41-1.73-0.81-3.45-1.22-5.18c-0.42-1.76-0.83-3.54-0.9-5.36
									c-0.1-2.74,0.54-6.55,2.63-8.42c1.91-1.71,4.59-2.19,7.03-2.37c3.23-0.24,6.53,0.57,9.21,2.49
									c1.08,0.78,2.09,1.76,2.68,3.07c0.91,2.02,0.7,4.45,0.47,6.73c-0.22,2.1-0.43,4.2-0.65,6.3c-0.25,2.42-0.69,5.19-2.52,6.4
									c-0.97,0.64-2.2,0.72-3.05,1.57c-1.06,1.06-1.09,2.75-1.21,4.17C145.68,67.83,145.7,68.6,145.33,69.25z"/>
							</g>
						</g>
					</g>
				</g>
				<path class="st6" d="M131.34,50.98c0.07,0.48,0.13,0.98,0.16,1.48c0.28,4.33-0.37,8.49,0.47,12.83c-3.77-1.9-7.15-4.9-9.79-8.69
					c-0.45-0.65-0.89-1.34-1.12-2.16c-0.21-0.78-0.22-1.62-0.21-2.44c0.06-5.26,0.67-10.53,1.83-15.63
					c0.46-2.02,1.01-4.05,1.96-5.81c2.85-5.32,8.58-7.09,13.73-7.15c2.98-0.03,6.11,0.42,8.52,2.5c2.6,2.25,3.31,6.13,3.18,9.44
					c-0.03,0.81-0.09,1.66-0.49,2.36c-0.82,1.46-2.71,1.74-4.35,1.83c-2.29,0.12-4.61,0.16-6.85,0.66
					c-2.24,0.51-4.45,1.54-5.96,3.32C130.32,46.04,130.96,48.33,131.34,50.98z"/>
				<path class="st6" d="M158.01,31.2c0.7,1.45,1.25,3.01,1.68,4.64c1.52,5.75,2.94,11.19,2.12,17.28c-0.11,0.85-0.26,1.7-0.57,2.48
					c-0.41,1.05-1.08,1.91-1.76,2.73c-2.72,3.27-5.77,6.12-9.05,8.48c1.39-7.34,2.75-15.21,0.53-22.14
					c-1.72-5.39-5.32-9.21-9.26-12.14c-2.2-1.64-8.13-4.96-6.61-8.62c2.09-5.04,13.56-1.83,16.74,0.2
					C154.65,25.88,156.62,28.34,158.01,31.2z"/>
			</g>
		</g>
	</g>
	<g>
		<rect x="226.15" y="151.64" class="st10" width="70.23" height="70.1"/>
		<polygon class="st11" points="296.38,221.74 313.75,203.79 313.75,133.69 296.38,151.64 		"/>
		<polygon class="st12" points="296.38,151.64 313.75,133.69 243.51,133.69 226.15,151.64 		"/>
		<polygon class="st11" points="273.64,133.69 256.27,151.64 256.27,165.77 266.24,165.77 266.24,151.64 266.26,151.64 
			283.62,133.69 		"/>
		<g>
			<polygon class="st5" points="275.85,170.03 266.25,182.84 272.08,182.84 272.08,203.36 279.63,203.36 279.63,182.84 
				285.46,182.84 			"/>
			<polygon class="st5" points="237.07,182.84 242.9,182.84 242.9,203.36 250.45,203.36 250.45,182.84 256.28,182.84 246.67,170.03 
							"/>
		</g>
		<g>
			<rect x="235.44" y="207.33" class="st5" width="51.64" height="1.06"/>
			<rect x="235.44" y="210.47" class="st5" width="51.64" height="1.06"/>
			<rect x="235.44" y="213.62" class="st5" width="51.64" height="1.06"/>
		</g>
	</g>
	<g>
		<rect x="92.29" y="151.11" class="st10" width="70.23" height="70.1"/>
		<polygon class="st11" points="162.52,221.21 179.89,203.26 179.89,133.16 162.52,151.11 		"/>
		<polygon class="st11" points="162.52,151.11 179.89,133.16 109.66,133.16 92.29,151.11 		"/>
		<g>
			<polygon class="st5" points="142,169.5 132.39,182.32 138.22,182.32 138.22,202.84 145.77,202.84 145.77,182.32 151.6,182.32 			
				"/>
			<polygon class="st5" points="103.21,182.32 109.04,182.32 109.04,202.84 116.59,202.84 116.59,182.32 122.42,182.32 
				112.82,169.5 			"/>
		</g>
		<polygon class="st12" points="179.89,133.16 200.26,153.32 182.9,171.27 162.52,151.11 		"/>
		<polygon class="st12" points="109.65,133.16 87.62,146.63 70.26,164.58 92.29,151.11 		"/>
		<polygon class="st4" points="109.65,133.16 109.65,151.11 92.29,151.11 		"/>
		<polygon class="st12" points="162.52,151.11 155.53,167.37 84.86,167.37 92.29,151.11 		"/>
		<g>
			<rect x="101.59" y="206.81" class="st5" width="51.64" height="1.06"/>
			<rect x="101.59" y="209.95" class="st5" width="51.64" height="1.06"/>
			<rect x="101.59" y="213.1" class="st5" width="51.64" height="1.06"/>
		</g>
	</g>
	<path class="st10" d="M104.99,63.2c-6.52-17.48-21.7-30.93-40.91-33.86c-13.45-2.05-26.45,1.43-36.86,8.78
		c-0.47,0.34-0.1,1.09,0.43,0.88c7.01-2.82,14.79-3.86,22.76-2.65c17.62,2.68,31.33,15.62,36.3,32.1L75.06,71.8l13.67,10.37
		l13.89,10.54l5.69-14.09l7.48-18.52L104.99,63.2z"/>
	<g>
		<g>
			<rect x="351.3" y="134.65" class="st10" width="70.23" height="70.1"/>
			<polygon class="st11" points="421.53,204.75 438.9,186.8 438.9,116.7 421.53,134.65 			"/>
			<polygon class="st12" points="421.53,134.65 438.9,116.7 368.66,116.7 351.3,134.65 			"/>
			<polygon class="st11" points="398.79,116.7 381.42,134.65 381.42,148.78 391.39,148.78 391.39,134.65 391.41,134.65 
				408.77,116.7 			"/>
			<g>
				<polygon class="st5" points="401,153.04 391.4,165.85 397.23,165.85 397.23,186.38 404.78,186.38 404.78,165.85 410.61,165.85 
									"/>
				<polygon class="st5" points="362.22,165.85 368.05,165.85 368.05,186.38 375.6,186.38 375.6,165.85 381.43,165.85 
					371.82,153.04 				"/>
			</g>
			<g>
				<rect x="360.59" y="190.34" class="st5" width="51.64" height="1.06"/>
				<rect x="360.59" y="193.49" class="st5" width="51.64" height="1.06"/>
				<rect x="360.59" y="196.63" class="st5" width="51.64" height="1.06"/>
			</g>
		</g>
		<g>
			<path class="st13" d="M389.29,103.22c0.45-0.32,0.55-0.95,0.24-1.41c-0.31-0.46-0.92-0.57-1.37-0.25l-30.67,23.73
				c-0.26,0.19-0.42,0.5-0.42,0.83v2.56l1.96-2.03l0,0L389.29,103.22z"/>
		</g>
		<g>
			<g>
				<path class="st14" d="M407.82,92.76c-0.54-0.22-1.12-0.03-1.43,0.45c-3.92,5.94-10.6,5.21-10.73,5.2
					c-5.29,0-9.59-4.43-9.59-9.87c0-4.36,2.85-8.25,6.92-9.47c0.68-0.2,1.37-0.3,2.11-0.4c1.01-0.14,2.06-0.28,3.07-0.73
					c1.64-0.73,2.95-1.97,3.7-3.51c0.97-1.99,0.92-4.19,0.88-6.33c-0.01-0.42-0.02-0.84-0.02-1.26v-4.88c0-0.32-0.25-0.57-0.55-0.57
					h-6.49c-0.3,0-0.55,0.25-0.55,0.57c0,0-0.02,6.09-0.03,6.23c-0.01,2.14-1.6,2.76-4.04,3.45c-3.5,1-6.7,3.17-8.93,6.13
					c-2.31,3.06-3.59,6.89-3.59,10.77c0,4.17,1.45,8.21,4.08,11.39c3.04,3.66,7.57,5.73,12.1,5.73c1.41,0,2.83-0.2,4.2-0.62
					c5.17-1.57,8.96-5.87,9.66-10.95C408.66,93.51,408.36,92.97,407.82,92.76z"/>
				<path class="st15" d="M407.82,92.76c-0.54-0.22-1.12-0.03-1.43,0.45v0c-3.92,5.94-10.98,5.84-14.41,4.44
					c0.01,0,0.02,0.01,0.02,0.01c-0.01,0-0.02-0.01-0.02-0.01c-0.97-0.42-1.86-1-2.64-1.7c-1.48-1.41-2.27-2.67-2.72-4.1
					c1.37,5.07,5.74,8.72,11.08,8.72c4.81,0,8.93-3.02,10.71-7.32C408.27,93.04,408.07,92.86,407.82,92.76z"/>
				<path class="st16" d="M389.77,74.59c-0.11,0.03-0.23,0.05-0.34,0.08c-6.97,2.09-10.98,9.63-8.95,16.83
					c0.86,3.08,2.7,5.59,5.05,7.3c-1.16-1.58-2.08-3.4-2.64-5.42C380.82,86.07,383.83,78.48,389.77,74.59z"/>
				<g>
					<polygon class="st14" points="373.47,15.79 425.69,15.79 425.69,41.63 373.39,41.63 					"/>
					<polygon class="st17" points="373.39,41.63 386.99,55.69 399.54,55.69 412.09,55.69 425.69,41.63 					"/>
					<path class="st15" d="M404.55,61.96h-10.4c-0.86,0-1.55-0.7-1.55-1.55v-4.71h13.51v4.71
						C406.11,61.26,405.41,61.96,404.55,61.96z"/>
				</g>
			</g>
			<path class="st17" d="M426.26,15.79h-53.45c-1,0-1.81-0.81-1.81-1.81v-2.17c0-1,0.81-1.81,1.81-1.81h53.45
				c1,0,1.81,0.81,1.81,1.81v2.17C428.07,14.98,427.26,15.79,426.26,15.79z"/>
		</g>
		<path class="st13" d="M431.2,125.67c0-0.31-0.14-0.6-0.38-0.8l-35.9-27.91c-0.36-0.29-0.86-0.29-1.22,0l-1.25,0.86l0.67,0.22
			l36.11,28.12l0.13,70.48l-1.47,1.52h2.46c0.26,0,0.51-0.11,0.7-0.3c0.18-0.19,0.29-0.45,0.29-0.72L431.2,125.67z"/>
	</g>
	<g>
		<path class="st5" d="M442.78,239.4H99.09c-3.75,0-6.79-3.14-6.79-7.02l0,0c0-3.88,3.04-7.02,6.79-7.02h343.68
			c3.75,0,6.79,3.14,6.79,7.02l0,0C449.57,236.26,446.53,239.4,442.78,239.4z"/>
		<ellipse class="st4" cx="129.84" cy="232.38" rx="4.28" ry="4.42"/>
		<ellipse class="st4" cx="271.68" cy="232.38" rx="4.28" ry="4.42"/>
		<ellipse class="st4" cx="390.34" cy="232.38" rx="4.28" ry="4.42"/>
	</g>
	<g>
		<g>
			<g>
				<path class="st7" d="M174.08,139.77c0.63-1.53,1.11-3.11,1.59-4.7c-2.34-0.56-4.68-1.09-7.03-1.56
					c-0.05,0.45-0.09,0.9-0.13,1.33c-0.2,2.24-0.06,4.52-0.49,6.73c-0.22,1.14-0.57,2.36-1.23,3.31c-0.59,0.84-1.13,1.19-1.31,2.33
					c-0.17,1.06,1.17,1.41,0.64,2.52c-0.57,1.2-2.29,0.33-3.18,1.19c-0.25,0.25-0.4,0.59-0.53,0.92c-0.32,0.86-0.55,1.87-0.14,2.69
					c1.25,2.51,4.51,1.28,5.99-0.06c1.01-0.91,2.35-1.62,3.09-2.8c1.52-2.43,0.39-5.64,1.23-8.28
					C172.99,142.15,173.58,140.98,174.08,139.77z"/>
			</g>
		</g>
		<path class="st8" d="M154.41,98.43c2.73,4.43,8.07,7.57,11.58,11.59c6.85,7.85,2.46,22.25,1.57,31.83l5.97,2.44l8.27-29.26
			l-12.56-28.06c-3.65-8.14-10.18-14.53-18.24-17.84l-5.67-2.33c2.23,0.93,4.84,17.4,5.54,19.92c0.93,3.34,1.44,7.6,2.98,10.7
			C154.01,97.76,154.2,98.1,154.41,98.43z"/>
	</g>
	<g>
		<g>
			<g>
				<path class="st9" d="M464.64,79.97c0.16-0.02,0.33-0.04,0.48-0.01c1.43,0.27,2.02,1.29,3.32,1.95c0.58,0.29,2-0.59,2.16,0.79
					c0.06,0.51,0.03,1.78,0.15,2.87c0.17,1.59,1.31,3.5,2.49,4.84c1.58,1.8,3.3,3.68,5.11,5.21c3.8,3.21,8.38,6.35,12.71,8.76
					c4.16-7.22,12.46-11.65,20.56-10.99c0.85,0.07,1.72,0.2,2.44,0.68c0.6,0.4,1.04,1.02,1.4,1.67c3.74,6.83-2.68,10.21-7.74,13.15
					c-3.16,1.84-6.48,3.49-9.87,4.83c-4.75,1.87-8.79,0.14-12.85-2.8c-4.3-3.12-8.59-6.35-12.17-10.36
					c-1.74-1.95-2.99-4.09-4.45-6.23c-1.44-2.12-2.28-1.34-4-2.85c-0.96-0.85-2.1-1.52-2.89-2.54c-1.43-1.83-0.82-4.18-0.49-6.28
					c0.08-0.52,0.14-0.88,0.43-1.28c0.47-0.65,1.2-0.86,1.92-1.09C463.76,80.13,464.19,80.03,464.64,79.97z"/>
			</g>
			<g>
				<path class="st17" d="M506.86,113.73c-2.57,1.15-5.14,2.17-7.65,3.05c-3.75,1.31-7.86,2.62-11.56,1.18
					c-1.43-0.56-2.68-1.49-3.91-2.42c-5.83-4.41-11.56-8.97-17.17-13.68c1.62-3.55,3.76-6.84,6.33-9.73
					c0.72-0.81,1.56-1.63,2.61-1.78c1.57-0.21,2.89,1.12,3.95,2.34c1.71,1.99,3.43,3.98,5.14,5.97c0.56,0.65,1.2,1.34,2.03,1.41
					c0.54,0.05,1.07-0.18,1.57-0.42c9.39-4.43,16.37-10.01,24.29-16.72c3.49-2.96,7.14-6,11.51-7.18
					c9.33-2.52,16.97,7.96,11.14,16.33C528.49,101.63,517.67,108.88,506.86,113.73z"/>
			</g>
		</g>
		<g>
			<g>
				<g>
					<polygon class="st3" points="567.33,292.38 567.6,297.13 558.67,302.45 553.8,297.97 558.13,292.94 567.06,287.62 					"/>
				</g>
				<g>
					<polygon class="st13" points="573.64,147.95 574.46,162.4 559.38,226.11 567.73,290.82 558.71,293.26 533.08,215.63 
						532.47,192.21 538.37,144.03 					"/>
				</g>
			</g>
			<g>
				<g>
					<polygon class="st13" points="515.82,155.72 509.41,216.17 513.05,295.31 521.54,296.16 533.72,224.72 552.14,153.9 					"/>
				</g>
				<g>
					<polygon class="st3" points="521.59,295.12 521.14,299.86 511.51,303.67 507.38,298.46 512.41,294.19 					"/>
				</g>
			</g>
			<g>
				<g>
					<path class="st17" d="M581.72,155.61c0.6,5.51,1.09,12.97-0.94,13.44c-0.38,0.09-0.77-0.07-1.12-0.23
						c-3.73-1.67-6.49-4.25-10.16-5.86c-3.85-1.68-8.14-2.37-12.32-2.73c-6.26-0.58-12.61-0.71-18.89-0.23
						c-4.94,0.38-9.85,1.28-14.72,2.16c-4.05,0.74-7.74,2.35-11.93,2.44c-4.29,0.1-8.61-0.86-12.46-2.83
						c-0.14-0.07-0.29-0.16-0.36-0.3c-0.08-0.16-0.03-0.35,0.01-0.52c0.65-2.55,1.06-5.05,2.46-7.24c1.56-2.45,2.56-5.46,3.61-8.18
						c2.18-5.66,4.19-11.57,5.54-17.51c2.12-8.1,4.65-16.04,6.68-24.16c1.4-5.63,2.63-11.34,4.73-16.74
						c1.64-4.23,4.69-10.48,8.82-12.67c1.4-0.74,3-0.95,4.56-1.14c4.74-0.59,9.47-1.18,14.21-1.77c1.73-0.21,3.52-0.42,5.17,0.17
						c2.46,0.88,4.03,3.32,5.41,5.61c6.19,10.25,10.55,21.51,13.48,33.28c1.53,6.14,2.98,12.31,4.24,18.51
						c1.4,6.92,2.56,13.9,3.3,20.93C581.12,150.81,581.43,152.99,581.72,155.61z"/>
				</g>
			</g>
			<g>
				<path class="st5" d="M544.8,99.36c0.07,2.8,0.7,5.55,1.32,8.27c3.81,16.59,7.63,33.18,11.44,49.78
					c-12.76,1.09-25.52,2.17-38.28,3.26c-0.09-6.34-0.19-12.68-0.28-19.03c-0.06-4.07-0.12-8.15,0.36-12.19
					c0.77-6.52,2.9-12.79,5.03-18.99c3.92-11.47,7.85-22.95,11.77-34.42c0.21-0.61,0.43-1.25,0.88-1.72
					c0.53-0.56,1.31-0.81,2.05-1.01c3.59-1,7.65-1.94,11.37-1.73c1.22,3.36-1.63,9.67-2.6,13C546.45,89.41,544.68,94.25,544.8,99.36
					z"/>
			</g>
			<g>
				<g>
					<path class="st7" d="M540.33,75.6c2.63-0.37,5.26-0.74,7.9-1.1c-0.05-2.19-0.27-4.37-0.65-6.53c0.05,0.26,4.07-2.44,4.4-3
						c0.94-1.61,0.85-4.15,1.14-5.98c0.62-3.9,1.14-8.28-1.11-11.49c-2.33-3.32-6.8-4.1-10.76-3.84
						c-4.97,0.33-10.37,2.35-12.53,6.98c-1.95,4.19,1.47,9.77,2.67,13.89c0.59,2.03,1.42,4.33,3.36,5.03
						c1.03,0.37,2.22,0.21,3.16,0.78C539.56,71.35,539.43,73.85,540.33,75.6z"/>
				</g>
				<g>
					<path class="st6" d="M520.24,43.8c-0.54-2.8-1.09-5.61-1.63-8.41c-0.2-1.04-0.4-2.12-0.16-3.15c0.4-1.72,1.94-2.91,3.55-3.53
						c1.6-0.61,3.33-0.79,4.96-1.33c1.74-0.57,3.39-1.55,5.21-1.64c3.46-0.17,6.4,2.89,9.86,3.13c4.79,0.33,8.93-2.31,12.29,3.16
						c0.62,1.01,0.87,2.21,1.43,3.25c0.72,1.35,1.9,2.35,2.86,3.53c4.22,5.17,3.75,13.66-0.36,18.77c-1.99,2.48-2.71,4.61-5.67,5.63
						c1.13-3.04-1.72-14.45-5.63-15.39c-1.03-0.25-3.94,1.3-5.03,1.58c-2.43,0.6-4.79,1.24-7.02,2.45
						c-3.31,1.8-6.95,3.19-10.65,3.83c-0.47,0.08-1,0.15-1.39-0.14c-0.37-0.27-0.48-0.77-0.57-1.23
						C521.6,50.8,520.92,47.3,520.24,43.8z"/>
				</g>
			</g>
		</g>
		<g>
			<g>
				<g>
					<polygon class="st10" points="547.1,222.17 472.8,193.84 509.15,91.95 583.45,120.29 					"/>
					<polygon class="st11" points="479.9,191.58 481.01,192 545.89,219.11 578.55,122.1 575.18,121.84 					"/>
					<polygon class="st18" points="544.92,216.37 478.11,190.89 511.74,96.63 578.55,122.1 					"/>
					<polygon class="st19" points="511.5,96.13 559.56,114.45 496.59,137.67 					"/>
					<g>
						<polygon class="st20" points="558.83,117.2 529.82,106.13 530.81,103.34 559.83,114.4 						"/>
						<g>
							<path class="st21" d="M556.9,103.67l-0.45-0.17l0.11-0.31c1.05-2.94-0.76-6.34-4.05-7.59l-4.33-1.65
								c-3.28-1.25-6.8,0.11-7.85,3.05l-0.11,0.31l-0.45-0.17c-3.28-1.25-6.8,0.11-7.85,3.05l-2.12,5.94l29.02,11.06l2.12-5.94
								C562,108.32,560.19,104.92,556.9,103.67z M552.12,101.98l-7.64-2.91c-0.78-0.3-1.19-1.2-0.9-2c0.29-0.8,1.16-1.22,1.94-0.92
								l7.64,2.91c0.78,0.3,1.19,1.2,0.9,2C553.78,101.87,552.9,102.28,552.12,101.98z"/>
						</g>
					</g>
				</g>
				<g class="st22">
					<path class="st23" d="M521,130.09c-3.27-1.25-6.54-2.49-9.81-3.74c-0.28-0.11-0.6,0.05-0.7,0.33c-1.2,3.36-2.4,6.72-3.6,10.08
						c-0.1,0.28,0.05,0.61,0.32,0.72c3.27,1.25,6.54,2.49,9.81,3.74c0.15,0.06,0.28,0.04,0.4-0.01c0.01,0,0.02-0.01,0.02-0.01
						c0,0,0.01,0,0.01-0.01c0.11-0.05,0.21-0.15,0.27-0.3c1.2-3.36,2.4-6.72,3.6-10.08C521.43,130.53,521.28,130.2,521,130.09z
						 M516.9,139.98c-2.93-1.12-5.86-2.23-8.79-3.35c1.07-3.01,2.15-6.02,3.22-9.03c2.93,1.12,5.86,2.23,8.79,3.35
						C519.05,133.96,517.97,136.97,516.9,139.98z"/>
					<path class="st23" d="M514.36,148.73c-3.27-1.25-6.54-2.49-9.81-3.74c-0.28-0.11-0.6,0.05-0.7,0.33
						c-1.2,3.36-2.4,6.72-3.6,10.08c-0.1,0.28,0.05,0.61,0.32,0.72c3.27,1.25,6.54,2.49,9.81,3.74c0.15,0.06,0.28,0.04,0.4-0.01
						c0.01,0,0.02-0.01,0.02-0.01c0,0,0.01,0,0.01-0.01c0.11-0.05,0.21-0.15,0.27-0.3c1.2-3.36,2.4-6.72,3.6-10.08
						C514.78,149.17,514.63,148.84,514.36,148.73z M510.25,158.61c-2.93-1.12-5.86-2.23-8.79-3.35c1.07-3.01,2.15-6.02,3.22-9.03
						c2.93,1.12,5.86,2.23,8.79,3.35C512.4,152.6,511.32,155.6,510.25,158.61z"/>
					<path class="st23" d="M507.71,167.37c-3.27-1.25-6.54-2.49-9.81-3.74c-0.28-0.11-0.6,0.05-0.7,0.33
						c-1.2,3.36-2.4,6.72-3.6,10.08c-0.1,0.28,0.05,0.61,0.32,0.72c3.27,1.25,6.54,2.49,9.81,3.74c0.15,0.06,0.28,0.04,0.4-0.01
						c0.01,0,0.02-0.01,0.02-0.01c0,0,0.01,0,0.01-0.01c0.11-0.05,0.21-0.15,0.27-0.3c1.2-3.36,2.4-6.72,3.6-10.08
						C508.13,167.8,507.98,167.47,507.71,167.37z M503.6,177.25c-2.93-1.12-5.86-2.23-8.79-3.35c1.07-3.01,2.15-6.02,3.22-9.03
						c2.93,1.12,5.86,2.23,8.79,3.35C505.75,171.23,504.67,174.24,503.6,177.25z"/>
				</g>
				<polygon class="st17" points="513.14,131.43 515.67,131.52 516.09,134.31 529.71,130.44 530.87,131.17 514.58,136.95 				"/>
				<polygon class="st17" points="505.5,150.22 508.03,150.31 508.46,153.11 522.08,149.23 523.24,149.97 506.95,155.75 				"/>
				<polygon class="st17" points="499.01,167.78 501.54,167.87 501.96,170.67 515.58,166.79 516.74,167.53 500.45,173.31 				"/>
				<polygon class="st24" points="545.35,192.1 510.75,178.9 512.55,173.86 547.15,187.06 				"/>
				<polygon class="st24" points="552.39,172.36 517.79,159.16 519.59,154.12 554.19,167.32 				"/>
				<polygon class="st24" points="559.44,152.62 524.83,139.43 526.63,134.39 561.24,147.58 				"/>
			</g>
		</g>
		<g>
			<path class="st7" d="M574.23,125.51c0.23,0.63,0.23,1.5-0.37,1.78c-0.35,0.16-0.76,0.03-1.14-0.04
				c-1.44-0.26-3.01,0.63-3.57,2.03c-0.66,1.65,0.1,3.64,1.43,4.78c1.33,1.14,3.1,1.58,4.82,1.74c1.08,0.1,2.29,0.06,3.08-0.71
				c0.41-0.39,0.65-0.93,0.86-1.47c1.08-2.74,1.98-6.31-0.11-8.8C577.59,122.85,572.7,121.28,574.23,125.51z"/>
			<path class="st17" d="M586.61,124.96c-0.22-0.28-0.47-0.54-0.75-0.78c-2.3-1.92-5.27-3.77-8.33-2.79
				c0.92,5.85,0.04,12-2.47,17.33c-0.2,0.42-0.41,0.91-0.23,1.34c0.35,0.81,2.86,1.38,3.61,1.41c3.33,0.15,6.76-1.56,8.2-4.1
				c0.85-1.49,1.03-3.15,1.19-4.76C588.09,130.11,588.2,127.02,586.61,124.96z"/>
		</g>
	</g>
	<g>
		<g>
			<path class="st7" d="M273.55,137.74c0.01-0.17,0.03-0.35,0.08-0.51c0.44-1.45,1.29-1.84,2-3.06c0.32-0.55-0.1-2.25,0.95-2.1
				c0.39,0.05,1.32,0.37,2.15,0.5c1.2,0.18,2.8-0.59,3.99-1.53c1.6-1.26,3.27-2.65,4.71-4.22c3.01-3.29,6.11-7.41,8.62-11.44
				c-4.62-6.03-6.49-15.8-4.63-24.2c0.19-0.88,0.44-1.77,0.91-2.42c0.4-0.55,0.93-0.87,1.47-1.1c5.68-2.41,7.08,5.14,8.4,11.16
				c0.82,3.75,1.48,7.64,1.89,11.52c0.58,5.44-1.39,9.31-4.24,12.93c-3.03,3.83-6.15,7.63-9.71,10.5c-1.73,1.39-3.53,2.23-5.36,3.29
				c-1.81,1.04-1.37,2.1-2.78,3.58c-0.79,0.82-1.48,1.87-2.37,2.48c-1.59,1.09-3.22-0.08-4.72-0.9c-0.37-0.21-0.63-0.34-0.87-0.74
				c-0.4-0.64-0.43-1.47-0.48-2.28C273.51,138.71,273.51,138.22,273.55,137.74z"/>
		</g>
		<g>
			<path class="st25" d="M305.61,100.81c0.42,2.98,0.73,5.92,0.96,8.77c0.33,4.25,0.61,8.9-1.09,12.47
				c-0.65,1.38-1.55,2.49-2.45,3.58c-4.24,5.16-8.58,10.17-13.01,15.03c-2.35-2.51-4.41-5.52-6.11-8.89
				c-0.48-0.95-0.94-2.02-0.87-3.16c0.11-1.71,1.32-2.8,2.4-3.64c1.76-1.36,3.52-2.72,5.28-4.08c0.57-0.44,1.19-0.96,1.38-1.82
				c0.13-0.56,0.05-1.17-0.04-1.75c-1.68-10.92-4.62-19.55-8.23-29.44c-1.59-4.36-3.22-8.89-3.35-13.78
				c-0.28-10.42,8.75-16.12,13.94-8.06C300.34,75.23,303.86,88.3,305.61,100.81z"/>
		</g>
	</g>
	<g>
		<path class="st7" d="M253.91,140.44c0.6-0.69,0.81-1.76,0.39-2.59c1.55,0.21,3.14,0.42,4.66,0.02c1.52-0.4,2.95-1.54,3.25-3.13
			c-1.86-2.29-4.63-3.76-7.52-3.99c-1.25-0.1-2.6,0.05-3.61,0.83C246.9,134.8,249.56,145.4,253.91,140.44z"/>
		<path class="st7" d="M251.34,135.83c0.96-0.8,2.17-1.22,3.36-1.57c1.28-0.38,2.72-0.82,3.37-2.03c0.55-1.03,0.34-2.33-0.09-3.42
			c-0.85-2.17-2.54-4.02-4.67-4.82c-2.13-0.8-4.67-0.46-6.42,1.03c-1.58,1.36-2.38,3.49-2.57,5.6c-0.31,3.49,0.88,9.77,5.5,8.49
			C249.82,137.81,250.36,136.64,251.34,135.83z"/>
	</g>
</g>
</svg>
