<?xml version="1.0" encoding="utf-8"?>
<!-- Generator: Adobe Illustrator 23.0.5, SVG Export Plug-In . SVG Version: 6.00 Build 0)  -->
<svg version="1.0" id="Layer_1" xmlns="http://www.w3.org/2000/svg" xmlns:xlink="http://www.w3.org/1999/xlink" x="0px" y="0px"
	 viewBox="0 0 624 320" style="enable-background:new 0 0 624 320;" xml:space="preserve">
<style type="text/css">
	.st0{opacity:0.3;fill:#35B24A;}
	.st1{fill:#005362;}
	.st2{fill:#FFFFFF;}
	.st3{fill:#EF6A1C;}
	.st4{fill:#FFFF00;}
	.st5{fill:#C78B5B;}
	.st6{fill:#D1AC7C;}
	.st7{fill:#EAD1B7;}
	.st8{fill:#F7EEE5;}
	.st9{fill:#444248;}
	.st10{fill:#E5BE84;}
	.st11{fill:none;stroke:#FFFFFF;stroke-width:2;stroke-miterlimit:10;}
	.st12{fill:none;stroke:#FFFFFF;stroke-width:2;stroke-miterlimit:10;stroke-dasharray:5.0213,5.0213;}
	.st13{fill:none;stroke:#FFFFFF;stroke-width:2;stroke-miterlimit:10;stroke-dasharray:5.0049,5.0049;}
	.st14{fill:#00A26D;}
	.st15{fill:#CCCCCC;}
	.st16{fill:#9BD3FA;}
</style>
<rect x="0" class="st0" width="624" height="320"/>
<g>
	<g>
		<g>
			<g>
				<g>
					<g>
						<rect x="461.84" y="46.48" class="st1" width="48.01" height="28.24"/>
						<rect x="457.61" y="74.72" class="st2" width="56.49" height="7.06"/>
						<g>
							<path class="st2" d="M457.61,32.36V49.3c0,3.9,3.16,7.06,7.06,7.06c3.9,0,7.06-3.16,7.06-7.06V32.36H457.61z"/>
							<path class="st3" d="M471.73,32.36V49.3c0,3.9,3.16,7.06,7.06,7.06c3.9,0,7.06-3.16,7.06-7.06V32.36H471.73z"/>
							<path class="st2" d="M485.85,32.36V49.3c0,3.9,3.16,7.06,7.06,7.06c3.9,0,7.06-3.16,7.06-7.06V32.36H485.85z"/>
							<path class="st3" d="M499.97,32.36V49.3c0,3.9,3.16,7.06,7.06,7.06c3.9,0,7.06-3.16,7.06-7.06V32.36H499.97z"/>
						</g>
						<g>
							<rect x="470.32" y="60.6" class="st4" width="9.88" height="14.12"/>
							<rect x="491.5" y="60.6" class="st4" width="9.88" height="9.88"/>
						</g>
					</g>
					<g>
						<path class="st2" d="M485.85,104.14c-25.96,0-47.07-21.12-47.07-47.07S459.89,10,485.85,10s47.07,21.12,47.07,47.07
							S511.8,104.14,485.85,104.14z M485.85,13.77c-23.88,0-43.31,19.43-43.31,43.31s19.43,43.31,43.31,43.31
							s43.31-19.43,43.31-43.31S509.73,13.77,485.85,13.77z"/>
					</g>
				</g>
				<g>
					<g>
						<rect x="461.84" y="252.34" class="st1" width="48.01" height="28.24"/>
						<rect x="457.61" y="280.58" class="st2" width="56.49" height="7.06"/>
						<g>
							<path class="st2" d="M457.61,238.22v16.95c0,3.9,3.16,7.06,7.06,7.06c3.9,0,7.06-3.16,7.06-7.06v-16.95H457.61z"/>
							<path class="st3" d="M471.73,238.22v16.95c0,3.9,3.16,7.06,7.06,7.06c3.9,0,7.06-3.16,7.06-7.06v-16.95H471.73z"/>
							<path class="st2" d="M485.85,238.22v16.95c0,3.9,3.16,7.06,7.06,7.06c3.9,0,7.06-3.16,7.06-7.06v-16.95H485.85z"/>
							<path class="st3" d="M499.97,238.22v16.95c0,3.9,3.16,7.06,7.06,7.06c3.9,0,7.06-3.16,7.06-7.06v-16.95H499.97z"/>
						</g>
						<g>
							<rect x="470.32" y="266.46" class="st4" width="9.88" height="14.12"/>
							<rect x="491.5" y="266.46" class="st4" width="9.88" height="9.88"/>
						</g>
					</g>
					<g>
						<path class="st2" d="M485.85,310c-25.96,0-47.07-21.12-47.07-47.07s21.12-47.07,47.07-47.07s47.07,21.12,47.07,47.07
							S511.8,310,485.85,310z M485.85,219.62c-23.88,0-43.31,19.43-43.31,43.31s19.43,43.31,43.31,43.31s43.31-19.43,43.31-43.31
							S509.73,219.62,485.85,219.62z"/>
					</g>
				</g>
				<g>
					<g>
						<rect x="496.99" y="149.41" class="st1" width="48.01" height="28.24"/>
						<rect x="492.75" y="177.65" class="st2" width="56.49" height="7.06"/>
						<g>
							<path class="st2" d="M492.75,135.29v16.95c0,3.9,3.16,7.06,7.06,7.06c3.9,0,7.06-3.16,7.06-7.06v-16.95H492.75z"/>
							<path class="st3" d="M506.87,135.29v16.95c0,3.9,3.16,7.06,7.06,7.06c3.9,0,7.06-3.16,7.06-7.06v-16.95H506.87z"/>
							<path class="st2" d="M521,135.29v16.95c0,3.9,3.16,7.06,7.06,7.06c3.9,0,7.06-3.16,7.06-7.06v-16.95H521z"/>
							<path class="st3" d="M535.12,135.29v16.95c0,3.9,3.16,7.06,7.06,7.06c3.9,0,7.06-3.16,7.06-7.06v-16.95H535.12z"/>
						</g>
						<g>
							<rect x="505.46" y="163.53" class="st4" width="9.88" height="14.12"/>
							<rect x="526.64" y="163.53" class="st4" width="9.88" height="9.88"/>
						</g>
					</g>
					<g>
						<path class="st2" d="M521,207.07c-25.96,0-47.07-21.12-47.07-47.07s21.12-47.07,47.07-47.07c25.96,0,47.07,21.12,47.07,47.07
							S546.95,207.07,521,207.07z M521,116.69c-23.88,0-43.31,19.43-43.31,43.31s19.43,43.31,43.31,43.31
							c23.88,0,43.31-19.43,43.31-43.31S544.87,116.69,521,116.69z"/>
					</g>
				</g>
			</g>
			<g>
				<circle class="st2" cx="138.15" cy="57.07" r="47.07"/>
				<g>
					<g>
						<g>
							<rect x="120.23" y="33.22" class="st5" width="39.47" height="34.71"/>
							<rect x="109.3" y="33.22" class="st6" width="39.12" height="34.71"/>
							<rect x="123.61" y="59" class="st7" width="10.5" height="8.93"/>
							<rect x="123.61" y="33.22" class="st7" width="10.5" height="8.93"/>
							<g>
								<rect x="111.09" y="34.82" class="st8" width="10.15" height="5.52"/>
								<g>
									<rect x="119.7" y="35.59" class="st9" width="1.08" height="3.97"/>
									<rect x="118.67" y="35.59" class="st9" width="0.38" height="3.97"/>
									<rect x="116.24" y="35.59" class="st9" width="0.88" height="3.97"/>
									<rect x="117.7" y="35.59" class="st9" width="0.54" height="3.97"/>
									<rect x="115.21" y="35.59" class="st9" width="0.36" height="3.97"/>
									<rect x="113.12" y="35.59" class="st9" width="0.73" height="3.97"/>
									<rect x="112.51" y="35.59" class="st9" width="0.36" height="3.97"/>
									<rect x="114.18" y="35.59" class="st9" width="0.5" height="3.97"/>
									<rect x="111.58" y="35.59" class="st9" width="0.54" height="3.97"/>
								</g>
							</g>
						</g>
						<rect x="109.27" y="48.91" class="st7" width="50.28" height="3.33"/>
					</g>
					<g>
						<g>
							<rect x="127.56" y="46.21" class="st5" width="39.47" height="34.71"/>
							<rect x="116.63" y="46.21" class="st10" width="39.12" height="34.71"/>
							<rect x="130.94" y="71.99" class="st7" width="10.5" height="8.93"/>
							<rect x="130.94" y="46.21" class="st7" width="10.5" height="8.93"/>
							<g>
								<rect x="118.42" y="47.81" class="st8" width="10.15" height="5.52"/>
								<g>
									<rect x="127.03" y="48.58" class="st9" width="1.08" height="3.97"/>
									<rect x="126" y="48.58" class="st9" width="0.38" height="3.97"/>
									<rect x="123.56" y="48.58" class="st9" width="0.88" height="3.97"/>
									<rect x="125.02" y="48.58" class="st9" width="0.54" height="3.97"/>
									<rect x="122.54" y="48.58" class="st9" width="0.36" height="3.97"/>
									<rect x="120.45" y="48.58" class="st9" width="0.73" height="3.97"/>
									<rect x="119.84" y="48.58" class="st9" width="0.36" height="3.97"/>
									<rect x="121.51" y="48.58" class="st9" width="0.5" height="3.97"/>
									<rect x="118.91" y="48.58" class="st9" width="0.54" height="3.97"/>
								</g>
							</g>
						</g>
						<rect x="116.6" y="61.9" class="st7" width="50.28" height="3.33"/>
					</g>
				</g>
			</g>
			<g>
				<circle class="st2" cx="103" cy="160" r="47.07"/>
				<g>
					<g>
						<g>
							<rect x="85.09" y="136.15" class="st5" width="39.47" height="34.71"/>
							<rect x="74.16" y="136.15" class="st6" width="39.12" height="34.71"/>
							<rect x="88.47" y="161.93" class="st7" width="10.5" height="8.93"/>
							<rect x="88.47" y="136.15" class="st7" width="10.5" height="8.93"/>
							<g>
								<rect x="75.95" y="137.75" class="st8" width="10.15" height="5.52"/>
								<g>
									<rect x="84.55" y="138.52" class="st9" width="1.08" height="3.97"/>
									<rect x="83.52" y="138.52" class="st9" width="0.38" height="3.97"/>
									<rect x="81.09" y="138.52" class="st9" width="0.88" height="3.97"/>
									<rect x="82.55" y="138.52" class="st9" width="0.54" height="3.97"/>
									<rect x="80.07" y="138.52" class="st9" width="0.36" height="3.97"/>
									<rect x="77.98" y="138.52" class="st9" width="0.73" height="3.97"/>
									<rect x="77.36" y="138.52" class="st9" width="0.36" height="3.97"/>
									<rect x="79.03" y="138.52" class="st9" width="0.5" height="3.97"/>
									<rect x="76.44" y="138.52" class="st9" width="0.54" height="3.97"/>
								</g>
							</g>
						</g>
						<rect x="74.13" y="151.84" class="st7" width="50.28" height="3.33"/>
					</g>
					<g>
						<g>
							<rect x="92.41" y="149.14" class="st5" width="39.47" height="34.71"/>
							<rect x="81.48" y="149.14" class="st10" width="39.12" height="34.71"/>
							<rect x="95.79" y="174.92" class="st7" width="10.5" height="8.93"/>
							<rect x="95.79" y="149.14" class="st7" width="10.5" height="8.93"/>
							<g>
								<rect x="83.27" y="150.74" class="st8" width="10.15" height="5.52"/>
								<g>
									<rect x="91.88" y="151.51" class="st9" width="1.08" height="3.97"/>
									<rect x="90.85" y="151.51" class="st9" width="0.38" height="3.97"/>
									<rect x="88.42" y="151.51" class="st9" width="0.88" height="3.97"/>
									<rect x="89.88" y="151.51" class="st9" width="0.54" height="3.97"/>
									<rect x="87.39" y="151.51" class="st9" width="0.36" height="3.97"/>
									<rect x="85.3" y="151.51" class="st9" width="0.73" height="3.97"/>
									<rect x="84.69" y="151.51" class="st9" width="0.36" height="3.97"/>
									<rect x="86.36" y="151.51" class="st9" width="0.5" height="3.97"/>
									<rect x="83.76" y="151.51" class="st9" width="0.54" height="3.97"/>
								</g>
							</g>
						</g>
						<rect x="81.45" y="164.83" class="st7" width="50.28" height="3.33"/>
					</g>
				</g>
			</g>
			<g>
				<circle class="st2" cx="138.15" cy="262.93" r="47.07"/>
				<g>
					<g>
						<g>
							<rect x="120.23" y="239.08" class="st5" width="39.47" height="34.71"/>
							<rect x="109.3" y="239.08" class="st6" width="39.12" height="34.71"/>
							<rect x="123.61" y="264.86" class="st7" width="10.5" height="8.93"/>
							<rect x="123.61" y="239.08" class="st7" width="10.5" height="8.93"/>
							<g>
								<rect x="111.09" y="240.68" class="st8" width="10.15" height="5.52"/>
								<g>
									<rect x="119.7" y="241.45" class="st9" width="1.08" height="3.97"/>
									<rect x="118.67" y="241.45" class="st9" width="0.38" height="3.97"/>
									<rect x="116.24" y="241.45" class="st9" width="0.88" height="3.97"/>
									<rect x="117.7" y="241.45" class="st9" width="0.54" height="3.97"/>
									<rect x="115.21" y="241.45" class="st9" width="0.36" height="3.97"/>
									<rect x="113.12" y="241.45" class="st9" width="0.73" height="3.97"/>
									<rect x="112.51" y="241.45" class="st9" width="0.36" height="3.97"/>
									<rect x="114.18" y="241.45" class="st9" width="0.5" height="3.97"/>
									<rect x="111.58" y="241.45" class="st9" width="0.54" height="3.97"/>
								</g>
							</g>
						</g>
						<rect x="109.27" y="254.77" class="st7" width="50.28" height="3.33"/>
					</g>
					<g>
						<g>
							<rect x="127.56" y="252.07" class="st5" width="39.47" height="34.71"/>
							<rect x="116.63" y="252.07" class="st10" width="39.12" height="34.71"/>
							<rect x="130.94" y="277.85" class="st7" width="10.5" height="8.93"/>
							<rect x="130.94" y="252.07" class="st7" width="10.5" height="8.93"/>
							<g>
								<rect x="118.42" y="253.66" class="st8" width="10.15" height="5.52"/>
								<g>
									<rect x="127.03" y="254.44" class="st9" width="1.08" height="3.97"/>
									<rect x="126" y="254.44" class="st9" width="0.38" height="3.97"/>
									<rect x="123.56" y="254.44" class="st9" width="0.88" height="3.97"/>
									<rect x="125.02" y="254.44" class="st9" width="0.54" height="3.97"/>
									<rect x="122.54" y="254.44" class="st9" width="0.36" height="3.97"/>
									<rect x="120.45" y="254.44" class="st9" width="0.73" height="3.97"/>
									<rect x="119.84" y="254.44" class="st9" width="0.36" height="3.97"/>
									<rect x="121.51" y="254.44" class="st9" width="0.5" height="3.97"/>
									<rect x="118.91" y="254.44" class="st9" width="0.54" height="3.97"/>
								</g>
							</g>
						</g>
						<rect x="116.6" y="267.76" class="st7" width="50.28" height="3.33"/>
					</g>
				</g>
			</g>
		</g>
		<g>
			<g>
				<g>
					<line class="st11" x1="160.12" y1="161.88" x2="162.62" y2="161.88"/>
					<line class="st12" x1="167.64" y1="161.88" x2="456.36" y2="161.88"/>
					<line class="st11" x1="458.87" y1="161.88" x2="461.37" y2="161.88"/>
				</g>
			</g>
			<g>
				<g>
					<line class="st11" x1="191.5" y1="235.49" x2="193.63" y2="234.18"/>
					<line class="st13" x1="197.88" y1="231.55" x2="425.73" y2="90.9"/>
					<line class="st11" x1="427.86" y1="89.59" x2="429.99" y2="88.28"/>
				</g>
			</g>
			<g>
				<g>
					<line class="st11" x1="429.99" y1="235.49" x2="427.86" y2="234.18"/>
					<line class="st13" x1="423.61" y1="231.55" x2="195.75" y2="90.9"/>
					<line class="st11" x1="193.63" y1="89.59" x2="191.5" y2="88.28"/>
				</g>
			</g>
			<g>
				<polygon class="st2" points="182.71,161.88 182.71,170.04 193.49,161.88 182.71,153.72 				"/>
				<polygon class="st2" points="428,161.88 438.78,170.04 438.78,161.88 438.78,153.72 				"/>
			</g>
			<g>
				<polygon class="st2" points="218.48,104.74 214.09,111.62 227.57,110.54 222.87,97.87 				"/>
				<polygon class="st2" points="393.92,213.22 398.62,225.9 403.01,219.02 407.4,212.14 				"/>
			</g>
			<g>
				<polygon class="st2" points="403.01,104.74 407.4,111.62 393.92,110.54 398.62,97.87 				"/>
				<polygon class="st2" points="227.57,213.22 222.87,225.9 218.48,219.02 214.09,212.14 				"/>
			</g>
		</g>
		<g>
			<g>
				<path class="st1" d="M378.17,220.59c-0.53,0-1.01-0.02-1.41-0.05h-129.5c-0.4,0.03-0.88,0.05-1.41,0.05
					c-10.15,0-21.07-6.89-21.07-22.01v-73.39c0-15.12,10.92-22.01,21.07-22.01c0.53,0,1.01,0.02,1.41,0.05h129.5
					c0.4-0.03,0.88-0.05,1.41-0.05c10.15,0,21.07,6.89,21.07,22.01v73.39C399.24,213.7,388.32,220.59,378.17,220.59z"/>
				<path class="st14" d="M237.31,125.19c0-10.67,9.41-9.41,9.41-9.41h130.54c0,0,9.41-1.26,9.41,9.41v73.39
					c0,10.67-9.41,9.41-9.41,9.41H246.73c0,0-9.41,1.26-9.41-9.41V125.19z"/>
			</g>
			<g>
				<rect x="271.83" y="235.94" class="st15" width="81.59" height="12.55"/>
				<rect x="294.43" y="220.88" class="st15" width="36.4" height="15.06"/>
			</g>
		</g>
		<g>
			<g>
				<g>
					<path class="st15" d="M265.92,140.43c-0.1,0-0.2,0.02-0.31,0.03v-0.03h-19.59v0.03c-0.1-0.01-0.2-0.03-0.31-0.03
						c-1.52,0-2.75,1.23-2.75,2.75s1.23,2.75,2.75,2.75c0.1,0,0.2-0.02,0.31-0.03v0.03h9.79h9.79v-0.03c0.1,0.01,0.2,0.03,0.31,0.03
						c1.52,0,2.75-1.23,2.75-2.75S267.44,140.43,265.92,140.43z"/>
					<path class="st2" d="M255.97,145.94h-0.31h-9.49v0.31l1.22,7.35c0,0,0.61,1.84,3.67,1.84h4.59h0.31h4.59
						c3.06,0,3.67-1.84,3.67-1.84l1.22-7.35v-0.31H255.97z M251.58,148.36v2.33v2.33h-0.01c0,0.02,0.01,0.05,0.01,0.07
						c0,0.36-0.29,0.66-0.66,0.66s-0.66-0.29-0.66-0.66c0-0.02,0-0.05,0.01-0.07h-0.01v-4.66h0.01c0-0.02-0.01-0.05-0.01-0.07
						c0-0.36,0.29-0.66,0.66-0.66s0.66,0.29,0.66,0.66C251.58,148.31,251.57,148.33,251.58,148.36L251.58,148.36z M254.02,148.36
						v2.33v2.33h-0.01c0,0.02,0.01,0.05,0.01,0.07c0,0.36-0.29,0.66-0.66,0.66s-0.66-0.29-0.66-0.66c0-0.02,0-0.05,0.01-0.07h-0.01
						v-4.66h0.01c0-0.02-0.01-0.05-0.01-0.07c0-0.36,0.29-0.66,0.66-0.66s0.66,0.29,0.66,0.66
						C254.02,148.31,254.02,148.33,254.02,148.36L254.02,148.36z M256.47,148.36v2.33v2.33h-0.01c0,0.02,0.01,0.05,0.01,0.07
						c0,0.36-0.29,0.66-0.66,0.66s-0.66-0.29-0.66-0.66c0-0.02,0-0.05,0.01-0.07h-0.01v-4.66h0.01c0-0.02-0.01-0.05-0.01-0.07
						c0-0.36,0.29-0.66,0.66-0.66s0.66,0.29,0.66,0.66C256.47,148.31,256.47,148.33,256.47,148.36L256.47,148.36z M258.92,148.36
						v2.33v2.33h-0.01c0,0.02,0.01,0.05,0.01,0.07c0,0.36-0.29,0.66-0.66,0.66s-0.66-0.29-0.66-0.66c0-0.02,0-0.05,0.01-0.07h-0.01
						v-4.66h0.01c0-0.02-0.01-0.05-0.01-0.07c0-0.36,0.29-0.66,0.66-0.66s0.66,0.29,0.66,0.66
						C258.92,148.31,258.92,148.33,258.92,148.36L258.92,148.36z M261.37,148.36v2.33v2.33h-0.01c0,0.02,0.01,0.05,0.01,0.07
						c0,0.36-0.29,0.66-0.66,0.66s-0.66-0.29-0.66-0.66c0-0.02,0-0.05,0.01-0.07h-0.01v-4.66h0.01c0-0.02-0.01-0.05-0.01-0.07
						c0-0.36,0.29-0.66,0.66-0.66s0.66,0.29,0.66,0.66C261.37,148.31,261.37,148.33,261.37,148.36L261.37,148.36z"/>
					<g>
						<g>
							
								<rect x="251.37" y="132.63" transform="matrix(0.7071 0.7071 -0.7071 0.7071 171.8224 -138.3411)" class="st15" width="3.06" height="11.22"/>
							<circle class="st2" cx="249.3" cy="141.84" r="1.53"/>
						</g>
						<g>
							
								<rect x="257.2" y="132.75" transform="matrix(-0.7071 0.7071 -0.7071 -0.7071 539.5136 53.2419)" class="st15" width="3.06" height="11.22"/>
							<circle class="st2" cx="262.34" cy="141.96" r="1.53"/>
						</g>
					</g>
				</g>
				<g>
					<path class="st15" d="M317.49,140.43c-0.1,0-0.2,0.02-0.31,0.03v-0.03H297.6v0.03c-0.1-0.01-0.2-0.03-0.31-0.03
						c-1.52,0-2.75,1.23-2.75,2.75s1.23,2.75,2.75,2.75c0.1,0,0.2-0.02,0.31-0.03v0.03h9.79h9.79v-0.03c0.1,0.01,0.2,0.03,0.31,0.03
						c1.52,0,2.75-1.23,2.75-2.75S319.01,140.43,317.49,140.43z"/>
					<path class="st2" d="M307.54,145.94h-0.31h-9.49v0.31l1.22,7.35c0,0,0.61,1.84,3.67,1.84h4.59h0.31h4.59
						c3.06,0,3.67-1.84,3.67-1.84l1.22-7.35v-0.31H307.54z M303.15,148.36v2.33v2.33h-0.01c0,0.02,0.01,0.05,0.01,0.07
						c0,0.36-0.29,0.66-0.66,0.66s-0.66-0.29-0.66-0.66c0-0.02,0-0.05,0.01-0.07h-0.01v-4.66h0.01c0-0.02-0.01-0.05-0.01-0.07
						c0-0.36,0.29-0.66,0.66-0.66s0.66,0.29,0.66,0.66C303.15,148.31,303.15,148.33,303.15,148.36L303.15,148.36z M305.6,148.36
						v2.33v2.33h-0.01c0,0.02,0.01,0.05,0.01,0.07c0,0.36-0.29,0.66-0.66,0.66s-0.66-0.29-0.66-0.66c0-0.02,0-0.05,0.01-0.07h-0.01
						v-4.66h0.01c0-0.02-0.01-0.05-0.01-0.07c0-0.36,0.29-0.66,0.66-0.66s0.66,0.29,0.66,0.66
						C305.6,148.31,305.59,148.33,305.6,148.36L305.6,148.36z M308.05,148.36v2.33v2.33h-0.01c0,0.02,0.01,0.05,0.01,0.07
						c0,0.36-0.29,0.66-0.66,0.66s-0.66-0.29-0.66-0.66c0-0.02,0-0.05,0.01-0.07h-0.01v-4.66h0.01c0-0.02-0.01-0.05-0.01-0.07
						c0-0.36,0.29-0.66,0.66-0.66s0.66,0.29,0.66,0.66C308.05,148.31,308.04,148.33,308.05,148.36L308.05,148.36z M310.5,148.36
						v2.33v2.33h-0.01c0,0.02,0.01,0.05,0.01,0.07c0,0.36-0.29,0.66-0.66,0.66c-0.36,0-0.66-0.29-0.66-0.66c0-0.02,0-0.05,0.01-0.07
						h-0.01v-4.66h0.01c0-0.02-0.01-0.05-0.01-0.07c0-0.36,0.29-0.66,0.66-0.66c0.36,0,0.66,0.29,0.66,0.66
						C310.5,148.31,310.49,148.33,310.5,148.36L310.5,148.36z M312.94,148.36v2.33v2.33h-0.01c0,0.02,0.01,0.05,0.01,0.07
						c0,0.36-0.29,0.66-0.66,0.66c-0.36,0-0.66-0.29-0.66-0.66c0-0.02,0-0.05,0.01-0.07h-0.01v-4.66h0.01
						c0-0.02-0.01-0.05-0.01-0.07c0-0.36,0.29-0.66,0.66-0.66c0.36,0,0.66,0.29,0.66,0.66
						C312.94,148.31,312.94,148.33,312.94,148.36L312.94,148.36z"/>
					<g>
						<g>
							
								<rect x="302.95" y="132.63" transform="matrix(0.7071 0.7071 -0.7071 0.7071 186.9282 -174.8097)" class="st15" width="3.06" height="11.22"/>
							<circle class="st2" cx="300.87" cy="141.84" r="1.53"/>
						</g>
						<g>
							
								<rect x="308.77" y="132.75" transform="matrix(-0.7071 0.7071 -0.7071 -0.7071 627.5565 16.7734)" class="st15" width="3.06" height="11.22"/>
							<circle class="st2" cx="313.91" cy="141.96" r="1.53"/>
						</g>
					</g>
				</g>
				<g>
					<g>
						<path class="st15" d="M378.28,140.43c-0.1,0-0.2,0.02-0.31,0.03v-0.03h-19.59v0.03c-0.1-0.01-0.2-0.03-0.31-0.03
							c-1.52,0-2.75,1.23-2.75,2.75s1.23,2.75,2.75,2.75c0.1,0,0.2-0.02,0.31-0.03v0.03h9.79h9.79v-0.03
							c0.1,0.01,0.2,0.03,0.31,0.03c1.52,0,2.75-1.23,2.75-2.75S379.8,140.43,378.28,140.43z"/>
						<path class="st2" d="M368.34,145.94h-0.31h-9.49v0.31l1.22,7.35c0,0,0.61,1.84,3.67,1.84h4.59h0.31h4.59
							c3.06,0,3.67-1.84,3.67-1.84l1.22-7.35v-0.31H368.34z M363.94,148.36v2.33v2.33h-0.01c0,0.02,0.01,0.05,0.01,0.07
							c0,0.36-0.29,0.66-0.66,0.66s-0.66-0.29-0.66-0.66c0-0.02,0-0.05,0.01-0.07h-0.01v-4.66h0.01c0-0.02-0.01-0.05-0.01-0.07
							c0-0.36,0.29-0.66,0.66-0.66s0.66,0.29,0.66,0.66C363.94,148.31,363.94,148.33,363.94,148.36L363.94,148.36z M366.39,148.36
							v2.33v2.33h-0.01c0,0.02,0.01,0.05,0.01,0.07c0,0.36-0.29,0.66-0.66,0.66s-0.66-0.29-0.66-0.66c0-0.02,0-0.05,0.01-0.07h-0.01
							v-4.66h0.01c0-0.02-0.01-0.05-0.01-0.07c0-0.36,0.29-0.66,0.66-0.66s0.66,0.29,0.66,0.66
							C366.39,148.31,366.39,148.33,366.39,148.36L366.39,148.36z M368.84,148.36v2.33v2.33h-0.01c0,0.02,0.01,0.05,0.01,0.07
							c0,0.36-0.29,0.66-0.66,0.66s-0.66-0.29-0.66-0.66c0-0.02,0-0.05,0.01-0.07h-0.01v-4.66h0.01c0-0.02-0.01-0.05-0.01-0.07
							c0-0.36,0.29-0.66,0.66-0.66s0.66,0.29,0.66,0.66C368.84,148.31,368.83,148.33,368.84,148.36L368.84,148.36z M371.29,148.36
							v2.33v2.33h-0.01c0,0.02,0.01,0.05,0.01,0.07c0,0.36-0.29,0.66-0.66,0.66s-0.66-0.29-0.66-0.66c0-0.02,0-0.05,0.01-0.07h-0.01
							v-4.66h0.01c0-0.02-0.01-0.05-0.01-0.07c0-0.36,0.29-0.66,0.66-0.66s0.66,0.29,0.66,0.66
							C371.29,148.31,371.28,148.33,371.29,148.36L371.29,148.36z M373.74,148.36v2.33v2.33h-0.01c0,0.02,0.01,0.05,0.01,0.07
							c0,0.36-0.29,0.66-0.66,0.66s-0.66-0.29-0.66-0.66c0-0.02,0-0.05,0.01-0.07h-0.01v-4.66h0.01c0-0.02-0.01-0.05-0.01-0.07
							c0-0.36,0.29-0.66,0.66-0.66s0.66,0.29,0.66,0.66C373.74,148.31,373.73,148.33,373.74,148.36L373.74,148.36z"/>
						<g>
							<g>
								
									<rect x="363.74" y="132.63" transform="matrix(0.7071 0.7071 -0.7071 0.7071 204.7337 -217.7961)" class="st15" width="3.06" height="11.22"/>
								<circle class="st2" cx="361.66" cy="141.84" r="1.53"/>
							</g>
							<g>
								
									<rect x="369.57" y="132.75" transform="matrix(-0.7071 0.7071 -0.7071 -0.7071 731.3347 -26.213)" class="st15" width="3.06" height="11.22"/>
								<circle class="st2" cx="374.7" cy="141.96" r="1.53"/>
							</g>
						</g>
					</g>
					<g>
						<path class="st2" d="M352.39,151.48v3.95h-12.22c0.13-1.49,0.53-2.91,1.2-4.25c0.67-1.34,1.97-3.11,3.91-5.3
							c1.53-1.74,2.47-2.92,2.83-3.54c0.52-0.89,0.79-1.8,0.79-2.7c0-0.97-0.22-1.7-0.65-2.19c-0.43-0.49-1-0.74-1.71-0.74
							c-1.54,0-2.37,1.15-2.5,3.46l-3.46-0.42c0.21-2.26,0.84-3.92,1.88-4.97c1.04-1.06,2.43-1.59,4.17-1.59
							c1.91,0,3.34,0.62,4.31,1.86c0.97,1.24,1.45,2.66,1.45,4.26c0,0.91-0.12,1.78-0.37,2.64c-0.25,0.85-0.63,1.71-1.14,2.57
							c-0.51,0.86-1.37,1.96-2.57,3.3c-1.12,1.26-1.83,2.09-2.12,2.49c-0.3,0.4-0.54,0.8-0.72,1.18H352.39z"/>
					</g>
				</g>
				<polygon class="st2" points="287.54,142.83 283.09,142.83 283.09,138.38 280.12,138.38 280.12,142.83 275.67,142.83 
					275.67,145.79 280.12,145.79 280.12,150.24 283.09,150.24 283.09,145.79 287.54,145.79 				"/>
				<g>
					<rect x="326.01" y="139.86" class="st2" width="7.41" height="2.97"/>
					<rect x="326.01" y="145.79" class="st2" width="7.41" height="2.97"/>
				</g>
			</g>
			<g>
				<g>
					<path class="st15" d="M265.92,175.58c-0.1,0-0.2,0.02-0.31,0.03v-0.03h-19.59v0.03c-0.1-0.01-0.2-0.03-0.31-0.03
						c-1.52,0-2.75,1.23-2.75,2.75c0,1.52,1.23,2.75,2.75,2.75c0.1,0,0.2-0.02,0.31-0.03v0.03h9.79h9.79v-0.03
						c0.1,0.01,0.2,0.03,0.31,0.03c1.52,0,2.75-1.23,2.75-2.75C268.67,176.81,267.44,175.58,265.92,175.58z"/>
					<path class="st2" d="M255.97,181.09h-0.31h-9.49v0.31l1.22,7.35c0,0,0.61,1.84,3.67,1.84h4.59h0.31h4.59
						c3.06,0,3.67-1.84,3.67-1.84l1.22-7.35v-0.31H255.97z M251.58,183.5v2.33v2.33h-0.01c0,0.02,0.01,0.05,0.01,0.07
						c0,0.36-0.29,0.66-0.66,0.66s-0.66-0.29-0.66-0.66c0-0.02,0-0.05,0.01-0.07h-0.01v-4.66h0.01c0-0.02-0.01-0.05-0.01-0.07
						c0-0.36,0.29-0.66,0.66-0.66s0.66,0.29,0.66,0.66C251.58,183.45,251.57,183.48,251.58,183.5L251.58,183.5z M254.02,183.5v2.33
						v2.33h-0.01c0,0.02,0.01,0.05,0.01,0.07c0,0.36-0.29,0.66-0.66,0.66s-0.66-0.29-0.66-0.66c0-0.02,0-0.05,0.01-0.07h-0.01v-4.66
						h0.01c0-0.02-0.01-0.05-0.01-0.07c0-0.36,0.29-0.66,0.66-0.66s0.66,0.29,0.66,0.66C254.02,183.45,254.02,183.48,254.02,183.5
						L254.02,183.5z M256.47,183.5v2.33v2.33h-0.01c0,0.02,0.01,0.05,0.01,0.07c0,0.36-0.29,0.66-0.66,0.66s-0.66-0.29-0.66-0.66
						c0-0.02,0-0.05,0.01-0.07h-0.01v-4.66h0.01c0-0.02-0.01-0.05-0.01-0.07c0-0.36,0.29-0.66,0.66-0.66s0.66,0.29,0.66,0.66
						C256.47,183.45,256.47,183.48,256.47,183.5L256.47,183.5z M258.92,183.5v2.33v2.33h-0.01c0,0.02,0.01,0.05,0.01,0.07
						c0,0.36-0.29,0.66-0.66,0.66s-0.66-0.29-0.66-0.66c0-0.02,0-0.05,0.01-0.07h-0.01v-4.66h0.01c0-0.02-0.01-0.05-0.01-0.07
						c0-0.36,0.29-0.66,0.66-0.66s0.66,0.29,0.66,0.66C258.92,183.45,258.92,183.48,258.92,183.5L258.92,183.5z M261.37,183.5v2.33
						v2.33h-0.01c0,0.02,0.01,0.05,0.01,0.07c0,0.36-0.29,0.66-0.66,0.66s-0.66-0.29-0.66-0.66c0-0.02,0-0.05,0.01-0.07h-0.01v-4.66
						h0.01c0-0.02-0.01-0.05-0.01-0.07c0-0.36,0.29-0.66,0.66-0.66s0.66,0.29,0.66,0.66C261.37,183.45,261.37,183.48,261.37,183.5
						L261.37,183.5z"/>
					<g>
						<g>
							
								<rect x="251.37" y="167.77" transform="matrix(0.7071 0.7071 -0.7071 0.7071 196.6747 -128.047)" class="st15" width="3.06" height="11.22"/>
							<circle class="st2" cx="249.3" cy="176.99" r="1.53"/>
						</g>
						<g>
							
								<rect x="257.2" y="167.89" transform="matrix(-0.7071 0.7071 -0.7071 -0.7071 564.3659 113.2407)" class="st15" width="3.06" height="11.22"/>
							<circle class="st2" cx="262.34" cy="177.11" r="1.53"/>
						</g>
					</g>
				</g>
				<g>
					<path class="st15" d="M317.49,175.58c-0.1,0-0.2,0.02-0.31,0.03v-0.03H297.6v0.03c-0.1-0.01-0.2-0.03-0.31-0.03
						c-1.52,0-2.75,1.23-2.75,2.75c0,1.52,1.23,2.75,2.75,2.75c0.1,0,0.2-0.02,0.31-0.03v0.03h9.79h9.79v-0.03
						c0.1,0.01,0.2,0.03,0.31,0.03c1.52,0,2.75-1.23,2.75-2.75C320.25,176.81,319.01,175.58,317.49,175.58z"/>
					<path class="st2" d="M307.54,181.09h-0.31h-9.49v0.31l1.22,7.35c0,0,0.61,1.84,3.67,1.84h4.59h0.31h4.59
						c3.06,0,3.67-1.84,3.67-1.84l1.22-7.35v-0.31H307.54z M303.15,183.5v2.33v2.33h-0.01c0,0.02,0.01,0.05,0.01,0.07
						c0,0.36-0.29,0.66-0.66,0.66s-0.66-0.29-0.66-0.66c0-0.02,0-0.05,0.01-0.07h-0.01v-4.66h0.01c0-0.02-0.01-0.05-0.01-0.07
						c0-0.36,0.29-0.66,0.66-0.66s0.66,0.29,0.66,0.66C303.15,183.45,303.15,183.48,303.15,183.5L303.15,183.5z M305.6,183.5v2.33
						v2.33h-0.01c0,0.02,0.01,0.05,0.01,0.07c0,0.36-0.29,0.66-0.66,0.66s-0.66-0.29-0.66-0.66c0-0.02,0-0.05,0.01-0.07h-0.01v-4.66
						h0.01c0-0.02-0.01-0.05-0.01-0.07c0-0.36,0.29-0.66,0.66-0.66s0.66,0.29,0.66,0.66C305.6,183.45,305.59,183.48,305.6,183.5
						L305.6,183.5z M308.05,183.5v2.33v2.33h-0.01c0,0.02,0.01,0.05,0.01,0.07c0,0.36-0.29,0.66-0.66,0.66s-0.66-0.29-0.66-0.66
						c0-0.02,0-0.05,0.01-0.07h-0.01v-4.66h0.01c0-0.02-0.01-0.05-0.01-0.07c0-0.36,0.29-0.66,0.66-0.66s0.66,0.29,0.66,0.66
						C308.05,183.45,308.04,183.48,308.05,183.5L308.05,183.5z M310.5,183.5v2.33v2.33h-0.01c0,0.02,0.01,0.05,0.01,0.07
						c0,0.36-0.29,0.66-0.66,0.66c-0.36,0-0.66-0.29-0.66-0.66c0-0.02,0-0.05,0.01-0.07h-0.01v-4.66h0.01
						c0-0.02-0.01-0.05-0.01-0.07c0-0.36,0.29-0.66,0.66-0.66c0.36,0,0.66,0.29,0.66,0.66C310.5,183.45,310.49,183.48,310.5,183.5
						L310.5,183.5z M312.94,183.5v2.33v2.33h-0.01c0,0.02,0.01,0.05,0.01,0.07c0,0.36-0.29,0.66-0.66,0.66
						c-0.36,0-0.66-0.29-0.66-0.66c0-0.02,0-0.05,0.01-0.07h-0.01v-4.66h0.01c0-0.02-0.01-0.05-0.01-0.07
						c0-0.36,0.29-0.66,0.66-0.66c0.36,0,0.66,0.29,0.66,0.66C312.94,183.45,312.94,183.48,312.94,183.5L312.94,183.5z"/>
					<g>
						<g>
							
								<rect x="302.95" y="167.77" transform="matrix(0.7071 0.7071 -0.7071 0.7071 211.7805 -164.5155)" class="st15" width="3.06" height="11.22"/>
							<circle class="st2" cx="300.87" cy="176.99" r="1.53"/>
						</g>
						<g>
							
								<rect x="308.77" y="167.89" transform="matrix(-0.7071 0.7071 -0.7071 -0.7071 652.4088 76.7721)" class="st15" width="3.06" height="11.22"/>
							<circle class="st2" cx="313.91" cy="177.11" r="1.53"/>
						</g>
					</g>
				</g>
				<g>
					<g>
						<path class="st15" d="M378.28,175.58c-0.1,0-0.2,0.02-0.31,0.03v-0.03h-19.59v0.03c-0.1-0.01-0.2-0.03-0.31-0.03
							c-1.52,0-2.75,1.23-2.75,2.75c0,1.52,1.23,2.75,2.75,2.75c0.1,0,0.2-0.02,0.31-0.03v0.03h9.79h9.79v-0.03
							c0.1,0.01,0.2,0.03,0.31,0.03c1.52,0,2.75-1.23,2.75-2.75C381.04,176.81,379.8,175.58,378.28,175.58z"/>
						<path class="st2" d="M368.34,181.09h-0.31h-9.49v0.31l1.22,7.35c0,0,0.61,1.84,3.67,1.84h4.59h0.31h4.59
							c3.06,0,3.67-1.84,3.67-1.84l1.22-7.35v-0.31H368.34z M363.94,183.5v2.33v2.33h-0.01c0,0.02,0.01,0.05,0.01,0.07
							c0,0.36-0.29,0.66-0.66,0.66s-0.66-0.29-0.66-0.66c0-0.02,0-0.05,0.01-0.07h-0.01v-4.66h0.01c0-0.02-0.01-0.05-0.01-0.07
							c0-0.36,0.29-0.66,0.66-0.66s0.66,0.29,0.66,0.66C363.94,183.45,363.94,183.48,363.94,183.5L363.94,183.5z M366.39,183.5v2.33
							v2.33h-0.01c0,0.02,0.01,0.05,0.01,0.07c0,0.36-0.29,0.66-0.66,0.66s-0.66-0.29-0.66-0.66c0-0.02,0-0.05,0.01-0.07h-0.01
							v-4.66h0.01c0-0.02-0.01-0.05-0.01-0.07c0-0.36,0.29-0.66,0.66-0.66s0.66,0.29,0.66,0.66
							C366.39,183.45,366.39,183.48,366.39,183.5L366.39,183.5z M368.84,183.5v2.33v2.33h-0.01c0,0.02,0.01,0.05,0.01,0.07
							c0,0.36-0.29,0.66-0.66,0.66s-0.66-0.29-0.66-0.66c0-0.02,0-0.05,0.01-0.07h-0.01v-4.66h0.01c0-0.02-0.01-0.05-0.01-0.07
							c0-0.36,0.29-0.66,0.66-0.66s0.66,0.29,0.66,0.66C368.84,183.45,368.83,183.48,368.84,183.5L368.84,183.5z M371.29,183.5v2.33
							v2.33h-0.01c0,0.02,0.01,0.05,0.01,0.07c0,0.36-0.29,0.66-0.66,0.66s-0.66-0.29-0.66-0.66c0-0.02,0-0.05,0.01-0.07h-0.01
							v-4.66h0.01c0-0.02-0.01-0.05-0.01-0.07c0-0.36,0.29-0.66,0.66-0.66s0.66,0.29,0.66,0.66
							C371.29,183.45,371.28,183.48,371.29,183.5L371.29,183.5z M373.74,183.5v2.33v2.33h-0.01c0,0.02,0.01,0.05,0.01,0.07
							c0,0.36-0.29,0.66-0.66,0.66s-0.66-0.29-0.66-0.66c0-0.02,0-0.05,0.01-0.07h-0.01v-4.66h0.01c0-0.02-0.01-0.05-0.01-0.07
							c0-0.36,0.29-0.66,0.66-0.66s0.66,0.29,0.66,0.66C373.74,183.45,373.73,183.48,373.74,183.5L373.74,183.5z"/>
						<g>
							<g>
								
									<rect x="363.74" y="167.77" transform="matrix(0.7071 0.7071 -0.7071 0.7071 229.586 -207.5019)" class="st15" width="3.06" height="11.22"/>
								<circle class="st2" cx="361.66" cy="176.99" r="1.53"/>
							</g>
							<g>
								
									<rect x="369.57" y="167.89" transform="matrix(-0.7071 0.7071 -0.7071 -0.7071 756.187 33.7857)" class="st15" width="3.06" height="11.22"/>
								<circle class="st2" cx="374.7" cy="177.11" r="1.53"/>
							</g>
						</g>
					</g>
					<g>
						<path class="st2" d="M352.39,186.63v3.95h-12.22c0.13-1.49,0.53-2.91,1.2-4.25c0.67-1.34,1.97-3.11,3.91-5.3
							c1.53-1.74,2.47-2.92,2.83-3.54c0.52-0.89,0.79-1.8,0.79-2.7c0-0.97-0.22-1.7-0.65-2.19c-0.43-0.49-1-0.74-1.71-0.74
							c-1.54,0-2.37,1.15-2.5,3.46l-3.46-0.42c0.21-2.26,0.84-3.92,1.88-4.97c1.04-1.06,2.43-1.59,4.17-1.59
							c1.91,0,3.34,0.62,4.31,1.86c0.97,1.24,1.45,2.66,1.45,4.26c0,0.91-0.12,1.78-0.37,2.64c-0.25,0.85-0.63,1.71-1.14,2.57
							c-0.51,0.86-1.37,1.96-2.57,3.3c-1.12,1.26-1.83,2.09-2.12,2.49c-0.3,0.4-0.54,0.8-0.72,1.18H352.39z"/>
					</g>
				</g>
				<polygon class="st2" points="287.54,177.97 283.09,177.97 283.09,173.52 280.12,173.52 280.12,177.97 275.67,177.97 
					275.67,180.94 280.12,180.94 280.12,185.39 283.09,185.39 283.09,180.94 287.54,180.94 				"/>
				<g>
					<rect x="326.01" y="175.01" class="st2" width="7.41" height="2.97"/>
					<rect x="326.01" y="180.94" class="st2" width="7.41" height="2.97"/>
				</g>
			</g>
		</g>
	</g>
	<g>
		<rect x="414" y="108" class="st1" width="45" height="12"/>
		<rect x="414" y="120" class="st2" width="45" height="28"/>
		<rect x="419" y="125" class="st16" width="35" height="3"/>
		<rect x="419" y="131" class="st16" width="35" height="3"/>
		<circle class="st2" cx="421.33" cy="114" r="2.5"/>
		<circle class="st2" cx="428" cy="114" r="2.5"/>
		<circle class="st2" cx="434.67" cy="114" r="2.5"/>
	</g>
	<g>
		<path class="st2" d="M289.5,72.22l4.09,4.28c4.79-4.58,11.27-7.4,18.41-7.4s13.62,2.82,18.41,7.4l4.09-4.28
			c-5.86-5.6-13.78-9.05-22.5-9.05S295.35,66.62,289.5,72.22z"/>
		<path class="st2" d="M260.86,47.06l4.09,4.28c12.24-11.7,28.81-18.91,47.05-18.91s34.81,7.21,47.05,18.91l4.09-4.28
			C349.83,34.34,331.82,26.5,312,26.5S274.17,34.34,260.86,47.06z"/>
		<path class="st2" d="M273.13,59.9l4.09,4.28c9.05-8.65,21.3-13.98,34.77-13.98s25.73,5.33,34.77,13.98l4.09-4.28
			c-10.11-9.67-23.8-15.63-38.87-15.63S283.25,50.24,273.13,59.9z"/>
	</g>
	<g>
		<polygon class="st2" points="411,294 213,294 253,261 371,261 		"/>
		<rect x="213" y="294" class="st15" width="198" height="3"/>
	</g>
</g>
</svg>
