<?xml version="1.0" encoding="utf-8"?>
<!-- Generator: Adobe Illustrator 23.0.5, SVG Export Plug-In . SVG Version: 6.00 Build 0)  -->
<svg version="1.0" id="Layer_1" xmlns="http://www.w3.org/2000/svg" xmlns:xlink="http://www.w3.org/1999/xlink" x="0px" y="0px"
	 viewBox="0 0 624 320" style="enable-background:new 0 0 624 320;" xml:space="preserve">
<style type="text/css">
	.st0{opacity:0.3;fill:#35B24A;}
	.st1{fill:#07085B;}
	.st2{fill:#55769F;}
	.st3{fill:#00A26D;}
	.st4{fill:#007048;}
	.st5{fill:#8FD0D6;}
	.st6{fill:#CBEFEF;}
	.st7{fill:#CFE8EA;}
	.st8{fill:#74BDC1;}
	.st9{fill:#FF5B7E;}
	.st10{fill:#F4A640;}
	.st11{fill:#F9CC4B;}
	.st12{opacity:0.5;fill:#FFF9FF;}
	.st13{fill:#333333;}
	.st14{fill:#3CB4C5;}
	.st15{opacity:0.5;fill:#3CB4C5;}
	.st16{fill:#EF6A1C;}
	.st17{fill:#CFE4FF;}
	.st18{fill:#FDB137;}
	.st19{fill:#FFFFFF;}
	.st20{fill:#FEB546;}
	.st21{fill:#F9C27A;}
	.st22{fill:#E2881E;}
	.st23{fill:#6DB1B5;}
	.st24{fill:#FFC0BB;}
	.st25{fill:#F99893;}
	.st26{fill:#DAEEF7;}
	.st27{fill:#191919;}
	.st28{opacity:0.6;fill:#FC8D84;}
	.st29{opacity:0.3;fill:#F99893;}
	.st30{fill:#EA824E;}
	.st31{fill:#C8EEF1;}
	.st32{opacity:0.3;fill:#E87B50;}
</style>
<rect x="0" class="st0" width="624" height="320"/>
<g>
	<path class="st1" d="M454.13,21.56c6.71,61.06-27.72,147.78-27.72,147.78s47.06-44.32,46.03-96.8l-15.05-0.26
		c0,0,7.75-5.06,14.34-9.18C469.91,49.44,464.58,35.39,454.13,21.56z"/>
	<path class="st2" d="M400.13,92.19l9.51-5.62l-8.21-1.2c2.45-10.23,6.9-19.29,12.21-27.15c6.2,1.88,13.3,3.85,13.3,3.85L419.1,50.9
		c15.69-19.23,35.03-29.34,35.03-29.34c6.71,61.06-27.72,147.78-27.72,147.78C402.89,139.33,397.09,113.49,400.13,92.19z"/>
	<path class="st3" d="M477.86,81.86c-10.31,4.43-18.58,10.53-25.24,17.47c0.94,4.26,1.96,9.38,1.96,9.38l-6.34-4.41
		c-23.11,28.5-22.8,67.07-22.8,67.07c22.7-9.35,36.27-21.78,44.21-34.4c-1.62-2.35-4.07-5.81-4.07-5.81l6.48,1.67
		c3.41-6.36,5.48-12.68,6.68-18.6c-3.38-0.84-7.17-1.91-7.17-1.91l8.08-3.76C481.49,93.27,477.86,81.86,477.86,81.86z"/>
	<path class="st4" d="M469.67,136.98c-1.62-2.35-4.07-5.81-4.07-5.81l6.48,1.67c3.41-6.36,5.48-12.68,6.68-18.6
		c-3.38-0.84-7.17-1.91-7.17-1.91l8.08-3.76c1.82-15.31-1.81-26.71-1.81-26.71c-29.17,31.49-52.41,89.51-52.41,89.51
		C448.15,162.02,461.72,149.59,469.67,136.98z"/>
	
		<rect x="379.96" y="157.04" transform="matrix(0.494 -0.8695 0.8695 0.494 60.7605 498.2091)" class="st5" width="156.9" height="79.73"/>
	<g>
		<path class="st6" d="M526.02,150.94l-72.48,127.57l-62.74-35.64l72.48-127.57L526.02,150.94z M451.76,272.05l67.8-119.33
			l-54.49-30.96l-67.8,119.33L451.76,272.05z"/>
	</g>
	
		<ellipse transform="matrix(0.494 -0.8695 0.8695 0.494 60.8151 498.3225)" class="st6" cx="458.54" cy="196.91" rx="29.61" ry="32.52"/>
	<path class="st5" d="M452.3,187.64c-1.75-0.46-3.36-0.53-4.93,0.58c0.22,0.18,0.37,0.34,0.54,0.44c2.42,1.4,4.86,2.77,7.27,4.19
		c0.53,0.31,0.82,0.24,1.28-0.17c1.05-0.96,2.15-1.88,3.3-2.72c4.04-2.94,8.25-2.42,12.02,0.37c4.53,3.36,5.8,7.62,4.11,13.04
		c-0.31,0.99-0.08,1.45,0.78,1.85c0.63,0.29,1.21,0.68,1.87,1.06c-0.6,1.05-1.17,2.04-1.8,3.13c-0.95-0.55-1.89-1.09-2.81-1.61
		c-5.02,6.19-11.1,5.42-14.91,3.61c0.86-1.97,1.72-3.93,2.6-5.95c2.34,0.64,4.54,0.6,6.93-0.73c-1.35-0.77-2.51-1.44-3.67-2.11
		c-1.59-0.91-3.19-1.8-4.75-2.75c-0.58-0.35-0.96-0.34-1.47,0.13c-1.63,1.49-3.43,2.74-5.6,3.34c-4.39,1.22-8.08-0.27-11.06-3.35
		c-2.77-2.88-3.17-6.46-1.87-10.23c0.09-0.25,0.18-0.5,0.26-0.75c0.03-0.09,0.04-0.2,0.07-0.38c-0.74-0.43-1.51-0.87-2.35-1.35
		c0.61-1.06,1.18-2.06,1.82-3.17c0.56,0.32,1.15,0.61,1.69,0.98c0.57,0.39,0.9,0.25,1.32-0.26c1.84-2.26,4.15-3.71,7.13-3.9
		c1.57-0.1,3.09,0.15,4.68,0.79C453.92,183.69,453.13,185.62,452.3,187.64z M462.16,196.78c2.85,1.64,5.63,3.23,8.41,4.83
		c0.92-2.04,0.1-4.58-1.9-5.98C466.7,194.27,464.2,194.67,462.16,196.78z M445.39,191.51c-0.29,2.21,0.64,4.21,2.22,5
		c1.75,0.87,3.96,0.55,5.2-0.73C450.38,194.38,447.94,192.98,445.39,191.51z"/>
	<path class="st6" d="M434.51,238.97c-2.08-1.18-4.71-0.45-5.89,1.62c-1.18,2.08-0.45,4.71,1.62,5.89c2.08,1.18,4.71,0.45,5.89-1.62
		C437.31,242.79,436.59,240.15,434.51,238.97z"/>
	<path class="st6" d="M486.82,146.9c-2.08-1.18-4.71-0.45-5.89,1.62c-1.18,2.08-0.45,4.71,1.62,5.89c2.08,1.18,4.71,0.45,5.89-1.62
		C489.62,150.72,488.9,148.08,486.82,146.9z"/>
	<path class="st5" d="M514.24,179.35c-0.24-0.2,5.53-9.74,5.53-9.74l-74.86,28.92l0.99,5.9L514.24,179.35z"/>
	
		<rect x="417.76" y="188.45" transform="matrix(0.9378 -0.3472 0.3472 0.9378 -48.4023 186.4766)" class="st5" width="156.9" height="79.73"/>
	<g>
		<path class="st6" d="M577.54,236.68l-137.6,50.94l-25.05-67.67l137.6-50.94L577.54,236.68z M442.74,281.53l128.71-47.65
			l-21.76-58.77l-128.71,47.65L442.74,281.53z"/>
	</g>
	
		<ellipse transform="matrix(0.9378 -0.3472 0.3472 0.9378 -48.4271 186.5091)" class="st6" cx="496.3" cy="228.41" rx="29.61" ry="32.52"/>
	<path class="st5" d="M497.5,217.29c-1.04-1.48-2.23-2.57-4.15-2.73c0.05,0.28,0.06,0.49,0.13,0.69c0.95,2.63,1.93,5.25,2.86,7.88
		c0.2,0.58,0.47,0.72,1.08,0.69c1.42-0.06,2.86-0.05,4.28,0.05c4.99,0.35,7.87,3.46,8.96,8.02c1.31,5.49-0.47,9.57-5.25,12.62
		c-0.87,0.56-1,1.06-0.59,1.92c0.3,0.62,0.49,1.3,0.75,2.01c-1.14,0.42-2.21,0.81-3.39,1.24c-0.38-1.03-0.75-2.05-1.11-3.04
		c-7.82,1.5-11.98-3-13.73-6.84c1.92-0.95,3.85-1.9,5.82-2.88c1.38,2,3.08,3.38,5.77,3.9c-0.53-1.46-0.99-2.72-1.45-3.98
		c-0.63-1.72-1.28-3.43-1.87-5.16c-0.22-0.64-0.52-0.88-1.21-0.85c-2.21,0.09-4.39-0.11-6.43-1.05c-4.14-1.89-6.01-5.42-6.3-9.69
		c-0.27-3.99,1.73-6.99,5.15-9.03c0.23-0.14,0.46-0.27,0.68-0.41c0.08-0.05,0.15-0.13,0.3-0.25c-0.29-0.81-0.6-1.64-0.93-2.54
		c1.15-0.42,2.23-0.81,3.44-1.25c0.22,0.6,0.49,1.21,0.66,1.84c0.18,0.67,0.53,0.77,1.17,0.65c2.86-0.54,5.57-0.16,7.97,1.6
		c1.27,0.93,2.27,2.11,3.07,3.62C501.28,215.32,499.44,216.28,497.5,217.29z M499.16,230.64c1.13,3.09,2.22,6.1,3.32,9.11
		c2.02-0.97,3.03-3.44,2.39-5.8C504.25,231.65,502.08,230.34,499.16,230.64z M489.72,215.81c-1.65,1.5-2.22,3.63-1.52,5.26
		c0.78,1.79,2.67,2.97,4.45,2.79C491.69,221.22,490.73,218.58,489.72,215.81z"/>
	<path class="st6" d="M450.84,245.12c-0.83-2.24-3.32-3.38-5.55-2.55s-3.38,3.32-2.55,5.55c0.83,2.24,3.32,3.38,5.55,2.55
		C450.53,249.84,451.67,247.35,450.84,245.12z"/>
	<path class="st6" d="M550.15,208.35c-0.83-2.24-3.32-3.38-5.55-2.55s-3.38,3.32-2.55,5.55c0.83,2.24,3.32,3.38,5.55,2.55
		C549.83,213.08,550.98,210.59,550.15,208.35z"/>
	
		<rect x="401.5" y="221.23" transform="matrix(1 -3.078862e-03 3.078862e-03 1 -0.8016 1.4789)" class="st5" width="156.9" height="79.73"/>
	<g>
		<path class="st6" d="M553.42,296.95l-146.73,0.45l-0.22-72.15l146.73-0.45L553.42,296.95z M411.42,292.65l137.24-0.42l-0.19-62.67
			l-137.24,0.42L411.42,292.65z"/>
	</g>
	
		<ellipse transform="matrix(1 -3.105823e-03 3.105823e-03 1 -0.809 1.4921)" class="st6" cx="480" cy="261.21" rx="29.61" ry="32.52"/>
	<path class="st5" d="M484.95,251.19c-0.47-1.75-1.21-3.18-2.96-3.99c-0.05,0.28-0.11,0.49-0.11,0.69c-0.01,2.8,0.01,5.59-0.03,8.39
		c-0.01,0.61,0.2,0.84,0.78,1.02c1.36,0.44,2.7,0.93,4,1.52c4.56,2.05,6.2,5.96,5.65,10.61c-0.66,5.6-3.74,8.82-9.28,10.04
		c-1.01,0.22-1.3,0.65-1.21,1.6c0.06,0.69,0.01,1.38,0.01,2.15c-1.21,0-2.35,0-3.61-0.01c0-1.1,0-2.18,0.01-3.24
		c-7.86-1.28-10.22-6.94-10.54-11.15c2.13-0.23,4.27-0.46,6.46-0.7c0.61,2.35,1.73,4.24,4.08,5.65c0-1.55,0.01-2.89,0.01-4.23
		c0-1.83-0.02-3.66,0.02-5.49c0.02-0.67-0.18-1-0.84-1.21c-2.1-0.68-4.08-1.62-5.68-3.2c-3.24-3.2-3.78-7.15-2.58-11.26
		c1.12-3.84,4.03-5.97,7.95-6.71c0.26-0.05,0.52-0.09,0.78-0.15c0.1-0.02,0.19-0.07,0.36-0.13c0-0.86,0-1.74,0-2.71
		c1.23,0,2.37,0,3.66,0.01c0,0.64,0.04,1.3-0.02,1.95c-0.06,0.69,0.23,0.91,0.88,1.01c2.87,0.48,5.28,1.76,6.93,4.25
		c0.87,1.31,1.4,2.76,1.63,4.45C489.18,250.64,487.12,250.91,484.95,251.19z M481.91,264.3c-0.01,3.29-0.01,6.49-0.02,9.69
		c2.23-0.21,4.03-2.19,4.24-4.62C486.35,266.99,484.76,265.02,481.91,264.3z M478.16,247.12c-2.06,0.84-3.34,2.64-3.23,4.41
		c0.11,1.95,1.49,3.71,3.22,4.15C478.14,252.88,478.15,250.07,478.16,247.12z"/>
	<path class="st6" d="M431.56,261.25c-0.01-2.39-1.95-4.32-4.34-4.31s-4.32,1.95-4.31,4.34c0.01,2.39,1.95,4.32,4.34,4.31
		C429.64,265.58,431.57,263.63,431.56,261.25z"/>
	<path class="st6" d="M537.46,260.92c-0.01-2.39-1.95-4.32-4.34-4.31c-2.39,0.01-4.32,1.95-4.31,4.34c0.01,2.39,1.95,4.32,4.34,4.31
		C535.54,265.25,537.46,263.31,537.46,260.92z"/>
	<polygon class="st5" points="558.35,247.79 558.27,220.99 448.72,221.22 447.65,214.88 564.27,214.5 564.34,245.61 	"/>
	
		<rect x="145.95" y="82.06" transform="matrix(0.9703 -0.2421 0.2421 0.9703 -19.2141 42.3238)" class="st7" width="33.37" height="34.6"/>
	
		<rect x="44.07" y="107.47" transform="matrix(0.9703 -0.2421 0.2421 0.9703 -28.3966 18.4171)" class="st7" width="33.37" height="34.6"/>
	<path class="st8" d="M206.12,204.72l-23.11-92.62l-32.38,8.08l23.4,93.8l0.16,0.48c0.17,0.54,1.85,6.14,2.35,13.56
		c0.43,6.37,0.05,15.55-4.18,23.13c-4.11,7.38-11.37,12.41-22.15,15.33c-0.95,0.22-1.89,0.41-2.81,0.57c0,0,0,0,0,0l8.09,32.42
		c0.5-0.1,0.99-0.2,1.49-0.31l0.01,0.04c0.43-0.11,0.86-0.22,1.29-0.33c0.43-0.1,0.86-0.21,1.3-0.31l-0.01-0.04
		c9.59-2.68,18.01-6.68,25.04-11.91c7.11-5.29,12.85-11.85,17.06-19.49c3.73-6.79,6.25-14.42,7.49-22.7
		c0.94-6.3,1.14-12.99,0.59-19.88C208.96,214.65,206.85,207.12,206.12,204.72z"/>
	<path class="st9" d="M123.46,263.36c-7.29-4.71-11.94-12.64-14.55-18.46c-3.05-6.78-4.19-12.52-4.29-13.07l-0.08-0.5l-23.4-93.8
		l-32.38,8.08l23.11,92.62c0.48,2.46,2.15,10.1,6.1,19.2c2.75,6.34,6.07,12.15,9.85,17.27c4.98,6.73,10.79,12.29,17.27,16.52
		c7.31,4.77,15.45,7.87,24.21,9.2c8.22,1.25,17.02,0.93,26.21-0.93l-8.09-32.42C137.81,268.76,129.94,267.54,123.46,263.36z"/>
	
		<ellipse transform="matrix(0.5745 -0.8185 0.8185 0.5745 -13.0562 464.8296)" class="st10" cx="440.57" cy="244.97" rx="56.74" ry="56.74"/>
	
		<ellipse transform="matrix(0.9343 -0.3564 0.3564 0.9343 -58.3786 173.1115)" class="st11" cx="440.57" cy="244.97" rx="51.03" ry="51.03"/>
	<g>
		<g>
			<path class="st10" d="M441.08,292.75c-26.34,0.28-48-20.92-48.28-47.26c-0.28-26.34,20.92-48,47.26-48.28
				c26.34-0.28,48,20.92,48.28,47.26C488.62,270.8,467.42,292.47,441.08,292.75z M440.08,198.95c-25.37,0.27-45.8,21.14-45.53,46.51
				c0.27,25.37,21.14,45.8,46.51,45.53c25.37-0.27,45.8-21.14,45.53-46.51C486.32,219.11,465.45,198.68,440.08,198.95z"/>
		</g>
	</g>
	<path class="st12" d="M448.34,229.86c-0.75-2.67-1.92-4.86-4.61-6.07c-0.07,0.43-0.16,0.75-0.16,1.06
		c0.04,4.29,0.12,8.57,0.12,12.86c0,0.94,0.32,1.28,1.21,1.56c2.09,0.64,4.16,1.38,6.16,2.25c7.04,3.05,9.62,9.03,8.86,16.17
		c-0.91,8.6-5.56,13.6-14.03,15.58c-1.55,0.36-1.98,1.03-1.83,2.47c0.11,1.05,0.04,2.12,0.05,3.29c-1.86,0.02-3.61,0.04-5.53,0.06
		c-0.02-1.68-0.04-3.34-0.05-4.97c-12.08-1.82-15.8-10.45-16.38-16.9c3.27-0.39,6.54-0.79,9.89-1.19c0.98,3.59,2.73,6.47,6.36,8.59
		c-0.03-2.38-0.05-4.44-0.07-6.49c-0.03-2.81-0.11-5.61-0.07-8.42c0.01-1.03-0.3-1.53-1.31-1.84c-3.24-1-6.29-2.4-8.77-4.8
		c-5.03-4.85-5.93-10.9-4.17-17.22c1.64-5.91,6.07-9.23,12.06-10.44c0.4-0.08,0.8-0.15,1.2-0.24c0.15-0.03,0.29-0.1,0.56-0.21
		c-0.01-1.32-0.03-2.67-0.04-4.15c1.88-0.02,3.64-0.04,5.62-0.06c0.01,0.99,0.09,2,0.01,2.99c-0.08,1.06,0.38,1.39,1.37,1.54
		c4.42,0.68,8.13,2.6,10.71,6.38c1.36,2,2.2,4.21,2.59,6.8C454.81,228.93,451.66,229.38,448.34,229.86z M443.93,250.01
		c0.05,5.05,0.11,9.96,0.16,14.87c3.42-0.37,6.14-3.43,6.42-7.17C450.78,254.07,448.31,251.07,443.93,250.01z M437.84,223.75
		c-3.15,1.33-5.07,4.12-4.88,6.83c0.21,2.99,2.35,5.66,5.02,6.31C437.94,232.58,437.89,228.26,437.84,223.75z"/>
	<g>
		<path class="st3" d="M168.45,273.23c0,0,24.93-34.46,11.99-40.84c0,0-2.31-3.66-11.62,9.42c0,0-5.75,1.89-6.08-4.78
			c-0.33-6.67,9.11-16.82,3.09-22.6c-6.02-5.78-9.13,4.62-13.37,6.6c-4.24,1.98-2.23-24.61-8.12-27.47
			c-5.88-2.85-7.49,7.64-10.78,8.86c-3.29,1.22-13.03-29.76-28.77-24c-15.74,5.76,2.24,17.36,9.8,24.54
			c7.55,7.18-8.04,3.17-9.67,12.35s26.2,1.79,23.68,10.71c-2.52,8.93-10.5,3.84-11.98,10.51c-2.4,10.78,25.17,0.42,24.55,7.84
			c-0.5,5.92-10.49,2.03-11.56,6.6C128.54,255.55,145.85,271.95,168.45,273.23z"/>
		<path class="st4" d="M181.31,232.91c-0.11-0.08-0.23-0.15-0.35-0.23c-0.47,1.42-1.06,2.96-1.77,4.57
			c-2.63,5.91-7.64,13.89-16.55,18.47c-2.28-4.93-5.09-10.09-8.43-15.46c2.37-13.47,7.09-21,10.64-24.94
			c0.31-0.34,0.61-0.66,0.91-0.96c-0.1-0.1-0.2-0.19-0.3-0.27c-0.29,0.29-0.59,0.61-0.89,0.94c-3.55,3.94-8.27,11.41-10.68,24.73
			c-0.01-0.02-0.03-0.04-0.04-0.07c-3.45-5.5-7.46-11.22-11.97-17.11c-0.08-0.6-0.86-6.27-0.81-13.08
			c0.03-4.89,0.51-11.12,2.28-16.29c-0.14-0.03-0.27-0.06-0.4-0.08c-1.78,5.21-2.26,11.46-2.29,16.37
			c-0.04,5.7,0.5,10.61,0.72,12.44c-3.46-4.48-7.21-9.06-11.24-13.71c-11.24-12.97-22.03-23.49-27.66-28.77
			c-0.13,0.07-0.25,0.14-0.38,0.21c5.59,5.25,16.44,15.8,27.73,28.83c1.9,2.19,3.86,4.51,5.85,6.94c-1.54-0.27-6.12-1-12.07-1.26
			c-5.02-0.22-11.79-0.15-18.67,1.09c0,0.02-0.01,0.04-0.01,0.07c-0.02,0.12-0.04,0.24-0.05,0.36c6.88-1.25,13.68-1.33,18.7-1.11
			c6.81,0.3,11.82,1.21,12.49,1.34c4.39,5.39,8.9,11.29,13.11,17.46c-9.69-1.21-25.11,2.13-32.7,4.01
			c-0.01,0.15-0.02,0.29-0.02,0.43c7.61-1.89,23.38-5.32,33.02-3.98c5.98,8.8,11.36,18.13,15.01,27.3
			c-8.11,1.32-17.73-2.28-24.4-5.55c-4.13-2.03-7.67-4.18-9.98-5.67c-0.09,0.1-0.16,0.22-0.23,0.34c2.32,1.51,5.87,3.67,10.02,5.7
			c6.76,3.31,16.51,6.96,24.74,5.58c1.55,3.95,2.77,7.87,3.58,11.7c0.07,0,0.14,0.01,0.21,0.01c0,0,0.06-0.08,0.16-0.22
			c-1.12-5.26-3.06-10.91-5.81-16.91c0.58-0.3,1.15-0.61,1.72-0.95c3.28-1.94,6.23-4.48,8.8-7.56c2.44-2.93,4.54-6.35,6.24-10.18
			C180.26,235.83,180.84,234.31,181.31,232.91z"/>
	</g>
	<path class="st5" d="M184.55,282.05c0,0-22-24.71-63.13-23.03l7.13,9.85l-11.49-9.02c0,0-23.84,1.98-40.09,7.8
		c0,0,34.92,18.39,43.74,20.01l11.77-3.5l-6.37,8.8c0,0,19.21,10.68,38.98,8.5C184.84,299.26,184.55,282.05,184.55,282.05z"/>
	<path class="st13" d="M328.03,94.95h51.83c26.66,0,48.26,21.61,48.26,48.26v111.02c0,26.66-21.61,48.26-48.26,48.26h-51.83
		c-26.65,0-48.26-21.61-48.26-48.26V143.21C279.77,116.56,301.38,94.95,328.03,94.95z"/>
	<rect x="293.13" y="112.02" class="st14" width="123.04" height="31.66"/>
	<polygon class="st15" points="296.39,116.58 416.17,116.58 416.17,112.02 293.13,112.02 293.13,143.68 296.39,143.68 	"/>
	<path class="st16" d="M322.73,164.12h-23.9c-3.15,0-5.7-2.55-5.7-5.7v0c0-3.15,2.55-5.7,5.7-5.7h23.9c3.15,0,5.7,2.55,5.7,5.7v0
		C328.43,161.57,325.88,164.12,322.73,164.12z"/>
	<path class="st16" d="M366.6,164.12h-23.9c-3.15,0-5.7-2.55-5.7-5.7v0c0-3.15,2.55-5.7,5.7-5.7h23.9c3.15,0,5.7,2.55,5.7,5.7v0
		C372.3,161.57,369.75,164.12,366.6,164.12z"/>
	<path class="st16" d="M410.47,164.12h-23.9c-3.15,0-5.7-2.55-5.7-5.7v0c0-3.15,2.55-5.7,5.7-5.7h23.9c3.15,0,5.7,2.55,5.7,5.7v0
		C416.17,161.57,413.62,164.12,410.47,164.12z"/>
	<path class="st17" d="M307.66,198.73h-1.75c-7.06,0-12.79-5.72-12.79-12.79v0c0-7.06,5.72-12.79,12.79-12.79h1.75
		c7.06,0,12.79,5.72,12.79,12.79v0C320.45,193,314.73,198.73,307.66,198.73z"/>
	<path class="st17" d="M339.57,198.73h-1.75c-7.06,0-12.79-5.72-12.79-12.79v0c0-7.06,5.72-12.79,12.79-12.79h1.75
		c7.06,0,12.79,5.72,12.79,12.79v0C352.36,193,346.63,198.73,339.57,198.73z"/>
	<path class="st17" d="M371.48,198.73h-1.75c-7.06,0-12.79-5.72-12.79-12.79v0c0-7.06,5.72-12.79,12.79-12.79h1.75
		c7.06,0,12.79,5.72,12.79,12.79v0C384.26,193,378.54,198.73,371.48,198.73z"/>
	<path class="st17" d="M307.66,230.25h-1.75c-7.06,0-12.79-5.72-12.79-12.79v0c0-7.06,5.72-12.79,12.79-12.79h1.75
		c7.06,0,12.79,5.72,12.79,12.79v0C320.45,224.53,314.73,230.25,307.66,230.25z"/>
	<path class="st17" d="M339.57,230.25h-1.75c-7.06,0-12.79-5.72-12.79-12.79v0c0-7.06,5.72-12.79,12.79-12.79h1.75
		c7.06,0,12.79,5.72,12.79,12.79v0C352.36,224.53,346.63,230.25,339.57,230.25z"/>
	<path class="st17" d="M371.48,230.25h-1.75c-7.06,0-12.79-5.72-12.79-12.79v0c0-7.06,5.72-12.79,12.79-12.79h1.75
		c7.06,0,12.79,5.72,12.79,12.79v0C384.26,224.53,378.54,230.25,371.48,230.25z"/>
	<path class="st18" d="M410.6,173.15h-16.19c-3.07,0-5.57,2.49-5.57,5.57v7.91v6.52v31.52c0,3.07,2.49,5.57,5.57,5.57h16.19
		c3.07,0,5.57-2.49,5.57-5.57v-31.52v-6.52v-7.91C416.17,175.65,413.68,173.15,410.6,173.15z"/>
	<path class="st17" d="M307.66,261.77h-1.75c-7.06,0-12.79-5.72-12.79-12.79v0c0-7.06,5.72-12.79,12.79-12.79h1.75
		c7.06,0,12.79,5.72,12.79,12.79v0C320.45,256.05,314.73,261.77,307.66,261.77z"/>
	<path class="st17" d="M339.57,261.77h-1.75c-7.06,0-12.79-5.72-12.79-12.79v0c0-7.06,5.72-12.79,12.79-12.79h1.75
		c7.06,0,12.79,5.72,12.79,12.79v0C352.36,256.05,346.63,261.77,339.57,261.77z"/>
	<path class="st17" d="M371.48,261.77h-1.75c-7.06,0-12.79-5.72-12.79-12.79v0c0-7.06,5.72-12.79,12.79-12.79h1.75
		c7.06,0,12.79,5.72,12.79,12.79v0C384.26,256.05,378.54,261.77,371.48,261.77z"/>
	<path class="st18" d="M403.38,261.77h-1.75c-7.06,0-12.79-5.72-12.79-12.79v0c0-7.06,5.72-12.79,12.79-12.79h1.75
		c7.06,0,12.79,5.72,12.79,12.79v0C416.17,256.05,410.45,261.77,403.38,261.77z"/>
	<path class="st17" d="M307.67,293.3h-1.75c-7.06,0-12.79-5.72-12.79-12.79v0c0-7.06,5.72-12.79,12.79-12.79h1.75
		c7.06,0,12.79,5.72,12.79,12.79v0C320.45,287.58,314.73,293.3,307.67,293.3z"/>
	<path class="st17" d="M339.57,293.3h-1.75c-7.06,0-12.79-5.72-12.79-12.79v0c0-7.06,5.72-12.79,12.79-12.79h1.75
		c7.06,0,12.79,5.72,12.79,12.79v0C352.36,287.58,346.63,293.3,339.57,293.3z"/>
	<path class="st18" d="M371.48,293.3h-1.75c-7.06,0-12.79-5.72-12.79-12.79v0c0-7.06,5.72-12.79,12.79-12.79h1.75
		c7.06,0,12.79,5.72,12.79,12.79v0C384.26,287.58,378.54,293.3,371.48,293.3z"/>
	<path class="st16" d="M403.39,293.3h-1.75c-7.06,0-12.79-5.72-12.79-12.79v0c0-7.06,5.72-12.79,12.79-12.79h1.75
		c7.06,0,12.79,5.72,12.79,12.79v0C416.17,287.58,410.45,293.3,403.39,293.3z"/>
	<g>
		<path class="st19" d="M311.47,242.27v1.29l-6.31,13.19h-2.03l6.29-12.82v-0.04h-7.09v-1.63H311.47z"/>
	</g>
	<g>
		<path class="st19" d="M333.91,253.08c0-1.83,1.09-3.12,2.88-3.88l-0.02-0.07c-1.6-0.76-2.3-2.01-2.3-3.25
			c0-2.3,1.94-3.86,4.48-3.86c2.81,0,4.21,1.76,4.21,3.57c0,1.23-0.6,2.54-2.38,3.39v0.07c1.81,0.71,2.92,1.98,2.92,3.74
			c0,2.52-2.16,4.21-4.93,4.21C335.74,257,333.91,255.2,333.91,253.08z M341.71,252.99c0-1.76-1.23-2.61-3.19-3.16
			c-1.69,0.49-2.61,1.6-2.61,2.99c-0.07,1.47,1.05,2.76,2.9,2.76C340.58,255.58,341.71,254.48,341.71,252.99z M336.32,245.75
			c0,1.45,1.09,2.23,2.76,2.67c1.25-0.42,2.21-1.32,2.21-2.63c0-1.16-0.69-2.36-2.45-2.36C337.21,243.43,336.32,244.5,336.32,245.75
			z"/>
	</g>
	<g>
		<path class="st19" d="M343.72,280.5c0,4.93-1.83,7.64-5.04,7.64c-2.83,0-4.75-2.65-4.79-7.44c0-4.86,2.09-7.53,5.04-7.53
			C341.98,273.16,343.72,275.88,343.72,280.5z M335.85,280.72c0,3.77,1.16,5.91,2.94,5.91c2.01,0,2.96-2.34,2.96-6.04
			c0-3.57-0.91-5.91-2.94-5.91C337.1,274.68,335.85,276.77,335.85,280.72z"/>
	</g>
	<g>
		<path class="st19" d="M367.59,255.38c0.42,0.04,0.91,0,1.58-0.07c1.14-0.16,2.21-0.62,3.03-1.4c0.96-0.87,1.65-2.14,1.92-3.86
			h-0.07c-0.8,0.98-1.96,1.56-3.41,1.56c-2.61,0-4.28-1.96-4.28-4.44c0-2.74,1.98-5.15,4.95-5.15c2.96,0,4.79,2.41,4.79,6.11
			c0,3.19-1.07,5.42-2.5,6.8c-1.11,1.09-2.65,1.76-4.21,1.94c-0.71,0.11-1.34,0.13-1.81,0.11V255.38z M368.31,247.04
			c0,1.81,1.09,3.08,2.79,3.08c1.32,0,2.34-0.65,2.85-1.52c0.11-0.18,0.18-0.4,0.18-0.71c0-2.47-0.91-4.37-2.96-4.37
			C369.49,243.52,368.31,244.99,368.31,247.04z"/>
	</g>
	<g>
		<path class="st19" d="M308.12,224.62v-3.94h-6.73v-1.29l6.46-9.25h2.12v9H312v1.54h-2.03v3.94H308.12z M308.12,219.13v-4.84
			c0-0.76,0.02-1.52,0.07-2.27h-0.07c-0.45,0.85-0.8,1.47-1.2,2.14l-3.54,4.93v0.04H308.12z"/>
	</g>
	<g>
		<path class="st19" d="M342.74,211.78h-5.53l-0.56,3.72c0.33-0.04,0.65-0.09,1.18-0.09c1.11,0,2.23,0.25,3.12,0.78
			c1.14,0.65,2.07,1.89,2.07,3.72c0,2.83-2.25,4.95-5.39,4.95c-1.58,0-2.92-0.45-3.61-0.89l0.49-1.49c0.6,0.36,1.78,0.8,3.1,0.8
			c1.85,0,3.43-1.2,3.43-3.14c-0.02-1.87-1.27-3.21-4.17-3.21c-0.82,0-1.47,0.09-2.01,0.16l0.94-6.95h6.93V211.78z"/>
	</g>
	<g>
		<path class="st19" d="M374.72,211.51c-0.4-0.02-0.91,0-1.47,0.09c-3.08,0.51-4.7,2.76-5.04,5.15h0.07
			c0.69-0.91,1.89-1.67,3.5-1.67c2.56,0,4.37,1.85,4.37,4.68c0,2.65-1.81,5.1-4.81,5.1c-3.1,0-5.13-2.41-5.13-6.17
			c0-2.85,1.03-5.1,2.45-6.53c1.2-1.18,2.81-1.92,4.64-2.14c0.58-0.09,1.07-0.11,1.43-0.11V211.51z M374.17,219.87
			c0-2.07-1.18-3.32-2.99-3.32c-1.18,0-2.27,0.74-2.81,1.78c-0.13,0.22-0.22,0.51-0.22,0.87c0.04,2.39,1.14,4.15,3.19,4.15
			C373.03,223.35,374.17,221.94,374.17,219.87z"/>
	</g>
	<g>
		<path class="st19" d="M306.32,181.15h-0.04l-2.52,1.36l-0.38-1.49l3.16-1.69h1.67v14.49h-1.89V181.15z"/>
	</g>
	<g>
		<path class="st19" d="M334.09,193.81v-1.2l1.54-1.49c3.7-3.52,5.37-5.39,5.39-7.58c0-1.47-0.71-2.83-2.88-2.83
			c-1.32,0-2.41,0.67-3.08,1.23l-0.62-1.38c1-0.85,2.43-1.47,4.1-1.47c3.12,0,4.44,2.14,4.44,4.21c0,2.67-1.94,4.84-4.99,7.78
			l-1.16,1.07v0.04h6.51v1.63H334.09z"/>
	</g>
	<g>
		<path class="st19" d="M366.92,191.56c0.56,0.36,1.85,0.91,3.21,0.91c2.52,0,3.3-1.6,3.28-2.81c-0.02-2.03-1.85-2.9-3.74-2.9h-1.09
			v-1.47h1.09c1.43,0,3.23-0.74,3.23-2.45c0-1.16-0.74-2.18-2.54-2.18c-1.16,0-2.27,0.51-2.9,0.96l-0.51-1.43
			c0.76-0.56,2.23-1.11,3.79-1.11c2.85,0,4.15,1.69,4.15,3.45c0,1.49-0.89,2.76-2.67,3.41v0.04c1.78,0.36,3.23,1.69,3.23,3.72
			c0,2.32-1.81,4.35-5.28,4.35c-1.63,0-3.05-0.51-3.77-0.98L366.92,191.56z"/>
	</g>
	<g>
		<path class="st19" d="M308.54,285.98c0,0.96-0.78,1.75-1.75,1.75c-0.96,0-1.75-0.78-1.75-1.75c0-0.96,0.78-1.75,1.75-1.75
			C307.75,284.24,308.54,285.02,308.54,285.98z"/>
	</g>
	<g>
		<polygon class="st19" points="412.89,202.62 403.69,202.62 403.69,193.43 401.33,193.43 401.33,202.62 392.13,202.62 
			392.13,204.99 401.33,204.99 401.33,214.19 403.69,214.19 403.69,204.99 412.89,204.99 		"/>
	</g>
	<g>
		<polygon class="st19" points="376.72,285.96 371.85,281.09 376.72,276.22 375.47,274.97 370.6,279.84 365.73,274.97 
			364.48,276.22 369.35,281.09 364.48,285.96 365.73,287.21 370.6,282.34 375.47,287.21 		"/>
	</g>
	<g>
		<rect x="394.24" y="248.49" class="st19" width="15.4" height="2.36"/>
	</g>
	<g>
		<rect x="394.81" y="275.75" class="st19" width="15.4" height="2.36"/>
	</g>
	<g>
		<rect x="394.81" y="281.68" class="st19" width="15.4" height="2.36"/>
	</g>
	<g>
		<rect x="262.32" y="192" class="st10" width="51.9" height="21.96"/>
		<rect x="210.42" y="192" class="st20" width="51.9" height="21.96"/>
		<rect x="158.53" y="192" class="st21" width="51.9" height="21.96"/>
		<g>
			<path class="st22" d="M314.62,214.6h-156.5v-23.25h156.5V214.6z M158.93,213.31h154.88v-20.67H158.93V213.31z"/>
		</g>
	</g>
	<g>
		<rect x="254.37" y="235.92" class="st10" width="51.9" height="21.96"/>
		<rect x="202.47" y="235.92" class="st20" width="51.9" height="21.96"/>
		<rect x="150.58" y="235.92" class="st21" width="51.9" height="21.96"/>
		<g>
			<path class="st22" d="M306.67,258.52h-156.5v-23.25h156.5V258.52z M150.98,257.23h154.88v-20.67H150.98V257.23z"/>
		</g>
	</g>
	<g>
		<rect x="262.32" y="257.88" class="st10" width="51.9" height="21.96"/>
		<rect x="210.42" y="257.88" class="st20" width="51.9" height="21.96"/>
		<rect x="158.53" y="257.88" class="st21" width="51.9" height="21.96"/>
		<g>
			<path class="st22" d="M314.62,280.49h-156.5v-23.25h156.5V280.49z M158.93,279.19h154.88v-20.67H158.93V279.19z"/>
		</g>
	</g>
	<g>
		<rect x="274.85" y="279.84" class="st10" width="51.9" height="21.96"/>
		<rect x="222.95" y="279.84" class="st20" width="51.9" height="21.96"/>
		<rect x="171.05" y="279.84" class="st21" width="51.9" height="21.96"/>
		<g>
			<path class="st22" d="M327.15,302.45h-156.5v-23.25h156.5V302.45z M171.46,301.16h154.88v-20.67H171.46V301.16z"/>
		</g>
	</g>
	<g>
		<rect x="270.87" y="213.96" class="st10" width="51.9" height="21.96"/>
		<rect x="218.98" y="213.96" class="st20" width="51.9" height="21.96"/>
		<rect x="167.08" y="213.96" class="st21" width="51.9" height="21.96"/>
		<g>
			<path class="st22" d="M323.18,236.56h-156.5v-23.25h156.5V236.56z M167.49,235.27h154.88V214.6H167.49V235.27z"/>
		</g>
	</g>
	<path class="st23" d="M193.4,46.42l1.57,11.8l-8.38-6.12L160.94,39l19.84,1.82c0,0,10.11,2.45,10.65,2.95
		C191.98,44.26,193.4,46.42,193.4,46.42z"/>
	<polygon class="st24" points="351.9,122.12 351.9,124.14 356.46,125.33 356.58,120.88 	"/>
	<path class="st24" d="M362.24,121.7v2.4c0,0,4.38,1.31,4.36,1.32c-0.02,0.01,0.36-3.94,0.36-3.94L362.24,121.7z"/>
	<polygon class="st5" points="202.19,39.3 160.94,39 193.4,46.42 	"/>
	<polygon class="st5" points="180.14,58.29 190.95,49.61 160.94,39 	"/>
	<g>
		<path class="st23" d="M244.41,110.18l-0.54-0.8c0.83-0.56,1.6-1.25,2.27-2.05l0.74,0.63
			C246.15,108.82,245.32,109.57,244.41,110.18z"/>
	</g>
	<g>
		<path class="st23" d="M249.87,102.27l-0.93-0.29c0.56-1.79,0.93-3.83,1.11-6.05l0.97,0.07C250.84,98.3,250.45,100.4,249.87,102.27
			z M250.98,89.65l-0.97,0.1c-0.03-0.27-0.06-0.53-0.09-0.8c-0.12-0.9-0.29-1.82-0.51-2.71c-0.2-0.83-0.45-1.66-0.74-2.48l0.92-0.32
			c0.3,0.85,0.56,1.71,0.77,2.57c0.23,0.93,0.41,1.88,0.53,2.82C250.92,89.09,250.95,89.37,250.98,89.65z M246,78.22
			c-1.04-1.7-2.28-3.36-3.68-4.96l0.73-0.64c1.44,1.64,2.71,3.35,3.78,5.1L246,78.22z M215.66,75.92c-0.66,0.16-2.35,0.2-3.43-0.44
			c-0.81-0.48-1.48-1.24-1.95-2.19l0.87-0.43c0.39,0.79,0.92,1.39,1.57,1.78c0.78,0.46,2.17,0.47,2.7,0.34
			c0.07-0.02,0.1-0.03,0.1-0.03c0.04-0.03,0.09-0.06,0.14-0.09l0.54,0.81c-0.06,0.04-0.11,0.07-0.17,0.11
			C215.93,75.83,215.81,75.88,215.66,75.92z M237.89,68.92c-1.55-1.32-3.22-2.56-4.97-3.71l0.53-0.81c1.79,1.17,3.49,2.44,5.07,3.79
			L237.89,68.92z M219.7,70.2l-0.95-0.2c0.13-0.6,0.19-1.21,0.19-1.81c0-0.85-0.11-1.73-0.33-2.62c-0.12-0.48-0.27-0.97-0.45-1.45
			l0.91-0.34c0.2,0.52,0.36,1.05,0.49,1.56c0.24,0.96,0.36,1.92,0.35,2.85C219.91,68.86,219.84,69.54,219.7,70.2z M211.16,67.22
			l-0.88-0.42c0.88-1.84,2.53-3.45,4.54-4.42l0.13-0.06l0.41,0.88l-0.12,0.06C213.43,64.12,211.95,65.57,211.16,67.22z
			 M227.27,62.86c-1.76-0.54-3.16-0.86-3.84-0.9c-0.78-0.04-1.49-0.04-2.17-0.02l-0.03-0.97c0.71-0.02,1.44-0.01,2.25,0.02
			c1.03,0.05,3,0.61,4.07,0.94L227.27,62.86z M215.01,58.93c-1.32-1.55-2.87-2.9-4.61-4.01l0.52-0.82c1.81,1.16,3.43,2.57,4.82,4.19
			L215.01,58.93z"/>
	</g>
	<g>
		<path class="st23" d="M204.83,52.43c-1.02-0.28-2.05-0.48-3.07-0.58l0.1-0.97c1.07,0.11,2.15,0.31,3.23,0.61L204.83,52.43z"/>
	</g>
	<path class="st1" d="M335.41,28.44l-0.84,5.24l-1.77-6.99c0,0,2.47-1.2,2.58-0.76C335.5,26.36,335.41,28.44,335.41,28.44z"/>
	<polygon class="st24" points="321.36,39.72 320.6,48.78 328.59,48.4 327.67,40.38 	"/>
	<path class="st25" d="M328.11,44.19l-0.44-3.82l-6.31-0.66l-0.26,3.14C322.35,44.11,324.61,45.41,328.11,44.19z"/>
	<g>
		<path class="st25" d="M333.01,33.62c-0.48,0.99-0.23,2.11,0.57,2.5c0.8,0.38,1.83-0.11,2.31-1.1c0.48-0.99,0.23-2.11-0.57-2.5
			C334.53,32.13,333.49,32.62,333.01,33.62z"/>
		<path class="st24" d="M332.34,39.57c0.28-0.42,0.53-0.88,0.73-1.36c0.57-1.28,0.91-2.66,1.1-3.87c0.04-0.26,0.1-0.52,0.16-0.77
			c0.25-1.03,0.32-2.14,0.14-3.29c-0.56-3.71-3.54-6.66-7.25-7.18c-5-0.69-9.41,3.01-9.72,7.92c-0.51-0.33-1.11-0.44-1.65-0.23
			c-1.04,0.39-1.49,1.76-1.01,3.06c0.48,1.3,1.72,2.04,2.76,1.65c0.14-0.05,0.28-0.13,0.4-0.22c0.16,4.2,3.38,7.64,7.48,7.83
			c2.01,0.09,3.88-0.61,5.33-1.83c0.1-0.07,0.2-0.15,0.31-0.25C331.59,40.6,331.99,40.11,332.34,39.57z"/>
		<path class="st25" d="M327.94,31.6c0.02,0.49,0.02,0.97,0.05,1.44c0.03,0.46,0.08,0.95,0.26,1.27l0.04,0.05
			c0.01,0.02,0.02,0.03,0.05,0.06c0.04,0.06,0.1,0.11,0.13,0.18c0.07,0.13,0.13,0.29,0.13,0.45c0.01,0.32-0.16,0.61-0.37,0.79
			c-0.44,0.37-1,0.4-1.47,0.29c0.48-0.08,0.94-0.25,1.2-0.56c0.12-0.16,0.21-0.33,0.18-0.49c-0.01-0.08-0.04-0.16-0.08-0.23
			c-0.02-0.04-0.05-0.07-0.08-0.11l-0.06-0.08l-0.07-0.09c-0.15-0.26-0.2-0.53-0.23-0.78c-0.02-0.26-0.02-0.51,0-0.75
			C327.65,32.54,327.76,32.06,327.94,31.6z"/>
		<path class="st13" d="M325.11,32.25c-0.02,0.41-0.37,0.73-0.78,0.71c-0.41-0.02-0.73-0.37-0.71-0.78
			c0.02-0.41,0.37-0.73,0.78-0.71C324.81,31.49,325.13,31.84,325.11,32.25z"/>
		<path class="st13" d="M331.49,32.97c-0.02,0.41-0.37,0.73-0.78,0.71c-0.41-0.02-0.73-0.37-0.71-0.78
			c0.02-0.41,0.37-0.73,0.78-0.71C331.19,32.21,331.51,32.56,331.49,32.97z"/>
		<path class="st25" d="M323.86,37.3c0.2,0.17,0.4,0.33,0.62,0.47c0.21,0.14,0.43,0.27,0.66,0.38c0.46,0.22,0.95,0.38,1.45,0.44
			c0.5,0.06,1.01,0.02,1.5-0.11c0.49-0.14,0.96-0.36,1.4-0.63c-0.2,0.17-0.41,0.32-0.64,0.45c-0.23,0.13-0.47,0.24-0.72,0.33
			c-0.25,0.08-0.51,0.14-0.77,0.17c-0.26,0.02-0.53,0.02-0.8-0.01c-0.53-0.07-1.04-0.25-1.49-0.51
			C324.61,38.03,324.19,37.7,323.86,37.3z"/>
		<path class="st1" d="M326.05,30.57c-0.38-0.12-0.74-0.21-1.09-0.26c-0.35-0.05-0.7-0.06-1.04-0.02c-0.34,0.04-0.67,0.12-1,0.26
			c-0.17,0.05-0.32,0.16-0.5,0.23c-0.17,0.08-0.32,0.19-0.51,0.27c0.09-0.17,0.2-0.34,0.33-0.5c0.14-0.14,0.28-0.3,0.45-0.41
			c0.33-0.25,0.74-0.39,1.16-0.44c0.42-0.05,0.85,0.01,1.23,0.16C325.46,30.02,325.8,30.25,326.05,30.57z"/>
		<path class="st1" d="M329.33,30.94c0.3-0.27,0.69-0.42,1.09-0.5c0.4-0.08,0.83-0.05,1.23,0.08c0.4,0.13,0.77,0.35,1.05,0.66
			c0.15,0.14,0.25,0.32,0.36,0.49c0.1,0.18,0.17,0.36,0.23,0.55c-0.17-0.12-0.3-0.25-0.45-0.37c-0.16-0.1-0.28-0.23-0.44-0.32
			c-0.29-0.21-0.61-0.34-0.93-0.45c-0.32-0.11-0.66-0.16-1.02-0.18C330.09,30.88,329.73,30.89,329.33,30.94z"/>
	</g>
	<path class="st4" d="M325.76,82.23c0,0-1.67,11.31,9.26,13.28c10.93,1.97,24.53,1.38,24.53,1.38l1.89,25.98l5.71,0.29
		c0,0,14.69-36.1-5.64-41.75l-18.28,0.09l-7.53-0.54c0,0-7.61-1.88-7.7-1.52C327.91,79.81,325.94,82.41,325.76,82.23z"/>
	<path class="st3" d="M315.72,82.29c0,0-1.67,11.31,9.26,13.28c10.93,1.97,24.53,1.38,24.53,1.38l1.89,25.98l5.71,0.29
		c0,0,14.69-36.1-5.64-41.75l-18.28,0.09l-7.53-0.54c0,0-7.62-1.88-7.7-1.52C317.87,79.87,315.9,82.47,315.72,82.29z"/>
	<path class="st13" d="M329.49,45.17c0,0,7.53,0.96,9.44,2.51c1.91,1.55,11.11,24.37,11.11,24.37L342.39,81l-16.25,0.12
		c0,0-12.18,6.57-19.83,0.36c-7.64-6.21-3.7-27.83,0.72-32.49c4.42-4.66,12.3-4.54,12.3-4.54S326.5,49.47,329.49,45.17z"/>
	<path class="st19" d="M314.91,56.52c0.27,1.24,0.43,2.51,0.55,3.77c0.06,0.63,0.09,1.27,0.13,1.9c0.02,0.64,0.03,1.27,0.03,1.91
		c-0.02,1.27-0.09,2.55-0.31,3.81c-0.21,1.26-0.52,2.52-1.11,3.65c0.39-1.21,0.59-2.46,0.73-3.7c0.14-1.25,0.19-2.51,0.2-3.77
		c0.03-1.26,0-2.52-0.04-3.78C315.04,59.05,314.98,57.79,314.91,56.52z"/>
	<path class="st19" d="M337.43,55.68c0.34,1.85,0.71,3.69,1.08,5.53c0.38,1.84,0.77,3.67,1.21,5.49c0.44,1.82,0.93,3.63,1.52,5.41
		c0.3,0.89,0.63,1.76,1.02,2.61c0.38,0.85,0.84,1.68,1.44,2.4c-0.69-0.65-1.2-1.46-1.66-2.29c-0.45-0.84-0.83-1.7-1.16-2.59
		c-0.34-0.88-0.63-1.78-0.9-2.69c-0.27-0.91-0.51-1.82-0.73-2.73c-0.22-0.92-0.42-1.84-0.61-2.76c-0.18-0.93-0.36-1.85-0.5-2.78
		C337.82,59.43,337.59,57.56,337.43,55.68z"/>
	<path class="st24" d="M341.21,75.84c-0.05-0.38-2.92-0.8-3.97-0.86c-0.8-0.04-6.1-0.22-7.9-0.3l0.13,0.46l-0.03,2.05l-0.3,1.36
		c1.58,0.1,5.45,0.25,6.25,0.41c1.08,0.21,2.94,1.02,2.94,1.02s0.78-0.18-0.21-0.6c-0.79-0.34-1.35-0.87-1.58-1.13
		c-0.14-0.15,0.01-0.42,0.11-0.39c2.68,0.7,2.96,0.82,2.96,0.82s3.15-0.02,0.02-0.73c-1.88-0.43-2.55-0.67-2.72-0.88
		c-0.07-0.09,0.06-0.4,0.17-0.4c1.63-0.1,4.55,0.48,3.75,0.1c-0.65-0.31-2.71-0.65-3.51-0.77c-0.05-0.01-0.13-0.31,0.09-0.32
		C338.97,75.53,341.26,76.19,341.21,75.84z"/>
	<path class="st19" d="M313.08,71.25c0.66,0.16,1.31,0.35,1.98,0.48c0.66,0.16,1.33,0.27,1.99,0.41c1.33,0.24,2.67,0.45,4.01,0.64
		c1.34,0.18,2.68,0.34,4.03,0.47c1.34,0.13,2.71,0.25,4.03,0.32l0.18,0.01l0.04,0.15c0.11,0.45,0.19,0.89,0.25,1.34
		c0.06,0.45,0.08,0.9,0.08,1.35c0,0.45-0.04,0.91-0.12,1.35c-0.08,0.45-0.21,0.89-0.39,1.31l-0.02,0.04l-0.03,0.02l-1.48,0.99
		c-0.49,0.33-0.98,0.66-1.48,0.98c0.46-0.37,0.93-0.73,1.4-1.1l1.41-1.09L328.9,79c0.15-0.41,0.25-0.83,0.31-1.26
		c0.05-0.43,0.08-0.86,0.06-1.3c-0.01-0.44-0.06-0.87-0.12-1.3c-0.06-0.43-0.15-0.86-0.26-1.27l0.22,0.16
		c-0.7-0.02-1.37-0.06-2.05-0.11c-0.68-0.05-1.36-0.1-2.03-0.18c-1.35-0.14-2.7-0.31-4.05-0.52c-1.34-0.22-2.68-0.48-4-0.79
		c-0.66-0.17-1.32-0.33-1.97-0.54C314.36,71.71,313.72,71.48,313.08,71.25z"/>
	<path class="st5" d="M375.19,60.64h-29.39l-8.33,20.34h-10.14c-0.4,0-0.73,0.39-0.72,0.72c0.01,0.4,0.32,0.72,0.72,0.72h38.09
		L375.19,60.64z"/>
	<path class="st26" d="M360.62,72.24c-0.17,0.87-0.93,1.45-1.69,1.29c-0.76-0.15-1.23-0.98-1.06-1.84c0.17-0.87,0.93-1.45,1.69-1.29
		C360.32,70.55,360.8,71.38,360.62,72.24z"/>
	<path class="st1" d="M335.57,23.48c0,0,2.51,0.08-0.12-2.04c-2.63-2.12-9.7-4.61-14.23-2.22c0,0-0.91-1.93-2.22-1.47
		c-1.31,0.46,0.85,1.79,0.85,1.79s-1.67-0.05-2.18,0.77c-0.38,0.61,0.65,0.63,1.21,0.61c-0.95,0.16-4.6,2.47-2.77,9.83
		c0.65-0.14,4.36-5.52,4.36-5.52s8.49,4.71,7.65,0.97c0,0,8.79,5.49,7.54,0.95C335.65,27.14,339.05,27.39,335.57,23.48z"/>
	<path class="st1" d="M316.09,30.78c0,0,0.7-0.25,1.46,0.35c0.76,0.6,0.67,2.71,0.67,2.71s3.61,2.33,3.23-7.52
		c-0.4-10.47-3.01,0.84-3.01,0.84L316.09,30.78z"/>
	<polygon class="st16" points="153.82,17.5 131.85,47.28 139.79,51.08 130.17,75.07 153.86,47.55 144.55,43.87 	"/>
	<path class="st24" d="M210.04,189.39l4.57-2.82l3.95,2.38l-1.38,0.98l-4.79,0.67c0,0-1.87-0.24-1.95-0.29
		C210.36,190.27,210.04,189.39,210.04,189.39z"/>
	<path class="st9" d="M210.04,189.39l-1.16,0.74c-0.54,0.34-0.3,1.17,0.34,1.17l8.77,0.04c0.31,0,0.56-0.25,0.56-0.56l0.01-1.83
		C212.71,190.79,210.7,190.22,210.04,189.39z"/>
	<path class="st24" d="M229.27,189.56l4.57-2.82l3.95,2.38l-1.38,0.98l-4.79,0.68c0,0-1.87-0.24-1.95-0.29
		C229.59,190.43,229.27,189.56,229.27,189.56z"/>
	<path class="st9" d="M229.27,189.56l-1.16,0.74c-0.54,0.34-0.3,1.17,0.34,1.17l8.77,0.04c0.31,0,0.56-0.25,0.56-0.56l0.01-1.83
		C231.94,190.96,229.93,190.38,229.27,189.56z"/>
	<polygon class="st16" points="40.38,66.34 56.94,89.76 61.66,84.84 76.97,97.77 62.5,73.63 57.52,79.58 	"/>
	<polygon class="st16" points="92.36,31.66 89.71,52.84 94.77,52.51 96.7,67.29 100.85,46.77 95.14,47.54 	"/>
	<path class="st13" d="M274.06,111.9c0,0,2.82-1.85,6.03,0c3.21,1.85,3.21,8.07,1.95,9.56c-1.26,1.49,0.06,3.51-2.46,5.45
		c-2.53,1.95-6.55,2.66-8.85,0.39c-2.3-2.27-0.61-7.34-0.61-7.34L274.06,111.9z"/>
	<path class="st24" d="M238.55,132.63c-0.05,0.13-0.23,0.15-0.31,0.04c-0.62-0.9-2.59-3.71-2.85-3.61c-0.31,0.13,1.38,2.68,1.2,2.94
		c-0.19,0.25-1.78-2.29-2.1-2.1c-0.31,0.19,1.22,2.45,1.11,2.58c-0.1,0.13-1.8-1.89-2.06-1.89c-0.25,0,1.3,2.37,1.22,2.56
		c-0.08,0.19-1.7-1.09-1.82-0.96c-0.13,0.13-0.23,0.19,2.58,4.11c0,0,1.22,1.23,1.31,1.74l1.48,0.46l1.51-1.49
		c0,0,0.15-6.21-0.06-6.36C239.54,130.51,239.36,130.62,238.55,132.63z"/>
	<polygon class="st27" points="243.85,169.81 238.11,189.42 231.18,187.48 233.49,171.01 240.66,166.09 	"/>
	<path class="st4" d="M266.26,129.56c0,0-12.04,14.81-14.08,17.17l-12.2-12.04c0,0-2.46,1.36-3.72,2.83c0,0,4.92,11.36,9.16,14.34
		l8.48,5.71l-1.62,3.87l3.04,2.36l1.6-3.82l4.37-9.68l4.14-12.88l0.79-6.39L266.26,129.56z"/>
	<path class="st19" d="M266.2,131.02c0,0-5.08,8.27-6.12,11.46s-0.21,3.45-0.68,7.33c-0.47,3.87-4.03,14.24-4.03,14.24l5.91,3.98
		c0,0,3.19-10.21,3.19-10.63c0-0.42,2.98-19.11,2.98-19.11l2.46-6.96L266.2,131.02z"/>
	<path class="st13" d="M260.71,167.61c0,0-10.15-9.11-18.01-10.94c-7.85-1.83-28.97,30.02-28.97,30.02l5.05,3.64
		c0,0,18.27-13.14,21.72-19c0,0,14.84,19.57,19.81,20.04c4.97,0.47,10.58-0.58,17.19-8.53
		C285.01,173.83,260.71,167.61,260.71,167.61z"/>
	<path class="st24" d="M270.81,122.96l2.25,6.07c0,0-1.63,3.71-7.09,2.34c0,0,0.57-1.3-0.35-3.89
		C264.68,124.83,270.81,122.96,270.81,122.96z"/>
	<path class="st28" d="M270.81,122.96l1.06,2.84c-0.49,2.12-2.27,3.62-5.72,4.19c-0.02-0.62-0.15-1.46-0.52-2.5
		C264.68,124.83,270.81,122.96,270.81,122.96z"/>
	<path class="st19" d="M239.61,165.38c-0.1,0.5-0.15,1.01-0.14,1.52c0,0.51,0.04,1.02,0.12,1.52c0.08,0.5,0.19,1,0.33,1.49
		c0.14,0.49,0.3,0.97,0.51,1.44l0.12-0.1c-0.27-0.18-0.53-0.4-0.78-0.62c-0.25-0.22-0.49-0.46-0.72-0.7
		c-0.23-0.25-0.45-0.5-0.66-0.76c-0.21-0.26-0.41-0.53-0.61-0.8c0.17,0.29,0.36,0.57,0.55,0.85c0.19,0.28,0.41,0.54,0.63,0.8
		c0.22,0.25,0.45,0.5,0.7,0.74c0.25,0.23,0.51,0.45,0.79,0.65l0.23,0.16l-0.11-0.26c-0.19-0.46-0.35-0.94-0.49-1.42
		c-0.14-0.48-0.26-0.97-0.34-1.47c-0.09-0.5-0.15-1-0.17-1.5C239.54,166.39,239.56,165.89,239.61,165.38z"/>
	<path class="st25" d="M258.29,118.91c0.47,0.98,0.22,2.09-0.56,2.47c-0.79,0.38-1.81-0.11-2.28-1.09
		c-0.47-0.98-0.22-2.09,0.56-2.47C256.8,117.44,257.82,117.93,258.29,118.91z"/>
	<path class="st24" d="M258.96,124.79c-0.28-0.42-0.52-0.87-0.72-1.34c-0.56-1.27-0.9-2.63-1.09-3.82c-0.04-0.26-0.1-0.51-0.16-0.76
		c-0.25-1.02-0.31-2.11-0.14-3.25c0.55-3.66,3.49-6.58,7.16-7.09c4.94-0.68,9.29,2.98,9.6,7.82c0.51-0.33,1.1-0.43,1.63-0.23
		c1.03,0.38,1.47,1.73,0.99,3.02c-0.48,1.28-1.7,2.02-2.73,1.63c-0.14-0.05-0.27-0.13-0.39-0.21c-0.16,4.15-3.33,7.55-7.39,7.74
		c-1.98,0.09-3.83-0.6-5.26-1.81c-0.1-0.07-0.2-0.15-0.3-0.25C259.7,125.81,259.3,125.32,258.96,124.79z"/>
	<path class="st25" d="M263.3,116.93c0.02,0.48,0.03,0.95,0.02,1.42c-0.01,0.23-0.02,0.46-0.06,0.69c-0.04,0.22-0.09,0.44-0.19,0.61
		l-0.04,0.06c-0.01,0.02-0.02,0.04-0.05,0.07c-0.04,0.06-0.09,0.1-0.12,0.17c-0.03,0.06-0.07,0.12-0.08,0.19
		c-0.02,0.07-0.03,0.14-0.04,0.21c-0.01,0.29,0.14,0.56,0.33,0.73c0.2,0.18,0.44,0.28,0.68,0.33c0.24,0.05,0.49,0.05,0.73,0
		c-0.24-0.03-0.47-0.07-0.68-0.15c-0.21-0.08-0.41-0.2-0.55-0.35c-0.14-0.16-0.23-0.35-0.21-0.54c0.01-0.05,0.01-0.09,0.03-0.14
		c0.01-0.05,0.04-0.09,0.06-0.13c0.02-0.04,0.06-0.08,0.09-0.12c0.03-0.04,0.08-0.11,0.12-0.16c0.14-0.24,0.19-0.49,0.22-0.74
		c0.03-0.25,0.03-0.49,0.01-0.73C263.53,117.86,263.45,117.38,263.3,116.93z"/>
	<path class="st13" d="M266.1,117.57c0.02,0.41,0.36,0.72,0.77,0.7c0.41-0.02,0.72-0.36,0.7-0.77c-0.02-0.41-0.36-0.72-0.77-0.7
		C266.39,116.81,266.08,117.16,266.1,117.57z"/>
	<path class="st13" d="M259.8,118.28c0.02,0.41,0.36,0.72,0.77,0.7c0.41-0.02,0.72-0.36,0.7-0.77c-0.02-0.41-0.36-0.72-0.77-0.7
		C260.09,117.52,259.78,117.87,259.8,118.28z"/>
	<path class="st29" d="M266.43,123.16c0,0-1.07-0.34-2.03,0.35c0,0-1.1-0.63-1.92,0.04c0,0,0.45,1.58,2.21,1.41
		C266.44,124.78,266.43,123.16,266.43,123.16z"/>
	<path class="st25" d="M267.33,122.55c-0.19,0.17-0.39,0.32-0.61,0.46c-0.21,0.14-0.43,0.27-0.66,0.38
		c-0.45,0.22-0.93,0.38-1.43,0.44c-0.5,0.06-1,0.02-1.48-0.11c-0.48-0.14-0.94-0.36-1.38-0.63c0.2,0.16,0.41,0.32,0.63,0.45
		c0.22,0.13,0.46,0.23,0.71,0.32c0.25,0.08,0.5,0.14,0.77,0.17c0.26,0.02,0.52,0.02,0.79-0.01c0.52-0.07,1.02-0.24,1.47-0.5
		C266.59,123.27,267,122.95,267.33,122.55z"/>
	<path class="st13" d="M265.17,115.9c0.38-0.12,0.73-0.2,1.08-0.26c0.35-0.05,0.69-0.06,1.02-0.02c0.33,0.04,0.66,0.12,0.98,0.26
		c0.17,0.05,0.32,0.15,0.49,0.23c0.17,0.08,0.32,0.19,0.5,0.27c-0.09-0.17-0.2-0.34-0.33-0.49c-0.14-0.14-0.27-0.3-0.45-0.4
		c-0.32-0.25-0.73-0.39-1.14-0.44c-0.41-0.05-0.84,0.01-1.21,0.16C265.75,115.36,265.41,115.59,265.17,115.9z"/>
	<path class="st13" d="M261.93,116.27c-0.3-0.26-0.68-0.42-1.07-0.5c-0.4-0.07-0.82-0.05-1.22,0.08c-0.39,0.13-0.76,0.35-1.03,0.65
		c-0.15,0.14-0.25,0.32-0.36,0.48c-0.09,0.18-0.17,0.36-0.23,0.55c0.17-0.12,0.3-0.25,0.44-0.36c0.15-0.1,0.28-0.23,0.44-0.32
		c0.29-0.21,0.6-0.34,0.91-0.45c0.32-0.1,0.66-0.16,1.01-0.18C261.17,116.21,261.54,116.23,261.93,116.27z"/>
	<g>
		
			<ellipse transform="matrix(0.8175 -0.5759 0.5759 0.8175 -40.6813 159.8141)" class="st10" cx="231.84" cy="144.1" rx="25.85" ry="25.85"/>
		
			<ellipse transform="matrix(0.0457 -0.999 0.999 0.0457 77.2969 369.1127)" class="st11" cx="231.84" cy="144.1" rx="23.25" ry="23.25"/>
		<g>
			<g>
				<path class="st10" d="M239.98,164.29c-11.13,4.49-23.84-0.92-28.33-12.05c-4.49-11.13,0.92-23.84,12.05-28.33
					c11.13-4.49,23.84,0.92,28.33,12.05C256.51,147.09,251.11,159.8,239.98,164.29z M224,124.65
					c-10.72,4.32-15.93,16.56-11.61,27.29c4.32,10.72,16.56,15.93,27.29,11.61c10.72-4.32,15.93-16.56,11.61-27.29
					C246.96,125.54,234.72,120.33,224,124.65z"/>
			</g>
		</g>
		<path class="st12" d="M232.63,136.4c-0.76-1.01-1.62-1.74-2.96-1.81c0.04,0.19,0.05,0.34,0.11,0.48c0.73,1.81,1.47,3.62,2.18,5.44
			c0.16,0.4,0.35,0.49,0.77,0.46c0.99-0.07,1.99-0.1,2.99-0.07c3.49,0.13,5.58,2.24,6.44,5.39c1.04,3.8-0.1,6.69-3.37,8.94
			c-0.6,0.41-0.67,0.77-0.37,1.35c0.22,0.43,0.37,0.89,0.57,1.39c-0.79,0.32-1.53,0.62-2.34,0.94c-0.29-0.71-0.57-1.41-0.85-2.1
			c-5.43,1.23-8.44-1.81-9.75-4.46c1.32-0.71,2.64-1.42,4-2.15c1.01,1.36,2.23,2.29,4.12,2.59c-0.41-1.01-0.76-1.88-1.11-2.74
			c-0.48-1.19-0.98-2.36-1.43-3.56c-0.17-0.44-0.38-0.6-0.86-0.56c-1.54,0.11-3.07,0.02-4.52-0.58c-2.94-1.23-4.32-3.64-4.63-6.62
			c-0.28-2.78,1.05-4.92,3.39-6.43c0.16-0.1,0.31-0.2,0.47-0.3c0.06-0.04,0.1-0.09,0.2-0.18c-0.22-0.56-0.46-1.13-0.71-1.75
			c0.79-0.32,1.54-0.62,2.37-0.96c0.17,0.42,0.37,0.83,0.5,1.27c0.14,0.46,0.39,0.53,0.83,0.43c1.99-0.44,3.88-0.25,5.6,0.93
			c0.91,0.62,1.63,1.42,2.23,2.46C235.22,134.93,233.96,135.65,232.63,136.4z M234.1,145.68c0.86,2.13,1.7,4.21,2.53,6.28
			c1.39-0.72,2.04-2.47,1.54-4.11C237.68,146.26,236.13,145.41,234.1,145.68z M227.16,135.55c-1.12,1.09-1.47,2.59-0.94,3.71
			c0.59,1.23,1.94,2.01,3.17,1.85C228.67,139.28,227.93,137.45,227.16,135.55z"/>
	</g>
	<path class="st24" d="M241,148.82c0.06,0.14-0.07,0.3-0.22,0.26c-1.18-0.25-4.89-1.01-5.02-0.72c-0.16,0.34,3.14,1.1,3.18,1.44
		c0.04,0.34-3.16-0.48-3.27-0.09c-0.11,0.39,2.83,1.04,2.84,1.22c0.01,0.18-2.87-0.14-3.07,0.05c-0.2,0.19,2.84,0.91,2.91,1.12
		c0.08,0.21-2.19,0.42-2.19,0.61c-0.01,0.2-0.04,0.33,5.18,1.33l2.07,0.31l1.83-0.66l0.08-2.34c0,0-4.59-5.08-4.87-5.04
		C240.19,146.37,240.12,146.59,241,148.82z"/>
	<path class="st3" d="M272.9,128.01c0,0,10.36,12.48,8.95,34.47c-1.41,21.98-1.65,22.14-1.65,22.14s-6.36-0.68-11.07-4.45
		c-4.71-3.77-10.47-6.33-10.47-6.33l3.82-12.41c0,0-4.97,0.16-8.58-1.36c-3.61-1.52-11.15-5.55-11.15-5.55s0.63-3.72,1.41-4.87
		c0,0,9.58,2.93,14.39,2.98C258.56,152.64,264.16,135.37,272.9,128.01z"/>
	<path class="st4" d="M272.16,132.02c-1.58,1.36-3.03,2.87-4.4,4.44c-1.37,1.58-2.63,3.24-3.8,4.97l-0.43,0.65
		c-0.15,0.22-0.29,0.43-0.42,0.66l-0.81,1.34c-0.14,0.22-0.26,0.45-0.38,0.68l-0.37,0.69l-0.37,0.69c-0.12,0.23-0.23,0.47-0.34,0.71
		l-0.67,1.41l-0.59,1.45l-0.29,0.73l-0.25,0.74c-0.16,0.49-0.33,0.99-0.48,1.49c0.19-0.48,0.38-0.97,0.57-1.45l0.28-0.73l0.32-0.71
		l0.64-1.42l0.71-1.39c0.12-0.23,0.23-0.47,0.36-0.69l0.38-0.68l0.38-0.68c0.13-0.23,0.25-0.45,0.39-0.67l0.82-1.32
		c0.13-0.22,0.28-0.44,0.42-0.65l0.43-0.65c1.16-1.72,2.4-3.39,3.72-4.99l1-1.19c0.34-0.39,0.68-0.78,1.03-1.17
		C270.7,133.5,271.42,132.75,272.16,132.02z"/>
	<path class="st4" d="M276.63,140.73c-0.85,1.92-1.76,3.81-2.71,5.69c-0.47,0.94-0.96,1.87-1.46,2.79c-0.5,0.92-1.01,1.84-1.55,2.73
		c-0.53,0.9-1.09,1.79-1.67,2.66c-0.29,0.44-0.59,0.86-0.89,1.29c-0.31,0.42-0.62,0.84-0.95,1.25c-0.65,0.82-1.34,1.61-2.09,2.33
		c-0.75,0.73-1.58,1.38-2.51,1.87c0.97-0.42,1.83-1.05,2.63-1.74c0.79-0.7,1.51-1.48,2.18-2.29c0.68-0.81,1.3-1.66,1.9-2.53
		c0.6-0.87,1.16-1.76,1.7-2.67c1.07-1.81,2.05-3.68,2.95-5.58C275.08,144.64,275.91,142.7,276.63,140.73z"/>
	<path class="st13" d="M256.53,109.22c1.21-2.64,3.57-4.13,5.61-4.95c2.5-1.02,5.32-1.09,7.85-0.14c7.14,2.68,5.72,10.55,5.38,12.03
		c-0.34-0.08-0.81-0.07-1.38,0.24c-0.24,0.13-0.43,0.27-0.59,0.41c-1.39-0.42-1.81-2.73-2.53-3.84c-0.98-1.51-4.76-0.07-6.39-1.14
		c-1.63-1.07-1.91-2.18-1.91-2.18c-6.29,1-5.82,8.07-5.82,8.07c-0.27-0.06-0.9-1.08-0.9-1.08S254.3,114.07,256.53,109.22z"/>
	<polygon class="st24" points="489.93,209.11 476.5,217.55 475.5,296.9 478.17,298.74 480.8,298.15 488.42,245.99 494.64,212.31 	
		"/>
	<path class="st24" d="M517.21,286.9c-6.01-16.15-16.47-27.14-16.47-27.14s1.96-5.3,3.98-22.78c2.02-17.48-6.5-28.46-6.5-28.46
		l-15.06,4.51c0,0,7.67,45.81,8.9,48.72c0.97,2.28,13.22,18.68,18.49,25.69l0.01,0.12l2.38,3.04v0l0,0l2.25,2.88l2.66-1.2l0.47-3.32
		L517.21,286.9z"/>
	<path class="st4" d="M476.49,216.43c0,0-3.53,26.93-3.13,47.05c0,0,13.63,2.15,23.63,1.4l0.43-11.51l2.15,10.87
		c0,0,4.95-0.22,7.21-2.04c0,0-1.38-11.5-0.97-20.34c0.41-8.84,0.04-19.96-2.87-27.33s-19.08,0.7-19.08,0.7L476.49,216.43z"/>
	<path class="st13" d="M494.69,148.6c0,0,3.1,2.37,4.03,5.72c0.79,2.86,4.34,2.36,6.55,6.19c2.46,4.25,5.96,10.6-2.06,14.89
		c-4.98,2.66-12.91,4.71-14.71,2.91c-1.8-1.8-6.09-1.08-5.12-19.96c0,0,11.73-6.63,11.84-6.67
		C495.33,151.65,494.69,148.6,494.69,148.6z"/>
	<path class="st16" d="M479.08,202.65l1.43-6.17l-3.57-9.59c0,0-1.96,7.61-4.89,14.39l-10.76,1.31l-2.27,0.43
		c0,0,14.73,8.4,18.73,2.22c0.42,0.1,0.69,0.17,0.69,0.17l0.38-1.64c0.21-0.36,0.39-0.73,0.51-1.11L479.08,202.65z"/>
	<polygon class="st24" points="492.77,169.22 492.48,173.75 486.3,175.04 485.21,175.04 485.44,169.6 491.99,167.29 	"/>
	<path class="st24" d="M483.08,176.48c-0.28,3.05,0.98,3.61,0.98,3.61l9.33-6.93c-5.79,0.57-9.54,1.19-9.54,1.19
		S483.37,176.56,483.08,176.48z"/>
	<path class="st13" d="M498.56,159.36c0,0,1.91-7.82-2.63-10.75c-4.54-2.93-9.35-2.6-12.63-0.85c-3.28,1.75-5.24,7.87-3.77,11.37
		l10.88-3.34L498.56,159.36z"/>
	<path class="st25" d="M492.9,168.03c0,0-0.13,1.32-0.25,2.96c-2.35,2.57-6.76,1.69-7.34,1.44c0.04-0.82,0-2.49,0-2.49L492.9,168.03
		z"/>
	<path class="st25" d="M480.94,160.51c0.39,1.05,0.02,2.16-0.82,2.47c-0.84,0.31-1.84-0.29-2.22-1.34
		c-0.39-1.05-0.02-2.16,0.82-2.47C479.56,158.86,480.56,159.46,480.94,160.51z"/>
	<path class="st24" d="M481.03,166.59c-0.24-0.46-0.44-0.94-0.6-1.44c-0.45-1.35-0.65-2.78-0.73-4.02
		c-0.02-0.27-0.05-0.53-0.09-0.79c-0.15-1.07-0.11-2.19,0.18-3.34c0.93-3.69,4.23-6.38,8.04-6.53c5.12-0.2,9.21,3.98,9.04,8.96
		c0.55-0.28,1.16-0.33,1.69-0.07c1.01,0.49,1.33,1.92,0.71,3.19c-0.62,1.27-1.94,1.89-2.95,1.4c-0.14-0.07-0.27-0.16-0.38-0.26
		c-0.58,4.23-4.17,7.38-8.34,7.17c-2.04-0.1-3.86-1-5.2-2.38c-0.09-0.08-0.18-0.18-0.28-0.28
		C481.69,167.71,481.33,167.17,481.03,166.59z"/>
	<path class="st13" d="M488.83,160.62c-0.02,0.45,0.32,0.83,0.77,0.86c0.45,0.02,0.83-0.32,0.86-0.77c0.02-0.45-0.32-0.83-0.77-0.86
		C489.24,159.82,488.86,160.17,488.83,160.62z"/>
	<path class="st13" d="M481.6,160.62c-0.02,0.45,0.32,0.83,0.77,0.86c0.45,0.02,0.83-0.32,0.85-0.77s-0.32-0.83-0.77-0.86
		C482.01,159.82,481.62,160.17,481.6,160.62z"/>
	<path class="st13" d="M488.15,159.26c0.37-0.2,0.76-0.34,1.15-0.44c0.39-0.09,0.79-0.13,1.19-0.09c0.2,0.02,0.39,0.06,0.58,0.11
		c0.1,0.02,0.19,0.06,0.28,0.09c0.05,0.02,0.09,0.04,0.14,0.06c0.05,0.02,0.09,0.04,0.14,0.06c0.36,0.17,0.71,0.4,1.04,0.65
		c-0.25-0.34-0.57-0.63-0.93-0.85c-0.18-0.11-0.38-0.21-0.59-0.27c-0.21-0.07-0.42-0.12-0.64-0.14c-0.43-0.04-0.88,0.02-1.28,0.16
		c-0.2,0.07-0.4,0.16-0.58,0.27C488.47,158.99,488.29,159.11,488.15,159.26z"/>
	<path class="st13" d="M484.86,159.26c-0.15-0.15-0.32-0.27-0.5-0.38c-0.18-0.11-0.38-0.2-0.58-0.27c-0.4-0.15-0.85-0.2-1.28-0.16
		c-0.22,0.02-0.43,0.07-0.64,0.14c-0.21,0.07-0.4,0.16-0.59,0.27c-0.37,0.22-0.69,0.52-0.93,0.85c0.34-0.25,0.68-0.48,1.04-0.65
		c0.04-0.02,0.09-0.04,0.14-0.06c0.05-0.02,0.09-0.04,0.14-0.06c0.09-0.03,0.19-0.07,0.28-0.09c0.19-0.05,0.39-0.09,0.58-0.11
		c0.39-0.04,0.79,0,1.19,0.09C484.11,158.92,484.49,159.06,484.86,159.26z"/>
	<path class="st19" d="M503.48,186.64c-0.2-0.2-0.38-0.44-0.55-0.67c-0.17-0.24-0.33-0.48-0.47-0.74c-0.15-0.25-0.27-0.52-0.39-0.79
		c-0.12-0.27-0.2-0.55-0.29-0.84c0.04,0.29,0.09,0.59,0.19,0.87c0.04,0.14,0.1,0.28,0.15,0.42c0.06,0.14,0.12,0.28,0.19,0.41
		c0.14,0.27,0.29,0.53,0.46,0.77c0.14,0.2,0.29,0.39,0.45,0.57c-0.15,0.03-0.31,0.05-0.46,0.06c-0.21,0.01-0.43,0-0.64-0.03
		c-0.11-0.01-0.21-0.04-0.32-0.06c-0.1-0.03-0.21-0.06-0.31-0.1c-0.21-0.07-0.4-0.17-0.59-0.28c0.17,0.14,0.35,0.27,0.56,0.37
		c0.2,0.1,0.42,0.17,0.64,0.22s0.45,0.07,0.67,0.07c0.23,0,0.45-0.02,0.68-0.09l0.16-0.04L503.48,186.64z"/>
	<path class="st25" d="M485.82,160.24c-0.23,0.37-0.42,0.76-0.6,1.15c-0.18,0.4-0.33,0.8-0.45,1.23c-0.06,0.21-0.11,0.43-0.12,0.66
		c0,0.06,0,0.12,0.01,0.18c0,0.03,0.01,0.07,0.02,0.1c0.01,0.04,0.02,0.07,0.05,0.11c0.01,0.02,0.03,0.04,0.04,0.05l0.03,0.03
		c0.02,0.02,0.04,0.04,0.07,0.06c0.05,0.03,0.09,0.07,0.14,0.09c0.19,0.12,0.4,0.2,0.6,0.28c0.21,0.07,0.42,0.13,0.63,0.17
		c-0.39-0.19-0.79-0.37-1.12-0.61c-0.04-0.03-0.08-0.06-0.12-0.1l-0.05-0.05l-0.03-0.02c0-0.01,0-0.01-0.01-0.01
		c-0.03-0.04-0.03-0.15-0.02-0.24c0.02-0.2,0.07-0.4,0.13-0.61c0.11-0.41,0.25-0.81,0.39-1.22
		C485.55,161.07,485.69,160.66,485.82,160.24z"/>
	<path class="st30" d="M502,199.58C502,199.57,502,199.57,502,199.58c1.11-6.18,1.59-12.81,1.59-12.81
		c0.06-1.53-1.75-3.64-1.83-4.83c-1.55-1.26-1.91-2.29-1.91-2.29l-2.7-5.6c0,0-1.79-0.88-1.79-0.88c-1.4-0.13-2.09-0.01-2.09-0.01
		l-4.63,3.48c-1.93,1.46-4.71,0.13-4.79-2.29l0,0c0,0,0,0,0,0c-4.06,3.25-6.79,4.72-7.35,9.95c-0.39,3.65,1.59,6.74,1.81,10.21
		l-1.82,21.93c0,0,15.31,0.17,26.46-1.91C502.94,214.53,501.9,208.33,502,199.58z"/>
	<g>
		<path class="st13" d="M475.22,215.47l-15.97,0.96c-1.01,0.06-2.13-0.59-2.5-1.44l-8.4-19.44c-0.37-0.86,0.15-1.6,1.15-1.67
			l15.97-0.96c1.01-0.06,2.13,0.59,2.5,1.44l8.4,19.44C476.75,214.66,476.23,215.41,475.22,215.47z"/>
		<path class="st31" d="M460.75,194.18l-5.44,0.33c-0.44,0.03-0.92-0.25-1.08-0.62l-0.15-0.35c-0.16-0.37,0.06-0.69,0.5-0.72
			l5.44-0.33c0.44-0.03,0.92,0.25,1.08,0.62l0.15,0.35C461.41,193.83,461.18,194.15,460.75,194.18z"/>
	</g>
	<path class="st24" d="M454.8,210.5l-0.07,0.03c-0.4,0.18-0.87,0.02-1.09-0.36l-2.5-4.35c-0.13-0.21-0.12-0.47,0.02-0.68
		c0.42-0.63,1.34-1.93,1.65-1.89c0.41,0.06-0.84,2.22-0.67,2.27c0.17,0.04,1.95-1.4,2.1-1.16c0.13,0.21-1.43,1.88-1.36,2.02
		c0.07,0.13,1.88-0.92,2.07-0.73c0.18,0.17-1.52,1.52-1.5,1.62L454.8,210.5z"/>
	<path class="st24" d="M453.32,207.32c0,0,1.81-0.55,1.97-0.35c0.16,0.2-1.98,1.36-1.97,1.3
		C453.33,208.23,453.32,207.32,453.32,207.32z"/>
	<path class="st13" d="M497.97,158.28l-0.2-0.02l-0.14-1.7l-0.76-1.57c0,0-2.97-4.22-3.08-4.32c-0.1-0.1-2.37-1.46-2.51-1.53
		c-0.14-0.07-3.31,0.45-3.31,0.45s-5.58-1.2-4.64,1.92c0.94,3.12,5.02,4.74,5.23,4.6c-0.66-0.7-0.73-2.68-0.73-2.68
		c3.14,3.63,9.04,6.01,9.04,6.01s0.62-0.47,1.69-0.07L497.97,158.28z"/>
	<path class="st19" d="M484.01,165.63c0.22,0.96,1.15,1.68,2.26,1.66c1.11-0.02,2.01-0.77,2.19-1.73L484.01,165.63z"/>
	<path class="st24" d="M504.78,188.29c0,0-2.27-12.47-9.23-15.07c-1.89-0.7-3.9,0.68-3.91,2.7c-0.02,2.87,8.81,24.11,7.9,25.2
		c-1.23,1.48-23.87,6.83-24.63,7.01l-2.7-0.26c-2.22-0.16-4.58-0.46-4.71-0.29c-0.18,0.23-0.06,0.46,2.3,1.57
		c0.15,0.07,0.17,0.29,0.02,0.38c-1.12,0.69-4.64,2.87-4.53,3.2c0.13,0.39,3.32-1.49,3.61-1.25c0.29,0.24-2.87,2-2.66,2.39
		c0.21,0.39,3.03-1.3,3.18-1.17c0.14,0.13-2.39,2.05-2.41,2.35c-0.02,0.3,2.94-1.41,3.16-1.3c0.22,0.11-1.43,1.97-1.28,2.13
		c0.14,0.16-0.41,0.4,4.5-2.73c0,0,1.21-0.81,1.65-1.16c0,0,28.12-3.97,29.86-6.19C508.14,201.69,504.78,188.29,504.78,188.29z"/>
	<path class="st16" d="M504.78,188.29c0,0-2.27-12.47-9.23-15.07c-1.89-0.7-3.9,0.68-3.91,2.7c-0.02,2.87,8.81,24.11,7.9,25.2
		c-1.23,1.48-23.87,6.83-24.63,7.01l-0.05,0c0.26,1.24,0.6,2.55,1.01,3.76c4.64-0.67,27.47-4.08,29.04-6.07
		C508.14,201.69,504.78,188.29,504.78,188.29z"/>
	<path class="st24" d="M470.46,298.75l5.55-3.43l4.8,2.9l-1.68,1.19l-5.82,0.82c0,0-2.27-0.29-2.37-0.36
		C470.85,299.81,470.46,298.75,470.46,298.75z"/>
	<path class="st1" d="M470.46,298.75l-1.41,0.91c-0.65,0.41-0.36,1.42,0.41,1.42l10.66,0.05c0.38,0,0.68-0.3,0.68-0.68l0.01-2.23
		C473.7,300.45,471.25,299.75,470.46,298.75z"/>
	<path class="st24" d="M513.73,298.24l-0.15-6.82l4.74-2.47l0.22,2.04l-2.12,5.48c0,0-1.36,1.84-1.47,1.89
		C514.84,298.41,513.73,298.24,513.73,298.24z"/>
	<path class="st1" d="M513.73,298.24l0.1,1.67c0.04,0.77,1.06,1.01,1.44,0.34l5.24-9.28c0.18-0.33,0.07-0.74-0.26-0.93l-1.94-1.1
		C516.79,296.23,514.99,298.03,513.73,298.24z"/>
	<g>
		<path class="st19" d="M369.49,131.69l-9.52-3.68c-0.24-0.09-0.36-0.36-0.26-0.6l0.07-0.18c0.09-0.24,0.36-0.36,0.6-0.26l9.52,3.68
			c0.24,0.09,0.36,0.36,0.26,0.6l-0.07,0.18C370,131.67,369.73,131.79,369.49,131.69z"/>
		<path class="st13" d="M361.65,123.82l-1.47,2.77c-0.18,0.34-0.11,0.74,0.16,0.85l9.15,3.53c0.24,0.09,0.53,0.03,0.76-0.2
			c0.24-0.24,0.43-0.66,0.24-1.39c-0.37-1.47-2.95-2.8-3.89-4.29l-4.26-1.65C362.11,123.35,361.81,123.51,361.65,123.82z"/>
		<g>
			<path class="st19" d="M365.31,126.52L365.31,126.52c-0.05-0.07-0.03-0.19,0.04-0.26c0.33-0.33,1.27-1.08,2.33-0.44
				c0.06,0.04,0.07,0.14,0.03,0.23l0,0c-0.04,0.08-0.13,0.12-0.19,0.08c-0.96-0.57-1.76,0.1-2.04,0.38
				C365.42,126.57,365.35,126.58,365.31,126.52z"/>
		</g>
		<g>
			<path class="st19" d="M366.11,127.26L366.11,127.26c-0.05-0.07-0.03-0.19,0.04-0.26c0.33-0.33,1.27-1.08,2.33-0.44
				c0.06,0.04,0.07,0.14,0.03,0.23l0,0c-0.04,0.08-0.13,0.12-0.19,0.08c-0.96-0.57-1.76,0.1-2.04,0.38
				C366.23,127.32,366.15,127.32,366.11,127.26z"/>
		</g>
		<g>
			<path class="st19" d="M366.86,127.95L366.86,127.95c-0.05-0.07-0.03-0.19,0.04-0.26c0.33-0.33,1.27-1.08,2.33-0.44
				c0.06,0.04,0.07,0.14,0.03,0.23l0,0c-0.04,0.08-0.13,0.12-0.19,0.08c-0.96-0.57-1.76,0.1-2.04,0.38
				C366.98,128.01,366.9,128.01,366.86,127.95z"/>
		</g>
		<path class="st32" d="M362.78,128.38c0.19-2.63-0.96-3.36-1.66-3.57l-0.94,1.78c-0.18,0.34-0.11,0.74,0.16,0.85L362.78,128.38z"/>
	</g>
	<g>
		<path class="st19" d="M359.8,131.72l-9.75-3.01c-0.24-0.08-0.38-0.33-0.3-0.58l0.06-0.19c0.08-0.24,0.33-0.38,0.58-0.3l9.75,3.01
			c0.24,0.08,0.38,0.33,0.3,0.58l-0.06,0.19C360.3,131.66,360.04,131.8,359.8,131.72z"/>
		<path class="st13" d="M351.42,124.41l-1.27,2.87c-0.16,0.35-0.05,0.75,0.22,0.83l9.37,2.89c0.24,0.08,0.53,0,0.75-0.25
			c0.22-0.25,0.38-0.69,0.15-1.41c-0.47-1.44-3.14-2.58-4.18-4.01l-4.36-1.35C351.85,123.91,351.57,124.09,351.42,124.41z"/>
		<g>
			<path class="st19" d="M355.26,126.85L355.26,126.85c-0.05-0.06-0.04-0.18,0.02-0.26c0.31-0.35,1.19-1.17,2.3-0.6
				c0.06,0.03,0.08,0.14,0.04,0.23l0,0c-0.04,0.09-0.12,0.13-0.18,0.09c-0.99-0.5-1.75,0.22-2.01,0.52
				C355.38,126.9,355.31,126.9,355.26,126.85z"/>
		</g>
		<g>
			<path class="st19" d="M356.12,127.54L356.12,127.54c-0.05-0.06-0.04-0.18,0.02-0.26c0.31-0.35,1.19-1.17,2.3-0.6
				c0.06,0.03,0.08,0.14,0.04,0.23l0,0c-0.04,0.09-0.12,0.13-0.18,0.09c-0.99-0.5-1.75,0.22-2.01,0.52
				C356.24,127.58,356.16,127.59,356.12,127.54z"/>
		</g>
		<g>
			<path class="st19" d="M356.91,128.17L356.91,128.17c-0.05-0.06-0.04-0.18,0.02-0.26c0.31-0.35,1.19-1.17,2.3-0.6
				c0.06,0.03,0.08,0.14,0.04,0.23l0,0c-0.04,0.09-0.12,0.13-0.18,0.09c-0.99-0.5-1.75,0.22-2.01,0.52
				C357.03,128.22,356.96,128.22,356.91,128.17z"/>
		</g>
		<path class="st32" d="M352.87,128.88c0-2.63-1.19-3.29-1.9-3.45l-0.82,1.84c-0.16,0.35-0.05,0.75,0.22,0.83L352.87,128.88z"/>
	</g>
</g>
</svg>
