<?xml version="1.0" encoding="utf-8"?>
<!-- Generator: Adobe Illustrator 23.0.5, SVG Export Plug-In . SVG Version: 6.00 Build 0)  -->
<svg version="1.0" id="Layer_1" xmlns="http://www.w3.org/2000/svg" xmlns:xlink="http://www.w3.org/1999/xlink" x="0px" y="0px"
	 viewBox="0 0 624 320" style="enable-background:new 0 0 624 320;" xml:space="preserve">
<style type="text/css">
	.st0{opacity:0.3;fill:#35B24A;}
	.st1{fill:#FFFFFF;}
	.st2{fill:#00A26D;}
	.st3{fill:#F37168;}
	.st4{fill:#CCE2FF;}
	.st5{fill:#99BBEB;}
	.st6{fill:#9BD6E8;}
	.st7{fill:#3A384D;}
	.st8{fill:#F09959;}
	.st9{fill:#E38540;}
	.st10{fill:#7A4E34;}
	.st11{fill:#D54A41;}
	.st12{opacity:0.2;fill:#99BBEB;}
	.st13{fill:#2E2D3D;}
	.st14{fill:#D5E1E8;}
	.st15{fill:#BDCCD4;}
	.st16{fill:#145566;}
	.st17{fill:#007249;}
	.st18{fill:#FF9841;}
	.st19{fill:#C97231;}
	.st20{fill:#75A1DE;}
	.st21{fill:#F2E5DE;}
	.st22{fill:#303C60;}
	.st23{fill:#74B570;}
	.st24{fill:#9CD499;}
</style>
<rect x="0" class="st0" width="624" height="320"/>
<g>
	<path class="st1" d="M111.76,37.81C184.79,10.7,259,34.67,309.34,86.87c50.34,52.2,155.98-36.03,212,16.09
		c38.23,35.57,20.72,127.01-31.7,166.62c-71.26,53.83-287.97,26.52-334.85,17.36c-54.01-10.55-93.49-42.58-109.53-81.45
		C6.61,111.83,79.49,49.79,111.76,37.81z"/>
	<g>
		<g>
			<path class="st2" d="M361.36,75.47c0.25-2.21,0.38-4.45,0.38-6.73c0-1.2-0.04-2.39-0.11-3.58l-11.12-3.6
				c-0.68-4.69-2.03-9.16-3.94-13.33l7.37-9.07c-1.71-3-3.66-5.84-5.84-8.49l-11.12,3.63c-3.24-3.31-6.95-6.17-11.01-8.46
				l0.63-11.69c-3.1-1.41-6.35-2.57-9.71-3.44l-6.87,9.48c-2.68-0.45-5.43-0.69-8.23-0.69c-1.91,0-3.8,0.11-5.65,0.33L289.78,10
				c-3.41,0.69-6.71,1.68-9.88,2.92l0.01,11.7c-4.19,2.08-8.04,4.74-11.44,7.87l-10.91-4.21c-2.32,2.53-4.42,5.27-6.28,8.17
				l6.89,9.45c-2.13,4.06-3.71,8.46-4.64,13.1l-11.29,3.01c-0.25,2.21-0.38,4.45-0.38,6.73c0,1.2,0.04,2.39,0.11,3.58l11.12,3.6
				c0.68,4.69,2.03,9.16,3.94,13.33l-7.37,9.07c1.71,3,3.66,5.84,5.84,8.49l11.12-3.63c3.24,3.31,6.95,6.17,11.01,8.46l-0.63,11.69
				c3.1,1.41,6.35,2.57,9.71,3.44l6.87-9.48c2.68,0.45,5.43,0.69,8.23,0.69c1.91,0,3.8-0.11,5.65-0.32l6.36,9.83
				c3.41-0.69,6.71-1.68,9.88-2.92l-0.01-11.7c4.19-2.08,8.04-4.74,11.44-7.87l10.91,4.21c2.32-2.53,4.42-5.27,6.28-8.17l-6.89-9.45
				c2.13-4.06,3.71-8.46,4.64-13.1L361.36,75.47z M301.79,92.25c-12.99,0-23.51-10.53-23.51-23.51c0-12.99,10.53-23.51,23.51-23.51
				c12.99,0,23.51,10.53,23.51,23.51C325.3,81.73,314.78,92.25,301.79,92.25z"/>
			<g>
				<path class="st1" d="M333.86,95.56c-0.2,0-0.4-0.07-0.56-0.2c-0.37-0.31-0.42-0.86-0.11-1.24c5.91-7.11,9.16-16.12,9.16-25.38
					c0-4.43-0.73-8.79-2.16-12.94c-0.16-0.46,0.09-0.96,0.54-1.12c0.46-0.16,0.96,0.09,1.12,0.54c1.49,4.34,2.25,8.88,2.25,13.51
					c0,9.67-3.4,19.08-9.57,26.5C334.36,95.45,334.11,95.56,333.86,95.56z"/>
			</g>
			<g>
				<path class="st1" d="M330.46,40.06c-0.22,0-0.43-0.08-0.6-0.24c-3.97-3.74-8.57-6.57-13.67-8.42c-0.46-0.17-0.69-0.67-0.53-1.13
					c0.17-0.46,0.67-0.69,1.13-0.53c5.33,1.93,10.13,4.89,14.28,8.8c0.35,0.33,0.37,0.89,0.04,1.24
					C330.92,39.97,330.69,40.06,330.46,40.06z"/>
			</g>
			<g>
				<path class="st1" d="M292.67,30.26c-0.39,0-0.75-0.27-0.85-0.66c-0.12-0.47,0.17-0.95,0.64-1.07c3.31-0.84,6.74-1.26,10.18-1.26
					c0.49,0,0.88,0.39,0.88,0.88c0,0.49-0.39,0.88-0.88,0.88c-3.3,0-6.58,0.41-9.75,1.21C292.82,30.25,292.74,30.26,292.67,30.26z"
					/>
			</g>
		</g>
		<g>
			<path class="st2" d="M172.39,224.35c0.17-1.53,0.26-3.09,0.26-4.66c0-0.83-0.03-1.66-0.08-2.48l-7.7-2.49
				c-0.47-3.25-1.41-6.35-2.73-9.23l5.11-6.29c-1.18-2.08-2.54-4.05-4.05-5.88l-7.7,2.51c-2.25-2.29-4.81-4.27-7.63-5.86l0.44-8.09
				c-2.15-0.98-4.4-1.78-6.73-2.38l-4.76,6.56c-1.85-0.31-3.76-0.48-5.7-0.48c-1.32,0-2.63,0.08-3.92,0.23l-4.4-6.81
				c-2.36,0.48-4.65,1.16-6.84,2.02l0.01,8.11c-2.9,1.44-5.57,3.28-7.93,5.45l-7.56-2.92c-1.61,1.76-3.06,3.65-4.35,5.66l4.77,6.55
				c-1.48,2.82-2.57,5.86-3.22,9.07l-7.82,2.08c-0.17,1.53-0.26,3.09-0.26,4.66c0,0.83,0.03,1.66,0.08,2.48l7.7,2.49
				c0.47,3.25,1.41,6.35,2.73,9.23L95,240.17c1.18,2.08,2.54,4.05,4.05,5.88l7.7-2.51c2.25,2.29,4.81,4.27,7.63,5.86l-0.44,8.09
				c2.15,0.98,4.4,1.78,6.73,2.38l4.76-6.56c1.85,0.31,3.76,0.48,5.7,0.48c1.32,0,2.63-0.08,3.92-0.23l4.4,6.81
				c2.36-0.48,4.65-1.16,6.84-2.02l-0.01-8.11c2.9-1.44,5.57-3.28,7.93-5.45l7.56,2.92c1.61-1.76,3.06-3.65,4.35-5.66l-4.77-6.55
				c1.48-2.82,2.57-5.86,3.22-9.07L172.39,224.35z M131.13,235.97c-8.99,0-16.29-7.29-16.29-16.29c0-8.99,7.29-16.29,16.29-16.29
				c8.99,0,16.29,7.29,16.29,16.29C147.41,228.68,140.12,235.97,131.13,235.97z"/>
			<g>
				<path class="st1" d="M153.34,238.53c-0.2,0-0.4-0.07-0.56-0.2c-0.37-0.31-0.42-0.86-0.11-1.24c4.05-4.87,6.28-11.05,6.28-17.4
					c0-3.04-0.5-6.03-1.48-8.87c-0.16-0.46,0.09-0.96,0.54-1.12c0.46-0.16,0.96,0.09,1.12,0.54c1.04,3.03,1.57,6.21,1.57,9.45
					c0,6.76-2.38,13.34-6.69,18.53C153.84,238.42,153.59,238.53,153.34,238.53z"/>
			</g>
			<g>
				<path class="st1" d="M150.98,200.09c-0.22,0-0.43-0.08-0.6-0.24c-2.72-2.56-5.88-4.51-9.38-5.78c-0.46-0.17-0.69-0.67-0.53-1.13
					c0.17-0.46,0.67-0.69,1.13-0.53c3.72,1.35,7.08,3.42,9.98,6.15c0.35,0.33,0.37,0.89,0.04,1.24
					C151.45,200,151.21,200.09,150.98,200.09z"/>
			</g>
			<g>
				<path class="st1" d="M124.81,193.3c-0.39,0-0.75-0.27-0.85-0.66c-0.12-0.47,0.17-0.95,0.64-1.07c2.31-0.58,4.71-0.88,7.12-0.88
					c0.49,0,0.88,0.39,0.88,0.88s-0.39,0.88-0.88,0.88c-2.26,0-4.51,0.28-6.69,0.83C124.95,193.3,124.88,193.3,124.81,193.3z"/>
			</g>
		</g>
		<path class="st2" d="M397.26,120.25c0-0.45-0.01-0.91-0.04-1.35l5.77-4.63c-0.45-2.31-1.16-4.53-2.1-6.63l-7.45-0.56
			c-1.69-2.67-3.89-5-6.45-6.85l-0.02-7.43c-2.08-1.09-4.29-1.95-6.61-2.55l-5.09,5.48c-0.88-0.09-1.77-0.14-2.67-0.14
			c-2.24,0-4.42,0.3-6.48,0.86l-5.84-4.63c-2.2,0.96-4.28,2.16-6.18,3.58l1.1,7.36c-2.18,2.17-3.95,4.74-5.2,7.59l-7.27,1.68
			c-0.61,2.24-0.98,4.59-1.07,7l6.4,3.7c0.33,3.24,1.28,6.3,2.74,9.04l-3.2,6.71c1.37,1.88,2.95,3.6,4.71,5.12l6.86-2.69
			c2.7,1.76,5.76,3,9.05,3.59l3.23,6.66c0.39,0.01,0.77,0.02,1.16,0.02c1.94,0,3.83-0.18,5.67-0.52l2.18-7.05
			c3.18-1.07,6.06-2.77,8.51-4.94l7.21,1.62c1.48-1.74,2.77-3.64,3.84-5.67l-4.18-6.14C396.76,125.92,397.26,123.14,397.26,120.25z
			 M372.32,131.12c-5.74,0-10.39-4.65-10.39-10.39c0-5.74,4.65-10.39,10.39-10.39c5.74,0,10.39,4.65,10.39,10.39
			C382.71,126.47,378.06,131.12,372.32,131.12z"/>
	</g>
	<g>
		<g>
			<path class="st2" d="M493.29,60.4h-8.93c-3.45,0-6.25-2.8-6.25-6.25v-8.93c0-3.45,2.8-6.25,6.25-6.25h8.93
				c3.45,0,6.25,2.8,6.25,6.25v8.93C499.55,57.6,496.74,60.4,493.29,60.4z M484.36,41.43c-2.09,0-3.79,1.7-3.79,3.79v8.93
				c0,2.09,1.7,3.79,3.79,3.79h8.93c2.09,0,3.79-1.7,3.79-3.79v-8.93c0-2.09-1.7-3.79-3.79-3.79H484.36z"/>
		</g>
		<g>
			<path class="st2" d="M451.28,60.4h-8.93c-3.45,0-6.25-2.8-6.25-6.25v-8.93c0-3.45,2.8-6.25,6.25-6.25h8.93
				c3.45,0,6.25,2.8,6.25,6.25v8.93C457.53,57.6,454.73,60.4,451.28,60.4z M442.35,41.43c-2.09,0-3.79,1.7-3.79,3.79v8.93
				c0,2.09,1.7,3.79,3.79,3.79h8.93c2.09,0,3.79-1.7,3.79-3.79v-8.93c0-2.09-1.7-3.79-3.79-3.79H442.35z"/>
		</g>
		<g>
			<path class="st3" d="M447.37,55.2c-0.02,0-0.03,0-0.05,0c-0.31-0.02-0.6-0.17-0.79-0.41l-6.42-8.37
				c-0.35-0.46-0.27-1.12,0.2-1.48c0.46-0.35,1.12-0.27,1.48,0.2l5.66,7.38l14.78-15.83c0.4-0.43,1.07-0.45,1.49-0.05
				c0.43,0.4,0.45,1.06,0.05,1.49l-15.63,16.74C447.94,55.08,447.66,55.2,447.37,55.2z"/>
		</g>
	</g>
	<path class="st4" d="M522.81,290.99c-36.55-1.79-160.9,1.24-198.72,2.42c-37.82,1.18-81.72-1.56-104.52-5.58
		c-22.8-4.03-154.61,0.34-148.63,11.17c5.98,10.82,58.73,4.84,118.54,9.19c59.81,4.35,194.34-0.54,224.68,0
		c30.34,0.54,58.17-1.09,97.27-3.26C550.54,302.74,543.99,292.02,522.81,290.99z"/>
	<g>
		<rect x="72.78" y="64.67" class="st5" width="76.41" height="125.24"/>
		<rect x="76.78" y="67.22" class="st1" width="69.9" height="117.92"/>
		<g>
			<g>
				<path class="st6" d="M97.68,114.5c2.63-5.66,7.08-7.47,14.4-7.47c8.71,0,13.23,3.15,14.51,7.75
					C111,114.99,97.68,114.5,97.68,114.5z"/>
				<path class="st7" d="M109.04,79.51c-3.69,1.03-3.52,3.11-4.75,5.03c-1.23,1.92-3.9,3.2-4.22,4.48
					c-0.32,1.28,0.82,3.95-0.53,5.45c-1.36,1.49-1.82,2.24-1.28,3.74c0.53,1.49,1.71,3.84,1.82,4.16c0.11,0.32,1.6,2.56,3.42,2.88
					c1.82,0.32,5.23,0.85,6.94,1.6c1.71,0.75,7.2-0.96,10.25-0.85c3.05,0.11,5.13-2.14,4.91-3.63c-0.21-1.49,2.25-4.48,2.24-7.05
					c-0.01-2.75-3.2-4.81-4.06-6.62c-0.85-1.82,0.11-5.02-3.1-6.92c-2.02-1.2-3.42-1.09-5.02-1.63
					C114.06,79.62,111.39,78.85,109.04,79.51z"/>
				<path class="st8" d="M113.52,111.55c-0.83,1.23-1.44,1.28-2.35,0c-0.72-1.02-2.14-3.33-2.14-4.51V95.32
					c0-1.17,0.96-2.14,2.14-2.14h2.35c1.17,0,2.14,0.96,2.14,2.14v11.72C115.66,108.22,114.27,110.45,113.52,111.55z"/>
				<path class="st9" d="M113.52,93.18h-2.35c-1.17,0-2.14,0.96-2.14,2.14v10.46c2.64,0.84,5.05-0.83,6.62-2.71v-7.75
					C115.66,94.14,114.7,93.18,113.52,93.18z"/>
				<ellipse class="st8" cx="112.35" cy="93.3" rx="7.1" ry="9.68"/>
				<path class="st7" d="M115.66,85.6c-4.48,7.58-11.11,6.83-11.11,6.83s0.16-10.04,5.42-10.57c5.26-0.53,8.36,1.58,9.42,5.06
					c1.07,3.48,0,5.78,0,5.78s-1.71-1.33-2.56-3.47C115.98,87.1,115.66,85.6,115.66,85.6z"/>
				
					<ellipse transform="matrix(0.9033 -0.429 0.429 0.9033 -30.2227 53.8259)" class="st8" cx="104.29" cy="93.95" rx="1.87" ry="2.8"/>
				<path class="st8" d="M118.4,93.15c-0.66,1.4-0.45,2.89,0.49,3.33c0.93,0.44,2.23-0.33,2.89-1.73c0.66-1.4,0.45-2.89-0.49-3.33
					C120.36,90.98,119.07,91.75,118.4,93.15z"/>
				<path class="st1" d="M115.02,98.55c0,0-1.2,1.55-2.67,1.55c-1.47,0-2.67-1.55-2.67-1.55H115.02z"/>
			</g>
			<path class="st2" d="M120.8,129.85h-17.93c-1.15,0-2.09-0.94-2.09-2.09c0-1.15,0.94-2.09,2.09-2.09h17.93
				c1.15,0,2.09,0.94,2.09,2.09C122.89,128.92,121.95,129.85,120.8,129.85z"/>
			<path class="st2" d="M124.09,136.26h-24.5c-1.15,0-2.09-0.94-2.09-2.09c0-1.15,0.94-2.09,2.09-2.09h24.5
				c1.15,0,2.09,0.94,2.09,2.09C126.17,135.32,125.23,136.26,124.09,136.26z"/>
			<path class="st2" d="M141.63,159.3h-59.6c-0.67,0-1.21-0.54-1.21-1.21s0.54-1.21,1.21-1.21h59.6c0.67,0,1.21,0.54,1.21,1.21
				S142.3,159.3,141.63,159.3z"/>
			<path class="st2" d="M141.63,164.93h-59.6c-0.67,0-1.21-0.54-1.21-1.21c0-0.67,0.54-1.21,1.21-1.21h59.6
				c0.67,0,1.21,0.54,1.21,1.21C142.84,164.38,142.3,164.93,141.63,164.93z"/>
			<path class="st2" d="M141.63,170.55h-59.6c-0.67,0-1.21-0.54-1.21-1.21c0-0.67,0.54-1.21,1.21-1.21h59.6
				c0.67,0,1.21,0.54,1.21,1.21C142.84,170,142.3,170.55,141.63,170.55z"/>
			<g>
				<path class="st5" d="M133.3,115.89H90.37c-1.19,0-2.16-0.97-2.16-2.16V74.17c0-1.19,0.97-2.16,2.16-2.16h42.93
					c1.19,0,2.16,0.97,2.16,2.16v39.56C135.46,114.93,134.49,115.89,133.3,115.89z M90.37,73.77c-0.22,0-0.4,0.18-0.4,0.4v39.56
					c0,0.22,0.18,0.4,0.4,0.4h42.93c0.22,0,0.4-0.18,0.4-0.4V74.17c0-0.22-0.18-0.4-0.4-0.4H90.37z"/>
			</g>
			<g>
				<polygon class="st2" points="96.57,141.7 97.81,144.22 100.59,144.62 98.58,146.58 99.05,149.35 96.57,148.04 94.08,149.35 
					94.56,146.58 92.55,144.62 95.32,144.22 				"/>
				<polygon class="st2" points="106.75,141.7 107.99,144.22 110.77,144.62 108.76,146.58 109.23,149.35 106.75,148.04 
					104.26,149.35 104.74,146.58 102.72,144.62 105.5,144.22 				"/>
				<polygon class="st2" points="116.92,141.7 118.17,144.22 120.95,144.62 118.94,146.58 119.41,149.35 116.92,148.04 
					114.44,149.35 114.91,146.58 112.9,144.62 115.68,144.22 				"/>
				<polygon class="st2" points="127.1,141.7 128.35,144.22 131.13,144.62 129.11,146.58 129.59,149.35 127.1,148.04 124.62,149.35 
					125.09,146.58 123.08,144.62 125.86,144.22 				"/>
			</g>
		</g>
	</g>
	<g>
		<rect x="243.12" y="64.67" class="st5" width="76.41" height="125.24"/>
		<rect x="247.13" y="67.22" class="st1" width="69.9" height="117.92"/>
		<g>
			<g>
				<path class="st10" d="M271.35,92.66c0,5.61,3.38,14.66,11.35,14.37c7.97-0.29,9.73-8.92,10.04-11.35
					C293.04,93.25,271.35,92.66,271.35,92.66z"/>
				<path class="st11" d="M268.03,114.5c2.63-5.66,7.08-7.47,14.4-7.47c8.71,0,13.23,3.15,14.51,7.75
					C281.34,114.99,268.03,114.5,268.03,114.5z"/>
				<path class="st8" d="M283.87,111.55c-0.83,1.23-1.44,1.28-2.35,0c-0.72-1.02-2.14-3.33-2.14-4.51V95.32
					c0-1.17,0.96-2.14,2.14-2.14h2.35c1.17,0,2.14,0.96,2.14,2.14v11.72C286.01,108.22,284.62,110.45,283.87,111.55z"/>
				<path class="st9" d="M283.87,93.18h-2.35c-1.17,0-2.14,0.96-2.14,2.14v10.46c2.64,0.84,5.05-0.83,6.62-2.71v-7.75
					C286.01,94.14,285.05,93.18,283.87,93.18z"/>
				<ellipse class="st8" cx="282.7" cy="93.3" rx="7.1" ry="9.68"/>
				<path class="st10" d="M286.6,85.95c-0.84,2.98-2.69,2.94-5.27,3.92c-2.58,0.98-3.81,1.96-4.65,3.86
					c-1.08,2.43,0.49,9.5,0.49,9.5s-6.53-4.89-5.77-12.57c0.76-7.68,5.29-10.66,9.55-10.66c4.26,0,5.88,2.6,5.88,2.6
					s2.27,0.01,4.42,2.55c2.89,3.42,2,11.73,0,14.7c-2,2.98-3.33,3.91-3.29,3.78c0.04-0.13,1.87-6.97,0.89-11.19
					C287.87,88.22,286.6,85.95,286.6,85.95z"/>
				<path class="st1" d="M285.37,98.55c0,0-1.2,1.55-2.67,1.55s-2.67-1.55-2.67-1.55H285.37z"/>
			</g>
			<path class="st2" d="M291.15,129.85h-17.93c-1.15,0-2.09-0.94-2.09-2.09c0-1.15,0.94-2.09,2.09-2.09h17.93
				c1.15,0,2.09,0.94,2.09,2.09C293.24,128.92,292.3,129.85,291.15,129.85z"/>
			<path class="st2" d="M294.43,136.26h-24.5c-1.15,0-2.09-0.94-2.09-2.09c0-1.15,0.94-2.09,2.09-2.09h24.5
				c1.15,0,2.09,0.94,2.09,2.09C296.52,135.32,295.58,136.26,294.43,136.26z"/>
			<path class="st2" d="M311.98,159.3h-59.6c-0.67,0-1.21-0.54-1.21-1.21s0.54-1.21,1.21-1.21h59.6c0.67,0,1.21,0.54,1.21,1.21
				S312.65,159.3,311.98,159.3z"/>
			<path class="st2" d="M311.98,164.93h-59.6c-0.67,0-1.21-0.54-1.21-1.21c0-0.67,0.54-1.21,1.21-1.21h59.6
				c0.67,0,1.21,0.54,1.21,1.21C313.19,164.38,312.65,164.93,311.98,164.93z"/>
			<path class="st2" d="M311.98,170.55h-59.6c-0.67,0-1.21-0.54-1.21-1.21c0-0.67,0.54-1.21,1.21-1.21h59.6
				c0.67,0,1.21,0.54,1.21,1.21C313.19,170,312.65,170.55,311.98,170.55z"/>
			<g>
				<path class="st5" d="M303.65,115.89h-42.93c-1.19,0-2.16-0.97-2.16-2.16V74.17c0-1.19,0.97-2.16,2.16-2.16h42.93
					c1.19,0,2.16,0.97,2.16,2.16v39.56C305.81,114.93,304.84,115.89,303.65,115.89z M260.72,73.77c-0.22,0-0.4,0.18-0.4,0.4v39.56
					c0,0.22,0.18,0.4,0.4,0.4h42.93c0.22,0,0.4-0.18,0.4-0.4V74.17c0-0.22-0.18-0.4-0.4-0.4H260.72z"/>
			</g>
			<g>
				<polygon class="st2" points="266.92,141.7 268.16,144.22 270.94,144.62 268.93,146.58 269.4,149.35 266.92,148.04 
					264.43,149.35 264.9,146.58 262.89,144.62 265.67,144.22 				"/>
				<polygon class="st2" points="277.09,141.7 278.34,144.22 281.12,144.62 279.11,146.58 279.58,149.35 277.09,148.04 
					274.61,149.35 275.08,146.58 273.07,144.62 275.85,144.22 				"/>
				<polygon class="st2" points="287.27,141.7 288.52,144.22 291.3,144.62 289.28,146.58 289.76,149.35 287.27,148.04 
					284.79,149.35 285.26,146.58 283.25,144.62 286.03,144.22 				"/>
				<polygon class="st2" points="297.45,141.7 298.7,144.22 301.47,144.62 299.46,146.58 299.94,149.35 297.45,148.04 
					294.97,149.35 295.44,146.58 293.43,144.62 296.21,144.22 				"/>
			</g>
		</g>
	</g>
	<polygon class="st12" points="251.71,188.66 131.13,188.66 139.66,65.13 256.06,65.13 	"/>
	<g>
		<rect x="143.79" y="41.76" class="st5" width="104.37" height="171.06"/>
		<rect x="149.26" y="45.24" class="st1" width="95.47" height="161.06"/>
		<g>
			<g>
				<path class="st13" d="M188.1,79.07c-0.07-0.2-1.74-9.79-1.94-13.52c-0.2-3.73,6-4.26,6-4.26s5.06-2.73,8.73-1.33
					c3.66,1.4,6.16,3.75,7.82,6.68c1.67,2.93-1.47,12.07-1.47,12.07L188.1,79.07z"/>
				<path class="st14" d="M176.61,109.9c-0.02-0.16,0.43-3.93,0.44-4.09c0.84-7.95,10.64-10.19,20.42-10.19
					c11.49,0,19.28,2.1,20.53,10.36c0.04,0.24,0.7,4.03,0.67,4.28C197.37,110.56,176.61,109.9,176.61,109.9z"/>
				<path class="st8" d="M199.45,101.79c-1.14,1.68-1.97,1.75-3.21,0c-0.98-1.39-4.26-4.57-4.26-6.17l1.35-16
					c0-1.6,1.31-2.92,2.92-2.92h3.21c1.6,0,2.92,1.31,2.92,2.92l0.63,16C202.99,97.23,200.47,100.29,199.45,101.79z"/>
				<path class="st9" d="M199.45,76.71h-3.21c-1.6,0-2.92,1.31-2.92,2.92l-1.17,14.19c3.6,1.15,8.47-1.18,10.62-3.75l-0.41-10.44
					C202.37,78.02,201.05,76.71,199.45,76.71z"/>
				<path class="st15" d="M186.83,96.79l5.14,9.51c0,0,2.75-2.27,3.02-1.82c0.27,0.44-0.49,6.05-0.49,6.05s6.13,0.08,6.4-0.18
					c0.27-0.27-1.24-6.09-0.62-6.09c0.62,0,2.49,1.69,2.49,1.69l5.74-9.15l-1.26-0.31l-9.41,5.06l-10.07-4.95L186.83,96.79z"/>
				<polygon class="st11" points="192.71,101.17 196.54,103.73 195.35,110.54 200.5,110.25 199.22,104.06 202.38,101.17 
					200.9,99.77 194.2,99.77 				"/>
				<path class="st14" d="M192.24,92.13l-4.73,4.5c0,0,4.81,8.56,5.08,8.56c0.27,0,4.09-4.72,4.09-4.72l2.45-0.04l3.86,4.05
					l4.49-7.94l-4.58-4.85c0,0-3.91,7.55-4.62,7.73c-0.71,0.18-0.72,0.27-1.29-0.18C196.42,98.79,192.24,92.13,192.24,92.13z"/>
				<ellipse class="st8" cx="197.84" cy="76.87" rx="9.7" ry="13.22"/>
				<path class="st8" d="M189.14,76.67c0.91,1.91,0.61,3.95-0.66,4.55c-1.27,0.6-3.04-0.45-3.95-2.36
					c-0.91-1.91-0.61-3.95,0.66-4.55C186.46,73.7,188.23,74.76,189.14,76.67z"/>
				<path class="st8" d="M206.11,76.67c-0.91,1.91-0.61,3.95,0.66,4.55c1.27,0.6,3.04-0.45,3.95-2.36c0.91-1.91,0.61-3.95-0.66-4.55
					C208.79,73.7,207.02,74.76,206.11,76.67z"/>
				<path class="st1" d="M202.15,82.29c0,0-1.93,3.12-4.3,3.12c-2.38,0-4.3-3.12-4.3-3.12H202.15z"/>
				<path class="st13" d="M192.15,67.88c4-2.8,5.8-2.33,8.79,2.27c3,4.6,6.6,4.68,6.6,4.68l0.47-4.77c0,0-4.47-8.64-10.46-7.51
					c-6,1.13-9.4,6.53-9.4,6.53s-0.29,10.11,0.54,10.46c0.84,0.35,0.93-3.26,1.53-4c0.6-0.73-0.6-4.2,0.2-5.8
					C191.22,68.15,192.15,67.88,192.15,67.88z"/>
				<path class="st13" d="M205.01,73.08c1.4,1.53,0.87,7.59,1.6,7.53c0.73-0.07,1-5.8,0.8-6.4
					C207.21,73.61,205.01,73.08,205.01,73.08z"/>
			</g>
			<path class="st2" d="M219.42,130.79h-44.55c-1.57,0-2.85-1.28-2.85-2.85c0-1.57,1.28-2.85,2.85-2.85h44.55
				c1.57,0,2.85,1.28,2.85,2.85C222.27,129.51,220.98,130.79,219.42,130.79z"/>
			<path class="st2" d="M213.87,139.54h-33.46c-1.57,0-2.85-1.28-2.85-2.85c0-1.57,1.28-2.85,2.85-2.85h33.46
				c1.57,0,2.85,1.28,2.85,2.85C216.72,138.26,215.44,139.54,213.87,139.54z"/>
			<path class="st2" d="M237.84,171.01h-81.4c-0.91,0-1.65-0.74-1.65-1.65c0-0.91,0.74-1.65,1.65-1.65h81.4
				c0.91,0,1.65,0.74,1.65,1.65C239.49,170.27,238.75,171.01,237.84,171.01z"/>
			<path class="st2" d="M237.84,178.69h-81.4c-0.91,0-1.65-0.74-1.65-1.65c0-0.91,0.74-1.65,1.65-1.65h81.4
				c0.91,0,1.65,0.74,1.65,1.65C239.49,177.95,238.75,178.69,237.84,178.69z"/>
			<path class="st2" d="M237.84,186.38h-81.4c-0.91,0-1.65-0.74-1.65-1.65s0.74-1.65,1.65-1.65h81.4c0.91,0,1.65,0.74,1.65,1.65
				S238.75,186.38,237.84,186.38z"/>
			<g>
				<path class="st5" d="M226.46,111.41h-58.63c-1.45,0-2.63-1.18-2.63-2.63V54.74c0-1.45,1.18-2.63,2.63-2.63h58.63
					c1.45,0,2.63,1.18,2.63,2.63v54.04C229.09,110.23,227.91,111.41,226.46,111.41z M167.83,53.87c-0.48,0-0.87,0.39-0.87,0.87
					v54.04c0,0.48,0.39,0.87,0.87,0.87h58.63c0.48,0,0.87-0.39,0.87-0.87V54.74c0-0.48-0.39-0.87-0.87-0.87H167.83z"/>
			</g>
			<g>
				<polygon class="st2" points="169.23,146.97 170.92,150.41 174.72,150.96 171.97,153.64 172.62,157.42 169.23,155.64 
					165.83,157.42 166.48,153.64 163.73,150.96 167.53,150.41 				"/>
				<polygon class="st2" points="183.13,146.97 184.83,150.41 188.62,150.96 185.88,153.64 186.52,157.42 183.13,155.64 
					179.73,157.42 180.38,153.64 177.64,150.96 181.43,150.41 				"/>
				<polygon class="st2" points="197.03,146.97 198.73,150.41 202.53,150.96 199.78,153.64 200.43,157.42 197.03,155.64 
					193.64,157.42 194.29,153.64 191.54,150.96 195.33,150.41 				"/>
				<polygon class="st2" points="210.94,146.97 212.63,150.41 216.43,150.96 213.68,153.64 214.33,157.42 210.94,155.64 
					207.54,157.42 208.19,153.64 205.44,150.96 209.24,150.41 				"/>
				<polygon class="st2" points="225.06,146.97 226.76,150.41 230.55,150.96 227.81,153.64 228.45,157.42 225.06,155.64 
					221.66,157.42 222.31,153.64 219.57,150.96 223.36,150.41 				"/>
			</g>
		</g>
	</g>
	<path class="st16" d="M414.68,207.32H282.94c-1.41,0-2.55-1.14-2.55-2.55l0,0c0-1.41,1.14-2.55,2.55-2.55h131.74
		c1.41,0,2.55,1.14,2.55,2.55l0,0C417.23,206.18,416.09,207.32,414.68,207.32z"/>
	<g>
		<path class="st8" d="M450.26,133.88c1.81,6.4-2.62,12.99-7.5,14.37c-4.88,1.38-8.37-2.96-10.18-9.36
			c-1.81-6.4,0.67-12.71,5.55-14.09C443.01,123.42,448.44,127.49,450.26,133.88z"/>
		<path class="st8" d="M422.88,257.85c0,0,12.51,19.43,14.2,20.28c1.69,0.85,5.91,1.06,4.33,4.22c-1.58,3.17-2.22,15.63-3.7,16.27
			c-1.48,0.63-14.15,2.11-12.25,0c1.9-2.11,3.07-1.06,4.03-4.86c0.96-3.8,2.31-10.98,0.51-12.46c-1.8-1.48-12.78-14.79-12.78-14.79
			L422.88,257.85z"/>
		<path class="st8" d="M359.91,266.19c0,0-15.21,25.07-18.03,27.32c-2.82,2.25-12.11,5.63-4.51,6.2c7.6,0.56,11.27-2.53,16.05-3.94
			c4.79-1.41,10.7-2.25,8.45-5.91c-2.25-3.66-1.32-11.66,3.54-16.72C370.28,268.06,359.91,266.19,359.91,266.19z"/>
		<path class="st17" d="M437.53,208.06c0,0-37.65-0.98-52.58,11.27c-8.73,13.24-29.85,52.3-31.5,56.6
			c1.13,1.13,7.46,3.16,10.28,2.88c8.31-9.91,19.29-18.47,23.66-26.24c5.38-9.58,7.04-14.36,15.77-15.21
			c8.73-0.84,28.45-3.66,34.36-3.66C443.44,233.69,437.53,208.06,437.53,208.06z"/>
		<polygon class="st16" points="470.36,299.78 468.39,299.78 454.23,240.73 458.57,240.73 		"/>
		<polygon class="st16" points="411.24,299.78 413.21,299.78 429.45,238.64 425.11,238.64 		"/>
		<path class="st2" d="M458.98,205.48l-21.89,3.78c0,0-29.09,0.27-42.39,2.74c-12.1,2.25-13.88,16,0,34.93
			c7.88,10.75,14.55,19.33,28.18,29c3.47-2.55,4.79-3.51,5.75-9.64c-0.99-1.35-3.54-9.82-4.33-11.48
			c-7.54-15.76-17.61-21.49-17.75-23.05c1.69-2.75,44.76,14.31,53.33,4.28C468.06,226.47,458.98,205.48,458.98,205.48z"/>
		<path class="st18" d="M459.88,155.93c-5.77-0.81-11.64,0.29-17.13,4.26c-4.8,4.89-10.23,12.96-9.9,26.26
			c0.42,16.9-2.61,17.98,0.55,22.63c13.22,5.46,35.82,28.9,30.49,3.77c-3.85-18.2,8.45-31.77-1.48-51.96
			C461.63,159.25,460.62,157.66,459.88,155.93z"/>
		<path class="st19" d="M432.86,192.81c-0.26,8.81-1.5,11.41-0.55,14.17c5.39,0.55,15.24,2.71,17.71,6.15
			c2.82,3.94,5.63,4.51,4.32,1.6c-1.31-2.91-4.79-7.04,0.56-21.22c5.35-14.18,7.89-23.75,2.63-33.61L432.86,192.81z"/>
		<path class="st8" d="M459.88,155.93c-3.55-8.4-4.42-17.85-4.42-17.85l-9.29,2.75c0,0,5.28,11.83,0.21,16.05
			c-1.08,0.9-2.33,1.99-3.62,3.31C448.25,156.21,454.12,155.12,459.88,155.93z"/>
		<path class="st9" d="M455.74,140.32c-0.55-0.49-1.24-1.1-1.96-1.74l-7.58,2.24c-0.01,0.01-0.01,0.03-0.02,0.04
			c0.18,0.42,2.11,4.92,2.37,9.26c2.26-1.37,4.73-3.61,7.56-7.51C455.96,141.74,455.84,140.97,455.74,140.32z"/>
		<path class="st8" d="M453.35,158.57c-9.57,3.35-8.51,13.43-17.32,28.31c-4.56,7.7-8.79,7.58-8.79,7.58s-10.69,0.09-23.63-1.5
			c-8.1-0.99-8.61,1.42-2.98,3.43c11.36,4.06,23.15,8.43,32.66,7.38c9.51-1.06,25.76-25.31,26.6-31.62
			C461.04,163.42,458.17,156.88,453.35,158.57z"/>
		<g>
			<path class="st16" d="M448.42,243.19c-0.6,0-1.2-0.01-1.83-0.02c-7.8-0.19-13.11-1.27-17.38-2.14
				c-4.98-1.01-7.73-1.57-10.92-0.04c-1.23,0.59-2.7,0.07-3.28-1.16c-0.59-1.23-0.07-2.7,1.16-3.28c4.68-2.24,8.6-1.44,14.02-0.34
				c4.08,0.83,9.15,1.86,16.52,2.04c8.25,0.21,13.27-1.02,15.82-3.84c2.27-2.52,2.93-6.75,2.09-13.31
				c-0.29-2.25-0.58-4.12-0.83-5.77c-0.72-4.65-1.19-7.73-0.61-12.48c0.55-4.41,2.01-10.29,5.39-21.68c0.39-1.3,1.76-2.04,3.06-1.66
				c1.3,0.39,2.05,1.76,1.66,3.06c-6.31,21.23-5.99,23.3-4.64,32.01c0.26,1.68,0.55,3.58,0.85,5.89c1.04,8.1-0.01,13.57-3.32,17.24
				C462.79,241.47,457.27,243.19,448.42,243.19z"/>
		</g>
		<path class="st11" d="M360.94,287.32c-10.09,4.94-15.52,7.76-18.76,7.49c-0.76-0.06-1.4-0.14-1.93-0.22
			c-3.6,2.13-9.34,4.64-2.88,5.12c7.6,0.56,11.27-2.53,16.05-3.94c4.79-1.41,10.7-2.25,8.45-5.91
			C361.45,289.15,361.13,288.29,360.94,287.32z"/>
		<path class="st11" d="M438.19,278.54c-0.25,7.99-1.34,15.91-6.23,17.4c-1.3,0.4-2.48,0.45-3.52,0.31
			c-0.77,0.95-1.71,0.96-2.97,2.36c-1.9,2.11,10.77,0.63,12.25,0c1.48-0.63,2.11-13.1,3.7-16.27
			C442.72,279.75,440.1,279.14,438.19,278.54z"/>
		<g>
			<path class="st20" d="M399.31,202.92h-32.06c-0.96,0-1.83-0.56-2.23-1.42l-12.96-27.88c-0.57-1.23-0.04-2.7,1.19-3.27
				c1.23-0.57,2.7-0.04,3.27,1.19L368.82,198h30.49c1.36,0,2.46,1.1,2.46,2.46S400.67,202.92,399.31,202.92z"/>
		</g>
		<path class="st8" d="M406.02,193.24c-6.48-0.09-12.9-3.96-16.1-3.39c-3.19,0.56-13.61,7.79-12.3,8.07c1.31,0.28,9.58-4,9.86-4.07
			c0.28-0.07,2.07,2.97,6.48,4.08c4.41,1.11,0.03-3.31,13.71,0.82C416.57,201.45,406.02,193.24,406.02,193.24z"/>
		<path class="st21" d="M458.93,148.26l0.95,7.67c0,0-8.38,0.5-12.55,2.85S437,167.9,437,167.9l5.03-8.66l0.72-5.54L458.93,148.26z"
			/>
		<path class="st21" d="M455.36,157.65c-6.23-1.17-9.11,4.41-13.14,13.52c-4.04,9.11-10.93,20.17-12.3,21.59
			c-1.37,1.43-23.1,0-23.1,0s-0.66,6.29,0,7.04c0.66,0.75,4.41,0.66,4.41,0.66s1.5,1.2,2.91,2.15c1.41,0.95,13.33,2.73,18.87,2.45
			c5.54-0.28,10.61-0.75,11.36-1.6c0.75-0.84,15.87-24.13,16.81-32.48C462.12,162.62,458.54,158.24,455.36,157.65z"/>
		<path class="st22" d="M437,119.34c-11.78,0.56-9.93,18.28-9.93,18.28s3.06,0.94,9.47-0.11c-0.49-1.9-0.28-6.76-0.28-6.76
			s0.74,3.94,1.69,6.34c1.35,0.62,2.89,0.07,5.49-0.56c1.34,5.63,5.12,8.01,7.71,8.82c2.86,0.9,5.89,1.97,9.27,0.28
			c3.38-1.69,1.52-18.97-0.27-22.44c-2.69-5.21-7.17-9.88-14.92-7.42C441.34,117.01,437,119.34,437,119.34z"/>
		<path class="st22" d="M457.48,140.38l4.81,7.03c0,0-5.34,13.33,10.18,19.37c12.15,4.73,10.72,13.07,5.23,21.45
			s3.29,15.7,3.29,15.7s1.34-9.29,13.15-11.04c16.1-2.39,20.66-24.01,8.63-34.82c-9.95-8.94-12.98-1.54-19.72-9.56
			c-6.74-8.03-19.45-2.6-19.45-2.6l-4.66-6.8L457.48,140.38z"/>
		<g>
			<path class="st22" d="M508.32,179.86c-0.07,0-0.14-0.02-0.21-0.05c-0.21-0.11-0.28-0.37-0.17-0.58
				c4.05-7.4,0.74-16.36-0.92-18.79c-0.18-0.26-0.34-0.52-0.52-0.79c-1.63-2.55-3.66-5.72-14.51-7.67
				c-2.61-0.47-4.73-2.02-6.96-3.67c-4.62-3.39-9.86-7.24-21.25-2c-0.22,0.1-0.47,0-0.57-0.21c-0.1-0.21-0.01-0.47,0.21-0.57
				c11.84-5.45,17.3-1.45,22.11,2.09c2.16,1.58,4.19,3.08,6.61,3.51c11.21,2.02,13.35,5.36,15.08,8.05
				c0.17,0.27,0.34,0.53,0.51,0.77c1.74,2.54,5.2,11.94,0.96,19.69C508.61,179.78,508.47,179.86,508.32,179.86z"/>
		</g>
		<g>
			<path class="st22" d="M454.91,147.59c-0.77,0-1.6-0.07-2.5-0.2c-4.12-0.62-9.65-2.96-10.08-16.11c-0.01-0.24,0.18-0.43,0.41-0.44
				c0.24,0,0.43,0.18,0.44,0.41c0.18,5.42,1.25,9.43,3.2,11.92c1.48,1.89,3.43,2.96,6.16,3.37c3.81,0.57,6.34-0.13,7.51-2.09
				c0.12-0.2,0.38-0.27,0.59-0.15c0.2,0.12,0.27,0.38,0.15,0.59C459.71,146.68,457.74,147.59,454.91,147.59z"/>
		</g>
	</g>
	<polygon class="st16" points="294.75,299.78 297.91,299.78 310.22,205.69 303.26,205.69 	"/>
	<polygon class="st16" points="402.11,299.78 398.95,299.78 386.64,205.69 393.6,205.69 	"/>
	<g>
		<path class="st23" d="M526.19,220.36c5.47,5,3.09,10-0.95,19.28c-4.05,9.28-4.76,43.55-4.76,43.55l3.33-0.48
			c0,0-0.48-35.22,4.05-44.74c4.52-9.52,6.43-14.28,10.47-11.19S526.19,220.36,526.19,220.36z"/>
		<path class="st24" d="M523.18,213.89c0.66-2.96,4.61-6.17,9.89-8.89c-0.78,4.37-3.3,11.51-0.7,12.98c3.51,1.98,0.34-8,1.7-13.48
			c4.96-2.42,10.92-4.4,16.41-5.38c-0.01,0.02-0.01,0.04-0.02,0.06c-3.09,7.85-7.14,10.95-5.47,12.14
			c1.25,0.9,5.34-8.18,10.73-12.83c4.05-0.22,7.47,0.33,9.49,1.94c3.13,2.48,5.23,4.68,2.08,12.22c-1.8,1.29-4.13,2.21-6.83,2.48
			c-7.14,0.71-10.47,0.95-5.47,3.33c2.45,1.17,6.55-0.07,9.88-0.82c-1.08,1.99-2.41,4.24-4.02,6.8c-1.02,1.63-2.15,3.04-3.35,4.26
			c-2.3,0.44-4.31,0.45-5.37-0.01c-3.33-1.43-11.9-5.95-14.04-4.05c-2.1,1.86,15.87,3.04,14.62,7.78
			c-8.71,5.02-18.67,2.63-20.43-1.98C529.91,224.26,521.18,222.81,523.18,213.89z"/>
		<path class="st23" d="M541.18,247.73c-9.52-7.14-19.28-0.48-24.28,7.14c-5,7.62-1.43,24.75-1.43,24.75s1.9,0,1.9-0.71
			c0-0.71-5.24-20.23,7.14-29.04c7.74-5.51,13.33-2.86,14.04-0.24c0.71,2.62-3.09,7.38-3.09,7.38L541.18,247.73z"/>
		<path class="st24" d="M519.29,233.05c9.52,0,12.61,14.76,10,23.32c-2.62,8.57-6.19,24.51-6.19,24.51l-2.38-2.38
			c0,0,9.04-22.37,6.9-32.37c-2.14-10-7.38-11.66-8.33-11.66C518.33,234.48,519.29,233.05,519.29,233.05z"/>
		<path class="st23" d="M527.27,256.45c0.67-0.89,1.5-1.62,2.51-2.11c-0.13,0.71-0.3,1.39-0.49,2.04c-1.19,3.9-2.58,9.34-3.74,14.1
			c-0.11-0.61-0.27-1.55-0.52-3c-0.06-0.34-0.11-0.71-0.14-1.11C525.81,263.2,526.7,259.75,527.27,256.45z"/>
		<path class="st24" d="M529.87,256.52c18.09-7.62,8.56-18.07,24.5-11.17c1.12,0.49,2.49,1.71,3.86,3.4
			c-1.42,0.4-3.14,0.69-5.05,0.41c-4.76-0.71-3.09,3.09,4.76,4.05c1.48,0.18,2.68,0.43,3.68,0.78c3.74,7.19,5.43,16.64-2.49,19.93
			c-1.56,0.65-3.49,1.02-5.64,1.16c-2.44-1.94,0.6-13.18-3.17-11.63c-3.62,1.49,1.13,9.63,0.48,11.69
			c-3.57-0.06-7.52-0.65-11.3-1.58c-1.49-0.84-2.64-1.96-2.99-3.44c-1.19-5,6.66-8.09,6.9-12.38c0.22-3.94-2.88,8.66-11.09,10.52
			C524.93,264.78,521.42,260.08,529.87,256.52z"/>
		<path class="st24" d="M516.99,243.05c1.9-4.05-3.09-5-2.86-1.9c0.21,2.74,0.23,9.41-2.58,11.22c-4.85-0.53-11.45-2.48-16.43-5.46
			c-0.06-0.4,0-0.82,0.21-1.24c2.14-4.28,15.95-7.85,11.66-9.28c-3.41-1.14-9.39,5.58-14.21,8.96c-2.89-2.2-4.83-4.81-4.83-7.73
			c0-3.95,4.8-8.43,11.02-10.57c2.8,0.28,5.39,1.81,9.45,4.11c5.99,3.4,4.61-2.09-1.06-5.35c4.89,0.25,9.77,2.34,13.37,7.34
			c0,0-0.34,2.13,1.92,5.44c6.16,9.01-0.95,14.26-9.45,13.92C513.67,250.12,515.67,245.85,516.99,243.05z"/>
		<path class="st23" d="M540.61,247.33c4.65,3.6,9.82,7.8,16.17,10.66c6.35,2.86,5.08,12.17,5.08,12.17s0.95-8.04-4.34-10.79
			c-5.29-2.75-8.78-6.03-12.8-6.66s-6.24-1.27-6.24-1.27s1.27-2.54,0.53-3.49C538.27,246.98,540.61,247.33,540.61,247.33z"/>
		<path class="st23" d="M563.55,205.09c-17.03,4.55-29.51,15.44-31.84,18.09c-2.33,2.64-2.33,3.39-2.33,3.39l1.8,3.39l0.85-0.42
			c0,0-1.38-2.86,2.22-6.56c6.2-6.38,13.75-11.42,18.94-13.65C558.37,207.1,563.55,205.09,563.55,205.09z"/>
		<path class="st2" d="M519.79,299.37L519.79,299.37c6.42,0,11.63-5.21,11.63-11.63v-11.7h-23.26v11.7
			C508.16,294.16,513.37,299.37,519.79,299.37z"/>
		<rect x="508.16" y="278.71" class="st1" width="23.26" height="1.64"/>
		<rect x="508.16" y="281.7" class="st1" width="23.26" height="0.96"/>
	</g>
	<g>
		<path class="st2" d="M94.48,279.01h0.98c2.43,0,4.41-1.97,4.41-4.41l0,0c0-2.43-1.97-4.41-4.41-4.41h-0.98
			c-2.43,0-4.41,1.97-4.41,4.41l0,0C90.07,277.04,92.04,279.01,94.48,279.01z"/>
		<path class="st2" d="M76.67,279.01h0.98c2.43,0,4.41-1.97,4.41-4.41l0,0c0-2.43-1.97-4.41-4.41-4.41h-0.98
			c-2.43,0-4.41,1.97-4.41,4.41l0,0C72.26,277.04,74.23,279.01,76.67,279.01z"/>
		<path class="st2" d="M58.86,279.01h0.98c2.43,0,4.41-1.97,4.41-4.41l0,0c0-2.43-1.97-4.41-4.41-4.41h-0.98
			c-2.43,0-4.41,1.97-4.41,4.41l0,0C54.45,277.04,56.42,279.01,58.86,279.01z"/>
	</g>
	<g>
		<path class="st2" d="M563.41,112.44v-0.98c0-2.43-1.97-4.41-4.41-4.41l0,0c-2.43,0-4.41,1.97-4.41,4.41v0.98
			c0,2.43,1.97,4.41,4.41,4.41h0C561.44,116.85,563.41,114.88,563.41,112.44z"/>
		<path class="st2" d="M563.41,130.25v-0.98c0-2.43-1.97-4.41-4.41-4.41l0,0c-2.43,0-4.41,1.97-4.41,4.41v0.98
			c0,2.43,1.97,4.41,4.41,4.41h0C561.44,134.66,563.41,132.69,563.41,130.25z"/>
		<path class="st2" d="M563.41,148.06v-0.98c0-2.43-1.97-4.41-4.41-4.41l0,0c-2.43,0-4.41,1.97-4.41,4.41v0.98
			c0,2.43,1.97,4.41,4.41,4.41h0C561.44,152.47,563.41,150.5,563.41,148.06z"/>
	</g>
</g>
</svg>
