<?xml version="1.0" encoding="utf-8"?>
<!-- Generator: Adobe Illustrator 23.0.5, SVG Export Plug-In . SVG Version: 6.00 Build 0)  -->
<svg version="1.0" id="Layer_1" xmlns="http://www.w3.org/2000/svg" xmlns:xlink="http://www.w3.org/1999/xlink" x="0px" y="0px"
	 viewBox="0 0 624 320" style="enable-background:new 0 0 624 320;" xml:space="preserve">
<style type="text/css">
	.st0{opacity:0.3;fill:#35B24A;}
	.st1{fill:#A2B2D6;}
	.st2{fill:#F1F2F2;}
	.st3{fill:#007048;}
	.st4{fill:#FFFFFF;}
	.st5{fill:#6B2D6E;}
	.st6{fill:#FFD121;}
	.st7{fill:#75CF33;}
	.st8{fill:#F2274D;}
	.st9{fill:#317AB0;}
	.st10{fill:#2E97CC;}
	.st11{fill:#BCD81A;}
	.st12{fill:#FFC022;}
	.st13{fill:#8A379B;}
	.st14{fill:#F44D3B;}
	.st15{fill:#00A26D;}
	.st16{fill:#231F20;}
	.st17{fill:#949AAA;}
	.st18{fill:#5A5A7A;}
	.st19{fill:#F7F7F7;}
	.st20{fill:#F95130;}
	.st21{fill:#22BAD3;}
	.st22{fill:#FF365C;}
	.st23{fill:#7A3C7D;}
	.st24{fill:none;stroke:#FFFFFF;stroke-width:3.7727;stroke-linecap:round;stroke-linejoin:round;stroke-miterlimit:10;}
	.st25{fill:#F5F5F5;}
	.st26{fill:#54BAE2;}
	.st27{fill:#F7F7F7;stroke:#FF931E;stroke-width:2.8295;stroke-miterlimit:10;}
	.st28{fill:#3F4751;}
	.st29{opacity:0.3;}
	.st30{fill:none;stroke:#BFC9D8;stroke-width:5.659;stroke-miterlimit:10;}
	.st31{fill:#72BDBA;}
	.st32{fill:#FF6464;}
	.st33{fill:#B74FB0;}
	.st34{opacity:0.6;fill:#BAB7F7;}
	.st35{opacity:0.5;fill:#FF7D55;}
	.st36{opacity:0.4;fill:#CE8FFF;}
	.st37{fill:none;stroke:#FFFFFF;stroke-width:2.3368;stroke-linecap:round;stroke-miterlimit:10;}
	.st38{fill:none;stroke:#FFFFFF;stroke-width:2.3368;stroke-linecap:round;stroke-miterlimit:10;stroke-dasharray:4.7681,7.1522;}
	.st39{fill:none;stroke:#FFFFFF;stroke-width:2.3368;stroke-linecap:round;stroke-miterlimit:10;stroke-dasharray:4.5507,6.8261;}
	.st40{fill:none;stroke:#FFFFFF;stroke-width:2.3368;stroke-linecap:round;stroke-miterlimit:10;stroke-dasharray:4.8216,7.2324;}
	.st41{fill:none;stroke:#8C83DD;stroke-width:3.1158;stroke-miterlimit:10;}
	.st42{fill:none;stroke:#FF7261;stroke-width:2.4718;stroke-miterlimit:10;}
	.st43{fill:none;stroke:#FFFFFF;stroke-width:2.4718;stroke-miterlimit:10;}
	.st44{fill:none;stroke:#3F4751;stroke-width:3.8947;stroke-miterlimit:10;}
	.st45{fill:#FFFFFF;stroke:#FF6464;stroke-width:2.3368;stroke-miterlimit:10;}
	.st46{fill:#8C83DD;}
	.st47{fill:#FFFFFF;stroke:#8C83DD;stroke-width:2.3368;stroke-miterlimit:10;}
	.st48{fill:#FABD15;}
	.st49{fill:#FFE800;}
	.st50{fill:#ED9430;}
	.st51{fill:#FEA261;}
	.st52{fill:#414042;}
	.st53{fill:#FFDB94;}
	.st54{opacity:0.5;}
	.st55{fill:#8C8C99;}
	.st56{fill:#FFBE92;}
</style>
<rect x="0" class="st0" width="624" height="320"/>
<g>
	<g>
		<g>
			<polygon class="st1" points="430.07,50.76 276.98,26.83 269.65,69.37 269.62,69.53 269.62,69.53 241.86,230.96 400.71,258.75 
				433.4,51.43 			"/>
			<g>
				
					<rect x="236.92" y="64.05" transform="matrix(0.1698 -0.9855 0.9855 0.1698 144.7944 451.3818)" class="st2" width="206.79" height="151.4"/>
				
					<rect x="341.48" y="-5.87" transform="matrix(0.1698 -0.9855 0.9855 0.1698 223.6942 405.2176)" class="st3" width="21.77" height="151.4"/>
				
					<rect x="358.75" y="2.6" transform="matrix(0.1698 -0.9855 0.9855 0.1698 251.9992 397.7907)" class="st3" width="6.72" height="93.44"/>
				<g>
					
						<rect x="355.77" y="28.82" transform="matrix(0.1698 -0.9855 0.9855 0.1698 222.8714 414.8327)" class="st4" width="3.78" height="92.61"/>
					
						<rect x="356.99" y="10.48" transform="matrix(0.1698 -0.9855 0.9855 0.1698 230.9058 410.1326)" class="st4" width="3.78" height="115.06"/>
				</g>
				
					<rect x="323.83" y="151.44" transform="matrix(0.1698 -0.9855 0.9855 0.1698 46.1664 509.0871)" class="st3" width="2.83" height="151.4"/>
				<g>
					<path class="st5" d="M324.01,125.68l0.61,29.44c5.4-0.31,10.55-1.9,15.07-4.53L324.01,125.68z"/>
					<path class="st6" d="M325.21,122.94l16.58,26.32c7-4.78,12.22-12.16,14.08-21.04L325.21,122.94z"/>
					<path class="st7" d="M356.29,125.79c2.39-17.6-9.25-34.08-26.63-37.72l-5.55,32.18L356.29,125.79z"/>
					<path class="st8" d="M321.49,123.72l-24.93,19.16c4.98,6.02,12.05,10.36,20.36,11.79c1.76,0.3,3.5,0.46,5.23,0.49
						L321.49,123.72z"/>
					<path class="st9" d="M289.26,115.49c-1.14,6.6-0.28,13.08,2.12,18.83l1.04,2.24c0.77,1.52,1.65,2.97,2.63,4.35l26.41-19.91
						l0.11-0.61l2.27-13.18l3.37-19.58C309.21,85.2,292.37,97.44,289.26,115.49z"/>
				</g>
				<g>
					
						<rect x="267.56" y="178.41" transform="matrix(0.1699 -0.9855 0.9855 0.1699 60.3414 435.9405)" class="st10" width="42.73" height="7.5"/>
					
						<rect x="284.92" y="187.5" transform="matrix(0.1699 -0.9855 0.9855 0.1699 59.7645 453.452)" class="st11" width="28.24" height="7.5"/>
					
						<rect x="299.51" y="193.38" transform="matrix(0.1699 -0.9855 0.9855 0.1699 62.7866 468.7852)" class="st12" width="20.26" height="7.5"/>
					
						<rect x="313.3" y="198.34" transform="matrix(0.1699 -0.9855 0.9855 0.1699 66.7956 483.4752)" class="st13" width="14.12" height="7.5"/>
					
						<rect x="320.51" y="195.45" transform="matrix(0.1698 -0.9855 0.9855 0.1698 79.7041 493.0193)" class="st14" width="23.93" height="7.5"/>
				</g>
				<g>
					
						<rect x="367.91" y="110.8" transform="matrix(0.1699 -0.9855 0.9855 0.1699 195.8497 459.0006)" class="st9" width="4.91" height="4.91"/>
					
						<rect x="391.74" y="101.28" transform="matrix(0.1698 -0.9855 0.9855 0.1698 210.5887 484.1809)" class="st15" width="1.88" height="31.64"/>
					
						<rect x="366.56" y="118.63" transform="matrix(0.1698 -0.9855 0.9855 0.1698 187.0253 464.1862)" class="st7" width="4.91" height="4.91"/>
					
						<rect x="380.28" y="117.63" transform="matrix(0.1698 -0.9855 0.9855 0.1698 195.0732 477.9489)" class="st15" width="1.88" height="11.12"/>
					
						<rect x="365.21" y="126.47" transform="matrix(0.1699 -0.9855 0.9855 0.1699 178.16 469.3504)" class="st6" width="4.91" height="4.91"/>
					
						<rect x="385.94" y="119.56" transform="matrix(0.1698 -0.9855 0.9855 0.1698 190.8496 491.0316)" class="st15" width="1.88" height="25.35"/>
					
						<rect x="363.86" y="134.31" transform="matrix(0.1698 -0.9855 0.9855 0.1698 169.3285 474.5327)" class="st5" width="4.91" height="4.91"/>
					
						<rect x="381.41" y="130.07" transform="matrix(0.1699 -0.9855 0.9855 0.1699 179.9082 492.6238)" class="st15" width="1.88" height="18.91"/>
					
						<rect x="362.48" y="142.32" transform="matrix(0.1699 -0.9855 0.9855 0.1699 160.2686 479.8066)" class="st8" width="4.91" height="4.91"/>
					
						<rect x="384.85" y="134.02" transform="matrix(0.1698 -0.9855 0.9855 0.1698 174.0523 503.3471)" class="st15" width="1.88" height="28.68"/>
				</g>
				<g>
					<path class="st16" d="M280.75,97.99c-0.22,1.29-1.44,2.15-2.73,1.93c-1.28-0.22-2.15-1.44-1.93-2.73
						c0.22-1.29,1.44-2.15,2.73-1.93C280.11,95.49,280.97,96.71,280.75,97.99z"/>
					<path class="st16" d="M270.21,159.15c-0.22,1.29-1.44,2.15-2.73,1.93c-1.28-0.22-2.15-1.44-1.93-2.73
						c0.22-1.29,1.44-2.15,2.73-1.93C269.57,156.65,270.43,157.87,270.21,159.15z"/>
				</g>
				<g>
					
						<rect x="373.16" y="154.26" transform="matrix(0.1699 -0.9855 0.9855 0.1699 136.6882 516.7299)" class="st3" width="3.78" height="45.95"/>
					
						<rect x="376.2" y="165.99" transform="matrix(0.1698 -0.9855 0.9855 0.1698 130.2793 525.6557)" class="st15" width="1.88" height="39.02"/>
					
						<rect x="371.87" y="167.27" transform="matrix(0.1698 -0.9855 0.9855 0.1698 122.0088 525.3228)" class="st15" width="1.88" height="45.95"/>
					
						<rect x="370.95" y="172.6" transform="matrix(0.1698 -0.9855 0.9855 0.1698 115.9942 528.8444)" class="st15" width="1.88" height="45.95"/>
					
						<rect x="370.03" y="177.93" transform="matrix(0.1699 -0.9855 0.9855 0.1699 109.9735 532.3608)" class="st15" width="1.88" height="45.95"/>
					
						<rect x="369.11" y="183.26" transform="matrix(0.1698 -0.9855 0.9855 0.1698 103.9612 535.8839)" class="st15" width="1.88" height="45.95"/>
					
						<rect x="362.38" y="193.49" transform="matrix(0.1699 -0.9855 0.9855 0.1699 94.1016 532.8374)" class="st15" width="1.88" height="34.14"/>
				</g>
				
					<rect x="314.8" y="156.19" transform="matrix(0.1698 -0.9855 0.9855 0.1698 102.9979 445.1959)" class="st17" width="1.88" height="10.55"/>
				
					<rect x="306.01" y="207.15" transform="matrix(0.1698 -0.9855 0.9855 0.1698 45.4866 478.8488)" class="st18" width="1.88" height="10.55"/>
			</g>
		</g>
		<g>
			<g>
				<polygon class="st1" points="76.42,52.72 23.98,213 248.56,280.79 292.35,117.88 				"/>
				<g>
					<g>
						
							<rect x="77.97" y="50.44" transform="matrix(0.2855 -0.9584 0.9584 0.2855 -41.7619 270.6097)" class="st19" width="165.28" height="225.74"/>
					</g>
					<g>
						
							<rect x="224.18" y="74.85" transform="matrix(0.2855 -0.9584 0.9584 0.2855 52.2744 298.6186)" class="st18" width="4.46" height="78.81"/>
						
							<rect x="228.37" y="91.3" transform="matrix(0.2855 -0.9584 0.9584 0.2855 44.3918 309.069)" class="st17" width="2.22" height="66.92"/>
						
							<rect x="220.85" y="89.78" transform="matrix(0.2855 -0.9584 0.9584 0.2855 34.7814 305.0258)" class="st17" width="2.22" height="78.81"/>
						
							<rect x="219.03" y="95.9" transform="matrix(0.2855 -0.9584 0.9584 0.2855 27.614 307.6516)" class="st17" width="2.22" height="78.8"/>
						
							<rect x="217.21" y="102.02" transform="matrix(0.2855 -0.9584 0.9584 0.2855 20.4466 310.277)" class="st17" width="2.22" height="78.81"/>
						
							<rect x="215.38" y="108.14" transform="matrix(0.2855 -0.9584 0.9584 0.2855 13.2785 312.9021)" class="st17" width="2.22" height="78.8"/>
						
							<rect x="213.47" y="114.58" transform="matrix(0.2855 -0.9584 0.9584 0.2855 5.7436 315.6626)" class="st17" width="2.22" height="78.8"/>
						
							<rect x="211.64" y="120.7" transform="matrix(0.2855 -0.9584 0.9584 0.2855 -1.4245 318.2876)" class="st17" width="2.22" height="78.8"/>
						
							<rect x="200.12" y="134.05" transform="matrix(0.2855 -0.9584 0.9584 0.2855 -12.7541 309.55)" class="st17" width="2.22" height="58.56"/>
					</g>
					<g>
						<g>
							
								<rect x="67.67" y="191.4" transform="matrix(0.2855 -0.9584 0.9584 0.2855 -135.7905 206.4681)" class="st7" width="5.79" height="5.79"/>
							
								<rect x="83.46" y="191.91" transform="matrix(0.2855 -0.9584 0.9584 0.2855 -129.7841 222.8595)" class="st17" width="2.22" height="13.12"/>
							
								<rect x="64.99" y="200.4" transform="matrix(0.2855 -0.9584 0.9584 0.2855 -146.3284 210.3169)" class="st8" width="5.8" height="5.79"/>
							
								<rect x="88.83" y="194.91" transform="matrix(0.2855 -0.9584 0.9584 0.2855 -136.8683 236.149)" class="st17" width="2.22" height="29.92"/>
						</g>
						
							<rect x="100.88" y="188.98" transform="matrix(0.2855 -0.9584 0.9584 0.2855 -114.214 237.2274)" class="st18" width="2.22" height="12.46"/>
						<g>
							
								<rect x="52.05" y="158.64" transform="matrix(0.2855 -0.9584 0.9584 0.2855 -102.2913 182.0301)" class="st11" width="37.76" height="1.97"/>
							
								<rect x="59.42" y="166.55" transform="matrix(0.2855 -0.9584 0.9584 0.2855 -110.0922 187.3938)" class="st20" width="22.42" height="1.97"/>
							
								<rect x="60.95" y="163.48" transform="matrix(0.2856 -0.9583 0.9583 0.2856 -102.6956 191.1638)" class="st11" width="31.86" height="1.97"/>
							
								<rect x="64.52" y="166.31" transform="matrix(0.2856 -0.9583 0.9583 0.2856 -104.5361 194.3441)" class="st20" width="27.14" height="1.97"/>
							
								<rect x="72.79" y="172.29" transform="matrix(0.2855 -0.9584 0.9584 0.2855 -107.729 202.0438)" class="st11" width="17.7" height="1.97"/>
							
								<rect x="73.31" y="171.02" transform="matrix(0.2854 -0.9584 0.9584 0.2854 -104.7723 203.4813)" class="st20" width="21.52" height="1.97"/>
							
								<rect x="76.91" y="170.74" transform="matrix(0.2853 -0.9584 0.9584 0.2853 -100.6209 208.5076)" class="st11" width="25.16" height="1.97"/>
							
								<rect x="85.35" y="180.09" transform="matrix(0.2854 -0.9584 0.9584 0.2854 -110.1105 214.4624)" class="st20" width="6.82" height="1.97"/>
							
								<rect x="80.74" y="168.79" transform="matrix(0.2854 -0.9584 0.9584 0.2854 -93.0697 214.7349)" class="st11" width="33.43" height="1.97"/>
							
								<rect x="81.22" y="167.47" transform="matrix(0.2855 -0.9584 0.9584 0.2855 -90.0597 216.1068)" class="st20" width="37.37" height="1.97"/>
							
								<rect x="92.45" y="177.41" transform="matrix(0.2858 -0.9583 0.9583 0.2858 -97.9042 225.4314)" class="st11" width="19.67" height="1.97"/>
							
								<rect x="88.85" y="170.62" transform="matrix(0.2855 -0.9584 0.9584 0.2855 -88.4745 224.5348)" class="st20" width="35.01" height="1.97"/>
							
								<rect x="97.41" y="176.98" transform="matrix(0.2854 -0.9584 0.9584 0.2854 -92.1049 232.4035)" class="st11" width="24.78" height="1.97"/>
							
								<rect x="99.89" y="178.35" transform="matrix(0.2856 -0.9584 0.9584 0.2856 -92.2512 234.9212)" class="st20" width="23.1" height="1.97"/>
							
								<rect x="107.71" y="183.72" transform="matrix(0.2854 -0.9584 0.9584 0.2854 -94.7173 242.3828)" class="st11" width="14.94" height="1.97"/>
							
								<rect x="110.95" y="186.1" transform="matrix(0.2858 -0.9583 0.9583 0.2858 -96.0622 245.2646)" class="st20" width="11.15" height="1.97"/>
							
								<rect x="116.88" y="188.94" transform="matrix(0.2855 -0.9584 0.9584 0.2855 -95.5587 251.6798)" class="st11" width="8.26" height="1.97"/>
							
								<rect x="112.02" y="180.46" transform="matrix(0.2855 -0.9584 0.9584 0.2855 -84.1568 249.9955)" class="st20" width="27.14" height="1.97"/>
							
								<rect x="115.94" y="180.6" transform="matrix(0.2857 -0.9583 0.9583 0.2857 -80.5257 255.121)" class="st11" width="29.89" height="1.97"/>
							
								<rect x="114.45" y="176.64" transform="matrix(0.2855 -0.9584 0.9584 0.2855 -74.3974 255.4501)" class="st20" width="39.33" height="1.97"/>
							
								<rect x="126.8" y="188.08" transform="matrix(0.2853 -0.9584 0.9584 0.2853 -83.9837 265.5096)" class="st11" width="18.49" height="1.97"/>
							
								<rect x="129.7" y="190.02" transform="matrix(0.2855 -0.9584 0.9584 0.2855 -84.7972 268.2627)" class="st20" width="15.62" height="1.97"/>
							
								<rect x="136.25" y="193.69" transform="matrix(0.2854 -0.9584 0.9584 0.2854 -85.2727 274.9768)" class="st11" width="11.01" height="1.97"/>
							
								<rect x="139.84" y="196.53" transform="matrix(0.2855 -0.9584 0.9584 0.2855 -87.148 278.1245)" class="st20" width="6.26" height="1.97"/>
						</g>
					</g>
					<g>
						<g>
							
								<rect x="89.03" y="112.83" transform="matrix(0.2855 -0.9584 0.9584 0.2855 -45.2246 170.7861)" class="st21" width="5.8" height="5.79"/>
							
								<rect x="116.43" y="104.68" transform="matrix(0.2855 -0.9584 0.9584 0.2855 -34.239 200.7787)" class="st17" width="2.22" height="37.35"/>
							
								<rect x="86.35" y="121.82" transform="matrix(0.2855 -0.9584 0.9584 0.2855 -55.762 174.6471)" class="st20" width="5.8" height="5.79"/>
							
								<rect x="102.14" y="122.33" transform="matrix(0.2855 -0.9584 0.9584 0.2855 -49.7551 191.0462)" class="st17" width="2.22" height="13.13"/>
							
								<rect x="83.67" y="130.82" transform="matrix(0.2855 -0.9584 0.9584 0.2855 -66.2989 178.5087)" class="st6" width="5.8" height="5.8"/>
							
								<rect x="107.51" y="125.32" transform="matrix(0.2855 -0.9584 0.9584 0.2855 -56.8401 204.332)" class="st17" width="2.22" height="29.92"/>
						</g>
						
							<rect x="124.42" y="109.99" transform="matrix(0.2855 -0.9584 0.9584 0.2855 -21.6921 203.3373)" class="st18" width="2.22" height="12.46"/>
					</g>
					<g>
						<g>
							
								<rect x="160.66" y="219.1" transform="matrix(0.2855 -0.9584 0.9584 0.2855 -95.8945 315.3825)" class="st5" width="5.8" height="5.79"/>
							
								<rect x="188.06" y="210.96" transform="matrix(0.2855 -0.9584 0.9584 0.2855 -84.912 345.3659)" class="st17" width="2.22" height="37.34"/>
							
								<rect x="157.98" y="228.1" transform="matrix(0.2855 -0.9584 0.9584 0.2855 -106.4345 319.2357)" class="st8" width="5.8" height="5.79"/>
							
								<rect x="173.77" y="228.61" transform="matrix(0.2855 -0.9584 0.9584 0.2855 -100.4255 335.6414)" class="st17" width="2.22" height="13.13"/>
						</g>
						
							<rect x="192.03" y="215.07" transform="matrix(0.2855 -0.9584 0.9584 0.2855 -74.0884 343.2191)" class="st18" width="2.22" height="12.46"/>
						<g>
							<g>
								<g>
									<path class="st22" d="M230.34,214.91c-0.04-0.01-0.08-0.02-0.12-0.03c-0.42-0.12-0.77-0.4-0.98-0.78s-0.26-0.82-0.14-1.25
										c0.23-0.82,1.07-1.32,1.9-1.15c0.04,0.01,0.08,0.02,0.12,0.03c0.87,0.25,1.37,1.16,1.12,2.02
										C232,214.57,231.17,215.08,230.34,214.91z"/>
									<path class="st22" d="M230.94,211.94c0.04,0.01,0.07,0.02,0.1,0.03c0.74,0.21,1.16,0.98,0.95,1.72
										c-0.2,0.7-0.91,1.12-1.61,0.98c-0.03-0.01-0.07-0.02-0.1-0.03c-0.74-0.21-1.16-0.98-0.95-1.72
										C229.53,212.22,230.23,211.8,230.94,211.94 M231.04,211.45L231.04,211.45c-0.96-0.2-1.92,0.39-2.19,1.33
										c-0.14,0.49-0.08,0.99,0.16,1.44c0.24,0.44,0.65,0.76,1.13,0.9c0.05,0.01,0.09,0.02,0.14,0.03
										c0.96,0.2,1.92-0.39,2.19-1.33c0.14-0.48,0.08-0.99-0.16-1.43c-0.24-0.44-0.65-0.76-1.13-0.9
										C231.13,211.47,231.09,211.46,231.04,211.45L231.04,211.45z"/>
								</g>
							</g>
							<g>
								<g>
									<path class="st22" d="M220.92,203.12c-0.04-0.01-0.08-0.02-0.12-0.03c-0.87-0.25-1.37-1.16-1.13-2.02
										c0.23-0.82,1.07-1.33,1.9-1.16c0.04,0.01,0.08,0.02,0.12,0.03c0.87,0.25,1.37,1.16,1.12,2.03
										C222.59,202.78,221.75,203.29,220.92,203.12z"/>
									<path class="st22" d="M221.53,200.15c0.03,0.01,0.07,0.02,0.1,0.03c0.74,0.21,1.16,0.98,0.95,1.72
										c-0.2,0.7-0.91,1.12-1.61,0.98c-0.03-0.01-0.07-0.02-0.1-0.03c-0.74-0.21-1.17-0.98-0.96-1.72
										C220.11,200.43,220.82,200.01,221.53,200.15 M221.63,199.67L221.63,199.67c-0.96-0.2-1.92,0.39-2.19,1.33
										c-0.14,0.48-0.08,0.99,0.17,1.44c0.25,0.44,0.65,0.76,1.13,0.9c0.05,0.01,0.09,0.03,0.14,0.03
										c0.96,0.2,1.92-0.39,2.19-1.33c0.14-0.48,0.08-0.99-0.16-1.43c-0.24-0.44-0.65-0.76-1.13-0.9
										C221.72,199.69,221.67,199.68,221.63,199.67L221.63,199.67z"/>
								</g>
							</g>
							<g>
								<g>
									<path class="st22" d="M203,206.79c-0.04-0.01-0.08-0.02-0.12-0.03c-0.42-0.12-0.77-0.4-0.98-0.78
										c-0.21-0.38-0.26-0.82-0.14-1.25c0.23-0.82,1.07-1.33,1.9-1.16c0.04,0.01,0.08,0.02,0.12,0.03
										c0.87,0.25,1.37,1.16,1.13,2.03C204.67,206.45,203.84,206.96,203,206.79z"/>
									<path class="st22" d="M203.61,203.82c0.03,0.01,0.07,0.02,0.1,0.03c0.74,0.21,1.16,0.98,0.95,1.72
										c-0.2,0.7-0.91,1.12-1.61,0.98c-0.03-0.01-0.07-0.02-0.1-0.03c-0.74-0.21-1.16-0.98-0.95-1.72
										C202.19,204.1,202.9,203.68,203.61,203.82 M203.71,203.33L203.71,203.33c-0.96-0.2-1.92,0.39-2.19,1.33
										c-0.29,1,0.3,2.05,1.3,2.33c0.05,0.01,0.09,0.02,0.14,0.03c0.96,0.2,1.92-0.39,2.19-1.33c0.14-0.48,0.08-0.99-0.17-1.44
										c-0.24-0.44-0.65-0.76-1.13-0.9C203.8,203.36,203.75,203.34,203.71,203.33L203.71,203.33z"/>
								</g>
							</g>
							<g>
								<g>
									<path class="st22" d="M193.91,199.8c-0.04-0.01-0.08-0.02-0.12-0.03c-0.42-0.12-0.77-0.4-0.98-0.78
										c-0.21-0.38-0.26-0.82-0.14-1.25c0.23-0.82,1.07-1.33,1.9-1.16c0.04,0.01,0.08,0.02,0.12,0.03
										c0.42,0.12,0.77,0.4,0.98,0.78c0.21,0.38,0.26,0.82,0.14,1.25C195.58,199.46,194.74,199.97,193.91,199.8z"/>
									<path class="st22" d="M194.51,196.83c0.03,0.01,0.07,0.02,0.1,0.03c0.74,0.21,1.16,0.98,0.95,1.72
										c-0.2,0.7-0.91,1.12-1.61,0.98c-0.03-0.01-0.07-0.02-0.1-0.03c-0.74-0.21-1.16-0.98-0.95-1.72
										C193.1,197.11,193.81,196.69,194.51,196.83 M194.61,196.34L194.61,196.34c-0.96-0.2-1.92,0.39-2.19,1.33
										c-0.14,0.48-0.08,0.99,0.16,1.43c0.24,0.44,0.65,0.76,1.13,0.9c0.05,0.01,0.09,0.03,0.14,0.03
										c0.96,0.2,1.92-0.39,2.19-1.33c0.14-0.48,0.08-0.99-0.16-1.43c-0.24-0.44-0.65-0.76-1.13-0.9
										C194.71,196.36,194.66,196.35,194.61,196.34L194.61,196.34z"/>
								</g>
							</g>
							<g>
								<g>
									<path class="st22" d="M185.81,206.63c-0.04-0.01-0.08-0.02-0.12-0.03c-0.87-0.25-1.37-1.16-1.13-2.03
										c0.23-0.82,1.07-1.32,1.9-1.15c0.04,0.01,0.08,0.02,0.12,0.03c0.87,0.25,1.37,1.16,1.13,2.02
										C187.47,206.29,186.64,206.8,185.81,206.63z"/>
									<path class="st22" d="M186.41,203.66c0.03,0.01,0.07,0.02,0.1,0.03c0.74,0.21,1.16,0.98,0.95,1.72
										c-0.2,0.7-0.91,1.12-1.61,0.98c-0.03-0.01-0.07-0.02-0.1-0.03c-0.74-0.21-1.17-0.98-0.95-1.72
										C185,203.94,185.71,203.52,186.41,203.66 M186.51,203.18L186.51,203.18c-0.96-0.2-1.92,0.39-2.19,1.33
										c-0.14,0.48-0.08,0.99,0.17,1.44c0.25,0.44,0.65,0.76,1.13,0.9c0.05,0.01,0.09,0.02,0.14,0.03
										c0.96,0.2,1.92-0.39,2.19-1.33c0.14-0.48,0.08-0.99-0.17-1.43c-0.24-0.44-0.65-0.76-1.13-0.9
										C186.6,203.2,186.56,203.18,186.51,203.18L186.51,203.18z"/>
								</g>
							</g>
							<g>
								<g>
									<path class="st22" d="M171.69,198.74c-0.04-0.01-0.08-0.02-0.12-0.03c-0.42-0.12-0.77-0.4-0.98-0.78
										c-0.21-0.38-0.26-0.82-0.14-1.25c0.23-0.82,1.07-1.33,1.9-1.15c0.04,0.01,0.08,0.02,0.12,0.03
										c0.42,0.12,0.77,0.4,0.98,0.78c0.21,0.38,0.26,0.83,0.14,1.25C173.36,198.41,172.52,198.91,171.69,198.74z"/>
									<path class="st22" d="M172.3,195.78c0.03,0.01,0.07,0.02,0.1,0.03c0.74,0.21,1.17,0.98,0.95,1.72
										c-0.2,0.7-0.91,1.12-1.61,0.98c-0.03-0.01-0.07-0.02-0.1-0.03c-0.74-0.21-1.16-0.98-0.95-1.72
										C170.88,196.05,171.59,195.63,172.3,195.78 M172.4,195.29L172.4,195.29c-0.96-0.2-1.92,0.39-2.19,1.33
										c-0.14,0.48-0.08,0.99,0.16,1.44c0.24,0.44,0.65,0.76,1.13,0.9c0.05,0.01,0.09,0.02,0.14,0.03
										c0.96,0.2,1.92-0.39,2.19-1.33c0.14-0.48,0.08-0.99-0.17-1.44c-0.25-0.44-0.65-0.76-1.13-0.9
										C172.49,195.31,172.44,195.3,172.4,195.29L172.4,195.29z"/>
								</g>
							</g>
							<g>
								<g>
									<g>
										<g>
											<polygon class="st23" points="159.18,196.14 179.38,174.76 187.52,190.77 203.55,181.86 208.95,192.91 222.69,181.57 
												231.31,192.94 240.87,192.82 240.88,194.24 230.61,194.37 222.45,183.62 208.46,195.16 202.93,183.84 186.91,192.73 
												179.03,177.2 160.22,197.12 											"/>
											<path class="st23" d="M222.65,181.93l8.54,11.26l9.43-0.12l0.01,0.93l-9.9,0.13l-8.24-10.87l-13.94,11.51l-5.51-11.28
												l-16.02,8.9l-7.93-15.61l-18.88,19.99l-0.67-0.64l19.78-20.95l8.09,15.93l16.03-8.9l5.43,11.1L222.65,181.93
												 M222.73,181.21l-0.4,0.33l-13.29,10.97l-5.15-10.53l-0.23-0.47l-0.46,0.26l-15.58,8.65l-7.86-15.47l-0.32-0.63
												l-0.49,0.52l-19.78,20.95l-0.34,0.36l0.36,0.34l0.67,0.64l0.36,0.34l0.34-0.36l18.39-19.48l7.61,14.98l0.23,0.46
												l0.45-0.25l15.56-8.64l5.28,10.81l0.28,0.57l0.49-0.4l13.54-11.18l7.93,10.45l0.15,0.2l0.25,0l9.9-0.13l0.5-0.01
												l-0.01-0.5l-0.01-0.93l-0.01-0.5l-0.5,0.01l-9.18,0.12l-8.39-11.06L222.73,181.21L222.73,181.21z"/>
										</g>
									</g>
								</g>
							</g>
							<g>
								<g>
									<g>
										<path class="st22" d="M157.96,206.37c-0.04-0.01-0.08-0.02-0.12-0.03c-0.42-0.12-0.77-0.4-0.98-0.78
											c-0.21-0.38-0.26-0.82-0.14-1.25c0.23-0.82,1.07-1.33,1.9-1.16c0.04,0.01,0.08,0.02,0.12,0.03
											c0.42,0.12,0.77,0.4,0.98,0.78c0.21,0.38,0.26,0.82,0.14,1.25C159.62,206.04,158.79,206.54,157.96,206.37z"/>
										<path class="st22" d="M158.56,203.41c0.03,0.01,0.07,0.02,0.1,0.03c0.74,0.21,1.16,0.98,0.95,1.72
											c-0.2,0.7-0.91,1.12-1.61,0.98c-0.03-0.01-0.07-0.02-0.1-0.03c-0.74-0.21-1.16-0.98-0.95-1.72
											C157.15,203.68,157.86,203.26,158.56,203.41 M158.66,202.92L158.66,202.92c-0.96-0.2-1.92,0.39-2.19,1.33
											c-0.29,1,0.29,2.05,1.29,2.33c0.05,0.01,0.09,0.02,0.14,0.03c0.96,0.2,1.92-0.39,2.19-1.33c0.14-0.48,0.08-0.99-0.16-1.43
											c-0.24-0.44-0.65-0.76-1.13-0.9C158.76,202.94,158.71,202.93,158.66,202.92L158.66,202.92z"/>
									</g>
								</g>
								<g>
									<g>
										<g>
											<path class="st22" d="M157.87,205.73c-0.06-0.02-0.12-0.06-0.15-0.12l-0.45-0.81c-0.07-0.12-0.02-0.27,0.09-0.34
												l14.32-8.21c0.05-0.03,0.12-0.04,0.17-0.03c0.02,0.01,0.05,0.01,0.07,0.03l14.21,7.99l8.04-6.81
												c0.06-0.05,0.14-0.07,0.21-0.05c0.04,0.01,0.08,0.03,0.11,0.05l8.54,7.26l18.51-4.31c0.04-0.01,0.07-0.01,0.11,0
												c0.06,0.01,0.11,0.05,0.15,0.1l9.21,12.45c0.08,0.11,0.06,0.27-0.05,0.35l-0.74,0.55c-0.05,0.04-0.12,0.06-0.19,0.05
												c0,0-0.01,0-0.01,0c-0.06-0.01-0.11-0.05-0.15-0.1l-8.75-11.83l-18.34,4.27c-0.04,0.01-0.07,0.01-0.11,0
												c-0.04-0.01-0.08-0.03-0.11-0.05l-8.25-7.01l-7.9,6.69c-0.06,0.05-0.14,0.07-0.21,0.05c-0.02-0.01-0.05-0.01-0.07-0.03
												l-14.33-8.06l-13.75,7.89c-0.05,0.03-0.11,0.04-0.17,0.03C157.88,205.73,157.87,205.73,157.87,205.73z"/>
											<path class="st22" d="M221.62,200.63l9.21,12.45l-0.74,0.55l-8.85-11.96l-18.5,4.31l-8.41-7.15l-8.06,6.83l-14.46-8.13
												l-13.87,7.96l-0.45-0.81l14.32-8.21l14.36,8.07l8.17-6.92l8.64,7.35L221.62,200.63 M221.72,200.14
												c-0.07-0.01-0.14-0.01-0.21,0l-18.39,4.28l-8.44-7.18c-0.07-0.06-0.14-0.09-0.22-0.11c-0.15-0.03-0.3,0.01-0.42,0.11
												l-7.91,6.7l-14.06-7.9c-0.05-0.03-0.09-0.04-0.14-0.05c-0.12-0.02-0.24-0.01-0.35,0.06l-14.32,8.21
												c-0.24,0.14-0.32,0.44-0.19,0.67l0.45,0.81c0.06,0.12,0.17,0.2,0.3,0.24c0.01,0,0.02,0.01,0.03,0.01
												c0.12,0.02,0.24,0,0.35-0.06l13.63-7.82l14.21,7.99c0.05,0.03,0.09,0.04,0.14,0.05c0.15,0.03,0.3-0.01,0.42-0.11
												l7.74-6.56l8.08,6.88c0.06,0.06,0.14,0.09,0.22,0.11c0.07,0.01,0.14,0.01,0.21,0l18.18-4.23l8.65,11.7
												c0.07,0.1,0.18,0.17,0.3,0.19c0.01,0,0.02,0,0.03,0c0.13,0.02,0.26-0.01,0.37-0.09l0.74-0.55
												c0.22-0.16,0.27-0.48,0.1-0.7l-9.21-12.45C221.94,200.23,221.83,200.16,221.72,200.14L221.72,200.14z"/>
										</g>
									</g>
								</g>
							</g>
						</g>
					</g>
				</g>
			</g>
			<g>
				<polygon class="st20" points="110.58,99.56 123.21,92.73 131,105.71 156.66,87.62 167.27,114.39 110.75,101.11 				"/>
				<polygon class="st6" points="171.22,109.53 163.11,94.55 145.21,102.91 135.75,90.46 118.67,102.15 105.52,88.9 95.05,98.29 
					167.05,119.15 				"/>
				<polyline class="st24" points="171.22,109.53 163.11,94.55 145.21,102.91 135.75,90.46 118.67,102.15 105.52,88.9 95.05,98.29 
									"/>
				<polygon class="st21" points="85.35,98.23 97.74,91.46 102.17,97.89 113.21,92.94 120.03,101.99 140.85,94.66 152.1,109.79 
					173.96,106.79 168.94,123.42 				"/>
			</g>
			<polyline class="st24" points="97.74,91.46 102.17,97.89 113.21,92.94 120.03,101.99 140.85,94.66 152.1,109.79 173.96,106.79 
							"/>
		</g>
		<g>
			<g>
				<g>
					
						<rect x="131.46" y="75.22" transform="matrix(0.9645 -0.264 0.264 0.9645 -32.6047 69.3676)" class="st1" width="220.63" height="161.54"/>
				</g>
				<g>
					
						<rect x="132.85" y="69.47" transform="matrix(0.9645 -0.264 0.264 0.9645 -31.0381 69.5315)" class="st25" width="220.63" height="161.54"/>
				</g>
				<g>
					
						<rect x="233.92" y="73.37" transform="matrix(0.9645 -0.264 0.264 0.9645 -10.2793 74.6073)" class="st3" width="77.02" height="4.36"/>
					
						<rect x="247.7" y="81.6" transform="matrix(0.9645 -0.264 0.264 0.9645 -11.8811 76.9676)" class="st15" width="65.41" height="2.17"/>
					
						<rect x="237.94" y="89.15" transform="matrix(0.9645 -0.264 0.264 0.9645 -14.0154 76.1909)" class="st15" width="77.02" height="2.17"/>
					
						<rect x="239.59" y="95.17" transform="matrix(0.9645 -0.264 0.264 0.9645 -15.5461 76.8394)" class="st15" width="77.02" height="2.17"/>
					
						<rect x="241.23" y="101.19" transform="matrix(0.9645 -0.264 0.264 0.9645 -17.0769 77.4883)" class="st15" width="77.02" height="2.17"/>
					
						<rect x="242.88" y="107.21" transform="matrix(0.9645 -0.264 0.264 0.9645 -18.6076 78.1359)" class="st15" width="77.02" height="2.17"/>
					
						<rect x="244.61" y="113.54" transform="matrix(0.9645 -0.264 0.264 0.9645 -20.217 78.8184)" class="st15" width="77.02" height="2.17"/>
					
						<rect x="246.26" y="119.56" transform="matrix(0.9645 -0.264 0.264 0.9645 -21.7479 79.4679)" class="st15" width="77.02" height="2.17"/>
					
						<rect x="248.26" y="128.19" transform="matrix(0.9645 -0.264 0.264 0.9645 -24.3069 77.6882)" class="st15" width="57.23" height="2.17"/>
				</g>
				<g>
					<g>
						
							<rect x="181.63" y="219.62" transform="matrix(0.9645 -0.264 0.264 0.9645 -52.1903 56.5999)" class="st26" width="5.66" height="5.66"/>
						
							<rect x="191.82" y="217.6" transform="matrix(0.9645 -0.264 0.264 0.9645 -50.7016 60.0961)" class="st17" width="12.83" height="2.17"/>
						
							<rect x="184.05" y="228.47" transform="matrix(0.9645 -0.264 0.264 0.9645 -54.4269 57.5341)" class="st14" width="5.66" height="5.66"/>
						
							<rect x="193.95" y="224.28" transform="matrix(0.9645 -0.264 0.264 0.9645 -52.0991 63.0631)" class="st17" width="29.24" height="2.17"/>
					</g>
					
						<rect x="204.91" y="205.9" transform="matrix(0.9645 -0.264 0.264 0.9645 -47.1616 63.0561)" class="st18" width="12.18" height="2.17"/>
					<g>
						
							<rect x="165.89" y="175.03" transform="matrix(0.9645 -0.2641 0.2641 0.9645 -45.1725 50.9312)" class="st26" width="1.92" height="36.91"/>
						
							<rect x="169.72" y="189.25" transform="matrix(0.9645 -0.2641 0.2641 0.9645 -46.8163 52.1887)" class="st14" width="1.92" height="21.91"/>
						
							<rect x="173.32" y="178.87" transform="matrix(0.9645 -0.264 0.264 0.9645 -45.1505 52.9133)" class="st26" width="1.92" height="31.14"/>
						
							<rect x="175.79" y="182.89" transform="matrix(0.9646 -0.2638 0.2638 0.9646 -45.4804 53.5684)" class="st14" width="1.92" height="26.53"/>
						
							<rect x="181.83" y="190.63" transform="matrix(0.9646 -0.2637 0.2637 0.9646 -46.081 55.2539)" class="st26" width="1.92" height="17.3"/>
						
							<rect x="183.19" y="186.46" transform="matrix(0.9644 -0.2643 0.2643 0.9644 -45.5103 55.6714)" class="st14" width="1.92" height="21.04"/>
						
							<rect x="187.54" y="181.64" transform="matrix(0.9645 -0.264 0.264 0.9645 -44.513 56.6444)" class="st26" width="1.92" height="24.59"/>
						
							<rect x="191.76" y="198.74" transform="matrix(0.9645 -0.264 0.264 0.9645 -46.5105 58.0456)" class="st14" width="1.92" height="6.67"/>
						
							<rect x="193.14" y="171.88" transform="matrix(0.9645 -0.264 0.264 0.9645 -42.8083 57.9323)" class="st26" width="1.92" height="32.68"/>
						
							<rect x="194.49" y="167.59" transform="matrix(0.9645 -0.2641 0.2641 0.9645 -42.1453 58.2196)" class="st14" width="1.92" height="36.52"/>
						
							<rect x="201.6" y="183.26" transform="matrix(0.9645 -0.2639 0.2639 0.9645 -43.7258 60.3043)" class="st26" width="1.92" height="19.22"/>
						
							<rect x="201.47" y="168.03" transform="matrix(0.9646 -0.2638 0.2638 0.9646 -41.6645 59.9512)" class="st14" width="1.92" height="34.22"/>
						
							<rect x="207.61" y="176.53" transform="matrix(0.9645 -0.2642 0.2642 0.9645 -42.4211 61.7949)" class="st26" width="1.92" height="24.22"/>
						
							<rect x="209.68" y="177.64" transform="matrix(0.9645 -0.2642 0.2642 0.9645 -42.4325 62.371)" class="st14" width="1.92" height="22.57"/>
						
							<rect x="215.55" y="184.15" transform="matrix(0.9645 -0.264 0.264 0.9645 -42.8647 63.9577)" class="st26" width="1.92" height="14.6"/>
						
							<rect x="217.9" y="187.28" transform="matrix(0.9646 -0.2639 0.2639 0.9646 -43.0978 64.579)" class="st14" width="1.92" height="10.9"/>
						
							<rect x="223.09" y="188.73" transform="matrix(0.9645 -0.2641 0.2641 0.9645 -42.9605 66.0255)" class="st7" width="1.92" height="8.07"/>
						
							<rect x="222.51" y="170.1" transform="matrix(0.9645 -0.2642 0.2642 0.9645 -40.4995 65.5441)" class="st8" width="1.92" height="26.53"/>
						
							<rect x="226.97" y="166.14" transform="matrix(0.9645 -0.2641 0.2641 0.9645 -39.6446 66.6196)" class="st7" width="1.92" height="29.22"/>
						
							<rect x="227.61" y="156.57" transform="matrix(0.9646 -0.2638 0.2638 0.9646 -38.2779 66.5261)" class="st8" width="1.92" height="38.44"/>
						
							<rect x="235.12" y="175.26" transform="matrix(0.9645 -0.2642 0.2642 0.9645 -40.2998 68.9134)" class="st7" width="1.92" height="18.07"/>
						
							<rect x="237.34" y="177.5" transform="matrix(0.9645 -0.264 0.264 0.9645 -40.4188 69.4719)" class="st8" width="1.92" height="15.27"/>
						
							<rect x="242.76" y="180.61" transform="matrix(0.9645 -0.264 0.264 0.9645 -40.4604 70.9522)" class="st7" width="1.92" height="10.76"/>
						
							<rect x="245.22" y="184.67" transform="matrix(0.9646 -0.2639 0.2639 0.9646 -40.812 71.6184)" class="st8" width="1.92" height="6.11"/>
					</g>
				</g>
				<g>
					<g>
						
							<rect x="158.77" y="143.39" transform="matrix(0.9645 -0.264 0.264 0.9645 -32.8702 47.8524)" class="st9" width="5.66" height="5.66"/>
						
							<rect x="168.54" y="138.24" transform="matrix(0.9645 -0.264 0.264 0.9645 -30.1569 54.2599)" class="st17" width="36.5" height="2.17"/>
						
							<rect x="161.19" y="152.24" transform="matrix(0.9645 -0.264 0.264 0.9645 -35.1172 48.7994)" class="st8" width="5.66" height="5.66"/>
						
							<rect x="171.38" y="150.22" transform="matrix(0.9645 -0.264 0.264 0.9645 -33.6376 52.3104)" class="st17" width="12.83" height="2.17"/>
						
							<rect x="163.61" y="161.09" transform="matrix(0.9645 -0.264 0.264 0.9645 -37.3728 49.7626)" class="st6" width="5.66" height="5.66"/>
						
							<rect x="173.51" y="156.9" transform="matrix(0.9645 -0.264 0.264 0.9645 -35.0351 55.2775)" class="st17" width="29.24" height="2.17"/>
					</g>
					
						<rect x="183.64" y="128.19" transform="matrix(0.9645 -0.264 0.264 0.9645 -27.3995 54.6794)" class="st17" width="12.18" height="2.17"/>
					<g>
						<polygon class="st8" points="168.88,123.86 177.18,113.56 188.99,118.36 204.01,92.02 220.69,107.83 169.77,124.86 						"/>
						<polygon class="st6" points="224.92,102.97 217.39,95.76 199.17,108.16 185.54,105.24 177.06,122.31 159.84,120.16 
							155.3,130.67 225.81,110.75 						"/>
						<polygon class="st9" points="147.23,135.66 153.99,123.62 161,126.64 167.57,116.81 177.92,120.77 193.43,103.48 
							207.49,106.81 225.07,96.75 229.55,113.12 						"/>
					</g>
				</g>
				<g>
					<g>
						
							<rect x="273.09" y="194.58" transform="matrix(0.9645 -0.264 0.264 0.9645 -42.3295 79.8515)" class="st5" width="5.66" height="5.66"/>
						
							<rect x="282.86" y="189.43" transform="matrix(0.9645 -0.264 0.264 0.9645 -39.6161 86.2599)" class="st17" width="36.5" height="2.17"/>
						
							<rect x="275.51" y="203.43" transform="matrix(0.9645 -0.264 0.264 0.9645 -44.5791 80.803)" class="st8" width="5.66" height="5.66"/>
						
							<rect x="285.7" y="201.41" transform="matrix(0.9645 -0.264 0.264 0.9645 -43.0986 84.3155)" class="st17" width="12.83" height="2.17"/>
					</g>
					
						<rect x="294.02" y="180.47" transform="matrix(0.9645 -0.264 0.264 0.9645 -37.286 85.6792)" class="st17" width="12.18" height="2.17"/>
					<g>
						<path class="st8" d="M329.62,155.8c0.2,0.74-0.23,1.51-0.97,1.71c-0.74,0.2-1.51-0.23-1.71-0.97
							c-0.2-0.74,0.23-1.51,0.97-1.71C328.65,154.63,329.41,155.06,329.62,155.8z"/>
						<path class="st8" d="M315.44,150.61c0.2,0.74-0.23,1.51-0.97,1.71c-0.74,0.2-1.51-0.23-1.71-0.97
							c-0.2-0.74,0.24-1.51,0.98-1.71C314.47,149.43,315.24,149.87,315.44,150.61z"/>
						<path class="st8" d="M302.01,163.05c0.2,0.74-0.23,1.51-0.97,1.71c-0.74,0.2-1.51-0.23-1.71-0.97
							c-0.2-0.74,0.23-1.51,0.97-1.71C301.05,161.88,301.81,162.31,302.01,163.05z"/>
						<path class="st8" d="M290.6,161.79c0.2,0.74-0.23,1.5-0.97,1.71c-0.74,0.2-1.5-0.23-1.71-0.97c-0.2-0.74,0.23-1.51,0.97-1.71
							C289.63,160.62,290.4,161.05,290.6,161.79z"/>
						<path class="st8" d="M287.22,171.85c0.2,0.74-0.23,1.51-0.97,1.71c-0.74,0.2-1.51-0.23-1.71-0.97
							c-0.2-0.74,0.23-1.5,0.97-1.71C286.25,170.67,287.02,171.11,287.22,171.85z"/>
						<path class="st8" d="M271.05,172.43c0.2,0.74-0.23,1.5-0.97,1.71c-0.74,0.2-1.5-0.23-1.71-0.97c-0.2-0.74,0.23-1.5,0.97-1.71
							C270.08,171.25,270.84,171.69,271.05,172.43z"/>
						<g>
							<path class="st5" d="M261.84,181.93c0.2,0.74-0.23,1.5-0.97,1.71c-0.74,0.2-1.5-0.23-1.71-0.97
								c-0.2-0.74,0.23-1.51,0.97-1.71C260.87,180.75,261.63,181.19,261.84,181.93z"/>
							<path class="st5" d="M267.5,154.56c0.2,0.74-0.23,1.51-0.97,1.71c-0.74,0.2-1.51-0.23-1.71-0.97
								c-0.2-0.74,0.23-1.51,0.97-1.71C266.53,153.39,267.3,153.82,267.5,154.56z"/>
							<path class="st5" d="M282.73,163.95c0.2,0.74-0.23,1.5-0.97,1.71c-0.74,0.2-1.51-0.23-1.71-0.97
								c-0.2-0.74,0.23-1.51,0.97-1.71C281.76,162.77,282.52,163.21,282.73,163.95z"/>
							<path class="st5" d="M291.58,147.88c0.2,0.74-0.23,1.5-0.97,1.71c-0.74,0.2-1.51-0.23-1.71-0.97
								c-0.2-0.74,0.23-1.5,0.97-1.71C290.61,146.7,291.37,147.14,291.58,147.88z"/>
							<path class="st5" d="M302.19,154.63c0.2,0.74-0.23,1.51-0.98,1.71c-0.74,0.2-1.5-0.23-1.71-0.97
								c-0.2-0.74,0.23-1.51,0.97-1.71C301.23,153.46,301.99,153.89,302.19,154.63z"/>
							<path class="st5" d="M308.63,137.72c0.2,0.74-0.23,1.51-0.97,1.71c-0.74,0.2-1.51-0.23-1.71-0.97
								c-0.2-0.74,0.23-1.51,0.97-1.71C307.66,136.55,308.43,136.98,308.63,137.72z"/>
							<path class="st5" d="M320.84,142.66c0.2,0.74-0.23,1.51-0.97,1.71c-0.74,0.2-1.51-0.23-1.71-0.97
								c-0.2-0.74,0.23-1.51,0.98-1.71C319.87,141.48,320.64,141.92,320.84,142.66z"/>
							<path class="st5" d="M329.33,137.64c0.2,0.74-0.23,1.51-0.97,1.71c-0.74,0.2-1.51-0.23-1.71-0.97
								c-0.2-0.74,0.23-1.51,0.97-1.71C328.37,136.46,329.13,136.9,329.33,137.64z"/>
							<g>
								<polygon class="st5" points="260.82,182.66 259.91,182.46 265.96,154.26 281.15,163.69 290.24,147.74 300.65,154.42 
									306.54,137.53 319.69,142.73 327.7,137.73 328.19,138.51 319.79,143.77 307.09,138.75 301.14,155.84 290.57,149.05 
									281.48,164.98 266.59,155.74 								"/>
							</g>
						</g>
						<g>
							<path class="st8" d="M263.25,186.09c0.2,0.74-0.23,1.5-0.97,1.71c-0.74,0.2-1.51-0.23-1.71-0.97
								c-0.2-0.74,0.23-1.51,0.97-1.71C262.29,184.92,263.05,185.35,263.25,186.09z"/>
							<g>
								<polygon class="st8" points="261.99,187.26 261.19,186.8 269.18,172.33 285.65,171.78 289.06,161.61 300.26,163.41 
									313.95,150.02 328.3,155.9 327.95,156.75 314.16,151.11 300.57,164.4 289.67,162.65 286.32,172.68 269.73,173.24 								
									"/>
							</g>
						</g>
					</g>
				</g>
			</g>
			<path class="st27" d="M251.13,107.61c-0.06,0.77-0.73,1.34-1.49,1.28c-0.76-0.06-1.34-0.73-1.28-1.49
				c0.06-0.76,0.73-1.34,1.49-1.28C250.61,106.18,251.19,106.85,251.13,107.61z"/>
			<path class="st27" d="M265.67,83.78c-0.06,0.77-0.73,1.34-1.49,1.28c-0.76-0.06-1.34-0.73-1.28-1.49
				c0.06-0.76,0.73-1.34,1.49-1.28C265.15,82.34,265.73,83.01,265.67,83.78z"/>
			<path class="st27" d="M276.83,97.73c-0.06,0.77-0.72,1.34-1.49,1.28c-0.76-0.06-1.34-0.72-1.28-1.49
				c0.06-0.76,0.73-1.34,1.49-1.28C276.32,96.3,276.89,96.96,276.83,97.73z"/>
			<path class="st27" d="M290.57,85.59c-0.06,0.77-0.73,1.34-1.49,1.28c-0.77-0.06-1.34-0.73-1.28-1.49
				c0.06-0.76,0.73-1.34,1.49-1.28C290.05,84.16,290.63,84.83,290.57,85.59z"/>
			<path class="st27" d="M298.28,95.52c-0.06,0.76-0.73,1.34-1.49,1.28c-0.76-0.06-1.34-0.73-1.28-1.49
				c0.06-0.76,0.73-1.34,1.49-1.28C297.76,94.09,298.34,94.75,298.28,95.52z"/>
			<path class="st27" d="M310.03,81.78c-0.06,0.77-0.73,1.34-1.49,1.28c-0.77-0.06-1.34-0.73-1.28-1.49
				c0.06-0.76,0.73-1.34,1.49-1.28C309.51,80.35,310.09,81.02,310.03,81.78z"/>
			<path class="st27" d="M319.85,90.53c-0.06,0.76-0.73,1.34-1.49,1.28c-0.77-0.06-1.34-0.73-1.28-1.49
				c0.06-0.76,0.73-1.34,1.49-1.28C319.34,89.1,319.91,89.77,319.85,90.53z"/>
			<path class="st27" d="M329.53,88.67c-0.06,0.76-0.73,1.34-1.49,1.28c-0.76-0.06-1.34-0.73-1.28-1.49
				c0.06-0.76,0.73-1.34,1.49-1.28C329.02,87.23,329.59,87.9,329.53,88.67z"/>
		</g>
	</g>
	<g>
		<g>
			<path class="st1" d="M568.52,259.35l-17.91-126.76c-0.55-3.87-4.12-6.56-7.99-6.01l-195.29,27.59c-3.87,0.55-6.56,4.12-6.01,7.99
				l17.91,126.76c0.55,3.87,4.12,6.56,7.99,6.01l195.29-27.59C566.37,266.8,569.07,263.22,568.52,259.35z"/>
			<g>
				<g>
					<g>
						<path class="st28" d="M574.12,255.03c0.51,3.91-2.24,7.5-6.16,8.02l-197.75,26c-3.92,0.51-7.51-2.24-8.02-6.16l-16.87-128.36
							c-0.51-3.91,2.24-7.51,6.16-8.02l197.75-26c3.92-0.51,7.51,2.24,8.02,6.16L574.12,255.03z"/>
						<g class="st29">
							<path class="st16" d="M550.16,122.93c2.33,0,4.32,1.75,4.63,4.07l16.87,128.36c0.16,1.24-0.17,2.47-0.93,3.46
								c-0.76,0.99-1.86,1.63-3.1,1.79l-197.75,26c-0.2,0.03-0.41,0.04-0.62,0.04c-2.33,0-4.32-1.75-4.63-4.07l-16.87-128.36
								c-0.34-2.56,1.47-4.91,4.03-5.25l197.74-26C549.75,122.94,549.96,122.93,550.16,122.93 M550.16,121.16
								c-0.28,0-0.57,0.02-0.85,0.06l-197.74,26c-3.52,0.46-6.01,3.71-5.55,7.23l16.87,128.36c0.42,3.19,3.16,5.6,6.38,5.6
								c0.28,0,0.57-0.02,0.85-0.06l197.75-26c1.71-0.22,3.22-1.1,4.27-2.46c1.05-1.36,1.5-3.06,1.28-4.76l-16.87-128.36
								C556.12,123.57,553.38,121.16,550.16,121.16L550.16,121.16z"/>
						</g>
						<path class="st30" d="M574.12,255.03c0.51,3.91-2.24,7.5-6.16,8.02l-197.75,26c-3.92,0.51-7.51-2.24-8.02-6.16l-16.87-128.36
							c-0.51-3.91,2.24-7.51,6.16-8.02l197.75-26c3.92-0.51,7.51,2.24,8.02,6.16L574.12,255.03z"/>
					</g>
				</g>
				<g>
					<g class="st29">
						<polygon class="st4" points="444.38,281.06 388.5,287.92 420.75,136.26 476.63,129.4 						"/>
					</g>
				</g>
				<path class="st28" d="M453.16,141.57c0.12,0.95-0.54,1.82-1.49,1.95c-0.95,0.12-1.82-0.54-1.95-1.49
					c-0.12-0.95,0.54-1.82,1.49-1.94C452.16,139.95,453.03,140.62,453.16,141.57z"/>
				<g>
					<g>
						
							<rect x="370.95" y="148.98" transform="matrix(0.9915 -0.1303 0.1303 0.9915 -22.7489 61.6628)" class="st4" width="177.49" height="111.29"/>
					</g>
				</g>
			</g>
			<g>
				<g>
					<g>
						<path class="st31" d="M523.27,195.15c-0.08,0-0.16-0.02-0.23-0.05c-0.13-0.06-0.23-0.18-0.27-0.31l-4.8-14.66
							c-0.07-0.23,0.01-0.47,0.21-0.61c0.09-0.06,0.19-0.09,0.29-0.09c0.12,0,0.25,0.04,0.35,0.13l11.66,10.09
							c0.11,0.09,0.17,0.23,0.18,0.37c0.01,0.14-0.04,0.28-0.14,0.39c-1.95,2.1-4.4,3.73-7.07,4.71
							C523.39,195.14,523.33,195.15,523.27,195.15z"/>
						<path class="st4" d="M518.47,179.96l11.66,10.09c-1.87,2.01-4.2,3.59-6.87,4.57L518.47,179.96 M518.47,178.9
							c-0.2,0-0.41,0.06-0.59,0.18c-0.4,0.26-0.57,0.76-0.42,1.21l4.8,14.66c0.09,0.27,0.29,0.5,0.55,0.62
							c0.15,0.07,0.3,0.11,0.46,0.11c0.12,0,0.25-0.02,0.37-0.06c2.75-1.01,5.27-2.69,7.28-4.84c0.2-0.21,0.3-0.49,0.28-0.78
							c-0.02-0.29-0.15-0.56-0.36-0.74l-11.66-10.09C518.96,178.99,518.72,178.9,518.47,178.9L518.47,178.9z"/>
					</g>
				</g>
				<g>
					<g>
						<path class="st6" d="M530.98,189.6c-0.13,0-0.25-0.05-0.35-0.13l-12.33-10.67c-0.16-0.14-0.22-0.35-0.16-0.55
							c0.06-0.2,0.23-0.35,0.44-0.37l16.17-2.03c0.02,0,0.04,0,0.07,0c0.12,0,0.24,0.04,0.33,0.12c0.11,0.09,0.18,0.22,0.2,0.37
							c0.42,4.72-0.99,9.37-3.96,13.07c-0.09,0.11-0.22,0.18-0.37,0.2C531.01,189.6,530.99,189.6,530.98,189.6z"/>
						<path class="st4" d="M534.82,176.38c0.42,4.74-1.07,9.23-3.85,12.69l-12.33-10.67L534.82,176.38 M534.82,175.32
							c-0.04,0-0.09,0-0.13,0.01l-16.17,2.03c-0.42,0.05-0.76,0.34-0.88,0.74s0,0.84,0.32,1.11l12.33,10.67
							c0.19,0.17,0.44,0.26,0.69,0.26c0.03,0,0.06,0,0.1,0c0.29-0.03,0.55-0.17,0.73-0.39c3.06-3.81,4.51-8.59,4.08-13.45
							c-0.03-0.29-0.17-0.55-0.39-0.73C535.3,175.4,535.07,175.32,534.82,175.32L534.82,175.32z"/>
					</g>
				</g>
				<g>
					<g>
						<path class="st32" d="M517.69,177.75c-0.12,0-0.23-0.04-0.33-0.11c-0.11-0.09-0.18-0.21-0.2-0.35l-2.13-16.98
							c-0.02-0.14,0.02-0.29,0.11-0.4c0.09-0.11,0.22-0.18,0.37-0.2c0.54-0.05,1.09-0.07,1.64-0.07c9.01,0,16.6,6.46,18.04,15.36
							c0.02,0.14-0.01,0.29-0.1,0.4c-0.09,0.12-0.22,0.19-0.36,0.21l-16.98,2.13C517.73,177.75,517.71,177.75,517.69,177.75z"/>
						<path class="st4" d="M517.15,160.17c8.62,0,16.11,6.26,17.51,14.92l-16.98,2.13l-2.13-16.98
							C516.09,160.2,516.62,160.17,517.15,160.17 M517.15,159.11c-0.56,0-1.13,0.03-1.68,0.08c-0.29,0.03-0.55,0.17-0.73,0.39
							c-0.18,0.22-0.26,0.51-0.23,0.8l2.13,16.98c0.04,0.28,0.18,0.53,0.4,0.71c0.19,0.15,0.42,0.22,0.65,0.22
							c0.04,0,0.09,0,0.13-0.01l16.98-2.13c0.29-0.04,0.54-0.19,0.72-0.42c0.17-0.23,0.24-0.52,0.2-0.8
							c-0.72-4.42-2.99-8.45-6.41-11.34C525.9,160.7,521.58,159.11,517.15,159.11L517.15,159.11z"/>
					</g>
				</g>
				<g>
					<g>
						<path class="st1" d="M517.1,196.25c-3.58,0-7.06-1.05-10.06-3.03c-0.12-0.08-0.2-0.2-0.23-0.35c-0.03-0.14,0.01-0.29,0.09-0.4
							l9.57-13.41c0.1-0.14,0.26-0.22,0.43-0.22c0.03,0,0.05,0,0.08,0.01c0.2,0.03,0.36,0.17,0.42,0.36l5.13,15.66
							c0.04,0.14,0.03,0.29-0.04,0.41c-0.07,0.13-0.18,0.22-0.32,0.26c-0.9,0.26-1.84,0.45-2.78,0.57
							C518.64,196.2,517.87,196.25,517.1,196.25L517.1,196.25z"/>
						<path class="st4" d="M516.91,179.36l5.13,15.66c-0.87,0.25-1.77,0.43-2.7,0.55c-0.75,0.09-1.5,0.14-2.23,0.14
							c-3.57,0-6.94-1.07-9.77-2.94L516.91,179.36 M516.91,178.3c-0.34,0-0.66,0.16-0.86,0.44l-9.57,13.41
							c-0.17,0.23-0.23,0.53-0.18,0.81c0.05,0.28,0.22,0.53,0.46,0.69c3.09,2.04,6.67,3.12,10.35,3.12c0.79,0,1.58-0.05,2.37-0.15
							c0.97-0.12,1.93-0.32,2.86-0.58c0.28-0.08,0.51-0.27,0.64-0.52c0.14-0.25,0.16-0.55,0.07-0.83l-5.13-15.66
							c-0.12-0.38-0.45-0.66-0.85-0.72C517.01,178.31,516.96,178.3,516.91,178.3L516.91,178.3z"/>
					</g>
				</g>
				<g>
					<g>
						<path class="st33" d="M506.28,192.55c-0.12,0-0.23-0.04-0.32-0.11c-0.73-0.56-1.42-1.18-2.04-1.83l-0.87-0.98
							c-2.23-2.69-3.63-5.94-4.07-9.4c-1.23-9.82,5.45-18.76,15.22-20.34c0.03,0,0.06-0.01,0.08-0.01c0.11,0,0.23,0.04,0.32,0.11
							c0.12,0.09,0.19,0.22,0.21,0.36l2.21,17.6c0.02,0.13-0.02,0.27-0.1,0.38l-10.2,14.01c-0.08,0.12-0.21,0.19-0.35,0.21
							C506.33,192.55,506.3,192.55,506.28,192.55z"/>
						<path class="st4" d="M514.27,160.41l1.29,10.33l0.87,6.95l0.04,0.32l-10.2,14.01c-0.7-0.54-1.37-1.14-1.99-1.78l-0.86-0.97
							c-2.09-2.51-3.5-5.63-3.94-9.12C498.3,170.63,504.88,161.93,514.27,160.41 M514.27,159.35c-0.06,0-0.11,0-0.17,0.01
							c-4.82,0.78-9.1,3.37-12.04,7.29c-2.95,3.93-4.23,8.77-3.62,13.64c0.45,3.57,1.89,6.91,4.17,9.66
							c0.01,0.01,0.02,0.02,0.02,0.03l0.86,0.97c0.01,0.01,0.02,0.02,0.03,0.03c0.65,0.67,1.35,1.31,2.1,1.89
							c0.19,0.14,0.41,0.22,0.65,0.22c0.05,0,0.1,0,0.15-0.01c0.28-0.04,0.54-0.19,0.71-0.43l10.2-14.01
							c0.16-0.22,0.23-0.49,0.19-0.76l-0.04-0.32l-0.87-6.95l-1.29-10.33c-0.04-0.29-0.19-0.54-0.42-0.72
							C514.73,159.42,514.5,159.35,514.27,159.35L514.27,159.35z"/>
					</g>
				</g>
			</g>
			<g>
				<g>
					<g>
						<g>
							
								<rect x="504.98" y="208.55" transform="matrix(0.9914 -0.1312 0.1312 0.9914 -23.3231 68.43)" class="st31" width="5.31" height="5.31"/>
							<path class="st4" d="M509.31,209.02l0.51,3.86l-3.86,0.51l-0.51-3.86L509.31,209.02 M510.53,207.43l-1.4,0.19l-3.86,0.51
								l-1.4,0.19l0.19,1.4l0.51,3.86l0.19,1.4l1.4-0.19l3.86-0.51l1.4-0.19l-0.19-1.4l-0.51-3.86L510.53,207.43L510.53,207.43z"/>
						</g>
					</g>
					
						<rect x="512.89" y="208.11" transform="matrix(0.9914 -0.1312 0.1312 0.9914 -22.8577 70.738)" class="st15" width="25.11" height="1.49"/>
					<g>
						<g>
							
								<rect x="505.81" y="214.81" transform="matrix(0.9914 -0.1311 0.1311 0.9914 -24.1266 68.5555)" class="st32" width="5.31" height="5.31"/>
							<path class="st4" d="M510.14,215.28l0.51,3.86l-3.86,0.51l-0.51-3.86L510.14,215.28 M511.36,213.69l-1.4,0.19l-3.86,0.51
								l-1.4,0.19l0.19,1.4l0.51,3.86l0.19,1.4l1.4-0.19l3.86-0.51l1.4-0.19l-0.19-1.4l-0.51-3.86L511.36,213.69L511.36,213.69z"/>
						</g>
					</g>
					
						<rect x="513.79" y="215.43" transform="matrix(0.9914 -0.1312 0.1312 0.9914 -23.8814 69.8509)" class="st15" width="8.83" height="1.49"/>
					<g>
						<g>
							
								<rect x="506.64" y="221.07" transform="matrix(0.9914 -0.1312 0.1312 0.9914 -24.9515 68.7575)" class="st6" width="5.31" height="5.31"/>
							<path class="st4" d="M510.97,221.54l0.51,3.86l-3.86,0.51l-0.51-3.86L510.97,221.54 M512.19,219.95l-1.4,0.19l-3.86,0.51
								l-1.4,0.19l0.19,1.4l0.51,3.86l0.19,1.4l1.4-0.19l3.86-0.51l1.4-0.19l-0.19-1.4l-0.51-3.86L512.19,219.95L512.19,219.95z"/>
						</g>
					</g>
					
						<rect x="514.57" y="220.95" transform="matrix(0.9914 -0.1312 0.1312 0.9914 -24.5495 70.741)" class="st15" width="20.12" height="1.49"/>
					<g>
						<g>
							
								<rect x="507.41" y="227.52" transform="matrix(0.9914 -0.1312 0.1312 0.9914 -25.7911 68.9128)" class="st33" width="5.31" height="5.31"/>
							<path class="st4" d="M511.74,227.99l0.51,3.86l-3.86,0.51l-0.51-3.86L511.74,227.99 M512.96,226.4l-1.4,0.19l-3.86,0.51
								l-1.4,0.19l0.19,1.4l0.51,3.86l0.19,1.4l1.4-0.19l3.86-0.51l1.4-0.19l-0.19-1.4l-0.51-3.86L512.96,226.4L512.96,226.4z"/>
						</g>
					</g>
					
						<rect x="515.34" y="227.4" transform="matrix(0.9914 -0.1312 0.1312 0.9914 -25.3898 70.8992)" class="st15" width="20.12" height="1.49"/>
				</g>
			</g>
			<g>
				<path class="st34" d="M387.75,228.85c16.85-2.2,7.25-41.67,31.5-43.63c26.4-2.14,21.24,50.78,64.88,45.08
					c2.76-0.36,5.36-0.79,7.8-1.28l0.69,6.24l-101.86,13.61L387.75,228.85z"/>
				<path class="st35" d="M385.69,213.74c11.29-1.47,18.79,5.48,23.37,9.92c7.08,6.86,20.24,8.49,27.54-3.22
					c11.68-18.75,25.5-18.89,38.09-8.12c4.98,4.26,10.51,6.25,15.74,5.63l1.78,16.79l-101.91,13.42L385.69,213.74z"/>
				<path class="st36" d="M491.45,228.32c-2.45,0.49-5.04,0.92-7.8,1.28c-20.98,2.74-30.68-8.07-38.03-19.79
					c-3.11,2.48-6.13,5.98-9.02,10.62c-7.3,11.71-20.47,10.08-27.54,3.22c-2.69-2.61-6.39-6.07-11.26-8.2
					c-1.96,6.52-4.56,11.72-10.19,12.64l2.68,20.07l101.81-13.32L491.45,228.32z"/>
				<path class="st6" d="M449.85,240.27l-4.12-30.3c-5.51-8.76-9.69-18.06-16.25-22.63l6.96,54.71L449.85,240.27z"/>
				<g>
					<g>
						<g>
							<line class="st37" x1="445.73" y1="209.97" x2="445.85" y2="210.84"/>
							<line class="st38" x1="446.19" y1="213.5" x2="449.49" y2="238.74"/>
							<line class="st37" x1="449.66" y1="240.07" x2="449.77" y2="240.94"/>
						</g>
					</g>
				</g>
				<g>
					<g>
						<g>
							<line class="st37" x1="462.82" y1="204.8" x2="462.93" y2="205.67"/>
							<line class="st39" x1="463.26" y1="208.2" x2="466.95" y2="236.52"/>
							<line class="st37" x1="467.12" y1="237.79" x2="467.23" y2="238.66"/>
						</g>
					</g>
				</g>
				<g>
					<g>
						<g>
							<line class="st37" x1="429.51" y1="188.25" x2="429.62" y2="189.11"/>
							<line class="st40" x1="429.97" y1="191.8" x2="436.22" y2="239.72"/>
							<line class="st37" x1="436.4" y1="241.06" x2="436.51" y2="241.93"/>
						</g>
					</g>
				</g>
				<g>
					<g>
						<g>
							<line class="st37" x1="397.98" y1="216.2" x2="398.09" y2="217.07"/>
							<line class="st38" x1="398.44" y1="219.73" x2="401.73" y2="244.97"/>
							<line class="st37" x1="401.91" y1="246.3" x2="402.02" y2="247.17"/>
						</g>
					</g>
				</g>
				<path class="st41" d="M465.88,228.21c4.86,1.69,10.67,2.31,17.77,1.39c2.76-0.36,5.36-0.79,7.8-1.28"/>
				<path class="st41" d="M387.28,228.15c16.85-2.2,7.25-41.67,31.5-43.63c22.11-1.79,22.08,35.01,47.1,43.7"/>
				<path class="st42" d="M445.65,209.79c9.42-7.5,19.57-5.56,29.04,2.53c4.98,4.26,10.51,6.25,15.74,5.63"/>
				<path class="st43" d="M434.04,223.77c0.91-0.96,1.77-2.07,2.56-3.34c2.9-4.66,5.94-8.17,9.05-10.65"/>
				<path class="st42" d="M385.69,213.74c11.29-1.47,18.79,5.48,23.37,9.92c6.31,6.12,17.47,8.08,24.99,0.12"/>
				<g>
					<g>
						<g>
							<polyline class="st44" points="381.77,182.79 390.29,248.16 492.99,234.77 							"/>
							<g>
								<polygon class="st28" points="381.23,178.71 379.63,184.77 381.81,183.1 384.34,184.16 								"/>
							</g>
							<g>
								<polygon class="st28" points="497.08,234.23 491.63,237.34 492.69,234.81 491.01,232.63 								"/>
							</g>
						</g>
					</g>
				</g>
				<path class="st45" d="M396.36,215.63c-0.11-0.84,0.48-1.61,1.32-1.72c0.84-0.11,1.61,0.48,1.72,1.32
					c0.11,0.84-0.48,1.61-1.32,1.72C397.24,217.06,396.47,216.47,396.36,215.63z"/>
				<path class="st45" d="M384.38,214.05c-0.11-0.84,0.48-1.61,1.32-1.72c0.84-0.11,1.61,0.48,1.72,1.32
					c0.11,0.84-0.48,1.61-1.32,1.72C385.26,215.48,384.49,214.89,384.38,214.05z"/>
				<path class="st45" d="M444.21,210.17c-0.11-0.84,0.48-1.61,1.32-1.72c0.84-0.11,1.61,0.48,1.72,1.32
					c0.11,0.84-0.48,1.61-1.32,1.72C445.09,211.6,444.32,211.01,444.21,210.17z"/>
				<path class="st46" d="M427.93,187.39c-0.11-0.84,0.48-1.61,1.32-1.72c0.84-0.11,1.61,0.48,1.72,1.32
					c0.11,0.84-0.48,1.61-1.32,1.72C428.81,188.82,428.04,188.23,427.93,187.39z"/>
				<path class="st32" d="M461.55,205.85c-0.11-0.84,0.48-1.61,1.32-1.72c0.84-0.11,1.61,0.48,1.72,1.32
					c0.11,0.84-0.48,1.61-1.32,1.72C462.43,207.28,461.66,206.69,461.55,205.85z"/>
				<path class="st46" d="M400.62,200.16c-0.11-0.84,0.48-1.61,1.32-1.72c0.84-0.11,1.61,0.48,1.72,1.32
					c0.11,0.84-0.48,1.61-1.32,1.72C401.5,201.59,400.73,201,400.62,200.16z"/>
				<path class="st28" d="M400.53,246.87c-0.11-0.84,0.48-1.61,1.32-1.72c0.84-0.11,1.61,0.48,1.72,1.32
					c0.11,0.84-0.48,1.61-1.32,1.72C401.41,248.3,400.64,247.71,400.53,246.87z"/>
				<path class="st28" d="M448.29,240.64c-0.11-0.84,0.48-1.61,1.32-1.72c0.84-0.11,1.61,0.48,1.72,1.32
					c0.11,0.84-0.48,1.61-1.32,1.72C449.16,242.07,448.4,241.48,448.29,240.64z"/>
				<path class="st28" d="M465.84,238.35c-0.11-0.84,0.48-1.61,1.32-1.72c0.84-0.11,1.61,0.48,1.72,1.32s-0.48,1.61-1.32,1.72
					C466.72,239.78,465.95,239.19,465.84,238.35z"/>
				<path class="st28" d="M435.12,242.36c-0.11-0.84,0.48-1.61,1.32-1.72c0.84-0.11,1.61,0.48,1.72,1.32
					c0.11,0.84-0.48,1.61-1.32,1.72C436,243.79,435.23,243.2,435.12,242.36z"/>
				<path class="st47" d="M386.33,228.22c-0.11-0.84,0.48-1.61,1.32-1.72c0.84-0.11,1.61,0.48,1.72,1.32
					c0.11,0.84-0.48,1.61-1.32,1.72C387.21,229.65,386.44,229.06,386.33,228.22z"/>
				<g>
					<polygon class="st46" points="430.77,178.07 431.3,184.13 437.25,183.6 435.48,180.26 					"/>
					<g>
						<g>
							<path class="st4" d="M436.55,183.12c-2.62,0-4.86-1.96-5.2-4.57c-0.37-2.87,1.66-5.51,4.53-5.88
								c0.23-0.03,0.46-0.04,0.68-0.04c2.62,0,4.86,1.96,5.2,4.57c0.37,2.87-1.66,5.51-4.53,5.88
								C437.01,183.11,436.78,183.12,436.55,183.12z"/>
							<g>
								<path class="st46" d="M436.56,173.15c2.34,0,4.37,1.73,4.68,4.11c0.34,2.59-1.49,4.96-4.07,5.3
									c-0.21,0.03-0.41,0.04-0.62,0.04c-2.34,0-4.37-1.73-4.68-4.11c-0.34-2.59,1.49-4.96,4.07-5.3
									C436.15,173.16,436.36,173.15,436.56,173.15 M436.56,172.1L436.56,172.1c-0.25,0-0.5,0.02-0.75,0.05
									c-1.53,0.2-2.89,0.98-3.83,2.2c-0.94,1.22-1.35,2.74-1.15,4.27c0.37,2.87,2.83,5.03,5.72,5.03c0.25,0,0.5-0.02,0.75-0.05
									c3.16-0.41,5.39-3.31,4.98-6.47C441.91,174.26,439.45,172.1,436.56,172.1L436.56,172.1z"/>
							</g>
						</g>
					</g>
				</g>
				<g>
					<polygon class="st32" points="464.34,197.39 464.87,203.44 470.82,202.92 469.05,199.58 					"/>
					<g>
						<g>
							<path class="st4" d="M470.12,202.44c-2.62,0-4.86-1.96-5.2-4.57c-0.18-1.39,0.19-2.77,1.04-3.88c0.85-1.11,2.09-1.82,3.48-2
								c0.23-0.03,0.46-0.04,0.68-0.04c2.62,0,4.86,1.96,5.2,4.57c0.18,1.39-0.19,2.77-1.04,3.88c-0.85,1.11-2.09,1.82-3.48,2
								C470.58,202.42,470.35,202.44,470.12,202.44z"/>
							<g>
								<path class="st32" d="M470.13,192.46c2.34,0,4.37,1.73,4.68,4.11c0.34,2.59-1.49,4.96-4.07,5.29
									c-0.21,0.03-0.41,0.04-0.62,0.04c-2.34,0-4.37-1.73-4.68-4.11c-0.34-2.59,1.49-4.96,4.07-5.3
									C469.72,192.48,469.93,192.46,470.13,192.46 M470.13,191.41L470.13,191.41c-0.25,0-0.5,0.02-0.75,0.05
									c-3.16,0.41-5.39,3.31-4.98,6.47c0.37,2.87,2.83,5.03,5.72,5.03c0.25,0,0.5-0.02,0.75-0.05c1.53-0.2,2.89-0.98,3.83-2.2
									c0.94-1.22,1.35-2.74,1.15-4.27C475.48,193.57,473.02,191.41,470.13,191.41L470.13,191.41z"/>
							</g>
						</g>
					</g>
				</g>
				<g>
					<path class="st46" d="M434.63,177.68c-0.22-0.15-0.35-0.36-0.39-0.62c-0.02-0.13-0.01-0.25,0.03-0.37
						c0.04-0.12,0.1-0.23,0.18-0.32c0.08-0.1,0.19-0.18,0.31-0.24c0.12-0.06,0.26-0.11,0.41-0.13c0.15-0.02,0.29-0.01,0.43,0.02
						c0.14,0.03,0.26,0.08,0.36,0.15c0.1,0.07,0.19,0.16,0.26,0.27c0.07,0.11,0.11,0.22,0.13,0.35c0.03,0.26-0.04,0.49-0.22,0.7
						c0.32,0.15,0.5,0.41,0.55,0.77c0.02,0.15,0.01,0.29-0.03,0.43c-0.04,0.14-0.11,0.26-0.2,0.37c-0.09,0.11-0.21,0.2-0.35,0.28
						c-0.14,0.07-0.3,0.12-0.48,0.15c-0.18,0.02-0.35,0.02-0.5-0.02c-0.15-0.04-0.29-0.1-0.41-0.18c-0.12-0.08-0.21-0.19-0.29-0.31
						c-0.07-0.12-0.12-0.26-0.14-0.41c-0.02-0.18-0.01-0.34,0.05-0.49C434.39,177.92,434.49,177.79,434.63,177.68z M434.97,177.04
						c0.01,0.05,0.02,0.09,0.05,0.13c0.02,0.04,0.05,0.07,0.09,0.1c0.04,0.03,0.07,0.05,0.12,0.06c0.04,0.01,0.09,0.02,0.13,0.01
						c0.1-0.01,0.17-0.06,0.23-0.13c0.06-0.08,0.08-0.16,0.07-0.26c-0.01-0.1-0.06-0.18-0.13-0.24c-0.08-0.06-0.16-0.08-0.26-0.07
						c-0.09,0.01-0.17,0.06-0.23,0.13C434.98,176.85,434.95,176.94,434.97,177.04z M435.03,178.39c0.01,0.06,0.03,0.13,0.06,0.18
						c0.03,0.06,0.07,0.1,0.12,0.14c0.05,0.04,0.1,0.06,0.15,0.08c0.06,0.02,0.11,0.02,0.18,0.01c0.06-0.01,0.11-0.03,0.16-0.06
						c0.05-0.03,0.09-0.07,0.13-0.12c0.04-0.05,0.06-0.1,0.08-0.16c0.02-0.06,0.02-0.12,0.01-0.19c-0.02-0.14-0.08-0.24-0.17-0.32
						c-0.1-0.08-0.21-0.11-0.33-0.1c-0.06,0.01-0.12,0.03-0.17,0.06c-0.05,0.03-0.09,0.07-0.13,0.12c-0.04,0.05-0.06,0.1-0.08,0.16
						C435.03,178.26,435.03,178.33,435.03,178.39z"/>
					<path class="st46" d="M437.63,179.12c-0.3,0.04-0.46-0.06-0.49-0.29c-0.01-0.09,0.03-0.21,0.12-0.34
						c0.09-0.14,0.22-0.32,0.37-0.55c0.23-0.33,0.4-0.6,0.52-0.81c0.12-0.21,0.17-0.38,0.15-0.51c-0.01-0.1-0.05-0.17-0.11-0.22
						c-0.06-0.05-0.13-0.07-0.21-0.06c-0.07,0.01-0.13,0.05-0.19,0.11c-0.05,0.06-0.1,0.16-0.12,0.28
						c-0.03,0.14-0.06,0.24-0.11,0.31c-0.04,0.07-0.11,0.11-0.21,0.12c-0.11,0.01-0.2-0.01-0.28-0.07
						c-0.08-0.06-0.13-0.15-0.14-0.27c-0.01-0.09,0-0.19,0.02-0.31c0.03-0.12,0.07-0.23,0.13-0.33c0.09-0.15,0.21-0.27,0.35-0.37
						c0.14-0.09,0.3-0.15,0.48-0.17c0.16-0.02,0.31-0.01,0.44,0.02c0.14,0.03,0.26,0.09,0.36,0.16c0.1,0.08,0.19,0.17,0.25,0.28
						c0.07,0.11,0.11,0.24,0.12,0.38c0.02,0.13,0.01,0.27-0.03,0.4c-0.03,0.14-0.09,0.28-0.17,0.42c-0.08,0.15-0.18,0.31-0.3,0.48
						c-0.12,0.17-0.26,0.36-0.42,0.56l0.69-0.09c0.35-0.05,0.55,0.05,0.58,0.28c0.03,0.23-0.13,0.37-0.49,0.42L437.63,179.12z"/>
				</g>
				<g>
					<path class="st32" d="M469.02,198.1l-1.16,0.15c-0.15,0.02-0.27,0.01-0.35-0.03c-0.08-0.04-0.13-0.11-0.14-0.21
						c-0.01-0.09,0-0.16,0.03-0.23c0.03-0.07,0.06-0.14,0.09-0.22l0.78-1.68c0.06-0.14,0.13-0.24,0.21-0.31
						c0.08-0.06,0.18-0.11,0.3-0.12c0.17-0.02,0.32,0.02,0.45,0.13c0.13,0.11,0.21,0.29,0.24,0.55l0.16,1.21
						c0.02-0.01,0.04-0.01,0.06-0.01c0.02,0,0.04-0.01,0.05-0.01c0.13-0.02,0.23,0,0.31,0.05c0.08,0.05,0.12,0.13,0.14,0.22
						c0.03,0.23-0.1,0.37-0.4,0.41l-0.07,0.01l0.05,0.35c0.02,0.13,0,0.23-0.06,0.31c-0.06,0.08-0.14,0.12-0.26,0.14
						c-0.21,0.03-0.34-0.1-0.38-0.38L469.02,198.1z M468.93,197.44l-0.16-1.26l-0.61,1.36L468.93,197.44z"/>
					<path class="st32" d="M470.92,196.74c-0.22-0.15-0.35-0.36-0.39-0.62c-0.02-0.13-0.01-0.25,0.03-0.37
						c0.04-0.12,0.1-0.23,0.18-0.32c0.08-0.1,0.19-0.18,0.31-0.24c0.12-0.07,0.26-0.11,0.41-0.13c0.15-0.02,0.3-0.01,0.43,0.02
						c0.14,0.03,0.26,0.08,0.36,0.15c0.11,0.07,0.19,0.16,0.26,0.27c0.07,0.11,0.11,0.22,0.13,0.35c0.03,0.26-0.04,0.49-0.22,0.7
						c0.32,0.15,0.5,0.41,0.55,0.77c0.02,0.15,0.01,0.29-0.03,0.43c-0.04,0.14-0.11,0.26-0.2,0.37c-0.09,0.11-0.21,0.2-0.35,0.28
						c-0.14,0.08-0.3,0.12-0.48,0.15c-0.18,0.02-0.35,0.02-0.5-0.02c-0.15-0.04-0.29-0.1-0.41-0.18c-0.12-0.08-0.21-0.19-0.29-0.31
						c-0.07-0.12-0.12-0.26-0.14-0.41c-0.02-0.18-0.01-0.34,0.05-0.49C470.69,196.99,470.78,196.86,470.92,196.74z M471.26,196.1
						c0.01,0.05,0.02,0.09,0.05,0.13c0.02,0.04,0.05,0.07,0.09,0.1c0.03,0.03,0.07,0.05,0.12,0.06c0.04,0.01,0.09,0.02,0.13,0.01
						c0.1-0.01,0.17-0.06,0.23-0.13c0.06-0.08,0.08-0.16,0.07-0.26c-0.01-0.1-0.06-0.18-0.13-0.24c-0.08-0.06-0.16-0.08-0.26-0.07
						c-0.09,0.01-0.17,0.06-0.23,0.13C471.27,195.92,471.25,196,471.26,196.1z M471.33,197.46c0.01,0.07,0.03,0.13,0.06,0.18
						c0.03,0.06,0.07,0.1,0.12,0.14c0.05,0.04,0.1,0.06,0.15,0.08c0.06,0.02,0.11,0.02,0.18,0.01c0.06-0.01,0.11-0.03,0.16-0.06
						c0.05-0.03,0.09-0.07,0.13-0.12c0.04-0.05,0.06-0.1,0.08-0.16c0.01-0.06,0.02-0.12,0.01-0.19c-0.02-0.14-0.08-0.24-0.17-0.32
						c-0.1-0.08-0.21-0.11-0.33-0.1c-0.06,0.01-0.12,0.03-0.17,0.06c-0.05,0.03-0.09,0.07-0.13,0.12c-0.04,0.05-0.06,0.1-0.08,0.16
						C471.32,197.33,471.32,197.39,471.33,197.46z"/>
				</g>
				<g>
					<g>
						<path class="st4" d="M434.23,225.71c-0.99,0-1.82-0.74-1.95-1.72c-0.07-0.52,0.07-1.04,0.39-1.46
							c0.32-0.42,0.78-0.68,1.31-0.75c0.09-0.01,0.17-0.02,0.26-0.02c0.98,0,1.82,0.74,1.95,1.72c0.14,1.08-0.62,2.07-1.7,2.21
							C434.4,225.7,434.32,225.71,434.23,225.71z"/>
						<g>
							<path class="st32" d="M434.24,222.2c0.76,0,1.42,0.56,1.52,1.33c0.11,0.84-0.48,1.61-1.32,1.72
								c-0.07,0.01-0.13,0.01-0.2,0.01c-0.76,0-1.42-0.56-1.52-1.33c-0.11-0.84,0.48-1.61,1.32-1.72
								C434.1,222.21,434.17,222.2,434.24,222.2 M434.24,221.33L434.24,221.33c-0.1,0-0.21,0.01-0.31,0.02
								c-1.32,0.17-2.25,1.38-2.08,2.7c0.16,1.2,1.18,2.1,2.39,2.1c0.1,0,0.21-0.01,0.31-0.02c1.32-0.17,2.25-1.38,2.08-2.7
								C436.47,222.23,435.44,221.33,434.24,221.33L434.24,221.33z"/>
						</g>
					</g>
				</g>
				<g>
					<g>
						<path class="st4" d="M465.86,230.12c-0.98,0-1.82-0.74-1.95-1.72c-0.14-1.08,0.62-2.07,1.7-2.21
							c0.09-0.01,0.17-0.02,0.26-0.02c0.99,0,1.82,0.74,1.95,1.72c0.07,0.52-0.07,1.04-0.39,1.46c-0.32,0.42-0.78,0.68-1.31,0.75
							C466.03,230.11,465.94,230.12,465.86,230.12z"/>
						<g>
							<path class="st46" d="M465.86,226.61c0.76,0,1.42,0.56,1.52,1.33c0.11,0.84-0.48,1.61-1.32,1.72
								c-0.07,0.01-0.13,0.01-0.2,0.01c-0.76,0-1.42-0.56-1.52-1.33c-0.11-0.84,0.48-1.61,1.32-1.72
								C465.73,226.62,465.8,226.61,465.86,226.61 M465.86,225.74L465.86,225.74c-0.1,0-0.21,0.01-0.31,0.02
								c-1.32,0.17-2.25,1.38-2.08,2.7c0.16,1.2,1.18,2.1,2.39,2.1c0.1,0,0.21-0.01,0.31-0.02c1.32-0.17,2.25-1.38,2.08-2.7
								C468.09,226.64,467.07,225.74,465.86,225.74L465.86,225.74z"/>
						</g>
					</g>
				</g>
			</g>
		</g>
		<g>
			<polygon class="st1" points="596.66,183.14 456.92,128.18 432.96,121.98 432.63,123.37 452.05,132.36 454.55,131.95 
				564.61,174.58 565.04,178.21 594.81,189.18 			"/>
			<g>
				<g>
					<polygon class="st48" points="596.66,183.14 456.67,129.22 459.72,121.26 599.79,175.2 600.02,178.12 598.84,181.19 					"/>
					<polygon class="st49" points="600.02,178.12 458.52,123.94 459.72,121.26 599.79,175.2 					"/>
					<polygon class="st50" points="596.66,183.14 456.67,129.22 457.76,126.37 598.84,181.19 					"/>
					<path class="st51" d="M459.72,121.26c0,0,0.7,0.42,0.48,0.96c-0.32,0.79-1.15,0.78-1.15,0.78s0.91,1.1,0.32,2.53
						c-0.72,1.76-1.99,1.77-1.99,1.77s0.75,0.61,0.45,1.3c-0.32,0.72-1.17,0.63-1.17,0.63l-1.69-5.13L459.72,121.26z"/>
					<g>
						<g>
							<polygon class="st52" points="434.76,115.42 434.2,116.87 441.23,120.73 442.57,117.25 							"/>
						</g>
						<polygon class="st51" points="459.27,121.9 442.57,117.25 441.23,120.73 456.67,129.22 						"/>
						<path class="st53" d="M459.72,121.26L459.72,121.26l-17.15-4.01l-0.74,1.94l16.43,5.89l0.8-2.09c0,0,0.83,0.01,1.15-0.78
							C460.42,121.67,459.72,121.26,459.72,121.26z"/>
					</g>
					<g class="st54">
						<polygon class="st55" points="442.15,118.35 434.54,115.99 434.43,116.28 441.7,119.52 						"/>
					</g>
					<path class="st56" d="M459.06,123l-16.91-4.65l-0.45,1.17l15.69,7.78c0,0,1.27-0.07,1.96-1.7
						C460.03,123.99,459.06,123,459.06,123z"/>
				</g>
			</g>
		</g>
	</g>
</g>
</svg>
