<svg id="Tra_hang" data-name="Tra hang" xmlns="http://www.w3.org/2000/svg" width="624" height="320" viewBox="0 0 624 320">
  <rect id="Rectangle_9364" data-name="Rectangle 9364" width="624" height="320" fill="#35b24a" opacity="0.3"/>
  <g id="Group_12922" data-name="Group 12922">
    <g id="Group_12878" data-name="Group 12878">
      <path id="Path_33450" data-name="Path 33450" d="M176.95,214.52l78.88-46.4V258.6L176.49,305Z" fill="#a36f4b"/>
      <path id="Path_33451" data-name="Path 33451" d="M410.81,152.81c0-89.09-90.02-98.37-90.02-98.37h-51.5V15L160.71,79.03l108.58,64.03V102.7h51.97c53.36,15.78,55.22,65.89,55.22,65.89-1.86,64.96-61.25,74.24-61.25,74.24-44.54,17.63,0,18.56,0,18.56C419.16,244.68,410.81,152.81,410.81,152.81Z" fill="#ef6a1c"/>
      <path id="Path_33452" data-name="Path 33452" d="M166.28,214.52l-31.55-18.56v34.8l-10.67-14.85-10.68,3.25V183.4L87.4,168.12V258.6L166.74,305Z" fill="#c78b5b"/>
      <g id="Group_12877" data-name="Group 12877">
        <path id="Path_33453" data-name="Path 33453" d="M118.01,175.36l80.13-46.65-26.52-15.6L91.9,160Z" fill="#e5be84"/>
        <path id="Path_33454" data-name="Path 33454" d="M217.16,139.9l-80.62,46.36h0l35.08,20.63L251.33,160Z" fill="#e5be84"/>
      </g>
      <path id="Path_33455" data-name="Path 33455" d="M230.78,216.84l-38.05,22.27v-8.35l38.05-22.27Z" fill="#ead1b7"/>
      <path id="Path_33456" data-name="Path 33456" d="M203.86,240.02v8.35l26.92-15.75v-8.36Z" fill="#ead1b7"/>
      <path id="Path_33457" data-name="Path 33457" d="M211.29,251.45v8.35l19.49-11.41v-8.35Z" fill="#ead1b7"/>
      <path id="Path_33458" data-name="Path 33458" d="M285.99,66.04V79.96h32.48s77.02,13.92,77.95,78.88c0,0,9.28-70.53-75.17-92.8H285.99Z" fill="#e5be84"/>
    </g>
    <g id="Group_12921" data-name="Group 12921">
      <g id="Group_12920" data-name="Group 12920">
        <rect id="Rectangle_9365" data-name="Rectangle 9365" width="125.72" height="169.1" transform="translate(394.48 138.91)" fill="#6b2527"/>
        <rect id="Rectangle_9366" data-name="Rectangle 9366" width="102.49" height="169.1" transform="translate(406.09 138.91)" fill="#3a110c"/>
        <g id="Group_12919" data-name="Group 12919">
          <path id="Path_33459" data-name="Path 33459" d="M396.96,179.27s8.99,40.32,47.45,50.03h22.01s36-8.44,45.45-49.15Z" fill="#6b2527"/>
          <g id="Group_12879" data-name="Group 12879">
            <path id="Path_33460" data-name="Path 33460" d="M506.47,320h23.76l-12.66-45.92-.05-.15c-.04-.15-.09-.31-.14-.46-2.04-6.24-9.03-9.72-15.61-7.79s-10.26,8.55-8.22,14.78Z" fill="#fac78b"/>
          </g>
          <g id="Group_12880" data-name="Group 12880">
            <path id="Path_33461" data-name="Path 33461" d="M407.8,320l11.5-39.72.04-.15a3.364,3.364,0,0,0,.13-.48c1.52-6.36-2.7-12.69-9.42-14.13s-13.4,2.55-14.92,8.92L384.24,320Z" fill="#fac78b"/>
          </g>
          <g id="Group_12881" data-name="Group 12881">
            <path id="Path_33462" data-name="Path 33462" d="M470.25,258.83H440.31l4.73-30.53h20.87Z" fill="#fac78b"/>
            <path id="Path_33463" data-name="Path 33463" d="M450.95,240.39c5.59-.75,13.21-1.56,16.02-6.02l-1.05-6.07H445.05l-2.34,15.08A20.913,20.913,0,0,1,450.95,240.39Z" fill="#c6c6c5"/>
          </g>
          <path id="Path_33464" data-name="Path 33464" d="M406.68,320h97.68l5.91-23.56c8.32-22.75-2.72-31.49-2.72-31.49l-38.14-15.07h-27.8l-38.13,15.07s-11.05,8.73-2.73,31.49Z" fill="#fac78b"/>
          <path id="Path_33465" data-name="Path 33465" d="M504.33,320l5.82-23.2c-10.23-7.27-11.18-23.07-2.84-31.94l-34.03-13.7-17.9,1.92-18.17-1.53-33.18,13.18c8.59,8.95,7.54,25.18-3.13,32.35L406.65,320Z" fill="#fff"/>
          <g id="Group_12916" data-name="Group 12916">
            <g id="Group_12888" data-name="Group 12888">
              <g id="Group_12884" data-name="Group 12884">
                <path id="Path_33466" data-name="Path 33466" d="M503.14,172.57c-1.07,7.56,2.15,14.21,7.17,14.84s9.95-4.98,11.01-12.55-2.15-14.21-7.18-14.84C509.13,159.39,504.2,165.01,503.14,172.57Z" fill="#fac78b"/>
                <g id="Group_12882" data-name="Group 12882">
                  <path id="Path_33467" data-name="Path 33467" d="M509.3,170.32s.05-.42.2-1.11a10.346,10.346,0,0,1,1.02-2.73c.55-1.02,1.47-2.2,2.73-2.28a3.6,3.6,0,0,1,.97.08c.06.03.4.12.51.18.11.09.23.12.36.23a4.106,4.106,0,0,1,1.32,1.62,8.384,8.384,0,0,1,.73,2.13,8.188,8.188,0,0,1,.18,2.16c-.1.76-.09,1.53-.22,2.19-.13.68-.24,1.31-.34,1.9-.16.59-.28,1.14-.38,1.63s-.27.9-.36,1.25c-.2.69-.3,1.1-.3,1.1s.23-.36.6-.99c.16-.33.43-.7.63-1.17.23-.46.47-.99.73-1.57.22-.6.42-1.27.63-1.98a17.14,17.14,0,0,0,.45-2.2,7.712,7.712,0,0,0-.06-2.58,9.3,9.3,0,0,0-.82-2.54,5.641,5.641,0,0,0-1.88-2.18,4.969,4.969,0,0,0-.73-.38,6.751,6.751,0,0,0-.7-.2,5.091,5.091,0,0,0-1.51-.03,3.788,3.788,0,0,0-2.35,1.37,6.008,6.008,0,0,0-1.05,1.92,9.456,9.456,0,0,0-.46,3.04A5.2,5.2,0,0,0,509.3,170.32Z" fill="#c6c6c5"/>
                </g>
                <path id="Path_33468" data-name="Path 33468" d="M509.3,170.32s-.51-.79,2.75-1.04c0,0,3.7.45,1.81,4.24a9.8,9.8,0,0,0-.92,2.54c-.24,1.27.46,2.96-.34,4.09-1.04,1.46-3.97.7-4.26-.95-.22-1.26,1.32-3.46,2.03-4.37A2.881,2.881,0,0,0,509.3,170.32Z" fill="#c6c6c5"/>
                <g id="Group_12883" data-name="Group 12883">
                  <path id="Path_33469" data-name="Path 33469" d="M508.32,179.04a1.629,1.629,0,0,0-.23.21,2.017,2.017,0,0,0-.44.71,2.134,2.134,0,0,0-.14.54,1.568,1.568,0,0,0-.02.61,5.278,5.278,0,0,0,.13.67,4.087,4.087,0,0,0,.31.63,3,3,0,0,0,.41.56c.16.16.36.29.51.42a2.376,2.376,0,0,0,1.05.53,3.842,3.842,0,0,0,1.14.2,6.818,6.818,0,0,0-.58-.91,2.424,2.424,0,0,0-.3-.35,4.866,4.866,0,0,0-.56-.81,1.568,1.568,0,0,1-.24-.41,4.839,4.839,0,0,1-.46-.83,2.288,2.288,0,0,1-.17-.4c-.03-.14-.12-.28-.14-.41A7.363,7.363,0,0,1,508.32,179.04Z" fill="#c6c6c5"/>
                </g>
              </g>
              <g id="Group_12887" data-name="Group 12887">
                <path id="Path_33470" data-name="Path 33470" d="M408.77,172.57c1.06,7.56-2.15,14.21-7.17,14.84s-9.95-4.98-11.01-12.55,2.14-14.21,7.17-14.84S407.71,165.01,408.77,172.57Z" fill="#fac78b"/>
                <g id="Group_12885" data-name="Group 12885">
                  <path id="Path_33471" data-name="Path 33471" d="M402.6,170.32a10.492,10.492,0,0,0-.19-1.11,10.628,10.628,0,0,0-1.01-2.73c-.56-1.02-1.49-2.2-2.74-2.28a3.633,3.633,0,0,0-.97.08c-.06.03-.39.12-.5.18-.11.09-.23.12-.36.23a4.106,4.106,0,0,0-1.32,1.62,7.993,7.993,0,0,0-.72,2.13,7.423,7.423,0,0,0-.18,2.16c.1.76.09,1.53.23,2.19.12.68.24,1.31.34,1.9.16.59.28,1.14.38,1.63s.27.9.36,1.25c.21.69.31,1.1.31,1.1s-.24-.36-.61-.99c-.16-.33-.41-.7-.63-1.17s-.47-.99-.72-1.57c-.24-.6-.43-1.27-.65-1.98a19.032,19.032,0,0,1-.45-2.2,7.457,7.457,0,0,1,.05-2.58,9.3,9.3,0,0,1,.82-2.54,5.726,5.726,0,0,1,1.88-2.18,4.635,4.635,0,0,1,.74-.38,6.521,6.521,0,0,1,.69-.2,5.091,5.091,0,0,1,1.51-.03,3.789,3.789,0,0,1,2.35,1.37,6.008,6.008,0,0,1,1.05,1.92,9.184,9.184,0,0,1,.46,3.04A5,5,0,0,1,402.6,170.32Z" fill="#c6c6c5"/>
                </g>
                <path id="Path_33472" data-name="Path 33472" d="M402.6,170.32s.51-.79-2.75-1.04c0,0-3.69.45-1.8,4.24a10.2,10.2,0,0,1,.93,2.54c.24,1.27-.47,2.96.34,4.09,1.03,1.46,3.97.7,4.26-.95.21-1.26-1.32-3.46-2.03-4.37A2.866,2.866,0,0,1,402.6,170.32Z" fill="#c6c6c5"/>
                <g id="Group_12886" data-name="Group 12886">
                  <path id="Path_33473" data-name="Path 33473" d="M403.58,179.04a2.023,2.023,0,0,1,.24.21,2.357,2.357,0,0,1,.43.71,1.784,1.784,0,0,1,.14.54,1.4,1.4,0,0,1,.02.61,5.278,5.278,0,0,1-.13.67c-.08.22-.21.42-.31.63a2.608,2.608,0,0,1-.41.56c-.16.16-.36.29-.51.42a2.247,2.247,0,0,1-1.04.53,3.886,3.886,0,0,1-1.14.2,6.818,6.818,0,0,1,.58-.91,3.164,3.164,0,0,1,.29-.35c.1-.14.17-.29.27-.42a3.577,3.577,0,0,1,.29-.39,1.568,1.568,0,0,0,.24-.41,3.782,3.782,0,0,0,.46-.83,2.288,2.288,0,0,0,.17-.4c.04-.14.13-.28.16-.41A9.587,9.587,0,0,0,403.58,179.04Z" fill="#c6c6c5"/>
                </g>
              </g>
            </g>
            <path id="Path_33474" data-name="Path 33474" d="M482.96,94.07a77.36,77.36,0,0,0-55.09,0s-44.62,20.27-17.1,104.62c3.95,12.07,15.93,21.33,27.2,28.08,11.62,6.96,23.31,6.94,34.89,0,11.27-6.75,23.25-16.01,27.19-28.08C527.59,114.34,482.96,94.07,482.96,94.07Z" fill="#fac78b"/>
            <g id="Group_12891" data-name="Group 12891">
              <path id="Path_33477" data-name="Path 33477" d="M446.89,184.2s4.52-.07,9.03-.15c.41.07.8-.05,1.22.03a9.4,9.4,0,0,1,1.29.03c.88-.03,1.87.04,2.81.01.98.08,1.86.01,2.57.07.7.03,1.18.09,1.18.09a5.165,5.165,0,0,1-.19,1.1,6.905,6.905,0,0,1-1.16,2.53,8.539,8.539,0,0,1-3,2.63,11.924,11.924,0,0,1-2.24.84,10.6,10.6,0,0,1-2.52.3,10.549,10.549,0,0,1-4.73-1.16,8.7,8.7,0,0,1-3.02-2.63,7.214,7.214,0,0,1-1.15-2.57A4.428,4.428,0,0,1,446.89,184.2Z" fill="#d6ac7a"/>
            </g>
            <g id="Group_12910" data-name="Group 12910">
              <g id="Group_12900" data-name="Group 12900">
                <g id="Group_12899" data-name="Group 12899">
                  <g id="Group_12898" data-name="Group 12898">
                    <path id="Path_33478" data-name="Path 33478" d="M426.11,162.4a5.511,5.511,0,0,0,5.8,5.17,5.34,5.34,0,1,0-5.8-5.17Z" fill="#402716"/>
                    <path id="Path_33479" data-name="Path 33479" d="M429.71,162.42a2.044,2.044,0,1,0,1.98-1.99A1.98,1.98,0,0,0,429.71,162.42Z" fill="#1f0f00"/>
                    <g id="Group_12893" data-name="Group 12893">
                      <g id="Group_12892" data-name="Group 12892">
                        <path id="Path_33480" data-name="Path 33480" d="M441.8,161.63a4,4,0,0,1-1.4-.21l-1.34-.48c-.83-.41-1.64-.87-2.44-1.35l-.05-.04a9.553,9.553,0,0,0-2.65-1.28,5.711,5.711,0,0,0-2.77-.18,6.788,6.788,0,0,0-2.59,1.08,14.847,14.847,0,0,0-2.31,2l.04-.05a5.183,5.183,0,0,1-2.7,1.73,4.426,4.426,0,0,1-2.98-.31,4.679,4.679,0,0,0,2.6-.58,5.49,5.49,0,0,0,.96-.75,4.507,4.507,0,0,0,.66-.91l.01-.01.03-.05,1.03-1.43a15.9,15.9,0,0,1,1.32-1.27,7.866,7.866,0,0,1,3.52-1.65,7.334,7.334,0,0,1,3.95.42,8.748,8.748,0,0,1,3.12,2.09l-.05-.04c.65.56,1.26,1.17,1.89,1.78l1.01.83A9.265,9.265,0,0,0,441.8,161.63Z" fill="#231201"/>
                      </g>
                    </g>
                    <g id="Group_12895" data-name="Group 12895">
                      <g id="Group_12894" data-name="Group 12894">
                        <path id="Path_33481" data-name="Path 33481" d="M426.03,160.89a13.142,13.142,0,0,1-3.37.42,3.248,3.248,0,0,1-2.19-.74,1.735,1.735,0,0,1-.41-.9,1.744,1.744,0,0,0,.54.77,2.877,2.877,0,0,0,2.03.31,11.858,11.858,0,0,0,2.98-.91Z" fill="#231201"/>
                      </g>
                    </g>
                    <g id="Group_12897" data-name="Group 12897">
                      <g id="Group_12896" data-name="Group 12896">
                        <path id="Path_33482" data-name="Path 33482" d="M426.83,160.01a12.986,12.986,0,0,1-3.39-.11,3.149,3.149,0,0,1-2.03-1.07,1.653,1.653,0,0,1-.24-.95,1.749,1.749,0,0,0,.39.85,2.834,2.834,0,0,0,1.95.62,12,12,0,0,0,3.1-.43Z" fill="#231201"/>
                      </g>
                    </g>
                    <path id="Path_33483" data-name="Path 33483" d="M427.56,161.07a1.386,1.386,0,0,0,1.46,1.29,1.365,1.365,0,0,0,1.36-1.38,1.412,1.412,0,0,0-2.82.09Z" fill="#fff"/>
                    <path id="Path_33484" data-name="Path 33484" d="M429.74,162.38a.694.694,0,0,0,.73.65.67.67,0,0,0,.68-.69.706.706,0,0,0-1.41.04Z" fill="#fff"/>
                  </g>
                  <path id="Path_33485" data-name="Path 33485" d="M417.48,151.6s6.41-8.83,23.32-4.05c0,0,4.47,1.29,6.36,2.67,0,0,2.33-.28,1.6-5.94C448.76,144.28,420.43,133.66,417.48,151.6Z" fill="#6b2527"/>
                </g>
              </g>
              <g id="Group_12909" data-name="Group 12909">
                <g id="Group_12908" data-name="Group 12908">
                  <g id="Group_12907" data-name="Group 12907">
                    <path id="Path_33486" data-name="Path 33486" d="M485.8,162.4a5.532,5.532,0,0,1-5.81,5.17,5.341,5.341,0,1,1,5.81-5.17Z" fill="#402716"/>
                    <path id="Path_33487" data-name="Path 33487" d="M482.18,162.42a2.044,2.044,0,1,1-1.98-1.99A1.988,1.988,0,0,1,482.18,162.42Z" fill="#1f0f00"/>
                    <g id="Group_12902" data-name="Group 12902">
                      <g id="Group_12901" data-name="Group 12901">
                        <path id="Path_33488" data-name="Path 33488" d="M470.1,161.63a2.519,2.519,0,0,0,.6-.34,4.5,4.5,0,0,0,.53-.36l1.01-.83c.63-.61,1.25-1.22,1.89-1.78l-.05.04a8.876,8.876,0,0,1,3.13-2.09,7.429,7.429,0,0,1,3.95-.41,8.025,8.025,0,0,1,3.52,1.65,15.9,15.9,0,0,1,1.32,1.27l1.03,1.43.03.05.01.01a4.246,4.246,0,0,0,.66.91,4.985,4.985,0,0,0,.95.75,4.659,4.659,0,0,0,2.6.58,4.426,4.426,0,0,1-2.98.31,4.6,4.6,0,0,1-1.47-.64,4.789,4.789,0,0,1-1.22-1.09l.04.06a15.243,15.243,0,0,0-2.31-2,6.854,6.854,0,0,0-2.59-1.08,5.7,5.7,0,0,0-2.77.18,9.611,9.611,0,0,0-2.66,1.28l-.05.04c-.8.48-1.61.95-2.44,1.35l-1.34.48A3.535,3.535,0,0,1,470.1,161.63Z" fill="#231201"/>
                      </g>
                    </g>
                    <g id="Group_12904" data-name="Group 12904">
                      <g id="Group_12903" data-name="Group 12903">
                        <path id="Path_33489" data-name="Path 33489" d="M486.28,159.83a11.859,11.859,0,0,0,2.98.91,2.877,2.877,0,0,0,2.03-.31,1.857,1.857,0,0,0,.54-.77,1.735,1.735,0,0,1-.41.9,3.23,3.23,0,0,1-2.19.74,13.143,13.143,0,0,1-3.37-.42Z" fill="#231201"/>
                      </g>
                    </g>
                    <g id="Group_12906" data-name="Group 12906">
                      <g id="Group_12905" data-name="Group 12905">
                        <path id="Path_33490" data-name="Path 33490" d="M485.3,158.91a11.909,11.909,0,0,0,3.1.43,2.817,2.817,0,0,0,1.95-.62,1.832,1.832,0,0,0,.4-.85,1.76,1.76,0,0,1-.24.95,3.149,3.149,0,0,1-2.03,1.07,12.978,12.978,0,0,1-3.39.11Z" fill="#231201"/>
                      </g>
                    </g>
                    <path id="Path_33491" data-name="Path 33491" d="M484.35,161.07a1.392,1.392,0,0,1-1.46,1.29,1.365,1.365,0,0,1-1.36-1.38,1.412,1.412,0,0,1,2.82.09Z" fill="#fff"/>
                    <path id="Path_33492" data-name="Path 33492" d="M482.16,162.38a.7.7,0,0,1-.74.65.672.672,0,1,1,.74-.65Z" fill="#fff"/>
                  </g>
                  <path id="Path_33493" data-name="Path 33493" d="M494.42,151.6s-6.41-8.83-23.31-4.05c0,0-4.47,1.29-6.37,2.67,0,0-2.33-.28-1.59-5.94C463.15,144.28,491.48,133.66,494.42,151.6Z" fill="#6b2527"/>
                </g>
              </g>
            </g>
            <g id="Group_12911" data-name="Group 12911">
              <path id="Path_33494" data-name="Path 33494" d="M499.73,173.4c-.41-4.32-6.92-7.3-14.55-6.66s-13.47,4.67-13.07,8.99,6.92,7.3,14.55,6.66S500.13,177.72,499.73,173.4Z" fill="#f19386" opacity="0.2"/>
              <path id="Path_33495" data-name="Path 33495" d="M425.66,166.74c-7.63-.64-14.15,2.34-14.56,6.66s5.45,8.35,13.07,9,14.14-2.34,14.55-6.66S433.28,167.38,425.66,166.74Z" fill="#f19386" opacity="0.2"/>
            </g>
            <path id="Path_33496" data-name="Path 33496" d="M512.82,185.5a3.265,3.265,0,1,1-3.26-3.09A3.176,3.176,0,0,1,512.82,185.5Z" fill="#fff"/>
            <path id="Path_33497" data-name="Path 33497" d="M405.6,185.5a3.265,3.265,0,1,1-3.26-3.09A3.183,3.183,0,0,1,405.6,185.5Z" fill="#fff"/>
            <g id="Group_12914" data-name="Group 12914">
              <path id="Path_33498" data-name="Path 33498" d="M439.15,200.48c3.48,6.95,9.7,11.59,16.8,11.59,7.12,0,13.33-4.65,16.8-11.59Z" fill="#fff"/>
              <g id="Group_12912" data-name="Group 12912">
                <path id="Path_33499" data-name="Path 33499" d="M439.15,200.48s.64.41,1.62,1.2a16.237,16.237,0,0,0,1.75,1.32c.68.45,1.32.95,2.17,1.42a21.454,21.454,0,0,0,2.55,1.45,28.982,28.982,0,0,0,2.78,1.24,20.445,20.445,0,0,0,2.94.75,8.356,8.356,0,0,0,1.49.21l.75.04.38.03.19.01.09.01h.09c.32-.01-.43.02-.34.01a19.815,19.815,0,0,0,3.48-.36,18.888,18.888,0,0,0,2.79-.72,23.971,23.971,0,0,0,2.78-1.24,19.439,19.439,0,0,0,2.55-1.44c.84-.46,1.52-1.01,2.2-1.46s1.27-.89,1.73-1.28c.96-.75,1.62-1.19,1.62-1.19a13.107,13.107,0,0,1-.18,1.95,8.15,8.15,0,0,1-.54,2.2,12.433,12.433,0,0,1-1.19,2.75,14,14,0,0,1-2.15,2.98,17.091,17.091,0,0,1-3.25,2.81,20.56,20.56,0,0,1-2.08,1.13,10.1,10.1,0,0,1-2.46.92,19.3,19.3,0,0,1-4.58.76l-.37.01h-.06l-.08-.01-.16-.01-.33-.03-.65-.06-1.3-.13a12.349,12.349,0,0,1-2.49-.58,16.259,16.259,0,0,1-7.64-4.83,14.317,14.317,0,0,1-2.15-2.97,13.778,13.778,0,0,1-1.23-2.79,7.5,7.5,0,0,1-.52-2.16A15.222,15.222,0,0,1,439.15,200.48Z" fill="#d56558"/>
              </g>
              <g id="Group_12913" data-name="Group 12913">
                <path id="Path_33500" data-name="Path 33500" d="M472.75,200.48a30.707,30.707,0,0,1-5.25,1.45,62.3,62.3,0,0,1-23.1,0,30.1,30.1,0,0,1-5.25-1.46,31.21,31.21,0,0,1,5.25-1.46,59.323,59.323,0,0,1,11.55-1.08,60.922,60.922,0,0,1,11.55,1.08A31.73,31.73,0,0,1,472.75,200.48Z" fill="#d56558"/>
              </g>
            </g>
            <path id="Path_33501" data-name="Path 33501" d="M404.02,173s0-13.77-8.08-12.74c-7.26-57.09,20.43-63.66,20.43-63.66-1.43-10.2,13.28-19.03,13.28-19.03,38.25-17.2,63.09.31,63.09.31,41.2,26.02,24.3,82.38,24.3,82.38-11.1-1.83-11.9,12.74-11.9,12.74C504.07,127.12,489,117.94,489,117.94c-35.34-18.53-68.82,0-68.82,0s-9.24,9.7-7.45,23.97C412.72,141.91,404.83,145.99,404.02,173Z" fill="#6b2527"/>
            <g id="Group_12915" data-name="Group 12915">
              <path id="Path_33502" data-name="Path 33502" d="M424.86,118.17l-3.88-13.98,7.61,12.53Z" fill="#fac78b"/>
            </g>
          </g>
          <path id="Path_33503" data-name="Path 33503" d="M409.62,320l11.01-37.75c1.27-6.41-4.03-16.93-10.8-18.13s-12.88,3.2-16.05,9.2L376.6,320Z" fill="#ef6a1c"/>
          <path id="Path_33504" data-name="Path 33504" d="M504.33,320H536.6l-18.5-45.34c-1.27-6.41-10.14-12.25-16.9-11.05s-10.94,8.82-9.67,15.23Z" fill="#ef6a1c"/>
          <g id="Group_12917" data-name="Group 12917">
            <path id="Path_33505" data-name="Path 33505" d="M436.36,320V251.16L404.02,264c8.59,8.95,7.54,25.18-3.13,32.35L406.12,320Z" fill="#ef6a1c"/>
            <path id="Path_33506" data-name="Path 33506" d="M504.77,320l5.38-23.92c-10.23-7.26-11.18-23.08-2.84-31.93l-31.47-12.67V320Z" fill="#ef6a1c"/>
          </g>
          <g id="Group_12918" data-name="Group 12918">
            <path id="Path_33507" data-name="Path 33507" d="M455.31,252.87,441.68,243,425.6,253.58l15.97,19.25Z" fill="#e5e5e5"/>
            <path id="Path_33508" data-name="Path 33508" d="M455.26,252.87,468.88,243l16.09,10.58-15.98,19.25Z" fill="#e5e5e5"/>
          </g>
        </g>
      </g>
    </g>
  </g>
</svg>
