<svg id="hoa_don_khong_gioi_han" data-name="hoa don khong gioi han" xmlns="http://www.w3.org/2000/svg" width="624" height="419.2" viewBox="0 0 624 419.2">
  <path id="Path_31407" data-name="Path 31407" d="M0,0H624V419.2H0Z" fill="#caddcd"/>
  <g id="Group_12371" data-name="Group 12371">
    <path id="Path_31396" data-name="Path 31396" d="M524.85,239.43V139.38c0-36.42-37.38-32.59-37.38-32.59H231.55V239.54H201.36V346.89c0,36.42,37.38,32.59,37.38,32.59h203.2v-.12h46.01s37.38,3.83,37.38-32.59V239.43Z" fill="#0b4347" opacity="0.2"/>
    <g id="Group_12370" data-name="Group 12370">
      <path id="Path_31397" data-name="Path 31397" d="M415.37,81.39h31.36s17.15.48,17.15,26.36V212.23s-2.14,24.92,23.59,25.88H415.63Z" fill="#005362"/>
      <path id="Path_31398" data-name="Path 31398" d="M383.47,324.37l28.95,9.59s13.94,0,13.94-32.59V103.43s-.54-22.05,20.91-22.05h-57.9Z" fill="#fff"/>
      <path id="Path_31399" data-name="Path 31399" d="M369.45,39.6H153.38s-24.24,5.04-21.43,25.77l-.23,271.39H297.78s-4.57,22.66,23.19,23.92c0,0,20.29,1.59,25.03-20.79l.97-277.08S345.21,45.6,369.45,39.6Z" fill="#fff"/>
      <path id="Path_31400" data-name="Path 31400" d="M320.44,360.69l-203.65-.2s-21.22-5.13-17.74-23.74H299.54C299.54,336.76,295.49,359.18,320.44,360.69Z" fill="#005362"/>
      <path id="Path_31401" data-name="Path 31401" d="M395.27,307.12V61.81h.26c0-12.61-10.88-21.73-24.29-21.73s-24.29,11.53-24.29,21.73h.06l-1.07,272.14h66.47C397.41,333.95,395.27,307.12,395.27,307.12Z" fill="#005362"/>
      <g id="Group_12367" data-name="Group 12367">
        <rect id="Rectangle_8942" data-name="Rectangle 8942" width="147.17" height="16.63" transform="translate(311.391 83.869) rotate(180)" fill="#005362"/>
        <rect id="Rectangle_8943" data-name="Rectangle 8943" width="147.17" height="16.63" transform="translate(311.391 114.931) rotate(180)" fill="#005362"/>
        <rect id="Rectangle_8944" data-name="Rectangle 8944" width="147.17" height="16.63" transform="translate(311.391 148.106) rotate(180)" fill="#005362"/>
        <rect id="Rectangle_8945" data-name="Rectangle 8945" width="74.05" height="16.63" transform="translate(238.266 181.281) rotate(180)" fill="#005362"/>
        <rect id="Rectangle_8946" data-name="Rectangle 8946" width="74.05" height="16.63" transform="translate(238.266 214.465) rotate(180)" fill="#005362"/>
        <g id="Group_12366" data-name="Group 12366">
          <rect id="Rectangle_8947" data-name="Rectangle 8947" width="7.8" height="19.54" transform="translate(313.297 214.464) rotate(180)" fill="#00a859" opacity="0.8"/>
          <rect id="Rectangle_8948" data-name="Rectangle 8948" width="7.8" height="25.9" transform="translate(301.996 214.46) rotate(180)" fill="#00a859" opacity="0.8"/>
          <rect id="Rectangle_8949" data-name="Rectangle 8949" width="7.8" height="25.9" transform="translate(268.093 214.46) rotate(180)" fill="#00a859" opacity="0.8"/>
          <rect id="Rectangle_8950" data-name="Rectangle 8950" width="7.8" height="50.72" transform="translate(290.695 214.46) rotate(180)" fill="#00a859" opacity="0.8"/>
          <rect id="Rectangle_8951" data-name="Rectangle 8951" width="7.8" height="40.4" transform="translate(279.394 214.463) rotate(180)" fill="#00a859" opacity="0.8"/>
          <rect id="Rectangle_8952" data-name="Rectangle 8952" width="7.8" height="57.93" transform="translate(256.792 214.457) rotate(180)" fill="#00a859" opacity="0.8"/>
        </g>
        <path id="Path_31402" data-name="Path 31402" d="M168.31,270.14a39.174,39.174,0,0,0,66.85,27.69l2.64-2.64,2.64,2.64a39.165,39.165,0,1,0,0-55.39l-2.64,2.64-2.64-2.64a39.16,39.16,0,0,0-66.85,27.7Zm19.93-19.24a27.015,27.015,0,0,1,20.21-7.95,27.97,27.97,0,0,1,18.66,8.35l2.24,2.24h0l8.46,8.46h0l8.13,8.13,4.23,4.23a5.975,5.975,0,0,0,8.46,0h0a5.975,5.975,0,0,0,0-8.46l-12.36-12.36,2.64-2.64a27.128,27.128,0,0,1,22.51-7.78,26.844,26.844,0,0,1,13.23,5.38,27.247,27.247,0,0,1,2.19,41.41c-10.77,10.19-27.85,9.54-38.33-.95l-2.23-2.23h0l-8.46-8.46h0l-8.13-8.13-4.23-4.23a5.975,5.975,0,0,0-8.46,0h0a5.975,5.975,0,0,0,0,8.46l12.36,12.36-2.23,2.23c-10.47,10.47-27.52,11.13-38.29.98A27.213,27.213,0,0,1,188.24,250.9Z" fill="#00a859" opacity="0.8"/>
      </g>
      <g id="Group_12369" data-name="Group 12369">
        <g id="Group_12368" data-name="Group 12368">
          <path id="Path_31403" data-name="Path 31403" d="M360.2,285.11a2,2,0,0,0,.96-.23c-1.23-.43-2.52-1.4-2.52-2.53V211.39c0-1.13,1.24-2.1,2.47-2.53a2.675,2.675,0,0,0-1.1-.23,2.9,2.9,0,0,0-3.19,2.76v70.96C356.82,283.88,358.28,285.11,360.2,285.11Z" fill="#fff"/>
        </g>
        <path id="Path_31404" data-name="Path 31404" d="M361.06,258.99V100.85c0-12.2,4.83-22.09,10.78-22.09s10.78,9.89,10.78,22.09V259H361.06Z" fill="#00a859" opacity="0.8"/>
        <path id="Path_31405" data-name="Path 31405" d="M382.62,217.95v77.16a10.78,10.78,0,0,1-21.56,0V217.95h21.56Z" fill="#00a859" opacity="0.8"/>
        <path id="Path_31406" data-name="Path 31406" d="M382.62,295.12v-7.57H361.06v7.57a10.78,10.78,0,1,0,21.56,0Z" fill="#fff"/>
        <rect id="Rectangle_8953" data-name="Rectangle 8953" width="21.56" height="7.94" transform="translate(361.06 216.82)" fill="#fff"/>
      </g>
    </g>
  </g>
</svg>
