<svg xmlns="http://www.w3.org/2000/svg" width="25.655" height="25" viewBox="0 0 25.655 25">
  <g id="Group_1511" data-name="Group 1511" transform="translate(0 -6.538)">
    <path id="Path_1788" data-name="Path 1788" d="M24.917,30.08H.738A.739.739,0,0,1,0,29.34V7.277a.739.739,0,0,1,.738-.739h24.18a.739.739,0,0,1,.738.739V29.34A.739.739,0,0,1,24.917,30.08Z" fill="#61aff6"/>
    <path id="Path_1789" data-name="Path 1789" d="M24.917,6.538H23.35V28.574a.739.739,0,0,1-.738.739H0v.026a.739.739,0,0,0,.738.739h24.18a.739.739,0,0,0,.738-.739V7.277A.739.739,0,0,0,24.917,6.538Z" fill="#55a2f0"/>
    <path id="Path_1790" data-name="Path 1790" d="M41.767,302.459h0a.639.639,0,0,0,.639.639H52.713a.639.639,0,0,0,.639-.639h0a.639.639,0,0,0-.639-.639H42.406A.639.639,0,0,0,41.767,302.459Z" transform="translate(-39.741 -280.46)" fill="#e6e6e6"/>
    <path id="Path_1791" data-name="Path 1791" d="M65.912,311.7H56.75a.474.474,0,0,1-.507-.508l1-9.368h8.171l1,9.368A.474.474,0,0,1,65.912,311.7Z" transform="translate(-53.513 -280.157)" fill="#7d0"/>
    <path id="Path_1792" data-name="Path 1792" d="M204.9,311.187l-1-9.368h-2.118l1,9.368a.474.474,0,0,1-.507.508h2.118A.474.474,0,0,0,204.9,311.187Z" transform="translate(-191.621 -280.157)" fill="#73cc00"/>
    <path id="Path_1793" data-name="Path 1793" d="M100.725,337.2c-1.805,0-3.18-1.209-3.077-2.613a3.2,3.2,0,0,1,6.154,0C103.905,335.992,102.53,337.2,100.725,337.2Z" transform="translate(-92.698 -309.127)" fill="#b6fa4c"/>
    <g id="Group_1508" data-name="Group 1508" transform="translate(17.017 21.662)">
      <path id="Path_1794" data-name="Path 1794" d="M336.1,304.375h-1.869a.344.344,0,0,1-.344-.344v-1.869a.343.343,0,0,1,.344-.344H336.1a.343.343,0,0,1,.344.344v1.869A.344.344,0,0,1,336.1,304.375Z" transform="translate(-333.891 -301.819)" fill="#ffb125"/>
      <path id="Path_1795" data-name="Path 1795" d="M419.736,304.375h-1.869a.344.344,0,0,1-.344-.344v-1.869a.343.343,0,0,1,.344-.344h1.869a.343.343,0,0,1,.344.344v1.869A.344.344,0,0,1,419.736,304.375Z" transform="translate(-413.467 -301.819)" fill="#ffb125"/>
      <path id="Path_1796" data-name="Path 1796" d="M336.1,386.237h-1.869a.344.344,0,0,1-.344-.344v-1.869a.344.344,0,0,1,.344-.344H336.1a.344.344,0,0,1,.344.344v1.869A.344.344,0,0,1,336.1,386.237Z" transform="translate(-333.891 -379.711)" fill="#ffb125"/>
      <path id="Path_1797" data-name="Path 1797" d="M419.736,386.237h-1.869a.344.344,0,0,1-.344-.344v-1.869a.344.344,0,0,1,.344-.344h1.869a.344.344,0,0,1,.344.344v1.869A.344.344,0,0,1,419.736,386.237Z" transform="translate(-413.467 -379.711)" fill="#ffb125"/>
    </g>
    <path id="Path_1798" data-name="Path 1798" d="M62.66,58.516H42.478a.7.7,0,0,1-.711-.684v-8.2a.7.7,0,0,1,.711-.684H62.66a.7.7,0,0,1,.711.684v8.2A.7.7,0,0,1,62.66,58.516Z" transform="translate(-39.741 -40.357)" fill="#f2f2f2"/>
    <path id="Path_1799" data-name="Path 1799" d="M62.665,48.951H61.029s0,0,0,0v8.2a.7.7,0,0,1-.711.684H41.772a.7.7,0,0,0,.71.679H62.665a.7.7,0,0,0,.711-.684v-8.2A.7.7,0,0,0,62.665,48.951Z" transform="translate(-39.746 -40.356)" fill="#e6e6e6"/>
    <g id="Group_1509" data-name="Group 1509" transform="translate(2.728 28.919)">
      <path id="Path_1800" data-name="Path 1800" d="M58.61,454.081a2.184,2.184,0,0,0-2.139-2.619h0l-.226,2.111a.474.474,0,0,0,.507.508Z" transform="translate(-56.24 -451.462)" fill="#b6fa4c"/>
      <path id="Path_1801" data-name="Path 1801" d="M216.453,454.081a2.184,2.184,0,0,1,2.139-2.619h0l.226,2.111a.474.474,0,0,1-.507.508Z" transform="translate(-208.641 -451.462)" fill="#b6fa4c"/>
    </g>
    <path id="Path_1802" data-name="Path 1802" d="M117.805,360.546c.01-.607.338-1.019.578-1.019.118,0,.279.1.279.225,0,.162-.343.294-.382.793h1.151c.157-.441.333-.93.96-.93a.909.909,0,0,1,.911.93h.142a.129.129,0,0,1,.113.142c0,.073-.054.147-.113.147h-.132c-.01.333-.113.8-.353.8-.093,0-.279-.069-.279-.215,0-.117.157-.245.181-.588h-.994c-.157.426-.372.891-1.038.891a.949.949,0,0,1-1.009-.891h-.166c-.059,0-.113-.073-.113-.147a.129.129,0,0,1,.113-.142h.152Zm2.155.029h.891c-.034-.274-.157-.47-.411-.47C120.161,360.1,120.058,360.315,119.96,360.575Zm-.637.23H118.29a.466.466,0,0,0,.485.431A.573.573,0,0,0,119.323,360.805Z" transform="translate(-111.615 -335.245)" fill="#73cc00"/>
    <g id="Group_1510" data-name="Group 1510" transform="translate(6.153 11.428)">
      <path id="Path_1803" data-name="Path 1803" d="M118.366,107.331a.3.3,0,0,1,.011-.063l1.068-3.5c.063-.2.321-.3.585-.3s.522.1.585.3l1.073,3.5a.3.3,0,0,1,.012.063c0,.212-.327.367-.574.367-.143,0-.258-.046-.293-.166l-.2-.717h-1.211l-.2.717c-.034.121-.149.166-.293.166C118.693,107.7,118.366,107.543,118.366,107.331Zm2.083-1.205-.419-1.538-.419,1.538Z" transform="translate(-118.366 -103.468)" fill="#ff6d3a"/>
      <path id="Path_1804" data-name="Path 1804" d="M219.577,104.178c.189,0,.27.207.27.4,0,.218-.1.407-.27.407h-.792V108.1c0,.184-.224.276-.448.276s-.448-.092-.448-.276v-3.117H217.1c-.172,0-.27-.189-.27-.407,0-.189.08-.4.27-.4Z" transform="translate(-212.053 -104.144)" fill="#ff6d3a"/>
      <path id="Path_1805" data-name="Path 1805" d="M324.174,106.887a.329.329,0,0,1-.3.166.294.294,0,0,1-.281-.166l-.545-1v2.21c0,.184-.224.276-.448.276s-.448-.092-.448-.276v-3.472a.414.414,0,0,1,.448-.448c.321,0,.459.034.694.448l.591,1.033.591-1.033c.235-.413.373-.448.695-.448a.412.412,0,0,1,.448.448V108.1c0,.184-.224.276-.448.276s-.448-.092-.448-.276v-2.152Z" transform="translate(-312.271 -104.144)" fill="#ff6d3a"/>
    </g>
  </g>
</svg>
