<svg id="Component_517_12" data-name="Component 517 – 12" xmlns="http://www.w3.org/2000/svg" width="100" height="50" viewBox="0 0 100 50">
  <g id="Rectangle_1755" data-name="Rectangle 1755" fill="#fff" stroke="#8e8e93" stroke-width="0.5">
    <rect width="100" height="50" rx="5" stroke="none"/>
    <rect x="0.25" y="0.25" width="99.5" height="49.5" rx="4.75" fill="none"/>
  </g>
  <g id="Group_2032" data-name="Group 2032" transform="translate(-37.369 -176.754)">
    <rect id="Rectangle_1716" data-name="Rectangle 1716" width="3.482" height="15.95" transform="translate(67.396 194.15)" fill="#21409a"/>
    <g id="Group_1996" data-name="Group 1996" transform="translate(52.369 194.356)">
      <path id="Path_2032" data-name="Path 2032" d="M246.022,220.907c-.387-1.017-3.922-10.176-3.922-10.176l-3.781,0,.065.167,5.993,15.521h3.279l6.034-15.688H249.9s-3.259,8.486-3.876,10.174" transform="translate(-206.731 -210.678)" fill="#21409a"/>
      <path id="Path_2033" data-name="Path 2033" d="M178.462,223.153a6.67,6.67,0,0,1-3.777.85h-.6V213.176h.49c2.28,0,3.075.178,3.954.806a5.617,5.617,0,0,1,1.823,4.608,5.374,5.374,0,0,1-1.888,4.563m2.759-10.865c-1.467-1.116-3.248-1.544-6.392-1.542h-4.223v15.688h4c3.111,0,4.742-.314,6.16-1.2,2.024-1.277,3.076-3.605,3.074-6.665,0-2.814-.883-4.959-2.617-6.281" transform="translate(-150.521 -210.691)" fill="#21409a"/>
      <path id="Path_2034" data-name="Path 2034" d="M60.773,223.466a11.043,11.043,0,0,1-3.536.242H55.855v-4.051h1.41a13.439,13.439,0,0,1,3.407.28,1.681,1.681,0,0,1,1.339,1.752,1.7,1.7,0,0,1-1.237,1.777M55.859,212.89h1.089c1.788,0,2.986-.061,3.652.279a1.729,1.729,0,0,1,.027,3.115,9.714,9.714,0,0,1-3.538.427h-1.23Zm6.289,5.206c1.967-.542,2.949-1.71,2.936-3.47a3.715,3.715,0,0,0-2.256-3.48c-1.2-.548-2.464-.727-5.149-.726h-5.31v15.688h5.937c2.511,0,3.773-.2,4.919-.776a3.952,3.952,0,0,0,2.279-3.609c.012-1.9-1.138-3.123-3.357-3.627" transform="translate(-52.369 -210.42)" fill="#21409a"/>
    </g>
    <path id="Path_2035" data-name="Path 2035" d="M343.346,194.923,332.94,205.429l10.4,10.5,0,0,10.408-10.5-10.406-10.506" transform="translate(-232.093 -3.461)" fill="#fff"/>
    <path id="Path_2036" data-name="Path 2036" d="M383.956,215.007l0,8.666h3.482v-8.667h-1.666" transform="translate(-274.44 -20.053)" fill="#ed1d24"/>
    <g id="Group_1997" data-name="Group 1997" transform="translate(107.607 196.688)">
      <path id="Path_2037" data-name="Path 2037" d="M372.73,225.154h1.74V230.4h-1.74Zm6.5,5.247-.94,0v-5.247h.941c.955,0,1.682,1.177,1.688,2.622.011,1.412-.732,2.623-1.69,2.623" transform="translate(-372.73 -225.154)" fill="#21409a"/>
    </g>
    <path id="Path_2038" data-name="Path 2038" d="M339.892,212.461l0,0-10.4-10.5,10.406-10.5v0l10.406,10.5ZM328.78,201.968l.091.094,10.605,10.7.417.42.417-.42,10.7-10.791L339.9,190.754" transform="translate(-228.639)" fill="#ed1d24"/>
    <path id="Path_2039" data-name="Path 2039" d="M345.63,261l-5.015-5h-4.922l8.666,8.645.092.092,1.177,1.175L355.573,256h-4.924" transform="translate(-234.377 -53.899)" fill="#ed1d24"/>
  </g>
</svg>
