<svg xmlns="http://www.w3.org/2000/svg" width="41.872" height="41.872" viewBox="0 0 41.872 41.872"><defs><style>.a,.b{fill:none;}.b{stroke:#bdbdbd;stroke-linecap:round;stroke-linejoin:round;stroke-width:3px;}</style></defs><path class="a" d="M0,0H41.872V41.872H0Z"/><path class="b" d="M6.489,9.234H8.234a3.489,3.489,0,0,0,3.489-3.489A1.745,1.745,0,0,1,13.468,4H23.936a1.745,1.745,0,0,1,1.745,1.745A3.489,3.489,0,0,0,29.17,9.234h1.745A3.489,3.489,0,0,1,34.4,12.723v15.7a3.489,3.489,0,0,1-3.489,3.489H6.489A3.489,3.489,0,0,1,3,28.426v-15.7A3.489,3.489,0,0,1,6.489,9.234" transform="translate(2.234 2.979)"/><circle class="b" cx="5" cy="5" r="5" transform="translate(16 17.872)"/></svg>