<svg xmlns="http://www.w3.org/2000/svg" xmlns:xlink="http://www.w3.org/1999/xlink" width="300" height="253.975" viewBox="0 0 300 253.975"><defs><style>.a,.d,.i,.j,.k{fill:#00a859;}.a{opacity:0.18;}.b,.c,.g{opacity:0.1;}.b{fill:url(#a);}.c{fill:url(#b);}.e{fill:url(#c);}.f{fill:url(#d);}.g{fill:url(#e);}.h{opacity:0.74;}.i{opacity:0.54;}.j{opacity:0.48;}.k{opacity:0.52;}.l{fill:url(#f);}.m{fill:url(#g);}.n{fill:url(#h);}.o{fill:#3f3d56;}.p{fill:url(#i);}.q{fill:url(#j);}.r{fill:url(#k);}.s{fill:url(#l);}.t{fill:url(#m);}.u{fill:url(#n);}.v{fill:url(#o);}.w{fill:url(#p);}.x{fill:url(#q);}</style><linearGradient id="a" x1="-0.001" y1="0.499" x2="1" y2="0.499" gradientUnits="objectBoundingBox"><stop offset="0" stop-opacity="0"/><stop offset="0.99"/></linearGradient><linearGradient id="b" x1="0" y1="0.5" x2="1" y2="0.5" xlink:href="#a"/><linearGradient id="c" x1="-0.023" y1="0.619" x2="5.577" y2="-0.189" xlink:href="#a"/><linearGradient id="d" x1="1.529" y1="-0.627" x2="-0.138" y2="1.198" gradientUnits="objectBoundingBox"><stop offset="0" stop-color="#fff" stop-opacity="0"/><stop offset="0.99" stop-color="#fff"/></linearGradient><linearGradient id="e" x1="-2.326" y1="-128.225" x2="1.997" y2="68.875" xlink:href="#a"/><linearGradient id="f" x1="-0.005" y1="0.498" x2="0.993" y2="0.498" gradientUnits="objectBoundingBox"><stop offset="0" stop-color="#ecc4d7"/><stop offset="0.42" stop-color="#efd4d1"/><stop offset="1" stop-color="#f2eac9"/></linearGradient><linearGradient id="g" x1="0.409" y1="0.607" x2="5.351" y2="-2.999" xlink:href="#a"/><linearGradient id="h" x1="-0.002" y1="0.499" x2="0.999" y2="0.499" xlink:href="#f"/><linearGradient id="i" x1="0.655" y1="0.455" x2="1.026" y2="0.416" xlink:href="#a"/><linearGradient id="j" x1="0" y1="0.501" x2="0.999" y2="0.501" xlink:href="#f"/><linearGradient id="k" x1="0" y1="0.501" x2="1" y2="0.501" xlink:href="#f"/><linearGradient id="l" x1="0.827" y1="0.684" x2="-3.188" y2="-2.198" xlink:href="#a"/><linearGradient id="m" x1="0.5" y1="2.081" x2="0.5" y2="-0.989" xlink:href="#d"/><linearGradient id="n" x1="0.994" y1="-1.196" x2="-1.899" y2="8.947" xlink:href="#a"/><linearGradient id="o" x1="0.587" y1="0.523" x2="1.616" y2="1.491" xlink:href="#a"/><linearGradient id="p" x1="0.745" y1="-0.757" x2="0.261" y2="1.607" xlink:href="#d"/><linearGradient id="q" x1="0.773" y1="-0.17" x2="-0.955" y2="4.085" xlink:href="#a"/></defs><g transform="translate(0.002)"><path class="a" d="M21.757,195.511c-9.544,11.391-19.65,24.4-18.674,39.229.778,11.759,8.55,22.338,8.433,34.1s-8.188,22.794-6.433,34.483C7.037,316.594,20.81,324.8,33.857,327.95c27.546,6.651,56.255-.584,84.5-2.805,21.686-1.7,43.482-.4,65.191.894l60.992,3.624c8.188.491,16.668.941,24.323-1.993,7.018-2.683,12.685-7.972,17.545-13.647,10.65-12.367,18.644-28.469,16.147-44.588-4.03-25.985-33.3-43.332-34.979-69.551-.55-8.58,1.842-18.036-2.842-25.243a23.427,23.427,0,0,0-7.457-6.739c-17.826-11.163-40.143-11.432-61.179-11.35l-102.977.386c-11.363.041-30.493-3.705-40.476,2.069C47.595,161.923,21.757,189.977,21.757,195.511Z" transform="translate(-3.02 -76.722)"/><path class="b" d="M461.855,358c.439,4.949-.65,9.171-2.483,11.461a14.024,14.024,0,0,1-7.409,4.48c-2.835.761-12.035,3.069-14.964,3.233,2.846-.884,13.8-4.193,15.227-6.811a33.8,33.8,0,0,0,1.57-3.707c.966-2.43,2.231-13.8,4.1-15.672C460.069,348.829,461.644,355.6,461.855,358Z" transform="translate(-183.261 -157.789)"/><path class="c" d="M200.613,365.475a706.178,706.178,0,0,0-78.63-2.717c-7.45.164-16.187-.17-20.463-6.272,4.773-3.719,11.262-4.1,17.306-4.3,59.4-2.12,114.5-3.918,173.9-6.038-2.723-1.974,0-6.794-.551-10.114,5.857-1.792,18.249.99,22.1,5.06-3.6-2.583-11.286-3.514-14.565-2.173s-5.939,4.293-4.152,7.344c.527.9,1.376,1.669,1.517,2.706.234,1.728-1.575,2.981-3.186,3.649-14.19,5.857-31.444.252-45.154,7.18a5.225,5.225,0,0,0-2.085,1.611c-2.038,3.1,2.741,6.138,6.4,6.753A261.831,261.831,0,0,0,292.6,371.8l-44.914,2.085c1.283,1.534.633,4.018-.861,5.347s-3.549,1.757-5.517,2.108c-16.621,2.84-40.164,1.71-54.091-9.37C191.453,369.486,196.15,367.571,200.613,365.475Z" transform="translate(-44.257 -151.535)"/><path class="d" d="M80.412,132.56,73.97,139.9c-1.124,1.277-2.343,2.788-2.085,4.474a5.271,5.271,0,0,0,1.359,2.524,23.361,23.361,0,0,0,4.141,3.871C79.552,144.87,81.227,138.809,80.412,132.56Z" transform="translate(-31.54 -67.201)"/><path class="e" d="M80.552,132.51l-6.442,7.344c-1.124,1.277-2.343,2.794-2.085,4.474a5.271,5.271,0,0,0,1.329,2.524,23.379,23.379,0,0,0,4.146,3.865C79.715,144.82,81.367,138.765,80.552,132.51Z" transform="translate(-31.598 -67.18)"/><rect class="d" width="193.916" height="194.414" transform="translate(54.978)"/><rect class="f" width="193.916" height="194.414" transform="translate(54.978)"/><rect class="d" width="176.897" height="1.23" transform="translate(24.368 225.386) rotate(-78.53)"/><rect class="d" width="177.389" height="1.23" transform="matrix(0.2, -0.98, 0.98, 0.2, 42.842, 226.242)"/><rect class="d" width="18.8" height="1.23" transform="translate(57.582 63.606)"/><rect class="d" width="18.8" height="1.23" transform="translate(54.623 78.262)"/><rect class="d" width="18.8" height="1.23" transform="translate(51.658 92.911)"/><rect class="d" width="18.8" height="1.23" transform="translate(48.693 107.567)"/><rect class="d" width="18.8" height="1.23" transform="translate(45.729 122.223)"/><rect class="d" width="18.8" height="1.23" transform="translate(42.828 136.879)"/><rect class="d" width="18.8" height="1.23" transform="translate(39.865 151.535)"/><rect class="d" width="18.8" height="1.23" transform="translate(36.895 166.19)"/><rect class="d" width="18.8" height="1.23" transform="translate(33.926 180.846)"/><rect class="d" width="18.8" height="1.23" transform="translate(30.957 195.502)"/><rect class="d" width="18.8" height="1.23" transform="translate(27.988 210.091)"/><path class="g" d="M124.674,253.3l-1.534-139.468-1.283-.246.117,10.618h-3.426a11.372,11.372,0,0,0-.949-4.791c-1.81-3.368-4.1,0-4.756,2.255a4.089,4.089,0,0,1-1.634,2.518h-3.455a5.91,5.91,0,0,0-1.23-.117,4.053,4.053,0,0,0-.755.111h-1.757l-.135-10.805-1.283-.24.164,13.388c-.088.141-.176.287-.252.439a14.329,14.329,0,0,0-1.171,5.019c-1.64,17.236-.773,34.595.1,51.883a30.234,30.234,0,0,0,1.335,8.855,11.128,11.128,0,0,0,.814,1.757l.738,58.87Zm-1.283-.287-17.763-.041-.158-13.113,17.775.041Zm-.158-14.313-17.792-.041-.164-13.113,17.8.047Zm-.158-14.308-17.8-.064-.164-13.113,17.816.047Zm-.158-14.313-17.821-.047-.164-13.113H106.1a4.934,4.934,0,0,0,.5.234,3.977,3.977,0,0,0,3.1-.223h13.072Zm-.158-14.313H111a2.425,2.425,0,0,0,.316-.914c.164-1.224-.515-2.372-.978-3.514a14.57,14.57,0,0,1-.34-8.685l12.621.029Zm-.158-14.313H110.3c.211-.767.457-1.523.72-2.261,1.312-3.619,3.092-7.1,3.959-10.835h7.479Zm-.176-14.313h-7.209c.738-4.3.158-8.785.433-13.113h6.635Zm-.158-14.313h-6.512a21.667,21.667,0,0,1,.545-3.1c.387-1.476.96-2.928,1.2-4.422a22.841,22.841,0,0,0-.105-5.581h4.732Zm-.3-27.42.146,13.113H117.3a18.657,18.657,0,0,1-.047-1.9c.082-2.261.709-4.469.972-6.717a43.094,43.094,0,0,0,.316-4.492Z" transform="translate(-43.461 -59.224)"/><g class="h" transform="translate(76.392 8.082)"><rect class="d" width="37.927" height="3.959"/><rect class="d" width="23.151" height="3.725" transform="translate(0 7.666)"/><rect class="i" width="72.85" height="3.748" transform="translate(32.486 7.666)"/><rect class="d" width="41.008" height="3.748" transform="translate(112.153 7.666)"/><rect class="d" width="31.83" height="3.93" transform="translate(12.041 15.332)"/><rect class="j" width="20.662" height="4.422" transform="translate(12.041 44.797)"/><rect class="d" width="8.726" height="4.404" transform="translate(69.096 58.314)"/><rect class="d" width="20.662" height="4.422" transform="translate(12.041 51.391)"/><rect class="d" width="20.662" height="4.422" transform="translate(12.041 131.199)"/><rect class="d" width="20.662" height="4.422" transform="translate(23.801 94.677)"/><rect class="j" width="20.662" height="4.422" transform="translate(23.801 101.933)"/><rect class="d" width="20.662" height="4.422" transform="translate(23.801 115.784)"/><rect class="d" width="20.662" height="4.422" transform="translate(23.801 123.04)"/><rect class="d" width="20.662" height="4.422" transform="translate(49.529 101.933)"/><rect class="j" width="20.662" height="4.422" transform="translate(49.529 122.818)"/><rect class="d" width="67.075" height="4.422" transform="translate(39.415 131.199)"/><rect class="d" width="37.927" height="3.959" transform="translate(22.261 22.999)"/><rect class="k" width="31.789" height="4.398" transform="translate(62.665 22.999)"/><rect class="d" width="29.289" height="3.725" transform="translate(22.208 30.671)"/><rect class="j" width="42.823" height="3.473" transform="translate(22.208 58.812)"/><rect class="d" width="29.289" height="3.725" transform="translate(136.095 30.671)"/><rect class="d" width="60.44" height="4.129" transform="translate(54.308 30.671)"/><rect class="d" width="13.324" height="4.199" transform="translate(120.487 30.671)"/><rect class="j" width="66.038" height="3.695" transform="translate(22.097 38.337)"/><rect class="d" width="43.555" height="3.859" transform="translate(22.097 138.923)"/><rect class="d" width="37.927" height="3.959" transform="translate(33.804 67.192)"/><rect class="j" width="37.927" height="3.959" transform="translate(33.804 87.198)"/><rect class="d" width="23.034" height="3.83" transform="translate(33.804 167.011)"/><rect class="d" width="15.602" height="3.537" transform="translate(23.42 174.432)"/><rect class="d" width="23.385" height="3.959" transform="translate(33.804 145.243)"/><rect class="d" width="23.385" height="3.959" transform="translate(62.003 145.243)"/><rect class="d" width="23.385" height="3.959" transform="translate(44.527 152.499)"/><rect class="d" width="23.385" height="3.959" transform="translate(72.721 152.499)"/><rect class="d" width="32.082" height="3.959" transform="translate(44.527 159.919)"/><rect class="d" width="8.568" height="3.959" transform="translate(81.629 159.919)"/><rect class="d" width="18.969" height="3.783" transform="translate(33.804 108.967)"/><rect class="d" width="26.401" height="3.526" transform="translate(45.336 80.164)"/><rect class="d" width="26.401" height="3.526" transform="translate(78.753 80.164)"/><rect class="d" width="26.401" height="3.526" transform="translate(78.753 101.494)"/><rect class="d" width="26.401" height="3.526" transform="translate(110.414 80.164)"/><rect class="d" width="43.502" height="3.526" transform="translate(93.312 160.083)"/><rect class="j" width="37.927" height="3.959" transform="translate(78.659 67.192)"/><rect class="d" width="37.927" height="3.959" transform="translate(46.12 73.131)"/><rect class="j" width="37.927" height="3.959" transform="translate(90.97 73.131)"/><rect class="d" width="37.927" height="3.959" transform="translate(121.365 67.192)"/></g><path class="l" d="M123.431,103.823a2.993,2.993,0,0,1-.146-1.066,1.564,1.564,0,0,0,0-.469,1.757,1.757,0,0,0-.381-.586,1.892,1.892,0,0,1-.269-1.757c.4-.082.545-.4.685-.779a3.655,3.655,0,0,1,.486-1.113.3.3,0,0,1,.217-.135.275.275,0,0,1,.223.158c.17.34-.053.8.176,1.1.135.164.369.217.533.346.351.264.369.8.679,1.1a1.247,1.247,0,0,1,.2.193.621.621,0,0,1,.07.387,2.8,2.8,0,0,1-.521,1.447,2.413,2.413,0,0,0-.621,1.072,1.341,1.341,0,0,1-.047.375.5.5,0,0,1-.586.252C123.911,104.3,123.613,103.935,123.431,103.823Z" transform="translate(-52.638 -52.814)"/><path class="d" d="M94.871,131.525a2.647,2.647,0,0,0-.586-.586,1.974,1.974,0,0,0-1.236-.3,9.668,9.668,0,0,0-1.277.211c-1.839.34-3.725-.088-5.593,0-2.1.123-2.881,2.343-3.25,3.233a18.741,18.741,0,0,0-1.37,5.382c-.088.878-.111,1.757-.135,2.647-.105,3.59-.346,7.145-.2,10.735l.234,5.892a1.593,1.593,0,0,0,.264,1,1.523,1.523,0,0,0,.791.416,36.825,36.825,0,0,0,10.243.978c1.757,0,3.76-.105,4.92-1.429,1.277-1.464.943-3.672.674-5.593C97.354,146.74,99.357,137.452,94.871,131.525Z" transform="translate(-35.473 -66.403)"/><path class="m" d="M94.871,131.525a2.647,2.647,0,0,0-.586-.586,1.974,1.974,0,0,0-1.236-.3,9.668,9.668,0,0,0-1.277.211c-1.839.34-3.725-.088-5.593,0-2.1.123-2.881,2.343-3.25,3.233a18.741,18.741,0,0,0-1.37,5.382c-.088.878-.111,1.757-.135,2.647-.105,3.59-.346,7.145-.2,10.735l.234,5.892a1.593,1.593,0,0,0,.264,1,1.523,1.523,0,0,0,.791.416,36.825,36.825,0,0,0,10.243.978c1.757,0,3.76-.105,4.92-1.429,1.277-1.464.943-3.672.674-5.593C97.354,146.74,99.357,137.452,94.871,131.525Z" transform="translate(-35.473 -66.403)"/><path class="n" d="M96.935,123.242a3.514,3.514,0,0,0,1.042-1.171,2.975,2.975,0,0,0,.17-1.4,5.066,5.066,0,0,0-.586-2.149,2.706,2.706,0,0,0-1.722-1.341,2.9,2.9,0,0,0-2.928,1.628,7.778,7.778,0,0,0-.7,3.514c-.041,1.517-1.206,3.836.217,4.369,1.646.615,2.928-1.171,3.2-1.956a3.414,3.414,0,0,1,1.3-1.493Z" transform="translate(-39.776 -60.794)"/><path class="o" d="M96.72,113.339a2.776,2.776,0,0,1-.439,1.464,7.613,7.613,0,0,1-.878,1.347,3.145,3.145,0,0,0-.586.8,2.384,2.384,0,0,0,.129,1.529c-.252.129-.492-.445-.726-.287a.293.293,0,0,0-.088.146,1.048,1.048,0,0,0,.252,1.048.7.7,0,0,1,.187.228c.07.182-.082.369-.152.551-.176.445.135.99-.1,1.406a1.171,1.171,0,0,1-1.019.445c-.685.047-1.37.064-2.056.047a.785.785,0,0,1-.4-.082.843.843,0,0,1-.31-.586,21.762,21.762,0,0,1-.586-5.148,2.46,2.46,0,0,1,.34-1.464c.2-.275.5-.457.72-.709s.428-.732.714-1.048a3.192,3.192,0,0,1,1.529-.773C94.377,111.951,96.591,111.524,96.72,113.339Z" transform="translate(-39.034 -58.653)"/><path class="o" d="M76.568,195.147a14.056,14.056,0,0,1,.064,2.671,13.007,13.007,0,0,1-.48,2.1,60.38,60.38,0,0,1-2.788,8.158c-.808,1.757-1.8,3.514-2.442,5.341a31.262,31.262,0,0,0-1.283,6.659,2.758,2.758,0,0,0,1.441-.931,73.137,73.137,0,0,0,12.961-17.81,18.524,18.524,0,0,0,1.757-4.4,21.265,21.265,0,0,0,.369-3.953,63.53,63.53,0,0,0-.129-8.58,3.416,3.416,0,0,0-1.171-2.641,3.145,3.145,0,0,0-1.37-.369,37.624,37.624,0,0,1-4.808-.351c-.586-.117-1.493-.679-1.927-.3s-.193,2.214-.217,2.717a94.655,94.655,0,0,0,.023,11.69Z" transform="translate(-30.625 -87.168)"/><path class="p" d="M76.568,195.147a14.056,14.056,0,0,1,.064,2.671,13.007,13.007,0,0,1-.48,2.1,60.38,60.38,0,0,1-2.788,8.158c-.808,1.757-1.8,3.514-2.442,5.341a31.262,31.262,0,0,0-1.283,6.659,2.758,2.758,0,0,0,1.441-.931,73.137,73.137,0,0,0,12.961-17.81,18.524,18.524,0,0,0,1.757-4.4,21.265,21.265,0,0,0,.369-3.953,63.53,63.53,0,0,0-.129-8.58,3.416,3.416,0,0,0-1.171-2.641,3.145,3.145,0,0,0-1.37-.369,37.624,37.624,0,0,1-4.808-.351c-.586-.117-1.493-.679-1.927-.3s-.193,2.214-.217,2.717a94.655,94.655,0,0,0,.023,11.69Z" transform="translate(-30.625 -87.168)"/><path class="o" d="M95.915,203.374a28.7,28.7,0,0,1-.375,6.712l-1.517,11.373a1.171,1.171,0,0,0,1.669.392,3.432,3.432,0,0,0,1.171-1.511c2.3-4.521,4.633-9.13,5.488-14.126a39.39,39.39,0,0,0,.439-7.1,87.543,87.543,0,0,0-2.038-17.734,1.171,1.171,0,0,0-.357-.732,1.218,1.218,0,0,0-.855-.105l-5.218.656c-1.247.158-7.332-.029-7.332-.029s2.114,5.2,2.717,6.811C91.541,192.879,95.915,197.963,95.915,203.374Z" transform="translate(-37.886 -87.127)"/><path class="q" d="M67.54,247.686a1.6,1.6,0,0,0,.428.586,7.754,7.754,0,0,0,4.275,2.132,1.271,1.271,0,0,0,1.224-.293.937.937,0,0,0-.146-1.171,3.221,3.221,0,0,0-1.048-.674,3.063,3.063,0,0,1-1.71-1.675C69.724,243.8,66.819,245.4,67.54,247.686Z" transform="translate(-29.707 -113.924)"/><path class="r" d="M97.9,252.822a2.489,2.489,0,0,0,1.259,1.025,6.451,6.451,0,0,0,4.059.773,1.71,1.71,0,0,0,1.025-.586.843.843,0,0,0-.035-1.1c-.316-.287-.814-.2-1.242-.246a1.757,1.757,0,0,1-1.236-.75c-.158-.234-.258-.5-.4-.744C100.063,249.08,96.813,250.591,97.9,252.822Z" transform="translate(-42.322 -116.03)"/><path class="o" d="M67.107,246.048a1.019,1.019,0,0,1,.931-.328c.492.117.75.7,1.218.9.211.088.445.094.662.17a3.215,3.215,0,0,1,1.054.814c.832.761,2.032,1.171,2.583,2.138a.691.691,0,0,1,.076.668.656.656,0,0,1-.457.264,3.873,3.873,0,0,1-2.044.1,21.906,21.906,0,0,1-2.963-1.429c-.521-.316-.9-1.171-1.271-1.681C66.44,247.049,66.586,246.587,67.107,246.048Z" transform="translate(-29.375 -114.172)"/><path class="o" d="M97.716,251.557c-.158-.064-.351-.146-.474-.029a.269.269,0,0,0-.064.094,1.886,1.886,0,0,0,.533,2.126,6.811,6.811,0,0,0,2.032,1.171,8.632,8.632,0,0,0,2.343.82,2.272,2.272,0,0,0,2.2-.82,1.171,1.171,0,0,0,.2-.837c-.123-.644-.855-.925-1.464-1.171-.773-.3-1.447-.861-2.243-1.107C99.76,251.47,98.671,251.95,97.716,251.557Z" transform="translate(-42.06 -116.564)"/><path class="d" d="M103.9,122.035l4.6-2.29a8.357,8.357,0,0,0,1.634-.972c2.735-2.225,2.583-6.337,4-9.564a1,1,0,0,1,.4-.527,1.042,1.042,0,0,1,.521-.035l1.857.223-1.482,10.9a10.367,10.367,0,0,1-.515,2.343,8.6,8.6,0,0,1-.843,1.523,25.769,25.769,0,0,1-6.671,6.823,2.436,2.436,0,0,1-.937.469,1.8,1.8,0,0,1-1.171-.217c-1.271-.662-1.8-2.2-2.044-3.608a7.567,7.567,0,0,1,.644-5.066Z" transform="translate(-44.565 -57.265)"/><path class="s" d="M103.9,122.035l4.6-2.29a8.357,8.357,0,0,0,1.634-.972c2.735-2.225,2.583-6.337,4-9.564a1,1,0,0,1,.4-.527,1.042,1.042,0,0,1,.521-.035l1.857.223-1.482,10.9a10.367,10.367,0,0,1-.515,2.343,8.6,8.6,0,0,1-.843,1.523,25.769,25.769,0,0,1-6.671,6.823,2.436,2.436,0,0,1-.937.469,1.8,1.8,0,0,1-1.171-.217c-1.271-.662-1.8-2.2-2.044-3.608a7.567,7.567,0,0,1,.644-5.066Z" transform="translate(-44.565 -57.265)"/><rect class="d" width="193.916" height="10.881" transform="translate(54.978 194.128)"/><rect class="t" width="193.916" height="8.902" transform="translate(54.978 196.107)"/><path class="d" d="M416.864,350.284a21.59,21.59,0,0,1-7.514,11.889c-7.93,6.665-18.185,8.392-25.394,8.674-.89.035-1.757.053-2.659.053a146.093,146.093,0,0,1-19.116-1.675l-4.416-.586c-7.467-.931-16.07-1.7-23.66.978l-.668-1.9-.7-1.968c8.428-2.975,17.6-2.167,25.529-1.171,1.482.182,2.963.381,4.451.586,6.922.914,14.085,1.862,21.084,1.593,6.565-.258,15.877-1.8,22.917-7.719a18.563,18.563,0,0,0,6.143-9.429,10.6,10.6,0,0,0-.146-5.81,9.815,9.815,0,0,0-1.048-2.225,15.586,15.586,0,0,0-8.633-6.067c-4.551-1.341-9.517-1.171-14.331-1h-.176l-.064-1.8-.082-2.29c4.943-.182,10.542-.387,15.813,1.171,6.132,1.8,10.776,5.9,12.416,10.958a15.069,15.069,0,0,1,.252,7.742Z" transform="translate(-140.061 -149.387)"/><path class="u" d="M416.771,360.63c-.351,4.586-2.676,9.857-7.842,14.2-7.93,6.659-18.19,8.392-25.4,8.668-.884.035-1.757.053-2.659.053a145.916,145.916,0,0,1-19.11-1.675l-4.422-.586c-7.467-.931-16.07-1.7-23.655.978L332.32,378.4c.34-.117.679-.234,1.025-.34l.668,1.9c7.614-2.676,16.193-1.909,23.66-.978l4.416.586a146,146,0,0,0,19.116,1.675c.884,0,1.757,0,2.659-.053,7.209-.281,17.464-2.009,25.394-8.674A21.59,21.59,0,0,0,416.771,360.63Z" transform="translate(-139.887 -161.959)"/><path class="d" d="M288.3,337.21l27.7,6.325-5.277,24.24-18.331,8.791L267.27,365.632l16.849-7.532Z" transform="translate(-111.006 -140.079)"/><path class="v" d="M288.3,337.21l27.7,6.325-5.277,24.24-18.331,8.791L267.27,365.632l16.849-7.532Z" transform="translate(-111.006 -140.079)"/><path class="d" d="M285.448,336.37l27.7,6.319-5.277,24.24L289.9,375.673l-25.119-10.94,16.492-7.479Z" transform="translate(-109.971 -139.731)"/><path class="d" d="M298.94,359.74l21.441,6.764,4.451-19.625L302.571,342.1Z" transform="translate(-124.135 -142.105)"/><path class="w" d="M298.94,359.74l21.441,6.764,4.451-19.625L302.571,342.1Z" transform="translate(-124.135 -142.105)"/><path class="x" d="M451.725,343.245l-.621-.117a15.586,15.586,0,0,0-8.633-6.067c-4.551-1.341-9.675-1.171-14.489-1l-.053-1.968s10.542-.586,16.785,2.413C448.674,338.419,451.725,343.245,451.725,343.245Z" transform="translate(-179.503 -150.856)"/></g></svg>