<svg xmlns="http://www.w3.org/2000/svg" width="24.997" height="24.997" viewBox="0 0 24.997 24.997">
  <g id="Group_1515" data-name="Group 1515" transform="translate(-8 -8)">
    <path id="Path_1821" data-name="Path 1821" d="M28.9,17.613v.806H16v-.806A1.612,1.612,0,0,1,17.613,16h9.676A1.612,1.612,0,0,1,28.9,17.613Z" transform="translate(-7.597 -7.597)" fill="#aab2bd"/>
    <path id="Path_1822" data-name="Path 1822" d="M28.9,432.047v.806a1.612,1.612,0,0,1-1.613,1.613H17.613A1.612,1.612,0,0,1,16,432.853V431.24h8.87l.194-.04a1.615,1.615,0,0,0,1.419.847Z" transform="translate(-7.597 -401.872)" fill="#aab2bd"/>
    <path id="Path_1823" data-name="Path 1823" d="M206.514,179.225h-12.9a1.613,1.613,0,0,1,0-3.225H204.9a1.613,1.613,0,0,1,1.613,1.613Z" transform="translate(-174.727 -159.533)" fill="#8cc152"/>
    <path id="Path_1824" data-name="Path 1824" d="M28.914,65.621a4.839,4.839,0,0,0-1.222,3.217,4.692,4.692,0,0,0,.069.794l-.069.012h-1.21a1.612,1.612,0,0,0-1.613,1.613V81.74a1.623,1.623,0,0,0,.194.766l-.194.04H16V64H28.9v1.613Z" transform="translate(-7.597 -53.178)" fill="#69d6f4"/>
    <path id="Path_1825" data-name="Path 1825" d="M207.321,216.87v1.613a1.612,1.612,0,0,1-1.613,1.613h-12.1A1.613,1.613,0,0,1,192,218.483V208a1.611,1.611,0,0,0,1.613,1.613h12.1a1.612,1.612,0,0,1,1.613,1.613v1.613h-5.241a2.016,2.016,0,1,0,0,4.032Z" transform="translate(-174.727 -189.921)" fill="#b4dd7f"/>
    <path id="Path_1826" data-name="Path 1826" d="M359.257,304v4.032h-5.241a2.016,2.016,0,1,1,0-4.032Z" transform="translate(-326.663 -281.082)" fill="#8cc152"/>
    <path id="Path_1827" data-name="Path 1827" d="M252.838,72.87h-2.673a4.832,4.832,0,0,1-2.1-3.238,4.692,4.692,0,0,1-.069-.794,4.838,4.838,0,1,1,7.511,4.032Z" transform="translate(-227.905 -53.178)" fill="#fcd770"/>
    <path id="Path_1828" data-name="Path 1828" d="M120,456h2.419v.806H120Z" transform="translate(-106.355 -425.422)"/>
    <path id="Path_1829" data-name="Path 1829" d="M32.178,19.692h.013V18.079a2.018,2.018,0,0,0-2.016-2.016H30.15c.01-.134.025-.267.025-.4a5.233,5.233,0,0,0-8.467-4.123V10.016A2.018,2.018,0,0,0,19.692,8H10.016A2.018,2.018,0,0,0,8,10.016V30.981A2.018,2.018,0,0,0,10.016,33h9.676a2.018,2.018,0,0,0,2.016-2.016v-.4h9.273A2.018,2.018,0,0,0,33,28.562V21.3A2.009,2.009,0,0,0,32.178,19.692Zm-2-2.822a1.211,1.211,0,0,1,1.21,1.21v1.25a2.014,2.014,0,0,0-.4-.041H28.7a5.217,5.217,0,0,0,1.325-2.419Zm-5.241-5.644a4.429,4.429,0,0,1,2.538,8.064H25.337v-.864a1.609,1.609,0,0,0-.4-3.168.806.806,0,1,1,.806-.806h.806a1.611,1.611,0,0,0-1.21-1.555v-.864H24.53V12.9a1.609,1.609,0,0,0,.4,3.168.806.806,0,1,1-.806.806h-.806a1.611,1.611,0,0,0,1.21,1.555v.864H22.4a4.429,4.429,0,0,1,2.538-8.064Zm-8.023,17.74h-8.1V11.225H20.9v1.091a5.216,5.216,0,0,0-1.21,3.344c0,.136.015.269.025.4h-.831a2.018,2.018,0,0,0-2.016,2.016V28.562A2.014,2.014,0,0,0,16.911,28.965Zm1.975-12.1h.952a5.224,5.224,0,0,0,.264.806H18.886v.806H20.5v-.047a5.2,5.2,0,0,0,.664.853H18.886a1.21,1.21,0,1,1,0-2.419Zm-8.87-8.064h9.676a1.211,1.211,0,0,1,1.21,1.21v.4H8.806v-.4A1.211,1.211,0,0,1,10.016,8.806ZM20.9,30.981a1.211,1.211,0,0,1-1.21,1.21H10.016a1.211,1.211,0,0,1-1.21-1.21v-1.21h8.467v-.013a2.009,2.009,0,0,0,1.613.819H20.9Zm10.079-1.21h-12.1a1.211,1.211,0,0,1-1.21-1.21V19.691a2.008,2.008,0,0,0,1.21.4h12.1a1.211,1.211,0,0,1,1.21,1.21v1.21H27.353a2.419,2.419,0,1,0,0,4.838h4.838v1.21A1.211,1.211,0,0,1,30.981,29.772Zm1.21-6.451v3.225H27.353a1.613,1.613,0,1,1,0-3.225Z"/>
    <path id="Path_1830" data-name="Path 1830" d="M376,336h.806v.806H376Z" transform="translate(-349.454 -311.47)"/>
    <path id="Path_1831" data-name="Path 1831" d="M400,152h.806v.806H400Z" transform="translate(-372.244 -136.743)"/>
    <path id="Path_1832" data-name="Path 1832" d="M272,152h.806v.806H272Z" transform="translate(-250.695 -136.743)"/>
    <path id="Path_1833" data-name="Path 1833" d="M472,88h.806v.806H472Z" transform="translate(-440.616 -75.968)"/>
    <path id="Path_1834" data-name="Path 1834" d="M472,120h.806v.806H472Z" transform="translate(-440.616 -106.355)"/>
    <path id="Path_1835" data-name="Path 1835" d="M488,104h.806v.806H488Z" transform="translate(-455.809 -91.162)"/>
    <path id="Path_1836" data-name="Path 1836" d="M456,104h.806v.806H456Z" transform="translate(-425.422 -91.162)"/>
    <path id="Path_1837" data-name="Path 1837" d="M200,104h.806v.806H200Z" transform="translate(-182.324 -91.162)"/>
    <path id="Path_1838" data-name="Path 1838" d="M200,136h.806v.806H200Z" transform="translate(-182.324 -121.549)"/>
    <path id="Path_1839" data-name="Path 1839" d="M216,120h.806v.806H216Z" transform="translate(-197.517 -106.355)"/>
    <path id="Path_1840" data-name="Path 1840" d="M184,120h.806v.806H184Z" transform="translate(-167.13 -106.355)"/>
    <path id="Path_1841" data-name="Path 1841" d="M408,8h.806v.806H408Z" transform="translate(-379.841)"/>
    <path id="Path_1842" data-name="Path 1842" d="M408,40h.806v.806H408Z" transform="translate(-379.841 -30.387)"/>
    <path id="Path_1843" data-name="Path 1843" d="M424,24h.806v.806H424Z" transform="translate(-395.035 -15.194)"/>
    <path id="Path_1844" data-name="Path 1844" d="M392,24h.806v.806H392Z" transform="translate(-364.647 -15.194)"/>
  </g>
</svg>
