<svg xmlns="http://www.w3.org/2000/svg" width="30" height="30" viewBox="0 0 30 30">
  <g id="outline" transform="translate(-16 -16)">
    <path id="Path_31273" data-name="Path 31273" d="M16.5,46h29a.5.5,0,0,0,.5-.5V41a.5.5,0,0,0-.5-.5H45a.5.5,0,1,1,0-1h.5A.5.5,0,0,0,46,39V23a.5.5,0,0,0-.5-.5H45a.5.5,0,1,1,0-1h.5A.5.5,0,0,0,46,21V16.5a.5.5,0,0,0-.5-.5h-29a.5.5,0,0,0-.5.5V25a.5.5,0,0,0,.5.5H17a.5.5,0,1,1,0,1h-.5a.5.5,0,0,0-.5.5V38.5a.5.5,0,0,0,.5.5H17a.5.5,0,1,1,0,1h-.5a.5.5,0,0,0-.5.5v5A.5.5,0,0,0,16.5,46Zm.5-5a1.5,1.5,0,1,0,0-3V27.5a1.5,1.5,0,1,0,0-3V17H45v3.5a1.493,1.493,0,0,0-1.06.438h0A1.5,1.5,0,0,0,45,23.5v15a1.5,1.5,0,0,0,0,3V45H17Z" fill="#373737"/>
    <path id="Path_31274" data-name="Path 31274" d="M48.5,51.494H51a.5.5,0,0,0,.5-.5V48.5A.5.5,0,0,0,51,48H48.5a.5.5,0,0,0-.5.5V51A.5.5,0,0,0,48.5,51.494ZM49,49h1.5v1.5H49Z" transform="translate(-30.003 -30.003)" fill="#373737"/>
    <path id="Path_31275" data-name="Path 31275" d="M48,120h1v1H48Z" transform="translate(-30.003 -97.5)" fill="#373737"/>
    <path id="Path_31276" data-name="Path 31276" d="M48,264h1v1H48Z" transform="translate(-30.003 -232.499)" fill="#373737"/>
    <path id="Path_31277" data-name="Path 31277" d="M72,264h1v1H72Z" transform="translate(-52.506 -232.499)" fill="#373737"/>
    <path id="Path_31278" data-name="Path 31278" d="M48,288h1v1H48Z" transform="translate(-30.003 -254.999)" fill="#373737"/>
    <path id="Path_31279" data-name="Path 31279" d="M72,288h1v1H72Z" transform="translate(-52.506 -254.999)" fill="#373737"/>
    <path id="Path_31280" data-name="Path 31280" d="M48,312h1v1H48Z" transform="translate(-30.003 -277.499)" fill="#373737"/>
    <path id="Path_31281" data-name="Path 31281" d="M72,312h1v1H72Z" transform="translate(-52.506 -277.499)" fill="#373737"/>
    <path id="Path_31282" data-name="Path 31282" d="M424,208h1v1h-1Z" transform="translate(-382.493 -179.999)" fill="#373737"/>
    <path id="Path_31283" data-name="Path 31283" d="M448,208h1v1h-1Z" transform="translate(-404.995 -179.999)" fill="#373737"/>
    <path id="Path_31284" data-name="Path 31284" d="M424,232h1v1h-1Z" transform="translate(-382.493 -202.499)" fill="#373737"/>
    <path id="Path_31285" data-name="Path 31285" d="M448,232h1v1h-1Z" transform="translate(-404.995 -202.499)" fill="#373737"/>
    <path id="Path_31286" data-name="Path 31286" d="M424,256h1v1h-1Z" transform="translate(-382.493 -224.999)" fill="#373737"/>
    <path id="Path_31287" data-name="Path 31287" d="M448,256h1v1h-1Z" transform="translate(-404.995 -224.999)" fill="#373737"/>
    <path id="Path_31288" data-name="Path 31288" d="M80,120h1.5v1H80Z" transform="translate(-60.007 -97.5)" fill="#373737"/>
    <path id="Path_31289" data-name="Path 31289" d="M163.481,112H154.5a2.5,2.5,0,0,0-2.5,2.5v13.014a2.5,2.5,0,0,0,2.5,2.5h8.985a2.5,2.5,0,0,0,2.5-2.5V114.5A2.5,2.5,0,0,0,163.481,112Zm1.5,15.517a1.5,1.5,0,0,1-1.5,1.5H154.5a1.5,1.5,0,0,1-1.5-1.5V114.5a1.5,1.5,0,0,1,1.5-1.5h8.985a1.5,1.5,0,0,1,1.5,1.5Z" transform="translate(-127.488 -90.01)" fill="#373737"/>
    <path id="Path_31290" data-name="Path 31290" d="M93.511,48h-2.5a1.5,1.5,0,0,0-1.5,1.5.5.5,0,0,1-.5.5h-1.5v-.5a1.5,1.5,0,0,0-1.5-1.5H81a1.5,1.5,0,0,0-1.5,1.5V50h-3A1.5,1.5,0,0,0,75,51.5V54a.5.5,0,0,1-.5.5h-1A1.5,1.5,0,0,0,72,56v3a1.5,1.5,0,0,0,1.5,1.5.5.5,0,0,1,.5.5v6.5a.5.5,0,0,1-.5.5,1.5,1.5,0,0,0-1.5,1.5v3a1.5,1.5,0,0,0,1.5,1.5H76a1.5,1.5,0,0,0,1.5-1.5.5.5,0,0,1,.5-.5h1.5v.5a1.5,1.5,0,0,0,1.5,1.5h5a1.5,1.5,0,0,0,1.5-1.5v-.5h1.5a.5.5,0,0,1,.5.5,1.5,1.5,0,0,0,1.5,1.5h2.5a1.5,1.5,0,0,0,1.5-1.5V66a1.5,1.5,0,0,0-1.5-1.5.5.5,0,0,1-.5-.5V57.5a.5.5,0,0,1,.5-.5,1.5,1.5,0,0,0,1.5-1.5v-6A1.5,1.5,0,0,0,93.511,48Zm.5,7.5a.5.5,0,0,1-.5.5,1.5,1.5,0,0,0-1.5,1.5V64a1.5,1.5,0,0,0,1.5,1.5.5.5,0,0,1,.5.5v6.5a.5.5,0,0,1-.5.5h-2.5a.5.5,0,0,1-.5-.5,1.5,1.5,0,0,0-1.5-1.5h-4.5v1h2v.5a.5.5,0,0,1-.5.5H81a.5.5,0,0,1-.5-.5v-.5h2.5v-1H78a1.5,1.5,0,0,0-1.5,1.5.5.5,0,0,1-.5.5H73.5a.5.5,0,0,1-.5-.5v-3a.5.5,0,0,1,.5-.5A1.5,1.5,0,0,0,75,67.5V61a1.5,1.5,0,0,0-1.5-1.5A.5.5,0,0,1,73,59V56a.5.5,0,0,1,.5-.5h1A1.5,1.5,0,0,0,76,54V51.5a.5.5,0,0,1,.5-.5H80a.5.5,0,0,0,.5-.5v-1A.5.5,0,0,1,81,49h5a.5.5,0,0,1,.5.5V50h-2v1h4.5a1.5,1.5,0,0,0,1.5-1.5.5.5,0,0,1,.5-.5h2.5a.5.5,0,0,1,.5.5Z" transform="translate(-52.506 -30.003)" fill="#373737"/>
  </g>
</svg>
