<svg xmlns="http://www.w3.org/2000/svg" width="18" height="24" viewBox="0 0 18 24">
  <g id="Group_12" data-name="Group 12" transform="translate(-64)">
    <g id="Group_11" data-name="Group 11" transform="translate(64)">
      <g id="Group_10" data-name="Group 10">
        <path id="Path_8" data-name="Path 8" d="M214.19,281.111l-.33,2.97a.524.524,0,0,0,.52.581h2.094a.524.524,0,0,0,.52-.581l-.33-2.97a2.071,2.071,0,0,0,.857-1.684,2.094,2.094,0,1,0-4.188,0A2.071,2.071,0,0,0,214.19,281.111Zm1.237-2.731a1.043,1.043,0,0,1,.452,1.986.524.524,0,0,0-.292.529l.3,2.72h-.924l.3-2.72a.524.524,0,0,0-.292-.529,1.043,1.043,0,0,1,.452-1.986Z" transform="translate(-206.427 -264.585)" fill="#8e8e93"/>
        <path id="Path_9" data-name="Path 9" d="M81.5,9H80V7A7,7,0,0,0,66,7V9H64.5a.5.5,0,0,0-.5.5V22a2,2,0,0,0,2,2H80a2,2,0,0,0,2-2V9.5A.5.5,0,0,0,81.5,9ZM67,7A6,6,0,1,1,79,7V9H78V7A5,5,0,1,0,68,7V9H67ZM77,7V9H69V7a4,4,0,1,1,8,0Zm4,15a1,1,0,0,1-1,1H66a1,1,0,0,1-1-1V10H81Z" transform="translate(-64)" fill="#8e8e93"/>
      </g>
    </g>
  </g>
</svg>
