<svg xmlns="http://www.w3.org/2000/svg" width="94" height="28.772" viewBox="0 0 94 28.772">
  <g id="Group_75" data-name="Group 75" transform="translate(-70.001 -926)">
    <path id="Path_198" data-name="Path 198" d="M170.82,111.345a14.368,14.368,0,0,1,11.832,6.2,13.032,13.032,0,1,0-2.118,18.8,14.386,14.386,0,1,1-9.714-25Z" transform="translate(-86.433 814.655)" fill="#fff" fill-rule="evenodd"/>
    <path id="Path_199" data-name="Path 199" d="M186.091,135.543l-9.947-15.015H182.2l3.378,7.93,7.554-16.094h9.244Z" transform="translate(-99.978 813.955)" fill="#fff" fill-rule="evenodd"/>
    <path id="Path_200" data-name="Path 200" d="M246.368,139.825h3.988v2.705h-3.988v-2.705Zm0,3.948h3.988v10.4h-3.988v-10.4Zm18.076,6.193h-8a2.575,2.575,0,0,0,.521,1.43,1.888,1.888,0,0,0,1.51.674,2.282,2.282,0,0,0,1.119-.29,2.609,2.609,0,0,0,.7-.651l3.928.361a5.619,5.619,0,0,1-2.174,2.244,7.9,7.9,0,0,1-3.654.681,7.449,7.449,0,0,1-3.253-.584,4.794,4.794,0,0,1-1.964-1.851,5.619,5.619,0,0,1-.778-2.986,5.245,5.245,0,0,1,1.563-3.951,5.944,5.944,0,0,1,4.312-1.51,7.661,7.661,0,0,1,3.524.678,4.562,4.562,0,0,1,1.971,1.961,7.169,7.169,0,0,1,.674,3.343v.451Zm-4.048-1.9a2.667,2.667,0,0,0-.624-1.664,1.954,1.954,0,0,0-2.852.257,2.8,2.8,0,0,0-.461,1.406Zm10.682-8.237v3.948h2.184V146.7h-2.184v3.681a2,2,0,0,0,.127.878.733.733,0,0,0,.688.331,4.361,4.361,0,0,0,1.236-.254l.294,2.756a12.831,12.831,0,0,1-2.759.324,4.818,4.818,0,0,1-2.194-.381,2.347,2.347,0,0,1-1.042-1.159,6.853,6.853,0,0,1-.337-2.518V146.7h-1.463v-2.926h1.463v-1.907l3.988-2.041Zm4.085,0h3.988v5.281a5.318,5.318,0,0,1,1.613-1.209,4.515,4.515,0,0,1,1.894-.364,3.347,3.347,0,0,1,2.555.988,4.307,4.307,0,0,1,.932,3.04v6.613h-4.008v-5.721a2.085,2.085,0,0,0-.361-1.386,1.284,1.284,0,0,0-1.012-.408,1.438,1.438,0,0,0-1.166.548,3.224,3.224,0,0,0-.448,1.971v5h-3.988V139.825Zm17.014,7.315-3.808-.4a4.267,4.267,0,0,1,.622-1.573,3.379,3.379,0,0,1,1.169-1,4.807,4.807,0,0,1,1.5-.471,12.209,12.209,0,0,1,2.074-.167,16.5,16.5,0,0,1,2.873.2,3.689,3.689,0,0,1,1.807.839,2.91,2.91,0,0,1,.8,1.249,4.476,4.476,0,0,1,.294,1.543v4.6a5.436,5.436,0,0,0,.094,1.152,5.108,5.108,0,0,0,.4,1.062h-3.731a3.852,3.852,0,0,1-.294-.608,5,5,0,0,1-.137-.655,5.094,5.094,0,0,1-1.557,1.072,6.469,6.469,0,0,1-2.455.431,4.09,4.09,0,0,1-2.823-.865,2.74,2.74,0,0,1-.965-2.128,2.792,2.792,0,0,1,.695-1.954,4.688,4.688,0,0,1,2.565-1.139q2.24-.451,2.906-.635a12.994,12.994,0,0,0,1.41-.474,1.4,1.4,0,0,0-.3-1.029,1.5,1.5,0,0,0-1.062-.294,2.743,2.743,0,0,0-1.466.314,1.747,1.747,0,0,0-.615.929Zm3.447,2.084c-.548.2-1.119.371-1.717.525a3.936,3.936,0,0,0-1.537.641,1.038,1.038,0,0,0-.007,1.52,1.385,1.385,0,0,0,.965.3,2.485,2.485,0,0,0,1.243-.327,1.961,1.961,0,0,0,.811-.8,2.686,2.686,0,0,0,.241-1.222v-.641Zm5.571,2.064,3.948-.361a1.933,1.933,0,0,0,.685,1,2.05,2.05,0,0,0,1.176.3,1.97,1.97,0,0,0,1.242-.344.757.757,0,0,0,.344-.634.731.731,0,0,0-.451-.668,8.253,8.253,0,0,0-1.71-.411,17.7,17.7,0,0,1-2.883-.671,3.055,3.055,0,0,1-1.359-1.042,2.88,2.88,0,0,1,.043-3.447,3.534,3.534,0,0,1,1.644-1.112,8.742,8.742,0,0,1,2.806-.367,9.638,9.638,0,0,1,2.739.284,3.588,3.588,0,0,1,1.476.882,4.642,4.642,0,0,1,.982,1.62l-3.768.361a1.293,1.293,0,0,0-.488-.731,2,2,0,0,0-1.132-.311,1.592,1.592,0,0,0-.979.24.721.721,0,0,0-.307.581.62.62,0,0,0,.388.578,6.078,6.078,0,0,0,1.7.354,11.669,11.669,0,0,1,2.956.628,3.235,3.235,0,0,1,1.48,1.145,2.815,2.815,0,0,1,.514,1.637,3.207,3.207,0,0,1-.545,1.754,3.677,3.677,0,0,1-1.71,1.356,8.185,8.185,0,0,1-3.183.5,7.532,7.532,0,0,1-4.055-.815A3.65,3.65,0,0,1,301.194,151.288Z" transform="translate(-148.236 795.084)" fill="#fff" fill-rule="evenodd"/>
  </g>
</svg>
