<svg xmlns="http://www.w3.org/2000/svg" xmlns:xlink="http://www.w3.org/1999/xlink" width="300" height="321.993" viewBox="0 0 300 321.993">
  <defs>
    <linearGradient id="linear-gradient" x1="0.496" y1="-3.722" x2="0.521" y2="23.242" gradientUnits="objectBoundingBox">
      <stop offset="0" stop-color="#010101" stop-opacity="0"/>
      <stop offset="0.95" stop-color="#010101"/>
    </linearGradient>
    <linearGradient id="linear-gradient-2" x1="0.492" y1="0.5" x2="1.492" y2="0.5" gradientUnits="objectBoundingBox">
      <stop offset="0" stop-color="#fff" stop-opacity="0"/>
      <stop offset="0.14" stop-color="#fff" stop-opacity="0.22"/>
      <stop offset="0.3" stop-color="#fff" stop-opacity="0.451"/>
      <stop offset="0.45" stop-color="#fff" stop-opacity="0.651"/>
      <stop offset="0.6" stop-color="#fff" stop-opacity="0.8"/>
      <stop offset="0.73" stop-color="#fff" stop-opacity="0.91"/>
      <stop offset="0.85" stop-color="#fff" stop-opacity="0.98"/>
      <stop offset="0.94" stop-color="#fff"/>
    </linearGradient>
    <linearGradient id="linear-gradient-3" x1="0.156" y1="0.5" x2="1.156" y2="0.5" xlink:href="#linear-gradient-2"/>
    <linearGradient id="linear-gradient-4" x1="0.156" y1="0.5" x2="1.156" y2="0.5" xlink:href="#linear-gradient-2"/>
    <linearGradient id="linear-gradient-5" x1="-0.314" y1="0.749" x2="1.753" y2="0.121" xlink:href="#linear-gradient"/>
    <linearGradient id="linear-gradient-6" x1="0.495" y1="0.115" x2="0.525" y2="2.561" xlink:href="#linear-gradient"/>
    <linearGradient id="linear-gradient-7" x1="-0.435" y1="0.424" x2="4.094" y2="0.74" xlink:href="#linear-gradient"/>
    <linearGradient id="linear-gradient-8" x1="0.198" y1="-0.861" x2="1.607" y2="3.449" xlink:href="#linear-gradient"/>
    <linearGradient id="linear-gradient-9" x1="0.524" y1="-0.733" x2="0.444" y2="3.323" xlink:href="#linear-gradient"/>
    <linearGradient id="linear-gradient-10" x1="0.525" y1="-0.732" x2="0.444" y2="3.324" xlink:href="#linear-gradient"/>
    <linearGradient id="linear-gradient-11" x1="0.418" y1="0.061" x2="0.814" y2="1.567" xlink:href="#linear-gradient"/>
    <linearGradient id="linear-gradient-12" x1="1.039" y1="0.265" x2="-1.383" y2="1.015" xlink:href="#linear-gradient"/>
    <linearGradient id="linear-gradient-13" x1="-0.263" y1="1.292" x2="2.596" y2="-1.735" xlink:href="#linear-gradient"/>
    <linearGradient id="linear-gradient-14" x1="0.156" y1="0.5" x2="1.156" y2="0.5" xlink:href="#linear-gradient-2"/>
  </defs>
  <g id="money_transfer_" transform="translate(0.032 -0.009)">
    <path id="Path_2341" data-name="Path 2341" d="M360.414,207.846c.684,31.445-25.2,56.293-49.116,76.8a2,2,0,0,1-.26.232L278.685,312.2a61.576,61.576,0,0,1-13.405,8.887c-21.266,10.493-47.995,9.536-72.46,7.9-19.694-1.367-42.082-4.149-53.456-20.316-3.691-5.291-5.817-11.587-9.823-16.645-5.742-7.294-14.663-11.177-22.743-15.722a98.6,98.6,0,0,1-28.328-24.2c-15-18.785-22.627-42.676-15.114-64.941.116-.376.26-.759.4-1.142,4.58-12.585,13.467-23.112,19.721-34.959,20.145-37.96,14.253-89.652,45.971-118.719,15.374-14.082,36.715-19.551,57.367-22.285,21.553-2.857,43.75-3.22,64.8,2.1C294.8,22.97,330.3,59.207,341.315,102.2a107.688,107.688,0,0,1,2.529,12.708c2,14.567,1.429,29.5,4.457,43.893.834,3.89,1.907,7.7,3.1,11.518C355.267,182.717,360.155,194.926,360.414,207.846Z" transform="translate(-60.46 -7.99)" fill="#00a859" opacity="0.24"/>
    <path id="Path_2342" data-name="Path 2342" d="M322.276,240.46H118.03v8.76H324.874Z" transform="translate(-30.149 -75.926)" fill="url(#linear-gradient)"/>
    <path id="Path_2343" data-name="Path 2343" d="M383.792,211.681l-.575,1.983h-199V145.8H374.034a104.135,104.135,0,0,1,2.446,12.29c1.937,14.088,1.382,28.527,4.31,42.45C381.6,204.3,382.635,207.991,383.792,211.681Z" transform="translate(-92.551 -50.729)" fill="url(#linear-gradient-2)"/>
    <rect id="Rectangle_1993" data-name="Rectangle 1993" width="21.685" height="4.522" transform="translate(177.543 116.877)" fill="url(#linear-gradient-3)"/>
    <rect id="Rectangle_1994" data-name="Rectangle 1994" width="21.685" height="15.728" transform="translate(177.543 136.706)" fill="url(#linear-gradient-4)"/>
    <path id="Path_2344" data-name="Path 2344" d="M207.613,190.233c2.122-4.549,3.471-9.447,5.844-13.883,4.694-8.753,13.222-15.292,16.468-24.68,3.907,1.567,5.216,6.545,4.786,10.737s-2.056,8.257-1.858,12.462a59.705,59.705,0,0,1,39.409-13.612c3.451.1,7.186.661,9.613,3.094,1.692,1.712,2.473,4.106,3.193,6.4,1.851,5.864,3.722,12.039,2.506,18.062-.377,1.864-1.045,3.715-.879,5.606.238,2.585,1.983,5.236.9,7.59a27.833,27.833,0,0,0-1.494,2.466c-.582,1.686.555,3.444.793,5.21.489,3.55-2.644,6.532-5.758,8.29-9.256,5.21-20.243,6.181-30.266,9.705-32.263,11.332-44.493,4.582-44.864,3.425-2.532-7.788-7.742-17.579-8.3-25.718C197.32,199.839,205.227,195.35,207.613,190.233Z" transform="translate(-102.499 -52.286)" fill="#feba7b"/>
    <path id="Path_2345" data-name="Path 2345" d="M237.851,224.413c-1.587,2.592,2.109,5.666,3.7,8.251a6.181,6.181,0,0,0,7.047,3.848c2.724-.119,5.54-.258,7.967-1.507,3.749-1.924,5.772-6.036,7.338-9.95,4.628-11.53,7.431-24.461,3.636-36.315-1.091-3.411-2.995-6.915-6.327-8.231-3.233-1.269-6.869-.126-10.062,1.236-1.851.793-5.388,1.739-6.419,3.59C243.815,186.974,248.687,206.728,237.851,224.413Z" transform="translate(-115.986 -61.542)" fill="url(#linear-gradient-5)"/>
    <path id="Path_2346" data-name="Path 2346" d="M162.191,266.051a4.449,4.449,0,0,1-1.937,1.706c-14.34,8.535-55.223,27.37-67.95,38.14-4.548,3.874-9.11,7.933-14.393,10.631q-1.983-2.486-3.8-5.117a.522.522,0,0,0-.073-.093c-11.9-17.249-17.341-38.074-10.743-57.583,4.31-.41,12.931-6.611,16.257-8.158,12.217-5.626,52.063-19.463,64.981-23.291a4.821,4.821,0,0,1,3.431-.159,5.1,5.1,0,0,1,1.871,2.142,99.2,99.2,0,0,1,11.3,30.742c.555,2.836.965,5.719,1.269,8.595A4.45,4.45,0,0,1,162.191,266.051Z" transform="translate(-60.469 -73.562)" fill="#00a859"/>
    <rect id="Rectangle_1995" data-name="Rectangle 1995" width="51.184" height="92.583" rx="10.56" transform="translate(129.581 87.464)" fill="#00a859"/>
    <rect id="Rectangle_1996" data-name="Rectangle 1996" width="46.014" height="77.179" transform="translate(132.155 93.314)" fill="#fff"/>
    <circle id="Ellipse_396" data-name="Ellipse 396" cx="15.014" cy="15.014" r="15.014" transform="translate(139.161 98.929)" fill="#00a859" opacity="0.16"/>
    <rect id="Rectangle_1997" data-name="Rectangle 1997" width="32.256" height="10.287" rx="3.64" transform="translate(137.619 150.438)" fill="#00a859"/>
    <path id="Path_2347" data-name="Path 2347" d="M267.03,235.972a4.633,4.633,0,0,0,.033.661h-.939a4.584,4.584,0,0,0,.033-.661v-2.149H265v-.813a5.172,5.172,0,0,0,.661,0h1.871a5.743,5.743,0,0,0,.661,0v.813a5.906,5.906,0,0,0-.661,0h-.483Z" transform="translate(-125.138 -79.127)" fill="#fff"/>
    <path id="Path_2348" data-name="Path 2348" d="M272.455,236.627a4.372,4.372,0,0,0-.212-.661c-.132-.377-.185-.469-.291-.562a.456.456,0,0,0-.331-.119h-.436v.7a4.305,4.305,0,0,0,.033.661H270.3a3.914,3.914,0,0,0,.04-.661v-2.307a4.35,4.35,0,0,0-.04-.628h1.772a.959.959,0,0,1,1.091.972.932.932,0,0,1-.251.7,1.077,1.077,0,0,1-.4.212c.218.066.317.165.45.469.066.132.126.278.317.741.046.119.1.225.2.45Zm-.608-2.069a.377.377,0,0,0,.41-.4c0-.238-.139-.364-.4-.364h-.661v.76Z" transform="translate(-126.814 -79.14)" fill="#fff"/>
    <path id="Path_2349" data-name="Path 2349" d="M277.9,236.644a3.512,3.512,0,0,0-.1-.456l-.119-.364h-1.216l-.112.364a2.394,2.394,0,0,0-.106.456h-1a3.524,3.524,0,0,0,.2-.516l.919-2.572a2.325,2.325,0,0,0,.139-.456h1.111a4.051,4.051,0,0,0,.145.456l.926,2.572c.079.225.152.4.2.516Zm-.833-2.816-.4,1.276h.807Z" transform="translate(-128.371 -79.157)" fill="#fff"/>
    <path id="Path_2350" data-name="Path 2350" d="M283.249,234.832a5.156,5.156,0,0,1,.3.509v-1.6a4.335,4.335,0,0,0-.04-.661h.912a4.528,4.528,0,0,0-.033.661V236a5.564,5.564,0,0,0,.033.661h-.939a4.432,4.432,0,0,0-.317-.542l-.787-1.19a4.958,4.958,0,0,1-.311-.522,4.979,4.979,0,0,1,.033.661v.959a4.543,4.543,0,0,0,0,.661H281.2a4.268,4.268,0,0,0,0-.661v-2.241a4.57,4.57,0,0,0,0-.661h.926a2.639,2.639,0,0,0,.3.529Z" transform="translate(-130.26 -79.149)" fill="#fff"/>
    <path id="Path_2351" data-name="Path 2351" d="M287.532,235.44a.562.562,0,0,0,.106.317.622.622,0,0,0,.5.2c.324,0,.522-.145.522-.39a.317.317,0,0,0-.178-.3,3.72,3.72,0,0,0-.661-.172,1.78,1.78,0,0,1-.661-.245.978.978,0,0,1-.41-.82c0-.661.529-1.071,1.368-1.071a1.388,1.388,0,0,1,1.183.483,1.2,1.2,0,0,1,.212.516l-.9.1c-.053-.278-.2-.4-.529-.4s-.456.145-.456.337a.291.291,0,0,0,.2.271,2.511,2.511,0,0,0,.588.145,2.037,2.037,0,0,1,.661.238.959.959,0,0,1,.463.873,1.091,1.091,0,0,1-.3.787,1.574,1.574,0,0,1-1.124.357,2.03,2.03,0,0,1-.952-.2.992.992,0,0,1-.456-.549,1.475,1.475,0,0,1-.1-.4Z" transform="translate(-131.978 -79.11)" fill="#fff"/>
    <path id="Path_2352" data-name="Path 2352" d="M292.666,235.89a4.834,4.834,0,0,0,.033.741h-.919a3.966,3.966,0,0,0,.04-.727v-2.221a4.141,4.141,0,0,0,0-.621h1.858a4.816,4.816,0,0,0,.714,0v.813a6.046,6.046,0,0,0-.714-.033H292.7v.7h.8a4.519,4.519,0,0,0,.661,0v.793a5.708,5.708,0,0,0-.661-.033h-.8Z" transform="translate(-133.616 -79.144)" fill="#fff"/>
    <path id="Path_2353" data-name="Path 2353" d="M298.9,236.663a4.44,4.44,0,0,0-.7,0h-1.95a3.863,3.863,0,0,0,0-.621v-2.36a4.354,4.354,0,0,0,0-.621h1.99a5.492,5.492,0,0,0,.661,0v.8a5.5,5.5,0,0,0-.661,0h-1.111v.628h1.58v.787a5.444,5.444,0,0,0-.661-.033h-.919v.721h1.1a5.88,5.88,0,0,0,.694,0Z" transform="translate(-135.028 -79.143)" fill="#fff"/>
    <path id="Path_2354" data-name="Path 2354" d="M303.075,236.627a4.971,4.971,0,0,0-.2-.661c-.139-.377-.192-.469-.3-.562a.456.456,0,0,0-.331-.119h-.436v.7a4.305,4.305,0,0,0,.033.661h-.919a3.921,3.921,0,0,0,.04-.661v-2.307a4.385,4.385,0,0,0-.04-.628h1.765c.694,0,1.091.357,1.091.972a.932.932,0,0,1-.251.7,1.031,1.031,0,0,1-.4.212c.218.066.317.165.45.469.066.132.126.278.317.741.046.119.1.225.2.45Zm-.6-2.069a.37.37,0,0,0,.4-.4c0-.238-.139-.364-.4-.364h-.661v.76Z" transform="translate(-136.495 -79.14)" fill="#fff"/>
    <rect id="Rectangle_1998" data-name="Rectangle 1998" width="32.256" height="10.287" rx="3.64" transform="translate(137.619 150.438)" fill="url(#linear-gradient-6)"/>
    <path id="Path_2355" data-name="Path 2355" d="M304.257,199.617c.516.8,1.369,1.388,1.659,2.294.522,1.646-1.058,3.173-1.454,4.859-.615,2.645,1.719,5.137,1.481,7.808-.172,2.03-1.8,3.907-1.322,5.877-1.983-2.9-6.975-1.659-8.733,1.388s-1.256,6.836-.661,10.3c.661,3.623,1.845,7.808,5.289,9.084,2.6.952,5.448-.178,7.98-1.289q-1.858-6.8-3.385-13.692A18.068,18.068,0,0,1,313.9,228.4c1.1-3.444,1.111-7.127,1.117-10.737l.033-24.772V180.1c0-2.552,1.58-2.737-.3-4.33-2.433,4.013-9.884,1.9-10.261,6.657-.258,3.206,1.983,5.553,1.183,8.905C305.13,193.944,302.525,196.9,304.257,199.617Z" transform="translate(-134.168 -60.065)" fill="url(#linear-gradient-7)"/>
    <path id="Path_2356" data-name="Path 2356" d="M360.542,330.417a3.426,3.426,0,0,1-1.15.945c-4.013,2.347-8.3,4.793-12.964,4.773-6.843-.046-7.834,5.719-12.5.714-6.155-6.611-18.333-20.25-24.025-27.284-4.846-5.95-6.525-11.94-7.034-19.642-.185-2.512-.344-5.143.6-7.5.5-1.322,3.087-6.71,3.689-8.026a9.99,9.99,0,0,0,.364-.945,14.579,14.579,0,0,0-.549-9.566h0a33.276,33.276,0,0,0-2.644-5.58c-2.883-4.912-6.459-9.751-6.876-15.4a5.973,5.973,0,0,1,.972-4.172c1.382-1.752,4.125-1.845,6.109-.807a14.23,14.23,0,0,1,4.661,4.707c3.57,5.137,6.915,10.419,9.983,15.867a7.459,7.459,0,0,1,7.517-2.466,12.232,12.232,0,0,1,6.776,4.588c1.13,1.474,2.122,3.154,3.762,4.006,1.322.694,2.856.74,4.264,1.177,5.117,1.527,7.378,7.312,9.778,12.085,1.778,3.55,3.967,6.915,5.289,10.677a39.125,39.125,0,0,1,1.726,11.113c.416,9.388-.231,18.954,2.261,28.018A3.43,3.43,0,0,1,360.542,330.417Z" transform="translate(-133.963 -78.034)" fill="#feba7b"/>
    <path id="Path_2357" data-name="Path 2357" d="M334.36,367.254c2.565,2.552,8.138,9.209,10.71,11.761a9.721,9.721,0,0,0,3.967,2.8c1.322.37-.3-3.92,1.045-4.145,6.492-1.084,17.03-2.863,23.073-5.474l-1.051-4.866c-2.049-1.091-10.73.6-13.222.727q-6.267.311-12.561.086C344.164,368.074,335.881,368.761,334.36,367.254Z" transform="translate(-146.186 -121.168)" fill="url(#linear-gradient-8)"/>
    <path id="Path_2358" data-name="Path 2358" d="M398.7,397.969a1.908,1.908,0,0,1-.251.225l-28.62,24.124-2.645,2.261a59.553,59.553,0,0,1-12.965,8.595c-7.12-18.214-11.55-52.645-11.55-52.645l3.808-1.13,34.583-10.168Z" transform="translate(-148.248 -119.821)" fill="#00a859"/>
    <rect id="Rectangle_1999" data-name="Rectangle 1999" width="67.242" height="35.125" transform="translate(202.678 117.233)" fill="#00a859"/>
    <path id="Path_2359" data-name="Path 2359" d="M417.525,191.726v14.069c-2.995.073-5.408,3.134-5.408,6.915a2.949,2.949,0,0,0,0,.483H365.151a2.963,2.963,0,0,0,0-.483c0-3.815-2.446-6.915-5.461-6.915a4.625,4.625,0,0,0-1.17.172V191.56a4.626,4.626,0,0,0,1.17.172c3.015,0,5.434-3.061,5.461-6.882H412.09C412.143,188.625,414.563,191.653,417.525,191.726Z" transform="translate(-151.618 -63.55)" fill="url(#linear-gradient-9)"/>
    <rect id="Rectangle_2000" data-name="Rectangle 2000" width="67.242" height="35.125" transform="translate(208.198 104.726)" fill="#00a859"/>
    <path id="Path_2360" data-name="Path 2360" d="M425.868,173.482v14.075c-2.988.066-5.408,3.127-5.408,6.915a2.375,2.375,0,0,0,.033.483H373.5a2.949,2.949,0,0,0,0-.483c0-3.821-2.446-6.915-5.461-6.915a4.318,4.318,0,0,0-1.17.172v-14.4a4.314,4.314,0,0,0,1.17.172c3.015,0,5.434-3.061,5.461-6.882h46.94C420.507,170.408,422.906,173.436,425.868,173.482Z" transform="translate(-154.447 -57.823)" fill="url(#linear-gradient-10)"/>
    <path id="Path_2361" data-name="Path 2361" d="M250.476,165.691a19.8,19.8,0,0,0,.3-11.1,13.361,13.361,0,0,0-3.266-6.611,2.506,2.506,0,0,0-1.653-.879c-1.21,0-1.917,1.322-2.327,2.459q-2.578,7.147-4.681,14.459a22.915,22.915,0,0,0-1.216,6.968c.119,4.059,2.354,7.213,6,4.013A23.737,23.737,0,0,0,250.476,165.691Z" transform="translate(-116.331 -51.68)" fill="#feba7b"/>
    <path id="Path_2362" data-name="Path 2362" d="M314.2,172c-2.129.767-3.967,2.763-3.881,5.031a5.663,5.663,0,0,0,3,4.41,16.8,16.8,0,0,0,5.289,1.659,10.188,10.188,0,0,0-7.537,5.474c-1.038,2.083-1.2,4.859.416,6.538a6.063,6.063,0,0,0,2.063,1.322,12.374,12.374,0,0,0,4.145.945,6.353,6.353,0,0,0-6.492,5.686,5.7,5.7,0,0,0,6.1,5.772,5.109,5.109,0,0,0-5.461,3.808,6.519,6.519,0,0,0,2.413,6.479,9.071,9.071,0,0,0,6.915,1.6,4.384,4.384,0,0,0,3.134-1.686,5.447,5.447,0,0,0,.35-3.55c-1.56-13.467,3.795-26.947.436-40.223-.443-1.732-3.458-3.107-5.157-3.6A10.261,10.261,0,0,0,314.2,172Z" transform="translate(-139.192 -59.001)" fill="#feba7b"/>
    <path id="Path_2363" data-name="Path 2363" d="M165.358,282.967a4.449,4.449,0,0,1-1.937,1.706c-14.34,8.535-55.223,27.37-67.95,38.14-4.548,3.874-9.11,7.933-14.393,10.631a34.825,34.825,0,0,1-3.8-5.117.52.52,0,0,0-.073-.093,151.74,151.74,0,0,1-7.4-13.764c14.624,1.613,92.861-42.662,92.861-42.662a5.34,5.34,0,0,1,1.64.093c.555,2.836.965,5.719,1.269,8.595a4.449,4.449,0,0,1-.212,2.473Z" transform="translate(-63.636 -89.991)" fill="url(#linear-gradient-11)"/>
    <path id="Path_2364" data-name="Path 2364" d="M369.829,427.13l-2.645,2.261a59.553,59.553,0,0,1-12.965,8.595c-7.12-18.214-11.55-52.645-11.55-52.645l3.808-1.13a43.467,43.467,0,0,1,4.859-.78c2.863,6.34,5.7,12.68,7.98,19.278,1.362,3.967,2.539,7.973,4.059,11.9s3.715,7.014,5.838,10.578A4.631,4.631,0,0,1,369.829,427.13Z" transform="translate(-149.11 -124.634)" fill="url(#linear-gradient-12)"/>
    <path id="Path_2365" data-name="Path 2365" d="M319.948,302.147a2.307,2.307,0,0,1-.436,1.613c-.76.78-2.049.2-2.949-.417-2.1-1.408-4.337-3.048-4.846-5.514a10.334,10.334,0,0,1,.165-3.57c.3-1.983.483-4.039.595-6.089a4.245,4.245,0,0,0-.139-1.064,14.579,14.579,0,0,0-.549-9.566c2.512,4.886,5.322,12.244,5.858,13.579A30.929,30.929,0,0,1,319.948,302.147Z" transform="translate(-139.778 -92.711)" fill="url(#linear-gradient-13)"/>
    <path id="Path_2366" data-name="Path 2366" d="M217.91,201.433h7.662l-1.408-2.043h1.745l2.757,3.372H218.075Z" transform="translate(-68.771 -63.038)" fill="#00a859"/>
    <path id="Path_2367" data-name="Path 2367" d="M228.666,207.449h-7.656l1.408,2.043h-1.745l-2.763-3.372H228.5Z" transform="translate(-68.771 -65.166)" fill="#00a859"/>
    <path id="Path_2368" data-name="Path 2368" d="M283.48,179.808v-2.314a6.651,6.651,0,0,1-3.53-1.018l.555-1.54a6.175,6.175,0,0,0,3.306.992c1.64,0,2.75-.952,2.75-2.261s-.9-2.056-2.644-2.75c-2.354-.926-3.808-1.983-3.808-3.967a3.737,3.737,0,0,1,3.484-3.715V160.9h1.435v2.241a6.194,6.194,0,0,1,3,.807l-.582,1.527a5.546,5.546,0,0,0-2.9-.787c-1.778,0-2.446,1.064-2.446,1.983,0,1.2.853,1.8,2.856,2.644,2.38.972,3.583,2.169,3.583,4.225a4.009,4.009,0,0,1-3.649,3.92v2.4Z" transform="translate(-129.769 -56.147)" fill="#00a859"/>
    <path id="Path_2369" data-name="Path 2369" d="M408.79,190.891v-2.327a6.75,6.75,0,0,1-3.53-1.018l.549-1.547a6.161,6.161,0,0,0,3.306.992c1.64,0,2.75-.945,2.75-2.261s-.9-2.056-2.611-2.744c-2.354-.926-3.808-1.983-3.808-3.967a3.747,3.747,0,0,1,3.484-3.722V171.97h1.448v2.241a6.076,6.076,0,0,1,3,.807l-.582,1.521a5.547,5.547,0,0,0-2.9-.787c-1.778,0-2.453,1.064-2.453,1.983,0,1.2.859,1.8,2.863,2.645,2.38.965,3.583,2.169,3.583,4.225a4.014,4.014,0,0,1-3.649,3.92v2.4Z" transform="translate(-169.332 -59.634)" fill="#00a859"/>
    <rect id="Rectangle_2001" data-name="Rectangle 2001" width="21.685" height="25.242" transform="translate(183.157 104.607)" opacity="0.48" fill="url(#linear-gradient-14)"/>
    <rect id="Rectangle_2002" data-name="Rectangle 2002" width="21.685" height="17.083" transform="translate(183.157 123.66)" opacity="0.48" fill="url(#linear-gradient-14)"/>
  </g>
</svg>
