<svg xmlns="http://www.w3.org/2000/svg" xmlns:xlink="http://www.w3.org/1999/xlink" width="300" height="340.163" viewBox="0 0 300 340.163">
  <defs>
    <linearGradient id="linear-gradient" x1="0.519" y1="-1.255" x2="0.486" y2="1.575" gradientUnits="objectBoundingBox">
      <stop offset="0.01"/>
      <stop offset="0.13" stop-opacity="0.69"/>
      <stop offset="1" stop-opacity="0"/>
    </linearGradient>
    <linearGradient id="linear-gradient-2" x1="0.263" y1="0.506" x2="1.743" y2="0.471" xlink:href="#linear-gradient"/>
    <linearGradient id="linear-gradient-3" x1="0.528" y1="1.477" x2="0.468" y2="-0.617" xlink:href="#linear-gradient"/>
    <linearGradient id="linear-gradient-4" x1="0.456" y1="-0.427" x2="0.6" y2="2.609" xlink:href="#linear-gradient"/>
    <linearGradient id="linear-gradient-5" x1="0.524" y1="-0.253" x2="0.482" y2="1.941" xlink:href="#linear-gradient"/>
    <linearGradient id="linear-gradient-6" x1="0.524" y1="-0.253" x2="0.482" y2="1.938" xlink:href="#linear-gradient"/>
    <linearGradient id="linear-gradient-7" x1="0.548" y1="-0.36" x2="0.427" y2="1.831" xlink:href="#linear-gradient"/>
    <linearGradient id="linear-gradient-8" x1="0.548" y1="-0.36" x2="0.426" y2="1.831" xlink:href="#linear-gradient"/>
    <linearGradient id="linear-gradient-9" x1="0.345" y1="-3.281" x2="0.712" y2="4.473" gradientUnits="objectBoundingBox">
      <stop offset="0.02" stop-color="#fff" stop-opacity="0"/>
      <stop offset="0.32" stop-color="#fff" stop-opacity="0.388"/>
      <stop offset="0.68" stop-color="#fff" stop-opacity="0.678"/>
      <stop offset="1" stop-color="#fff"/>
    </linearGradient>
    <linearGradient id="linear-gradient-10" x1="0.358" y1="-3.031" x2="0.725" y2="4.724" xlink:href="#linear-gradient"/>
    <linearGradient id="linear-gradient-11" x1="0.321" y1="-3.729" x2="0.688" y2="3.944" xlink:href="#linear-gradient-9"/>
    <linearGradient id="linear-gradient-12" x1="0.298" y1="-3.588" x2="0.715" y2="3.824" xlink:href="#linear-gradient"/>
    <linearGradient id="linear-gradient-13" x1="0.365" y1="-2.782" x2="0.732" y2="4.974" xlink:href="#linear-gradient-9"/>
    <linearGradient id="linear-gradient-14" x1="0.334" y1="-3.532" x2="0.701" y2="4.223" xlink:href="#linear-gradient"/>
    <linearGradient id="linear-gradient-15" x1="0.38" y1="-2.531" x2="0.747" y2="5.224" xlink:href="#linear-gradient"/>
    <linearGradient id="linear-gradient-16" x1="0" y1="0.5" x2="1" y2="0.5" xlink:href="#linear-gradient-9"/>
    <linearGradient id="linear-gradient-19" x1="1.56" y1="0.928" x2="-0.323" y2="0.167" xlink:href="#linear-gradient"/>
    <linearGradient id="linear-gradient-20" x1="0.455" y1="-1.653" x2="0.552" y2="3.027" xlink:href="#linear-gradient"/>
    <linearGradient id="linear-gradient-21" x1="0" y1="0.5" x2="1" y2="0.5" xlink:href="#linear-gradient-9"/>
    <linearGradient id="linear-gradient-23" y1="0.504" x2="1" y2="0.504" gradientUnits="objectBoundingBox">
      <stop offset="0" stop-color="#e5c5d5"/>
      <stop offset="0.42" stop-color="#ead4d1"/>
      <stop offset="1" stop-color="#f0e9cb"/>
    </linearGradient>
    <linearGradient id="linear-gradient-24" x1="0.388" y1="-0.105" x2="0.811" y2="2.417" gradientUnits="objectBoundingBox">
      <stop offset="0" stop-opacity="0"/>
      <stop offset="0.99"/>
    </linearGradient>
    <linearGradient id="linear-gradient-25" x1="31.421" y1="-16.87" x2="32.531" y2="-16.87" xlink:href="#linear-gradient-23"/>
    <linearGradient id="linear-gradient-26" x1="0" y1="0.497" x2="1" y2="0.497" xlink:href="#linear-gradient-23"/>
    <linearGradient id="linear-gradient-27" x1="0.463" y1="-0.495" x2="0.584" y2="2.788" xlink:href="#linear-gradient"/>
    <linearGradient id="linear-gradient-28" x1="1.048" y1="0.367" x2="-0.705" y2="0.793" xlink:href="#linear-gradient"/>
    <linearGradient id="linear-gradient-29" x1="0.995" y1="0.288" x2="-0.588" y2="0.967" xlink:href="#linear-gradient"/>
    <linearGradient id="linear-gradient-30" x1="0.744" y1="-0.125" x2="-0.032" y2="1.862" xlink:href="#linear-gradient"/>
    <linearGradient id="linear-gradient-31" x1="0.744" y1="-0.125" x2="-0.032" y2="1.862" xlink:href="#linear-gradient"/>
    <linearGradient id="linear-gradient-32" x1="0.744" y1="-0.124" x2="-0.032" y2="1.862" xlink:href="#linear-gradient"/>
    <linearGradient id="linear-gradient-33" x1="0.744" y1="-0.125" x2="-0.032" y2="1.861" xlink:href="#linear-gradient"/>
  </defs>
  <g id="online_store_" transform="translate(-0.03 0.001)">
    <path id="Path_30770" data-name="Path 30770" d="M333.228,267.219c-1.1,5.723-2.512,11.489-5.388,16.524a13.5,13.5,0,0,1-.866,1.374v-.2l-284.49-.783v1.235c-.866-22.942-6.063-45.632-6.124-68.6a151.984,151.984,0,0,1,5.11-39.3c3.213-12.071,7.986-23.864,15.374-33.918,20.164-27.456,55.616-37.684,84.329-55.912,30.549-19.385,41.177-62.9,74.75-76.324,17.7-7.1,38.4-5.775,55.46,2.731s30.463,23.916,37.375,41.745c8.852,22.864,7.267,48.224,10.1,72.584,3.569,30.787,14.283,60.356,16.881,91.178A174.9,174.9,0,0,1,333.228,267.219Z" transform="translate(-36.33 -6.73)" fill="#00a859" opacity="0.41"/>
    <path id="Path_30771" data-name="Path 30771" d="M327.942,326.514v.364c-18.744,37.961-62.727,59.825-83.229,60.363l-143.27,1.213c-32.645,0-58.093-27.271-58.093-59.921V325.7Z" transform="translate(-37.265 -48.291)" fill="#00a859" opacity="0.66"/>
    <path id="Path_30772" data-name="Path 30772" d="M86.132,340.181c-1.681.641-3.725,2.157-2.911,3.76a3.162,3.162,0,0,0,1.516,1.239c17.118,9.027,37.164,10.153,56.49,11.106l75.367,3.682c11.981.58,24.507,1.065,35.388-3.968a71.46,71.46,0,0,0,11.738-7.355q7.8-5.613,15.42-11.374c1.273-.953,2.6-2.062,2.885-3.63.286-1.8-1.109-3.534-2.789-4.253a12.612,12.612,0,0,0-5.406-.606q-24.975.866-49.967.7a262.835,262.835,0,0,1-31.663-1.577c-17.083-2.174-33.369-4.5-50.608-2.339C122.689,327.932,103.839,333.38,86.132,340.181Z" transform="translate(-42.572 -48.158)" fill="url(#linear-gradient)"/>
    <rect id="Rectangle_8392" data-name="Rectangle 8392" width="132.385" height="230.648" rx="18.54" transform="translate(107.058 49.95)" fill="#00a859"/>
    <rect id="Rectangle_8393" data-name="Rectangle 8393" width="132.385" height="230.648" rx="18.54" transform="translate(107.058 49.95)" fill="url(#linear-gradient-2)"/>
    <rect id="Rectangle_8394" data-name="Rectangle 8394" width="132.385" height="230.648" rx="18.54" transform="translate(98.822 49.95)" fill="#00a859"/>
    <path id="Path_30773" data-name="Path 30773" d="M274.465,93.247V262.96a12.76,12.76,0,0,1-12.752,12.76H175.432a12.752,12.752,0,0,1-12.752-12.76V93.247a10.508,10.508,0,0,1,10.5-10.517h90.769A10.525,10.525,0,0,1,274.465,93.247Z" transform="translate(-53.246 -16.401)" fill="#fff"/>
    <path id="Path_30774" data-name="Path 30774" d="M278.1,225.71v56.369a12.76,12.76,0,0,1-12.752,12.76H189.83V225.71Z" transform="translate(-56.878 -35.245)" fill="#00a859"/>
    <path id="Path_30775" data-name="Path 30775" d="M278.087,225.71v56.369a12.769,12.769,0,0,1-12.743,12.76H189.83V225.71Z" transform="translate(-56.878 -35.245)" fill="url(#linear-gradient-3)"/>
    <path id="Path_30776" data-name="Path 30776" d="M278.511,263.24V287.1a12.7,12.7,0,0,1-3.517,8.793H193V263.24Z" transform="translate(-57.302 -40.239)" fill="url(#linear-gradient-4)"/>
    <path id="Path_30777" data-name="Path 30777" d="M120.68,76.067,93.73,104.888H213.39L237.4,75.66Z" transform="translate(-12.551 -9.886)" fill="#00a859"/>
    <path id="Path_30778" data-name="Path 30778" d="M135.459,76l-24.143,28.761,102.291.1H93.73l.728-.684,9.642-9.035L121.91,75.99Z" transform="translate(-12.548 -9.93)" fill="url(#linear-gradient-5)"/>
    <path id="Path_30779" data-name="Path 30779" d="M176.384,75.52,152.406,104.7l102.291.1H134.82l.728-.684,22.809-28.189Z" transform="translate(-18.051 -9.868)" fill="url(#linear-gradient-6)"/>
    <path id="Path_30780" data-name="Path 30780" d="M216,75.52,192.026,104.7l-17.586.1.728-.684,22.809-28.189Z" transform="translate(-23.346 -9.868)" fill="url(#linear-gradient-7)"/>
    <path id="Path_30781" data-name="Path 30781" d="M253.364,75.52,229.386,104.7l-17.586.1.728-.684,22.809-28.189Z" transform="translate(-28.347 -9.868)" fill="url(#linear-gradient-8)"/>
    <path id="Path_30782" data-name="Path 30782" d="M191.12,116.12h17.161a8.663,8.663,0,0,1-17.161,0Z" transform="translate(-57.044 -21.046)" fill="#00a859"/>
    <path id="Path_30783" data-name="Path 30783" d="M171,116.12h17.161a8.663,8.663,0,0,1-17.161,0Z" transform="translate(-54.351 -21.046)" fill="#00a859"/>
    <path id="Path_30784" data-name="Path 30784" d="M248.47,116a8.663,8.663,0,0,1-17.17.1h17.066Z" transform="translate(-62.422 -21.03)" fill="#00a859"/>
    <path id="Path_30785" data-name="Path 30785" d="M266.036,116c-.416,4.331-3.6,7.684-7.467,7.684s-7.008-3.318-7.459-7.589h14.865Z" transform="translate(-65.074 -21.03)" fill="#00a859"/>
    <path id="Path_30786" data-name="Path 30786" d="M151,116.12h17.161a8.663,8.663,0,0,1-17.161,0Z" transform="translate(-51.674 -21.046)" fill="#00a859"/>
    <path id="Path_30787" data-name="Path 30787" d="M211.207,116.12h17.144a8.663,8.663,0,0,1-17.161,0Z" transform="translate(-59.731 -21.046)" fill="#00a859"/>
    <path id="Path_30788" data-name="Path 30788" d="M130.86,116.12h17.161a8.663,8.663,0,0,1-17.161,0Z" transform="translate(-48.979 -21.046)" fill="#00a859"/>
    <path id="Path_30789" data-name="Path 30789" d="M191.12,116.12h17.161a8.663,8.663,0,0,1-17.161,0Z" transform="translate(-57.044 -21.046)" fill="url(#linear-gradient-9)"/>
    <path id="Path_30790" data-name="Path 30790" d="M171,116.12h17.161a8.663,8.663,0,0,1-17.161,0Z" transform="translate(-54.351 -21.046)" fill="url(#linear-gradient-10)"/>
    <path id="Path_30791" data-name="Path 30791" d="M248.46,116.12a8.663,8.663,0,0,1-17.17.1h17.074Z" transform="translate(-62.421 -21.046)" fill="url(#linear-gradient-11)"/>
    <path id="Path_30792" data-name="Path 30792" d="M265.984,116.06c-.407,4.331-3.586,7.693-7.441,7.693s-6.982-3.327-7.433-7.589h14.813Z" transform="translate(-65.074 -21.038)" fill="url(#linear-gradient-12)"/>
    <path id="Path_30793" data-name="Path 30793" d="M151,116.12h17.161a8.663,8.663,0,0,1-17.161,0Z" transform="translate(-51.674 -21.046)" fill="url(#linear-gradient-13)"/>
    <path id="Path_30794" data-name="Path 30794" d="M211.207,116.12h17.144a8.663,8.663,0,0,1-17.161,0Z" transform="translate(-59.731 -21.046)" fill="url(#linear-gradient-14)"/>
    <path id="Path_30795" data-name="Path 30795" d="M130.86,116.12h17.161a8.663,8.663,0,0,1-17.161,0Z" transform="translate(-48.979 -21.046)" fill="url(#linear-gradient-15)"/>
    <path id="Path_30796" data-name="Path 30796" d="M114.33,104.924l23.719-28.717,17.568-.217-23.883,28.934Z" transform="translate(-15.3 -9.93)" fill="url(#linear-gradient-16)"/>
    <path id="Path_30797" data-name="Path 30797" d="M154.61,104.9l23.719-28.717,16.494-.372L172.014,104.9Z" transform="translate(-20.692 -9.906)" fill="url(#linear-gradient-16)"/>
    <path id="Path_30798" data-name="Path 30798" d="M194.89,104.9,218.6,76.182l16.5-.372L212.285,104.9Z" transform="translate(-26.084 -9.906)" fill="url(#linear-gradient-16)"/>
    <path id="Path_30799" data-name="Path 30799" d="M231.88,104.913l23.008-4.557,1.247-24.836Z" transform="translate(-31.033 -9.868)" fill="#00a859"/>
    <path id="Path_30800" data-name="Path 30800" d="M232.1,104.633l23.008-4.557,1.256-24.836Z" transform="translate(-31.063 -9.831)" fill="url(#linear-gradient-19)"/>
    <rect id="Rectangle_8395" data-name="Rectangle 8395" width="28.241" height="9.806" rx="4.903" transform="translate(145.898 265.1)" fill="url(#linear-gradient-20)"/>
    <circle id="Ellipse_867" data-name="Ellipse 867" cx="22.775" cy="22.775" r="22.775" transform="translate(79.334 118.417)" fill="#00a859"/>
    <circle id="Ellipse_868" data-name="Ellipse 868" cx="22.775" cy="22.775" r="22.775" transform="translate(75.289 118.417)" fill="url(#linear-gradient-21)"/>
    <circle id="Ellipse_869" data-name="Ellipse 869" cx="20.167" cy="20.167" r="20.167" transform="translate(55.809 169.551)" fill="#00a859"/>
    <circle id="Ellipse_870" data-name="Ellipse 870" cx="20.167" cy="20.167" r="20.167" transform="translate(52.224 169.551)" fill="url(#linear-gradient-16)"/>
    <path id="Path_30801" data-name="Path 30801" d="M233.416,196.053c-2.824,3.032-4.461,6.93-6.064,10.777l-4.513,10.932a1.958,1.958,0,0,0-.147,1.663,1.888,1.888,0,0,0,1.429.719,69,69,0,0,0,6.93.693q17.577,1.092,35.214.806a9.529,9.529,0,0,0,4.124-.7c3.24-1.637,3.465-6.142,2.919-9.72a51.559,51.559,0,0,0-3.465-12.128,13.686,13.686,0,0,0-2.512-4.2c-2.685-2.815-6.93-3.266-10.837-3.379C249.078,191.332,238.978,190.067,233.416,196.053Z" transform="translate(-61.257 -30.843)" fill="#00a859"/>
    <path id="Path_30802" data-name="Path 30802" d="M223.975,193.691a1.637,1.637,0,0,0-1.733-1.334,18.973,18.973,0,0,0-3.058.113,2.937,2.937,0,0,0-1.785.667,2.9,2.9,0,0,0-.65,1.551c-.823,4.461.13,9.035.494,13.557.251,3.084.277,6.358,1.94,8.957a8.212,8.212,0,0,0,6.93,3.716,3.043,3.043,0,0,0,2.919-1.49,3.621,3.621,0,0,0,.147-1.672C228.583,209.639,227.414,201.159,223.975,193.691Z" transform="translate(-60.431 -30.984)" fill="#00a859"/>
    <path id="Path_30803" data-name="Path 30803" d="M222.576,187.777c.546-1.178,1.291-2.252,1.941-3.379a2.33,2.33,0,0,0,.355-.936.866.866,0,0,0-.45-.866c-.65-.251-1.169.65-1.845.788s-1.161-.4-1.6-.866a21.319,21.319,0,0,0-6.705-4.513,1.117,1.117,0,0,0-.866-.121c-.269.121-.346.6-.069.684a1.239,1.239,0,0,1-.762-.191c-.243-.1-.6-.113-.71.13s.217.6.13.866a2.418,2.418,0,0,1-.866-.139c-.295-.052-.684,0-.736.338a.867.867,0,0,0,0,.338,7.932,7.932,0,0,1,0,1.36,5.917,5.917,0,0,0,1.447,3.257,49.375,49.375,0,0,1,4.331,6.341,8.047,8.047,0,0,0,1.221,2.01c.71.762,3.344,1.845,4.037.52.329-.624.061-1.992.182-2.72a11.669,11.669,0,0,1,.97-2.9Z" transform="translate(-59.621 -29.11)" fill="url(#linear-gradient-23)"/>
    <path id="Path_30804" data-name="Path 30804" d="M261.037,209.444a3.916,3.916,0,0,1-.459,3.292,4.357,4.357,0,0,1-3.257,1.161c-5.778.3-11.677-.693-17.326.624a3.465,3.465,0,0,0-2.114,1.092,3.864,3.864,0,0,0-.39,2.815l.485,4.132-5.631-1.022a1.587,1.587,0,0,1-.6-.208,1.455,1.455,0,0,1-.442-.979,27.477,27.477,0,0,1-.6-6.558,9.235,9.235,0,0,1,2.46-5.969,11.487,11.487,0,0,1,5.024-2.6,68.081,68.081,0,0,1,13.4-1.975c1.949-.156,5.2-.589,6.87.736C259.859,205.113,260.69,207.789,261.037,209.444Z" transform="translate(-62.343 -32.402)" fill="url(#linear-gradient-24)"/>
    <path id="Path_30805" data-name="Path 30805" d="M238.186,173.32a14.814,14.814,0,0,0,.147,4.245,7.97,7.97,0,0,0,4.791,5.484c1.733.684,3.786.866,4.972,2.278s1.126,3.292,2.348,4.47a3.742,3.742,0,0,0,4.565.182,6.462,6.462,0,0,0,2.486-4.132,26.725,26.725,0,0,0,.286-4.929,46.3,46.3,0,0,1,.546-6.566,31.368,31.368,0,0,0,.546-4.583,14.432,14.432,0,0,0-1.014-5.2c-1.464-3.855-4.479-7.329-8.472-8.351a8.836,8.836,0,0,0-9.668,3.985c-1,1.62-.91,3.266-1.031,5.2Q238.446,169.344,238.186,173.32Z" transform="translate(-63.332 -26.222)" fill="url(#linear-gradient-25)"/>
    <path id="Path_30806" data-name="Path 30806" d="M236.308,150.361c-.719-.295-1.689-.563-2.148.061a1.516,1.516,0,0,0-.217.866,4.747,4.747,0,0,0,1.039,3.023,2.954,2.954,0,0,0-2,.6c-.806.8-.407,2.2.3,3.075a12.151,12.151,0,0,1,2.114,2.6c.225.546.277,1.152.494,1.733a1.568,1.568,0,0,0,1.256,1.109c.78,0,1.273-.78,1.733-1.429a8.091,8.091,0,0,1,10.941-1.984c3.344,2.374,4.271,6.852,4.938,10.9.338.243.537-.407.667-.8.294-.866,1.646-.788,2.131-.052a2.391,2.391,0,0,1-.191,2.495c-.468.745-1.152,1.334-1.663,2.053a.7.7,0,0,0,.087,1.092,14.174,14.174,0,0,0,1.317,1.161,1.663,1.663,0,0,0,1.3.485,1.55,1.55,0,0,0,.814-.563c1.733-1.94,2.408-4.635,2.781-7.225s.346-5.51-1.663-7.069c-.4-.3-.866-.528-1.23-.866a7.941,7.941,0,0,1-1.577-2.218,18.712,18.712,0,0,0-9.451-7.935,9.763,9.763,0,0,0-5.717-.8,9.053,9.053,0,0,1-6.055-.312Z" transform="translate(-62.589 -25.459)" fill="#b7a451"/>
    <path id="Path_30807" data-name="Path 30807" d="M224.839,222.931c-.3.381-.58.962-.243,1.308a1.083,1.083,0,0,0,.823.182l10.343-.615a1.378,1.378,0,0,0,.494-.087c.52-.234.554-.936.52-1.507l-.182-2.668c-.061-.962.139-1.256-.8-1.386a11.5,11.5,0,0,0-4.149.58A13.35,13.35,0,0,0,224.839,222.931Z" transform="translate(-61.504 -34.4)" fill="url(#linear-gradient-26)"/>
    <rect id="Rectangle_8396" data-name="Rectangle 8396" width="85.545" height="25.365" transform="translate(135.663 193.47)" fill="url(#linear-gradient-27)"/>
    <path id="Path_30808" data-name="Path 30808" d="M124.666,174.579H102.81l3.708-19.769H121.5Z" transform="translate(-13.757 -20.243)" fill="#fff"/>
    <path id="Path_30809" data-name="Path 30809" d="M156.313,162.7H146.94v-.866a4.687,4.687,0,1,1,9.373,0Zm-7.589-1.689h5.769a3.006,3.006,0,0,0-5.769,0Z" transform="translate(-51.13 -26.418)" fill="#fff"/>
    <rect id="Rectangle_8397" data-name="Rectangle 8397" width="16.399" height="17.811" transform="translate(141.672 200.704)" fill="#00a859"/>
    <rect id="Rectangle_8398" data-name="Rectangle 8398" width="16.399" height="17.811" transform="translate(141.672 200.704)" fill="url(#linear-gradient-28)"/>
    <rect id="Rectangle_8399" data-name="Rectangle 8399" width="16.399" height="10.092" transform="translate(162.849 208.432)" fill="url(#linear-gradient-29)"/>
    <rect id="Rectangle_8400" data-name="Rectangle 8400" width="16.399" height="17.811" transform="translate(139.342 200.704)" fill="#00a859"/>
    <rect id="Rectangle_8401" data-name="Rectangle 8401" width="12.743" height="9.278" transform="translate(163.188 209.447)" fill="#00a859"/>
    <rect id="Rectangle_8402" data-name="Rectangle 8402" width="16.399" height="17.811" transform="translate(141.308 236.837)" fill="#00a859"/>
    <rect id="Rectangle_8403" data-name="Rectangle 8403" width="12.743" height="9.278" transform="translate(162.824 245.578)" fill="#00a859"/>
    <circle id="Ellipse_871" data-name="Ellipse 871" cx="5.769" cy="5.769" r="5.769" transform="translate(185.448 207.183)" fill="url(#linear-gradient-30)"/>
    <circle id="Ellipse_872" data-name="Ellipse 872" cx="5.769" cy="5.769" r="5.769" transform="translate(183.326 207.183)" fill="#00a859"/>
    <circle id="Ellipse_873" data-name="Ellipse 873" cx="5.769" cy="5.769" r="5.769" transform="translate(180.19 243.471)" fill="url(#linear-gradient-31)"/>
    <circle id="Ellipse_874" data-name="Ellipse 874" cx="5.769" cy="5.769" r="5.769" transform="translate(178.06 243.471)" fill="#00a859"/>
    <circle id="Ellipse_875" data-name="Ellipse 875" cx="7.693" cy="7.693" r="7.693" transform="translate(201.774 203.332)" fill="url(#linear-gradient-32)"/>
    <circle id="Ellipse_876" data-name="Ellipse 876" cx="7.693" cy="7.693" r="7.693" transform="translate(198.942 203.332)" fill="#00a859"/>
    <circle id="Ellipse_877" data-name="Ellipse 877" cx="7.693" cy="7.693" r="7.693" transform="translate(194.49 239.352)" fill="url(#linear-gradient-33)"/>
    <circle id="Ellipse_878" data-name="Ellipse 878" cx="7.693" cy="7.693" r="7.693" transform="translate(191.658 239.352)" fill="#00a859"/>
    <path id="Path_30810" data-name="Path 30810" d="M119.687,219.758c0,4.279-2.244,6.393-4.869,6.393s-4.7-2.027-4.739-6.064,2.218-6.333,4.895-6.333C117.807,213.711,119.687,215.894,119.687,219.758Zm-7.424.191c-.061,2.6.91,4.557,2.6,4.557s2.6-1.94,2.6-4.617c0-2.469-.719-4.522-2.6-4.522C113.173,215.366,112.263,217.428,112.263,219.949Zm2.374,14.727,11.911-20.955h1.733l-11.9,20.947Zm18.244-6.514c0,4.271-2.252,6.393-4.834,6.393s-4.713-2.027-4.739-6.064,2.209-6.359,4.894-6.359c2.833-.026,4.678,2.148,4.678,6.021Zm-7.424.182c0,2.6.97,4.557,2.651,4.557,1.811,0,2.6-1.932,2.6-4.617,0-2.46-.719-4.522-2.6-4.522-1.715-.009-2.651,2.018-2.651,4.574Z" transform="translate(-46.197 -33.793)" fill="#fff"/>
  </g>
</svg>
