<svg xmlns="http://www.w3.org/2000/svg" width="45" height="50.087" viewBox="0 0 45 50.087">
  <g id="Group_2697" data-name="Group 2697" transform="translate(-26)">
    <g id="Group_2692" data-name="Group 2692" transform="translate(58.26 38.715)">
      <g id="Group_2691" data-name="Group 2691">
        <path id="Path_2752" data-name="Path 2752" d="M356.994,396a.993.993,0,1,0,.993.993A.994.994,0,0,0,356.994,396Z" transform="translate(-356 -396)" fill="#fff"/>
      </g>
    </g>
    <g id="Group_2694" data-name="Group 2694" transform="translate(26)">
      <g id="Group_2693" data-name="Group 2693" transform="translate(0)">
        <path id="Path_2753" data-name="Path 2753" d="M61.67,35.576l-4.65-1.55-1.669-3.339a10.714,10.714,0,0,0,2.9-5.668l.208-1.248h1.78a2.938,2.938,0,0,0,2.935-2.935V14.674a14.674,14.674,0,1,0-29.348,0v6.163A2.939,2.939,0,0,0,35.783,23.6V24.75a2.938,2.938,0,0,0,2.935,2.935h.859a10.613,10.613,0,0,0,1.641,2.541c.139.159.283.314.431.464L39.98,34.026l-4.65,1.55C29.924,37.379,26,43.07,26,49.109a.978.978,0,0,0,.978.978H70.022A.978.978,0,0,0,71,49.109C71,43.07,67.076,37.379,61.67,35.576Zm-.452-14.739a.979.979,0,0,1-.978.978H58.746c.249-1.926.414-3.976.481-5.995,0-.057,0-.112.005-.168h1.985Zm-24.457.978a.979.979,0,0,1-.978-.978V15.652h1.986q0,.153.01.308v.01h0c.068,1.964.232,3.96.475,5.844H36.761Zm1.957,3.913a.979.979,0,0,1-.978-.978v-.978h.8l.208,1.248c.04.237.089.474.145.708ZM37.741,13.7H35.82a12.718,12.718,0,0,1,25.36,0H59.259a9.908,9.908,0,0,0-9.884-9.783H47.625A9.908,9.908,0,0,0,37.741,13.7ZM47.624,5.87h1.751A7.955,7.955,0,0,1,57.3,13.834c0,.308,0,.576-.008.82,0,0,0,.006,0,.01l-1.224-.175a15.719,15.719,0,0,1-8.838-4.419.979.979,0,0,0-.692-.287A8.85,8.85,0,0,0,39.739,13,7.952,7.952,0,0,1,47.624,5.87Zm-6.7,19.859a55.916,55.916,0,0,1-1.174-9.494l1.317-1.756a6.886,6.886,0,0,1,5.092-2.728A17.694,17.694,0,0,0,55.8,16.425l1.44.206c-.1,2.043-.293,4.093-.575,5.979v0c-.09.606-.16,1-.341,2.086a8.309,8.309,0,0,1-5.9,6.683,7.7,7.7,0,0,1-8.64-3.7h1.994a2.939,2.939,0,0,0,2.767,1.957H48.5a2.935,2.935,0,1,0,0-5.87H46.543a2.936,2.936,0,0,0-2.768,1.957Zm5.539,7.632a9.812,9.812,0,0,0,3.639.082L48.371,35.27Zm.565,3.332-3.1,3.281a37.273,37.273,0,0,1-2.19-5.079l1.165-2.33Zm6.91-4.459,1.331,2.662a37.263,37.263,0,0,1-2.191,5.08l-3.321-3.321Zm-8.371-5.527a.978.978,0,0,1,.978-.978H48.5a.978.978,0,0,1,0,1.957H46.543A.979.979,0,0,1,45.565,26.707ZM28,48.13a12.363,12.363,0,0,1,7.953-10.7l4.118-1.372a39.214,39.214,0,0,0,2.784,6.04l.005.01h0A39.225,39.225,0,0,0,45.535,46.2l1.2,1.932Zm20.5-.872-1.327-2.13q-.022-.036-.048-.07a37.3,37.3,0,0,1-2.2-3.293l3.489-3.689,3.676,3.676a37.258,37.258,0,0,1-2.212,3.306C49.827,45.123,49.895,45.022,48.5,47.258Zm1.762.872,1.2-1.932a39.209,39.209,0,0,0,2.7-4.122l.014-.026,0,0a39.183,39.183,0,0,0,2.755-5.988l4.118,1.372A12.363,12.363,0,0,1,69,48.13Z" transform="translate(-26)" fill="#fff"/>
      </g>
    </g>
    <g id="Group_2696" data-name="Group 2696" transform="translate(61.576 40.459)">
      <g id="Group_2695" data-name="Group 2695">
        <path id="Path_2754" data-name="Path 2754" d="M395.551,418.709a9.932,9.932,0,0,0-2.812-3.414.993.993,0,1,0-1.212,1.575,7.935,7.935,0,0,1,2.246,2.727.994.994,0,0,0,1.778-.888Z" transform="translate(-391.139 -415.088)" fill="#fff"/>
      </g>
    </g>
  </g>
</svg>
