<svg xmlns="http://www.w3.org/2000/svg" xmlns:xlink="http://www.w3.org/1999/xlink" width="299.441" height="315.343" viewBox="0 0 299.441 315.343"><defs><style>.a,.b{fill:#00a859;}.a{opacity:0.18;}.c{fill:url(#a);}.d{fill:url(#b);}.e{fill:url(#c);}.f{fill:url(#d);}.g{fill:url(#e);}.h{fill:url(#f);}.i{fill:url(#g);}.j{fill:url(#h);}.k{fill:url(#i);}.l{fill:url(#j);}.m{fill:url(#k);}.n{fill:url(#l);}.o{fill:url(#m);}.p{fill:url(#n);}.q{fill:url(#o);}.r{fill:url(#p);}.s{fill:url(#q);}.t{fill:url(#r);}.u{fill:url(#s);}.v{fill:url(#t);}.w{fill:url(#u);}.x{fill:url(#v);}.ab,.y{opacity:0.19;}.y{fill:url(#w);}.z{fill:#25233a;}.aa{fill:#3f3d56;}.ab{fill:url(#x);}.ac{fill:url(#y);}.ad{fill:url(#z);}.ae{fill:url(#aa);}.af{fill:url(#ab);}.ag{fill:url(#ac);}.ah{fill:url(#ad);}.ai{fill:url(#ae);}.aj{fill:url(#af);}.ak{fill:url(#ag);}.al{fill:url(#ah);}.am{fill:url(#ai);}.an{fill:url(#aj);}.ao{fill:url(#ak);}.ap{fill:url(#al);}.aq{fill:url(#am);}.ar{fill:url(#an);}.as{fill:url(#ao);}.at{fill:url(#ap);}.au{fill:url(#aq);}.av{fill:url(#ar);}.aw{fill:url(#as);}.ax{fill:url(#at);}.ay{fill:url(#au);}.az{fill:url(#av);}.ba{fill:url(#aw);}.bb{fill:url(#ax);}.bc{fill:url(#ay);}.bd{fill:url(#az);}.be{fill:url(#ba);}.bf{fill:url(#bb);}.bg{fill:url(#bc);}</style><linearGradient id="a" x1="1.679" y1="3.262" x2="1.425" y2="2.726" gradientUnits="objectBoundingBox"><stop offset="0"/><stop offset="1" stop-opacity="0"/></linearGradient><linearGradient id="b" x1="0.644" y1="3.278" x2="1.644" y2="3.278" xlink:href="#a"/><linearGradient id="c" x1="1.19" y1="3.315" x2="1.188" y2="3.962" gradientUnits="objectBoundingBox"><stop offset="0" stop-color="#68e1fd"/><stop offset="1" stop-color="#69b9eb"/></linearGradient><linearGradient id="d" x1="1.26" y1="5.704" x2="1.217" y2="5.12" gradientUnits="objectBoundingBox"><stop offset="0"/><stop offset="0.84" stop-opacity="0"/></linearGradient><linearGradient id="e" x1="0.643" y1="3.278" x2="1.643" y2="3.278" xlink:href="#a"/><linearGradient id="f" x1="0.611" y1="3.78" x2="0.717" y2="4.247" gradientUnits="objectBoundingBox"><stop offset="0.32" stop-color="#fff" stop-opacity="0"/><stop offset="1" stop-color="#fff"/></linearGradient><linearGradient id="g" x1="1.452" y1="2.93" x2="1.308" y2="3.592" xlink:href="#a"/><linearGradient id="h" x1="1.521" y1="3.359" x2="1.168" y2="4.958" xlink:href="#d"/><linearGradient id="i" x1="1.363" y1="3.508" x2="1.498" y2="3.637" xlink:href="#a"/><linearGradient id="j" x1="1.19" y1="3.315" x2="1.188" y2="3.962" xlink:href="#c"/><linearGradient id="k" x1="0.696" y1="4.828" x2="1.696" y2="4.828" xlink:href="#c"/><linearGradient id="l" x1="0.666" y1="3.278" x2="1.666" y2="3.278" xlink:href="#a"/><linearGradient id="m" x1="0.613" y1="3.726" x2="0.75" y2="4.258" xlink:href="#f"/><linearGradient id="n" x1="0.599" y1="-0.303" x2="0.493" y2="-1.299" xlink:href="#a"/><linearGradient id="o" x1="1.359" y1="3.619" x2="1.23" y2="4.575" xlink:href="#a"/><linearGradient id="p" x1="0.64" y1="3.278" x2="1.64" y2="3.278" xlink:href="#a"/><linearGradient id="q" x1="0.57" y1="3.695" x2="0.661" y2="4.227" xlink:href="#f"/><linearGradient id="r" x1="1.174" y1="3.885" x2="1.219" y2="4.713" xlink:href="#d"/><linearGradient id="s" x1="1.188" y1="4.833" x2="1.706" y2="4.55" xlink:href="#a"/><linearGradient id="t" x1="0.754" y1="3.278" x2="1.754" y2="3.278" xlink:href="#a"/><linearGradient id="u" x1="1.261" y1="3.22" x2="1.143" y2="4.707" xlink:href="#a"/><linearGradient id="v" x1="1.157" y1="4.268" x2="1.253" y2="5.65" xlink:href="#f"/><linearGradient id="w" x1="1.621" y1="3.519" x2="2.621" y2="3.519" gradientUnits="objectBoundingBox"><stop offset="0" stop-color="#183866"/><stop offset="1" stop-color="#1a7fc1"/></linearGradient><linearGradient id="x" x1="0.5" y1="3.152" x2="0.5" y2="1.477" xlink:href="#w"/><linearGradient id="y" x1="4.974" y1="3.838" x2="3.499" y2="1.603" xlink:href="#a"/><linearGradient id="z" x1="1.866" y1="2.403" x2="0.219" y2="0.112" xlink:href="#a"/><linearGradient id="aa" x1="0.527" y1="1.057" x2="0.493" y2="0.192" xlink:href="#a"/><linearGradient id="ab" x1="2.373" y1="3.7" x2="3.373" y2="3.7" xlink:href="#a"/><linearGradient id="ac" x1="0.424" y1="1.726" x2="0.501" y2="0.095" gradientUnits="objectBoundingBox"><stop offset="0"/><stop offset="0.07" stop-opacity="0.839"/><stop offset="1" stop-opacity="0"/></linearGradient><linearGradient id="ad" x1="0.92" y1="1.549" x2="1.054" y2="0.174" gradientUnits="objectBoundingBox"><stop offset="0" stop-color="#fff" stop-opacity="0"/><stop offset="0.54" stop-color="#fff"/></linearGradient><linearGradient id="ae" x1="0.075" y1="9.176" x2="1.673" y2="12.624" xlink:href="#a"/><linearGradient id="af" x1="-0.329" y1="8.305" x2="1.27" y2="11.753" xlink:href="#a"/><linearGradient id="ag" x1="2.738" y1="4.102" x2="2.664" y2="2.476" gradientUnits="objectBoundingBox"><stop offset="0" stop-color="#fff" stop-opacity="0"/><stop offset="0.67" stop-color="#fff"/></linearGradient><linearGradient id="ah" x1="2.696" y1="2.164" x2="5.374" y2="4.406" xlink:href="#a"/><linearGradient id="ai" x1="17.035" y1="8.265" x2="20.969" y2="14.571" xlink:href="#a"/><linearGradient id="aj" x1="16.828" y1="8.14" x2="20.706" y2="14.304" xlink:href="#a"/><linearGradient id="ak" x1="1.275" y1="5.589" x2="1.033" y2="2.374" xlink:href="#a"/><linearGradient id="al" x1="1.23" y1="1.303" x2="0.337" y2="0.29" xlink:href="#a"/><linearGradient id="am" x1="2.373" y1="3.7" x2="3.373" y2="3.7" xlink:href="#a"/><linearGradient id="an" x1="1.16" y1="4.561" x2="1.236" y2="6.477" xlink:href="#a"/><linearGradient id="ao" x1="7.486" y1="4.193" x2="5.228" y2="1.839" xlink:href="#a"/><linearGradient id="ap" x1="7.321" y1="3.893" x2="5.059" y2="1.617" xlink:href="#a"/><linearGradient id="aq" x1="2.584" y1="2.024" x2="1.104" y2="1.787" xlink:href="#a"/><linearGradient id="ar" x1="1.726" y1="2.897" x2="1.354" y2="2.227" xlink:href="#a"/><linearGradient id="as" x1="2.275" y1="6.828" x2="3.275" y2="6.828" gradientUnits="objectBoundingBox"><stop offset="0" stop-color="#ecc4d7"/><stop offset="0.42" stop-color="#efd4d1"/><stop offset="1" stop-color="#f2eac9"/></linearGradient><linearGradient id="at" x1="1.13" y1="2.11" x2="2.119" y2="2.445" xlink:href="#a"/><linearGradient id="au" x1="1.943" y1="1.762" x2="-0.369" y2="3.131" gradientUnits="objectBoundingBox"><stop offset="0.32" stop-color="#fff" stop-opacity="0"/><stop offset="0.54" stop-color="#fff"/></linearGradient><linearGradient id="av" x1="1.215" y1="2.196" x2="2.248" y2="1.55" xlink:href="#au"/><linearGradient id="aw" x1="1.726" y1="1.952" x2="1.252" y2="1.692" xlink:href="#a"/><linearGradient id="ax" x1="1.686" y1="1.779" x2="2.372" y2="2.499" xlink:href="#f"/><linearGradient id="ay" x1="2.274" y1="6.822" x2="3.274" y2="6.822" xlink:href="#as"/><linearGradient id="az" x1="7.475" y1="5.804" x2="7.599" y2="6.024" xlink:href="#as"/><linearGradient id="ba" x1="3.778" y1="4.694" x2="4.531" y2="5.294" gradientUnits="objectBoundingBox"><stop offset="0" stop-color="#ecc4d7"/><stop offset="1" stop-color="#f2eac9"/></linearGradient><linearGradient id="bb" x1="1.88" y1="2.623" x2="2.631" y2="3.268" xlink:href="#ba"/><linearGradient id="bc" x1="16.493" y1="21.591" x2="17.495" y2="21.591" xlink:href="#ba"/></defs><g transform="translate(0)"><path class="a" d="M58.6,116.757c-5.282,19.914-26.363,39.141-30.272,59.366-3.645,18.741,8.684,37.154,23.659,49s32.913,19.507,47.7,31.6c14.579,11.953,25.476,27.758,39,40.9s31.376,24,50.122,21.984c32.311-3.476,48.025-40.065,71.372-62.667,19.66-19.016,49.536-33.235,52.15-60.475,1.585-16.485-8.061-31.746-17.5-45.352-18.382-26.532-53.878-27.879-83.352-41.93C181.521,94.911,79.471,38.064,58.6,116.757Z" transform="translate(-13.058 -35.841)"/><path class="b" d="M284.566,101.981l-14.293,13.3a9.508,9.508,0,0,1-7.337,2.525l-24.778-2.192-1.548,15.271s27.768,4.337,31.73,3.169S296.826,114.3,296.826,114.3l3.618-20.389C295.242,93.889,287.767,98.22,284.566,101.981Z" transform="translate(-111.63 -44.305)"/><path class="b" d="M284.566,101.981l-14.293,13.3a9.508,9.508,0,0,1-7.337,2.525l-24.778-2.192-1.548,15.271s27.768,4.337,31.73,3.169S296.826,114.3,296.826,114.3l3.618-20.389C295.242,93.889,287.767,98.22,284.566,101.981Z" transform="translate(-111.63 -44.305)"/><path class="c" d="M284.566,101.981l-14.293,13.3a9.508,9.508,0,0,1-7.337,2.525l-24.778-2.192-1.548,15.271s27.768,4.337,31.73,3.169S296.826,114.3,296.826,114.3l3.618-20.389C295.242,93.889,287.767,98.22,284.566,101.981Z" transform="translate(-111.63 -44.305)"/><path class="b" d="M412.367,473.238c0,8.9-23.611,16.121-52.731,16.121S306.9,482.138,306.9,473.238c0-.856-.417-8.858,0-9.677,3.94-7.712,26.411-6.449,52.731-6.449,25.481,0,47.814-.9,52.731,6.449C413.07,464.612,412.367,472.123,412.367,473.238Z" transform="translate(-144.706 -215.623)"/><path class="d" d="M412.367,473.238c0,8.9-23.611,16.121-52.731,16.121S306.9,482.138,306.9,473.238c0-.856-.417-8.858,0-9.677,3.94-7.712,26.411-6.449,52.731-6.449,25.481,0,47.814-.9,52.731,6.449C413.07,464.612,412.367,472.123,412.367,473.238Z" transform="translate(-144.706 -215.623)"/><ellipse class="b" cx="52.731" cy="16.121" rx="52.731" ry="16.121" transform="translate(162.198 231.817)"/><path class="e" d="M411.368,453.373a4.084,4.084,0,0,1-.528,1.949c-3.169,5.879-20.542,10.369-41.486,10.369s-38.3-4.49-41.486-10.369a4.083,4.083,0,0,1-.528-1.949c0-6.809,18.81-12.323,42-12.323S411.368,446.565,411.368,453.373Z" transform="translate(-154.435 -208.082)"/><path class="b" d="M411.332,458.8c-3.169,5.879-20.542,10.369-41.486,10.369s-38.3-4.49-41.486-10.369c3.169-5.879,20.542-10.379,41.486-10.379S408.152,452.92,411.332,458.8Z" transform="translate(-154.916 -211.559)"/><path class="f" d="M411.332,458.8c-3.169,5.879-20.542,10.369-41.486,10.369s-38.3-4.49-41.486-10.369c3.169-5.879,20.542-10.379,41.486-10.379S408.152,452.92,411.332,458.8Z" transform="translate(-154.916 -211.559)"/><path class="b" d="M430.087,428.592c0,8.906-23.611,16.121-52.731,16.121s-52.731-7.215-52.731-16.121c0-.856-.417-8.858,0-9.677,3.94-7.712,26.411-6.444,52.731-6.444,25.481,0,47.814-.9,52.731,6.444C430.79,419.966,430.087,427.5,430.087,428.592Z" transform="translate(-153.066 -194.562)"/><path class="g" d="M430.087,428.592c0,8.906-23.611,16.121-52.731,16.121s-52.731-7.215-52.731-16.121c0-.856-.417-8.858,0-9.677,3.94-7.712,26.411-6.444,52.731-6.444,25.481,0,47.814-.9,52.731,6.444C430.79,419.966,430.087,427.5,430.087,428.592Z" transform="translate(-153.066 -194.562)"/><ellipse class="b" cx="52.731" cy="16.121" rx="52.731" ry="16.121" transform="translate(171.558 208.232)"/><ellipse class="h" cx="52.731" cy="16.121" rx="52.731" ry="16.121" transform="translate(171.558 208.232)"/><path class="i" d="M429.088,408.728a4.046,4.046,0,0,1-.528,1.944c-3.169,5.879-20.547,10.374-41.491,10.374s-38.3-4.5-41.481-10.374a4.046,4.046,0,0,1-.528-1.944c0-6.809,18.8-12.328,42-12.328S429.088,401.92,429.088,408.728Z" transform="translate(-162.795 -187.016)"/><path class="j" d="M429.052,414.154c-3.169,5.879-20.547,10.374-41.491,10.374s-38.3-4.5-41.48-10.374c3.169-5.879,20.542-10.374,41.48-10.374S425.872,408.275,429.052,414.154Z" transform="translate(-163.276 -190.498)"/><path class="b" d="M400.7,388.912c0,8.906-23.606,16.121-52.726,16.121s-52.731-7.215-52.731-16.121c0-.85-.417-8.858,0-9.672,3.94-7.712,26.411-6.45,52.731-6.45,25.481,0,47.814-.9,52.726,6.45C401.4,380.287,400.7,387.8,400.7,388.912Z" transform="translate(-139.205 -175.842)"/><path class="k" d="M400.7,388.912c0,8.906-23.606,16.121-52.726,16.121s-52.731-7.215-52.731-16.121c0-.85-.417-8.858,0-9.672,3.94-7.712,26.411-6.45,52.731-6.45,25.481,0,47.814-.9,52.726,6.45C401.4,380.287,400.7,387.8,400.7,388.912Z" transform="translate(-139.205 -175.842)"/><ellipse class="b" cx="52.731" cy="16.121" rx="52.731" ry="16.121" transform="translate(156.039 187.278)"/><path class="l" d="M399.708,369.053A4.046,4.046,0,0,1,399.18,371c-3.169,5.879-20.547,10.374-41.491,10.374s-38.3-4.5-41.481-10.374a4.046,4.046,0,0,1-.528-1.944c0-6.809,18.81-12.323,42-12.323S399.708,362.245,399.708,369.053Z" transform="translate(-148.934 -168.301)"/><path class="m" d="M399.672,374.474c-3.169,5.879-20.547,10.374-41.491,10.374s-38.3-4.5-41.481-10.374c3.169-5.879,20.537-10.374,41.481-10.374S396.492,368.6,399.672,374.474Z" transform="translate(-149.415 -171.778)"/><path class="b" d="M418.637,346.752c0,8.9-23.611,16.121-52.731,16.121s-52.731-7.221-52.731-16.121c0-.856-.417-8.858,0-9.677,3.94-7.712,26.411-6.444,52.731-6.444,25.481,0,47.814-.9,52.731,6.444C419.319,338.126,418.637,345.637,418.637,346.752Z" transform="translate(-147.664 -155.951)"/><path class="n" d="M418.637,346.752c0,8.9-23.611,16.121-52.731,16.121s-52.731-7.221-52.731-16.121c0-.856-.417-8.858,0-9.677,3.94-7.712,26.411-6.444,52.731-6.444,25.481,0,47.814-.9,52.731,6.444C419.319,338.126,418.637,345.637,418.637,346.752Z" transform="translate(-147.664 -155.951)"/><ellipse class="b" cx="52.731" cy="16.121" rx="52.731" ry="16.121" transform="translate(165.489 165.003)"/><ellipse class="o" cx="52.731" cy="16.121" rx="52.731" ry="16.121" transform="translate(184.019 144.767)"/><path class="p" d="M423.7,328.483a4.083,4.083,0,0,1-.528,1.949c-3.169,5.879-20.547,10.374-41.486,10.374s-38.274-4.5-41.444-10.374a4.083,4.083,0,0,1-.528-1.949c0-6.8,18.8-12.323,42-12.323S423.7,321.675,423.7,328.483Z" transform="translate(-160.271 -149.16)"/><path class="q" d="M423.671,334c-3.169,5.879-20.547,10.374-41.486,10.374s-38.306-4.5-41.475-10.374c3.169-5.879,20.542-10.374,41.486-10.374S420.47,328.125,423.671,334Z" transform="translate(-160.743 -152.684)"/><path class="b" d="M418.637,304.592c0,8.9-23.611,16.121-52.731,16.121s-52.731-7.221-52.731-16.121c0-.856-.417-8.858,0-9.677,3.94-7.712,26.411-6.444,52.731-6.444,25.481,0,47.814-.9,52.731,6.444C419.319,295.966,418.637,303.5,418.637,304.592Z" transform="translate(-147.664 -136.06)"/><path class="r" d="M418.637,304.592c0,8.9-23.611,16.121-52.731,16.121s-52.731-7.221-52.731-16.121c0-.856-.417-8.858,0-9.677,3.94-7.712,26.411-6.444,52.731-6.444,25.481,0,47.814-.9,52.731,6.444C419.319,295.966,418.637,303.5,418.637,304.592Z" transform="translate(-147.664 -136.06)"/><ellipse class="b" cx="52.731" cy="16.121" rx="52.731" ry="16.121" transform="translate(165.489 142.734)"/><ellipse class="s" cx="52.731" cy="16.121" rx="52.731" ry="16.121" transform="translate(165.489 142.734)"/><path class="t" d="M417.6,284.723a4.083,4.083,0,0,1-.528,1.949c-3.169,5.879-20.547,10.369-41.486,10.369s-38.274-4.49-41.444-10.369a4.083,4.083,0,0,1-.528-1.949c0-6.809,18.8-12.323,42-12.323S417.6,277.915,417.6,284.723Z" transform="translate(-157.393 -128.515)"/><path class="u" d="M417.571,290.149c-3.169,5.879-20.547,10.369-41.486,10.369s-38.306-4.49-41.475-10.369c3.169-5.879,20.542-10.379,41.486-10.379S414.37,284.27,417.571,290.149Z" transform="translate(-157.865 -131.992)"/><path class="b" d="M391.907,259.788c0,8.9-23.611,16.121-52.731,16.121s-52.731-7.221-52.731-16.121c0-.856-.417-8.858,0-9.677,3.94-7.712,26.411-6.449,52.731-6.449,25.481,0,47.814-.9,52.731,6.449C392.615,251.162,391.907,258.673,391.907,259.788Z" transform="translate(-135.053 -114.92)"/><path class="v" d="M391.907,259.788c0,8.9-23.611,16.121-52.731,16.121s-52.731-7.221-52.731-16.121c0-.856-.417-8.858,0-9.677,3.94-7.712,26.411-6.449,52.731-6.449,25.481,0,47.814-.9,52.731,6.449C392.615,251.162,391.907,258.673,391.907,259.788Z" transform="translate(-135.053 -114.92)"/><ellipse class="b" cx="52.731" cy="16.121" rx="52.731" ry="16.121" transform="translate(151.391 119.07)"/><path class="w" d="M390.948,239.923a4.083,4.083,0,0,1-.528,1.949c-3.169,5.879-20.542,10.369-41.486,10.369s-38.3-4.49-41.486-10.369a4.084,4.084,0,0,1-.528-1.949c0-6.809,18.81-12.323,42-12.323S390.948,233.093,390.948,239.923Z" transform="translate(-144.801 -107.379)"/><path class="b" d="M390.892,245.349c-3.169,5.879-20.542,10.369-41.486,10.369s-38.3-4.49-41.486-10.369c3.169-5.879,20.542-10.379,41.486-10.379S387.722,239.47,390.892,245.349Z" transform="translate(-145.273 -110.856)"/><path class="x" d="M390.892,245.349c-3.169,5.879-20.542,10.369-41.486,10.369s-38.3-4.49-41.486-10.369c3.169-5.879,20.542-10.379,41.486-10.379S387.722,239.47,390.892,245.349Z" transform="translate(-145.273 -110.856)"/><path class="y" d="M383.874,228.756a4.686,4.686,0,0,1,2.8,4.395c-.111,1.056-.724,2.065-.676,3.138.042,1.157.835,2.139,1.22,3.227.893,2.525-.528,5.441-2.784,6.909a15.046,15.046,0,0,1-3.7,1.611,95.689,95.689,0,0,1-21.572,4.284c-3.888.312-7.828.391-11.589,1.421-2.393.655-4.675,1.685-7.073,2.345a3.7,3.7,0,0,1-1.812.169,2.661,2.661,0,0,1-1.78-2.9,5.44,5.44,0,0,1,1.8-3.169c1.939-1.886,4.448-3.032,6.714-4.511a83.048,83.048,0,0,0,8.061-6.571c2.314-1.954,4.754-3.771,7.178-5.583a59.323,59.323,0,0,1,9.312-6.074c3.333-1.622,9.392-.528,8.811-.528C378.941,228.312,382.7,228.165,383.874,228.756Z" transform="translate(-158.945 -106.887)"/><path class="z" d="M289.394,198.677s-44.824-3.766-46.092,20.167l-3.412,5.594L264.568,238.5s-2.055-5.884,3.565-8.747,28.3-4.257,31.814-10.908S289.394,198.677,289.394,198.677Z" transform="translate(-113.177 -93.632)"/><path class="aa" d="M319,210.05s-28.671,11.293-31.112,23.537-1.458,10.379-1.458,10.379L297,251.43l15.482-2.615s3.169-6.983,13.279-8.853,24.446-4.928,27.546-12.92A46.3,46.3,0,0,0,355.9,210.05Z" transform="translate(-135.044 -99.099)"/><ellipse class="ab" cx="97.07" cy="19.259" rx="97.07" ry="19.259" transform="translate(1.426 276.826)"/><path class="b" d="M294.827,507.8l-8.367,2.446a13.866,13.866,0,0,1-17.188-9.444h0a13.014,13.014,0,0,1-.333-1.41L262.49,464.5l32.374-12.355,8.642,41.053A12.513,12.513,0,0,1,294.827,507.8Z" transform="translate(-123.839 -213.319)"/><path class="ac" d="M316.4,508.935l-8.182-51.12,8.488-3.264,8.372,39.78a12.513,12.513,0,0,1-8.679,14.605Z" transform="translate(-145.414 -214.451)"/><path class="b" d="M118.327,498.663l-8.668.666a13.924,13.924,0,0,1-14.9-12.873h0c-.032-.465-.042-.924-.032-1.389l.819-35.475,34.186-5.383.074,41.961a12.471,12.471,0,0,1-11.478,12.492Z" transform="translate(-44.689 -209.573)"/><path class="ad" d="M143.758,489.622l-.528,26.532s9.334-2.287,9.476-12.112c.132-8.874.391-21.953.391-21.953Z" transform="translate(-67.574 -227.444)"/><path class="b" d="M195.971,296.349c-6.038,38.739-47.286,68.71-97.255,68.71S7.467,335.088,1.43,296.349c6.037-38.729,47.28-68.7,97.286-68.7S189.933,257.621,195.971,296.349Z" transform="translate(-0.675 -107.402)"/><path class="b" d="M195.312,296.349c-4.717,30.267-30.911,55.177-65.995,64.627,35.057-9.455,61.273-34.366,65.979-64.627-6.037-38.729-47.249-68.7-97.255-68.7S6.793,257.621.755,296.349A63.826,63.826,0,0,0,0,306.179c0,43.366,43.921,78.535,98.042,78.535s98.015-35.168,98.015-78.535a63.815,63.815,0,0,0-.745-9.83ZM7.691,317.1c-.576-1.083-1.115-2.182-1.627-3.291q.766,1.664,1.627,3.291c10.163,19.248,29.633,34.577,53.878,42.368C37.308,351.658,17.848,336.324,7.691,317.1ZM64.68,360.416q1.585.449,3.138.866C66.761,360.981,65.715,360.7,64.68,360.416Zm58.23,2.113c1.056-.227,2.15-.465,3.217-.724Q124.537,362.175,122.91,362.529Z" transform="translate(0 -107.402)"/><path class="b" d="M373.11,263.186s4.521-16.956,22.343-15.45,15.794,26.654,0,40.144C395.453,287.9,378.022,266.371,373.11,263.186Z" transform="translate(-176.029 -116.834)"/><path class="ae" d="M373.11,263.466s4.521-16.956,22.343-15.45,15.794,26.654,0,40.144C395.453,288.181,378.022,266.651,373.11,263.466Z" transform="translate(-176.029 -116.966)"/><path class="b" d="M390.19,275.926s3.169-11.816,15.566-10.765,11,18.572,0,28C405.756,293.146,393.613,278.144,390.19,275.926Z" transform="translate(-184.087 -125.068)"/><path class="af" d="M390.19,275.926s3.169-11.816,15.566-10.765,11,18.572,0,28C405.756,293.146,393.613,278.144,390.19,275.926Z" transform="translate(-184.087 -125.068)"/><path class="ag" d="M197.257,367.931c0,43.366-43.889,78.535-98.015,78.535S1.2,411.3,1.2,367.931a64.343,64.343,0,0,1,.754-9.817c6.039,38.7,47.271,68.7,97.287,68.7a119.377,119.377,0,0,0,35.438-5.282c4.511-3.169-1.358-19.417-1.484-19.782l8.525,4.432,8.166,9.365c25.09-12.149,42.827-33.056,46.625-57.427a63.511,63.511,0,0,1,.745,9.814Z" transform="translate(-0.566 -168.954)"/><path class="b" d="M367.922,338.155a60.839,60.839,0,0,1-5.652,25.666,64.749,64.749,0,0,1-104.708,17.14A61.32,61.32,0,0,1,240.1,338.139c0-34.439,28.619-62.329,63.914-62.329S367.922,303.715,367.922,338.155Z" transform="translate(-113.276 -130.124)"/><path class="ah" d="M367.922,338.155a60.839,60.839,0,0,1-5.652,25.666,64.749,64.749,0,0,1-104.708,17.14A61.32,61.32,0,0,1,240.1,338.139c0-34.439,28.619-62.329,63.914-62.329S367.922,303.715,367.922,338.155Z" transform="translate(-113.276 -130.124)"/><ellipse class="b" cx="4.643" cy="4.68" rx="4.643" ry="4.68" transform="translate(199.543 191.144)"/><ellipse class="b" cx="4.643" cy="4.68" rx="4.643" ry="4.68" transform="translate(229.466 187.251)"/><ellipse class="ai" cx="4.643" cy="4.68" rx="4.643" ry="4.68" transform="translate(199.543 191.144)"/><ellipse class="aj" cx="4.643" cy="4.68" rx="4.643" ry="4.68" transform="translate(229.466 187.251)"/><path class="b" d="M436.641,385.255l4.955,26.817a21.709,21.709,0,0,1-5.588,1.849c-9.7,1.8-18.736-3.058-20.183-10.876s5.24-15.651,14.938-17.468A21.513,21.513,0,0,1,436.641,385.255Z" transform="translate(-196.088 -181.724)"/><path class="ak" d="M436.641,385.255l4.955,26.817a21.709,21.709,0,0,1-5.588,1.849c-9.7,1.8-18.736-3.058-20.183-10.876s5.24-15.651,14.938-17.468A21.513,21.513,0,0,1,436.641,385.255Z" transform="translate(-196.088 -181.724)"/><ellipse class="b" cx="7.231" cy="13.675" rx="7.231" ry="13.675" transform="translate(233.092 204.884) rotate(-10.41)"/><ellipse class="al" cx="7.231" cy="13.675" rx="7.231" ry="13.675" transform="translate(233.092 204.884) rotate(-10.41)"/><path class="am" d="M456.165,405.371c.745,2.609.935,4.844.423,4.992s-1.537-1.843-2.282-4.453-.935-4.838-.423-4.986S455.42,402.767,456.165,405.371Z" transform="translate(-214 -189.147)"/><path class="an" d="M465.836,402.242c.766,2.641.967,4.944.454,5.1s-1.548-1.891-2.308-4.558-.967-4.949-.454-5.1S465.076,399.574,465.836,402.242Z" transform="translate(-218.554 -187.618)"/><path class="ao" d="M377.952,440.31l-.084,1.12A64.749,64.749,0,0,1,273.16,458.57s4.886-7.046,40.725-1S377.952,440.31,377.952,440.31Z" transform="translate(-128.873 -207.733)"/><path class="b" d="M277.562,290.62s-4.516-16.956-22.343-15.445-15.794,26.654,0,40.144C255.219,315.34,272.65,293.81,277.562,290.62Z" transform="translate(-114.455 -129.779)"/><path class="ap" d="M278.692,290.62s-4.516-16.956-22.343-15.445-15.794,26.654,0,40.144C256.349,315.34,273.78,293.81,278.692,290.62Z" transform="translate(-114.989 -129.779)"/><path class="b" d="M283.112,299.091s-3.169-11.811-15.566-10.76-11,18.567,0,28C267.545,316.316,279.689,301.33,283.112,299.091Z" transform="translate(-122.081 -136)"/><path class="aq" d="M283.112,299.091s-3.169-11.811-15.566-10.76-11,18.567,0,28C267.545,316.316,279.689,301.33,283.112,299.091Z" transform="translate(-122.081 -136)"/><path class="z" d="M180.087,254.436l-4.548,2.039-4.548,2.039c-26.6-15.846-50.413-15.572-62.921-13.792h0a55.124,55.124,0,0,0-9.18,1.991l13.263-5.282s7.664-3.169,28.228-2C166.448,240.929,180.087,254.436,180.087,254.436Z" transform="translate(-46.655 -112.838)"/><path class="b" d="M180.063,254.436l-4.548,2.039-11.092-7.643c-17.716-10.754-50.006-6.259-50.006-6.259l-6.4,2.15h0a55.126,55.126,0,0,0-9.18,1.991l13.263-5.282s7.664-3.169,28.228-2C166.425,240.929,180.063,254.436,180.063,254.436Z" transform="translate(-46.631 -112.838)"/><path class="ar" d="M180.063,254.436l-4.548,2.039-11.092-7.643c-17.716-10.754-50.006-6.259-50.006-6.259l-6.4,2.15h0a55.126,55.126,0,0,0-9.18,1.991l13.263-5.282s7.664-3.169,28.228-2C166.425,240.929,180.063,254.436,180.063,254.436Z" transform="translate(-46.631 -112.838)"/><path class="b" d="M209.522,530.8l-8.673.872a13.913,13.913,0,0,1-15.176-12.524h0q-.063-.681-.063-1.363V482.27l34.07-6.18,1.056,41.951A12.471,12.471,0,0,1,209.522,530.8Z" transform="translate(-87.568 -224.613)"/><path class="b" d="M45.853,488.9l-8.668.866a13.918,13.918,0,0,1-15.191-12.519h0c-.042-.46-.063-.924-.063-1.389V406.83L56,434.191l.079,3.3h0l.956,38.623A12.482,12.482,0,0,1,45.853,488.9Z" transform="translate(-10.346 -191.937)"/><path class="as" d="M67.22,516.087s2.007-43.313,4.754-48.11,5.488-3.3,5.488-3.3h0l.956,38.623A12.487,12.487,0,0,1,67.22,516.087Z" transform="translate(-31.714 -219.126)"/><path class="at" d="M230.88,531.953l1.236-51.765,8.937-1.648,1.009,40.672a12.471,12.471,0,0,1-11.182,12.74Z" transform="translate(-108.926 -225.769)"/><path class="b" d="M330.157,128.394l-.877,19.116s.893,10.443,9.677,11.5,37.265-3.9,37.265-3.9,1.933-33.615,0-41.317-1.9-18.255-10.511-18.429c-4.316-.09-15.6-2.4-21.546-1.585A13.992,13.992,0,0,0,332.153,106.2C331.567,111.729,330.849,119.245,330.157,128.394Z" transform="translate(-155.35 -44.165)"/><path class="au" d="M330.157,128.394l-.877,19.116s.893,10.443,9.677,11.5,37.265-3.9,37.265-3.9,1.933-33.615,0-41.317-1.9-18.255-10.511-18.429c-4.316-.09-15.6-2.4-21.546-1.585A13.992,13.992,0,0,0,332.153,106.2C331.567,111.729,330.849,119.245,330.157,128.394Z" transform="translate(-155.35 -44.165)"/><path class="b" d="M347.548,105.869a7.112,7.112,0,0,1,12.149-1.146c1.949,2.741,3.359,6.835,3.048,12.946-.56,11.008-8.652,21.657-14.436,27.942a16.163,16.163,0,0,1-13.031,5.192l-34.587-3.993,1.585-13.734,31.624.792Z" transform="translate(-141.862 -48.035)"/><path class="b" d="M347.548,105.869a7.112,7.112,0,0,1,12.149-1.146c1.949,2.741,3.359,6.835,3.048,12.946-.56,11.008-8.652,21.657-14.436,27.942a16.163,16.163,0,0,1-13.031,5.192l-34.587-3.993,1.585-13.734,31.624.792Z" transform="translate(-141.862 -48.035)"/><path class="b" d="M347.548,105.869a7.112,7.112,0,0,1,12.149-1.146c1.949,2.741,3.359,6.835,3.048,12.946-.56,11.008-8.652,21.657-14.436,27.942a16.163,16.163,0,0,1-13.031,5.192l-34.587-3.993,1.585-13.734,31.624.792Z" transform="translate(-141.862 -48.035)"/><path class="av" d="M347.548,105.869a7.112,7.112,0,0,1,12.149-1.146c1.949,2.741,3.359,6.835,3.048,12.946-.56,11.008-8.652,21.657-14.436,27.942a16.163,16.163,0,0,1-13.031,5.192l-34.587-3.993,1.585-13.734,31.624.792Z" transform="translate(-141.862 -48.035)"/><path class="aw" d="M196.069,138.616c-1.458.7-3.016,1.685-3.359,3.275a17.557,17.557,0,0,0,3.787-.386l-3.312,3.418a1.014,1.014,0,0,0-.375.644c0,.555.755.718,1.3.671a29.853,29.853,0,0,0,5.456-.94c.127.872-1.21,1.22-1.505,2.049-.264.729.444,1.505,1.2,1.653a5.472,5.472,0,0,0,2.277-.306c2.477-.6,5.071-.248,7.617-.18s5.282-.227,7.252-1.854a3.111,3.111,0,0,0,1.025-1.347,4.442,4.442,0,0,0,.085-1.69c-.1-1.585.961-4.907.438-6.233-.5-1.241-2.773-2.113-3.956-2.308C206.718,133.862,198.747,137.348,196.069,138.616Z" transform="translate(-90.918 -63.61)"/><ellipse class="b" cx="35.697" cy="26.844" rx="35.697" ry="26.844" transform="translate(89.357 112.399) rotate(-73.74)"/><ellipse class="ax" cx="35.697" cy="26.844" rx="35.697" ry="26.844" transform="translate(89.357 112.399) rotate(-73.74)"/><ellipse class="b" cx="35.697" cy="26.897" rx="35.697" ry="26.897" transform="translate(84.324 110.222) rotate(-73.53)"/><ellipse class="ay" cx="35.697" cy="26.897" rx="35.697" ry="26.897" transform="translate(84.324 110.222) rotate(-73.53)"/><ellipse class="az" cx="35.697" cy="26.897" rx="35.697" ry="26.897" transform="translate(84.324 110.222) rotate(-73.53)"/><path class="ba" d="M224.273,136.676c-4.817,16-17.494,26.294-28.312,22.988-.38-.116-.755-.248-1.12-.391h0c-10.036-4.02-14.378-19.127-9.74-34.556,4.817-15.994,17.494-26.289,28.312-22.988a14.341,14.341,0,0,1,4.453,2.277h0C225.472,109.743,228.362,123.085,224.273,136.676Z" transform="translate(-86.452 -47.704)"/><path class="b" d="M227.251,138.359c-4.817,16-17.494,26.294-28.312,22.988-.38-.116-.755-.248-1.12-.391h0c-7.6-5.736-10.5-19.079-6.407-32.67,4.823-16,17.494-26.294,28.312-22.988.38.116.755.248,1.12.391h0C228.45,111.425,231.339,124.768,227.251,138.359Z" transform="translate(-89.429 -49.387)"/><path class="bb" d="M227.251,138.359c-4.817,16-17.494,26.294-28.312,22.988-.38-.116-.755-.248-1.12-.391h0c-7.6-5.736-10.5-19.079-6.407-32.67,4.823-16,17.494-26.294,28.312-22.988.38.116.755.248,1.12.391h0C228.45,111.425,231.339,124.768,227.251,138.359Z" transform="translate(-89.429 -49.387)"/><path class="bc" d="M261.539,165.584c-1.458.7-3.011,1.685-3.359,3.275a17.559,17.559,0,0,0,3.787-.386l-3.3,3.391a1.057,1.057,0,0,0-.37.65c0,.528.75.713,1.3.671a29.855,29.855,0,0,0,5.456-.94c.127.872-1.21,1.22-1.505,2.049-.264.729.444,1.505,1.2,1.653a5.562,5.562,0,0,0,2.277-.306c2.477-.6,5.071-.248,7.617-.185s5.282-.222,7.258-1.854a3.059,3.059,0,0,0,1.019-1.347,4.443,4.443,0,0,0,.085-1.69c-.1-1.585.961-4.907.438-6.228-.491-1.241-2.773-2.113-3.956-2.308C272.193,160.767,264.217,164.274,261.539,165.584Z" transform="translate(-121.806 -76.316)"/><path class="bd" d="M180.833,124a51.615,51.615,0,0,1,.66,5.171c.164,2.541-2.52.866-2.52.866s1.585,2.028,1.262,3.169-1.891,0-1.891,0a6.1,6.1,0,0,1,.592,2.741c-.185,1.062-2.277.2-2.277.2a3.771,3.771,0,0,1,.919,2.567c-.227,1.215-1.833.935-1.833.935s-2.963-1.669-2.113-4.057-.438-6.106.967-6.814,2.292-3.7,3.782-4.009a12.117,12.117,0,0,0,2.451-.771Z" transform="translate(-81.846 -58.502)"/><path class="be" d="M362.3,84.84a3,3,0,0,0,2.145.306,39.916,39.916,0,0,0,12.793-3.819c-1.431-3.909-.824-8.235-1.167-12.392-.121-1.394-.528-3.006-1.775-3.576a3.7,3.7,0,0,0-2.932.28,14.1,14.1,0,0,0-7.691,8.98c-.528,1.743-.46,3.587-.935,5.335C362.329,81.311,360.628,83.63,362.3,84.84Z" transform="translate(-170.587 -30.74)"/><path class="bf" d="M344.333,25.625s-3.4,18.445.28,24.023,8.98,7.046,14.262,3.122a48.3,48.3,0,0,0,9.022-9.138s3.344-.465,4.532-3.333-2.182-4.458-3.993-3.264,3.333-7.96,1.093-9.027S356.482,11.158,344.333,25.625Z" transform="translate(-161.777 -9.224)"/><path class="aa" d="M350.849,1.1a13.734,13.734,0,0,0-5.361.56c-4.458,1.2-8.826,3.338-13.432,3.021-.909-.063-1.954-.174-2.6.475A1.976,1.976,0,0,0,329.35,7.5a5.631,5.631,0,0,0,1.843,1.685,2.028,2.028,0,0,0-.375,3.037,4.139,4.139,0,0,0,3.212,1.162c-1.025.232-1.22,1.812-.475,2.562a3.067,3.067,0,0,0,2.963.528,23.843,23.843,0,0,0,3.381-1.447c3.169-1.358,6.708-1.426,10.136-1.194,3.581.243,7.527,1.009,9.693,3.893a7.189,7.189,0,0,1,1.115,6.249c-.681,2.292-2.535,4.358-2.2,6.729,1.585-.38,1.986-2.889,3.6-3.243,1.273-.285,2.372-.386,3.47,1.157.333.465,1.236-1.294,1.585-1.754a17.322,17.322,0,0,0,3.016-5.314,8.816,8.816,0,0,0-1.928-8.182,5.425,5.425,0,0,1-1.125-1.442,8.344,8.344,0,0,1-.3-1.907c-.312-1.88-1.88-3.259-3.375-4.432Q359.834,2.641,355.888,0c-.576,1.426-.211,2.594-1.585,2.535C353.374,2.5,351.974,1.247,350.849,1.1Z" transform="translate(-155.225)"/><path class="aa" d="M387.631,70.091a2.889,2.889,0,0,1-.9-2.852,4.717,4.717,0,0,1,1.69-2.578,9.84,9.84,0,0,1,2.424-1.431C390.811,63.922,387.361,69.9,387.631,70.091Z" transform="translate(-182.415 -29.831)"/><path class="bg" d="M389.6,56.472a2.208,2.208,0,0,1,.4-1.1,1.479,1.479,0,0,1,.491-.306,2.113,2.113,0,0,1,.956-.222.935.935,0,0,1,.8.528,1.2,1.2,0,0,1,.063.528,3.608,3.608,0,0,1-2.594,3.169.65.65,0,0,1-.4,0,.639.639,0,0,1-.333-.37,1.363,1.363,0,0,1-.032-1.252C389.2,57.08,389.5,56.948,389.6,56.472Z" transform="translate(-183.441 -25.873)"/></g></svg>