<svg xmlns="http://www.w3.org/2000/svg" width="98.995" height="98.995" viewBox="0 0 98.995 98.995">
  <g id="Group_2519" data-name="Group 2519" transform="translate(-958 -861)">
    <rect id="Rectangle_2114" data-name="Rectangle 2114" width="70" height="70" rx="10" transform="translate(1007.497 861) rotate(45)" fill="#00a859" opacity="0.25"/>
    <g id="Group_2518" data-name="Group 2518" transform="translate(955.02 885)">
      <g id="Group_2501" data-name="Group 2501" transform="translate(38.21 8.447)">
        <g id="Group_2500" data-name="Group 2500">
          <path id="Path_2501" data-name="Path 2501" d="M136.7,87.021A13.757,13.757,0,0,0,126.945,83h-.1a13.863,13.863,0,0,0-10.391,4.825.969.969,0,0,0,1.467,1.265,11.926,11.926,0,0,1,8.938-4.153h.087a11.916,11.916,0,0,1,8.664,20.1,13.415,13.415,0,0,0-3.687,8.382h-1.889V103.146h.613A2.553,2.553,0,0,0,133.2,100.6v-.129a2.551,2.551,0,0,0-5.1,0v.743h-2.325v-.743a2.553,2.553,0,0,0-2.551-2.551h-.164a2.553,2.553,0,0,0-2.551,2.551v.129a2.553,2.553,0,0,0,2.551,2.551h.778v10.267h-1.865a13.041,13.041,0,0,0-3.614-8.3,11.838,11.838,0,0,1-3.322-8.591.969.969,0,0,0-1.937-.053,13.76,13.76,0,0,0,3.862,9.987,11.15,11.15,0,0,1,3.1,7.778v2.8a4.036,4.036,0,0,0,3.584,4.006v.219a3.293,3.293,0,1,0,6.586,0v-.216a4.036,4.036,0,0,0,3.606-4.008v-2.8a11.447,11.447,0,0,1,3.184-7.87,13.853,13.853,0,0,0-.312-19.341Zm-6.672,13.445a.613.613,0,0,1,1.227,0v.129a.614.614,0,0,1-.614.613h-.613Zm-4.262,2.68H128.1v10.267h-2.325Zm-2.715-1.937a.614.614,0,0,1-.613-.613v-.129a.614.614,0,0,1,.613-.613h.164a.614.614,0,0,1,.613.613v.743Zm5.233,20.05a1.356,1.356,0,0,1-2.712,0v-.194h2.712Zm3.606-4.225a2.1,2.1,0,0,1-2.094,2.094h-5.715a2.1,2.1,0,0,1-2.094-2.094V115.35h9.9Z" transform="translate(-113.09 -82.998)" fill="#00a859"/>
        </g>
      </g>
      <g id="Group_2503" data-name="Group 2503" transform="translate(51.084)">
        <g id="Group_2502" data-name="Group 2502">
          <path id="Path_2502" data-name="Path 2502" d="M246.969,0A.969.969,0,0,0,246,.969V4.586a.969.969,0,0,0,1.937,0V.969A.969.969,0,0,0,246.969,0Z" transform="translate(-246)" fill="#00a859"/>
        </g>
      </g>
      <g id="Group_2505" data-name="Group 2505" transform="translate(68.57 21.103)">
        <g id="Group_2504" data-name="Group 2504">
          <path id="Path_2503" data-name="Path 2503" d="M429.262,216.021h-3.617a.969.969,0,1,0,0,1.937h3.617a.969.969,0,1,0,0-1.937Z" transform="translate(-424.676 -216.021)" fill="#00a859"/>
        </g>
      </g>
      <g id="Group_2507" data-name="Group 2507" transform="translate(29.98 21.103)">
        <g id="Group_2506" data-name="Group 2506">
          <path id="Path_2504" data-name="Path 2504" d="M34.566,216.021H30.949a.969.969,0,0,0,0,1.937h3.617a.969.969,0,0,0,0-1.937Z" transform="translate(-29.98 -216.021)" fill="#00a859"/>
        </g>
      </g>
      <g id="Group_2509" data-name="Group 2509" transform="translate(36.108 6.129)">
        <g id="Group_2508" data-name="Group 2508">
          <path id="Path_2505" data-name="Path 2505" d="M97.461,66.113,94.9,63.556a.969.969,0,1,0-1.37,1.37l2.558,2.558a.969.969,0,0,0,1.37-1.37Z" transform="translate(-93.25 -63.272)" fill="#00a859"/>
        </g>
      </g>
      <g id="Group_2511" data-name="Group 2511" transform="translate(63.501 6.128)">
        <g id="Group_2510" data-name="Group 2510">
          <path id="Path_2506" data-name="Path 2506" d="M376.556,63.555a.969.969,0,0,0-1.37,0l-2.558,2.558a.969.969,0,1,0,1.37,1.37l2.558-2.558A.969.969,0,0,0,376.556,63.555Z" transform="translate(-372.345 -63.271)" fill="#00a859"/>
        </g>
      </g>
      <g id="Group_2513" data-name="Group 2513" transform="translate(51.045 12.218)">
        <g id="Group_2512" data-name="Group 2512">
          <path id="Path_2507" data-name="Path 2507" d="M255.272,131.063a9.794,9.794,0,0,0-9.085-6.135h-.071a.969.969,0,0,0,.007,1.937h.064a7.816,7.816,0,0,1,7.288,4.921.969.969,0,1,0,1.8-.724Z" transform="translate(-245.154 -124.928)" fill="#00a859"/>
        </g>
      </g>
      <g id="Group_2515" data-name="Group 2515" transform="translate(59.965 21.103)">
        <g id="Group_2514" data-name="Group 2514">
          <path id="Path_2508" data-name="Path 2508" d="M338.561,216.3a.97.97,0,1,0,.283.685A.976.976,0,0,0,338.561,216.3Z" transform="translate(-336.908 -216.02)" fill="#00a859"/>
        </g>
      </g>
      <g id="Group_2517" data-name="Group 2517" transform="translate(39.117 16.071)">
        <g id="Group_2516" data-name="Group 2516">
          <path id="Path_2509" data-name="Path 2509" d="M125.156,164.795a.969.969,0,1,0,.284.686A.975.975,0,0,0,125.156,164.795Z" transform="translate(-123.503 -164.512)" fill="#00a859"/>
        </g>
      </g>
    </g>
  </g>
</svg>
