<svg xmlns="http://www.w3.org/2000/svg" width="98.995" height="98.995" viewBox="0 0 98.995 98.995">
  <g id="Group_2563" data-name="Group 2563" transform="translate(-320 -1322)">
    <rect id="Rectangle_2114" data-name="Rectangle 2114" width="70" height="70" rx="10" transform="translate(369.497 1322) rotate(45)" fill="#00a859" opacity="0.25"/>
    <g id="Group_2521" data-name="Group 2521" transform="translate(344.12 1346.12)">
      <path id="Path_2510" data-name="Path 2510" d="M228.3,191.74a.983.983,0,0,0-1.318.442l-2.661,5.344a.981.981,0,0,0,.8,1.417.651.651,0,0,0,.071,0h2.7l-1.951,3.923a.983.983,0,1,0,1.76.876l2.658-5.344a.981.981,0,0,0-.866-1.42H226.79l1.953-3.923a.983.983,0,0,0-.442-1.318Z" transform="translate(-202.344 -172.965)" fill="#00a859"/>
      <path id="Path_2511" data-name="Path 2511" d="M47.128,19.477H45.913a21.432,21.432,0,0,0-2.219-5.359l.859-.859a2.877,2.877,0,0,0,0-4.061L40.8,5.447a2.875,2.875,0,0,0-4.061,0l-.859.859a21.439,21.439,0,0,0-5.359-2.222V2.872A2.875,2.875,0,0,0,27.652,0H22.346a2.874,2.874,0,0,0-2.869,2.872V4.084a21.443,21.443,0,0,0-5.359,2.222l-.859-.859a2.875,2.875,0,0,0-4.061,0L5.447,9.2a2.877,2.877,0,0,0,0,4.061l.859.859a21.443,21.443,0,0,0-2.222,5.359H2.872A2.874,2.874,0,0,0,0,22.346v5.306a2.875,2.875,0,0,0,2.872,2.872H4.084A21.387,21.387,0,0,0,6.306,35.88l-.859.861a2.877,2.877,0,0,0,0,4.061L9.2,44.553a2.875,2.875,0,0,0,4.061,0l.859-.859a21.44,21.44,0,0,0,5.359,2.222v1.212A2.874,2.874,0,0,0,22.346,50h5.306a2.875,2.875,0,0,0,2.872-2.872V45.916a21.436,21.436,0,0,0,5.359-2.222l.859.859a2.875,2.875,0,0,0,4.061,0L44.553,40.8a2.877,2.877,0,0,0,0-4.06l-.86-.861a21.39,21.39,0,0,0,2.219-5.357h1.215A2.875,2.875,0,0,0,50,27.652V22.346A2.874,2.874,0,0,0,47.128,19.477Zm.919,8.175a.92.92,0,0,1-.919.919H45.146a.977.977,0,0,0-.953.763A19.461,19.461,0,0,1,41.637,35.5a.976.976,0,0,0,.134,1.213l1.4,1.4a.924.924,0,0,1,0,1.3l-3.751,3.751a.919.919,0,0,1-1.3,0l-1.4-1.4a.977.977,0,0,0-1.213-.135,19.513,19.513,0,0,1-6.175,2.56.977.977,0,0,0-.763.953v1.979a.92.92,0,0,1-.919.919H22.346a.918.918,0,0,1-.916-.919V45.149a.977.977,0,0,0-.763-.953,19.509,19.509,0,0,1-6.175-2.56.977.977,0,0,0-1.213.135l-1.4,1.4a.919.919,0,0,1-1.3,0L6.828,39.421a.924.924,0,0,1,0-1.3l1.4-1.4A.976.976,0,0,0,8.363,35.5,19.464,19.464,0,0,1,5.8,29.333a.977.977,0,0,0-.953-.763H2.872a.92.92,0,0,1-.919-.919V22.346a.918.918,0,0,1,.919-.916H4.851a.977.977,0,0,0,.953-.763,19.513,19.513,0,0,1,2.56-6.175.977.977,0,0,0-.135-1.213l-1.4-1.4a.923.923,0,0,1,0-1.3l3.751-3.751a.919.919,0,0,1,1.3,0l1.4,1.4a.977.977,0,0,0,1.213.135A19.512,19.512,0,0,1,20.667,5.8a.977.977,0,0,0,.763-.953V2.872a.918.918,0,0,1,.916-.919h5.306a.92.92,0,0,1,.919.919V4.851a.977.977,0,0,0,.763.953,19.511,19.511,0,0,1,6.175,2.56.977.977,0,0,0,1.213-.135l1.4-1.4a.919.919,0,0,1,1.3,0l3.751,3.751a.924.924,0,0,1,0,1.3l-1.4,1.4a.977.977,0,0,0-.135,1.213,19.511,19.511,0,0,1,2.557,6.175.977.977,0,0,0,.953.763h1.982a.918.918,0,0,1,.919.916v5.306Z" fill="#00a859"/>
      <path id="Path_2512" data-name="Path 2512" d="M177.922,240.3a.983.983,0,0,0,0,1.39,10.49,10.49,0,0,0,17.855-6.38l1.041,1.041a.983.983,0,0,0,1.39-1.39L195.44,232.2a.983.983,0,0,0-1.39,0l-2.768,2.768a.983.983,0,0,0,1.39,1.39l1.135-1.135a8.52,8.52,0,0,1-14.5,5.083.983.983,0,0,0-1.39,0Z" transform="translate(-160.369 -209.314)" fill="#00a859"/>
      <path id="Path_2513" data-name="Path 2513" d="M124.877,158.783l-1.041-1.042a.983.983,0,1,0-1.39,1.39l2.768,2.768a.994.994,0,0,0,1.39,0l2.768-2.768a.983.983,0,0,0-1.39-1.39l-1.134,1.134a8.521,8.521,0,0,1,14.5-5.083.983.983,0,0,0,1.39-1.39,10.49,10.49,0,0,0-17.855,6.38Z" transform="translate(-110.284 -134.786)" fill="#00a859"/>
      <path id="Path_2514" data-name="Path 2514" d="M100.85,84.864a.974.974,0,1,0-.54,1.871A15.3,15.3,0,1,1,92,86.682a.973.973,0,1,0-.514-1.878,17.229,17.229,0,1,0,9.365.059Z" transform="translate(-71.059 -76.436)" fill="#00a859"/>
      <path id="Path_2515" data-name="Path 2515" d="M246.926,80.765h.006a.986.986,0,1,0-.006,0Z" transform="translate(-221.932 -71.052)" fill="#00a859"/>
    </g>
  </g>
</svg>
