<svg xmlns="http://www.w3.org/2000/svg" xmlns:xlink="http://www.w3.org/1999/xlink" width="300" height="230.383" viewBox="0 0 300 230.383"><defs><style>.a,.b,.e,.x{fill:#00a859;}.a{opacity:0.18;}.c{fill:url(#a);}.d{fill:url(#b);}.e{opacity:0.44;}.f{fill:url(#c);}.g{fill:url(#d);}.h{fill:url(#e);}.i{fill:#473f47;}.j{fill:url(#f);}.k{fill:#ffbbab;}.l{fill:#963637;}.m{fill:#fff;}.n{fill:#212741;}.o{fill:url(#g);}.p{fill:url(#h);}.q{fill:url(#i);}.r{fill:url(#j);}.s{fill:url(#k);}.t{fill:url(#l);}.u{fill:url(#m);}.v{fill:url(#n);}.w{fill:url(#o);}.x{opacity:0.16;}.y{fill:url(#p);}.z{fill:url(#q);}.aa{fill:#fc682d;}.ab{fill:url(#r);}</style><linearGradient id="a" x1="-28.36" y1="-0.749" x2="-29.509" y2="2.326" gradientUnits="objectBoundingBox"><stop offset="0.01"/><stop offset="0.13" stop-opacity="0.69"/><stop offset="0.25" stop-opacity="0.322"/><stop offset="1" stop-opacity="0"/></linearGradient><linearGradient id="b" x1="1.258" y1="0.249" x2="-0.672" y2="0.876" xlink:href="#a"/><linearGradient id="c" x1="41.076" y1="1.132" x2="44.62" y2="2.071" gradientUnits="objectBoundingBox"><stop offset="0.01"/><stop offset="0.08" stop-opacity="0.69"/><stop offset="0.21" stop-opacity="0.322"/><stop offset="1" stop-opacity="0"/></linearGradient><linearGradient id="d" x1="0.826" y1="2.364" x2="0.093" y2="-2.117" xlink:href="#c"/><linearGradient id="e" x1="155.672" y1="1.077" x2="148.729" y2="1.818" xlink:href="#c"/><linearGradient id="f" x1="64.952" y1="-0.18" x2="63.795" y2="1.92" xlink:href="#c"/><linearGradient id="g" x1="182.91" y1="1.544" x2="188.708" y2="1.708" xlink:href="#c"/><linearGradient id="h" x1="44.344" y1="0.138" x2="41.52" y2="1.074" xlink:href="#c"/><linearGradient id="i" x1="0.454" y1="-0.235" x2="0.541" y2="2.098" xlink:href="#c"/><linearGradient id="j" x1="1.964" y1="0.153" x2="-2.616" y2="1.197" xlink:href="#c"/><linearGradient id="k" x1="1.823" y1="0.595" x2="-1.51" y2="0.368" xlink:href="#c"/><linearGradient id="l" x1="-1.078" y1="0.768" x2="2.763" y2="-0.013" xlink:href="#c"/><linearGradient id="m" x1="1.182" y1="0.716" x2="-1.636" y2="-0.181" xlink:href="#c"/><linearGradient id="n" x1="0.422" y1="-6.668" x2="0.655" y2="14.942" xlink:href="#c"/><linearGradient id="o" x1="0.025" y1="0.54" x2="2.227" y2="0.377" xlink:href="#c"/><linearGradient id="p" x1="-0.03" y1="1.305" x2="1.53" y2="-1.16" xlink:href="#c"/><linearGradient id="q" x1="-0.98" y1="0.577" x2="3.093" y2="0.325" xlink:href="#c"/><linearGradient id="r" x1="2.671" y1="0.578" x2="-5.135" y2="0.306" xlink:href="#c"/></defs><g transform="translate(-0.048 0.001)"><path class="a" d="M137.523,29.415a57.513,57.513,0,0,0-40.954,22.6C87.006,64.849,83.322,80.994,80.4,96.738a58.644,58.644,0,0,1-3.629,13.592C73.249,118.071,66.5,123.756,60.8,130.062c-14.516,16.1-21.981,37.877-21.8,59.445.1,19.028,6.334,47.605,25.031,56.671a133.709,133.709,0,0,0,88.518,9.659c18.752-4.471,36.925-13.081,56.2-12.626s37.422,9.976,56.685,10.915a65.447,65.447,0,0,0,55.995-27.694,90.174,90.174,0,0,0,11.908-26.811,150.709,150.709,0,0,0,5.6-35.214c1.407-37.933-24.065-74.692-55.705-93.651C212.588,28.49,157.09,27.869,137.523,29.415Z" transform="translate(-38.95 -29)"/><path class="b" d="M88.33,164.767a13.7,13.7,0,0,0,5.3,3.684c8.942,4.14,18.3,7.976,28.135,8.831,14.475,1.256,28.66-3.822,42.293-8.817-1.38.221-6.334-4.14-7.6-5.023-2.5-1.642-4.954-3.353-7.41-5.036-3.905-2.663-8.776-3.56-13.412-4.278a67.1,67.1,0,0,0-31.2,2.663,63.2,63.2,0,0,0-16.1,7.976Z" transform="translate(-20.21 18.245)"/><path class="c" d="M88.33,164.767a13.7,13.7,0,0,0,5.3,3.684c8.942,4.14,18.3,7.976,28.135,8.831,14.475,1.256,28.66-3.822,42.293-8.817-1.38.221-6.334-4.14-7.6-5.023-2.5-1.642-4.954-3.353-7.41-5.036-3.905-2.663-8.776-3.56-13.412-4.278a67.1,67.1,0,0,0-31.2,2.663,63.2,63.2,0,0,0-16.1,7.976Z" transform="translate(-20.21 18.245)"/><path class="b" d="M134.172,147.355c-5.519-5.864-11.191-11.812-18.1-16.006s-15.358-6.485-23.168-4.416l19.318,28.453c3.726,5.519,7.52,11.039,12.736,15.179,9.135,7.148,26.107,11.122,37.325,7.686-1.739-5.312-8.666-10.308-12.515-14.378Z" transform="translate(-18.474 7.908)"/><path class="d" d="M134.172,147.355c-5.519-5.864-11.191-11.812-18.1-16.006s-15.358-6.485-23.168-4.416l19.318,28.453c3.726,5.519,7.52,11.039,12.736,15.179,9.135,7.148,26.107,11.122,37.325,7.686-1.739-5.312-8.666-10.308-12.515-14.378Z" transform="translate(-18.474 7.908)"/><path class="e" d="M89.175,174.47c7.217,0,14.723.842,20.877,4.609a2.663,2.663,0,0,1,1.269,1.283c.483,1.38-1.214,2.47-2.622,2.925A82.931,82.931,0,0,1,82.069,186.7a152.647,152.647,0,0,1-17.938-1.476A13.564,13.564,0,0,1,58.2,183.48a4.885,4.885,0,0,1-2.208-5.354c.731-2.042,3.118-2.994,5.285-3.1C70.451,174.442,79.9,174.511,89.175,174.47Z" transform="translate(-32.55 26.26)"/><path class="e" d="M255.356,171.833l14.613,2.028a3.74,3.74,0,0,1,1.959.662,2.567,2.567,0,0,1,.331,3.077,7.465,7.465,0,0,1-2.373,2.318c3.463.828,9.493.649,9.328,5.588a4.857,4.857,0,0,1-2.967,4.222,9.576,9.576,0,0,1-3.256.511c-10.8.373-21.774.745-32.234-1.973-2-.511-4.36-1.642-4.36-3.7,0-.731.317-1.38.359-2.153.235-4.678-9.756-1.932-12.322-1.78-5.713.331-11.425.552-17.138.7-11.674.317-23.347.3-35.007.138a62.648,62.648,0,0,0-11.039.455c-2.87.483-5.657,1.38-8.472,2.084a72.415,72.415,0,0,1-28.4,1.463c-4.291-.635-9.562-2.939-9.286-7.272.235-3.712,4.457-5.644,8.058-6.61a124.077,124.077,0,0,1,16.2-3.146A241.049,241.049,0,0,1,168.466,167c21.126-.166,42.251-.179,63.391-.193C238.963,166.755,248.319,170.853,255.356,171.833Z" transform="translate(-10.048 23.35)"/><path class="b" d="M42.589,116.971l-.883,43.135H35.855l-1.683-34.29-3.67,34.29L23.8,161.224,22.25,115.55Z" transform="translate(8.434 43.894)"/><path class="f" d="M42.589,116.971l-.883,43.135H35.855l-1.683-34.29-3.67,34.29L23.8,161.224,22.25,115.55Z" transform="translate(8.434 43.894)"/><path class="b" d="M96.531,117.961a159.984,159.984,0,0,1-8.721,14.254,6.389,6.389,0,0,1-4.719,2.18,7.783,7.783,0,0,1-2.166-.331c-2.084-.511-4.14-1.118-6.209-1.794a2.76,2.76,0,0,1-.5-.248h0c-1.38-1.007-1.683-3.781-1.987-5.381-.166-.883-.98-4.388.524-4.65.759-.138,3.243,2.07,3.946,2.5a49.881,49.881,0,0,0,4.554,2.442,1.1,1.1,0,0,0,.621.166,1.145,1.145,0,0,0,.593-.4,54.8,54.8,0,0,0,7.879-12.226c.607.262,1.2.552,1.794.856q1.242.649,2.442,1.38l.248.138A8.218,8.218,0,0,1,96.531,117.961Z" transform="translate(-26.466 3.468)"/><path class="g" d="M96.121,117.311A159.984,159.984,0,0,1,87.4,131.565a6.389,6.389,0,0,1-4.719,2.18,7.783,7.783,0,0,1-2.166-.331c-2.084-.511-4.14-1.118-6.209-1.794a3.493,3.493,0,0,1-.511-.248c-.11,0-.4-1.076-.442-1.214a9.523,9.523,0,0,1-.317-1.38,10.224,10.224,0,0,1,0-2.76c0-.317.083-.552.373-.3s.179.262.3.373.428.3.635.455c.58.414,1.159.828,1.78,1.214a16.338,16.338,0,0,0,3.795,1.656,7.355,7.355,0,0,0,2.76.4,4.14,4.14,0,0,0,3.256-2.415c.483-.745.952-1.518,1.38-2.291a14.8,14.8,0,0,1,1.518-2.194c1.214-1.463,2.415-2.925,3.629-4.374a19.458,19.458,0,0,1,2.042-2.36A11.715,11.715,0,0,1,96.121,117.311Z" transform="translate(-26.056 4.117)"/><path class="h" d="M27.8,159.43V119.441L22.25,115.55l1.877,44.556Z" transform="translate(8.434 43.894)"/><path class="b" d="M66.265,117.92a49.422,49.422,0,0,0-4.554,2.58c-3.132,2-2.567,2.925-1.987,6.389a137.987,137.987,0,0,1,1.835,22.368,19.759,19.759,0,0,0,.373,5.409,15.3,15.3,0,0,1,1.159,3.229c4.83.662,15.868,3.146,19.166-1.808S79.733,134.478,80.8,127s-8.652-8.279-8.652-8.279Z" transform="translate(-31.249 4.778)"/><path class="i" d="M72.045,140.283l1.118-6.265a1.78,1.78,0,0,1,1.6-1.38L86.8,131.7a1.2,1.2,0,0,1,1.256,1.38l-4.636,20.877a1.2,1.2,0,0,1-1.159.925H71.217a1.187,1.187,0,0,1-1.173-1.38Z" transform="translate(-27.162 10.012)"/><path class="j" d="M72.273,145.364l-8.748,5.906-1.38-1.835a32.413,32.413,0,0,1-1.173-9.342c.207-4.705,0-3.022,0-3.022l12.308,7.782Z" transform="translate(-30.605 11.942)"/><path class="k" d="M75.014,114.345a8.914,8.914,0,0,1-.083,1.49,9.094,9.094,0,0,1-1.2,2.912,2.235,2.235,0,0,1-.621.8,2.456,2.456,0,0,1-1.808.152.9.9,0,0,0-.428,0c-.345.138-.386.607-.373.98l.1,1.711a1.062,1.062,0,0,1-.11.69,1.118,1.118,0,0,1-.455.29,3.67,3.67,0,0,1-3.7-.842,2.649,2.649,0,0,1-.58-.773,3.381,3.381,0,0,1-.207-.9c-.207-1.642,0-3.3-.152-4.954a15.717,15.717,0,0,1-.124-4.14,4.526,4.526,0,0,1,2.649-3.339,6.762,6.762,0,0,1,4.333.1,20.3,20.3,0,0,1,2.015.676,1.38,1.38,0,0,1,.787.58c.262.524,0,1.283,0,1.849C75,112.565,75.014,113.476,75.014,114.345Z" transform="translate(-29 1.054)"/><path class="l" d="M75.512,108.105c.152.331.373.621.538.952a1.38,1.38,0,0,1,.179,1.049,1.532,1.532,0,0,1-.524.7,5.961,5.961,0,0,1-4.14,1.035,7.632,7.632,0,0,0-1.256,0,1.752,1.752,0,0,0-1.1.538,4.015,4.015,0,0,0-.538,1.863s0,.083,0,.11h0c-.469,0-.911-.483-1.38-.3a.7.7,0,0,0-.345.593,1.49,1.49,0,0,0,.124.842.842.842,0,0,1,.1.331.649.649,0,0,1,0,.221l-.29.814a1.228,1.228,0,0,1-.524.745,1.214,1.214,0,0,1-1.1-.207,1.7,1.7,0,0,1-.607-.511,1.629,1.629,0,0,1-.221-.58,27.362,27.362,0,0,1-.483-6.2,3.519,3.519,0,0,1,.193-1.38,3.229,3.229,0,0,1,2.429-1.532,26.039,26.039,0,0,1,5.519-.4,8,8,0,0,1,1.725.11,2.76,2.76,0,0,1,1.476.842" transform="translate(-29.484 0.546)"/><path class="l" d="M70.429,114.145a1.38,1.38,0,0,0-.649.7v.11c0,.028,0,0,.1,0a14.422,14.422,0,0,0,1.89,0,3.6,3.6,0,0,0,1.38-.359.166.166,0,0,0,.1,0,.207.207,0,0,0,0-.1.938.938,0,0,0-1.021-.883A4.14,4.14,0,0,0,70.429,114.145Z" transform="translate(-27.257 3.144)"/><path class="m" d="M65.83,117.35s-1.38.938-1.38,1.959,7.3,21.457,7.3,21.457.166-19.566,0-20.477a15.041,15.041,0,0,0-.98-2.567S67.969,119.82,65.83,117.35Z" transform="translate(-29.282 4.562)"/><path class="n" d="M28.367,89.69l-.5,1.587.828.676.386,11.108,2.884,8.2.069-8.334-2.47-11.011.9-1.559-1.187-.662Z" transform="translate(10.569 34.071)"/><path class="b" d="M76.965,146.8a18.82,18.82,0,0,1-2.9,2.939l-.662.524a1.628,1.628,0,0,1-.856.4,1.477,1.477,0,0,1-.635-.152q-6.334-2.456-12.419-5.519c-1.683-.869-3.546-2-3.905-3.864a6.223,6.223,0,0,1,0-1.959,56.463,56.463,0,0,1,3.67-13.8c.511-1.242,1.145-3.643,2.47-4.457h.152l.193-.1c1.794-.649,3.353,1.145,3.85,2.663a12.2,12.2,0,0,1-.207,6.706,41.578,41.578,0,0,0-1.532,6.6,1.766,1.766,0,0,0,.083.925,1.946,1.946,0,0,0,.69.69Z" transform="translate(-32.676 5.827)"/><path class="n" d="M71.06,176.965l.317,3.174,2,.373.9-.787,1.532,1.214h6s1.532-2.636-1.794-3.532l-3.312-.9Z" transform="translate(-26.771 27.034)"/><path class="n" d="M62.56,176.965l.317,3.174,2,.373.9-.787,1.518,1.214h6.016s1.518-2.636-1.794-3.532l-3.325-.9Z" transform="translate(-30 27.034)"/><path class="o" d="M30.89,123.59l2.691-2.18,1.89,36.014-2.9.455Z" transform="translate(11.716 46.12)"/><path class="p" d="M74.108,149.7l-.662.524a1.628,1.628,0,0,1-.856.4,1.476,1.476,0,0,1-.635-.152q-6.334-2.456-12.419-5.519c-1.683-.869-3.546-2-3.905-3.864a6.223,6.223,0,0,1,0-1.959,56.464,56.464,0,0,1,3.67-13.8c.511-1.242,1.145-3.643,2.47-4.457h.152l.193-.1a4.029,4.029,0,0,1,3.85,2.663s-6.389,13.081-6.113,15.054,13.688,8.376,13.688,8.376Z" transform="translate(-32.661 5.864)"/><path class="k" d="M75.261,140.71a2.374,2.374,0,0,1,.952.469.952.952,0,0,1,.317.966,3.187,3.187,0,0,1-.373.58c-.166.3-.193.69-.359,1.007a2.166,2.166,0,0,1-1.38.966,4.94,4.94,0,0,1-4.843-.442c-.938-.814-2.76-4.14-.745-4.623a8.085,8.085,0,0,1,2.622.276A23.3,23.3,0,0,1,75.261,140.71Z" transform="translate(-27.963 13.021)"/><path class="b" d="M175.675,136.529H116.7l10.446-29.419h39.726Z" transform="translate(44.312 40.688)"/><path class="q" d="M175.675,136.529H116.7l10.446-29.419h39.726Z" transform="translate(44.312 40.688)"/><rect class="b" width="174.001" height="117.882" rx="7.67" transform="translate(105.997 40.955)"/><path class="r" d="M220.532,133.207a.842.842,0,0,0,.5.869,2.318,2.318,0,0,0,1.063.138h1.545a.828.828,0,0,1,.455.1.786.786,0,0,1,.221.635l.166,6.568a9.507,9.507,0,0,1-.607,4.416c-.331.676-.828,1.256-1.173,1.918a2.608,2.608,0,0,0-.29,2.153c2.622.11,5.243.11,7.851,0a1.987,1.987,0,0,0,1.38-.414,1.739,1.739,0,0,0,.373-.7,55.858,55.858,0,0,0,1.9-6.679,26.215,26.215,0,0,0,.731-6.554,12.709,12.709,0,0,0-1.808-6.292,4,4,0,0,0-1.076-1.228,4.388,4.388,0,0,0-1.49-.593,42.776,42.776,0,0,0-7.962-1.049,4.14,4.14,0,0,0-2.608.4,2.76,2.76,0,0,0-1.09,2.5,8.4,8.4,0,0,0,.8,2.76" transform="translate(29.274 8.009)"/><path class="s" d="M126.934,143.658q2.484-8.169,5.644-16.131a1.076,1.076,0,0,1,.455-.511,1.021,1.021,0,0,1,.7,0l4.595.649a21.208,21.208,0,0,1-2.263,7.382,61.554,61.554,0,0,0-3.891,13.15,2.994,2.994,0,0,1-.414,1.283,2.911,2.911,0,0,1-1.932,1.007c-2.249.469-3.712,1.159-4.14-1.132C125.417,147.6,126.465,145.2,126.934,143.658Z" transform="translate(-6.035 8.21)"/><path class="t" d="M145.175,144.609h4.94a1.38,1.38,0,0,1,.966.235c.235.207.29.538.483.8.4.552,1.2.538,1.877.469a43.161,43.161,0,0,0,7-1.38l-.883-6.016a53.578,53.578,0,0,1-12.764,1.256l-.235-7.244h6.513a.993.993,0,0,0,1.159-1.228,18.952,18.952,0,0,0-.152-2.649.787.787,0,0,0-.235-.552.828.828,0,0,0-.607-.083,78.652,78.652,0,0,1-14.972.552,76.721,76.721,0,0,1-4,21.733c2.649-.29,5.8.166,8.348-.414,1.214-.276,1.159-.4,1.545-1.711A35.855,35.855,0,0,1,145.175,144.609Z" transform="translate(-2.763 8.68)"/><path class="i" d="M289.771,69.264v84.82h-174V69.264A10.6,10.6,0,0,1,126.354,58.68H279.187a10.6,10.6,0,0,1,10.584,10.584Z" transform="translate(-9.787 -17.725)"/><path class="b" d="M226.549,125.2A17.511,17.511,0,0,1,220,128.456a1.118,1.118,0,0,0-.786.373,1.021,1.021,0,0,0,0,.731,29.1,29.1,0,0,0,1.545,5.037,25.417,25.417,0,0,0,9.949-3.5,3.781,3.781,0,0,0,1.27-1.1,4.139,4.139,0,0,0,.414-1.725c.124-1.642.359-3.974-.607-5.423-.773-1.131-1.187-.386-2.208.317Z" transform="translate(29.48 6.426)"/><path class="u" d="M227.453,125a17.415,17.415,0,0,1-6.554,3.256,1.09,1.09,0,0,0-.8.386.98.98,0,0,0,0,.717,29.06,29.06,0,0,0,1.532,5.037,25.486,25.486,0,0,0,9.963-3.5,3.587,3.587,0,0,0,1.256-1.1,3.7,3.7,0,0,0,.414-1.725c.124-1.628.373-3.974-.607-5.409-.759-1.132-1.187-.4-2.208.3Z" transform="translate(29.818 6.353)"/><path class="m" d="M286.469,70.616v80.032H117.67V70.616A10.211,10.211,0,0,1,127.936,60.46H276.161a10.211,10.211,0,0,1,10.308,10.156Z" transform="translate(-9.065 -17.049)"/><path class="a" d="M286.469,70.616v80.032H117.67V70.616A10.211,10.211,0,0,1,127.936,60.46H276.161a10.211,10.211,0,0,1,10.308,10.156Z" transform="translate(-9.065 -17.049)"/><rect class="a" width="55.581" height="51.055" transform="translate(123.204 53.884)"/><path class="b" d="M245.83,161.47a8.9,8.9,0,0,0-2.608,6.32,8.733,8.733,0,0,0,.759,3.6,8.914,8.914,0,0,0,5.878,5.037v2.042H142.23a10.653,10.653,0,0,1-10.128-7.313,10.5,10.5,0,0,1-.552-3.367,10.666,10.666,0,0,1,10.68-10.68H249.86v2.042a9.08,9.08,0,0,0-4.029,2.318Z" transform="translate(-3.793 19.665)"/><path class="v" d="M249.708,173.488v2.042H142.078a10.653,10.653,0,0,1-10.128-7.313c4.14.718,29.957,4.843,44.363-3.367l67.475,3.6a8.914,8.914,0,0,0,5.92,5.037Z" transform="translate(-3.641 22.605)"/><path class="m" d="M142.009,178.244c3.05.166,6.32.3,8.928-1.3a1.38,1.38,0,0,0,.469-.414.9.9,0,0,0-.083-.869,1.89,1.89,0,0,0-.7-.58,9.659,9.659,0,0,0-3.1-.9c-1.38-.235-2.636-.455-3.96-.593-.856-.083-2.3-.428-2.994.262a2.649,2.649,0,0,0-.331,2.194C140.394,177.292,140.629,178.161,142.009,178.244Z" transform="translate(-0.536 25.866)"/><path class="m" d="M127.041,175.648c2.4,1.89,5.023,3.85,8.072,4.029a1.131,1.131,0,0,0,.607-.083.883.883,0,0,0,.442-.759,1.974,1.974,0,0,0-.248-.883,10.445,10.445,0,0,0-2.042-2.5c-.952-.938-1.9-1.877-2.925-2.76-.649-.552-1.642-1.67-2.594-1.49s-1.214.993-1.532,1.614C126.255,173.937,125.951,174.793,127.041,175.648Z" transform="translate(-5.783 25.012)"/><path class="m" d="M233.462,161.007a8.942,8.942,0,0,0,4.029,14.958v.3H173.079a8.969,8.969,0,0,1,0-17.938h64.412v.29a9.079,9.079,0,0,0-4.029,2.387Z" transform="translate(8.576 20.129)"/><path class="m" d="M75.1,133.077l.317-1.049a.511.511,0,0,1,.428-.359l6.361-.469a.317.317,0,0,1,.331.428l-.386,1.145a.607.607,0,0,1-.538.414l-6.127.373a.373.373,0,0,1-.386-.483Z" transform="translate(-25.241 9.822)"/><path class="k" d="M95.735,113.572a4.816,4.816,0,0,1-2,1.932,17.316,17.316,0,0,1-2.442.925,4.139,4.139,0,0,0-2.153,1.38l-.1.124q-1.2-.718-2.442-1.38c.11-.221.317-.483.4-.649.179-.4.317-.814.483-1.214a7.631,7.631,0,0,1,2.87-3.394c.1,0,.221-.124.317,0a.235.235,0,0,1,0,.193,3.422,3.422,0,0,1-.469,1.67l5-1.794a.676.676,0,0,1,.4-.069.593.593,0,0,1,.345.359A2.346,2.346,0,0,1,95.735,113.572Z" transform="translate(-20.868 2.241)"/><path class="i" d="M148.526,183.039v3.036a29.791,29.791,0,0,1-5.519.152.538.538,0,0,1-.635-.607c-.386-5.036.248-10.114-.331-15.11a11.039,11.039,0,0,0-.718-3.063,15.4,15.4,0,0,0-1.711-2.76,63.131,63.131,0,0,1-5.147-8.4,19.7,19.7,0,0,1-1.918-9.562c0-3.3,1.739-4.719,4.954-3.864a3.422,3.422,0,0,1,1.38.552,3.656,3.656,0,0,1,.8,1.035,80.323,80.323,0,0,1,5.147,9.838C148.361,163.32,148.65,173.269,148.526,183.039Z" transform="translate(-3.424 14.158)"/><path class="w" d="M148.526,183.039v3.036a29.791,29.791,0,0,1-5.519.152.538.538,0,0,1-.635-.607c-.386-5.036.248-10.114-.331-15.11a11.039,11.039,0,0,0-.718-3.063,15.4,15.4,0,0,0-1.711-2.76,63.131,63.131,0,0,1-5.147-8.4,19.7,19.7,0,0,1-1.918-9.562c0-3.3,1.739-4.719,4.954-3.864a3.422,3.422,0,0,1,1.38.552,3.656,3.656,0,0,1,.8,1.035,80.323,80.323,0,0,1,5.147,9.838C148.361,163.32,148.65,173.269,148.526,183.039Z" transform="translate(-3.424 14.158)"/><path class="k" d="M145.72,134a27.225,27.225,0,0,0,15.786-11.812,3.5,3.5,0,0,0,.676-3.036.469.469,0,0,0-.235-.3.545.545,0,0,0-.566.152l-8.5,5.519a25.541,25.541,0,0,1-7.493,3.781,9.659,9.659,0,0,0-.869,2.622,4.788,4.788,0,0,0,1.2,3.077Z" transform="translate(1.134 5.119)"/><rect class="m" width="99.709" height="80.35" transform="translate(149.987 72.913)"/><path class="x" d="M161.719,139.924a3.5,3.5,0,0,1-1.532.58,41.7,41.7,0,0,1-11.039.718,1.642,1.642,0,0,1-1.021-.29,1.7,1.7,0,0,1-.455-1.187,11.217,11.217,0,0,1,.221-3.394c0-.152,9.024-.138,9.88,0C158.973,136.543,163.844,138.213,161.719,139.924Z" transform="translate(2.315 11.738)"/><path class="x" d="M213.927,117.607a6.1,6.1,0,0,0,0,2.18,7.479,7.479,0,0,0,1.49,2.76,46.515,46.515,0,0,1,6.361,12.419,27.018,27.018,0,0,0,.621-7.465,12.83,12.83,0,0,0-.193-2.622,17.192,17.192,0,0,0-1.38-3.436,26.285,26.285,0,0,1-1.808-5.519c-.276-1.38-.745-4.692-2.843-4.471C214.369,111.743,214.065,116.269,213.927,117.607Z" transform="translate(27.462 2.318)"/><path class="i" d="M128.365,150.12a48.019,48.019,0,0,0,3.381,9.162c1.187,2.5,3.933,5.7,3.919,8.514,0,5.078-5.34,11.853-8.624,15.33a28.976,28.976,0,0,0,5.519,2.843,2.042,2.042,0,0,0,1.38.193A2.166,2.166,0,0,0,135.071,185l3.574-6.2c1.987-3.45,4.043-7.092,4.209-11.039a28.29,28.29,0,0,0-.3-4.319c-.373-3.05,0-6.5-.759-9.466-.676-2.76-1.559-5.381-2.18-8.127a5.989,5.989,0,0,0-1.849-3.712,4.953,4.953,0,0,0-1.614-.7c-2.76-.787-5.8-.883-7.313,2a9.839,9.839,0,0,0-.469,6.679Z" transform="translate(-5.506 13.533)"/><path class="m" d="M148.987,126.379c1.518.552.1,4.14-.3,5.147a.925.925,0,0,1-1.2.731c-2.277-.207-4.554-.483-6.817-.814a3.671,3.671,0,0,1-1.38-.414,2.47,2.47,0,0,1-1.007-1.628c-.207-1.063-.317-3.6.607-4.416.662-.593,2-.166,2.87-.083a30.357,30.357,0,0,1,7.23,1.476Z" transform="translate(-1.291 7.344)"/><path class="y" d="M148.654,127.467c1.518.552.1,4.14-.317,5.147a1.173,1.173,0,0,1-.428.649,1.2,1.2,0,0,1-.759.083c-2.291-.207-4.554-.483-6.817-.8a3.933,3.933,0,0,1-1.449-.428,2.442,2.442,0,0,1-.994-1.628c-.221-1.062-.317-3.6.607-4.416.662-.58,1.987-.166,2.87-.083a30.5,30.5,0,0,1,7.286,1.476Z" transform="translate(-1.44 7.76)"/><path class="k" d="M145.252,117.5c.276.455.814.718.994,1.2s-.193,1.214-.414,1.808c-.29.828-.193,1.766-.483,2.594a.994.994,0,0,1-.3.469,1.145,1.145,0,0,1-.442.179,6.582,6.582,0,0,1-1.877.11.524.524,0,0,0-.359,0,.483.483,0,0,0-.166.317,10.031,10.031,0,0,0,0,4.788c.138.511.29,1.145-.1,1.518a.994.994,0,0,1-.483.235,3.408,3.408,0,0,1-3.146-1.5,14.09,14.09,0,0,1-1.849-2.76,2.871,2.871,0,0,1-.317-.869,3.394,3.394,0,0,1,.166-1.173,19.513,19.513,0,0,0,.621-3.988,15.689,15.689,0,0,1,.621-5.092,2.76,2.76,0,0,1,1.049-1.38,3.353,3.353,0,0,1,1.849-.29,4.871,4.871,0,0,1,3.477,1.132C144.41,115.172,144.921,116.9,145.252,117.5Z" transform="translate(-1.985 3.152)"/><path class="i" d="M145.468,114.244c.511-.1.883.593.69,1.062a1.587,1.587,0,0,1-1.256.814,14.119,14.119,0,0,0-1.532.221,1.256,1.256,0,0,0-.952,1.1,1.173,1.173,0,0,0-1.3.856,3.38,3.38,0,0,0,0,1.7c-.166.179-.455,0-.607-.124s-.248-.4-.442-.524c-.442-.235-.966.317-.911.814a2.249,2.249,0,0,0,.814,1.214.7.7,0,0,1,.221.276c.138.414-.414.7-.842.8a2.18,2.18,0,0,1-.11.952.787.787,0,0,1-.731.538c-.29,0-.524-.235-.787-.345s-.676,0-.7.248c-.442-.925,0-1.794-.166-2.76s-.883-.511-1.38-1.049c-.262-.3-.248-.759-.373-1.145a14.324,14.324,0,0,1-.676-1.38c-.193-.856.524-1.628,1.173-2.208a.842.842,0,0,1,.207-.952,1.863,1.863,0,0,1,.938-.4.552.552,0,0,0,.248-.1.371.371,0,0,0,0-.442c-.207-2.608,4.043-1.89,5.6-1.752a4.14,4.14,0,0,1,1.835.621C144.75,112.45,146.047,114.133,145.468,114.244Z" transform="translate(-2.711 2.328)"/><path class="m" d="M139.564,122.471h.1c2.277.566,5.588,2.636,6.334,4.94a20.367,20.367,0,0,1,.883,9.783c-.469,2.084-1.739,3.891-2.263,5.92a48.4,48.4,0,0,1-1.6,6.637,4.9,4.9,0,0,1-1.821,2.484,5.4,5.4,0,0,1-2.511.552c-2.553.138-6.14,1.007-8.279-.745a6.9,6.9,0,0,1-2.153-5.7,20.2,20.2,0,0,1,1.628-6.085l3.546-9.245C134.306,128.819,136.376,121.836,139.564,122.471Z" transform="translate(-5.059 6.492)"/><path class="z" d="M135.583,142.06a3.064,3.064,0,0,1,.386,1.076,2.759,2.759,0,0,1-.124.814,16.559,16.559,0,0,0-.455,4.595,1.021,1.021,0,0,0,.235.773,1.076,1.076,0,0,0,.69.207,5,5,0,0,0,2.636-.262,4.54,4.54,0,0,0,1.932-2.429,48.417,48.417,0,0,0,2.566-8.693,3.573,3.573,0,0,0,.138-1.476,2.87,2.87,0,0,0-1.38-1.766c-.621-.428-1.38-.731-1.918-1.187-1.173-.911-2.042-2.539-3.643-2.76a2.373,2.373,0,0,0-2.484,1.766C133.2,135.478,134.286,139.438,135.583,142.06Z" transform="translate(-2.941 9.726)"/><path class="m" d="M139.713,127.894s3.243,8.79,3.891,9.438-6.265,4.526-6.265,4.526-4.5-8.541-4.278-12.253S137.119,124.4,139.713,127.894Z" transform="translate(-3.221 7.816)"/><path class="k" d="M136.16,137.475a3.27,3.27,0,0,0,3.712,2.76l5.878-.083c2.76,0,5.409-.124,8.114-.11a8.652,8.652,0,0,1,1.932.5,8.03,8.03,0,0,0,2.567.152,7.741,7.741,0,0,0,4.512-2.084,2.553,2.553,0,0,0,.924-2.76.69.69,0,0,0-.276-.317.869.869,0,0,0-.331,0,13.108,13.108,0,0,1-4.871-.083,1.214,1.214,0,0,0,.193-.69.432.432,0,0,0-.483-.414.7.7,0,0,0-.317.221,3.781,3.781,0,0,1-3.174,1.256c-4.457-.207-8.845-1.159-13.3-1.38a7.548,7.548,0,0,0-3.091.317,3.671,3.671,0,0,0-1.987,2.718Z" transform="translate(-2.041 11.013)"/><path class="aa" d="M225.263,123.67a10.335,10.335,0,0,0-2.953,2,4.278,4.278,0,0,0-1.38,3.215,5.7,5.7,0,0,0,2.249,3.588c1.242,1.09,2.76,2.235,2.856,3.905.9-.662,1.711-1.38,2.622-2.07a34.911,34.911,0,0,1,5.285-2.5,8.5,8.5,0,0,0,4.374-3.726,10.625,10.625,0,0,0,.773-3.477,17.248,17.248,0,0,0,.1-3.864,5.671,5.671,0,0,0-1.6-3.436,10.362,10.362,0,0,0-4.788-2.028,5.161,5.161,0,0,0-4.54,3.187c-.359.966-.193,2.07-.552,3.022a4.457,4.457,0,0,1-2.442,2.18Z" transform="translate(30.16 3.775)"/><path class="k" d="M213.425,179.552a3.3,3.3,0,0,0-1.007.262.966.966,0,0,0-.538.828,1.063,1.063,0,0,0,.621.773c.3.152.649.221.952.386a5.3,5.3,0,0,0,.814.455,2.346,2.346,0,0,0,1.49-.207,19.594,19.594,0,0,1,6.734-1.1,2.637,2.637,0,0,0,.662,0,1.987,1.987,0,0,0,1.311-1.518,9.92,9.92,0,0,0,0-4.319,1.2,1.2,0,0,0-.166-.455.787.787,0,0,0-.373-.221c-2.249-.855-3.215,1.38-4.692,2.594a12.046,12.046,0,0,1-5.809,2.525Z" transform="translate(26.722 26.173)"/><path class="b" d="M221.294,178.775h-.442a18.724,18.724,0,0,1-3.049.083,1.132,1.132,0,0,1-.552-.138.9.9,0,0,1-.331-.731,4.14,4.14,0,0,0,0-.828.331.331,0,0,0-.083-.152.276.276,0,0,0-.152,0,4.774,4.774,0,0,0-2.222.621,7.575,7.575,0,0,0-3.45,2.76.663.663,0,0,0-.124.359.5.5,0,0,0,.124.3c.911,1.38,3.188,1.076,4.581.787s3.036-.924,4.609-1.173,3.588-.138,5.078-1.049a1.559,1.559,0,0,0,.593-.566,2.373,2.373,0,0,0-.607-2.429.373.373,0,0,0-.207-.152.442.442,0,0,0-.317.083c-.7.442-1.173,1.214-1.89,1.656a3.878,3.878,0,0,1-1.559.566Z" transform="translate(26.346 27.018)"/><path class="b" d="M233.949,136.37s7.023,4.029,5.064,11.384c-1.725,6.43-6.665,10.432-9.825,15.924-1.752,3.036-1.38,8.017-2.166,11.563A85.555,85.555,0,0,1,223.283,188c-.331.828-.842,1.808-1.739,1.835a12.328,12.328,0,0,1-1.242-.235,5.864,5.864,0,0,1-1.2,0c-1.021-.235-1.021-1.683-.787-2.76a84.491,84.491,0,0,0,2.015-15c.166-3.891-.883-8.017.221-11.8.869-2.981,6.085-18.987,6.085-18.987Z" transform="translate(29.118 11.787)"/><path class="ab" d="M233.949,136.37s7.023,4.029,5.064,11.384c-1.725,6.43-6.665,10.432-9.825,15.924-1.752,3.036-1.38,8.017-2.166,11.563A85.555,85.555,0,0,1,223.283,188c-.331.828-.842,1.808-1.739,1.835a12.328,12.328,0,0,1-1.242-.235,5.864,5.864,0,0,1-1.2,0c-1.021-.235-1.021-1.683-.787-2.76a84.491,84.491,0,0,0,2.015-15c.166-3.891-.883-8.017.221-11.8.869-2.981,6.085-18.987,6.085-18.987Z" transform="translate(29.118 11.787)"/><path class="k" d="M224.085,182.993a3.062,3.062,0,0,0-.911.5.924.924,0,0,0-.317.938,1.035,1.035,0,0,0,.787.593,5.051,5.051,0,0,1,1.007.138,7.642,7.642,0,0,0,.924.248,2.4,2.4,0,0,0,1.38-.58,19.634,19.634,0,0,1,6.251-2.76,3.1,3.1,0,0,0,.635-.207,2.015,2.015,0,0,0,.8-1.752,9.548,9.548,0,0,0-1.118-4.14,1.007,1.007,0,0,0-.262-.4.856.856,0,0,0-.414-.124c-2.4-.262-2.76,2.153-3.891,3.684a12.2,12.2,0,0,1-4.871,3.864Z" transform="translate(30.882 26.623)"/><path class="b" d="M230.775,140.07a9.066,9.066,0,0,1,4.94,2.4c2.939,2.5,2.76,7.6,1.739,11.342-.524,1.959-3.643,8.127-4.14,9.88-.869,3.312.869,7.424,1.021,10.777a85.654,85.654,0,0,1-.455,13.3c-.1.883-.359,1.946-1.214,2.208-.414.11-.856,0-1.269.083a5.7,5.7,0,0,1-1.145.331c-1.049,0-1.38-1.38-1.38-2.415a86.24,86.24,0,0,0-1.78-15.041c-.8-3.808-2.856-7.548-2.76-11.48l.29-9.659c.11-3.56-.386-7.161.7-10.584a1.918,1.918,0,0,1,.635-1.062,1.987,1.987,0,0,1,1.021-.276,20.352,20.352,0,0,1,3.174,0Z" transform="translate(31.45 13.095)"/><path class="k" d="M225.606,114.955c-.262.442-.814.7-.993,1.2s.207,1.214.414,1.808c.3.828.207,1.766.5,2.594a.966.966,0,0,0,.29.469,1.007,1.007,0,0,0,.442.166,5.8,5.8,0,0,0,1.89.11.621.621,0,0,1,.359,0,.51.51,0,0,1,.166.317,10.032,10.032,0,0,1-.083,4.788c-.124.511-.276,1.145.11,1.518a.993.993,0,0,0,.483.235,3.464,3.464,0,0,0,3.146-1.518,14.363,14.363,0,0,0,1.835-2.76,2.869,2.869,0,0,0,.317-.869,2.953,2.953,0,0,0-.166-1.187,20.189,20.189,0,0,1-.607-3.974,15.4,15.4,0,0,0-.635-5.106,2.76,2.76,0,0,0-1.035-1.38,3.422,3.422,0,0,0-1.863-.29,4.774,4.774,0,0,0-3.463,1.132C226.462,112.623,225.937,114.389,225.606,114.955Z" transform="translate(31.541 2.169)"/><path class="m" d="M234.585,119.887s-5.147,2.663-6.706,4.747-4.14,3.629-3.118,7.589c.8,3.2-.069,6.182-.11,9.355,0,.869.373,1.573.359,2.456,0,1.545-1.38,2.912-.856,4.512.4,1.311,1.918,1.877,3.243,2.249l5.174,1.5a4.705,4.705,0,0,0,3.491.083c1.3-.718,1.587-2.442,1.711-3.919.3-3.822.193-8.417,1.766-11.991a11.039,11.039,0,0,0,.938-6.527C240.145,127.048,238.89,119.376,234.585,119.887Z" transform="translate(31.339 5.516)"/><path class="aa" d="M226.523,112.775a3.56,3.56,0,0,0,1.145,2.208c.607.566,1.38.952,1.987,1.5a2.511,2.511,0,0,1,1.007,2.18,1.09,1.09,0,0,1,1.38.428.9.9,0,0,1-.138.952,1.159,1.159,0,0,1-.9.373,3.519,3.519,0,0,1,1.6,1.3c.442.649.662,1.38,1.063,2.111a6.9,6.9,0,0,0,1.835,1.725,2.484,2.484,0,0,1,.8.855,12.425,12.425,0,0,0,.538,1.518,20.81,20.81,0,0,0,1.476,1.863,6.789,6.789,0,0,1,1.159,3.491,6.061,6.061,0,0,1,0-1.118c.124-.221.248-.442.359-.662a6.112,6.112,0,0,0,.469-1.269,12.417,12.417,0,0,0,.083-3.036c0-2.166,2.042-6.251.4-8.114a17.637,17.637,0,0,0-2.084-1.476c-1.38-1.2-1.656-3.312-2.567-4.954a6.209,6.209,0,0,0-3.795-2.967C230.152,109.091,226.261,109.767,226.523,112.775Z" transform="translate(32.28 1.575)"/><path class="m" d="M234.588,122.31s-9.259,1.49-10.128,1.256-.869,7.672-.869,7.672,9.659-.29,12.778-2.3S238.879,122.793,234.588,122.31Z" transform="translate(31.17 6.446)"/><path class="k" d="M227.712,135.283a3.27,3.27,0,0,1-4.25-1.863l-7.41-13.55c0-1.187-.676-2.484-.3-3.6.193-.538.58-.98.773-1.5a3.16,3.16,0,0,0,0-2.139,10.116,10.116,0,0,0-1.021-1.9.9.9,0,0,1,1.035-.566,2.18,2.18,0,0,1,1.076.676,6.9,6.9,0,0,1,1.932,4.926,5.628,5.628,0,0,0,0,1.67,3.56,3.56,0,0,0,.524,1.049c2.373,3.781,5.354,7.134,7.727,10.915a7.878,7.878,0,0,1,1.242,2.856,3.684,3.684,0,0,1-1.325,3.036Z" transform="translate(28.097 1.821)"/><path class="b" d="M231.723,180.676l-.4.11a18.93,18.93,0,0,1-2.76.455.98.98,0,0,1-.524,0,.855.855,0,0,1-.4-.635,3.517,3.517,0,0,0-.152-.759.207.207,0,0,0-.1-.124.235.235,0,0,0-.138,0,4.5,4.5,0,0,0-1.973.856,7.12,7.12,0,0,0-2.76,3.008.731.731,0,0,0-.069.345.621.621,0,0,0,.152.262c1.021,1.2,3.063.593,4.305.138s2.677-1.214,4.14-1.642,3.27-.593,4.526-1.614a1.518,1.518,0,0,0,.483-.58,2.222,2.222,0,0,0-.869-2.166.386.386,0,0,0-.207-.11.373.373,0,0,0-.276.124c-.607.5-.938,1.256-1.532,1.752a3.6,3.6,0,0,1-1.449.58Z" transform="translate(30.737 27.684)"/><path class="b" d="M239.587,149.984H153V89.67h86.656Zm-85.883-.773h85.11V90.443H153.7Z" transform="translate(4.355 -5.953)"/><path class="b" d="M120.539,107.212l-3.229-3.339,15.565-15.041,10.059,4.609,17.455-16.2,9.176,5.8L187.449,68.41,190.388,72,169.924,88.749l-9-5.671L143.817,98.96l-9.99-4.581Z" transform="translate(44.544 25.987)"/><path class="b" d="M176.158,79.1h-4.636V71.18H163.38V66.53h12.778Z" transform="translate(62.044 25.273)"/></g></svg>