<svg xmlns="http://www.w3.org/2000/svg" width="166.877" height="166.877" viewBox="0 0 166.877 166.877">
  <g id="Group_2458" data-name="Group 2458" transform="translate(-1308.561 -959)">
    <g id="Group_2457" data-name="Group 2457">
      <rect id="Rectangle_1986" data-name="Rectangle 1986" width="118" height="118" rx="8" transform="translate(1392 959) rotate(45)" fill="#00a859" opacity="0.4"/>
      <rect id="Rectangle_1987" data-name="Rectangle 1987" width="110" height="110" rx="8" transform="translate(1392.344 965) rotate(45)" fill="#00a859"/>
    </g>
    <g id="Group_2456" data-name="Group 2456" transform="translate(1356.003 1007.004)">
      <path id="Path_2293" data-name="Path 2293" d="M184,40h8.87v1.774H184Z" transform="translate(-156.485 -28.452)" fill="#fff"/>
      <path id="Path_2294" data-name="Path 2294" d="M184,72h8.87v1.774H184Z" transform="translate(-156.485 -56.904)" fill="#fff"/>
      <path id="Path_2295" data-name="Path 2295" d="M216,104h1.774v1.774H216Z" transform="translate(-184.937 -85.355)" fill="#fff"/>
      <path id="Path_2296" data-name="Path 2296" d="M184,104h1.774v1.774H184Z" transform="translate(-156.485 -85.355)" fill="#fff"/>
      <path id="Path_2297" data-name="Path 2297" d="M248,104h1.774v1.774H248Z" transform="translate(-213.389 -85.355)" fill="#fff"/>
      <path id="Path_2298" data-name="Path 2298" d="M40.928,39.307l2.921-2.921H57.326a4.247,4.247,0,0,0,4.224-3.78l1.421-12.789A4.4,4.4,0,0,0,63,19.345,4.253,4.253,0,0,0,58.748,15.1h-19.1l.264-2.377a4.369,4.369,0,0,0,.026-.47A4.253,4.253,0,0,0,35.685,8H12.249A4.253,4.253,0,0,0,8,12.249a4.353,4.353,0,0,0,.026.469L9.447,25.509a4.246,4.246,0,0,0,4.224,3.78h8.522v7.1H18.645V32.837H8v8.87H18.645V38.16h3.548v8.87H18.645V43.482H8v8.87H18.645V48.8h3.548v8.87H18.645V54.127H8V63H18.645V59.449h5.322V48.8h9.758v2.661H38.16v3.548H33.724v7.1H44.369V59.449h7.1V62.11H62.11v-7.1H57.675V51.465H62.11v-7.1H51.465V47.03h-7.1V44.369H39.934V39.861a2.147,2.147,0,0,0,.994-.554Zm-24.058.627h-7.1V34.611h7.1Zm0,10.645h-7.1V45.256h7.1Zm0,10.645h-7.1V55.9h7.1ZM48.8,23.08a2.661,2.661,0,1,1,2.661,2.661A2.664,2.664,0,0,1,48.8,23.08Zm7.983,11.532H46.143V32.837a5.322,5.322,0,0,1,10.645,0ZM39.447,16.87h19.3a2.478,2.478,0,0,1,2.475,2.475,2.363,2.363,0,0,1-.016.273l-1.421,12.79a2.463,2.463,0,0,1-1.225,1.866V32.837A7.1,7.1,0,0,0,54.4,26.382a4.435,4.435,0,1,0-5.863,0,7.1,7.1,0,0,0-4.165,6.455v1.774H43.115l-3.441,3.441a.381.381,0,0,1-.627-.26V34.611H36.734a2.472,2.472,0,0,1-2.46-2.2l-.347-3.121h.336a4.247,4.247,0,0,0,4.224-3.78ZM11.21,25.313,9.79,12.521a2.336,2.336,0,0,1-.016-.272,2.478,2.478,0,0,1,2.475-2.475H35.685a2.478,2.478,0,0,1,2.475,2.475,2.362,2.362,0,0,1-.016.273l-1.421,12.79a2.471,2.471,0,0,1-2.46,2.2H30.176V30.7a.382.382,0,0,1-.627.26l-2.921-2.921V25.741a7.1,7.1,0,0,0-4.165-6.455,4.435,4.435,0,1,0-5.863,0,7.1,7.1,0,0,0-4.165,6.455V27.18a2.465,2.465,0,0,1-1.225-1.866Zm5.66-9.33a2.661,2.661,0,1,1,2.661,2.661A2.664,2.664,0,0,1,16.87,15.983Zm7.983,11.532H14.209V25.741a5.322,5.322,0,1,1,10.645,0ZM42.595,60.336H35.5V56.788h7.1Zm17.741,0h-7.1V56.788h7.1Zm-7.1-14.193h7.1v3.548h-7.1ZM51.465,48.8v2.661H55.9v3.548H51.465v2.661h-7.1V55.014H39.934V51.465h4.435V48.8Zm-8.87.887H35.5V46.143h7.1Zm-8.87-5.322V47.03H23.967V29.289h1.407l2.92,2.92A2.141,2.141,0,0,0,31.95,30.7V29.289h.192l.368,3.317a4.246,4.246,0,0,0,4.224,3.78h.538v1.407a2.134,2.134,0,0,0,.887,1.727v4.849Z" fill="#fff"/>
      <path id="Path_2299" data-name="Path 2299" d="M40,456h3.548v1.774H40Z" transform="translate(-28.452 -398.325)" fill="#fff"/>
      <path id="Path_2300" data-name="Path 2300" d="M40,360h3.548v1.774H40Z" transform="translate(-28.452 -312.97)" fill="#fff"/>
      <path id="Path_2301" data-name="Path 2301" d="M40,264h3.548v1.774H40Z" transform="translate(-28.452 -227.614)" fill="#fff"/>
    </g>
  </g>
</svg>
