<svg xmlns="http://www.w3.org/2000/svg" width="166.877" height="166.877" viewBox="0 0 166.877 166.877">
  <g id="Group_2459" data-name="Group 2459" transform="translate(-876.561 -959)">
    <g id="Group_2455" data-name="Group 2455">
      <rect id="Rectangle_1984" data-name="Rectangle 1984" width="118" height="118" rx="8" transform="translate(960 959) rotate(45)" fill="#00a859" opacity="0.4"/>
      <rect id="Rectangle_1985" data-name="Rectangle 1985" width="110" height="110" rx="8" transform="translate(960.344 965) rotate(45)" fill="#00a859"/>
    </g>
    <g id="Insurance" transform="translate(916.5 999.092)">
      <path id="Path_2283" data-name="Path 2283" d="M70.734,27.312,59.716,16.266A.925.925,0,0,0,59.074,16H31.583a2.758,2.758,0,0,0-2.75,2.75v.963a11.9,11.9,0,0,0-5.408,21.954H18.75a.917.917,0,0,0-.917.917v4.583h-.917a.917.917,0,0,0-.917.917v5.5a.917.917,0,0,0,.917.917h.917v3.667h-.917a.917.917,0,0,0-.917.917v5.5a.917.917,0,0,0,.917.917h.917v4.583A.917.917,0,0,0,18.75,71h22a.917.917,0,0,0,.917-.917v-2.75H68.25A2.758,2.758,0,0,0,71,64.583V27.962A.908.908,0,0,0,70.734,27.312ZM60,19.144,67.828,27H60.917A.917.917,0,0,1,60,26.083ZM19.667,31.583A10.083,10.083,0,1,1,29.75,41.667,10.083,10.083,0,0,1,19.667,31.583ZM38,49v3.667H34.333V49Zm-1.833-1.833V43.5h3.667v3.667ZM39.833,54.5v3.667H36.167V54.5Zm-5.5-7.333H30.667V43.5h3.667ZM28.833,49H32.5v3.667H28.833Zm-3.667-1.833V43.5h3.667v3.667Zm5.5,7.333h3.667v3.667H30.667ZM27,49v3.667H23.333V49Zm1.833,5.5v3.667H25.167V54.5Zm-9.167-11h3.667v3.667H19.667ZM17.833,49H21.5v3.667H17.833Zm5.5,5.5v3.667H19.667V54.5Zm-5.5,9.167V60H21.5v3.667Zm5.5,5.5H19.667V65.5h3.667Zm0-9.167H27v3.667H23.333Zm5.5,9.167H25.167V65.5h3.667Zm0-9.167H32.5v3.667H28.833Zm5.5,9.167H30.667V65.5h3.667Zm0-9.167H38v3.667H34.333Zm5.5,9.167H36.167V65.5h3.667Zm29.333-4.583a.917.917,0,0,1-.917.917H41.667v-.917a.917.917,0,0,0-.917-.917h-.917V60h.917a.917.917,0,0,0,.917-.917v-5.5a.917.917,0,0,0-.917-.917h-.917V49h.917a.917.917,0,0,0,.917-.917v-5.5a.917.917,0,0,0-.917-.917H36.075A11.879,11.879,0,0,0,38.33,23.333h3.337V21.5H38V23a11.874,11.874,0,0,0-7.333-3.291V18.75a.917.917,0,0,1,.917-.917H58.167v8.25a2.758,2.758,0,0,0,2.75,2.75h8.25Z" transform="translate(0 0)" fill="#fff"/>
      <path id="Path_2284" data-name="Path 2284" d="M256,64h12.671v1.81H256Z" transform="translate(-212.394 -42.569)" fill="#fff"/>
      <path id="Path_2285" data-name="Path 2285" d="M256,96h12.671v1.81H256Z" transform="translate(-212.394 -70.949)" fill="#fff"/>
      <path id="Path_2286" data-name="Path 2286" d="M304,144h3.62v1.81H304Z" transform="translate(-254.97 -113.327)" fill="#fff"/>
      <path id="Path_2287" data-name="Path 2287" d="M352,144h12.671v1.81H352Z" transform="translate(-297.292 -113.327)" fill="#fff"/>
      <path id="Path_2288" data-name="Path 2288" d="M304,176h3.62v1.81H304Z" transform="translate(-254.97 -141.659)" fill="#fff"/>
      <path id="Path_2289" data-name="Path 2289" d="M352,176h12.671v1.81H352Z" transform="translate(-297.292 -141.659)" fill="#fff"/>
      <path id="Path_2290" data-name="Path 2290" d="M107.62,83.62a1.81,1.81,0,0,1,1.81,1.81h1.81a3.621,3.621,0,0,0-2.715-3.492V80h-1.81v1.939a3.613,3.613,0,0,0,.905,7.112,1.81,1.81,0,1,1-1.81,1.81H104a3.621,3.621,0,0,0,2.715,3.492v1.939h1.81V94.353a3.613,3.613,0,0,0-.905-7.112,1.81,1.81,0,0,1,0-3.62Z" transform="translate(-77.897 -56.759)" fill="#fff"/>
      <path id="Path_2291" data-name="Path 2291" d="M340.992,279.648l-1.28,1.28,2.561,2.56a.905.905,0,0,0,1.28,0l5.12-5.12-1.28-1.28-4.48,4.48Z" transform="translate(-286.527 -231.119)" fill="#fff"/>
      <path id="Path_2292" data-name="Path 2292" d="M305.567,227.7l-8.146-3.62a.886.886,0,0,0-.742,0l-8.146,3.62a.893.893,0,0,0-.534.824v5.43a6.878,6.878,0,0,0,2.118,4.987l6.281,6.5a.9.9,0,0,0,1.268.035l.035-.035,6.281-6.5a6.863,6.863,0,0,0,2.118-4.987v-5.43a.893.893,0,0,0-.534-.824Zm-1.276,6.254a5.118,5.118,0,0,1-1.6,3.72l-5.639,5.838-5.639-5.838-.009-.009a5.109,5.109,0,0,1-1.593-3.711v-4.842l7.241-3.222,7.241,3.222Z" transform="translate(-240.532 -183.966)" fill="#fff"/>
    </g>
  </g>
</svg>
