<svg xmlns="http://www.w3.org/2000/svg" width="40" height="40" viewBox="0 0 40 40">
  <g id="Group_2561" data-name="Group 2561" transform="translate(-8 -8)">
    <path id="Path_2523" data-name="Path 2523" d="M262.194,199.789a5.931,5.931,0,0,0,1.886-2.648h.345a2.62,2.62,0,0,0,1.314-4.891v-2.993A5.262,5.262,0,0,0,260.483,184h-3.942a5.262,5.262,0,0,0-5.256,5.256v2.993a2.62,2.62,0,0,0,1.314,4.891h.345a5.935,5.935,0,0,0,1.886,2.648A7.229,7.229,0,0,0,248,207v2.628a.657.657,0,0,0,.657.657h19.71a.657.657,0,0,0,.657-.657V207A7.229,7.229,0,0,0,262.194,199.789Zm-6.626,1.294,2.064,2.579-2,2-.911-4.555c.168-.014.336-.026.508-.026Zm4.2,0-1.261,1.576-1.261-1.576Zm1.683,0h.341c.171,0,.34.011.507.026l-.911,4.555-2-2Zm2.969-5.256h-.039a5.866,5.866,0,0,0,.039-.657V193.2a1.314,1.314,0,0,1,0,2.628Zm-11.826-6.57a3.946,3.946,0,0,1,3.942-3.942h3.942a3.946,3.946,0,0,1,3.942,3.942v2.628H261.8a1.315,1.315,0,0,1-1.314-1.314v-2.628h-1.314v.657a3.289,3.289,0,0,1-3.285,3.285H252.6Zm0,6.57a1.314,1.314,0,0,1,0-2.628v1.971a5.866,5.866,0,0,0,.039.657Zm1.314-.657V193.2h1.971a4.588,4.588,0,0,0,3.49-1.612A2.631,2.631,0,0,0,261.8,193.2h1.314v1.971a4.6,4.6,0,1,1-9.2,0Zm13.8,13.8h-18.4V207a5.922,5.922,0,0,1,4.117-5.632l1.152,5.761a.658.658,0,0,0,.454.5.671.671,0,0,0,.19.028.658.658,0,0,0,.464-.193l2.821-2.821,2.821,2.821a.657.657,0,0,0,1.109-.336l1.152-5.761A5.924,5.924,0,0,1,267.71,207Z" transform="translate(-221.024 -162.281)" fill="#fff"/>
    <path id="Path_2524" data-name="Path 2524" d="M29.024,33.624V31a7.229,7.229,0,0,0-6.83-7.207A5.932,5.932,0,0,0,24.08,21.14h.345a2.62,2.62,0,0,0,1.314-4.891V13.256A5.262,5.262,0,0,0,20.483,8H16.541a5.262,5.262,0,0,0-5.256,5.256v2.993A2.62,2.62,0,0,0,12.6,21.14h.345a5.935,5.935,0,0,0,1.886,2.648A7.229,7.229,0,0,0,8,31v2.628a.657.657,0,0,0,.657.657h19.71A.657.657,0,0,0,29.024,33.624ZM15.568,25.082l2.064,2.579-2,2-.911-4.555c.168-.014.336-.026.508-.026Zm4.2,0-1.261,1.576-1.261-1.576Zm1.683,0H21.8c.171,0,.34.011.507.026l-.911,4.555-2-2Zm2.969-5.256h-.039a5.87,5.87,0,0,0,.039-.657V17.2a1.314,1.314,0,1,1,0,2.628ZM12.6,13.256a3.946,3.946,0,0,1,3.942-3.942h3.942a3.946,3.946,0,0,1,3.942,3.942v2.628H21.8a1.315,1.315,0,0,1-1.314-1.314V11.942H19.169V12.6a3.289,3.289,0,0,1-3.285,3.285H12.6Zm0,6.57a1.314,1.314,0,1,1,0-2.628v1.971a5.87,5.87,0,0,0,.039.657Zm1.314-.657V17.2h1.971a4.588,4.588,0,0,0,3.49-1.612A2.631,2.631,0,0,0,21.8,17.2h1.314v1.971a4.6,4.6,0,1,1-9.2,0Zm13.8,13.8H9.314V31a5.922,5.922,0,0,1,4.117-5.632l1.152,5.761a.658.658,0,0,0,.454.5.671.671,0,0,0,.19.028.658.658,0,0,0,.465-.193l2.821-2.821,2.821,2.821a.657.657,0,0,0,1.109-.336l1.152-5.761A5.924,5.924,0,0,1,27.71,31Z" fill="#fff"/>
    <path id="Path_2525" data-name="Path 2525" d="M70.453,355.824a6.58,6.58,0,0,1-6.537-5.913h1.938a.657.657,0,0,0,.465-1.122l-4.6-4.6a.656.656,0,0,0-.929,0l-4.6,4.6a.657.657,0,0,0,.465,1.122h2a7.9,7.9,0,0,0,7.857,7.227h3.942a.657.657,0,0,0,0-1.314Zm-10.512-6.57a.657.657,0,0,0-.657-.657H58.242l3.013-3.013,3.013,3.013H63.226a.657.657,0,0,0-.657.657,7.884,7.884,0,0,0,3.509,6.556A6.579,6.579,0,0,1,59.941,349.254Z" transform="translate(-44.057 -309.138)" fill="#fff"/>
  </g>
</svg>
