<svg xmlns="http://www.w3.org/2000/svg" xmlns:xlink="http://www.w3.org/1999/xlink" width="300" height="217.313" viewBox="0 0 300 217.313"><defs><style>.a,.b{fill:#00a859;}.a,.aa{opacity:0.24;}.c{fill:url(#a);}.d{fill:#fff;}.e{fill:url(#b);}.f{fill:url(#c);}.g{fill:url(#d);}.ac,.h,.j,.p,.w,.z{opacity:0.26;}.h{fill:url(#e);}.i{fill:url(#f);}.j{fill:url(#g);}.k{fill:url(#h);}.l{fill:url(#i);}.m{fill:url(#j);}.n{fill:url(#k);}.o{fill:url(#l);}.p{fill:url(#m);}.q{fill:url(#n);}.r{fill:url(#o);}.s{fill:url(#p);}.t{fill:url(#q);}.u{fill:url(#r);}.v{fill:#606161;}.w{fill:url(#s);}.x{fill:url(#t);}.y{fill:url(#u);}.z{fill:url(#v);}.ab{fill:url(#w);}.ac{fill:url(#x);}.ad{fill:url(#y);}.ae{fill:#e08142;}.af{fill:url(#z);}.ag{fill:url(#aa);}</style><linearGradient id="a" x1="0.4" y1="0.05" x2="0.904" y2="2.33" gradientUnits="objectBoundingBox"><stop offset="0" stop-color="#010101" stop-opacity="0"/><stop offset="0.95" stop-color="#010101"/></linearGradient><linearGradient id="b" x1="0.716" y1="0.129" x2="0.211" y2="0.998" xlink:href="#a"/><linearGradient id="c" x1="0.658" y1="0.218" x2="0.223" y2="0.994" xlink:href="#a"/><linearGradient id="d" x1="0.662" y1="0.231" x2="0.195" y2="1.007" xlink:href="#a"/><linearGradient id="e" x1="0.323" y1="-0.59" x2="1.183" y2="6.176" xlink:href="#a"/><linearGradient id="f" x1="0.499" y1="0.642" x2="0.501" y2="-0.402" gradientUnits="objectBoundingBox"><stop offset="0" stop-color="#fff" stop-opacity="0"/><stop offset="0.95" stop-color="#fff"/></linearGradient><linearGradient id="g" x1="0" y1="0.501" x2="1.001" y2="0.501" xlink:href="#a"/><linearGradient id="h" x1="-0.004" y1="0.499" x2="0.995" y2="0.499" gradientUnits="objectBoundingBox"><stop offset="0" stop-color="#e5c6d6"/><stop offset="0.42" stop-color="#ead4d0"/><stop offset="1" stop-color="#f0e9cb"/></linearGradient><linearGradient id="i" x1="-0.001" y1="0.498" x2="0.999" y2="0.498" xlink:href="#h"/><linearGradient id="j" x1="-0.001" y1="0.498" x2="0.997" y2="0.498" xlink:href="#h"/><linearGradient id="k" x1="-0.001" y1="0.499" x2="0.998" y2="0.499" xlink:href="#h"/><linearGradient id="l" x1="0" y1="0.5" x2="0.999" y2="0.5" xlink:href="#h"/><linearGradient id="m" x1="-0.001" y1="0.499" x2="1" y2="0.499" xlink:href="#a"/><linearGradient id="n" x1="-81.492" y1="0.499" x2="-80.492" y2="0.499" xlink:href="#h"/><linearGradient id="o" x1="-81.6" y1="0.498" x2="-80.6" y2="0.498" xlink:href="#h"/><linearGradient id="p" x1="-81.719" y1="0.499" x2="-80.719" y2="0.499" xlink:href="#h"/><linearGradient id="q" x1="-81.856" y1="0.499" x2="-80.857" y2="0.499" xlink:href="#h"/><linearGradient id="r" x1="-38.638" y1="0.5" x2="-37.638" y2="0.5" xlink:href="#h"/><linearGradient id="s" x1="0" y1="0.5" x2="1" y2="0.5" xlink:href="#a"/><linearGradient id="t" x1="0.849" y1="-0.258" x2="-0.294" y2="2.341" xlink:href="#f"/><linearGradient id="u" x1="0.345" y1="-0.102" x2="2.626" y2="7.329" xlink:href="#a"/><linearGradient id="v" x1="1.223" y1="0.16" x2="-2.051" y2="1.717" xlink:href="#a"/><linearGradient id="w" x1="0" y1="0.5" x2="1.001" y2="0.5" xlink:href="#h"/><linearGradient id="x" x1="0.249" y1="1.382" x2="0.742" y2="-0.612" xlink:href="#a"/><linearGradient id="y" x1="0" y1="0.5" x2="1" y2="0.5" xlink:href="#h"/><linearGradient id="z" x1="0" y1="0.5" x2="1" y2="0.5" xlink:href="#a"/><linearGradient id="aa" x1="0.716" y1="0.459" x2="-1.494" y2="0.889" xlink:href="#a"/></defs><g transform="translate(0.001 -0.002)"><path class="a" d="M88.461,236.268A458.567,458.567,0,0,0,260.384,231.9c7.242-1.58,14.64-3.418,20.733-7.643,5.243-3.633,9.211-8.828,12.623-14.215,12.773-20.183,18.65-46.829,7.548-67.976-11.8-22.463-38.276-32.135-57.747-48.41-14.963-12.485-25.815-29.023-37.576-44.549-4.824-6.38-10.049-12.8-17.154-16.478-5.848-2.993-12.515-3.95-19.039-4.836-26.844-3.645-57.112-6.41-78.271,10.552C64.747,59.814,64.645,103.722,37.19,124.288c-5.267,3.944-11.318,6.811-16.28,11.133-17.9,15.574-17.441,49.81-3.807,68.006C32.964,224.591,63.987,232.216,88.461,236.268Z" transform="translate(-7.15 -25.05)"/><path class="b" d="M207.015,68.485l-6.494.5-.6-7.925-67.5,77.289L95.478,107.88,7.547,188.12,3.16,183.326l92.1-84.07,36.4,30.035,62.8-71.926-8.792,2.43-1.718-6.273,21.481-5.931Z" transform="translate(-1.269 -19.105)"/><path class="c" d="M207.015,68.485l-6.494.5-.6-7.925-67.5,77.289L95.478,107.88,7.547,188.12,3.16,183.326l92.1-84.07,36.4,30.035,62.8-71.926-8.792,2.43-1.718-6.273,21.481-5.931Z" transform="translate(-1.269 -19.105)"/><path class="b" d="M53.411,266.348c5.165,3.382,8.589,8.846,13.335,12.8l-4.19,11.372-2.747-2.993a47.09,47.09,0,0,0-7.589-7.063,15.655,15.655,0,0,0-9.72-3.035s1.748-10.552,2.616-11.594C47.659,262.774,50.155,264.217,53.411,266.348Z" transform="translate(-21.342 -121.01)"/><path class="d" d="M48.874,268.307,48,274.765a2.843,2.843,0,0,1,2.215,2.526s8.679,2.867,11.887,9.02c0,0,2.179-.6,2.993.383l1.718-4.19s-1.143-1.448-.838-2.634c0,0-8.3-11.061-13.491-12A6.506,6.506,0,0,1,48.874,268.307Z" transform="translate(-23.55 -122.533)"/><rect class="b" width="10.492" height="144.457" transform="translate(80.82 33.98)"/><rect class="b" width="12.192" height="161.796" transform="translate(134.778 16.64)"/><rect class="b" width="11.366" height="161.796" transform="translate(190.37 178.442) rotate(180)"/><rect class="e" width="10.492" height="144.457" transform="translate(80.82 33.98)"/><rect class="f" width="12.192" height="161.796" transform="translate(134.778 16.64)"/><rect class="g" width="11.366" height="161.796" transform="translate(190.37 178.442) rotate(180)"/><path class="b" d="M107.637,148.79H260.461a8.613,8.613,0,0,1,8.613,8.613v92.665H99V157.4a8.613,8.613,0,0,1,8.637-8.613Z" transform="translate(-39.745 -59.733)"/><rect class="d" width="151.256" height="86.171" transform="translate(68.909 96.395)"/><path class="h" d="M133.49,209.993l.6,2.035s23.235-.305,25.27-1.2a4.872,4.872,0,0,0,2.55-3.059l-.814-5.2-5.2-9.277Z" transform="translate(-57.871 -92.596)"/><line class="d" y1="86.165" transform="translate(68.903 96.395)"/><path class="b" d="M81.426,317.27H272.1v.6a13.168,13.168,0,0,1-13.168,13.168H94.588A13.168,13.168,0,0,1,81.42,317.869v-.6Z" transform="translate(-32.688 -127.372)"/><path class="i" d="M81.426,317.27H272.1v.6a13.168,13.168,0,0,1-13.168,13.168H94.588A13.168,13.168,0,0,1,81.42,317.869v-.6Z" transform="translate(-32.688 -127.372)"/><path class="b" d="M99.382,55.557a9.62,9.62,0,0,0,1.377-2.993,2.315,2.315,0,0,0-1.4-2.669c-1.071-.275-2.394.694-3.483.221-.694-.3-1.018-1.083-1.377-1.748a6.7,6.7,0,0,0-3.819-3.286A5,5,0,0,0,85.855,46.1a8.6,8.6,0,0,1-1.107,1.035,2.993,2.993,0,0,1-3.064-.209c-.742-.443-1.616-1.107-2.394-.676a1.5,1.5,0,0,0-.64,1.041c-.365,1.891,1.023,3.633,1.622,5.489.772,2.352.275,4.914-.227,7.338-.73,3.424-1.508,6.967-3.717,9.7s-5.6,4.232-7.877,6.883-3.25,6.183-3.95,9.618a5.572,5.572,0,0,0,0,3.13,5.686,5.686,0,0,0,1.353,1.8c2.239,2.292,4.585,4.645,7.583,5.776,3.238,1.2,6.817.862,10.277.8a47.929,47.929,0,0,0,7.182-.353,10.442,10.442,0,0,0,6.279-3.2,10.109,10.109,0,0,0,2.137-5.985,33.7,33.7,0,0,0-.485-6.434Q97.9,74.931,97.515,67.97C97.269,63.679,97.21,59.447,99.382,55.557Z" transform="translate(-30.084 -32.997)"/><path class="j" d="M83.427,77.387c-.341.7-.664,1.6-.162,2.2l5.578-3.974a.6.6,0,0,1,.413-.156c.18,0,.287.209.371.371l1.4,2.777,2.652-3.777L99.163,80.3c.5.5,1.3,1.023,1.838.551.443-.389.233-1.113,0-1.652-1.634-3.543-2.191-8.1-3.059-11.9-.341-1.49-.515-2.993-.862-4.5-.88-3.807-4.3-6.225-7.182-8.894.533,1.8,1.006,3.627,1.419,5.459l-1.407-.61A26.581,26.581,0,0,0,86.39,69.181C86,72.245,84.8,74.591,83.427,77.387Z" transform="translate(-37.604 -36.631)"/><path class="k" d="M92.162,61.941a19.638,19.638,0,0,1,2.993,1.1,3.968,3.968,0,0,1,2.065,2.292,1.149,1.149,0,0,1-.2,1.155,1.4,1.4,0,0,1-1.2.156,41.79,41.79,0,0,1-6.967-1.849,5.243,5.243,0,0,1-1.676-.862,1.915,1.915,0,0,1-.73-1.664C86.883,58.984,90.576,61.432,92.162,61.941Z" transform="translate(-38.982 -39.315)"/><path class="l" d="M91.17,67.951a20.561,20.561,0,0,1,2.993,1.1,3.956,3.956,0,0,1,2.059,2.292,1.143,1.143,0,0,1-.2,1.161,1.413,1.413,0,0,1-1.2.156,42.5,42.5,0,0,1-6.949-1.849,5.273,5.273,0,0,1-1.682-.862,1.939,1.939,0,0,1-.73-1.67C85.939,65,89.638,67.437,91.17,67.951Z" transform="translate(-38.589 -41.729)"/><path class="m" d="M90.054,73.3a20.536,20.536,0,0,1,2.993,1.089,3.962,3.962,0,0,1,2.059,2.3,1.137,1.137,0,0,1-.2,1.155,1.413,1.413,0,0,1-1.2.156,41.9,41.9,0,0,1-6.967-1.832,5.273,5.273,0,0,1-1.682-.862,1.939,1.939,0,0,1-.73-1.67C84.8,70.342,88.5,72.773,90.054,73.3Z" transform="translate(-38.132 -43.874)"/><path class="n" d="M88.828,78.619a19.636,19.636,0,0,1,2.993,1.1,3.986,3.986,0,0,1,2.065,2.292,1.149,1.149,0,0,1-.2,1.155,1.377,1.377,0,0,1-1.2.162,42.377,42.377,0,0,1-6.973-1.849,5.243,5.243,0,0,1-1.676-.862,1.921,1.921,0,0,1-.73-1.67C83.579,75.668,87.271,78.092,88.828,78.619Z" transform="translate(-37.641 -46.01)"/><path class="o" d="M114.462,66.451c-3.124-4.693-8.894-6.943-14.491-7.637-.946-.12-2.185,0-2.46.892a1.538,1.538,0,0,0,.144,1.089c.952,2.005,3.92,2.394,4.866,4.4a5.943,5.943,0,0,1,.407,2.053c.509,5.985,2.274,12.234,6.74,16.256a6.183,6.183,0,0,0,2.544,1.526,7.428,7.428,0,0,0,2.5.072c1.2-.108,2.394-.215,3.591-.4s1.574-.293,1.347-1.5c-.365-1.891-1.2-3.759-1.6-5.674C117.24,73.735,116.653,69.743,114.462,66.451Z" transform="translate(-43.411 -38.589)"/><path class="d" d="M129.141,96.238a.778.778,0,0,1,.036.449.766.766,0,0,1-.341.347l-7.182,4.669a1.9,1.9,0,0,1-.976.4,1.718,1.718,0,0,1-.916-.377,8.074,8.074,0,0,1-3.07-4.345.6.6,0,0,1,0-.509.688.688,0,0,1,.407-.251c2.819-.964,5.153-3.172,7.781-4.537C128.034,90.444,128.357,93.586,129.141,96.238Z" transform="translate(-51.105 -51.778)"/><path class="b" d="M381.877,52.5a8.463,8.463,0,0,1-1.2-2.634,2.047,2.047,0,0,1,1.227-2.358c.94-.239,2.113.6,3.07.2.6-.263.9-.952,1.2-1.538a5.908,5.908,0,0,1,3.364-2.891,4.411,4.411,0,0,1,4.25.892,6.96,6.96,0,0,0,.97.91,2.634,2.634,0,0,0,2.7-.18c.652-.4,1.424-.976,2.083-.6a1.335,1.335,0,0,1,.563.91c.347,1.67-.856,3.22-1.389,4.842-.676,2.071-.239,4.327.2,6.458.628,2.993,1.311,6.159,3.256,8.547s4.932,3.729,6.937,6.057,2.873,5.429,3.471,8.475a4.92,4.92,0,0,1,0,2.759,5.076,5.076,0,0,1-1.2,1.6c-1.975,2.011-4.034,4.088-6.674,5.082-2.855,1.077-5.985.76-9.056.7a42.8,42.8,0,0,1-6.32-.305A9.114,9.114,0,0,1,383.8,86.6a8.865,8.865,0,0,1-1.879-5.267,29.61,29.61,0,0,1,.425-5.668c.545-4.052.928-8.134,1.155-12.216C383.738,59.657,383.792,55.934,381.877,52.5Z" transform="translate(-157.097 -32.285)"/><path class="p" d="M384.795,52.735c.6-.269,1.161.347,1.664.76a3.118,3.118,0,0,0,5.1-2.149,2.556,2.556,0,0,1,1.562,1.329c.132.281.251.6.551.7a.76.76,0,0,0,.5-.066,5.512,5.512,0,0,0,2.089-1.9L397.346,50c.862.874.569,2.31.329,3.519a18.711,18.711,0,0,0,.6,9.487,7.477,7.477,0,0,0,1.059,2.173A13.347,13.347,0,0,0,401.6,67.25a15.563,15.563,0,0,1,3.585,4.3l-6.279-2.993c-.718-.341-1.658-.658-2.233-.108a2.113,2.113,0,0,0-.461,1.2,14.49,14.49,0,0,1-1.706,4.657l-.754-4.675a1.742,1.742,0,0,0-.545-1.2c-.73-.533-1.7.3-2.089,1.125-.9,1.909-.91,4.136-1.712,6.087-.527,1.275-1.377,2.394-1.939,3.657a8.924,8.924,0,0,0,.407,7.889,3,3,0,0,1,.628,1.855,1.64,1.64,0,0,1-1.8,1.2A3.49,3.49,0,0,1,384.7,89.12a10.77,10.77,0,0,1-2.849-7.709,29.162,29.162,0,0,1,1.041-6.584,38.217,38.217,0,0,1,1.915-6.4c1.089-2.514,2.759-4.926,2.747-7.667,0-1.8-.856-3.172-1.694-4.663C385.453,55.387,383.5,53.328,384.795,52.735Z" transform="translate(-157.579 -35.066)"/><path class="q" d="M403.452,58.125a17.358,17.358,0,0,0-2.622.964,3.489,3.489,0,0,0-1.8,2.017,1,1,0,0,0,.174,1.017,1.2,1.2,0,0,0,1.047.138,36.774,36.774,0,0,0,6.135-1.628,4.567,4.567,0,0,0,1.478-.76,1.706,1.706,0,0,0,.64-1.466C408.078,55.522,404.822,57.658,403.452,58.125Z" transform="translate(-164.451 -37.846)"/><path class="r" d="M404.257,63.425a17.31,17.31,0,0,0-2.616.964,3.466,3.466,0,0,0-1.8,2.017,1,1,0,0,0,.18,1.018,1.2,1.2,0,0,0,1.047.138,36.859,36.859,0,0,0,6.129-1.628,4.507,4.507,0,0,0,1.478-.76,1.682,1.682,0,0,0,.64-1.466C408.889,60.822,405.627,62.958,404.257,63.425Z" transform="translate(-164.777 -39.974)"/><path class="s" d="M405.262,68.127a17.358,17.358,0,0,0-2.622.964,3.489,3.489,0,0,0-1.8,2.017,1.017,1.017,0,0,0,.174,1.023,1.263,1.263,0,0,0,1.047.138,37.468,37.468,0,0,0,6.129-1.634,4.549,4.549,0,0,0,1.478-.754,1.706,1.706,0,0,0,.646-1.472C409.888,65.529,406.632,67.66,405.262,68.127Z" transform="translate(-165.177 -41.862)"/><path class="t" d="M406.348,72.815a17.545,17.545,0,0,0-2.6.964,3.49,3.49,0,0,0-1.8,2.017,1.017,1.017,0,0,0,.174,1.023,1.263,1.263,0,0,0,1.047.138,37.468,37.468,0,0,0,6.129-1.634,4.549,4.549,0,0,0,1.478-.754,1.706,1.706,0,0,0,.646-1.472C410.974,70.212,407.724,72.348,406.348,72.815Z" transform="translate(-165.623 -43.744)"/><path class="u" d="M377.033,62.1c2.747-4.13,7.835-6.105,12.755-6.722.832-.108,1.927,0,2.167.784a1.371,1.371,0,0,1-.126.958c-.838,1.766-3.454,2.107-4.286,3.873a5.31,5.31,0,0,0-.359,1.8c-.443,5.273-2.005,10.774-5.931,14.317a5.387,5.387,0,0,1-2.245,1.377,6.584,6.584,0,0,1-2.2.06c-1.047-.1-2.107-.192-3.148-.353s-1.389-.257-1.2-1.323c.317-1.664,1.053-3.31,1.407-4.992C374.561,68.514,375.1,65,377.033,62.1Z" transform="translate(-153.792 -37.21)"/><path class="d" d="M366.841,92.885a.8.8,0,0,0,.06.479.814.814,0,0,0,.437.293l8.619,3.328a2.041,2.041,0,0,0,1.119.2,1.8,1.8,0,0,0,.88-.6,8.667,8.667,0,0,0,2.274-5.261.7.7,0,0,0-.12-.539.76.76,0,0,0-.485-.174c-3.19-.389-6.141-2.2-9.223-3.053C366.716,86.553,367.075,89.916,366.841,92.885Z" transform="translate(-151.548 -50.071)"/><path class="v" d="M263.945,320.734H195c0-1.586,2.017-9.469,3.561-10.6s4.95-.431,6.865-.431q9.05,0,18.064-.263c6.039-.215,12.055-.521,18.07-.958,1.694-.108,16.873-2.28,17.244-1.52C260.45,310.266,263.921,319.232,263.945,320.734Z" transform="translate(-82.565 -138.162)"/><path class="b" d="M127.174,197.857l24.456-1.347a3.714,3.714,0,0,0,2.8-.964,3.778,3.778,0,0,0,.389-2.9,78.281,78.281,0,0,1-.257-17.477,12.283,12.283,0,0,1,1.76-6.033c1.227-1.73,3.591-2.807,5.53-1.9a3.477,3.477,0,0,0,1.041.425c1.2.132,1.736-1.718.97-2.646s-2.107-1.1-3.3-1.2c-6.458-.485-12.952-.221-19.4-.724-3.7-.287-7.488-1.478-10.941.437C119.668,169.4,124.989,188.873,127.174,197.857Z" transform="translate(-54.015 -80.214)"/><path class="w" d="M151.256,163.533l-3.466-.413s4.28,12.845,9.17,20.386,11.414,19.973,11.618,23.032,7.949,34.039,5.1,43S167.56,263.1,167.56,263.1h36.277l-2.053-63.7-48.445-35.912" transform="translate(-63.612 -80.479)"/><path class="x" d="M130.844,164.346s-4.992,3.16,1.2,25.988a2.329,2.329,0,0,1,2.34,2.675l16.053-1.2s-.916-2.215,2.065-2.825c0,0-4.357-16.358-3.442-19.416a8.212,8.212,0,0,0-.6-5.806s-7.847-.922-9.17-1.024S134.615,161.287,130.844,164.346Z" transform="translate(-56.045 -80.173)"/><path class="b" d="M167.315,78.121c3.2-1.562,6.937-1.2,10.468-1.622a24.749,24.749,0,0,0,10.534-3.729,46.123,46.123,0,0,0,2.149,16.22c-3.274-.132-6.769-.209-9.577,1.5-2.484,1.514-4.052,4.238-6.584,5.71-2.819,1.664-6.321,1.472-9.577,1.233,1.041-2.143-.371-4.621-1.8-6.524-1.76-2.34-3.124-4.309-1.6-6.979a15.179,15.179,0,0,1,5.985-5.806Z" transform="translate(-68.784 -44.207)"/><path class="y" d="M169.285,79.2c2.825-1.383,6.141-1.083,9.265-1.431a21.882,21.882,0,0,0,9.325-3.3,40.7,40.7,0,0,0,1.9,14.365c-2.9-.12-5.985-.186-8.469,1.323-2.2,1.341-3.591,3.747-5.806,5.052-2.5,1.472-5.6,1.3-8.481,1.089.922-1.891-.335-4.088-1.6-5.77-1.556-2.071-2.765-3.813-1.419-6.177A13.431,13.431,0,0,1,169.285,79.2Z" transform="translate(-69.887 -44.89)"/><path class="b" d="M430.407,79.158c-.461-2.915.539-6.273,3.118-7.709a10.906,10.906,0,0,1,5.117-.964l11.881-.305a14.927,14.927,0,0,0,2.831,10.6c2.071,2.765,5.076,4.788,6.991,7.637a13.09,13.09,0,0,1-1.413,15.771,42.789,42.789,0,0,0-16.759,1.006c1.2-3.25-.928-6.763-3.28-9.319C434.866,91.482,431.347,85.2,430.407,79.158Z" transform="translate(-177.029 -43.167)"/><path class="z" d="M433.462,80.9c-.6-2.723.1-5.937,2.251-7.434a9.06,9.06,0,0,1,4.387-1.2l10.295-.934a14.963,14.963,0,0,0,3.059,9.84c1.963,2.5,4.693,4.19,6.524,6.817a13.252,13.252,0,0,1-.293,14.963,34.248,34.248,0,0,0-14.479,1.855c.868-3.13-1.2-6.321-3.4-8.6A33.608,33.608,0,0,1,433.462,80.9Z" transform="translate(-178.217 -43.633)"/><path class="b" d="M39.531,205.873a1.239,1.239,0,0,0-.5.634,1.263,1.263,0,0,0,.365.97,113.612,113.612,0,0,0,7.907,9.3,1.382,1.382,0,0,0,2,.347l4.95-2.292a16.029,16.029,0,0,0,4.908-3.047c2.669-2.753,2.993-6.949,3.172-10.774-3.717-3.2-7.26-9.624-11.833-6.656C46.564,196.913,43.374,202.737,39.531,205.873Z" transform="translate(-19.947 -92.713)"/><path class="b" d="M420.36,275.974a80.547,80.547,0,0,0,10.971,7.554c1.76-7.56,9.038-12.049,15.233-15.741C435.108,254.5,422.976,278.117,420.36,275.974Z" transform="translate(-173.04 -120.863)"/><g class="aa" transform="translate(230.819 83.233)"><path class="b" d="M403.773,209.629v-5c-6.584-.545-10.432-4.447-10.983-9.714h4.83a7.183,7.183,0,0,0,6.153,5.872V187.5c-7.3-2.2-10.175-4.944-10.175-10.049,0-5.542,4.28-9.223,10.175-9.607V164.11h3.13V167.9c7.3.712,9.66,5.435,9.99,8.84h-4.722a6.29,6.29,0,0,0-5.267-5.052v11.971c8.379,2.394,10.816,5.931,10.816,10.816,0,6.093-4.064,9.666-10.816,10.175v5Zm0-26.9V171.58c-3.956.329-5.387,2.687-5.387,5.327S399.655,181.3,403.773,182.724Zm3.13,5.71v12.408c3.789-.383,5.818-2.3,5.818-5.872,0-2.909-1.251-4.944-5.818-6.536Z" transform="translate(-392.79 -164.11)"/></g><path class="d" d="M406.3,209v-5c-6.584-.551-10.432-4.447-10.983-9.72h4.83a7.182,7.182,0,0,0,6.153,5.878V186.871c-7.3-2.2-10.175-4.944-10.175-10.049,0-5.542,4.28-9.223,10.175-9.607V163.48h3.13v3.789c7.3.712,9.666,5.435,10,8.84h-4.722a6.291,6.291,0,0,0-5.273-5.052v11.971c8.379,2.394,10.816,5.925,10.816,10.816,0,6.093-4.064,9.66-10.816,10.175v5Zm0-26.9V170.974c-3.956.329-5.387,2.687-5.387,5.321S402.185,180.664,406.3,182.094Zm3.13,5.71v12.408c3.789-.383,5.818-2.3,5.818-5.878,0-2.909-1.263-4.938-5.818-6.53Z" transform="translate(-162.987 -80.624)"/><g class="aa" transform="translate(237.726 37.403)"><path class="b" d="M408.209,103.647v-1.8c-2.328-.192-3.687-1.568-3.879-3.43h1.706a2.514,2.514,0,0,0,2.173,2.071V95.8c-2.58-.772-3.591-1.742-3.591-3.549,0-1.957,1.514-3.256,3.591-3.394V87.54h1.1v1.335c2.586.257,3.418,1.921,3.531,3.124h-1.664a2.232,2.232,0,0,0-1.867-1.8v4.226c2.993.856,3.825,2.095,3.825,3.825,0,2.149-1.436,3.412-3.825,3.591v1.8Zm0-9.5V90.209a1.8,1.8,0,0,0-1.9,1.879C406.305,93.023,406.754,93.639,408.209,94.142Zm1.1,2.017v4.387c1.341-.138,2.059-.82,2.059-2.077C411.369,97.44,410.92,96.722,409.31,96.159Z" transform="translate(-404.33 -87.54)"/></g><path class="d" d="M409.1,103.443v-1.8c-2.328-.2-3.681-1.574-3.879-3.436h1.706a2.532,2.532,0,0,0,2.173,2.1V95.62c-2.58-.778-3.591-1.748-3.591-3.549,0-1.957,1.508-3.262,3.591-3.394V87.36h1.107V88.7a3.514,3.514,0,0,1,3.531,3.124h-1.67a2.215,2.215,0,0,0-1.861-1.8v4.238c2.993.856,3.819,2.095,3.819,3.819,0,2.155-1.436,3.418-3.819,3.591v1.8Zm0-9.5V90a1.805,1.805,0,0,0-1.9,1.879C407.2,92.807,407.644,93.435,409.1,93.938Zm1.107,2.017v4.357c1.341-.132,2.053-.814,2.053-2.071.012-1.006-.443-1.724-2.053-2.286Z" transform="translate(-166.961 -50.064)"/><g class="aa" transform="translate(46.745 42.85)"><path class="b" d="M89.129,112.747v-1.8c-2.328-.192-3.687-1.574-3.879-3.436h1.706a2.52,2.52,0,0,0,2.173,2.077V104.9c-2.58-.778-3.591-1.748-3.591-3.549,0-1.957,1.514-3.256,3.591-3.394V96.64h1.1v1.335c2.58.251,3.418,1.921,3.531,3.124H92.1a2.227,2.227,0,0,0-1.867-1.8v4.226c2.993.856,3.825,2.095,3.825,3.819,0,2.155-1.436,3.418-3.825,3.591v1.8Zm0-9.5V99.3a1.809,1.809,0,0,0-1.9,1.885C87.225,102.123,87.674,102.739,89.129,103.242Zm1.1,1.993v4.381c1.341-.108,2.053-.79,2.053-2.047C92.283,106.54,91.84,105.834,90.23,105.235Z" transform="translate(-85.25 -96.64)"/></g><path class="d" d="M90.019,112.537v-1.76c-2.328-.2-3.681-1.574-3.879-3.436h1.712a2.532,2.532,0,0,0,2.173,2.077v-4.693c-2.58-.778-3.591-1.748-3.591-3.549,0-1.963,1.508-3.262,3.591-3.394V96.46h1.107V97.8c2.58.251,3.412,1.921,3.531,3.118H92.987a2.233,2.233,0,0,0-1.861-1.8v4.244c2.993.85,3.819,2.095,3.819,3.819,0,2.155-1.436,3.412-3.819,3.591v1.76Zm0-9.5V99.1a1.8,1.8,0,0,0-1.9,1.879C88.121,101.907,88.564,102.529,90.019,103.038Zm1.107,2.017v4.381c1.341-.138,2.053-.814,2.053-2.077C93.179,106.36,92.736,105.618,91.126,105.055Z" transform="translate(-38.862 -53.718)"/><g class="aa" transform="translate(9.133 121.33)"><path class="b" d="M27.635,249.451v-2.394c-3.136-.257-4.962-2.119-5.225-4.627h2.3a3.418,3.418,0,0,0,2.927,2.831v-6.344c-3.477-1.047-4.836-2.352-4.836-4.788,0-2.64,2.041-4.393,4.836-4.573v-1.8h1.49v1.8c3.477.341,4.6,2.586,4.758,4.19h-2.25a2.993,2.993,0,0,0-2.508-2.394v5.7c4,1.149,5.147,2.825,5.147,5.147,0,2.9-1.933,4.6-5.147,4.836v2.394Zm0-12.809v-5.3a2.43,2.43,0,0,0-2.562,2.532C25.073,235.128,25.678,235.96,27.635,236.642Zm1.49,2.717v5.9c1.8-.186,2.771-1.1,2.771-2.8C31.9,241.071,31.3,240.12,29.126,239.36Z" transform="translate(-22.41 -227.76)"/></g><path class="d" d="M28.841,249.141v-2.394c-3.136-.263-4.968-2.119-5.231-4.627h2.3a3.394,3.394,0,0,0,2.927,2.8v-6.3c-3.477-1.047-4.836-2.352-4.836-4.788,0-2.64,2.035-4.393,4.836-4.579v-1.8h1.49v1.8c3.472.341,4.6,2.586,4.752,4.19H32.821a2.993,2.993,0,0,0-2.508-2.394v5.716c4,1.149,5.147,2.825,5.147,5.147,0,2.9-1.933,4.6-5.147,4.836v2.394Zm0-12.8v-5.309a2.434,2.434,0,0,0-2.562,2.538C26.279,234.824,26.878,235.656,28.841,236.338Zm1.49,2.717v5.908c1.8-.186,2.765-1.1,2.765-2.8C33.1,240.779,32.5,239.816,30.332,239.056Z" transform="translate(-13.758 -106.306)"/><g class="aa" transform="translate(75.23 86.01)"><path class="b" d="M148.294,173.454h-1.7a3.689,3.689,0,0,1-3.286,3.735v-1.64a2.394,2.394,0,0,0,1.987-2.095h-4.507c-.742,2.484-1.67,3.454-3.406,3.46-1.885,0-3.136-1.448-3.274-3.442H132.84v-1.041h1.293a3.372,3.372,0,0,1,2.993-3.4v1.6a2.131,2.131,0,0,0-1.712,1.8h4.064c.814-2.855,2.005-3.681,3.663-3.681,2.071,0,3.286,1.371,3.46,3.663h1.7Zm-9.134,0h-3.789a1.737,1.737,0,0,0,1.8,1.826c.874,0,1.508-.4,1.993-1.8Zm1.933-1.071h4.19c-.132-1.287-.784-1.975-2-1.975-.964.024-1.652.449-2.191,2Z" transform="translate(-132.84 -168.75)"/></g><path class="d" d="M148.078,172.578h-1.694a3.694,3.694,0,0,1-3.292,3.735v-1.64a2.436,2.436,0,0,0,1.993-2.095h-4.513c-.742,2.484-1.67,3.454-3.406,3.46-1.885,0-3.136-1.448-3.268-3.442H132.63v-1.065h1.287a3.376,3.376,0,0,1,2.993-3.4v1.6a2.131,2.131,0,0,0-1.712,1.8h4.064c.814-2.855,2.005-3.681,3.669-3.681,2.065,0,3.28,1.371,3.454,3.663h1.7Zm-9.134,0h-3.789a1.711,1.711,0,0,0,1.8,1.8c.874,0,1.508-.377,1.993-1.772Zm1.933-1.071h4.19c-.132-1.287-.784-1.975-2-1.975-.964.024-1.652.449-2.191,2Z" transform="translate(-57.526 -82.378)"/><g class="aa" transform="translate(102.304 35.135)"><path class="b" d="M182.5,94.015l-.323-1.1a2.508,2.508,0,0,1-3.059-1.442l1.065-.311a1.658,1.658,0,0,0,1.742.9l-.862-2.939c-1.754,0-2.562-.437-2.9-1.562a2.263,2.263,0,0,1,1.628-2.783l-.245-.826.694-.2.245.838a2.313,2.313,0,0,1,2.783,1.3l-1.047.305a1.448,1.448,0,0,0-1.49-.772l.772,2.663c2.017,0,2.777.6,3.094,1.688.4,1.353-.269,2.394-1.736,2.951l.323,1.1Zm-1.742-5.926-.724-2.46a1.2,1.2,0,0,0-.844,1.52C179.365,87.724,179.754,88.018,180.759,88.089Zm1.059,1.059.8,2.747a1.281,1.281,0,0,0,.91-1.676c-.192-.67-.6-1.035-1.712-1.1Z" transform="translate(-178.075 -83.75)"/></g><path class="d" d="M183.031,93.711l-.323-1.107a2.5,2.5,0,0,1-3.059-1.436l1.065-.311a1.646,1.646,0,0,0,1.742.9l-.862-2.939c-1.754,0-2.568-.431-2.9-1.562a2.28,2.28,0,0,1,1.622-2.783l-.239-.826.694-.2.245.838a2.316,2.316,0,0,1,2.783,1.311l-1.047.305a1.448,1.448,0,0,0-1.49-.778l.772,2.652c2.017,0,2.777.6,3.094,1.688.4,1.347-.275,2.394-1.736,2.945l.323,1.107Zm-1.748-5.949-.718-2.466a1.2,1.2,0,0,0-.844,1.526c.168.6.557.892,1.556.94Zm1.065,1.059.8,2.735a1.281,1.281,0,0,0,.91-1.676c-.192-.634-.6-1.006-1.712-1.059Z" transform="translate(-75.983 -48.491)"/><g class="aa" transform="translate(257.98 146.758)"><path class="b" d="M444.3,275.443l-.67-.485a1.8,1.8,0,0,1-2.394.521l.473-.652a1.2,1.2,0,0,0,1.395-.245l-1.8-1.3c-1.012.766-1.658.88-2.34.383a1.634,1.634,0,0,1-.3-2.3l-.5-.371.305-.419.509.371a1.652,1.652,0,0,1,2.167-.473l-.467.634a1.047,1.047,0,0,0-1.2.209l1.6,1.2c1.149-.892,1.855-.868,2.514-.389a1.67,1.67,0,0,1,.3,2.448l.67.485Zm-3.591-2.634-1.5-1.089a.844.844,0,0,0,.186,1.239c.347.263.7.263,1.293-.15Zm1.071.138,1.664,1.2a.922.922,0,0,0-.215-1.359c-.407-.263-.808-.293-1.466.162Z" transform="translate(-438.17 -270.244)"/></g><path class="d" d="M444.455,275.043l-.67-.485a1.8,1.8,0,0,1-2.394.521l.473-.652a1.2,1.2,0,0,0,1.389-.245l-1.8-1.3c-1.006.766-1.658.88-2.34.377a1.628,1.628,0,0,1-.293-2.3l-.5-.365.305-.419.509.371a1.652,1.652,0,0,1,2.167-.473l-.461.634a1.042,1.042,0,0,0-1.2.209l1.6,1.2c1.149-.892,1.855-.868,2.514-.389a1.664,1.664,0,0,1,.3,2.442l.67.491Zm-3.591-2.634-1.5-1.089a.844.844,0,0,0,.192,1.239c.365.263.694.263,1.287-.15Zm1.071.138,1.67,1.2a.916.916,0,0,0-.221-1.353c-.407-.269-.8-.3-1.466.156Z" transform="translate(-180.25 -123.325)"/><path class="b" d="M458.906,233.87c-.359,3.7-3.992,4.6-3.735,8.308a15.39,15.39,0,0,1,9.194-.2c3.023.76,5.74,2.394,8.691,3.376a10.731,10.731,0,0,1,.946-3.328c.551-1.071,1.239-2.071,1.766-3.154a3.081,3.081,0,0,1-2.2-.91,17.466,17.466,0,0,0-9.146-2.909C463.676,235,458.774,235.247,458.906,233.87Z" transform="translate(-187.01 -108.883)"/><g class="aa" transform="translate(276.581 127.076)"><path class="b" d="M469.817,242.334l.233-.545a1.281,1.281,0,0,1-.748-1.562l.527.221a.838.838,0,0,0,.4.922l.6-1.442c-.694-.6-.88-1.006-.646-1.562a1.161,1.161,0,0,1,1.55-.6l.174-.407.341.144-.18.413a1.2,1.2,0,0,1,.682,1.419l-.515-.215a.748.748,0,0,0-.341-.79l-.551,1.3c.8.652.9,1.143.676,1.676a1.2,1.2,0,0,1-1.64.6l-.233.545Zm1.239-2.927.515-1.2a.6.6,0,0,0-.832.329C470.619,238.82,470.679,239.066,471.056,239.407Zm.078.766-.569,1.353a.658.658,0,0,0,.9-.371c.132-.317.09-.6-.335-.982Z" transform="translate(-469.247 -237.36)"/></g><path class="d" d="M470.125,242.384l.227-.545a1.293,1.293,0,0,1-.748-1.562l.527.221a.85.85,0,0,0,.4.922l.6-1.442c-.694-.6-.874-1.006-.64-1.562a1.155,1.155,0,0,1,1.544-.6l.174-.407.341.144-.174.413a1.2,1.2,0,0,1,.676,1.419l-.509-.215a.742.742,0,0,0-.341-.79l-.551,1.3c.8.652.9,1.143.676,1.676a1.2,1.2,0,0,1-1.646.6l-.227.545Zm1.239-2.927.515-1.2a.6.6,0,0,0-.832.335C470.921,238.87,470.981,239.11,471.364,239.457Zm.078.766-.6,1.347a.652.652,0,0,0,.9-.371c.162-.317.114-.593-.305-.976Z" transform="translate(-192.788 -110.304)"/><g class="aa" transform="translate(263.649 40.058)"><path class="b" d="M447.64,97.377l1.311-.407a2.98,2.98,0,0,1,1.658-3.675L451,94.564a1.975,1.975,0,0,0-1.041,2.095l3.489-1.077c0-2.095.473-3.07,1.8-3.483a2.694,2.694,0,0,1,3.346,1.885l.982-.305.257.82-.994.311a2.728,2.728,0,0,1-1.508,3.34l-.389-1.239a1.724,1.724,0,0,0,.9-1.8l-3.142.976c.054,2.394-.676,3.322-1.957,3.723-1.6.5-2.867-.281-3.549-2.017l-1.311.407Zm7.063-2.191,2.927-.9a1.407,1.407,0,0,0-1.838-.982C455.086,93.522,454.739,93.989,454.7,95.186Zm-1.245,1.287L450.2,97.485a1.523,1.523,0,0,0,2.017,1.047C452.979,98.3,453.41,97.8,453.458,96.473Z" transform="translate(-447.64 -91.975)"/></g><path class="d" d="M448,97.983l1.311-.407a2.97,2.97,0,0,1,1.658-3.669l.4,1.269a1.951,1.951,0,0,0-1.041,2.089l3.483-1.083c0-2.095.473-3.064,1.8-3.483a2.708,2.708,0,0,1,3.352,1.885l.976-.305.257.826-.994.305a2.728,2.728,0,0,1-1.508,3.346l-.383-1.239a1.742,1.742,0,0,0,.9-1.8l-3.142.97c.048,2.394-.676,3.328-1.963,3.723-1.6.5-2.867-.281-3.543-2.011l-1.317.407Zm7.069-2.161,2.927-.9a1.407,1.407,0,0,0-1.837-.982C455.452,94.129,455.111,94.625,455.069,95.823Zm-1.245,1.287-3.256,1.012a1.527,1.527,0,0,0,2.017,1.053c.76-.269,1.191-.766,1.239-2.095Z" transform="translate(-184.136 -52.159)"/><g class="aa" transform="translate(32.659 150.527)"><path class="b" d="M62.969,283.728l.162-.784a1.742,1.742,0,0,1-1.407-1.885l.76.156a1.149,1.149,0,0,0,.772,1.125l.437-2.089c-1.077-.6-1.436-1.107-1.269-1.915a1.58,1.58,0,0,1,1.909-1.2l.12-.6.5.1-.126.6a1.6,1.6,0,0,1,1.281,1.718l-.742-.156a1.017,1.017,0,0,0-.664-.97l-.389,1.885c1.239.652,1.508,1.287,1.347,2.053a1.613,1.613,0,0,1-2.035,1.245l-.162.784Zm.88-4.232.365-1.754a.832.832,0,0,0-1.023.664C63.083,278.832,63.244,279.138,63.849,279.5Zm.305,1-.407,1.951a.886.886,0,0,0,1.131-.73C64.95,281.256,64.818,280.9,64.154,280.5Z" transform="translate(-61.715 -276.54)"/></g><path class="b" d="M63.389,283.718l.162-.79a1.742,1.742,0,0,1-1.407-1.885l.76.156a1.137,1.137,0,0,0,.772,1.125l.437-2.089c-1.077-.6-1.436-1.107-1.269-1.909a1.574,1.574,0,0,1,1.909-1.2l.12-.6.5.1-.126.6a1.6,1.6,0,0,1,1.281,1.718l-.742-.156a1.012,1.012,0,0,0-.664-.964l-.389,1.879c1.239.658,1.508,1.287,1.347,2.059a1.613,1.613,0,0,1-2.035,1.239l-.162.79Zm.88-4.232.365-1.754a.82.82,0,0,0-1.023.658C63.521,278.816,63.664,279.128,64.269,279.487Zm.305,1-.407,1.951a.892.892,0,0,0,1.107-.736c.1-.455-.036-.82-.7-1.215Z" transform="translate(-29.225 -126.009)"/><g class="aa" transform="translate(45.913 70.838)"><path class="b" d="M91.156,173.632v-3.316c-4.375-.365-6.931-2.957-7.3-6.458h3.208a4.788,4.788,0,0,0,4.088,3.9v-8.822c-4.854-1.46-6.751-3.286-6.751-6.674,0-3.687,2.849-6.129,6.751-6.386V143.4h2.077v2.514c4.854.473,6.422,3.591,6.638,5.872H96.735a4.19,4.19,0,0,0-3.5-3.352v7.949c5.584,1.6,7.182,3.938,7.182,7.182,0,4.052-2.7,6.422-7.182,6.751v3.316Zm0-17.866v-7.4c-2.628.215-3.591,1.8-3.591,3.537S88.421,154.814,91.156,155.766Zm2.077,3.789V167.8c2.52-.251,3.867-1.532,3.867-3.9.012-1.933-.838-3.28-3.867-4.339Z" transform="translate(-83.86 -143.4)"/></g><path class="d" d="M92.836,173.22v-3.286c-4.375-.365-6.931-2.957-7.3-6.458h3.214a4.746,4.746,0,0,0,4.082,3.9v-8.852c-4.848-1.46-6.745-3.286-6.745-6.674,0-3.687,2.843-6.129,6.745-6.386V143h2.077v2.514c4.854.473,6.422,3.591,6.638,5.872H98.415a4.19,4.19,0,0,0-3.5-3.352v7.949c5.584,1.6,7.182,3.938,7.182,7.182,0,4.052-2.7,6.422-7.182,6.751v3.316Zm0-17.866v-7.4c-2.628.215-3.591,1.8-3.591,3.537S90.1,154.4,92.836,155.354Zm2.077,3.807V167.4c2.52-.251,3.867-1.532,3.867-3.9C98.78,161.555,97.942,160.2,94.913,159.16Z" transform="translate(-38.621 -72.402)"/><path class="b" d="M276.764,104.635c-13.832,22.218-43.13,65.456-46.237,91.45-.76,6.47-.868,13.012-1.107,19.524-.09,1.718-.066,4.6-.958,6.057-1.52,2.454-4.842,2.023-7.685,2.3a289.436,289.436,0,0,1-31.124,1.041c-7.56-.042-14.856-.2-21.458-.174-.413-7.619-1.149-16.16-1.562-23.78-.371-6.817-.76-13.724-2.717-20.26-1.67-5.495-4.405-10.6-7.141-15.64q-15.933-29.089-33.231-57.394c-.76-1.239-4.429-5.842-4.016-7.236a3.118,3.118,0,0,1,.174-.389,5.566,5.566,0,0,1,1.347-1.6,25.192,25.192,0,0,1,5.931-3.8,3.035,3.035,0,0,1,1.5-.365c.736.084,4.19,3.8,4.71,4.339l29.7,30.184c6.41,6.518,13.683,8.577,22.457,11.2a43.935,43.935,0,0,0,12.252,1.5c9.684.084,21.547.15,28.8-6.907,8.619-8.427,33.093-31.273,41.089-40.353l8.553,5.04a3.926,3.926,0,0,1,1.52,1.263C278.284,101.876,277.524,103.42,276.764,104.635Z" transform="translate(-52.253 -52.867)"/><path class="ab" d="M244.366,174.585a7.613,7.613,0,0,0,8.128,1,5.441,5.441,0,0,0,2.574-2.161,8.164,8.164,0,0,0,.814-3.292l.4-3.807a28.613,28.613,0,0,0,.192-6.219,7.355,7.355,0,0,0-2.394-5.046c-1.861-1.448-4.579-1.149-6.853.1C239.883,159.209,238.728,169.713,244.366,174.585Z" transform="translate(-100.957 -76.856)"/><path class="ac" d="M255.477,160.629s-5.5,13.766-13.6,11.007c0,0-2.137-.461-.15-9.176S255.477,160.629,255.477,160.629Z" transform="translate(-100.983 -78.443)"/><path class="ad" d="M226.734,129.18c.628,5.423,3.076,11.025,7.835,13.581,4.411,2.394,9.966,1.622,14.407-.724a13.389,13.389,0,0,0,4.758-3.9,16.675,16.675,0,0,0,2.286-5.387,28.452,28.452,0,0,0,1.251-9.936,17.9,17.9,0,0,0-24.678-15.071c-3.765,1.544-5.465,3.9-5.656,7.883C226.722,120.136,226.2,124.667,226.734,129.18Z" transform="translate(-95.212 -57.702)"/><path class="ae" d="M221.457,109.584a19.9,19.9,0,0,0-.156-5.07c-.407-1.526-1.413-2.831-1.951-4.315a7.679,7.679,0,0,1,1.544-7.679,9.062,9.062,0,0,1,4.088-2.448,11.528,11.528,0,0,1,6.1-.15c1.263.317,2.46.844,3.729,1.119a25.764,25.764,0,0,0,5.524.227,20.178,20.178,0,0,1,8.571,1.55,10.2,10.2,0,0,1,5.692,6.315,7.936,7.936,0,0,0,.724,2.262,14.454,14.454,0,0,0,1.556,1.652c1.2,1.359,1.383,3.3,1.52,5.094a10.457,10.457,0,0,1-.251,4.25,19.168,19.168,0,0,1-2.059,3.483,23.073,23.073,0,0,0-2.065,5.064,6.185,6.185,0,0,1-.305-2.215c-.078-.748-.533-1.6-1.287-1.6a1.556,1.556,0,0,0-1.281,1.059,7.625,7.625,0,0,1-.7,1.616.6.6,0,0,1-.6.3c-.2-.06-.3-.287-.365-.485-.533-1.8.078-3.723.162-5.6a10.007,10.007,0,0,0-3.041-7.577,13.09,13.09,0,0,0-7.153-3.232,34.38,34.38,0,0,0-7.961,0,9.028,9.028,0,0,0-4.453,1.2,7.273,7.273,0,0,0-2.64,4.387c-.329,1.353-.227,4.106-1.2,5.07C221.823,113.062,221.481,110.979,221.457,109.584Z" transform="translate(-92.168 -50.957)"/><path class="d" d="M44.914,205.073s.15,2.855-.814,3.262l4.728,5.812s1.987-1.532,3.262-.766a73.6,73.6,0,0,1,6.931-8.206c2.957-2.753,4.89-4.327,4.89-4.327s-3.717-4.489-5.2-5.387-2.49-1.46-2.49-1.46S52.964,194.371,44.914,205.073Z" transform="translate(-21.985 -92.877)"/><path class="af" d="M60.151,221.294s7.338-11.211,8.457-10.6-.461,5.758-.97,6.68-4.537,3.92-4.537,3.92l-4.022,1.8Z" transform="translate(-27.998 -99.569)"/><path class="ag" d="M183.747,226.9l-15.472-.15c-.413-7.619-1.149-16.16-1.562-23.78-.371-6.817-.76-13.724-2.717-20.26-1.67-5.495-4.405-10.6-7.141-15.64q-15.933-29.089-33.231-57.394c-.76-1.239-4.429-5.842-4.016-7.236a3.12,3.12,0,0,1,.174-.389l3.639-2.951,2.256,4.884S158.687,150.873,166.833,157s13.862,20.781,13.449,24.043c-.371,2.915,7.835,36.882,9.577,44.435C190.08,226.385,183.747,226.9,183.747,226.9Z" transform="translate(-52.285 -54.778)"/><g class="aa" transform="translate(31.496 102.919)"><path class="b" d="M65.511,203.967l-.6-.724a2.053,2.053,0,0,1-2.765-.1l.7-.6a1.347,1.347,0,0,0,1.6.12l-1.592-1.933c-1.323.563-2.071.5-2.681-.233a1.855,1.855,0,0,1,.317-2.616l-.443-.545.461-.341.455.551a1.873,1.873,0,0,1,2.514.084l-.694.563a1.2,1.2,0,0,0-1.377-.1l1.442,1.736c1.508-.658,2.28-.437,2.867.275a1.869,1.869,0,0,1-.353,2.771l.6.724Zm-3.208-3.9-1.341-1.622a.964.964,0,0,0-.138,1.419C61.106,200.256,61.513,200.352,62.3,200.065Zm1.137.449,1.49,1.8a1.041,1.041,0,0,0,.144-1.55c-.377-.419-.8-.563-1.658-.245Z" transform="translate(-59.772 -197)"/></g><path class="b" d="M65.8,203.547l-.6-.724a2.053,2.053,0,0,1-2.765-.09l.706-.6a1.347,1.347,0,0,0,1.6.114l-1.6-1.927c-1.323.557-2.065.5-2.681-.239a1.849,1.849,0,0,1,.323-2.616l-.449-.539.455-.377.455.551a1.867,1.867,0,0,1,2.508.078l-.682.6a1.2,1.2,0,0,0-1.371-.1l1.436,1.736c1.508-.658,2.28-.443,2.867.269a1.872,1.872,0,0,1-.347,2.771l.6.73Zm-3.232-3.9-1.347-1.628a.964.964,0,0,0-.138,1.419C61.413,199.812,61.82,199.932,62.569,199.644Zm1.143.455,1.49,1.8a1.053,1.053,0,0,0,.138-1.556C64.987,199.926,64.562,199.812,63.712,200.1Z" transform="translate(-28.393 -93.9)"/></g></svg>