<svg id="Component_518_11" data-name="Component 518 – 11" xmlns="http://www.w3.org/2000/svg" width="100" height="50" viewBox="0 0 100 50">
  <g id="Rectangle_1755" data-name="Rectangle 1755" fill="#fff" stroke="#8e8e93" stroke-width="0.5">
    <rect width="100" height="50" rx="5" stroke="none"/>
    <rect x="0.25" y="0.25" width="99.5" height="49.5" rx="4.75" fill="none"/>
  </g>
  <g id="Group_2036" data-name="Group 2036" transform="translate(-20.046 -138.777)">
    <path id="Path_2066" data-name="Path 2066" d="M178.675,154.569l-4.759,4.791,4.759,4.79-4.759,4.76-9.582-9.551,9.582-9.583,4.759,4.792m14.342,4.791-9.55-9.583-4.792,4.792,4.792,4.791-4.792,4.79,4.792,4.76Z" transform="translate(-108.629)" fill="#ed1c24" fill-rule="evenodd"/>
    <path id="Path_2067" data-name="Path 2067" d="M62.926,284.32V286.2a3.748,3.748,0,0,0-.711-.586,1.677,1.677,0,0,0-.774-.186,1.566,1.566,0,0,0-1.2.525,1.881,1.881,0,0,0-.465,1.329,1.776,1.776,0,0,0,.465,1.267,1.562,1.562,0,0,0,1.2.525,1.692,1.692,0,0,0,.774-.185,3.829,3.829,0,0,0,.711-.588v1.886a3.1,3.1,0,0,1-.835.308,3.837,3.837,0,0,1-.835.093,3.254,3.254,0,0,1-.957-.124,2.688,2.688,0,0,1-.8-.37,3.208,3.208,0,0,1-1.113-1.205,3.565,3.565,0,0,1-.37-1.639,3.644,3.644,0,0,1,.247-1.329,3.147,3.147,0,0,1,.711-1.082,3.2,3.2,0,0,1,1.021-.71,3.416,3.416,0,0,1,1.267-.217,3.837,3.837,0,0,1,.835.093,3.033,3.033,0,0,1,.835.31M51.15,290.439v-6.366h1.732v2.472H55.2v-2.472h1.731v6.366H55.2v-2.6H52.881v2.6Zm-.988-6.119V286.2a3,3,0,0,0-.711-.586,1.681,1.681,0,0,0-.773-.186,1.571,1.571,0,0,0-1.206.525,1.886,1.886,0,0,0-.463,1.329,1.781,1.781,0,0,0,.463,1.267,1.663,1.663,0,0,0,1.206.525,1.7,1.7,0,0,0,.773-.185,3.051,3.051,0,0,0,.711-.588v1.886a3.108,3.108,0,0,1-.835.308,3.554,3.554,0,0,1-.8.093,3.337,3.337,0,0,1-.99-.124,2.714,2.714,0,0,1-.8-.37,3.139,3.139,0,0,1-1.081-1.205,3.561,3.561,0,0,1-.37-1.639,3.623,3.623,0,0,1,.217-1.329,2.824,2.824,0,0,1,.741-1.082,2.642,2.642,0,0,1,1.021-.71,3.2,3.2,0,0,1,1.267-.217,3.554,3.554,0,0,1,.8.093A3.038,3.038,0,0,1,50.161,284.32Zm-9.675,6.119v-6.366h3.9v1.39H42.187v1.113h2.07v1.36h-2.07v1.081h2.195v1.422Zm26.551-6.521V285.4a1.515,1.515,0,0,0-1.206.526,1.936,1.936,0,0,0-.464,1.329,2.019,2.019,0,0,0,.464,1.36,1.57,1.57,0,0,0,1.206.525v1.453a3.039,3.039,0,0,1-1.3-.248,2.974,2.974,0,0,1-1.112-.711,2.836,2.836,0,0,1-.742-1.081,3.052,3.052,0,0,1-.247-1.3,2.91,2.91,0,0,1,.247-1.267,2.844,2.844,0,0,1,.742-1.083,3.538,3.538,0,0,1,1.112-.742A3.616,3.616,0,0,1,67.038,283.918Zm-30.57,6.521v-4.883H35.046v-1.484H39.62v1.484H38.2v4.883Zm42.377,0H77.237l-.4-2.751a5.114,5.114,0,0,0-.062-.649c-.031-.247-.031-.494-.062-.773a6.5,6.5,0,0,1-.247.99,1.1,1.1,0,0,1-.031.186l-.866,3H74.394l-.866-3a1.223,1.223,0,0,0-.062-.186,5.755,5.755,0,0,1-.216-.99,5.564,5.564,0,0,0-.063.711c-.031.248-.061.464-.092.711l-.371,2.751H71.117l.959-6.366h1.732l.957,3.276c0,.031.031.062.031.123a4.3,4.3,0,0,1,.186.743,1.551,1.551,0,0,1,.062-.371,3.627,3.627,0,0,1,.124-.494l.988-3.276h1.7Zm-11.807.155v-1.453a1.616,1.616,0,0,0,1.205-.525,2.019,2.019,0,0,0,.463-1.36,1.994,1.994,0,0,0-.463-1.329,1.556,1.556,0,0,0-1.205-.526v-1.483a3.612,3.612,0,0,1,1.3.247,3.53,3.53,0,0,1,1.112.742,2.965,2.965,0,0,1,.742,1.083,3.423,3.423,0,0,1,.246,1.267,3.593,3.593,0,0,1-.246,1.3,2.835,2.835,0,0,1-.742,1.081,2.969,2.969,0,0,1-1.112.711A3.034,3.034,0,0,1,67.038,290.594Z" transform="translate(0 -112.616)" fill="#ed1c24" fill-rule="evenodd"/>
    <path id="Path_2068" data-name="Path 2068" d="M311.363,287.4h.712v1.143h-.712v1.391h.712v1.3h-2.319V284.87h2.319v1.267h-.712V287.4m6.986-2.534v1.019a2.564,2.564,0,0,0-.124.465,2.011,2.011,0,0,1-.123.4l-.619,2.1h.866v1.236h-1.236l-.341,1.143h-1.73l2.194-6.366Zm-6.274,2.534a1.414,1.414,0,0,0,.494-.124.563.563,0,0,0,.246-.494.6.6,0,0,0-.217-.526,1.624,1.624,0,0,0-.524-.123V284.87a6.336,6.336,0,0,1,.927.062,2.57,2.57,0,0,1,.742.247,1.441,1.441,0,0,1,.525.525,1.47,1.47,0,0,1,.186.742,1.211,1.211,0,0,1-.279.866,1.653,1.653,0,0,1-.9.494,1.439,1.439,0,0,1,1.082.495,1.613,1.613,0,0,1,.37,1.113,1.669,1.669,0,0,1-.217.9,1.332,1.332,0,0,1-.617.618,2.489,2.489,0,0,1-.8.248,7.576,7.576,0,0,1-1.019.061v-1.3a1.464,1.464,0,0,0,.741-.155.539.539,0,0,0,.279-.525.679.679,0,0,0-.248-.556,1.52,1.52,0,0,0-.772-.155Zm17.772,3.832V284.87h1.7v2.9l2.039-2.9H335.6l-2.348,3.121,2.565,3.245H333.65l-2.1-2.843v2.843Zm-7.6,0V284.87h1.67l2.41,3.276c.031.062.124.215.217.4a7.535,7.535,0,0,1,.371.711c-.03-.247-.061-.494-.092-.68,0-.217-.032-.4-.032-.556V284.87h1.67v6.366h-1.67l-2.41-3.276c-.031-.062-.123-.217-.217-.4-.124-.216-.216-.462-.34-.71a5.973,5.973,0,0,1,.062.71,3.168,3.168,0,0,1,.031.526v3.152Zm-3.894-1.143v-1.236h.866l-.649-2.1a1.307,1.307,0,0,1-.094-.31,4.76,4.76,0,0,1-.123-.525v-1.05h1.083l2.195,6.366H319.9l-.339-1.143Z" transform="translate(-230.767 -113.413)" fill="#231f20" fill-rule="evenodd"/>
    <path id="Path_2069" data-name="Path 2069" d="M331.443,257.611a.788.788,0,1,0,0,1.577v-.062a.727.727,0,1,1,0-1.453v-.062m-.154.371v.37h.154v.217l-.092-.124h-.062v.494H331.2v-1.05h.246v.093h-.154Zm.154.587v-.124l.371.494h-.124Zm0,.618a.788.788,0,1,0,0-1.577v.062a.727.727,0,1,1,0,1.453Zm0-.835c.062,0,.093-.031.124-.031a.227.227,0,0,0,.062-.154.231.231,0,0,0-.062-.155c-.031,0-.062-.031-.124-.031v-.093a.26.26,0,0,1,.186.062.281.281,0,0,1,.093.217.329.329,0,0,1-.279.278Z" transform="translate(-248.012 -90.483)" fill="#ed1c24" fill-rule="evenodd"/>
  </g>
</svg>
