<svg xmlns="http://www.w3.org/2000/svg" width="25" height="24.992" viewBox="0 0 25 24.992">
  <g id="Page-1" transform="translate(0.107 0.072)">
    <g id="Group_638" data-name="Group 638" transform="translate(-0.107 -0.072)">
      <path id="Shape" d="M242.736,236.321l-.994.117-.224-1.909a1.406,1.406,0,0,0-.193-.564,1.873,1.873,0,1,0-1.963-2.028l-1.256-1.254a1.437,1.437,0,0,0-2.028,0l-1.089,1.082a1.438,1.438,0,1,0,2.034,2.033l.068-.068.494.494-6.565,6.568a1.436,1.436,0,0,0,2.034,2.029l2.231-2.231.494.494-.427.427a1.438,1.438,0,0,0,2.034,2.033l1.445-1.445a1.439,1.439,0,0,0,0-2.034l-1.513-1.507,1.59-1.59.144,1.227a1.432,1.432,0,0,0,1.59,1.262l2.432-.281a1.437,1.437,0,0,0-.337-2.854Zm-2.254-4.953a1.039,1.039,0,1,1-.306.735,1.041,1.041,0,0,1,.306-.735Zm2.5,6.982-2.432.281a.6.6,0,0,1-.666-.529l-.184-1.564a.671.671,0,0,0-1.141-.394l-2.12,2.119a.416.416,0,0,0,0,.589l1.807,1.8a.607.607,0,0,1,0,.857l-1.446,1.445a.62.62,0,0,1-.856,0,.613.613,0,0,1,0-.856l.541-.541a.669.669,0,0,0,0-.952l-.719-.721a.666.666,0,0,0-.951,0l-2.344,2.344a.6.6,0,0,1-.856-.85l6.679-6.684a.671.671,0,0,0,0-.946l-.725-.726a.67.67,0,0,0-.946,0l-.184.184a.61.61,0,0,1-.856,0,.6.6,0,0,1,0-.856l1.088-1.082a.6.6,0,0,1,.852,0l3,3a.59.59,0,0,1,.172.357l.259,2.211a.52.52,0,0,0,.574.467l1.307-.153a.607.607,0,0,1,.674.532.667.667,0,0,1,0,.071.6.6,0,0,1-.53.6Z" transform="translate(-219.328 -218.956)" fill="#8e8e93"/>
      <path id="Path_1783" data-name="Path 1783" d="M126.95,85.724a1.457,1.457,0,0,0-2.488,1.031v4.9a2.28,2.28,0,0,0-.308.308h-3.231a1.457,1.457,0,0,0,0,2.914h3.231a2.289,2.289,0,1,0,3.221-3.221v-4.9a1.447,1.447,0,0,0-.426-1.031Zm-1.655,1.031a.624.624,0,1,1,1.249,0v4.459a2.242,2.242,0,0,0-1.249,0Zm-4.371,7.284a.624.624,0,1,1,0-1.249h2.794a2.243,2.243,0,0,0,0,1.249Zm4.995.833a1.457,1.457,0,1,1,1.457-1.457,1.457,1.457,0,0,1-1.457,1.457Z" transform="translate(-113.623 -81.123)" fill="#8e8e93"/>
      <path id="Path_1784" data-name="Path 1784" d="M202.094,324.683a.416.416,0,0,0-.416-.416h-4.995a.416.416,0,1,0,0,.832h4.995A.416.416,0,0,0,202.094,324.683Z" transform="translate(-186.672 -308.426)" fill="#8e8e93"/>
      <path id="Path_1785" data-name="Path 1785" d="M167.544,367.349a.416.416,0,0,0-.416-.416h-4.579a.416.416,0,1,0,0,.833h4.579A.416.416,0,0,0,167.544,367.349Z" transform="translate(-154.206 -349.008)" fill="#8e8e93"/>
      <path id="Path_1786" data-name="Path 1786" d="M173.165,409.6h-2.081a.416.416,0,0,0,0,.832h2.081a.416.416,0,1,0,0-.832Z" transform="translate(-162.325 -389.585)" fill="#8e8e93"/>
      <path id="Path_1787" data-name="Path 1787" d="M6.514,22.8a.813.813,0,0,1-.1-.005L5.9,22.737l-3.527-.576a.834.834,0,0,1-.411-1.453l.756-.654A12.167,12.167,0,0,1-.024,10.839,12.3,12.3,0,0,1,23.5,7.4a1.44,1.44,0,0,1-.6,1.8,1.469,1.469,0,0,1-1.2.138,1.485,1.485,0,0,1-.9-.827A9.375,9.375,0,1,0,4.813,18l.663-.663a.834.834,0,0,1,1.417.5l.447,4.038a.834.834,0,0,1-.827.925ZM12.185.765q-.5,0-1,.042A11.452,11.452,0,0,0,3.62,19.821a.417.417,0,0,1-.039.592l-1.069.926,3.506.574.5.055-.446-4.038-.987.987a.417.417,0,0,1-.61-.022,10.207,10.207,0,1,1,17.1-10.714.652.652,0,0,0,.393.364.625.625,0,0,0,.519-.063.6.6,0,0,0,.259-.75A11.468,11.468,0,0,0,12.185.765Z" transform="translate(0.107 0.072)" fill="#8e8e93"/>
    </g>
  </g>
</svg>
