<svg id="Component_513_3" data-name="Component 513 – 3" xmlns="http://www.w3.org/2000/svg" xmlns:xlink="http://www.w3.org/1999/xlink" width="100" height="50" viewBox="0 0 100 50">
  <defs>
    <linearGradient id="linear-gradient" x1="0.878" y1="0.637" x2="0.081" y2="0.056" gradientUnits="objectBoundingBox">
      <stop offset="0" stop-color="#006840"/>
      <stop offset="0.4" stop-color="#007a48"/>
      <stop offset="1" stop-color="#86c440"/>
    </linearGradient>
    <linearGradient id="linear-gradient-2" x1="0.158" y1="0.018" x2="0.828" y2="0.841" gradientUnits="objectBoundingBox">
      <stop offset="0" stop-color="#006840"/>
      <stop offset="0.3" stop-color="#007a48"/>
      <stop offset="1" stop-color="#86c440"/>
    </linearGradient>
  </defs>
  <g id="Rectangle_1755" data-name="Rectangle 1755" fill="#fff" stroke="#8e8e93" stroke-width="0.5">
    <rect width="100" height="50" rx="5" stroke="none"/>
    <rect x="0.25" y="0.25" width="99.5" height="49.5" rx="4.75" fill="none"/>
  </g>
  <g id="Group_1993" data-name="Group 1993" transform="translate(-177.188 -117.347)">
    <g id="Group_1992" data-name="Group 1992" transform="translate(238.1 130.346)">
      <path id="Path_1959" data-name="Path 1959" d="M276.12,130.666c-1.177.239-1.607.772-1.566,1.539.059,1.078,1.245,3.134,1.812,4.051a25.171,25.171,0,0,0,3.465,4.378c1.056,1.043,1.716,1.269,2.845-.271a23.828,23.828,0,0,0,2.614-4.1,18.225,18.225,0,0,0,.921-2.292,2,2,0,0,0-.776-2.506,2.491,2.491,0,0,1,1.4,2.214,8,8,0,0,1-.414,2.579,29.134,29.134,0,0,1-1.979,5.192,29.845,29.845,0,0,1-2.2,3.772c-1.747,2.4-3.425,1.628-5.39,0a20.5,20.5,0,0,1-3.472-3.765,28.581,28.581,0,0,1-2.862-5.208c-.927-2.243-.206-3.391.939-4.12A12.539,12.539,0,0,1,276.12,130.666Z" transform="translate(-270.088 -130.462)" fill-rule="evenodd" fill="url(#linear-gradient)"/>
      <path id="Path_1960" data-name="Path 1960" d="M278.606,135.666c1.82-.272,6.55-.566,8.209.294a.93.93,0,0,1,.516,1.118q.249-.449.485-.933a18.23,18.23,0,0,0,.921-2.292,2,2,0,0,0-.776-2.506l0,0a6.308,6.308,0,0,0-1.145-.433,17.379,17.379,0,0,0-3.527-.534c-.5-.036-1.031-.033-1.564-.031a23.825,23.825,0,0,0-3.075.2c-1.176.239-1.607.772-1.565,1.539A10.8,10.8,0,0,0,278.606,135.666Z" transform="translate(-272.615 -130.346)" fill-rule="evenodd" fill="url(#linear-gradient-2)"/>
    </g>
    <path id="Path_1961" data-name="Path 1961" d="M240.521,164.314a2.129,2.129,0,0,0,1.921-2.036,8.738,8.738,0,0,0-.1-3.265,2.125,2.125,0,0,0-3.415-.891c-.1.083-.183.12-.183-.026l-.016-3.066-1.61.028.007,8.788a6.616,6.616,0,0,0,3.4.467Zm-43.181-.167c.338,0,.272.032.478-.266a19.321,19.321,0,0,0,2.706-8.75,6.809,6.809,0,0,0-1.969.251,18.719,18.719,0,0,1-2.2,7.008h0a18.728,18.728,0,0,1-2.2-7.008,6.809,6.809,0,0,0-1.969-.251,19.321,19.321,0,0,0,2.706,8.75c.206.3.14.266.478.266Zm46.281-6.227.157,1.542c.637-.064,1.159-.241,1.827-.292,1.007-.038,1.649-.063,1.618.706-.753,0-1.511,0-2.293.007-.949.008-1.738.484-1.633,2.518.126,2.442,2.876,2.264,4.131,1.284v.548h1.46c-.039-2.493.133-5.113-.294-5.821-.814-1.352-3.479-.856-4.972-.493Zm-34.382,6.021q-.081-.755-.162-1.509a13.313,13.313,0,0,1-2.459.282c-.769-.026-1.055-.416-1.052-1.572a1.323,1.323,0,0,0,1.017.5c1,.012,1.942.029,2.931-.009.044-1.925.2-3.6-1.621-4.014a5.143,5.143,0,0,0-2.426.056,1.815,1.815,0,0,0-1.372,1.435c-.414,1.509-.3,3.746.624,4.609,1.056.99,3.187.637,4.519.22Zm-2.934-4.828h.805a.754.754,0,0,1,.731.771v.342h-2.267v-.342a.754.754,0,0,1,.731-.771Zm51.483,5.107.05-2.827c0-.173.149.059.189.128a11.708,11.708,0,0,0,1.81,2.481c.222.234.268.218.662.218h1.689a9.724,9.724,0,0,1-2.575-3.239c-.132-.3-.125-.266.063-.547.245-.3.553-.7.893-1.108l1.439-1.787.02-.042H260.5c-.28,0-.271-.045-.469.18-.582.663-1.25,1.439-1.789,2.066a1.325,1.325,0,0,1-.213.186c-.222.168-.181.123-.182-.118l-.015-4.8-1.63.012-.021,9.2ZM219.953,164l-.143-1.5a10.944,10.944,0,0,1-2.294.185c-.782-.092-.877-.528-.885-1.2,0-.4-.015-.861.007-1.261.031-.548.183-.9.878-.985a11.031,11.031,0,0,1,2.294.185l.143-1.5c-2.8-.7-4.55-.35-4.941,1.942a10.862,10.862,0,0,0,.067,2.508c.5,2,2.208,2.287,4.875,1.622Zm-8.8-6.4h-1.025q0,.794-.008,1.588l1.033.008c0,.537,0,1.107,0,1.646,0,.568-.006,1.1,0,1.562a2.02,2.02,0,0,0,.487,1.554,1.2,1.2,0,0,0,.638.225,4.906,4.906,0,0,0,1.971-.146q-.026-.682-.052-1.364c-.63.066-1.4.209-1.4-.131,0-1.159,0-2.184,0-3.343l1.489-.006q0-.791,0-1.584L212.8,157.6q0-.79,0-1.579l-1.639,0q0,.787,0,1.575Zm-10.006,6.625,1.593.032.058-6.631-1.658.008.007,6.591Zm21.712-6.714h1.429a2.094,2.094,0,0,1,2.03,2.142v2.532a2.094,2.094,0,0,1-2.03,2.142h-1.429a2.094,2.094,0,0,1-2.029-2.142v-2.532a2.094,2.094,0,0,1,2.029-2.142Zm.312,1.607a.754.754,0,0,0-.731.771v2.059a.753.753,0,0,0,.731.77h.805a.753.753,0,0,0,.731-.77v-2.059a.754.754,0,0,0-.731-.771Zm5.808,5.107q.022-2.534.044-5.069l1.2,0a.6.6,0,0,1,.631.577v.233l0,4.26h1.609l.045-5.074h1.313a.584.584,0,0,1,.639.621l.006,4.455h1.593l.054-4.791a1.614,1.614,0,0,0-1.614-1.85l-1.042.011a1.308,1.308,0,0,0-1.125.459c-.242.264-.124.267-.344.019a1.477,1.477,0,0,0-1.2-.488h-.735a1.4,1.4,0,0,0-1.066.525c-.267.285-.235.379-.235-.067v-.414h0l-1.37.006q0,3.3.007,6.591Zm22.557,0q.022-2.534.045-5.069l1.214,0a.6.6,0,0,1,.64.612q0,2.228,0,4.458h1.631q.02-2.217.04-4.433c.01-1.171-.426-2.207-1.742-2.207h-.746a1.405,1.405,0,0,0-1.049.491c-.28.285-.272.441-.272-.013v-.44h-1.392c0,2.2.007,4.4.009,6.6Zm-6.061-2.857h1.775v.978c0,.406-1.121.424-1.834.407-.522-.013-.461,0-.484-.488-.008-.182,0-.364,0-.547,0-.375.073-.349.544-.349Zm-4.623-1.183V162a.754.754,0,0,1-.731.771H239.3c-.575,0-.578.008-.578-.854v-1.953c0-.863,0-.854.578-.854h.822a.754.754,0,0,1,.731.771Z" transform="translate(0 -10.217)" fill="#004522" fill-rule="evenodd"/>
  </g>
</svg>
