<?xml version="1.0" encoding="utf-8"?>
<!-- Generator: Adobe Illustrator 23.0.5, SVG Export Plug-In . SVG Version: 6.00 Build 0)  -->
<svg version="1.1" xmlns="http://www.w3.org/2000/svg" xmlns:xlink="http://www.w3.org/1999/xlink" x="0px" y="0px"
	 viewBox="0 0 624 311" style="enable-background:new 0 0 624 311;" xml:space="preserve">
<style type="text/css">
	.st0{fill:url(#SVGID_1_);}
	.st1{fill:#006837;}
	.st2{fill:url(#SVGID_2_);}
	.st3{fill:url(#SVGID_3_);}
	.st4{fill:url(#SVGID_4_);}
	.st5{fill:#373737;}
	.st6{fill:#FFFFFF;}
	.st7{fill:url(#SVGID_5_);}
	.st8{fill:url(#SVGID_6_);}
	.st9{fill:url(#SVGID_7_);}
	.st10{fill:url(#SVGID_8_);}
	.st11{fill:url(#SVGID_9_);}
	.st12{fill:url(#SVGID_10_);}
	.st13{fill:url(#SVGID_11_);}
	.st14{fill:#4D4D4D;}
	.st15{fill:#5E605B;}
	.st16{fill:#DABE6E;}
	.st17{fill:url(#SVGID_12_);}
	.st18{fill:url(#SVGID_13_);}
	.st19{fill:url(#SVGID_14_);}
	.st20{fill:#FAD67A;}
	.st21{fill:url(#SVGID_15_);}
	.st22{fill:url(#SVGID_16_);}
	.st23{opacity:0.5;fill:#CCCCCC;}
	.st24{fill:url(#SVGID_17_);}
	.st25{fill:#C5AA29;}
	.st26{fill:url(#SVGID_18_);}
	.st27{fill:url(#SVGID_19_);}
	.st28{fill:url(#SVGID_20_);}
	.st29{fill:url(#SVGID_21_);}
	.st30{fill:#00A26D;}
	.st31{fill:#005362;}
	.st32{fill:#E6E6E6;}
	.st33{fill:#004754;}
	.st34{fill:#FF7F27;}
	.st35{fill:#008357;}
	.st36{fill:#CCCCCC;}
	.st37{fill:#FFED79;}
	.st38{fill:#FFD880;}
	.st39{fill:#E5B790;}
	.st40{fill:#FCC79B;}
	.st41{fill:#F46606;}
	.st42{fill:#E6CEC6;}
	.st43{fill:#0056A6;}
	.st44{fill:#E69376;}
	.st45{fill:#4C9EBF;}
	.st46{fill:#231F20;}
	.st47{fill:#000714;}
	.st48{fill:#F6A382;}
	.st49{fill:#E69575;}
	.st50{fill:#08101B;}
	.st51{fill:#E0856E;}
	.st52{fill:#F79F7D;}
	.st53{fill:#E98A6F;}
	.st54{fill:#4FA5C9;}
	.st55{fill:#4691B0;}
	.st56{fill:#79CFE1;}
	.st57{fill:#370900;}
	.st58{fill:#101A26;}
	.st59{fill:#9597BB;}
	.st60{fill:#00B8C4;}
	.st61{fill:#D2E7F1;}
	.st62{fill:#C3A17E;}
	.st63{fill:#D6B088;}
	.st64{fill:#6A3F2B;}
	.st65{fill:#C98168;}
	.st66{fill:#C93132;}
	.st67{fill:#24365F;}
	.st68{fill:#DDBD8F;}
	.st69{fill:#3B2314;}
	.st70{fill:#010B18;}
	.st71{fill:#2B070C;}
	.st72{fill:#00010F;}
	.st73{fill:#08141F;}
	.st74{fill:#D0D2D3;}
	.st75{fill:#E6E7E8;}
	.st76{fill:none;stroke:#E6E7E8;stroke-width:2.9481;stroke-miterlimit:10;}
	.st77{fill:#471F08;}
	.st78{fill:none;stroke:#BBBDBF;stroke-width:4.8231;stroke-miterlimit:10;}
	.st79{fill:#D38950;}
	.st80{fill:#1F3038;}
	.st81{fill:#B0775F;}
	.st82{fill:#0087CD;}
	.st83{fill:#0071AB;}
	.st84{fill:#F9BC8F;}
	.st85{fill:#05D88C;}
</style>
<g id="Layer_2">
</g>
<g id="Layer_1">
	<g>
		<g>
			<g>
				<g>
					<linearGradient id="SVGID_1_" gradientUnits="userSpaceOnUse" x1="318.3953" y1="37.8379" x2="346.2045" y2="75.7319">
						<stop  offset="0.1591" style="stop-color:#00A26D"/>
						<stop  offset="1" style="stop-color:#008075"/>
					</linearGradient>
					<path class="st0" d="M413.11,58.92L282.46,91.73c-3.32,0.89-4.51-1.04-4.51-1.04l-26.09-37.8c-0.55-1.51,1.69-2.22,1.69-2.22
						L369.31,26.9L413.11,58.92z"/>
					<path class="st1" d="M282.46,91.73c-3.32,0.89-4.51-1.04-4.51-1.04l-26.05-37.74c-0.13,0.28-0.17,0.61-0.04,0.99l26.09,37.8
						c0,0,1.19,1.93,4.51,1.04l130.65-32.82l0-1.04L282.46,91.73z"/>
				</g>
				<g>
					<g>
						<g>
							<linearGradient id="SVGID_2_" gradientUnits="userSpaceOnUse" x1="362.4734" y1="38.2477" x2="358.1111" y2="26.5721">
								<stop  offset="0" style="stop-color:#FFFFFF"/>
								<stop  offset="1" style="stop-color:#939598"/>
							</linearGradient>
							<polygon class="st2" points="369.66,21.81 349.56,26.88 349.56,39.35 369.66,34.29 							"/>
							<linearGradient id="SVGID_3_" gradientUnits="userSpaceOnUse" x1="345.907" y1="39.0277" x2="345.907" y2="26.0309">
								<stop  offset="0.299" style="stop-color:#FFFFFF"/>
								<stop  offset="0.4284" style="stop-color:#E6E6E7"/>
								<stop  offset="0.6853" style="stop-color:#B9BABC"/>
								<stop  offset="0.8843" style="stop-color:#9D9FA2"/>
								<stop  offset="1" style="stop-color:#939598"/>
							</linearGradient>
							<polygon class="st3" points="342.26,33.79 349.56,39.31 349.56,26.84 342.26,21.32 							"/>
							<linearGradient id="SVGID_4_" gradientUnits="userSpaceOnUse" x1="357.0734" y1="25.8791" x2="355.2714" y2="18.9286">
								<stop  offset="0" style="stop-color:#FFFFFF"/>
								<stop  offset="0.902" style="stop-color:#888A8D"/>
							</linearGradient>
							<polygon class="st4" points="360.84,16.7 369.66,21.81 349.56,26.88 342.26,21.35 							"/>
						</g>
						<g>
							<polygon class="st5" points="363.53,26.81 363.15,26.9 363.15,25.55 368.49,23.02 368.49,23.44 363.53,25.79 							"/>
						</g>
						<polygon class="st5" points="342.26,21.35 342.97,21.89 343.32,22.16 343.32,23.65 342.26,22.8 						"/>
						<polygon class="st5" points="349.56,26.88 348.35,25.97 348.35,27.3 348.35,27.52 349.56,28.47 						"/>
						<g>
							<polygon class="st5" points="342.88,25.86 342.88,26.17 348.55,30.46 348.55,30.16 							"/>
							<polygon class="st6" points="342.88,26.17 342.88,26.48 348.55,30.77 348.55,30.46 							"/>
						</g>
						<g>
							<polygon class="st5" points="342.88,30.58 342.88,30.89 348.55,35.18 348.55,34.88 							"/>
							<polygon class="st6" points="342.88,30.89 342.88,31.2 348.55,35.49 348.55,35.18 							"/>
						</g>
					</g>
					<g>
						<g>
							<linearGradient id="SVGID_5_" gradientUnits="userSpaceOnUse" x1="375.5818" y1="48.0616" x2="370.7161" y2="35.0388">
								<stop  offset="0" style="stop-color:#FFFFFF"/>
								<stop  offset="1" style="stop-color:#939598"/>
							</linearGradient>
							<polygon class="st7" points="383.6,29.73 361.17,35.38 361.17,49.29 383.6,43.64 							"/>
							<linearGradient id="SVGID_6_" gradientUnits="userSpaceOnUse" x1="357.1038" y1="48.9315" x2="357.1038" y2="34.4352">
								<stop  offset="0.299" style="stop-color:#FFFFFF"/>
								<stop  offset="0.4284" style="stop-color:#E6E6E7"/>
								<stop  offset="0.6853" style="stop-color:#B9BABC"/>
								<stop  offset="0.8843" style="stop-color:#9D9FA2"/>
								<stop  offset="1" style="stop-color:#939598"/>
							</linearGradient>
							<polygon class="st8" points="353.03,43.09 361.17,49.25 361.17,35.34 353.03,29.18 							"/>
							<linearGradient id="SVGID_7_" gradientUnits="userSpaceOnUse" x1="369.5586" y1="34.2659" x2="367.5487" y2="26.5134">
								<stop  offset="0" style="stop-color:#FFFFFF"/>
								<stop  offset="0.902" style="stop-color:#888A8D"/>
							</linearGradient>
							<polygon class="st9" points="373.77,24.03 383.6,29.73 361.17,35.38 353.03,29.22 							"/>
						</g>
						<g>
							<polygon class="st5" points="376.76,35.3 376.34,35.41 376.34,33.9 382.3,31.08 382.3,31.55 376.76,34.17 							"/>
						</g>
						<polygon class="st5" points="353.03,29.22 353.82,29.82 354.22,30.12 354.22,31.78 353.03,30.84 						"/>
						<polygon class="st5" points="361.17,35.38 359.83,34.37 359.83,35.85 359.83,36.09 361.17,37.16 						"/>
						<g>
							<polygon class="st5" points="353.73,34.25 353.73,34.59 360.06,39.38 360.06,39.04 							"/>
							<polygon class="st6" points="353.73,34.59 353.73,34.93 360.06,39.72 360.06,39.38 							"/>
						</g>
						<g>
							<polygon class="st5" points="353.73,39.51 353.73,39.86 360.06,44.64 360.06,44.3 							"/>
							<polygon class="st6" points="353.73,39.86 353.73,40.2 360.06,44.99 360.06,44.64 							"/>
						</g>
					</g>
					<g>
						<g>
							<linearGradient id="SVGID_8_" gradientUnits="userSpaceOnUse" x1="390.869" y1="64.215" x2="384.0867" y2="46.0624">
								<stop  offset="0" style="stop-color:#FFFFFF"/>
								<stop  offset="1" style="stop-color:#939598"/>
							</linearGradient>
							<polygon class="st10" points="402.05,38.67 370.79,46.54 370.79,65.93 402.05,58.05 							"/>
							<linearGradient id="SVGID_9_" gradientUnits="userSpaceOnUse" x1="365.1122" y1="65.4277" x2="365.1122" y2="45.221">
								<stop  offset="0.299" style="stop-color:#FFFFFF"/>
								<stop  offset="0.4284" style="stop-color:#E6E6E7"/>
								<stop  offset="0.6853" style="stop-color:#B9BABC"/>
								<stop  offset="0.8843" style="stop-color:#9D9FA2"/>
								<stop  offset="1" style="stop-color:#939598"/>
							</linearGradient>
							<polygon class="st11" points="359.44,57.28 370.79,65.87 370.79,46.48 359.44,37.89 							"/>
							<linearGradient id="SVGID_10_" gradientUnits="userSpaceOnUse" x1="382.4732" y1="44.985" x2="379.6716" y2="34.1787">
								<stop  offset="0" style="stop-color:#FFFFFF"/>
								<stop  offset="0.902" style="stop-color:#888A8D"/>
							</linearGradient>
							<polygon class="st12" points="388.34,30.72 402.05,38.67 370.79,46.54 359.44,37.95 							"/>
						</g>
						<g>
							<polygon class="st5" points="373.83,49.91 370.72,46.76 371.17,46.32 374.02,49.21 384.69,46.28 386.42,42.22 401.31,38.38 
								401.47,38.99 386.89,42.75 385.17,46.8 							"/>
						</g>
						<g>
							
								<rect x="362.22" y="38.49" transform="matrix(0.602 -0.7985 0.7985 0.602 111.9764 305.5708)" class="st5" width="0.63" height="3.91"/>
						</g>
						<g>
							
								<rect x="366.56" y="41.78" transform="matrix(0.602 -0.7985 0.7985 0.602 111.0807 310.3371)" class="st5" width="0.63" height="3.91"/>
						</g>
						<linearGradient id="SVGID_11_" gradientUnits="userSpaceOnUse" x1="377.6799" y1="49.9694" x2="377.6799" y2="67.7102">
							<stop  offset="0.299" style="stop-color:#FFFFFF"/>
							<stop  offset="0.4284" style="stop-color:#E6E6E7"/>
							<stop  offset="0.6853" style="stop-color:#B9BABC"/>
							<stop  offset="0.8843" style="stop-color:#9D9FA2"/>
							<stop  offset="1" style="stop-color:#939598"/>
						</linearGradient>
						<polygon class="st13" points="379.32,63.78 376.04,64.6 376.04,49.31 379.32,48.41 						"/>
					</g>
				</g>
				<g>
					<polygon class="st14" points="336.86,48.82 348.86,46.28 355.86,51.01 343.13,54.13 					"/>
					<polygon class="st5" points="343.13,54.13 336.86,48.82 336.86,49.46 343.13,54.76 355.86,51.64 355.86,51.01 					"/>
				</g>
				<g>
					<g>
						<polygon class="st14" points="274.18,58.63 292.39,54.58 301.92,63.26 283.13,67.52 						"/>
						<polygon class="st5" points="283.13,67.52 274.18,58.63 274.18,60.54 283.13,69.44 301.92,65.17 301.92,63.26 						"/>
					</g>
					<polygon class="st6" points="283.2,68.56 301.87,64.32 301.92,64.31 301.92,64.74 283.06,69.02 274.18,60.19 274.18,59.67 
											"/>
				</g>
				<g>
					<polygon class="st15" points="261.62,59.91 261.62,57.34 262.65,58.51 262.5,58.55 262.5,59.95 269.97,68.68 270.47,68.3 
						273.63,71.75 274.17,71.75 274.17,79.33 261.62,62.98 					"/>
					<g>
						<g>
							<polygon class="st16" points="270.99,77.12 270.86,76.83 271.56,76.53 271.56,74.7 271.87,74.7 271.87,76.73 							"/>
						</g>
						<g>
							<polygon class="st16" points="270.09,76.22 269.96,75.93 270.66,75.63 270.66,73.8 270.98,73.8 270.98,75.84 							"/>
						</g>
						<g>
							<polygon class="st16" points="269.41,75.33 269.29,75.04 269.98,74.73 269.98,72.9 270.3,72.9 270.3,74.94 							"/>
						</g>
						<g>
							<polygon class="st16" points="268.8,74.43 268.67,74.14 269.37,73.83 269.37,72 269.69,72 269.69,74.04 							"/>
						</g>
						<g>
							<polygon class="st16" points="268.15,73.38 268.02,73.1 268.72,72.79 268.72,70.96 269.04,70.96 269.04,73 							"/>
						</g>
						<g>
							<polygon class="st16" points="267.45,72.62 267.33,72.33 268.03,72.02 268.03,70.19 268.34,70.19 268.34,72.23 							"/>
						</g>
						<g>
							<polygon class="st16" points="266.88,71.75 266.76,71.46 267.46,71.16 267.46,69.33 267.77,69.33 267.77,71.37 							"/>
						</g>
						<g>
							<polygon class="st16" points="266.27,70.84 266.14,70.55 266.84,70.25 266.84,68.42 267.16,68.42 267.16,70.45 							"/>
						</g>
						<g>
							<polygon class="st16" points="265.57,69.99 265.44,69.7 266.14,69.39 266.14,67.56 266.46,67.56 266.46,69.6 							"/>
						</g>
						<g>
							<polygon class="st16" points="264.94,69.09 264.81,68.8 265.51,68.49 265.51,66.66 265.82,66.66 265.82,68.7 							"/>
						</g>
						<g>
							<polygon class="st16" points="264.26,68.3 264.13,68.01 264.83,67.71 264.83,65.88 265.15,65.88 265.15,67.91 							"/>
						</g>
						<g>
							<polygon class="st16" points="263.61,67.29 263.48,67 264.18,66.7 264.18,64.86 264.5,64.86 264.5,66.9 							"/>
						</g>
						<g>
							<polygon class="st16" points="262.95,66.61 262.82,66.32 263.52,66.01 263.52,64.18 263.84,64.18 263.84,66.22 							"/>
						</g>
						<g>
							<polygon class="st16" points="262.39,65.62 262.26,65.33 262.96,65.02 262.96,63.19 263.28,63.19 263.28,65.23 							"/>
						</g>
						<g>
							<polygon class="st16" points="261.61,64.71 261.48,64.42 262.18,64.11 262.18,62.28 262.5,62.28 262.5,64.32 							"/>
						</g>
					</g>
					<polygon class="st14" points="273.63,71.4 273.63,70.19 277.54,69.63 277.54,78.64 274.17,79.33 274.17,71.75 273.63,71.75 
											"/>
					<polygon class="st5" points="273.63,70.19 270.47,66.66 270.47,68.3 273.63,71.75 					"/>
					<polygon class="st15" points="269.97,66.96 270.47,66.66 273.63,70.19 277.54,69.63 264.5,55.23 261.05,55.9 263.28,58.35 
						262.5,58.55 					"/>
					<polygon class="st5" points="261.05,56.68 261.05,55.9 263.28,58.35 262.65,58.51 					"/>
					<polygon class="st5" points="269.97,68.68 269.97,66.96 262.5,58.55 262.5,59.95 					"/>
					<polygon class="st14" points="270.47,68.3 269.97,68.68 269.97,66.96 270.47,66.66 					"/>
				</g>
				<g>
					<linearGradient id="SVGID_12_" gradientUnits="userSpaceOnUse" x1="305.6911" y1="74.032" x2="313.9499" y2="80.2819">
						<stop  offset="0.299" style="stop-color:#FFFFFF"/>
						<stop  offset="0.4284" style="stop-color:#E6E6E7"/>
						<stop  offset="0.6853" style="stop-color:#B9BABC"/>
						<stop  offset="0.8843" style="stop-color:#9D9FA2"/>
						<stop  offset="1" style="stop-color:#939598"/>
					</linearGradient>
					<polygon class="st17" points="306.48,77.25 313.26,83.47 313.26,78 306.48,70.92 					"/>
					<linearGradient id="SVGID_13_" gradientUnits="userSpaceOnUse" x1="316.6558" y1="66.7891" x2="322.0872" y2="76.9823">
						<stop  offset="0" style="stop-color:#FFFFFF"/>
						<stop  offset="0.902" style="stop-color:#888A8D"/>
					</linearGradient>
					<polygon class="st18" points="325.36,66.2 332.62,73.54 313.26,77.99 306.48,70.91 					"/>
					<linearGradient id="SVGID_14_" gradientUnits="userSpaceOnUse" x1="324.653" y1="83.0891" x2="321.5858" y2="74.8798">
						<stop  offset="0" style="stop-color:#FFFFFF"/>
						<stop  offset="1" style="stop-color:#939598"/>
					</linearGradient>
					<polygon class="st19" points="313.26,83.46 313.26,77.99 332.62,73.54 332.62,78.31 329.82,81.16 316.18,84.75 					"/>
					<polygon class="st5" points="315.41,78.58 315.41,80.31 328.11,76.84 328.11,75.6 					"/>
					<polygon class="st15" points="332.25,73.99 332.25,77.86 329.42,74.64 					"/>
					<g>
						<path class="st14" d="M313.7,76.71c-0.04-0.06-0.61-1.39-1.7-3.95c-0.06-0.17-0.05-0.52,0.41-0.72l0.03-0.01l1.39-0.4
							c0.03-0.01,0.54-0.12,0.87,0.34l2.85,3.3l-0.32,0.28l-2.87-3.32c-0.16-0.24-0.42-0.18-0.43-0.18l-1.36,0.39
							c-0.14,0.06-0.18,0.13-0.17,0.18c0.64,1.5,1.6,3.75,1.67,3.88L313.7,76.71z"/>
					</g>
					<g>
						<path class="st14" d="M320.38,74.85c-0.48,0-0.75-0.3-0.81-0.38l-3.76-3.91l0.3-0.29l3.79,3.94c0.01,0.01,0.18,0.24,0.54,0.21
							l1.65-0.42c0.05-0.04,0.12-0.19,0.02-0.53l-1.24-4.37l0.41-0.12l1.24,4.37c0.25,0.85-0.26,1.04-0.28,1.05l-1.73,0.44
							C320.45,74.85,320.41,74.85,320.38,74.85z"/>
					</g>
					<g>
						<path class="st14" d="M324.88,73.59c-0.04-0.14-0.85-2.27-1.38-3.67l-0.01-0.03c-0.01-0.07-0.12-0.65,0.28-0.87L323.8,69
							l0.84-0.15c0.24-0.08,0.77-0.1,1.13,0.36l3.8,3.28l-0.28,0.32l-3.85-3.33c-0.27-0.35-0.64-0.24-0.68-0.23l-0.03,0.01
							l-0.77,0.14c-0.07,0.07-0.07,0.27-0.05,0.39c1.4,3.66,1.4,3.7,1.4,3.75h-0.42h0.21L324.88,73.59z"/>
					</g>
					<g>
						<path class="st6" d="M316.17,84.88l-2.88-1.3l-0.14,0.04v-5.69l19.58-4.5v4.94l-2.85,2.9l-0.03,0.01L316.17,84.88z
							 M313.36,83.37l2.83,1.28l13.58-3.58l2.75-2.8v-4.59l-19.16,4.4V83.37z"/>
					</g>
				</g>
				<g>
					<path class="st5" d="M331.19,35.78C331.19,35.78,331.19,35.78,331.19,35.78c-0.02,0.41-0.49,0.6-0.49,0.6l-64.92,12.93
						c-1.08,0.3-2.15,0-2.15,0l-2.5-2.37c-0.14,0.1-0.18,0.5-0.18,0.5v2.28c0,0.67,0.18,1.05,0.18,1.05l2.2,2.09
						c0,0,0.79,0.46,2.28,0.16l65.11-13.1c0,0,0.46-0.07,0.47-1.71L331.19,35.78z"/>
					<path class="st14" d="M262.15,45.89c0,0-1.23,0.14-1.02,1.05l2.5,2.37c0,0,1.07,0.3,2.15,0l64.92-12.93c0,0,1-0.38,0.15-1.31
						l-1.82-1.65c0,0-0.66-0.85-2.49-0.43L262.15,45.89z"/>
					<g>
						<rect x="262.42" y="40.69" class="st20" width="0.92" height="6.75"/>
						<rect x="263.93" y="41.61" class="st20" width="0.92" height="6.75"/>
						<rect x="265.62" y="39.88" class="st20" width="0.92" height="6.75"/>
						<rect x="267.15" y="40.69" class="st20" width="0.92" height="6.75"/>
						<rect x="269.16" y="39.35" class="st20" width="0.92" height="6.75"/>
						<rect x="270.72" y="40.2" class="st20" width="0.92" height="6.75"/>
						<rect x="272.76" y="38.81" class="st20" width="0.92" height="6.75"/>
						<rect x="274.27" y="39.58" class="st20" width="0.92" height="6.75"/>
						<rect x="275.86" y="37.92" class="st20" width="0.92" height="6.75"/>
						<rect x="277.35" y="38.36" class="st20" width="0.92" height="6.75"/>
						<rect x="279.52" y="37.92" class="st20" width="0.92" height="6.4"/>
						<rect x="281.19" y="38.24" class="st20" width="0.92" height="6.75"/>
						<rect x="282.88" y="37.92" class="st20" width="0.92" height="5.33"/>
						<rect x="284.37" y="37.92" class="st20" width="0.92" height="6.4"/>
						<rect x="286.18" y="37.89" class="st20" width="0.92" height="4.84"/>
						<rect x="288.06" y="37.89" class="st20" width="0.92" height="5.78"/>
						<rect x="289.91" y="37.92" class="st20" width="0.92" height="4.27"/>
						<rect x="291.42" y="37.92" class="st20" width="0.92" height="5.03"/>
						<rect x="293.19" y="37.89" class="st20" width="0.92" height="3.84"/>
						<rect x="294.63" y="35.44" class="st20" width="0.92" height="6.75"/>
						<rect x="303.36" y="32.06" class="st20" width="0.92" height="6.75"/>
						<rect x="304.78" y="32.81" class="st20" width="0.92" height="6.75"/>
						<rect x="306.51" y="31.47" class="st20" width="0.92" height="6.75"/>
						<rect x="308.17" y="32.06" class="st20" width="0.92" height="6.75"/>
						<rect x="310.23" y="30.85" class="st20" width="0.92" height="6.75"/>
						<rect x="311.65" y="31.59" class="st20" width="0.92" height="6.75"/>
						<rect x="313.38" y="30.25" class="st20" width="0.92" height="6.75"/>
						<rect x="315.04" y="30.85" class="st20" width="0.92" height="6.75"/>
						<rect x="316.82" y="29.63" class="st20" width="0.92" height="6.75"/>
						<rect x="318.23" y="30.38" class="st20" width="0.92" height="6.75"/>
						<rect x="319.97" y="29.04" class="st20" width="0.92" height="6.75"/>
						<rect x="321.63" y="29.63" class="st20" width="0.92" height="6.75"/>
						<rect x="323.4" y="28.32" class="st20" width="0.92" height="6.75"/>
						<rect x="324.82" y="29.06" class="st20" width="0.92" height="6.75"/>
						<rect x="327.15" y="27.72" class="st20" width="0.92" height="6.75"/>
						<rect x="328.56" y="28.32" class="st20" width="0.92" height="6.75"/>
						<rect x="296.59" y="33.97" class="st20" width="0.92" height="6.75"/>
						<rect x="298.01" y="34.72" class="st20" width="0.92" height="6.75"/>
						<rect x="299.74" y="33.38" class="st20" width="0.92" height="6.75"/>
						<rect x="301.4" y="33.97" class="st20" width="0.92" height="6.75"/>
					</g>
				</g>
				<g>
					<linearGradient id="SVGID_15_" gradientUnits="userSpaceOnUse" x1="295.0372" y1="87.0559" x2="294.628" y2="85.4562">
						<stop  offset="0" style="stop-color:#FFFFFF"/>
						<stop  offset="0.7678" style="stop-color:#888A8D"/>
					</linearGradient>
					<path class="st21" d="M290.67,88.79l8.38-2.34c0,0,0.85-0.73,0.54-2c0,0-0.69-0.35-1.73,0c-1.04,0.35-5.96,1.35-5.96,1.35
						s-1.77,0.58-1.77,2.15C290.14,87.95,289.94,88.56,290.67,88.79z"/>
					<linearGradient id="SVGID_16_" gradientUnits="userSpaceOnUse" x1="286.9443" y1="83.8669" x2="299.5929" y2="83.8669">
						<stop  offset="0.299" style="stop-color:#FFFFFF"/>
						<stop  offset="0.4284" style="stop-color:#E6E6E7"/>
						<stop  offset="0.6853" style="stop-color:#B9BABC"/>
						<stop  offset="0.8843" style="stop-color:#9D9FA2"/>
						<stop  offset="1" style="stop-color:#939598"/>
					</linearGradient>
					<path class="st22" d="M290.14,87.95c0-1.58,1.77-2.15,1.77-2.15s4.92-1,5.96-1.35c1.04-0.35,1.73,0,1.73,0l-3.92-4.57
						c-0.35-0.61-1.65-0.35-1.65-0.35l-5.96,1.5c-1.69,0.38-0.96,3.27-0.96,3.27l3.03,3.97C290.09,88.09,290.14,87.95,290.14,87.95z
						"/>
					<path class="st5" d="M291.37,84.3c0,0-0.83-1.15-1.32,0l0.66,0.77C290.71,85.06,292.21,85.53,291.37,84.3z"/>
					<path class="st5" d="M297.59,82.93c0,0-0.83-1.15-1.32,0l0.66,0.77C296.93,83.7,298.44,84.16,297.59,82.93z"/>
				</g>
				<g>
					<polygon class="st14" points="353.35,72.38 353.35,66.18 360.56,64.66 360.56,70.54 					"/>
					<polygon class="st5" points="347.42,60.47 354.29,58.83 358.06,62.46 358.76,63.94 352.5,65.9 351.59,69.01 350.82,69.38 
						347.42,65.43 					"/>
					<ellipse class="st5" cx="357.2" cy="68.86" rx="2.67" ry="3.1"/>
					<ellipse class="st15" cx="357.74" cy="69.11" rx="2.67" ry="3.1"/>
					<path class="st23" d="M359.19,66.51c0.58,0.57,0.95,1.42,0.95,2.37c0,1.71-1.19,3.1-2.67,3.1c-0.54,0-1.03-0.19-1.45-0.5
						c0.46,0.45,1.06,0.73,1.71,0.73c1.47,0,2.67-1.39,2.67-3.1C360.41,68.02,359.92,67.07,359.19,66.51z"/>
					<path class="st14" d="M356.84,69.37c0-1.26,0.85-2.29,1.92-2.36c-0.31-0.23-0.69-0.37-1.09-0.37c-1.13,0-2.04,1.06-2.04,2.37
						c0,1.31,0.91,2.37,2.04,2.37c0.04,0,0.08,0,0.12-0.01C357.22,70.96,356.84,70.22,356.84,69.37z"/>
					<linearGradient id="SVGID_17_" gradientUnits="userSpaceOnUse" x1="350.8165" y1="66.8949" x2="360.5633" y2="66.8949">
						<stop  offset="0" style="stop-color:#FFFFFF"/>
						<stop  offset="1" style="stop-color:#939598"/>
					</linearGradient>
					<path class="st24" d="M350.82,69.72v-5.85l2.03,0.79l-1.24-2.48l3.74-0.77c0,0,2.7,2.06,2.7,1.96c0-0.1,0-0.92,0-0.92l2.5,2.21
						l-7.22,1.51v6.2L350.82,69.72z"/>
				</g>
				<g>
					<g>
						<polygon class="st14" points="345.59,74.83 345.44,69.86 346.14,69.58 346.14,66.64 342.37,67.88 342.6,75.78 						"/>
						<polygon class="st15" points="346.14,66.64 332.61,54.94 328.46,55.68 342.37,67.88 						"/>
						<path class="st5" d="M342.6,75.78c0,0-0.03-7.72-0.23-7.89s-13.91-12.2-13.91-12.2v5.45L342.6,75.78z"/>
					</g>
					<g>
						<g>
							<polygon class="st16" points="339.72,73.84 339.59,73.55 340.29,73.24 340.29,71.7 340.61,71.7 340.61,73.45 							"/>
						</g>
						<g>
							<polygon class="st16" points="339.12,73.27 339,72.98 339.7,72.67 339.7,71.13 340.01,71.13 340.01,72.88 							"/>
						</g>
						<g>
							<polygon class="st16" points="338.53,72.7 338.4,72.41 339.1,72.1 339.1,70.56 339.42,70.56 339.42,72.31 							"/>
						</g>
						<g>
							<polygon class="st16" points="337.93,72.12 337.81,71.83 338.51,71.53 338.51,69.99 338.82,69.99 338.82,71.73 							"/>
						</g>
						<g>
							<polygon class="st16" points="337.34,71.55 337.21,71.26 337.91,70.96 337.91,69.42 338.23,69.42 338.23,71.16 							"/>
						</g>
						<g>
							<polygon class="st16" points="336.74,70.98 336.62,70.69 337.31,70.38 337.31,68.84 337.63,68.84 337.63,70.59 							"/>
						</g>
						<g>
							<polygon class="st16" points="336.15,70.41 336.02,70.12 336.72,69.81 336.72,68.27 337.04,68.27 337.04,70.02 							"/>
						</g>
						<g>
							<polygon class="st16" points="335.55,69.84 335.43,69.55 336.12,69.24 336.12,67.7 336.44,67.7 336.44,69.45 							"/>
						</g>
						<g>
							<polygon class="st16" points="334.96,69.2 334.83,68.91 335.53,68.61 335.53,67.07 335.85,67.07 335.85,68.81 							"/>
						</g>
						<g>
							<polygon class="st16" points="334.36,68.62 334.23,68.33 334.93,68.02 334.93,66.48 335.25,66.48 335.25,68.23 							"/>
						</g>
						<g>
							<polygon class="st16" points="333.77,68.02 333.64,67.73 334.34,67.43 334.34,65.89 334.65,65.89 334.65,67.63 							"/>
						</g>
						<g>
							<polygon class="st16" points="333.17,67.39 333.04,67.1 333.74,66.79 333.74,65.25 334.06,65.25 334.06,67 							"/>
						</g>
						<g>
							<polygon class="st16" points="332.58,66.77 332.45,66.48 333.15,66.17 333.15,64.63 333.46,64.63 333.46,66.38 							"/>
						</g>
						<g>
							<polygon class="st16" points="331.98,66.17 331.85,65.88 332.55,65.57 332.55,64.03 332.87,64.03 332.87,65.78 							"/>
						</g>
						<g>
							<polygon class="st16" points="331.39,65.49 331.26,65.2 331.96,64.89 331.96,63.35 332.27,63.35 332.27,65.1 							"/>
						</g>
						<g>
							<polygon class="st16" points="330.79,64.84 330.66,64.55 331.36,64.24 331.36,62.7 331.68,62.7 331.68,64.45 							"/>
						</g>
						<g>
							<polygon class="st16" points="330.2,64.27 330.07,63.98 330.77,63.67 330.77,62.13 331.08,62.13 331.08,63.88 							"/>
						</g>
						<g>
							<polygon class="st16" points="329.6,63.7 329.47,63.41 330.17,63.1 330.17,61.56 330.49,61.56 330.49,63.31 							"/>
						</g>
					</g>
				</g>
				<g>
					<path class="st25" d="M281.04,86.25c0,0,3.84-0.6,4.76,0.79c0,0,1.54,1.69-0.92,2.98c0,0-3.2,1.49-5.78,0.1
						C279.1,90.12,275.88,88.04,281.04,86.25z"/>
					<linearGradient id="SVGID_18_" gradientUnits="userSpaceOnUse" x1="280.2491" y1="86.7417" x2="283.7708" y2="89.2218">
						<stop  offset="0" style="stop-color:#FFF9B8"/>
						<stop  offset="1" style="stop-color:#FACA79"/>
					</linearGradient>
					<path class="st26" d="M280.93,85.94c0,0,3.84-0.6,4.76,0.79c0,0,1.54,1.69-0.92,2.98c0,0-3.2,1.49-5.78,0.1
						C279,89.81,275.77,87.72,280.93,85.94z"/>
					<path class="st6" d="M279.9,87.72c0,0,1.54-1.24,3.35-0.74c1.81,0.5,0.89,1.56,0.42,1.69C283.2,88.79,279.35,90.03,279.9,87.72
						z"/>
					<path class="st25" d="M284.21,87.56c0.35,0.5-0.21,1.06-0.54,1.14c-0.37,0.1-2.77,0.87-3.56,0.12c0.66,0.95,3.29,0.1,3.67,0
						C284.14,88.74,284.76,88.09,284.21,87.56z"/>
				</g>
				<g>
					<path class="st25" d="M364.66,65.95c0,0,3.43-0.53,4.25,0.71c0,0,1.37,1.5-0.82,2.65c0,0-2.85,1.33-5.15,0.09
						C362.93,69.4,360.06,67.54,364.66,65.95z"/>
					<linearGradient id="SVGID_19_" gradientUnits="userSpaceOnUse" x1="363.9569" y1="66.3847" x2="367.0971" y2="68.5961">
						<stop  offset="0" style="stop-color:#FFF9B8"/>
						<stop  offset="1" style="stop-color:#FACA79"/>
					</linearGradient>
					<path class="st27" d="M364.56,65.67c0,0,3.43-0.53,4.25,0.71c0,0,1.37,1.5-0.82,2.65c0,0-2.85,1.33-5.15,0.09
						C362.84,69.12,359.96,67.26,364.56,65.67z"/>
					<path class="st6" d="M363.64,67.26c0,0,1.37-1.11,2.99-0.66c1.61,0.44,0.8,1.39,0.38,1.5
						C366.58,68.21,363.16,69.31,363.64,67.26z"/>
					<path class="st25" d="M367.49,67.12c0.31,0.44-0.19,0.94-0.49,1.02c-0.33,0.09-2.47,0.77-3.18,0.11c0.59,0.84,2.93,0.09,3.27,0
						C367.42,68.16,367.98,67.58,367.49,67.12z"/>
				</g>
				<g>
					<path class="st25" d="M336.26,35.02c0,0,3.43-0.53,4.25,0.71c0,0,1.37,1.5-0.82,2.65c0,0-2.85,1.33-5.15,0.09
						C334.53,38.47,331.66,36.61,336.26,35.02z"/>
					<linearGradient id="SVGID_20_" gradientUnits="userSpaceOnUse" x1="335.5568" y1="35.4574" x2="338.697" y2="37.6688">
						<stop  offset="0" style="stop-color:#FFF9B8"/>
						<stop  offset="1" style="stop-color:#FACA79"/>
					</linearGradient>
					<path class="st28" d="M336.16,34.74c0,0,3.43-0.53,4.25,0.71c0,0,1.37,1.5-0.82,2.65c0,0-2.85,1.33-5.15,0.09
						C334.44,38.19,331.56,36.33,336.16,34.74z"/>
					<path class="st6" d="M335.24,36.33c0,0,1.37-1.11,2.99-0.66c1.61,0.44,0.8,1.39,0.38,1.5
						C338.18,37.28,334.76,38.39,335.24,36.33z"/>
					<path class="st25" d="M339.09,36.19c0.31,0.44-0.19,0.94-0.49,1.02c-0.33,0.09-2.47,0.77-3.18,0.11c0.59,0.84,2.93,0.09,3.27,0
						C339.02,37.24,339.58,36.66,339.09,36.19z"/>
				</g>
				<g>
					<path class="st25" d="M255.96,51.28c0,0,3.13-0.49,3.88,0.65c0,0,1.25,1.37-0.75,2.43c0,0-2.61,1.21-4.71,0.08
						C254.39,54.44,251.76,52.74,255.96,51.28z"/>
					<linearGradient id="SVGID_21_" gradientUnits="userSpaceOnUse" x1="255.3197" y1="51.6806" x2="258.1907" y2="53.7025">
						<stop  offset="0" style="stop-color:#FFF9B8"/>
						<stop  offset="1" style="stop-color:#FACA79"/>
					</linearGradient>
					<path class="st29" d="M255.87,51.03c0,0,3.13-0.49,3.88,0.65c0,0,1.25,1.37-0.75,2.43c0,0-2.61,1.21-4.71,0.08
						C254.3,54.18,251.67,52.48,255.87,51.03z"/>
					<path class="st6" d="M255.03,52.48c0,0,1.25-1.01,2.73-0.61c1.48,0.4,0.73,1.27,0.34,1.37S254.59,54.36,255.03,52.48z"/>
					<path class="st25" d="M258.55,52.35c0.28,0.4-0.17,0.86-0.44,0.93c-0.3,0.08-2.26,0.71-2.91,0.1c0.54,0.77,2.68,0.08,2.99,0
						C258.49,53.31,259,52.78,258.55,52.35z"/>
				</g>
				<g>
					<path class="st6" d="M302.49,53.16c-0.46-2.41,1.12-4.74,3.53-5.2c0.68-0.13,1.36-0.1,1.99,0.07l-1.26,4.94l-1.64-2.44
						l-2.03,0.39l4.29,4.39l3.96-8.8l-3.09,0.59l-0.19,0.73c-0.85-0.35-1.8-0.46-2.77-0.28c-2.66,0.51-4.4,3.08-3.89,5.74
						c0.51,2.66,3.08,4.4,5.74,3.89c1.25-0.24,2.3-0.94,3.01-1.89c-0.63,0.69-1.47,1.19-2.46,1.38
						C305.28,57.15,302.95,55.57,302.49,53.16z"/>
					<path class="st6" d="M320.16,51.8c-0.17,0.09-0.3,0.15-0.4,0.16c-0.11,0.02-0.19,0-0.25-0.07c-0.04-0.04-0.07-0.14-0.1-0.29
						l-0.24-1.23l0.73-0.14l-0.19-0.98l-0.73,0.14l-0.25-1.32l-1.2,0.94l0.12,0.64l-0.49,0.09l0.19,0.98l0.49-0.09l0.23,1.22
						c0.07,0.39,0.17,0.66,0.27,0.82c0.11,0.16,0.25,0.27,0.42,0.32c0.17,0.05,0.43,0.05,0.76-0.01c0.29-0.05,0.59-0.15,0.9-0.29
						L320.16,51.8z"/>
					<path class="st6" d="M322.78,49.82c0.1,0.08,0.17,0.22,0.21,0.44l0.37,1.92l1.34-0.26l-0.42-2.21
						c-0.09-0.46-0.26-0.78-0.51-0.96c-0.25-0.18-0.56-0.24-0.92-0.17c-0.24,0.05-0.45,0.13-0.61,0.24
						c-0.16,0.11-0.32,0.28-0.46,0.51l-0.34-1.77l-1.33,0.26l0.92,4.8l1.33-0.26l-0.32-1.67c-0.06-0.32-0.05-0.55,0.02-0.69
						c0.08-0.14,0.2-0.23,0.36-0.26C322.56,49.72,322.69,49.74,322.78,49.82z"/>
					<path class="st6" d="M314.3,53.79c0.29,0.08,0.66,0.08,1.13-0.01c0.53-0.1,0.92-0.26,1.18-0.46c0.26-0.21,0.45-0.5,0.58-0.89
						l-1.34,0.13c-0.06,0.12-0.13,0.21-0.19,0.26c-0.1,0.09-0.22,0.14-0.36,0.17c-0.21,0.04-0.39,0-0.55-0.13
						c-0.11-0.09-0.2-0.24-0.27-0.45l2.68-0.51l-0.03-0.15c-0.09-0.46-0.23-0.82-0.44-1.08c-0.21-0.26-0.47-0.43-0.79-0.53
						c-0.32-0.1-0.72-0.1-1.22,0c-0.61,0.12-1.06,0.38-1.35,0.78c-0.28,0.4-0.37,0.88-0.27,1.42c0.07,0.38,0.22,0.7,0.45,0.95
						C313.76,53.55,314.01,53.71,314.3,53.79z M314.44,51.27c0.1-0.19,0.25-0.31,0.46-0.35c0.18-0.04,0.34-0.01,0.48,0.08
						c0.13,0.09,0.24,0.26,0.32,0.52l-1.32,0.25C314.36,51.56,314.38,51.39,314.44,51.27z"/>
					<path class="st6" d="M329.03,50.32l-0.29-1.54c-0.03-0.16-0.1-0.33-0.2-0.5c-0.1-0.17-0.22-0.29-0.35-0.37
						c-0.19-0.11-0.41-0.17-0.66-0.16c-0.25,0-0.58,0.04-0.97,0.12c-0.25,0.05-0.48,0.11-0.68,0.19c-0.21,0.08-0.36,0.16-0.47,0.25
						c-0.15,0.13-0.26,0.26-0.33,0.41c-0.07,0.14-0.1,0.33-0.11,0.57l1.3-0.11c0.02-0.16,0.07-0.28,0.15-0.35
						c0.1-0.09,0.25-0.16,0.47-0.2c0.17-0.03,0.29-0.02,0.37,0.03c0.08,0.05,0.14,0.16,0.17,0.32c-0.15,0.1-0.3,0.18-0.44,0.25
						c-0.14,0.07-0.45,0.2-0.93,0.4c-0.4,0.16-0.66,0.34-0.79,0.55s-0.16,0.43-0.11,0.7c0.05,0.28,0.21,0.5,0.46,0.65
						c0.25,0.15,0.59,0.19,1,0.11c0.31-0.06,0.58-0.16,0.79-0.3c0.16-0.1,0.31-0.26,0.45-0.46c0.03,0.1,0.06,0.17,0.09,0.21
						c0.02,0.04,0.07,0.1,0.14,0.18l1.25-0.24c-0.1-0.13-0.17-0.24-0.2-0.33C329.1,50.61,329.07,50.48,329.03,50.32z M327.6,49.87
						c0.03,0.17,0.03,0.31,0,0.42c-0.03,0.12-0.11,0.22-0.22,0.32c-0.11,0.1-0.25,0.16-0.39,0.19c-0.14,0.03-0.26,0.01-0.34-0.04
						c-0.09-0.05-0.14-0.13-0.16-0.24c-0.02-0.09,0-0.18,0.06-0.27c0.06-0.08,0.22-0.19,0.47-0.31c0.19-0.09,0.37-0.18,0.54-0.29
						L327.6,49.87z"/>
					
						<rect x="310.54" y="49.53" transform="matrix(0.9821 -0.1881 0.1881 0.9821 -3.8476 59.4342)" class="st6" width="1.36" height="0.92"/>
					<path class="st6" d="M331.95,49.73c-0.08,0.1-0.21,0.16-0.39,0.19c-0.16,0.03-0.3,0.02-0.41-0.03
						c-0.11-0.05-0.21-0.15-0.29-0.29l-1.3,0.37c0.14,0.32,0.36,0.54,0.67,0.67c0.3,0.13,0.77,0.13,1.41,0.01
						c0.45-0.09,0.79-0.21,1.03-0.37c0.24-0.16,0.4-0.35,0.49-0.56c0.09-0.21,0.11-0.42,0.07-0.62c-0.04-0.2-0.13-0.37-0.28-0.51
						c-0.15-0.14-0.34-0.24-0.57-0.29c-0.23-0.05-0.58-0.06-1.03-0.02c-0.3,0.02-0.5,0.02-0.59-0.01c-0.09-0.03-0.15-0.08-0.17-0.17
						c-0.01-0.08,0.01-0.15,0.07-0.21s0.16-0.11,0.31-0.14c0.15-0.03,0.28-0.02,0.4,0.03c0.09,0.04,0.16,0.11,0.21,0.21l1.24-0.36
						c-0.13-0.21-0.27-0.37-0.43-0.48c-0.16-0.11-0.34-0.17-0.55-0.2c-0.21-0.03-0.52,0-0.93,0.08c-0.39,0.08-0.7,0.18-0.92,0.3
						c-0.22,0.13-0.38,0.29-0.48,0.48c-0.1,0.19-0.13,0.4-0.09,0.63c0.04,0.21,0.14,0.39,0.29,0.53c0.16,0.14,0.33,0.23,0.52,0.26
						c0.19,0.03,0.53,0.05,1.01,0.04c0.32,0,0.52,0,0.6,0.03c0.11,0.03,0.18,0.1,0.19,0.19C332.04,49.59,332.02,49.66,331.95,49.73z
						"/>
					
						<rect x="311.04" y="50.83" transform="matrix(0.9821 -0.1881 0.1881 0.9821 -4.3295 59.5748)" class="st6" width="1.36" height="3.54"/>
				</g>
			</g>
			<g>
				<path class="st30" d="M341.19,109.71c-15.22,0-29.44-4.25-39.16-11.68c-6.12,1.59-12.61,2.4-19.28,2.4
					c-28.11,0-50.99-14.59-50.99-32.52c0-5,1.81-9.96,5.26-14.41c-11.16-4.24-17.52-10.4-17.52-17.03
					c0-12.34,22.55-22.38,50.26-22.38c5.08,0,10.08,0.33,14.89,0.99C294.83,5.9,316.9,0,341.19,0c34.42,0,62.43,11.81,62.43,26.33
					c0,0.97-0.12,1.94-0.37,2.91c25.26,4.49,42.13,16.77,42.13,30.77c0,17.39-25.94,31.59-59.16,32.47
					C377.34,103.13,360.16,109.71,341.19,109.71z M302.64,95.62l0.52,0.41c9.28,7.33,23.14,11.53,38.03,11.53
					c18.43,0,35.05-6.42,43.36-16.75l0.36-0.45l0.62-0.01c32.17-0.7,57.37-14.02,57.37-30.34c0-13.18-16.65-24.78-41.42-28.88
					l-1.36-0.23l0.42-1.15c0.41-1.13,0.61-2.28,0.61-3.42c0-13.33-26.89-24.18-59.95-24.18c-24,0-45.66,5.81-55.18,14.81l-0.45,0.43
					l-0.66-0.09c-4.88-0.7-9.97-1.05-15.14-1.05c-26.35,0-47.79,9.08-47.79,20.23c0,5.99,6.34,11.67,17.41,15.56l1.48,0.52
					l-0.95,1.12c-3.71,4.36-5.68,9.28-5.68,14.24c0,16.75,21.76,30.37,48.52,30.37c6.67,0,13.14-0.84,19.22-2.48L302.64,95.62z"/>
			</g>
		</g>
		<g>
			<g>
				<g>
					<rect x="15.95" y="104.98" class="st31" width="127.56" height="83.64"/>
					<rect x="21.87" y="110.75" class="st32" width="115.72" height="72.11"/>
					<g>
						<polygon class="st32" points="143.51,188.62 15.95,188.62 54.62,208.76 183.04,208.76 						"/>
						<polygon class="st33" points="54.62,208.76 15.95,188.62 15.95,194.93 54.62,215.07 183.04,215.07 183.04,208.76 						"/>
						<g>
							<g>
								<rect x="52.87" y="127.91" class="st6" width="82.08" height="52.3"/>
								<rect x="24.52" y="113.39" class="st30" width="110.43" height="11.99"/>
								<rect x="31.14" y="115.69" class="st6" width="19.62" height="7.4"/>
								<rect x="57.85" y="117.64" class="st6" width="22.15" height="3.5"/>
								<rect x="82.02" y="117.64" class="st6" width="22.15" height="3.5"/>
								<rect x="106.18" y="117.64" class="st6" width="22.15" height="3.5"/>
								<g>
									<rect x="95.23" y="140.56" class="st30" width="33.1" height="1.43"/>
									<rect x="95.23" y="133.06" class="st30" width="27.06" height="3.33"/>
									<rect x="95.23" y="143.68" class="st30" width="33.1" height="1.43"/>
									<rect x="95.23" y="146.8" class="st30" width="33.1" height="1.43"/>
									<rect x="95.23" y="149.92" class="st30" width="33.1" height="1.43"/>
									<rect x="95.23" y="153.05" class="st30" width="33.1" height="1.43"/>
									<rect x="95.23" y="156.17" class="st30" width="13.68" height="1.43"/>
								</g>
								<circle class="st34" cx="65.57" cy="138.13" r="7.72"/>
								<rect x="24.52" y="127.91" class="st6" width="26.24" height="52.3"/>
								<g>
									<g>
										<g>
											<polygon class="st30" points="70.32,150.42 70.32,180.21 52.87,180.21 											"/>
											<polygon class="st35" points="70.32,150.42 70.32,180.21 87.76,180.21 											"/>
										</g>
										<g>
											<polygon class="st32" points="70.32,150.42 70.32,163.14 62.87,163.14 											"/>
											<g>
												<polygon class="st36" points="70.32,163.14 70.32,150.42 77.77,163.14 												"/>
											</g>
										</g>
									</g>
									<g>
										<g>
											<polygon class="st37" points="81.5,160.92 81.5,180.21 70.2,180.21 											"/>
											<polygon class="st38" points="81.5,160.92 81.5,180.21 92.8,180.21 											"/>
										</g>
										<g>
											<polygon class="st32" points="81.5,160.92 81.5,169.16 76.68,169.16 											"/>
											<g>
												<polygon class="st36" points="81.5,169.16 81.5,160.92 86.32,169.16 												"/>
											</g>
										</g>
									</g>
								</g>
								<rect x="107.65" y="164.23" class="st34" width="14.88" height="4.4"/>
							</g>
							<g>
								<path class="st39" d="M33.67,177.97c0,0-0.11,0.53,0,0.59c0.11,0.05,3.43,1.05,3.42,1.28c0,0-3.31,0.84-4.68,0
									c0,0-0.14-1.01,0.16-1.17c0,0,0.14-0.27,0.11-0.82c-0.04-0.55,0.91-0.64,0.91-0.64L33.67,177.97z"/>
								<g>
									<path class="st39" d="M41.76,173.06l-0.07,0.87c0,0-0.52,0.2-0.43,1.41c0,0,2.76,1.16,4.25,0.62c0,0,0.68-0.21-2.76-1.69
										c0,0-0.09-0.52,0-1.21S41.76,173.06,41.76,173.06z"/>
									<path class="st31" d="M43.28,175.29c0.38,0.08,0.78-0.05,1.14-0.25c1.52,0.79,1.1,0.92,1.1,0.92
										c-1.49,0.53-4.25-0.62-4.25-0.62c-0.09-1.21,0.43-1.41,0.43-1.41l0.12,0.59C41.82,174.52,42.12,175.05,43.28,175.29z"/>
								</g>
								<g>
									<path class="st39" d="M39.55,149.3l2.25,5.12c0,0,1.21-0.17,1.99,1c0,0-0.09,0.19-0.57,0c0,0,0.5,1.14,0.78,1.42
										c0.28,0.28-0.59,0.71-1.57-0.21c0,0-0.59-0.46-1.45-1.52c-0.86-1.06-1.33-1.28-1.33-1.86c0-0.58-0.85-3.62-0.85-3.62
										L39.55,149.3z"/>
									<path class="st39" d="M36.3,139.96l-0.27,1.37c0,0-0.18,0.35-0.09,0.95c0.09,0.6,0.04,1.26-0.02,1.3
										c-0.06,0.04-0.76,0.96-1.15,0.76s-0.75-0.82-1.17-1.46c-0.43-0.64-0.84-1.55-0.98-2.22c-0.14-0.68-0.12-2.08,0-2.08
										c0.12,0,2.1,0,2.1,0L36.3,139.96z"/>
									<path class="st40" d="M37.9,136.43l-0.21,1.05c0,0,0.46,6.78-4.34,2.35l-0.28-2.13c0,0,2.1-2.38,2.15-2.38
										C35.27,135.31,37.9,136.43,37.9,136.43z"/>
									<path class="st6" d="M34.07,143.3c0,0,1.73,0.05,1.87-1.01c0,0,1.16,0.46,1.33,0.91c0.17,0.45,2.28,1.68,2.11,4.46
										l-0.38,5.93c0,0-0.07,0.59,0.28,1.29c0.36,0.7-1.4,1.43-1.64,1.43s-4.03-0.59-4.2-0.64c-0.17-0.05-1.1-1.06-1.1-1.06
										s0.23-0.25,0.25-1.34c0.02-1.09,1.97-4.96,1.92-5.34C34.48,147.56,34.07,143.3,34.07,143.3z"/>
									<path class="st37" d="M32.99,141.65l1.1,0.64c0,0,2.28,1.42,2.28,5.66c0,4.23-0.6,6.65-0.6,6.65s-3.06,0.25-4.48-0.93
										c0,0,0.32-3.17-0.11-5.55c-0.43-2.38,1-3.77,1-3.77l-0.39-2.21L32.99,141.65z"/>
									<path class="st31" d="M39.29,154.88c0,0-3.06,1.4-6.94-0.26c0,0-1.28,2.29,0,6.35c0,0,0.25,14.37,0,17.08
										c0,0,1.28,0.78,1.85-0.14c0,0,2.17-13.48,2.6-17.22c0,0,3.81,3.34,5.12,3.77c0,0-0.71,7.22-0.39,9.07
										c0,0,1.03,0.39,1.49,0.18c0,0,2.13-8.82,2.03-10.35C45.05,163.35,42.56,158.4,39.29,154.88z"/>
									<g>
										<path class="st31" d="M29.65,145.81c-0.17,0.28-0.34,0.53-0.52,0.76C29.42,146.09,29.65,145.81,29.65,145.81z"/>
										<path class="st31" d="M37.69,137.48c-0.64-0.71-0.5-1-0.5-1c-0.82,2.13-3.52,2.49-3.52,2.49c0,0.6-0.32,0.85-0.32,0.85
											c0.71,0.64,0.75,2.45,0.75,2.45c-0.89,0-1.35,0.28-1.35,0.28s-1.07-0.21-3.1,3.24c-1.89-3.13,2.21-4.45,2.21-4.45
											c-1.1-2.7,0.25-5.48,1.42-6.58c1.17-1.1,4.3-0.82,5.09,0.71S37.69,137.48,37.69,137.48z"/>
									</g>
									<path class="st40" d="M29.65,145.81c2.03-3.45,3.1-3.24,3.1-3.24c0.46,4.13-1.57,5.55-1.57,5.55
										c-1.17,0.82-1.21,2.56-1.21,2.56c0.46,3.63,2.56,5.69,2.56,5.69c0.89,0.57,0.75,0.78,1.25,1.42c0.5,0.64-0.21,0.6-0.21,0.6
										c0.46,1.03,0.25,1.42,0.25,1.42c-1.35-0.11-1.81-2.31-1.81-2.31c-2.74-2.7-3.66-4.38-3.66-4.38
										c-1.24-2.61,0.02-5.29,0.8-6.57C29.31,146.34,29.48,146.09,29.65,145.81z"/>
									<path class="st38" d="M35.95,142.29c0,0,0.93,1.39,1.96,2.06s1.74,2.48,1.07,3.78c0,0-0.64,1.8-0.55,2.76
										c0.09,0.96,0,3.27,0,3.27s1.55,0.11,1.97-0.25c0,0-0.6-2.92-0.6-4.45s-0.39-4.02-1.37-5.12c0,0-0.55-1.75-1.09-1.78
										C37.33,142.57,36.73,142.36,35.95,142.29z"/>
								</g>
								<path class="st31" d="M33.67,179.34c0.96,0.36,1.9-0.16,1.9-0.16c0.79,0.27,1.52,0.55,1.51,0.66c0,0-3.31,0.84-4.68,0
									c0,0-0.14-1.01,0.16-1.17C32.57,178.67,32.71,178.99,33.67,179.34z"/>
							</g>
							<rect x="37.9" y="176.64" class="st34" width="12.86" height="3.57"/>
						</g>
						<g>
							<path class="st40" d="M132.17,101.88l-0.44,2.16c0,0,0.44,2.13,3.33,1.9l-0.52-0.81c0,0,2.07-0.37,3.62,0
								c1.55,0.37-1.77-2.46-3.94-2.59C134.22,102.54,131.65,99.81,132.17,101.88z"/>
							<path class="st30" d="M116.86,97.44l-2.44-0.11c0,0-8.12,1.28-9.03,1.66c-0.9,0.39-1.46,4.33-1.35,4.55
								c0.11,0.22,1.66,2.55,1.66,2.55s13.87,2.11,17.28-0.83c0,0,3.08-2.57,1.25-7.41C122.41,93,116.86,97.44,116.86,97.44z"/>
							<path class="st39" d="M101.85,100.1c0,0-1.29,0-1.26,2.11c0,0,0.96,17.01,0.63,18.04c0,0-0.15,0.78-0.92,1.07
								c-0.78,0.3-4.66,1.63-4.66,2.14s2.4,0.81,5.03,0c0,0,1.04-0.43,0.78,0.51h0.92c0,0,1.66-1.02,0.48-2.91
								c0,0,1.18-9.58,2-10.83c0.81-1.26-1.11-5.1-1.11-5.1L101.85,100.1z"/>
							<path class="st33" d="M118.55,76.01c0,0-2.24-0.48-2.02-2.37c0,0,0.83-1.16,1.16,0c0,0-0.17,1.94,0.5,2.55
								c0,0-0.11-2.5,0.89-2.72c0,0,2.4,2.26,3.46-0.63c0,0,0.24,0.98,1.98,0.41c0,0,1.66,0.39,1.61-2
								c-0.06-2.38-4.81-2.55-4.81-2.55s-2.23-2.83-5.67-1.33c-3.44,1.5-2.33,6.82-2.33,6.82s0.33,1.72-0.89,2.5
								s-3.22,1.61-2.5,4.44c0.72,2.83,1.5,1.11,0.44,3.44s2.27,4.49,2.27,4.49l2.05-2.77l0.78-2.38l6.21,0.55l2.16-2.72
								c0,0,1.28-1.39-2.05-3.22l-3.85,1.94L118.55,76.01z"/>
							<path class="st41" d="M112.98,86.38l-2.33,5.66c0,0-5.18,4.4-7.4,5.81c0,0,1.55,1.07,1.85,2.07c0,0,6.17-2.51,9.35-8.17
								C117.64,86.09,112.98,86.38,112.98,86.38z"/>
							<path class="st34" d="M122.99,80.8l-2.47,1.11c0,0-2.48,0.42-2.57,0.39s-2.56-1.5-2.56-1.5s-2.94,2.94-3.02,4.85
								c-0.08,1.91,1.28,3.8,1.5,5.35c0.22,1.55,1.05,4.08,0.55,6.32c0,0,2.05,4.3,10.62,1.66c0,0-0.86-4.38-1.64-6.13
								c0,0,1.05-3.19,1.16-5.24c0,0,3.05,4.41,4.22,5.74c0,0,1.64,2.33,1.83,5.85c0,0,0.78,4.49,1.11,4.83c0,0,1.89-0.36,2.5-1.5
								C134.22,102.54,133.75,86.54,122.99,80.8z"/>
							<path class="st39" d="M117.81,73.87c0,0-0.39-1.5-1.05-0.55c-0.67,0.94,0.03,2.38,1.05,2.72c0,0,0.39,3.05-0.22,4.35
								c0,0-1.61,0.08-2.19,0.42c0,0,0.75,1.94,3.38,1.91s4.22-1.91,4.22-1.91s-1.08-0.42-2.02-0.5c0,0-0.14-1.25,0.11-2.05
								c0.25-0.8-1.39-2.16-1.39-2.16L117.81,73.87z"/>
							<path class="st40" d="M123.93,72.3c0.02-0.76,0.2-1.24-0.63-1.05c-0.83,0.18-1.61,1.46-2.68,1
								c-1.07-0.46-2.39,0.12-2.92,1.32c-0.22,0.79,0.03,1.56,0.16,2.28c0.35,1.92,2.26,2.78,2.26,2.78c3.92,2.11,4.4-5.36,4.4-5.36
								S123.91,73.05,123.93,72.3z"/>
							<path class="st40" d="M105.11,99.92c0,0-0.41-1.92-1.85-2.07c0,0-1.85,1.18-1.96,3.18c0,0-0.44,1.55,2.22,8.54l5.07,12.9
								l-4.66,2.77c0,0-0.85,0.74,0.55,0.96c0,0,2.59,0.11,4.51-1.04v1.04h0.7c0,0,1.18-1.37,1.18-2.52
								c-0.04-0.18-0.3-0.96-0.7-1.48l-2.92-16.2C107.25,106.02,106.99,102.87,105.11,99.92z"/>
							<path class="st39" d="M103.61,101.15c0,0,0.64-0.12,1.5-1.24l0.29,0.48C105.4,100.4,104.47,101.02,103.61,101.15z"/>
							<path class="st41" d="M103.26,122.15c-1.99,0.92-5.22,0.02-5.22,0.02c-1.2,0.47-2.4,1.01-2.4,1.3c0,0.52,2.4,0.81,5.03,0
								c0,0,1.04-0.43,0.78,0.51h0.92C102.37,123.97,103.4,123.34,103.26,122.15z"/>
							<path class="st41" d="M106.06,123.97L106.06,123.97l-2.13,1.27c0,0-0.85,0.74,0.55,0.96c0,0,2.59,0.11,4.51-1.04v1.04h0.7
								c0,0,1.18-1.37,1.18-2.52c-0.03-0.13-0.17-0.56-0.39-0.98h0C110.49,122.71,107.65,124.9,106.06,123.97z"/>
						</g>
					</g>
				</g>
				<g>
					<path class="st33" d="M29.65,190.12h6.65l2.24,1.38c0,0,0.22,0.51,0,0.51s-6.35,0-6.35,0l-2.54-1.24V190.12z"/>
					<path class="st33" d="M38.24,190.12h6.65l2.24,1.38c0,0,0.22,0.51,0,0.51s-6.35,0-6.35,0l-2.54-1.24V190.12z"/>
					<path class="st33" d="M46.83,190.12h6.65l2.24,1.38c0,0,0.22,0.51,0,0.51s-6.35,0-6.35,0l-2.54-1.24V190.12z"/>
					<path class="st33" d="M55.41,190.12h6.65l2.24,1.38c0,0,0.22,0.51,0,0.51s-6.35,0-6.35,0l-2.54-1.24V190.12z"/>
					<path class="st33" d="M64,190.12h6.65l2.24,1.38c0,0,0.22,0.51,0,0.51s-6.35,0-6.35,0L64,190.78V190.12z"/>
					<path class="st33" d="M72.59,190.12h6.65l2.24,1.38c0,0,0.22,0.51,0,0.51s-6.35,0-6.35,0l-2.54-1.24V190.12z"/>
					<path class="st33" d="M81.18,190.12h6.65l2.24,1.38c0,0,0.22,0.51,0,0.51s-6.35,0-6.35,0l-2.54-1.24V190.12z"/>
					<path class="st33" d="M89.76,190.12h6.65l2.24,1.38c0,0,0.22,0.51,0,0.51s-6.35,0-6.35,0l-2.54-1.24V190.12z"/>
					<path class="st33" d="M37.69,193.33h6.65l2.24,1.38c0,0,0.22,0.51,0,0.51s-6.35,0-6.35,0l-2.54-1.24V193.33z"/>
					<path class="st33" d="M46.28,193.33h6.65l2.24,1.38c0,0,0.22,0.51,0,0.51s-6.35,0-6.35,0l-2.54-1.24V193.33z"/>
					<path class="st33" d="M54.86,193.33h6.65l2.24,1.38c0,0,0.22,0.51,0,0.51s-6.35,0-6.35,0l-2.54-1.24V193.33z"/>
					<path class="st33" d="M63.45,193.33h6.65l2.24,1.38c0,0,0.22,0.51,0,0.51s-6.35,0-6.35,0l-2.54-1.24V193.33z"/>
					<path class="st33" d="M72.04,193.33h6.65l2.24,1.38c0,0,0.22,0.51,0,0.51s-6.35,0-6.35,0l-2.54-1.24V193.33z"/>
					<path class="st33" d="M80.63,193.33h6.65l2.24,1.38c0,0,0.22,0.51,0,0.51s-6.35,0-6.35,0l-2.54-1.24V193.33z"/>
					<path class="st33" d="M89.22,193.33h6.65l2.24,1.38c0,0,0.22,0.51,0,0.51s-6.35,0-6.35,0l-2.54-1.24V193.33z"/>
					<path class="st33" d="M97.8,193.33h6.65l2.24,1.38c0,0,0.22,0.51,0,0.51s-6.35,0-6.35,0l-2.54-1.24V193.33z"/>
					<path class="st33" d="M45.73,196.53h6.65l2.24,1.38c0,0,0.22,0.51,0,0.51s-6.35,0-6.35,0l-2.54-1.24V196.53z"/>
					<path class="st33" d="M54.31,196.53h6.65l2.24,1.38c0,0,0.22,0.51,0,0.51s-6.35,0-6.35,0l-2.54-1.24V196.53z"/>
					<path class="st33" d="M62.9,196.53h6.65l2.24,1.38c0,0,0.22,0.51,0,0.51s-6.35,0-6.35,0l-2.54-1.24V196.53z"/>
					<path class="st33" d="M71.49,196.53h6.65l2.24,1.38c0,0,0.22,0.51,0,0.51s-6.35,0-6.35,0l-2.54-1.24V196.53z"/>
					<path class="st33" d="M80.08,196.53h6.65l2.24,1.38c0,0,0.22,0.51,0,0.51s-6.35,0-6.35,0l-2.54-1.24V196.53z"/>
					<path class="st33" d="M88.67,196.53h6.65l2.24,1.38c0,0,0.22,0.51,0,0.51s-6.35,0-6.35,0l-2.54-1.24V196.53z"/>
					<path class="st33" d="M97.25,196.53h6.65l2.24,1.38c0,0,0.22,0.51,0,0.51s-6.35,0-6.35,0l-2.54-1.24V196.53z"/>
					<path class="st33" d="M105.84,196.53h6.65l2.24,1.38c0,0,0.22,0.51,0,0.51s-6.35,0-6.35,0l-2.54-1.24V196.53z"/>
					<path class="st33" d="M53.77,199.74h6.65l2.24,1.38c0,0,0.22,0.51,0,0.51s-6.35,0-6.35,0l-2.54-1.24V199.74z"/>
					<path class="st33" d="M62.35,199.74H69l2.24,1.38c0,0,0.22,0.51,0,0.51c-0.22,0-6.35,0-6.35,0l-2.54-1.24V199.74z"/>
					<path class="st33" d="M70.94,199.74h6.65l2.24,1.38c0,0,0.22,0.51,0,0.51c-0.22,0-6.35,0-6.35,0l-2.54-1.24V199.74z"/>
					<path class="st33" d="M79.53,199.74h6.65l2.24,1.38c0,0,0.22,0.51,0,0.51c-0.22,0-6.35,0-6.35,0l-2.54-1.24V199.74z"/>
					<path class="st33" d="M88.12,199.74h6.65l2.24,1.38c0,0,0.22,0.51,0,0.51s-6.35,0-6.35,0l-2.54-1.24V199.74z"/>
					<path class="st33" d="M96.7,199.74h6.65l2.24,1.38c0,0,0.22,0.51,0,0.51s-6.35,0-6.35,0l-2.54-1.24V199.74z"/>
					<path class="st33" d="M105.29,199.74h6.65l2.24,1.38c0,0,0.22,0.51,0,0.51s-6.35,0-6.35,0l-2.54-1.24V199.74z"/>
					<path class="st33" d="M113.88,199.74h6.65l2.24,1.38c0,0,0.22,0.51,0,0.51s-6.35,0-6.35,0l-2.54-1.24V199.74z"/>
					<path class="st33" d="M113.52,190.12h6.65l2.24,1.38c0,0,0.22,0.51,0,0.51s-6.35,0-6.35,0l-2.54-1.24V190.12z"/>
					<path class="st33" d="M122.11,190.12h6.65l2.24,1.38c0,0,0.22,0.51,0,0.51s-6.35,0-6.35,0l-2.54-1.24V190.12z"/>
					<path class="st33" d="M130.7,190.12h6.65l2.24,1.38c0,0,0.22,0.51,0,0.51s-6.35,0-6.35,0l-2.54-1.24V190.12z"/>
					<path class="st33" d="M121.56,193.33h6.65l2.24,1.38c0,0,0.22,0.51,0,0.51s-6.35,0-6.35,0l-2.54-1.24V193.33z"/>
					<path class="st33" d="M130.15,193.33h6.65l2.24,1.38c0,0,0.22,0.51,0,0.51c-0.22,0-6.35,0-6.35,0l-2.54-1.24V193.33z"/>
					<path class="st33" d="M138.74,193.33h6.65l2.24,1.38c0,0,0.22,0.51,0,0.51s-6.35,0-6.35,0l-2.54-1.24V193.33z"/>
					<path class="st33" d="M129.6,196.53h6.65l2.24,1.38c0,0,0.22,0.51,0,0.51s-6.35,0-6.35,0l-2.54-1.24V196.53z"/>
					<path class="st33" d="M138.19,196.53h6.65l2.24,1.38c0,0,0.22,0.51,0,0.51s-6.35,0-6.35,0l-2.54-1.24V196.53z"/>
					<path class="st33" d="M146.78,196.53h6.65l2.24,1.38c0,0,0.22,0.51,0,0.51s-6.35,0-6.35,0l-2.54-1.24V196.53z"/>
					<path class="st33" d="M137.64,199.74h6.65l2.24,1.38c0,0,0.22,0.51,0,0.51s-6.35,0-6.35,0l-2.54-1.24V199.74z"/>
					<path class="st33" d="M146.23,199.74h6.65l2.24,1.38c0,0,0.22,0.51,0,0.51s-6.35,0-6.35,0l-2.54-1.24V199.74z"/>
					<path class="st33" d="M154.81,199.74h6.65l2.24,1.38c0,0,0.22,0.51,0,0.51s-6.35,0-6.35,0l-2.54-1.24V199.74z"/>
				</g>
				<polygon class="st33" points="90.16,203.02 126.06,203.02 137.1,207.88 97.25,207.88 				"/>
			</g>
			<g>
				<path class="st30" d="M106.81,245.08c-12.89,0-24.78-6.35-31.96-17.04c-5.79,2.07-11.81,3.12-17.92,3.12
					C25.54,231.17,0,203.59,0,169.68c0-10.36,2.44-20.6,7.06-29.65c-3.43-6.62-5.23-14.11-5.23-21.68
					c0-24.86,19.03-45.08,42.43-45.08c7.14,0,14.17,1.92,20.41,5.56c9.14-13.58,27.1-21.98,47.15-21.98
					c29.24,0,53.02,18.2,53.02,40.57c0,8.54-3.39,16.64-9.83,23.53c18.07,3.95,30.38,14.35,32.32,27.44
					c1.44,9.75-2.91,19.65-12.27,28.03c12.94,4.78,21.21,14.52,21.21,25.18c0,15.56-17.35,28.21-38.68,28.21
					c-6.23,0-12.39-1.1-17.89-3.19C132.72,238.03,120.2,245.08,106.81,245.08z M75.65,225.64l0.43,0.67
					c6.77,10.51,18.26,16.79,30.73,16.79c12.97,0,25.08-6.98,31.6-18.21l0.43-0.74l0.8,0.32c5.46,2.2,11.66,3.36,17.94,3.36
					c20.23,0,36.7-11.77,36.7-26.23c0-10.23-8.43-19.6-21.48-23.86l-1.69-0.55l1.37-1.15c9.71-8.15,14.29-17.87,12.89-27.35
					c-1.87-12.66-14.33-22.67-32.52-26.15l-1.85-0.35l1.34-1.32c6.88-6.79,10.52-14.89,10.52-23.44c0-21.28-22.9-38.58-51.04-38.58
					c-19.48,0-37.53,8.59-46.01,21.87l-0.52,0.82l-0.83-0.51c-6.13-3.77-13.11-5.77-20.2-5.77c-22.3,0-40.45,19.33-40.45,43.1
					c0,7.43,1.81,14.77,5.24,21.22l0.25,0.46l-0.24,0.46c-4.63,8.88-7.07,18.98-7.07,29.2c0,32.81,24.65,59.51,54.95,59.51
					c6.13,0,12.17-1.1,17.97-3.27L75.65,225.64z"/>
			</g>
		</g>
		<g>
			<path class="st42" d="M402.57,292.28c0,4.44-34.99,8.03-78.16,8.03s-78.16-3.6-78.16-8.03c0-4.44,34.99-8.03,78.16-8.03
				S402.57,287.85,402.57,292.28z"/>
			<path class="st42" d="M365.13,300.63c0,5.73-21.31,10.37-47.6,10.37c-26.29,0-47.6-4.64-47.6-10.37
				c0-5.73,21.31-10.37,47.6-10.37C343.82,290.26,365.13,294.9,365.13,300.63z"/>
			<g>
				<g>
					<path class="st43" d="M383.05,157.77c0.49,1.23-0.09,2.84,0.43,3.94c0.53,1.11,1.94,1.16,2.46,2.19
						c1.78,3.48-0.24,4.2-0.01,6.84c0.25,2.95,3.31,4.46,0.71,7.55c-2.14,2.54-6.47,2.13-7.44-1.23c0.07-0.1,0.07-0.1,0.01,0
						c-5.03,3.31-8.96-5.56-2.92-7.32c-2.21-1.57-3.19-4.91-0.67-6.85c-2.39-1.65-2.24-4.92,0.13-6.43c0.38-0.24-1.2-3.4,1.96-3.67
						C379.98,152.59,382.36,156.05,383.05,157.77z"/>
					<g>
						<g>
							<path class="st44" d="M382.75,173.93c2.45-0.07,4.5,1.86,4.56,4.32c0.07,2.45-1.27,8.78-3.14,7.19
								c-3.67-3.13-5.5-5.01-5.57-7.46C378.53,175.53,380.29,174,382.75,173.93z"/>
							<path class="st44" d="M385.93,176.49l-4.25,1.41l-0.77,4.54c0,0,9.35,11.37,12.4,12.96c3.25,1.69,2.38-1.27,2.16-2.49
								C395.47,192.91,388.33,178.04,385.93,176.49z"/>
							<path class="st44" d="M395.19,195.78c0,0,7.93-3.95,13.04-8.38c0,0,0.48-1.55-0.87-1.2c-1.29,0.33-14.1,3.66-14.92,4.71
								C391.62,191.97,395.19,195.78,395.19,195.78z"/>
							<path class="st44" d="M413.82,186.35l-1.23,0.57c0,0,2.5-0.53,2.85-1.6c0,0,0.13-0.2-0.28-0.32c0,0-1.99,0.9-2.98,1.08
								c0,0,2.17-0.49,3.48-1.31c0,0,0.37-0.62-0.38-0.66c0.36-0.39-0.16-0.49-0.16-0.49s-0.5-0.03-1.57,0.14
								c0,0-1.64,0.25-3.61,0.32c0,0,0.86-1.47,0.05-1.91l-1.46,2.01l-1.22,2.03l0.36,1.32l2.49,0.37c0,0,2.16-0.17,3.2-0.64
								C413.38,187.27,416.26,185.72,413.82,186.35z"/>
						</g>
						<path class="st45" d="M383.75,173.93c0,0,3.42,0.61,3.87,3.95c0,0,9.95,14,8.11,17.97c-0.78,0.3-4.65,2.55-16.64-14.59
							C379.1,181.27,375.88,172.71,383.75,173.93z"/>
						<path class="st45" d="M392.28,189.9c0,0,5.17-2.22,14.58-4.2c0,0,1.62,1.62,1.45,2.69c0,0-11.31,7.67-12.97,7.53
							C395.35,195.91,391.58,193.24,392.28,189.9z"/>
					</g>
					<g>
						<g>
							<g>
								<path class="st44" d="M374.68,287.94c2.11,0.98,4.42,0.84,4.42,0.84l-1.93-1.97c0,0-1.67-3.71-1.84-4.9
									c-0.11-0.77,0.41-3.01,0.41-3.01l-2.88-0.6l-0.44,1.59l-1.69,2.13c0,0-0.41,1.11,1.59,1.9
									C372.33,283.91,373.34,285.93,374.68,287.94z"/>
							</g>
							<path class="st46" d="M377.18,286.81c-0.86,0.15-2.23-0.12-2.74-1.02c-2.04-3.59-2.01-5.92-2.01-5.92
								c-1.85,1.17-1.83,2.58-1.83,2.58l-0.04,0.57l-0.32,4.38l0.3,0.06l1.74-3.21l1.1,3.72c4.54,1.9,6.02,0.93,6.02,0.93
								L377.18,286.81z"/>
						</g>
						<path class="st47" d="M387.83,247.2c0,0-11.64,32.23-12.33,33.55c0,0-3.43-0.54-3.19-1.34c0.59-1.93,1.71-16.24,2.36-19.33
							c1.04-4.97,1.96-8.05,6.29-13.93C380.96,246.14,387.55,243.2,387.83,247.2z"/>
					</g>
					<path class="st48" d="M382.81,208.57c0,0,1.79,6.29,2.59,10.28c1.41,7.05,1.98,25.19,1.98,25.19s-5.91,3.2-6.74,1.7
						c-3.97-7.23-4.44-5.25-9.95-29.73L382.81,208.57z"/>
					<path class="st47" d="M371.02,216.79c0,0,2.24,18.55,9.4,29.06c0,0,2.16,5.72,7.41,1.34c0,0,0.65-30.21-4.44-39.55
						C383.39,207.65,368.83,206.93,371.02,216.79z"/>
					<path class="st49" d="M377.85,196.32c0.56-0.1,2.88,1.1,2.88,1.1s2.9,9.31,3.02,10.73c0.13,1.41-9.62,8.75-20.5,4.57
						c0,0,5.04-13.12,5.35-16.35C368.91,193.14,377.85,196.32,377.85,196.32z"/>
					<path class="st50" d="M380.73,197.42c0,0,2.78,8.4,3.02,10.73c0.87,8.25-10.3,11.71-21.18,7.54c0,0-0.71-11.35,6.03-19.31
						C368.6,196.37,370.39,198.01,380.73,197.42z"/>
					<path class="st50" d="M370.44,221.81l-7.87-4.32c0,0,1.28,24.9,2.27,31.89c0,0,4.4,1.23,5.77,0.32
						c4.08-9.57,6.45-30.36,6.45-30.36L370.44,221.81z"/>
					<path class="st50" d="M365.67,210.2c0,0-3.78,1.09-3,8.09c0.76,6.83,13.33,7.48,14.5,0.48
						C378.45,211.23,372.33,207.23,365.67,210.2z"/>
					<path class="st48" d="M370.98,173.44h7.57c-0.34-1.1-1.06-3.96,0.05-5.9l-7.65-5.02C370.95,162.52,372.31,170.95,370.98,173.44
						z"/>
					<path class="st51" d="M378.01,170.13c-0.02-0.84,0.12-1.76,0.59-2.59l-7.65-5.02c0,0,0.56,3.44,0.61,6.57
						C374.32,169.97,375.46,170.31,378.01,170.13z"/>
					<path class="st48" d="M365.78,174.1c-3.41,1.67-1.51,5.67-1.51,5.67l4.61,16.77c0,0,4.3,1.76,11.86,0.88
						c1.05-1.5,3.21-7.79,3.93-12.6c0.59-3.96,2.44-7.85,0.43-10.06c-0.77-0.85-6.65-1.69-6.68-1.83h-7.07L365.78,174.1z"/>
					<g>
						<path class="st48" d="M379.78,168.23l0.46-1.12l1.15-3.3c0.16-0.52,0.26-1.25,0.11-1.78c-0.19-0.63-0.3-1.66-0.01-2.79
							c0.78-3.01-0.49-4.67-0.49-4.67c-1.64-2.89-5.83-3.09-5.83-3.09c-5.2,0.01-5.88,5.01-5.88,5.01c-1,3.3,1.52,6.21,1.52,6.21
							c0.32,0.37,0.33,0.94,0.47,1.38c0.15,0.47,0.39,0.92,0.7,1.31c0.69,0.87,1.6,1.72,2.55,2.27c0.9,0.52,2.67,1.09,3.95,1.15
							C379,168.84,379.52,168.87,379.78,168.23z"/>
						<path class="st43" d="M371.28,164.68c0.09-2.37,0.15-2.22,0.15-2.22c0.09-0.69,1.37,0.87,1.39-0.03
							c0.08-4.13,1.68-6.02,2.28-6.31c1.64-0.78,3.33-0.94,4.65-0.64c2.07,0.48,1.85,3.25,1.85,3.25c2.3-10.08-9.21-7.41-9.21-7.41
							c-5.6,1.17-5.29,6.41-5.29,6.41c-0.96,5.56,4.38,9.05,4.38,9.05L371.28,164.68z"/>
						<g>
							<g>
								<g>
									<g>
										<g>
											<g>
												<path class="st52" d="M371.69,163.89c-0.19,0.13-0.43,0.2-0.73,0.18c-0.8-0.05-1.43-0.84-1.4-1.75
													c0.03-0.91,0.7-1.61,1.5-1.56c0.38,0.02,0.72,0.22,0.97,0.5c0.37,0.42,0.34,1.17,0.22,1.68
													C372.15,163.35,371.98,163.69,371.69,163.89z"/>
											</g>
										</g>
									</g>
								</g>
							</g>
							<g>
								<g>
									<path class="st53" d="M371.34,161.63c-0.02-0.48-1.02-0.07-0.88,0.2c0.08,0.16,0.24,0.28,0.37,0.4
										c0.18,0.16,0.26,0.3,0.27,0.54c0,0.03,0,0.11-0.03,0.13c-0.13,0.08-0.52-0.41-0.6-0.51c-0.17-0.2-0.18-0.54-0.08-0.77
										c0.1-0.25,0.28-0.36,0.55-0.33c0.22,0.02,0.44,0.05,0.41,0.32C371.35,161.61,371.34,161.65,371.34,161.63L371.34,161.63z"
										/>
								</g>
								<g>
									<path class="st53" d="M371,162.11c0.11-0.1,0.2-0.01,0.3,0.07c0.09,0.08,0.14,0.18,0.16,0.29c0.04,0.25-0.01,0.58-0.16,0.8
										c-0.12,0.17-0.32,0.27-0.53,0.25c-0.29-0.02-0.37-0.29-0.36-0.53c0-0.07,0-0.22,0.07-0.26c0.07-0.04,0.12,0.07,0.16,0.12
										c0.06,0.06,0.16,0.09,0.24,0.11c0.17,0.02,0.33-0.05,0.44-0.17c0.02-0.02,0.04-0.05,0.05-0.07
										c-0.01,0.16-0.02,0.2-0.03,0.11c-0.01-0.04-0.03-0.08-0.05-0.12c-0.06-0.11-0.17-0.2-0.24-0.31
										C371,162.34,370.95,162.16,371,162.11L371,162.11z"/>
								</g>
							</g>
						</g>
						<path class="st6" d="M371.72,164.06c-0.01,0.27-0.25,0.48-0.52,0.47c-0.27-0.01-0.48-0.24-0.47-0.52
							c0.01-0.27,0.24-0.48,0.52-0.47C371.52,163.56,371.73,163.79,371.72,164.06z"/>
					</g>
					<path class="st54" d="M380.48,173.35l3.27,0.59c0,0,2.38,0.52,2.46,2.56c0,0,0.13,3.86-1.97,10.85
						C384.25,187.34,380.77,176.62,380.48,173.35z"/>
					<path class="st54" d="M379.65,173.22l1.47,0.23c0,0,2.86,5.52,3.53,11.38c-0.72,4.8-2.17,12.08-3.93,12.6
						c-5.95,1.76-12.17-1.01-12.17-1.01l-2.85-11.37c7.65-2.98,3.78-11.72,3.78-11.72l1.61-0.38l6.76,6.83L379.65,173.22"/>
					<path class="st54" d="M382.67,176.99c0,0,2.99,4.14,3.51,6.27c0.34,1.4-2.1,4.56-4.07,5.11
						C381.03,188.68,381,177.27,382.67,176.99z"/>
					<g>
						<polygon class="st55" points="376.84,174.84 376.76,178.67 375.35,177.29 						"/>
						<path class="st56" d="M376.84,174.75c0,0-4.28-1.75-5.35-3.5l-2,2.07l5.2,5.04l2.15-3.52"/>
					</g>
					<path class="st56" d="M380.66,174.95c0,0-0.42-1.61-2.45-2.96l0.27,5.54C378.47,177.52,379.6,174.69,380.66,174.95z"/>
					<path class="st55" d="M380.84,177.52l-0.19-2.57c-0.62-0.15-1.18,0.72-1.63,1.43L380.84,177.52z"/>
					<g>
						<g>
							<path class="st48" d="M369.02,289.49c2.26,0.53,4.5-0.08,4.5-0.08l-2.29-1.54c0,0-2.39-3.29-2.81-4.42
								c-0.27-0.73-0.22-3.03-0.22-3.03h-2.94l-0.1,1.64l-1.22,2.43c0,0-0.17,1.17,1.95,1.54
								C365.89,286.03,367.3,287.8,369.02,289.49z"/>
						</g>
						<path class="st46" d="M371.23,287.87c-0.81,0.32-2.21,0.34-2.89-0.43c-2.73-3.1-3.18-5.38-3.18-5.38
							c-1.57,1.53-1.26,2.9-1.26,2.9l0.08,0.56l0.58,4.35h0.3l1.05-3.5l1.84,3.42c4.84,0.93,6.08-0.32,6.08-0.32L371.23,287.87z"/>
					</g>
					<path class="st50" d="M364.54,246.78l6.43,1.9c0,0-2.21,30.85-2.5,32.31c0,0-3.44,0.46-3.44-0.37
						c0.02-2.01-2.35-14.6-2.58-17.76C362.07,257.45,360.6,253.82,364.54,246.78z"/>
					<g>
						<g>
							<path class="st44" d="M367.42,173.93c-2.45-0.07-4.5,1.86-4.56,4.32c-0.07,2.45,1.27,8.78,3.14,7.19
								c3.67-3.13,5.5-5.01,5.57-7.46C371.63,175.53,369.87,174,367.42,173.93z"/>
							<path class="st44" d="M364.24,176.49l4.25,1.41l0.77,4.54c0,0-9.35,11.37-12.4,12.96c-3.25,1.69-2.38-1.27-2.16-2.49
								C354.7,192.91,361.84,178.04,364.24,176.49z"/>
							<path class="st44" d="M354.98,195.78c0,0-7.93-3.95-13.04-8.38c0,0-0.48-1.55,0.87-1.2c1.29,0.33,14.1,3.66,14.92,4.71
								C358.54,191.97,354.98,195.78,354.98,195.78z"/>
							<path class="st44" d="M336.34,186.35l1.23,0.57c0,0-2.5-0.53-2.85-1.6c0,0-0.13-0.2,0.28-0.32c0,0,1.99,0.9,2.98,1.08
								c0,0-2.17-0.49-3.48-1.31c0,0-0.37-0.62,0.38-0.66c-0.36-0.39,0.16-0.49,0.16-0.49s0.5-0.03,1.57,0.14
								c0,0,1.64,0.25,3.61,0.32c0,0-0.86-1.47-0.05-1.91l1.46,2.01l1.22,2.03l-0.36,1.32l-2.49,0.37c0,0-2.16-0.17-3.2-0.64
								C336.78,187.27,333.9,185.72,336.34,186.35z"/>
						</g>
						<path class="st54" d="M371.07,181.27c-11.99,17.14-15.86,14.89-16.64,14.59c-1.83-3.97,7.76-18.34,7.76-18.34
							c1.55-3.33,4.22-3.59,4.22-3.59l3.08-0.61l1.98,2.52C371.47,175.84,372.72,178.5,371.07,181.27z"/>
						<path class="st45" d="M357.89,189.9c0,0-5.17-2.22-14.58-4.2c0,0-1.62,1.62-1.45,2.69c0,0,11.31,7.67,12.97,7.53
							C354.82,195.91,358.58,193.24,357.89,189.9z"/>
					</g>
					<path class="st43" d="M365.02,157.77c-0.49,1.23,0.09,2.84-0.43,3.94c-0.53,1.11-1.94,1.16-2.46,2.19
						c-1.78,3.48,0.24,4.2,0.01,6.84c-0.25,2.95-3.31,4.46-0.71,7.55c2.14,2.54,6.47,2.13,7.44-1.23c-0.07-0.1-0.07-0.1-0.01,0
						c5.03,3.31,8.96-5.56,2.92-7.32c2.21-1.57,3.19-4.91,0.67-6.85c2.39-1.65,2.24-4.92-0.13-6.43c-0.38-0.24,1.2-3.4-1.96-3.67
						C368.09,152.59,365.71,156.05,365.02,157.77z"/>
					<path class="st54" d="M383.24,190.96c0,0-0.68,12.56,4.38,19.16c0,0-13.88,6.07-26.93,0.18c1.22-3.83,0.94-3.82,5.02-12.63
						c0,0,2.05-4.46,1.48-6.7H383.24z"/>
				</g>
			</g>
			<g>
				<g>
					<path class="st57" d="M285.66,158.4c0,0,2.6,2.4,2.33,10.2v23.6c0,0,0.15,2.42,2.16,4.02c0,0-17.11,5.03-18.57-2.65v-24.48
						c0,0-0.79-10.3,3.17-12.15C274.74,156.94,281.76,154.05,285.66,158.4z"/>
					<path class="st48" d="M287.57,178.64c3.54,1.7,1.65,5.7,1.65,5.7l-4.61,16.77c0,0-4.3,1.76-11.86,0.88
						c-1.05-1.5-3.21-7.79-3.93-12.6c-0.59-3.96-2.44-7.85-0.43-10.06c0.77-0.85,6.65-1.69,6.68-1.83l6.94-0.03L287.57,178.64z"/>
					<path class="st44" d="M282.46,221.36c0,0-2.24,18.55-9.4,29.06c0,0-3.34,5.61-7.41,1.34c0,0-0.65-30.21,4.44-39.55
						C270.09,212.21,284.65,211.5,282.46,221.36z"/>
					<path class="st44" d="M271.95,178.01c-2.45-0.07-5.71,2.35-5.78,4.81c-0.07,2.45,1.27,8.78,3.14,7.19
						c3.67-3.13,5.5-5.01,5.57-7.46C274.94,180.09,274.4,178.08,271.95,178.01z"/>
					<path class="st44" d="M267.45,181.77l4.48-0.2l2.34,3.96c0,0-4.68,13.96-6.96,16.53c-2.43,2.74-2.67-0.34-2.91-1.55
						C264.39,200.52,265.76,184.08,267.45,181.77z"/>
					<g>
						<g>
							<g>
								<path class="st44" d="M267.64,293.49c-2.29,0.39-4.49-0.35-4.49-0.35l2.38-1.4c0,0,2.58-3.14,3.06-4.25
									c0.31-0.71,0.4-3.02,0.4-3.02l2.94,0.17l0.01,1.65l1.07,2.5c0,0,0.1,1.18-2.04,1.42
									C270.96,290.22,269.46,291.9,267.64,293.49z"/>
							</g>
							<path class="st50" d="M265.53,291.74c0.79,0.37,2.18,0.47,2.91-0.26c2.91-2.93,3.5-5.18,3.5-5.18
								c1.47,1.62,1.08,2.97,1.08,2.97l-0.11,0.56l-0.84,4.31l-0.3-0.02l-0.84-3.56l-2.04,3.3c-4.88,0.64-6.05-0.68-6.05-0.68
								L265.53,291.74z"/>
						</g>
						<path class="st44" d="M265.65,251.76c0,0,3.01,31.26,3.34,32.71c0,0,2.97,1.01,2.94,0.17c-0.07-2.01,2.86-14.89,3.05-18.05
							c0.31-5.07-0.52-8.44-3.16-15.26C271.82,251.35,266.97,247.98,265.65,251.76z"/>
					</g>
					<path class="st49" d="M275.63,200.89c-0.56-0.1-2.88,1.1-2.88,1.1s-2.9,9.31-3.02,10.73c-0.13,1.42,9.62,8.75,20.5,4.57
						c0,0-5.04-13.12-5.35-16.35C284.57,197.71,275.63,200.89,275.63,200.89z"/>
					<path class="st58" d="M272.75,201.98c0,0-2.78,8.4-3.02,10.73c-0.87,8.25,10.3,11.71,21.18,7.54c0,0,0.71-11.35-6.03-19.31
						C284.88,200.94,283.09,202.57,272.75,201.98z"/>
					<path class="st48" d="M283.04,226.37l7.87-4.32c0,0-1.28,24.9-2.27,31.89c0,0-4.4,1.23-5.77,0.32
						c-4.08-9.57-6.45-30.36-6.45-30.36L283.04,226.37z"/>
					<path class="st48" d="M287.8,214.77c0,0,3.78,1.09,2.99,8.09c-0.76,6.83-13.33,7.48-14.5,0.48
						C275.03,215.79,281.15,211.8,287.8,214.77z"/>
					<path class="st48" d="M282.5,178.01h-7.57c0.34-1.1,1.06-3.96-0.05-5.9l7.65-5.02C282.53,167.09,281.17,175.52,282.5,178.01z"
						/>
					<path class="st51" d="M275.47,174.7c0.02-0.84-0.12-1.76-0.59-2.59l7.65-5.02c0,0-0.55,3.44-0.61,6.57
						C279.16,174.53,278.02,174.88,275.47,174.7z"/>
					<g>
						<path class="st48" d="M273.7,172.8l-0.46-1.12l-1.15-3.3c-0.16-0.52-0.26-1.25-0.11-1.78c0.19-0.63,0.3-1.66,0.01-2.79
							c-0.78-3.01,0.49-4.67,0.49-4.67c1.64-2.89,5.83-3.09,5.83-3.09c5.2,0.01,5.88,5.01,5.88,5.01c1,3.3-1.52,6.21-1.53,6.21
							c-0.32,0.37-0.33,0.94-0.47,1.38c-0.15,0.47-0.39,0.92-0.7,1.31c-0.69,0.87-1.6,1.72-2.55,2.27c-0.9,0.52-2.67,1.09-3.95,1.15
							C274.48,173.41,273.96,173.44,273.7,172.8z"/>
						<path class="st57" d="M282.19,169.25c-0.09-2.37-0.15-2.22-0.15-2.22c-0.09-0.69-1.37,0.87-1.39-0.03
							c-0.08-4.13-1.68-6.02-2.28-6.31c-1.64-0.78-3.33-0.94-4.65-0.64c-2.07,0.48-1.85,3.25-1.85,3.25
							c-2.3-10.08,9.21-7.41,9.21-7.41c5.6,1.17,5.29,6.41,5.29,6.41c0.96,5.56-4.38,9.05-4.38,9.05L282.19,169.25z"/>
						<g>
							<g>
								<g>
									<g>
										<g>
											<g>
												<path class="st52" d="M281.79,168.46c0.19,0.13,0.43,0.2,0.73,0.18c0.8-0.05,1.43-0.84,1.4-1.75
													c-0.03-0.91-0.7-1.61-1.5-1.56c-0.38,0.03-0.72,0.22-0.97,0.5c-0.37,0.42-0.34,1.17-0.22,1.68
													C281.32,167.91,281.5,168.26,281.79,168.46z"/>
											</g>
										</g>
									</g>
								</g>
							</g>
							<g>
								<g>
									<path class="st53" d="M282.14,166.19c0.02-0.48,1.02-0.07,0.88,0.2c-0.08,0.16-0.24,0.28-0.37,0.4
										c-0.18,0.16-0.26,0.3-0.27,0.54c0,0.03,0,0.11,0.03,0.13c0.13,0.08,0.52-0.41,0.6-0.51c0.17-0.2,0.18-0.54,0.08-0.77
										c-0.1-0.25-0.28-0.36-0.55-0.33c-0.22,0.02-0.44,0.05-0.41,0.32C282.13,166.17,282.14,166.22,282.14,166.19L282.14,166.19z
										"/>
								</g>
								<g>
									<path class="st53" d="M282.48,166.68c-0.11-0.1-0.2-0.01-0.3,0.07c-0.09,0.08-0.14,0.18-0.16,0.29
										c-0.04,0.25,0.01,0.58,0.16,0.8c0.12,0.17,0.32,0.27,0.53,0.25c0.29-0.02,0.37-0.29,0.36-0.53c0-0.07,0-0.22-0.07-0.26
										c-0.07-0.04-0.12,0.07-0.16,0.12c-0.06,0.07-0.16,0.09-0.24,0.11c-0.17,0.02-0.33-0.05-0.44-0.17
										c-0.02-0.02-0.04-0.05-0.05-0.07c0.01,0.16,0.02,0.2,0.03,0.11c0.01-0.04,0.03-0.08,0.05-0.12
										c0.06-0.11,0.17-0.2,0.24-0.31C282.47,166.9,282.53,166.72,282.48,166.68L282.48,166.68z"/>
								</g>
							</g>
						</g>
						<path class="st6" d="M281.76,168.63c0.01,0.27,0.24,0.48,0.52,0.47c0.27-0.01,0.48-0.24,0.47-0.52
							c-0.01-0.27-0.24-0.48-0.52-0.47C281.96,168.12,281.75,168.36,281.76,168.63z"/>
					</g>
					<path class="st60" d="M273.83,177.78l-1.47,0.23c0,0-2.86,5.52-3.53,11.38c0.72,4.8,2.17,12.08,3.93,12.6
						c5.95,1.76,12.17-1.01,12.17-1.01l2.85-11.37c-7.65-2.98-3.78-11.72-3.78-11.72l-1.61-0.38
						C282.38,177.5,276.7,181.67,273.83,177.78z"/>
					<path class="st60" d="M270.81,181.56c0,0-2.99,4.14-3.51,6.27c-0.34,1.4,2.1,4.56,4.07,5.11
						C272.45,193.25,272.47,181.83,270.81,181.56z"/>
					<g>
						<g>
							<path class="st48" d="M284.46,294.06c-2.26,0.53-4.5-0.08-4.5-0.08l2.29-1.54c0,0,2.39-3.29,2.81-4.42
								c0.27-0.73,0.22-3.04,0.22-3.04h2.94l0.1,1.64l1.22,2.43c0,0,0.17,1.17-1.95,1.54C287.58,290.59,286.18,292.36,284.46,294.06
								z"/>
						</g>
						<path class="st50" d="M282.25,292.44c0.81,0.32,2.21,0.34,2.89-0.43c2.73-3.1,3.18-5.38,3.18-5.38
							c1.57,1.53,1.26,2.9,1.26,2.9l-0.08,0.56l-0.58,4.35h-0.3l-1.05-3.5l-1.84,3.42c-4.84,0.93-6.08-0.32-6.08-0.32L282.25,292.44
							z"/>
					</g>
					<path class="st48" d="M288.94,251.35l-6.43,1.9c0,0,2.48,30.27,2.76,31.73c0,0,2.95,0.83,2.94,0
						c-0.02-2.01,2.58-14.39,2.8-17.54C291.41,262.02,292.88,258.38,288.94,251.35z"/>
					<path class="st58" d="M290.79,217.05l1.27,29.93c0,0-16.3,3.77-27.62-1.4c0,0,1.03-25.6,5.64-34.09
						C270.08,211.48,289.87,209.65,290.79,217.05z"/>
					<path class="st48" d="M283.35,180.39c-1.38,2.03-0.6,3.99,0.51,6.13c1.14,2.17,8.07,3.68,7.74,1.25
						c-0.65-4.78-1.14-7.5-3.26-8.72C286.53,178.01,284.73,178.36,283.35,180.39z"/>
					<path class="st48" d="M283.13,184.4l3.49-2.81l4.23,1.81c0,0,4.51,14.02,4.2,17.44c-0.33,3.64-2.35,1.31-3.26,0.48
						C291.79,201.31,283.14,187.26,283.13,184.4z"/>
					<path class="st48" d="M294.97,200.55c0,0,0.55,9.86-0.96,16.46c0,0-1.91,1.13-2.06-0.25c-0.26-2.35-2.23-13.94-1.73-18.05
						C290.38,197.38,294.97,200.55,294.97,200.55z"/>
					<path class="st48" d="M293.12,225.08c0,0-0.51,0.25-0.17-0.95l0.41-1.88c0,0-0.41,3.13-1.48,3.73c0,0-0.19,0.18-0.4-0.24
						c0,0,0.91-2.67,0.9-3.75c0,0-0.24,3.26-1.44,4.2c0,0-0.61,0.26-0.6-0.38c0,0,0.93-2.31,1.01-4.15c0,0-0.72,3.19-1.39,4.07
						c0,0-0.68,0.14-0.53-0.62c0,0,0.52-1.91,0.91-4.11c0,0-1.25,1.05-2.19,0.56l2.82-4.11l0.99-0.7l2.06,0.25l0.24,2.44
						c0,0,0.15,2.55-0.61,4.95C293.64,224.4,293.44,225.01,293.12,225.08z"/>
					<polygon class="st61" points="270.18,192.1 276.29,205.56 263.85,204.41 258.24,191.2 					"/>
					<path class="st44" d="M260.21,195.37c0.24,0.44,0.49,0.83,0.87,1.13c0.43,0.34,1.16,0.24,1.44,0.49
						c0.49,0.44,0.14,1.62-0.89,2.8c-0.89,1.03-1.55-0.32-1.85-1.14c-0.44-1.22-0.41-1.77,0.09-2.75L260.21,195.37z"/>
				</g>
			</g>
			<g>
				<g>
					<path class="st62" d="M356.69,184.98l0.44-16.63c0.32-3.89-1.21-5.3-1.21-5.3c-6.49-2.43-9.76,0.85-9.76,0.85v16.99
						C348.98,183.52,352.98,185.27,356.69,184.98z"/>
					<path class="st48" d="M339.15,183.19c-3.41,1.67-1.51,5.67-1.51,5.67l4.61,16.77c0,0,4.3,1.76,11.86,0.88
						c1.05-1.5,3.21-7.79,3.93-12.6c0.59-3.96,2.44-7.85,0.43-10.06c-0.77-0.85-6.65-1.69-6.68-1.83h-7.07L339.15,183.19z"/>
					<g>
						<path class="st63" d="M354.77,168.35l-0.44,16.56c0.79,0.11,1.58,0.13,2.35,0.07l0.44-16.63c0.32-3.89-1.21-5.3-1.21-5.3
							c-2.31-0.87-4.21-1.01-5.7-0.83c1,0.11,2.12,0.37,3.35,0.83C353.56,163.05,355.09,164.46,354.77,168.35z"/>
					</g>
					<g>
						<path class="st44" d="M357.93,183.52c2.19,1.1,2.54,3.65,2.18,5.97c-0.38,2.42-4.71,7.51-5.78,5.3
							c-2.09-4.35-3.07-7.64-2.14-9.91C353.12,182.61,354.42,181.75,357.93,183.52z"/>
						<path class="st44" d="M360.18,187.13l-5.09-0.23l-2.54,3.84c0,0,3.95,14.19,6.09,16.87c2.28,2.86,2.68-0.2,2.98-1.4
							C361.63,206.2,360.98,190.34,360.18,187.13z"/>
						<g>
							<g>
								<path class="st65" d="M361.39,228.78l0.31,2.11l-1.23,2.79c0,0,0.52,0.46,1.09-0.45l1.09-2.3l-0.15-2.37L361.39,228.78z"/>
								<path class="st65" d="M361.95,229.49l0.43,2.09l-1.07,2.86c0,0,0.54,0.43,1.06-0.51l0.96-2.36l-0.29-2.36L361.95,229.49z"/>
								<path class="st44" d="M364.31,229.96l-0.38-2.45l-0.42-3.04l-1.9-0.26l-0.65,3.21l-0.16,1.68l-0.19,2.3l-0.1,0.74
									c0,0,0.6,0.19,1.06-0.99l0.49-2.17l0.82,1.7l-0.7,2.99c0,0,0.18,1.56,0.65,0.97l1.57-4.2L364.31,229.96z"/>
							</g>
							<path class="st44" d="M356.91,204.15c0,0,2.46,11.65,4.69,20.05c0,0,1.63,1.94,1.9,0.26c0.53-3.35-1.24-21.5-2.09-22.89
								C360.55,200.2,356.91,204.15,356.91,204.15z"/>
						</g>
					</g>
					<g>
						<g>
							<g>
								<path class="st44" d="M352.58,298.45c2.29,0.39,4.49-0.35,4.49-0.35l-2.38-1.4c0,0-2.58-3.14-3.06-4.25
									c-0.31-0.71-0.4-3.02-0.4-3.02l-2.94,0.17l-0.01,1.65l-1.07,2.5c0,0-0.1,1.18,2.04,1.42
									C349.26,295.17,350.76,296.86,352.58,298.45z"/>
							</g>
							<path class="st66" d="M354.69,296.7c-0.79,0.37-2.18,0.47-2.91-0.26c-2.91-2.93-3.5-5.18-3.5-5.18
								c-1.47,1.62-1.08,2.97-1.08,2.97l0.11,0.56l0.84,4.31l0.3-0.02l0.84-3.56l2.04,3.3c4.88,0.64,6.05-0.68,6.05-0.68
								L354.69,296.7z"/>
						</g>
						<path class="st44" d="M354.57,256.72c0,0-3.01,31.26-3.34,32.72c0,0-2.97,1.01-2.94,0.17c0.07-2.01-2.86-14.89-3.05-18.05
							c-0.31-5.07,0.52-8.44,3.16-15.26C348.4,256.3,353.25,252.94,354.57,256.72z"/>
					</g>
					<path class="st44" d="M343.43,224.65c0,0-1.13,18.65,4.03,30.28c0,0,2.28,6.12,7.05,2.65c0,0,6.06-29.6,2.73-39.7
						C357.23,217.87,343.04,214.55,343.43,224.65z"/>
					<path class="st49" d="M351.22,205.41c0.56-0.1,2.88,1.1,2.88,1.1s2.9,9.31,3.02,10.73c0.13,1.42-9.62,8.75-20.5,4.57
						c0,0,5.04-13.12,5.35-16.35C342.28,202.23,351.22,205.41,351.22,205.41z"/>
					<path class="st67" d="M354.1,206.5c0,0,2.78,8.4,3.02,10.73c0.87,8.25-10.3,11.71-21.18,7.54c0,0-0.71-11.35,6.03-19.31
						C341.98,205.46,343.76,207.09,354.1,206.5z"/>
					<path class="st48" d="M343.82,230.9l-7.87-4.32c0,0,1.28,24.9,2.27,31.89c0,0,4.4,1.23,5.77,0.32
						c4.08-9.57,6.45-30.36,6.45-30.36L343.82,230.9z"/>
					<path class="st48" d="M339.05,219.29c0,0-3.78,1.09-2.99,8.09c0.76,6.83,13.33,7.48,14.5,0.48
						C351.82,220.31,345.7,216.32,339.05,219.29z"/>
					<path class="st48" d="M344.36,182.53h7.57c-0.34-1.1-1.06-3.96,0.05-5.9l-7.65-5.02C344.32,171.61,345.68,180.04,344.36,182.53
						z"/>
					<path class="st51" d="M351.39,179.22c-0.02-0.84,0.12-1.76,0.59-2.59l-7.65-5.02c0,0,0.55,3.44,0.61,6.57
						C347.7,179.06,348.83,179.4,351.39,179.22z"/>
					<g>
						<path class="st48" d="M353.15,177.32l0.46-1.12l1.15-3.3c0.16-0.52,0.26-1.25,0.11-1.78c-0.19-0.63-0.3-1.66-0.01-2.79
							c0.78-3.01-0.49-4.67-0.49-4.67c-1.64-2.89-5.83-3.09-5.83-3.09c-5.2,0.01-5.88,5.01-5.88,5.01c-1,3.3,1.52,6.21,1.53,6.21
							c0.32,0.37,0.33,0.94,0.47,1.38c0.15,0.47,0.39,0.92,0.7,1.31c0.69,0.87,1.6,1.72,2.55,2.27c0.9,0.52,2.67,1.09,3.95,1.15
							C352.37,177.93,352.89,177.96,353.15,177.32z"/>
						<path class="st62" d="M344.66,173.77c0.09-2.37,0.15-2.22,0.15-2.22c0.09-0.69,1.37,0.87,1.39-0.03
							c0.08-4.13,1.68-6.02,2.28-6.31c1.64-0.78,3.33-0.94,4.65-0.64c2.07,0.48,1.85,3.25,1.85,3.25c2.3-10.08-9.21-7.41-9.21-7.41
							c-5.6,1.17-5.29,6.41-5.29,6.41c-0.96,5.56,4.38,9.05,4.38,9.05L344.66,173.77z"/>
						<g>
							<g>
								<g>
									<g>
										<g>
											<g>
												<path class="st52" d="M345.06,172.98c-0.19,0.13-0.43,0.2-0.73,0.18c-0.8-0.05-1.43-0.84-1.4-1.75
													c0.03-0.91,0.7-1.61,1.5-1.56c0.38,0.03,0.72,0.22,0.97,0.5c0.37,0.42,0.34,1.17,0.22,1.68
													C345.53,172.43,345.35,172.78,345.06,172.98z"/>
											</g>
										</g>
									</g>
								</g>
							</g>
							<g>
								<g>
									<path class="st53" d="M344.71,170.71c-0.02-0.48-1.02-0.07-0.88,0.2c0.08,0.16,0.24,0.28,0.37,0.4
										c0.18,0.16,0.26,0.3,0.27,0.54c0,0.03,0,0.11-0.03,0.13c-0.13,0.08-0.52-0.41-0.6-0.51c-0.17-0.2-0.18-0.54-0.08-0.77
										c0.1-0.25,0.28-0.36,0.55-0.33c0.22,0.02,0.44,0.05,0.41,0.32C344.72,170.69,344.71,170.74,344.71,170.71L344.71,170.71z"
										/>
								</g>
								<g>
									<path class="st53" d="M344.37,171.2c0.11-0.1,0.2-0.01,0.3,0.07c0.09,0.08,0.14,0.18,0.16,0.29
										c0.04,0.25-0.01,0.58-0.16,0.8c-0.12,0.17-0.32,0.27-0.53,0.25c-0.29-0.02-0.37-0.29-0.36-0.53c0-0.07,0-0.22,0.07-0.26
										c0.07-0.04,0.12,0.07,0.16,0.12c0.06,0.07,0.16,0.09,0.24,0.11c0.17,0.02,0.33-0.05,0.44-0.17
										c0.02-0.02,0.04-0.05,0.05-0.07c-0.01,0.16-0.02,0.2-0.03,0.11c-0.01-0.04-0.03-0.08-0.05-0.12
										c-0.06-0.11-0.17-0.2-0.24-0.31C344.38,171.42,344.32,171.25,344.37,171.2L344.37,171.2z"/>
								</g>
							</g>
						</g>
						<path class="st6" d="M345.09,173.15c-0.01,0.27-0.24,0.48-0.52,0.47c-0.27-0.01-0.48-0.24-0.47-0.52
							c0.01-0.27,0.24-0.48,0.52-0.47C344.9,172.65,345.11,172.88,345.09,173.15z"/>
					</g>
					<path class="st54" d="M356.05,186.08c0,0,2.99,4.14,3.51,6.27c0.34,1.4-2.1,4.56-4.07,5.11
						C354.4,197.77,354.38,186.36,356.05,186.08z"/>
					<path class="st67" d="M356.05,186.08c0,0,2.99,4.14,3.51,6.27c0.34,1.4-2.1,4.56-4.07,5.11
						C354.4,197.77,354.38,186.36,356.05,186.08z"/>
					<g>
						<path class="st67" d="M353.03,182.31l1.7,0.23c0,0,2.72,5.56,3.4,11.41c-0.72,4.8-2.26,12.04-4.02,12.56
							c-5.95,1.76-12.17-1.01-12.17-1.01l-2.85-11.37c7.65-2.98,3.78-11.72,3.78-11.72l1.61-0.38
							C344.48,182.02,349.73,186.74,353.03,182.31z"/>
					</g>
					<g>
						<g>
							<path class="st48" d="M342.39,298.58c2.26,0.53,4.5-0.08,4.5-0.08l-2.29-1.54c0,0-2.39-3.29-2.81-4.42
								c-0.27-0.73-0.22-3.04-0.22-3.04h-2.94l-0.1,1.64l-1.22,2.43c0,0-0.17,1.17,1.95,1.54
								C339.27,295.12,340.67,296.88,342.39,298.58z"/>
						</g>
						<path class="st66" d="M344.6,296.96c-0.81,0.32-2.21,0.34-2.89-0.43c-2.73-3.1-3.18-5.38-3.18-5.38
							c-1.57,1.53-1.26,2.9-1.26,2.9l0.08,0.56l0.58,4.35h0.3l1.05-3.5l1.84,3.42c4.84,0.93,6.08-0.32,6.08-0.32L344.6,296.96z"/>
					</g>
					<path class="st48" d="M337.91,255.87l6.43,1.9c0,0-2.48,30.27-2.76,31.73c0,0-2.95,0.83-2.94,0c0.02-2.01-2.58-14.39-2.8-17.54
						C335.44,266.54,333.97,262.9,337.91,255.87z"/>
					<g>
						<path class="st48" d="M343.66,186.75c0.15,2.45-1.13,4.85-3.58,5c-2.45,0.15-8.82-0.97-7.29-2.89c3-3.78,4.82-5.67,7.26-5.82
							C342.51,182.89,343.51,184.3,343.66,186.75z"/>
						<path class="st48" d="M341.79,190.31l-1.56-4.2l-4.56-0.61c0,0-11.05,9.74-12.53,12.84c-1.58,3.3,1.35,2.33,2.56,2.08
							C325.71,200.41,340.32,192.77,341.79,190.31z"/>
						<path class="st48" d="M322.89,200.46c0,0,5.5,7.74,10.63,12.15c0,0,2.21-0.22,1.51-1.42c-1.19-2.05-6.09-11.63-7.29-13.68
							C327.06,196.35,322.89,200.46,322.89,200.46z"/>
						<path class="st48" d="M335.03,211.19l1.21-0.03l2.85-1.29c-0.01,1.6,0.15,3.22,0.15,3.22c1.45,1.54,2.32,2.74,2.32,2.74
							c0.57,0.52-0.06,0.81-0.06,0.81c-1.06-0.32-3.07-1.88-3.07-1.88c1,1.04,2.91,2.52,2.91,2.52c0.39,0.51-0.26,0.67-0.26,0.67
							c-1.53-0.04-3.29-2.31-3.29-2.31c0.64,0.88,2.46,2.39,2.46,2.39c0.08,0.46-0.18,0.43-0.18,0.43
							c-1.22,0.16-2.91-2.03-2.91-2.03l0.65,0.8c1,1.02,0.08,1.12,0.08,1.12l-0.6-0.45c-1.82-1.41-2.51-3.2-2.51-3.2l-1.26-2.1
							L335.03,211.19z"/>
					</g>
					<path class="st63" d="M352.52,164.46l-4-4.37c4.75-1.61,7.59,3.2,7.59,3.2l-0.9,1.18
						C355.22,164.46,353.51,160.58,352.52,164.46z"/>
					<path class="st67" d="M357.92,238.85c0.67-7.98,0.89-17.64-1.19-22.85c0,0-18.91,1.24-20.71,5.57c0,0-0.91,5-0.16,17.28
						C335.86,238.85,349.02,242.01,357.92,238.85z"/>
					<path class="st68" d="M338.3,179.04c0,2.72,5.32,5.04,8.83,5.85c-0.15-3.21-0.16-5.62-0.16-5.62
						c-0.34-6.14-0.15-8.42,0.4-12.67c0.44-3.32,2.84-4.65,5.15-2.13c-0.09-0.1-0.12-0.45-0.16-0.59c-0.07-0.21-0.15-0.42-0.25-0.62
						c-0.81-1.69-2.45-2.9-4.23-3.41c-0.64-0.18-1.26-0.24-1.92-0.17c-2.19,0.24-4.91,1.78-6.01,3.71c-1.08,1.89-1.32,4.26-1.5,6.39
						c-0.1,1.2-0.18,2.43-0.16,3.64C338.31,173.41,338.35,175.7,338.3,179.04z"/>
				</g>
			</g>
			<g>
				<path class="st69" d="M307.27,176.53c0.51,0.5,0.7,1.26,0.94,1.94c1.89-2.49,3.28-7.39,0.59-9.63
					C304.76,165.46,304.67,173.95,307.27,176.53z"/>
				<g>
					<g>
						<g>
							<g>
								<path class="st65" d="M298.6,243.58l-0.31,2.11l1.23,2.79c0,0-0.52,0.46-1.09-0.45l-1.09-2.3l0.15-2.37L298.6,243.58z"/>
								<path class="st65" d="M298.03,244.29l-0.43,2.09l1.07,2.86c0,0-0.54,0.43-1.06-0.51l-0.96-2.36l0.29-2.36L298.03,244.29z"/>
								<path class="st44" d="M295.68,244.76l0.38-2.45l0.42-3.04l1.9-0.26l0.65,3.2l0.16,1.68l0.19,2.3l0.1,0.74
									c0,0-0.6,0.19-1.06-0.99l-0.49-2.17l-0.82,1.7l0.7,2.99c0,0-0.18,1.56-0.65,0.97l-1.57-4.2L295.68,244.76z"/>
							</g>
							<path class="st44" d="M303,218.57c0,0-4.21,16.59-4.61,20.44c0,0-1.63,1.94-1.9,0.26c-0.53-3.35,0.22-20.88,1.08-22.27
								C298.42,215.61,303,218.57,303,218.57z"/>
						</g>
						<g>
							<path class="st44" d="M299.58,198.58l-1.38,0.45c0,0-2.19,17.01-0.34,20.81c1.85,3.8,3.98-0.02,4.68-0.45
								c0.69-0.43,5.12-19.7,5.12-19.7L299.58,198.58z"/>
							<path class="st70" d="M296.61,217.87l0.88-21.32c1-5.23,6.36-3.67,6.36-3.67c4.34,1.13,4.14,6,4.14,6l-3.74,20.42
								c0,0-0.78,3.12-4.8,3.12C299.44,222.42,296.48,222.02,296.61,217.87z"/>
						</g>
						
							<rect x="296.48" y="238.76" transform="matrix(0.0344 -0.9994 0.9994 0.0344 46.9177 529.4588)" class="st6" width="1.94" height="3.38"/>
						<path class="st70" d="M303.88,220.02c0,0-1.86,12.53-4.54,20.2c0,0-2.29,0.21-3.6-0.12c0,0-0.2-17.97,1.28-23.78
							C297.02,216.32,304.41,216.47,303.88,220.02z"/>
					</g>
					<path class="st71" d="M301.16,299.28c0,0-0.75,2.93-1.68,3.73c-0.93,0.8-4.46,1.97-4.46,1.97l-1.96,0.28c0,0-1.36,0.98,2.38,2
						c3.74,1.03,10.29-2.07,10.29-2.07l-1.48-6L301.16,299.28z"/>
					<path class="st71" d="M321.12,307.35c0.66-1.03,2.04-6.63,2.04-6.63l3.05-0.09l1.91,6.16c0,0,0.31,1.03-0.32,1.42
						c0,0-3.81,1.32-7.06-0.06C320.75,308.15,320.79,307.87,321.12,307.35z"/>
					<path class="st48" d="M302.2,222.33l-3.9-23.82c0,0-1.34-3.58,1.34-5.37l10.24-4.81h7.22l12.31,7.27l-8.07,26.73H302.2z"/>
					<path class="st72" d="M321.34,222.33c0,0,2.21,5.05,2.74,16.65c0,0-16.64,5.22-21.86,0l-0.03-16.65H321.34z"/>
					<g>
						<path class="st72" d="M310.43,238.93c-0.03,3.89,3,7.07,6.77,7.1c3.77,0.03,6.85-3.11,6.88-7c0.03-3.89-3-7.07-6.77-7.1
							C313.54,231.9,310.46,235.03,310.43,238.93z"/>
						<path class="st72" d="M324.08,239.89l1.81,29.65c0,0-3.2,7.71-8.88,2.97l-6.16-30.5
							C310.85,242.01,313.84,231.76,324.08,239.89z"/>
					</g>
					<path class="st72" d="M325.89,269.54c0,0,1.71,5.57,1.2,15.26l0.51,18.12l-6.28,0.12l-4.27-30.45
						C317.04,272.6,321.32,262.73,325.89,269.54z"/>
					<g>
						<path class="st72" d="M302.26,239c-0.39,3.87,0.99,7.19,4.74,7.57c3.75,0.38,7.11-2.45,7.51-6.32
							c0.39-3.87-2.32-7.32-6.07-7.71C304.68,232.16,302.65,235.12,302.26,239z"/>
						<path class="st72" d="M312.9,244.1l-3.45,27.32c0,0-7.47,3.31-8.8-1.32c0,0,0.17-20.81,1.6-31.09
							C302.26,239,311.48,234.5,312.9,244.1z"/>
					</g>
					<path class="st72" d="M309.46,270.3c0,0,1.05,4.01-0.08,11.32l-2.59,20.7l-6.62-0.35l0.5-32.98
						C300.66,268.99,304.78,264.67,309.46,270.3z"/>
					<g>
						<path class="st48" d="M327.82,220.2c1.41,14.11,0.83,15.04,0.68,20.7c0,0,0.75,1.99,2.03,0.87c1.28-1.12,3.32-19.9,2.68-21.4
							C332.25,218.15,327.82,220.2,327.82,220.2z"/>
						<path class="st48" d="M328.71,240.34l-1.98,1.98l-1.69,2.47c0.83,0.56,1.71-0.82,1.71-0.82c-0.55,2.18-1.6,4.1-1.6,4.1
							c-0.26,0.78,0.48,0.72,0.48,0.72c0.82-0.84,1.88-3.34,1.88-3.34c-0.4,1.49-1.4,3.85-1.4,3.85c-0.09,0.68,0.59,0.49,0.59,0.49
							c1.4-0.83,1.86-3.85,1.86-3.85c-0.14,1.15-1.04,3.5-1.04,3.5c0.16,0.47,0.39,0.31,0.39,0.31c1.21-0.49,1.65-3.4,1.65-3.4
							l-0.19,1.09c-0.4,1.46,0.51,1.09,0.51,1.09l0.33-0.73c0.96-2.25,0.67-4.28,0.67-4.28l-0.01-2.63L328.71,240.34z"/>
						<path class="st48" d="M324.7,196.04c4.75-1.08,6.37,3.31,6.37,3.31s2.39,14.62,2.36,20.88c-0.02,4.23-5.18,0.82-5.52,0.08
							c-0.75-1.64-6.17-19.25-6.17-19.25S321.46,196.92,324.7,196.04z"/>
						<path class="st73" d="M327.11,220.55l-6.16-19.98c0.14-4.97,5-5.71,5-5.71c4.57-0.44,5.57,3.49,5.57,3.49l2.21,20
							c0,0,0.75,4.5-1.85,4.56C331.88,222.92,327.52,223.39,327.11,220.55z"/>
						
							<rect x="328.7" y="238.65" transform="matrix(0.1962 -0.9806 0.9806 0.1962 29.3187 516.4476)" class="st6" width="1.94" height="3.38"/>
						<path class="st73" d="M326.74,219.34c0,0,0.8,16.78,1.09,20.21l3.75,0.79c0,0,3.39-16.82,2.16-21.98
							C333.73,218.36,328.83,215.69,326.74,219.34z"/>
					</g>
					<path class="st48" d="M317.14,183.06v7.72h-8.16c0,0,2.01-3.06,1-7.72H317.14z"/>
					<path class="st51" d="M313,189.62c-0.74,0.47-2.3,1.48-3.19,0.89c-0.24-0.16-0.35-0.37-0.39-0.6c0.52-1.22,1.25-3.66,0.56-6.85
						h7.16v0.7C316.24,186.02,315.1,188.26,313,189.62z"/>
					<g>
						<path class="st52" d="M317.33,183.17c0,0,1.39-0.6,2.96-4.04c0,0,3.41-4.06,0.99-8.68c0,0-1.43-3.9-8.36-2.81
							C312.93,167.64,312.31,178.1,317.33,183.17z"/>
						<path class="st48" d="M308.8,185.26l-0.46-1.21c0,0-1.28-4.5-1.28-4.5c-0.16-0.57-0.17-1.32-0.07-1.9
							c0.11-0.63,0.18-1.29,0.02-1.96c-0.8-3.24,0.85-5.08,0.85-5.08c1.83-3.05,6.33-3.15,6.33-3.15c5.57,0.14,6.16,5.52,6.16,5.52
							c0.99,3.56-1.79,6.61-1.8,6.62c-0.22,0.24-0.08,1.42-0.14,1.76c-0.26,1.44-1.61,2.35-2.81,2.98c-1.32,0.7-2.91,1.44-4.4,1.61
							C310.66,186,309.06,185.95,308.8,185.26z"/>
					</g>
					<path class="st6" d="M322.67,221.68c-0.02,0.79,1.19,9.1,0.68,9.2c0,0-13.77,3.17-21.12,0l-0.03-8.56l-3.9-23.82
						c0,0-1.34-3.58,1.34-5.37l10.24-4.81l-0.69,2.07l1.48,4.21l6.43-6.28l12.31,7.27c-0.69,2.28-1.37,4.56-2.06,6.84
						c-1.27,4.2-2.5,8.41-3.81,12.6C323.54,215.04,322.46,219.59,322.67,221.68z"/>
					<polygon class="st74" points="311.56,189.82 311.64,193.66 313.06,192.28 					"/>
					<g>
						<g>
							<path class="st75" d="M309.76,196.01c0,0.3,0.24,0.55,0.55,0.55c0.3,0,0.55-0.24,0.55-0.55c0-0.3-0.25-0.55-0.55-0.55
								C310,195.46,309.76,195.71,309.76,196.01z"/>
						</g>
						<g>
							<path class="st75" d="M309.76,205.94c0,0.3,0.24,0.55,0.55,0.55c0.3,0,0.55-0.24,0.55-0.55c0-0.3-0.25-0.55-0.55-0.55
								C310,205.4,309.76,205.64,309.76,205.94z"/>
						</g>
						<g>
							<path class="st75" d="M309.76,215.88c0,0.3,0.24,0.55,0.55,0.55c0.3,0,0.55-0.25,0.55-0.55c0-0.3-0.25-0.55-0.55-0.55
								C310,215.33,309.76,215.58,309.76,215.88z"/>
						</g>
						<g>
							<circle class="st75" cx="310.31" cy="225.82" r="0.55"/>
						</g>
					</g>
					<line class="st76" x1="311.56" y1="194.1" x2="311.56" y2="231.81"/>
					<g>
						<path class="st77" d="M302.31,231.67c0,0,7.03,3.3,21.43-0.07c0.24-0.06,0.14-0.67,0.14-0.67l-0.14-1.39
							c-0.06-0.44-0.31-0.42-0.31-0.42c0,0-13.77,3.17-21.12,0c0,0-0.3-0.05-0.31,0.39v1.73C302,231.24,302,231.58,302.31,231.67z"
							/>
						<g>
							<path class="st78" d="M309.46,232.71c0,0.22,0.17,0.4,0.39,0.4h2.8c0.21,0,0.39-0.18,0.39-0.4v-2.02
								c0-0.22-0.17-0.4-0.39-0.4h-2.8c-0.21,0-0.39,0.18-0.39,0.4V232.71z"/>
							<line class="st78" x1="313.04" y1="231.58" x2="311.55" y2="231.58"/>
						</g>
					</g>
					<path class="st75" d="M311.56,189.74c0,0,4.52-1.75,5.58-3.5l1.33,2.54l-4.76,4.57l-2.15-3.52"/>
					<path class="st69" d="M315.99,171.49c0.15,0.27,0.76,2.19,0.01,3.15c1.57,1.21,0.81,3.66,0.81,3.66l0.38,0.02
						c2.21-0.57,1.47,3.6,1.47,3.6c0.02-0.1,0.38-0.33,0.46-0.4c0.43-0.41,1.34-1.9,1.63-2.42c1.55-2.85,1.41-2.99,1.82-4.67
						c0.28-1.15,0.16-4.26-1.51-5.82C321.06,168.61,319.11,168.61,315.99,171.49z"/>
					<g>
						<g>
							<g>
								<g>
									<g>
										<g>
											<path class="st48" d="M317.73,180.11c0.2,0.17,0.46,0.27,0.78,0.28c0.89,0.03,1.66-0.77,1.73-1.78
												c0.07-1.01-0.6-1.85-1.48-1.88c-0.42-0.01-0.82,0.16-1.12,0.45c-0.45,0.43-0.5,1.25-0.42,1.82
												C317.27,179.46,317.43,179.86,317.73,180.11z"/>
										</g>
									</g>
								</g>
							</g>
						</g>
						<g>
							<g>
								<path class="st53" d="M318.36,177.66c0.08-0.53,1.13,0.03,0.95,0.32c-0.1,0.17-0.3,0.28-0.45,0.4
									c-0.21,0.16-0.32,0.3-0.36,0.56c-0.01,0.03-0.01,0.12,0.01,0.15c0.13,0.1,0.61-0.39,0.72-0.5c0.21-0.21,0.25-0.57,0.17-0.84
									c-0.09-0.29-0.27-0.43-0.57-0.43c-0.24,0-0.49,0.01-0.49,0.31C318.35,177.64,318.36,177.69,318.36,177.66L318.36,177.66z"/>
							</g>
							<g>
								<path class="st53" d="M318.68,178.23c-0.11-0.12-0.22-0.03-0.34,0.05c-0.11,0.07-0.17,0.18-0.21,0.3
									c-0.07,0.27-0.05,0.64,0.09,0.89c0.12,0.2,0.33,0.33,0.56,0.33c0.32,0,0.43-0.28,0.46-0.55c0.01-0.07,0.02-0.25-0.05-0.29
									c-0.07-0.05-0.14,0.07-0.19,0.11c-0.07,0.07-0.18,0.09-0.28,0.09c-0.19,0.01-0.36-0.09-0.47-0.24
									c-0.02-0.03-0.04-0.06-0.04-0.08c-0.01,0.18,0,0.22,0.02,0.12c0.02-0.05,0.04-0.09,0.07-0.12c0.08-0.12,0.21-0.2,0.3-0.31
									C318.65,178.47,318.73,178.29,318.68,178.23L318.68,178.23z"/>
							</g>
						</g>
					</g>
					<path class="st73" d="M319.15,189.53l-5.47,19.23l0.81,34.94c0,0,8.51-0.52,12.22-3.88l-2.62-20.41l5.32-23.81L319.15,189.53z"
						/>
					<path class="st80" d="M319.15,189.53l-5.47,19.23l0.02,0.91l6.89-7.06c0,0,0.72-1.22-0.26-1.95l-1.63-1.56l1.16-0.83
						c0,0,1.63-0.79,1.43-2.27l-0.47-5.57L319.15,189.53z"/>
					<path class="st73" d="M307.02,189.67l-6.23,2.93c0,0-3.55,0.94-2.82,4.61l2.05,20.36l-1.03,21.58c0,0-0.88,4.01,6.35,3.33
						l2.56-34.24L307.02,189.67z"/>
					<path class="st75" d="M307.75,189.93c0,0,0.42-1.61,2.45-2.96l-0.27,5.54C309.93,192.51,308.8,189.67,307.75,189.93z"/>
					<path class="st74" d="M307.56,192.51l0.19-2.57c0.62-0.15,1.18,0.72,1.63,1.43L307.56,192.51z"/>
					<path class="st80" d="M307.02,189.67l-1.61,0.76l-1.16,5.36c0,0-0.58,1.39,0.26,1.75l1.52,0.88l-2.13,1.35
						c0,0-1.12,0.7-0.43,1.74l4.28,8.36l0.13-1.43L307.02,189.67z"/>
					<path class="st81" d="M317.79,180.92l-0.6-2.6l-0.38-0.02c0,0-0.38,1.72-2.45,2.03c0,0-0.89,0.13-1.27,0.19
						c-0.05,0.01-0.6-0.54-0.67-0.58c-0.61-0.4-1.34-0.5-2.06-0.56c-0.73-0.06-1.51-0.13-2.2,0.14c-0.09,0.04-0.98,0.49-1.01,0.36
						c0,0,0.94,4.17,1.61,5.36c0,0,0.29,0.92,2.43,0.69c0,0,3.68-0.33,6.54-2.99C318.21,182.57,317.79,180.92,317.79,180.92z
						 M308.19,180.74c0.08-0.43,0.1-0.71,0.47-0.78c0.73-0.14,1.54-0.01,2.27,0.08c0.59,0.07,1.32,0.15,1.56,0.8
						c0.21,0.57,0.06,1.4-0.24,1.91c-0.51,0.88-2.14,1.33-2.97,0.76C308.58,183.04,308.03,181.56,308.19,180.74z"/>
					<g>
						<polygon class="st82" points="312,191.21 312.17,190.9 313.3,192.64 312.33,192.99 						"/>
						<path class="st82" d="M309.38,191.36l-0.32-0.49c0,0-1.21,1.02,0.06,2.11C309.12,192.99,309.12,192.09,309.38,191.36z"/>
						<path class="st82" d="M312,191.21c0,0-0.96,0.85-2.63,0.15c-0.36,0.46-0.36,1.05-0.26,1.63l0.86,1.78h1.2l1.14-1.78
							C312.33,192.99,312.45,192.6,312,191.21z"/>
						<polygon class="st83" points="311.18,194.77 312.16,220.22 310.13,224.17 308.47,220.24 309.98,194.77 						"/>
					</g>
				</g>
				<path class="st69" d="M315.67,171.14l1.86-0.92l3.53-1.61c0,0,0-2.42-4.46-3.36c0,0-5.46-0.86-9.81,1.44
					c0,0-1.19,0.65-2.12,0.07C304.67,166.76,306.18,173.08,315.67,171.14z"/>
			</g>
		</g>
		<g>
			<g>
				<g>
					<g>
						<path class="st31" d="M569,185.64c0,0,4.64,1.16,4.64-4.64v-68.71c0,0,0.29-7.54-6.09-11.02l-33.63-19.13
							c0,0-5.8-2.9-5.8,4.06v66.1c0,0-0.58,8.12,4.64,12.18L569,185.64z"/>
						<polygon class="st41" points="523.49,94.9 562.34,118.09 562.33,122.77 523.49,98.25 						"/>
						<polygon class="st34" points="570.45,111.13 562.34,118.09 523.49,94.9 531.61,88.52 						"/>
						<polygon class="st40" points="537.23,91.79 531.61,88.52 523.49,94.9 529.05,98.22 						"/>
						<polygon class="st40" points="548.44,98.31 542.82,95.04 534.59,101.51 540.15,104.83 						"/>
						<polygon class="st40" points="559.67,104.83 554.05,101.56 545.69,108.14 551.25,111.46 						"/>
						<polygon class="st40" points="570.45,111.1 564.83,107.83 556.8,114.77 562.36,118.09 						"/>
						<polygon class="st6" points="562.34,122.79 562.34,122.79 562.19,122.69 531.45,103.29 531.45,114.88 531.45,127.6 
							531.45,152.66 570.45,175.27 570.45,111.13 562.34,118.09 						"/>
						<polygon class="st84" points="551.23,111.46 545.69,108.15 545.69,112.27 551.23,115.77 						"/>
						<polygon class="st84" points="534.59,105.26 540.13,108.76 540.13,104.83 534.59,101.53 						"/>
						<polygon class="st84" points="556.8,119.28 562.33,122.77 562.34,118.09 556.8,114.78 						"/>
						<polygon class="st84" points="529.03,98.2 523.49,94.9 523.49,98.25 529.03,101.75 						"/>
						<path class="st33" d="M572.19,98.96l-33.63-19.13c0,0-0.38-0.24-1-0.6c-0.73-0.35-2.08-0.76-3.64,0.02l-4.02,2.65
							c1.7-0.91,4.02,0.25,4.02,0.25l33.63,19.13c6.38,3.48,6.09,11.02,6.09,11.02V181c0,3.25-1.46,4.32-2.74,4.62v0.01
							c2.44-0.58,6.8-2.2,6.8-6.38v-68.71C577.7,110.55,578.57,102.43,572.19,98.96z"/>
						<path class="st30" d="M558.75,124.67l-10.72-6.22v1.98l8.71,5.05l-3.04,10.57l-7.74-5.16c-0.1-1.04-0.39-3.93-0.69-6.83
							c-0.78-7.67-0.78-7.67-1.23-7.93l-3.01-1.74v1.98l1.8,1.04c0.22,1.7,0.97,9.08,1.46,14.05l0.04,0.4l0.58,0.39
							c-0.4,0.3-0.65,0.93-0.6,1.64c0.08,0.96,0.68,1.69,1.35,1.63c0.67-0.05,1.14-0.87,1.07-1.83c-0.01-0.09-0.02-0.18-0.04-0.27
							l5.25,3.49c-0.47,0.37-0.76,1.12-0.7,1.96c0.09,1.15,0.82,2.03,1.62,1.96c0.8-0.07,1.37-1.05,1.28-2.2
							c-0.01-0.1-0.03-0.19-0.04-0.28l0.6,0.4L558.75,124.67z"/>
						<g>
							<path class="st35" d="M555.48,147.59l-12.71-7.3c-1.95-1.12-2.29,1.3-2.29,1.3v2.18c0.05,0.54,0.46,1.86,2.97,3.44
								l11.39,7.16c0,0,0,0,0,0c2.37,1.49,2.33,0,2.33,0v-3.43C557.18,148.62,555.48,147.59,555.48,147.59z"/>
							<path class="st30" d="M555.04,147.86l-12.71-7.3c-1.95-1.12-2.29,1.3-2.29,1.3v2.18c0.05,0.54,0.46,1.86,2.97,3.44
								l11.39,7.16c0,0,0,0,0,0c2.37,1.49,2.33,0,2.33,0v-3.43C556.74,148.88,555.04,147.86,555.04,147.86z"/>
						</g>
						<g>
							<path class="st6" d="M544.66,143.16l1.26,0.75c0.25,0.15,0.43,0.27,0.54,0.36c0.11,0.09,0.19,0.2,0.25,0.33
								c0.06,0.12,0.09,0.26,0.09,0.41s-0.04,0.29-0.12,0.43c-0.09,0.15-0.21,0.26-0.36,0.34c-0.15,0.08-0.32,0.1-0.49,0.09
								c0.16,0.17,0.25,0.35,0.27,0.55c0.02,0.2-0.02,0.39-0.13,0.57c-0.09,0.14-0.2,0.26-0.35,0.36c-0.15,0.1-0.3,0.15-0.47,0.16
								c-0.16,0.01-0.34-0.02-0.52-0.1c-0.11-0.05-0.37-0.2-0.78-0.44l-1.08-0.64L544.66,143.16z M544.99,144.07l-0.43,0.73
								l0.42,0.25c0.25,0.15,0.41,0.24,0.47,0.27c0.12,0.05,0.23,0.07,0.33,0.04c0.1-0.03,0.18-0.09,0.24-0.19
								c0.06-0.1,0.08-0.19,0.06-0.29c-0.02-0.09-0.08-0.18-0.17-0.25c-0.06-0.04-0.24-0.16-0.54-0.34L544.99,144.07z
								 M544.24,145.32l-0.5,0.85l0.59,0.35c0.23,0.14,0.38,0.22,0.45,0.24c0.11,0.04,0.21,0.04,0.31,0.01
								c0.1-0.03,0.18-0.1,0.25-0.22c0.06-0.09,0.08-0.19,0.07-0.28c-0.01-0.09-0.04-0.18-0.11-0.26c-0.07-0.08-0.25-0.21-0.54-0.38
								L544.24,145.32z"/>
							<path class="st6" d="M547.85,145.05l0.64,0.38l-1.02,1.71c-0.16,0.27-0.26,0.45-0.29,0.54c-0.05,0.15-0.05,0.29,0.01,0.43
								s0.17,0.26,0.35,0.37c0.18,0.11,0.34,0.15,0.48,0.13s0.25-0.08,0.33-0.17c0.08-0.1,0.2-0.27,0.35-0.52l1.04-1.75l0.64,0.38
								l-0.99,1.66c-0.23,0.38-0.4,0.64-0.53,0.77c-0.13,0.14-0.27,0.23-0.43,0.28c-0.16,0.05-0.33,0.06-0.53,0.04
								s-0.42-0.12-0.67-0.27c-0.3-0.18-0.51-0.35-0.63-0.51c-0.11-0.16-0.18-0.33-0.21-0.49c-0.02-0.17-0.01-0.32,0.03-0.46
								c0.07-0.21,0.2-0.49,0.41-0.84L547.85,145.05z"/>
							<path class="st6" d="M550,150.61l0.79-1.33l-0.07-2.52l0.75,0.45l0,1.69l1.47-0.82l0.74,0.44l-2.26,1.15l-0.79,1.33
								L550,150.61z"/>
						</g>
					</g>
					<g>
						<path class="st41" d="M506.32,153.69c0,0-0.48,5.7,3.53,7.87c4.01,2.17,0.34-7.87,0.34-7.87S506.06,150.59,506.32,153.69z"/>
						<path class="st40" d="M530.67,153.57v-1.02l6.38-9.57c0,0,0.48-3.53,3.33-3.94c2.85-0.41,2.44,3.73,1.49,4.75
							c-0.95,1.02-2.78,1.43-3.46,3.12c-0.68,1.7-3.8,12.56-6.65,10.11C528.91,154.59,530.67,153.57,530.67,153.57z"/>
						<path class="st40" d="M523,192.74l-2.58,25.66l3.33,1.49c0,0,3.05-0.34,2.92,1.83c-0.14,2.17-4.34,3.05-5.7,2.24
							c-1.36-0.81-2.65-2.31-3.05-1.43v1.72h-1.49l-0.27-2.4c0,0-1.46-2.65,0.56-3.94l-1.07-25.46L523,192.74z"/>
						<path class="st40" d="M512.69,192.47l0.88,0.61l-4.55,23.89l1.76,2.38l1.97,1.02c0,0,1.02,0.95,0.48,1.83
							c-0.54,0.88-2.31,1.76-4.68,0.75c-0.41-0.2-2.85-3.19-2.85-3.19v2.17h-1.49l-0.27-3.67c0,0-0.95-2.1,1.09-3.26l1.83-23.56
							L512.69,192.47z"/>
						<path class="st40" d="M521.37,129.27c0,0,3.05,3.16,1.02,7.13c-2.04,3.97-7.33,2.62-7.33,2.62S516.69,126.32,521.37,129.27z"
							/>
						<path class="st34" d="M517.51,141.42c0,0,2.39-2.17,5.64,2.52c0,0,10.85,9.78,10.11,11.47c0,0-0.48,3.8-3.8,2.24
							c0,0-6.16-7.47-6.3-3.94c0,0,0.74,12.08,1.76,17.17c0,0,2.78,15.14,2.78,21.93c0,0-15.14,7.13-27.56-1.63
							c0,0,1.29-16.97,9.1-28.99c0,0,0.81-2.58-0.75-5.7S517.51,141.42,517.51,141.42z"/>
						<path class="st33" d="M519.27,136.6c0,0,0.41-2.78,2.38-4.07c1.97-1.29,2.04-5.36,0-6.58c-2.04-1.22-6.45-2.92-9.98,0.68
							c0,0-2.1,1.76-3.05,7.94c-0.95,6.18-1.56,5.29-3.12,7.13c-1.56,1.83-3.6,8.14-1.56,12.22c1.83,3.67,6.81,6.42,9.44,2.69
							c2.62-3.73,2.3-4.28,4.55-5.4c2.85-1.43,1.22-6.79,1.22-6.79S518.79,141.35,519.27,136.6z"/>
						<path class="st41" d="M519.41,220.1c-0.68-1.09-2.7-2.17-2.7-2.17c-2.02,1.29-0.56,3.94-0.56,3.94l0.27,2.4h1.49v-1.72
							c0.41-0.88,1.7,0.61,3.05,1.43c1.36,0.81,5.57-0.07,5.7-2.24c0.14-2.17-2.92-1.83-2.92-1.83
							C523.51,221.93,520.08,221.18,519.41,220.1z"/>
						<path class="st41" d="M503.93,218.26l0.27,3.67h1.49v-2.17c0,0,2.44,2.99,2.85,3.19c2.38,1.02,4.14,0.14,4.68-0.75
							c0.54-0.88-0.48-1.83-0.48-1.83l-1.97-1.02c-0.41,0.73-2.75,0.9-3.21-0.88c-0.46-1.78-2.56-3.46-2.56-3.46
							C502.98,216.16,503.93,218.26,503.93,218.26z"/>
					</g>
					<ellipse class="st6" cx="546.97" cy="167.06" rx="2.24" ry="3.19"/>
				</g>
				<g>
					<g>
						<g>
							<polygon class="st40" points="605.72,174.89 596.85,180.36 594.19,214.8 599.95,205.34 608.67,207.26 							"/>
							<polyline class="st38" points="572.45,164.98 596.85,180.36 605.72,174.89 580.88,160.1 572.45,164.98 							"/>
							<polygon class="st41" points="608.67,207.26 599.95,205.34 594.19,214.8 							"/>
							<polygon class="st34" points="572.45,164.98 596.85,180.36 594.19,214.8 568.67,198.48 							"/>
							<polygon class="st37" points="572.45,164.98 580.88,160.1 580.88,170.29 							"/>
						</g>
						<path class="st6" d="M576.07,174.74c0,0-0.96-0.52-0.89-2.37s3.1-0.37,3.47,1.18c0.37,1.55-0.3,2.37-0.96,2.29v6.06
							c0,0-0.67,4.36,2.14,7.76c0,0,5.4,7.02,7.69,2v-9.46c0,0-1.18-0.89-0.59-3.1c0,0,3.1-1.63,3.4,2.29c0,0-0.15,1.4-0.81,1.4
							l-0.07,7.84c0,0,0.15,5.54-5.1,4.66c0,0-7.47-2.07-8.35-10.72L576.07,174.74z"/>
					</g>
					<g>
						<g>
							<polygon class="st85" points="537.93,184.35 546.8,189.82 549.46,224.26 543.69,214.8 534.97,216.72 							"/>
							<polyline class="st38" points="571.19,174.44 546.8,189.82 537.93,184.35 562.77,169.56 571.19,174.44 							"/>
							<polygon class="st35" points="534.97,216.72 543.69,214.8 549.46,224.26 							"/>
							<polygon class="st30" points="571.19,174.44 546.8,189.82 549.46,224.26 575.01,208.2 							"/>
							<polygon class="st37" points="571.19,174.44 562.77,169.56 562.77,179.75 							"/>
						</g>
						<path class="st6" d="M567.57,184.2c0,0,0.96-0.52,0.89-2.37c-0.07-1.85-3.1-0.37-3.47,1.18c-0.37,1.55,0.3,2.37,0.96,2.29
							v6.06c0,0,0.67,4.36-2.14,7.76c0,0-5.4,7.02-7.69,2v-9.46c0,0,1.18-0.89,0.59-3.1c0,0-3.1-1.63-3.4,2.29
							c0,0,0.15,1.4,0.81,1.4l0.07,7.84c0,0-0.15,5.54,5.1,4.66c0,0,7.47-2.07,8.35-10.72L567.57,184.2z"/>
					</g>
				</g>
			</g>
			<g>
				<path class="st30" d="M534.58,246.21c-24.96,0-45.27-20.31-45.27-45.27c0-8.15,2.19-16.12,6.34-23.09
					c-9.64-8.6-15.15-20.86-15.15-33.78c0-19.5,12.32-36.64,30.73-42.87c2.22-25.33,18.04-44.35,37.03-44.35
					c19.3,0,35.49,20.12,37.14,45.97c2.22,0.47,4.38,1.2,6.41,2.18c16.47,7.94,22.73,31.15,14.74,54.23
					C617.34,166.73,624,180,624,194.08c0,22.7-16.73,41.16-37.29,41.16c-6.17,0-12.27-1.7-17.69-4.93
					C560.39,240.43,547.89,246.21,534.58,246.21z M548.26,59c-18.03,0-33.05,18.52-34.94,43.08l-0.06,0.72l-0.69,0.22
					c-17.9,5.75-29.93,22.24-29.93,41.05c0,12.6,5.5,24.53,15.09,32.75l0.7,0.6l-0.49,0.78c-4.25,6.82-6.49,14.68-6.49,22.74
					c0,23.77,19.34,43.12,43.12,43.12c12.98,0,25.15-5.77,33.38-15.83l0.6-0.74l0.8,0.51c5.27,3.33,11.27,5.09,17.34,5.09
					c19.37,0,35.14-17.5,35.14-39.01c0-13.67-6.58-26.52-17.18-33.53l-0.7-0.47l0.29-0.8c8.03-22.3,2.28-44.81-13.38-52.35
					c-2.11-1.02-4.37-1.75-6.7-2.17l-0.84-0.15l-0.04-0.85C582.01,78.66,566.62,59,548.26,59z"/>
			</g>
		</g>
		<g>
			<path class="st30" d="M266.43,171.64c-32.13-35.66-79.16-16.08-79.63-15.88l-0.98-2.3c0.5-0.21,12.39-5.24,28.56-5.78
				c0.24-0.01,0.48-0.02,0.73-0.02c14.94-0.37,36.04,3.28,53.18,22.3L266.43,171.64z"/>
		</g>
		<g>
			<path class="st30" d="M393.03,162.21l-1.66-1.87c0.32-0.29,35.24-28.58,90.7-13.62l-0.65,2.41
				C427.32,134.55,393.34,161.93,393.03,162.21z"/>
		</g>
		<g>
			<path class="st30" d="M300.08,181.1c-10.52-24.02-4.01-43.4,3.31-55.44c7.9-12.98,18.11-20.2,18.54-20.5l1.43,2.05
				c-0.1,0.07-10.27,7.26-17.89,19.82c-10.15,16.74-11.19,34.59-3.1,53.06L300.08,181.1z"/>
		</g>
	</g>
</g>
</svg>
