<svg xmlns="http://www.w3.org/2000/svg" xmlns:xlink="http://www.w3.org/1999/xlink" width="192" height="164.4" viewBox="0 0 192 164.4"><defs><style>.a,.b,.c{fill:#00a859;}.a{opacity:0.18;}.b{opacity:0.35;}.d{fill:#fff;}.e,.j{fill:none;stroke-miterlimit:10;}.e{stroke:#707070;stroke-width:0.64px;}.f{fill:url(#a);}.g{fill:url(#b);}.h{opacity:0.19;}.i,.o{fill:#020202;}.j{stroke:#fff;stroke-width:1.06px;}.k{fill:#fc682d;}.l{fill:#ffbbab;}.m{fill:#282328;}.n{fill:#473f47;}.o{opacity:0.1;}.p{fill:url(#c);}.q{fill:#e0a194;}</style><linearGradient id="a" x1="176.13" y1="179.209" x2="176.124" y2="182.841" gradientUnits="objectBoundingBox"><stop offset="0" stop-color="#fff"/><stop offset="1" stop-color="#cbcbcb"/></linearGradient><linearGradient id="b" x1="885.752" y1="137.562" x2="885.935" y2="139.722" xlink:href="#a"/><linearGradient id="c" x1="558.259" y1="3.771" x2="542.778" y2="5.004" gradientUnits="objectBoundingBox"><stop offset="0.01"/><stop offset="0.13" stop-opacity="0.69"/><stop offset="0.25" stop-opacity="0.322"/><stop offset="1" stop-opacity="0"/></linearGradient></defs><g transform="translate(-0.002)"><path class="a" d="M152.011,34.552c40.993-5.167,55.053,27.374,57.4,38.812,5.456,26.681-1.908,36.722-2.429,46.9-.557,10.952,13.664,18.265,13.664,29.242A45.488,45.488,0,0,1,207.6,181.131c-11.665,11.762-28.923,16.195-45.462,17.06s-33.134-1.3-49.678-.4c-15.664.84-96-14.631-82.24-87.366,3.75-19.849,35.841-25.062,52.694-38.372C96.442,61.329,108.745,40.012,152.011,34.552Z" transform="translate(-28.64 -34)"/><ellipse class="b" cx="19.434" cy="72.953" rx="19.434" ry="72.953" transform="translate(26.723 154.388) rotate(-87.79)"/><path class="c" d="M203.3,65.6V172.213c0,4.605,3.988,8.735,8.9,9.216l47.573,4.681c4.909.481,8.9-2.859,8.9-7.47V72.027c0-4.61-3.988-8.74-8.9-9.221L212.2,58.125C207.288,57.644,203.3,60.99,203.3,65.6Zm4.555.506a4.743,4.743,0,0,1,5.486-4.605l6.7.663v.628a3.851,3.851,0,0,0,3.512,3.639l25.558,2.53a3.034,3.034,0,0,0,3.507-2.945v-.628l6.923.678a6,6,0,0,1,5.486,5.683V178.064a4.739,4.739,0,0,1-5.486,4.6l-46.2-4.555a6,6,0,0,1-5.486-5.683Z" transform="translate(-114.905 -45.893)"/><path class="d" d="M198.88,69.494V176.107c0,4.605,3.988,8.735,8.9,9.216L255.355,190c4.909.481,8.9-2.859,8.9-7.47V75.922c0-4.61-3.988-8.74-8.9-9.221l-47.573-4.676C202.868,61.538,198.88,64.884,198.88,69.494Zm4.555.506a4.743,4.743,0,0,1,5.486-4.605l6.7.663v.628a3.851,3.851,0,0,0,3.512,3.639l25.558,2.53a3.034,3.034,0,0,0,3.507-2.945v-.628l6.918.678a6,6,0,0,1,5.486,5.683V181.958a4.739,4.739,0,0,1-5.486,4.6L208.916,182a6,6,0,0,1-5.486-5.683Z" transform="translate(-112.722 -47.818)"/><path class="e" d="M207.85,73.347V179.657a6,6,0,0,0,5.486,5.683l46.2,4.555a4.737,4.737,0,0,0,5.486-4.6V78.98a6.009,6.009,0,0,0-5.486-5.683l-6.923-.688v.633a3.034,3.034,0,0,1-3.507,2.945l-25.558-2.53a3.851,3.851,0,0,1-3.512-3.639V69.4l-6.7-.663A4.743,4.743,0,0,0,207.85,73.347Z" transform="translate(-117.152 -51.145)"/><path class="d" d="M207.85,73.347V179.657a6,6,0,0,0,5.486,5.683l46.2,4.555a4.737,4.737,0,0,0,5.486-4.6V78.98a6.009,6.009,0,0,0-5.486-5.683l-6.923-.688v.633a3.034,3.034,0,0,1-3.507,2.945l-25.558-2.53a3.851,3.851,0,0,1-3.512-3.639V69.4l-6.7-.663A4.743,4.743,0,0,0,207.85,73.347Z" transform="translate(-117.152 -51.145)"/><path class="a" d="M265.023,78.984v106.3a4.746,4.746,0,0,1-5.486,4.605l-46.054-4.555h-.147a6,6,0,0,1-5.486-5.683V73.351a4.737,4.737,0,0,1,5.486-4.6l6.706.653v.633a3.841,3.841,0,0,0,3.507,3.639l.506.051L249.1,76.191a3.038,3.038,0,0,0,3.512-2.945v-.638l6.933.688a5.972,5.972,0,0,1,1.614.385A5.871,5.871,0,0,1,265.023,78.984Z" transform="translate(-117.152 -51.149)"/><path class="a" d="M266.767,79.375v106.3a4.746,4.746,0,0,1-5.486,4.605l-46.054-4.555h0a5.888,5.888,0,0,1-3.846-5.294V74.147a4.738,4.738,0,0,1,5.481-4.605l4.924.506,1.781.172v.638a3.73,3.73,0,0,0,2.232,3.279,3.887,3.887,0,0,0,1.275.354l25.558,2.53a3.041,3.041,0,0,0,3.512-2.945V73.4l6.751.668A5.871,5.871,0,0,1,266.767,79.375Z" transform="translate(-118.896 -51.54)"/><path class="f" d="M228.59,41.029l8.786.865v-.729L228.59,40.3Z" transform="translate(-112.902 -19.905)"/><ellipse class="g" cx="0.87" cy="0.982" rx="0.87" ry="0.982" transform="translate(112.09 20.691) rotate(-59.69)"/><g class="h" transform="translate(66.583 88.47)"><path class="i" d="M190.723,248.609a2.8,2.8,0,0,1-1.867-.906c-.364-.395-.714-.81-1.088-1.194a2.379,2.379,0,0,0-2.677-.749c-.982.359-.309-.081-.334,1.012v1.685a2.379,2.379,0,0,1-2.637,2.4q-1.518-.106-3.067-.243a2.925,2.925,0,0,1-2.667-2.915q0-.843,0-1.685a2.627,2.627,0,0,0-1.549-2.379,2.166,2.166,0,0,0-2.586.3c-.374.329-.719.688-1.088,1.012a2.618,2.618,0,0,1-3.8-.329c-.754-.82-1.518-1.645-2.247-2.48a2.7,2.7,0,0,1,0-3.882c.349-.334.714-.648,1.053-1.012a2.3,2.3,0,0,0,.531-2.611,2.586,2.586,0,0,0-2.186-1.776c-.547-.071-1.093-.081-1.64-.147a2.91,2.91,0,0,1-2.672-3.067V226.65a2.379,2.379,0,0,1,2.424-2.53c.562,0,1.129.061,1.69.106a2.181,2.181,0,0,0,2.368-1.392,2.576,2.576,0,0,0-.638-2.87c-.334-.375-.678-.739-1.012-1.118a2.677,2.677,0,0,1,0-3.72c.8-.784,1.614-1.549,2.455-2.277a2.616,2.616,0,0,1,3.644.344c.38.4.739.835,1.129,1.235a2.343,2.343,0,0,0,2.591.7,2.161,2.161,0,0,0,1.518-2.146v-1.574a2.453,2.453,0,0,1,2.794-2.586l2.854.228a2.945,2.945,0,0,1,2.748,2.961v1.518a2.647,2.647,0,0,0,1.518,2.505,2.232,2.232,0,0,0,2.713-.364c.339-.319.668-.643,1.012-.957a2.627,2.627,0,0,1,3.76.3c.784.84,1.559,1.7,2.323,2.556a2.687,2.687,0,0,1,0,3.8c-.369.359-.764.693-1.129,1.058a2.247,2.247,0,0,0-.536,2.465,2.53,2.53,0,0,0,2.024,1.842c.577.111,1.164.121,1.746.177a2.682,2.682,0,0,1,2.561,2.768q.051,1.716,0,3.426c-.051,1.625-1.356,3.664-2.945,3.543-.506-.035-3.285-.506-3.659.455s.116,1.554.82,2.363c.364.42.759.82,1.124,1.24a2.7,2.7,0,0,1,0,3.806c-.759.744-1.518,1.468-2.318,2.2C193.253,247.258,192.018,248.589,190.723,248.609Zm-21.15-19.646a12.286,12.286,0,0,0,10.987,12.222c4.96.04,9.267-3.386,9.261-9.616a11.589,11.589,0,0,0-10.749-11.615C172.964,219.443,169.583,222.692,169.573,228.963Z" transform="translate(-160.2 -208.811)"/></g><g transform="translate(65.176 89.34)"><path class="c" d="M189.127,249.119a2.768,2.768,0,0,1-1.867-.9c-.364-.395-.714-.81-1.088-1.2a2.384,2.384,0,0,0-2.677-.744,2.217,2.217,0,0,0-1.518,2.217v1.685a2.379,2.379,0,0,1-2.637,2.4q-1.518-.106-3.067-.243a2.925,2.925,0,0,1-2.667-2.915v-1.685a2.627,2.627,0,0,0-1.549-2.379,2.161,2.161,0,0,0-2.586.3c-.375.329-.719.688-1.088,1.012a2.618,2.618,0,0,1-3.8-.329c-.754-.825-1.518-1.645-2.247-2.48a2.7,2.7,0,0,1,0-3.882c.349-.334.714-.648,1.053-1.012a2.293,2.293,0,0,0,.531-2.611,2.586,2.586,0,0,0-2.186-1.776c-.547-.071-1.093-.081-1.635-.147a2.91,2.91,0,0,1-2.677-3.067v-2.991a2.379,2.379,0,0,1,2.424-2.53c.562,0,1.129.061,1.69.106a2.181,2.181,0,0,0,2.368-1.392,2.576,2.576,0,0,0-.638-2.87c-.334-.375-.678-.739-1.012-1.118a2.687,2.687,0,0,1,0-3.725c.8-.779,1.614-1.544,2.455-2.277a2.622,2.622,0,0,1,3.644.349c.38.4.739.835,1.129,1.235a2.343,2.343,0,0,0,2.591.7,2.161,2.161,0,0,0,1.518-2.146v-1.574a2.45,2.45,0,0,1,2.794-2.586c.951.076,1.9.147,2.854.228a2.945,2.945,0,0,1,2.748,2.961v1.518a2.647,2.647,0,0,0,1.518,2.505,2.232,2.232,0,0,0,2.713-.364c.339-.319.668-.643,1.012-.957a2.627,2.627,0,0,1,3.76.3c.784.84,1.559,1.7,2.323,2.53a2.687,2.687,0,0,1,0,3.8c-.369.359-.759.693-1.129,1.058a2.247,2.247,0,0,0-.536,2.465,2.531,2.531,0,0,0,2.024,1.842c.577.111,1.164.116,1.746.177a2.682,2.682,0,0,1,2.561,2.768q.056,1.716,0,3.426a2.262,2.262,0,0,1-2.642,2.4c-.506-.035-1.012-.1-1.518-.111a2.085,2.085,0,0,0-2.121,1.437,2.439,2.439,0,0,0,.506,2.647c.364.42.759.82,1.124,1.235a2.708,2.708,0,0,1,0,3.811c-.759.744-1.518,1.468-2.318,2.2A2.379,2.379,0,0,1,189.127,249.119Zm-22.334-18.447a12.294,12.294,0,0,0,10.987,12.222,10.183,10.183,0,0,0,11.033-10.456,12.314,12.314,0,0,0-10.977-12.187A10.191,10.191,0,0,0,166.793,230.672Z" transform="translate(-157.42 -210.529)"/></g><g class="h" transform="translate(101.561 85.759)"><path class="i" d="M244.89,223.756a1.407,1.407,0,0,1-.951-.461c-.187-.2-.364-.415-.552-.612a1.225,1.225,0,0,0-1.366-.38c-.506.182-.157-.04-.172.506v.86A1.22,1.22,0,0,1,240.5,224.9l-1.564-.127a1.518,1.518,0,0,1-1.361-1.488v-.86a1.341,1.341,0,0,0-.79-1.21,1.1,1.1,0,0,0-1.321.152c-.187.167-.364.349-.552.506a1.346,1.346,0,0,1-1.938-.167c-.385-.42-.769-.84-1.149-1.265a1.377,1.377,0,0,1,0-1.979l.536-.506a1.174,1.174,0,0,0,.268-1.331,1.316,1.316,0,0,0-1.113-.911c-.278-.035-.557-.04-.835-.071a1.518,1.518,0,0,1-1.366-1.569v-1.518a1.215,1.215,0,0,1,1.24-1.285c.283,0,.572.03.86.056a1.113,1.113,0,0,0,1.21-.709,1.306,1.306,0,0,0-.329-1.463c-.167-.192-.344-.38-.506-.572a1.366,1.366,0,0,1,0-1.9c.4-.4.825-.79,1.25-1.164a1.341,1.341,0,0,1,1.857.177c.2.208.38.425.577.628a1.189,1.189,0,0,0,1.321.359,1.1,1.1,0,0,0,.779-1.093q0-.4,0-.8A1.245,1.245,0,0,1,239,203.467l1.458.111a1.518,1.518,0,0,1,1.4,1.518v.774a1.372,1.372,0,0,0,.774,1.28,1.139,1.139,0,0,0,1.387-.187c.172-.162.339-.329.506-.506a1.336,1.336,0,0,1,1.918.152c.4.43.8.86,1.189,1.3a1.371,1.371,0,0,1,0,1.938c-.187.187-.385.354-.572.542a1.134,1.134,0,0,0-.273,1.255,1.29,1.29,0,0,0,1.012.941c.294.056.592.061.886.091a1.361,1.361,0,0,1,1.306,1.412q.03.871,0,1.746c-.025.83-.688,1.867-1.518,1.817-.263,0-1.68-.253-1.873.228s.061.795.42,1.21c.187.213.39.415.577.628a1.387,1.387,0,0,1,0,1.943c-.39.38-.789.749-1.184,1.118A2.41,2.41,0,0,1,244.89,223.756Zm-10.785-10.021a6.26,6.26,0,0,0,5.6,6.235,4.589,4.589,0,0,0,4.727-4.914,5.916,5.916,0,0,0-5.486-5.921C235.836,208.882,234.111,210.537,234.106,213.736Z" transform="translate(-229.316 -203.454)"/></g><g transform="translate(100.853 86.205)"><path class="c" d="M244.087,224.02a1.387,1.387,0,0,1-.951-.461c-.187-.2-.364-.41-.557-.607a1.225,1.225,0,0,0-1.366-.385,1.134,1.134,0,0,0-.774,1.134v.855a1.21,1.21,0,0,1-1.346,1.225l-1.564-.121a1.488,1.488,0,0,1-1.356-1.488c0-.288,0-.572,0-.86a1.356,1.356,0,0,0-.789-1.215,1.1,1.1,0,0,0-1.316.157c-.192.167-.369.349-.557.506a1.346,1.346,0,0,1-1.938-.172c-.385-.415-.769-.835-1.144-1.265a1.377,1.377,0,0,1,0-1.979c.177-.167.359-.329.536-.506a1.174,1.174,0,0,0,.268-1.336,1.311,1.311,0,0,0-1.113-.906c-.278-.035-.557-.04-.835-.071a1.518,1.518,0,0,1-1.366-1.569v-1.518a1.21,1.21,0,0,1,1.235-1.285c.283,0,.572.03.86.051a1.113,1.113,0,0,0,1.21-.7,1.321,1.321,0,0,0-.324-1.468c-.172-.187-.349-.375-.506-.572a1.366,1.366,0,0,1,0-1.9c.41-.4.825-.784,1.255-1.159a1.336,1.336,0,0,1,1.857.177c.192.207.375.425.572.628a1.189,1.189,0,0,0,1.321.354,1.1,1.1,0,0,0,.784-1.093v-.8a1.255,1.255,0,0,1,1.427-1.321l1.452.116a1.518,1.518,0,0,1,1.4,1.518c0,.263,0,.506,0,.779a1.346,1.346,0,0,0,.769,1.275,1.139,1.139,0,0,0,1.387-.182c.172-.162.339-.329.506-.506a1.336,1.336,0,0,1,1.913.152c.4.43.8.865,1.189,1.306a1.377,1.377,0,0,1,0,1.938c-.192.182-.39.354-.577.536a1.154,1.154,0,0,0-.273,1.26,1.3,1.3,0,0,0,1.012.941,8.694,8.694,0,0,0,.891.086,1.372,1.372,0,0,1,1.306,1.417v1.746a1.164,1.164,0,0,1-1.351,1.225c-.258,0-.506-.051-.779-.056a1.063,1.063,0,0,0-1.083.734,1.245,1.245,0,0,0,.258,1.346c.187.218.39.42.577.633a1.382,1.382,0,0,1,0,1.943c-.39.38-.789.749-1.184,1.118a1.22,1.22,0,0,1-.936.344ZM232.7,214.612a6.265,6.265,0,0,0,5.6,6.255,5.2,5.2,0,0,0,5.628-5.334,6.286,6.286,0,0,0-5.6-6.215,5.177,5.177,0,0,0-5.633,5.294Z" transform="translate(-227.915 -204.336)"/></g><path class="d" d="M298.176,135.784l-44.566-4.109V100.16l44.566,4.109Z" transform="translate(-125.259 -49.47)"/><path class="d" d="M165.226,98.764,120.66,94.654V63.14l44.566,4.115Z" transform="translate(-59.594 -31.185)"/><path class="j" d="M268.576,93.634,224.01,89.519V58.01l44.566,4.109Z" transform="translate(-110.639 -28.652)"/><path class="k" d="M81.271,169.464a3.669,3.669,0,0,0-2.257-1.807,4.389,4.389,0,0,0-4.686,2.3,10.388,10.388,0,0,1-1.807,2.718,7.01,7.01,0,0,1-2.53,1.124,12.037,12.037,0,0,0-5.648,3.366,3.31,3.31,0,0,0-.876,1.685c-.116.921.4,1.852.223,2.763-.2,1.012-1.174,1.675-1.731,2.53a3.816,3.816,0,0,0,.2,4.2,4.636,4.636,0,0,0,3.892,1.8,5.916,5.916,0,0,0,3.948-1.842c2.186-2.242,2.758-5.876,5.36-7.622.709-.476,1.579-.835,1.928-1.609a7.065,7.065,0,0,0,.268-1.766,2.991,2.991,0,0,1,1.832-2.267c1.518-.582,3.128-.066,3.725-2.024a2.075,2.075,0,0,0-.79-2.318,2.967,2.967,0,0,1-.506-.329,2.121,2.121,0,0,1-.41-.714A.564.564,0,0,1,81.271,169.464Z" transform="translate(-44.831 -99.957)"/><path class="d" d="M125.816,191.746l-.056-.046.172.056Z" transform="translate(-76.607 -111.889)"/><path class="l" d="M124.864,259.035a4.8,4.8,0,0,0,.628,1.994,3.467,3.467,0,0,0,1.655,1.2,5.9,5.9,0,0,0,4.388-.106.88.88,0,0,0,.466-.364.729.729,0,0,0,.035-.44,3.229,3.229,0,0,0-1.387-1.9,7.293,7.293,0,0,1-1.781-1.6c-.83-1.265-.774-4.894-3.229-4.013C123.584,254.546,124.621,257.552,124.864,259.035Z" transform="translate(-75.929 -142.497)"/><path class="m" d="M94.208,230.778a48.644,48.644,0,0,1,5.855-.946c3.452-.339,5.977.506,7.662,3.664a41.473,41.473,0,0,1,3.907,8.938,3,3,0,0,1-.066,2.242,2.25,2.25,0,0,1-3.037.466,6.618,6.618,0,0,1-2.141-2.6c-1.012-1.65-2.738-5.719-4.752-5.7-2.687,0-5.339,1.893-7.971,2.384a1.012,1.012,0,0,1-.81-.081c-.172-.132-1.938.086-2.024-.127-.592-2.024.754-4.58.668-6.7a1.159,1.159,0,0,1,.091-.633,1.24,1.24,0,0,1,.8-.471C93.024,231.062,93.616,230.895,94.208,230.778Z" transform="translate(-59.282 -130.689)"/><path class="c" d="M125.16,268.511s-.248.926.253,1.387,5.395,2.733,8.173.081-4.464-2.055-4.464-2.055Z" transform="translate(-76.281 -149.509)"/><path class="d" d="M124.94,264.085a.658.658,0,0,1,.845.111,2.687,2.687,0,0,0,2.53.577c.967-.359,1.225-1.559,1.721-1.625s3.411,1.857,3.679,2.8-1.012,1.827-2.475,2.105-4.99-.344-5.729-1.048A3.219,3.219,0,0,1,124.94,264.085Z" transform="translate(-76.137 -147.178)"/><path class="l" d="M111.959,274.781a4.848,4.848,0,0,0-.172,2.08,3.431,3.431,0,0,0,1.078,1.736,5.886,5.886,0,0,0,4.1,1.564.85.85,0,0,0,.567-.157.759.759,0,0,0,.2-.395,3.249,3.249,0,0,0-.567-2.282,7.247,7.247,0,0,1-1.012-2.156c-.288-1.483,1.139-4.823-1.468-4.934C112.481,270.115,112.3,273.314,111.959,274.781Z" transform="translate(-69.685 -150.678)"/><path class="n" d="M88.832,236.629a48.75,48.75,0,0,1,5.774,1.341c3.325,1.012,5.334,2.753,5.7,6.3a40.056,40.056,0,0,1,.223,9.747,3.008,3.008,0,0,1-.906,2.05,2.235,2.235,0,0,1-2.971-.714,7.148,7.148,0,0,1-1.012-3.214c-.283-1.9-.364-6.331-2.232-7.085-3.173-1.275-6.832.329-9.874-1.356a14.762,14.762,0,0,1-3.037-2.07,6.1,6.1,0,0,1-1.862-3.1,6.579,6.579,0,0,1-.076-1.918,7.8,7.8,0,0,1,.253-1.569c.182-.592.278-.506.886-.42,1.012.147,2.024.364,3.037.6C84.8,235.7,86.792,236.3,88.832,236.629Z" transform="translate(-53.278 -133.058)"/><path class="c" d="M109.865,283.68s-.582.764-.294,1.382,3.953,4.555,7.531,3.173-3.345-3.6-3.345-3.6Z" transform="translate(-68.572 -157.319)"/><path class="d" d="M110.961,279.809a.653.653,0,0,1,.739.425,2.682,2.682,0,0,0,2.131,1.493c1.012.035,1.726-.977,2.207-.85s2.455,3.037,2.343,3.993-1.614,1.311-3.087,1.012-4.489-2.212-4.9-3.143A3.214,3.214,0,0,1,110.961,279.809Z" transform="translate(-68.949 -155.401)"/><path class="d" d="M111.829,206.314c-.142.79-.481,1.458-1.2,1.6a1.056,1.056,0,0,1-.182,0c-1.306.1-2.864-1.068-3.927-2.055a16.543,16.543,0,0,1-1.255-1.3l1.012-8.533,5.44,7.085A9.854,9.854,0,0,1,111.829,206.314Z" transform="translate(-66.482 -114.028)"/><path class="d" d="M121.529,211.08a12.37,12.37,0,0,1-3.335,2.606,6.028,6.028,0,0,1-2.92.673,1.012,1.012,0,0,1-.385-.091,1.088,1.088,0,0,1-.506-.44,3.1,3.1,0,0,1-.506-1.852c.132-1.711,2.1-2.475,2.1-2.475s4.352-.835,4.828-.557c.258.152.445.769.567,1.306C121.468,210.7,121.529,211.08,121.529,211.08Z" transform="translate(-70.736 -120.379)"/><path class="o" d="M118.509,211.857a12.369,12.369,0,0,1-3.335,2.606,6.027,6.027,0,0,1-2.92.673,1.012,1.012,0,0,1-.385-.091,1.053,1.053,0,0,1-.182,0c-1.306.1-2.864-1.068-3.927-2.055h0l.7-2.53a10.067,10.067,0,0,0,2.394,2.267,3.826,3.826,0,0,0,2.2.688,2.48,2.48,0,0,0,.628-.111,20.382,20.382,0,0,0,4.661-2.3C118.449,211.472,118.509,211.857,118.509,211.857Z" transform="translate(-67.717 -121.155)"/><path class="l" d="M126.414,204.118a1.933,1.933,0,0,0-.7.951,1.821,1.821,0,0,0,0,.6,2.156,2.156,0,0,0,.111.536,2.191,2.191,0,0,0,.385.557l.354.41a.506.506,0,0,0,.152.137.329.329,0,0,0,.375-.111.9.9,0,0,0,.167-.375,7.315,7.315,0,0,0,.663-2.586C127.786,203.339,126.86,203.718,126.414,204.118Z" transform="translate(-76.573 -117.809)"/><path class="d" d="M93.216,203.309c-.051.395-.046.81-.1,1.21-.253,2.207-1.048,4.413-.648,6.655a2.4,2.4,0,0,1,0,1.518,1.822,1.822,0,0,1-1.012.774,18.577,18.577,0,0,1-6.579.931c-1.675.035-4.049.243-5.491-.83a2.766,2.766,0,0,1-.86-1.913,33.736,33.736,0,0,1-.2-7.085c0-.309.03-.617.051-.926q.192-3.188.628-6.346c.218-1.518.536-3.173,1.675-4.211a11.074,11.074,0,0,1,6.21-2.217,6.731,6.731,0,0,1,1.938.127,8.2,8.2,0,0,1,2.5,1.2,4.381,4.381,0,0,1,2.09,2.121,13.159,13.159,0,0,1,.663,3.624,12.475,12.475,0,0,1-.349,3.436c-.121.552-.334,1.093-.455,1.64A1.378,1.378,0,0,0,93.216,203.309Z" transform="translate(-53.132 -111.469)"/><path class="o" d="M82.664,217.069c-.663.111-2.065-.653-2.53-.795-.283-.091-.506-.268-.815-.375-1.417-.536-1.1-4.661-1.108-5.78a78.148,78.148,0,0,1,.066-8.983,9.909,9.909,0,0,1,.79-3.3,3.861,3.861,0,0,1,2.48-2.166,1.1,1.1,0,0,1,.653,0c.865.334.876,1.822.941,2.53a4.55,4.55,0,0,0,1.22,3.082c2.11,1.918,6.144,1.169,8.685,1.058a1.169,1.169,0,0,1,.673.106.85.85,0,0,1,.243,1.012,4.8,4.8,0,0,1-.587.941c-.739,1.129-.749,2.576-1.245,3.831a7.328,7.328,0,0,1-3.264,3.482,31.975,31.975,0,0,1-4.469,1.908,2.98,2.98,0,0,0-.951.506,1.943,1.943,0,0,0-.582,1.27c-.04.309.238,1.285.1,1.488A.4.4,0,0,1,82.664,217.069Z" transform="translate(-53.072 -113.827)"/><rect class="c" width="8.831" height="43.539" transform="matrix(-0.855, -0.519, 0.519, -0.855, 35.362, 114.683)"/><rect class="p" width="3.775" height="31.499" rx="1.888" transform="matrix(-0.855, -0.519, 0.519, -0.855, 36.4, 108.106)"/><path class="l" d="M97.052,181.684a1.437,1.437,0,0,1-.951.344,5.027,5.027,0,0,1-.87-.086l-.162-.03a.182.182,0,0,0-.116,0,.167.167,0,0,0-.071.121,9.5,9.5,0,0,0-.238,1.731h0v.319a.6.6,0,0,1-.071.324.547.547,0,0,1-.375.187,2.667,2.667,0,0,1-.8.04,3.542,3.542,0,0,1-1.518-.754,16.282,16.282,0,0,0,.2-2.976,15.266,15.266,0,0,1,.076-3.846,2.1,2.1,0,0,1,2.652-1.766,4.813,4.813,0,0,1,2.5,1.012,1.012,1.012,0,0,1,.294.81c.035.506.056,1.012.051,1.518s-.04,1.164-.1,1.746A1.979,1.979,0,0,1,97.052,181.684Z" transform="translate(-59.874 -103.746)"/><path class="q" d="M96.59,187.72l-.162-.03a.182.182,0,0,0-.116,0,.167.167,0,0,0-.071.121A9.5,9.5,0,0,0,96,189.542h0a2.343,2.343,0,0,1-1.311-2.652,9.788,9.788,0,0,0,1.888.815Z" transform="translate(-61.234 -109.514)"/><path class="l" d="M111.028,199.788l.192-.228c.081-.1.207-.208.319-.147s.106.228.2.3a.339.339,0,0,0,.172.051,9.551,9.551,0,0,1,1.6.248.886.886,0,0,1,.683.612,1.2,1.2,0,0,1-.106.648,3.264,3.264,0,0,1-.825,1.407,3.391,3.391,0,0,1-1.149.547,3.715,3.715,0,0,0-1.012.43c-.41.2-.739.552-1.144.774a1.1,1.1,0,0,1-1.417-1.655l.673-.8Z" transform="translate(-67.963 -115.69)"/><rect class="d" width="6.341" height="14.93" rx="3.171" transform="matrix(0.976, -0.22, 0.22, 0.976, 24.954, 82.557)"/><path class="d" d="M89.88,206.961,97.274,204l2.308,3.35s-9.793,7.763-12.328,7.085-1.118-3.259-1.118-3.259S85.512,208.155,89.88,206.961Z" transform="translate(-56.841 -117.965)"/><path class="k" d="M93.587,175.077c-.536.167-1.129.147-1.65.354s-.977.8-.739,1.311c-.192-.182-.557,0-.607.248a.683.683,0,0,0,.364.658l-.663,1.012a.552.552,0,0,1-.223.233.445.445,0,0,1-.3,0,1.579,1.579,0,0,1-1.012-.916,4.013,4.013,0,0,1-.288-1.387,19.921,19.921,0,0,1,0-2.692,3.456,3.456,0,0,1,.248-1.265,2.824,2.824,0,0,1,1.118-1.1,4.621,4.621,0,0,1,3.366-.617c.855.2,2.217.987,2.353,1.974S94.356,174.839,93.587,175.077Z" transform="translate(-58.165 -101.578)"/><path class="c" d="M137.976,172.1a8.006,8.006,0,1,1-3.411-14.53l-1.9,3.143-2.136,3.543,5.623,3.406,2.156-3.568,1.817-3A8.006,8.006,0,0,1,137.976,172.1Z" transform="translate(-76.449 -94.995)"/><path class="c" d="M82.35,261.114a7.93,7.93,0,0,1-5.567.744l4.96-6.468-5.223-4-4.975,6.493-.03-.051a8.006,8.006,0,1,1,10.835,3.285Z" transform="translate(-49.347 -138.731)"/></g></svg>