<svg xmlns="http://www.w3.org/2000/svg" xmlns:xlink="http://www.w3.org/1999/xlink" width="192" height="137.413" viewBox="0 0 192 137.413"><defs><style>.a,.b,.n{fill:#00a859;}.a{opacity:0.18;}.c{fill:url(#a);}.d{fill:#fff;}.e{fill:url(#b);}.f{fill:#282328;}.g{fill:#473f47;}.h{fill:#ffbbab;}.i{fill:#ef9786;}.j{fill:#fc682d;}.k{fill:url(#c);}.l{fill:url(#d);}.m{fill:url(#e);}.n{opacity:0.28;}.o{fill:url(#f);}</style><linearGradient id="a" x1="0.486" y1="-2.505" x2="0.503" y2="1.085" gradientUnits="objectBoundingBox"><stop offset="0"/><stop offset="1" stop-opacity="0"/></linearGradient><linearGradient id="b" x1="0.494" y1="3.305" x2="0.502" y2="-0.368" xlink:href="#a"/><linearGradient id="c" x1="-2.833" y1="2.981" x2="1.067" y2="-0.009" xlink:href="#a"/><linearGradient id="d" x1="3.375" y1="2.751" x2="0.087" y2="0.186" xlink:href="#a"/><linearGradient id="e" x1="-2.231" y1="2.368" x2="0.681" y2="0.184" xlink:href="#a"/><linearGradient id="f" x1="0.848" y1="1.832" x2="0.468" y2="0.267" xlink:href="#a"/></defs><g transform="translate(0.002 -0.005)"><path class="a" d="M103.511,23.061a65.768,65.768,0,0,0-16.869,7.776c-5.4,3.523-9.033,8.484-13.974,12.427-9.657,7.656-21.715,12.8-33.273,16.779-4.6,1.587-9.3,3.114-13.29,5.9-6.119,4.272-9.981,11.124-12.4,18.181-5.33,15.486-4.412,33.363,3.778,47.571,7.985,13.8,23.646,24.365,39.9,23.955,20.547-.5,41.273,1,61.885,1,14.358.339,28.771.674,43.045-.933,5.964-.674,11.978-1.712,17.388-4.327,10.146-4.916,18.77-13.56,21.625-24.669a34.83,34.83,0,0,0-4.137-26.775c-3.024-4.851-7.256-8.943-9.652-14.134-3.219-6.987-2.73-15.012-3.673-22.638a59.3,59.3,0,0,0-11.279-28.018c-3.688-4.916-8.3-9.378-13.989-11.808a44.618,44.618,0,0,0-12.422-2.815c-13.645-1.577-27.663-1.612-40.924,2.031C104.674,22.722,104.095,22.886,103.511,23.061Z" transform="translate(-10.37 -19.51)"/><rect class="b" width="33.443" height="17.537" transform="translate(86.518 108.281)"/><rect class="c" width="33.443" height="17.537" transform="translate(86.518 108.281)"/><path class="d" d="M213.788,107.53v49.787a10.48,10.48,0,0,1-10.48,10.505H110.62a10.48,10.48,0,0,1-10.48-10.505V107.53a10.48,10.48,0,0,1,10.48-10.48h92.667a10.48,10.48,0,0,1,10.5,10.48Z" transform="translate(-55.339 -58.35)"/><path class="e" d="M213.788,107.53v49.787a10.48,10.48,0,0,1-10.48,10.505H110.62a10.48,10.48,0,0,1-10.48-10.505V107.53a10.48,10.48,0,0,1,10.48-10.48h92.667a10.48,10.48,0,0,1,10.5,10.48Z" transform="translate(-55.339 -58.35)"/><path class="b" d="M213.788,210.81V214.3a10.48,10.48,0,0,1-10.48,10.505H110.62A10.48,10.48,0,0,1,100.14,214.3V210.81Z" transform="translate(-55.339 -115.335)"/><path class="f" d="M316,155.515s-3.119,10.231-2.181,12.452,10.98,11.848,10.98,11.848l2.59-2.151-7.581-10.89s2.885-11.334.464-14.383S316,155.515,316,155.515Z" transform="translate(-162.291 -85.648)"/><path class="g" d="M322.806,149.72a13.21,13.21,0,0,1,4.152,5.215c1.5,3.4-.863,11.429-.863,11.429l10.076,5.395-1.283,3.493s-12.2-4.492-13.575-6.144-3.084-13.116-3.084-13.116Z" transform="translate(-164.587 -84.734)"/><path class="h" d="M286.546,121.482l-4.062-1.577a5.284,5.284,0,0,0-1-.319c-.354-.06-.714-.045-1.068-.075a14.28,14.28,0,0,1-2.58-.724,3.319,3.319,0,0,1-1-.424,1.417,1.417,0,0,1-.609-.848,1.387,1.387,0,0,1,.923-1.472,2.5,2.5,0,0,1,1.837.155c.779.349,1.557.579,2.331.938.938.434,1.887.853,2.84,1.268a17.308,17.308,0,0,0,8.349,1.422c.739.369,1.522,2.3,1.7,3.1A33.205,33.205,0,0,1,286.546,121.482Z" transform="translate(-143.543 -67.81)"/><path class="h" d="M136.121,126.358l4.357.075a5.091,5.091,0,0,1,1.068.09c.349.08.674.23,1,.334a4.142,4.142,0,0,0,3.174-.329,10.687,10.687,0,0,1,2.156-1.263.933.933,0,0,0,.449-.19.534.534,0,0,0,0-.669,1.173,1.173,0,0,0-.6-.394,4.517,4.517,0,0,0-2.61.06,7.421,7.421,0,0,1-1.622.19c-1.342.08-2.685.12-4.033.15a17.243,17.243,0,0,1-8.22-1.842c-.823.065-2.281,1.552-2.75,2.231A33.439,33.439,0,0,0,136.121,126.358Z" transform="translate(-69.541 -71.133)"/><path class="b" d="M123.23,117.441a.37.37,0,0,1,.025.669l-1.722,1.622a2.336,2.336,0,0,1-.883.6,2.146,2.146,0,0,1-1.108-.07,19.36,19.36,0,0,1-4.911-2,5.315,5.315,0,0,1-1.347-1.023,2.2,2.2,0,0,1-.6-1.542,2.051,2.051,0,0,1,.933-1.537,3.722,3.722,0,0,1,3.613-.115,20.132,20.132,0,0,1,3.953,1.931A20.576,20.576,0,0,1,123.23,117.441Z" transform="translate(-61.621 -66.658)"/><path class="d" d="M221.573,120.98V171.8a2.825,2.825,0,0,1-2.82,2.82H142.98a2.825,2.825,0,0,1-2.82-2.82V120.98a2.815,2.815,0,0,1,2.82-2.82h75.774a2.815,2.815,0,0,1,2.82,2.82Z" transform="translate(-75.386 -68.924)"/><path class="b" d="M221.573,120.98v.933H140.16v-.933a2.815,2.815,0,0,1,2.82-2.82h75.774a2.815,2.815,0,0,1,2.82,2.82Z" transform="translate(-75.386 -68.924)"/><path class="i" d="M84.345,148.314s-1.467,3.573-3.134,3.678-15.336-1.128-15.336-1.128l-.394-1.632s8.629-1.392,10.48-.923a29.481,29.481,0,0,0,2.89.609L80.088,148Z" transform="translate(-37.977 -83.872)"/><path class="h" d="M93.657,148.86a2.256,2.256,0,0,1,0,2.555c-.9,1.352-16.764,9.168-16.764,9.168l-.754-1.727s8.329-7.591,10.216-7.741a1.562,1.562,0,0,0,1.587-1.852Z" transform="translate(-43.317 -84.303)"/><path class="h" d="M121.93,131.81a3.147,3.147,0,0,0,2.331,2.435c2.2.789,11.5,0,11.5,0,.963,0,1.916.759,2.86.544a1.764,1.764,0,0,0,1.422-2.111,1.737,1.737,0,0,0-1.058-.958,4.941,4.941,0,0,0-1.457-.23,5.66,5.66,0,0,0-2.54.255,9.933,9.933,0,0,1-1,.5,3.9,3.9,0,0,1-1.228.1l-5.056-.155c-.973-.03-2.131-.165-2.58-1.028-.155-.294-.225-.669-.5-.838a.908.908,0,0,0-.609-.06C123.058,130.412,122.624,131.176,121.93,131.81Z" transform="translate(-66.255 -74.973)"/><path class="b" d="M118.767,127.085a.908.908,0,0,0,.284.235.873.873,0,0,0,.424.065,6.857,6.857,0,0,0,2.755-.923.2.2,0,0,0,.115-.1.15.15,0,0,0,0-.115l-1-3.334a2.675,2.675,0,0,0-.469-1,1.617,1.617,0,0,0-1.347-.5,2.994,2.994,0,0,0-1.362.544,2.75,2.75,0,0,0-1,1.088c-.334.729,0,1.308.279,1.971a6.987,6.987,0,0,0,1.318,2.071Z" transform="translate(-63.8 -70.548)"/><path class="h" d="M128.062,106.446a2.946,2.946,0,0,0,0,.5.634.634,0,0,1-.075.454c-.11.125-.3.125-.454.185-.5.18-.6.9-1.083,1.123a1.143,1.143,0,0,1-.5.09,1.747,1.747,0,0,1-1.417-.524c-.09-.11-.21-.255-.334-.19s-.08.09-.11.145c-.349.764-1.362,1.442-2.116.8a3.234,3.234,0,0,1-.853-1.652,2.933,2.933,0,0,1,.449-2.041,15.37,15.37,0,0,1,1.138-1.966,4.339,4.339,0,0,1,2.75-2,3.044,3.044,0,0,1,2.565,1,2.55,2.55,0,0,1,.624,1.253,1.8,1.8,0,0,1,.055.749,5.693,5.693,0,0,1-.269.9,6.3,6.3,0,0,0-.309,1A.271.271,0,0,0,128.062,106.446Z" transform="translate(-65.819 -60.509)"/><path class="b" d="M100.345,120.8a3.654,3.654,0,0,1-.569.255c-1,.369-2.206.454-2.959,1.168a3.149,3.149,0,0,0-.764,1.961,14.872,14.872,0,0,0,1.043,7.366,13.367,13.367,0,0,1-1.662.255,23.955,23.955,0,0,1-6.024-.314,69.62,69.62,0,0,0-7.651-1.063,9.127,9.127,0,0,0,1.7-2.74c1.832-3.543,5.215-5.964,8.14-8.679,1.347-1.253,2.62-2.59,4.077-3.718a7.531,7.531,0,0,1,2.445-1.367c2.445-.719,4.117.968,4.432,3.279C102.776,118.942,101.758,119.981,100.345,120.8Z" transform="translate(-46.132 -66.717)"/><path class="j" d="M116.641,101.6c-.09.245-.464,1.113-.833.659-.03-.035-.05-.08-.095-.095a.153.153,0,0,0-.16.06,3.039,3.039,0,0,1-3.808-.05l-.125.175-.953,1.323c.11-.265-.289-.5-.544-.369a1,1,0,0,0-.424.714,6.937,6.937,0,0,1-.444,1.457,1.807,1.807,0,0,1-1.1,1c-.5.125-1.033-.055-1.5.09-.734.21-1.088,1-1.527,1.627a5.832,5.832,0,0,1-4.811,2.181,4.766,4.766,0,0,1-1.248-.145,3.359,3.359,0,0,1-2.2-1.916,3.148,3.148,0,0,1-.14-.434,2.994,2.994,0,0,1,1.088-3.094,9.717,9.717,0,0,0,1.5-.948,9.731,9.731,0,0,0,.913-1.527,4.067,4.067,0,0,1,2.755-1.572,30.768,30.768,0,0,1,3.254-.185,3.059,3.059,0,0,0,1.692-.5c.5-.384.774-1.028,1.253-1.457a3.538,3.538,0,0,1,1.447-.689,6.176,6.176,0,0,1,4.217.115,3.379,3.379,0,0,1,1.852,2.241A2.34,2.34,0,0,1,116.641,101.6Z" transform="translate(-53.589 -58.621)"/><path class="b" d="M72.871,167.984a5.115,5.115,0,0,0-1.637.549,1.157,1.157,0,0,0-.818,1.263,9.288,9.288,0,0,0,1.068,4.631.639.639,0,0,0,.185.245.554.554,0,0,0,.419.065,1.752,1.752,0,0,0,1.2-.9,3.294,3.294,0,0,0,.379-1.5,3.833,3.833,0,0,1,.095-.928,12.024,12.024,0,0,1,.7-1.288A1.462,1.462,0,0,0,72.871,167.984Z" transform="translate(-40.447 -93.875)"/><path class="b" d="M63.214,149.26a4.866,4.866,0,0,0-1.7-.3,1.542,1.542,0,0,0-.739.08,1.5,1.5,0,0,0-.589.634,9.268,9.268,0,0,0-1.283,4.571.649.649,0,0,0,.045.309.559.559,0,0,0,.334.255,1.762,1.762,0,0,0,1.5-.21,3.324,3.324,0,0,0,1.038-1.133,3.963,3.963,0,0,1,.529-.769,12.4,12.4,0,0,1,1.238-.794A1.459,1.459,0,0,0,63.214,149.26Z" transform="translate(-34.683 -84.344)"/><path class="b" d="M316.795,126.832a2.231,2.231,0,0,1-1.367.943,5.335,5.335,0,0,1-1.692.09,6.321,6.321,0,0,1-.684-.06,18.7,18.7,0,0,1-2.87-.5c-.554-.145-1.1-.314-1.637-.5a2.176,2.176,0,0,1-.958-.559,2.286,2.286,0,0,1-.4-1c-.045-.195-.085-.384-.13-.579l-.389-1.732a.374.374,0,0,1,.4-.539,20.462,20.462,0,0,1,5.15.17c.584.095,1.163.215,1.732.359a3.748,3.748,0,0,1,2.93,2.121,2.046,2.046,0,0,1-.085,1.782Z" transform="translate(-158.775 -71.004)"/><path class="b" d="M325.469,141.269a1.273,1.273,0,0,1-.389.444,7.122,7.122,0,0,1-5.185,1.313,13.214,13.214,0,0,1-2.5-.5c-.943-.269-1.867-.609-2.785-.948a8.029,8.029,0,0,1,.389-2.82,12.2,12.2,0,0,0,.13-5.814l-.045-.14c-.294-.948-.828-1.812-1.118-2.76a7.83,7.83,0,0,1-.3-2.76,8.345,8.345,0,0,1,.359-2,7.37,7.37,0,0,1,.838-1.832,2.75,2.75,0,0,1,.838-.918h.035a3,3,0,0,1,1.946-.14c1.572.24,3.149.564,4.142,1.911a9.605,9.605,0,0,1,1.617,4.257c.794,3.993,1.852,7.95,2.086,12.033a1.5,1.5,0,0,1-.065.669Z" transform="translate(-162.294 -70.997)"/><path class="k" d="M317.132,135.713a2.92,2.92,0,0,0-.634.6,1.672,1.672,0,0,0-.175.714,27.832,27.832,0,0,0,.065,5.62c.07.594.11,1.313-.364,1.682a1.637,1.637,0,0,1-1,.25h-.744c-.943-.27-1.867-.609-2.785-.948a8.031,8.031,0,0,1,.389-2.82,12.2,12.2,0,0,0,.13-5.814l-.045-.14c-.294-.948-.828-1.812-1.118-2.76a7.831,7.831,0,0,1-.3-2.76c-.554-.145-1.1-.314-1.637-.5a2.176,2.176,0,0,1-.958-.559,2.285,2.285,0,0,1-.4-1c-.045-.195-.085-.384-.13-.579l.09-.245a12.772,12.772,0,0,1,2.994.709,4.766,4.766,0,0,1,2.291,1.966l.529-.265c.03.329.055.659.09,1s.06.719.095,1.073a1.108,1.108,0,0,0,.12.5,1.128,1.128,0,0,0,.429.349,3.249,3.249,0,0,0,2.311.624c.814-.2,1.078-.823,1.5-1.377a9.792,9.792,0,0,1,.18,1.837A3.4,3.4,0,0,1,317.132,135.713Z" transform="translate(-159.177 -73.082)"/><path class="h" d="M308.051,136.284a.754.754,0,0,1-.2.589l-2.156,2.63a1.7,1.7,0,0,1-.419.4,1.5,1.5,0,0,1-.594.15,9.326,9.326,0,0,1-4.447-1.138,20.641,20.641,0,0,0-3.493-1.462c-.843-.225-1.747-.27-2.62-.449-.953-.115-2,.5-2.9.2a1.764,1.764,0,0,1-1.163-2.266,1.722,1.722,0,0,1,1.168-.828,5.016,5.016,0,0,1,1.5-.055,5.7,5.7,0,0,1,2.5.559,7.92,7.92,0,0,0,1.742.784,17.424,17.424,0,0,0,2.241.539,32.444,32.444,0,0,1,4.527.958.269.269,0,0,0,.23,0,.329.329,0,0,0,.12-.2c.235-.883,1.1-2.62,2.246-2.266a2.441,2.441,0,0,1,1.2.938A2.306,2.306,0,0,1,308.051,136.284Z" transform="translate(-150.406 -76.872)"/><path class="b" d="M324.438,131.586a1.088,1.088,0,0,1-.319.185.889.889,0,0,1-.429,0,6.777,6.777,0,0,1-2.625-1.248c-.045-.03-.095-.065-.1-.115a.23.23,0,0,1,.025-.115l1.367-3.189c.195-.449.414-.883.634-1.318a1.393,1.393,0,0,1,.424-.569,1.243,1.243,0,0,1,.634-.14,1.817,1.817,0,0,1,.589.07,1.946,1.946,0,0,1,.823.724,2.674,2.674,0,0,1,.459.744,2.106,2.106,0,0,1,.1.769,6.542,6.542,0,0,1-.594,2.435A4.965,4.965,0,0,1,324.438,131.586Z" transform="translate(-165.954 -72.389)"/><path class="h" d="M311.638,107.9c-.265.649-.379,1.357-.649,2a2.176,2.176,0,0,0-.16.459.559.559,0,0,0,.115.459c.16.16.444.165.574.349a.644.644,0,0,1,.095.3l.13.918a.784.784,0,0,0,.09.324.748.748,0,0,0,.3.235,4.047,4.047,0,0,0,1.822.419,1.542,1.542,0,0,1,.045,1.053,2.775,2.775,0,0,0,.025.908.235.235,0,0,0,.05.12.2.2,0,0,0,.135.04,2.206,2.206,0,0,0,.669-.11l1.652-.454a1.088,1.088,0,0,0,.744-.454,1.643,1.643,0,0,0,.1-.544,6.191,6.191,0,0,1,.314-1,5.459,5.459,0,0,0,.18-1.587,16.117,16.117,0,0,0-.075-2.141,3.733,3.733,0,0,0-.963-2.281,2.965,2.965,0,0,0-1.817-.749,4.122,4.122,0,0,0-2.141.334,2.58,2.58,0,0,0-1.238,1.4Z" transform="translate(-160.875 -62.903)"/><path class="j" d="M311.032,102.574a1.816,1.816,0,0,0,.05,1.193,2.5,2.5,0,0,0,2.306,1.607.753.753,0,0,1,.279.03.654.654,0,0,1,.185.12l1.038.853a2.33,2.33,0,0,1,.584.609,2.4,2.4,0,0,1,.245.853,1.407,1.407,0,0,1,.279-.559.5.5,0,0,1,.574-.11.579.579,0,0,1,.21.344,1.407,1.407,0,0,1-.5,1.417c.324.075.464.449.549.769l.369,1.4a.444.444,0,0,0,.354-.3c0,.075.1.11.17.07a.334.334,0,0,0,.125-.18c.339-.9.654-1.822.943-2.74a7.75,7.75,0,0,0,.5-2.72,1.677,1.677,0,0,0-.155-.7.759.759,0,0,0-.549-.419.335.335,0,0,1-.125-.035.22.22,0,0,1-.065-.16,3.88,3.88,0,0,0-.185-.958,1.926,1.926,0,0,0-2.6-1.063.319.319,0,0,1-.24.045.3.3,0,0,1-.125-.11,1.876,1.876,0,0,0-1.093-.6,5.335,5.335,0,0,0-1.263-.06,1.836,1.836,0,0,0-.639.09c-.3.115-.364.4-.6.569A1.447,1.447,0,0,0,311.032,102.574Z" transform="translate(-160.943 -60.405)"/><path class="g" d="M355.323,195.08a.769.769,0,0,1,0,.729l-1.657,5.056a1.462,1.462,0,0,1-.265.554,1.023,1.023,0,0,1-1.412-.08,2.535,2.535,0,0,1-.6-1.437,12.475,12.475,0,0,1-.045-3.808c.08-.554.3-1.9,1-2.061S354.684,194.855,355.323,195.08Z" transform="translate(-181.113 -106.921)"/><path class="g" d="M338.088,206.7a.82.82,0,0,1-.409.6l-4.252,3.2a1.532,1.532,0,0,1-.534.3,1,1,0,0,1-1.113-.873,2.56,2.56,0,0,1,.329-1.5,12.478,12.478,0,0,1,2.146-3.149c.384-.409,1.338-1.382,2-1.128S337.694,206.144,338.088,206.7Z" transform="translate(-171.37 -111.977)"/><circle class="d" cx="1.038" cy="1.038" r="1.038" transform="translate(66.49 49.92)"/><circle class="d" cx="1.038" cy="1.038" r="1.038" transform="translate(69.32 49.92)"/><circle class="d" cx="1.038" cy="1.038" r="1.038" transform="translate(72.145 49.92)"/><rect class="b" width="45.67" height="3.374" transform="translate(79.91 124.136)"/><path class="l" d="M103.148,136.251a13.369,13.369,0,0,1-1.662.255l-3.623-.125a8.29,8.29,0,0,1-3.993-.823,5.308,5.308,0,0,0,2.87-3.643c.454-1.537.574-3.169,1.108-4.681a2.455,2.455,0,0,1,.853-1.3,3.269,3.269,0,0,1,1.223-.369,9.228,9.228,0,0,0,4.576-2.425c-.135.13.9,1.8,1,2s.245.419.334.609c-1,.369-2.206.454-2.959,1.168a3.149,3.149,0,0,0-.764,1.961,14.872,14.872,0,0,0,1.038,7.376Z" transform="translate(-52.198 -71.419)"/><path class="m" d="M124.261,118.636a.409.409,0,0,1,.369,0,20.208,20.208,0,0,1,3.7,2,.329.329,0,0,1,.15.17c.025.11-.06.21-.145.284-.459.434-.928.853-1.412,1.258-.823.689-1.422.719-1.792-.3C124.994,121.68,123.911,118.88,124.261,118.636Z" transform="translate(-67.387 -69.14)"/><rect class="n" width="27.823" height="18.6" transform="translate(108.158 58.399)"/><rect class="a" width="61.76" height="15.736" transform="translate(74.221 82.259)"/><path class="o" d="M110.894,108.17c.11-.265-.289-.5-.544-.369a1,1,0,0,0-.424.714,6.937,6.937,0,0,1-.444,1.457,1.807,1.807,0,0,1-1.1,1c-.5.125-1.033-.055-1.5.09-.734.21-1.088,1-1.527,1.627a5.832,5.832,0,0,1-4.811,2.181,4.766,4.766,0,0,1-1.248-.145,3.359,3.359,0,0,1-2.2-1.916,5.43,5.43,0,0,0,2.77-.045l.09-.384c2.755-.05,4.716-3.054,7.456-3.3a1.073,1.073,0,0,0-.818-.5,8.29,8.29,0,0,1,4.237-2,1.263,1.263,0,0,1,1.038.294Z" transform="translate(-53.816 -63.116)"/></g></svg>