<svg xmlns="http://www.w3.org/2000/svg" xmlns:xlink="http://www.w3.org/1999/xlink" width="192.082" height="220.734" viewBox="0 0 192.082 220.734"><defs><style>.a,.b{fill:#00a859;}.a{opacity:0.25;}.c{fill:url(#a);}.d{fill:url(#b);}.e{opacity:0.28;fill:url(#c);}.f{fill:url(#d);}.g{fill:url(#e);}.h{fill:url(#f);}.i{fill:url(#g);}.j{fill:url(#h);}.k{fill:url(#i);}.l{fill:url(#j);}.m{fill:url(#k);}.n{fill:url(#l);}.o{fill:url(#m);}.p{fill:url(#n);}.q{fill:url(#o);}.r{fill:#25233a;}.s{fill:url(#p);}.t{fill:url(#q);}.u{fill:url(#r);}.v{fill:url(#s);}.w{fill:url(#t);}.x{fill:url(#u);}.y{fill:url(#v);}.z{fill:url(#w);}.aa{fill:url(#x);}.ab{fill:url(#y);}.ac{fill:url(#z);}.ad{fill:url(#aa);}.ae{fill:url(#ab);}.af{fill:url(#ac);}.ag{fill:url(#ad);}.ah{fill:url(#ae);}.ai{fill:url(#af);}.aj{fill:url(#ag);}.ak{fill:url(#ah);}.al{fill:url(#ai);}.am{fill:url(#aj);}.an{fill:url(#ak);}.ao{fill:url(#al);}.ap{fill:url(#am);}.aq{fill:url(#an);}.ar{fill:url(#ao);}.as{fill:url(#ap);}.at{fill:url(#aq);}.au{fill:url(#ar);}.av{fill:url(#as);}.aw{fill:url(#at);}.ax{fill:url(#au);}.ay,.az{opacity:0.41;}.ay{fill:url(#av);}.az{fill:url(#aw);}.ba{fill:url(#ax);}.bb{fill:url(#ay);}</style><linearGradient id="a" x1="1.182" y1="0.254" x2="0.45" y2="0.5" gradientUnits="objectBoundingBox"><stop offset="0" stop-opacity="0"/><stop offset="0.97"/></linearGradient><linearGradient id="b" x1="-0.038" y1="0.488" x2="5.186" y2="0.566" xlink:href="#a"/><linearGradient id="c" x1="0.5" y1="-0.141" x2="0.5" y2="1.657" xlink:href="#a"/><linearGradient id="d" x1="0.634" y1="-0.183" x2="-0.421" y2="5.478" xlink:href="#a"/><linearGradient id="e" y1="0.5" x2="1" y2="0.5" gradientUnits="objectBoundingBox"><stop offset="0" stop-color="#ecc4d7"/><stop offset="0.42" stop-color="#efd4d1"/><stop offset="1" stop-color="#f2eac9"/></linearGradient><linearGradient id="f" x1="-0.001" y1="0.5" x2="1" y2="0.5" xlink:href="#e"/><linearGradient id="g" x1="0.46" y1="-0.659" x2="0.521" y2="1.109" gradientUnits="objectBoundingBox"><stop offset="0" stop-color="#fff" stop-opacity="0"/><stop offset="0.84" stop-color="#fff" stop-opacity="0.839"/><stop offset="0.97" stop-color="#fff"/></linearGradient><linearGradient id="h" x1="0.47" y1="-0.637" x2="0.51" y2="1.097" xlink:href="#g"/><linearGradient id="i" x1="0.494" y1="-0.265" x2="0.526" y2="1.943" xlink:href="#a"/><linearGradient id="j" x1="0.629" y1="0.388" x2="0.012" y2="1.378" xlink:href="#a"/><linearGradient id="k" x1="0.628" y1="-0.008" x2="0.175" y2="2.156" xlink:href="#a"/><linearGradient id="l" x1="0.588" y1="-0.025" x2="0.305" y2="1.792" xlink:href="#a"/><linearGradient id="m" x1="0.475" y1="-0.193" x2="0.522" y2="1.144" xlink:href="#a"/><linearGradient id="n" x1="0" y1="0.5" x2="1" y2="0.5" xlink:href="#a"/><linearGradient id="o" x1="0.407" y1="0.523" x2="1.376" y2="0.796" xlink:href="#e"/><linearGradient id="p" x1="-0.815" y1="0.461" x2="7.054" y2="0.692" xlink:href="#a"/><linearGradient id="q" x1="0.5" y1="-0.141" x2="0.5" y2="1.658" xlink:href="#a"/><linearGradient id="r" x1="0.533" y1="0.913" x2="0.452" y2="-0.253" xlink:href="#g"/><linearGradient id="s" x1="0.516" y1="0.685" x2="0.422" y2="-0.132" gradientUnits="objectBoundingBox"><stop offset="0" stop-color="#fff" stop-opacity="0"/><stop offset="0.69" stop-color="#fff" stop-opacity="0.58"/><stop offset="0.84" stop-color="#fff" stop-opacity="0.839"/><stop offset="0.97" stop-color="#fff"/></linearGradient><linearGradient id="t" x1="0.619" y1="0.54" x2="1.988" y2="0.795" xlink:href="#a"/><linearGradient id="u" x1="0.078" y1="0.564" x2="1.489" y2="0.322" xlink:href="#g"/><linearGradient id="v" x1="0.225" y1="0.448" x2="2.166" y2="0.6" xlink:href="#g"/><linearGradient id="w" x1="0.822" y1="0.323" x2="-0.495" y2="0.673" xlink:href="#g"/><linearGradient id="x" x1="0.005" y1="0.5" x2="1.002" y2="0.5" xlink:href="#e"/><linearGradient id="y" x1="0.255" y1="0.505" x2="4.609" y2="0.345" xlink:href="#a"/><linearGradient id="z" x1="0.489" y1="-0.673" x2="0.506" y2="1.131" xlink:href="#g"/><linearGradient id="aa" x1="0.473" y1="0.237" x2="0.561" y2="1.237" xlink:href="#g"/><linearGradient id="ab" x1="1.513" y1="0.492" x2="-14.509" y2="0.646" xlink:href="#a"/><linearGradient id="ac" x1="1.274" y1="-0.425" x2="-0.861" y2="2.815" xlink:href="#g"/><linearGradient id="ad" x1="1.002" y1="0.494" x2="-11.868" y2="0.614" xlink:href="#a"/><linearGradient id="ae" x1="1.262" y1="-0.436" x2="-0.808" y2="2.879" xlink:href="#g"/><linearGradient id="af" x1="1.154" y1="0.522" x2="-12.577" y2="0.687" xlink:href="#a"/><linearGradient id="ag" x1="0.952" y1="-0.433" x2="-0.472" y2="2.857" xlink:href="#g"/><linearGradient id="ah" x1="1.27" y1="0.547" x2="-12.182" y2="0.792" xlink:href="#a"/><linearGradient id="ai" x1="0.389" y1="-0.377" x2="1.756" y2="9.213" xlink:href="#a"/><linearGradient id="aj" x1="0.424" y1="0.458" x2="2.068" y2="1.145" xlink:href="#a"/><linearGradient id="ak" x1="0.58" y1="0.019" x2="0.069" y2="2.961" xlink:href="#a"/><linearGradient id="al" x1="0.783" y1="0.082" x2="-0.995" y2="2.308" xlink:href="#a"/><linearGradient id="am" x1="0.757" y1="0.473" x2="-3.54" y2="0.937" xlink:href="#a"/><linearGradient id="an" x1="0.546" y1="0.14" x2="-0.192" y2="3.246" xlink:href="#a"/><linearGradient id="ao" x1="0.634" y1="-0.189" x2="0.378" y2="1.271" xlink:href="#g"/><linearGradient id="ap" x1="0.486" y1="-0.632" x2="0.507" y2="1.104" xlink:href="#g"/><linearGradient id="aq" x1="0.471" y1="-0.664" x2="0.517" y2="1.11" xlink:href="#g"/><linearGradient id="ar" x1="0.681" y1="0.499" x2="-6.468" y2="0.567" xlink:href="#a"/><linearGradient id="as" x1="1.057" y1="0.567" x2="-0.279" y2="0.418" xlink:href="#g"/><linearGradient id="at" x1="1.716" y1="0.524" x2="-7.891" y2="0.307" xlink:href="#a"/><linearGradient id="au" x1="2.145" y1="0.454" x2="-6.71" y2="0.782" xlink:href="#a"/><linearGradient id="av" x1="0" y1="0.5" x2="1" y2="0.5" xlink:href="#a"/><linearGradient id="aw" x1="0.5" y1="-0.141" x2="0.5" y2="1.657" xlink:href="#a"/><linearGradient id="ax" x1="0.5" y1="-0.536" x2="0.5" y2="6.978" xlink:href="#a"/><linearGradient id="ay" x1="0.498" y1="-0.983" x2="0.509" y2="8.86" xlink:href="#a"/></defs><g transform="translate(-0.016)"><path class="a" d="M87.441,57.7c-5.382,7.971-6.955,18.628-14.363,24.766-4.661,3.877-10.865,5.225-16.283,7.948a35.761,35.761,0,0,0-18.937,35.5c.794,6.309,3.314,12.406,3.231,18.766-.134,9.185-5.654,17.455-7.029,26.543C32.116,184.093,38.7,196.753,46.7,207.031c4.74,6.088,10.394,11.958,17.751,14.308,6.055,1.925,12.586,1.242,18.923,1.62,13.135.775,25.518,6.106,38.331,9.129s27.448,3.365,37.883-4.657c4.786-3.692,8.4-8.935,13.772-11.7,4.177-2.142,8.991-2.557,13.648-3.138,12.78-1.588,26.575-5.515,33.692-16.246,5.174-7.8,5.769-17.815,4.578-27.1s-3.978-18.323-4.971-27.632c-2.275-21.365,5-42.891,2.718-64.25-1.011-9.406-4.1-19-10.971-25.518-9.009-8.575-22.463-10.154-34.892-10.518-14.681-.411-29.372.309-44.04,1.029C117.561,43.121,97.115,43.375,87.441,57.7Z" transform="translate(-33.7 -22.223)"/><path class="b" d="M157.52,191.251l1.232-6.821s.392-1.638-.614-2.012-6.161-1.237-6.161-1.237-1.085.3-1.02,1.038S149,195.64,149,195.64s.042.383.651.752,5.2.808,5.2.808,1.3-.531,1.431-.808S157.52,191.251,157.52,191.251Z" transform="translate(-95.776 -97.591)"/><path class="c" d="M157.52,191.251l1.232-6.821s.392-1.638-.614-2.012-6.161-1.237-6.161-1.237-1.085.3-1.02,1.038S149,195.64,149,195.64s.042.383.651.752,5.2.808,5.2.808,1.3-.531,1.431-.808S157.52,191.251,157.52,191.251Z" transform="translate(-95.776 -97.591)"/><path class="b" d="M84.033,212.62s-10.615,13.163-11.681,24.249,5.954,22.357,5.954,22.357h5.728l-1.288-16.292Z" transform="translate(-54.444 -114.52)"/><path class="d" d="M84.033,212.62s-10.615,13.163-11.681,24.249,5.954,22.357,5.954,22.357h5.728l-1.288-16.292Z" transform="translate(-54.444 -114.52)"/><path class="e" d="M81.953,235.21s-5.811,8.432-4.9,18.568,4.735,14.308,4.735,14.308l1.242-3.383Z" transform="translate(-56.985 -126.684)"/><path class="b" d="M156.334,190.771l1.251-6.821s.392-1.638-.614-2.012S150.8,180.7,150.8,180.7s-1.08.3-1.015,1.038-1.989,13.408-1.989,13.408.042.383.651.752,5.2.808,5.2.808,1.3-.531,1.431-.808S156.334,190.771,156.334,190.771Z" transform="translate(-95.13 -97.333)"/><path class="f" d="M156.621,191.03l1.066-5.889s.337-1.417-.531-1.74-5.322-1.071-5.322-1.071-.923.263-.882.9-1.7,11.6-1.7,11.6.037.328.563.651a28.571,28.571,0,0,0,4.491.692s1.122-.462,1.232-.692S156.621,191.03,156.621,191.03Z" transform="translate(-95.911 -98.21)"/><path class="g" d="M85.512,391.568c.591,3,.425,6.222,1.92,8.889,1.417.462,2.248-1.555,2.368-3.037l3.475-43c.291-3.6-3.055-6.392-6.462-4.2-3.125,2.012-2.266,7.274-2.257,10.352C84.584,370.932,81.93,373.355,85.512,391.568Z" transform="translate(-60.58 -188.196)"/><path class="h" d="M110.559,391.783a25.084,25.084,0,0,0,1.846,8.169c.166.355.4.734.78.817.72.148,1.108-.808,1.2-1.532a320.25,320.25,0,0,0,2.566-37.551c0-2.488-.028-5.141-1.385-7.218s-5.908-3.531-7.8-1.329,0,9.3.245,11.945Q109.11,378.445,110.559,391.783Z" transform="translate(-73.129 -189.593)"/><rect class="b" width="105.433" height="180.465" rx="46.19" transform="translate(75.913)"/><rect class="i" width="94.675" height="162.045" rx="41.47" transform="translate(81.622 5.594)"/><path class="a" d="M251.625,82.686a14.428,14.428,0,0,1-1.966,3.088c-1.565,1.726-3.854,2.589-5.668,4.048s-3.152,4.117-1.9,6.078c.6.946,1.68,1.5,2.391,2.363,1.9,2.308.628,5.806,1.242,8.737.711,3.365,4.071,5.751,7.5,6a13.453,13.453,0,0,0,9.415-3.5,31.08,31.08,0,0,1,2.917-2.432c1.038-.678,2.211-1.135,3.231-1.818a8.737,8.737,0,0,0,3.84-6.992c.032-1.551-.36-3.074-.462-4.615-.185-2.308.226-4.615-.046-6.923s-1.468-4.726-3.665-5.442c-.854-.282-1.777-.272-2.649-.489-1.874-.462-3.309-1.934-4.925-3C255.7,74.36,253.744,78.648,251.625,82.686Z" transform="translate(-145.639 -41.245)"/><path class="a" d="M355.438,114.749a14.308,14.308,0,0,1-.785-3.577c-.106-2.308.923-4.551,1.163-6.863s-.674-5.142-2.945-5.649c-1.1-.245-2.243.125-3.36,0-2.986-.3-4.542-3.692-7.048-5.317-2.875-1.883-6.923-1.2-9.549,1.029a13.341,13.341,0,0,0-4.2,9.129,31.351,31.351,0,0,1-.351,3.78c-.254,1.214-.766,2.358-1.015,3.577a8.714,8.714,0,0,0,2.211,7.662,45.228,45.228,0,0,0,3.6,2.935c1.754,1.5,3.106,3.443,4.92,4.878s4.375,2.308,6.434,1.269c.8-.406,1.449-1.062,2.225-1.523,1.662-.988,3.692-.965,5.608-1.348C358.428,123.518,356.785,119.092,355.438,114.749Z" transform="translate(-191.722 -49.705)"/><path class="a" d="M260.289,276.219a15.231,15.231,0,0,1,1.112-3.725c1.1-2.211,3.18-3.762,4.615-5.774s2.022-5.114.171-6.752c-.891-.794-2.146-1.038-3.125-1.722-2.612-1.814-2.308-5.741-3.8-8.557-1.7-3.231-5.825-4.685-9.392-3.955a14.135,14.135,0,0,0-8.594,6.3A33.059,33.059,0,0,1,239,255.362c-.858,1-1.925,1.8-2.769,2.8a9.272,9.272,0,0,0-1.892,8.252,47.358,47.358,0,0,0,1.846,4.574c.854,2.308,1.112,4.8,2.054,7.057s2.871,4.4,5.322,4.491c.955.037,1.892-.24,2.843-.272,2.054-.06,3.942,1.015,5.9,1.634C258.554,285.911,259.3,280.945,260.289,276.219Z" transform="translate(-141.573 -132.252)"/><path class="a" d="M259.96,196.607a12.373,12.373,0,0,1,1.048-3c.978-1.772,2.737-2.963,3.983-4.56s1.846-4.108.388-5.538a26.013,26.013,0,0,0-2.492-1.523c-2.072-1.583-1.694-4.782-2.8-7.14-1.269-2.7-4.592-4.048-7.537-3.582a11.653,11.653,0,0,0-7.26,4.851,27.082,27.082,0,0,1-1.98,2.635c-.738.785-1.643,1.385-2.377,2.188a7.583,7.583,0,0,0-1.846,6.678c.286,1.32.923,2.529,1.334,3.812.614,1.911.734,3.965,1.426,5.852s2.183,3.692,4.186,3.863c.78.065,1.555-.125,2.335-.115,1.68.028,3.189.974,4.768,1.555C258.183,204.467,258.977,200.447,259.96,196.607Z" transform="translate(-144.198 -92.203)"/><path class="a" d="M321.027,188.688a12.758,12.758,0,0,1-.535,3.263c-.711,2.026-2.386,3.692-3.42,5.626s-1.177,4.583.683,5.538a30.74,30.74,0,0,0,3.018.8c2.566.974,2.769,4.242,4.472,6.254,1.925,2.308,5.8,2.691,8.917,1.385a14.24,14.24,0,0,0,6.923-6.845,31.524,31.524,0,0,1,1.625-3.166c.646-.983,1.5-1.846,2.146-2.834a7.385,7.385,0,0,0,.669-7.075,34.916,34.916,0,0,0-2.215-3.383c-1.052-1.712-1.592-3.692-2.718-5.372a5.46,5.46,0,0,0-5.331-2.631c-.858.157-1.666.568-2.515.78-1.846.462-3.66-.055-5.492-.18C321.382,180.431,321.322,184.622,321.027,188.688Z" transform="translate(-185.871 -97.05)"/><path class="a" d="M344.2,289.234a14.671,14.671,0,0,1,1.2-3.582c1.135-2.114,3.208-3.549,4.657-5.46s2.128-4.9.388-6.549c-.845-.8-2.054-1.075-2.982-1.772-2.478-1.846-2.072-5.649-3.42-8.428-1.546-3.185-5.506-4.735-9-4.154s-6.462,2.977-8.538,5.852A33.968,33.968,0,0,1,324.2,268.3c-.868.923-1.929,1.685-2.792,2.626a9,9,0,0,0-2.1,7.952c.355,1.555,1.126,2.986,1.634,4.5.762,2.262.923,4.689,1.772,6.923s2.649,4.362,5.026,4.528c.923.065,1.846-.171,2.769-.171,1.994,0,3.794,1.108,5.672,1.777C342.2,298.576,343.084,293.8,344.2,289.234Z" transform="translate(-187.367 -139.586)"/><path class="j" d="M297.7,103.24l.406.891s-.549,1.606-1.385,1.818-.923.065-.923.065l-.245-.36A2.926,2.926,0,0,0,297.7,103.24Z" transform="translate(-174.688 -55.623)"/><path class="b" d="M272.855,89.235a3.356,3.356,0,0,0,1.625.046,9.821,9.821,0,0,1,2.455-.046,2.754,2.754,0,0,1-2.8,1.269C272.356,90.093,272.855,89.235,272.855,89.235Z" transform="translate(-162.433 -48.052)"/><path class="k" d="M272.855,89.235a3.356,3.356,0,0,0,1.625.046,9.821,9.821,0,0,1,2.455-.046,2.754,2.754,0,0,1-2.8,1.269C272.356,90.093,272.855,89.235,272.855,89.235Z" transform="translate(-162.433 -48.052)"/><path class="b" d="M276.029,187.52s.517,3.12,1.772,3.9,3.549,2.308,3.549,2.308L275,194.2Z" transform="translate(-163.623 -101.005)"/><path class="l" d="M276.029,187.52s.517,3.12,1.772,3.9,3.549,2.308,3.549,2.308L275,194.2Z" transform="translate(-163.623 -101.005)"/><path class="b" d="M254.362,184.89s-.512,4.5,2,4.334,4.057-3.462,4.057-3.462L262.9,191l-1.648,3.942-9.614,1.537-1.818-3.692Z" transform="translate(-150.064 -99.589)"/><path class="m" d="M254.362,184.89s-.512,4.5,2,4.334,4.057-3.462,4.057-3.462L262.9,191l-1.648,3.942-9.614,1.537-1.818-3.692Z" transform="translate(-150.064 -99.589)"/><path class="b" d="M354.142,268.936c2.635.831,1.334,4.154,1.334,4.154l-12.226-3.785S347.644,266.882,354.142,268.936Z" transform="translate(-200.373 -144.4)"/><path class="n" d="M354.142,268.936c2.635.831,1.334,4.154,1.334,4.154l-12.226-3.785S347.644,266.882,354.142,268.936Z" transform="translate(-200.373 -144.4)"/><path class="b" d="M342.294,264.258l-.817-5.054a.42.42,0,0,1,.351-.462h0a.415.415,0,0,1,.485.346l.812,5.077a.415.415,0,0,1-.369.462h0a.415.415,0,0,1-.462-.369Z" transform="translate(-199.417 -139.352)"/><path class="b" d="M360.254,264.754l.8-5.049a.425.425,0,0,1,.485-.351h0a.425.425,0,0,1,.351.485l-.812,5.049a.42.42,0,0,1-.508.346h0A.425.425,0,0,1,360.254,264.754Z" transform="translate(-209.526 -139.682)"/><path class="b" d="M258.78,254.1A6.462,6.462,0,0,1,264,252.718c3.231.522,3.743,1.846,3.743,1.846l-2.363.688s-3.877-1.385-5.238.674Z" transform="translate(-154.889 -136.06)"/><path class="o" d="M258.78,254.1A6.462,6.462,0,0,1,264,252.718c3.231.522,3.743,1.846,3.743,1.846l-2.363.688s-3.877-1.385-5.238.674Z" transform="translate(-154.889 -136.06)"/><path class="b" d="M265.876,257.375a189.267,189.267,0,0,0,3.1,24.651c.254,1.325.337,3.051-.872,3.637a3.078,3.078,0,0,1-1.588.162c-2.234-.166-4.7-.438-6.212-2.1a8.458,8.458,0,0,1-1.708-4.311,72.926,72.926,0,0,1-1.122-16c.074-1.846.12-5.008,1.911-6.189C260.2,256.692,265.834,256.683,265.876,257.375Z" transform="translate(-154.152 -138.331)"/><path class="p" d="M265.876,257.375a189.267,189.267,0,0,0,3.1,24.651c.254,1.325.337,3.051-.872,3.637a3.078,3.078,0,0,1-1.588.162c-2.234-.166-4.7-.438-6.212-2.1a8.458,8.458,0,0,1-1.708-4.311,72.926,72.926,0,0,1-1.122-16c.074-1.846.12-5.008,1.911-6.189C260.2,256.692,265.834,256.683,265.876,257.375Z" transform="translate(-154.152 -138.331)"/><path class="q" d="M114.567,163.443c-.088,1.8-.42,9.231-1.818,10.38-1.3,1.052-3.512.522-4.518,1.846-.923,1.246-1,3.106-1.232,4.643-.1.646-1.5-.743-2.017-.346-.923.711-4.449,1.662-4.255.522a13.494,13.494,0,0,0,.12-4.44l-.923-6.162a30.855,30.855,0,0,1-.462-8.511,10.484,10.484,0,0,1,3.955-7.3c3.231-2.308,6.171-.388,8.174,2.474C113.4,159.132,114.705,160.48,114.567,163.443Z" transform="translate(-69.023 -82.443)"/><path class="r" d="M84.434,144.074c-2.912,1.68-4.362,5.1-4.934,8.418s-.462,6.729-1.218,10-2.645,6.577-5.8,7.74A24.3,24.3,0,0,0,78.3,172.49a8.822,8.822,0,0,0,6.074-.688l-.268,1.26c2.142-.12,4.375-.263,6.217-1.362,2.432-1.454,3.692-4.269,4.389-7.011,1.265-4.952,1.2-10.154,1.075-15.231a8.825,8.825,0,0,0-.425-2.977C93.872,142.675,87.452,142.329,84.434,144.074Z" transform="translate(-54.573 -77.068)"/><path class="r" d="M124.229,147.413a3.761,3.761,0,0,1,1.343,1.385,5.321,5.321,0,0,1,.429,1.957,14.814,14.814,0,0,1,.046,3.291,4.957,4.957,0,0,1-1.362,2.935,7.384,7.384,0,0,1-2.492,1.385l.342-1.6-1.846,1.662a1.92,1.92,0,0,1,.286-1.218l-1.758.84a21.429,21.429,0,0,0,.078-5.354c-.185-1.685-1.025-1.948-2.109-3.009-.965-.923-1.1-1.657.06-2.451C119.244,145.871,122.3,146.213,124.229,147.413Z" transform="translate(-78.233 -78.838)"/><path class="b" d="M100.735,210.621c.831.582,1.569,1.292,2.4,1.878a4.55,4.55,0,0,1,1.385,1.223,37.847,37.847,0,0,1,1.574,5.7c.042,1.846-1.2-.208-1.223,1.648l-.374,25.158a6.341,6.341,0,0,1-.531,3.028c-.84,1.569-2.769,2.169-4.5,2.52a43.992,43.992,0,0,1-7.034.831,8.926,8.926,0,0,1-3.134-.291,6.622,6.622,0,0,1-3.882-4.052,17.847,17.847,0,0,1-.923-5.7c-.462-9.4-.138-19.071,3.411-27.785.817-2.012,2.4-4.712,4.56-5.538C95.067,208.235,98.533,209.084,100.735,210.621Z" transform="translate(-60.955 -112.466)"/><path class="s" d="M116.835,234.252s-1.3.309-1.735,5.594,2.511,24.217-1.56,25.1c0,0,3.8.4,5.409-1.477s1.385-11.58,1.385-11.58V233.43Z" transform="translate(-76.682 -125.726)"/><path class="b" d="M105.536,323.811c-2.409-8.769-5.848-18.037-9.009-26.561a.226.226,0,0,1-.046.235c-.4.526-2.718.923-4.288,1.3h-.069l-.272.065c-4.708,1.163-7.26.766-11.94-.5-2.917,7.8-5.608,15.988-8.525,23.783a1.288,1.288,0,0,0-.111.794,1.251,1.251,0,0,0,.489.563l2.266,1.749c.217-.646.462-1.3.66-1.943-.106,1.915-1.292,4.952-1.385,6.868l.042.037a1.625,1.625,0,0,0,.7.378c1.482.406,3.923-.618,5.243,0,1.578.743,3.725,1.089,4.855-.235h0c-.337,1.052-.328,2.645.771,2.792a2.363,2.363,0,0,0,1.385-.462c2.155-1.181,4.772-.886,7.232-.923,2.225-.023,4.731-.54,6.046-2.238a1.241,1.241,0,0,0,.891,1.154,3.387,3.387,0,0,0,2.243-.678,5.178,5.178,0,0,1,.665-.318,1.731,1.731,0,0,0,1.048-1.735,2.982,2.982,0,0,1,0-.406h0a.9.9,0,0,0,1.638-.462A11.123,11.123,0,0,0,105.536,323.811Zm-5.612,5.109a.641.641,0,0,0-.277.277C99.527,329.05,99.776,328.791,99.924,328.921Zm-.162.332a2.6,2.6,0,0,0,.185-.309c.106.12-.046.3-.194.309Z" transform="translate(-53.914 -160.091)"/><path class="t" d="M105.536,323.811c-2.409-8.769-5.848-18.037-9.009-26.561a.461.461,0,0,1-.046.235c-.351.775-2.663.955-4.288,1.3h-.069l-.272.065c-4.708,1.163-7.209.517-11.889-.748-2.917,7.8-5.658,16.251-8.575,24.046a1.288,1.288,0,0,0-.111.794,1.251,1.251,0,0,0,.489.563l2.266,1.749c.217-.646.462-1.3.66-1.943-.106,1.915-1.292,4.952-1.385,6.868l.042.037a3.185,3.185,0,0,0,.7.378c1.482.406,3.923-.618,5.243,0,1.625-.4,3.558.974,4.717-.088a1.388,1.388,0,0,0,.143-.143c-.337,1.052-.328,2.645.771,2.792a2.364,2.364,0,0,0,1.385-.462c2.155-1.182,4.772-.886,7.232-.923,2.225-.023,4.731-.54,6.046-2.238a1.241,1.241,0,0,0,.891,1.154,3.387,3.387,0,0,0,2.243-.678,5.191,5.191,0,0,1,.665-.318,1.615,1.615,0,0,0,1.052-1.629,3.8,3.8,0,0,1,0-.512h0a.9.9,0,0,0,1.638-.462A11.123,11.123,0,0,0,105.536,323.811Z" transform="translate(-53.914 -160.091)"/><path class="b" d="M88.008,446.269c-.582,0-1.3,0-1.583.508a1.551,1.551,0,0,0-.1.872l.4,5.248a2.794,2.794,0,0,0,.711,2.008,2.082,2.082,0,0,0,1.209.406,6.531,6.531,0,0,0,2.862-.632,2,2,0,0,0,.978-.692,2.072,2.072,0,0,0,.189-1.186c-.046-1.385-.12-2.792-.208-4.186-.055-.886,0-2.562-1.029-2.811C90.542,445.59,89.014,446.278,88.008,446.269Z" transform="translate(-62.015 -240.059)"/><path class="b" d="M113.723,447.188a18.623,18.623,0,0,0,.365,6.831,1.8,1.8,0,0,0,.309.729,1.707,1.707,0,0,0,1.385.461,8.6,8.6,0,0,0,3.148-.66,1.07,1.07,0,0,0,.462-.3,1.112,1.112,0,0,0,.134-.748l-.222-3.642c-.055-.863.134-2.262-.415-3-.462-.623-1.126-.586-1.846-.489A25.341,25.341,0,0,0,113.723,447.188Z" transform="translate(-76.694 -240.36)"/><path class="u" d="M88.008,446.269c-.582,0-1.3,0-1.583.508a1.551,1.551,0,0,0-.1.872l.4,5.248a2.794,2.794,0,0,0,.711,2.008,2.082,2.082,0,0,0,1.209.406,6.531,6.531,0,0,0,2.862-.632,2,2,0,0,0,.978-.692,2.072,2.072,0,0,0,.189-1.186c-.046-1.385-.12-2.792-.208-4.186-.055-.886,0-2.562-1.029-2.811C90.542,445.59,89.014,446.278,88.008,446.269Z" transform="translate(-62.015 -240.059)"/><path class="v" d="M113.723,447.188a18.623,18.623,0,0,0,.365,6.831,1.8,1.8,0,0,0,.309.729,1.707,1.707,0,0,0,1.385.461,8.6,8.6,0,0,0,3.148-.66,1.07,1.07,0,0,0,.462-.3,1.112,1.112,0,0,0,.134-.748l-.222-3.642c-.055-.863.134-2.262-.415-3-.462-.623-1.126-.586-1.846-.489A25.341,25.341,0,0,0,113.723,447.188Z" transform="translate(-76.694 -240.36)"/><path class="r" d="M86.265,468.07a.822.822,0,0,0,.245.425.863.863,0,0,0,.369.129,19.485,19.485,0,0,0,9.494-.651c1.14-.374,2.428-1.094,2.474-2.308a2.769,2.769,0,0,0-.711-1.717,8.345,8.345,0,0,0-4.74-2.954,2.718,2.718,0,0,0-2.072.208c-.3.2-.531.508-.826.725-1.145.854-3.12.083-4.1,1.1S85.859,466.828,86.265,468.07Z" transform="translate(-61.749 -248.199)"/><path class="r" d="M112.558,466.58a2.275,2.275,0,0,0,.508,1.343,2.238,2.238,0,0,0,1.551.462,24.673,24.673,0,0,0,9.462-1.542,5.718,5.718,0,0,0,2.091-1.181,2.308,2.308,0,0,0,.706-2.2c-.268-.946-1.255-1.477-2.16-1.874q-1.546-.688-3.138-1.269a4.737,4.737,0,0,0-1.823-.4c-1.191.055-2.1.923-3.175,1.288a7.351,7.351,0,0,1-2.908.051C111.367,461.217,112.369,465.062,112.558,466.58Z" transform="translate(-75.949 -247.682)"/><path class="b" d="M250.772,186.507a4.767,4.767,0,0,0,.512,2.838,3.092,3.092,0,0,0,4.214.558,5.037,5.037,0,0,0,1.883-4.154,14.846,14.846,0,0,0-1-4.615l2.622-.245a44.8,44.8,0,0,0,.628,6.512,4.127,4.127,0,0,0,.669,1.883c.923,1.186,2.714,1.085,4.2.868l-.379,15.632-18.974.065-1.385-11.562a2.276,2.276,0,0,1,.083-1.246,2.912,2.912,0,0,1,1.038-.983A8.677,8.677,0,0,0,248,187.241a35.14,35.14,0,0,0,.517-5.142c.411-.425,1.352-.342,2.608-.378C251.082,183.3,250.846,184.905,250.772,186.507Z" transform="translate(-146.78 -97.435)"/><path class="w" d="M250.772,186.507a4.767,4.767,0,0,0,.512,2.838,3.092,3.092,0,0,0,4.214.558,5.037,5.037,0,0,0,1.883-4.154,14.846,14.846,0,0,0-1-4.615l2.622-.245a44.8,44.8,0,0,0,.628,6.512,4.127,4.127,0,0,0,.669,1.883c.923,1.186,2.714,1.085,4.2.868l-.379,15.632-18.974.065-1.385-11.562a2.276,2.276,0,0,1,.083-1.246,2.912,2.912,0,0,1,1.038-.983A8.677,8.677,0,0,0,248,187.241a35.14,35.14,0,0,0,.517-5.142c.411-.425,1.352-.342,2.608-.378C251.082,183.3,250.846,184.905,250.772,186.507Z" transform="translate(-146.78 -97.435)"/><path class="b" d="M332.075,273.82c-.258,2.308,1.565,4.242,2.308,6.425a8.728,8.728,0,0,1-.517,6.434,14.743,14.743,0,0,1-4.154,5.077.983.983,0,0,0-.462.623.923.923,0,0,0,.125.461c1.385,2.769,4.417,4.375,7.463,4.837a28.387,28.387,0,0,0,9.18-.6c2.252-.4,4.675-.923,6.194-2.622-3.378-4.518-6.374-10.011-5.28-15.545a26.055,26.055,0,0,0,.988-4.8c.037-4.9-4.385-2.958-7.385-3.775S332.536,269.736,332.075,273.82Z" transform="translate(-192.834 -145.393)"/><path class="x" d="M352.211,294.393c-1.518,1.712-3.941,2.22-6.194,2.622a28.257,28.257,0,0,1-9.18.6,11.718,11.718,0,0,1-3.96-1.334,9.253,9.253,0,0,1-2.146-1.615,7.677,7.677,0,0,1-1.357-1.888.923.923,0,0,1-.125-.462.983.983,0,0,1,.462-.623,14.742,14.742,0,0,0,4.154-5.077,8.728,8.728,0,0,0,.517-6.434c-.6-1.754-1.9-3.36-2.248-5.114a4.08,4.08,0,0,1-.065-1.3,3.951,3.951,0,0,1,.84-2.1,5.348,5.348,0,0,1,3.609-1.722,10.816,10.816,0,0,1,4.038.309c2.991.817,7.412-1.122,7.385,3.775a10.859,10.859,0,0,1-.462,2.769h0c-.18.665-.374,1.334-.508,2.008C345.856,284.378,348.851,289.87,352.211,294.393Z" transform="translate(-192.834 -145.349)"/><path class="b" d="M243.075,257.57a14.333,14.333,0,0,0-2.742,4.685,101.2,101.2,0,0,0-5.663,18.434l5.266,1.385a1.385,1.385,0,0,0,.868.046c.508-.2.618-.854.651-1.385l.582-9.891.055,12.332a1.311,1.311,0,0,0,.923,1.463c1.846.965,3.761,1.952,5.834,1.915.134,0-.522-17.538-.6-19.14-.157-3.231-.245-6.462-.554-9.665C247.418,254.686,244.791,255.826,243.075,257.57Z" transform="translate(-141.906 -137.793)"/><path class="y" d="M243.075,257.57a14.333,14.333,0,0,0-2.742,4.685,101.2,101.2,0,0,0-5.663,18.434l5.266,1.385a1.385,1.385,0,0,0,.868.046c.508-.2.618-.854.651-1.385l.582-9.891.055,12.332a1.311,1.311,0,0,0,.923,1.463c1.846.965,3.761,1.952,5.834,1.915.134,0-.522-17.538-.6-19.14-.157-3.231-.245-6.462-.554-9.665C247.418,254.686,244.791,255.826,243.075,257.57Z" transform="translate(-141.906 -137.793)"/><path class="b" d="M273.9,287.651a25.463,25.463,0,0,0,6.868-3.858,1.209,1.209,0,0,0,.54-1.482L279.429,270.7a107.532,107.532,0,0,0,2.792,11.34l5.506-2.257a42.843,42.843,0,0,0-3.254-10.841,30.925,30.925,0,0,0-4.7-8.6c-1.32-1.542-4.883-4.957-7.154-3.554-2.174,1.343-1.306,6.734-1.255,8.857C271.407,267.579,274,287.628,273.9,287.651Z" transform="translate(-161.548 -138.123)"/><path class="z" d="M273.9,287.651a25.463,25.463,0,0,0,6.868-3.858,1.209,1.209,0,0,0,.54-1.482L279.429,270.7a107.532,107.532,0,0,0,2.792,11.34l5.506-2.257a42.843,42.843,0,0,0-3.254-10.841,30.925,30.925,0,0,0-4.7-8.6c-1.32-1.542-4.883-4.957-7.154-3.554-2.174,1.343-1.306,6.734-1.255,8.857C271.407,267.579,274,287.628,273.9,287.651Z" transform="translate(-161.548 -138.123)"/><path class="b" d="M269.091,118.095a.319.319,0,0,0-.115,0,1.122,1.122,0,0,0-.637.328l-.212.157a4.952,4.952,0,0,1-6-.355,2.571,2.571,0,0,1-4.726.425,2.7,2.7,0,0,1-3.582,1,2.049,2.049,0,0,0-.974-.429c-.4,0-.711.337-1.038.572a2.691,2.691,0,0,1-3.914-1.288,2.987,2.987,0,0,1-2.963.845,22.19,22.19,0,0,1-2.238-.655,7.614,7.614,0,0,0-.891-.222c2.183-4.209,5.538-8.238,7.385-12.568.609-1.458,1.385-2.225,1.675-3.771.175-.923-.9-3.923-.678-5.178a.669.669,0,0,1,.291-.508c-.923.508-1.846.586-2.709,1.1,0,0-2.28-2.483-2.165-3.54,1.962-1.015,3.771-2.515,5.728-3.531.355-.185,3.909-.923,4.638-.614a3.866,3.866,0,0,0,3.148.291,5.769,5.769,0,0,1,1.735-.175,9.315,9.315,0,0,1,6.111,2.949c.531.637,1.846,2.4,1.846,3.231s-1.357,2.354-2.178,2.243c-.66-.66-1.874-1.237-2.589-1.846-.4,2.571-.54,3.485-.923,6.051a4.5,4.5,0,0,0-.065,1.551,4.7,4.7,0,0,0,.355,1.011Q266.225,111.638,269.091,118.095Z" transform="translate(-145.746 -48.38)"/><path class="b" d="M301.17,151.526a.151.151,0,0,1-.032.06l-.023-.051-.185-.415C301.105,151.185,301.239,151.374,301.17,151.526Z" transform="translate(-177.585 -81.405)"/><path class="b" d="M118.345,219.484c1.385-.309,2.534-.978,3.014.365.789,2.2,2.414,7.149,3.877,9.48,1.385,2.192,2.917,4.269,3.918,5.561a1.057,1.057,0,0,0,1.8-.2l1.878-7.075,6.106,9.618s-4.675,10.154-7.537,10.523c-4.8.651-13.514-15.692-13.514-15.692S110.573,221.187,118.345,219.484Z" transform="translate(-77.343 -117.978)"/><path class="aa" d="M152.877,218.7l.508-9.812L152,205.7s.388-1.186,1.385-.628,1.426,3.092,3.051,1.08a12.637,12.637,0,0,0,2.146-3.637s.323.065.388,1.3a16.563,16.563,0,0,1,0,2.017L159,207.26a12.09,12.09,0,0,1-.923,3.346c-.572.877-1.5.877-1.625,3.088s.226,10.985.226,10.985Z" transform="translate(-97.392 -109.082)"/><path class="ab" d="M337.164,295.6a40.921,40.921,0,0,0-4.246,6.725l-2.146-1.615a7.676,7.676,0,0,1-1.357-1.888.923.923,0,0,1-.125-.462.983.983,0,0,1,.462-.623,14.742,14.742,0,0,0,4.154-5.077,8.727,8.727,0,0,0,.517-6.434c-.6-1.754-1.9-3.36-2.248-5.114.111.166,1.888,2.829,2.769,2.894C334.911,284.032,340.542,290.918,337.164,295.6Z" transform="translate(-192.856 -151.4)"/><path class="ac" d="M352.235,274.018a10.855,10.855,0,0,1-.462,2.769h0s.462-2.912-.208-4.4-2.441-1.177-2.7-1.26-2.225.392-3.6-.2-2.192-.512-4.242-.688a5.687,5.687,0,0,0-3.785,1.385,5.348,5.348,0,0,1,3.609-1.722,10.814,10.814,0,0,1,4.038.309C347.85,271.059,352.271,269.121,352.235,274.018Z" transform="translate(-197.131 -145.328)"/><path class="b" d="M344.287,213.4H345.3c.152-1.611-.577-3.157-1.177-4.662a33.119,33.119,0,0,1-2.7-10.431,9.271,9.271,0,0,1,.323-1.518.923.923,0,0,0-.683-.18q-9.489.111-18.988.282c.134.088.489-.074.328-.078s-.263.175-.318.328a46.051,46.051,0,0,0-2.972,16.435c2.769.318,8.22.826,8.474.817C333.27,214.13,338.606,213.512,344.287,213.4Z" transform="translate(-187.379 -105.895)"/><path class="ad" d="M322.591,202.5s-2.04,10.154-1.052,13.823l-2.418-.263s.166-10.089,2.4-14.848Z" transform="translate(-187.38 -108.377)"/><path class="ae" d="M325.152,204l.711.411s-.669,12.268,1.02,13.675l-2.769-.263S323.135,214.154,325.152,204Z" transform="translate(-189.941 -109.879)"/><path class="af" d="M332.995,203.244s-.572,10.482.651,14.068L330.415,217s-.489-10.08,1.431-14.972Z" transform="translate(-193.432 -108.818)"/><path class="ag" d="M335.784,204.66l.743.365s.129,12.286,1.906,13.574l-2,.129S334.971,213.9,335.784,204.66Z" transform="translate(-196.22 -110.234)"/><path class="ah" d="M345.789,202.234s-.577,10.481.646,14.068l-3.54.332s-.175-10.726,1.745-15.614Z" transform="translate(-200.179 -108.274)"/><path class="ai" d="M348.88,203.65l.738.365s1,12.291,2.769,13.583l-2.866.12S348.063,212.895,348.88,203.65Z" transform="translate(-203.27 -109.69)"/><path class="aj" d="M359.261,202.74s-.835,8.483,2.7,14.068l-3.535.332s-2.345-9.508-.429-14.4Z" transform="translate(-207.905 -109.2)"/><path class="ak" d="M361.476,202.74l1.288.166s2.5,12.494,4.274,13.781l-2.866.12S360.659,211.985,361.476,202.74Z" transform="translate(-210.121 -109.2)"/><path class="al" d="M325.93,198.518s14.64.822,19.168,0l.323-1.518-19.343.023Z" transform="translate(-191.047 -106.11)"/><path class="b" d="M352.615,108.939c-.1,8.686-.323,26.6-.5,26.769s-5.506.046-7.823-.042q-.411-10.329-.812-20.658a154.187,154.187,0,0,0-5.317,19.518.7.7,0,0,1-1,.679c-2.386-.485-4.869-1.491-7.163-.678q.66-5.442,1.708-10.837.923-4.832,2.2-9.6a19.083,19.083,0,0,0,.462-2.243,12.237,12.237,0,0,0,.125-1.518c0-.715-.245-1.846.291-2.432.3-.332,1.449-.462,3.037-.462C342.923,107.411,352.615,108.685,352.615,108.939Z" transform="translate(-193.238 -57.879)"/><path class="am" d="M342.882,107.45v.494s-1.038,3.992-3.291,4.3l-.162-.369a12.248,12.248,0,0,0,.125-1.518c0-.715-.245-1.846.291-2.432C340.155,107.588,341.295,107.459,342.882,107.45Z" transform="translate(-198.316 -57.89)"/><path class="an" d="M338.61,143.336l4.334-18.965,5.155-.462s-5.123,17.077-5.626,20.146Z" transform="translate(-197.874 -66.753)"/><path class="ao" d="M335.092,143.431,334.33,121.6h5.04l-.5,21.72Z" transform="translate(-180.016 -65.477)"/><path class="ap" d="M372.529,109.52s-.637,4.569,2.94,5.608v-5.077Z" transform="translate(-216.115 -59.005)"/><path class="aq" d="M357.318,108.5s-.863,4.117-.6,4.68a12.459,12.459,0,0,0,1.1,1.643l1.311-6.512Z" transform="translate(-207.596 -58.353)"/><path class="b" d="M271.032,89a2.141,2.141,0,0,0,1.223.923s-1.5.655-1.722.286a.628.628,0,0,1,0-.669s-.674.438-.923.12S271.032,89,271.032,89Z" transform="translate(-160.707 -47.956)"/><path class="ar" d="M271.032,89a2.141,2.141,0,0,0,1.223.923s-1.5.655-1.722.286a.628.628,0,0,1,0-.669s-.674.438-.923.12S271.032,89,271.032,89Z" transform="translate(-160.707 -47.956)"/><path class="as" d="M277.17,89.94s1.237,1.029,1.542.489.129-.651.129-.651a.743.743,0,0,0,.757.175c.411-.175-.171-.974-.171-.974A4.638,4.638,0,0,1,277.17,89.94Z" transform="translate(-164.791 -47.945)"/><path class="at" d="M248.923,99l-.923.683s1.431,2.922,2.178,3.231l.9-.392S248.882,100.288,248.923,99Z" transform="translate(-149.084 -53.34)"/><path class="au" d="M291.334,125.33h-.055a6,6,0,0,1-1.149.051,4.929,4.929,0,0,1-3.286-1.532c-2.4-2.469-3.863-12.674-4.154-13.126s1.934-4.551,2.16-8.252l1.145.923c-.4,2.571-.54,3.485-.923,6.051a4.5,4.5,0,0,0-.065,1.551,4.7,4.7,0,0,0,.355,1.011q2.871,6.462,5.737,12.923C291.269,124.988,291.4,125.178,291.334,125.33Z" transform="translate(-167.749 -55.209)"/><path class="av" d="M250.933,112.882l-8.252,13.574a7.61,7.61,0,0,0-.891-.222c2.183-4.209,5.538-8.238,7.385-12.568.609-1.458,1.385-2.225,1.675-3.771.175-.923-.9-3.923-.678-5.178l.291-.508a11.086,11.086,0,0,0,1.269,4.08C252.664,109.545,250.933,112.882,250.933,112.882Z" transform="translate(-145.74 -56.146)"/><path class="aw" d="M41.586,331.278l4.5-19.168L38.66,331.471l2.266,1.745Z" transform="translate(-20.808 -168.06)"/><path class="ax" d="M51.69,338.735l5.723-25.2-1.154,26.091Z" transform="translate(-27.825 -168.825)"/><path class="ay" d="M134.769,333.872,127.62,309l5.437,27.337S135.291,335.686,134.769,333.872Z" transform="translate(-84.264 -166.418)"/><path class="az" d="M120.93,313.6s5.354,22.181,5.391,24.734a6.459,6.459,0,0,1-3.826,2.031Z" transform="translate(-80.662 -168.895)"/><path class="b" d="M98.822,208.2s4.288-1.149,7.232,0l1.472,2.248s-6.554-1.218-9.494-.462S98.822,208.2,98.822,208.2Z" transform="translate(-67.724 -111.868)"/><path class="ba" d="M98.822,208.2s4.288-1.149,7.232,0l1.472,2.248s-6.554-1.218-9.494-.462S98.822,208.2,98.822,208.2Z" transform="translate(-67.724 -111.868)"/><rect class="b" width="24.351" height="4.832" rx="2.416" transform="translate(119.565 170.796)"/><rect class="bb" width="24.351" height="4.832" rx="2.416" transform="translate(119.565 170.796)"/><path class="b" d="M292.855,35.937h-1.888v-.582a1.1,1.1,0,0,0-.074-.517.263.263,0,0,0-.24-.111.3.3,0,0,0-.277.152.835.835,0,0,0-.1.462,1.311,1.311,0,0,0,.106.591,1.551,1.551,0,0,0,.577.462,5.806,5.806,0,0,1,1.708,1.325,3.019,3.019,0,0,1,.355,1.666,2.921,2.921,0,0,1-.212,1.214,1.546,1.546,0,0,1-.752.665,2.987,2.987,0,0,1-1.306.268,2.908,2.908,0,0,1-1.385-.309,1.486,1.486,0,0,1-.752-.785,4.006,4.006,0,0,1-.18-1.357v-.494h1.888v.951a1.287,1.287,0,0,0,.078.563.314.314,0,0,0,.281.129.337.337,0,0,0,.3-.162.923.923,0,0,0,.1-.462,1.44,1.44,0,0,0-.189-.923,5.844,5.844,0,0,0-.951-.711,8.734,8.734,0,0,1-1-.729,1.726,1.726,0,0,1-.411-.628,2.8,2.8,0,0,1-.162-1.02,2.853,2.853,0,0,1,.231-1.315,1.551,1.551,0,0,1,.743-.651,3,3,0,0,1,1.232-.231,3.231,3.231,0,0,1,1.352.254,1.426,1.426,0,0,1,.738.646,3.419,3.419,0,0,1,.18,1.32Z" transform="translate(-170.821 -18.015)"/><path class="b" d="M308.275,33.77v7.818h-2.035V38.3h-.614v3.286H303.59V33.77h2.035v2.8h.6v-2.8Z" transform="translate(-179.017 -18.216)"/><path class="b" d="M323.851,38.159a12.59,12.59,0,0,1-.055,1.666,1.864,1.864,0,0,1-1.135,1.518,2.912,2.912,0,0,1-1.158.217,3.028,3.028,0,0,1-1.131-.2,1.883,1.883,0,0,1-1.163-1.509,16.85,16.85,0,0,1-.06-1.689V36.82a12.558,12.558,0,0,1,.055-1.666,1.883,1.883,0,0,1,1.14-1.518,2.82,2.82,0,0,1,1.158-.217,2.917,2.917,0,0,1,1.126.2,1.879,1.879,0,0,1,.8.614,1.846,1.846,0,0,1,.36.9,15.551,15.551,0,0,1,.06,1.689Zm-2.031-2.571a2.576,2.576,0,0,0-.06-.7.245.245,0,0,0-.249-.152.277.277,0,0,0-.245.125,1.767,1.767,0,0,0-.083.725v3.637a3.6,3.6,0,0,0,.055.84.24.24,0,0,0,.258.162.249.249,0,0,0,.263-.185,3.693,3.693,0,0,0,.06-.877Z" transform="translate(-187.394 -18.027)"/><path class="b" d="M334.76,33.768H336.8a4.98,4.98,0,0,1,1.278.129,1.431,1.431,0,0,1,.674.378,1.3,1.3,0,0,1,.3.6,5.143,5.143,0,0,1,.083,1.085v.688a2.866,2.866,0,0,1-.157,1.094,1.066,1.066,0,0,1-.568.526,2.7,2.7,0,0,1-1.08.185h-.545V41.6H334.76Zm2.031,1.338v2h.152a.461.461,0,0,0,.388-.138,1,1,0,0,0,.106-.572v-.646a.752.752,0,0,0-.125-.522.794.794,0,0,0-.522-.12Z" transform="translate(-195.801 -18.214)"/></g></svg>