<?xml version="1.0" encoding="utf-8"?>
<!-- Generator: Adobe Illustrator 23.0.5, SVG Export Plug-In . SVG Version: 6.00 Build 0)  -->
<svg version="1.0" id="Layer_1" xmlns="http://www.w3.org/2000/svg" xmlns:xlink="http://www.w3.org/1999/xlink" x="0px" y="0px"
	 viewBox="0 0 624 420" style="enable-background:new 0 0 624 420;" xml:space="preserve">
<style type="text/css">
	.st0{opacity:0.15;fill:#35B24A;}
	.st1{fill:#C78B5B;}
	.st2{fill:#E5BE84;}
	.st3{fill:#EAD1B7;}
	.st4{fill:#F7EEE5;}
	.st5{fill:#444248;}
	.st6{opacity:0.32;fill:#C78B5B;}
	.st7{fill:#00A26D;}
	.st8{opacity:0.8;fill:#FFFFFF;}
	.st9{fill:#00A859;}
</style>
<g>
	<rect x="0" class="st0" width="624" height="419.2"/>
	<g>
		<g>
			<rect x="266.48" y="57.68" class="st1" width="146.75" height="191.89"/>
			<rect x="316.43" y="57.68" class="st2" width="145.21" height="191.89"/>
			<rect x="379.82" y="57.68" class="st3" width="34.07" height="39.56"/>
			<rect x="379.82" y="210.01" class="st3" width="34.07" height="39.56"/>
			<g>
				<rect x="324.73" y="218.05" class="st4" width="44.95" height="24.44"/>
				<g>
					<rect x="326.79" y="221.48" class="st5" width="4.77" height="17.59"/>
					<rect x="334.46" y="221.48" class="st5" width="1.67" height="17.59"/>
					<rect x="342.98" y="221.48" class="st5" width="3.91" height="17.59"/>
					<rect x="338.05" y="221.48" class="st5" width="2.39" height="17.59"/>
					<rect x="349.82" y="221.48" class="st5" width="1.62" height="17.59"/>
					<rect x="357.46" y="221.48" class="st5" width="3.23" height="17.59"/>
					<rect x="361.8" y="221.48" class="st5" width="1.61" height="17.59"/>
					<rect x="353.79" y="221.48" class="st5" width="2.22" height="17.59"/>
					<rect x="365.13" y="221.48" class="st5" width="2.39" height="17.59"/>
				</g>
			</g>
		</g>
		<rect x="333.54" y="125.96" class="st6" width="128.1" height="123.61"/>
		<g>
			<rect x="122.57" y="133.34" class="st1" width="140.42" height="123.49"/>
			<rect x="162.69" y="133.34" class="st2" width="139.18" height="123.49"/>
			<rect x="213.61" y="133.34" class="st3" width="37.35" height="31.77"/>
			<rect x="213.61" y="225.05" class="st3" width="37.35" height="31.78"/>
			<g>
				<rect x="169.36" y="231.51" class="st4" width="36.11" height="19.63"/>
				<g>
					<rect x="171.01" y="234.26" class="st5" width="3.83" height="14.13"/>
					<rect x="177.17" y="234.26" class="st5" width="1.34" height="14.13"/>
					<rect x="184.02" y="234.26" class="st5" width="3.14" height="14.13"/>
					<rect x="180.06" y="234.26" class="st5" width="1.92" height="14.13"/>
					<rect x="189.51" y="234.26" class="st5" width="1.3" height="14.13"/>
					<rect x="195.64" y="234.26" class="st5" width="2.6" height="14.13"/>
					<rect x="199.13" y="234.26" class="st5" width="1.29" height="14.13"/>
					<rect x="192.7" y="234.26" class="st5" width="1.78" height="14.13"/>
					<rect x="201.8" y="234.26" class="st5" width="1.92" height="14.13"/>
				</g>
			</g>
		</g>
		<rect x="172.34" y="163.62" class="st6" width="129.53" height="93.21"/>
		<g>
			<rect x="368.68" y="135.71" class="st1" width="118.53" height="104.24"/>
			<rect x="402.55" y="135.71" class="st2" width="117.49" height="104.24"/>
			<rect x="451.94" y="135.71" class="st3" width="18.71" height="26.82"/>
			<rect x="451.94" y="213.13" class="st3" width="18.71" height="26.82"/>
			<g>
				<rect x="481.25" y="218.58" class="st4" width="30.48" height="16.57"/>
				<g>
					<rect x="482.64" y="220.9" class="st5" width="3.24" height="11.93"/>
					<rect x="487.84" y="220.9" class="st5" width="1.13" height="11.93"/>
					<rect x="493.62" y="220.9" class="st5" width="2.65" height="11.93"/>
					<rect x="490.28" y="220.9" class="st5" width="1.62" height="11.93"/>
					<rect x="498.26" y="220.9" class="st5" width="1.1" height="11.93"/>
					<rect x="503.44" y="220.9" class="st5" width="2.19" height="11.93"/>
					<rect x="506.38" y="220.9" class="st5" width="1.09" height="11.93"/>
					<rect x="500.95" y="220.9" class="st5" width="1.5" height="11.93"/>
					<rect x="508.64" y="220.9" class="st5" width="1.62" height="11.93"/>
				</g>
			</g>
		</g>
		<g>
			<rect x="407.12" y="238.73" class="st1" width="118.53" height="104.24"/>
			<rect x="440.98" y="238.73" class="st2" width="117.49" height="104.24"/>
			<rect x="483.96" y="238.73" class="st3" width="31.52" height="26.82"/>
			<rect x="483.96" y="316.14" class="st3" width="31.52" height="26.82"/>
			<g>
				<rect x="446.61" y="321.59" class="st4" width="30.48" height="16.57"/>
				<g>
					<rect x="448.01" y="323.92" class="st5" width="3.23" height="11.93"/>
					<rect x="453.2" y="323.92" class="st5" width="1.13" height="11.93"/>
					<rect x="458.99" y="323.92" class="st5" width="2.65" height="11.93"/>
					<rect x="455.64" y="323.92" class="st5" width="1.62" height="11.93"/>
					<rect x="463.62" y="323.92" class="st5" width="1.1" height="11.93"/>
					<rect x="468.8" y="323.92" class="st5" width="2.19" height="11.93"/>
					<rect x="471.75" y="323.92" class="st5" width="1.09" height="11.93"/>
					<rect x="466.32" y="323.92" class="st5" width="1.5" height="11.93"/>
					<rect x="474" y="323.92" class="st5" width="1.62" height="11.93"/>
				</g>
			</g>
		</g>
		<g>
			<rect x="194.62" y="180.78" class="st1" width="184.42" height="162.18"/>
			<rect x="247.31" y="180.78" class="st2" width="182.79" height="162.18"/>
			<rect x="314.18" y="180.78" class="st3" width="49.05" height="41.73"/>
			<rect x="314.18" y="301.23" class="st3" width="49.05" height="41.73"/>
			<g>
				<rect x="256.07" y="309.71" class="st4" width="47.42" height="25.79"/>
				<g>
					<rect x="258.24" y="313.33" class="st5" width="5.03" height="18.55"/>
					<rect x="266.33" y="313.33" class="st5" width="1.77" height="18.55"/>
					<rect x="275.32" y="313.33" class="st5" width="4.13" height="18.55"/>
					<rect x="270.12" y="313.33" class="st5" width="2.52" height="18.55"/>
					<rect x="282.53" y="313.33" class="st5" width="1.7" height="18.55"/>
					<rect x="290.59" y="313.33" class="st5" width="3.41" height="18.55"/>
					<rect x="295.17" y="313.33" class="st5" width="1.69" height="18.55"/>
					<rect x="286.73" y="313.33" class="st5" width="2.34" height="18.55"/>
					<rect x="298.68" y="313.33" class="st5" width="2.52" height="18.55"/>
				</g>
			</g>
		</g>
		<g>
			<rect x="66.06" y="238.73" class="st1" width="118.53" height="104.24"/>
			<rect x="99.93" y="238.73" class="st2" width="117.49" height="104.24"/>
			<rect x="142.91" y="238.73" class="st3" width="31.52" height="26.82"/>
			<rect x="142.91" y="316.14" class="st3" width="31.52" height="26.82"/>
			<g>
				<rect x="105.56" y="321.59" class="st4" width="30.48" height="16.57"/>
				<g>
					<rect x="106.95" y="323.92" class="st5" width="3.23" height="11.93"/>
					<rect x="112.15" y="323.92" class="st5" width="1.13" height="11.93"/>
					<rect x="117.93" y="323.92" class="st5" width="2.65" height="11.93"/>
					<rect x="114.59" y="323.92" class="st5" width="1.62" height="11.93"/>
					<rect x="122.57" y="323.92" class="st5" width="1.1" height="11.93"/>
					<rect x="127.75" y="323.92" class="st5" width="2.19" height="11.93"/>
					<rect x="130.69" y="323.92" class="st5" width="1.09" height="11.93"/>
					<rect x="125.26" y="323.92" class="st5" width="1.5" height="11.93"/>
					<rect x="132.95" y="323.92" class="st5" width="1.62" height="11.93"/>
				</g>
			</g>
		</g>
		<rect x="185.15" y="238.72" class="st6" width="32.27" height="104.24"/>
	</g>
	<rect x="28.97" y="342.97" class="st7" width="566.05" height="18.55"/>
	<path class="st8" d="M379.49,288.86c-15.55,0-30.16-7.58-39.13-20.3l-0.13-0.17l-0.16-0.26l-1.78-2.6
		c-0.39,0.99-0.91,1.95-1.54,2.86c-8.96,12.81-23.63,20.46-39.24,20.46c-26.39,0-47.86-21.47-47.86-47.86s21.47-47.86,47.86-47.86
		c15.64,0,30.32,7.66,39.27,20.5l0.21,0.31l1.71,2.5c0.39-0.98,0.9-1.93,1.53-2.82c8.95-12.83,23.63-20.5,39.27-20.5
		c26.39,0,47.86,21.47,47.86,47.86S405.88,288.86,379.49,288.86z M363.25,252.43c3.67,5.25,9.76,8.43,16.24,8.43
		c10.95,0,19.86-8.91,19.86-19.86s-8.91-19.86-19.86-19.86c-6.49,0-12.58,3.18-16.3,8.52c-2.6,3.72-6.85,5.96-11.38,5.99l10.5,15.36
		c0.1,0.15,0.2,0.3,0.29,0.46L363.25,252.43z M297.51,221.14c-10.95,0-19.86,8.91-19.86,19.86s8.91,19.86,19.86,19.86
		c6.48,0,12.57-3.18,16.29-8.5c2.61-3.73,6.87-5.96,11.41-5.98l-11.67-17.08C309.8,224.18,303.83,221.14,297.51,221.14z"/>
	<path class="st9" d="M379.49,201.14c-13.02,0-25.25,6.38-32.71,17.08c-1.9,2.72-1.23,6.46,1.49,8.35c2.72,1.9,6.46,1.23,8.35-1.49
		c5.22-7.48,13.76-11.94,22.87-11.94c15.36,0,27.86,12.5,27.86,27.86c0,15.36-12.5,27.86-27.86,27.86
		c-9.09,0-17.63-4.45-22.85-11.92l-0.79-1.16c-0.05-0.09-0.1-0.17-0.16-0.26l-14.53-21.26l-10.9-15.97
		c-0.02-0.03-0.03-0.05-0.05-0.08c-7.46-10.69-19.69-17.08-32.71-17.08c-21.98,0-39.86,17.88-39.86,39.86
		c0,21.98,17.88,39.86,39.86,39.86c13.01,0,25.23-6.37,32.69-17.05c1.9-2.72,1.24-6.46-1.48-8.36c-2.72-1.9-6.46-1.23-8.36,1.48
		c-5.22,7.46-13.76,11.92-22.85,11.92c-15.36,0-27.86-12.5-27.86-27.86c0-15.36,12.5-27.86,27.86-27.86
		c9.03,0,17.51,4.4,22.74,11.77c0.03,0.04,0.05,0.08,0.08,0.13l11.01,16.1l15.44,22.61c0.01,0.01,0.01,0.01,0.02,0.02
		c0.01,0.01,0.01,0.02,0.02,0.03c7.46,10.67,19.68,17.05,32.69,17.05c21.98,0,39.86-17.88,39.86-39.86
		C419.35,219.02,401.47,201.14,379.49,201.14z"/>
</g>
</svg>
