<svg id="khong_gioi_han_khach_hàng" data-name="khong gioi han khach hàng" xmlns="http://www.w3.org/2000/svg" xmlns:xlink="http://www.w3.org/1999/xlink" width="624" height="419.2" viewBox="0 0 624 419.2">
  <defs>
    <clipPath id="clip-path">
      <path id="Path_31431" data-name="Path 31431" d="M313.65,116.53a64.18,64.18,0,1,1-64.18-64.18A64.181,64.181,0,0,1,313.65,116.53Z"/>
    </clipPath>
    <clipPath id="clip-path-2">
      <circle id="Ellipse_882" data-name="Ellipse 882" cx="64.18" cy="64.18" r="64.18" transform="translate(350.225 172.519) rotate(-2.854)"/>
    </clipPath>
    <clipPath id="clip-path-3">
      <path id="Path_31465" data-name="Path 31465" d="M372.32,208.37a64.18,64.18,0,1,1-64.18-64.18A64.174,64.174,0,0,1,372.32,208.37Z"/>
    </clipPath>
    <clipPath id="clip-path-4">
      <path id="Path_31481" data-name="Path 31481" d="M270.67,233.41a64.18,64.18,0,1,1-64.18-64.18A64.181,64.181,0,0,1,270.67,233.41Z"/>
    </clipPath>
    <clipPath id="clip-path-5">
      <circle id="Ellipse_884" data-name="Ellipse 884" cx="64.18" cy="64.18" r="64.18" transform="translate(304.53 52.35)"/>
    </clipPath>
    <clipPath id="clip-path-6">
      <path id="Path_31509" data-name="Path 31509" d="M372.32,320.42a64.18,64.18,0,1,1-64.18-64.18A64.181,64.181,0,0,1,372.32,320.42Z"/>
    </clipPath>
  </defs>
  <rect id="Rectangle_8954" data-name="Rectangle 8954" width="624" height="419.2" fill="#caddcd"/>
  <g id="Group_12422" data-name="Group 12422">
    <g id="Group_12381" data-name="Group 12381">
      <g id="Group_12380" data-name="Group 12380">
        <path id="Path_31408" data-name="Path 31408" d="M313.65,116.53a64.18,64.18,0,1,1-64.18-64.18A64.181,64.181,0,0,1,313.65,116.53Z" fill="#e64645"/>
        <g id="Group_12379" data-name="Group 12379" clip-path="url(#clip-path)">
          <rect id="Rectangle_8955" data-name="Rectangle 8955" width="12.63" height="7.51" transform="translate(244.48 146.56)" fill="#f7ba93"/>
          <path id="Path_31409" data-name="Path 31409" d="M252.48,153.07c-2.65-.84-4.86-2.5-5.2-5.41a2.651,2.651,0,0,1,.11-1.1h-2.9v7.51h12.63v-.94A8.59,8.59,0,0,1,252.48,153.07Z" fill="#d9d9d9"/>
          <g id="Group_12373" data-name="Group 12373">
            <path id="Path_31410" data-name="Path 31410" d="M282.4,122.47a5.824,5.824,0,1,1-5.82-5.62A5.721,5.721,0,0,1,282.4,122.47Z" fill="#f7ba93"/>
            <g id="Group_12372" data-name="Group 12372">
              <path id="Path_31411" data-name="Path 31411" d="M277.33,119.34a2.386,2.386,0,0,1,.39-.01,3.393,3.393,0,0,1,1.03.2,2.524,2.524,0,0,1,1.24.95,3.234,3.234,0,0,1,.22.41c.05.14.09.3.14.45l.05.47c0,.15-.01.31-.02.46a3.843,3.843,0,0,1-.19.88,3.76,3.76,0,0,1-.36.79,2.883,2.883,0,0,1-1.09,1.08,2.142,2.142,0,0,1-.56.23,2.241,2.241,0,0,1-.46.07c-.25.01-.39,0-.39,0s.13-.05.36-.15c.11-.04.23-.13.38-.2a3.662,3.662,0,0,0,.43-.32,2.315,2.315,0,0,0,.41-.46,3.04,3.04,0,0,0,.34-.59,6.184,6.184,0,0,0,.25-.69,3.1,3.1,0,0,0,.13-.75l.03-.37-.03-.35c-.03-.11-.05-.22-.08-.33a2.046,2.046,0,0,0-.13-.31,2.513,2.513,0,0,0-.86-.91,5.064,5.064,0,0,0-.87-.44Z" fill="#d9d9d9"/>
            </g>
            <path id="Path_31412" data-name="Path 31412" d="M278.08,122.75a.95.95,0,1,1-.94-1.09A1.024,1.024,0,0,1,278.08,122.75Z" fill="#d9d9d9"/>
          </g>
          <g id="Group_12375" data-name="Group 12375">
            <path id="Path_31413" data-name="Path 31413" d="M219.99,122.47a5.824,5.824,0,1,0,5.82-5.62A5.728,5.728,0,0,0,219.99,122.47Z" fill="#f7ba93"/>
            <g id="Group_12374" data-name="Group 12374">
              <path id="Path_31414" data-name="Path 31414" d="M225.06,119.34a2.386,2.386,0,0,0-.39-.01,3.448,3.448,0,0,0-1.03.2,2.524,2.524,0,0,0-1.24.95c-.08.13-.14.27-.22.41-.05.14-.09.3-.13.45l-.05.46c0,.15.01.31.02.46a4.437,4.437,0,0,0,.18.88,4.347,4.347,0,0,0,.36.79,2.954,2.954,0,0,0,1.09,1.08,2.289,2.289,0,0,0,.56.23,2.261,2.261,0,0,0,.45.07,3.8,3.8,0,0,0,.39,0s-.13-.05-.35-.15c-.11-.04-.24-.13-.38-.2a3.664,3.664,0,0,1-.43-.32,2.674,2.674,0,0,1-.41-.46,2.6,2.6,0,0,1-.34-.59,3.762,3.762,0,0,1-.25-.69,3.676,3.676,0,0,1-.13-.75l-.03-.37.02-.35c.03-.11.05-.22.08-.33.05-.1.08-.21.13-.31a2.6,2.6,0,0,1,.86-.91,5.064,5.064,0,0,1,.87-.44C224.92,119.38,225.06,119.34,225.06,119.34Z" fill="#d9d9d9"/>
            </g>
            <path id="Path_31415" data-name="Path 31415" d="M224.31,122.75a.95.95,0,1,0,.94-1.09A1.024,1.024,0,0,0,224.31,122.75Z" fill="#d9d9d9"/>
          </g>
          <path id="Path_31416" data-name="Path 31416" d="M276.58,115.06c0,19.1-8.96,32.51-25.78,32.51s-25.78-13.41-25.78-32.51,9.3-34.58,26.12-34.58S276.58,95.96,276.58,115.06Z" fill="#f7ba93"/>
          <path id="Path_31417" data-name="Path 31417" d="M244.74,153.76s-16.01,2.12-21.77,7.1c-5.87,5.08-7.6,9.47-9.71,19.5h75.09c-2.11-10.03-3.85-14.42-9.71-19.5-5.76-4.98-21.77-7.1-21.77-7.1Z" fill="#f7ba93"/>
          <path id="Path_31418" data-name="Path 31418" d="M239.9,154.58s-11.17,1.29-16.93,6.27c-5.87,5.08-7.6,9.47-9.71,19.5h75.09c-2.11-10.03-3.82-14.45-9.71-19.5-4.86-4.16-15.8-6.04-15.8-6.04l-5.97-1.05H244.75Z" fill="#fff"/>
          <g id="Group_12376" data-name="Group 12376">
            <path id="Path_31419" data-name="Path 31419" d="M247.8,163.51a1.26,1.26,0,0,1,.21-.22c-.07.08-.14.15-.21.22l-2.06,16.84h10.13l-2.06-16.84,1.39-5.79a2.61,2.61,0,0,0,.14-2.74,3.036,3.036,0,0,0-1.89-1.41,14.936,14.936,0,0,0-3.85-.13,3.3,3.3,0,0,0-2.97,1.1,2.53,2.53,0,0,0-.21,3.19Z" fill="#e64645"/>
            <path id="Path_31420" data-name="Path 31420" d="M247.57,162.61s4.2-1.96,6.22.9a6.691,6.691,0,0,0-6,0Z" fill="#c6c6c5"/>
          </g>
          <path id="Path_31421" data-name="Path 31421" d="M239.9,154.58s-11.17,1.29-16.93,6.27c-5.87,5.08-7.6,9.47-9.71,19.5h75.09c-2.11-10.03-3.82-14.45-9.71-19.5-4.86-4.16-15.8-6.04-15.8-6.04l-12.03,24.85Z" fill="#0c3853"/>
          <path id="Path_31422" data-name="Path 31422" d="M240.05,154.76l10.75,24.91-11.43-7.38,2.57-4.41-12.78-10.56C229.16,157.31,236.41,154.5,240.05,154.76Z" fill="#031c2d"/>
          <path id="Path_31423" data-name="Path 31423" d="M262.83,154.81,250.8,179.66l11.43-7.38-2.57-4.41,12.78-10.56S266.47,154.56,262.83,154.81Z" fill="#031c2d"/>
          <path id="Path_31424" data-name="Path 31424" d="M237.66,154.8l9.66,6.74-.8-3.37Z" fill="#b1b1b1"/>
          <path id="Path_31425" data-name="Path 31425" d="M264.86,154.92l-10.6,6.76.92-3.93Z" fill="#b1b1b1"/>
          <g id="Group_12377" data-name="Group 12377">
            <path id="Path_31426" data-name="Path 31426" d="M244.48,151.54l-6.82,3.26,8.08,4.82,5.65-6.23Z" fill="#fff"/>
            <path id="Path_31427" data-name="Path 31427" d="M244.38,153.93a4.982,4.982,0,0,1,3.57-1.47l-3.47-.93-6.83,3.26,6.1,3.64A3.63,3.63,0,0,1,244.38,153.93Z" fill="#d9d9d9"/>
          </g>
          <g id="Group_12378" data-name="Group 12378">
            <path id="Path_31428" data-name="Path 31428" d="M258.16,151.54l6.83,3.26-8.08,4.82-5.65-6.23Z" fill="#fff"/>
            <path id="Path_31429" data-name="Path 31429" d="M258.26,153.93a4.965,4.965,0,0,0-3.57-1.47l3.47-.93,6.83,3.26-6.1,3.64A3.63,3.63,0,0,0,258.26,153.93Z" fill="#d9d9d9"/>
          </g>
          <path id="Path_31430" data-name="Path 31430" d="M225.1,119.71l2.61,2.61.5-21.03s.17-10.92,11.77-10.92a29.564,29.564,0,0,0,21.64.86s10.85-1.71,12.12,9.55l-.09,21.96,2.78-3.42.15-2.86s1.65-9.27,0-22.88c0,0-2.18-15.07-15.8-17.63,0,0-22.24-5.72-31.62,8.28a28.367,28.367,0,0,0-5.27,21.43Z" fill="#946000"/>
        </g>
      </g>
    </g>
    <g id="Group_12391" data-name="Group 12391">
      <g id="Group_12390" data-name="Group 12390">
        <circle id="Ellipse_881" data-name="Ellipse 881" cx="64.18" cy="64.18" r="64.18" transform="translate(350.225 172.519) rotate(-2.854)" fill="#1db1a7"/>
        <g id="Group_12389" data-name="Group 12389" clip-path="url(#clip-path-2)">
          <rect id="Rectangle_8956" data-name="Rectangle 8956" width="12.63" height="7.51" transform="translate(411.2 263.8)" fill="#f7ba93"/>
          <path id="Path_31432" data-name="Path 31432" d="M411.93,269.4a8.606,8.606,0,0,1,5.52-2.49c1.8-.14,4.88.25,5.84-1.63a2.027,2.027,0,0,1,.54-.69v-.8H411.2v6.48A7.165,7.165,0,0,1,411.93,269.4Z" fill="#c6c6c5"/>
          <g id="Group_12383" data-name="Group 12383">
            <path id="Path_31433" data-name="Path 31433" d="M449.11,239.7a5.824,5.824,0,1,1-5.82-5.62A5.728,5.728,0,0,1,449.11,239.7Z" fill="#f7ba93"/>
            <g id="Group_12382" data-name="Group 12382">
              <path id="Path_31434" data-name="Path 31434" d="M444.04,236.57a2.384,2.384,0,0,1,.39-.01,3.448,3.448,0,0,1,1.03.2,2.524,2.524,0,0,1,1.24.95c.08.12.14.27.22.41a3.332,3.332,0,0,1,.13.45l.05.47c0,.15-.01.31-.01.46a3.843,3.843,0,0,1-.19.88,3.542,3.542,0,0,1-.36.79,2.883,2.883,0,0,1-1.09,1.08,2.553,2.553,0,0,1-.56.23,3.62,3.62,0,0,1-.45.08,3.808,3.808,0,0,1-.39,0s.13-.05.36-.15c.11-.04.23-.13.38-.2a2.923,2.923,0,0,0,.42-.32,3.6,3.6,0,0,0,.41-.45,3.37,3.37,0,0,0,.34-.59,4.678,4.678,0,0,0,.25-.69,3.1,3.1,0,0,0,.13-.75l.03-.37-.03-.35c-.03-.11-.05-.22-.07-.33-.05-.1-.07-.21-.13-.31a2.485,2.485,0,0,0-.86-.9,5.063,5.063,0,0,0-.87-.44C444.18,236.62,444.04,236.57,444.04,236.57Z" fill="#d9d9d9"/>
            </g>
            <path id="Path_31435" data-name="Path 31435" d="M444.8,239.98a.955.955,0,1,1-.94-1.09A1.024,1.024,0,0,1,444.8,239.98Z" fill="#d9d9d9"/>
          </g>
          <g id="Group_12385" data-name="Group 12385">
            <path id="Path_31436" data-name="Path 31436" d="M386.71,239.7a5.824,5.824,0,1,0,5.82-5.62A5.721,5.721,0,0,0,386.71,239.7Z" fill="#f7ba93"/>
            <g id="Group_12384" data-name="Group 12384">
              <path id="Path_31437" data-name="Path 31437" d="M391.78,236.57a2.384,2.384,0,0,0-.39-.01,3.448,3.448,0,0,0-1.03.2,2.524,2.524,0,0,0-1.24.95c-.08.12-.14.27-.22.41-.05.14-.09.3-.13.45l-.05.47c0,.15.01.31.02.46a3.823,3.823,0,0,0,.18.88,4.058,4.058,0,0,0,.36.79,2.883,2.883,0,0,0,1.09,1.08,2.768,2.768,0,0,0,.56.23,3.439,3.439,0,0,0,.46.08c.25.01.39,0,.39,0s-.13-.05-.36-.15c-.11-.04-.23-.13-.38-.2a2.923,2.923,0,0,1-.42-.32,2.968,2.968,0,0,1-.41-.45,3.37,3.37,0,0,1-.34-.59,4.678,4.678,0,0,1-.25-.69,3.1,3.1,0,0,1-.13-.75l-.03-.37.02-.35c.03-.11.06-.22.08-.33.04-.1.08-.21.13-.31a2.429,2.429,0,0,1,.87-.9,5.025,5.025,0,0,1,.86-.44C391.64,236.62,391.78,236.57,391.78,236.57Z" fill="#d9d9d9"/>
            </g>
            <path id="Path_31438" data-name="Path 31438" d="M391.03,239.98a.95.95,0,1,0,.94-1.09A1.024,1.024,0,0,0,391.03,239.98Z" fill="#d9d9d9"/>
          </g>
          <path id="Path_31439" data-name="Path 31439" d="M443.29,232.29c0,19.1-8.96,32.51-25.78,32.51s-25.78-13.41-25.78-32.51,9.3-34.58,26.12-34.58S443.29,213.2,443.29,232.29Z" fill="#f7ba93"/>
          <path id="Path_31440" data-name="Path 31440" d="M411.45,270.99s-16.01,2.12-21.77,7.1c-5.87,5.08-7.6,9.47-9.72,19.5h75.09c-2.11-10.03-3.85-14.42-9.72-19.5-5.75-4.98-21.77-7.1-21.77-7.1Z" fill="#f7ba93"/>
          <path id="Path_31441" data-name="Path 31441" d="M429.77,272.1s9.82,1.01,15.57,5.99c5.87,5.08,7.6,9.47,9.72,19.5H379.97c2.12-10.03,3.85-14.42,9.72-19.5,5.76-4.98,15.61-6,15.61-6s-2.13,13.69,12.76,13.58C418.05,285.67,430.35,286.15,429.77,272.1Z" fill="#1a728f"/>
          <g id="Group_12386" data-name="Group 12386">
            <path id="Path_31442" data-name="Path 31442" d="M407.32,271.69a1.882,1.882,0,0,1,.01.71c-.01.08-.69,4.97,2.11,8.19,1.78,2.04,4.68,3.07,8.61,3.04h.09a10.405,10.405,0,0,0,6.95-2.71c1.91-1.94,2.8-5.37,2.64-9.23l4.1.72c.13,4.88-1.18,8.72-3.88,11.42a14.4,14.4,0,0,1-9.76,3.89h-.32c-5.11,0-8.99-1.51-11.56-4.48-3.35-3.89-3.26-9.04-3.11-10.83Z" fill="#054153"/>
          </g>
          <path id="Path_31443" data-name="Path 31443" d="M391.03,221.79l.93,15.58,2.28.64c-2-25.16,11.25-30.91,11.25-30.91l3.71-15.75a18.474,18.474,0,0,0-16.28,8.99S388.72,204.6,391.03,221.79Z" fill="#732400"/>
          <g id="Group_12387" data-name="Group 12387">
            <path id="Path_31444" data-name="Path 31444" d="M391.15,223.81s-.43-1.97-.82-4.93c-.2-1.48-.39-3.21-.55-5.06-.07-.93-.17-1.88-.22-2.86l-.09-1.47-.02-.37v-.28l.01-.19.02-.74a11.463,11.463,0,0,1,.18-1.57,10.765,10.765,0,0,1,.34-1.56c.07-.25.13-.5.21-.75l.28-.71a11.256,11.256,0,0,1,.62-1.36,10.062,10.062,0,0,1,.7-1.25,11.781,11.781,0,0,1,.77-1.13,14.732,14.732,0,0,1,1.61-1.89,15.637,15.637,0,0,1,1.54-1.4,13.841,13.841,0,0,1,1.29-.95,9.858,9.858,0,0,1,1.2-.7,29.581,29.581,0,0,0-3.12,3.8c-.21.29-.42.61-.62.95s-.43.66-.62,1.03a9.071,9.071,0,0,0-.58,1.12,11.666,11.666,0,0,0-.54,1.19,8.571,8.571,0,0,0-.46,1.26,11.539,11.539,0,0,0-.37,1.31,8.006,8.006,0,0,0-.26,1.33,8.3,8.3,0,0,0-.13,1.38l-.04.74-.01.19v.09l.01.37c.02.49.03.99.05,1.47.04.98.03,1.94.05,2.87.01,1.86-.01,3.6-.08,5.09C391.4,221.81,391.15,223.81,391.15,223.81Z" fill="#511700"/>
          </g>
          <path id="Path_31445" data-name="Path 31445" d="M443.8,224.84l-.93,15.59-2.28.64c2.31-33.55-10.2-34.11-10.2-34.11l-4.76-12.55a18.474,18.474,0,0,1,16.28,8.99S446.12,207.65,443.8,224.84Z" fill="#732400"/>
          <path id="Path_31446" data-name="Path 31446" d="M405.66,207s14.48-5.69,29.41,1.93l1.14-11.51s-2.92-22.48-32.26-15.32a21.251,21.251,0,0,1,5.24,3.41s-11.29-.78-16.28,9.5c0,0,7.64-2.55,13.77-.91C406.68,194.11,397.47,200.18,405.66,207Z" fill="#732400"/>
          <g id="Group_12388" data-name="Group 12388">
            <path id="Path_31447" data-name="Path 31447" d="M436.21,197.42a15.361,15.361,0,0,0-.57-1.65,26.627,26.627,0,0,0-2.01-4.06,25.543,25.543,0,0,0-1.72-2.43,25.087,25.087,0,0,0-2.27-2.37,20.324,20.324,0,0,0-2.81-2.06,17.544,17.544,0,0,0-3.23-1.57,22.451,22.451,0,0,0-3.46-1.04,27.029,27.029,0,0,0-3.5-.55c-.57-.07-1.14-.1-1.7-.12s-1.11-.08-1.64-.06c-1.07,0-2.09,0-3.03.06-.94.03-1.81.11-2.57.18s-1.44.12-1.99.19c-1.11.12-1.75.18-1.75.18s.6-.22,1.66-.57c.53-.18,1.18-.39,1.94-.57a25.636,25.636,0,0,1,2.57-.57c.48-.08.97-.18,1.49-.26.52-.05,1.06-.11,1.61-.17s1.13-.07,1.72-.1a13.535,13.535,0,0,1,1.8.01c.61.03,1.24.04,1.87.13a16,16,0,0,1,1.91.28,19.031,19.031,0,0,1,1.92.45,16.053,16.053,0,0,1,1.89.62,19.674,19.674,0,0,1,3.54,1.81,18.33,18.33,0,0,1,2.99,2.43,18.694,18.694,0,0,1,3.79,5.57,18.391,18.391,0,0,1,1.36,4.49A11.542,11.542,0,0,1,436.21,197.42Z" fill="#511700"/>
          </g>
        </g>
      </g>
    </g>
    <g id="Group_12400" data-name="Group 12400">
      <g id="Group_12399" data-name="Group 12399">
        <path id="Path_31448" data-name="Path 31448" d="M372.32,208.37a64.18,64.18,0,1,1-64.18-64.18A64.174,64.174,0,0,1,372.32,208.37Z" fill="#f8b133"/>
        <g id="Group_12398" data-name="Group 12398" clip-path="url(#clip-path-3)">
          <rect id="Rectangle_8957" data-name="Rectangle 8957" width="12.63" height="7.51" transform="translate(301.83 238.76)" fill="#f7ba93"/>
          <path id="Path_31449" data-name="Path 31449" d="M302.55,244.36a8.606,8.606,0,0,1,5.52-2.49c1.8-.13,4.88.25,5.84-1.63a2.156,2.156,0,0,1,.54-.69v-.8H301.82v6.48A9.627,9.627,0,0,1,302.55,244.36Z" fill="#c6c6c5"/>
          <g id="Group_12393" data-name="Group 12393">
            <path id="Path_31450" data-name="Path 31450" d="M339.74,214.66a5.824,5.824,0,1,1-5.82-5.62A5.721,5.721,0,0,1,339.74,214.66Z" fill="#f7ba93"/>
            <g id="Group_12392" data-name="Group 12392">
              <path id="Path_31451" data-name="Path 31451" d="M334.67,211.53a2.384,2.384,0,0,1,.39-.01,3.393,3.393,0,0,1,1.03.2,2.524,2.524,0,0,1,1.24.95c.09.12.14.27.22.4a3.332,3.332,0,0,1,.13.45l.05.47c0,.15-.02.31-.02.46a4.436,4.436,0,0,1-.18.88,3.542,3.542,0,0,1-.36.79,2.883,2.883,0,0,1-1.09,1.08,2.553,2.553,0,0,1-.56.23,3.189,3.189,0,0,1-.46.08c-.25.01-.39,0-.39,0s.13-.06.36-.15c.11-.04.24-.13.38-.2a5.285,5.285,0,0,0,.43-.32,2.557,2.557,0,0,0,.41-.45,3.37,3.37,0,0,0,.34-.59,4.678,4.678,0,0,0,.25-.69,3.1,3.1,0,0,0,.13-.75l.03-.37-.02-.35c-.03-.11-.05-.22-.08-.33s-.08-.21-.13-.31a2.4,2.4,0,0,0-.86-.9,5.45,5.45,0,0,0-.87-.44Z" fill="#d9d9d9"/>
            </g>
            <path id="Path_31452" data-name="Path 31452" d="M335.42,214.94a.95.95,0,1,1-.94-1.09A1.024,1.024,0,0,1,335.42,214.94Z" fill="#d9d9d9"/>
          </g>
          <g id="Group_12395" data-name="Group 12395">
            <path id="Path_31453" data-name="Path 31453" d="M277.34,214.66a5.824,5.824,0,1,0,5.82-5.62A5.728,5.728,0,0,0,277.34,214.66Z" fill="#f7ba93"/>
            <g id="Group_12394" data-name="Group 12394">
              <path id="Path_31454" data-name="Path 31454" d="M282.41,211.53a2.384,2.384,0,0,0-.39-.01,3.448,3.448,0,0,0-1.03.2,2.524,2.524,0,0,0-1.24.95c-.09.12-.14.27-.22.4-.05.14-.09.3-.14.45l-.05.47c0,.15.01.31.02.46a4.436,4.436,0,0,0,.18.88,3.542,3.542,0,0,0,.36.79,2.883,2.883,0,0,0,1.09,1.08,2.553,2.553,0,0,0,.56.23,3.62,3.62,0,0,0,.45.08c.25.01.39,0,.39,0s-.13-.06-.36-.15c-.11-.04-.23-.13-.38-.2a3.9,3.9,0,0,1-.42-.32,3.011,3.011,0,0,1-.41-.45,3.37,3.37,0,0,1-.34-.59,4.678,4.678,0,0,1-.25-.69,3.676,3.676,0,0,1-.13-.75l-.03-.37.02-.35c.03-.11.05-.22.07-.33.05-.1.08-.21.13-.31a2.485,2.485,0,0,1,.86-.9,5.45,5.45,0,0,1,.87-.44C282.27,211.58,282.41,211.53,282.41,211.53Z" fill="#d9d9d9"/>
            </g>
            <path id="Path_31455" data-name="Path 31455" d="M281.65,214.94a.95.95,0,1,0,.94-1.09A1.024,1.024,0,0,0,281.65,214.94Z" fill="#d9d9d9"/>
          </g>
          <path id="Path_31456" data-name="Path 31456" d="M333.92,207.25c0,19.1-8.96,32.51-25.78,32.51s-25.78-13.41-25.78-32.51,9.3-34.58,26.13-34.58S333.92,188.16,333.92,207.25Z" fill="#f7ba93"/>
          <path id="Path_31457" data-name="Path 31457" d="M302.08,245.95s-16.01,2.12-21.77,7.1c-5.87,5.08-7.6,9.47-9.71,19.5h75.09c-2.11-10.03-3.85-14.42-9.71-19.5-5.76-4.98-21.77-7.1-21.77-7.1H302.08Z" fill="#f7ba93"/>
          <path id="Path_31458" data-name="Path 31458" d="M295.93,247.05s-9.86,1.02-15.61,6c-5.87,5.08-7.6,9.47-9.71,19.5H345.7c-2.11-10.03-3.85-14.42-9.71-19.5-5.76-4.98-15.57-5.99-15.57-5.99l-12.26,12.19Z" fill="#363c47"/>
          <path id="Path_31459" data-name="Path 31459" d="M281.65,196.75l.93,15.58,2.28.64c-2-25.15,11.25-30.91,11.25-30.91l3.71-15.75a18.474,18.474,0,0,0-16.28,8.99S279.35,179.56,281.65,196.75Z" fill="#422918"/>
          <g id="Group_12396" data-name="Group 12396">
            <path id="Path_31460" data-name="Path 31460" d="M281.78,198.77s-.47-1.96-.87-4.92c-.21-1.48-.42-3.21-.58-5.06-.07-.93-.18-1.88-.23-2.86l-.09-1.47-.02-.37v-.28l.01-.19.02-.74a10.574,10.574,0,0,1,.19-1.58,9.478,9.478,0,0,1,.35-1.57c.07-.25.13-.51.21-.75l.29-.71a12.162,12.162,0,0,1,.62-1.37,9.09,9.09,0,0,1,.71-1.26c.25-.4.51-.78.78-1.13a14.788,14.788,0,0,1,1.63-1.88,14.488,14.488,0,0,1,1.56-1.39c.48-.39.93-.69,1.3-.94a10.984,10.984,0,0,1,1.21-.69,30.748,30.748,0,0,0-3.07,3.84c-.21.3-.41.61-.61.95s-.42.67-.61,1.03a9.65,9.65,0,0,0-.57,1.11c-.18.38-.38.77-.53,1.18a8.848,8.848,0,0,0-.45,1.25,11.931,11.931,0,0,0-.36,1.3,7.985,7.985,0,0,0-.26,1.31,8.071,8.071,0,0,0-.13,1.37l-.04.74-.01.19v.08l.01.37c.02.49.03.99.05,1.47.04.98.02,1.94.04,2.87.01,1.86-.03,3.6-.11,5.09C282.06,196.77,281.78,198.77,281.78,198.77Z" fill="#2a1706"/>
          </g>
          <path id="Path_31461" data-name="Path 31461" d="M294.58,182.98s7.96,13.74,33.52,13.03c0,0-4.78-5.65-2.4-8.34C325.7,187.67,300.95,175.9,294.58,182.98Z" fill="#c6c6c5"/>
          <path id="Path_31462" data-name="Path 31462" d="M334.43,199.8l-.93,15.59-2.28.64c2-25.16-11.25-30.91-11.25-30.91l-3.7-15.75a18.474,18.474,0,0,1,16.28,8.99S336.74,182.61,334.43,199.8Z" fill="#422918"/>
          <path id="Path_31463" data-name="Path 31463" d="M290.39,168.63s3.68-7.48,16.86-9.53c0,0,21.95-2.64,28.95,12.59,0,0,3.54,7.33,2.26,20.23,0,0-1.32-5.81-4.93-7.73,0,0-.6,6.86-10.08,2.64,0,0-1.51,2.81,1.8,7.82C325.26,194.65,294.58,194.65,290.39,168.63Z" fill="#422918"/>
          <g id="Group_12397" data-name="Group 12397">
            <path id="Path_31464" data-name="Path 31464" d="M290.39,168.63a9.518,9.518,0,0,1,1.16-2.02,15.307,15.307,0,0,1,1.76-2.05c.36-.38.8-.73,1.23-1.13.46-.36.95-.75,1.49-1.11a21.026,21.026,0,0,1,3.65-2.03,27.017,27.017,0,0,1,4.39-1.56c.77-.24,1.59-.36,2.4-.55l.61-.13.68-.08c.42-.04.84-.07,1.27-.09a43.756,43.756,0,0,1,5.12.03,43.243,43.243,0,0,1,5.09.69,29.583,29.583,0,0,1,4.8,1.39,25.309,25.309,0,0,1,4.21,2.05,19.509,19.509,0,0,1,3.34,2.54,16.973,16.973,0,0,1,2.32,2.65,15.484,15.484,0,0,1,1.39,2.31,12.072,12.072,0,0,1,.69,1.58c.14.37.22.56.22.56s-.11-.18-.33-.51-.52-.82-.96-1.4a19.368,19.368,0,0,0-1.67-1.99,15.056,15.056,0,0,0-1.14-1.1,17.446,17.446,0,0,0-1.35-1.12,22.523,22.523,0,0,0-3.33-2.06,29.621,29.621,0,0,0-4.04-1.65,35.586,35.586,0,0,0-4.55-1.12,40.327,40.327,0,0,0-4.83-.58,41.8,41.8,0,0,0-4.87-.1l-1.19.06-.53.04-.58.1c-.77.14-1.55.22-2.29.41a33.343,33.343,0,0,0-4.23,1.19c-.33.12-.65.24-.97.36-.31.14-.62.27-.92.4-.62.24-1.17.55-1.72.82a23.155,23.155,0,0,0-2.83,1.79,18.789,18.789,0,0,0-1.98,1.68,16.1,16.1,0,0,0-1.14,1.25A4.09,4.09,0,0,0,290.39,168.63Z" fill="#2a1706"/>
          </g>
        </g>
      </g>
    </g>
    <g id="Group_12407" data-name="Group 12407">
      <g id="Group_12406" data-name="Group 12406">
        <path id="Path_31466" data-name="Path 31466" d="M270.67,233.41a64.18,64.18,0,1,1-64.18-64.18A64.181,64.181,0,0,1,270.67,233.41Z" fill="#6ebdbf"/>
        <g id="Group_12405" data-name="Group 12405" clip-path="url(#clip-path-4)">
          <path id="Path_31467" data-name="Path 31467" d="M235.52,241.16s-8.3,28.07-22.97,29.83v-6.4C212.55,264.6,227.58,236.56,235.52,241.16Z" fill="#422918"/>
          <rect id="Rectangle_8958" data-name="Rectangle 8958" width="12.62" height="7.51" transform="translate(200.17 263.8)" fill="#f7ba93"/>
          <path id="Path_31468" data-name="Path 31468" d="M200.89,269.4a8.606,8.606,0,0,1,5.52-2.49c1.8-.14,4.88.25,5.84-1.63a2.156,2.156,0,0,1,.54-.69v-.8H200.17v6.49A8.4,8.4,0,0,1,200.89,269.4Z" fill="#c6c6c5"/>
          <g id="Group_12402" data-name="Group 12402">
            <path id="Path_31469" data-name="Path 31469" d="M238.09,239.7a5.824,5.824,0,1,1-5.82-5.62A5.728,5.728,0,0,1,238.09,239.7Z" fill="#f7ba93"/>
            <g id="Group_12401" data-name="Group 12401">
              <path id="Path_31470" data-name="Path 31470" d="M233.02,236.57a2.384,2.384,0,0,1,.39-.01,3.448,3.448,0,0,1,1.03.2,2.482,2.482,0,0,1,1.24.95c.08.12.14.27.21.4a3.879,3.879,0,0,1,.14.45l.05.47a3.54,3.54,0,0,1-.02.46,4.2,4.2,0,0,1-.18.87,3.542,3.542,0,0,1-.36.79,2.883,2.883,0,0,1-1.09,1.08,2.768,2.768,0,0,1-.56.23c-.18.03-.33.07-.45.08h-.39s.13-.05.35-.15c.11-.04.24-.13.38-.2a3.663,3.663,0,0,0,.43-.32,3.012,3.012,0,0,0,.41-.45,3.369,3.369,0,0,0,.34-.59,3.762,3.762,0,0,0,.25-.69,3.1,3.1,0,0,0,.13-.75l.03-.37-.03-.35c-.03-.11-.05-.23-.08-.33-.05-.1-.07-.21-.13-.31a2.509,2.509,0,0,0-.87-.9,5.063,5.063,0,0,0-.87-.44C233.15,236.62,233.02,236.57,233.02,236.57Z" fill="#d9d9d9"/>
            </g>
            <path id="Path_31471" data-name="Path 31471" d="M233.77,239.98a.95.95,0,1,1-.94-1.09A1.024,1.024,0,0,1,233.77,239.98Z" fill="#d9d9d9"/>
          </g>
          <g id="Group_12404" data-name="Group 12404">
            <path id="Path_31472" data-name="Path 31472" d="M175.68,239.7a5.824,5.824,0,1,0,5.82-5.62A5.728,5.728,0,0,0,175.68,239.7Z" fill="#f7ba93"/>
            <g id="Group_12403" data-name="Group 12403">
              <path id="Path_31473" data-name="Path 31473" d="M180.75,236.57a2.384,2.384,0,0,0-.39-.01,3.448,3.448,0,0,0-1.03.2,2.524,2.524,0,0,0-1.24.95c-.08.12-.15.27-.22.4-.05.15-.09.3-.13.45l-.05.47c0,.15.01.31.02.46a4.2,4.2,0,0,0,.18.87,3.542,3.542,0,0,0,.36.79,2.883,2.883,0,0,0,1.09,1.08,2.553,2.553,0,0,0,.56.23c.18.03.33.07.46.08h.39s-.13-.05-.36-.15c-.11-.04-.24-.13-.38-.2a2.923,2.923,0,0,1-.42-.32,2.557,2.557,0,0,1-.41-.45,3.369,3.369,0,0,1-.34-.59,4.678,4.678,0,0,1-.25-.69,3.1,3.1,0,0,1-.13-.75l-.03-.37.02-.35c.03-.11.06-.23.08-.33.05-.1.07-.21.13-.31a2.484,2.484,0,0,1,.86-.9,5.063,5.063,0,0,1,.87-.44C180.61,236.62,180.75,236.57,180.75,236.57Z" fill="#d9d9d9"/>
            </g>
            <path id="Path_31474" data-name="Path 31474" d="M179.99,239.98a.955.955,0,1,0,.95-1.09A1.025,1.025,0,0,0,179.99,239.98Z" fill="#d9d9d9"/>
          </g>
          <path id="Path_31475" data-name="Path 31475" d="M232.26,232.29c0,19.1-8.96,32.5-25.78,32.5s-25.78-13.41-25.78-32.5,9.3-34.58,26.12-34.58S232.26,213.2,232.26,232.29Z" fill="#f7ba93"/>
          <path id="Path_31476" data-name="Path 31476" d="M200.43,270.99s-16.01,2.12-21.77,7.1c-5.87,5.08-7.6,9.47-9.72,19.5h75.08c-2.11-10.03-3.85-14.42-9.72-19.5-5.76-4.98-21.77-7.1-21.77-7.1Z" fill="#f7ba93"/>
          <path id="Path_31477" data-name="Path 31477" d="M212.55,270.99a84.038,84.038,0,0,1,15.04,3.55s-4.01,9.71,0,23.05H186.23s2.85-8.14,1.09-23.7a88.477,88.477,0,0,1,13.11-2.9l5.81,11.29Z" fill="#e64645"/>
          <path id="Path_31478" data-name="Path 31478" d="M233.22,234.17c-8.69-2.13-12.91-12.93-12.91-12.93a12.6,12.6,0,0,0,.28,5.23,79.515,79.515,0,0,1-25.27-18.87c-8-9.88,4.85-16.37,4.85-16.37,20.62-7.28,29.48,6.49,29.48,6.49s14.65,13.24,7.44,38.85A6.132,6.132,0,0,0,233.22,234.17Z" fill="#422918"/>
          <path id="Path_31479" data-name="Path 31479" d="M197.69,197.09s-18.47.63-22.01,29.84c0,0-5.1,53.43,18.86,62.52,0,0-1.57-15.12,5.63-18.42V264.1s-17.47-3.07-17.24-25.92c0,0,.11-26.37,13.53-31.37Z" fill="#422918"/>
          <path id="Path_31480" data-name="Path 31480" d="M234.21,245.11a1.945,1.945,0,1,1-1.95-1.95A1.946,1.946,0,0,1,234.21,245.11Z" fill="#fff"/>
        </g>
      </g>
    </g>
    <g id="Group_12414" data-name="Group 12414">
      <g id="Group_12413" data-name="Group 12413">
        <circle id="Ellipse_883" data-name="Ellipse 883" cx="64.18" cy="64.18" r="64.18" transform="translate(304.53 52.35)" fill="#ef8046"/>
        <g id="Group_12412" data-name="Group 12412" clip-path="url(#clip-path-5)">
          <rect id="Rectangle_8959" data-name="Rectangle 8959" width="12.62" height="7.51" transform="translate(362.39 146.91)" fill="#f7ba93"/>
          <path id="Path_31482" data-name="Path 31482" d="M363.12,152.52a8.606,8.606,0,0,1,5.52-2.49c1.8-.14,4.88.25,5.84-1.63a2.156,2.156,0,0,1,.54-.69v-.8H362.4v6.49A5.434,5.434,0,0,1,363.12,152.52Z" fill="#c6c6c5"/>
          <g id="Group_12409" data-name="Group 12409">
            <path id="Path_31483" data-name="Path 31483" d="M400.31,122.82a5.824,5.824,0,1,1-5.82-5.62A5.721,5.721,0,0,1,400.31,122.82Z" fill="#f7ba93"/>
            <g id="Group_12408" data-name="Group 12408">
              <path id="Path_31484" data-name="Path 31484" d="M395.24,119.69a2.386,2.386,0,0,1,.39-.01,3.448,3.448,0,0,1,1.03.2,2.482,2.482,0,0,1,1.24.95c.08.12.15.27.22.4.05.15.09.3.14.45l.05.47c0,.15-.01.31-.02.46a4.2,4.2,0,0,1-.18.87,3.542,3.542,0,0,1-.36.79,2.883,2.883,0,0,1-1.09,1.08,2.553,2.553,0,0,1-.56.23c-.18.03-.33.07-.45.08h-.39s.13-.05.36-.15c.11-.04.23-.13.38-.2a2.923,2.923,0,0,0,.42-.32,2.557,2.557,0,0,0,.41-.45,3.37,3.37,0,0,0,.34-.59,4.678,4.678,0,0,0,.25-.69,3.105,3.105,0,0,0,.13-.74l.03-.37-.03-.35c-.03-.11-.05-.23-.08-.33a2.046,2.046,0,0,0-.13-.31,2.4,2.4,0,0,0-.86-.9,5.451,5.451,0,0,0-.87-.44C395.38,119.73,395.24,119.69,395.24,119.69Z" fill="#d9d9d9"/>
            </g>
            <path id="Path_31485" data-name="Path 31485" d="M395.99,123.1a.955.955,0,1,1-.95-1.09A1.025,1.025,0,0,1,395.99,123.1Z" fill="#d9d9d9"/>
          </g>
          <g id="Group_12411" data-name="Group 12411">
            <path id="Path_31486" data-name="Path 31486" d="M337.9,122.82a5.824,5.824,0,1,0,5.82-5.62A5.721,5.721,0,0,0,337.9,122.82Z" fill="#f7ba93"/>
            <g id="Group_12410" data-name="Group 12410">
              <path id="Path_31487" data-name="Path 31487" d="M342.97,119.69a2.386,2.386,0,0,0-.39-.01,3.448,3.448,0,0,0-1.03.2,2.524,2.524,0,0,0-1.24.95c-.08.12-.14.27-.22.4-.05.15-.09.3-.13.45l-.05.47c0,.15.01.31.02.46a4.2,4.2,0,0,0,.18.87,3.542,3.542,0,0,0,.36.79,2.955,2.955,0,0,0,1.09,1.08,2.768,2.768,0,0,0,.56.23c.18.03.33.07.45.08h.39s-.13-.05-.36-.15c-.11-.04-.23-.13-.38-.2a2.923,2.923,0,0,1-.42-.32,2.557,2.557,0,0,1-.41-.45,3.37,3.37,0,0,1-.34-.59,3.763,3.763,0,0,1-.25-.69,3.7,3.7,0,0,1-.13-.74l-.03-.37.02-.35c.03-.11.05-.23.08-.33.05-.1.07-.21.13-.31a2.485,2.485,0,0,1,.86-.9,5.064,5.064,0,0,1,.87-.44C342.83,119.73,342.97,119.69,342.97,119.69Z" fill="#d9d9d9"/>
            </g>
            <path id="Path_31488" data-name="Path 31488" d="M342.22,123.1a.95.95,0,1,0,.94-1.09A1.024,1.024,0,0,0,342.22,123.1Z" fill="#d9d9d9"/>
          </g>
          <path id="Path_31489" data-name="Path 31489" d="M394.49,115.41c0,19.1-8.96,32.5-25.78,32.5s-25.78-13.41-25.78-32.5,9.3-34.58,26.12-34.58S394.49,96.31,394.49,115.41Z" fill="#f7ba93"/>
          <path id="Path_31490" data-name="Path 31490" d="M362.65,154.11s-16.02,2.12-21.77,7.1c-5.87,5.08-7.6,9.47-9.71,19.5h75.09c-2.11-10.03-3.85-14.42-9.71-19.5-5.76-4.98-21.77-7.1-21.77-7.1Z" fill="#f7ba93"/>
          <path id="Path_31491" data-name="Path 31491" d="M354.14,155.74s1.73-.73-4.6,1.26c1.74,15.74-1.09,23.7-1.09,23.7h41.36c-4.01-13.34,0-23.05,0-23.05l-3.82-1.38s-.35,19.17-17.53,17.84C368.45,174.11,353.57,175.57,354.14,155.74Z" fill="#00b0c2"/>
          <path id="Path_31492" data-name="Path 31492" d="M359.92,80.2s-18.48.63-22.01,29.84c0,0-3.45,24.06,8.21,44.57a76.027,76.027,0,0,1,16.28-.46v-6.93s-17.47-3.07-17.24-25.92c0,0,.11-26.37,13.52-31.37Z" fill="#732400"/>
          <path id="Path_31493" data-name="Path 31493" d="M377.5,80.2s20.95-.32,24.49,28.88c0,0,1.82,19.54-10.68,45.52a76.081,76.081,0,0,0-16.28-.46v-6.93s17.46-3.07,17.24-25.92c0,0-.11-26.37-13.53-31.37Z" fill="#732400"/>
          <path id="Path_31494" data-name="Path 31494" d="M352.49,87.6a40.888,40.888,0,0,0,36.72,17.16l4.88,12.43,4.84,2.01s7.31-2.01-.29-31.61c0,0-7.86-21.64-36.25-15.2C362.39,72.4,348.25,74.98,352.49,87.6Z" fill="#732400"/>
        </g>
      </g>
    </g>
    <g id="Group_12421" data-name="Group 12421">
      <g id="Group_12420" data-name="Group 12420">
        <path id="Path_31495" data-name="Path 31495" d="M372.32,320.42a64.18,64.18,0,1,1-64.18-64.18A64.181,64.181,0,0,1,372.32,320.42Z" fill="#e64645"/>
        <g id="Group_12419" data-name="Group 12419" clip-path="url(#clip-path-6)">
          <rect id="Rectangle_8960" data-name="Rectangle 8960" width="12.62" height="7.51" transform="translate(301.83 350.81)" fill="#f7ba93"/>
          <path id="Path_31496" data-name="Path 31496" d="M302.55,356.42a8.606,8.606,0,0,1,5.52-2.49c1.8-.14,4.88.25,5.84-1.63a2.156,2.156,0,0,1,.54-.69v-.8H301.83v6.49A6.018,6.018,0,0,1,302.55,356.42Z" fill="#c6c6c5"/>
          <g id="Group_12416" data-name="Group 12416">
            <path id="Path_31497" data-name="Path 31497" d="M339.74,326.72a5.824,5.824,0,1,1-5.82-5.62A5.728,5.728,0,0,1,339.74,326.72Z" fill="#f7ba93"/>
            <g id="Group_12415" data-name="Group 12415">
              <path id="Path_31498" data-name="Path 31498" d="M334.68,323.59a2.387,2.387,0,0,1,.39-.01,3.447,3.447,0,0,1,1.03.2,2.482,2.482,0,0,1,1.24.95c.08.12.15.27.22.4.05.15.09.3.13.45l.05.47c0,.15-.01.31-.02.46a4.2,4.2,0,0,1-.18.87,3.348,3.348,0,0,1-.36.79,2.883,2.883,0,0,1-1.09,1.08,2.553,2.553,0,0,1-.56.23,3.434,3.434,0,0,1-.46.08h-.39s.13-.05.35-.15c.11-.04.24-.13.38-.2a3.662,3.662,0,0,0,.43-.32,2.556,2.556,0,0,0,.41-.45,3.04,3.04,0,0,0,.34-.59,4.678,4.678,0,0,0,.25-.69,3.676,3.676,0,0,0,.13-.75l.03-.37-.02-.35c-.03-.11-.05-.22-.08-.33-.05-.1-.08-.21-.13-.31a2.512,2.512,0,0,0-.86-.91,5.451,5.451,0,0,0-.87-.44Z" fill="#d9d9d9"/>
            </g>
            <path id="Path_31499" data-name="Path 31499" d="M335.42,326.99a.95.95,0,1,1-.94-1.09A1.024,1.024,0,0,1,335.42,326.99Z" fill="#d9d9d9"/>
          </g>
          <g id="Group_12418" data-name="Group 12418">
            <path id="Path_31500" data-name="Path 31500" d="M277.34,326.72a5.824,5.824,0,1,0,5.82-5.62A5.721,5.721,0,0,0,277.34,326.72Z" fill="#f7ba93"/>
            <g id="Group_12417" data-name="Group 12417">
              <path id="Path_31501" data-name="Path 31501" d="M282.41,323.59a2.387,2.387,0,0,0-.39-.01,3.447,3.447,0,0,0-1.03.2,2.482,2.482,0,0,0-1.24.95c-.08.12-.14.27-.21.4-.05.15-.09.3-.14.45l-.05.47c0,.15.01.31.02.46a4.2,4.2,0,0,0,.18.87,3.348,3.348,0,0,0,.36.79,2.883,2.883,0,0,0,1.09,1.08,2.553,2.553,0,0,0,.56.23,3.614,3.614,0,0,0,.45.08h.39s-.13-.05-.36-.15c-.11-.04-.24-.13-.38-.2a2.923,2.923,0,0,1-.42-.32,2.556,2.556,0,0,1-.41-.45,3.04,3.04,0,0,1-.34-.59,4.678,4.678,0,0,1-.25-.69,3.1,3.1,0,0,1-.13-.75l-.03-.37.02-.35c.03-.11.05-.22.08-.33.05-.1.08-.21.13-.31a2.6,2.6,0,0,1,.86-.91,5.064,5.064,0,0,1,.87-.44C282.27,323.63,282.41,323.59,282.41,323.59Z" fill="#d9d9d9"/>
            </g>
            <path id="Path_31502" data-name="Path 31502" d="M281.65,326.99a.95.95,0,1,0,.94-1.09A1.024,1.024,0,0,0,281.65,326.99Z" fill="#d9d9d9"/>
          </g>
          <path id="Path_31503" data-name="Path 31503" d="M333.92,319.3c0,19.1-8.96,32.51-25.78,32.51s-25.78-13.41-25.78-32.51,9.3-34.58,26.12-34.58S333.92,300.21,333.92,319.3Z" fill="#f7ba93"/>
          <path id="Path_31504" data-name="Path 31504" d="M302.08,358s-16.02,2.12-21.77,7.1c-5.87,5.08-7.61,9.47-9.72,19.5h75.09c-2.11-10.03-3.85-14.42-9.71-19.5-5.76-4.98-21.77-7.1-21.77-7.1Z" fill="#f7ba93"/>
          <path id="Path_31505" data-name="Path 31505" d="M321.97,359.46c4.92,1.14,10.92,2.98,14,5.64,5.87,5.08,7.6,9.47,9.71,19.5H270.6c2.11-10.03,3.85-14.42,9.72-19.5,3.16-2.73,9.42-4.61,14.41-5.74l13.41,14.46Z" fill="#871719"/>
          <path id="Path_31506" data-name="Path 31506" d="M299.35,284.1s-18.48.63-22.01,29.83c0,0-.69,25.09-.69,54.75,0,0,4.23-7.41,25.18-10.65V351.1s-17.47-3.07-17.24-25.92c0,0,.12-26.37,13.53-31.38Z" fill="#422918"/>
          <path id="Path_31507" data-name="Path 31507" d="M316.93,284.1s20.98-1.06,24.52,28.15c0,0,.41,25.92-1.71,56.73,0,0-5.82-8.31-25.29-10.94v-6.93s17.47-3.07,17.24-25.92c0,0-.11-26.37-13.53-31.38Z" fill="#422918"/>
          <path id="Path_31508" data-name="Path 31508" d="M305.28,312.25l2.61-13.08v13.08h12.95l2.15-9.21,2.23,9.21h16.24a84.391,84.391,0,0,0-1.71-16.83s-4.32-20.35-34.8-18.55c0,0-25.68,0-27.54,35.38h27.87Z" fill="#422918"/>
        </g>
      </g>
    </g>
  </g>
  <path id="Path_31510" data-name="Path 31510" d="M74.98,121.56a25,25,0,1,1-34.23,8.82A25,25,0,0,1,74.98,121.56Z" fill="#00a26d"/>
  <path id="Path_31511" data-name="Path 31511" d="M125.72,110.18a12.5,12.5,0,1,1-17.11,4.42A12.507,12.507,0,0,1,125.72,110.18Z" fill="#e64645"/>
  <path id="Path_31512" data-name="Path 31512" d="M93.65,30.7A39.988,39.988,0,1,1,38.87,44.81,40,40,0,0,1,93.65,30.7Z" fill="#ef6a1c"/>
  <path id="Path_31513" data-name="Path 31513" d="M57.31,323.65a32.688,32.688,0,1,1,21.15-41.1A32.687,32.687,0,0,1,57.31,323.65Z" fill="#e64645"/>
  <path id="Path_31514" data-name="Path 31514" d="M41.05,372.19a13.619,13.619,0,1,1,8.81-17.13A13.614,13.614,0,0,1,41.05,372.19Z" fill="#00a26d"/>
  <path id="Path_31515" data-name="Path 31515" d="M136.64,397.48a49.02,49.02,0,1,1,31.74-61.65A49.037,49.037,0,0,1,136.64,397.48Z" fill="#ef6a1c"/>
  <path id="Path_31516" data-name="Path 31516" d="M549.02,297.64a25,25,0,1,1,34.23-8.82A25,25,0,0,1,549.02,297.64Z" fill="#00a26d"/>
  <path id="Path_31517" data-name="Path 31517" d="M498.28,309.02a12.5,12.5,0,1,1,17.11-4.42A12.507,12.507,0,0,1,498.28,309.02Z" fill="#e64645"/>
  <path id="Path_31518" data-name="Path 31518" d="M530.35,388.5a39.991,39.991,0,1,1,54.78-14.11A40,40,0,0,1,530.35,388.5Z" fill="#ef6a1c"/>
  <path id="Path_31519" data-name="Path 31519" d="M566.69,95.55a32.688,32.688,0,1,1-21.15,41.1A32.687,32.687,0,0,1,566.69,95.55Z" fill="#e64645"/>
  <path id="Path_31520" data-name="Path 31520" d="M582.95,52.01a13.619,13.619,0,1,1-8.81,17.13A13.614,13.614,0,0,1,582.95,52.01Z" fill="#00a26d"/>
  <path id="Path_31521" data-name="Path 31521" d="M487.36,21.72a49.02,49.02,0,1,1-31.74,61.65A49.037,49.037,0,0,1,487.36,21.72Z" fill="#ef6a1c"/>
  <g id="Group_12423" data-name="Group 12423">
    <ellipse id="Ellipse_885" data-name="Ellipse 885" cx="12.78" cy="13.86" rx="12.78" ry="13.86" transform="translate(60.53 39.57)" fill="#fff"/>
    <path id="Path_31522" data-name="Path 31522" d="M84.42,63.99a14.451,14.451,0,0,1-22.22,0c-8.23,3.83-13.89,11.78-13.89,20.98a22.206,22.206,0,0,0,.19,2.84,104.531,104.531,0,0,0,24.81,2.9,104.531,104.531,0,0,0,24.81-2.9,22.206,22.206,0,0,0,.19-2.84C98.31,75.77,92.65,67.82,84.42,63.99Z" fill="#fff"/>
  </g>
  <g id="Group_12424" data-name="Group 12424">
    <ellipse id="Ellipse_886" data-name="Ellipse 886" cx="10.22" cy="11.09" rx="10.22" ry="11.09" transform="translate(566.44 106.22)" fill="#fff"/>
    <path id="Path_31523" data-name="Path 31523" d="M585.55,125.76a11.561,11.561,0,0,1-17.78,0,18.138,18.138,0,0,0-10.96,19.05,86.078,86.078,0,0,0,39.7,0,16.975,16.975,0,0,0,.15-2.27A18.671,18.671,0,0,0,585.55,125.76Z" fill="#fff"/>
  </g>
  <g id="Group_12425" data-name="Group 12425">
    <ellipse id="Ellipse_887" data-name="Ellipse 887" cx="10.22" cy="11.09" rx="10.22" ry="11.09" transform="translate(37.12 272.06)" fill="#fff"/>
    <path id="Path_31524" data-name="Path 31524" d="M56.22,291.6a11.561,11.561,0,0,1-17.78,0,18.138,18.138,0,0,0-10.96,19.05,84.031,84.031,0,0,0,19.85,2.32,83.512,83.512,0,0,0,19.85-2.32,16.971,16.971,0,0,0,.15-2.27A18.637,18.637,0,0,0,56.22,291.6Z" fill="#fff"/>
  </g>
  <g id="Group_12426" data-name="Group 12426">
    <ellipse id="Ellipse_888" data-name="Ellipse 888" cx="4" cy="4.34" rx="4" ry="4.34" transform="translate(32.89 351.22)" fill="#fff"/>
    <path id="Path_31525" data-name="Path 31525" d="M40.37,358.86a4.53,4.53,0,0,1-6.96,0,7.3,7.3,0,0,0-4.35,6.56,6.544,6.544,0,0,0,.06.89,33.541,33.541,0,0,0,15.52,0,6.543,6.543,0,0,0,.06-.89A7.277,7.277,0,0,0,40.37,358.86Z" fill="#fff"/>
  </g>
  <g id="Group_12427" data-name="Group 12427">
    <ellipse id="Ellipse_889" data-name="Ellipse 889" cx="4" cy="4.34" rx="4" ry="4.34" transform="translate(500.63 290.25)" fill="#fff"/>
    <path id="Path_31526" data-name="Path 31526" d="M508.11,297.9a4.53,4.53,0,0,1-6.96,0,7.3,7.3,0,0,0-4.35,6.56,6.542,6.542,0,0,0,.06.89,33.541,33.541,0,0,0,15.52,0,6.547,6.547,0,0,0,.06-.89A7.233,7.233,0,0,0,508.11,297.9Z" fill="#fff"/>
  </g>
  <g id="Group_12428" data-name="Group 12428">
    <ellipse id="Ellipse_890" data-name="Ellipse 890" cx="4" cy="4.34" rx="4" ry="4.34" transform="translate(583.11 56.98)" fill="#fff"/>
    <path id="Path_31527" data-name="Path 31527" d="M590.58,64.62a4.53,4.53,0,0,1-6.96,0,7.3,7.3,0,0,0-4.35,6.56,6.547,6.547,0,0,0,.06.89,33.542,33.542,0,0,0,15.52,0,6.547,6.547,0,0,0,.06-.89A7.245,7.245,0,0,0,590.58,64.62Z" fill="#fff"/>
  </g>
  <g id="Group_12429" data-name="Group 12429">
    <ellipse id="Ellipse_891" data-name="Ellipse 891" cx="4" cy="4.34" rx="4" ry="4.34" transform="translate(115.37 112.94)" fill="#fff"/>
    <path id="Path_31528" data-name="Path 31528" d="M122.84,120.58a4.53,4.53,0,0,1-6.96,0,7.3,7.3,0,0,0-4.35,6.56,6.543,6.543,0,0,0,.06.89,33.541,33.541,0,0,0,15.52,0,6.543,6.543,0,0,0,.06-.89A7.244,7.244,0,0,0,122.84,120.58Z" fill="#fff"/>
  </g>
  <g id="Group_12430" data-name="Group 12430">
    <ellipse id="Ellipse_892" data-name="Ellipse 892" cx="16.61" cy="18.02" rx="16.61" ry="18.02" transform="translate(105.08 317.55)" fill="#fff"/>
    <path id="Path_31529" data-name="Path 31529" d="M136.13,349.3a18.785,18.785,0,0,1-28.88,0c-10.7,4.98-18.06,15.32-18.06,27.27a28.115,28.115,0,0,0,.25,3.69,139.825,139.825,0,0,0,64.5,0,28.115,28.115,0,0,0,.25-3.69C154.19,364.62,146.84,354.28,136.13,349.3Z" fill="#fff"/>
  </g>
  <g id="Group_12431" data-name="Group 12431">
    <ellipse id="Ellipse_893" data-name="Ellipse 893" cx="8" cy="8.67" rx="8" ry="8.67" transform="translate(54.27 127.09)" fill="#fff"/>
    <path id="Path_31530" data-name="Path 31530" d="M69.22,142.37a9.038,9.038,0,0,1-13.9,0,14.592,14.592,0,0,0-8.69,13.13,13.2,13.2,0,0,0,.12,1.78,67.53,67.53,0,0,0,31.06,0,12.978,12.978,0,0,0,.12-1.78A14.644,14.644,0,0,0,69.22,142.37Z" fill="#fff"/>
  </g>
  <g id="Group_12432" data-name="Group 12432">
    <ellipse id="Ellipse_894" data-name="Ellipse 894" cx="8" cy="8.67" rx="8" ry="8.67" transform="translate(553.73 260.12)" fill="#fff"/>
    <path id="Path_31531" data-name="Path 31531" d="M568.68,275.4a9.038,9.038,0,0,1-13.9,0,14.592,14.592,0,0,0-8.69,13.13,13.193,13.193,0,0,0,.12,1.78,67.53,67.53,0,0,0,31.06,0,12.975,12.975,0,0,0,.12-1.78A14.617,14.617,0,0,0,568.68,275.4Z" fill="#fff"/>
  </g>
  <g id="Group_12433" data-name="Group 12433">
    <ellipse id="Ellipse_895" data-name="Ellipse 895" cx="16.61" cy="18.02" rx="16.61" ry="18.02" transform="translate(485.7 35.17)" fill="#fff"/>
    <path id="Path_31532" data-name="Path 31532" d="M516.75,66.92a18.785,18.785,0,0,1-28.88,0c-10.7,4.98-18.06,15.32-18.06,27.27a28.116,28.116,0,0,0,.25,3.69,136.348,136.348,0,0,0,32.25,3.77,135.768,135.768,0,0,0,32.25-3.77,28.121,28.121,0,0,0,.25-3.69C534.81,82.24,527.45,71.9,516.75,66.92Z" fill="#fff"/>
  </g>
  <g id="Group_12434" data-name="Group 12434">
    <ellipse id="Ellipse_896" data-name="Ellipse 896" cx="12.78" cy="13.86" rx="12.78" ry="13.86" transform="translate(537.91 328.49)" fill="#fff"/>
    <path id="Path_31533" data-name="Path 31533" d="M561.8,352.92a14.451,14.451,0,0,1-22.22,0c-8.23,3.83-13.89,11.78-13.89,20.98a22.207,22.207,0,0,0,.19,2.84,107.577,107.577,0,0,0,49.62,0,22.207,22.207,0,0,0,.19-2.84C575.69,364.7,570.03,356.75,561.8,352.92Z" fill="#fff"/>
  </g>
</svg>
