<?xml version="1.0" encoding="utf-8"?>
<!-- Generator: Adobe Illustrator 23.0.5, SVG Export Plug-In . SVG Version: 6.00 Build 0)  -->
<svg version="1.0" id="Layer_1" xmlns="http://www.w3.org/2000/svg" xmlns:xlink="http://www.w3.org/1999/xlink" x="0px" y="0px"
	 viewBox="0 0 624 420" style="enable-background:new 0 0 624 420;" xml:space="preserve">
<style type="text/css">
	.st0{opacity:0.15;fill:#35B24A;}
	.st1{fill:#FFFFFF;stroke:#00A26D;stroke-width:3;stroke-miterlimit:10;}
	.st2{opacity:0.35;fill:#35B24A;}
	.st3{fill:none;stroke:#00A26D;stroke-width:3;stroke-miterlimit:10;}
	.st4{fill:#FFFFFF;}
	.st5{clip-path:url(#SVGID_2_);}
	.st6{fill:#F7BA93;}
	.st7{fill:#C6C6C5;}
	.st8{fill:#D9D9D9;}
	.st9{fill:#00B0C2;}
	.st10{fill:#E64645;}
	.st11{fill:#732400;}
	.st12{clip-path:url(#SVGID_4_);}
	.st13{fill:#1A728F;}
	.st14{fill:#054153;}
	.st15{fill:#511700;}
	.st16{clip-path:url(#SVGID_6_);}
	.st17{fill:#422918;}
	.st18{clip-path:url(#SVGID_8_);}
	.st19{fill:#363C47;}
	.st20{fill:#2A1706;}
	.st21{clip-path:url(#SVGID_10_);}
	.st22{fill:#871719;}
	.st23{clip-path:url(#SVGID_12_);}
	.st24{clip-path:url(#SVGID_14_);}
	.st25{fill:#0C3853;}
	.st26{fill:#031C2D;}
	.st27{fill:#B1B1B1;}
	.st28{fill:#946000;}
</style>
<g>
	<rect x="0" class="st0" width="624" height="419.2"/>
	<g>
		<circle class="st1" cx="312" cy="209.6" r="205"/>
		<circle class="st2" cx="312" cy="209.6" r="168.21"/>
	</g>
	<g>
		<polyline class="st3" points="92,322 152,190 211.5,322.5 		"/>
		<polyline class="st3" points="412,322 472,190 531.5,322.5 		"/>
		<polyline class="st3" points="151.5,190.5 151.5,116.5 471.5,116.5 471.5,190.5 		"/>
		<g>
			<circle class="st4" cx="311.5" cy="91.85" r="65"/>
			<g>
				<g>
					<defs>
						<circle id="SVGID_1_" cx="312" cy="91.85" r="60"/>
					</defs>
					<use xlink:href="#SVGID_1_"  style="overflow:visible;fill:#EF8046;"/>
					<clipPath id="SVGID_2_">
						<use xlink:href="#SVGID_1_"  style="overflow:visible;"/>
					</clipPath>
					<g class="st5">
						<rect x="306.1" y="120.26" class="st6" width="11.8" height="7.02"/>
						<path class="st7" d="M306.78,125.5c1.39-1.39,3.19-2.18,5.16-2.33c1.69-0.13,4.57,0.24,5.46-1.52
							c0.14-0.28,0.32-0.49,0.51-0.64v-0.75h-11.8v6.06C306.3,126.04,306.52,125.76,306.78,125.5z"/>
						<g>
							<path class="st6" d="M341.54,97.73c0,2.9-2.43,5.25-5.44,5.25c-3,0-5.44-2.35-5.44-5.25c0-2.9,2.44-5.26,5.44-5.26
								C339.11,92.48,341.54,94.83,341.54,97.73z"/>
							<g>
								<path class="st8" d="M336.81,94.81c0,0,0.13-0.02,0.37-0.01c0.23,0.01,0.57,0.04,0.96,0.19c0.39,0.14,0.85,0.42,1.16,0.89
									c0.08,0.12,0.14,0.25,0.2,0.38c0.05,0.14,0.09,0.28,0.13,0.42l0.04,0.44c0,0.14-0.01,0.29-0.02,0.43
									c-0.02,0.27-0.09,0.56-0.17,0.82c-0.08,0.27-0.2,0.51-0.34,0.74c-0.27,0.46-0.64,0.82-1.02,1.01
									c-0.18,0.12-0.37,0.16-0.52,0.22c-0.17,0.03-0.31,0.07-0.42,0.07c-0.24,0-0.37,0-0.37,0s0.12-0.05,0.33-0.14
									c0.1-0.04,0.22-0.12,0.35-0.18c0.12-0.09,0.27-0.17,0.4-0.3c0.14-0.12,0.26-0.26,0.38-0.42c0.12-0.16,0.23-0.35,0.32-0.55
									c0.09-0.2,0.17-0.42,0.23-0.64c0.06-0.23,0.11-0.45,0.12-0.7l0.03-0.34l-0.03-0.33c-0.03-0.1-0.05-0.21-0.07-0.31
									c-0.04-0.1-0.07-0.2-0.12-0.29c-0.19-0.36-0.5-0.64-0.8-0.84c-0.31-0.2-0.6-0.33-0.81-0.42
									C336.94,94.85,336.81,94.81,336.81,94.81z"/>
							</g>
							<path class="st8" d="M337.51,97.99c0,0.56-0.4,1.02-0.88,1.02c-0.49,0-0.88-0.46-0.88-1.02c0-0.56,0.4-1.02,0.88-1.02
								C337.11,96.97,337.51,97.43,337.51,97.99z"/>
						</g>
						<g>
							<path class="st6" d="M283.2,97.73c0,2.9,2.43,5.25,5.44,5.25c3.01,0,5.44-2.35,5.44-5.25c0-2.9-2.43-5.26-5.44-5.26
								C285.64,92.48,283.2,94.83,283.2,97.73z"/>
							<g>
								<path class="st8" d="M287.94,94.81c0,0-0.13-0.02-0.37-0.01c-0.23,0.01-0.57,0.04-0.96,0.19c-0.39,0.14-0.84,0.42-1.16,0.89
									c-0.08,0.12-0.13,0.25-0.21,0.38c-0.04,0.14-0.09,0.28-0.12,0.42l-0.04,0.44c0,0.14,0.01,0.29,0.02,0.43
									c0.02,0.27,0.09,0.56,0.17,0.82c0.08,0.27,0.21,0.51,0.33,0.74c0.27,0.46,0.65,0.82,1.02,1.01
									c0.18,0.12,0.37,0.16,0.53,0.22c0.17,0.03,0.31,0.07,0.42,0.07c0.24,0,0.37,0,0.37,0s-0.12-0.05-0.33-0.14
									c-0.11-0.04-0.22-0.12-0.35-0.18c-0.12-0.09-0.27-0.17-0.4-0.3c-0.14-0.12-0.26-0.26-0.38-0.42
									c-0.12-0.16-0.23-0.35-0.32-0.55c-0.1-0.2-0.17-0.42-0.23-0.64c-0.06-0.23-0.11-0.45-0.12-0.7l-0.03-0.34l0.02-0.33
									c0.03-0.1,0.05-0.21,0.07-0.31c0.04-0.1,0.07-0.2,0.12-0.29c0.19-0.36,0.5-0.64,0.81-0.84c0.31-0.2,0.6-0.33,0.81-0.42
									C287.81,94.85,287.94,94.81,287.94,94.81z"/>
							</g>
							<path class="st8" d="M287.24,97.99c0,0.56,0.4,1.02,0.88,1.02c0.49,0,0.88-0.46,0.88-1.02c0-0.56-0.39-1.02-0.88-1.02
								C287.63,96.97,287.24,97.43,287.24,97.99z"/>
						</g>
						<path class="st6" d="M336.1,90.81c0,17.85-8.38,30.39-24.1,30.39c-15.73,0-24.1-12.54-24.1-30.39
							c0-17.85,8.69-32.33,24.42-32.33C328.05,58.48,336.1,72.95,336.1,90.81z"/>
						<path class="st6" d="M306.34,126.99c0,0-14.97,1.98-20.35,6.64c-5.49,4.75-7.1,8.85-9.08,18.23h34.86h0.47h34.86
							c-1.98-9.38-3.6-13.48-9.08-18.23c-5.38-4.66-20.35-6.64-20.35-6.64H306.34z"/>
						<path class="st9" d="M298.38,128.51c0,0,1.62-0.68-4.3,1.18c1.63,14.71-1.02,22.16-1.02,22.16h38.66
							c-3.75-12.47,0-21.55,0-21.55c-3.57-1.29-3.57-1.29-3.57-1.29s-0.33,17.92-16.38,16.67
							C311.76,145.68,297.85,147.05,298.38,128.51z"/>
						<path class="st11" d="M303.78,57.89c0,0-17.27,0.59-20.58,27.89c0,0-3.22,22.49,7.68,41.66c0,0,7.28-1.13,15.22-0.43v-6.48
							c0,0-16.33-2.87-16.12-24.24c0,0,0.11-24.65,12.64-29.33L303.78,57.89z"/>
						<path class="st11" d="M320.22,57.89c0,0,19.58-0.3,22.89,27c0,0,1.7,18.27-9.99,42.56c0,0-7.29-1.13-15.22-0.43v-6.48
							c0,0,16.33-2.87,16.12-24.24c0,0-0.11-24.65-12.65-29.33L320.22,57.89z"/>
						<path class="st11" d="M296.84,64.81c0,0,11.13,17.74,34.33,16.05l4.56,11.62l4.52,1.88c0,0,6.83-1.88-0.27-29.55
							c0,0-7.35-20.23-33.89-14.21C306.1,50.6,292.88,53.01,296.84,64.81z"/>
					</g>
				</g>
			</g>
		</g>
		<g>
			<circle class="st4" cx="472" cy="189.5" r="50"/>
			<g>
				<g>
					<defs>
						
							<ellipse id="SVGID_3_" transform="matrix(0.9988 -0.0498 0.0498 0.9988 -8.8538 23.7474)" cx="472" cy="189.5" rx="45" ry="45"/>
					</defs>
					<use xlink:href="#SVGID_3_"  style="overflow:visible;fill:#1DB1A7;"/>
					<clipPath id="SVGID_4_">
						<use xlink:href="#SVGID_3_"  style="overflow:visible;"/>
					</clipPath>
					<g class="st12">
						<rect x="467.57" y="210.81" class="st6" width="8.85" height="5.26"/>
						<path class="st7" d="M468.08,214.74c1.04-1.04,2.39-1.63,3.87-1.74c1.26-0.1,3.42,0.18,4.1-1.14c0.1-0.21,0.23-0.36,0.38-0.48
							v-0.56h-8.85v4.55C467.72,215.14,467.89,214.93,468.08,214.74z"/>
						<g>
							<path class="st6" d="M494.16,193.91c0,2.18-1.83,3.94-4.08,3.94c-2.25,0-4.08-1.77-4.08-3.94c0-2.18,1.83-3.94,4.08-3.94
								C492.33,189.97,494.16,191.74,494.16,193.91z"/>
							<g>
								<path class="st8" d="M490.6,191.72c0,0,0.1-0.01,0.27-0.01c0.18,0.01,0.43,0.03,0.72,0.14c0.29,0.11,0.63,0.31,0.87,0.67
									c0.06,0.09,0.1,0.19,0.15,0.28c0.04,0.1,0.07,0.21,0.09,0.31l0.03,0.33c0,0.11-0.01,0.22-0.01,0.32
									c-0.01,0.2-0.07,0.42-0.13,0.61c-0.06,0.2-0.15,0.38-0.25,0.55c-0.2,0.34-0.48,0.61-0.77,0.76
									c-0.13,0.08-0.28,0.12-0.39,0.16c-0.12,0.03-0.23,0.05-0.32,0.05c-0.18,0-0.28,0-0.28,0s0.09-0.04,0.25-0.1
									c0.08-0.03,0.16-0.09,0.27-0.14c0.09-0.07,0.2-0.13,0.3-0.22c0.1-0.09,0.2-0.2,0.29-0.32c0.09-0.12,0.17-0.26,0.24-0.41
									c0.07-0.15,0.12-0.31,0.17-0.48c0.05-0.17,0.08-0.34,0.09-0.52l0.02-0.26l-0.02-0.25c-0.02-0.08-0.04-0.16-0.05-0.23
									c-0.03-0.07-0.05-0.15-0.09-0.22c-0.14-0.27-0.38-0.48-0.61-0.63c-0.23-0.15-0.45-0.25-0.61-0.31
									C490.7,191.75,490.6,191.72,490.6,191.72z"/>
							</g>
							<path class="st8" d="M491.13,194.11c0,0.42-0.3,0.76-0.66,0.76c-0.37,0-0.66-0.34-0.66-0.76c0-0.42,0.3-0.76,0.66-0.76
								C490.83,193.34,491.13,193.69,491.13,194.11z"/>
						</g>
						<g>
							<path class="st6" d="M450.4,193.91c0,2.18,1.83,3.94,4.08,3.94c2.25,0,4.08-1.77,4.08-3.94c0-2.18-1.83-3.94-4.08-3.94
								C452.23,189.97,450.4,191.74,450.4,193.91z"/>
							<g>
								<path class="st8" d="M453.95,191.72c0,0-0.1-0.01-0.27-0.01c-0.18,0.01-0.43,0.03-0.72,0.14c-0.29,0.11-0.63,0.31-0.87,0.67
									c-0.06,0.09-0.1,0.19-0.15,0.28c-0.04,0.1-0.07,0.21-0.09,0.31l-0.03,0.33c0,0.11,0.01,0.22,0.01,0.32
									c0.01,0.2,0.07,0.42,0.13,0.61c0.06,0.2,0.16,0.38,0.25,0.55c0.2,0.34,0.49,0.61,0.77,0.76c0.13,0.08,0.28,0.12,0.39,0.16
									c0.13,0.03,0.23,0.05,0.32,0.05c0.18,0,0.27,0,0.27,0s-0.09-0.04-0.25-0.1c-0.08-0.03-0.16-0.09-0.26-0.14
									c-0.09-0.07-0.2-0.13-0.3-0.22c-0.1-0.09-0.19-0.2-0.29-0.32c-0.09-0.12-0.17-0.26-0.24-0.41s-0.12-0.31-0.17-0.48
									c-0.05-0.17-0.08-0.34-0.09-0.52l-0.02-0.26l0.02-0.25c0.02-0.08,0.04-0.16,0.06-0.23c0.03-0.07,0.05-0.15,0.09-0.22
									c0.14-0.27,0.38-0.48,0.61-0.63c0.23-0.15,0.45-0.25,0.61-0.31C453.86,191.75,453.95,191.72,453.95,191.72z"/>
							</g>
							<path class="st8" d="M453.43,194.11c0,0.42,0.29,0.76,0.66,0.76c0.37,0,0.66-0.34,0.66-0.76c0-0.42-0.29-0.76-0.66-0.76
								C453.72,193.34,453.43,193.69,453.43,194.11z"/>
						</g>
						<path class="st6" d="M490.08,188.72c0,13.39-6.28,22.79-18.08,22.79c-11.8,0-18.08-9.4-18.08-22.79
							c0-13.39,6.52-24.24,18.32-24.24C484.04,164.47,490.08,175.33,490.08,188.72z"/>
						<path class="st6" d="M467.75,215.85c0,0-11.23,1.49-15.27,4.98c-4.11,3.56-5.33,6.64-6.81,13.67h26.15h0.36h26.15
							c-1.48-7.03-2.7-10.11-6.81-13.67c-4.03-3.49-15.26-4.98-15.26-4.98H467.75z"/>
						<path class="st13" d="M480.6,216.63c0,0,6.88,0.71,10.92,4.2c4.12,3.56,5.33,6.64,6.81,13.67h-26.15h-0.36h-26.15
							c1.48-7.03,2.7-10.11,6.81-13.67c4.04-3.49,10.95-4.21,10.95-4.21s-1.5,9.6,8.94,9.52C472.38,226.14,481,226.48,480.6,216.63z
							"/>
						<g>
							<path class="st14" d="M464.86,216.34c0.03,0.16,0.04,0.33,0.01,0.5c-0.01,0.06-0.48,3.48,1.48,5.74
								c1.25,1.43,3.28,2.15,6.04,2.13c0.02,0,0.04,0,0.07,0c0.02,0,2.93,0.06,4.87-1.9c1.34-1.36,1.97-3.76,1.85-6.47l2.88,0.51
								c0.09,3.42-0.82,6.11-2.72,8.01c-2.57,2.57-6.07,2.72-6.85,2.72c-0.12,0-0.16,0-0.22,0c-3.58,0-6.31-1.06-8.1-3.14
								c-2.35-2.73-2.29-6.34-2.18-7.59L464.86,216.34z"/>
						</g>
						<path class="st11" d="M453.43,181.35l0.65,10.93l1.6,0.45c-1.4-17.64,7.89-21.68,7.89-21.68l2.6-11.04
							c-7.94-0.19-11.42,6.3-11.42,6.3S451.81,169.3,453.43,181.35z"/>
						<g>
							<path class="st15" d="M453.51,182.77c0,0-0.3-1.38-0.57-3.46c-0.14-1.04-0.27-2.25-0.39-3.55c-0.05-0.65-0.12-1.32-0.16-2.01
								c-0.02-0.34-0.04-0.69-0.06-1.03l-0.01-0.26l0-0.03l0-0.09l0-0.06l0-0.13l0.01-0.52c0-0.33,0.07-0.72,0.13-1.1
								c0.05-0.39,0.14-0.74,0.24-1.09c0.05-0.18,0.09-0.35,0.15-0.52l0.2-0.5c0.12-0.33,0.27-0.65,0.43-0.95
								c0.15-0.31,0.31-0.61,0.49-0.88c0.17-0.28,0.35-0.54,0.54-0.79c0.36-0.51,0.75-0.94,1.13-1.32c0.37-0.39,0.74-0.71,1.08-0.98
								c0.33-0.28,0.64-0.49,0.9-0.66c0.52-0.34,0.84-0.49,0.84-0.49c0,0-1.02,0.99-2.19,2.67c-0.15,0.21-0.3,0.43-0.43,0.66
								c-0.15,0.23-0.3,0.47-0.43,0.72c-0.15,0.25-0.29,0.51-0.41,0.78c-0.13,0.27-0.27,0.54-0.38,0.83
								c-0.13,0.28-0.24,0.58-0.32,0.88c-0.1,0.3-0.19,0.6-0.26,0.92c-0.08,0.31-0.15,0.63-0.18,0.93c-0.04,0.31-0.1,0.6-0.09,0.97
								l-0.03,0.52l-0.01,0.13l0,0.07l0,0.01c0-0.12,0-0.03,0-0.05l0,0.02l0,0.03l0.01,0.26c0.01,0.35,0.02,0.69,0.04,1.03
								c0.03,0.68,0.02,1.36,0.03,2.01c0.01,1.31-0.01,2.52-0.05,3.57C453.69,181.37,453.51,182.77,453.51,182.77z"/>
						</g>
						<path class="st11" d="M490.44,183.49l-0.65,10.93l-1.6,0.45c1.62-23.53-7.15-23.92-7.15-23.92l-3.34-8.8
							c7.94-0.19,11.42,6.3,11.42,6.3S492.06,171.44,490.44,183.49z"/>
						<path class="st11" d="M463.69,170.98c0,0,10.15-3.99,20.62,1.35l0.8-8.07c0,0-2.05-15.76-22.62-10.74c0,0,2.57,1.2,3.68,2.39
							c0,0-7.92-0.55-11.42,6.66c0,0,5.35-1.79,9.66-0.64C464.41,161.94,457.95,166.2,463.69,170.98z"/>
						<g>
							<path class="st15" d="M485.11,164.27c0,0-0.11-0.44-0.4-1.16c-0.28-0.72-0.73-1.73-1.41-2.85c-0.34-0.56-0.75-1.13-1.21-1.71
								c-0.47-0.57-1.01-1.12-1.59-1.66c-0.6-0.52-1.26-1.02-1.97-1.45c-0.71-0.44-1.47-0.81-2.26-1.1
								c-0.39-0.15-0.79-0.31-1.2-0.42c-0.4-0.13-0.82-0.23-1.23-0.31c-0.82-0.17-1.65-0.32-2.45-0.38c-0.4-0.05-0.8-0.07-1.19-0.09
								c-0.39-0.02-0.78-0.06-1.15-0.04c-0.75,0-1.46,0-2.12,0.05c-0.66,0.02-1.27,0.08-1.8,0.12c-0.54,0.04-1.01,0.08-1.4,0.14
								c-0.78,0.09-1.23,0.12-1.23,0.12s0.42-0.15,1.17-0.4c0.37-0.13,0.83-0.27,1.36-0.4c0.53-0.14,1.13-0.3,1.8-0.4
								c0.33-0.06,0.68-0.13,1.05-0.18c0.37-0.04,0.74-0.08,1.13-0.12c0.39-0.05,0.79-0.05,1.2-0.07c0.41-0.03,0.83-0.02,1.26,0.01
								c0.43,0.02,0.87,0.03,1.31,0.09c0.44,0.05,0.89,0.09,1.34,0.2c0.45,0.08,0.9,0.18,1.34,0.32c0.45,0.11,0.89,0.27,1.33,0.43
								c0.87,0.34,1.71,0.77,2.48,1.27c0.79,0.48,1.47,1.1,2.1,1.7c1.23,1.25,2.1,2.65,2.66,3.9c0.56,1.26,0.83,2.37,0.96,3.15
								C485.11,163.81,485.11,164.27,485.11,164.27z"/>
						</g>
					</g>
				</g>
			</g>
		</g>
		<g>
			<circle class="st4" cx="152" cy="189.5" r="50"/>
			<g>
				<g>
					<defs>
						<path id="SVGID_5_" d="M197,189.5c0,24.85-20.15,45-45,45c-24.85,0-45-20.15-45-45c0-24.85,20.15-45,45-45
							C176.85,144.5,197,164.65,197,189.5z"/>
					</defs>
					<use xlink:href="#SVGID_5_"  style="overflow:visible;fill:#6EBDBF;"/>
					<clipPath id="SVGID_6_">
						<use xlink:href="#SVGID_5_"  style="overflow:visible;"/>
					</clipPath>
					<g class="st16">
						<path class="st17" d="M172.36,194.94c0,0-5.82,19.68-16.11,20.92v-4.48C156.25,211.37,166.79,191.71,172.36,194.94z"/>
						<rect x="147.57" y="210.81" class="st6" width="8.85" height="5.27"/>
						<path class="st7" d="M148.08,214.74c1.05-1.04,2.39-1.63,3.87-1.74c1.26-0.1,3.42,0.18,4.1-1.14c0.1-0.21,0.24-0.36,0.38-0.48
							v-0.56h-8.85v4.55C147.72,215.14,147.89,214.93,148.08,214.74z"/>
						<g>
							<path class="st6" d="M174.16,193.91c0,2.18-1.83,3.94-4.08,3.94c-2.25,0-4.08-1.77-4.08-3.94c0-2.18,1.83-3.94,4.08-3.94
								C172.33,189.97,174.16,191.74,174.16,193.91z"/>
							<g>
								<path class="st8" d="M170.6,191.72c0,0,0.1-0.01,0.27-0.01c0.17,0.01,0.43,0.03,0.72,0.14c0.29,0.11,0.63,0.31,0.87,0.67
									c0.06,0.09,0.1,0.19,0.15,0.28c0.04,0.1,0.07,0.21,0.1,0.31l0.03,0.33c0,0.11-0.01,0.22-0.01,0.32
									c-0.01,0.2-0.07,0.42-0.13,0.61c-0.06,0.2-0.15,0.38-0.25,0.56c-0.21,0.34-0.49,0.61-0.77,0.76
									c-0.13,0.09-0.28,0.12-0.39,0.16c-0.13,0.02-0.23,0.05-0.32,0.05c-0.18,0-0.27,0-0.27,0s0.09-0.04,0.25-0.1
									c0.08-0.03,0.17-0.09,0.27-0.14c0.09-0.07,0.2-0.13,0.3-0.22c0.1-0.09,0.2-0.2,0.29-0.32c0.09-0.12,0.17-0.26,0.24-0.41
									c0.07-0.15,0.13-0.31,0.17-0.48c0.05-0.17,0.08-0.34,0.09-0.52l0.02-0.26l-0.02-0.25c-0.02-0.08-0.04-0.16-0.05-0.23
									c-0.03-0.07-0.05-0.15-0.09-0.22c-0.14-0.27-0.38-0.48-0.61-0.63c-0.23-0.15-0.45-0.25-0.61-0.31
									C170.7,191.75,170.6,191.72,170.6,191.72z"/>
							</g>
							<path class="st8" d="M171.13,194.11c0,0.42-0.29,0.76-0.66,0.76c-0.37,0-0.66-0.34-0.66-0.76c0-0.42,0.29-0.76,0.66-0.76
								C170.83,193.34,171.13,193.69,171.13,194.11z"/>
						</g>
						<g>
							<path class="st6" d="M130.4,193.91c0,2.18,1.83,3.94,4.08,3.94c2.25,0,4.08-1.77,4.08-3.94c0-2.18-1.83-3.94-4.08-3.94
								C132.23,189.97,130.4,191.74,130.4,193.91z"/>
							<g>
								<path class="st8" d="M133.96,191.72c0,0-0.1-0.01-0.28-0.01c-0.18,0.01-0.43,0.03-0.72,0.14c-0.29,0.11-0.63,0.31-0.87,0.67
									c-0.06,0.09-0.1,0.19-0.15,0.28c-0.03,0.1-0.07,0.21-0.09,0.31l-0.03,0.33c0,0.11,0.01,0.22,0.01,0.32
									c0.02,0.2,0.07,0.42,0.13,0.61c0.06,0.2,0.15,0.38,0.25,0.56c0.2,0.34,0.48,0.61,0.77,0.76c0.13,0.09,0.27,0.12,0.39,0.16
									c0.13,0.02,0.23,0.05,0.32,0.05c0.18,0,0.28,0,0.28,0s-0.09-0.04-0.25-0.1c-0.08-0.03-0.17-0.09-0.26-0.14
									c-0.09-0.07-0.2-0.13-0.3-0.22c-0.1-0.09-0.2-0.2-0.29-0.32c-0.09-0.12-0.17-0.26-0.24-0.41c-0.07-0.15-0.12-0.31-0.17-0.48
									c-0.05-0.17-0.08-0.34-0.09-0.52l-0.02-0.26l0.02-0.25c0.02-0.08,0.04-0.16,0.06-0.23c0.03-0.07,0.05-0.15,0.09-0.22
									c0.14-0.27,0.38-0.48,0.6-0.63c0.23-0.15,0.45-0.25,0.61-0.31C133.86,191.75,133.96,191.72,133.96,191.72z"/>
							</g>
							<path class="st8" d="M133.42,194.11c0,0.42,0.3,0.76,0.66,0.76c0.36,0,0.66-0.34,0.66-0.76c0-0.42-0.3-0.76-0.66-0.76
								C133.72,193.34,133.42,193.69,133.42,194.11z"/>
						</g>
						<path class="st6" d="M170.07,188.72c0,13.39-6.28,22.79-18.08,22.79c-11.8,0-18.08-9.4-18.08-22.79
							c0-13.39,6.52-24.25,18.32-24.25C164.03,164.47,170.07,175.33,170.07,188.72z"/>
						<path class="st6" d="M147.75,215.85c0,0-11.23,1.48-15.26,4.98c-4.12,3.56-5.33,6.64-6.81,13.67h26.15h0.35h26.15
							c-1.48-7.03-2.7-10.11-6.81-13.67c-4.04-3.49-15.26-4.98-15.26-4.98H147.75z"/>
						<path class="st10" d="M156.25,215.85c0,0,5.79,0.76,10.54,2.49c0,0-2.81,6.81,0,16.16h-29c0,0,2-5.71,0.77-16.62
							c4.43-1.4,9.19-2.03,9.19-2.03l4.07,7.92L156.25,215.85z"/>
						<path class="st17" d="M170.74,190.03c-6.09-1.49-9.05-9.06-9.05-9.06c-0.34,1.91,0.2,3.67,0.2,3.67
							c-10.98-5.1-17.72-13.23-17.72-13.23c-5.61-6.93,3.4-11.48,3.4-11.48c14.46-5.1,20.67,4.55,20.67,4.55s10.27,9.29,5.21,27.24
							C173.46,191.71,172.75,190.52,170.74,190.03z"/>
						<path class="st17" d="M145.83,164.03c0,0-12.95,0.44-15.44,20.92c0,0-3.58,37.46,13.23,43.84c0,0-1.1-10.6,3.95-12.91v-4.86
							c0,0-12.25-2.15-12.09-18.18c0,0,0.08-18.49,9.49-22L145.83,164.03z"/>
						<path class="st4" d="M171.44,197.7c0,0.75-0.61,1.36-1.37,1.36c-0.75,0-1.36-0.61-1.36-1.36c0-0.75,0.61-1.36,1.36-1.36
							C170.83,196.34,171.44,196.95,171.44,197.7z"/>
					</g>
				</g>
			</g>
		</g>
		<g>
			<circle class="st4" cx="212" cy="302.35" r="40"/>
			<g>
				<g>
					<defs>
						<path id="SVGID_7_" d="M247,302.35c0,19.33-15.67,35-35,35c-19.33,0-35-15.67-35-35c0-19.33,15.67-35,35-35
							C231.33,267.35,247,283.02,247,302.35z"/>
					</defs>
					<use xlink:href="#SVGID_7_"  style="overflow:visible;fill:#F8B133;"/>
					<clipPath id="SVGID_8_">
						<use xlink:href="#SVGID_7_"  style="overflow:visible;"/>
					</clipPath>
					<g class="st18">
						<rect x="208.56" y="318.92" class="st6" width="6.89" height="4.09"/>
						<path class="st7" d="M208.95,321.98c0.81-0.81,1.86-1.27,3.01-1.36c0.98-0.07,2.66,0.14,3.19-0.89
							c0.08-0.16,0.18-0.28,0.3-0.38v-0.44h-6.89v3.54C208.68,322.29,208.8,322.13,208.95,321.98z"/>
						<g>
							<path class="st6" d="M229.23,305.78c0,1.69-1.42,3.06-3.17,3.06c-1.75,0-3.18-1.37-3.18-3.06c0-1.69,1.42-3.07,3.18-3.07
								C227.81,302.72,229.23,304.09,229.23,305.78z"/>
							<g>
								<path class="st8" d="M226.47,304.07c0,0,0.08-0.01,0.21-0.01c0.14,0.01,0.34,0.03,0.56,0.11c0.23,0.08,0.49,0.24,0.68,0.52
									c0.05,0.07,0.08,0.15,0.12,0.22c0.03,0.08,0.05,0.16,0.07,0.24l0.03,0.25c0,0.08-0.01,0.17-0.01,0.25
									c-0.01,0.16-0.05,0.33-0.1,0.48c-0.05,0.15-0.12,0.3-0.2,0.43c-0.16,0.27-0.38,0.48-0.6,0.59c-0.1,0.07-0.21,0.09-0.31,0.13
									c-0.1,0.02-0.18,0.04-0.25,0.04c-0.14,0-0.21,0-0.21,0s0.07-0.03,0.19-0.08c0.06-0.02,0.13-0.07,0.21-0.11
									c0.07-0.05,0.16-0.1,0.23-0.18c0.08-0.07,0.15-0.15,0.22-0.25c0.07-0.09,0.13-0.21,0.19-0.32c0.06-0.12,0.1-0.24,0.14-0.38
									c0.04-0.13,0.06-0.26,0.07-0.41l0.02-0.2l-0.01-0.19c-0.02-0.06-0.03-0.12-0.04-0.18c-0.02-0.06-0.04-0.12-0.07-0.17
									c-0.11-0.21-0.29-0.38-0.47-0.49c-0.18-0.12-0.35-0.19-0.47-0.24C226.54,304.1,226.47,304.07,226.47,304.07z"/>
							</g>
							<path class="st8" d="M226.88,305.93c0,0.33-0.23,0.59-0.51,0.59c-0.28,0-0.52-0.27-0.52-0.59c0-0.33,0.23-0.59,0.52-0.59
								C226.65,305.34,226.88,305.6,226.88,305.93z"/>
						</g>
						<g>
							<path class="st6" d="M195.2,305.78c0,1.69,1.42,3.06,3.17,3.06c1.75,0,3.17-1.37,3.17-3.06c0-1.69-1.42-3.07-3.17-3.07
								C196.62,302.72,195.2,304.09,195.2,305.78z"/>
							<g>
								<path class="st8" d="M197.97,304.07c0,0-0.08-0.01-0.21-0.01c-0.14,0.01-0.33,0.03-0.56,0.11
									c-0.22,0.08-0.49,0.24-0.67,0.52c-0.05,0.07-0.08,0.15-0.12,0.22c-0.03,0.08-0.05,0.16-0.07,0.24l-0.02,0.25
									c0,0.08,0.01,0.17,0.01,0.25c0.01,0.16,0.05,0.33,0.1,0.48c0.05,0.15,0.12,0.3,0.2,0.43c0.16,0.27,0.38,0.48,0.6,0.59
									c0.1,0.07,0.21,0.09,0.31,0.13c0.1,0.02,0.18,0.04,0.25,0.04c0.14,0,0.21,0,0.21,0s-0.07-0.03-0.2-0.08
									c-0.06-0.02-0.13-0.07-0.21-0.11c-0.07-0.05-0.16-0.1-0.23-0.18c-0.08-0.07-0.15-0.15-0.22-0.25
									c-0.07-0.09-0.13-0.21-0.19-0.32c-0.06-0.12-0.1-0.24-0.14-0.38c-0.03-0.13-0.06-0.26-0.07-0.41l-0.02-0.2l0.01-0.19
									c0.02-0.06,0.03-0.12,0.04-0.18c0.03-0.06,0.04-0.12,0.07-0.17c0.11-0.21,0.29-0.38,0.47-0.49
									c0.18-0.12,0.35-0.19,0.47-0.24C197.89,304.1,197.97,304.07,197.97,304.07z"/>
							</g>
							<path class="st8" d="M197.55,305.93c0,0.33,0.23,0.59,0.51,0.59c0.28,0,0.51-0.27,0.51-0.59c0-0.33-0.23-0.59-0.51-0.59
								C197.79,305.34,197.55,305.6,197.55,305.93z"/>
						</g>
						<path class="st6" d="M226.06,301.74c0,10.41-4.89,17.73-14.06,17.73c-9.17,0-14.06-7.31-14.06-17.73
							c0-10.41,5.07-18.86,14.25-18.86C221.36,282.88,226.06,291.33,226.06,301.74z"/>
						<path class="st6" d="M208.7,322.85c0,0-8.73,1.15-11.87,3.87c-3.2,2.77-4.15,5.16-5.3,10.63h20.34h0.28h20.34
							c-1.15-5.47-2.1-7.86-5.3-10.63c-3.14-2.72-11.87-3.87-11.87-3.87H208.7z"/>
						<path class="st19" d="M205.34,323.44c0,0-5.38,0.56-8.51,3.27c-3.2,2.77-4.15,5.16-5.3,10.63h20.34h0.28h20.34
							c-1.15-5.47-2.1-7.86-5.3-10.63c-3.14-2.72-8.49-3.27-8.49-3.27L212,330.1L205.34,323.44z"/>
						<path class="st17" d="M197.55,296.01l0.51,8.5l1.24,0.35c-1.09-13.72,6.13-16.86,6.13-16.86l2.02-8.59
							c-6.18-0.15-8.88,4.9-8.88,4.9S196.3,286.64,197.55,296.01z"/>
						<g>
							<path class="st20" d="M197.62,297.11c0,0-0.26-1.07-0.48-2.69c-0.12-0.81-0.23-1.75-0.32-2.76c-0.04-0.51-0.1-1.03-0.13-1.56
								c-0.02-0.27-0.03-0.53-0.05-0.8l-0.01-0.2l0-0.03l0-0.08l0-0.05l0-0.1l0.01-0.41c0-0.26,0.05-0.56,0.1-0.86
								c0.04-0.3,0.11-0.58,0.19-0.85c0.04-0.14,0.07-0.28,0.11-0.41l0.16-0.39c0.1-0.26,0.21-0.51,0.34-0.75
								c0.12-0.24,0.24-0.47,0.39-0.68c0.13-0.22,0.28-0.42,0.43-0.62c0.28-0.39,0.59-0.73,0.89-1.03c0.29-0.3,0.58-0.55,0.85-0.76
								c0.26-0.21,0.51-0.38,0.71-0.51c0.41-0.26,0.66-0.37,0.66-0.37c0,0-0.78,0.79-1.67,2.09c-0.11,0.16-0.23,0.33-0.33,0.52
								c-0.11,0.18-0.23,0.36-0.33,0.56c-0.11,0.19-0.22,0.39-0.31,0.61c-0.1,0.21-0.21,0.42-0.29,0.65
								c-0.1,0.22-0.18,0.45-0.25,0.68c-0.08,0.23-0.15,0.47-0.2,0.71c-0.06,0.24-0.12,0.48-0.14,0.72
								c-0.03,0.23-0.07,0.46-0.07,0.75l-0.02,0.41l-0.01,0.1l0,0.05l0,0.01c0,0.01,0-0.1,0-0.05l0,0.01l0,0.03l0.01,0.2
								c0.01,0.27,0.02,0.54,0.03,0.8c0.02,0.53,0.01,1.06,0.02,1.56c0,1.02-0.02,1.96-0.06,2.78
								C197.78,296.02,197.62,297.11,197.62,297.11z"/>
						</g>
						<path class="st7" d="M204.6,288.5c0,0,4.34,7.49,18.28,7.11c0,0-2.61-3.08-1.31-4.55C221.58,291.06,208.08,284.64,204.6,288.5
							z"/>
						<path class="st17" d="M226.34,297.68l-0.51,8.5l-1.24,0.35c1.09-13.72-6.14-16.86-6.14-16.86l-2.02-8.59
							c6.18-0.15,8.88,4.9,8.88,4.9S227.6,288.3,226.34,297.68z"/>
						<path class="st17" d="M202.32,280.67c0,0,2.01-4.08,9.2-5.2c0,0,11.97-1.44,15.79,6.87c0,0,1.93,4,1.23,11.03
							c0,0-0.72-3.17-2.69-4.22c0,0-0.33,3.74-5.5,1.44c0,0-0.82,1.53,0.98,4.26C221.34,294.87,204.6,294.87,202.32,280.67z"/>
						<g>
							<path class="st20" d="M202.32,280.67c0,0,0.16-0.44,0.63-1.1c0.24-0.33,0.55-0.72,0.96-1.12c0.2-0.21,0.43-0.4,0.67-0.61
								c0.25-0.2,0.52-0.41,0.81-0.6c0.59-0.39,1.24-0.79,1.99-1.11c0.74-0.34,1.54-0.63,2.4-0.85c0.42-0.13,0.86-0.2,1.31-0.3
								l0.33-0.07l0.37-0.05c0.23-0.02,0.46-0.04,0.69-0.05c0.92-0.05,1.86-0.04,2.79,0.02c0.93,0.07,1.87,0.2,2.77,0.38
								c0.91,0.18,1.79,0.45,2.62,0.76c0.83,0.31,1.6,0.7,2.3,1.12c0.7,0.41,1.3,0.91,1.82,1.39c0.52,0.48,0.94,0.98,1.27,1.45
								c0.33,0.46,0.58,0.89,0.76,1.26c0.19,0.36,0.29,0.66,0.37,0.86c0.08,0.2,0.12,0.31,0.12,0.31s-0.06-0.1-0.18-0.28
								c-0.11-0.18-0.28-0.45-0.52-0.76c-0.23-0.32-0.54-0.69-0.91-1.09c-0.19-0.2-0.39-0.41-0.62-0.6
								c-0.22-0.21-0.47-0.41-0.74-0.61c-0.54-0.39-1.14-0.79-1.82-1.13c-0.68-0.34-1.42-0.64-2.21-0.9
								c-0.79-0.26-1.63-0.45-2.48-0.61c-0.86-0.16-1.74-0.26-2.63-0.32c-0.89-0.07-1.78-0.09-2.66-0.06
								c-0.22,0.01-0.43,0.02-0.65,0.03l-0.29,0.02l-0.32,0.05c-0.42,0.08-0.85,0.12-1.25,0.22c-0.81,0.18-1.59,0.38-2.31,0.65
								c-0.18,0.07-0.36,0.13-0.53,0.19c-0.17,0.07-0.34,0.15-0.5,0.22c-0.34,0.13-0.64,0.3-0.94,0.45
								c-0.58,0.32-1.11,0.65-1.54,0.97c-0.44,0.32-0.8,0.64-1.08,0.92c-0.28,0.28-0.49,0.51-0.62,0.68
								C202.38,280.58,202.32,280.67,202.32,280.67z"/>
						</g>
					</g>
				</g>
			</g>
		</g>
		<g>
			<circle class="st4" cx="92" cy="302.35" r="40"/>
			<g>
				<g>
					<defs>
						<path id="SVGID_9_" d="M127,302.35c0,19.33-15.67,35-35,35c-19.33,0-35-15.67-35-35c0-19.33,15.67-35,35-35
							C111.33,267.35,127,283.02,127,302.35z"/>
					</defs>
					<use xlink:href="#SVGID_9_"  style="overflow:visible;fill:#E64645;"/>
					<clipPath id="SVGID_10_">
						<use xlink:href="#SVGID_9_"  style="overflow:visible;"/>
					</clipPath>
					<g class="st21">
						<rect x="88.56" y="318.92" class="st6" width="6.88" height="4.1"/>
						<path class="st7" d="M88.95,321.98c0.81-0.81,1.86-1.27,3.01-1.36c0.98-0.07,2.66,0.14,3.18-0.89
							c0.08-0.16,0.18-0.28,0.3-0.38v-0.44h-6.88v3.54C88.68,322.29,88.8,322.13,88.95,321.98z"/>
						<g>
							<path class="st6" d="M109.23,305.78c0,1.69-1.42,3.07-3.17,3.07c-1.75,0-3.18-1.37-3.18-3.07c0-1.69,1.42-3.07,3.18-3.07
								C107.81,302.72,109.23,304.09,109.23,305.78z"/>
							<g>
								<path class="st8" d="M106.47,304.08c0,0,0.08-0.01,0.21-0.01c0.14,0.01,0.33,0.03,0.56,0.11c0.23,0.08,0.49,0.24,0.68,0.52
									c0.05,0.07,0.08,0.14,0.12,0.22c0.03,0.08,0.05,0.16,0.07,0.24l0.03,0.26c0,0.08-0.01,0.17-0.01,0.25
									c-0.01,0.16-0.05,0.32-0.1,0.48c-0.05,0.16-0.12,0.3-0.2,0.43c-0.16,0.27-0.38,0.48-0.6,0.59c-0.1,0.07-0.22,0.09-0.3,0.13
									c-0.1,0.02-0.18,0.04-0.25,0.04c-0.14,0-0.21,0-0.21,0s0.07-0.03,0.19-0.08c0.06-0.02,0.13-0.07,0.21-0.11
									c0.07-0.05,0.16-0.1,0.23-0.17c0.08-0.07,0.15-0.15,0.22-0.25c0.07-0.09,0.13-0.2,0.19-0.32c0.06-0.12,0.1-0.24,0.14-0.38
									c0.03-0.13,0.06-0.26,0.07-0.41l0.02-0.2l-0.01-0.19c-0.02-0.06-0.03-0.12-0.04-0.18c-0.02-0.06-0.04-0.12-0.07-0.17
									c-0.11-0.21-0.29-0.38-0.47-0.49c-0.18-0.12-0.35-0.19-0.47-0.24C106.55,304.1,106.47,304.08,106.47,304.08z"/>
							</g>
							<path class="st8" d="M106.88,305.93c0,0.33-0.23,0.59-0.51,0.59c-0.28,0-0.51-0.27-0.51-0.59c0-0.33,0.23-0.59,0.51-0.59
								C106.65,305.34,106.88,305.61,106.88,305.93z"/>
						</g>
						<g>
							<path class="st6" d="M75.2,305.78c0,1.69,1.42,3.07,3.17,3.07c1.75,0,3.17-1.37,3.17-3.07c0-1.69-1.42-3.07-3.17-3.07
								C76.62,302.72,75.2,304.09,75.2,305.78z"/>
							<g>
								<path class="st8" d="M77.97,304.08c0,0-0.08-0.01-0.21-0.01c-0.14,0.01-0.33,0.03-0.56,0.11c-0.23,0.08-0.49,0.24-0.68,0.52
									c-0.05,0.07-0.08,0.14-0.12,0.22c-0.03,0.08-0.05,0.16-0.07,0.24l-0.03,0.26c0,0.08,0.01,0.17,0.01,0.25
									c0.01,0.16,0.05,0.32,0.1,0.48c0.05,0.16,0.12,0.3,0.2,0.43c0.16,0.27,0.38,0.48,0.6,0.59c0.1,0.07,0.21,0.09,0.31,0.13
									c0.1,0.02,0.18,0.04,0.25,0.04c0.14,0,0.21,0,0.21,0s-0.07-0.03-0.19-0.08c-0.06-0.02-0.13-0.07-0.21-0.11
									c-0.07-0.05-0.16-0.1-0.23-0.17c-0.08-0.07-0.15-0.15-0.22-0.25c-0.07-0.09-0.13-0.2-0.19-0.32
									c-0.06-0.12-0.1-0.24-0.14-0.38c-0.04-0.13-0.06-0.26-0.07-0.41l-0.02-0.2l0.01-0.19c0.02-0.06,0.03-0.12,0.04-0.18
									c0.03-0.06,0.04-0.12,0.07-0.17c0.11-0.21,0.29-0.38,0.47-0.49c0.18-0.12,0.35-0.19,0.47-0.24
									C77.89,304.1,77.97,304.08,77.97,304.08z"/>
							</g>
							<path class="st8" d="M77.56,305.93c0,0.33,0.23,0.59,0.52,0.59c0.28,0,0.51-0.27,0.51-0.59c0-0.33-0.23-0.59-0.51-0.59
								C77.79,305.34,77.56,305.61,77.56,305.93z"/>
						</g>
						<path class="st6" d="M106.06,301.74c0,10.41-4.89,17.73-14.06,17.73c-9.17,0-14.06-7.31-14.06-17.73
							c0-10.41,5.07-18.86,14.25-18.86S106.06,291.33,106.06,301.74z"/>
						<path class="st6" d="M88.7,322.85c0,0-8.73,1.16-11.87,3.87c-3.2,2.77-4.15,5.16-5.3,10.63h20.34h0.28h20.34
							c-1.15-5.47-2.1-7.86-5.3-10.63c-3.14-2.72-11.87-3.87-11.87-3.87H88.7z"/>
						<path class="st22" d="M99.54,323.64c2.69,0.62,5.96,1.63,7.64,3.08c3.2,2.77,4.15,5.16,5.3,10.63H92.14h-0.28H71.53
							c1.15-5.47,2.1-7.86,5.3-10.63c1.72-1.49,5.14-2.51,7.86-3.13l7.31,7.88L99.54,323.64z"/>
						<path class="st17" d="M87.21,282.54c0,0-10.08,0.34-12,16.27c0,0-0.38,13.68-0.38,29.86c0,0,2.31-4.04,13.73-5.81v-3.78
							c0,0-9.53-1.68-9.4-14.14c0,0,0.06-14.38,7.38-17.11L87.21,282.54z"/>
						<path class="st17" d="M96.8,282.54c0,0,11.44-0.58,13.37,15.35c0,0,0.22,14.13-0.93,30.94c0,0-3.17-4.53-13.79-5.97v-3.78
							c0,0,9.53-1.68,9.4-14.14c0,0-0.06-14.38-7.38-17.11L96.8,282.54z"/>
						<path class="st17" d="M90.44,297.89l1.42-7.13v7.13h7.06l1.17-5.02l1.22,5.02h8.85c0-5.08-0.93-9.18-0.93-9.18
							s-2.36-11.1-18.98-10.12c0,0-14,0-15.02,19.29H90.44z"/>
					</g>
				</g>
			</g>
		</g>
		<g>
			<circle class="st4" cx="532" cy="302.35" r="40"/>
			<g>
				<g>
					<defs>
						<path id="SVGID_11_" d="M567,302.35c0,19.33-15.67,35-35,35c-19.33,0-35-15.67-35-35c0-19.33,15.67-35,35-35
							C551.33,267.35,567,283.02,567,302.35z"/>
					</defs>
					<use xlink:href="#SVGID_11_"  style="overflow:visible;fill:#F8B133;"/>
					<clipPath id="SVGID_12_">
						<use xlink:href="#SVGID_11_"  style="overflow:visible;"/>
					</clipPath>
					<g class="st23">
						<rect x="528.56" y="318.92" class="st6" width="6.89" height="4.09"/>
						<path class="st7" d="M528.95,321.98c0.81-0.81,1.86-1.27,3.01-1.36c0.98-0.07,2.66,0.14,3.19-0.89
							c0.08-0.16,0.18-0.28,0.3-0.38v-0.44h-6.89v3.54C528.68,322.29,528.8,322.13,528.95,321.98z"/>
						<g>
							<path class="st6" d="M549.23,305.78c0,1.69-1.42,3.06-3.17,3.06s-3.18-1.37-3.18-3.06c0-1.69,1.42-3.07,3.18-3.07
								S549.23,304.09,549.23,305.78z"/>
							<g>
								<path class="st8" d="M546.47,304.07c0,0,0.08-0.01,0.21-0.01c0.14,0.01,0.34,0.03,0.56,0.11c0.23,0.08,0.49,0.24,0.68,0.52
									c0.05,0.07,0.08,0.15,0.12,0.22c0.03,0.08,0.05,0.16,0.07,0.24l0.03,0.25c0,0.08-0.01,0.17-0.01,0.25
									c-0.01,0.16-0.05,0.33-0.1,0.48c-0.05,0.15-0.12,0.3-0.2,0.43c-0.16,0.27-0.38,0.48-0.6,0.59c-0.1,0.07-0.21,0.09-0.31,0.13
									c-0.1,0.02-0.18,0.04-0.25,0.04c-0.14,0-0.21,0-0.21,0s0.07-0.03,0.19-0.08c0.06-0.02,0.13-0.07,0.21-0.11
									c0.07-0.05,0.16-0.1,0.23-0.18c0.08-0.07,0.15-0.15,0.22-0.25c0.07-0.09,0.13-0.21,0.19-0.32c0.06-0.12,0.1-0.24,0.14-0.38
									c0.04-0.13,0.06-0.26,0.07-0.41l0.02-0.2l-0.01-0.19c-0.02-0.06-0.03-0.12-0.04-0.18c-0.02-0.06-0.04-0.12-0.07-0.17
									c-0.11-0.21-0.29-0.38-0.47-0.49c-0.18-0.12-0.35-0.19-0.47-0.24C546.54,304.1,546.47,304.07,546.47,304.07z"/>
							</g>
							<path class="st8" d="M546.88,305.93c0,0.33-0.23,0.59-0.51,0.59c-0.28,0-0.52-0.27-0.52-0.59c0-0.33,0.23-0.59,0.52-0.59
								C546.65,305.34,546.88,305.6,546.88,305.93z"/>
						</g>
						<g>
							<path class="st6" d="M515.2,305.78c0,1.69,1.42,3.06,3.17,3.06c1.75,0,3.17-1.37,3.17-3.06c0-1.69-1.42-3.07-3.17-3.07
								C516.62,302.72,515.2,304.09,515.2,305.78z"/>
							<g>
								<path class="st8" d="M517.97,304.07c0,0-0.08-0.01-0.21-0.01c-0.14,0.01-0.33,0.03-0.56,0.11
									c-0.22,0.08-0.49,0.24-0.67,0.52c-0.05,0.07-0.08,0.15-0.12,0.22c-0.03,0.08-0.05,0.16-0.07,0.24l-0.02,0.25
									c0,0.08,0.01,0.17,0.01,0.25c0.01,0.16,0.05,0.33,0.1,0.48c0.05,0.15,0.12,0.3,0.2,0.43c0.16,0.27,0.38,0.48,0.6,0.59
									c0.1,0.07,0.21,0.09,0.31,0.13c0.1,0.02,0.18,0.04,0.25,0.04c0.14,0,0.21,0,0.21,0s-0.07-0.03-0.2-0.08
									c-0.06-0.02-0.13-0.07-0.21-0.11c-0.07-0.05-0.16-0.1-0.23-0.18c-0.08-0.07-0.15-0.15-0.22-0.25
									c-0.07-0.09-0.13-0.21-0.19-0.32c-0.06-0.12-0.1-0.24-0.14-0.38c-0.03-0.13-0.06-0.26-0.07-0.41l-0.02-0.2l0.01-0.19
									c0.02-0.06,0.03-0.12,0.04-0.18c0.03-0.06,0.04-0.12,0.07-0.17c0.11-0.21,0.29-0.38,0.47-0.49
									c0.18-0.12,0.35-0.19,0.47-0.24C517.89,304.1,517.97,304.07,517.97,304.07z"/>
							</g>
							<path class="st8" d="M517.55,305.93c0,0.33,0.23,0.59,0.51,0.59c0.28,0,0.51-0.27,0.51-0.59c0-0.33-0.23-0.59-0.51-0.59
								C517.79,305.34,517.55,305.6,517.55,305.93z"/>
						</g>
						<path class="st6" d="M546.06,301.74c0,10.41-4.89,17.73-14.06,17.73c-9.17,0-14.06-7.31-14.06-17.73
							c0-10.41,5.07-18.86,14.25-18.86C541.36,282.88,546.06,291.33,546.06,301.74z"/>
						<path class="st6" d="M528.7,322.85c0,0-8.73,1.15-11.87,3.87c-3.2,2.77-4.15,5.16-5.3,10.63h20.34h0.28h20.34
							c-1.15-5.47-2.1-7.86-5.3-10.63c-3.14-2.72-11.87-3.87-11.87-3.87H528.7z"/>
						<path class="st19" d="M525.34,323.44c0,0-5.38,0.56-8.51,3.27c-3.2,2.77-4.15,5.16-5.3,10.63h20.34h0.28h20.34
							c-1.15-5.47-2.1-7.86-5.3-10.63c-3.14-2.72-8.49-3.27-8.49-3.27L532,330.1L525.34,323.44z"/>
						<path class="st17" d="M517.55,296.01l0.51,8.5l1.24,0.35c-1.09-13.72,6.13-16.86,6.13-16.86l2.02-8.59
							c-6.18-0.15-8.88,4.9-8.88,4.9S516.3,286.64,517.55,296.01z"/>
						<g>
							<path class="st20" d="M517.62,297.11c0,0-0.26-1.07-0.48-2.69c-0.12-0.81-0.23-1.75-0.32-2.76c-0.04-0.51-0.1-1.03-0.13-1.56
								c-0.02-0.27-0.03-0.53-0.05-0.8l-0.01-0.2l0-0.03l0-0.08l0-0.05l0-0.1l0.01-0.41c0-0.26,0.05-0.56,0.1-0.86
								c0.04-0.3,0.11-0.58,0.19-0.85c0.04-0.14,0.07-0.28,0.11-0.41l0.16-0.39c0.1-0.26,0.21-0.51,0.34-0.75
								c0.12-0.24,0.24-0.47,0.39-0.68c0.13-0.22,0.28-0.42,0.43-0.62c0.28-0.39,0.59-0.73,0.89-1.03c0.29-0.3,0.58-0.55,0.85-0.76
								c0.26-0.21,0.51-0.38,0.71-0.51c0.41-0.26,0.66-0.37,0.66-0.37c0,0-0.78,0.79-1.67,2.09c-0.11,0.16-0.23,0.33-0.33,0.52
								c-0.11,0.18-0.23,0.36-0.33,0.56c-0.11,0.19-0.22,0.39-0.31,0.61c-0.1,0.21-0.21,0.42-0.29,0.65
								c-0.1,0.22-0.18,0.45-0.25,0.68c-0.08,0.23-0.15,0.47-0.2,0.71c-0.06,0.24-0.12,0.48-0.14,0.72
								c-0.03,0.23-0.07,0.46-0.07,0.75l-0.02,0.41l-0.01,0.1l0,0.05l0,0.01c0,0.01,0-0.1,0-0.05l0,0.01l0,0.03l0.01,0.2
								c0.01,0.27,0.02,0.54,0.03,0.8c0.02,0.53,0.01,1.06,0.02,1.56c0,1.02-0.02,1.96-0.06,2.78
								C517.78,296.02,517.62,297.11,517.62,297.11z"/>
						</g>
						<path class="st7" d="M524.6,288.5c0,0,4.34,7.49,18.28,7.11c0,0-2.61-3.08-1.31-4.55C541.58,291.06,528.08,284.64,524.6,288.5
							z"/>
						<path class="st17" d="M546.34,297.68l-0.51,8.5l-1.24,0.35c1.09-13.72-6.14-16.86-6.14-16.86l-2.02-8.59
							c6.18-0.15,8.88,4.9,8.88,4.9S547.6,288.3,546.34,297.68z"/>
						<path class="st17" d="M522.32,280.67c0,0,2.01-4.08,9.2-5.2c0,0,11.97-1.44,15.79,6.87c0,0,1.93,4,1.23,11.03
							c0,0-0.72-3.17-2.69-4.22c0,0-0.33,3.74-5.5,1.44c0,0-0.82,1.53,0.98,4.26C541.34,294.87,524.6,294.87,522.32,280.67z"/>
						<g>
							<path class="st20" d="M522.32,280.67c0,0,0.16-0.44,0.63-1.1c0.24-0.33,0.55-0.72,0.96-1.12c0.2-0.21,0.43-0.4,0.67-0.61
								c0.25-0.2,0.52-0.41,0.81-0.6c0.59-0.39,1.24-0.79,1.99-1.11c0.74-0.34,1.54-0.63,2.4-0.85c0.42-0.13,0.86-0.2,1.31-0.3
								l0.33-0.07l0.37-0.05c0.23-0.02,0.46-0.04,0.69-0.05c0.92-0.05,1.86-0.04,2.79,0.02c0.93,0.07,1.87,0.2,2.77,0.38
								c0.91,0.18,1.79,0.45,2.62,0.76c0.83,0.31,1.6,0.7,2.3,1.12c0.7,0.41,1.3,0.91,1.82,1.39c0.52,0.48,0.94,0.98,1.27,1.45
								c0.33,0.46,0.58,0.89,0.76,1.26c0.19,0.36,0.29,0.66,0.37,0.86c0.08,0.2,0.12,0.31,0.12,0.31s-0.06-0.1-0.18-0.28
								c-0.11-0.18-0.28-0.45-0.52-0.76c-0.23-0.32-0.54-0.69-0.91-1.09c-0.19-0.2-0.39-0.41-0.62-0.6
								c-0.22-0.21-0.47-0.41-0.74-0.61c-0.54-0.39-1.14-0.79-1.81-1.13c-0.68-0.34-1.42-0.64-2.21-0.9
								c-0.79-0.26-1.63-0.45-2.48-0.61c-0.86-0.16-1.74-0.26-2.63-0.32c-0.89-0.07-1.78-0.09-2.66-0.06
								c-0.22,0.01-0.43,0.02-0.65,0.03l-0.29,0.02l-0.32,0.05c-0.42,0.08-0.85,0.12-1.25,0.22c-0.81,0.18-1.59,0.38-2.31,0.65
								c-0.18,0.07-0.36,0.13-0.53,0.19c-0.17,0.07-0.34,0.15-0.5,0.22c-0.34,0.13-0.64,0.3-0.94,0.45
								c-0.58,0.32-1.11,0.65-1.54,0.97c-0.44,0.32-0.8,0.64-1.08,0.92c-0.28,0.28-0.49,0.51-0.62,0.68
								C522.38,280.58,522.32,280.67,522.32,280.67z"/>
						</g>
					</g>
				</g>
			</g>
		</g>
		<g>
			<circle class="st4" cx="412" cy="302.35" r="40"/>
			<g>
				<g>
					<defs>
						<path id="SVGID_13_" d="M447,302.35c0,19.33-15.67,35-35,35c-19.33,0-35-15.67-35-35c0-19.33,15.67-35,35-35
							C431.33,267.35,447,283.02,447,302.35z"/>
					</defs>
					<use xlink:href="#SVGID_13_"  style="overflow:visible;fill:#E64645;"/>
					<clipPath id="SVGID_14_">
						<use xlink:href="#SVGID_13_"  style="overflow:visible;"/>
					</clipPath>
					<g class="st24">
						<rect x="409.28" y="318.73" class="st6" width="6.89" height="4.1"/>
						<path class="st8" d="M413.64,322.28c-1.44-0.46-2.65-1.36-2.84-2.95c-0.02-0.22,0-0.42,0.06-0.6h-1.58v4.1h6.89v-0.51
							C415.32,322.52,414.44,322.53,413.64,322.28z"/>
						<g>
							<path class="st6" d="M429.96,305.59c0,1.69-1.42,3.07-3.17,3.07c-1.75,0-3.18-1.37-3.18-3.07c0-1.69,1.42-3.07,3.18-3.07
								C428.54,302.52,429.96,303.9,429.96,305.59z"/>
							<g>
								<path class="st8" d="M427.19,303.89c0,0,0.08-0.01,0.21-0.01c0.14,0.01,0.34,0.03,0.56,0.11c0.23,0.08,0.49,0.24,0.67,0.52
									c0.05,0.07,0.08,0.15,0.12,0.22c0.03,0.08,0.05,0.16,0.07,0.24l0.03,0.26c0,0.08-0.01,0.17-0.01,0.25
									c-0.01,0.16-0.05,0.33-0.1,0.48c-0.05,0.15-0.12,0.3-0.2,0.43c-0.16,0.27-0.38,0.48-0.6,0.59c-0.1,0.07-0.22,0.1-0.3,0.13
									c-0.1,0.02-0.18,0.04-0.25,0.04c-0.14,0-0.21,0-0.21,0s0.07-0.03,0.19-0.08c0.06-0.02,0.13-0.07,0.21-0.11
									c0.07-0.05,0.16-0.1,0.23-0.17c0.08-0.07,0.16-0.15,0.22-0.25c0.07-0.09,0.13-0.2,0.19-0.32c0.05-0.12,0.09-0.24,0.13-0.37
									c0.04-0.14,0.07-0.26,0.07-0.41l0.02-0.2l-0.01-0.19c-0.02-0.06-0.03-0.12-0.04-0.18c-0.02-0.06-0.04-0.12-0.07-0.17
									c-0.11-0.21-0.29-0.38-0.47-0.49c-0.18-0.12-0.35-0.19-0.47-0.24C427.27,303.91,427.19,303.89,427.19,303.89z"/>
							</g>
							<path class="st8" d="M427.6,305.74c0,0.33-0.23,0.59-0.51,0.59c-0.28,0-0.51-0.27-0.51-0.59c0-0.33,0.23-0.59,0.51-0.59
								C427.37,305.15,427.6,305.41,427.6,305.74z"/>
						</g>
						<g>
							<path class="st6" d="M395.93,305.59c0,1.69,1.42,3.07,3.17,3.07c1.75,0,3.17-1.37,3.17-3.07c0-1.69-1.42-3.07-3.17-3.07
								C397.35,302.52,395.93,303.9,395.93,305.59z"/>
							<g>
								<path class="st8" d="M398.69,303.89c0,0-0.08-0.01-0.21-0.01c-0.14,0.01-0.33,0.03-0.56,0.11
									c-0.22,0.08-0.49,0.24-0.68,0.52c-0.04,0.07-0.08,0.15-0.12,0.22c-0.03,0.08-0.05,0.16-0.07,0.24l-0.03,0.26
									c0,0.08,0.01,0.17,0.01,0.25c0.01,0.16,0.05,0.33,0.1,0.48c0.05,0.15,0.12,0.3,0.2,0.43c0.16,0.27,0.38,0.48,0.59,0.59
									c0.1,0.07,0.22,0.1,0.31,0.13c0.1,0.02,0.18,0.04,0.25,0.04c0.14,0,0.21,0,0.21,0s-0.07-0.03-0.19-0.08
									c-0.06-0.02-0.13-0.07-0.21-0.11c-0.07-0.05-0.16-0.1-0.23-0.17c-0.08-0.07-0.15-0.15-0.22-0.25
									c-0.07-0.09-0.13-0.2-0.19-0.32c-0.06-0.12-0.1-0.24-0.14-0.37c-0.03-0.14-0.06-0.26-0.07-0.41l-0.01-0.2l0.01-0.19
									c0.02-0.06,0.03-0.12,0.04-0.18c0.03-0.06,0.04-0.12,0.07-0.17c0.11-0.21,0.29-0.38,0.47-0.49
									c0.18-0.12,0.35-0.19,0.47-0.24C398.62,303.91,398.69,303.89,398.69,303.89z"/>
							</g>
							<path class="st8" d="M398.28,305.74c0,0.33,0.23,0.59,0.52,0.59c0.28,0,0.51-0.27,0.51-0.59c0-0.33-0.23-0.59-0.51-0.59
								C398.51,305.15,398.28,305.41,398.28,305.74z"/>
						</g>
						<path class="st6" d="M426.79,301.55c0,10.41-4.89,17.73-14.06,17.73c-9.17,0-14.06-7.31-14.06-17.73
							c0-10.41,5.07-18.86,14.25-18.86C422.08,282.69,426.79,291.13,426.79,301.55z"/>
						<path class="st6" d="M409.42,322.65c0,0-8.73,1.15-11.87,3.87c-3.2,2.77-4.15,5.16-5.3,10.63h20.34h0.28h20.34
							c-1.15-5.47-2.1-7.86-5.3-10.63c-3.14-2.72-11.87-3.87-11.87-3.87H409.42z"/>
						<path class="st4" d="M406.78,323.1c0,0-6.09,0.7-9.23,3.42c-3.2,2.77-4.15,5.16-5.3,10.63h20.34h0.28h20.34
							c-1.15-5.47-2.08-7.88-5.3-10.63c-2.65-2.27-8.62-3.3-8.62-3.3l-3.26-0.58h-6.61L406.78,323.1z"/>
						<g>
							<path class="st10" d="M411.09,327.97c0,0,0.03-0.05,0.12-0.12C411.17,327.89,411.13,327.93,411.09,327.97l-1.12,9.18h5.52
								l-1.12-9.18l0.76-3.16c0.28-0.47,0.36-1.02,0.08-1.5c-0.26-0.43-0.62-0.66-1.03-0.77c-0.65-0.18-1.41-0.07-2.1-0.07
								c-0.68,0-1.17,0.06-1.62,0.6c-0.45,0.54-0.48,1.12-0.12,1.74L411.09,327.97z"/>
							<path class="st7" d="M410.96,327.48c0,0,2.29-1.07,3.39,0.49c0,0-1.54-0.88-3.27,0L410.96,327.48z"/>
						</g>
						<path class="st25" d="M406.78,323.1c0,0-6.09,0.7-9.23,3.42c-3.2,2.77-4.15,5.16-5.3,10.63h20.34h0.28h20.34
							c-1.15-5.47-2.08-7.88-5.3-10.63c-2.65-2.27-8.62-3.3-8.62-3.3l-6.56,13.55L406.78,323.1z"/>
						<path class="st26" d="M406.86,323.2l5.86,13.58l-6.23-4.03l1.4-2.41l-6.97-5.76C400.93,324.59,404.88,323.06,406.86,323.2z"/>
						<path class="st26" d="M419.29,323.23l-6.56,13.55l6.23-4.03l-1.4-2.41l6.97-5.76C424.53,324.59,421.27,323.09,419.29,323.23z"
							/>
						<polygon class="st27" points="405.56,323.22 410.83,326.9 410.39,325.06 						"/>
						<polygon class="st27" points="420.39,323.29 414.61,326.97 415.12,324.83 						"/>
						<g>
							<polygon class="st4" points="409.28,321.44 405.56,323.22 409.97,325.85 413.05,322.45 							"/>
							<path class="st8" d="M409.23,322.75c0.55-0.5,1.19-0.83,1.95-0.8l-1.89-0.51l-3.72,1.78l3.33,1.99
								C408.47,324.4,408.48,323.42,409.23,322.75z"/>
						</g>
						<g>
							<polygon class="st4" points="416.74,321.44 420.46,323.22 416.06,325.85 412.98,322.45 							"/>
							<path class="st8" d="M416.8,322.75c-0.55-0.5-1.19-0.83-1.95-0.8l1.89-0.51l3.72,1.78l-3.32,1.99
								C417.55,324.4,417.54,323.42,416.8,322.75z"/>
						</g>
						<path class="st28" d="M398.71,304.09l1.42,1.43l0.27-11.47c0,0,0.09-5.95,6.42-5.95c0,0,5.19,2.7,11.8,0.47
							c0,0,5.91-0.93,6.61,5.21l-0.05,11.98l1.51-1.86l0.08-1.56c0,0,0.9-5.05,0-12.48c0,0-1.19-8.22-8.62-9.61
							c0,0-12.13-3.12-17.24,4.51c0,0-3.9,4.56-2.87,11.68L398.71,304.09z"/>
					</g>
				</g>
			</g>
		</g>
	</g>
</g>
</svg>
