<?xml version="1.0" encoding="utf-8"?>
<!-- Generator: Adobe Illustrator 23.0.5, SVG Export Plug-In . SVG Version: 6.00 Build 0)  -->
<svg version="1.0" id="Layer_1" xmlns="http://www.w3.org/2000/svg" xmlns:xlink="http://www.w3.org/1999/xlink" x="0px" y="0px"
	 viewBox="0 0 624 320" style="enable-background:new 0 0 624 320;" xml:space="preserve">
<style type="text/css">
	.st0{opacity:0.3;fill:#35B24A;}
	.st1{opacity:0.4;}
	.st2{fill:#F1F2F2;}
	.st3{fill:#D1E7F5;}
	.st4{fill:#EACDB0;}
	.st5{fill:#145566;}
	.st6{fill:#1A3151;}
	.st7{fill:#FFFFFF;}
	.st8{fill:#00A26D;}
	.st9{fill:#AA6755;}
	.st10{fill:#C8D6A1;}
	.st11{fill:#9EA6AD;}
	.st12{fill:#D39689;}
	.st13{fill:#FF9841;}
	.st14{fill:#224554;}
	.st15{fill:#EAC5B0;}
	.st16{fill:#B5D6CA;}
	.st17{fill:#C25D3E;}
	.st18{opacity:0.22;fill:#999999;}
	.st19{opacity:0.15;fill:#999999;}
	.st20{fill:#C1CF9B;}
	.st21{fill:#B8C494;}
	.st22{fill:#C4A594;}
	.st23{fill:#309999;}
	.st24{fill:#33A3A3;}
	.st25{fill:#3ABABA;}
	.st26{fill:#E8C3AF;}
	.st27{fill:#D9B6A3;}
	.st28{fill:#EBB044;}
	.st29{opacity:0.2;}
	.st30{fill:#999999;}
	.st31{fill:#F3F3F3;}
	.st32{fill:#F7C9A9;}
	.st33{fill:#B9DBCF;}
	.st34{fill:#FFD559;}
	.st35{opacity:0.09;}
	.st36{fill:#D5C477;}
	.st37{fill:#C4B56B;}
	.st38{fill:#B9AB65;}
	.st39{fill:#4E4E4E;}
	.st40{fill:#E1DEBA;}
</style>
<rect x="0" class="st0" width="624" height="320"/>
<g>
	<g class="st1">
		<path class="st2" d="M289.33,274.19c-16.11,0.03-32.21,0.27-48.29,1.39c-6.06,0.42-12,1.35-18.07,1.72
			c-12.14,0.75-24.06,2.14-36.24,2.78c-9.81,0.52-19.66,0.82-29.44,1.48c-9.17,0.61-19.32,0.47-28.42-0.54
			c-6.74-0.75-13.5-1.18-20.12-2.38c-7.41-1.35-15.46-2.32-23.18-2.28c-11.01,0.05-21.73,0.06-32.26,2.44
			c-3.7,0.84-8.22,2.21-11.03,3.97c-6.43,4.02-7.3,14.06-0.88,18.24c10.81,7.02,33.88,9.78,49.03,9.91
			c16.6,0.14,32.73-0.63,49.36-1.08c15.45-0.42,30.86-1.02,46.34-1c31.61,0.04,63.22,0,94.78-1.32c29.64-1.24,59.36-0.81,89.07-0.81
			c30.47,0,60.73,0.15,90.97,2.68c13.18,1.1,26.6,1.49,39.85,2.26c11.86,0.69,23.26-0.01,35.07-0.65
			c9.92-0.54,19.78-2.13,28.79-4.82c7.13-2.13,19.85-8.74,22.04-13.82c6.13-14.24-86.44-13.9-100.65-13.87
			c-15.9,0.04-31.93,0.36-47.81-0.02c-6.68-0.16-13.27-0.97-19.79-1.87c-6.5-0.89-13.04-0.66-19.63-1.04
			c-27.48-1.56-55.01-1.33-82.57-1.33C307.27,274.22,298.3,274.17,289.33,274.19z"/>
	</g>
	<path class="st3" d="M144.01,194.76l18.76,63.11l8.41,3.96l86.58-7.05c0,0,5.49-7.77,5.49-12.34c0-4.57,5.42-33.47,5.42-33.47
		L144.01,194.76z"/>
	<g>
		<g>
			<g>
				<g id="XMLID_15_">
					<path id="XMLID_16_" class="st4" d="M256.69,253.75l0.28,17.2c-0.12,4.77,0.31,9.53,0.6,14.29c0.27,4.42-0.62,8.97,1.48,13.07
						c0.66,1.28,2.06,2.18,3.12,0.7c0.82-1.14,0.44-3.12,0.65-4.45c1.52-9.97,4.36-19.7,5.77-29.69
						C270.08,254.41,266.03,254.68,256.69,253.75z"/>
				</g>
				<polygon class="st5" points="257.67,295.37 256.57,298.24 262.01,303.03 266.99,303.24 268.61,300.61 261.9,294.78 				"/>
			</g>
			<g>
				<g id="XMLID_13_">
					<path id="XMLID_14_" class="st4" d="M244.51,253.92l-3.14,16.92c-1.09,7.57-3.56,14.94-4.65,22.51
						c-0.25,1.74-0.12,3.64-0.85,5.29c-0.71,1.61-2.1,1.67-3.33,0.58c-1.65-1.46-0.89-4.07-0.86-6.06
						c0.2-13.28-0.84-26.37-1.09-39.68c0-0.17,0-0.37,0.14-0.49c0.11-0.09,0.27-0.09,0.41-0.08
						C232.42,252.99,244.44,254.29,244.51,253.92z"/>
				</g>
				<polygon class="st5" points="231.64,296.08 229.92,298.63 234.14,304.52 238.95,305.85 241.11,303.65 235.9,296.45 				"/>
			</g>
			<polygon class="st6" points="274.42,264.7 272.08,240.11 270.95,224.13 267.14,211.07 246.59,207.88 221.19,212.24 
				219.97,217.17 224.85,262.86 249.36,264.7 249.03,236.26 252.81,253.89 252.65,264.7 			"/>
		</g>
		<path class="st7" d="M226.58,163.02c-0.03,0.83-0.06,1.66-0.07,2.49c-0.3,16.87,0.63,33.96,0.74,50.97
			c8.71-1.36,17.52-2.11,26.34-2.25c2.04-0.03,11.32,1.4,12.61,0.18c1.75-1.65-0.17-1.34-0.05-3.5c0.17-2.79-1.17-5.07-0.67-8.37
			c0.59-3.88,1.78-7.72,2.46-11.6c1.37-7.78,2.19-15.66,2.46-23.56c0.24-7-0.02-14.27-3.03-20.6c-7.43-15.6-31.38-15.32-37.95,0.97
			C227.47,152.58,226.8,157.8,226.58,163.02z"/>
		<path class="st4" d="M275.76,130.35c2.56-3.32,3.67-6.9,4.76-11.41c0.81-3.35,1.49-6.75,2.15-10.13c0.44-2.24,0.84-4.2,0.88-6.45
			c0.04-1.88,1.1-4.49-0.56-6c0.33-0.76,1.45-1.02,2.09-0.49c0.1,0.08,0.19,0.19,0.32,0.22c0.22,0.06,0.43-0.11,0.56-0.29
			c0.38-0.53,0.43-1.22,0.57-1.85c0.22-1.03,0.6-2.69,1.38-3.43c0.63-0.6,1.45-0.93,2.25-1.26c0.15-0.06,0.31-0.12,0.47-0.08
			c0.13,0.04,0.23,0.14,0.32,0.25c0.83,0.94,1.75,1.85,2.45,2.87c-1.12,0.93-1.32,2.32-1.96,3.56c-0.84,1.63-1.87,2.92-2.01,4.83
			c-0.22,2.98-0.21,5.96-0.46,8.94c-0.51,5.82-1.37,11.6-2.2,17.37c-0.56,3.83-1.13,7.74-2.71,11.31c-1.55,3.51-3.75,5.62-6.69,8.09
			c-0.67,0.57-1.38,1.15-2.22,1.41c-1.28,0.39-2.69-0.06-3.8-0.82c-2.92-2.01-3.96-6.31-2.28-9.43c0.9-1.67,2.41-2.92,3.83-4.18
			C274.03,132.39,274.96,131.38,275.76,130.35z"/>
		<path class="st8" d="M253.6,141.13l-6.5,11.85c0.34,11.97,0.68,23.95,1.02,35.92c0.16,5.52,0.31,11.04,0.47,16.55
			c0.05,1.92,0.1,3.83,0.16,5.75c0.03,0.86-0.21,2.31,0.28,3.01c1.06,1.52,4.96,1.05,6.66,1.18c2.65,0.21,5.33,0.42,7.83,1.34
			c1.66,0.61,3.23,1.53,4.99,1.77c0.39,0.06,0.83,0.06,1.14-0.19c0.35-0.28,0.4-0.77,0.44-1.22c0.61-8.22,0.62-16.69,1.08-25
			c0.37-6.8,1.32-13.98,0.73-20.79c-0.01-0.11-0.02-0.23-0.04-0.34c-0.6-3.27,0-14.09,0-14.09c0.03-0.45,1.58-1.63,1.88-1.94
			c1.55-1.6,3.09-3.2,4.64-4.79c3.09-3.19,9.05-7.13,6.65-12.29c-0.29-0.63-0.74-1.17-1.21-1.68c-3.5-3.75-7.97-5.85-10.47-10.46
			c-4.38,2.16-7.95,6.43-12.61,8.21c-2.43,0.92-4.99,1.24-7.53,0.62c-1.49-0.37-4.71-1.53-3.9,1.42
			C249.76,137.66,252.46,139.77,253.6,141.13z"/>
		<path class="st8" d="M239.45,142.25l6.5,11.85c-0.14,0-0.82,29.06-0.88,31.02c-0.21,7.46-0.42,14.92-0.64,22.37
			c-0.06,2.07,0.22,4.5-0.19,6.54c-0.57,2.85-3.56,2.28-6.11,2.52c-5.58,0.5-11.46,1.46-17.06,1.17
			c-1.61-0.08,0.51-33.78,0.51-36.92c-0.01-11.31-2.34-23.86,3.4-34.11c1.67-2.98,4.62-7.77,7.87-9.24
			c3.03-1.37,7.37-1.61,10.66-2.38l0.17,2.13L239.45,142.25z"/>
		<g>
			<g>
				<path class="st6" d="M253.57,113.53c1.02,1.79,1.52,3.86,1.61,5.93c0.02,0.55,0.06,1.18,0.51,1.51
					c0.47,0.35,0.06,1.11,0.42,0.64c0.36-0.46,1.59-2.08,1.64-2.66c0.13-1.37,0.13-2.76-0.01-4.13c-0.12-1.19-0.36-2.44-1.14-3.35
					c-0.46-0.54-1.08-0.92-1.69-1.29c-0.88-0.53-1.79-1.07-2.8-1.26c-1.75-0.33-2.82,0.3-1.28,1.52
					C251.93,111.32,252.87,112.31,253.57,113.53z"/>
				<g>
					<path class="st4" d="M242.66,136.95c0.01,0.84-0.16,1.72,0.58,2.38c0.36,0.31,0.84,0.44,1.31,0.52
						c1.22,0.19,2.48,0.1,3.66-0.26c0.48-0.15,0.97-0.35,1.33-0.7c0.43-0.41,0.45-0.81,0.48-1.35c0.02-0.64,0.15-1.28,0.24-1.93
						c0.18-1.41,0.26-2.84,0.31-4.26c2.09-0.36,4.55-1.04,5.27-3.23c0.23-0.69,0.23-1.44,0.24-2.18c0.02-3.04,0.04-6.07,0.07-9.11
						c0.01-1.05,0.01-2.13-0.35-3.11c-0.63-1.71-2.23-2.73-3.81-3.37c-4.01-1.64-8.69-1.57-12.39,0.76
						c-0.99,0.62-1.92,1.42-2.48,2.5c-0.88,1.67-0.77,3.73-0.63,5.65c0.13,1.78,0.25,3.55,0.38,5.33c0.14,2.04,0.45,4.39,2.04,5.47
						c0.84,0.57,1.93,0.68,2.66,1.42c1.27,1.29,0.66,3.23,1.04,4.8C242.64,136.49,242.66,136.72,242.66,136.95z"/>
				</g>
				<path class="st6" d="M256.81,124.72c-0.03-0.56-0.28-2.21-1.13-1.18c-0.22,0.27-0.28,0.65-0.29,1.02
					c-0.01,0.36,0,0.73-0.11,1.07c-0.26,0.78-1.12,1.14-1.89,1.12c-0.31-0.01-0.62-0.06-0.89-0.21c-0.26-0.15-0.47-0.39-0.67-0.62
					c-0.49-0.57-0.99-1.13-1.48-1.7c-0.85-0.97-2.53-0.55-3.67-0.4c-1.32,0.17-2.64,0.57-3.71,1.44c-0.11,0.09-0.21,0.18-0.32,0.27
					c-0.26,0.22-0.52,0.45-0.82,0.59c-1.02,0.5-2.28-0.02-2.99-0.95c-0.33-0.42-0.63-0.97-1.14-1.04c-0.4-0.06-0.78,0.23-0.99,0.6
					c-0.2,0.37-0.26,0.81-0.29,1.25c-0.1,1.57,0.12,3.19,0.8,4.58c1.47,3.02,4.32,3.39,7.19,3.32c1.13-0.03,2.26-0.05,3.4-0.08
					c2.07-0.05,4.26-0.13,6-1.34c1.54-1.06,2.45-2.87,2.83-4.76C256.81,126.73,256.87,125.72,256.81,124.72z M249.24,129
					c-1.09,0.73-2.29,0.77-3.51,0.41c-0.52-0.16-0.3-1.02,0.22-0.87c1.01,0.3,1.96,0.3,2.86-0.32
					C249.27,127.92,249.69,128.69,249.24,129z"/>
				<path class="st6" d="M257.24,108.27c0.2-0.74,0.35-1.49,0.44-2.24c-0.7,0.25-1.46,0.31-2.2,0.19c0-0.44,0-0.87-0.01-1.31
					c0-0.36-4.92-0.62-5.31-0.65c-3.74-0.31-7.15-0.6-10.53,1.41c-2.89,1.71-4.74,4.27-5.18,7.6c-0.42,3.18,0.62,7.34,2.46,9.98
					c-0.01-0.85-0.5-2.84-0.3-3.65c0.12-0.81,0.4-1.58,0.79-2.3c0.77-1.43,1.96-2.64,3.33-3.5c2.19-1.37,4.74-2.1,7.28-2.45
					c2.33-0.32,5.17-0.62,7.47-0.01c1.11,0.3,1.29,0.57,1.96-0.54c0.12-0.2,1.05-2.5,0.96-2.5
					C258.02,108.29,257.63,108.28,257.24,108.27z"/>
			</g>
		</g>
		<g>
			<g>
				<path class="st4" d="M218.05,133.07c1.72-1.78,2.13-4.45,1.01-6.67c-2.05-4.05-4.1-8.1-6.15-12.16
					c-1.15-2.28-3.15-4.92-3.47-7.39c-0.56-4.38,0.43-9.52,0.84-13.9c0.21-2.22,0.02-5.31,0.94-7.35c0.17-0.38,2.77-3.32,2.7-3.41
					c-0.01-0.01-0.54-0.82-0.54-0.82l-0.81,0.55l-0.68-0.14l1.85-2.24l-2.67-1.96l-3.57,1.42c-0.19,2.4,0.24,4.91-0.53,7.23
					c-0.32,0.98-0.8,1.9-1.21,2.85c-0.7,1.63-1.17,3.34-1.71,5.03c-0.52,1.63-1.37,3.17-1.86,4.78c-1.1,3.6-2.17,7.21-3.25,10.81
					l9.42,21.6C210.05,135.16,215.14,136.08,218.05,133.07z"/>
			</g>
			<path class="st8" d="M233.69,136.15c-3.9-2.27-7.25-5.46-9.78-9.19c-0.07-0.14-0.13-0.28-0.19-0.42c-0.24-0.53-2.9-6.33-2.97-6.3
				c-0.07,0.03-0.13,0.06-0.2,0.09l-0.58,0.29c-0.03,0-0.05,0-0.08,0c-1.35,0.02-3.61,1.62-4.86,2.19c-3.33,1.5-6.66,2.99-10,4.49
				c-0.24,0.11-0.49,0.22-0.64,0.43c-0.18,0.25-0.18,0.58-0.15,0.89l-0.89,0.45c0.44,0.61,0.83,1.25,1.18,1.9
				c0.38,2.54,1.02,5.05,2.57,7.08c0.09,0.12,0.19,0.23,0.29,0.35c0.81,2.69,1.56,5.41,2.71,7.95c3.09,6.83,8.95,12.13,11.89,19.02
				c2.39-0.7,4.05-2.85,5.32-4.99c2.5-4.21,4.16-8.86,5.81-13.47c0.84-2.35,1.67-4.69,2.51-7.04c0.15-0.41,0.29-0.83,0.27-1.27
				C235.85,137.46,234.69,136.74,233.69,136.15z"/>
		</g>
	</g>
	<g>
		<g>
			<polygon class="st9" points="159.8,155.99 163.7,152.15 169.85,152.3 170.55,155.42 161.26,159.43 			"/>
		</g>
		<path class="st5" d="M118.35,126.02c-0.74-8.38-3.97-9.91-3.97-9.91l0,0c-0.85-0.7-1.86-1.21-2.93-1.47
			c-1.65,1.48-2.68,3.63-2.79,5.85l-0.24,0c1.01,0.02,2,0.26,2.93,0.65c0.71,4.99,1.78,12.94,1.82,15.26
			c0.06,3.46,0.88,3.53,3.21,4.29s4.79-1.19,4.79-1.19S119.1,134.4,118.35,126.02z"/>
		<g>
			<polygon class="st7" points="104.93,140.44 94.82,144.42 78.29,158.12 70.73,133.55 61.52,135.21 67.43,165.2 77.11,173.94 
				104.98,158.59 			"/>
		</g>
		<g>
			<g>
				<g>
					<g>
						<polygon class="st6" points="95.41,292.35 95.14,295 99.93,298.29 102.73,295.97 100.47,293.01 95.67,289.71 						"/>
					</g>
				</g>
				<g>
					<g>
						<polygon class="st5" points="95.53,211.55 94.71,219.57 101.9,247.15 95.23,291.47 100.14,293.16 113.1,249.9 115.15,237.31 
							115.08,210.66 						"/>
					</g>
				</g>
			</g>
			<g>
				<g>
					<g>
						<polygon class="st5" points="133.32,220.49 122.98,294.75 118.28,294.75 117.44,247.15 108.89,213.74 						"/>
					</g>
				</g>
				<g>
					<g>
						<polygon class="st6" points="118.31,294.16 118.31,296.83 123.39,299.5 125.93,296.83 123.39,294.16 						"/>
					</g>
				</g>
			</g>
			<g>
				<g>
					<g>
						<path class="st7" d="M95.78,201.7c4.01-27.01,2.58-46.69,2.79-52.09c0.21-5.4,3.91-8.2,3.91-8.2
							c1.63-0.37,3.04-1.44,4.68-1.87c11.09-2.86,17.15,5.82,21.3,15.18c5.12,11.53,9.42,23.45,12.89,35.61
							c3.05,10.67,6.11,21.44,7.39,32.51c0.53,4.57,0.97,8.9-3.91,10.92c-7.78,3.21-16.52,3.14-24.74,4.17
							c-9.44,1.18-18.89,2.05-28.4,2.45C86.72,240.59,91.77,228.71,95.78,201.7z"/>
					</g>
				</g>
			</g>
		</g>
		<g>
			<polygon class="st9" points="63.32,134.88 59.16,130.72 60.58,123.4 64.59,123.4 65.77,129.78 67.81,131 67.81,134.08 			"/>
		</g>
		<g>
			<polygon class="st7" points="112.53,138.99 123.16,140.88 142.34,159.43 159.54,153.4 165.07,160.44 142.05,173.94 
				117.73,158.35 			"/>
		</g>
		<g>
			<polygon class="st10" points="115.15,139.55 117.11,168.28 102.38,140.97 106.68,139.44 109.75,138.51 			"/>
		</g>
		<g>
			<g>
				<path class="st9" d="M115.67,123.06c-3.66-7.97-13.74-3.94-15.05,3.58c-0.75,4.28,1.52,11.71,6.63,11.78
					c0.26,0.72,0.7,2.09,1.39,2.44c0.75,0.38,2.55-0.61,3.26-0.97c0.2-0.1,0.4-0.22,0.52-0.41c0.14-0.24,0.05-0.76-0.09-1.32
					c0.55-0.18,1.09-0.43,1.62-0.76c2.23-1.4,3.43-4.09,3.55-6.72C117.6,128.04,116.77,125.45,115.67,123.06z"/>
			</g>
		</g>
		<g>
			<g>
				<path class="st5" d="M111.25,114.67c0,0,2.14,4.29-3.35,6.99c-5.48,2.7-8.12,8.17-5.93,12.71c2.19,4.54,7.35,7.01,5.4,8.83
					c-1.96,1.82-10.59,2.63-10.59,2.63s-9.24-15.64-4.25-24.64C97.52,112.19,107.29,109.5,111.25,114.67z"/>
			</g>
		</g>
	</g>
	<g>
		<g>
			<g>
				<g>
					<polygon class="st5" points="410.17,197.79 412.18,211.65 408.14,289.82 401.36,288.4 390.11,199.53 					"/>
				</g>
				<g>
					<polygon class="st5" points="376.86,195.19 375.55,247.01 388.71,291.74 396.38,288.89 389.92,249 395.85,194.75 					"/>
				</g>
				<g>
					<path class="st11" d="M396.41,284.7l-9.18,4.21l3.08,6.42l-4.82,3.03c0,0-0.45,2.67,1.16,3.8c1.62,1.13,12.1-7.67,12.1-7.67
						L396.41,284.7z"/>
				</g>
				<g>
					<path class="st11" d="M410.17,286.22l-9.96,1.68l1.31,7l-5.44,1.68c0,0-1.13,2.46,0.14,3.97c1.27,1.51,13.67-4.27,13.67-4.27
						L410.17,286.22z"/>
				</g>
			</g>
			<g>
				<path class="st6" d="M390.8,110.68c0.71,2.31,1.73,4.52,3.02,6.56c0.03-4.23,0.65-8.46,1.82-12.53
					c0.09-0.31,0.18-0.66,0.02-0.94c-0.15-0.26-0.47-0.36-0.76-0.44C389.66,102.06,389.56,106.66,390.8,110.68z"/>
			</g>
			<g>
				<g>
					<path class="st12" d="M393.68,117.32c0.55,1.74,1.45,3.71,3.26,4.77c2.13,1.25,4.4,0.61,5.99-0.35
						c5.24-3.17,14.34-20.67,0.66-24.97C391.18,92.87,391.41,110.09,393.68,117.32z"/>
				</g>
				<g>
					<path class="st6" d="M404.48,117.39c0.82,1.21,2.67,0.93,3.99,0.31c5.42-2.56,8.72-8.96,7.68-14.86
						c-0.87-4.94-6.98-8.77-8.38-2.71c-0.5,2.15,0.75,5.17,0.39,7.56C407.65,111.09,405.97,114.33,404.48,117.39z"/>
				</g>
				<g>
					<path class="st6" d="M391.13,90.47c-6.23,3.44-9.01,11.03-14.7,15.29c5.12,2.35,11.2,2.5,16.42,0.41
						c5.13-2.05,17.28-3.29,15.69-10.39C406.92,88.55,396.58,87.46,391.13,90.47z"/>
				</g>
			</g>
			<g>
				<path class="st13" d="M415.28,135.2c3.56,6.19,3.55,13.2,3.06,19.9c-1.11,15.18,0.33,32.77-4.9,47.28
					c-9.88-0.01-28.81-4.54-38.65-5.55c-1.92-13.19-0.8-20.91,0.28-35.85c0.53-7.37,1.68-17.25,4.28-24.27
					c2.13-5.74,7.82-13.16,16.41-12.93C403.82,124.01,412.04,129.58,415.28,135.2z"/>
			</g>
			<path class="st12" d="M399.19,126.86c-0.9,0.38-2,0.22-3.07-0.81c-0.92-0.89-0.64-1.18-0.44-2.49c0.29-1.93,0.8-3.85,1.2-5.76
				l5.32,1.11c0,0-1.07,5.18-1.15,5.53C400.79,125.55,400.09,126.47,399.19,126.86z"/>
		</g>
		<g>
			<g>
				<polygon class="st12" points="435.25,105.14 435.04,98.43 432.18,98.44 431.31,103.08 429.96,102.46 430.84,108.17 
					433.81,108.56 				"/>
			</g>
			<g>
				<path class="st13" d="M407.22,140.61c-2.96-2.46-4.16-6.84-2.86-10.47c0.23-0.66,0.55-1.3,1.05-1.78
					c1.14-1.1,2.91-1.12,4.48-0.93c3.31,0.42,10.84,5.42,12.7,3.06c1.55-1.96,2.01-6.63,2.73-9.02c1.53-5.04,3.06-10.09,4.59-15.13
					l5.85,1.08c-0.62,5.89-1.25,11.77-1.87,17.66c-0.41,3.83-0.81,7.65-1.22,11.48c-0.3,2.84,0.87,9.04-1.79,10.51
					c-0.7,0.38-1.52,0.43-2.32,0.42c-5.51-0.06-10.78-2.08-15.92-4.08C410.72,142.68,408.79,141.92,407.22,140.61z"/>
			</g>
		</g>
		<g>
			<polygon class="st12" points="346.03,140.59 341.87,136.5 335.33,136.66 334.58,139.98 344.47,144.25 			"/>
		</g>
		<g>
			<polygon class="st13" points="394.81,128.24 390.08,123.97 364.61,144.25 346.31,137.83 340.42,145.33 364.92,159.7 
				390.82,143.1 			"/>
		</g>
	</g>
	<polygon class="st14" points="371.5,106.08 111.5,60.08 119.5,8.08 379.5,52.08 	"/>
	<g>
		<g>
			
				<rect x="169.39" y="228.9" transform="matrix(0.998 -0.0625 0.0625 0.998 -14.8514 12.3771)" class="st15" width="42" height="29.32"/>
			
				<rect x="199.68" y="224.64" transform="matrix(0.0625 0.998 -0.998 0.0625 441.467 0.0892)" class="st16" width="42" height="20.78"/>
			
				<rect x="227.42" y="232.59" transform="matrix(0.0625 0.998 -0.998 0.0625 466.7285 -13.491)" class="st15" width="26.25" height="18.2"/>
		</g>
		<g>
			<g>
				<path class="st11" d="M254.81,280.65h-84.5c-4.16,0-7.54-3.38-7.54-7.54c0-1.92,0.72-3.74,2.03-5.14l7.68-8.24
					c0.86-0.92,2.31-0.97,3.23-0.11c0.92,0.86,0.97,2.31,0.11,3.23l-7.68,8.24c-0.51,0.55-0.8,1.27-0.8,2.02
					c0,1.64,1.33,2.97,2.97,2.97h84.5c1.26,0,2.29,1.02,2.29,2.29S256.08,280.65,254.81,280.65z"/>
				<g>
					<g>
						
							<ellipse transform="matrix(0.2298 -0.9732 0.9732 0.2298 -148.4206 395.9096)" class="st6" cx="175.92" cy="291.72" rx="9.6" ry="9.6"/>
						
							<ellipse transform="matrix(0.1602 -0.9871 0.9871 0.1602 -140.2191 418.6393)" class="st11" cx="175.92" cy="291.72" rx="5.12" ry="5.12"/>
						
							<ellipse transform="matrix(0.2298 -0.9732 0.9732 0.2298 -148.4206 395.9098)" class="st6" cx="175.92" cy="291.72" rx="3.62" ry="3.62"/>
					</g>
					<polygon class="st17" points="175.92,280.65 171.17,280.65 171.17,283.35 174.97,291.39 175.92,291.39 176.87,291.39 
						180.66,283.35 180.66,280.65 					"/>
					<rect x="171.17" y="280.65" class="st18" width="9.49" height="2.7"/>
				</g>
				<g>
					<g>
						
							<ellipse transform="matrix(0.7071 -0.7071 0.7071 0.7071 -133.5433 261.045)" class="st6" cx="248.34" cy="291.72" rx="9.6" ry="9.6"/>
						
							<ellipse transform="matrix(0.1602 -0.9871 0.9871 0.1602 -79.3983 490.1255)" class="st11" cx="248.34" cy="291.72" rx="5.12" ry="5.12"/>
						
							<ellipse transform="matrix(0.7071 -0.7071 0.7071 0.7071 -133.5433 261.045)" class="st6" cx="248.34" cy="291.72" rx="3.62" ry="3.62"/>
					</g>
					<polygon class="st17" points="248.34,280.65 243.59,280.65 243.59,283.35 247.39,291.39 248.34,291.39 249.29,291.39 
						253.09,283.35 253.09,280.65 					"/>
					<rect x="243.59" y="280.65" class="st18" width="9.49" height="2.7"/>
				</g>
				<path class="st11" d="M270.67,208.01c-0.37-0.5-0.94-0.83-1.56-0.9l-123.53-14.88l-4.19-14.87c-1.43-5.16-5.79-8.91-11.1-9.55
					l-18.05-2.17c-1.24-0.15-2.39,0.74-2.54,2c-0.15,1.25,0.74,2.39,2,2.54l18.05,2.17c3.47,0.42,6.31,2.86,7.25,6.24l4.62,16.4
					l16.86,60.19c1.44,5.11,6.16,8.67,11.46,8.67c0.05,0,0.1,0,0.15,0l82.72-5.34c5.79-0.04,10.69-4.19,11.66-9.91l6.63-38.84
					C271.2,209.14,271.04,208.51,270.67,208.01z M265.27,216.71h-9.21l0.62-6.5l9.51,1.15L265.27,216.71z M261.66,237.86h-7.61
					l1.57-16.57h8.87L261.66,237.86z M194.61,257.68l-1.73-15.25h9.83l1.06,14.66L194.61,257.68z M183.15,258.42l-2.56-15.99h9.98
					l1.75,15.4L183.15,258.42z M172.89,259.08l-3.88-16.65h9.27l2.58,16.14L172.89,259.08z M158.45,237.86l-4.67-16.57h7.96
					l3.86,16.57H158.45z M164.08,221.29h10.82l2.65,16.57h-9.61L164.08,221.29z M171.49,199.95l2.68,16.76h-11.16l-4.27-18.29
					L171.49,199.95z M185.94,201.69l1.71,15.02h-11.16l-2.63-16.47L185.94,201.69z M240.83,216.71h-11.28v-9.77l11.64,1.4
					L240.83,216.71z M243.47,208.62l10.93,1.32l-0.64,6.77h-10.63L243.47,208.62z M190.47,221.29h10.7l1.2,16.57h-10.02
					L190.47,221.29z M190.05,237.86h-10.19l-2.65-16.57h10.95L190.05,237.86z M203.46,221.29h10.96l0.62,16.57h-10.37L203.46,221.29
					z M216.7,221.29h10.56v16.57h-9.94L216.7,221.29z M229.55,221.29h11.08l-0.71,16.57h-10.37V221.29z M227.27,216.71h-10.73
					l-0.43-11.39l11.16,1.34V216.71z M214.24,216.71h-11.12l-0.95-13.06l11.63,1.4L214.24,216.71z M200.83,216.71h-10.89
					l-1.68-14.74l11.59,1.4L200.83,216.71z M204.99,242.43h10.21l0.52,13.88l-9.68,0.63L204.99,242.43z M217.49,242.43h9.77v13.14
					l-9.26,0.6L217.49,242.43z M229.55,242.43h10.18l-0.53,12.37l-9.65,0.62V242.43z M242.02,242.43h9.3l-1.11,11.66l-8.71,0.56
					L242.02,242.43z M242.21,237.86l0.71-16.57h10.4l-1.57,16.57H242.21z M156.33,198.13l4.33,18.58h-8.18L146.92,197L156.33,198.13
					z M169.86,259.28c-3.24-0.03-6.11-2.22-6.99-5.34l-3.22-11.51h7.02l3.92,16.8L169.86,259.28z M252.72,253.93
					c-0.05,0-0.1,0-0.15,0l-0.05,0l1.09-11.51h7.26l-0.92,5.4C259.35,251.36,256.31,253.93,252.72,253.93z"/>
				<path class="st17" d="M271.1,209.54l-0.56,3.35h-16.55c-1.36,0-2.47-1.1-2.47-2.47v-5.4l17.92,2.06
					C270.64,207.23,271.33,208.36,271.1,209.54z"/>
				<path class="st17" d="M101.24,161.72c-2.74-0.32-5.23,1.62-5.56,4.37c-0.33,2.74,1.62,5.23,4.37,5.56l24.66,2.97l1.1-9.94
					L101.24,161.72z"/>
				<polygon class="st18" points="125.81,164.68 99.2,171.46 124.71,174.61 				"/>
			</g>
			<polygon class="st19" points="153.77,221.29 153.13,219 264.88,219 264.48,221.29 			"/>
			<polygon class="st19" points="159.58,242.43 158.94,240.15 261.26,240.15 260.87,242.43 			"/>
		</g>
	</g>
	<g>
		<g>
			<g>
				<path class="st6" d="M345.39,158.13c-0.29-0.01-0.54-0.25-0.54-0.54l-0.11-13.33c-0.04-4.46-3.72-8.16-8.21-8.26
					c-4.49-0.1-8.11,3.45-8.07,7.9l0.11,13.33c0,0.29-0.23,0.52-0.53,0.52s-0.54-0.25-0.54-0.54l-0.11-13.33
					c-0.04-5.04,4.05-9.05,9.13-8.94c5.08,0.11,9.24,4.3,9.29,9.34l0.11,13.33C345.92,157.9,345.68,158.13,345.39,158.13z"/>
			</g>
			<polygon class="st20" points="355.27,197.28 353.11,194.61 356.01,152.25 357.67,153.35 360.39,153.98 			"/>
			<polygon class="st21" points="357.67,153.35 356.3,186.9 360.39,153.98 			"/>
			<polygon class="st21" points="314.79,151.35 356.04,152.25 354.08,194.73 311.75,193.22 			"/>
			<polygon class="st10" points="364.15,197.27 320.54,197.57 320.6,153.17 360.41,154 			"/>
			<polygon class="st10" points="320.54,197.57 311.75,193.22 314.79,151.35 318.09,152.09 320.6,153.17 			"/>
			<polygon class="st20" points="318.09,152.09 317.06,190.56 320.57,197.57 320.62,153.09 			"/>
			<polygon class="st21" points="311.75,193.23 317.06,190.56 320.57,197.57 			"/>
			<g>
				<path class="st6" d="M331.82,158.94c0-0.58-0.49-1.07-1.08-1.08c-0.59-0.01-1.06,0.45-1.06,1.04c0,0.58,0.49,1.07,1.08,1.08
					C331.35,159.99,331.83,159.52,331.82,158.94z"/>
				<g>
					<path class="st22" d="M331.37,158.93c0-0.33-0.28-0.61-0.61-0.62c-0.34-0.01-0.61,0.26-0.6,0.59c0,0.33,0.28,0.61,0.61,0.62
						C331.1,159.53,331.37,159.26,331.37,158.93z"/>
				</g>
			</g>
			<g>
				<path class="st6" d="M349.18,159.32c0-0.58-0.49-1.07-1.08-1.08c-0.59-0.01-1.06,0.45-1.06,1.04c0,0.58,0.49,1.07,1.08,1.08
					C348.72,160.37,349.19,159.9,349.18,159.32z"/>
				<g>
					<path class="st22" d="M348.73,159.31c0-0.33-0.28-0.61-0.61-0.62c-0.34-0.01-0.61,0.26-0.6,0.59c0,0.33,0.28,0.61,0.61,0.62
						C348.46,159.91,348.73,159.64,348.73,159.31z"/>
				</g>
			</g>
			<g>
				<path class="st6" d="M348.12,159.73c-0.29-0.01-0.54-0.25-0.54-0.54l-0.11-13.33c-0.04-4.46-3.72-8.16-8.21-8.26
					c-4.49-0.1-8.11,3.45-8.07,7.9l0.11,13.33c0,0.29-0.23,0.52-0.53,0.52c-0.29-0.01-0.54-0.25-0.54-0.54l-0.11-13.33
					c-0.04-5.04,4.05-9.05,9.13-8.94c5.08,0.11,9.24,4.3,9.29,9.34l0.11,13.33C348.65,159.5,348.41,159.73,348.12,159.73z"/>
			</g>
		</g>
	</g>
	<g>
		<g>
			<g>
				<path class="st6" d="M467.67,69.09c-0.32,0-0.58-0.2-0.59-0.47l-0.24-11.97c-0.08-4-4.12-7.2-9.01-7.13
					c-4.89,0.07-8.79,3.37-8.71,7.37l0.24,11.97c0.01,0.26-0.25,0.48-0.57,0.48c-0.32,0-0.58-0.2-0.59-0.47l-0.24-11.97
					c-0.09-4.52,4.33-8.26,9.85-8.34c5.53-0.08,10.1,3.54,10.19,8.07l0.24,11.97C468.25,68.87,467.99,69.08,467.67,69.09z"/>
			</g>
			<polygon class="st20" points="478.78,103.9 476.41,101.58 479.18,63.44 480.99,64.37 483.96,64.85 			"/>
			<polygon class="st21" points="480.99,64.37 479.81,94.54 483.96,64.85 			"/>
			<polygon class="st21" points="434.32,64.05 479.21,63.44 477.47,101.65 431.4,101.76 			"/>
			<polygon class="st10" points="488.44,103.59 440.99,105.35 440.66,65.49 483.98,64.86 			"/>
			<polygon class="st10" points="440.99,105.35 431.4,101.76 434.32,64.05 437.92,64.61 440.66,65.49 			"/>
			<polygon class="st20" points="437.92,64.61 437.15,99.19 441.03,105.35 440.69,65.42 			"/>
			<polygon class="st21" points="431.39,101.77 437.15,99.19 441.03,105.35 			"/>
			<g>
				<path class="st6" d="M452.92,70.28c-0.01-0.52-0.54-0.94-1.18-0.93c-0.64,0.01-1.15,0.44-1.14,0.97
					c0.01,0.52,0.54,0.94,1.18,0.93C452.42,71.24,452.93,70.81,452.92,70.28z"/>
				<g>
					<path class="st23" d="M452.42,70.29c-0.01-0.3-0.31-0.54-0.67-0.53c-0.37,0-0.66,0.25-0.65,0.55c0.01,0.3,0.31,0.54,0.67,0.53
						C452.14,70.84,452.43,70.59,452.42,70.29z"/>
				</g>
			</g>
			<g>
				<path class="st6" d="M471.82,70.03c-0.01-0.52-0.54-0.94-1.18-0.93c-0.64,0.01-1.15,0.44-1.14,0.97
					c0.01,0.52,0.54,0.94,1.18,0.93C471.31,70.98,471.83,70.55,471.82,70.03z"/>
				<g>
					<path class="st23" d="M471.32,70.03c-0.01-0.3-0.31-0.54-0.67-0.53c-0.37,0-0.66,0.25-0.65,0.55c0.01,0.3,0.31,0.54,0.67,0.53
						C471.03,70.58,471.32,70.33,471.32,70.03z"/>
				</g>
			</g>
			<g>
				<path class="st6" d="M470.66,70.43c-0.32,0-0.58-0.2-0.59-0.47L469.82,58c-0.08-4-4.12-7.2-9.01-7.13
					c-4.89,0.07-8.79,3.37-8.71,7.37l0.24,11.97c0.01,0.26-0.25,0.48-0.57,0.48c-0.32,0-0.58-0.2-0.59-0.47l-0.24-11.97
					c-0.09-4.52,4.33-8.26,9.85-8.34c5.53-0.08,10.1,3.54,10.19,8.07l0.24,11.97C471.23,70.21,470.98,70.43,470.66,70.43z"/>
			</g>
		</g>
	</g>
	<g>
		<g>
			<g>
				<path class="st6" d="M88.43,263.89c-0.32,0-0.58-0.2-0.59-0.47l-0.24-11.97c-0.08-4-4.12-7.2-9.01-7.13
					c-4.89,0.07-8.79,3.37-8.71,7.37l0.24,11.97c0.01,0.26-0.25,0.48-0.57,0.48c-0.32,0-0.58-0.2-0.59-0.47l-0.24-11.97
					c-0.09-4.52,4.33-8.26,9.85-8.34c5.53-0.08,10.1,3.54,10.19,8.07L89,263.41C89,263.67,88.75,263.89,88.43,263.89z"/>
			</g>
			<polygon class="st24" points="99.53,298.7 97.16,296.38 99.93,258.25 101.75,259.17 104.71,259.65 			"/>
			<polygon class="st23" points="101.75,259.17 100.57,289.35 104.71,259.65 			"/>
			<polygon class="st23" points="55.07,258.86 99.97,258.25 98.22,296.45 52.15,296.56 			"/>
			<polygon class="st25" points="109.2,298.39 61.75,300.16 61.42,260.29 104.73,259.66 			"/>
			<polygon class="st25" points="61.75,300.16 52.15,296.56 55.07,258.86 58.68,259.41 61.42,260.29 			"/>
			<polygon class="st24" points="58.68,259.41 57.9,293.99 61.78,300.16 61.44,260.23 			"/>
			<polygon class="st23" points="52.15,296.57 57.9,293.99 61.78,300.16 			"/>
			<g>
				<path class="st6" d="M73.68,265.09c-0.01-0.52-0.54-0.94-1.18-0.93c-0.64,0.01-1.15,0.44-1.14,0.97
					c0.01,0.52,0.54,0.94,1.18,0.93C73.18,266.04,73.69,265.61,73.68,265.09z"/>
				<g>
					<path class="st23" d="M73.18,265.09c-0.01-0.3-0.31-0.54-0.67-0.53c-0.37,0-0.66,0.25-0.65,0.55c0.01,0.3,0.31,0.54,0.67,0.53
						C72.89,265.64,73.19,265.39,73.18,265.09z"/>
				</g>
			</g>
			<g>
				<path class="st6" d="M92.57,264.83c-0.01-0.52-0.54-0.94-1.18-0.93c-0.64,0.01-1.15,0.44-1.14,0.97
					c0.01,0.52,0.54,0.94,1.18,0.93C92.07,265.79,92.58,265.35,92.57,264.83z"/>
				<g>
					<path class="st23" d="M92.07,264.84c-0.01-0.3-0.31-0.54-0.67-0.53c-0.37,0-0.66,0.25-0.65,0.55c0.01,0.3,0.31,0.54,0.67,0.53
						C91.79,265.38,92.08,265.14,92.07,264.84z"/>
				</g>
			</g>
			<g>
				<path class="st6" d="M91.41,265.23c-0.32,0-0.58-0.2-0.59-0.47l-0.24-11.97c-0.08-4-4.12-7.2-9.01-7.13
					c-4.89,0.07-8.79,3.37-8.71,7.37l0.24,11.97c0.01,0.26-0.25,0.48-0.57,0.48c-0.32,0-0.58-0.2-0.59-0.47l-0.24-11.97
					c-0.09-4.52,4.33-8.26,9.85-8.34c5.53-0.08,10.1,3.54,10.19,8.07l0.24,11.97C91.99,265.01,91.73,265.23,91.41,265.23z"/>
			</g>
		</g>
	</g>
	<g>
		<g>
			<g>
				<path class="st6" d="M79.36,179.94c-0.29-0.07-0.46-0.38-0.39-0.69l3.11-13.99c1.04-4.67-1.66-9.38-6.01-10.49
					c-4.35-1.11-8.74,1.78-9.78,6.46l-3.11,13.99c-0.07,0.31-0.35,0.5-0.64,0.42c-0.29-0.07-0.46-0.38-0.39-0.69l3.11-13.99
					c1.18-5.29,6.14-8.56,11.06-7.3c4.92,1.26,7.97,6.58,6.79,11.87L80,179.52C79.93,179.82,79.64,180.01,79.36,179.94z"/>
			</g>
			<polygon class="st22" points="79.53,223.15 78.07,219.87 91.13,176.17 92.48,177.69 94.98,178.97 			"/>
			<polygon class="st22" points="92.48,177.69 83.05,212.52 94.98,178.97 			"/>
			<polygon class="st22" points="51.18,165.96 91.16,176.18 78.99,220.22 38.11,209.12 			"/>
			<polygon class="st15" points="88.19,225.14 45.62,215.65 56.4,169.18 94.99,178.99 			"/>
			<polygon class="st26" points="45.62,215.65 38.11,209.12 51.18,165.96 54.22,167.48 56.4,169.18 			"/>
			<polygon class="st27" points="54.22,167.48 43.92,207.53 45.65,215.65 56.44,169.1 			"/>
			<polygon class="st22" points="38.1,209.13 43.92,207.53 45.65,215.65 			"/>
			<g>
				<path class="st6" d="M65.94,177.74c0.14-0.61-0.22-1.23-0.79-1.37c-0.57-0.15-1.14,0.23-1.28,0.85
					c-0.14,0.61,0.22,1.23,0.79,1.37C65.23,178.73,65.81,178.35,65.94,177.74z"/>
				<g>
					<path class="st22" d="M65.5,177.63c0.08-0.35-0.12-0.7-0.45-0.79c-0.33-0.08-0.65,0.13-0.73,0.48
						c-0.08,0.35,0.12,0.7,0.45,0.79C65.1,178.19,65.42,177.98,65.5,177.63z"/>
				</g>
			</g>
			<g>
				<path class="st6" d="M82.77,182.04c0.14-0.61-0.22-1.23-0.79-1.37c-0.57-0.15-1.14,0.23-1.28,0.85
					c-0.14,0.61,0.22,1.23,0.79,1.37C82.06,183.03,82.63,182.65,82.77,182.04z"/>
				<g>
					<path class="st22" d="M82.33,181.93c0.08-0.35-0.12-0.7-0.45-0.79c-0.33-0.08-0.65,0.13-0.73,0.48
						c-0.08,0.35,0.12,0.7,0.45,0.79C81.92,182.49,82.25,182.28,82.33,181.93z"/>
				</g>
			</g>
			<g>
				<path class="st6" d="M81.63,182.23c-0.29-0.07-0.46-0.38-0.39-0.69l3.11-13.99c1.04-4.67-1.66-9.38-6.01-10.49
					c-4.35-1.11-8.74,1.78-9.78,6.46l-3.11,13.99c-0.07,0.31-0.35,0.5-0.64,0.42c-0.29-0.07-0.46-0.38-0.39-0.69l3.11-13.99
					c1.18-5.29,6.14-8.56,11.06-7.3c4.92,1.26,7.97,6.58,6.79,11.87l-3.11,13.99C82.2,182.11,81.92,182.3,81.63,182.23z"/>
			</g>
		</g>
	</g>
	<g>
		<path class="st7" d="M74,163.99c1.34-2.05,2.76-4.03,3.85-6.23c0.07-0.13,0.15-0.24,0.23-0.32l-7.35-23.89l-9.21,1.65l5.9,29.99
			l3.92,3.53C72.16,167.11,73.01,165.52,74,163.99z"/>
	</g>
	<g>
		<g>
			<path class="st8" d="M124.11,115.68l-71.25,18.15c-1.48,0.38-2.99-0.53-3.37-2.02l-11.36-44.6c-0.38-1.49,0.52-3.01,2-3.39
				l71.25-18.15c1.48-0.38,2.99,0.53,3.37,2.02l11.36,44.6C126.48,113.78,125.58,115.3,124.11,115.68z"/>
		</g>
		<g>
			<path class="st28" d="M60.74,107.6l-11.58,2.95c-0.5,0.13-1.01-0.18-1.14-0.68l-2.09-8.22c-0.13-0.5,0.18-1.01,0.68-1.14
				l11.58-2.95c0.5-0.13,1.01,0.18,1.14,0.68l2.09,8.22C61.55,106.96,61.24,107.48,60.74,107.6z"/>
		</g>
		<g class="st29">
			<path class="st30" d="M61.19,105.57l-1.05-4.1c-2.47,3.97-8.06,7.02-11.55,8.63c0.41,0.26,0.93,0.36,1.44,0.23l9.82-2.5
				C60.85,107.58,61.45,106.56,61.19,105.57z"/>
		</g>
		<g>
			<g>
				
					<rect x="49.5" y="112.13" transform="matrix(0.969 -0.2469 0.2469 0.969 -26.5378 17.7474)" class="st7" width="15.99" height="5.11"/>
			</g>
			<g>
				
					<rect x="66.78" y="107.73" transform="matrix(0.969 -0.2469 0.2469 0.969 -24.9151 21.8782)" class="st7" width="15.99" height="5.11"/>
			</g>
			<g>
				
					<rect x="84.06" y="103.32" transform="matrix(0.969 -0.2469 0.2469 0.969 -23.2926 26.0092)" class="st7" width="15.99" height="5.11"/>
			</g>
			<g>
				
					<rect x="101.35" y="98.92" transform="matrix(0.969 -0.2469 0.2469 0.969 -21.6701 30.1402)" class="st7" width="15.99" height="5.11"/>
			</g>
		</g>
		<g>
			<path class="st31" d="M48.9,93.98c-0.35,0.54-0.79,0.87-1.36,1.02c-1.17,0.3-2.37-0.42-2.67-1.6c-0.3-1.18,0.41-2.38,1.58-2.68
				c0.57-0.15,1.14-0.07,1.68,0.24l0.11,0.06l0.41-0.65l-0.11-0.07c-0.65-0.41-1.51-0.54-2.29-0.34c-1.59,0.41-2.56,2.04-2.15,3.64
				c0.41,1.6,2.04,2.58,3.63,2.17c0.78-0.2,1.47-0.72,1.85-1.41l0.07-0.12l-0.68-0.36L48.9,93.98z"/>
			<path class="st31" d="M52.77,90.11c-0.23-0.9-1.15-1.45-2.05-1.22l-1.74,0.44L50.42,95l0.77-0.2l-0.61-2.4l0.83-0.21l1.8,2.1
				l0.86-0.22l-1.91-2.21C52.69,91.46,52.93,90.76,52.77,90.11z M52,90.31c0.12,0.48-0.17,0.96-0.64,1.08l-0.98,0.25l-0.44-1.73
				l0.98-0.25C51.39,89.54,51.88,89.84,52,90.31z"/>
			<polygon class="st31" points="54.37,94 57.37,93.23 57.17,92.46 54.96,93.03 54.42,90.91 56.35,90.42 56.16,89.65 54.23,90.14 
				53.91,88.9 56.12,88.33 55.92,87.56 52.92,88.33 			"/>
			<path class="st31" d="M57.92,87.05l-1.34,0.34l1.45,5.67l1.34-0.34c1.76-0.45,2.62-1.86,2.18-3.59
				C61.11,87.42,59.69,86.6,57.92,87.05z M59.17,91.95L58.6,92.1l-1.05-4.13l0.57-0.14c1.36-0.35,2.33,0.2,2.66,1.51
				C61.11,90.63,60.51,91.61,59.17,91.95z"/>
			
				<rect x="62.13" y="85.97" transform="matrix(0.969 -0.2469 0.2469 0.969 -20.0148 18.1916)" class="st31" width="0.79" height="5.85"/>
			<polygon class="st31" points="62.69,86.66 64.1,86.3 65.35,91.2 66.12,91 64.87,86.1 66.27,85.75 66.08,84.98 62.5,85.89 			"/>
			<path class="st31" d="M73.83,87.54l-0.07,0.11c-0.35,0.54-0.79,0.87-1.36,1.02c-1.17,0.3-2.37-0.42-2.67-1.6
				c-0.3-1.18,0.41-2.38,1.58-2.68c0.57-0.15,1.14-0.07,1.68,0.24l0.11,0.06l0.41-0.65l-0.12-0.07c-0.65-0.41-1.51-0.54-2.29-0.34
				c-1.59,0.41-2.56,2.04-2.15,3.64c0.41,1.6,2.04,2.58,3.63,2.17c0.78-0.2,1.47-0.72,1.85-1.41l0.07-0.12L73.83,87.54z"/>
			<path class="st31" d="M75.96,82.46l-1.26,6.36l0.85-0.22l0.37-1.9l2.4-0.61l1.24,1.49l0.84-0.22l-4.14-4.98L75.96,82.46z
				 M77.76,85.41l-1.66,0.42l0.39-1.96L77.76,85.41z"/>
			<path class="st31" d="M83.06,82.39c-0.23-0.9-1.15-1.45-2.05-1.22l-1.74,0.44l1.45,5.67l0.77-0.2l-0.61-2.4l0.83-0.21l1.8,2.1
				l0.86-0.22l-1.91-2.21C82.98,83.74,83.23,83.04,83.06,82.39z M82.29,82.59c0.12,0.48-0.17,0.96-0.64,1.08l-0.98,0.25l-0.44-1.73
				l0.98-0.25C81.68,81.82,82.17,82.12,82.29,82.59z"/>
			<path class="st31" d="M84.55,80.27l-1.34,0.34l1.45,5.67L86,85.94c1.76-0.45,2.62-1.86,2.18-3.59
				C87.74,80.64,86.31,79.82,84.55,80.27z M87.41,82.55c0.33,1.3-0.27,2.28-1.61,2.62l-0.57,0.14l-1.05-4.13l0.57-0.15
				C86.1,80.69,87.07,81.24,87.41,82.55z"/>
		</g>
		<g>
			
				<rect x="85.51" y="109.66" transform="matrix(0.969 -0.2469 0.2469 0.969 -24.0966 28.7093)" class="st7" width="33.82" height="1.55"/>
		</g>
	</g>
	<g>
		<path class="st7" d="M126.4,53.37l-7.1-1.18l1.69-10.12l7.1,1.18c0.39,2.89,1.75,4.53,4.1,4.93c1.69,0.28,2.65-0.26,2.88-1.62
			c0.12-0.71-0.08-1.35-0.59-1.92c-0.55-0.62-1.77-1.55-3.66-2.8c-2.38-1.59-4.1-2.91-5.17-3.96c-1.01-0.96-1.8-2.19-2.37-3.68
			c-0.58-1.48-0.73-3.04-0.46-4.67c0.49-2.93,1.82-5.07,4-6.4c2.16-1.33,4.63-1.77,7.4-1.31c2.77,0.46,4.98,1.64,6.64,3.53
			l0.32-1.95l7.14,1.19l-1.5,8.98l-7.05-1.18c-0.45-2.62-1.77-4.12-3.96-4.48c-1.54-0.26-2.42,0.27-2.64,1.59
			c-0.11,0.64,0.03,1.15,0.42,1.54c0.37,0.4,1.61,1.37,3.74,2.88c2.84,2.06,4.73,3.53,5.65,4.42c0.47,0.44,0.93,1.01,1.38,1.73
			c0.45,0.72,0.8,1.44,1.05,2.17c0.58,1.62,0.73,3.29,0.45,5.02c-0.44,2.65-1.8,4.72-4.07,6.22c-2.28,1.53-4.91,2.05-7.9,1.55
			c-2.78-0.46-5.16-1.71-7.14-3.73L126.4,53.37z"/>
		<path class="st7" d="M159.25,58.84l-12.5-2.08l1.26-7.55l2.4,0.4l8.66-15.46l-2.54-0.42l1.26-7.55l22.68,3.78l-1.26,7.55
			l-2.54-0.42l3.29,17.45l2.31,0.39l-1.26,7.55l-16.47-2.74l1.15-6.92l2.77,0.46l-0.54-4.17l-8.07-1.35l-2.04,3.74l2.59,0.43
			L159.25,58.84z M166.14,35.79l-4.43,8.24l5.65,0.94L166.14,35.79z"/>
		<path class="st7" d="M213.2,67.83l-30.03-5.01l1.26-7.55l2.83,0.47l2.74-16.44l-2.83-0.47l1.26-7.55l18.03,3.01l-1.26,7.55
			l-2.99-0.5l-2.74,16.44l7.46,1.24l0.84-5.06l7.53,1.26L213.2,67.83z"/>
		<path class="st7" d="M246.15,73.33l-30.1-5.02l1.26-7.55l2.45,0.41l2.74-16.44l-2.49-0.42l1.26-7.55l30.14,5.02l-1.68,10.09
			l-8.28-1.38l0.42-2.54l-7.17-1.19l-0.81,4.85l6.24,1.04l-1.07,6.42l-6.24-1.04l-0.86,5.17l7.17,1.19l0.42-2.54l8.28,1.38
			L246.15,73.33z"/>
		<path class="st7" d="M265.35,60.23c0.44-2.63,1.51-5.07,3.2-7.32c1.68-2.24,4-3.97,6.95-5.21c1.05-0.43,2.11-0.74,3.17-0.92
			c1.06-0.18,2.2-0.27,3.41-0.26c1.21,0.01,2.47,0.12,3.77,0.34c5.65,0.94,9.76,3.33,12.3,7.16c1.27,1.89,2.14,3.85,2.61,5.89
			c0.47,2.04,0.53,4.12,0.17,6.25c-0.73,4.4-2.97,7.96-6.72,10.67c-3.75,2.72-8.35,3.62-13.81,2.71c-5.28-0.88-9.3-3.12-12.07-6.72
			C265.55,69.24,264.55,65.04,265.35,60.23z M279.05,62.52c-0.58,3.51-0.64,5.93-0.16,7.27c0.44,1.35,1.36,2.14,2.75,2.37
			c1.38,0.23,2.5-0.2,3.38-1.28c0.88-1.1,1.62-3.43,2.22-7c0.58-3.46,0.64-5.88,0.18-7.24c-0.44-1.35-1.38-2.14-2.8-2.38
			c-1.36-0.23-2.48,0.2-3.36,1.28C280.38,56.62,279.65,58.95,279.05,62.52z"/>
		<path class="st7" d="M320.98,85.8l-19.16-3.19l1.26-7.55l3.31,0.55l2.74-16.44l-3.42-0.57l1.26-7.55l31.07,5.18L336.3,66.6
			l-8.39-1.4l0.47-2.83l-7.05-1.18l-0.81,4.85l5.44,0.91l-1.07,6.42l-5.44-0.91l-0.86,5.17l3.65,0.61L320.98,85.8z"/>
		<path class="st7" d="M353.86,91.28l-19.16-3.19l1.26-7.55l3.31,0.55l2.74-16.44l-3.42-0.57l1.26-7.55l31.07,5.18l-1.73,10.39
			l-8.39-1.4l0.47-2.83l-7.05-1.18l-0.81,4.85l5.44,0.91l-1.07,6.42l-5.44-0.91l-0.86,5.17l3.65,0.61L353.86,91.28z"/>
	</g>
	<g>
		<g>
			<g>
				<polygon class="st32" points="484.2,148.16 481.4,146.65 480.64,143.94 479.99,143.81 479.79,144.61 478.52,142.55 
					476.66,141.92 474.53,143.45 473.77,146.04 475.51,147.99 478.47,148.96 482.21,151.2 				"/>
				<polygon class="st16" points="482.61,145.04 499.1,156.56 515.97,138.46 517.98,159 501.54,169.81 479.61,150.47 				"/>
			</g>
			<g>
				<polygon class="st6" points="542.05,295.42 542.33,298.19 537.3,301.65 534.36,299.22 536.73,296.11 541.77,292.65 				"/>
				<polygon class="st7" points="541.93,210.64 542.78,219.06 535.23,247.99 542.24,294.49 537.08,296.27 523.46,250.88 
					521.3,237.67 521.38,209.71 				"/>
			</g>
			<g>
				<polygon class="st7" points="502.21,220.02 513.07,297.94 518.01,297.94 518.9,247.99 527.88,212.94 				"/>
				<polygon class="st6" points="517.98,297.32 517.98,300.12 512.64,302.92 509.97,300.12 512.64,297.32 				"/>
			</g>
			<path class="st33" d="M514.34,140.04c0.39-0.64,0.91-1.18,1.63-1.59c4.9-2.77,13.04-0.33,18.36-0.33
				c1.57,16.56,5.92,32.34,8.73,48.6c2.98,17.27,6.34,34.47,10.07,51.6c0.21,0.97-14.81,0.48-16.23,0.5
				c-14.45,0.24-33.37,0.19-47.32-4.18c8.9-23.89,12.15-49.6,19.16-74.12c1.23-4.3,2.69-8.54,3.8-12.88
				C513.18,145.14,513.08,142.1,514.34,140.04z"/>
			<path class="st6" d="M520.9,115.61c-3.66,1-6.54,4.39-6.94,8.16c-2-1.86-3.02-4.72-2.65-7.43c0.37-2.71,2.12-5.19,4.54-6.45
				c2.27,1.2,4.03,3.33,4.78,5.79L520.9,115.61z"/>
			<path class="st32" d="M513.46,120.51c1.89-9.98,14.36-8.26,17.94-0.17c2.03,4.6-0.1,11.1-4.17,14.3
				c-0.09,0.88-0.2,3.32-0.88,3.91c-0.73,0.64-3.04,0.03-3.94-0.18c-0.25-0.06-0.51-0.13-0.69-0.31c-0.23-0.23-0.27-0.84-0.27-1.51
				c-0.66-0.05-1.34-0.17-2.03-0.4c-2.9-0.95-5-3.64-5.87-6.56C512.68,126.65,512.89,123.51,513.46,120.51z"/>
			<path class="st6" d="M531.89,160.13c-0.12-0.01-0.21-0.02-0.28-0.03c-2.2-0.38-5.73-1.09-6.75-3.41
				c-1.05-2.37,0.81-6.68,1.12-9.15c0.47-3.75,0.62-7.53,0.8-11.31c0.16-3.4-1.05-6.75-2.83-9.66c-1.78-2.9-4.11-5.42-6.4-7.94
				c-0.95-1.05-1.94-2.17-2.23-3.55c-0.32-1.53,0.29-3.15,1.3-4.35c1.56-1.84,3.4-2.76,5.75-2.81c8.25-0.2,14.45,4.68,16.79,12.74
				c3.35,11.54-0.84,22.56-0.21,34.04c0.11,1.96,0.75,3.89,1.85,5.52C540.51,159.78,533.67,160.23,531.89,160.13z"/>
		</g>
		<g>
			<g>
				<g>
					
						<ellipse transform="matrix(0.8096 -0.587 0.587 0.8096 -8.7445 320.5282)" class="st34" cx="489.69" cy="173.74" rx="32.12" ry="32.12"/>
				</g>
			</g>
			<g>
				<g>
					
						<ellipse transform="matrix(0.7338 -0.6793 0.6793 0.7338 12.3105 378.9053)" class="st28" cx="489.69" cy="173.74" rx="27.26" ry="27.26"/>
				</g>
			</g>
			<g class="st35">
				<g>
					<path class="st30" d="M502.35,149.56c2.99,4.05,4.9,8.97,5.27,14.36c1.01,15.02-10.34,28.02-25.36,29.04
						c-5.22,0.35-10.19-0.79-14.5-3.06c5.34,7.22,14.14,11.65,23.77,11c15.02-1.01,26.38-14.02,25.36-29.04
						C516.23,162.07,510.46,153.83,502.35,149.56z"/>
				</g>
			</g>
			<g>
				<g>
					<path class="st34" d="M467.42,177.75c-0.9-13.26,9.13-24.74,22.39-25.63c7.75-0.52,14.89,2.68,19.67,8.09
						c-4.63-6.92-12.73-11.24-21.64-10.64c-13.26,0.9-23.29,12.37-22.39,25.63c0.37,5.51,2.57,10.46,5.97,14.3
						C469.15,186.11,467.71,182.11,467.42,177.75z"/>
				</g>
			</g>
			<g>
				<path class="st34" d="M490.75,156.03l0.23,3.47c1.41,0.13,2.57,0.51,3.51,1.15c0.93,0.64,1.85,1.65,2.74,3.03l-3.32,2.16
					c-1.16-1.82-2.58-2.67-4.26-2.55c-1.04,0.07-1.88,0.43-2.52,1.09c-0.64,0.66-0.93,1.45-0.87,2.37c0.06,0.84,0.38,1.51,0.97,2.03
					c0.58,0.51,1.72,1.07,3.42,1.71c1.47,0.55,2.69,1.08,3.66,1.59c0.97,0.51,1.71,1.01,2.22,1.51c1.43,1.35,2.21,3.04,2.35,5.08
					c0.14,2-0.35,3.81-1.45,5.43c-1.09,1.6-2.61,2.73-4.57,3.4l0.25,3.66l-3.09,0.21l-0.24-3.55c-2.34-0.22-4.15-0.9-5.45-2.03
					c-1.3-1.13-2.32-2.95-3.07-5.44l3.83-1.08c0.65,1.76,1.39,2.99,2.2,3.71c0.85,0.68,1.94,0.97,3.27,0.88
					c1.3-0.09,2.35-0.58,3.17-1.48c0.8-0.88,1.16-1.98,1.07-3.29c-0.08-1.17-0.5-2.08-1.27-2.74c-0.39-0.32-0.95-0.67-1.7-1.05
					c-0.74-0.38-1.68-0.79-2.83-1.22c-2.36-0.87-3.92-1.71-4.7-2.52c-1.23-1.21-1.91-2.71-2.03-4.5c-0.06-0.85,0.02-1.65,0.25-2.4
					c0.22-0.75,0.57-1.44,1.04-2.07c0.47-0.63,1.07-1.19,1.8-1.68c0.72-0.49,1.56-0.89,2.49-1.2l-0.23-3.47L490.75,156.03z"/>
			</g>
		</g>
		<g>
			<polygon class="st32" points="526.4,175.55 523.08,176.63 520.36,175.2 519.76,175.62 520.25,176.38 517.65,175.83 
				515.75,176.84 515.36,179.68 516.85,182.25 519.72,182.33 522.71,180.71 527.32,179.42 			"/>
			<path class="st16" d="M535.16,171.97c1.4-0.95,2.36-2.29,2.48-4.27c0.11-1.82-0.31-3.63-0.63-5.43c-1-5.71-0.87-11.62,0.39-17.28
				c1.25-5.63,7.82,1.45,8.64,3.99c0.91,2.82,0.65,5.88,0.87,8.8c0.3,3.91,0.44,7.83,0.42,11.76c-0.01,2.48,0.6,8.34-2.01,9.76
				c-0.71,0.38-1.52,0.52-2.31,0.65c-1.25,0.2-16.13,2.08-16.37,1.34l-2.06-6.49C527.68,174.17,532.32,173.89,535.16,171.97z"/>
		</g>
		<g>
			<g>
				<g>
					<path class="st6" d="M548.43,185.64c-0.21,0.12-0.49,0.01-0.62-0.24l-5.91-11.24c-1.98-3.76-6.25-5.38-9.53-3.62
						c-3.28,1.76-4.33,6.25-2.36,10l5.91,11.24c0.13,0.25,0.06,0.54-0.15,0.66c-0.22,0.12-0.49,0.01-0.62-0.24l-5.91-11.24
						c-2.23-4.25-1.04-9.32,2.67-11.31c3.71-1.99,8.54-0.15,10.77,4.1l5.91,11.24C548.71,185.23,548.64,185.52,548.43,185.64z"/>
				</g>
				<polygon class="st27" points="572.67,214.73 569.95,213.36 553.51,176.3 555.18,176.55 557.42,175.97 				"/>
				<polygon class="st22" points="555.18,176.55 568.88,205.52 557.42,175.97 				"/>
				<polygon class="st22" points="523.43,192.45 553.53,176.29 570.7,213.06 539.56,229.15 				"/>
				<polygon class="st15" points="579.06,211.08 547.78,229.22 528.41,191.61 557.44,175.98 				"/>
				<polygon class="st36" points="547.78,229.22 539.56,229.15 523.43,192.45 526.13,191.73 528.41,191.61 				"/>
				<polygon class="st37" points="526.13,191.73 542.22,224.72 547.81,229.21 528.39,191.54 				"/>
				<polygon class="st38" points="539.56,229.16 542.22,224.72 547.81,229.21 				"/>
				<g>
					<path class="st39" d="M539.01,191.89c-0.26-0.49-0.82-0.71-1.25-0.47c-0.43,0.23-0.57,0.82-0.31,1.31
						c0.26,0.49,0.82,0.71,1.25,0.47C539.14,192.97,539.27,192.38,539.01,191.89z"/>
					<g>
						<path class="st40" d="M538.68,192.07c-0.15-0.28-0.47-0.4-0.71-0.27s-0.32,0.47-0.18,0.75c0.15,0.28,0.47,0.4,0.71,0.27
							C538.75,192.68,538.83,192.35,538.68,192.07z"/>
					</g>
				</g>
				<g>
					<path class="st6" d="M551.68,185.09c-0.26-0.49-0.82-0.71-1.25-0.47c-0.43,0.23-0.57,0.82-0.31,1.31
						c0.26,0.49,0.82,0.71,1.25,0.47C551.81,186.17,551.94,185.58,551.68,185.09z"/>
					<g>
						<path class="st40" d="M551.35,185.27c-0.15-0.28-0.47-0.4-0.71-0.27c-0.25,0.13-0.32,0.47-0.18,0.75
							c0.15,0.28,0.47,0.4,0.71,0.27C551.42,185.88,551.5,185.55,551.35,185.27z"/>
					</g>
				</g>
				<g>
					<path class="st6" d="M551.09,185.87c-0.21,0.12-0.49,0.01-0.62-0.24l-5.91-11.24c-1.98-3.76-6.25-5.38-9.53-3.62
						c-3.28,1.76-4.33,6.25-2.36,10l5.91,11.24c0.13,0.25,0.06,0.54-0.15,0.66c-0.21,0.12-0.49,0.01-0.62-0.24l-5.91-11.24
						c-2.23-4.25-1.04-9.32,2.67-11.31c3.71-1.99,8.54-0.15,10.77,4.1l5.91,11.24C551.38,185.46,551.31,185.76,551.09,185.87z"/>
				</g>
			</g>
		</g>
		<g>
			<g>
				<g>
					<path class="st6" d="M550.36,191.92c-0.33,0.07-0.66-0.15-0.73-0.48l-3.16-15.27c-1.05-5.1-6.04-8.39-11.11-7.33
						c-5.07,1.06-8.34,6.07-7.28,11.17l3.16,15.26c0.07,0.33-0.14,0.66-0.48,0.73c-0.33,0.07-0.66-0.15-0.73-0.48l-3.16-15.27
						c-1.19-5.77,2.5-11.44,8.24-12.63s11.37,2.52,12.56,8.29l3.16,15.27C550.91,191.52,550.7,191.85,550.36,191.92z"/>
				</g>
				<polygon class="st24" points="570.36,234.25 567.34,231.75 560.97,182.4 563.08,183.23 566.29,183.25 				"/>
				<polygon class="st23" points="563.08,183.23 569.17,222.07 566.29,183.25 				"/>
				<polygon class="st23" points="514.42,192.11 561,182.4 568.45,231.63 520.52,240.94 				"/>
				<polygon class="st25" points="580.35,231.93 531.38,243.63 521.37,192.69 566.31,183.26 				"/>
				<polygon class="st25" points="531.38,243.63 520.52,240.94 514.42,192.11 518.3,192.11 521.37,192.69 				"/>
				<polygon class="st24" points="518.3,192.11 525.88,236.51 531.42,243.63 521.38,192.6 				"/>
				<polygon class="st23" points="520.52,240.95 525.88,236.51 531.42,243.63 				"/>
				<g>
					<path class="st6" d="M535.3,196.38c-0.14-0.67-0.79-1.1-1.46-0.96s-1.09,0.79-0.95,1.46c0.14,0.67,0.79,1.1,1.46,0.96
						C535.01,197.7,535.44,197.05,535.3,196.38z"/>
					<g>
						<path class="st23" d="M534.78,196.49c-0.08-0.38-0.45-0.63-0.83-0.55c-0.38,0.08-0.62,0.45-0.55,0.84
							c0.08,0.38,0.45,0.63,0.83,0.55C534.62,197.24,534.86,196.87,534.78,196.49z"/>
					</g>
				</g>
				<g>
					<path class="st6" d="M554.9,192.29c-0.14-0.67-0.79-1.1-1.46-0.96s-1.09,0.79-0.95,1.46c0.14,0.67,0.79,1.1,1.46,0.96
						S555.04,192.96,554.9,192.29z"/>
					<g>
						<path class="st23" d="M554.39,192.4c-0.08-0.38-0.45-0.63-0.83-0.55c-0.38,0.08-0.62,0.45-0.55,0.84
							c0.08,0.38,0.45,0.63,0.83,0.55C554.22,193.15,554.47,192.78,554.39,192.4z"/>
					</g>
				</g>
				<g>
					<path class="st6" d="M553.79,193.04c-0.33,0.07-0.66-0.15-0.73-0.48l-3.16-15.27c-1.05-5.1-6.04-8.39-11.11-7.33
						c-5.07,1.06-8.34,6.07-7.28,11.17l3.16,15.26c0.07,0.33-0.14,0.66-0.48,0.73c-0.33,0.07-0.66-0.15-0.73-0.48l-3.16-15.27
						c-1.19-5.77,2.5-11.44,8.24-12.63c5.73-1.2,11.37,2.52,12.56,8.29l3.16,15.27C554.34,192.64,554.13,192.97,553.79,193.04z"/>
				</g>
			</g>
		</g>
		<path class="st16" d="M543.45,177.13c-0.44-0.56-0.92-1.1-1.39-1.65c-0.2-0.24-0.3-0.5-0.32-0.75c-0.27-0.16-0.55-0.32-0.82-0.48
			c-1.64-0.97-3.17-2.16-4.88-3c-0.27,0.26-0.56,0.51-0.88,0.72c-2.84,1.92-7.48,2.2-10.57,2.83l2.06,6.49
			c0.23,0.74,15.12-1.14,16.37-1.34c0.54-0.09,1.08-0.18,1.59-0.35C544.17,178.8,543.77,177.99,543.45,177.13z"/>
	</g>
</g>
</svg>
