<?xml version="1.0" encoding="utf-8"?>
<!-- Generator: Adobe Illustrator 23.0.5, SVG Export Plug-In . SVG Version: 6.00 Build 0)  -->
<svg version="1.0" id="Layer_1" xmlns="http://www.w3.org/2000/svg" xmlns:xlink="http://www.w3.org/1999/xlink" x="0px" y="0px"
	 viewBox="0 0 624 320" style="enable-background:new 0 0 624 320;" xml:space="preserve">
<style type="text/css">
	.st0{opacity:0.3;fill:#35B24A;}
	.st1{fill:#C78B5B;}
	.st2{fill:#E5BE84;}
	.st3{fill:#EAD1B7;}
	.st4{fill:#F7EEE5;}
	.st5{fill:#444248;}
	.st6{opacity:0.32;fill:#C78B5B;}
	.st7{fill:#00A26D;}
	.st8{fill:#015E3A;}
	.st9{fill:#FBFBFB;}
	.st10{opacity:0.05;}
	.st11{opacity:0.12;}
	.st12{fill:#879499;}
	.st13{fill:#EF6A1C;}
	.st14{fill:#FFFFFF;}
	.st15{fill:#333333;}
	.st16{fill:none;}
</style>
<rect x="0" class="st0" width="624" height="320"/>
<g>
	<g>
		<g>
			<g>
				<rect x="159.95" y="25" class="st1" width="138.89" height="181.61"/>
				<rect x="114.14" y="25" class="st2" width="137.43" height="181.61"/>
				<rect x="159.33" y="25" class="st3" width="32.24" height="37.44"/>
				<rect x="159.33" y="169.17" class="st3" width="32.24" height="37.44"/>
				<g>
					<rect x="201.16" y="176.78" class="st4" width="42.55" height="23.13"/>
					<g>
						<rect x="237.25" y="180.02" class="st5" width="4.51" height="16.65"/>
						<rect x="232.92" y="180.02" class="st5" width="1.58" height="16.65"/>
						<rect x="222.73" y="180.02" class="st5" width="3.7" height="16.65"/>
						<rect x="228.85" y="180.02" class="st5" width="2.26" height="16.65"/>
						<rect x="218.44" y="180.02" class="st5" width="1.53" height="16.65"/>
						<rect x="209.68" y="180.02" class="st5" width="3.06" height="16.65"/>
						<rect x="207.11" y="180.02" class="st5" width="1.52" height="16.65"/>
						<rect x="214.11" y="180.02" class="st5" width="2.1" height="16.65"/>
						<rect x="203.22" y="180.02" class="st5" width="2.26" height="16.65"/>
					</g>
				</g>
			</g>
			<rect x="114.14" y="89.62" class="st6" width="121.23" height="116.99"/>
			<g>
				<rect x="302.14" y="96.6" class="st1" width="132.9" height="116.87"/>
				<rect x="265.34" y="96.6" class="st2" width="131.73" height="116.87"/>
				<rect x="313.53" y="96.6" class="st3" width="35.34" height="30.07"/>
				<rect x="313.53" y="183.41" class="st3" width="35.34" height="30.07"/>
				<g>
					<rect x="356.58" y="189.51" class="st4" width="34.17" height="18.58"/>
					<g>
						<rect x="385.57" y="192.12" class="st5" width="3.63" height="13.37"/>
						<rect x="382.09" y="192.12" class="st5" width="1.27" height="13.37"/>
						<rect x="373.91" y="192.12" class="st5" width="2.97" height="13.37"/>
						<rect x="378.82" y="192.12" class="st5" width="1.81" height="13.37"/>
						<rect x="370.46" y="192.12" class="st5" width="1.23" height="13.37"/>
						<rect x="363.42" y="192.12" class="st5" width="2.46" height="13.37"/>
						<rect x="361.36" y="192.12" class="st5" width="1.22" height="13.37"/>
						<rect x="366.98" y="192.12" class="st5" width="1.68" height="13.37"/>
						<rect x="358.24" y="192.12" class="st5" width="1.81" height="13.37"/>
					</g>
				</g>
			</g>
			<rect x="265.34" y="125.27" class="st6" width="122.59" height="88.21"/>
			<g>
				<rect x="89.93" y="98.85" class="st1" width="112.18" height="98.65"/>
				<rect x="58.87" y="98.85" class="st2" width="111.19" height="98.65"/>
				<rect x="105.61" y="98.85" class="st3" width="17.71" height="25.38"/>
				<rect x="105.61" y="172.12" class="st3" width="17.71" height="25.38"/>
				<g>
					<rect x="66.73" y="177.28" class="st4" width="28.85" height="15.69"/>
					<g>
						<rect x="91.2" y="179.48" class="st5" width="3.06" height="11.29"/>
						<rect x="88.27" y="179.48" class="st5" width="1.07" height="11.29"/>
						<rect x="81.36" y="179.48" class="st5" width="2.51" height="11.29"/>
						<rect x="85.5" y="179.48" class="st5" width="1.53" height="11.29"/>
						<rect x="78.44" y="179.48" class="st5" width="1.04" height="11.29"/>
						<rect x="72.51" y="179.48" class="st5" width="2.07" height="11.29"/>
						<rect x="70.76" y="179.48" class="st5" width="1.03" height="11.29"/>
						<rect x="75.51" y="179.48" class="st5" width="1.42" height="11.29"/>
						<rect x="68.13" y="179.48" class="st5" width="1.53" height="11.29"/>
					</g>
				</g>
			</g>
			<g>
				<rect x="53.56" y="196.35" class="st1" width="112.18" height="98.65"/>
				<rect x="22.49" y="196.35" class="st2" width="111.19" height="98.65"/>
				<rect x="63.17" y="196.35" class="st3" width="29.83" height="25.38"/>
				<rect x="63.17" y="269.62" class="st3" width="29.83" height="25.38"/>
				<g>
					<rect x="99.51" y="274.77" class="st4" width="28.85" height="15.69"/>
					<g>
						<rect x="123.98" y="276.97" class="st5" width="3.06" height="11.29"/>
						<rect x="121.05" y="276.97" class="st5" width="1.07" height="11.29"/>
						<rect x="114.14" y="276.97" class="st5" width="2.51" height="11.29"/>
						<rect x="118.28" y="276.97" class="st5" width="1.53" height="11.29"/>
						<rect x="111.22" y="276.97" class="st5" width="1.04" height="11.29"/>
						<rect x="105.28" y="276.97" class="st5" width="2.07" height="11.29"/>
						<rect x="103.54" y="276.97" class="st5" width="1.03" height="11.29"/>
						<rect x="108.29" y="276.97" class="st5" width="1.42" height="11.29"/>
						<rect x="100.91" y="276.97" class="st5" width="1.53" height="11.29"/>
					</g>
				</g>
			</g>
			<g>
				<rect x="192.31" y="141.51" class="st1" width="174.54" height="153.49"/>
				<rect x="143.98" y="141.51" class="st2" width="173" height="153.49"/>
				<rect x="207.27" y="141.51" class="st3" width="46.42" height="39.5"/>
				<rect x="207.27" y="255.51" class="st3" width="46.42" height="39.49"/>
				<g>
					<rect x="263.81" y="263.53" class="st4" width="44.88" height="24.4"/>
					<g>
						<rect x="301.88" y="266.95" class="st5" width="4.76" height="17.56"/>
						<rect x="297.31" y="266.95" class="st5" width="1.67" height="17.56"/>
						<rect x="286.57" y="266.95" class="st5" width="3.91" height="17.56"/>
						<rect x="293.01" y="266.95" class="st5" width="2.38" height="17.56"/>
						<rect x="282.03" y="266.95" class="st5" width="1.61" height="17.56"/>
						<rect x="272.79" y="266.95" class="st5" width="3.23" height="17.56"/>
						<rect x="270.08" y="266.95" class="st5" width="1.6" height="17.56"/>
						<rect x="277.46" y="266.95" class="st5" width="2.21" height="17.56"/>
						<rect x="265.98" y="266.95" class="st5" width="2.38" height="17.56"/>
					</g>
				</g>
			</g>
			<g>
				<rect x="376.34" y="196.35" class="st1" width="112.18" height="98.65"/>
				<rect x="345.27" y="196.35" class="st2" width="111.19" height="98.65"/>
				<rect x="385.95" y="196.35" class="st3" width="29.83" height="25.38"/>
				<rect x="385.95" y="269.62" class="st3" width="29.83" height="25.38"/>
				<g>
					<rect x="422.29" y="274.77" class="st4" width="28.85" height="15.69"/>
					<g>
						<rect x="446.76" y="276.97" class="st5" width="3.06" height="11.29"/>
						<rect x="443.82" y="276.97" class="st5" width="1.07" height="11.29"/>
						<rect x="436.92" y="276.97" class="st5" width="2.51" height="11.29"/>
						<rect x="441.06" y="276.97" class="st5" width="1.53" height="11.29"/>
						<rect x="434" y="276.97" class="st5" width="1.04" height="11.29"/>
						<rect x="428.06" y="276.97" class="st5" width="2.07" height="11.29"/>
						<rect x="426.32" y="276.97" class="st5" width="1.03" height="11.29"/>
						<rect x="431.07" y="276.97" class="st5" width="1.42" height="11.29"/>
						<rect x="423.69" y="276.97" class="st5" width="1.53" height="11.29"/>
					</g>
				</g>
			</g>
			<rect x="345.27" y="196.34" class="st6" width="30.54" height="98.66"/>
		</g>
		<g>
			<g>
				<polygon class="st7" points="337.81,295 179.43,293.93 176.24,78.5 334.62,79.57 				"/>
				<polygon class="st8" points="191.1,284.76 193.48,284.77 333.41,290.14 326.73,86.37 320.26,88.24 				"/>
				<polygon class="st9" points="329.68,285.69 187.28,284.73 184.33,85.41 326.73,86.37 				"/>
				<polygon class="st10" points="183.54,84.65 285.97,85.34 184.67,172.54 				"/>
				<g>
					<polygon class="st11" points="286.53,90.97 224.68,90.55 224.59,84.63 286.44,85.05 					"/>
					<g>
						<path class="st8" d="M273.5,67.06l-0.96-0.01l-0.01-0.66c-0.09-6.21-5.84-11.29-12.84-11.34L250.46,55
							c-7-0.05-12.6,4.95-12.51,11.16l0.01,0.66L237,66.82c-7-0.05-12.6,4.95-12.51,11.16l0.19,12.57l61.85,0.42l-0.19-12.57
							C286.25,72.19,280.5,67.11,273.5,67.06z M263.4,67.25l-16.3-0.11c-1.67-0.01-3.05-1.41-3.07-3.11
							c-0.03-1.7,1.32-3.08,2.98-3.07l16.3,0.11c1.67,0.01,3.05,1.41,3.07,3.11C266.41,65.89,265.07,67.27,263.4,67.25z"/>
					</g>
				</g>
			</g>
			<g>
				<g>
					<path class="st12" d="M227.23,157.49c-6.34-0.04-12.68-0.09-19.02-0.13c-0.54,0-0.98,0.46-0.98,1
						c0.1,6.46,0.19,12.93,0.29,19.39c0.01,0.55,0.47,1.01,1.01,1.02c6.34,0.04,12.68,0.09,19.02,0.13c0.29,0,0.51-0.1,0.67-0.27
						c0.01-0.01,0.02-0.02,0.03-0.03c0.01-0.01,0.01-0.01,0.02-0.02c0.16-0.16,0.26-0.39,0.26-0.69c-0.1-6.46-0.19-12.93-0.29-19.39
						C228.23,157.96,227.77,157.49,227.23,157.49z M226.53,176.87c-5.68-0.04-11.36-0.08-17.04-0.12
						c-0.09-5.79-0.17-11.58-0.26-17.37c5.68,0.04,11.36,0.08,17.04,0.12C226.35,165.29,226.44,171.08,226.53,176.87z"/>
					<polygon class="st12" points="306.82,175.59 239.71,175.14 239.56,165.45 306.67,165.9 					"/>
				</g>
				<g>
					<path class="st12" d="M227.23,102.83c-6.34-0.04-12.68-0.09-19.02-0.13c-0.54,0-0.98,0.46-0.98,1
						c0.1,6.46,0.19,12.93,0.29,19.39c0.01,0.55,0.47,1.01,1.01,1.02c6.34,0.04,12.68,0.09,19.02,0.13c0.29,0,0.51-0.1,0.67-0.27
						c0.01-0.01,0.02-0.02,0.03-0.03c0.01-0.01,0.01-0.01,0.02-0.02c0.16-0.16,0.26-0.39,0.26-0.69c-0.1-6.46-0.19-12.93-0.29-19.39
						C228.23,103.3,227.77,102.83,227.23,102.83z M226.53,122.21c-5.68-0.04-11.36-0.08-17.04-0.11
						c-0.09-5.79-0.17-11.58-0.26-17.37c5.68,0.04,11.36,0.08,17.04,0.12C226.35,110.63,226.44,116.42,226.53,122.21z"/>
					<polygon class="st13" points="214.72,110.08 219.07,108.63 221.57,113.1 242.23,97.89 244.67,98.4 220.68,118.54 					"/>
					<polygon class="st12" points="306.75,116.7 239.65,116.24 239.5,106.55 306.61,107 					"/>
				</g>
				<g>
					<path class="st12" d="M227.23,130.55c-6.34-0.04-12.68-0.09-19.02-0.13c-0.54,0-0.98,0.46-0.98,1
						c0.1,6.46,0.19,12.93,0.29,19.39c0.01,0.55,0.47,1.01,1.01,1.02c6.34,0.04,12.68,0.09,19.02,0.13c0.29,0,0.51-0.1,0.67-0.27
						c0.01-0.01,0.02-0.02,0.03-0.03c0.01-0.01,0.01-0.01,0.02-0.02c0.16-0.16,0.26-0.39,0.26-0.69c-0.1-6.46-0.19-12.93-0.29-19.39
						C228.23,131.02,227.77,130.55,227.23,130.55z M226.53,149.93c-5.68-0.04-11.36-0.08-17.04-0.11
						c-0.09-5.79-0.17-11.58-0.26-17.37c5.68,0.04,11.36,0.08,17.04,0.12C226.35,138.35,226.44,144.14,226.53,149.93z"/>
					<polygon class="st13" points="214.72,137.8 219.07,136.35 221.57,140.82 242.23,125.61 244.67,126.12 220.68,146.26 					"/>
					<polygon class="st12" points="306.75,144.42 239.65,143.96 239.5,134.27 306.61,134.72 					"/>
				</g>
				<g>
					<g>
						<path class="st12" d="M227.23,256.42c-6.34-0.04-12.68-0.09-19.02-0.13c-0.54,0-0.98,0.46-0.98,1
							c0.1,6.46,0.19,12.93,0.29,19.39c0.01,0.55,0.47,1.01,1.01,1.02c6.34,0.04,12.68,0.09,19.02,0.13c0.29,0,0.51-0.1,0.67-0.27
							c0.01-0.01,0.02-0.02,0.03-0.03c0.01-0.01,0.01-0.01,0.02-0.02c0.16-0.16,0.26-0.39,0.26-0.69
							c-0.1-6.46-0.19-12.93-0.29-19.39C228.23,256.89,227.77,256.42,227.23,256.42z M226.53,275.8
							c-5.68-0.04-11.36-0.08-17.04-0.12c-0.09-5.79-0.17-11.58-0.26-17.37c5.68,0.04,11.36,0.08,17.04,0.12
							C226.35,264.22,226.44,270.01,226.53,275.8z"/>
						<polygon class="st12" points="306.82,274.52 239.71,274.07 239.56,264.38 306.67,264.83 						"/>
					</g>
					<g>
						<path class="st12" d="M227.23,201.76c-6.34-0.04-12.68-0.09-19.02-0.13c-0.54,0-0.98,0.46-0.98,1
							c0.1,6.46,0.19,12.93,0.29,19.39c0.01,0.55,0.47,1.01,1.01,1.02c6.34,0.04,12.68,0.09,19.02,0.13c0.29,0,0.51-0.1,0.67-0.27
							c0.01-0.01,0.02-0.02,0.03-0.03c0.01-0.01,0.01-0.01,0.02-0.02c0.16-0.16,0.26-0.39,0.26-0.69
							c-0.1-6.46-0.19-12.93-0.29-19.39C228.23,202.23,227.77,201.76,227.23,201.76z M226.53,221.14
							c-5.68-0.04-11.36-0.08-17.04-0.11c-0.09-5.79-0.17-11.58-0.26-17.37c5.68,0.04,11.36,0.08,17.04,0.12
							C226.35,209.56,226.44,215.35,226.53,221.14z"/>
						<polygon class="st13" points="214.72,209.01 219.07,207.55 221.57,212.03 242.23,196.82 244.67,197.33 220.68,217.47 						
							"/>
						<polygon class="st12" points="306.75,215.62 239.65,215.17 239.5,205.48 306.61,205.93 						"/>
					</g>
					<g>
						<path class="st12" d="M227.23,229.48c-6.34-0.04-12.68-0.09-19.02-0.13c-0.54,0-0.98,0.46-0.98,1
							c0.1,6.46,0.19,12.93,0.29,19.39c0.01,0.55,0.47,1.01,1.01,1.02c6.34,0.04,12.68,0.09,19.02,0.13c0.29,0,0.51-0.1,0.67-0.27
							c0.01-0.01,0.02-0.02,0.03-0.03c0.01-0.01,0.01-0.01,0.02-0.02c0.16-0.16,0.26-0.39,0.26-0.69
							c-0.1-6.46-0.19-12.93-0.29-19.39C228.23,229.95,227.77,229.48,227.23,229.48z M226.53,248.86
							c-5.68-0.04-11.36-0.08-17.04-0.11c-0.09-5.79-0.17-11.58-0.26-17.37c5.68,0.04,11.36,0.08,17.04,0.12
							C226.35,237.28,226.44,243.07,226.53,248.86z"/>
						<polygon class="st13" points="214.72,236.73 219.07,235.27 221.57,239.75 242.23,224.54 244.67,225.05 220.68,245.19 						
							"/>
						<polygon class="st12" points="306.75,243.34 239.65,242.89 239.5,233.2 306.61,233.65 						"/>
					</g>
				</g>
			</g>
		</g>
		<g>
			<g>
				<rect x="393.96" y="92.22" class="st1" width="104.31" height="136.4"/>
				<rect x="429.46" y="92.22" class="st2" width="103.21" height="136.4"/>
				<rect x="474.52" y="92.22" class="st3" width="24.22" height="28.12"/>
				<rect x="474.52" y="200.5" class="st3" width="24.22" height="28.12"/>
				<g>
					<rect x="435.37" y="206.21" class="st4" width="31.95" height="17.37"/>
					<g>
						<rect x="436.83" y="208.65" class="st5" width="3.39" height="12.5"/>
						<rect x="442.28" y="208.65" class="st5" width="1.19" height="12.5"/>
						<rect x="448.34" y="208.65" class="st5" width="2.78" height="12.5"/>
						<rect x="444.83" y="208.65" class="st5" width="1.7" height="12.5"/>
						<rect x="453.2" y="208.65" class="st5" width="1.15" height="12.5"/>
						<rect x="458.63" y="208.65" class="st5" width="2.3" height="12.5"/>
						<rect x="461.71" y="208.65" class="st5" width="1.14" height="12.5"/>
						<rect x="456.02" y="208.65" class="st5" width="1.57" height="12.5"/>
						<rect x="464.08" y="208.65" class="st5" width="1.7" height="12.5"/>
					</g>
				</g>
			</g>
			<rect x="441.63" y="140.75" class="st6" width="91.05" height="87.86"/>
			<g>
				<rect x="291.67" y="146" class="st1" width="99.81" height="87.78"/>
				<rect x="320.19" y="146" class="st2" width="98.93" height="87.78"/>
				<rect x="356.38" y="146" class="st3" width="26.54" height="22.59"/>
				<rect x="356.38" y="211.19" class="st3" width="26.54" height="22.59"/>
				<g>
					<rect x="324.93" y="215.78" class="st4" width="25.67" height="13.96"/>
					<g>
						<rect x="326.1" y="217.73" class="st5" width="2.72" height="10.04"/>
						<rect x="330.48" y="217.73" class="st5" width="0.96" height="10.04"/>
						<rect x="335.35" y="217.73" class="st5" width="2.23" height="10.04"/>
						<rect x="332.53" y="217.73" class="st5" width="1.36" height="10.04"/>
						<rect x="339.25" y="217.73" class="st5" width="0.92" height="10.04"/>
						<rect x="343.61" y="217.73" class="st5" width="1.85" height="10.04"/>
						<rect x="346.09" y="217.73" class="st5" width="0.92" height="10.04"/>
						<rect x="341.52" y="217.73" class="st5" width="1.27" height="10.04"/>
						<rect x="347.99" y="217.73" class="st5" width="1.36" height="10.04"/>
					</g>
				</g>
			</g>
			<rect x="327.05" y="167.52" class="st6" width="92.07" height="66.25"/>
			<g>
				<rect x="466.61" y="147.68" class="st1" width="84.25" height="74.09"/>
				<rect x="490.68" y="147.68" class="st2" width="83.51" height="74.09"/>
				<rect x="525.78" y="147.68" class="st3" width="13.3" height="19.06"/>
				<rect x="525.78" y="202.71" class="st3" width="13.3" height="19.06"/>
				<g>
					<rect x="546.62" y="206.59" class="st4" width="21.66" height="11.78"/>
					<g>
						<rect x="547.61" y="208.24" class="st5" width="2.3" height="8.48"/>
						<rect x="551.3" y="208.24" class="st5" width="0.81" height="8.48"/>
						<rect x="555.41" y="208.24" class="st5" width="1.89" height="8.48"/>
						<rect x="553.04" y="208.24" class="st5" width="1.15" height="8.48"/>
						<rect x="558.71" y="208.24" class="st5" width="0.78" height="8.48"/>
						<rect x="562.39" y="208.24" class="st5" width="1.56" height="8.48"/>
						<rect x="564.48" y="208.24" class="st5" width="0.77" height="8.48"/>
						<rect x="560.62" y="208.24" class="st5" width="1.07" height="8.48"/>
						<rect x="566.08" y="208.24" class="st5" width="1.15" height="8.48"/>
					</g>
				</g>
			</g>
			<g>
				<rect x="493.92" y="220.91" class="st1" width="84.25" height="74.09"/>
				<rect x="518" y="220.91" class="st2" width="83.51" height="74.09"/>
				<rect x="548.55" y="220.91" class="st3" width="22.41" height="19.06"/>
				<rect x="548.55" y="275.94" class="st3" width="22.41" height="19.06"/>
				<g>
					<rect x="522" y="279.81" class="st4" width="21.66" height="11.78"/>
					<g>
						<rect x="522.99" y="281.46" class="st5" width="2.3" height="8.48"/>
						<rect x="526.68" y="281.46" class="st5" width="0.81" height="8.48"/>
						<rect x="530.79" y="281.46" class="st5" width="1.89" height="8.48"/>
						<rect x="528.42" y="281.46" class="st5" width="1.15" height="8.48"/>
						<rect x="534.09" y="281.46" class="st5" width="0.78" height="8.48"/>
						<rect x="537.77" y="281.46" class="st5" width="1.56" height="8.48"/>
						<rect x="539.86" y="281.46" class="st5" width="0.77" height="8.48"/>
						<rect x="536" y="281.46" class="st5" width="1.07" height="8.48"/>
						<rect x="541.46" y="281.46" class="st5" width="1.15" height="8.48"/>
					</g>
				</g>
			</g>
			<g>
				<rect x="342.88" y="179.72" class="st1" width="131.08" height="115.28"/>
				<rect x="380.34" y="179.72" class="st2" width="129.93" height="115.28"/>
				<rect x="427.87" y="179.72" class="st3" width="34.86" height="29.66"/>
				<rect x="427.87" y="265.34" class="st3" width="34.86" height="29.66"/>
				<g>
					<rect x="386.56" y="271.36" class="st4" width="33.71" height="18.33"/>
					<g>
						<rect x="388.1" y="273.93" class="st5" width="3.58" height="13.19"/>
						<rect x="393.85" y="273.93" class="st5" width="1.25" height="13.19"/>
						<rect x="400.25" y="273.93" class="st5" width="2.93" height="13.19"/>
						<rect x="396.55" y="273.93" class="st5" width="1.79" height="13.19"/>
						<rect x="405.37" y="273.93" class="st5" width="1.21" height="13.19"/>
						<rect x="411.1" y="273.93" class="st5" width="2.42" height="13.19"/>
						<rect x="414.36" y="273.93" class="st5" width="1.2" height="13.19"/>
						<rect x="408.35" y="273.93" class="st5" width="1.66" height="13.19"/>
						<rect x="416.85" y="273.93" class="st5" width="1.79" height="13.19"/>
					</g>
				</g>
			</g>
			<g>
				<rect x="239.51" y="220.91" class="st1" width="84.25" height="74.09"/>
				<rect x="263.58" y="220.91" class="st2" width="83.51" height="74.09"/>
				<rect x="294.13" y="220.91" class="st3" width="22.41" height="19.06"/>
				<rect x="294.13" y="275.94" class="st3" width="22.41" height="19.06"/>
				<g>
					<rect x="267.58" y="279.81" class="st4" width="21.66" height="11.78"/>
					<g>
						<rect x="268.57" y="281.46" class="st5" width="2.3" height="8.48"/>
						<rect x="272.27" y="281.46" class="st5" width="0.81" height="8.48"/>
						<rect x="276.37" y="281.46" class="st5" width="1.89" height="8.48"/>
						<rect x="274" y="281.46" class="st5" width="1.15" height="8.48"/>
						<rect x="279.67" y="281.46" class="st5" width="0.78" height="8.48"/>
						<rect x="283.35" y="281.46" class="st5" width="1.56" height="8.48"/>
						<rect x="285.44" y="281.46" class="st5" width="0.77" height="8.48"/>
						<rect x="281.59" y="281.46" class="st5" width="1.07" height="8.48"/>
						<rect x="287.05" y="281.46" class="st5" width="1.15" height="8.48"/>
					</g>
				</g>
			</g>
			<rect x="324.15" y="220.91" class="st6" width="22.93" height="74.09"/>
		</g>
	</g>
	<g>
		<circle class="st14" cx="517.01" cy="100.5" r="73.49"/>
		<g>
			<g>
				<path class="st15" d="M464.86,33.61c-1.84-1.84-4.57-1.98-6.41-0.14l-7.99,7.99c-1.84,1.84-1.7,4.57,0.14,6.41
					c1.61,1.61,4.05,1.74,6.07,0.34l4.62,4.62l8.54-8.54l-4.62-4.62C466.6,37.66,466.47,35.22,464.86,33.61z"/>
			</g>
			<g>
				<path class="st15" d="M516.51,175c-41.35,0-75-33.64-75-75c0-41.36,33.64-75,75-75c41.35,0,75,33.64,75,75
					C591.51,141.36,557.86,175,516.51,175z M516.51,33.66c-36.58,0-66.34,29.76-66.34,66.34c0,36.58,29.76,66.34,66.34,66.34
					c36.58,0,66.34-29.76,66.34-66.34C582.85,63.42,553.09,33.66,516.51,33.66z"/>
				<g>
					<g>
						<rect x="514.01" y="39.69" class="st15" width="6.01" height="10.02"/>
					</g>
					<g>
						
							<rect x="474.45" y="55.54" transform="matrix(0.7072 -0.707 0.707 0.7072 96.9311 355.222)" class="st15" width="5.77" height="10.1"/>
					</g>
					<g>
						<rect x="455.87" y="97.82" class="st15" width="11.03" height="6.01"/>
					</g>
					<g>
						
							<rect x="472.28" y="136.25" transform="matrix(0.7069 -0.7073 0.7073 0.7069 41.4839 378.382)" class="st15" width="10.1" height="5.77"/>
					</g>
					<g>
						<rect x="514.01" y="150.94" class="st15" width="6.01" height="10.02"/>
					</g>
					<g>
						
							<rect x="552.99" y="134.08" transform="matrix(0.7071 -0.7071 0.7071 0.7071 64.4309 433.8163)" class="st15" width="5.77" height="10.1"/>
					</g>
					<g>
						<rect x="567.13" y="97.82" class="st15" width="10.02" height="6.01"/>
					</g>
					<g>
						
							<rect x="550.83" y="57.7" transform="matrix(0.7072 -0.707 0.707 0.7072 119.9314 410.7583)" class="st15" width="10.1" height="5.77"/>
					</g>
				</g>
				<g>
					<polyline class="st16" points="548.16,131.65 548.23,131.72 550.16,133.66 					"/>
					<line class="st16" x1="484.61" y1="68.1" x2="482.85" y2="66.34"/>
					<polyline class="st16" points="550.16,66.34 548.33,68.18 516.51,100 					"/>
					<line class="st16" x1="484.85" y1="131.65" x2="482.85" y2="133.66"/>
					<path class="st16" d="M517.01,54.83V100l-32.08-31.83l0.05-0.07C493.14,59.91,504.98,54.83,517.01,54.83z"/>
					<path class="st16" d="M561.23,100.83c0,11.03-4.95,23.56-13.07,31.65l-31.65-31.65H561.23z"/>
					<path class="st16" d="M548.41,131.65c-0.03,0.03,0.08,0,0.05,0.03c-8.09,8.06-18.42,13.04-31.45,13.04V100L548.41,131.65z"/>
					<path class="st16" d="M517.01,100v44.93h-0.58c-12.38,0-23.43-5.05-31.55-13.15c0,0,0.24-0.07,0.22-0.08L517.01,100z"/>
					<path class="st16" d="M516.51,100.83l-31.65,31.24c0,0-0.01,0.21-0.01,0.19c-8.15-8.11-13.06-20.4-13.06-31.43H516.51z"/>
					<path class="st16" d="M516.51,100.83h-44.6v-1c0-12.35,4.79-23.11,12.84-31.24L516.51,100.83z"/>
					<path class="st13" d="M562.12,100.83h-45.1v-46c13.03,0,23.36,5.08,31.51,13.27c0.03,0.03,0.36,0.04,0.37,0.07
						c8.05,8.12,13.21,19.3,13.21,31.65V100.83z"/>
				</g>
			</g>
			<g>
				<path class="st15" d="M516.72,108.47c-5.2,0.46-9.74-2.85-9.74-8.07v-0.46c0-5.22,4.53-8.53,9.73-8.07
					c11.6,1.01,34.47,5.1,44.59,6.69c2.11,0.33,1.67,2.97-0.07,3.23C549.4,103.54,528.33,107.46,516.72,108.47z"/>
			</g>
		</g>
	</g>
</g>
</svg>
