<?xml version="1.0" encoding="utf-8"?>
<!-- Generator: Adobe Illustrator 23.0.5, SVG Export Plug-In . SVG Version: 6.00 Build 0)  -->
<svg version="1.0" id="Layer_1" xmlns="http://www.w3.org/2000/svg" xmlns:xlink="http://www.w3.org/1999/xlink" x="0px" y="0px"
	 viewBox="0 0 624 320" style="enable-background:new 0 0 624 320;" xml:space="preserve">
<style type="text/css">
	.st0{opacity:0.3;fill:#35B24A;}
	.st1{fill:#E1E1E1;}
	.st2{fill:#1A2E35;}
	.st3{fill:#375A64;}
	.st4{fill:#2B454E;}
	.st5{fill:#FFFFFF;}
	.st6{fill:#E7E7E7;}
	.st7{fill:#F5F5F5;}
	.st8{fill:#F0F0F0;}
	.st9{fill:#00A26D;}
	.st10{fill:#FAFAFA;}
	.st11{fill:#007249;}
	.st12{fill:#00DFBF;}
	.st13{fill:#FFAAA8;}
	.st14{opacity:0.4;fill:#FFFFFF;}
	.st15{opacity:0.1;}
	.st16{fill:#FF9090;}
</style>
<rect x="0" class="st0" width="624" height="320"/>
<g>
	<ellipse id="Shadow_2_" class="st1" cx="83.6" cy="294.73" rx="46.6" ry="15.27"/>
	<ellipse id="Shadow_1_" class="st1" cx="531.19" cy="248.3" rx="45.81" ry="15.27"/>
	<g id="Device">
		<g id="XMLID_2408_">
			<path id="XMLID_2415_" class="st2" d="M297.87,175.64l-38.85,19.77c-1.44,0.73-2.84,2.5-3.12,3.94l-9.66,49.13
				c-0.28,1.45,0.65,3.21,2.1,3.95l25.05,12.75c1.44,0.73,3.78,0.73,5.22,0l53.55-27.24c1.44-0.73,2.61-2.44,2.61-3.82
				c0-1.38-1.17-3.09-2.61-3.82l-19.27-9.8c-1.44-0.73-2.75-2.51-2.92-3.97l-4.29-37.07c-0.17-1.46-1.4-3.2-2.75-3.89
				C301.58,174.87,299.31,174.91,297.87,175.64z"/>
			<path id="XMLID_2411_" class="st3" d="M275.99,256.54l0,9.19c0.94,0,1.89-0.18,2.61-0.55l53.55-27.24
				c1.44-0.73,2.61-2.44,2.61-3.82c0-0.81-0.41-1.72-1.03-2.49h-8.77L275.99,256.54z"/>
			<path id="XMLID_2410_" class="st2" d="M302.77,178.14l-38.85,19.77c-1.44,0.73-2.84,2.5-3.12,3.95l-8.77,44.6
				c-0.28,1.45,0.65,3.21,2.1,3.95l19.27,9.8c1.44,0.73,3.78,0.73,5.22,0l53.55-27.24c1.44-0.73,1.44-1.92,0-2.66l-19.27-9.8
				c-1.44-0.73-2.75-2.51-2.92-3.97l-4.29-37.07C305.51,177.99,304.21,177.4,302.77,178.14z"/>
			<path id="XMLID_2409_" class="st4" d="M332.15,230.29l-19.27-9.8c-0.71-0.36-1.39-0.98-1.91-1.68l-58.58,29.81
				c0.38,0.74,0.98,1.4,1.73,1.78l19.27,9.8c1.44,0.73,3.78,0.73,5.22,0l53.55-27.24C333.59,232.22,333.59,231.03,332.15,230.29z"/>
		</g>
		<g id="XMLID_2402_">
			<path id="XMLID_2407_" class="st3" d="M174.4,273.35l-2.49-1.27c-2.02-1.03-3.65-3.52-3.65-5.58l0-147.04
				c0-2.05,1.64-4.55,3.66-5.57L375.77,10.76c2.02-1.02,5.3-1.02,7.31,0.01l1.9,0.97c2.02,1.03,3.65,3.52,3.65,5.58v147.04
				c0,2.05-1.64,4.55-3.65,5.58L181.7,273.35C179.69,274.38,176.41,274.38,174.4,273.35z"/>
			<path id="XMLID_2406_" class="st2" d="M182.95,123.23l-13.62-6.93c-0.66,1.01-1.07,2.15-1.07,3.17l0,147.04
				c0,2.05,1.64,4.55,3.65,5.58l2.49,1.27c2.02,1.03,5.29,1.03,7.31,0l1.24-0.63L182.95,123.23z"/>
			<path id="XMLID_2405_" class="st4" d="M178.05,271.49V124.45c0-2.05,1.64-4.55,3.65-5.58L384.98,15.46
				c2.02-1.03,3.65-0.19,3.65,1.86v147.04c0,2.05-1.64,4.55-3.65,5.58L181.7,273.35C179.69,274.38,178.05,273.55,178.05,271.49z"/>
			<path id="XMLID_2404_" class="st1" d="M273.5,216.69l19.27-9.8c1.44-0.73,2.61-0.21,2.61,1.16c0,1.38-1.17,3.09-2.61,3.82
				l-19.27,9.8c-1.44,0.73-2.61,0.21-2.61-1.16C270.89,219.13,272.06,217.42,273.5,216.69z"/>
			<path id="XMLID_2403_" class="st5" d="M187.41,123.37L378.85,25.7c1.15-0.59,2.09-0.11,2.09,1.06v128.15
				c0,1.17-0.94,2.6-2.09,3.19l-191.44,97.4c-1.15,0.59-2.09,0.11-2.09-1.06V126.56C185.33,125.39,186.26,123.96,187.41,123.37z"/>
		</g>
		<g id="Tab_1_">
			<path id="XMLID_2334_" class="st6" d="M194.55,125.83L370.2,36.48c3.19-1.62,5.8-0.29,5.8,2.95V150.7c0,1.51-1.21,3.36-2.69,4.11
				l-179.79,91.46c-1.48,0.75-2.69,0.14-2.69-1.37V131.52C190.82,129.44,192.5,126.87,194.55,125.83z"/>
			<polygon id="XMLID_2245_" class="st7" points="266.57,106.39 363.37,57.15 363.37,74.28 266.57,123.52 			"/>
			<polygon id="XMLID_2323_" class="st8" points="266.57,130.31 363.37,81.06 363.37,123.97 266.57,173.22 			"/>
			<path id="XMLID_2333_" class="st9" d="M376,42.09v-2.66c0-3.24-2.61-4.57-5.8-2.95l-175.65,89.35c-2.05,1.04-3.73,3.61-3.73,5.69
				v4.77L376,42.09z"/>
			<path id="XMLID_2332_" class="st5" d="M351.69,48.16c-1.1,0.56-2,1.93-2,3.05c0,1.12,0.89,1.58,2,1.02c1.1-0.56,2-1.93,2-3.05
				C353.68,48.06,352.79,47.6,351.69,48.16z"/>
			<path id="XMLID_2331_" class="st5" d="M359.61,44.13c-1.1,0.56-2,1.93-2,3.05c0,1.12,0.89,1.58,2,1.02c1.1-0.56,2-1.93,2-3.05
				C361.61,44.03,360.71,43.57,359.61,44.13z"/>
			<path id="XMLID_2330_" class="st5" d="M367.53,40.1c-1.1,0.56-2,1.93-2,3.05c0,1.12,0.89,1.58,2,1.02c1.1-0.56,2-1.93,2-3.05
				C369.53,40,368.63,39.54,367.53,40.1z"/>
			<g id="XMLID_2223_">
				<path class="st10" d="M199.23,197.24c-0.18,0-0.36-0.04-0.52-0.12c-0.32-0.16-0.52-0.46-0.52-0.79v-55.67
					c0-0.33,0.2-0.63,0.52-0.79l54.62-27.88c0.32-0.16,0.72-0.16,1.04,0c0.32,0.16,0.52,0.46,0.52,0.79v55.72
					c0,0.33-0.2,0.63-0.52,0.79l-54.62,27.84C199.59,197.2,199.41,197.24,199.23,197.24z M200.27,141.18v53.56l52.55-26.78v-53.61
					L200.27,141.18z"/>
			</g>
			<g id="XMLID_2244_">
				<path class="st10" d="M218.06,177.14c-1.98,0-3.83-0.41-5.46-1.24c-3.93-2-6.09-6.14-6.09-11.65c0-10.97,8.76-24.36,19.52-29.86
					c5.4-2.76,10.54-3.18,14.46-1.19c3.93,2,6.1,6.14,6.1,11.66c0,10.98-8.76,24.37-19.52,29.85
					C223.91,176.33,220.84,177.14,218.06,177.14z M235.03,133.8c-2.42,0-5.13,0.73-7.97,2.18c-10.19,5.2-18.48,17.89-18.48,28.27
					c0,4.84,1.8,8.41,5.06,10.07c3.25,1.65,7.65,1.24,12.39-1.18c10.19-5.19,18.48-17.88,18.48-28.27c0-4.84-1.8-8.42-5.06-10.08
					C238.15,134.13,236.66,133.8,235.03,133.8z"/>
			</g>
		</g>
	</g>
	<g id="XMLID_113_">
		<g id="XMLID_158_">
			<path id="XMLID_174_" class="st11" d="M492.45,194.52l-3.8-1.93l0,0c-0.16-0.08-0.37-0.08-0.6,0.01l-6.86,2.73
				c-0.48,0.19-0.98-0.02-1.14-0.47c-0.4-1.11-0.91-2.11-1.53-3c-0.28-0.4-0.34-1.05-0.1-1.47l4.57-8.13
				c0.24-0.42,0.05-0.95-0.41-1.18l-4.96-2.53c-0.46-0.23-1.07-0.11-1.37,0.28l-5.7,7.55c-0.29,0.39-0.96,0.67-1.49,0.65
				c-0.65-0.01-1.31,0.01-1.99,0.08v-5.52l-3.81-1.93v0c-0.17-0.08-0.39-0.07-0.62,0.05l-7.71,3.92c-0.46,0.23-0.87,0.8-0.92,1.27
				l-0.77,7.56c-0.05,0.47-0.41,1.09-0.8,1.41c-1.5,1.22-2.93,2.56-4.28,3.99c-0.34,0.36-1.01,0.53-1.51,0.38l-4.95-1.52
				c-0.5-0.15-1.12,0.05-1.39,0.45l-5.67,8.65c-0.27,0.41-0.15,0.98,0.25,1.29l3.97,3.02c0.4,0.31,0.57,0.91,0.39,1.35
				c-0.74,1.75-1.34,3.51-1.78,5.27c-0.12,0.46-0.55,1.05-0.99,1.32l-7.04,4.37c-0.43,0.27-0.79,0.87-0.79,1.34v7.84
				c0,0.24,0.11,0.42,0.27,0.5l0,0l3.8,1.93l5.64-2.35c0.22,0.4,0.45,0.79,0.7,1.16c0.28,0.4,0.34,1.05,0.1,1.47l-4.57,8.13
				c-0.24,0.42-0.05,0.95,0.41,1.18l4.96,2.53c0.46,0.23,1.07,0.11,1.37-0.28l5.7-7.55c0.29-0.39,0.96-0.67,1.49-0.65
				c1.18,0.03,2.42-0.08,3.71-0.33c0.52-0.1,0.98,0.17,1.03,0.64l0.75,6.6c0.03,0.23,0.14,0.38,0.3,0.46l0,0l3.79,1.93l4.55-5.89
				c0.46-0.23,0.87-0.8,0.92-1.27l0.77-7.56c0.05-0.47,0.5-0.96,0.99-1.14c2.2-0.81,4.43-2.22,5.99-3.7
				c0.36-0.34,1.03-0.52,1.54-0.36l3.04,0.94c0.5,0.16,1.12-0.05,1.39-0.45l5.67-8.65c0.27-0.41,0.15-0.98-0.25-1.29l-2.61-1.98
				c-0.4-0.31-0.57-0.91-0.42-1.36c0.63-1.94,0.77-4.47,0.71-6.27c-0.02-0.47,0.31-1.07,0.74-1.34l7.04-4.37
				c0.43-0.27,0.79-0.87,0.79-1.34l3.37-3.56L492.45,194.52z M458.78,225.61c-7.19,3.66-11.66,1.06-11.66-6.26
				c0-7.32,5.94-16.29,13.14-19.95c7.19-3.66,11.55-1,11.55,6.32C471.81,213.05,465.98,221.95,458.78,225.61z"/>
			<g id="XMLID_168_">
				<path id="XMLID_173_" class="st12" d="M481.48,184.96l1.51-2.69c0.24-0.42,0.05-0.95-0.41-1.18l-4.96-2.53
					c-0.46-0.23-1.07-0.11-1.37,0.28l-5.7,7.55c-0.09,0.12-0.23,0.23-0.38,0.32l6.38,3.25L481.48,184.96z"/>
				<path id="XMLID_172_" class="st12" d="M437.01,217.56c-0.16,0.2-0.35,0.39-0.54,0.51l-7.04,4.37c-0.18,0.11-0.33,0.28-0.46,0.47
					l4.3,2.19l9.35-4.69L437.01,217.56z"/>
				<path id="XMLID_171_" class="st12" d="M441.29,196.68c-0.4,0.01-0.79,0.2-0.99,0.51l-5.67,8.65c-0.12,0.19-0.16,0.41-0.13,0.63
					l4.89,2.49l7.76-9.25L441.29,196.68z"/>
				<path id="XMLID_170_" class="st12" d="M454.16,184.46l6.04,3.08l6.87-3.49v-2.44l-3.81-1.93v0c-0.17-0.08-0.39-0.07-0.62,0.05
					l-7.71,3.92C454.61,183.81,454.33,184.13,454.16,184.46z"/>
				<path id="XMLID_169_" class="st12" d="M492.45,194.52L492.45,194.52c-0.15-0.08-0.37-0.09-0.61,0.01l-6.86,2.72
					c-0.48,0.19-0.98-0.02-1.14-0.46c-0.27-0.76-0.6-1.47-0.98-2.13l5.2-2.06c0.23-0.09,0.44-0.08,0.6-0.01v-0.01L492.45,194.52z"/>
			</g>
			<path id="XMLID_159_" class="st9" d="M492.72,202.87v-7.85c0-0.47-0.39-0.69-0.88-0.5l-6.86,2.73c-0.48,0.19-0.98-0.02-1.14-0.47
				c-0.4-1.11-0.91-2.11-1.53-3c-0.28-0.4-0.34-1.05-0.1-1.47l4.57-8.13c0.24-0.42,0.05-0.95-0.41-1.18l-4.96-2.53
				c-0.46-0.23-1.07-0.11-1.37,0.28l-5.7,7.55c-0.29,0.39-0.96,0.67-1.49,0.65c-1.18-0.03-2.42,0.08-3.71,0.33
				c-0.52,0.1-0.98-0.17-1.03-0.64l-0.75-6.6c-0.05-0.47-0.47-0.65-0.93-0.42l-7.71,3.92c-0.46,0.23-0.87,0.8-0.92,1.27l-0.77,7.56
				c-0.05,0.47-0.41,1.09-0.8,1.41c-1.5,1.22-2.93,2.56-4.28,3.99c-0.34,0.36-1.01,0.53-1.51,0.38l-4.95-1.52
				c-0.5-0.15-1.12,0.05-1.39,0.45l-5.67,8.65c-0.27,0.41-0.15,0.98,0.25,1.29l3.97,3.02c0.4,0.31,0.57,0.91,0.39,1.35
				c-0.74,1.75-1.34,3.51-1.78,5.27c-0.12,0.46-0.55,1.05-0.99,1.32l-7.04,4.37c-0.43,0.27-0.79,0.87-0.79,1.34v7.84
				c0,0.47,0.39,0.69,0.88,0.5l6.86-2.73c0.48-0.19,0.98,0.02,1.14,0.47c0.4,1.11,0.91,2.11,1.53,3c0.28,0.4,0.34,1.05,0.1,1.47
				l-4.57,8.13c-0.24,0.42-0.05,0.95,0.41,1.18l4.96,2.53c0.46,0.23,1.07,0.11,1.37-0.28l5.7-7.55c0.29-0.39,0.96-0.67,1.49-0.65
				c1.18,0.03,2.42-0.08,3.71-0.33c0.52-0.1,0.98,0.17,1.03,0.64l0.75,6.6c0.05,0.47,0.47,0.65,0.93,0.42l7.71-3.92
				c0.46-0.23,0.87-0.8,0.92-1.27l0.77-7.56c0.05-0.47,0.41-1.09,0.8-1.41c1.5-1.22,2.93-2.56,4.28-3.99
				c0.34-0.36,1.01-0.53,1.52-0.38l4.95,1.52c0.5,0.15,1.12-0.05,1.39-0.45l5.67-8.65c0.27-0.41,0.15-0.98-0.25-1.29l-3.97-3.02
				c-0.4-0.31-0.57-0.91-0.39-1.35c0.74-1.75,1.34-3.51,1.78-5.27c0.12-0.46,0.55-1.05,0.99-1.32l7.04-4.37
				C492.37,203.94,492.72,203.34,492.72,202.87z M462.57,227.54c-7.19,3.66-13.03,0.69-13.03-6.63c0-7.32,5.83-16.22,13.03-19.88
				c7.19-3.66,13.02-0.69,13.02,6.63C475.6,214.98,469.77,223.88,462.57,227.54z"/>
		</g>
		<g id="XMLID_136_">
			<path id="XMLID_155_" class="st11" d="M454.49,256.01L454.49,256.01c-0.18-0.09-0.42-0.08-0.67,0.06l-3.24,1.88
				c-0.44,0.26-1,0.12-1.3-0.26c-0.2-0.25-0.41-0.47-0.63-0.68c-0.37-0.34-0.56-0.92-0.38-1.36l5.16-2.88l-3.85-1.96l0,0
				c-0.08-0.04-0.16-0.07-0.25-0.09l-2.45-0.48c-0.52-0.1-1.14,0.15-1.39,0.57l-2.3,3.86c-0.25,0.41-0.87,0.81-1.39,0.92
				c-0.05,0.01-0.09,0.03-0.14,0.04c0.14-0.37,0.2-0.9,0.2-0.9l-3.86-1.96l0,0c-0.21-0.11-0.47-0.09-0.72,0.09l-3.66,2.54
				c-0.42,0.29-0.73,0.9-0.7,1.37l0.22,3.07c0.03,0.47-0.23,1.13-0.57,1.49c-0.6,0.63-1.17,1.3-1.7,1.98
				c-0.3,0.39-0.96,0.69-1.49,0.67l-2.36-0.1c-0.53-0.02-1.14,0.3-1.35,0.73l-2.21,4.38c-0.2,0.39-0.03,0.84,0.38,1.05l0,0
				l2.61,1.33c0.08,0.19,0.11,0.4,0.06,0.6c-0.18,0.7-0.32,1.4-0.41,2.09c-0.06,0.47-0.4,1.1-0.79,1.42l-3.25,2.63
				c-0.39,0.32-0.64,0.95-0.54,1.41l0.61,3.12c0.04,0.2,0.15,0.35,0.29,0.42l0,0l3.87,1.97l0.05-3.91c0.44-0.26,1-0.12,1.3,0.26
				c0.2,0.25,0.41,0.47,0.63,0.68c0.37,0.34,0.56,0.92,0.38,1.36l-1.65,3.94c-0.15,0.35,0,0.7,0.32,0.88l0,0l3.87,1.97l1.05-2.54
				l1.49-3.27c0.25-0.41,0.87-0.81,1.39-0.92c0.49-0.11,0.99-0.26,1.51-0.44c0.49-0.18,1,0.02,1.16,0.47l0.83,2.42
				c0.06,0.18,0.18,0.31,0.32,0.38l0,0l3.88,1.97l-0.68-3.78l1.19-0.82c0.42-0.29,0.73-0.9,0.7-1.37l-0.22-3.07
				c-0.03-0.47,0.23-1.13,0.57-1.49c0.6-0.63,1.51-0.97,2.04-1.66c0.3-0.39,0.62-1.02,1.15-0.99l2.36,0.1
				c0.53,0.02,1.14-0.3,1.35-0.73l2.21-4.38c0.22-0.43,0-0.92-0.49-1.11l-1.9-0.72c-0.49-0.18-0.77-0.7-0.65-1.16
				c0.18-0.7,0.32-1.4,0.41-2.09c0.06-0.47,0.4-1.1,0.79-1.42l3.25-2.63c0.28-0.23,0.47-0.61,0.54-0.98l2.95-2.03L454.49,256.01z
				 M439.74,276.19c-3.97,2.75-7.77,2-8.49-1.67c-0.72-3.68,2.53-8.35,6.5-11.1c3.97-2.75,7.16-2.54,7.88,1.13
				C446.35,268.22,443.72,273.44,439.74,276.19z"/>
			<g id="XMLID_146_">
				<path id="XMLID_151_" class="st12" d="M425.25,275.49l-3.21,2.6c-0.24,0.19-0.41,0.5-0.5,0.82l4.77,2.43l0-0.22
					c0.44-0.26,1-0.12,1.3,0.26c0,0,0,0,0,0l4.6-2.34L425.25,275.49z"/>
				<path id="XMLID_150_" class="st12" d="M433.43,267.62c0.36-0.49,0.76-0.97,1.18-1.44l-4.58-2.33c-0.22,0.08-0.46,0.14-0.67,0.13
					l-2.36-0.1c-0.33-0.01-0.7,0.11-0.98,0.31l7.04,3.58L433.43,267.62z"/>
				<path id="XMLID_149_" class="st12" d="M458.34,257.96c-0.18-0.09-0.42-0.07-0.66,0.07l-3.25,1.88c-0.44,0.25-0.99,0.12-1.3-0.26
					c-0.2-0.25-0.4-0.47-0.63-0.68c-0.37-0.34-0.56-0.92-0.38-1.36l0.31-0.73l1.39-0.81c0.25-0.14,0.49-0.15,0.67-0.06v-0.01
					L458.34,257.96z"/>
				<path id="XMLID_148_" class="st12" d="M448.75,257.13c-0.04-0.04-0.07-0.08-0.11-0.12c-0.37-0.34-0.56-0.92-0.38-1.36l5.16-2.88
					l-3.85-1.96l0,0c-0.08-0.04-0.16-0.07-0.25-0.09l-2.45-0.48c-0.52-0.1-1.14,0.15-1.39,0.57l-2.3,3.86
					c-0.11,0.19-0.3,0.36-0.52,0.52l5.19,2.64L448.75,257.13z"/>
				<path id="XMLID_147_" class="st12" d="M433,256.24l4.77,2.43l3.92-3.17c0.11-0.35,0.16-0.77,0.16-0.77l-3.86-1.96l0,0
					c-0.21-0.11-0.47-0.09-0.72,0.09l-3.66,2.54C433.33,255.58,433.11,255.91,433,256.24z"/>
			</g>
			<path id="XMLID_137_" class="st9" d="M459.25,261.52l-0.61-3.12c-0.09-0.46-0.52-0.63-0.97-0.37l-3.24,1.88
				c-0.44,0.26-1,0.12-1.3-0.26c-0.2-0.25-0.41-0.47-0.63-0.68c-0.37-0.34-0.56-0.92-0.38-1.36l1.65-3.94
				c0.18-0.44-0.09-0.88-0.61-0.98l-2.45-0.48c-0.52-0.1-1.14,0.15-1.39,0.57l-2.3,3.86c-0.25,0.41-0.87,0.81-1.39,0.92
				c-0.49,0.11-1,0.26-1.51,0.44c-0.49,0.18-1-0.02-1.16-0.47l-0.83-2.42c-0.15-0.45-0.62-0.58-1.03-0.29l-3.66,2.54
				c-0.42,0.29-0.73,0.9-0.7,1.37l0.22,3.07c0.03,0.47-0.23,1.13-0.57,1.49c-0.6,0.63-1.17,1.3-1.7,1.98
				c-0.3,0.39-0.96,0.69-1.49,0.67l-2.36-0.1c-0.53-0.02-1.14,0.3-1.35,0.73l-2.21,4.38c-0.22,0.43,0,0.92,0.49,1.11l1.9,0.72
				c0.49,0.18,0.77,0.7,0.65,1.16c-0.18,0.7-0.32,1.4-0.41,2.09c-0.06,0.47-0.4,1.1-0.79,1.42l-3.25,2.63
				c-0.39,0.32-0.64,0.95-0.54,1.41l0.61,3.12c0.09,0.46,0.52,0.63,0.97,0.37l3.24-1.88c0.44-0.26,1-0.12,1.3,0.26
				c0.2,0.25,0.41,0.47,0.63,0.68c0.37,0.34,0.56,0.92,0.38,1.36l-1.65,3.94c-0.18,0.44,0.09,0.88,0.61,0.98l2.44,0.48
				c0.52,0.1,1.14-0.15,1.39-0.57l2.3-3.86c0.25-0.41,0.87-0.81,1.39-0.92c0.49-0.11,0.99-0.26,1.51-0.44
				c0.49-0.18,1,0.02,1.16,0.47l0.83,2.42c0.15,0.45,0.62,0.58,1.03,0.29l3.66-2.54c0.42-0.29,0.73-0.9,0.7-1.37l-0.22-3.07
				c-0.03-0.47,0.23-1.13,0.57-1.49c0.6-0.63,1.17-1.3,1.7-1.98c0.3-0.39,0.96-0.69,1.49-0.67l2.36,0.1
				c0.53,0.02,1.14-0.3,1.35-0.73l2.21-4.38c0.22-0.43,0-0.92-0.49-1.11l-1.9-0.72c-0.49-0.18-0.77-0.7-0.65-1.16
				c0.18-0.7,0.32-1.4,0.41-2.09c0.06-0.47,0.4-1.1,0.79-1.42l3.25-2.63C459.1,262.61,459.34,261.98,459.25,261.52z M443.6,278.15
				c-3.97,2.75-7.77,2-8.49-1.67c-0.72-3.68,1.92-8.89,5.89-11.64c3.97-2.75,7.77-2,8.49,1.67
				C450.21,270.19,447.57,275.4,443.6,278.15z"/>
		</g>
		<g id="XMLID_114_">
			<path id="XMLID_133_" class="st11" d="M422.94,250.28l-3.8-1.93l0,0c-0.16-0.08-0.37-0.08-0.6,0.01l-6.86,2.73
				c-0.48,0.19-0.98-0.02-1.14-0.47c-0.4-1.11-0.91-2.11-1.53-3c-0.28-0.4-0.34-1.05-0.1-1.47l4.57-8.13
				c0.24-0.42,0.05-0.95-0.41-1.18l-4.96-2.53c-0.46-0.23-1.07-0.11-1.37,0.28l-5.7,7.55c-0.29,0.39-0.96,0.67-1.49,0.65
				c-0.65-0.01-1.31,0.01-1.99,0.08v-5.52l-3.81-1.93v0c-0.17-0.08-0.39-0.07-0.62,0.05l-7.71,3.92c-0.46,0.23-0.87,0.8-0.92,1.27
				l-0.77,7.56c-0.05,0.47-0.41,1.09-0.8,1.41c-1.5,1.22-2.93,2.56-4.28,3.99c-0.34,0.36-1.01,0.53-1.51,0.38l-4.95-1.52
				c-0.5-0.15-1.12,0.05-1.39,0.45l-5.67,8.65c-0.27,0.41-0.15,0.98,0.25,1.29l3.97,3.02c0.4,0.31,0.57,0.91,0.39,1.35
				c-0.74,1.75-1.34,3.51-1.78,5.27c-0.12,0.46-0.55,1.05-0.99,1.32l-7.04,4.37c-0.43,0.27-0.79,0.87-0.79,1.34v7.84
				c0,0.24,0.11,0.42,0.27,0.5l0,0l3.8,1.93l5.64-2.35c0.22,0.4,0.45,0.79,0.7,1.16c0.28,0.4,0.34,1.05,0.1,1.47l-4.57,8.13
				c-0.24,0.42-0.05,0.95,0.41,1.18l4.96,2.53c0.46,0.23,1.07,0.11,1.37-0.28l5.7-7.55c0.29-0.39,0.96-0.67,1.49-0.65
				c1.18,0.03,2.42-0.08,3.71-0.33c0.52-0.1,0.98,0.17,1.03,0.64l0.75,6.6c0.03,0.23,0.14,0.38,0.3,0.46l0,0l3.79,1.93l4.55-5.89
				c0.46-0.23,0.87-0.8,0.92-1.27l0.77-7.56c0.05-0.47,0.5-0.96,0.99-1.14c2.2-0.81,4.43-2.22,5.99-3.7
				c0.36-0.34,1.03-0.52,1.54-0.36l3.04,0.94c0.5,0.16,1.12-0.05,1.39-0.45l5.67-8.65c0.27-0.41,0.15-0.98-0.25-1.29l-2.61-1.98
				c-0.4-0.31-0.57-0.91-0.42-1.36c0.63-1.94,0.77-4.47,0.71-6.27c-0.02-0.47,0.31-1.07,0.74-1.34l7.04-4.37
				c0.43-0.27,0.79-0.87,0.79-1.34l3.37-3.56L422.94,250.28z M389.28,281.38c-7.19,3.66-11.66,1.06-11.66-6.26
				c0-7.32,5.94-16.29,13.14-19.95c7.19-3.66,11.55-1,11.55,6.32C402.3,268.82,396.47,277.72,389.28,281.38z"/>
			<g id="XMLID_124_">
				<path id="XMLID_129_" class="st12" d="M411.97,240.72l1.51-2.69c0.24-0.42,0.05-0.95-0.41-1.18l-4.96-2.53
					c-0.46-0.23-1.07-0.11-1.37,0.28l-5.7,7.55c-0.09,0.12-0.23,0.23-0.38,0.32l6.38,3.25L411.97,240.72z"/>
				<path id="XMLID_128_" class="st12" d="M367.5,273.33c-0.16,0.2-0.35,0.39-0.54,0.51l-7.04,4.37c-0.18,0.11-0.33,0.28-0.46,0.47
					l4.3,2.19l9.35-4.69L367.5,273.33z"/>
				<path id="XMLID_127_" class="st12" d="M371.79,252.45c-0.4,0.01-0.79,0.2-0.99,0.51l-5.67,8.65c-0.12,0.19-0.16,0.41-0.13,0.63
					l4.89,2.49l7.76-9.25L371.79,252.45z"/>
				<path id="XMLID_126_" class="st12" d="M384.65,240.23l6.04,3.08l6.87-3.49v-2.44l-3.81-1.93v0c-0.17-0.08-0.39-0.07-0.62,0.05
					l-7.71,3.92C385.11,239.57,384.82,239.89,384.65,240.23z"/>
				<path id="XMLID_125_" class="st12" d="M422.95,250.28L422.95,250.28c-0.15-0.08-0.37-0.09-0.61,0.01l-6.86,2.72
					c-0.48,0.19-0.98-0.02-1.14-0.46c-0.27-0.76-0.6-1.47-0.98-2.13l5.2-2.06c0.23-0.09,0.44-0.08,0.6-0.01v-0.01L422.95,250.28z"/>
			</g>
			<path id="XMLID_115_" class="st9" d="M423.22,258.64v-7.85c0-0.47-0.39-0.69-0.88-0.5l-6.86,2.73c-0.48,0.19-0.98-0.02-1.14-0.47
				c-0.4-1.11-0.91-2.11-1.53-3c-0.28-0.4-0.34-1.05-0.1-1.47l4.57-8.13c0.24-0.42,0.05-0.95-0.41-1.18l-4.96-2.53
				c-0.46-0.23-1.07-0.11-1.37,0.28l-5.7,7.55c-0.29,0.39-0.96,0.67-1.49,0.65c-1.18-0.03-2.42,0.08-3.71,0.33
				c-0.52,0.1-0.98-0.17-1.03-0.64l-0.75-6.6c-0.05-0.47-0.47-0.65-0.93-0.42l-7.71,3.92c-0.46,0.23-0.87,0.8-0.92,1.27l-0.77,7.56
				c-0.05,0.47-0.41,1.09-0.8,1.41c-1.5,1.22-2.93,2.56-4.28,3.99c-0.34,0.36-1.01,0.53-1.51,0.38l-4.95-1.52
				c-0.5-0.15-1.12,0.05-1.39,0.45l-5.67,8.65c-0.27,0.41-0.15,0.98,0.25,1.29l3.97,3.02c0.4,0.31,0.57,0.91,0.39,1.35
				c-0.74,1.75-1.34,3.51-1.78,5.27c-0.12,0.46-0.55,1.05-0.99,1.32l-7.04,4.37c-0.43,0.27-0.79,0.87-0.79,1.34v7.84
				c0,0.47,0.39,0.69,0.88,0.5l6.86-2.73c0.48-0.19,0.98,0.02,1.14,0.47c0.4,1.11,0.91,2.11,1.53,3c0.28,0.4,0.34,1.05,0.1,1.47
				l-4.57,8.13c-0.24,0.42-0.05,0.95,0.41,1.18l4.96,2.53c0.46,0.23,1.07,0.11,1.37-0.28l5.7-7.55c0.29-0.39,0.96-0.67,1.49-0.65
				c1.18,0.03,2.42-0.08,3.71-0.33c0.52-0.1,0.98,0.17,1.03,0.64l0.75,6.6c0.05,0.47,0.47,0.65,0.93,0.42l7.71-3.92
				c0.46-0.23,0.87-0.8,0.92-1.27l0.77-7.56c0.05-0.47,0.41-1.09,0.8-1.41c1.5-1.22,2.93-2.56,4.28-3.99
				c0.34-0.36,1.01-0.53,1.52-0.38l4.95,1.52c0.5,0.15,1.12-0.05,1.39-0.45l5.67-8.65c0.27-0.41,0.15-0.98-0.25-1.29l-3.97-3.02
				c-0.4-0.31-0.57-0.91-0.39-1.35c0.74-1.75,1.34-3.51,1.78-5.27c0.12-0.46,0.55-1.05,0.99-1.32l7.04-4.37
				C422.87,259.7,423.22,259.1,423.22,258.64z M393.07,283.3c-7.19,3.66-13.03,0.69-13.03-6.63s5.83-16.22,13.03-19.88
				c7.19-3.66,13.02-0.69,13.02,6.63C406.09,270.74,400.26,279.64,393.07,283.3z"/>
		</g>
	</g>
	<g id="Character_girl_3_">
		<path id="XMLID_30790_" class="st2" d="M511.99,111.64h32.03v-25.3c0-7.79-7.17-14.11-16.02-14.11l0,0
			c-8.85,0-16.02,6.32-16.02,14.11L511.99,111.64z"/>
		<g id="XMLID_30761_">
			<g id="Girl_arm_1_">
				<path id="XMLID_30759_" class="st13" d="M522.07,104.77l-22.92,0.77c-0.8-0.6-5.34-5.37-5.34-5.37s-12.46-1.41-12.53-1.01
					s12.25,12.02,13.47,13.19c0.67,0.65,1.29,1.17,2.91,1.25c3.22,0.17,20.99,1.15,20.99,1.15L522.07,104.77z"/>
			</g>
			<g id="Tab_2_">
				<g id="XMLID_30733_">
					<path id="XMLID_30736_" class="st9" d="M403.98,195.84l-0.68-0.35c-1.09-0.56-1.98-1.91-1.98-3.02l0-62.07
						c0-1.11,0.89-2.46,1.98-3.02l90.47-46.02c1.09-0.56,2.86-0.56,3.96,0l0.68,0.35c1.09,0.56,1.98,1.91,1.98,3.02l0,62.07
						c0,1.11-0.89,2.46-1.98,3.02l-90.47,46.02C406.85,196.39,405.07,196.39,403.98,195.84z"/>
					<path id="XMLID_30743_" class="st14" d="M500.37,84.44c-0.13-0.9-0.96-1.23-1.96-0.73l-90.48,46.03
						c-0.55,0.27-1.04,0.76-1.4,1.3l-4.63-2.36c0.35-0.55,0.85-1.02,1.4-1.31l90.46-46.02c1.1-0.56,2.87-0.56,3.96,0l0.68,0.35
						C499.4,82.22,500.24,83.39,500.37,84.44z"/>
					<path id="XMLID_30749_" class="st15" d="M407.6,195.97c-1.09,0.41-2.63,0.37-3.62-0.14l-0.69-0.35
						c-1.09-0.56-1.97-1.91-1.97-3.02V130.4c0-0.56,0.22-1.18,0.58-1.72l4.63,2.36c-0.35,0.55-0.58,1.17-0.58,1.72v62.08
						C405.96,195.83,406.67,196.29,407.6,195.97z"/>
				</g>
				<g id="XMLID_2155_">
					<path id="XMLID_678_" class="st10" d="M415.1,133.16l6.8-3.46c0.5-0.25,0.9-0.05,0.9,0.46l0,6.74c0,0.5-0.4,1.11-0.9,1.36
						l-6.79,3.38c-0.5,0.25-0.9,0.04-0.9-0.46v-6.65C414.2,134.03,414.6,133.41,415.1,133.16z"/>
					<g id="XMLID_1665_">
						<path id="XMLID_2202_" class="st4" d="M421.02,137.3c-0.23,0.11-0.44,0.12-0.59,0.03l-2.1-1.4c-0.28-0.19-0.25-0.7,0.08-1.16
							c0.32-0.45,0.82-0.66,1.1-0.48l1.47,0.98l4.07-7.71c0.25-0.48,0.74-0.8,1.09-0.72c0.35,0.08,0.42,0.54,0.17,1.02l-4.65,8.8
							c-0.14,0.27-0.36,0.5-0.6,0.63C421.04,137.29,421.03,137.29,421.02,137.3z"/>
					</g>
				</g>
				<g id="XMLID_2211_">
					<path id="XMLID_2214_" class="st10" d="M415.1,147.85l6.8-3.46c0.5-0.25,0.9-0.05,0.9,0.46l0,6.74c0,0.5-0.4,1.11-0.9,1.36
						l-6.79,3.38c-0.5,0.25-0.9,0.04-0.9-0.46v-6.65C414.2,148.72,414.6,148.1,415.1,147.85z"/>
					<g id="XMLID_2212_">
						<path id="XMLID_2213_" class="st4" d="M421.02,151.99c-0.23,0.11-0.44,0.12-0.59,0.03l-2.1-1.4c-0.28-0.19-0.25-0.7,0.08-1.16
							c0.32-0.45,0.82-0.66,1.1-0.48l1.47,0.98l4.07-7.71c0.25-0.48,0.74-0.8,1.09-0.72c0.35,0.08,0.42,0.54,0.17,1.02l-4.65,8.8
							c-0.14,0.27-0.36,0.5-0.6,0.63C421.04,151.98,421.03,151.98,421.02,151.99z"/>
					</g>
				</g>
				<g id="XMLID_2215_">
					<path id="XMLID_2218_" class="st10" d="M415.1,162.54l6.8-3.46c0.5-0.25,0.9-0.05,0.9,0.46l0,6.74c0,0.5-0.4,1.11-0.9,1.36
						l-6.79,3.38c-0.5,0.25-0.9,0.04-0.9-0.46v-6.65C414.2,163.41,414.6,162.8,415.1,162.54z"/>
					<g id="XMLID_2216_">
						<path id="XMLID_2217_" class="st4" d="M421.02,166.68c-0.23,0.11-0.44,0.12-0.59,0.03l-2.1-1.4c-0.28-0.19-0.25-0.7,0.08-1.16
							c0.32-0.45,0.82-0.66,1.1-0.48l1.47,0.98l4.07-7.71c0.25-0.48,0.74-0.8,1.09-0.72c0.35,0.08,0.42,0.54,0.17,1.02l-4.65,8.8
							c-0.14,0.27-0.36,0.5-0.6,0.63C421.04,166.67,421.03,166.67,421.02,166.68z"/>
					</g>
				</g>
				<g id="XMLID_2219_">
					<path id="XMLID_2222_" class="st10" d="M415.1,177.27l6.8-3.46c0.5-0.25,0.9-0.05,0.9,0.46l0,6.74c0,0.5-0.4,1.11-0.9,1.36
						l-6.79,3.38c-0.5,0.25-0.9,0.04-0.9-0.46v-6.65C414.2,178.14,414.6,177.53,415.1,177.27z"/>
					<g id="XMLID_2220_">
						<path id="XMLID_2221_" class="st4" d="M421.02,181.41c-0.23,0.11-0.44,0.12-0.59,0.03l-2.1-1.4c-0.28-0.19-0.25-0.7,0.08-1.16
							c0.32-0.45,0.82-0.66,1.1-0.48l1.47,0.98l4.07-7.71c0.25-0.48,0.74-0.8,1.09-0.72c0.35,0.08,0.42,0.54,0.17,1.02l-4.65,8.8
							c-0.14,0.27-0.36,0.5-0.6,0.63C421.04,181.4,421.03,181.41,421.02,181.41z"/>
					</g>
				</g>
				<path id="XMLID_2210_" class="st3" d="M431.22,126.84c0,0.82,0.8,1.07,1.79,0.56l25.87-13.16c0.99-0.5,1.79-1.57,1.79-2.39
					s-0.8-1.07-1.79-0.56l-25.87,13.16C432.02,124.95,431.22,126.02,431.22,126.84z"/>
				<path id="XMLID_2225_" class="st8" d="M431.22,131.79c0,0.82,0.8,1.07,1.79,0.56l55.33-28.11c0.99-0.5,1.79-1.57,1.79-2.39
					c0-0.82-0.8-1.07-1.79-0.56l-55.33,28.11C432.02,129.9,431.22,130.97,431.22,131.79z"/>
				<path id="XMLID_2227_" class="st3" d="M431.22,141.21c0,0.82,0.8,1.07,1.79,0.56l25.87-13.16c0.99-0.5,1.79-1.57,1.79-2.39
					s-0.8-1.07-1.79-0.56l-25.87,13.16C432.02,139.32,431.22,140.39,431.22,141.21z"/>
				<path id="XMLID_2226_" class="st8" d="M431.22,146.16c0,0.82,0.8,1.07,1.79,0.56l55.33-28.11c0.99-0.5,1.79-1.57,1.79-2.39
					s-0.8-1.07-1.79-0.56l-55.33,28.11C432.02,144.27,431.22,145.34,431.22,146.16z"/>
				<path id="XMLID_2231_" class="st3" d="M431.22,156.49c0,0.82,0.8,1.07,1.79,0.56l25.87-13.16c0.99-0.5,1.79-1.57,1.79-2.39
					c0-0.82-0.8-1.07-1.79-0.56l-25.87,13.16C432.02,154.61,431.22,155.68,431.22,156.49z"/>
				<path id="XMLID_2228_" class="st8" d="M431.22,161.45c0,0.82,0.8,1.07,1.79,0.56l55.33-28.11c0.99-0.5,1.79-1.57,1.79-2.39
					s-0.8-1.07-1.79-0.56l-55.33,28.11C432.02,159.56,431.22,160.63,431.22,161.45z"/>
				<path id="XMLID_2243_" class="st3" d="M431.22,171.78c0,0.82,0.8,1.07,1.79,0.56l25.87-13.16c0.99-0.5,1.79-1.57,1.79-2.39
					s-0.8-1.07-1.79-0.56l-25.87,13.16C432.02,169.89,431.22,170.96,431.22,171.78z"/>
				<path id="XMLID_2242_" class="st8" d="M431.22,176.73c0,0.82,0.8,1.07,1.79,0.56l55.33-28.11c0.99-0.5,1.79-1.57,1.79-2.39
					s-0.8-1.07-1.79-0.56l-55.33,28.11C432.02,174.85,431.22,175.92,431.22,176.73z"/>
			</g>
		</g>
		<g id="XMLID_30720_">
			<g id="XMLID_30731_">
				<path id="XMLID_30732_" class="st2" d="M511.7,242.03c-1.85,1.78-3.89,3.21-6.08,4.66c-0.33,0.22-0.67,0.44-0.84,0.77
					c-0.29,0.52-0.73,1.82,1.99,2.66c2.65,0.82,5.96,0.63,8.38-0.71c2.23-1.23,2.33-3.79,4.44-5.25c1.56-1.08,3.51-1.36,4.77-2.77
					c0.88-0.98,0.65-2.29,0.19-3.92c-0.5-1.77-0.73-3.11-1.4-2.97l0.11,0.81c-0.83,1.17-5.13,1.51-7.04,0.71
					C516.22,236.01,512.91,240.87,511.7,242.03z"/>
			</g>
			<g id="XMLID_30729_">
				<path id="XMLID_30730_" class="st13" d="M509.82,243.68c0,0,0-0.01,0-0.01c0.65-0.52,1.28-1.06,1.89-1.64
					c0.78-0.75,2.43-3.03,3.51-4.56c0.66-0.93,1.13-2.04,0.98-3.26c-0.15-1.22-0.53-4.36-0.53-4.36l6.81-0.42l0.79,5.89l0,0
					c0.16,1.33-1.09,2.52-3.3,4.2c-2.22,1.68-5.03,5.61-7.04,6.6c-2.01,0.99-3.44,0.95-4.3,0.45
					C507.74,246.03,507.66,245.63,509.82,243.68z"/>
			</g>
			<g id="XMLID_30727_">
				<path id="XMLID_30728_" class="st2" d="M542.3,242.57v-0.9c-0.4,1.06-2.28,5.61-5.12,7.9c-2.26,1.82-5.34,3.91-6.12,5.93
					c-0.81,2.1,4.29,2.81,6.4,2.48c2.45-0.38,5.62-1.61,7.35-3.48c1.21-1.31,1.99-2.87,2.85-3.9c0.87-1.03,2.86-2.19,3.33-3.38
					c0.26-0.66-0.05-2.1-0.41-3.31c-0.33-1.12-0.69-2.34-1.12-2.24c0,0.14,0,0.69,0,0.69c-0.52,0.51-1.96,1.01-3.58,1.07
					C544.83,243.45,542.29,243.27,542.3,242.57z"/>
			</g>
			<g id="XMLID_30725_">
				<path id="XMLID_30726_" class="st13" d="M535.14,251.16c0.7-0.55,1.4-1.09,2.04-1.6c1.98-1.6,3.5-4.3,4.37-6.15
					c0.5-1.05,0.75-2.18,0.75-3.32v-3.6h7.16v5.85v0v0v0.16l-0.04,0.02c-0.34,1.31-3.63,4.8-5.5,7.07c-1.25,1.52-3.63,3.46-6.47,3.8
					C534.77,253.7,533.39,252.96,535.14,251.16z"/>
			</g>
			<g id="XMLID_30723_">
				<path id="XMLID_30724_" class="st9" d="M548.04,144.52c5.55,10.68-0.2,48.31-0.2,48.31c0.17,1.73,2.42,5.14,3.25,12.77
					c0.99,9.01-1.55,31.65-1.55,31.65s-3.31,1.91-7.23,0.25c0,0-6.82-34.09-8.11-43.05c-1.12-7.82-3.27-26.21-3.27-26.21
					l-6.44,26.22c0,0,1.32,4.28,1.25,7.77c-0.1,5.3-2.9,28.5-2.9,28.5s-2.49,1.29-7.18,0.68c0,0-4.52-30.49-4.38-37.59
					c0.07-3.8,1.95-44.3,1.95-44.3L548.04,144.52z"/>
			</g>
			<g id="XMLID_30721_">
				<path id="XMLID_30722_" class="st11" d="M530.93,168.25l-1.8-8.73c0,0-7.62-1.39-11.08-4.26c0,0,3.63,3.98,9.01,5.28l2.02,7.64
					l-3.66,22.48L530.93,168.25z"/>
			</g>
		</g>
		<g id="XMLID_30694_">
			<g id="XMLID_30695_">
				<path id="XMLID_30789_" class="st2" d="M531.59,73.08l0.37-3.7c-1.18-0.13-2.22,0.6-2.32,1.62
					C529.54,72.03,530.41,72.96,531.59,73.08z"/>
				<path id="XMLID_30788_" class="st2" d="M531.82,73.46l3.4-2.2c-0.67-0.86-1.97-1.07-2.91-0.47
					C531.37,71.4,531.15,72.59,531.82,73.46z"/>
				<g id="XMLID_30713_">
					<path id="XMLID_30714_" class="st4" d="M535.35,105.04c0,0,8.17,0.62,9.33,1.08c-5.87,5.66,3.06,8.01,3.06,8.01l-6.11,19.27
						c3.67,4.93,6.01,8.75,7.39,13.6c-4.12,6.4-27.29,7.29-35.78,2.52c0.74-8.94,2.39-15.33,1.84-18.02
						c-2.89-10.96-2.79-13.27-2.41-15.78c0.74-4.89,6.25-9.16,9.4-10.95c0,0,2.36,0,2.94,0L535.35,105.04z"/>
				</g>
				<g id="XMLID_30711_">
					<path id="XMLID_30712_" class="st13" d="M518.73,79.12c-1.73,0.9-3.86,4.72-3.65,12.74c0.18,6.8,2.68,8.48,3.93,8.96
						c1.26,0.48,3.68,0.19,6.03-0.16v4.08c0,0-3.25,3.33-3.05,5.2c0.2,1.87,4.7,2.31,7.74,0.49c3.04-1.83,5.61-5.39,5.61-5.39
						l-0.05-9.38c0,0,1.39,1.19,3.73-0.62c1.94-1.49,2.59-4.01,1.08-5.36c-1.51-1.35-4.3-0.98-5.37,0.94
						c-0.65,1.23-2.12,1.26-2.13-0.15c-0.07-7.23-1.04-7.61-1.86-10.57C525.84,78.48,522.34,79,518.73,79.12z"/>
				</g>
				<g id="XMLID_30708_">
					<path id="XMLID_30709_" class="st2" d="M523.7,90.15c-0.03,0.49,0.38,0.91,0.92,0.93c0.54,0.02,0.99-0.36,1.02-0.85
						c0.03-0.49-0.38-0.9-0.92-0.93C524.18,89.29,523.72,89.67,523.7,90.15z"/>
				</g>
				<g id="XMLID_30706_">
					<path id="XMLID_30707_" class="st16" d="M523.44,95.92l-2.25,0.63c0.19,0.57,0.84,0.89,1.46,0.71
						C523.27,97.09,523.62,96.48,523.44,95.92z"/>
				</g>
				<g id="XMLID_30704_">
					<path id="XMLID_30705_" class="st2" d="M515.9,87.89l1.96-1.2c-0.36-0.49-1.09-0.63-1.63-0.29
						C515.69,86.73,515.54,87.39,515.9,87.89z"/>
				</g>
				<g id="XMLID_30702_">
					<path id="XMLID_30703_" class="st2" d="M526.52,88.16l-1.96-1.2c0.36-0.49,1.09-0.63,1.63-0.29
						C526.73,87,526.88,87.67,526.52,88.16z"/>
				</g>
				<g id="XMLID_30700_">
					<path id="XMLID_30701_" class="st2" d="M516.2,89.54c-0.03,0.49,0.38,0.9,0.92,0.93c0.53,0.02,0.99-0.36,1.02-0.85
						c0.03-0.49-0.38-0.9-0.92-0.93C516.68,88.67,516.22,89.05,516.2,89.54z"/>
				</g>
				<g id="XMLID_30698_">
					<polygon id="XMLID_30699_" class="st16" points="520.77,89.05 520.62,94.19 517.54,93.35 					"/>
				</g>
				<g id="XMLID_30696_">
					<path id="XMLID_30697_" class="st16" d="M525.05,100.67c2.48-0.29,7.58-1.58,8.38-3.36c0,0-0.27,1.12-1.79,2.27
						c-1.52,1.15-6.59,2.45-6.59,2.45V100.67z"/>
				</g>
				<path id="XMLID_30787_" class="st2" d="M523.84,73.16L523.84,73.16c-7.43,0-13.45,5.3-13.45,11.85v1.54h6.58
					c3.06,0,5.65-1.99,6.07-4.67h0l0.24,4.67l0,0c2.52,0,4.63-1.7,4.85-3.92l0.08-0.76l0,0c0.24,2.64,2.74,4.68,5.75,4.68h0.58
					l0.67-8.37L523.84,73.16z"/>
			</g>
		</g>
		<g id="XMLID_30692_">
			<path id="XMLID_30693_" class="st13" d="M539.32,109.29c-1.83,2.38-12.23,22.47-12.23,22.47s-15.69-0.93-22.33-1.56
				c-2.09-0.2-1.62-2.17-2.46-4.13c-0.84-1.96-1.9-1.57-1.9-1.57v2.61c0.07,1.76-3.22,2.7-4.63,3.18c-2.32,0.79-4.86,1.3-7.25,1.96
				c-0.81,0.22-1.69,0.49-2.13,1.14c-0.39,0.58-0.3,1.34,0.07,1.94c1.08,1.72,3.2,2.68,5.37,2.9c2.67,0.28,5.26-0.4,7.86-0.8
				c3.07-0.48,5.41-0.87,8.45-0.51c2.92,0.34,6.73,1.05,9.63,1.52c3.34,0.53,8.3,1.04,11.21,1.15c2.1,0.08,3.61-0.28,5.42-2.53
				c1.81-2.25,11.76-20.34,11.76-20.34c4.15-5.2,1.77-9.58-1.31-10.51C542.91,105.61,541.15,106.91,539.32,109.29z"/>
		</g>
		<path id="XMLID_30691_" class="st13" d="M475.97,89.92c0.8,0.1,1.58,0.27,2.33,0.5c1.91,0.6,3.63,1.72,4.69,3.24
			c0.47,0.67,0.68,1.69,0.57,2.47c-0.03,0.22-0.09,0.44-0.22,0.63c-0.24,0.36-0.68,0.58-1.09,0.78c-1.73,0.83-2.96,0.9-4.72,0.06
			c-1.94-0.92-3.92-1.84-6.05-2.4c-1.06-0.28-2.16-0.47-3.27-0.51c-0.72-0.03-1.14,0.25-1.75,0.56c-0.39-0.88-0.17-1.56,0.44-2.32
			c1.05-1.3,2.64-2.23,4.37-2.71C472.78,89.82,474.4,89.73,475.97,89.92z"/>
	</g>
	<g id="XMLID_1_">
		<g id="XMLID_17_">
			<ellipse id="XMLID_42_" class="st2" cx="85.27" cy="130.22" rx="10.29" ry="9.06"/>
			
				<rect id="XMLID_41_" x="60.63" y="283.6" transform="matrix(-1 -1.224647e-16 1.224647e-16 -1 128.5128 578.1246)" class="st13" width="7.25" height="10.93"/>
			<polygon id="XMLID_40_" class="st13" points="85.76,283.01 93,283.23 93.36,271.67 85.76,271.45 			"/>
			<path id="XMLID_39_" class="st4" d="M61.11,189.92c0,6.1-0.89,50.08-0.89,50.08c-0.17,1.75-2.04,4.99-1.63,11.73
				c0.55,9.15,1.74,37.34,1.74,37.34s3.52,1.81,8.07,0.14c0,0,6.39-37.45,7.69-46.52c1.13-7.92,3.06-29.42,3.06-29.42l3.93,25.85
				c0,0-1.34,4.72-0.9,10.15c0.34,4.2,3.13,30.18,3.13,30.18s3.41,2.04,8.37,0.56c0,0,3.66-37.04,3.75-40.89
				c0.1-4.39-2.41-49.19-2.41-49.19H61.11z"/>
			<path id="XMLID_38_" class="st12" d="M94,152.81c4.25,3.08,11.92,9.32,11.92,9.32l-11.97,5.81l-7.6-17.99
				C86.35,149.94,89.33,149.42,94,152.81z"/>
			<path id="XMLID_37_" class="st11" d="M94,152.81c4.25,3.08,11.92,9.32,11.92,9.32l-11.97,5.81l-7.6-17.99
				C86.35,149.94,89.33,149.42,94,152.81z"/>
			<path id="XMLID_36_" class="st9" d="M63.57,154.33c0,0-2.71,2.39-2.71,8.18v12.51l-0.21,23.62c10.4,4.83,23.53,5.11,34.63-2.03
				c0,0-0.53-30.36-0.53-35.34c0-4.97-3.15-11.44-11.8-11.88l-11.18,2.29L63.57,154.33z"/>
			<g id="XMLID_21_">
				<g id="XMLID_29_">
					<path id="XMLID_35_" class="st2" d="M67.49,136.66c0,0,1.67,6.9,2.34,8.03c0.67,1.13,2.05,1.46,2.05,1.46l-0.12-4.85
						L67.49,136.66z"/>
					<path id="XMLID_34_" class="st2" d="M69.58,126.78c0,0-1.8-0.27-3.19,0.99c-1.37,1.24-0.61,5.11,1.1,8.9l3.14,0.32
						L69.58,126.78z"/>
					<path id="XMLID_33_" class="st13" d="M71.57,136.98c-0.63,0.33-1.53-0.73-2.3-1.45c-0.78-0.72-3.31-1.69-4.58,0.65
						c-1.29,2.39,1.12,5.55,3.11,6.11c3.44,0.95,3.96-0.99,3.96-0.99l0.26,10.93c0,0,2.96,4.31,10.59,5.36
						c3.9,0.54,4.84-2.81,0.6-5.65l-0.01-3.33c0,0,3.12,0.42,4.64,0.21c2.53-0.34,4.12-2.1,4.89-4.52c1.23-3.87,1.7-7,0.65-14.62
						c-1.15-8.35-12.17-8.44-18.12-5.14C69.3,127.85,71.57,136.98,71.57,136.98z"/>
					<path id="XMLID_32_" class="st2" d="M71.57,137.92c-0.32,0.01-1.52-1.76-2.3-2.38c-1.09-0.87,0.31-8.76,0.31-8.76
						s-1.04-1.96,1.05-3.99c1.49-1.44,3.97-1.6,8.22-2.19c2.23-0.31,5.6-0.86,7.83-1.22c2.66-0.44,4.85-0.9,6.73,0.54
						c1.46,1.12,2.09,3.09,1.3,4.65c-0.18,0.37-0.45,0.69-0.75,0.99c-0.54,0.53-1.15,0.94-1.91,1.16c0,0-1.16,0.91-5.19,1.34
						c-4.03,0.43-10.3-0.08-11.16-0.19c-1.17-0.14-1.42,0.86-2.05,3.58C73.09,133.84,72.63,137.9,71.57,137.92z"/>
					<path id="XMLID_31_" class="st2" d="M69.58,127.39l-3.81-1.8c0.54-0.96,1.83-1.34,2.88-0.84
						C69.71,125.25,70.12,126.43,69.58,127.39z"/>
					<path id="XMLID_30_" class="st16" d="M83.19,148.62c0,0-5.65-1-7.62-1.93c-1.32-0.62-2.41-1.69-2.73-2.38
						c0,0,0.37,1.48,1.55,2.81c1.44,1.63,8.8,2.82,8.8,2.82L83.19,148.62z"/>
				</g>
				<g id="XMLID_22_">
					<path id="XMLID_28_" class="st2" d="M81.84,135.74c0,0.57-0.51,1.03-1.13,1.03c-0.62,0-1.13-0.47-1.13-1.04
						c0-0.57,0.51-1.03,1.13-1.03C81.33,134.7,81.84,135.17,81.84,135.74z"/>
					<path id="XMLID_27_" class="st2" d="M80.64,131.98l-2.42,1.18c-0.36-0.61-0.1-1.37,0.56-1.7
						C79.45,131.13,80.28,131.36,80.64,131.98z"/>
					<path id="XMLID_26_" class="st16" d="M82.68,142.63l2.58,0.85c-0.26,0.65-1.04,0.99-1.75,0.75
						C82.8,144,82.43,143.28,82.68,142.63z"/>
					<path id="XMLID_25_" class="st2" d="M91.93,132.81l-2.21-1.5c0.45-0.56,1.31-0.67,1.92-0.26
						C92.25,131.46,92.38,132.25,91.93,132.81z"/>
					<path id="XMLID_24_" class="st2" d="M91.25,135.46c0,0.57-0.51,1.03-1.13,1.03c-0.62,0-1.13-0.47-1.13-1.04
						c0-0.57,0.51-1.03,1.13-1.03C90.74,134.42,91.25,134.88,91.25,135.46z"/>
					<polygon id="XMLID_23_" class="st16" points="85.48,134.51 85.85,140.51 89.41,139.44 					"/>
				</g>
			</g>
			<path id="XMLID_20_" class="st2" d="M67.88,291.38v-0.91c0.69,0.27,2.3,5.68,5.18,7.99c2.29,1.84,5.4,3.96,6.2,6.01
				c0.82,2.13-4.34,3.31-6.48,2.97c-2.48-0.39-6.78-1.93-7.86-3.35c-1.08-1.43-1.58-3.53-2.46-4.58c-0.88-1.05-2.9-2.21-3.37-3.42
				c-0.26-0.66,0.05-2.12,0.41-3.35c0.34-1.13,0.7-2.37,1.14-2.26c0,0.14,0,0.7,0,0.7c0.53,0.51,1.98,1.02,3.62,1.08
				C65.32,292.27,67.89,292.09,67.88,291.38z"/>
			<path id="XMLID_19_" class="st2" d="M93.07,281.26c0.38,0.01,0.68,0.48,1.51,1.27c1,0.96,2.64,1.99,4.26,2.7
				c2.71,1.2,7.99,3.04,10.38,3.99c1.49,0.59,1.42,2.18-0.12,3.08c-1.54,0.9-5.26,1.55-9.73,0.67c-2.43-0.48-5.6-2.46-7.61-2.35
				c-2.01,0.11-5.76,0.08-7.24-0.82c-1.48-0.9-0.89-2.82-0.47-4.47c0.46-1.8,1.03-4.61,1.7-4.49v0.62c0.87,1.16,5.37,1.64,7.28,0.78
				L93.07,281.26z"/>
			<path id="XMLID_18_" class="st2" d="M79.14,213.26c0,0,5.79-1.44,10.09-5.1c0,0-1.95,3.21-7.74,6.2l1.24,22.53L79.14,213.26z"/>
		</g>
		<g id="XMLID_8_">
			<path id="XMLID_16_" class="st7" d="M88.17,237.45l-0.68-0.35c-1.09-0.56-1.98-1.91-1.98-3.02l0-62.07
				c0-1.11,0.89-2.46,1.98-3.02l61-31.03c1.09-0.56,2.86-0.56,3.96,0l0.68,0.35c1.09,0.56,1.98,1.91,1.98,3.02l0,62.07
				c0,1.11-0.89,2.46-1.98,3.02l-61,31.03C91.04,238.01,89.26,238.01,88.17,237.45z"/>
			<g id="XMLID_12_">
				<path id="XMLID_15_" class="st3" d="M121.48,163.27c10.57-5.38,19.14-1.02,19.14,9.74c0,10.76-8.57,23.84-19.14,29.22
					c-10.57,5.38-19.14,1.02-19.14-9.74C102.34,181.73,110.91,168.65,121.48,163.27z"/>
				<path id="XMLID_14_" class="st9" d="M121.34,171.74c3.43-1.75,6.21-0.33,6.21,3.16c0,3.49-2.78,7.73-6.21,9.48
					c-3.43,1.74-6.21,0.33-6.21-3.16C115.13,177.73,117.91,173.48,121.34,171.74z"/>
				<path id="XMLID_13_" class="st9" d="M133.58,190.35c0-5.73-4.57-8.06-10.2-5.19l-3.52,1.79c-5.63,2.87-10.2,9.84-10.2,15.57
					v1.54c3.26,0.95,7.36,0.44,11.82-1.84c4.59-2.34,8.81-6.13,12.1-10.55V190.35z"/>
			</g>
			<path id="XMLID_11_" class="st10" d="M155.09,141.05c-0.13-0.9-0.96-1.23-1.96-0.73l-61,31.04c-0.55,0.27-1.04,0.76-1.4,1.3
				l-4.63-2.36c0.35-0.55,0.85-1.02,1.4-1.31l60.99-31.03c1.1-0.56,2.87-0.56,3.96,0l0.68,0.35
				C154.12,138.82,154.96,140,155.09,141.05z"/>
			<path id="XMLID_10_" class="st1" d="M91.79,237.59c-1.09,0.41-2.63,0.37-3.62-0.14l-0.69-0.35c-1.09-0.56-1.97-1.91-1.97-3.02
				v-62.07c0-0.56,0.22-1.18,0.58-1.72l4.63,2.36c-0.35,0.55-0.58,1.17-0.58,1.72v62.08C90.15,237.44,90.86,237.91,91.79,237.59z"/>
			<path id="XMLID_9_" class="st9" d="M100.43,221.98v0.03c0,1.76,1.41,2.48,3.14,1.6l35.8-18.22c1.73-0.88,3.14-3.03,3.14-4.79
				v-0.03c0-1.76-1.41-2.48-3.14-1.6l-35.81,18.22C101.84,218.07,100.43,220.21,100.43,221.98z"/>
		</g>
		<g id="XMLID_3_">
			<g id="XMLID_6_">
				<path id="XMLID_7_" class="st13" d="M51.95,191.71c-3.72-2.28-3.67-5.67-2.48-9.54c8.09-26.37,10.57-26.51,14.11-27.84
					l2.83,10.37l-7.56,21.6c5.66,3.54,11.49,5.95,16.92,6.99c0.96,0.19,2.92,0.08,3.77-0.35c2.3-1.14,3.61-1.14,5.97-1.7l0,3.4
					c0,0,2.75,0.41,6.35-0.19c4.89-0.8,7.03,0.09,4.04,5.02c-1.87,3.09-5.52,4.11-14.64,2.72c-2.63-0.4-6.62-1.3-9.82-2.26
					C63.1,197.46,55.97,194.17,51.95,191.71z"/>
			</g>
			<path id="XMLID_5_" class="st12" d="M63.57,154.33c0,0,3.48,1.92,4.23,6.76c0.75,4.84-4.53,17.98-4.53,17.98
				s-8.53-0.72-12.06-4.42c0,0,4.93-12.02,5.85-14.73C58.53,155.59,62.23,154.76,63.57,154.33z"/>
			<path id="XMLID_4_" class="st11" d="M63.57,154.33c0,0,3.48,1.92,4.23,6.76c0.75,4.84-4.53,17.98-4.53,17.98
				s-8.53-0.72-12.06-4.42c0,0,4.93-12.02,5.85-14.73C58.53,155.59,62.23,154.76,63.57,154.33z"/>
		</g>
		<path id="XMLID_2_" class="st13" d="M155.11,156.02l0,3.84c0,0-2.36,3.16-4.89,4.32c-2.53,1.16-2.51,5.83,0.64,6.48
			c3.15,0.66,7.48-2.77,7.85-4.65C159.07,164.13,158.27,155.82,155.11,156.02z"/>
	</g>
</g>
</svg>
