<?xml version="1.0" encoding="utf-8"?>
<!-- Generator: Adobe Illustrator 23.0.5, SVG Export Plug-In . SVG Version: 6.00 Build 0)  -->
<svg version="1.0" id="Layer_1" xmlns="http://www.w3.org/2000/svg" xmlns:xlink="http://www.w3.org/1999/xlink" x="0px" y="0px"
	 viewBox="0 0 624 320" style="enable-background:new 0 0 624 320;" xml:space="preserve">
<style type="text/css">
	.st0{opacity:0.3;fill:#35B24A;}
	.st1{fill:#EBF3FA;}
	.st2{fill:#FFB93E;}
	.st3{fill:#FFA412;}
	.st4{fill:#82B378;}
	.st5{fill:#E2810E;}
	.st6{fill:#FFB27D;}
	.st7{fill:#ED975D;}
	.st8{fill:#A9453D;}
	.st9{fill:#2C3A64;}
	.st10{fill:#2B478B;}
	.st11{fill:#233862;}
	.st12{fill:#1E3D70;}
	.st13{fill:#2A4E96;}
	.st14{opacity:0.2;fill:#ED9F4A;}
	.st15{opacity:0.6;fill:#ED9F4A;}
	.st16{fill:#F9DDBF;}
	.st17{fill:#F1A34F;}
	.st18{fill:#E5C1A1;}
	.st19{opacity:0.5;fill:#E2810E;}
	.st20{fill:#ED985F;}
	.st21{fill:#ED7D2B;}
	.st22{fill:#F99746;}
</style>
<rect x="0" class="st0" width="624" height="320"/>
<g>
	<path class="st1" d="M74.78,319.4c0,0-66.44-71.33-11.24-148.56c48.98-68.52,106.09-63.84,147.98-36.03
		c17.84,11.84,69.29,1.46,113.08-68.27c59.72-95.09,266.71-37.42,228.97,108.88c-18.26,70.79,55.59,73.37,17.96,144.13L74.78,319.4z
		"/>
	<g>
		<path class="st2" d="M388.8,243.32l5.1,0.84c0.41,0.07,0.76,0.24,1.05,0.47c0.3,0.25,0.51,0.57,0.6,0.93
			c0.03,0.11,0.05,0.22,0.05,0.33c0,0.1,0,0.2-0.02,0.31l-11.72,71.06c-0.15,0.92-1.11,1.53-2.15,1.41c-0.03,0-0.07-0.01-0.1-0.01
			l-5.1-0.84c-0.03-0.01-0.07-0.01-0.1-0.02c-1.03-0.22-1.73-1.11-1.58-2.02l11.72-71.06c0.02-0.1,0.04-0.2,0.08-0.3
			c0.04-0.1,0.09-0.2,0.15-0.3c0.2-0.31,0.51-0.54,0.87-0.69C388,243.3,388.4,243.25,388.8,243.32z"/>
		<path class="st3" d="M390.1,279.38l-6.28,38.07c-0.13,0.82-1.08,1.35-2.12,1.23c-0.03,0-0.07-0.01-0.1-0.01l-5.1-0.84
			c-0.03-0.01-0.07-0.01-0.1-0.02c-1.03-0.21-1.74-1.02-1.61-1.84l5.51-33.39C383.05,282.47,386.93,281.83,390.1,279.38z"/>
		<g>
			
				<rect x="389.45" y="248.22" transform="matrix(0.1631 -0.9866 0.9866 0.1631 76.8803 596.2094)" class="st3" width="0.82" height="9.15"/>
			
				<rect x="389" y="250.95" transform="matrix(0.1626 -0.9867 0.9867 0.1626 73.9693 598.2034)" class="st3" width="0.82" height="9.15"/>
			
				<rect x="388.46" y="254.23" transform="matrix(0.1629 -0.9866 0.9866 0.1629 70.1849 600.3248)" class="st3" width="0.82" height="9.15"/>
			
				<rect x="387.63" y="259.25" transform="matrix(0.1628 -0.9867 0.9867 0.1628 64.5568 603.7363)" class="st3" width="0.82" height="9.15"/>
			
				<rect x="386.75" y="264.57" transform="matrix(0.1628 -0.9867 0.9867 0.1628 58.5708 607.3112)" class="st3" width="0.82" height="9.15"/>
			
				<rect x="385.41" y="272.72" transform="matrix(0.1626 -0.9867 0.9867 0.1626 49.4823 612.8796)" class="st3" width="0.82" height="9.15"/>
			
				<rect x="384.15" y="280.34" transform="matrix(0.1631 -0.9866 0.9866 0.1631 40.7475 617.865)" class="st3" width="0.82" height="9.15"/>
			
				<rect x="383.02" y="287.15" transform="matrix(0.1628 -0.9867 0.9867 0.1628 33.1766 622.5512)" class="st3" width="0.82" height="9.15"/>
			
				<rect x="389.88" y="245.62" transform="matrix(0.1626 -0.9867 0.9867 0.1626 79.9659 594.5982)" class="st3" width="0.82" height="9.15"/>
			
				<rect x="390.16" y="243.9" transform="matrix(0.1628 -0.9867 0.9867 0.1628 81.8231 593.3699)" class="st3" width="0.82" height="9.15"/>
			
				<rect x="390.43" y="242.24" transform="matrix(0.1626 -0.9867 0.9867 0.1626 83.7671 592.3185)" class="st3" width="0.82" height="9.15"/>
			<path class="st3" d="M386.47,245.22l9.02,1.48l0.08-0.5c0.02-0.1,0.02-0.21,0.02-0.31l-8.96-1.47c-0.04,0.1-0.06,0.19-0.08,0.3
				L386.47,245.22z"/>
			<path class="st3" d="M386.79,244.12l8.76,1.44c-0.09-0.35-0.3-0.68-0.6-0.93l-7.29-1.2
				C387.29,243.58,386.99,243.82,386.79,244.12z"/>
		</g>
	</g>
	<g>
		<path class="st2" d="M398.05,243.32l5.1,0.84c0.41,0.07,0.76,0.24,1.05,0.47c0.3,0.25,0.51,0.57,0.6,0.93
			c0.03,0.11,0.05,0.22,0.05,0.33c0,0.1,0,0.2-0.02,0.31l-11.72,71.06c-0.15,0.92-1.11,1.53-2.15,1.41c-0.03,0-0.07-0.01-0.1-0.01
			l-5.1-0.84c-0.03-0.01-0.07-0.01-0.1-0.02c-1.03-0.22-1.73-1.11-1.58-2.02l11.72-71.06c0.02-0.1,0.04-0.2,0.08-0.3
			c0.04-0.1,0.09-0.2,0.15-0.3c0.2-0.31,0.51-0.54,0.87-0.69C397.25,243.3,397.64,243.25,398.05,243.32z"/>
		<path class="st3" d="M399.35,279.38l-6.28,38.07c-0.13,0.82-1.08,1.35-2.12,1.23c-0.03,0-0.07-0.01-0.1-0.01l-5.1-0.84
			c-0.03-0.01-0.07-0.01-0.1-0.02c-1.03-0.21-1.74-1.02-1.61-1.84l5.51-33.39C392.3,282.47,396.18,281.83,399.35,279.38z"/>
		<g>
			
				<rect x="398.69" y="248.22" transform="matrix(0.1631 -0.9866 0.9866 0.1631 84.6179 605.3308)" class="st3" width="0.82" height="9.15"/>
			
				<rect x="398.24" y="250.95" transform="matrix(0.1626 -0.9867 0.9867 0.1626 81.7207 607.3339)" class="st3" width="0.82" height="9.15"/>
			
				<rect x="397.7" y="254.23" transform="matrix(0.1629 -0.9866 0.9866 0.1629 77.9243 609.4465)" class="st3" width="0.82" height="9.15"/>
			
				<rect x="396.87" y="259.25" transform="matrix(0.1628 -0.9867 0.9867 0.1628 72.2876 612.8495)" class="st3" width="0.82" height="9.15"/>
			
				<rect x="395.99" y="264.57" transform="matrix(0.1628 -0.9867 0.9867 0.1628 66.3107 616.433)" class="st3" width="0.82" height="9.15"/>
			
				<rect x="394.65" y="272.72" transform="matrix(0.1629 -0.9866 0.9866 0.1629 57.1325 621.9119)" class="st3" width="0.82" height="9.15"/>
			
				<rect x="393.39" y="280.34" transform="matrix(0.1628 -0.9867 0.9867 0.1628 48.5669 627.0688)" class="st3" width="0.82" height="9.15"/>
			
				<rect x="392.27" y="287.15" transform="matrix(0.1628 -0.9867 0.9867 0.1628 40.9077 631.6637)" class="st3" width="0.82" height="9.15"/>
			
				<rect x="399.12" y="245.62" transform="matrix(0.1629 -0.9866 0.9866 0.1629 87.6137 603.6373)" class="st3" width="0.82" height="9.15"/>
			
				<rect x="399.41" y="243.9" transform="matrix(0.1626 -0.9867 0.9867 0.1626 89.657 602.5741)" class="st3" width="0.82" height="9.15"/>
			
				<rect x="399.68" y="242.24" transform="matrix(0.1626 -0.9867 0.9867 0.1626 91.5089 601.4406)" class="st3" width="0.82" height="9.15"/>
			<path class="st3" d="M395.72,245.22l9.02,1.48l0.08-0.5c0.02-0.1,0.02-0.21,0.02-0.31l-8.96-1.47c-0.04,0.1-0.06,0.19-0.08,0.3
				L395.72,245.22z"/>
			<path class="st3" d="M396.03,244.12l8.76,1.44c-0.09-0.35-0.3-0.68-0.6-0.93l-7.29-1.2
				C396.54,243.58,396.23,243.82,396.03,244.12z"/>
		</g>
	</g>
	<g>
		<g>
			<path class="st2" d="M364.24,311.54l-0.01,5.16c0,0.41-0.11,0.79-0.3,1.11c-0.2,0.33-0.48,0.6-0.82,0.74
				c-0.1,0.05-0.21,0.08-0.32,0.1c-0.1,0.02-0.2,0.03-0.31,0.03l-72.02-0.17c-0.93,0-1.69-0.84-1.74-1.89c0-0.03,0-0.07,0-0.1
				l0.01-5.16c0-0.03,0-0.07,0-0.1c0.05-1.05,0.82-1.89,1.74-1.88l72.02,0.17c0.1,0,0.21,0.01,0.31,0.03
				c0.11,0.02,0.22,0.06,0.32,0.1c0.33,0.15,0.62,0.41,0.82,0.75C364.13,310.75,364.24,311.13,364.24,311.54z"/>
			<path class="st3" d="M328.86,318.61l-38.58-0.09c-0.83,0-1.51-0.84-1.55-1.89c0-0.03,0-0.07,0-0.1l0.01-5.16c0-0.03,0-0.07,0-0.1
				c0.04-1.05,0.73-1.89,1.56-1.88l33.85,0.08C324.67,312.15,325.92,315.87,328.86,318.61z"/>
			<g>
				
					<rect x="350.49" y="313.69" transform="matrix(2.370747e-03 -1 1 2.370747e-03 40.1168 668.414)" class="st3" width="9.15" height="0.82"/>
				
					<rect x="347.72" y="313.69" transform="matrix(2.370747e-03 -1 1 2.370747e-03 37.3591 665.6365)" class="st3" width="9.15" height="0.82"/>
				
					<rect x="344.39" y="313.68" transform="matrix(2.640148e-03 -1 1 2.640148e-03 33.9583 662.2211)" class="st3" width="9.15" height="0.82"/>
				
					<rect x="339.3" y="313.67" transform="matrix(2.343807e-03 -1 1 2.343807e-03 28.9926 657.2095)" class="st3" width="9.15" height="0.82"/>
				
					<rect x="333.91" y="313.65" transform="matrix(2.370747e-03 -1 1 2.370747e-03 23.6232 651.8026)" class="st3" width="9.15" height="0.82"/>
				
					<rect x="325.66" y="313.63" transform="matrix(2.370747e-03 -1 1 2.370747e-03 15.4058 643.5265)" class="st3" width="9.15" height="0.82"/>
				
					<rect x="317.93" y="313.61" transform="matrix(2.370108e-03 -1 1 2.370108e-03 7.7121 635.778)" class="st3" width="9.15" height="0.82"/>
				
					<rect x="311.02" y="313.6" transform="matrix(2.613208e-03 -1 1 2.613208e-03 0.7654 628.7821)" class="st3" width="9.15" height="0.82"/>
				
					<rect x="353.12" y="313.7" transform="matrix(2.370108e-03 -1 1 2.370108e-03 42.7419 671.0579)" class="st3" width="9.15" height="0.82"/>
				
					<rect x="354.87" y="313.7" transform="matrix(2.101345e-03 -1 1 2.101345e-03 44.5725 672.889)" class="st3" width="9.15" height="0.82"/>
				
					<rect x="356.55" y="313.71" transform="matrix(2.370747e-03 -1 1 2.370747e-03 46.1504 674.4907)" class="st3" width="9.15" height="0.82"/>
				<path class="st3" d="M361.99,309.54l-0.02,9.15l0.51,0c0.11,0,0.21-0.01,0.31-0.03l0.02-9.08c-0.1-0.02-0.2-0.03-0.31-0.03
					L361.99,309.54z"/>
				<path class="st3" d="M363.12,309.68l-0.02,8.88c0.33-0.15,0.62-0.41,0.82-0.74l0.01-7.39
					C363.74,310.09,363.46,309.83,363.12,309.68z"/>
			</g>
		</g>
		<g>
			<path class="st2" d="M356.55,302.38l-0.01,5.16c0,0.41-0.11,0.79-0.3,1.11c-0.2,0.33-0.48,0.6-0.82,0.74
				c-0.1,0.05-0.21,0.08-0.32,0.1c-0.1,0.02-0.2,0.03-0.31,0.03l-72.02-0.17c-0.93,0-1.69-0.84-1.74-1.89c0-0.03,0-0.07,0-0.1
				l0.01-5.16c0-0.03,0-0.07,0-0.1c0.05-1.05,0.82-1.89,1.74-1.88l72.02,0.17c0.05,0,0.09,0,0.14,0.01c0.02,0,0.04,0,0.06,0.01
				c0.02,0,0.04,0.01,0.06,0.01c0.02,0,0.03,0.01,0.05,0.01c0.11,0.02,0.22,0.06,0.32,0.1c0.02,0.01,0.03,0.01,0.05,0.02
				c0.01,0.01,0.03,0.01,0.04,0.02c0.03,0.02,0.06,0.03,0.09,0.05c0.02,0.01,0.03,0.02,0.05,0.03c0.02,0.01,0.03,0.02,0.04,0.03
				c0.03,0.02,0.05,0.04,0.08,0.06c0.03,0.02,0.06,0.05,0.09,0.08c0.02,0.02,0.05,0.04,0.07,0.06c0,0,0,0,0,0
				c0.01,0.01,0.03,0.03,0.04,0.05c0.04,0.05,0.09,0.1,0.13,0.15c0.01,0.02,0.02,0.03,0.03,0.05c0.01,0.02,0.02,0.03,0.03,0.05
				c0.02,0.03,0.04,0.07,0.06,0.1C356.44,301.58,356.55,301.96,356.55,302.38z"/>
			<path class="st3" d="M321.17,309.45l-38.58-0.09c-0.83,0-1.51-0.84-1.55-1.89c0-0.03,0-0.07,0-0.1l0.01-5.16c0-0.03,0-0.07,0-0.1
				c0.04-1.05,0.73-1.89,1.56-1.88l33.85,0.08c0.02,0.07,0.03,0.15,0.05,0.23C317.06,303.19,318.32,306.79,321.17,309.45z"/>
			<g>
				
					<rect x="342.8" y="304.53" transform="matrix(2.343175e-03 -1 1 2.343175e-03 41.6247 651.5963)" class="st3" width="9.15" height="0.82"/>
				
					<rect x="340.03" y="304.52" transform="matrix(2.343807e-03 -1 1 2.343807e-03 38.8668 648.8188)" class="st3" width="9.15" height="0.82"/>
				
					<rect x="336.71" y="304.51" transform="matrix(2.370747e-03 -1 1 2.370747e-03 35.5506 645.48)" class="st3" width="9.15" height="0.82"/>
				
					<rect x="331.62" y="304.5" transform="matrix(2.370747e-03 -1 1 2.370747e-03 30.4816 640.3749)" class="st3" width="9.15" height="0.82"/>
				
					<rect x="326.23" y="304.49" transform="matrix(2.100779e-03 -1 1 2.100779e-03 25.2106 635.0591)" class="st3" width="9.15" height="0.82"/>
				
					<rect x="317.97" y="304.47" transform="matrix(2.613912e-03 -1 1 2.613912e-03 16.826 626.6262)" class="st3" width="9.15" height="0.82"/>
				
					<rect x="310.24" y="304.45" transform="matrix(2.370747e-03 -1 1 2.370747e-03 9.2104 618.9517)" class="st3" width="9.15" height="0.82"/>
				
					<rect x="303.34" y="304.43" transform="matrix(2.100779e-03 -1 1 2.100779e-03 2.423 612.1149)" class="st3" width="9.15" height="0.82"/>
				
					<rect x="345.44" y="304.53" transform="matrix(2.343807e-03 -1 1 2.343807e-03 44.2495 654.24)" class="st3" width="9.15" height="0.82"/>
				
					<rect x="347.18" y="304.54" transform="matrix(2.371386e-03 -1 1 2.371386e-03 45.974 655.978)" class="st3" width="9.15" height="0.82"/>
				
					<rect x="348.86" y="304.54" transform="matrix(2.370747e-03 -1 1 2.370747e-03 47.6487 657.6649)" class="st3" width="9.15" height="0.82"/>
				<path class="st3" d="M354.3,300.38l-0.02,9.15l0.51,0c0.1,0,0.21-0.01,0.31-0.03l0.02-9.08c-0.1-0.02-0.2-0.03-0.31-0.03
					L354.3,300.38z"/>
				<path class="st3" d="M355.44,300.52l-0.02,8.88c0.33-0.15,0.62-0.41,0.82-0.74l0.01-7.39
					C356.06,300.93,355.77,300.67,355.44,300.52z"/>
			</g>
		</g>
		<path class="st2" d="M360.29,293.47l-0.01,5.16c0,0.41-0.11,0.79-0.3,1.11c-0.2,0.33-0.48,0.6-0.82,0.74
			c-0.1,0.05-0.21,0.08-0.32,0.1c-0.1,0.02-0.2,0.03-0.31,0.03l-72.02-0.17c-0.29,0-0.56-0.08-0.8-0.23
			c-0.51-0.31-0.87-0.89-0.93-1.58c0-0.03,0-0.06-0.01-0.09c0-0.03,0-0.07,0-0.1l0.01-5.16c0-0.03,0-0.07,0-0.1
			c0.05-1.05,0.82-1.89,1.74-1.88l72.02,0.17c0.11,0,0.21,0.01,0.31,0.03c0.11,0.02,0.22,0.06,0.32,0.1
			c0.33,0.15,0.62,0.41,0.82,0.75C360.18,292.67,360.29,293.05,360.29,293.47z"/>
		<path class="st3" d="M324.91,300.54l-38.58-0.09c-0.26,0-0.5-0.08-0.72-0.23c-0.46-0.31-0.78-0.89-0.83-1.58
			c0-0.03,0-0.06-0.01-0.09c0-0.03,0-0.07,0-0.1l0.01-5.16c0-0.03,0-0.07,0-0.1c0.04-1.05,0.73-1.89,1.56-1.88l33.85,0.08
			c0.52,2.62,1.72,6.22,4.49,8.93C324.75,300.39,324.83,300.46,324.91,300.54z"/>
		<path class="st2" d="M362.03,284.32l-0.01,5.16c0,0.41-0.11,0.79-0.3,1.11c-0.2,0.33-0.48,0.6-0.82,0.74
			c-0.1,0.05-0.21,0.08-0.32,0.1c-0.1,0.02-0.2,0.03-0.31,0.03l-72.02-0.17c-0.93,0-1.69-0.84-1.74-1.89c0-0.03,0-0.07,0-0.1
			l0.01-5.16c0-0.03,0-0.07,0-0.1c0.04-0.97,0.7-1.76,1.54-1.87c0.07-0.01,0.14-0.01,0.21-0.01l72.02,0.17
			c0.11,0,0.21,0.01,0.31,0.03c0.11,0.02,0.22,0.06,0.32,0.1c0.33,0.15,0.62,0.41,0.82,0.75
			C361.92,283.53,362.03,283.91,362.03,284.32z"/>
		<path class="st3" d="M326.65,291.4l-38.58-0.09c-0.83,0-1.51-0.84-1.55-1.89c0-0.03,0-0.07,0-0.1l0.01-5.16c0-0.03,0-0.07,0-0.1
			c0.04-0.97,0.63-1.76,1.37-1.87c0.06-0.01,0.12-0.01,0.18-0.01l33.85,0.08c0,0,0,0.01,0,0.01
			C322.47,284.94,323.72,288.66,326.65,291.4z"/>
		<path class="st2" d="M356.75,275.18l-0.01,5.16c0,0.41-0.11,0.79-0.3,1.11c-0.2,0.33-0.48,0.6-0.82,0.74
			c-0.1,0.05-0.21,0.08-0.32,0.1c-0.03,0.01-0.07,0.01-0.1,0.02c-0.02,0-0.04,0-0.06,0.01c-0.02,0-0.04,0-0.06,0
			c-0.03,0-0.06,0-0.09,0l-72.02-0.17c-0.93,0-1.69-0.84-1.74-1.89c0-0.03,0-0.07,0-0.1l0.01-5.16c0-0.03,0-0.07,0-0.1
			c0-0.03,0-0.06,0-0.08c0.07-0.84,0.61-1.54,1.31-1.74c0.02-0.01,0.04-0.01,0.05-0.01c0.12-0.03,0.25-0.05,0.38-0.05l72.02,0.17
			c0.05,0,0.11,0,0.16,0.01c0.02,0,0.05,0.01,0.07,0.01h0c0.03,0,0.05,0.01,0.08,0.02c0.11,0.02,0.22,0.06,0.32,0.1
			c0.33,0.15,0.62,0.41,0.82,0.75C356.64,274.39,356.75,274.77,356.75,275.18z"/>
		<path class="st3" d="M321.37,282.25l-38.58-0.09c-0.83,0-1.51-0.84-1.55-1.89c0-0.03,0-0.07,0-0.1l0.01-5.16c0-0.03,0-0.07,0-0.1
			c0-0.03,0-0.06,0-0.08c0.06-0.86,0.56-1.57,1.21-1.75c0.02-0.01,0.04-0.01,0.07-0.02c0.09-0.02,0.18-0.03,0.28-0.03l33.85,0.08
			c0,0.02,0.01,0.04,0.01,0.07c0.54,2.68,1.79,6.36,4.69,9.08C321.36,282.24,321.37,282.25,321.37,282.25z"/>
		<path class="st2" d="M356.62,266.1l-0.01,5.16c0,0.41-0.11,0.79-0.3,1.11c-0.2,0.33-0.48,0.6-0.82,0.74
			c-0.08,0.04-0.16,0.06-0.25,0.09h0c-0.02,0.01-0.05,0.01-0.07,0.02c-0.1,0.02-0.2,0.03-0.31,0.03l-72.02-0.17
			c-0.08,0-0.15-0.01-0.23-0.02c-0.03,0-0.06-0.01-0.09-0.02c-0.78-0.16-1.39-0.93-1.43-1.86c0-0.03,0-0.07,0-0.1l0.01-5.16
			c0-0.03,0-0.07,0-0.1c0.05-1.05,0.82-1.89,1.74-1.88l72.02,0.17c0.05,0,0.09,0,0.14,0.01c0.02,0,0.04,0,0.06,0.01
			c0.02,0,0.04,0.01,0.06,0.01c0.02,0,0.03,0.01,0.05,0.01c0.11,0.02,0.22,0.06,0.32,0.1c0.02,0.01,0.03,0.01,0.05,0.02
			c0.01,0.01,0.03,0.01,0.04,0.02c0.03,0.02,0.06,0.03,0.09,0.05c0.03,0.02,0.06,0.04,0.09,0.06c0.03,0.02,0.05,0.04,0.08,0.06
			c0.03,0.02,0.06,0.05,0.09,0.08c0.02,0.02,0.05,0.04,0.07,0.06c0,0,0,0,0,0c0.01,0.01,0.03,0.03,0.04,0.05
			c0.04,0.05,0.09,0.1,0.13,0.15c0.01,0.02,0.02,0.03,0.03,0.05c0.01,0.02,0.02,0.03,0.03,0.05c0.02,0.03,0.04,0.07,0.06,0.1
			C356.51,265.31,356.62,265.69,356.62,266.1z"/>
		<path class="st3" d="M321.24,273.17l-38.58-0.09c-0.03,0-0.06,0-0.09,0c-0.03,0-0.07-0.01-0.1-0.01
			c-0.74-0.12-1.32-0.91-1.36-1.88c0-0.03,0-0.07,0-0.1l0.01-5.16c0-0.03,0-0.07,0-0.1c0.04-1.05,0.73-1.89,1.56-1.88l33.85,0.08
			c0.02,0.07,0.03,0.15,0.05,0.23c0.56,2.65,1.8,6.21,4.61,8.87C321.19,273.13,321.22,273.15,321.24,273.17z"/>
		<path class="st2" d="M360.36,257.19l-0.01,5.16c0,0.41-0.11,0.79-0.3,1.11c-0.2,0.33-0.48,0.6-0.82,0.74
			c-0.1,0.05-0.21,0.08-0.32,0.1c-0.1,0.02-0.2,0.03-0.31,0.03l-72.02-0.17c-0.29,0-0.56-0.08-0.8-0.23
			c-0.51-0.31-0.87-0.89-0.93-1.58c0-0.03,0-0.06-0.01-0.09c0-0.03,0-0.07,0-0.1l0.01-5.16c0-0.03,0-0.07,0-0.1
			c0.05-1.05,0.82-1.89,1.74-1.88l72.02,0.17c0.11,0,0.21,0.01,0.31,0.03c0.11,0.02,0.22,0.06,0.32,0.1
			c0.33,0.15,0.62,0.41,0.82,0.75C360.25,256.39,360.36,256.78,360.36,257.19z"/>
		<path class="st3" d="M324.98,264.26l-38.58-0.09c-0.26,0-0.5-0.08-0.72-0.23c-0.46-0.31-0.78-0.89-0.83-1.58
			c0-0.03,0-0.06-0.01-0.09c0-0.03,0-0.07,0-0.1l0.01-5.16c0-0.03,0-0.07,0-0.1c0.04-1.05,0.73-1.89,1.56-1.88l33.85,0.08
			c0.52,2.62,1.72,6.22,4.49,8.93C324.82,264.11,324.9,264.18,324.98,264.26z"/>
		<path class="st2" d="M366.26,248.06l-0.01,5.16c0,0.41-0.11,0.79-0.3,1.11c-0.2,0.33-0.48,0.6-0.82,0.74
			c-0.1,0.05-0.21,0.08-0.32,0.1c-0.1,0.02-0.2,0.03-0.31,0.03l-72.02-0.17c-0.93,0-1.69-0.84-1.74-1.89c0-0.03,0-0.07,0-0.1
			l0.01-5.16c0-0.03,0-0.07,0-0.1c0.05-0.97,0.7-1.76,1.54-1.87c0.07-0.01,0.14-0.01,0.21-0.01l72.02,0.17
			c0.11,0,0.21,0.01,0.31,0.03c0.11,0.02,0.22,0.06,0.32,0.1c0.33,0.15,0.62,0.41,0.82,0.75
			C366.15,247.26,366.26,247.65,366.26,248.06z"/>
		<path class="st3" d="M330.88,255.13l-38.58-0.09c-0.83,0-1.51-0.84-1.55-1.89c0-0.03,0-0.07,0-0.1l0.01-5.16c0-0.03,0-0.07,0-0.1
			c0.04-0.97,0.63-1.76,1.37-1.87c0.06-0.01,0.12-0.01,0.18-0.01l33.85,0.08c0,0,0,0.01,0,0.01
			C326.7,248.68,327.95,252.4,330.88,255.13z"/>
		<path class="st2" d="M356.82,238.9l-0.01,5.16c0,0.41-0.11,0.79-0.3,1.11c-0.2,0.33-0.48,0.6-0.82,0.74
			c-0.1,0.05-0.21,0.08-0.32,0.1c-0.03,0.01-0.07,0.01-0.1,0.02c-0.03,0-0.05,0.01-0.08,0.01c-0.01,0-0.03,0-0.04,0
			c-0.03,0-0.06,0-0.08,0l-72.02-0.17c-0.93,0-1.69-0.84-1.74-1.89c0-0.03,0-0.07,0-0.1l0.01-5.16c0-0.03,0-0.07,0-0.1
			c0.05-1.05,0.82-1.89,1.74-1.88l72.02,0.17c0.03,0,0.06,0,0.09,0c0.07,0,0.14,0.01,0.21,0.03c0.11,0.02,0.22,0.06,0.32,0.1
			c0.05,0.02,0.1,0.05,0.15,0.08c0.03,0.02,0.06,0.04,0.09,0.06c0,0,0.01,0,0.01,0.01c0.03,0.02,0.06,0.04,0.09,0.06
			c0.01,0,0.01,0.01,0.01,0.01c0.03,0.02,0.05,0.04,0.08,0.07c0.06,0.05,0.12,0.11,0.17,0.17c0.02,0.02,0.03,0.04,0.05,0.06
			c0,0,0.01,0.01,0.01,0.01c0.01,0.01,0.02,0.02,0.03,0.04c0,0,0,0.01,0.01,0.01c0.02,0.02,0.03,0.05,0.05,0.07
			c0.02,0.04,0.05,0.07,0.07,0.11C356.71,238.11,356.82,238.49,356.82,238.9z"/>
		<path class="st3" d="M321.44,245.97l-38.58-0.09c-0.83,0-1.51-0.84-1.55-1.89c0-0.03,0-0.07,0-0.1l0.01-5.16c0-0.03,0-0.07,0-0.1
			c0.04-1.05,0.73-1.89,1.56-1.88l33.85,0.08c0.01,0.07,0.03,0.14,0.04,0.21c0.56,2.67,1.82,6.27,4.66,8.93
			C321.43,245.96,321.44,245.97,321.44,245.97z"/>
		<path class="st2" d="M362.13,229.98l-0.01,5.16c0,0.41-0.11,0.79-0.3,1.11c-0.2,0.33-0.48,0.6-0.82,0.74
			c-0.1,0.05-0.21,0.08-0.32,0.1c-0.1,0.02-0.2,0.03-0.31,0.03l-72.02-0.17c-0.28,0-0.54-0.08-0.78-0.21c-0.52-0.3-0.9-0.9-0.95-1.6
			c0-0.03,0-0.05,0-0.08c0-0.03,0-0.07,0-0.1l0.01-5.16c0-0.03,0-0.07,0-0.1c0.05-0.97,0.7-1.76,1.54-1.87
			c0.07-0.01,0.14-0.01,0.21-0.01l72.02,0.17c0.1,0,0.21,0.01,0.31,0.03c0.11,0.02,0.22,0.06,0.32,0.1
			c0.33,0.15,0.62,0.41,0.82,0.75C362.02,229.19,362.13,229.57,362.13,229.98z"/>
		<path class="st3" d="M326.75,237.05l-38.58-0.09c-0.25,0-0.49-0.08-0.69-0.21c-0.47-0.3-0.8-0.9-0.85-1.6c0-0.03,0-0.05,0-0.08
			c0-0.03,0-0.07,0-0.1l0.01-5.16c0-0.03,0-0.07,0-0.1c0.04-0.97,0.63-1.76,1.37-1.87c0.06-0.01,0.12-0.01,0.18-0.01l33.85,0.08
			c0,0,0,0.01,0,0.01c0.52,2.62,1.73,6.22,4.5,8.93C326.6,236.91,326.68,236.98,326.75,237.05z"/>
		<path class="st2" d="M356.85,220.84l-0.01,5.16c0,0.41-0.11,0.79-0.3,1.11c-0.2,0.33-0.48,0.6-0.82,0.74
			c-0.1,0.05-0.21,0.08-0.32,0.1c-0.03,0.01-0.07,0.01-0.1,0.02c-0.02,0-0.04,0-0.06,0.01c-0.02,0-0.04,0-0.06,0
			c-0.03,0-0.06,0-0.09,0l-72.02-0.17c-0.93,0-1.69-0.84-1.74-1.89c0-0.03,0-0.07,0-0.1l0.01-5.16c0-0.03,0-0.07,0-0.1
			c0.05-1.05,0.82-1.89,1.74-1.88l72.02,0.17c0.11,0,0.21,0.01,0.31,0.03c0.11,0.02,0.22,0.06,0.32,0.1
			c0.33,0.15,0.62,0.41,0.82,0.75C356.74,220.04,356.85,220.43,356.85,220.84z"/>
		<path class="st3" d="M321.47,227.91l-38.58-0.09c-0.83,0-1.51-0.84-1.55-1.89c0-0.03,0-0.07,0-0.1l0.01-5.16c0-0.03,0-0.07,0-0.1
			c0.04-1.05,0.73-1.89,1.56-1.88l33.85,0.08c0.53,2.69,1.78,6.41,4.71,9.14C321.46,227.9,321.47,227.9,321.47,227.91z"/>
		<g>
			
				<rect x="346.54" y="295.62" transform="matrix(2.371322e-03 -1 1 2.371322e-03 54.2545 646.4355)" class="st3" width="9.15" height="0.82"/>
			
				<rect x="343.77" y="295.61" transform="matrix(2.101345e-03 -1 1 2.101345e-03 51.5909 643.7382)" class="st3" width="9.15" height="0.82"/>
			
				<rect x="340.45" y="295.6" transform="matrix(2.128285e-03 -1 1 2.128285e-03 48.2736 640.3998)" class="st3" width="9.15" height="0.82"/>
			
				<rect x="335.35" y="295.59" transform="matrix(2.370683e-03 -1 1 2.370683e-03 43.1213 635.2225)" class="st3" width="9.15" height="0.82"/>
			
				<rect x="329.97" y="295.58" transform="matrix(2.370108e-03 -1 1 2.370108e-03 37.7613 629.8244)" class="st3" width="9.15" height="0.82"/>
			
				<rect x="321.71" y="295.56" transform="matrix(2.371322e-03 -1 1 2.371322e-03 29.5436 621.548)" class="st3" width="9.15" height="0.82"/>
			
				<rect x="313.98" y="295.54" transform="matrix(2.101345e-03 -1 1 2.101345e-03 21.9355 613.8792)" class="st3" width="9.15" height="0.82"/>
			
				<rect x="307.08" y="295.52" transform="matrix(2.370747e-03 -1 1 2.370747e-03 14.9798 606.8801)" class="st3" width="9.15" height="0.82"/>
			
				<rect x="349.18" y="295.62" transform="matrix(2.370747e-03 -1 1 2.370747e-03 56.8797 649.0793)" class="st3" width="9.15" height="0.82"/>
			
				<rect x="350.92" y="295.63" transform="matrix(2.101345e-03 -1 1 2.101345e-03 58.7094 650.9059)" class="st3" width="9.15" height="0.82"/>
			
				<rect x="352.6" y="295.63" transform="matrix(2.370747e-03 -1 1 2.370747e-03 60.2885 652.5124)" class="st3" width="9.15" height="0.82"/>
			<path class="st3" d="M358.04,291.47l-0.02,9.15l0.51,0c0.1,0,0.21-0.01,0.31-0.03l0.02-9.08c-0.1-0.02-0.2-0.03-0.31-0.03
				L358.04,291.47z"/>
			<path class="st3" d="M359.18,291.61l-0.02,8.88c0.33-0.15,0.62-0.41,0.82-0.74l0.01-7.39
				C359.8,292.02,359.51,291.75,359.18,291.61z"/>
			
				<rect x="323.45" y="286.42" transform="matrix(2.370747e-03 -1 1 2.370747e-03 40.4231 614.1699)" class="st3" width="9.15" height="0.82"/>
			
				<rect x="315.72" y="286.4" transform="matrix(2.343807e-03 -1 1 2.343807e-03 32.7379 606.4288)" class="st3" width="9.15" height="0.82"/>
			
				<rect x="308.82" y="286.38" transform="matrix(2.370108e-03 -1 1 2.370108e-03 25.8591 599.5022)" class="st3" width="9.15" height="0.82"/>
			<path class="st3" d="M355.89,291.46l0.02-9.15l-0.72,0c0.04,0,0.08-0.01,0.11-0.02l0.02-9.08c-0.05-0.01-0.1-0.02-0.15-0.02
				l0.02-8.86l0.32,0l-0.02,8.79c0.33-0.15,0.62-0.41,0.82-0.74l0.01-7.39c-0.16-0.28-0.39-0.5-0.65-0.65l0.29,0l0.02-9.15l-0.82,0
				l-0.02,8.94c-0.09-0.02-0.17-0.02-0.26-0.03l-0.51,0l-0.02,9.15l0.15,0l-0.02,9.08l0.51,0c0.03,0,0.06,0,0.09,0l-0.02,9.14
				L355.89,291.46z"/>
			
				<rect x="352.66" y="286.49" transform="matrix(2.370108e-03 -1 1 2.370108e-03 69.4932 643.4479)" class="st3" width="9.15" height="0.82"/>
			
				<rect x="354.34" y="286.49" transform="matrix(2.613138e-03 -1 1 2.613138e-03 71.0807 645.0645)" class="st3" width="9.15" height="0.82"/>
			<path class="st3" d="M359.78,282.33l-0.02,9.15l0.51,0c0.1,0,0.21-0.01,0.31-0.03l0.02-9.08c-0.1-0.02-0.2-0.03-0.31-0.03
				L359.78,282.33z"/>
			<path class="st3" d="M360.92,282.46l-0.02,8.88c0.33-0.15,0.62-0.41,0.82-0.74l0.01-7.39
				C361.54,282.88,361.25,282.61,360.92,282.46z"/>
			<polygon class="st3" points="347.98,282.31 347.99,273.17 347.84,273.17 347.86,264.09 347.04,264.09 347.02,273.23 
				347.17,273.23 347.16,282.3 346.36,282.3 346.34,291.44 347.16,291.44 347.18,282.31 			"/>
			<polygon class="st3" points="341.9,273.15 341.75,273.15 341.76,264.07 340.95,264.07 340.93,273.22 341.08,273.22 341.06,282.3 
				341.27,282.3 341.25,291.43 342.07,291.43 342.09,282.29 341.88,282.29 			"/>
			<path class="st3" d="M355.64,273.32l-0.02,8.88c0.33-0.15,0.62-0.41,0.82-0.74l0.01-7.39
				C356.26,273.73,355.97,273.47,355.64,273.32z"/>
			<polygon class="st3" points="336.67,264.06 335.85,264.06 335.84,273.21 335.99,273.21 335.97,282.27 335.88,282.27 
				335.86,291.42 336.68,291.42 336.7,282.29 336.79,282.29 336.81,273.14 336.66,273.14 			"/>
			<polygon class="st3" points="331.29,264.05 330.47,264.05 330.45,273.19 330.6,273.19 330.59,282.27 331.4,282.28 331.42,273.13 
				331.27,273.13 			"/>
			<polygon class="st3" points="323.03,264.03 322.21,264.03 322.19,273.17 322.35,273.17 322.33,282.25 323.15,282.26 
				323.16,273.11 323.01,273.11 			"/>
			<polygon class="st3" points="315.3,264.01 314.48,264.01 314.46,273.15 314.62,273.16 314.6,282.24 315.42,282.24 315.43,273.09 
				315.28,273.09 			"/>
			<polygon class="st3" points="308.4,263.99 307.58,263.99 307.56,273.14 307.71,273.14 307.7,282.22 308.51,282.22 308.53,273.08 
				308.38,273.08 			"/>
			<polygon class="st3" points="350.5,264.09 349.68,264.09 349.66,273.24 349.81,273.24 349.8,282.3 349.68,282.3 349.67,291.45 
				350.48,291.45 350.5,282.32 350.61,282.32 350.63,273.18 350.48,273.18 			"/>
			<polygon class="st3" points="352.24,264.1 351.58,264.1 351.6,255.18 350.78,255.18 350.76,264.32 351.42,264.32 351.4,273.24 
				351.55,273.24 351.54,282.32 352.36,282.32 352.37,273.18 352.22,273.18 			"/>
			
				<rect x="343.83" y="259.33" transform="matrix(2.370747e-03 -1 1 2.370747e-03 87.8394 607.5336)" class="st3" width="9.15" height="0.82"/>
			<polygon class="st3" points="344.67,264.08 344.27,264.08 344.25,273.23 344.4,273.23 344.39,282.31 345.21,282.31 
				345.22,273.16 345.07,273.16 345.09,264.31 345.49,264.31 345.5,255.16 344.68,255.16 			"/>
			
				<rect x="335.42" y="259.31" transform="matrix(2.640148e-03 -1 1 2.640148e-03 79.3722 599.0278)" class="st3" width="9.15" height="0.82"/>
			
				<rect x="330.03" y="259.3" transform="matrix(2.370108e-03 -1 1 2.370108e-03 74.1037 593.6998)" class="st3" width="9.15" height="0.82"/>
			
				<rect x="321.78" y="259.28" transform="matrix(2.343744e-03 -1 1 2.343744e-03 65.895 585.4305)" class="st3" width="9.15" height="0.82"/>
			
				<rect x="314.05" y="259.26" transform="matrix(2.128285e-03 -1 1 2.128285e-03 58.2695 577.7379)" class="st3" width="9.15" height="0.82"/>
			
				<rect x="307.14" y="259.25" transform="matrix(2.370108e-03 -1 1 2.370108e-03 51.3224 570.7557)" class="st3" width="9.15" height="0.82"/>
			<polygon class="st3" points="353.4,264.1 353.1,264.1 353.09,273.25 353.24,273.25 353.22,282.31 352.45,282.31 352.44,291.46 
				353.26,291.46 353.27,282.33 354.04,282.33 354.06,273.18 353.9,273.18 353.92,264.33 354.22,264.33 354.23,255.18 
				353.41,255.18 			"/>
			
				<rect x="352.67" y="259.35" transform="matrix(2.370747e-03 -1 1 2.370747e-03 96.6307 616.3878)" class="st3" width="9.15" height="0.82"/>
			<path class="st3" d="M358.91,264.31l0.02-9.08c-0.1-0.02-0.2-0.03-0.31-0.03l-0.51,0l-0.02,9.15l0.51,0
				C358.71,264.34,358.81,264.33,358.91,264.31z"/>
			<path class="st3" d="M360.05,263.46l0.01-7.39c-0.2-0.33-0.48-0.6-0.82-0.75l-0.02,8.88
				C359.56,264.06,359.85,263.8,360.05,263.46z"/>
			
				<rect x="352.51" y="250.21" transform="matrix(2.370683e-03 -1 1 2.370683e-03 105.6172 607.1034)" class="st3" width="9.15" height="0.82"/>
			
				<rect x="341.32" y="250.18" transform="matrix(2.370747e-03 -1 1 2.370747e-03 94.4838 595.8903)" class="st3" width="9.15" height="0.82"/>
			
				<rect x="335.94" y="250.17" transform="matrix(2.370108e-03 -1 1 2.370108e-03 89.1239 590.4921)" class="st3" width="9.15" height="0.82"/>
			
				<rect x="327.68" y="250.15" transform="matrix(2.371322e-03 -1 1 2.371322e-03 80.9062 582.2158)" class="st3" width="9.15" height="0.82"/>
			
				<rect x="319.95" y="250.13" transform="matrix(2.370747e-03 -1 1 2.370747e-03 73.2124 574.4671)" class="st3" width="9.15" height="0.82"/>
			
				<rect x="313.05" y="250.11" transform="matrix(2.101345e-03 -1 1 2.101345e-03 66.4277 567.6155)" class="st3" width="9.15" height="0.82"/>
			
				<rect x="355.15" y="250.21" transform="matrix(2.370108e-03 -1 1 2.370108e-03 108.2424 609.7473)" class="st3" width="9.15" height="0.82"/>
			
				<rect x="356.89" y="250.22" transform="matrix(2.370747e-03 -1 1 2.370747e-03 109.9764 611.4937)" class="st3" width="9.15" height="0.82"/>
			
				<rect x="358.57" y="250.22" transform="matrix(2.344438e-03 -1 1 2.344438e-03 111.6605 613.1867)" class="st3" width="9.15" height="0.82"/>
			<path class="st3" d="M364.01,246.06l-0.02,9.15l0.51,0c0.11,0,0.21-0.01,0.31-0.03l0.02-9.08c-0.1-0.02-0.2-0.03-0.31-0.03
				L364.01,246.06z"/>
			<path class="st3" d="M365.15,246.2l-0.02,8.88c0.33-0.15,0.62-0.41,0.82-0.74l0.01-7.39
				C365.76,246.61,365.48,246.35,365.15,246.2z"/>
			<polygon class="st3" points="347.22,246.04 348.04,246.04 348.06,236.89 347.26,236.89 347.28,227.97 348.08,227.97 
				348.09,218.83 347.27,218.83 347.26,227.96 346.46,227.95 346.44,237.1 347.24,237.1 			"/>
			
				<rect x="340.3" y="241.05" transform="matrix(2.640148e-03 -1 1 2.640148e-03 102.5036 585.6898)" class="st3" width="9.15" height="0.82"/>
			
				<rect x="326.5" y="241.02" transform="matrix(2.370683e-03 -1 1 2.370683e-03 88.8604 571.9211)" class="st3" width="9.15" height="0.82"/>
			
				<rect x="318.24" y="241" transform="matrix(2.343807e-03 -1 1 2.343807e-03 80.6517 563.6516)" class="st3" width="9.15" height="0.82"/>
			
				<rect x="310.51" y="240.98" transform="matrix(2.370747e-03 -1 1 2.370747e-03 72.9493 555.8962)" class="st3" width="9.15" height="0.82"/>
			
				<rect x="303.61" y="240.96" transform="matrix(2.343175e-03 -1 1 2.343175e-03 66.0876 548.9836)" class="st3" width="9.15" height="0.82"/>
			<polygon class="st3" points="349.86,246.04 350.59,246.04 350.57,255.18 351.39,255.18 351.41,246.03 350.68,246.03 350.7,236.9 
				350.58,236.9 350.6,227.98 350.71,227.98 350.73,218.83 349.91,218.83 349.89,227.96 349.78,227.96 349.76,237.11 349.88,237.11 
							"/>
			
				<rect x="347.45" y="241.07" transform="matrix(1.834899e-03 -1 1 1.834899e-03 109.9015 593.0526)" class="st3" width="9.15" height="0.82"/>
			<path class="st3" d="M355.85,237.12l0.14,0l0.02-9.15l-0.72,0c0.04,0,0.08-0.01,0.11-0.02l0.02-9.08
				c-0.1-0.02-0.2-0.03-0.31-0.03l-0.51,0l-0.02,9.15l0.51,0c0.03,0,0.06,0,0.09,0l-0.02,8.93c-0.03,0-0.06,0-0.09-0.01l-0.51,0
				l-0.02,9.13l-0.45,0l0.02-9.13l-0.77,0l0.02-8.92l0.77,0l0.02-9.15l-0.82,0l-0.02,9.13l-0.77,0l-0.02,9.15l0.77,0l-0.02,8.93
				l0.62,0l-0.02,9.13l0.82,0l0.02-9.13l0.34,0c0.11,0,0.21-0.01,0.31-0.03l0.02-8.9l0.32,0l-0.02,8.8
				c0.33-0.15,0.62-0.41,0.82-0.74l0.01-7.39C356.35,237.51,356.12,237.28,355.85,237.12z"/>
			
				<rect x="323.55" y="232.07" transform="matrix(2.101911e-03 -1 1 2.101911e-03 94.9517 560.1183)" class="st3" width="9.15" height="0.82"/>
			
				<rect x="315.82" y="232.06" transform="matrix(2.370747e-03 -1 1 2.370747e-03 87.1698 552.3068)" class="st3" width="9.15" height="0.82"/>
			
				<rect x="308.92" y="232.04" transform="matrix(2.370108e-03 -1 1 2.370108e-03 80.2997 545.3877)" class="st3" width="9.15" height="0.82"/>
			
				<rect x="352.76" y="232.14" transform="matrix(2.343807e-03 -1 1 2.343807e-03 123.9433 589.3396)" class="st3" width="9.15" height="0.82"/>
			
				<rect x="354.44" y="232.15" transform="matrix(2.370747e-03 -1 1 2.370747e-03 125.6082 591.0198)" class="st3" width="9.15" height="0.82"/>
			<path class="st3" d="M359.88,227.99l-0.02,9.15l0.51,0c0.1,0,0.21-0.01,0.31-0.03l0.02-9.08c-0.1-0.02-0.2-0.03-0.31-0.03
				L359.88,227.99z"/>
			<path class="st3" d="M361.82,236.26l0.01-7.39c-0.2-0.33-0.48-0.6-0.82-0.75L361,237C361.34,236.85,361.62,236.59,361.82,236.26z
				"/>
			
				<rect x="340.33" y="222.98" transform="matrix(2.370683e-03 -1 1 2.370683e-03 120.6946 567.7654)" class="st3" width="9.15" height="0.82"/>
			<polygon class="st3" points="342,218.81 341.18,218.81 341.16,227.96 341.37,227.96 341.35,236.88 341.15,236.88 341.13,246.02 
				341.95,246.02 341.97,237.09 342.17,237.09 342.18,227.94 341.98,227.94 			"/>
			<polygon class="st3" points="336.07,227.93 335.98,227.93 335.96,237.07 336.05,237.07 336.04,246.01 336.86,246.01 
				336.87,236.87 336.78,236.87 336.8,227.95 336.89,227.95 336.91,218.8 336.09,218.8 			"/>
			
				<rect x="326.53" y="222.95" transform="matrix(2.370747e-03 -1 1 2.370747e-03 106.9587 553.9314)" class="st3" width="9.15" height="0.82"/>
			
				<rect x="318.27" y="222.93" transform="matrix(2.370747e-03 -1 1 2.370747e-03 98.7414 545.6553)" class="st3" width="9.15" height="0.82"/>
			
				<rect x="310.54" y="222.91" transform="matrix(2.612574e-03 -1 1 2.612574e-03 90.9714 537.8523)" class="st3" width="9.15" height="0.82"/>
			
				<rect x="303.64" y="222.9" transform="matrix(2.100779e-03 -1 1 2.100779e-03 84.2606 531.0476)" class="st3" width="9.15" height="0.82"/>
			
				<rect x="347.48" y="223" transform="matrix(2.640148e-03 -1 1 2.640148e-03 127.7168 574.8726)" class="st3" width="9.15" height="0.82"/>
			<path class="st3" d="M355.74,218.98l-0.02,8.88c0.33-0.15,0.62-0.41,0.82-0.74l0.01-7.39
				C356.36,219.39,356.07,219.13,355.74,218.98z"/>
		</g>
	</g>
	<g>
		<path class="st2" d="M379.74,243.36l5.09,0.9c0.41,0.07,0.76,0.25,1.04,0.49c0.29,0.25,0.5,0.58,0.59,0.94
			c0.03,0.11,0.04,0.22,0.04,0.33c0,0.1,0,0.2-0.02,0.31l-12.63,70.9c-0.16,0.91-1.12,1.52-2.16,1.38c-0.03,0-0.07-0.01-0.1-0.02
			l-5.09-0.9c-0.03-0.01-0.07-0.01-0.1-0.02c-1.02-0.23-1.72-1.13-1.55-2.04l12.63-70.9c0.01-0.05,0.02-0.09,0.03-0.13
			c0-0.02,0.01-0.04,0.02-0.06c0.01-0.02,0.01-0.04,0.02-0.06c0-0.01,0.01-0.03,0.02-0.04c0.04-0.1,0.09-0.2,0.16-0.3
			c0.01-0.01,0.02-0.03,0.03-0.04c0.01-0.01,0.02-0.03,0.03-0.04c0.02-0.03,0.04-0.05,0.06-0.08c0.01-0.01,0.03-0.03,0.04-0.04
			c0.01-0.01,0.02-0.03,0.04-0.04c0.02-0.02,0.05-0.05,0.07-0.07c0.03-0.03,0.06-0.05,0.09-0.07c0.02-0.02,0.05-0.04,0.07-0.06
			c0,0,0,0,0.01,0c0.02-0.01,0.03-0.02,0.05-0.04c0.05-0.04,0.11-0.07,0.17-0.1c0.02-0.01,0.03-0.02,0.05-0.03
			c0.02-0.01,0.04-0.02,0.05-0.02c0.04-0.02,0.07-0.03,0.11-0.05C378.94,243.33,379.33,243.29,379.74,243.36z"/>
		<path class="st3" d="M380.58,279.43l-6.77,37.99c-0.15,0.82-1.09,1.34-2.13,1.2c-0.03,0-0.07-0.01-0.1-0.02l-5.09-0.9
			c-0.03-0.01-0.07-0.01-0.1-0.02c-1.02-0.23-1.73-1.04-1.59-1.86l5.94-33.32c0.08,0,0.15,0,0.23-0.01
			C373.7,282.4,377.46,281.78,380.58,279.43z"/>
		<g>
			
				<rect x="380.26" y="248.27" transform="matrix(0.1757 -0.9844 0.9844 0.1757 64.8669 583.1588)" class="st3" width="0.82" height="9.15"/>
			
				<rect x="379.77" y="251" transform="matrix(0.1752 -0.9845 0.9845 0.1752 61.9469 585.0894)" class="st3" width="0.82" height="9.15"/>
			
				<rect x="379.19" y="254.27" transform="matrix(0.1754 -0.9845 0.9845 0.1754 58.1741 587.1434)" class="st3" width="0.82" height="9.15"/>
			
				<rect x="378.3" y="259.28" transform="matrix(0.1754 -0.9845 0.9845 0.1754 52.5012 590.3983)" class="st3" width="0.82" height="9.15"/>
			
				<rect x="377.35" y="264.59" transform="matrix(0.1752 -0.9845 0.9845 0.1752 46.5731 593.9124)" class="st3" width="0.82" height="9.15"/>
			
				<rect x="375.9" y="272.71" transform="matrix(0.1755 -0.9845 0.9845 0.1755 37.2989 599.1099)" class="st3" width="0.82" height="9.15"/>
			
				<rect x="374.55" y="280.33" transform="matrix(0.1752 -0.9845 0.9845 0.1752 28.7644 604.1329)" class="st3" width="0.82" height="9.15"/>
			
				<rect x="373.34" y="287.12" transform="matrix(0.1757 -0.9844 0.9844 0.1757 20.9288 608.3831)" class="st3" width="0.82" height="9.15"/>
			
				<rect x="380.72" y="245.67" transform="matrix(0.1754 -0.9845 0.9845 0.1754 67.8993 581.5635)" class="st3" width="0.82" height="9.15"/>
			
				<rect x="381.03" y="243.96" transform="matrix(0.1755 -0.9845 0.9845 0.1755 69.8331 580.4435)" class="st3" width="0.82" height="9.15"/>
			
				<rect x="381.32" y="242.3" transform="matrix(0.1754 -0.9845 0.9845 0.1754 71.7142 579.3748)" class="st3" width="0.82" height="9.15"/>
			<path class="st3" d="M377.38,245.23l9,1.6l0.09-0.5c0.02-0.1,0.03-0.21,0.02-0.31l-8.94-1.59c-0.04,0.1-0.07,0.19-0.09,0.3
				L377.38,245.23z"/>
			<path class="st3" d="M377.71,244.14l8.74,1.55c-0.09-0.35-0.3-0.68-0.59-0.94l-7.27-1.29
				C378.22,243.6,377.92,243.83,377.71,244.14z"/>
		</g>
	</g>
	<path class="st4" d="M551.39,318.61h-30.95c-1.66-1.41,1.15-4.6,4.08-4.82c1.27-0.1,2.88,0.17,4.72,0.56
		c0.43-5.66,2.86-31.09,12.02-30.06c10.31,1.14,0,11.2-2.91,17.15c-2.16,4.41-4.43,10.73-5.48,13.72c0.84,0.18,1.7,0.36,2.59,0.52
		c1.37-4.19,6.45-18.3,12.91-17.48c7.59,0.96,4.54,6.62-0.84,9.98c-3.95,2.47-8.79,5.98-11.1,7.67c1.95,0.32,3.99,0.53,6.05,0.48
		C547.79,316.2,550.38,317.77,551.39,318.61z"/>
	<path class="st4" d="M147.84,317.58c-1.23-1.93-4.93-6.94-9.86-6.28c-5.37,0.72,5.93,4.26,9.39,6.29
		c-0.77,0.01-1.43-0.05-1.91-0.22c-2.31-0.82-6.27,0.76-7.54,1.31h22.01c-0.15-0.53-0.55-1.39-1.57-2.01
		c-0.36-0.22-1.09-0.25-2.03-0.18c1.31-1.54,2.22-6.47-1.43-5.2c-2.66,0.93-2.65,3.94-2.39,5.72c-0.57,0.09-1.14,0.18-1.71,0.26
		c-1.1-5.59-4.97-21.96-12.83-22.39c-7.97-0.44,6.75,16.98,11.66,22.55C149,317.5,148.4,317.55,147.84,317.58z"/>
	<g>
		
			<ellipse transform="matrix(0.9974 -0.0718 0.0718 0.9974 -10.3179 25.0687)" class="st5" cx="343.71" cy="156.12" rx="31.7" ry="31.7"/>
		
			<ellipse transform="matrix(0.254 -0.9672 0.9672 0.254 102.2977 447.5497)" class="st2" cx="341.28" cy="157.46" rx="31.7" ry="31.7"/>
		<g>
			<path class="st3" d="M341.51,186.66c-10.19,0-20.08-5.4-25.34-14.93c-3.72-6.76-4.59-14.56-2.45-21.97
				c2.14-7.41,7.05-13.54,13.8-17.27c6.76-3.72,14.56-4.59,21.97-2.45c7.41,2.14,13.54,7.05,17.27,13.8
				c7.69,13.95,2.6,31.55-11.35,39.24C351,185.51,346.22,186.66,341.51,186.66z M341.43,130.61c-4.52,0-9,1.14-13.07,3.39
				c-6.35,3.5-10.96,9.27-12.98,16.24c-2.02,6.97-1.2,14.31,2.3,20.66c4.94,8.97,14.25,14.04,23.83,14.04
				c4.43,0,8.92-1.08,13.07-3.37c13.12-7.23,17.9-23.78,10.67-36.9c-3.5-6.35-9.27-10.96-16.24-12.98
				C346.51,130.97,343.96,130.61,341.43,130.61z"/>
		</g>
		<g>
			<path class="st3" d="M348.99,163.21c-0.24-0.58-0.53-1.06-0.87-1.44c-0.34-0.38-0.78-0.67-1.29-0.88
				c-0.52-0.21-1.13-0.35-1.85-0.41c-0.71-0.07-1.55-0.07-2.52-0.02c-1.67,0.08-3.21,0.08-4.63,0.01c-1.42-0.08-2.7-0.31-3.85-0.7
				c-1.15-0.39-2.15-0.98-3.02-1.77c-0.87-0.79-1.58-1.87-2.13-3.22c-0.48-1.18-0.7-2.33-0.68-3.47c0.02-1.14,0.28-2.22,0.76-3.26
				c0.48-1.03,1.17-2,2.07-2.88c0.9-0.89,1.99-1.67,3.28-2.34l-1.8-4.44l3.57-1.45l1.83,4.5c1.35-0.35,2.65-0.49,3.9-0.4
				c1.25,0.09,2.41,0.39,3.47,0.91c1.06,0.52,2.02,1.26,2.86,2.21c0.85,0.95,1.55,2.12,2.11,3.51l-6.46,2.62
				c-0.67-1.66-1.55-2.75-2.62-3.28c-1.07-0.52-2.23-0.53-3.46-0.03c-0.67,0.27-1.21,0.6-1.62,0.98c-0.41,0.38-0.7,0.8-0.88,1.25
				c-0.18,0.45-0.26,0.93-0.22,1.43c0.03,0.5,0.15,1.01,0.36,1.52c0.21,0.51,0.47,0.95,0.79,1.3c0.32,0.35,0.73,0.63,1.24,0.84
				c0.51,0.2,1.13,0.34,1.86,0.41c0.73,0.07,1.61,0.08,2.64,0.05c1.66-0.05,3.2-0.03,4.62,0.06c1.41,0.09,2.7,0.33,3.85,0.72
				c1.15,0.4,2.16,0.99,3.03,1.78c0.87,0.79,1.57,1.86,2.12,3.2c0.49,1.22,0.73,2.4,0.69,3.54c-0.03,1.14-0.29,2.22-0.78,3.24
				c-0.49,1.02-1.19,1.97-2.11,2.84c-0.92,0.87-2.03,1.64-3.32,2.31l1.68,4.13l-3.55,1.44l-1.67-4.11
				c-1.29,0.38-2.59,0.59-3.91,0.65c-1.32,0.05-2.59-0.13-3.8-0.55c-1.21-0.42-2.33-1.11-3.35-2.09c-1.02-0.97-1.87-2.29-2.54-3.95
				l6.46-2.62c0.4,0.98,0.87,1.75,1.41,2.29c0.54,0.55,1.12,0.92,1.75,1.13c0.62,0.21,1.26,0.27,1.91,0.19
				c0.65-0.08,1.28-0.24,1.9-0.49c0.7-0.28,1.28-0.62,1.73-1.02c0.46-0.39,0.8-0.82,1.03-1.29c0.23-0.46,0.34-0.95,0.34-1.46
				C349.31,164.23,349.2,163.72,348.99,163.21z"/>
		</g>
	</g>
	<g>
		<path class="st6" d="M372.83,139.06c-1.33-0.94-4.33-3-4.49-2.54c-0.11,0.33,0.05,0.89,0.41,1.47c-1.82-0.68-3.67-1.13-8.03-0.29
			c-0.87,0.17-1.67,0.66-2.15,1.41c-0.45,0.69-0.61,1.56,0.5,2.25c2.23,1.39,1.58,0.56,4.68,2.57c3.1,2.02,6.89,2.53,9.16,1.12
			l3.04-0.51l0.38-5C376.32,139.56,374.59,139.36,372.83,139.06z"/>
		<path class="st6" d="M452.52,97.11c0,0-7.17,8.51-16.3,4.95c0,0-1.96-4.75-1.99-8.25c0-0.43-0.01-0.85-0.02-1.25
			c-0.05-3.94-0.18-6.16-0.18-6.16s0,0,0.01,0c0.42-0.17,13.96-5.73,13.95-5.27C447.75,91.79,452.52,97.11,452.52,97.11z"/>
		<path class="st7" d="M446.63,83.67c-1.31,2.42-5.79,7.16-12.41,8.89c-0.05-3.94-0.18-6.16-0.18-6.16s0,0,0.01,0
			C434.41,86.3,447.01,82.96,446.63,83.67z"/>
		<path class="st6" d="M431.19,85.99c0,0,15.23,3.58,17.31-5.94c2.08-9.52,5.45-15.47-4.18-18.15c-9.63-2.69-12.33,0.53-13.79,3.54
			C429.06,68.45,427.29,84.82,431.19,85.99z"/>
		<path class="st8" d="M447.99,82.65c0.21,0.13,3.48,1.14,9.69-11.22c0.97-1.94,1.64-6.14-0.63-9.85
			c-2.27-3.71-10.32-6.63-17.01-7.89c-6.69-1.27-8.3,2.49-9.87,6.28c-1.65,3.97-6.43,7.24-6.43,7.24
			c5.77,3.22,12.72-1.39,15.12-0.63c2.41,0.76,3.26,4.55,3.44,5.77c0.18,1.22,0.46,2.23,3.49,1.14c3.03-1.09,1.37,4.29,0.88,5.32
			C446.66,78.8,446.25,81.54,447.99,82.65z"/>
		<g>
			<path class="st9" d="M487.21,320h9.22c1.93,0,4.08-1.94,4.62-5.48c0.54-3.55,4.51-5.48,5.37-8.38c0.86-2.9-3.55-6.98-3.55-6.98
				l-0.74-0.95l-0.77-0.99l-7.3,1.72c0,0-0.18,1.74-0.29,3.95c-0.08,1.6-0.12,3.45-0.03,5.07c0.21,3.87-1.08,8.03-4.52,8.79
				C485.79,317.51,487.21,320,487.21,320z"/>
			<path class="st9" d="M423.02,320h24.44c0.23-0.05,0.41-0.1,0.52-0.15c1.63-0.82,1.12-7.07,0.92-9c-0.04-0.36-0.06-0.57-0.06-0.57
				s-8.59-6.87-9.78-1.61c-0.04,0.16-0.08,0.33-0.13,0.48v0c-1.49,4.93-8.16,7.16-12.01,7.79
				C423.98,317.43,423.22,319.14,423.02,320z"/>
			<path class="st10" d="M427.95,179.05c0,0,1.31,16.29,2.84,35.86c2.09,26.59,4.59,59.26,4.84,65.45
				c0.43,10.75,2.15,27.93,2.15,27.93s4.08,4.08,12.25,2.36c0,0,7.28-24.54,9.36-50.5c0.03-0.43,0.06-0.85,0.1-1.28
				c1.93-26.43,4.94-82.08,4.94-82.08L427.95,179.05z"/>
			<path class="st11" d="M427.95,179.05c0,0,1.31,16.29,2.84,35.86l28.59,45.24c0.03-0.43,0.06-0.85,0.1-1.28
				c1.93-26.43,4.94-82.08,4.94-82.08L427.95,179.05z"/>
			<path class="st10" d="M433.91,180.98c0,0,23.53,58.98,39,86.7c15.47,27.72,20.3,35.45,20.3,35.45s8.86-3.55,9.67-5.96
				c0,0-5.92-53.51-16.28-66.55c-5.85-7.37-12.73-29.49-13.05-37.23c-0.32-7.73-2.1-23.04-2.1-23.04L433.91,180.98z"/>
		</g>
		<g>
			<path class="st6" d="M487.56,170.27l0.25,3.79c0,0-2.5,6.74,4.51,10.2c0,0,3,1.21,3.12-1.13c0.12-2.34-0.26-1.46-0.02-4.75
				c0.24-3.29-1.05-6.4-3.23-7.44l-1.79-2.06L487.56,170.27z"/>
			<path class="st12" d="M490.3,173.03c-2.6,0.84-3.02,0.65-3.02,0.65s-12.68-23.08-13.96-25.19c-1.28-2.11-26.91-25.88-26.91-25.88
				L453,98.05c0,0,29.15,37.75,32.3,43.16c5.2,8.95,8.25,29.74,8.25,29.74S492.35,172.37,490.3,173.03z"/>
		</g>
		<path class="st13" d="M422.98,132.25c0.09,5.04,0.38,10.71,0.78,16.47c0.02,0.34,0.05,0.68,0.07,1.02
			c0.25,3.57,0.53,7.14,0.84,10.63c0.13,1.4,0.26,2.78,0.4,4.14l0.02,0.18c0.01,0.51,0.07,1.06,0.13,1.56
			c1.28,13.06,2.63,23.38,2.88,23.54c0.3,0.2,0.63,0.3,1,0.26c3.43-0.43,13.64,0.35,22.01-1.47c7.06-1.49,13.14-4.31,19.58-8.12
			c0.85-0.51,2.8-1.84,2.65-2.84c-0.16-1.1-0.44-2.69-0.81-4.69c-1.27-6.95-3.46-18.9-4.21-32.88c-0.15-2.61-0.36-5.18-0.63-7.71
			c-0.72-6.59-1.87-12.85-3.41-18.41c-2.87-10.33-7.08-18.24-12.37-21.33c-0.69-0.39-4.41,1.98-7.82,4.17
			c-3.15,2.02-6.47,2.58-9.7,2.3l-2.84,3.14c-3.44,4-7.11,9.33-8.11,16.9c-0.08,0.56-0.14,1.15-0.19,1.78
			C422.97,123.98,422.9,127.88,422.98,132.25z"/>
		<path class="st12" d="M422.98,132.25c0.09,5.04,0.38,10.71,0.78,16.47c0.02,0.34,0.05,0.68,0.07,1.02
			c19.56-12.25,22.58-34.65,22.58-34.65c-9.62,0.42-17.27,2.63-23.16,5.8C422.97,123.98,422.9,127.88,422.98,132.25z"/>
		<path class="st13" d="M373.55,141.9c-0.2-2.9,1.3-3.38,1.3-3.38s29.5-5.35,32-6.13c2.51-0.79,23.95-23.09,23.95-23.09
			s8.22-9.27,14.95-7.22c5.85,1.78,8.13,6.34,8.91,10.69c0.93,5.18-1.46,10.39-5.94,13.14c-10.07,6.17-30.22,18.34-34.96,19.73
			c-10.56,3.1-38.94,0.25-38.94,0.25S373.71,144.18,373.55,141.9z"/>
	</g>
	<path class="st14" d="M408.26,198.55v109.64c0,6.4-5.23,11.63-11.63,11.63h-112.7c-0.98,0-1.93-0.12-2.84-0.35
		c-1.95-0.48-3.72-1.45-5.16-2.77c-1.03-0.94-1.9-2.06-2.55-3.31c-0.04-0.07-0.07-0.13-0.1-0.2c-0.68-1.36-1.1-2.86-1.21-4.44
		c-0.02-0.27-0.03-0.54-0.03-0.82V199.25c0-6.15,3.18-11.84,8.36-15.15c0,0,0,0,0.01-0.01c4.32-2.76,7.18-7.6,7.18-13.11
		c0-1.63-0.25-3.21-0.72-4.69h106.54c-0.47,1.48-0.72,3.05-0.72,4.69c0,5.28,2.63,9.95,6.65,12.76c0,0,0,0,0,0
		c0.27,0.19,0.54,0.37,0.82,0.54c0,0,0,0,0,0C405.18,187.32,408.26,192.71,408.26,198.55z"/>
	<path class="st14" d="M408.26,198.55v109.64c0,6.12-4.79,11.18-10.81,11.6c-0.27,0.02-0.54,0.03-0.82,0.03h-49.62
		c-6.54,0-11.89-5.35-11.89-11.89V199.25c0-6.15,3.18-11.84,8.36-15.15c4.33-2.76,7.2-7.61,7.2-13.12c0-1.63-0.25-3.21-0.72-4.69
		h43.46c-0.47,1.48-0.72,3.05-0.72,4.69c0,4.33,1.77,8.24,4.62,11.06c0.86,0.85,1.82,1.61,2.86,2.24
		C405.18,187.32,408.26,192.71,408.26,198.55z"/>
	<path class="st15" d="M399.36,183.75c-3.48-2.08-18.56-9.47-56.89-9.16c-43.91,0.36-61.5,9.23-62.04,9.51
		c4.32-2.76,7.18-7.6,7.18-13.11c0-1.63-0.25-3.21-0.72-4.69h106.54c-0.47,1.48-0.72,3.05-0.72,4.69
		C392.7,176.27,395.33,180.93,399.36,183.75z"/>
	<path class="st10" d="M395.84,165.53v4.97c0,0.49-0.4,0.89-0.89,0.89H285.36c-0.49,0-0.89-0.4-0.89-0.89v-4.97
		c0-0.49,0.4-0.89,0.89-0.89h109.59C395.44,164.64,395.84,165.05,395.84,165.53z"/>
	<path class="st11" d="M395.84,165.53v4.97c0,0.49-0.4,0.89-0.89,0.89h-41.48c-0.49,0-0.89-0.4-0.89-0.89v-4.97
		c0-0.49,0.4-0.89,0.89-0.89h41.48C395.44,164.64,395.84,165.05,395.84,165.53z"/>
	<g>
		<path class="st16" d="M322.72,190.16c0,0-2.82,3.98-5.41,4.03c-2.59,0.06-6.53-1.84-6.53-1.84s-2.38-5.3-0.76-7.37
			c0,0,1.62-0.71,3.31,0.54c0.29,0.22,0.59,0.49,0.88,0.84c0.41,0.49,0.87,0.77,1.36,0.92c1.85,0.56,4.04-0.76,4.86,0.52
			c0.48,0.74,1,1.3,1.43,1.69C322.35,189.94,322.72,190.16,322.72,190.16z"/>
		<path class="st16" d="M285.9,218.84c0,0,9.98-24.19,27.95-24.65c0,0,16.59,1.84,17.51,24.65H285.9z"/>
		<path class="st17" d="M308.93,194.93c0,0,7.2,1.6,9.43,0.66c0,0,0.34-3.01-2.7-2.59c-2.08,0.29-3.43-0.71-4.22-1.11
			C310.31,191.31,308.63,193.67,308.93,194.93z"/>
		<path class="st18" d="M315.2,190.39c-0.46,0.35-1.88-4.87-1.88-4.87c0.29,0.22,0.59,0.49,0.88,0.84c0.41,0.49,0.87,0.77,1.36,0.92
			C315.56,187.43,315.64,190.05,315.2,190.39z"/>
		<path class="st18" d="M321.85,189.48c-0.1,0.06-3.43,2.06-3.88,2.06c-0.46,0,2.46-3.75,2.46-3.75
			C320.9,188.54,321.42,189.09,321.85,189.48z"/>
		<path class="st18" d="M295.65,212.08c-0.18-0.16,7.07-10.67,9.06-10.75c2-0.08,6.48,2.3,9.73,2.61c3.25,0.31,6.4-0.61,7.01,1.31
			c0.61,1.92,2.3,8.73,1.27,9.82C321.69,216.15,299.64,215.49,295.65,212.08z"/>
	</g>
	<g>
		<path class="st19" d="M287.58,311.54c-0.58,0.3-1.16,0.59-1.74,0.87c-0.56,0.32-1.12,0.64-1.7,0.94c-2.66,1.4-5.41,2.51-8.2,3.36
			c-1.03-0.94-1.9-2.06-2.55-3.31c-0.44,0.24-0.89,0.46-1.34,0.69v-82.72c2.05,0.27,4.09,0.68,6.08,1.22
			c11.18,3.02,21.13,10.13,27.18,20.59C317.33,273.95,309.39,300.08,287.58,311.54z"/>
		<g>
			<path class="st5" d="M295.14,249.91c-12.02-21.81-39.45-29.75-61.27-17.72c-21.81,12.02-29.75,39.45-17.72,61.27
				c12.02,21.81,39.45,29.75,61.27,17.72C299.23,299.16,307.16,271.73,295.14,249.91z"/>
			<path class="st2" d="M275.66,312.1c-0.56,0.34-1.12,0.67-1.69,0.98c-0.19,0.11-0.39,0.21-0.58,0.31
				c-0.44,0.24-0.89,0.46-1.34,0.69c-21.48,10.55-47.67,2.45-59.35-18.73c-11.14-20.2-5.15-45.22,13.12-58.36
				c1.46-1.05,2.99-2.02,4.6-2.91c0.58-0.32,1.16-0.62,1.75-0.91c0.57-0.28,1.14-0.55,1.72-0.81c1.76-0.79,3.56-1.45,5.37-1.99
				c2.69-0.81,5.43-1.36,8.17-1.65c8.5-0.9,17.04,0.65,24.62,4.36c8.04,3.93,14.99,10.29,19.64,18.73
				C303.4,273.05,296.18,299.61,275.66,312.1z"/>
			<g>
				<path class="st3" d="M252.51,315.16c-3.83,0-7.69-0.54-11.48-1.64c-10.54-3.05-19.27-10.02-24.57-19.63
					c-5.3-9.61-6.54-20.71-3.49-31.25c3.05-10.54,10.02-19.27,19.63-24.57c9.61-5.3,20.71-6.54,31.25-3.49
					c10.54,3.05,19.27,10.02,24.57,19.63c5.3,9.61,6.54,20.71,3.49,31.25c-3.05,10.54-10.02,19.27-19.63,24.57
					C266.13,313.43,259.36,315.16,252.51,315.16z M218.62,292.7c4.98,9.04,13.19,15.6,23.1,18.46c9.91,2.87,20.35,1.7,29.39-3.28
					c9.04-4.98,15.6-13.19,18.46-23.1c2.87-9.91,1.7-20.35-3.28-29.39c-4.98-9.04-13.19-15.6-23.1-18.46
					c-9.91-2.87-20.35-1.7-29.39,3.28c-9.04,4.98-15.6,13.19-18.46,23.1C212.47,273.23,213.63,283.67,218.62,292.7z"/>
			</g>
			<g>
				<path class="st3" d="M272.33,277.98c-0.09-0.22-0.18-0.44-0.28-0.65c-0.73-1.61-1.64-2.91-2.74-3.91
					c-1.24-1.13-2.67-1.97-4.31-2.53c-1.64-0.56-3.46-0.91-5.47-1.03c-2.01-0.12-4.2-0.15-6.57-0.09c-1.46,0.04-2.71,0.02-3.75-0.08
					c-1.04-0.09-1.92-0.29-2.64-0.58c-0.72-0.29-1.31-0.69-1.76-1.19c-0.45-0.5-0.82-1.12-1.12-1.85c-0.3-0.73-0.46-1.45-0.51-2.17
					c-0.04-0.71,0.06-1.39,0.32-2.04c0.26-0.64,0.68-1.24,1.26-1.78c0.58-0.55,1.35-1.01,2.3-1.4c1.76-0.71,3.4-0.7,4.93,0.05
					c1.52,0.75,2.77,2.3,3.72,4.66l9.19-3.73c-0.8-1.97-1.8-3.63-3.01-4.99c-1.2-1.36-2.56-2.4-4.07-3.14
					c-1.51-0.74-3.15-1.17-4.93-1.3c-1.78-0.13-3.63,0.06-5.55,0.57l-2.6-6.41l-5.09,2.06l2.57,6.32c-1.84,0.95-3.39,2.06-4.67,3.32
					c-1.28,1.26-2.26,2.63-2.94,4.1c-0.69,1.47-1.05,3.02-1.08,4.64c-0.03,1.62,0.29,3.27,0.97,4.94c0.78,1.93,1.79,3.46,3.03,4.58
					c1.24,1.13,2.67,1.97,4.3,2.52c1.63,0.55,3.46,0.89,5.47,0.99c2.02,0.11,4.22,0.11,6.59-0.01c1.38-0.08,2.57-0.07,3.58,0.02
					c1.01,0.09,1.89,0.29,2.63,0.58c0.74,0.3,1.35,0.71,1.84,1.25c0.49,0.54,0.9,1.22,1.24,2.04c0.3,0.73,0.44,1.45,0.44,2.18
					c0,0.72-0.16,1.42-0.49,2.07c-0.32,0.66-0.81,1.27-1.46,1.83c-0.65,0.56-1.47,1.04-2.47,1.45c-0.87,0.35-1.77,0.59-2.7,0.7
					c-0.93,0.11-1.84,0.02-2.72-0.27c-0.89-0.29-1.71-0.83-2.48-1.61c-0.77-0.77-1.44-1.86-2.01-3.26l-9.19,3.73
					c0.96,2.36,2.16,4.24,3.61,5.62c1.45,1.38,3.04,2.37,4.76,2.97c1.72,0.6,3.53,0.86,5.41,0.78c1.88-0.08,3.74-0.38,5.57-0.92
					l2.37,5.85l5.05-2.05l-2.39-5.87c1.84-0.95,3.41-2.05,4.72-3.29c1.21-1.15,2.16-2.39,2.85-3.72c0.06-0.11,0.11-0.21,0.16-0.32
					c0.69-1.45,1.06-2.99,1.11-4.61C273.36,281.39,273.03,279.71,272.33,277.98z"/>
			</g>
		</g>
		<g>
			<path class="st9" d="M218.69,114.81c0.14-0.55-12.01,5.49-12.63,6.17c-5.7,6.32-4.07,14.57-0.81,14.65
				c2.09,0.05,1.69,3.53,1.69,3.53l23.3-9.85C230.23,129.31,227.42,112.95,218.69,114.81z"/>
			<path class="st9" d="M221.56,116.09c0,0,0.83-9.07-9.31-9.07c0,0,3.07,0.83,4.66,2.5c0,0-6.47-3.8-13.51,2.04
				c-7.04,5.83-2.66,20.47-4.8,23.24c-2.14,2.78-10.47,3.33-9.46,12.32c1.02,8.98,26.45,20.23,24.82,27.66
				c0,0,9.97-14.65,2.84-21.34c0,0,3.47,3.27,3.83,7.16c0,0,0.94-7.59-3.89-10.02c-4.28-2.15-7.78-10.01-7.41-11.41
				C209.7,137.76,221.56,116.09,221.56,116.09z"/>
			<path class="st20" d="M212.35,158.78c-1.56-7.53-11.33-9.86-15.94-3.72c-0.83,1.11-1.42,2.41-1.61,3.96
				c-1.05,8.55,12.61,43.36,14.57,46.51c3.56,5.74,24.54,25.41,24.54,25.41l3.87-2.34c0,0-14.88-25.19-17.18-27.55
				C217.92,198.32,215.32,173.08,212.35,158.78z"/>
			<path class="st20" d="M232.44,228.61c0,0,5.64-3.7,7.78-3.47c2.14,0.24,8.32,2.02,8.39,2.93c0.08,0.91-6.89,1.48-7.36,1.97
				c-0.47,0.5-5.2,3.65-6.91,2.66C232.63,231.71,232.44,228.61,232.44,228.61z"/>
			<path class="st10" d="M193.07,312.31l-5.04-0.74c0,0-16.95-13.47-19.47-38.6c-0.26-2.56-0.31-5.15-0.12-7.77
				c0.02-0.3-0.01-0.6-0.18-0.86c0,0,0,0-0.01-0.01c-0.54-0.83-1.89-2.92-3.72-5.88c-1.8-2.92-4.89-8.44-8.28-14.63
				c-6.11-11.15-13.23-24.49-15.67-28.74c-7.78-13.54-4.03-22.64-4.03-22.64s21.69-2.14,27.64-7.35l2.14,3.3
				c0,0,4.7,20.81,4.48,20.91c0.23,0.71,0.47,1.43,0.71,2.16c3.71,11.45,7.98,25.76,10.3,37.42c1.31,6.56,2,12.27,1.63,16.16
				c-0.13,1.34,0.03,3.39,0.38,5.92C185.94,285.9,193.07,312.31,193.07,312.31z"/>
			<path class="st11" d="M203.65,318.69h-21.03c0,0-0.5-3.21,0.59-5.64c1.05-2.33,2.55-2.41,0.19-6.07
				c1.34,1.38,5.63,1.95,8.67,1.54c0.37,0.6,2.4,4.66,3.65,5.55C197.1,315.06,203.23,314.71,203.65,318.69z"/>
			<path class="st11" d="M171.53,211.46c-1.84,10.13-6.18,27-15.27,32.36c-6.11-11.15-13.23-24.49-15.67-28.74
				c-7.78-13.54-4.03-22.64-4.03-22.64s21.69-2.14,27.64-7.35l2.14,3.3c0,0,4.7,20.81,4.48,20.91
				C171.05,210.01,171.29,210.73,171.53,211.46z"/>
			<path class="st21" d="M210.1,154.11c0,0,2.97,3.09,4.33,6.8c0,0-4.74,13.62-15.83,15.33C198.6,176.24,207.37,154.11,210.1,154.11
				z"/>
			<path class="st10" d="M156.78,194l0.07-3.93c-7.84,0.99-27.02-9.37-27.02-9.37s-8.2,5.45-9.32,21.03
				c-0.55,7.6-4.01,39.75-4.4,49.35c-0.14,3.48-0.19,5.96-0.2,6.95c0,0.01,0,0.01,0,0.01c0,0.3-0.15,0.57-0.33,0.81
				c-1.62,2.06-3.03,4.24-4.25,6.51c-11.96,22.25-5.71,52.48-5.71,52.48l2.78-0.71c0,0,10.11-31.34,16.72-44.9
				c1.12-2.3,2.14-4.09,2.99-5.12c2.49-3.02,5.11-8.14,7.69-14.31c4.88-11.66,9.62-27.05,13-38.97
				C149.04,213.88,156.78,194,156.78,194z"/>
			<path class="st6" d="M202.64,167.75c-12.81-2.94-4.63-20.94-3.88-20.63c1.78-0.36,5.67-3.48,9.16-9.57l0.47,0.41l7.87,6.9
				c0,0-1.82,2.68-3.35,5.31c-1.2,2.06-2.21,4.09-2.05,4.78C211.49,155.45,206.06,168.53,202.64,167.75z"/>
			<path class="st20" d="M216.26,144.87c0,0-1.82,2.68-3.35,5.31c-4.89-3.02-4.9-9.07-4.52-12.21L216.26,144.87z"/>
			<path class="st6" d="M216.47,148.32c0,0-11.88-6.61-7.65-13.94c4.23-7.33,5.55-13.13,13.31-9.22c7.76,3.91,7.61,7.55,6.79,10.34
				C228.11,138.29,219.67,149.85,216.47,148.32z"/>
			<path class="st9" d="M230.93,131.22c-0.54-3.26-2.2-3.57-3.35-3.35c-4.39-7.25-11.55-4.42-11.55-4.42
				c-3.83,4.8-9.36,5.62-9.36,5.62s1.38,2.56,7.06,4.15c1.74,0.48,3.7,0.19,5.6-0.45c-3.94,2.2-8.06,3.04-8.06,3.04
				c7.48,0.68,14.61-6.16,15.35-6.89c0.35,1.06,0.95,3.28,0.59,4.9c-0.49,2.21-2.45,6.2-1.26,6.72
				C225.94,140.55,231.75,136.11,230.93,131.22z"/>
			<path class="st11" d="M122.34,318.69h-21.03c0,0-0.5-3.21,0.59-5.64c1.05-2.33,2.7-3.39,2.31-6.22c1.34,1.38,3.51,2.92,6.56,2.51
				c0.37,0.6,2.4,3.84,3.65,4.73C115.79,315.06,121.92,314.71,122.34,318.69z"/>
			<path class="st22" d="M204.15,182.02c-2.71,0.94-6.5,1.46-10.39,1.88c-5.53,0.6-11.24,1.02-14.23,2.21
				c-1.09,0.44-1.82,0.97-2.05,1.66c-1.3,3.9-7.01,9.91-7.01,9.91c-36.62-1.67-40.64-16.99-40.64-16.99
				c24.64-28.65,66.36-36.94,66.36-36.94s2.98-1.26,10.48,4.7c5.01,3.98,4.35,5.51,4.35,5.51S212.11,179.24,204.15,182.02z"/>
			<path class="st21" d="M193.76,183.9c-5.53,0.6-11.24,1.02-14.23,2.21c-1.22-18.26,7.4-32,7.4-32S192.54,176.99,193.76,183.9z"/>
			<path class="st6" d="M199.45,150.58c0,0-13.86,1.37-14.97,10.38c-1.11,9.01,13.29,45.69,15.35,49.01
				c3.75,6.05,25.86,26.78,25.86,26.78l4.07-2.47c0,0-15.68-26.55-18.11-29.03C207.84,201.34,204.14,153.7,199.45,150.58z"/>
			<path class="st22" d="M184.88,166.37c0.04,0.2,12.79,4.17,21,0c0,0,1.76-18.94-8.04-17.91c-9.8,1.03-15.6,4.11-15.85,8.81
				C181.74,161.96,184.88,166.37,184.88,166.37z"/>
			<path class="st6" d="M224.43,234.11c0,0,4.97-4.57,7.12-4.67c2.15-0.11,8.54,0.65,8.76,1.54c0.22,0.88-6.56,2.57-6.94,3.13
				c-0.38,0.57-4.54,4.44-6.39,3.74C225.12,237.14,224.43,234.11,224.43,234.11z"/>
		</g>
	</g>
</g>
</svg>
