<?xml version="1.0" encoding="utf-8"?>
<!-- Generator: Adobe Illustrator 23.0.5, SVG Export Plug-In . SVG Version: 6.00 Build 0)  -->
<svg version="1.0" id="Layer_1" xmlns="http://www.w3.org/2000/svg" xmlns:xlink="http://www.w3.org/1999/xlink" x="0px" y="0px"
	 viewBox="0 0 624 320" style="enable-background:new 0 0 624 320;" xml:space="preserve">
<style type="text/css">
	.st0{opacity:0.3;fill:#35B24A;}
	.st1{fill:#575756;}
	.st2{fill:#454444;}
	.st3{fill-rule:evenodd;clip-rule:evenodd;fill:#4FD7E8;}
	.st4{fill:#E8E8E8;}
	.st5{fill:#EBAE73;}
	.st6{fill:#28324E;}
	.st7{fill:#FFFFFF;}
	.st8{fill:#EDEDED;}
	.st9{fill:#DADADA;}
	.st10{fill:#F98755;}
	.st11{fill:#EF6A1C;}
	.st12{fill:#FFCF9F;}
	.st13{opacity:0.1;fill:#1D1D1B;}
	.st14{fill:#4FD7E8;}
	.st15{fill:#00A859;}
	.st16{fill:#FAE0B2;}
	.st17{fill:#04964C;}
	.st18{fill:#008C56;}
	.st19{fill:#007048;}
	.st20{fill:#3C3C3B;}
	.st21{fill:#F4A640;}
	.st22{fill:#FEB546;}
	.st23{fill:#F9C27A;}
	.st24{fill:#E2881E;}
	.st25{fill:#FFC0BB;}
	.st26{fill:#FF5B7E;}
	.st27{fill:#333333;}
	.st28{fill:#191919;}
	.st29{fill:#BC997A;}
	.st30{opacity:0.3;fill:#F99893;}
	.st31{fill:#F9CC4B;}
	.st32{opacity:0.5;fill:#FFF9FF;}
	.st33{fill:#00A26D;}
	.st34{fill:#07085B;}
	.st35{fill:#8FD0D6;}
	.st36{fill:#DAEEF7;}
	.st37{opacity:0.3;fill:#E87B50;}
</style>
<rect x="0" class="st0" width="624" height="320"/>
<g>
	<g>
		<g>
			<g>
				<rect x="87.73" y="262.05" class="st1" width="362.26" height="10.81"/>
				<path class="st2" d="M454.84,263.76H82.88c-7.73,0-14-6.27-14-14V39c0-7.73,6.27-14,14-14h371.96c7.73,0,14,6.27,14,14v210.77
					C468.83,257.49,462.57,263.76,454.84,263.76z"/>
				<path class="st3" d="M444.9,252.5H92.82c-7.15,0-12.94-5.35-12.94-11.95V52.65c0-6.6,5.79-11.95,12.94-11.95H444.9
					c7.15,0,12.94,5.35,12.94,11.95v187.9C457.85,247.15,452.05,252.5,444.9,252.5z"/>
				<path class="st1" d="M492.02,272.85v7.49c0,3.39-1.17,6.53-3.11,9.01c-2.67,3.45-6.86,5.65-11.55,5.65H60.34
					c-4.69,0-8.86-2.2-11.55-5.65c-1.94-2.49-3.11-5.62-3.11-9.01v-7.49H492.02z"/>
				<rect x="45.69" y="272.86" class="st2" width="446.34" height="7.48"/>
				<path class="st4" d="M273.57,32.39c0,2.6-2.11,4.71-4.71,4.71c-2.6,0-4.71-2.11-4.71-4.71c0-2.6,2.11-4.71,4.71-4.71
					C271.46,27.68,273.57,29.79,273.57,32.39z"/>
				<path class="st2" d="M272.11,32.39c0,1.8-1.46,3.26-3.26,3.26c-1.8,0-3.25-1.46-3.25-3.26c0-1.8,1.46-3.26,3.25-3.26
					C270.66,29.14,272.11,30.59,272.11,32.39z"/>
			</g>
		</g>
		<g>
			<g>
				<g>
					<path class="st5" d="M295,108.96l-0.11-0.12c-3.03-3.18-7.87-3.11-10.82,0.15l-20.93,23.16c-2.95,3.26-2.89,8.48,0.14,11.66
						l0.11,0.12c3.03,3.18,7.87,3.11,10.82-0.15l20.93-23.16C298.1,117.35,298.03,112.13,295,108.96z"/>
					<path class="st5" d="M308.42,101.35l-0.11-0.12c-3.03-3.18-7.87-3.11-10.82,0.15l-20.93,23.16c-2.95,3.26-2.89,8.48,0.14,11.66
						l0.11,0.12c3.03,3.18,7.87,3.11,10.82-0.15l20.93-23.16C311.51,109.75,311.45,104.53,308.42,101.35z"/>
					<path class="st5" d="M289.41,127.8l-0.05-0.16c-1.34-4.32-5.68-6.65-9.69-5.21l-28.74,10.2c-4.01,1.44-5.88,6.17-4.54,10.49
						l0.05,0.16c1.34,4.32,5.68,6.65,9.69,5.21l28.45-10.25C288.59,136.79,290.75,132.12,289.41,127.8z"/>
					<path class="st5" d="M317.28,107.63l-0.1-0.14c-2.79-3.93-8-4.68-11.65-1.68l-25.88,21.31c-3.65,3-4.34,8.62-1.56,12.55
						l0.1,0.14c2.79,3.93,8,4.68,11.65,1.68l25.88-21.31C319.37,117.18,320.07,111.56,317.28,107.63z"/>
					<path class="st5" d="M292.98,132.8l-0.03-0.18c-0.81-4.87-5.12-8.11-9.64-7.24l-32.37,6.06c-4.52,0.87-7.22,5.62-6.41,10.49
						l0.03,0.18c0.81,4.87,5.12,8.11,9.64,7.24l32.06-6.17C290.78,142.32,293.79,137.67,292.98,132.8z"/>
					<rect x="79.74" y="96.36" class="st6" width="73.22" height="56.26"/>
					<path class="st7" d="M147.45,103.89c-0.01-1.71-1.4-3.08-3.11-3.07c-1.71,0.01-3.08,1.4-3.07,3.11
						c0.01,1.71,1.4,3.08,3.11,3.07C146.08,106.99,147.46,105.59,147.45,103.89z"/>
					<path class="st7" d="M137.84,103.95c-0.01-1.71-1.4-3.08-3.11-3.07c-1.71,0.01-3.08,1.4-3.07,3.11
						c0.01,1.71,1.4,3.08,3.11,3.07C136.47,107.05,137.85,105.66,137.84,103.95z"/>
					<path class="st7" d="M128.08,104.01c-0.01-1.71-1.4-3.08-3.11-3.07c-1.71,0.01-3.08,1.4-3.07,3.11
						c0.01,1.71,1.4,3.08,3.11,3.07C126.71,107.11,128.09,105.72,128.08,104.01z"/>
					<g>
						<rect x="197.8" y="68.52" class="st8" width="56.53" height="63.83"/>
						<rect x="254.33" y="68.52" class="st9" width="33.14" height="63.83"/>
						<rect x="219.87" y="68.52" class="st10" width="12.4" height="63.83"/>
						<rect x="267.44" y="68.52" class="st10" width="8.67" height="63.83"/>
						<rect x="241.8" y="58.91" class="st10" width="9.66" height="9.61"/>
						<path class="st11" d="M241.93,68.52h-19.26l-1.74-13.82c-0.21-1.67,1.42-2.97,3-2.39c7.07,1.11,13.39,2.98,18,6.6V68.52z"/>
						<path class="st11" d="M251.46,68.52h19.26l1.97-14.83c0.16-1.21-1.02-2.15-2.16-1.74c-7.87,1.78-15.31,3.72-19.07,6.95V68.52z
							"/>
					</g>
					<path class="st12" d="M168.08,106.5l20.53-3.24c4.94-0.78,9.96-0.59,14.84,0.56l12.78,3.02c1.58,0.37,3.2,0.46,4.81,0.27
						l29.47-3.59c4.56-0.58,8.69,2.93,9.22,7.85l0.02,0.18c0.54,4.91-2.72,9.36-7.28,9.94l-19.8,2.51l19.24,7.39l30.34,0.29
						l27.31-14.62c4.11-2.2,9.1-0.39,11.14,4.03l0.07,0.16c2.04,4.43,0.37,9.8-3.74,12c0,0-32.89,16.55-32.98,16.55
						c0,0-24.34,4.5-32.05,5.18c-1.45,0.13-3.47-0.06-5.54-0.11c-8.55-0.2-32.44-1.45-51.6-8.6l-26.76-4.9V106.5z"/>
					<rect x="152.95" y="99.47" class="st8" width="21.36" height="50.23"/>
				</g>
				<path class="st13" d="M79.74,123.15v29.47h73.22v-2.92h21.36v-7.2l20.53,3.76c19.16,7.15,43.05,8.39,51.6,8.6
					c2.07,0.05,4.09,0.24,5.54,0.11c7.71-0.68,32.05-5.18,32.05-5.18c0.1,0,32.98-16.55,32.98-16.55c3.53-1.89,5.25-6.13,4.37-10.09
					H79.74z"/>
			</g>
			<g>
				<g>
					<g>
						<path class="st5" d="M269.33,221.58c-0.03-1.94-0.83-7.78-0.83-7.78c-0.62-5.68-5.57-9.88-11.06-9.37l-0.2,0.02
							c-5.49,0.51-9.44,5.53-8.82,11.21l0.83,7.78C251.86,238.93,271.43,235.97,269.33,221.58z"/>
						<path class="st5" d="M291.05,229.52l-7.93-18.57c-2.07-5.38-4.93-6.47-10.19-4.75l-3.27-1.82c-5.26,1.72-7.84,7.48-5.77,12.86
							l7.93,18.57C276.37,246.44,293.97,242.23,291.05,229.52z"/>
						<path class="st5" d="M310.03,227.43l-4.81-12.52c-2.07-5.38-8.01-8.35-13.26-6.63l-0.19,0.06c-5.26,1.72-7.84,7.48-5.77,12.86
							l4.81,12.52C295.35,244.35,312.95,240.14,310.03,227.43z"/>
						<path class="st5" d="M326.17,225.53l-4.34-9.88c-1.87-4.25-7.12-6.29-11.72-4.57l-0.17,0.06c-4.61,1.72-6.82,6.56-4.95,10.81
							l4.34,9.88C313.4,241.69,329.8,236.53,326.17,225.53z"/>
						<polygon class="st5" points="288.25,169.07 257.63,186.97 284.03,192.78 						"/>
						<g>
							<polygon class="st14" points="267.73,217.87 267.73,175.88 267.73,217.87 							"/>
							<path class="st14" d="M263.52,170.71c1.03,0.21,1.95,0.72,2.67,1.44C265.47,171.43,264.55,170.92,263.52,170.71z"/>
							<path class="st15" d="M247.99,223.15h-19.61h-6.21c-1.96-17.51,18.61-35.03,15.25-52.54h15.45h-56.19
								c-2.91,0-5.27,2.36-5.27,5.28v41.99c0,2.91,2.36,5.28,5.28,5.28l65.77,0c1.09,0,2.11-0.33,2.95-0.9
								c-0.84,0.57-1.86,0.9-2.95,0.9H247.99z M213.86,194.35v0.94v3.18v0.94v1.54c0,0.83-0.67,1.52-1.51,1.52h-8.43h-0.94h-2.87
								c-0.84,0-1.51-0.69-1.51-1.52v-5.66l0,0v-0.94l0,0v-1.55c0-0.83,0.67-1.51,1.51-1.51l8.43,0l0,0h0.94l0,0h2.87
								c0.83,0,1.51,0.67,1.51,1.51V194.35z"/>
							<path class="st14" d="M266.19,172.15c0.48,0.48,0.86,1.05,1.13,1.68C267.05,173.19,266.66,172.62,266.19,172.15z"/>
							<path class="st14" d="M265.41,222.25c0.56-0.38,1.05-0.86,1.42-1.42C266.45,221.38,265.97,221.87,265.41,222.25z"/>
							<path class="st16" d="M212.35,191.29h-2.87v3.06h4.38v-1.55C213.86,191.96,213.18,191.29,212.35,191.29z"/>
							<path class="st16" d="M208.54,191.29l-8.43,0c-0.83,0-1.51,0.67-1.51,1.51v1.55h4.38v-3.06h0.94v11.18h8.43
								c0.83,0,1.51-0.69,1.51-1.52v-1.54h-5.32V191.29z"/>
							<path class="st16" d="M198.6,199.41v-0.94h4.38v-3.18h-4.38v5.66c0,0.83,0.67,1.52,1.51,1.52h2.87v-3.06H198.6z"/>
							<rect x="209.48" y="195.29" class="st16" width="4.38" height="3.18"/>
							<path class="st17" d="M222.17,223.15h6.21c2.03-17.51,25.43-35.03,27.13-52.54h-2.64h-15.45
								C240.78,188.12,220.21,205.63,222.17,223.15z"/>
							<path class="st18" d="M228.38,223.15h19.61c-1.16-17.51,15.37-35.03,14.11-52.54h-6.59
								C253.81,188.12,230.41,205.63,228.38,223.15z"/>
							<path class="st19" d="M267.73,175.88c0-0.73-0.15-1.42-0.41-2.05s-0.65-1.2-1.13-1.68c-0.72-0.72-1.64-1.23-2.67-1.44
								c-0.34-0.07-0.7-0.11-1.06-0.11h-0.36c1.27,17.51-15.26,35.03-14.11,52.54h14.46c1.09,0,2.11-0.33,2.95-0.9
								c0.56-0.38,1.05-0.86,1.42-1.42c0.57-0.84,0.9-1.86,0.9-2.95l0,0V175.88z"/>
							<polygon class="st20" points="202.97,191.29 202.97,194.35 198.6,194.35 198.6,194.35 198.6,195.29 198.6,195.29 
								202.97,195.29 202.97,198.47 198.6,198.47 198.6,199.41 202.97,199.41 202.97,202.47 203.92,202.47 203.92,191.29 							"/>
							<polygon class="st20" points="209.48,191.29 209.48,191.29 208.54,191.29 208.54,191.29 208.54,199.41 213.86,199.41 
								213.86,198.47 209.48,198.47 209.48,195.29 213.86,195.29 213.86,194.35 209.48,194.35 							"/>
						</g>
						<path class="st12" d="M349.2,186.84v0.01l-26.37-15.39c-10.96-7.82-24.25-8.4-34.58-2.39l-4.78,9.17
							c-3.64,7-11.58,11.22-19.97,10.62c-1.11-0.08-2.07-0.15-2.81-0.19l-5.37-0.36c-8.57-0.59-14.53-1.06-16.24-1.33
							c-5.71-0.88-11.27,2.49-12.46,7.72l-0.04,0.21c-1.18,5.23,2.8,10.43,8.94,11.38c13.16,2.07,26.44,3.43,39.76,4.09
							c0.02,0,0.03,0,0.05,0c2.14,0.12,3.56,1.61,5.09,3.01c9.26,8.43,19.65,12.24,34.78,14.52c14.04,2.12,25.54,0.12,33.99-6.16
							v0.41h38.74v-35.32H349.2z"/>
						<polygon class="st12" points="387.94,225.87 341.78,225.87 345.84,184.89 387.94,184.89 						"/>
					</g>
					<rect x="384.52" y="177.25" class="st6" width="73.22" height="56.26"/>
					<rect x="363.17" y="180.36" class="st8" width="21.36" height="50.23"/>
					<path class="st7" d="M390.03,225.9c0.01-1.71,1.4-3.08,3.11-3.07c1.71,0.01,3.08,1.4,3.07,3.11c-0.01,1.71-1.4,3.08-3.11,3.07
						C391.39,229,390.02,227.61,390.03,225.9z"/>
					<path class="st7" d="M399.64,225.96c0.01-1.71,1.4-3.08,3.11-3.07c1.71,0.01,3.08,1.4,3.07,3.11c-0.01,1.71-1.4,3.08-3.11,3.07
						C401,229.06,399.63,227.67,399.64,225.96z"/>
					
						<ellipse transform="matrix(0.9789 -0.2045 0.2045 0.9789 -37.5084 89.1336)" class="st7" cx="412.49" cy="226.04" rx="3.09" ry="3.09"/>
				</g>
				<path class="st13" d="M191.41,206.04v11.84c0,2.91,2.36,5.28,5.28,5.28l52.54,0l0.03,0.29c2.14,12.71,15.67,12.99,19.32,4.74
					l3.26,7.63c3.91,9.14,17.44,7.29,19.31-1.49c4.14,8.17,16.42,6.57,18.78-1.39c4.31,7.41,16.64,4.08,16.73-4.26
					c5.59-0.12,10.66-1.04,15.14-2.83l0,0.02h21.38v4.72h21.36v2.92h73.22v-27.48H191.41z"/>
			</g>
		</g>
	</g>
	<g>
		<g>
			<rect x="497.75" y="157.75" class="st21" width="64.49" height="27.29"/>
			<rect x="433.26" y="157.75" class="st22" width="64.49" height="27.29"/>
			<rect x="368.77" y="157.75" class="st23" width="64.49" height="27.29"/>
			<g>
				<path class="st24" d="M562.75,185.84H368.27v-28.89h194.49V185.84z M369.28,184.23h192.46v-25.69H369.28V184.23z"/>
			</g>
		</g>
		<g>
			<rect x="487.88" y="212.33" class="st21" width="64.49" height="27.29"/>
			<rect x="423.38" y="212.33" class="st22" width="64.49" height="27.29"/>
			<rect x="358.89" y="212.33" class="st23" width="64.49" height="27.29"/>
			<g>
				<path class="st24" d="M552.87,240.42H358.39v-28.89h194.49V240.42z M359.4,238.82h192.46v-25.69H359.4V238.82z"/>
			</g>
		</g>
		<g>
			<rect x="497.75" y="239.62" class="st21" width="64.49" height="27.29"/>
			<rect x="433.26" y="239.62" class="st22" width="64.49" height="27.29"/>
			<rect x="368.77" y="239.62" class="st23" width="64.49" height="27.29"/>
			<g>
				<path class="st24" d="M562.75,267.71H368.27v-28.89h194.49V267.71z M369.28,266.11h192.46v-25.69H369.28V266.11z"/>
			</g>
		</g>
		<g>
			<rect x="513.32" y="266.91" class="st21" width="64.49" height="27.29"/>
			<rect x="448.83" y="266.91" class="st22" width="64.49" height="27.29"/>
			<rect x="384.34" y="266.91" class="st23" width="64.49" height="27.29"/>
			<g>
				<path class="st24" d="M578.32,295H383.83v-28.89h194.49V295z M384.84,293.4h192.46v-25.69H384.84V293.4z"/>
			</g>
		</g>
		<g>
			<rect x="508.38" y="185.04" class="st21" width="64.49" height="27.29"/>
			<rect x="443.89" y="185.04" class="st22" width="64.49" height="27.29"/>
			<rect x="379.4" y="185.04" class="st23" width="64.49" height="27.29"/>
			<g>
				<path class="st24" d="M573.38,213.13H378.89v-28.89h194.49V213.13z M379.9,211.52h192.46v-25.69H379.9V211.52z"/>
			</g>
		</g>
		<path class="st25" d="M383.08,154.51l5.68-3.5l4.9,2.96l-1.71,1.22l-5.95,0.84c0,0-2.32-0.3-2.42-0.37
			C383.48,155.59,383.08,154.51,383.08,154.51z"/>
		<path class="st26" d="M383.08,154.51l-1.44,0.93c-0.67,0.42-0.37,1.45,0.42,1.45l10.89,0.05c0.38,0,0.7-0.31,0.7-0.69l0.01-2.28
			C386.4,156.25,383.89,155.53,383.08,154.51z"/>
		<path class="st25" d="M406.98,154.72l5.68-3.5l4.9,2.96l-1.71,1.22l-5.95,0.84c0,0-2.32-0.3-2.42-0.37
			C407.37,155.8,406.98,154.72,406.98,154.72z"/>
		<path class="st26" d="M406.98,154.72l-1.44,0.93c-0.67,0.42-0.37,1.45,0.42,1.45l10.89,0.05c0.38,0,0.7-0.31,0.7-0.69l0.01-2.28
			C410.29,156.45,407.79,155.74,406.98,154.72z"/>
		<path class="st27" d="M462.63,58.21c0,0,3.5-2.29,7.49,0c3.99,2.29,3.99,10.03,2.42,11.88c-1.57,1.85,0.08,4.36-3.06,6.77
			c-3.14,2.42-8.15,3.3-11,0.48c-2.86-2.82-0.76-9.12-0.76-9.12L462.63,58.21z"/>
		<path class="st25" d="M418.5,83.98c-0.07,0.16-0.29,0.19-0.39,0.04c-0.77-1.12-3.22-4.62-3.55-4.48
			c-0.39,0.16,1.72,3.34,1.49,3.65c-0.23,0.31-2.22-2.84-2.61-2.61c-0.39,0.23,1.51,3.05,1.38,3.21c-0.13,0.16-2.24-2.35-2.55-2.35
			c-0.31,0,1.62,2.95,1.51,3.18c-0.1,0.23-2.11-1.36-2.27-1.2c-0.16,0.16-0.29,0.23,3.21,5.11c0,0,1.52,1.53,1.62,2.16l1.84,0.58
			l1.88-1.85c0,0,0.18-7.72-0.08-7.9C419.74,81.34,419.52,81.48,418.5,83.98z"/>
		<polygon class="st28" points="425.1,130.17 417.96,154.55 409.34,152.13 412.22,131.67 421.13,125.55 		"/>
		<path class="st19" d="M452.94,80.15c0,0-14.96,18.41-17.5,21.34l-15.16-14.96c0,0-3.06,1.69-4.62,3.51c0,0,6.11,14.12,11.38,17.82
			l10.54,7.09l-2.02,4.81l3.77,2.93l1.98-4.75l5.43-12.03l5.14-16l0.98-7.94L452.94,80.15z"/>
		<path class="st7" d="M452.87,81.97c0,0-6.31,10.28-7.61,14.25s-0.26,4.29-0.85,9.11c-0.59,4.81-5.01,17.69-5.01,17.69l7.35,4.94
			c0,0,3.97-12.68,3.97-13.2s3.71-23.74,3.71-23.74l3.06-8.65L452.87,81.97z"/>
		<path class="st27" d="M446.04,127.44c0,0-12.62-11.32-22.38-13.59c-9.76-2.28-36,37.31-36,37.31l6.27,4.52
			c0,0,22.7-16.33,26.99-23.61c0,0,18.44,24.32,24.62,24.91c6.18,0.59,13.15-0.72,21.37-10.6
			C476.24,135.17,446.04,127.44,446.04,127.44z"/>
		<path class="st25" d="M458.6,71.95l2.8,7.55c0,0-2.02,4.61-8.81,2.9c0,0,0.71-1.61-0.44-4.83
			C450.98,74.28,458.6,71.95,458.6,71.95z"/>
		<path class="st29" d="M458.6,71.95l1.31,3.52c-0.61,2.63-2.83,4.49-7.11,5.2c-0.03-0.78-0.19-1.81-0.65-3.11
			C450.98,74.28,458.6,71.95,458.6,71.95z"/>
		<path class="st7" d="M419.83,124.67c-0.12,0.62-0.18,1.25-0.18,1.88c0,0.63,0.05,1.27,0.15,1.89c0.1,0.63,0.24,1.24,0.41,1.85
			c0.17,0.61,0.38,1.21,0.63,1.79l0.15-0.13c-0.34-0.22-0.66-0.49-0.97-0.77c-0.31-0.28-0.61-0.57-0.89-0.87
			c-0.28-0.31-0.55-0.62-0.82-0.95c-0.27-0.32-0.51-0.66-0.76-1c0.22,0.36,0.44,0.71,0.69,1.05c0.24,0.34,0.51,0.67,0.78,0.99
			c0.28,0.32,0.56,0.63,0.87,0.91c0.31,0.29,0.63,0.56,0.99,0.81l0.28,0.19l-0.14-0.32c-0.24-0.57-0.43-1.17-0.61-1.77
			c-0.17-0.6-0.32-1.21-0.43-1.83c-0.11-0.62-0.19-1.24-0.22-1.86C419.74,125.93,419.76,125.3,419.83,124.67z"/>
		<path class="st29" d="M443.04,66.92c0.59,1.22,0.28,2.59-0.7,3.06c-0.98,0.47-2.25-0.13-2.84-1.36c-0.59-1.22-0.28-2.59,0.7-3.06
			C441.18,65.1,442.45,65.7,443.04,66.92z"/>
		<path class="st12" d="M443.87,74.23c-0.35-0.52-0.65-1.08-0.9-1.66c-0.7-1.57-1.11-3.27-1.35-4.75c-0.05-0.32-0.12-0.63-0.2-0.95
			c-0.31-1.27-0.39-2.62-0.17-4.04c0.68-4.55,4.34-8.18,8.9-8.81c6.14-0.85,11.55,3.7,11.93,9.72c0.63-0.41,1.36-0.54,2.03-0.29
			c1.28,0.48,1.83,2.16,1.24,3.75c-0.59,1.6-2.11,2.5-3.39,2.03c-0.18-0.07-0.34-0.16-0.49-0.27c-0.2,5.16-4.14,9.38-9.18,9.61
			c-2.46,0.12-4.76-0.74-6.54-2.25c-0.12-0.09-0.24-0.19-0.37-0.31C444.79,75.5,444.29,74.89,443.87,74.23z"/>
		<path class="st29" d="M449.26,64.46c0.02,0.59,0.04,1.18,0.03,1.76c-0.02,0.29-0.02,0.58-0.07,0.85
			c-0.05,0.27-0.11,0.55-0.24,0.76l-0.05,0.07c-0.02,0.03-0.03,0.05-0.06,0.08c-0.05,0.07-0.11,0.13-0.15,0.21
			c-0.04,0.08-0.08,0.15-0.1,0.24c-0.03,0.08-0.04,0.17-0.05,0.26c-0.02,0.36,0.17,0.69,0.42,0.91c0.24,0.22,0.54,0.35,0.85,0.41
			c0.3,0.06,0.61,0.06,0.9,0c-0.3-0.03-0.58-0.09-0.85-0.19c-0.26-0.1-0.51-0.25-0.68-0.44c-0.17-0.2-0.29-0.43-0.26-0.67
			c0.01-0.06,0.01-0.12,0.04-0.17c0.01-0.06,0.05-0.11,0.07-0.16c0.02-0.06,0.07-0.1,0.11-0.15c0.04-0.05,0.1-0.13,0.15-0.2
			c0.17-0.3,0.23-0.61,0.27-0.92c0.03-0.31,0.03-0.61,0.01-0.91C449.55,65.61,449.44,65.02,449.26,64.46z"/>
		<path class="st27" d="M452.74,65.25c0.02,0.5,0.45,0.9,0.96,0.87c0.5-0.02,0.9-0.45,0.87-0.96c-0.02-0.51-0.45-0.9-0.96-0.87
			C453.11,64.32,452.72,64.74,452.74,65.25z"/>
		<path class="st27" d="M444.91,66.13c0.02,0.51,0.45,0.89,0.96,0.87c0.51-0.02,0.9-0.45,0.87-0.96c-0.02-0.51-0.45-0.9-0.96-0.87
			C445.28,65.2,444.89,65.63,444.91,66.13z"/>
		<path class="st30" d="M453.16,72.2c0,0-1.33-0.42-2.53,0.43c0,0-1.36-0.78-2.38,0.05c0,0,0.56,1.96,2.74,1.75
			C453.17,74.22,453.16,72.2,453.16,72.2z"/>
		<path class="st29" d="M454.28,71.45c-0.24,0.21-0.49,0.4-0.76,0.57c-0.26,0.18-0.53,0.34-0.82,0.47
			c-0.56,0.27-1.16,0.47-1.78,0.55c-0.62,0.08-1.24,0.02-1.84-0.14c-0.6-0.17-1.17-0.45-1.72-0.78c0.24,0.21,0.5,0.39,0.78,0.56
			c0.28,0.16,0.58,0.29,0.88,0.4c0.31,0.1,0.63,0.17,0.95,0.21c0.32,0.03,0.65,0.03,0.98-0.01c0.65-0.08,1.27-0.3,1.83-0.62
			C453.35,72.34,453.86,71.94,454.28,71.45z"/>
		<path class="st27" d="M451.59,63.18c0.47-0.14,0.9-0.25,1.34-0.32c0.43-0.07,0.86-0.08,1.27-0.03c0.41,0.06,0.83,0.14,1.22,0.32
			c0.21,0.07,0.4,0.19,0.61,0.28c0.21,0.1,0.4,0.23,0.63,0.33c-0.12-0.21-0.25-0.42-0.41-0.61c-0.17-0.17-0.34-0.37-0.55-0.5
			c-0.4-0.31-0.91-0.48-1.42-0.55c-0.51-0.06-1.04,0.01-1.5,0.2C452.32,62.51,451.89,62.79,451.59,63.18z"/>
		<path class="st27" d="M447.56,63.64c-0.37-0.33-0.84-0.52-1.33-0.62c-0.49-0.09-1.02-0.06-1.51,0.1
			c-0.49,0.16-0.95,0.43-1.29,0.81c-0.19,0.17-0.31,0.39-0.45,0.6c-0.12,0.22-0.21,0.45-0.28,0.68c0.21-0.14,0.37-0.31,0.55-0.45
			c0.19-0.13,0.35-0.29,0.54-0.39c0.36-0.25,0.74-0.42,1.14-0.56c0.4-0.13,0.81-0.2,1.25-0.22
			C446.62,63.56,447.07,63.59,447.56,63.64z"/>
		<g>
			
				<ellipse transform="matrix(0.8175 -0.5759 0.5759 0.8175 18.282 254.1436)" class="st21" cx="410.17" cy="98.22" rx="32.13" ry="32.13"/>
			
				<ellipse transform="matrix(0.0457 -0.999 0.999 0.0457 293.3072 503.4749)" class="st31" cx="410.17" cy="98.22" rx="28.89" ry="28.89"/>
			<g>
				<g>
					<path class="st21" d="M420.28,123.31c-13.83,5.58-29.63-1.14-35.2-14.98c-5.58-13.83,1.14-29.63,14.98-35.2
						c13.83-5.58,29.63,1.14,35.2,14.98C440.83,101.94,434.11,117.74,420.28,123.31z M400.43,74.06
						c-13.33,5.37-19.8,20.58-14.43,33.91c5.37,13.33,20.58,19.8,33.91,14.43c13.33-5.37,19.8-20.58,14.43-33.91
						C428.96,75.16,413.75,68.69,400.43,74.06z"/>
				</g>
			</g>
			<path class="st32" d="M411.15,88.65c-0.95-1.25-2.01-2.17-3.68-2.25c0.05,0.24,0.07,0.43,0.13,0.59c0.9,2.25,1.83,4.5,2.71,6.76
				c0.19,0.5,0.43,0.61,0.96,0.57c1.23-0.09,2.48-0.13,3.71-0.08c4.34,0.16,6.93,2.78,8.01,6.7c1.29,4.72-0.13,8.32-4.19,11.11
				c-0.74,0.51-0.83,0.95-0.46,1.68c0.27,0.53,0.46,1.11,0.71,1.72c-0.98,0.39-1.9,0.76-2.9,1.17c-0.36-0.88-0.71-1.75-1.05-2.61
				c-6.75,1.53-10.49-2.25-12.12-5.54c1.64-0.88,3.29-1.76,4.97-2.67c1.26,1.69,2.77,2.85,5.12,3.22c-0.5-1.25-0.94-2.33-1.37-3.41
				c-0.59-1.47-1.21-2.94-1.77-4.43c-0.21-0.55-0.47-0.75-1.07-0.7c-1.91,0.14-3.81,0.03-5.62-0.72c-3.65-1.52-5.37-4.53-5.75-8.22
				c-0.35-3.45,1.3-6.12,4.21-7.99c0.19-0.12,0.39-0.25,0.58-0.38c0.07-0.05,0.13-0.11,0.25-0.22c-0.28-0.69-0.57-1.4-0.88-2.18
				c0.99-0.4,1.91-0.77,2.95-1.19c0.21,0.52,0.46,1.03,0.62,1.57c0.18,0.57,0.48,0.65,1.04,0.53c2.47-0.55,4.83-0.3,6.96,1.16
				c1.13,0.77,2.03,1.76,2.77,3.05C414.37,86.83,412.8,87.72,411.15,88.65z M412.98,100.19c1.07,2.65,2.11,5.23,3.15,7.81
				c1.73-0.9,2.53-3.07,1.91-5.1C417.43,100.91,415.51,99.85,412.98,100.19z M404.35,87.59c-1.39,1.35-1.82,3.22-1.16,4.61
				c0.73,1.53,2.41,2.5,3.94,2.29C406.22,92.23,405.31,89.96,404.35,87.59z"/>
		</g>
		<path class="st25" d="M421.55,104.09c0.07,0.18-0.09,0.37-0.27,0.33c-1.46-0.31-6.07-1.25-6.24-0.9c-0.19,0.42,3.9,1.36,3.95,1.79
			c0.05,0.43-3.92-0.59-4.06-0.11c-0.13,0.48,3.52,1.29,3.53,1.52c0.01,0.22-3.57-0.18-3.82,0.06c-0.25,0.24,3.52,1.13,3.62,1.4
			c0.09,0.27-2.72,0.52-2.72,0.76c-0.01,0.24-0.05,0.4,6.44,1.66l2.57,0.38l2.27-0.82l0.1-2.9c0,0-5.7-6.31-6.05-6.26
			C420.54,101.05,420.46,101.32,421.55,104.09z"/>
		<path class="st33" d="M461.2,78.23c0,0,12.88,15.51,11.12,42.83c-1.76,27.32-2.05,27.52-2.05,27.52s-7.9-0.85-13.76-5.53
			c-5.85-4.68-13.01-7.87-13.01-7.87l4.75-15.42c0,0-6.18,0.2-10.67-1.69c-4.49-1.89-13.86-6.9-13.86-6.9s0.78-4.62,1.76-6.05
			c0,0,11.9,3.64,17.89,3.71C443.38,108.84,450.34,87.37,461.2,78.23z"/>
		<path class="st19" d="M460.27,83.21c-1.96,1.69-3.77,3.56-5.47,5.52c-1.7,1.96-3.27,4.03-4.73,6.18l-0.54,0.81
			c-0.18,0.27-0.36,0.54-0.53,0.82L448,98.2c-0.17,0.27-0.32,0.56-0.48,0.85l-0.46,0.86l-0.46,0.86c-0.15,0.29-0.28,0.58-0.42,0.88
			l-0.83,1.76l-0.73,1.8l-0.36,0.9l-0.3,0.92c-0.2,0.61-0.4,1.23-0.6,1.85c0.24-0.6,0.48-1.2,0.71-1.81l0.35-0.9l0.4-0.88l0.79-1.76
			l0.88-1.72c0.15-0.29,0.29-0.58,0.44-0.86l0.48-0.84l0.48-0.84c0.16-0.28,0.31-0.57,0.49-0.84l1.02-1.65
			c0.16-0.28,0.35-0.54,0.53-0.81l0.54-0.8c1.44-2.14,2.98-4.21,4.62-6.2l1.25-1.48c0.43-0.48,0.85-0.97,1.28-1.45
			C458.46,85.05,459.35,84.12,460.27,83.21z"/>
		<path class="st19" d="M465.83,94.04c-1.06,2.39-2.19,4.74-3.36,7.07c-0.59,1.16-1.19,2.32-1.81,3.46
			c-0.62,1.15-1.26,2.28-1.93,3.4c-0.66,1.12-1.35,2.23-2.07,3.3c-0.35,0.55-0.73,1.07-1.11,1.61c-0.39,0.52-0.77,1.05-1.18,1.55
			c-0.81,1.02-1.66,2-2.59,2.9c-0.93,0.9-1.96,1.71-3.12,2.32c1.2-0.52,2.28-1.31,3.27-2.16c0.98-0.87,1.88-1.84,2.72-2.84
			c0.85-1,1.62-2.06,2.36-3.14c0.74-1.08,1.44-2.19,2.11-3.31c1.33-2.25,2.55-4.57,3.67-6.93C463.9,98.89,464.93,96.49,465.83,94.04
			z"/>
		<path class="st27" d="M440.86,54.88c1.51-3.28,4.44-5.13,6.97-6.16c3.11-1.26,6.61-1.36,9.75-0.18c8.87,3.33,7.1,13.12,6.69,14.95
			c-0.42-0.1-1.01-0.09-1.72,0.3c-0.3,0.16-0.54,0.33-0.74,0.5c-1.73-0.53-2.25-3.39-3.14-4.77c-1.21-1.87-5.91-0.09-7.94-1.42
			c-2.03-1.33-2.37-2.71-2.37-2.71c-7.81,1.24-7.23,10.03-7.23,10.03c-0.34-0.08-1.12-1.34-1.12-1.34S438.08,60.91,440.86,54.88z"/>
		<g>
			<polygon class="st25" points="533.83,194.82 533.83,197.78 540.53,199.53 540.71,192.99 			"/>
			<path class="st25" d="M549.03,194.2v3.54c0,0,6.44,1.93,6.42,1.95c-0.02,0.02,0.52-5.8,0.52-5.8L549.03,194.2z"/>
			<path class="st34" d="M509.56,57.02l-1.23,7.71l-2.6-10.28c0,0,3.64-1.77,3.8-1.12C509.7,53.97,509.56,57.02,509.56,57.02z"/>
			<polygon class="st12" points="488.9,73.61 487.78,86.94 499.54,86.38 498.18,74.58 			"/>
			<path class="st29" d="M498.83,80.19l-0.65-5.61l-9.28-0.96l-0.39,4.62C490.36,80.07,493.68,81.97,498.83,80.19z"/>
			<g>
				<path class="st29" d="M506.04,64.63c-0.71,1.46-0.33,3.11,0.84,3.67c1.17,0.57,2.69-0.16,3.4-1.62
					c0.71-1.46,0.33-3.11-0.84-3.67C508.27,62.44,506.75,63.17,506.04,64.63z"/>
				<path class="st12" d="M505.05,73.39c0.41-0.62,0.77-1.29,1.07-1.99c0.84-1.89,1.33-3.91,1.62-5.69
					c0.06-0.38,0.15-0.76,0.24-1.13c0.37-1.52,0.46-3.14,0.21-4.84c-0.82-5.45-5.21-9.8-10.67-10.56
					c-7.36-1.02-13.84,4.43-14.3,11.65c-0.76-0.49-1.63-0.64-2.43-0.35c-1.53,0.57-2.19,2.58-1.48,4.5c0.71,1.91,2.53,3,4.06,2.43
					c0.21-0.08,0.41-0.19,0.58-0.32c0.24,6.18,4.97,11.24,11.01,11.52c2.95,0.14,5.7-0.89,7.84-2.7c0.14-0.1,0.29-0.23,0.45-0.37
					C503.95,74.91,504.54,74.18,505.05,73.39z"/>
				<path class="st29" d="M498.59,61.67c0.02,0.72,0.03,1.42,0.07,2.11c0.04,0.67,0.12,1.39,0.39,1.87l0.05,0.08
					c0.02,0.03,0.03,0.04,0.07,0.09c0.06,0.09,0.14,0.17,0.19,0.27c0.11,0.2,0.18,0.42,0.19,0.66c0.02,0.48-0.24,0.9-0.55,1.16
					c-0.64,0.54-1.47,0.59-2.16,0.42c0.7-0.12,1.38-0.37,1.77-0.82c0.18-0.23,0.3-0.48,0.26-0.72c-0.01-0.12-0.05-0.23-0.12-0.34
					c-0.02-0.06-0.08-0.1-0.12-0.16l-0.09-0.12l-0.1-0.14c-0.23-0.38-0.3-0.77-0.34-1.15c-0.04-0.38-0.03-0.74,0-1.11
					C498.16,63.05,498.31,62.34,498.59,61.67z"/>
				<path class="st27" d="M494.42,62.62c-0.03,0.61-0.54,1.07-1.15,1.04c-0.61-0.03-1.07-0.54-1.04-1.15
					c0.03-0.61,0.54-1.07,1.15-1.04C493.98,61.51,494.44,62.02,494.42,62.62z"/>
				<path class="st27" d="M503.8,63.68c-0.03,0.61-0.54,1.07-1.15,1.04c-0.61-0.03-1.07-0.54-1.04-1.15
					c0.03-0.61,0.54-1.07,1.15-1.04C503.36,62.56,503.83,63.08,503.8,63.68z"/>
				<path class="st29" d="M492.58,70.05c0.29,0.25,0.59,0.48,0.91,0.69c0.31,0.21,0.64,0.4,0.98,0.57c0.68,0.33,1.39,0.56,2.13,0.65
					c0.74,0.09,1.49,0.03,2.21-0.16c0.72-0.2,1.41-0.53,2.06-0.93c-0.29,0.25-0.61,0.47-0.94,0.67c-0.33,0.2-0.69,0.35-1.05,0.48
					c-0.37,0.12-0.75,0.21-1.14,0.25c-0.39,0.04-0.78,0.03-1.17-0.01c-0.78-0.1-1.53-0.36-2.2-0.74
					C493.69,71.12,493.07,70.64,492.58,70.05z"/>
				<path class="st34" d="M495.79,60.15c-0.56-0.17-1.08-0.3-1.6-0.38c-0.52-0.08-1.03-0.09-1.52-0.03
					c-0.49,0.07-0.99,0.17-1.47,0.39c-0.25,0.08-0.47,0.23-0.73,0.34c-0.25,0.12-0.48,0.28-0.75,0.4c0.14-0.25,0.3-0.5,0.49-0.73
					c0.21-0.21,0.41-0.44,0.66-0.6c0.48-0.37,1.09-0.58,1.7-0.65c0.62-0.07,1.24,0.02,1.8,0.24
					C494.93,59.34,495.44,59.68,495.79,60.15z"/>
				<path class="st34" d="M500.63,60.69c0.44-0.39,1.01-0.63,1.6-0.74c0.59-0.11,1.23-0.08,1.81,0.11c0.58,0.19,1.14,0.52,1.54,0.97
					c0.22,0.2,0.37,0.47,0.53,0.71c0.14,0.26,0.25,0.54,0.34,0.81c-0.25-0.17-0.44-0.37-0.66-0.54c-0.23-0.15-0.42-0.34-0.65-0.47
					c-0.43-0.31-0.89-0.51-1.36-0.67c-0.47-0.16-0.98-0.24-1.5-0.26C501.75,60.6,501.21,60.63,500.63,60.69z"/>
			</g>
			<path class="st19" d="M495.38,136.14c0,0-2.45,16.64,13.62,19.54c16.08,2.9,36.08,2.03,36.08,2.03l2.78,38.22l8.39,0.43
				c0,0,21.61-53.11-8.3-61.41l-26.88,0.13l-11.07-0.79c0,0-11.2-2.77-11.33-2.24C498.54,132.58,495.64,136.4,495.38,136.14z"/>
			<path class="st33" d="M480.6,136.23c0,0-2.45,16.64,13.62,19.54c16.08,2.9,36.08,2.03,36.08,2.03l2.78,38.22l8.39,0.43
				c0,0,21.61-53.11-8.3-61.41l-26.88,0.13l-11.07-0.79c0,0-11.2-2.77-11.33-2.24C483.77,132.67,480.87,136.49,480.6,136.23z"/>
			<path class="st27" d="M500.85,81.63c0,0,11.07,1.41,13.88,3.69c2.81,2.28,16.34,35.84,16.34,35.84l-11.24,13.18l-23.9,0.18
				c0,0-17.92,9.66-29.17,0.53c-11.24-9.14-5.45-40.94,1.05-47.79c6.5-6.85,18.1-6.68,18.1-6.68S496.46,87.95,500.85,81.63z"/>
			<path class="st7" d="M479.42,98.32c0.4,1.83,0.64,3.69,0.81,5.55c0.1,0.93,0.14,1.87,0.19,2.8c0.03,0.94,0.05,1.87,0.04,2.81
				c-0.04,1.87-0.14,3.75-0.46,5.61c-0.31,1.85-0.77,3.7-1.63,5.37c0.58-1.78,0.86-3.61,1.07-5.45c0.2-1.84,0.27-3.69,0.3-5.54
				c0.04-1.85-0.01-3.71-0.07-5.57C479.6,102.04,479.52,100.18,479.42,98.32z"/>
			<path class="st7" d="M512.54,97.09c0.51,2.72,1.04,5.43,1.59,8.14c0.56,2.7,1.13,5.4,1.79,8.08c0.65,2.68,1.37,5.34,2.24,7.95
				c0.44,1.3,0.92,2.59,1.49,3.84c0.56,1.25,1.23,2.46,2.12,3.52c-1.02-0.95-1.77-2.15-2.44-3.37c-0.65-1.23-1.22-2.51-1.71-3.81
				c-0.5-1.3-0.92-2.62-1.33-3.95c-0.39-1.33-0.75-2.67-1.08-4.02c-0.32-1.35-0.62-2.7-0.9-4.06c-0.26-1.36-0.52-2.72-0.74-4.09
				C513.12,102.6,512.77,99.85,512.54,97.09z"/>
			<path class="st25" d="M518.1,126.74c-0.07-0.56-4.29-1.18-5.85-1.26c-1.18-0.06-8.97-0.32-11.62-0.44l0.19,0.68l-0.04,3.01
				l-0.44,2c2.33,0.15,8.01,0.37,9.2,0.6c1.58,0.31,4.33,1.51,4.33,1.51s1.14-0.26-0.31-0.89c-1.16-0.5-1.98-1.28-2.33-1.67
				c-0.2-0.22,0.02-0.62,0.16-0.58c3.95,1.03,4.35,1.21,4.35,1.21s4.64-0.03,0.03-1.07c-2.77-0.63-3.76-0.99-4-1.3
				c-0.1-0.13,0.08-0.58,0.25-0.59c2.4-0.15,6.7,0.7,5.52,0.14c-0.96-0.45-3.99-0.95-5.16-1.14c-0.07-0.01-0.19-0.45,0.13-0.48
				C514.8,126.29,518.17,127.26,518.1,126.74z"/>
			<path class="st7" d="M476.72,119.99c0.97,0.24,1.93,0.51,2.91,0.71c0.97,0.23,1.95,0.4,2.92,0.6c1.96,0.36,3.92,0.67,5.89,0.94
				c1.97,0.26,3.95,0.5,5.93,0.69c1.97,0.2,3.98,0.36,5.93,0.47l0.26,0.01l0.06,0.23c0.17,0.66,0.28,1.31,0.36,1.97
				c0.08,0.66,0.12,1.32,0.12,1.99c-0.01,0.67-0.06,1.33-0.17,1.99c-0.12,0.66-0.32,1.3-0.58,1.92l-0.02,0.05l-0.04,0.03l-2.17,1.46
				c-0.72,0.49-1.45,0.97-2.18,1.44c0.68-0.55,1.37-1.08,2.06-1.61l2.07-1.6l-0.07,0.08c0.22-0.6,0.37-1.22,0.45-1.85
				c0.08-0.63,0.11-1.27,0.09-1.91c-0.02-0.64-0.08-1.28-0.17-1.91c-0.09-0.63-0.22-1.27-0.38-1.87l0.32,0.24
				c-1.03-0.03-2.01-0.09-3.01-0.17c-1-0.07-2-0.15-2.99-0.26c-1.99-0.21-3.98-0.45-5.95-0.77c-1.98-0.32-3.94-0.7-5.89-1.16
				c-0.97-0.25-1.94-0.49-2.9-0.79C478.6,120.67,477.66,120.33,476.72,119.99z"/>
			<path class="st35" d="M568.09,104.38h-43.22l-12.26,29.91h-14.92c-0.58,0-1.07,0.57-1.05,1.05c0.02,0.58,0.47,1.05,1.05,1.05
				h56.03L568.09,104.38z"/>
			<path class="st36" d="M546.65,121.45c-0.26,1.27-1.37,2.13-2.48,1.9c-1.12-0.22-1.81-1.44-1.56-2.71
				c0.25-1.27,1.37-2.13,2.48-1.9C546.21,118.96,546.91,120.17,546.65,121.45z"/>
			<path class="st34" d="M509.8,49.72c0,0,3.69,0.12-0.18-3c-3.87-3.12-14.27-6.78-20.93-3.26c0,0-1.33-2.83-3.26-2.16
				c-1.93,0.68,1.25,2.63,1.25,2.63s-2.46-0.08-3.21,1.13c-0.56,0.89,0.95,0.93,1.77,0.89c-1.4,0.24-6.77,3.63-4.07,14.45
				c0.96-0.21,6.42-8.12,6.42-8.12s12.48,6.93,11.25,1.42c0,0,12.93,8.07,11.1,1.4C509.92,55.1,514.93,55.47,509.8,49.72z"/>
			<path class="st34" d="M481.16,60.47c0,0,1.03-0.36,2.15,0.52c1.11,0.88,0.99,3.98,0.99,3.98s5.31,3.42,4.75-11.06
				c-0.6-15.4-4.43,1.24-4.43,1.24L481.16,60.47z"/>
			<g>
				<path class="st7" d="M559.7,208.9l-14-5.41c-0.35-0.14-0.52-0.53-0.39-0.88l0.1-0.27c0.14-0.35,0.53-0.52,0.88-0.39l14,5.41
					c0.35,0.13,0.52,0.53,0.39,0.88l-0.1,0.27C560.44,208.86,560.05,209.03,559.7,208.9z"/>
				<path class="st27" d="M548.16,197.31l-2.16,4.08c-0.27,0.5-0.16,1.1,0.23,1.24l13.45,5.2c0.35,0.14,0.78,0.05,1.12-0.29
					c0.35-0.35,0.63-0.97,0.36-2.05c-0.55-2.17-4.34-4.11-5.72-6.31l-6.27-2.42C548.84,196.62,548.4,196.85,548.16,197.31z"/>
				<g>
					<path class="st7" d="M553.54,201.29L553.54,201.29c-0.07-0.1-0.05-0.27,0.06-0.38c0.49-0.48,1.87-1.59,3.43-0.65
						c0.09,0.05,0.11,0.21,0.04,0.34l0,0c-0.07,0.12-0.19,0.17-0.27,0.12c-1.41-0.84-2.59,0.15-3,0.55
						C553.72,201.36,553.61,201.37,553.54,201.29z"/>
				</g>
				<g>
					<path class="st7" d="M554.73,202.38L554.73,202.38c-0.07-0.1-0.05-0.27,0.06-0.38c0.49-0.48,1.87-1.59,3.43-0.65
						c0.09,0.05,0.11,0.21,0.04,0.34l0,0c-0.07,0.12-0.19,0.17-0.27,0.12c-1.41-0.84-2.59,0.15-3,0.55
						C554.9,202.45,554.79,202.46,554.73,202.38z"/>
				</g>
				<g>
					<path class="st7" d="M555.83,203.39L555.83,203.39c-0.07-0.1-0.05-0.28,0.06-0.38c0.49-0.48,1.87-1.59,3.43-0.65
						c0.09,0.05,0.11,0.21,0.04,0.34l0,0c-0.07,0.12-0.19,0.17-0.27,0.12c-1.41-0.84-2.59,0.15-3,0.55
						C556,203.47,555.89,203.48,555.83,203.39z"/>
				</g>
				<path class="st37" d="M549.83,204.02c0.27-3.86-1.41-4.95-2.43-5.25l-1.39,2.62c-0.27,0.5-0.16,1.1,0.23,1.24L549.83,204.02z"/>
			</g>
			<g>
				<path class="st7" d="M545.44,208.93l-14.34-4.42c-0.36-0.11-0.56-0.49-0.45-0.85l0.09-0.28c0.11-0.36,0.49-0.56,0.85-0.45
					l14.34,4.42c0.36,0.11,0.56,0.49,0.45,0.85l-0.09,0.28C546.18,208.84,545.8,209.04,545.44,208.93z"/>
				<path class="st27" d="M533.12,198.18l-1.87,4.22c-0.23,0.52-0.08,1.1,0.32,1.23l13.78,4.25c0.36,0.11,0.78,0,1.1-0.37
					c0.33-0.37,0.56-1.01,0.22-2.07c-0.7-2.12-4.62-3.8-6.14-5.9l-6.42-1.98C533.75,197.44,533.33,197.71,533.12,198.18z"/>
				<g>
					<path class="st7" d="M538.77,201.77L538.77,201.77c-0.08-0.09-0.07-0.27,0.03-0.38c0.46-0.52,1.75-1.72,3.38-0.89
						c0.09,0.05,0.12,0.2,0.06,0.33l0,0c-0.06,0.13-0.17,0.19-0.26,0.14c-1.46-0.74-2.58,0.33-2.95,0.76
						C538.95,201.84,538.84,201.85,538.77,201.77z"/>
				</g>
				<g>
					<path class="st7" d="M540.03,202.78L540.03,202.78c-0.08-0.09-0.07-0.27,0.03-0.38c0.46-0.52,1.75-1.72,3.38-0.89
						c0.09,0.05,0.12,0.2,0.06,0.33l0,0c-0.06,0.13-0.17,0.19-0.26,0.14c-1.46-0.74-2.58,0.33-2.95,0.76
						C540.2,202.84,540.09,202.86,540.03,202.78z"/>
				</g>
				<g>
					<path class="st7" d="M541.2,203.72L541.2,203.72c-0.08-0.09-0.07-0.27,0.03-0.38c0.46-0.52,1.75-1.72,3.38-0.89
						c0.09,0.05,0.12,0.2,0.06,0.33l0,0c-0.06,0.13-0.17,0.19-0.26,0.14c-1.46-0.74-2.58,0.33-2.95,0.76
						C541.37,203.78,541.26,203.79,541.2,203.72z"/>
				</g>
				<path class="st37" d="M535.25,204.75c0-3.87-1.75-4.84-2.79-5.07l-1.2,2.71c-0.23,0.52-0.08,1.1,0.32,1.23L535.25,204.75z"/>
			</g>
		</g>
	</g>
</g>
</svg>
