<?xml version="1.0" encoding="utf-8"?>
<!-- Generator: Adobe Illustrator 23.0.5, SVG Export Plug-In . SVG Version: 6.00 Build 0)  -->
<svg version="1.0" id="Layer_1" xmlns="http://www.w3.org/2000/svg" xmlns:xlink="http://www.w3.org/1999/xlink" x="0px" y="0px"
	 viewBox="0 0 624 320" style="enable-background:new 0 0 624 320;" xml:space="preserve">
<style type="text/css">
	.st0{opacity:0.3;fill:#35B24A;}
	.st1{fill:#FD6222;}
	.st2{fill:#FF9762;}
	.st3{fill:#F47257;}
	.st4{fill:#3C8F7C;}
	.st5{fill:#96D9C9;}
	.st6{fill:#50BFA5;}
	.st7{fill:#BA4C25;}
	.st8{fill:#F7CC7F;}
	.st9{fill:#FAE0B2;}
	.st10{fill:#FFFFFF;}
	.st11{fill:#007048;}
	.st12{fill:#00A859;}
	.st13{fill:#F7A491;}
	.st14{fill:#F8A492;}
	.st15{fill:#F47458;}
	.st16{fill:#184655;}
</style>
<rect x="0" class="st0" width="624" height="320"/>
<g>
	<g>
		<g>
			<path class="st1" d="M438.95,272.21c-6.4-5.35-9.68-10.3-10.27-11.24l22.5-14.21c0,0-0.03-0.05-0.1-0.15
				c0.02,0.03,1.89,2.79,5.64,5.76c4.78,3.8,10.34,6.22,16.53,7.2c7.87,1.25,15.99-1.37,21.41-3.79c6.05-2.7,10.1-5.72,10.14-5.75
				l19.95,3.86l-3.75,17.26c-7.8,5.98-20.19,11.89-31.67,14.17C470.28,289.09,452.09,283.2,438.95,272.21z"/>
		</g>
	</g>
	<path class="st2" d="M525.14,87.36l6.63-3.44l6.59,3.51c0.75,0.4,1.63-0.23,1.5-1.07l-1.22-7.37l5.38-5.18
		c0.61-0.59,0.28-1.63-0.56-1.75l-7.39-1.12l-3.27-6.72c-0.37-0.77-1.46-0.77-1.84-0.01l-3.35,6.68l-7.4,1.03
		c-0.84,0.12-1.19,1.15-0.58,1.75l5.32,5.25l-1.31,7.36C523.51,87.11,524.39,87.75,525.14,87.36z"/>
	<rect x="195.6" y="192.41" class="st3" width="259.83" height="27.2"/>
	<g>
		<path class="st4" d="M386.32,288.68c-58.59-30.98-122.23-50.05-187.57-56.2c2.42-28.35,4.84-56.7,7.26-85.05
			c75.54,7.11,149.13,29.16,216.87,64.98C410.7,237.83,398.51,263.25,386.32,288.68z"/>
		<path class="st5" d="M204.51,216.92c1.65-17.68,3.3-35.36,4.95-53.04c6.87,0.7,13.02-3.73,13.77-10.08
			c62.98,7.91,124.36,26.3,181.84,54.48c-2.56,5.81,0.44,12.98,6.63,16.19c-7.48,15.93-14.97,31.87-22.45,47.8
			c-5.69-2.95-12.43-0.51-14.98,5.29c-50.47-24.75-104.37-40.9-159.68-47.85C215.33,223.38,210.83,217.57,204.51,216.92z"/>
		<g>
			<path class="st6" d="M339.72,219.84c-5.28,15.21-21.57,22.96-36.67,18.31c-15.1-4.68-24.8-20.45-21.4-36.24
				c3.39-15.76,20.14-25.21,37.13-19.96C335.76,187.19,344.99,204.66,339.72,219.84z"/>
			<path class="st4" d="M302.92,232.8c0.42-1.7,0.84-3.4,1.27-5.09c-2.28-0.74-4.43-1.78-6.16-2.88c-1.44-0.92-1.96-2.78-1.19-4.27
				c0.03-0.06,0.06-0.12,0.09-0.18c0.86-1.64,2.96-2.16,4.56-1.11c1.62,1.07,3.52,2.02,5.64,2.61c3.09,0.86,5.5,0.31,6.06-1.83
				c0.53-2.03-0.88-3.83-4.61-6.31c-5.4-3.57-8.84-7.29-7.65-12.52c1.07-4.74,5.45-7.57,11.82-7.02c0.42-1.7,0.83-3.4,1.25-5.1
				c1.87,0.52,3.74,1.05,5.61,1.59c-0.4,1.57-0.8,3.14-1.2,4.71c2.04,0.68,3.67,1.44,4.99,2.22c1.61,0.95,2.18,2.94,1.3,4.44l0,0
				c-0.91,1.55-3.01,1.99-4.63,0.98c-1.22-0.76-2.77-1.53-4.76-2.1c-3.66-1.04-5.21,0.15-5.57,1.65c-0.44,1.77,1.26,3.43,5.53,6.49
				c6.02,4.16,7.82,7.93,6.5,12.71c-1.32,4.74-5.81,7.71-12.23,7.01c-0.47,1.82-0.94,3.64-1.41,5.45
				C306.39,233.77,304.65,233.28,302.92,232.8z"/>
			<path class="st6" d="M272.69,201.32c-14.93-3.45-30.01-6.25-45.2-8.41c0.35-2.73,0.7-5.45,1.05-8.18
				c15.4,2.19,30.69,5.03,45.83,8.53C273.82,195.95,273.26,198.64,272.69,201.32z"/>
			<path class="st6" d="M389.14,242.67c-13.9-6.8-28.04-12.98-42.38-18.55c0.91-2.58,1.82-5.16,2.72-7.74
				c14.55,5.65,28.89,11.92,42.98,18.81C391.35,237.69,390.25,240.18,389.14,242.67z"/>
		</g>
	</g>
	<g>
		<path class="st4" d="M413.7,191.37c-60.45,12.63-118.02,37.94-169.66,74.6c-13.95-24.08-27.91-48.16-41.86-72.24
			c59.71-42.38,126.27-71.65,196.17-86.25C403.46,135.44,408.58,163.4,413.7,191.37z"/>
		<path class="st5" d="M239.65,249.94c-8.6-15.11-17.2-30.21-25.8-45.32c5.46-3.81,7.54-11.24,4.57-16.77
			c50.88-33.76,106.4-58.17,164.48-72.32c1.34,6.24,7.54,10.04,13.88,8.66c3.32,17.43,6.65,34.85,9.97,52.28
			c-5.84,1.27-9.46,7.5-8.12,13.74c-51,12.42-99.75,33.86-144.44,63.51C251.22,248.19,244.68,246.44,239.65,249.94z"/>
		<g>
			<path class="st6" d="M341.08,166.28c4.55,15.45-3.17,31.97-16.9,37.88c-13.74,5.88-29.66-0.49-35.92-15.2
				c-6.25-14.69,0.87-32.85,16.33-39.48C320.03,142.84,336.54,150.85,341.08,166.28z"/>
			<path class="st4" d="M321.11,199.98c-0.63-1.62-1.26-3.24-1.89-4.85c-2.09,0.86-4.26,1.4-6.15,1.62
				c-1.57,0.18-2.99-0.96-3.24-2.64c-0.01-0.07-0.02-0.13-0.03-0.2c-0.28-1.84,0.99-3.6,2.75-3.78c1.79-0.18,3.72-0.63,5.62-1.51
				c2.76-1.28,4.23-3.25,3.45-5.31c-0.74-1.95-2.77-2.49-6.91-2.08c-5.96,0.6-10.57-0.17-12.6-5.08c-1.84-4.45-0.18-9.49,4.83-13.09
				c-0.64-1.62-1.27-3.23-1.91-4.85c1.67-0.78,3.35-1.55,5.02-2.31c0.58,1.5,1.15,3.01,1.73,4.51c1.89-0.76,3.51-1.18,4.91-1.41
				c1.72-0.27,3.24,0.95,3.42,2.7l0,0c0.19,1.81-1.11,3.5-2.88,3.73c-1.32,0.17-2.9,0.55-4.68,1.36c-3.28,1.5-3.76,3.43-3.2,4.86
				c0.66,1.69,2.83,1.92,7.69,1.65c6.75-0.52,10.17,1.33,11.85,5.98c1.66,4.61,0,9.83-5.13,13.35c0.66,1.74,1.33,3.49,1.99,5.23
				C324.21,198.55,322.66,199.26,321.11,199.98z"/>
			<path class="st6" d="M281.32,194.18c-12.94,6.76-25.63,14.11-38.03,22.05c-1.25-2.39-2.51-4.78-3.76-7.17
				c12.58-8.05,25.45-15.51,38.56-22.36C279.17,189.19,280.25,191.69,281.32,194.18z"/>
			<path class="st6" d="M390.24,153c-14.03,3.43-27.91,7.51-41.59,12.2c-0.76-2.63-1.52-5.26-2.29-7.89
				c13.87-4.76,27.94-8.89,42.17-12.38C389.1,147.63,389.67,150.32,390.24,153z"/>
		</g>
	</g>
	<g>
		<path class="st4" d="M423.35,244.21c-62.87-3.81-125.83,5.42-185.57,27.2c-8.22-27-16.45-54.01-24.67-81.01
			c69.07-25.18,141.87-35.85,214.56-31.45C426.23,187.37,424.79,215.79,423.35,244.21z"/>
		<path class="st5" d="M237.17,254.74c-5.01-16.9-10.01-33.8-15.02-50.7c6.3-2.24,10.09-8.88,8.43-15.02
			c58.31-19.18,119.03-28.08,179.9-26.37c-0.13,6.4,5.13,11.71,11.75,12.06c-0.76,17.75-1.53,35.49-2.29,53.24
			c-6.09-0.32-11.12,4.75-11.25,11.14c-53.45-1.51-106.77,6.31-157.98,23.15C249.04,256.12,242.96,252.68,237.17,254.74z"/>
		<g>
			<path class="st6" d="M357.2,200.67c0.91,16.16-10.59,30.1-25.58,32.18c-14.99,2.05-29.29-8.34-32.07-24.24
				c-2.78-15.87,8.52-31.56,25.38-33.88C341.8,172.4,356.3,184.54,357.2,200.67z"/>
			<path class="st4" d="M329.55,228c-0.25-1.73-0.5-3.47-0.75-5.2c-2.27,0.28-4.55,0.23-6.47-0.06c-1.6-0.24-2.74-1.73-2.6-3.41
				c0.01-0.07,0.01-0.14,0.02-0.2c0.16-1.86,1.82-3.22,3.6-2.93c1.81,0.3,3.84,0.37,5.92,0.03c3.03-0.5,4.95-2.03,4.66-4.22
				c-0.28-2.08-2.17-3.14-6.36-3.85c-6.05-1-10.44-2.97-11.31-8.26c-0.78-4.79,2.03-9.23,7.84-11.39c-0.25-1.73-0.51-3.46-0.76-5.2
				c1.84-0.31,3.68-0.61,5.52-0.9c0.22,1.61,0.44,3.21,0.66,4.82c2.05-0.23,3.75-0.22,5.2-0.06c1.77,0.2,2.99,1.78,2.76,3.52l0,0
				c-0.24,1.8-1.92,3.09-3.72,2.84c-1.35-0.18-3-0.24-4.95,0.07c-3.6,0.58-4.53,2.32-4.3,3.85c0.27,1.81,2.36,2.61,7.24,3.63
				c6.81,1.29,9.78,3.99,10.36,8.93c0.57,4.9-2.29,9.51-8.2,11.56c0.25,1.86,0.5,3.73,0.75,5.59
				C332.96,227.43,331.25,227.71,329.55,228z"/>
			<path class="st6" d="M291.46,211.82c-14.4,3.11-28.69,6.86-42.84,11.26c-0.69-2.65-1.37-5.29-2.06-7.94
				c14.35-4.46,28.84-8.26,43.44-11.41C290.49,206.43,290.98,209.13,291.46,211.82z"/>
			<path class="st6" d="M409.02,200.86c-14.71-0.4-29.41-0.14-44.07,0.78c-0.14-2.75-0.29-5.49-0.43-8.24
				c14.86-0.93,29.77-1.2,44.69-0.79C409.15,195.36,409.09,198.11,409.02,200.86z"/>
		</g>
	</g>
	<rect x="180.6" y="192.41" class="st2" width="274.83" height="114.35"/>
	<rect x="205.18" y="198.04" class="st7" width="236.53" height="8.88"/>
	<g>
		<path class="st4" d="M281.43,305.35h-53.18c-19.61,0-35.51-15.9-35.51-35.51v0c0-19.61,15.9-35.51,35.51-35.51h53.18
			c19.61,0,35.51,15.9,35.51,35.51v0C316.94,289.45,301.05,305.35,281.43,305.35z"/>
		<rect x="205.73" y="248.45" class="st8" width="30.58" height="17.78"/>
		<rect x="249.84" y="243.95" class="st8" width="54.24" height="3.32"/>
		<rect x="210.14" y="281.88" class="st8" width="90" height="4.1"/>
		<rect x="210.14" y="291.54" class="st8" width="90" height="4.1"/>
	</g>
	<rect x="208.18" y="221.61" class="st7" width="110.29" height="2.95"/>
	<g>
		
			<ellipse transform="matrix(0.9995 -0.0303 0.0303 0.9995 -5.2141 11.6343)" class="st9" cx="381.6" cy="178.01" rx="24.56" ry="24.56"/>
		<path class="st8" d="M398.47,166.17c6.54,9.32,4.29,22.17-5.03,28.71c-9.32,6.54-22.17,4.29-28.71-5.03
			c-6.54-9.32-4.29-22.17,5.03-28.71C379.07,154.6,391.93,156.85,398.47,166.17z"/>
		<g>
			<path class="st10" d="M383.97,192.5l-0.9-3.32c-1.52,0.34-3.07,0.45-4.39,0.39c-1.1-0.06-1.97-0.96-1.99-2.06l0-0.13
				c-0.02-1.22,1-2.2,2.22-2.12c1.24,0.08,2.6,0,3.97-0.37c1.99-0.54,3.15-1.68,2.77-3.08c-0.36-1.33-1.71-1.87-4.53-2.04
				c-4.08-0.25-7.11-1.3-8.02-4.7c-0.83-3.08,0.68-6.08,4.23-7.82l-0.9-3.32l3.43-0.93l0.83,3.08c1.29-0.29,2.38-0.4,3.31-0.4
				c1.14,0,2.08,0.92,2.09,2.07l0,0c0.02,1.18-0.95,2.15-2.14,2.12c-0.89-0.02-1.96,0.06-3.19,0.39c-2.27,0.61-2.74,1.79-2.48,2.77
				c0.31,1.15,1.73,1.56,5.01,1.87c4.56,0.34,6.76,1.81,7.61,4.96c0.84,3.11-0.64,6.36-4.47,8.15l0.96,3.57L383.97,192.5z"/>
		</g>
	</g>
	<g>
		
			<ellipse transform="matrix(0.3232 -0.9463 0.9463 0.3232 31.0942 556.7058)" class="st9" cx="404.77" cy="256.61" rx="24.56" ry="24.56"/>
		<path class="st8" d="M421.64,244.77c6.54,9.32,4.29,22.17-5.03,28.71c-9.32,6.54-22.17,4.29-28.71-5.03
			c-6.54-9.32-4.29-22.17,5.03-28.71S415.1,235.46,421.64,244.77z"/>
		<g>
			<path class="st10" d="M407.15,271.11l-0.9-3.32c-1.52,0.34-3.07,0.45-4.39,0.39c-1.1-0.06-1.97-0.96-1.99-2.06l0-0.13
				c-0.02-1.22,1-2.2,2.22-2.12c1.24,0.08,2.6,0,3.97-0.37c1.99-0.54,3.15-1.68,2.77-3.08c-0.36-1.33-1.71-1.87-4.53-2.04
				c-4.08-0.25-7.11-1.3-8.02-4.7c-0.83-3.08,0.68-6.08,4.23-7.82l-0.9-3.32l3.43-0.93l0.83,3.08c1.29-0.29,2.38-0.4,3.31-0.4
				c1.15,0,2.08,0.92,2.09,2.07l0,0c0.02,1.18-0.95,2.15-2.14,2.12c-0.89-0.02-1.96,0.06-3.19,0.4c-2.27,0.61-2.74,1.79-2.48,2.77
				c0.31,1.15,1.73,1.56,5.01,1.87c4.56,0.34,6.76,1.81,7.61,4.96c0.84,3.11-0.64,6.36-4.47,8.15l0.96,3.57L407.15,271.11z"/>
		</g>
	</g>
	<g>
		
			<ellipse transform="matrix(0.9999 -0.0167 0.0167 0.9999 -3.7133 5.9794)" class="st9" cx="357.03" cy="225.86" rx="24.56" ry="24.56"/>
		
			<ellipse transform="matrix(0.9135 -0.4068 0.4068 0.9135 -61.007 164.7912)" class="st8" cx="357.03" cy="225.86" rx="20.61" ry="20.61"/>
		<g>
			<path class="st10" d="M350.65,239.1l1.17-3.23c-1.44-0.6-2.77-1.39-3.81-2.2c-0.87-0.68-1.06-1.92-0.44-2.83l0.07-0.11
				c0.69-1,2.08-1.22,3.03-0.46c0.97,0.78,2.13,1.49,3.46,1.98c1.94,0.7,3.54,0.44,4.03-0.93c0.47-1.29-0.32-2.51-2.54-4.27
				c-3.2-2.55-5.07-5.15-3.87-8.45c1.09-3,4.05-4.58,7.95-3.97l1.17-3.23l3.34,1.21l-1.09,3c1.22,0.5,2.18,1.04,2.94,1.57
				c0.94,0.65,1.17,1.95,0.52,2.89l0,0c-0.67,0.98-2.01,1.21-2.97,0.51c-0.71-0.53-1.64-1.07-2.84-1.51
				c-2.21-0.8-3.27-0.11-3.62,0.85c-0.41,1.12,0.52,2.27,3.02,4.41c3.53,2.9,4.49,5.36,3.38,8.43c-1.1,3.03-4.18,4.84-8.34,4.1
				l-1.26,3.47L350.65,239.1z"/>
		</g>
	</g>
	<rect x="330.47" y="240.03" class="st10" width="111.24" height="59.62"/>
	<g>
		<g>
			<path class="st11" d="M47.94,305.02L47.94,305.02c0,0.96,0.93,1.74,2.07,1.74h515.86c1.14,0,2.07-0.78,2.07-1.74l0,0
				c0-0.96-0.93-1.74-2.07-1.74H50.01C48.86,303.28,47.94,304.06,47.94,305.02z"/>
		</g>
		<path class="st8" d="M526.09,310h-66.4c-2.66,0-4.82-2.16-4.82-4.82l0,0c0-2.66,2.16-4.82,4.82-4.82h66.4
			c2.66,0,4.82,2.16,4.82,4.82l0,0C530.91,307.84,528.75,310,526.09,310z"/>
		<path class="st10" d="M524.74,300.35h-66.4c-2.66,0-4.82-2.16-4.82-4.82l0,0c0-2.66,2.16-4.82,4.82-4.82h66.4
			c2.66,0,4.82,2.16,4.82,4.82l0,0C529.56,298.19,527.4,300.35,524.74,300.35z"/>
		<path class="st8" d="M532.53,290.71h-66.4c-2.66,0-4.82-2.16-4.82-4.82l0,0c0-2.66,2.16-4.82,4.82-4.82h66.4
			c2.66,0,4.82,2.16,4.82,4.82l0,0C537.35,288.55,535.19,290.71,532.53,290.71z"/>
	</g>
	<polygon class="st4" points="410.08,72.82 410.92,78.54 401.88,80.91 402.08,89.42 395.6,92.3 397.06,95.58 405.73,91.73 
		405.54,83.66 414.94,81.19 413.67,72.59 	"/>
	<g>
		<path class="st12" d="M302.54,63.73l1.74-4.33c-1.92-0.88-3.69-2.02-5.06-3.17c-1.15-0.96-1.35-2.65-0.46-3.85l0.11-0.15
			c0.98-1.33,2.88-1.55,4.13-0.48c1.27,1.1,2.81,2.12,4.6,2.84c2.6,1.05,4.77,0.76,5.51-1.06c0.7-1.73-0.32-3.41-3.23-5.91
			c-4.21-3.6-6.62-7.22-4.84-11.64c1.61-4.01,5.7-6.01,10.96-5l1.74-4.33l4.46,1.8l-1.61,4.01c1.63,0.74,2.9,1.51,3.91,2.27
			c1.24,0.93,1.49,2.69,0.57,3.94l0,0c-0.95,1.29-2.79,1.54-4.04,0.55c-0.94-0.75-2.16-1.53-3.77-2.18
			c-2.96-1.19-4.43-0.3-4.94,0.97c-0.61,1.5,0.6,3.1,3.89,6.12c4.65,4.1,5.82,7.48,4.17,11.58c-1.63,4.05-5.9,6.36-11.5,5.16
			L307,65.53L302.54,63.73z"/>
	</g>
	<path class="st1" d="M290.78,112.89c0.46,0.74,0.33,1.69-0.31,2.28c-1.25,1.15-3.24,2.5-5.66,3.41c-3.54,1.33-7.48,1.46-11.02-0.15
		c-2.21-1.01-4.24-2.82-5.67-5.16l-2.09,0.79c-0.71,0.27-1.5-0.09-1.77-0.8l-0.02-0.05c-0.27-0.71,0.09-1.5,0.8-1.77l1.72-0.64
		c-0.28-0.57-0.47-0.93-0.59-1.25c-0.2-0.54-0.39-1.2-0.54-1.94l-1.77,0.66c-0.71,0.27-1.5-0.09-1.77-0.8l0,0
		c-0.27-0.71,0.09-1.5,0.8-1.77l2.15-0.81c-0.34-2.69,0.02-5.34,1.02-7.55c1.71-3.77,4.93-6.44,8.64-7.83
		c2.16-0.81,3.94-1.05,5.37-1.07c1-0.01,1.83,0.77,1.87,1.77l0,0.03c0.05,1.03-0.76,1.9-1.79,1.94c-1.18,0.05-2.57,0.28-4.18,0.89
		c-2.36,0.89-4.44,2.52-5.64,5.06c-0.67,1.48-0.99,3.25-0.63,5.01l12.08-4.53c0.71-0.27,1.5,0.09,1.77,0.8l0,0
		c0.27,0.71-0.09,1.5-0.8,1.77l-12.62,4.74c0.17,0.61,0.34,1.22,0.48,1.6c0.18,0.48,0.36,0.97,0.66,1.59l12.64-4.75
		c0.73-0.27,1.54,0.1,1.81,0.82l0,0c0.27,0.73-0.1,1.54-0.82,1.81l-12.11,4.54c0.96,1.42,2.22,2.48,3.54,3.08
		c2.64,1.15,5.07,1.1,7.75,0.09c1.64-0.61,3-1.46,4.03-2.27C288.97,111.75,290.21,111.97,290.78,112.89L290.78,112.89z"/>
	<polygon class="st12" points="246.81,68.83 241.32,69.39 239.45,60.66 231.33,60.49 228.87,54.19 225.68,55.44 228.98,63.86 
		236.67,64.03 238.62,73.11 246.87,72.27 	"/>
	<g>
		<path class="st10" d="M349.19,56.31l5.87,1.94c0,0,9.3-3.01,10.22-4.91c0.92-1.9,1.17-6.5,2.5-6.62c1.32-0.13,3.88,0.3,4.49,3.45
			c0.44,2.29-2.9,8.89-2.38,9.59c0.33,0.44,3.67,1.65,6.12,2.49c1.61,0.55,2.78,1.98,3.03,3.69l0,0.01
			c0.17,1.16-0.49,2.29-1.57,2.71l-1.69,0.65l0.54,1.74c0.4,1.3-0.31,2.69-1.59,3.12l-1.31,0.44l0.42,1.06
			c0.54,1.37-0.22,2.92-1.62,3.33l-1.14,0.33l0.05,0.31c0.2,1.27-0.6,2.49-1.83,2.81l-1.13,0.3l-15.63-5.16
			c-1.46-0.48-2.81-1.27-3.96-2.3l-5.19-2.74c-0.56-0.29-0.81-0.96-0.6-1.57l4.81-13.85C347.81,56.45,348.53,56.09,349.19,56.31z"/>
	</g>
	<path class="st8" d="M215.37,124.37l1.24-6.16l5.78-2.47c0.66-0.28,0.71-1.19,0.08-1.55l-5.47-3.08l-0.56-6.26
		c-0.06-0.71-0.92-1.04-1.44-0.56l-4.62,4.25l-6.12-1.4c-0.7-0.16-1.27,0.55-0.98,1.2l2.61,5.71l-3.22,5.39
		c-0.37,0.61,0.13,1.38,0.84,1.3l6.24-0.72l4.13,4.73C214.34,125.31,215.23,125.07,215.37,124.37z"/>
	<g>
		<g>
			<path class="st13" d="M112.98,273.62c0,0-7.7,5.55-8.91,7.21c-1.75,2.39,13.04,6.85,11.43,4.05c-0.37-0.64-1.44-2.8-1.48-3.02
				c-0.25-1.14,2.89-4.2,2.89-4.2L112.98,273.62z"/>
			<path class="st11" d="M119.5,289.55l-5.23-7.39c0,0-3.26-0.76-6.61-4.53c0,0-3.01,1.15-4.86,3.64c0,0,3.5,3.77,8.89,8.02
				c0,0,3.2,2.83,7.62,4.32C123.72,295.11,119.5,289.55,119.5,289.55z"/>
			<path class="st14" d="M48.64,172.45c0,0,0.95,0.84,1.28,1.09c0.39,0.3,1.63,1.11,1.63,1.11s4.49,2.56,4.65,2.22
				c0.15-0.34,0.15-1.31-0.08-1.56s-0.87-0.52-1.09-0.77c-0.22-0.26-0.3-0.77-0.01-1.05c0.29-0.28,1.82,0.55,1.82,0.55
				s1.24,0.69,1.76,1.53c1.8,2.89,1.26,3.06,1.5,3.43c0.29,0.43,6.59,3.29,6.59,3.29s18.84,7.83,19.86,8.26h0.01
				c0.14,0.87-0.33,1.68-0.57,2.45c-0.45,2.69-1.25,2.87-1.86,5.47c-2.89-1.46-22.9-12.48-24.93-13.63c0,0-3.05-0.52-4.95-0.91
				c-1.9-0.39-3.56-1.59-4.09-1.78c-0.08-0.03-1.78-0.76-3.65-2.22c-1.61-1.25,0.47-0.78,0.47-0.78s3.39,1.8,3.48,1.51
				c0.07-0.22-1.84-1.1-3.64-2.46c-0.46-0.35-0.92-0.7-1.33-1.02c-1.09-0.85-0.9-1.74,0.38-1.03c0.45,0.25,1.19,0.69,1.68,1.07
				c0.53,0.41,1.14,0.63,1.63,0.91c0.98,0.56,1.69,0.98,1.69,0.93c0-0.07,0.27-0.09-0.21-0.48c-0.58-0.47-2.02-1.19-2.81-1.94
				c-0.45-0.42-1.45-1.26-1.45-1.26s-1.28-1.53-1.22-1.63c0.34-0.55,1.5,0.26,2.04,0.91c0.55,0.25,1.58,1.15,1.58,1.15
				s2.47,1.38,2.66,1.04c0.08-0.14-1.34-1.17-2.58-2.38c-1.15-1.13-2.14-2.45-1.95-2.7C47.23,171.33,48.64,172.45,48.64,172.45z"/>
			<path class="st7" d="M101.21,216.57l1.22,6.02l30.62,27.85l-21.92,22.18l5.92,6.05c0,0,32.37-23.77,33.53-26.88
				c1.8-4.8-23.2-36.56-23.2-36.56L101.21,216.57z"/>
			<path class="st13" d="M79.98,289.4c0,0-6.18,6.73-7.39,8.39c-1.75,2.39,11.3,5.91,9.68,3.11c-0.37-0.64-1.44-2.8-1.48-3.02
				c-0.25-1.14,2.89-4.2,2.89-4.2L79.98,289.4z"/>
			<path class="st11" d="M89.15,300.69l-8.5-3.11c0,0-3.21,1.46-8.11,0.26c0,0-1.73,2.43-1.84,5.53c0,0,16.11,2.05,20.6,0.77
				C95.78,302.87,89.15,300.69,89.15,300.69z"/>
			<path class="st2" d="M102.26,219.36l1.37,38l-27.17,33.31l7.35,4.02c0,0,30.05-25.79,33.35-32.98
				c2.05-4.46,8.93-44.74,8.93-44.74L102.26,219.36z"/>
			<path class="st9" d="M126.95,216.24c-2.49-5.62-2.2-45.91-11.89-55.35c-3.41,0.58-5.84,0.9-6.41,1.05
				c-0.51,4.15-1.06,19.38-1.4,33.34c-0.23,9.3,0.01,19.05-1.14,24.19C105.4,222.66,129.23,221.37,126.95,216.24z"/>
			<path class="st12" d="M100.72,164.02c-2.72,0.62-4.72,1.06-8.29,6.32c-3.41,5.04-10.99,17.01-10.99,17.01l-19.96-8.87
				l-0.93,10.11c0,0,22.59,11.74,25.77,10.68c3.19-1.06,12.15-14.15,12.81-15.04c0.16-0.21-0.75,13.99-0.75,16.26
				c0,2.27-4.33,22.01-4.33,22.01s10.99,2.7,13.13-2.21c6.57-15.06,1.53-58.37,1.53-58.37S102.68,163.57,100.72,164.02z"/>
			<path class="st13" d="M141.73,120.9c-0.84-0.7-1.21-2.39-1.34-3.47l-0.37-1.43c0.34-0.14,7-1.09,9.01-1.14
				c0.2,0.64,0.29,1.17,0.23,1.51c-0.3,1.64-2.39,12.3-2.39,12.3l-5.73,0.11C141.12,128.78,142.37,122.47,141.73,120.9z"/>
			<path class="st12" d="M117.31,163.25c0,0,3.93,11.19,7.17,9.58c3.24-1.61,21.43-20.16,21.61-21.05
				c0.18-0.9,1.44-23.66,1.44-23.66l-7.19-1.43l-4.14,18.64c0,0-13.31,12.72-16.01,13.98C117.49,160.56,117.31,163.25,117.31,163.25
				z"/>
			<path class="st12" d="M127.93,218.93c2.18,0,2.98-0.3,4.43-0.74c0,0-4.15-23.38-6.56-46.55c-0.95-9.16-1.84-12.91-5.61-12.25
				c-1.09,0.19-4.05,1.32-5.13,1.5c9.49,26.86,9.53,47.53,10.87,53.53C126.6,217.43,127.19,218.95,127.93,218.93z"/>
			<path class="st13" d="M114.06,156.84l0.99,4.06c0,0,0.23,3.53-1.41,3.85c-1.98,0.38-4.92-2.58-4.92-2.58l-1.7-11.44
				L114.06,156.84z"/>
			<path class="st13" d="M114.06,156.84l0.99,4.06c0,0,0.23,3.53-1.41,3.85c-1.98,0.38-4.92-2.58-4.92-2.58l-1.7-11.44
				L114.06,156.84z"/>
			<path class="st15" d="M107.04,150.78l7.02,6.06l0.74,3.03C112.12,159.22,108.29,156.27,107.04,150.78z"/>
			<path class="st13" d="M114.08,140.25c1.7-0.01,3.23,1.17,3.82,2.87c0.49,1.4,1.13,3.49,1.53,5.88c0.74,4.4-1.76,8.43-3.94,8.75
				c-2.18,0.32-7.38-1.12-8.52-7.36c-0.49-2.67-1.14-6.18,1.06-8.02C109.74,140.93,112.13,140.25,114.08,140.25z"/>
			<path class="st16" d="M107.68,155.13c0,0-7.69-6.85-8.02-12.2c-0.34-5.35,4.61-8.22,8.83-8.37c1.91-0.07,3.2,0.02,5.17,0.27
				c4.23,0.53,6.98,2.41,6.01,5.88c-1.3,4.66-10.09,0.73-11.88,2.17c-1.48,1.19,0.92,4.06-0.52,5.16c-1.35,1.03-0.66,0.68-0.22,2.64
				C107.5,152.63,107.68,155.13,107.68,155.13z"/>
			<path class="st13" d="M104.71,148.93c0.19,1.28,0.97,2.23,1.75,2.11c0.78-0.11,1.25-1.25,1.06-2.53
				c-0.19-1.28-0.97-2.23-1.75-2.11C105,146.51,104.52,147.64,104.71,148.93z"/>
			<path class="st15" d="M142.12,115.98c0,0,1.24,0.71,2.48,2.35c0,0,3.24-2.08,3.13-2.74c-0.15-0.87-3.46,0.75-3.46,0.75
				L142.12,115.98z"/>
		</g>
		<g>
			<path class="st12" d="M58.53,72.94l87.53,45.07c4.71,2.43,10.67,0.24,13.3-4.88l22.35-43.41c2.64-5.12,0.95-11.23-3.76-13.66
				L90.42,10.99c-4.71-2.43-10.67-0.24-13.3,4.88L54.77,59.28C52.13,64.4,53.82,70.51,58.53,72.94z"/>
			
				<rect x="103.55" y="19.83" transform="matrix(0.4578 -0.8891 0.8891 0.4578 -9.7575 141.293)" class="st11" width="14.81" height="117.64"/>
		</g>
		
			<rect x="83.96" y="22.34" transform="matrix(0.8887 0.4585 -0.4585 0.8887 24.3312 -41.1582)" class="st10" width="25.94" height="14.39"/>
		<path class="st13" d="M142.09,115.91c-0.15-0.41-0.45-0.99-0.3-1.21c0.93-1.43-0.07-2.98-0.75-1.76c-0.39,0.7-1.08,2.26-1.03,3.06
			c0.04,0.58,0.63,2.81,0.63,2.81S142.96,118.25,142.09,115.91z"/>
	</g>
	<g>
		<g>
			<g>
				<path class="st13" d="M505.78,265.89c0,0-0.54,6.71-0.1,8.89c0.23,1.17,1.54,3.57,0.94,4.67c-0.6,1.1-1.28,1.37-1.28,1.37
					l-15.5,0.25c-0.84,0.01-0.29-0.52,0.39-1.01c1.11-0.81,2.01-1.34,5.57-3.03c0.23-0.11,1.08-0.64,1.38-0.82
					c0.77-0.46,1.55-1.19,2.22-1.93c1.11-1.22,1.21-7.13,1.21-7.13L505.78,265.89z"/>
				<path class="st11" d="M493.67,176.69c0,0-6.66-3.28-5.38,3.86c1.28,7.14,11.04,87.47,11.04,87.47l9.14,0.51
					c0,0,1.17-26.78,0.91-30.63c-0.26-3.85-1.77-9.8-1.77-9.8l-0.78-23.76l-8.63-29.33L493.67,176.69z"/>
				<path class="st16" d="M497.19,276.2c4.1,1.03,7.13,0.33,8.82-0.34c0.44,1.22,1.02,2.75,0.71,3.63
					c-0.38,1.08-0.87,1.56-1.34,1.57c-3.74,0.1-13.76-0.01-16.61,0.03c-0.4,0.01-0.62-0.45-0.36-0.75
					C489.11,279.5,496.89,276.38,497.19,276.2z"/>
				<path class="st13" d="M488.29,128.42c0,0-5.63-10.84-6.51-14.82c-0.87-3.98-3.9-24.01-3.64-25.3c0.26-1.29,5.04-4.4,4.45-5.49
					c-0.59-1.1-5.15-1.1-6.19-1c-1.04,0.09-3.14,0.7-4.04,1.44c-0.9,0.74,1.01,24.75,1.58,29.92c0.57,5.17,7.57,21.09,7.57,21.09
					L488.29,128.42z"/>
				<g>
					<path class="st13" d="M532.17,212.88c0,0,4.65-4.87,5.68-6.84c0.55-1.05,1.06-3.74,2.21-4.22c1.16-0.48,1.86-0.26,1.86-0.26
						l12.19,9.57c0.66,0.52-0.11,0.58-0.94,0.54c-1.37-0.08-2.41-0.23-6.24-1.16c-0.25-0.06-1.24-0.18-1.59-0.23
						c-0.89-0.13-1.96-0.05-2.94,0.1c-1.63,0.25-5.43,4.77-5.43,4.77L532.17,212.88z"/>
					<path class="st16" d="M545.34,210.29c-2.53-3.39-5.33-4.75-7.07-5.29c0.43-1.22,0.9-2.82,1.69-3.31
						c0.97-0.6,1.64-0.48,2.02-0.19c2.97,2.28,10.74,8.53,12.98,10.3c0.31,0.25,0.2,0.74-0.19,0.81
						C553.69,212.81,545.69,210.34,545.34,210.29z"/>
					<path class="st16" d="M532.28,125.12c-2.89-6.07-9.3-9.4-15.5-7.79c-2.23-3.01-5.67-5.12-9.25-5.63
						c-7.07-1-16.19,2.43-15.26,9.81c-2.23,5.16-1.69,12.27,2.77,15.76c-0.82,6.78,5.98,12.8,14.03,11.99
						c3.24,4.47,8.87,7.09,14.14,6.07c1.26-0.25,3.18-0.71,3.51-0.65c-0.41-0.05,9.18,6.24,15.8-4.95
						C549.27,138.31,542.63,125.55,532.28,125.12z"/>
					<path class="st12" d="M490.99,179.28c0,0,14.94-6.64,15.18-5.89c1.87,6.03,7.7,4.09,11.16,14.71
						c1.45,4.45,2.94,34.05,2.94,34.05s5.89-4.89,14.31-13.43c0.65-0.66,6.98,5.36,6.98,5.36c-16.71,22.58-23.92,23.76-26.71,22.49
						c-5.82-2.64-18.1-39.55-18.08-39.55C495.28,194.16,490.99,179.28,490.99,179.28z"/>
					<path class="st13" d="M515.76,137.58c0,0,21.59-0.03,26.22-0.29c4.18-0.24,20.78,0.18,21.43,0.11
						c0.65-0.08,4.94-7.34,5.65-6.56s-2.39,3.6-1.43,4.33c0.96,0.73,11.26-0.91,11.12-0.15c-0.26,1.42-6.27,1.24-6.26,1.93
						c0.01,0.69,6.29-0.39,6.72,0.76c0.43,1.14-6.04,0.47-6.3,0.98c-0.26,0.51,6,1.44,5.36,2.5c-0.35,0.58-5.55-0.96-5.52-0.18
						c0.03,0.79,3.82,2.58,3.35,3.2c-0.47,0.63-2.98-1.92-5.18-1.95c-2.2-0.03-3.78-1.18-7.29-0.22
						c-1.73,0.48-14.98,2.09-26.16,3.05c-11.47,0.98-20.87,1.29-20.87,1.29L515.76,137.58z"/>
					<path class="st8" d="M483.73,152.85c-0.29-3.47,0.4-6.14,0.55-7.29c-1.05-3.6-3.28-11.29-4.08-12.79c0,0,3.76-7.23,7.61-7.18
						c0,0,3.93,8.86,6.97,10.45c0.04-0.01,1.08,0.46,1.53,0.46c2.93-0.02,13.19-0.33,15.1-0.37l-1.08,14.55
						c-7.43,14.56-5.42,22.21-2.59,25.03c1.33,1.33-18.54,6.73-19.46,4.84C487.21,178.33,484.31,159.86,483.73,152.85z"/>
					<path class="st8" d="M506.2,136.68c1.89-0.9,15.58-0.45,15.58-0.45s1.91,9.53,0.37,11.82c0,0-12.24,1.82-11.89,2.83
						L506.2,136.68z"/>
					<path class="st13" d="M502.61,130.55c0,0-0.24,5.2,0,7.36c0.24,2.16-2.22,7.24-6.81,7.33c-4.59,0.09-0.67-4.87-0.27-7
						c0.4-2.13,0.88-10.47,0.88-10.47L502.61,130.55z"/>
					<path class="st15" d="M496.42,127.77c0,0-0.11,1.94-0.27,4.18c1.45,1.73,3.67,2.61,6.38,1.56c0.03-1.61,0.09-2.96,0.09-2.96
						L496.42,127.77z"/>
					<path class="st13" d="M502.99,115.06c0,0,2.6,0.78,4.06,3.38c1.46,2.6,2.07,10-3.53,13.05c-5.6,3.05-9.44-2.07-9.19-6.79
						C494.59,119.97,496.03,113.75,502.99,115.06z"/>
					<path class="st13" d="M493.2,123.13c0.38,1.17,1.24,1.94,1.92,1.72c0.68-0.22,0.93-1.35,0.55-2.52
						c-0.38-1.17-1.24-1.94-1.92-1.72C493.07,120.83,492.83,121.96,493.2,123.13z"/>
					<path class="st16" d="M502.21,114.85c0,0,2.84,7.78,5.75,8.66c2.91,0.88,2.61,4.67,2.61,4.67s0.54-8.77-2.09-10.98
						C505.85,115,502.21,114.85,502.21,114.85z"/>
					<path class="st13" d="M506.68,125c-0.47,1.2-0.2,2.43,0.61,2.75c0.81,0.32,1.85-0.39,2.32-1.59c0.47-1.2,0.2-2.43-0.61-2.75
						C508.2,123.09,507.16,123.8,506.68,125z"/>
				</g>
				<path class="st15" d="M471.54,85.1c0,0,6.33,0.28,7.07,0.28c0.74,0,2.9-2.24,2.9-2.24L471.54,85.1z"/>
			</g>
			<g>
				
					<ellipse transform="matrix(0.9755 -0.2199 0.2199 0.9755 -1.8142 105.3203)" class="st9" cx="472.15" cy="60.81" rx="24.56" ry="24.56"/>
				<path class="st8" d="M489.02,48.97c6.54,9.32,4.29,22.17-5.03,28.71c-9.32,6.54-22.17,4.29-28.71-5.03
					c-6.54-9.32-4.29-22.17,5.03-28.71C469.62,37.4,482.48,39.65,489.02,48.97z"/>
				<g>
					<path class="st10" d="M474.52,75.31l-0.9-3.32c-1.52,0.34-3.07,0.45-4.39,0.39c-1.1-0.06-1.97-0.96-1.99-2.06l0-0.13
						c-0.02-1.22,1-2.2,2.22-2.12c1.24,0.08,2.6,0,3.97-0.37c1.99-0.54,3.15-1.68,2.77-3.08c-0.36-1.33-1.71-1.87-4.53-2.04
						c-4.08-0.25-7.11-1.3-8.02-4.7c-0.83-3.08,0.68-6.08,4.23-7.82l-0.9-3.32l3.43-0.93l0.83,3.08c1.29-0.29,2.38-0.4,3.31-0.4
						c1.14,0,2.08,0.92,2.09,2.07l0,0c0.02,1.18-0.95,2.15-2.14,2.12c-0.89-0.02-1.96,0.06-3.19,0.4c-2.27,0.61-2.74,1.79-2.48,2.77
						c0.31,1.15,1.73,1.56,5.01,1.87c4.56,0.34,6.76,1.81,7.61,4.96c0.84,3.11-0.64,6.36-4.47,8.15l0.96,3.57L474.52,75.31z"/>
				</g>
			</g>
		</g>
		<path class="st13" d="M478.61,85.37l2.61-2.35c0,0-1.23-1.47-0.72-1.76c0.83-0.46,2.26,1.32,2.13,1.75
			c-0.13,0.43-1.66,1.83-1.66,1.83L478.61,85.37z"/>
	</g>
</g>
</svg>
