<?xml version="1.0" encoding="utf-8"?>
<!-- Generator: Adobe Illustrator 23.0.5, SVG Export Plug-In . SVG Version: 6.00 Build 0)  -->
<svg version="1.0" id="Layer_1" xmlns="http://www.w3.org/2000/svg" xmlns:xlink="http://www.w3.org/1999/xlink" x="0px" y="0px"
	 viewBox="0 0 624 320" style="enable-background:new 0 0 624 320;" xml:space="preserve">
<style type="text/css">
	.st0{opacity:0.3;fill:#35B24A;}
	.st1{fill:#CCCCCC;}
	.st2{fill:#FFB93E;}
	.st3{fill:#FFA412;}
	.st4{fill:#FFFFFF;}
	.st5{fill:#EA8E50;}
	.st6{fill:#1E3D70;}
	.st7{fill:#E2810E;}
	.st8{fill:#00A26D;}
	.st9{fill:#007048;}
	.st10{fill:#FFB07B;}
	.st11{fill:#D2E3FC;}
	.st12{fill:#A4C8FC;}
	.st13{fill:#233862;}
	.st14{fill:#FFB27D;}
	.st15{fill:#ED975D;}
	.st16{fill:#EBF3FF;}
	.st17{fill:#F99746;}
	.st18{fill:#EF6A1C;}
	.st19{fill:#2C3A64;}
	.st20{fill:#ED985F;}
	.st21{fill:#ED7D2B;}
</style>
<rect x="0" class="st0" width="624" height="320"/>
<g>
	<g>
		<g>
			<g>
				<path class="st1" d="M366.88,268.64c0-0.04,0.24-4.9-2.11-6.02l0.17-0.16c1.08,0.38,2.27,1.54,2.74,3.17
					c0.35,1.22,0.09,1.49,0.09,1.53L366.88,268.64z"/>
			</g>
			<g>
				<path class="st1" d="M351.32,256.04c0,0,0.8,6.25,4.62,8.09c3.81,1.83,9.2-1.46,9.2-1.46s-0.8-6.25-4.62-8.09
					C356.7,252.76,351.32,256.04,351.32,256.04z"/>
				<g>
					<path class="st1" d="M366.48,277.75c-0.04-0.24-0.89-5.97,1.27-12.34c2.08-6.13,0.93-11.32,0.92-11.37h1.53
						c0.04,0.22,0.15,5.32-1.48,12.31c-1.47,6.29,1.27,11.41,0.69,11.41H366.48z"/>
				</g>
				<g>
					<path class="st1" d="M369.69,260.86c0.01-0.03,0.74-4.22,2.7-4.7l0,0c-0.88,0.11-2,0.74-2.62,1.92
						c-0.46,0.87-0.3,1.12-0.31,1.15L369.69,260.86z"/>
				</g>
			</g>
			<path class="st1" d="M376,261.29c-2.94-0.59-4.58-4.75-4.58-4.75s3.13-3.19,6.06-2.6c2.94,0.59,4.58,4.75,4.58,4.75
				S378.94,261.88,376,261.29z"/>
			<g>
				<path class="st2" d="M353.17,247.74c-4.68-7.11-2.71-16.66,4.39-21.34c7.11-4.68,16.66-2.71,21.34,4.39
					c4.68,7.11,2.71,16.66-4.39,21.34C367.41,256.82,357.85,254.85,353.17,247.74z"/>
				<g>
					<path class="st3" d="M373.86,251.14c-3.13,2.06-6.88,2.78-10.55,2.03c-3.67-0.76-6.83-2.9-8.89-6.03
						c-2.06-3.13-2.78-6.88-2.03-10.55c0.76-3.67,2.9-6.83,6.03-8.89c3.13-2.06,6.88-2.78,10.55-2.03s6.83,2.9,8.89,6.03
						c2.06,3.13,2.78,6.88,2.03,10.55C379.13,245.92,376.99,249.08,373.86,251.14z M358.88,228.4c-6.08,4-7.77,12.21-3.76,18.29
						c4,6.08,12.21,7.77,18.29,3.76c6.08-4,7.77-12.21,3.76-18.29C373.16,226.08,364.96,224.39,358.88,228.4z"/>
				</g>
				<g>
					<path class="st3" d="M369.99,241.76c-0.14-0.27-0.3-0.49-0.48-0.66c-0.18-0.17-0.4-0.29-0.66-0.38
						c-0.26-0.08-0.56-0.12-0.91-0.13c-0.35,0-0.75,0.02-1.22,0.09c-0.81,0.1-1.55,0.16-2.24,0.18c-0.69,0.02-1.32-0.05-1.89-0.19
						c-0.57-0.14-1.08-0.39-1.53-0.74c-0.45-0.35-0.84-0.84-1.15-1.48c-0.28-0.55-0.43-1.1-0.46-1.66
						c-0.03-0.55,0.05-1.09,0.24-1.61c0.19-0.52,0.49-1.01,0.89-1.48c0.4-0.46,0.9-0.88,1.5-1.26l-1.04-2.08l1.68-0.84l1.06,2.11
						c0.64-0.22,1.26-0.34,1.87-0.34c0.61,0,1.18,0.1,1.72,0.31c0.53,0.21,1.02,0.53,1.47,0.96c0.45,0.43,0.83,0.97,1.16,1.62
						l-3.03,1.52c-0.39-0.78-0.85-1.27-1.39-1.49c-0.54-0.21-1.1-0.17-1.68,0.12c-0.31,0.16-0.56,0.34-0.75,0.54
						c-0.18,0.2-0.31,0.42-0.38,0.64c-0.07,0.23-0.09,0.46-0.05,0.7c0.03,0.24,0.11,0.48,0.23,0.72c0.12,0.24,0.26,0.44,0.43,0.6
						c0.17,0.16,0.38,0.28,0.63,0.36c0.25,0.08,0.56,0.12,0.92,0.13c0.36,0,0.78-0.02,1.28-0.07c0.8-0.09,1.55-0.14,2.24-0.15
						c0.69-0.01,1.32,0.06,1.89,0.2c0.57,0.15,1.08,0.4,1.53,0.75c0.45,0.35,0.83,0.84,1.15,1.47c0.29,0.57,0.44,1.13,0.47,1.69
						c0.03,0.55-0.06,1.09-0.25,1.6c-0.2,0.51-0.5,1-0.92,1.46c-0.41,0.46-0.92,0.87-1.52,1.25l0.97,1.94l-1.67,0.83l-0.97-1.93
						c-0.61,0.23-1.23,0.39-1.87,0.46c-0.64,0.08-1.26,0.04-1.86-0.12c-0.6-0.16-1.17-0.45-1.7-0.88c-0.53-0.43-0.99-1.04-1.38-1.82
						l3.03-1.52c0.23,0.46,0.49,0.81,0.77,1.06c0.28,0.24,0.58,0.4,0.89,0.48c0.31,0.08,0.62,0.08,0.93,0.02
						c0.31-0.06,0.61-0.17,0.9-0.31c0.33-0.16,0.6-0.35,0.8-0.56c0.21-0.21,0.36-0.43,0.45-0.66c0.09-0.23,0.13-0.47,0.11-0.72
						C370.18,242.24,370.11,242,369.99,241.76z"/>
				</g>
			</g>
		</g>
		<polygon class="st4" points="381.87,276.26 381.87,276.27 381.57,280.99 380.43,298.52 359.1,298.52 357.84,281.23 357.5,276.47 
			357.48,276.26 		"/>
		<path class="st1" d="M381.87,276.27l-0.31,4.72c-1.61-0.56-6.07-1.9-11.89-1.9c-7.35,0-11.83,2.14-11.83,2.14l-0.35-4.76
			L381.87,276.27z"/>
		<polygon class="st4" points="382.62,278.76 356.71,278.76 356.41,275.74 382.94,275.74 		"/>
		<polygon class="st1" points="380.75,299.45 358.64,299.45 358.39,298.4 381.03,298.4 		"/>
	</g>
	<g>
		<g>
			<path class="st5" d="M514.28,186.62l-2.07,1.68c0,0-5.66-2.03-6.94,4.7c0,0-0.34,2.87,1.48,2.87c1.82,0.01,1.07-0.31,3.64-0.24
				c2.57,0.08,4.71-1.28,5.08-3.37l1.23-1.77L514.28,186.62z"/>
			<path class="st6" d="M514.52,190.23c-1.65-1.72-1.52-3-1.52-3s19.13-15.66,21.07-16.94c1.32-0.87,15.41-13.36,21.99-20.97
				c3.27-3.78,7.31-2.31,11.94-0.98l3.81,1.09c4.6,1.32,5.8,7.76,2.02,10.89c-10.64,8.81-28.33,18.72-31.64,20.8
				c-8.22,5.17-24.31,11.31-24.31,11.31S515.93,191.71,514.52,190.23z"/>
		</g>
		<path d="M492.69,286.44c0,0-4.64,3.48-11.75,1.64c0,0-5.73-1.31-6.99,1.55c0,0,8.8,4.47,11.02,5.69c1.68,0.92,3.43,2.37,4.67,3.5
			c0.98,0.89,2.5,0.77,3.34-0.26c0.39-0.48,0.83-1.04,1.31-1.7c1.36-1.84,4.52-7.77,4.52-7.77L492.69,286.44z"/>
		<g>
			
				<ellipse transform="matrix(0.1351 -0.9908 0.9908 0.1351 285.9622 646.3441)" class="st7" cx="513.19" cy="159.38" rx="32.46" ry="32.45"/>
			
				<ellipse transform="matrix(0.8281 -0.5606 0.5606 0.8281 -0.6313 316.7003)" class="st2" cx="516.02" cy="159.38" rx="32.46" ry="32.46"/>
			<g>
				<path class="st3" d="M495.11,180.67c-5.58-5.59-8.66-13.01-8.66-20.91c0-7.9,3.08-15.32,8.66-20.91
					c5.59-5.59,13.01-8.66,20.91-8.66c7.9,0,15.32,3.08,20.91,8.66c5.59,5.59,8.66,13.01,8.66,20.91c0,7.9-3.08,15.32-8.66,20.91
					c-5.59,5.58-13.01,8.66-20.91,8.66C508.13,189.33,500.7,186.26,495.11,180.67z M488.22,159.76c0,15.33,12.47,27.81,27.81,27.81
					c15.33,0,27.81-12.47,27.81-27.81c0-15.33-12.47-27.81-27.81-27.81C500.69,131.96,488.22,144.43,488.22,159.76z"/>
			</g>
			<g>
				<path class="st3" d="M512.43,169.87c0.25,0.45,0.6,0.83,1.03,1.14c0.43,0.3,0.95,0.52,1.56,0.65c0.6,0.13,1.29,0.15,2.06,0.06
					c0.67-0.08,1.32-0.24,1.94-0.5c0.63-0.25,1.17-0.62,1.62-1.12c0.46-0.49,0.79-1.12,1.01-1.88c0.22-0.76,0.26-1.67,0.13-2.75
					l7.09-0.84c0.22,1.82,0.11,3.42-0.33,4.8c-0.43,1.38-1.09,2.55-1.97,3.52c-0.88,0.97-1.92,1.76-3.14,2.37
					c-1.21,0.61-2.49,1.06-3.83,1.35l0.53,4.51l-3.9,0.46l-0.54-4.53c-1.49,0.04-2.86-0.11-4.12-0.44c-1.26-0.33-2.36-0.83-3.3-1.5
					c-0.94-0.67-1.71-1.51-2.3-2.52c-0.59-1.01-0.97-2.18-1.13-3.52c-0.17-1.47-0.07-2.78,0.32-3.92c0.39-1.14,1-2.17,1.83-3.09
					c0.84-0.92,1.87-1.77,3.09-2.55c1.23-0.78,2.6-1.56,4.11-2.34c0.94-0.48,1.72-0.93,2.34-1.35c0.62-0.42,1.11-0.85,1.46-1.28
					c0.35-0.44,0.59-0.89,0.7-1.36c0.11-0.47,0.13-0.99,0.06-1.55c-0.07-0.56-0.21-1.08-0.43-1.54c-0.22-0.47-0.52-0.86-0.91-1.17
					c-0.39-0.32-0.86-0.55-1.41-0.69c-0.56-0.14-1.2-0.17-1.94-0.08c-1.36,0.16-2.39,0.74-3.09,1.74c-0.7,1-0.94,2.41-0.73,4.23
					l-7.09,0.84c-0.18-1.52-0.13-2.91,0.16-4.19c0.29-1.27,0.78-2.41,1.47-3.4c0.69-0.99,1.58-1.84,2.66-2.53
					c1.08-0.7,2.31-1.22,3.69-1.57l-0.59-4.94l3.92-0.47l0.58,4.87c1.49-0.04,2.85,0.12,4.1,0.47c1.24,0.35,2.34,0.87,3.28,1.56
					c0.94,0.69,1.71,1.54,2.29,2.55c0.58,1.01,0.95,2.16,1.11,3.45c0.18,1.49,0.07,2.8-0.32,3.94c-0.39,1.14-1,2.17-1.83,3.08
					c-0.84,0.92-1.87,1.76-3.11,2.53c-1.23,0.77-2.62,1.53-4.15,2.28c-0.89,0.43-1.64,0.85-2.25,1.26
					c-0.61,0.41-1.09,0.84-1.45,1.28c-0.36,0.44-0.6,0.92-0.73,1.43c-0.12,0.51-0.15,1.08-0.07,1.72
					C512.02,168.91,512.18,169.42,512.43,169.87z"/>
			</g>
		</g>
		<path class="st8" d="M489.96,284.67c0,0,2.83,6.52,9.35,5.32c0,0,13.31-11,22.45-22.42c2.97-3.71,5.49-7.46,6.98-10.9
			c6.06-14.02,22.4-34.93,32.79-45.53l-26-9.41c0,0-8.33,16.75-19.41,37.33C508.13,253.89,498.72,270.71,489.96,284.67z"/>
		<path class="st9" d="M516.12,239.07l5.64,28.51c2.97-3.71,5.49-7.46,6.98-10.9c6.06-14.02,22.4-34.93,32.79-45.53l-26-9.41
			C535.53,201.73,527.2,218.49,516.12,239.07z"/>
		<path d="M537.37,290.22c0,0,0.28,5.2-6.02,5.89c0,0-3.6,0.02-3.61,3.33l18.32,0.06c0,0,0.53-1.34,0.66-4.19
			c0.1-2.2-2.13-7.94-2.13-7.94L537.37,290.22z"/>
		<path class="st8" d="M544.06,201.73c0,0-11.58,12.73-18.94,35.66c-4,12.48,7.33,43.84,9.54,54.74c0,0,7.6,0.65,12.8-1.36
			c0,0,0.4-22.51-2.65-39.86c-1.7-9.71,15.25-20.77,22.66-38.31c5.04-11.94-1.09-11.73-8.63-12.02L544.06,201.73z"/>
		<path class="st10" d="M557.43,144.95c6.44,3.64,19.64,0.28,19.64,0.28s-5.36-6.13-2.92-15.99l-5.06,2.57l-5.44,2.76
			c0,0-0.35,1.74-0.6,4.87c-0.06,0.81-0.12,1.71-0.16,2.69C559.59,143.14,557.43,144.95,557.43,144.95z"/>
		<path class="st11" d="M533.8,201.08c0,1.13,1.3,1.67,1.58,1.73c2.6,0.48,9.86,3.3,16.4,3.95c5.51,0.58,10.62,0.03,16.23-1.1
			c0.74-0.15,2.49-0.62,2.61-1.33c0.15-0.78,21.66-43.84,4.94-62.34c-0.39-0.43-3.69,0.35-6.71,1.06c-2.79,0.66-5.34,0.29-7.63-0.62
			l-2.83,1.49c-3.48,1.94-10.05,8.82-10.82,14.22c-0.39,2.75-1.96,4.78-2.42,7.19c-0.17,0.89-0.34,1.77-0.52,2.62
			c-0.34,1.67-0.7,3.26-1.06,4.77c-0.98,4.08-2.02,7.6-3.04,10.64c-1.08,3.22-2.15,5.91-3.1,8.15c-1.23,2.91-2.27,5.08-2.92,6.75
			C534.06,199.41,533.8,200.33,533.8,201.08z"/>
		<path class="st12" d="M534.52,198.24c30.36-14.3,40.87-41.76,40.87-41.76s-24.66,9.1-30.75,11.47c-0.34,1.67-0.7,3.26-1.06,4.77
			c-0.98,4.08-2.02,7.6-3.04,10.64c-1.08,3.22-2.15,5.91-3.1,8.15C536.21,194.4,535.17,196.57,534.52,198.24z"/>
		<g>
			<path class="st10" d="M516.76,189.95l-2.62,0.96c0,0-5.25-3.71-8.52,2.33c0,0-1.18,2.64,0.69,3.21c1.87,0.57,1.19,0.03,3.82,0.91
				c2.63,0.88,5.22,0.25,6.22-1.64l1.78-1.31L516.76,189.95z"/>
			<path class="st11" d="M514.6,193.66c-0.97-2.53-1.41-3.68-1.41-3.68s19.82-16.16,21.84-17.54c1.38-0.94,15.08-11.19,21.76-19.17
				c3.31-3.96,8.54-5.77,13.59-4.71l4.16,0.87c5.02,1.05,6.66,7.41,2.76,10.75c-10.98,9.41-29.49,20.32-32.94,22.59
				c-8.57,5.64-27.52,13.53-27.52,13.53S515.36,195.65,514.6,193.66z"/>
		</g>
		<path class="st5" d="M563.05,139.44c6.34,0.36,10.46-4.88,10.46-4.88s-2.87-1.59-4.43-2.76l-5.44,2.76
			C563.65,134.57,563.3,136.31,563.05,139.44z"/>
		<path class="st10" d="M560.35,132.94c0,0,9.6,6.89,13.8,0.85c4.2-6.05,8.27-9.23,2.31-13.88c-5.95-4.66-8.76-3.18-10.65-1.51
			C563.92,120.07,557.96,130.99,560.35,132.94z"/>
		<path class="st13" d="M564.8,112.93c0.34-2.32,1.12-3.96,1.12-3.96s0.6,2.5,5.16,2.15c4.56-0.34,11.79,0.45,14.2,5.65
			c0.15,0.33,0.29,0.67,0.41,1.02c0.44-1.15,0.54-2.88,0.54-2.88c0.87,2.24,0,5.04,0,5.04h0c0.01,0.08,0.02,0.16,0.04,0.25
			c1.01,0.85,1.85,3.5,1.85,3.5c-0.3-0.74-1.05-1.22-1.71-1.52c0.02,4.05-1.62,8-4.5,9.18c-4.21,1.72-4.18,0.41-8.41,3.22
			c0,0-1.14-1.41-0.36-2.36c0.77-0.95,3.7-2.32,2.07-3.7c-1.64-1.38-2.24,0.17-2.84-0.77c-0.6-0.95,2.41-3.7-1.46-6.28
			C567.04,118.87,564.46,115.25,564.8,112.93z"/>
	</g>
	<g>
		<g>
			<g>
				<g>
					<path class="st2" d="M151.35,294.15v3.75c0,0.3-0.11,0.58-0.3,0.81c-0.2,0.24-0.48,0.43-0.81,0.54
						c-0.1,0.03-0.21,0.06-0.32,0.07c-0.1,0.02-0.2,0.02-0.3,0.02H78.48c-0.92,0-1.67-0.61-1.72-1.37c0-0.02,0-0.05,0-0.07v-3.75
						c0-0.02,0-0.05,0-0.07c0.05-0.76,0.8-1.37,1.72-1.37h71.14c0.1,0,0.2,0.01,0.3,0.02c0.11,0.02,0.21,0.04,0.32,0.07
						c0.33,0.11,0.61,0.3,0.81,0.54C151.24,293.57,151.35,293.85,151.35,294.15z"/>
					<path class="st3" d="M116.41,299.35H78.3c-0.82,0-1.49-0.61-1.53-1.37c0-0.02,0-0.05,0-0.07v-3.75c0-0.02,0-0.05,0-0.07
						c0.04-0.76,0.72-1.37,1.53-1.37h33.43C112.27,294.66,113.51,297.36,116.41,299.35z"/>
					<g>
						<rect x="141.88" y="292.7" class="st3" width="0.81" height="6.64"/>
						<rect x="139.15" y="292.7" class="st3" width="0.81" height="6.64"/>
						<rect x="135.86" y="292.7" class="st3" width="0.81" height="6.64"/>
						<rect x="130.83" y="292.7" class="st3" width="0.81" height="6.64"/>
						<rect x="125.51" y="292.7" class="st3" width="0.81" height="6.64"/>
						<rect x="117.36" y="292.7" class="st3" width="0.81" height="6.64"/>
						<rect x="109.72" y="292.7" class="st3" width="0.81" height="6.64"/>
						<rect x="102.9" y="292.7" class="st3" width="0.81" height="6.64"/>
						<rect x="144.49" y="292.7" class="st3" width="0.81" height="6.64"/>
						<rect x="146.21" y="292.7" class="st3" width="0.81" height="6.64"/>
						<rect x="147.87" y="292.7" class="st3" width="0.81" height="6.64"/>
						<path class="st3" d="M149.93,292.73v6.6c-0.1,0.02-0.2,0.02-0.3,0.02h-0.51v-6.64h0.51
							C149.73,292.7,149.83,292.71,149.93,292.73z"/>
						<path class="st3" d="M151.05,293.34v5.36c-0.2,0.24-0.48,0.43-0.81,0.54v-6.45C150.58,292.91,150.86,293.1,151.05,293.34z"/>
					</g>
				</g>
				<g>
					<path class="st2" d="M143.74,287.51v3.75c0,0.3-0.11,0.58-0.3,0.81c-0.2,0.24-0.48,0.43-0.81,0.54
						c-0.1,0.03-0.21,0.06-0.32,0.07c-0.1,0.02-0.2,0.02-0.3,0.02H70.88c-0.92,0-1.67-0.61-1.72-1.37c0-0.02,0-0.05,0-0.07v-3.75
						c0-0.02,0-0.05,0-0.07c0.05-0.76,0.8-1.37,1.72-1.37h71.14c0.05,0,0.09,0,0.14,0c0.02,0,0.04,0,0.06,0c0.02,0,0.04,0,0.06,0.01
						c0.02,0,0.03,0,0.05,0.01c0.11,0.02,0.21,0.04,0.32,0.07c0.02,0,0.03,0.01,0.04,0.02c0.01,0,0.03,0.01,0.04,0.02
						c0.03,0.01,0.06,0.02,0.09,0.04c0.02,0.01,0.03,0.02,0.05,0.02c0.02,0.01,0.03,0.01,0.04,0.02c0.03,0.01,0.05,0.03,0.08,0.04
						c0.03,0.02,0.06,0.04,0.09,0.06c0.02,0.01,0.04,0.03,0.07,0.05c0,0,0,0,0,0c0.01,0.01,0.03,0.02,0.04,0.03
						c0.04,0.03,0.09,0.07,0.12,0.11c0.01,0.01,0.02,0.02,0.03,0.03c0.01,0.01,0.02,0.02,0.03,0.04c0.02,0.02,0.04,0.05,0.06,0.07
						C143.63,286.93,143.74,287.21,143.74,287.51z"/>
					<path class="st3" d="M108.81,292.7H70.69c-0.82,0-1.49-0.61-1.53-1.37c0-0.02,0-0.05,0-0.07v-3.75c0-0.02,0-0.05,0-0.07
						c0.04-0.76,0.72-1.37,1.53-1.37h33.43c0.02,0.05,0.03,0.11,0.05,0.16C104.73,288.17,105.98,290.78,108.81,292.7z"/>
					<g>
						<rect x="134.28" y="286.06" class="st3" width="0.81" height="6.64"/>
						<rect x="131.54" y="286.06" class="st3" width="0.81" height="6.64"/>
						<rect x="128.26" y="286.06" class="st3" width="0.81" height="6.64"/>
						<rect x="123.23" y="286.06" class="st3" width="0.81" height="6.64"/>
						<rect x="117.91" y="286.06" class="st3" width="0.81" height="6.64"/>
						<rect x="109.75" y="286.06" class="st3" width="0.81" height="6.64"/>
						<rect x="102.11" y="286.06" class="st3" width="0.81" height="6.64"/>
						<rect x="95.29" y="286.06" class="st3" width="0.81" height="6.64"/>
						<rect x="136.88" y="286.06" class="st3" width="0.81" height="6.64"/>
						<rect x="138.6" y="286.06" class="st3" width="0.81" height="6.64"/>
						<rect x="140.26" y="286.06" class="st3" width="0.81" height="6.64"/>
						<path class="st3" d="M142.32,286.08v6.6c-0.1,0.02-0.2,0.02-0.3,0.02h-0.51v-6.64h0.51
							C142.12,286.06,142.22,286.07,142.32,286.08z"/>
						<path class="st3" d="M143.45,286.7v5.36c-0.2,0.24-0.48,0.43-0.81,0.54v-6.45C142.97,286.27,143.25,286.46,143.45,286.7z"/>
					</g>
				</g>
				<g>
					<path class="st2" d="M147.42,281.03v3.75c0,0.3-0.11,0.58-0.3,0.81c-0.2,0.24-0.48,0.43-0.81,0.54
						c-0.1,0.03-0.21,0.06-0.32,0.07c-0.1,0.02-0.2,0.02-0.3,0.02H74.55c-0.29,0-0.56-0.06-0.79-0.16c-0.5-0.22-0.86-0.65-0.92-1.14
						c0-0.02,0-0.04-0.01-0.06c0-0.02,0-0.05,0-0.07v-3.75c0-0.02,0-0.05,0-0.07c0.05-0.76,0.8-1.37,1.72-1.37h71.14
						c0.1,0,0.2,0.01,0.3,0.02c0.11,0.02,0.21,0.04,0.32,0.07c0.33,0.11,0.61,0.3,0.81,0.54
						C147.31,280.45,147.42,280.73,147.42,281.03z"/>
					<path class="st3" d="M112.48,286.23H74.37c-0.25,0-0.5-0.06-0.71-0.16c-0.45-0.22-0.77-0.65-0.82-1.14c0-0.02,0-0.04-0.01-0.06
						c0-0.02,0-0.05,0-0.07v-3.75c0-0.02,0-0.05,0-0.07c0.04-0.76,0.72-1.37,1.53-1.37h33.43c0.52,1.9,1.71,4.51,4.45,6.48
						C112.32,286.12,112.4,286.17,112.48,286.23z"/>
					<g>
						<rect x="137.95" y="279.58" class="st3" width="0.81" height="6.64"/>
						<rect x="135.21" y="279.58" class="st3" width="0.81" height="6.64"/>
						<rect x="131.93" y="279.58" class="st3" width="0.81" height="6.64"/>
						<rect x="126.9" y="279.58" class="st3" width="0.81" height="6.64"/>
						<rect x="121.58" y="279.58" class="st3" width="0.81" height="6.64"/>
						<rect x="113.43" y="279.58" class="st3" width="0.81" height="6.64"/>
						<rect x="105.79" y="279.58" class="st3" width="0.81" height="6.64"/>
						<rect x="98.97" y="279.58" class="st3" width="0.81" height="6.64"/>
						<rect x="140.56" y="279.58" class="st3" width="0.81" height="6.64"/>
						<rect x="142.28" y="279.58" class="st3" width="0.81" height="6.64"/>
						<rect x="143.94" y="279.58" class="st3" width="0.81" height="6.64"/>
						<path class="st3" d="M146,279.61v6.6c-0.1,0.02-0.2,0.02-0.3,0.02h-0.51v-6.64h0.51C145.8,279.58,145.9,279.59,146,279.61z"/>
						<path class="st3" d="M147.12,280.22v5.36c-0.2,0.24-0.48,0.43-0.81,0.54v-6.45C146.64,279.79,146.93,279.98,147.12,280.22z"/>
					</g>
				</g>
				<g>
					<path class="st2" d="M149.12,274.39v3.75c0,0.3-0.11,0.58-0.3,0.81c-0.2,0.24-0.48,0.43-0.81,0.54
						c-0.1,0.03-0.21,0.06-0.31,0.07c-0.1,0.02-0.2,0.02-0.3,0.02H76.26c-0.92,0-1.67-0.61-1.72-1.37c0-0.02,0-0.05,0-0.07v-3.75
						c0-0.02,0-0.05,0-0.07c0.04-0.7,0.69-1.28,1.52-1.36c0.07-0.01,0.13-0.01,0.2-0.01h71.14c0.1,0,0.2,0.01,0.3,0.02
						c0.11,0.02,0.21,0.04,0.31,0.07c0.33,0.11,0.61,0.3,0.81,0.54C149.01,273.81,149.12,274.09,149.12,274.39z"/>
					<path class="st3" d="M114.19,279.58H76.07c-0.82,0-1.49-0.61-1.53-1.37c0-0.02,0-0.05,0-0.07v-3.75c0-0.02,0-0.05,0-0.07
						c0.04-0.7,0.62-1.28,1.35-1.36c0.06-0.01,0.12-0.01,0.18-0.01h33.43c0,0,0,0.01,0,0.01
						C110.04,274.91,111.29,277.6,114.19,279.58z"/>
					<g>
						<rect x="139.66" y="272.94" class="st3" width="0.81" height="6.64"/>
						<rect x="136.92" y="272.94" class="st3" width="0.81" height="6.64"/>
						<rect x="133.64" y="272.94" class="st3" width="0.81" height="6.64"/>
						<rect x="128.61" y="272.94" class="st3" width="0.81" height="6.64"/>
						<rect x="123.29" y="272.94" class="st3" width="0.81" height="6.64"/>
						<rect x="115.13" y="272.94" class="st3" width="0.81" height="6.64"/>
						<rect x="107.49" y="272.94" class="st3" width="0.81" height="6.64"/>
						<rect x="100.67" y="272.94" class="st3" width="0.81" height="6.64"/>
						<rect x="142.26" y="272.94" class="st3" width="0.81" height="6.64"/>
						<rect x="143.98" y="272.94" class="st3" width="0.81" height="6.64"/>
						<rect x="145.64" y="272.94" class="st3" width="0.81" height="6.64"/>
						<path class="st3" d="M147.7,272.96v6.6c-0.1,0.02-0.2,0.02-0.3,0.02h-0.51v-6.64h0.51C147.5,272.94,147.6,272.95,147.7,272.96
							z"/>
						<path class="st3" d="M148.83,273.58v5.36c-0.2,0.24-0.48,0.43-0.81,0.54v-6.45C148.35,273.15,148.63,273.34,148.83,273.58z"/>
					</g>
				</g>
				<g>
					<path class="st2" d="M143.89,267.76v3.75c0,0.3-0.11,0.58-0.3,0.81c-0.2,0.24-0.48,0.43-0.81,0.54
						c-0.1,0.03-0.21,0.06-0.31,0.07c-0.03,0-0.07,0.01-0.1,0.01c-0.02,0-0.04,0-0.06,0c-0.02,0-0.04,0-0.06,0
						c-0.03,0-0.06,0-0.09,0H71.02c-0.92,0-1.67-0.61-1.72-1.37c0-0.02,0-0.05,0-0.07v-3.75c0-0.02,0-0.05,0-0.07
						c0-0.02,0-0.04,0-0.06c0.07-0.61,0.6-1.12,1.29-1.27c0.02,0,0.04-0.01,0.05-0.01c0.12-0.02,0.24-0.03,0.37-0.03h71.14
						c0.05,0,0.1,0,0.15,0.01c0.02,0,0.05,0,0.07,0.01h0c0.03,0,0.05,0.01,0.08,0.01c0.11,0.02,0.21,0.04,0.31,0.07
						c0.33,0.11,0.61,0.3,0.81,0.54C143.78,267.18,143.89,267.46,143.89,267.76z"/>
					<path class="st3" d="M108.95,272.95H70.84c-0.82,0-1.49-0.61-1.53-1.37c0-0.02,0-0.05,0-0.07v-3.75c0-0.02,0-0.05,0-0.07
						c0-0.02,0-0.04,0-0.06c0.06-0.63,0.55-1.14,1.19-1.27c0.02-0.01,0.04-0.01,0.07-0.01c0.09-0.02,0.18-0.02,0.27-0.02h33.43
						c0,0.02,0.01,0.03,0.01,0.05c0.54,1.95,1.78,4.62,4.65,6.58C108.94,272.95,108.95,272.95,108.95,272.95z"/>
					<g>
						<rect x="134.43" y="266.31" class="st3" width="0.81" height="6.64"/>
						<rect x="131.69" y="266.31" class="st3" width="0.81" height="6.64"/>
						<rect x="128.41" y="266.31" class="st3" width="0.81" height="6.64"/>
						<rect x="123.37" y="266.31" class="st3" width="0.81" height="6.64"/>
						<rect x="118.05" y="266.31" class="st3" width="0.81" height="6.64"/>
						<rect x="109.9" y="266.31" class="st3" width="0.81" height="6.64"/>
						<rect x="102.26" y="266.31" class="st3" width="0.81" height="6.64"/>
						<rect x="95.44" y="266.31" class="st3" width="0.81" height="6.64"/>
						<rect x="137.03" y="266.31" class="st3" width="0.81" height="6.64"/>
						<rect x="138.75" y="266.31" class="st3" width="0.81" height="6.64"/>
						<rect x="140.41" y="266.31" class="st3" width="0.81" height="6.64"/>
						<path class="st3" d="M142.47,266.33v6.6c-0.1,0.02-0.2,0.02-0.3,0.02h-0.51v-6.64h0.51
							C142.27,266.31,142.37,266.32,142.47,266.33z"/>
						<path class="st3" d="M143.6,266.95v5.36c-0.2,0.24-0.48,0.43-0.81,0.54v-6.45C143.12,266.51,143.4,266.71,143.6,266.95z"/>
					</g>
				</g>
				<g>
					<path class="st2" d="M143.74,261.16v3.75c0,0.3-0.11,0.58-0.3,0.81c-0.2,0.24-0.48,0.43-0.81,0.54
						c-0.08,0.03-0.16,0.05-0.25,0.06h0c-0.02,0-0.04,0.01-0.07,0.01c-0.1,0.02-0.2,0.02-0.3,0.02H70.88c-0.08,0-0.15,0-0.22-0.01
						c-0.03,0-0.06-0.01-0.08-0.01c-0.77-0.12-1.37-0.67-1.41-1.35c0-0.02,0-0.05,0-0.07v-3.75c0-0.02,0-0.05,0-0.07
						c0.05-0.76,0.8-1.37,1.72-1.37h71.14c0.05,0,0.09,0,0.14,0c0.02,0,0.04,0,0.06,0c0.02,0,0.04,0,0.06,0.01
						c0.02,0,0.03,0,0.05,0.01c0.11,0.02,0.21,0.04,0.32,0.07c0.02,0,0.03,0.01,0.04,0.02c0.01,0,0.03,0.01,0.04,0.02
						c0.03,0.01,0.06,0.02,0.09,0.04c0.03,0.01,0.06,0.03,0.09,0.04c0.03,0.01,0.05,0.03,0.08,0.04c0.03,0.02,0.06,0.04,0.09,0.06
						c0.02,0.01,0.04,0.03,0.07,0.05c0,0,0,0,0,0c0.01,0.01,0.03,0.02,0.04,0.03c0.04,0.03,0.09,0.07,0.12,0.11
						c0.01,0.01,0.02,0.02,0.03,0.03c0.01,0.01,0.02,0.02,0.03,0.04c0.02,0.02,0.04,0.05,0.06,0.07
						C143.63,260.59,143.74,260.86,143.74,261.16z"/>
					<path class="st3" d="M108.81,266.36H70.69c-0.03,0-0.06,0-0.09,0c-0.03,0-0.07,0-0.1-0.01c-0.73-0.08-1.31-0.66-1.35-1.36
						c0-0.02,0-0.05,0-0.07v-3.75c0-0.02,0-0.05,0-0.07c0.04-0.76,0.72-1.37,1.53-1.37h33.43c0.02,0.05,0.03,0.11,0.05,0.16
						c0.55,1.92,1.79,4.51,4.57,6.43C108.76,266.33,108.78,266.34,108.81,266.36z"/>
					<g>
						<rect x="134.28" y="259.72" class="st3" width="0.81" height="6.64"/>
						<rect x="131.54" y="259.72" class="st3" width="0.81" height="6.64"/>
						<rect x="128.26" y="259.72" class="st3" width="0.81" height="6.64"/>
						<rect x="123.23" y="259.72" class="st3" width="0.81" height="6.64"/>
						<rect x="117.91" y="259.72" class="st3" width="0.81" height="6.64"/>
						<rect x="109.75" y="259.72" class="st3" width="0.81" height="6.64"/>
						<rect x="102.11" y="259.72" class="st3" width="0.81" height="6.64"/>
						<rect x="95.29" y="259.72" class="st3" width="0.81" height="6.64"/>
						<rect x="136.88" y="259.72" class="st3" width="0.81" height="6.64"/>
						<rect x="138.6" y="259.72" class="st3" width="0.81" height="6.64"/>
						<rect x="140.26" y="259.72" class="st3" width="0.81" height="6.64"/>
						<path class="st3" d="M142.32,259.74v6.6c-0.1,0.02-0.2,0.02-0.3,0.02h-0.51v-6.64h0.51
							C142.12,259.72,142.22,259.72,142.32,259.74z"/>
						<path class="st3" d="M143.45,260.35v5.36c-0.2,0.24-0.48,0.43-0.81,0.54v-6.45C142.97,259.92,143.25,260.11,143.45,260.35z"/>
					</g>
				</g>
				<g>
					<path class="st2" d="M147.42,254.68v3.75c0,0.3-0.11,0.58-0.3,0.81c-0.2,0.24-0.48,0.43-0.81,0.54
						c-0.1,0.03-0.21,0.06-0.32,0.07c-0.1,0.02-0.2,0.02-0.3,0.02H74.55c-0.29,0-0.56-0.06-0.79-0.16c-0.5-0.22-0.86-0.65-0.92-1.14
						c0-0.02,0-0.04-0.01-0.06c0-0.02,0-0.05,0-0.07v-3.75c0-0.02,0-0.05,0-0.07c0.05-0.76,0.8-1.37,1.72-1.37h71.14
						c0.1,0,0.2,0.01,0.3,0.02c0.11,0.02,0.21,0.04,0.32,0.07c0.33,0.11,0.61,0.3,0.81,0.54
						C147.31,254.11,147.42,254.38,147.42,254.68z"/>
					<path class="st3" d="M112.48,259.88H74.37c-0.25,0-0.5-0.06-0.71-0.16c-0.45-0.22-0.77-0.65-0.82-1.14c0-0.02,0-0.04-0.01-0.06
						c0-0.02,0-0.05,0-0.07v-3.75c0-0.02,0-0.05,0-0.07c0.04-0.76,0.72-1.37,1.53-1.37h33.43c0.52,1.9,1.71,4.51,4.45,6.48
						C112.32,259.77,112.4,259.83,112.48,259.88z"/>
					<g>
						<rect x="137.95" y="253.24" class="st3" width="0.81" height="6.64"/>
						<rect x="135.21" y="253.24" class="st3" width="0.81" height="6.64"/>
						<rect x="131.93" y="253.24" class="st3" width="0.81" height="6.64"/>
						<rect x="126.9" y="253.24" class="st3" width="0.81" height="6.64"/>
						<rect x="121.58" y="253.24" class="st3" width="0.81" height="6.64"/>
						<rect x="113.43" y="253.24" class="st3" width="0.81" height="6.64"/>
						<rect x="105.79" y="253.24" class="st3" width="0.81" height="6.64"/>
						<rect x="98.97" y="253.24" class="st3" width="0.81" height="6.64"/>
						<rect x="140.56" y="253.24" class="st3" width="0.81" height="6.64"/>
						<rect x="142.28" y="253.24" class="st3" width="0.81" height="6.64"/>
						<rect x="143.94" y="253.24" class="st3" width="0.81" height="6.64"/>
						<path class="st3" d="M146,253.26v6.6c-0.1,0.02-0.2,0.02-0.3,0.02h-0.51v-6.64h0.51C145.8,253.24,145.9,253.25,146,253.26z"/>
						<path class="st3" d="M147.12,253.88v5.36c-0.2,0.24-0.48,0.43-0.81,0.54v-6.45C146.64,253.44,146.93,253.63,147.12,253.88z"/>
					</g>
				</g>
				<g>
					<path class="st2" d="M153.23,248.04v3.75c0,0.3-0.11,0.58-0.29,0.81c-0.2,0.24-0.48,0.43-0.81,0.54
						c-0.1,0.03-0.21,0.06-0.32,0.07c-0.1,0.02-0.2,0.02-0.3,0.02H80.36c-0.92,0-1.67-0.61-1.72-1.37c0-0.02,0-0.05,0-0.07v-3.75
						c0-0.02,0-0.05,0-0.07c0.04-0.7,0.69-1.28,1.52-1.36c0.07-0.01,0.14-0.01,0.2-0.01h71.14c0.1,0,0.2,0.01,0.3,0.02
						c0.11,0.02,0.21,0.04,0.32,0.07c0.33,0.11,0.61,0.3,0.81,0.54C153.12,247.47,153.23,247.74,153.23,248.04z"/>
					<path class="st3" d="M118.3,253.24H80.18c-0.82,0-1.49-0.61-1.53-1.37c0-0.02,0-0.05,0-0.07v-3.75c0-0.02,0-0.05,0-0.07
						c0.04-0.7,0.62-1.28,1.35-1.36c0.06-0.01,0.12-0.01,0.18-0.01h33.43c0,0,0,0.01,0,0.01
						C114.15,248.56,115.4,251.26,118.3,253.24z"/>
					<g>
						<rect x="143.77" y="246.6" class="st3" width="0.81" height="6.64"/>
						<rect x="141.03" y="246.6" class="st3" width="0.81" height="6.64"/>
						<rect x="137.75" y="246.6" class="st3" width="0.81" height="6.64"/>
						<rect x="132.72" y="246.6" class="st3" width="0.81" height="6.64"/>
						<rect x="127.4" y="246.6" class="st3" width="0.81" height="6.64"/>
						<rect x="119.24" y="246.6" class="st3" width="0.81" height="6.64"/>
						<rect x="111.6" y="246.6" class="st3" width="0.81" height="6.64"/>
						<rect x="104.78" y="246.6" class="st3" width="0.81" height="6.64"/>
						<rect x="146.37" y="246.6" class="st3" width="0.81" height="6.64"/>
						<rect x="148.09" y="246.6" class="st3" width="0.81" height="6.64"/>
						<rect x="149.75" y="246.6" class="st3" width="0.81" height="6.64"/>
						<path class="st3" d="M151.81,246.62v6.6c-0.1,0.02-0.2,0.02-0.3,0.02H151v-6.64h0.51C151.61,246.6,151.71,246.6,151.81,246.62
							z"/>
						<path class="st3" d="M152.94,247.23v5.36c-0.2,0.24-0.48,0.43-0.81,0.54v-6.45C152.46,246.8,152.74,246.99,152.94,247.23z"/>
					</g>
				</g>
				<g>
					<path class="st2" d="M143.89,241.41v3.75c0,0.3-0.11,0.58-0.3,0.81c-0.2,0.24-0.48,0.43-0.81,0.54
						c-0.1,0.03-0.21,0.06-0.31,0.07c-0.03,0-0.07,0.01-0.1,0.01c-0.03,0-0.05,0-0.08,0.01c-0.01,0-0.03,0-0.04,0
						c-0.03,0-0.06,0-0.08,0H71.02c-0.92,0-1.67-0.61-1.72-1.37c0-0.02,0-0.05,0-0.07v-3.75c0-0.02,0-0.05,0-0.07
						c0.05-0.76,0.8-1.37,1.72-1.37h71.14c0.03,0,0.06,0,0.09,0c0.07,0,0.14,0.01,0.21,0.02c0.11,0.02,0.21,0.04,0.31,0.07
						c0.05,0.02,0.1,0.04,0.15,0.06c0.03,0.01,0.06,0.03,0.09,0.04c0,0,0.01,0,0.01,0c0.03,0.01,0.06,0.03,0.09,0.05
						c0.01,0,0.01,0.01,0.01,0.01c0.03,0.01,0.05,0.03,0.08,0.05c0.06,0.04,0.12,0.08,0.17,0.13c0.02,0.01,0.03,0.03,0.05,0.04
						c0,0,0.01,0,0.01,0.01c0.01,0.01,0.02,0.02,0.03,0.03c0,0,0,0,0.01,0.01c0.02,0.02,0.03,0.03,0.05,0.05
						c0.02,0.03,0.05,0.05,0.07,0.08C143.78,240.83,143.89,241.11,143.89,241.41z"/>
					<path class="st3" d="M108.95,246.61H70.84c-0.82,0-1.49-0.61-1.53-1.37c0-0.02,0-0.05,0-0.07v-3.75c0-0.02,0-0.05,0-0.07
						c0.04-0.76,0.72-1.37,1.53-1.37h33.43c0.01,0.05,0.03,0.1,0.04,0.15c0.55,1.94,1.81,4.55,4.62,6.48
						C108.94,246.6,108.95,246.6,108.95,246.61z"/>
					<g>
						<rect x="134.43" y="239.96" class="st3" width="0.81" height="6.64"/>
						<rect x="131.69" y="239.96" class="st3" width="0.81" height="6.64"/>
						<rect x="128.41" y="239.96" class="st3" width="0.81" height="6.64"/>
						<rect x="123.37" y="239.96" class="st3" width="0.81" height="6.64"/>
						<rect x="118.05" y="239.96" class="st3" width="0.81" height="6.64"/>
						<rect x="109.9" y="239.96" class="st3" width="0.81" height="6.64"/>
						<rect x="102.26" y="239.96" class="st3" width="0.81" height="6.64"/>
						<rect x="95.44" y="239.96" class="st3" width="0.81" height="6.64"/>
						<rect x="137.03" y="239.96" class="st3" width="0.81" height="6.64"/>
						<rect x="138.75" y="239.96" class="st3" width="0.81" height="6.64"/>
						<rect x="140.41" y="239.96" class="st3" width="0.81" height="6.64"/>
						<path class="st3" d="M142.47,239.99v6.6c-0.1,0.02-0.2,0.02-0.3,0.02h-0.51v-6.64h0.51
							C142.27,239.96,142.37,239.97,142.47,239.99z"/>
						<path class="st3" d="M143.6,240.6v5.36c-0.2,0.24-0.48,0.43-0.81,0.54v-6.45C143.12,240.17,143.4,240.36,143.6,240.6z"/>
					</g>
				</g>
				<g>
					<path class="st2" d="M149.12,234.92v3.75c0,0.3-0.11,0.58-0.3,0.81c-0.2,0.24-0.48,0.43-0.81,0.54
						c-0.1,0.03-0.21,0.06-0.31,0.07c-0.1,0.02-0.2,0.02-0.3,0.02H76.26c-0.28,0-0.54-0.06-0.77-0.15
						c-0.52-0.22-0.89-0.65-0.95-1.16c0-0.02,0-0.04,0-0.06c0-0.02,0-0.05,0-0.07v-3.75c0-0.02,0-0.05,0-0.07
						c0.04-0.7,0.69-1.28,1.52-1.36c0.07-0.01,0.13-0.01,0.2-0.01h71.14c0.1,0,0.2,0.01,0.3,0.02c0.11,0.02,0.21,0.04,0.31,0.07
						c0.33,0.11,0.61,0.3,0.81,0.54C149.01,234.35,149.12,234.62,149.12,234.92z"/>
					<path class="st3" d="M114.19,240.12H76.07c-0.25,0-0.48-0.06-0.69-0.15c-0.46-0.22-0.79-0.65-0.84-1.16c0-0.02,0-0.04,0-0.06
						c0-0.02,0-0.05,0-0.07v-3.75c0-0.02,0-0.05,0-0.07c0.04-0.7,0.62-1.28,1.35-1.36c0.06-0.01,0.12-0.01,0.18-0.01h33.43
						c0,0,0,0.01,0,0.01c0.52,1.9,1.72,4.51,4.46,6.48C114.04,240.02,114.11,240.07,114.19,240.12z"/>
					<g>
						<rect x="139.66" y="233.48" class="st3" width="0.81" height="6.64"/>
						<rect x="136.92" y="233.48" class="st3" width="0.81" height="6.64"/>
						<rect x="133.64" y="233.48" class="st3" width="0.81" height="6.64"/>
						<rect x="128.61" y="233.48" class="st3" width="0.81" height="6.64"/>
						<rect x="123.29" y="233.48" class="st3" width="0.81" height="6.64"/>
						<rect x="115.13" y="233.48" class="st3" width="0.81" height="6.64"/>
						<rect x="107.49" y="233.48" class="st3" width="0.81" height="6.64"/>
						<rect x="100.67" y="233.48" class="st3" width="0.81" height="6.64"/>
						<rect x="142.26" y="233.48" class="st3" width="0.81" height="6.64"/>
						<rect x="143.98" y="233.48" class="st3" width="0.81" height="6.64"/>
						<rect x="145.64" y="233.48" class="st3" width="0.81" height="6.64"/>
						<path class="st3" d="M147.7,233.5v6.6c-0.1,0.02-0.2,0.02-0.3,0.02h-0.51v-6.64h0.51C147.5,233.48,147.6,233.48,147.7,233.5z"
							/>
						<path class="st3" d="M148.83,234.11v5.36c-0.2,0.24-0.48,0.43-0.81,0.54v-6.45C148.35,233.68,148.63,233.87,148.83,234.11z"/>
					</g>
				</g>
				<g>
					<path class="st2" d="M151.35,228.29v3.75c0,0.3-0.11,0.58-0.3,0.81c-0.2,0.24-0.48,0.43-0.81,0.54
						c-0.1,0.03-0.21,0.06-0.32,0.07c-0.03,0-0.07,0.01-0.1,0.01c-0.02,0-0.04,0-0.06,0c-0.02,0-0.04,0-0.06,0
						c-0.03,0-0.06,0-0.09,0H78.48c-0.92,0-1.67-0.61-1.72-1.37c0-0.02,0-0.05,0-0.07v-3.75c0-0.02,0-0.05,0-0.07
						c0.05-0.76,0.8-1.37,1.72-1.37h71.14c0.1,0,0.2,0.01,0.3,0.02c0.11,0.02,0.21,0.04,0.32,0.07c0.33,0.11,0.61,0.3,0.81,0.54
						C151.24,227.71,151.35,227.99,151.35,228.29z"/>
					<path class="st3" d="M116.41,233.49H78.3c-0.82,0-1.49-0.61-1.53-1.37c0-0.02,0-0.05,0-0.07v-3.75c0-0.02,0-0.05,0-0.07
						c0.04-0.76,0.72-1.37,1.53-1.37h33.43c0.53,1.95,1.77,4.65,4.67,6.63C116.4,233.48,116.41,233.48,116.41,233.49z"/>
					<g>
						<rect x="141.88" y="226.84" class="st3" width="0.81" height="6.64"/>
						<rect x="139.15" y="226.84" class="st3" width="0.81" height="6.64"/>
						<rect x="135.86" y="226.84" class="st3" width="0.81" height="6.64"/>
						<rect x="130.83" y="226.84" class="st3" width="0.81" height="6.64"/>
						<rect x="125.51" y="226.84" class="st3" width="0.81" height="6.64"/>
						<rect x="117.36" y="226.84" class="st3" width="0.81" height="6.64"/>
						<rect x="109.72" y="226.84" class="st3" width="0.81" height="6.64"/>
						<rect x="102.9" y="226.84" class="st3" width="0.81" height="6.64"/>
						<rect x="144.49" y="226.84" class="st3" width="0.81" height="6.64"/>
						<rect x="146.21" y="226.84" class="st3" width="0.81" height="6.64"/>
						<rect x="147.87" y="226.84" class="st3" width="0.81" height="6.64"/>
						<path class="st3" d="M149.93,226.87v6.6c-0.1,0.02-0.2,0.02-0.3,0.02h-0.51v-6.64h0.51
							C149.73,226.84,149.83,226.85,149.93,226.87z"/>
						<path class="st3" d="M151.05,227.48v5.36c-0.2,0.24-0.48,0.43-0.81,0.54v-6.45C150.58,227.05,150.86,227.24,151.05,227.48z"/>
					</g>
				</g>
			</g>
			<g>
				
					<ellipse transform="matrix(0.3329 -0.943 0.943 0.3329 -201.9488 245.6453)" class="st7" cx="72.64" cy="265.55" rx="33.81" ry="33.81"/>
				
					<ellipse transform="matrix(0.8584 -0.513 0.513 0.8584 -126.3514 73.3459)" class="st2" cx="69.69" cy="265.55" rx="33.81" ry="33.81"/>
				<g>
					<path class="st3" d="M69.69,296.76c-8.23,0-15.97-3.2-21.78-9.02c-5.82-5.82-9.02-13.55-9.02-21.78s3.2-15.96,9.02-21.78
						c5.82-5.82,13.55-9.02,21.78-9.02c8.23,0,15.97,3.2,21.78,9.02c5.82,5.82,9.02,13.55,9.02,21.78s-3.2,15.97-9.02,21.78
						C85.65,293.55,77.91,296.76,69.69,296.76z M69.69,236.98c-15.97,0-28.97,13-28.97,28.97c0,15.97,13,28.97,28.97,28.97
						s28.97-13,28.97-28.97C98.65,249.98,85.66,236.98,69.69,236.98z"/>
				</g>
				<g>
					<path class="st3" d="M73.93,274.89c0.08-0.66,0.05-1.26-0.07-1.79c-0.13-0.53-0.38-1.02-0.76-1.49
						c-0.38-0.46-0.88-0.91-1.51-1.33c-0.63-0.43-1.41-0.87-2.34-1.31c-1.6-0.78-3.04-1.58-4.33-2.38c-1.29-0.8-2.37-1.68-3.24-2.63
						c-0.87-0.95-1.51-2.02-1.91-3.21c-0.4-1.19-0.51-2.56-0.33-4.11c0.16-1.34,0.54-2.54,1.15-3.59c0.61-1.05,1.4-1.93,2.39-2.65
						c0.98-0.72,2.12-1.26,3.42-1.63c1.3-0.37,2.72-0.53,4.27-0.49l0.6-5.08l4.09,0.48l-0.61,5.15c1.44,0.36,2.72,0.91,3.85,1.64
						c1.12,0.73,2.05,1.61,2.77,2.64c0.72,1.03,1.24,2.21,1.54,3.54c0.3,1.33,0.36,2.78,0.17,4.36l-7.38-0.88
						c0.23-1.9-0.03-3.37-0.76-4.41c-0.73-1.04-1.8-1.65-3.22-1.81c-0.77-0.09-1.44-0.06-2.02,0.09c-0.58,0.15-1.07,0.39-1.47,0.72
						c-0.4,0.33-0.72,0.74-0.95,1.22c-0.23,0.49-0.38,1.02-0.45,1.61c-0.07,0.59-0.05,1.13,0.07,1.62c0.11,0.49,0.36,0.97,0.73,1.42
						c0.37,0.45,0.88,0.9,1.53,1.34c0.65,0.44,1.46,0.91,2.44,1.41c1.58,0.81,3.01,1.62,4.28,2.43c1.28,0.81,2.35,1.69,3.22,2.66
						c0.87,0.96,1.51,2.04,1.91,3.22c0.4,1.19,0.51,2.55,0.33,4.08c-0.17,1.39-0.56,2.61-1.17,3.66c-0.62,1.05-1.42,1.93-2.4,2.63
						c-0.98,0.7-2.13,1.22-3.44,1.57c-1.31,0.34-2.74,0.49-4.29,0.45l-0.56,4.72l-4.06-0.48l0.56-4.7c-1.4-0.31-2.73-0.78-3.99-1.41
						c-1.26-0.63-2.35-1.45-3.27-2.47c-0.92-1.01-1.6-2.24-2.05-3.67c-0.45-1.43-0.56-3.1-0.34-5l7.38,0.88
						c-0.13,1.12-0.09,2.08,0.14,2.87c0.23,0.79,0.58,1.44,1.05,1.95c0.47,0.51,1.04,0.9,1.69,1.16c0.65,0.26,1.33,0.43,2.02,0.52
						c0.8,0.1,1.51,0.08,2.14-0.06c0.63-0.13,1.17-0.36,1.62-0.67c0.45-0.32,0.81-0.71,1.07-1.18
						C73.69,276.01,73.86,275.48,73.93,274.89z"/>
				</g>
			</g>
		</g>
		<g>
			<path class="st9" d="M131.86,219.12c-3.46,6.03-7.82,8.35-7.82,8.35h-18.12C105.93,227.47,134.5,214.53,131.86,219.12z"/>
			<g>
				<path class="st14" d="M117.95,265.75c-0.47,0.54-0.53,1.15-0.3,1.79c0,0,0,0.01,0,0.01c0.43,1.19,1.86,2.53,3.52,3.86
					c0.21,0.17,0.4,0.33,0.56,0.47c0.04,0.04,0.09,0.08,0.13,0.11c0.03,0.03,0.07,0.06,0.1,0.09c1.55,1.43,0.96,1.75,3.74,4.64
					c3.17,3.3,5.35,3.35,5.97,3.05c0.52-0.26-0.54-2-1.72-3.97c-0.06-0.09-0.11-0.19-0.17-0.29c-0.16-0.26-0.31-0.53-0.47-0.79
					c-1.38-2.36-1.03-3.47-0.7-6.99c0.27-2.86,4.45-15.97,4.45-15.97l-6.07-1.05c0,0-1.83,10.44-3.84,12.05
					c-1.08,0.86-2.28,0.87-3.32,1.5c-0.07,0.04-0.15,0.09-0.22,0.14C119.02,264.8,118.42,265.2,117.95,265.75z"/>
				<path d="M117.95,265.75c-0.47,0.54-0.53,1.15-0.3,1.79c0,0,0,0.01,0,0.01c0.53,1.19,1.92,2.52,3.52,3.85
					c0.21,0.17,0.39,0.33,0.56,0.48c0.04,0.04,0.09,0.08,0.13,0.11c0.03,0.03,0.07,0.06,0.1,0.09c1.55,1.43,0.96,1.75,3.74,4.64
					c3.17,3.3,5.35,3.35,5.97,3.05c0.52-0.26-0.54-2-1.72-3.97c-0.62-0.23-3.48-1.39-5.65-4.16c-1.91-2.43-3.18-5.56-4.48-7.37
					c-0.07,0.04-0.15,0.09-0.22,0.14C119.02,264.8,118.42,265.2,117.95,265.75z"/>
				<path class="st14" d="M166.89,261.95c0.37,1.87,3.05,1.56,6.03,0.83c2.98-0.73,2.27,0.14,6.52-0.33s5.53-2.05,5.66-2.68
					c0.12-0.56-1.98-0.76-4.23-1.02c-0.28-0.03-0.57-0.07-0.85-0.1c-2.54-0.32-4.4-1.96-6.71-3.31c-2.19-1.28-5.45-6.47-5.45-6.47
					l-5.82,0.46c0,0,3.06,4.64,4.24,6.66c0.7,1.19,0.66,2.76,0.57,3.97C166.8,260.62,166.76,261.29,166.89,261.95z"/>
				<path d="M172.92,262.79c2.98-0.73,2.27,0.14,6.52-0.33s5.53-2.05,5.66-2.68c0.12-0.56-1.98-0.76-4.23-1.02l-0.02,0.04
					c0,0-2.55,1.81-6.08,1.89c-2.88,0.07-5.93-0.76-7.92-0.72c-0.05,0.66-0.09,1.33,0.04,1.99
					C167.27,263.83,169.94,263.52,172.92,262.79z"/>
				<path class="st9" d="M144.57,224.71l-5.44,14.65l-7.11,19.13c0,0-1.93,0.19-3.78-0.34c-1.7-0.49-3.65-1.78-3.65-1.78
					s1.97-20.54,5.66-32.33c0.94-3.03,2-5.47,3.17-6.85C139.12,210.44,144.57,224.71,144.57,224.71z"/>
				<path class="st8" d="M139.04,201.45c-3.57-1.15-13.74,0.33-23.96,2.33l-2.14-3.53l-22.07-1.72c0,0-7.28,16.15-3.3,26.44
					c0.59,1.51,2.04,2.15,4.02,2.18c0,0,0,0,0,0c0,0,13.17,0.32,17.44,0.32c10.98,0,23.23-7.55,24.82-7.86
					c2.59-0.52,3.63,4.67,6.23,10.12c2.59,5.45,24.39,24.13,24.39,24.13s3.35,0.03,4.73-0.49c1.49-0.56,2.03-1.28,2.03-1.28
					S147.08,204.04,139.04,201.45z"/>
				<path class="st13" d="M110.59,135.43c-1.65-0.99-3.27-1.13-4.24-1.1c-0.7,0.02-1.41-0.04-2.11-0.14
					c-8.36-1.12-13.4,11.03-13.69,14.71c-0.55,6.79-4.14,7.82-9.19,12.07c-10.13,8.52-7.16,18.43-1.62,22.11
					c3.33,2.21,9.19,0,9.19,0c0.08,0.06,16.03-8.91,23.89-13.24C124.59,168.17,115.33,138.25,110.59,135.43z"/>
				<path class="st14" d="M106.22,166.16c0.03,0.02-3.87,1.35-6.48,0.2c-2.45-1.08-4.31-5.12-4.28-5.13
					c1.12-0.05,2.34-1.03,3.29-7.43l0.48,0.17l7.99,2.88c0,0-0.58,2.57-0.95,5.01C105.95,163.91,105.78,165.87,106.22,166.16z"/>
				<path class="st15" d="M107.22,156.85c0,0-0.58,2.57-0.95,5.01c-4.59-0.83-6.39-5.4-7.04-7.88L107.22,156.85z"/>
				<path class="st14" d="M108.41,159.4c0,0-10.94-1.47-9.92-8.27c1.02-6.8,0.29-11.56,7.32-10.91c7.03,0.65,7.99,3.45,8.2,5.8
					C114.23,148.37,111.28,159.6,108.41,159.4z"/>
				<path class="st13" d="M113.62,142.29c0,0-7,6.03-11.76,6.52c-4.76,0.49-6.57-1.04-6.57-1.04s2.81-2.33,4.5-6.09
					c0.5-1.11,1.55-1.87,2.76-1.97C105.95,139.41,112.39,139.27,113.62,142.29z"/>
				<path class="st13" d="M109.24,141.75c0,0,2.34,2.26,3.08,3.94c0.71,1.62,0.93,5.5,0.36,7.04c0,0,3.65-7.1,1.58-10.54
					C112.07,138.53,109.24,141.75,109.24,141.75z"/>
				<path class="st4" d="M115.43,182.28c-0.33,22.14-0.09,17.51-2.51,19.61c-0.58,0.51-2.22,0.81-4.38,0.95
					c-6.79,0.45-18.72-0.67-19.18-1.92c-1.57-4.34-0.46-5.69-1.77-12.34c-0.14-0.71-0.3-1.47-0.5-2.31
					c-1.09-4.56-2.15-6.12,1.72-13.45c3.5-6.64,7.15-12.03,7.47-11.84c9.25,5.49,9.99,0.88,9.99,0.88S115.59,171.48,115.43,182.28z"
					/>
				<path class="st8" d="M139.13,239.36l-7.11,19.13c0,0-1.93,0.19-3.78-0.34c-1.7-0.49-3.65-1.78-3.65-1.78s1.97-20.54,5.66-32.33
					L139.13,239.36z"/>
				<path class="st4" d="M106.27,161.86c0,0,9.51,1.61,10.63,5.71c1.12,4.1,7.69,28.18,7.69,28.18s-4.84,0.87-7.07-1.37
					c-2.23-2.23-7.77-20.73-7.77-20.73L106.27,161.86z"/>
				<path class="st16" d="M108.53,202.84c-6.79,0.45-18.72-0.67-19.18-1.92c-1.57-4.34-0.46-5.69-1.77-12.34l3.27-9.22
					c0,0-0.54,10.27,2.49,12.97c3.02,2.7,12.4,5.21,13.87,7.47C107.93,200.88,108.4,201.97,108.53,202.84z"/>
				<path class="st14" d="M100.76,198.52c0,0,6.7-1.49,7.78-0.9c1.08,0.59,3.72,2.76,4.05,3.51c0.33,0.75-2.41-0.57-3.3-0.81
					c-0.58-0.15-2.09,0.37-2.85,0.62c-3.16,1.05-5.1,0.51-5.1,0.51L100.76,198.52z"/>
				<path class="st4" d="M96.27,160.98c0,0-8.99,0.55-12.11,4.9c-4.38,6.11-13.08,32.16-8.09,35.64c5.61,3.91,25.54,1.02,25.54,1.02
					s0.66-3.1-0.26-4.6s-15.92-3.92-16.61-4.61c-0.69-0.69,8.65-13.49,8.65-15.57C93.39,175.68,96.27,160.98,96.27,160.98z"/>
				<path class="st14" d="M108.86,199.49c0,0,1.4,1.81,1.86,2.03c0.46,0.22,0.76,0.16,0.76,0.16l-0.95-1.7L108.86,199.49z"/>
				<path class="st14" d="M108.53,197.62l4.08,1.98c0,0-0.17,0.28-0.68,0.26c-0.5-0.02-1.77-0.49-1.77-0.49L108.53,197.62z"/>
			</g>
			<g>
				<g>
					<polygon class="st17" points="110.72,204.29 143,204.29 152.71,180.14 120.48,180.14 					"/>
					<polygon class="st18" points="143.38,203.35 100.76,203.35 100.76,204.29 143,204.29 					"/>
				</g>
				<path class="st4" d="M134.85,192.22c0.24-0.85-0.25-1.54-1.1-1.54c-0.85,0-1.73,0.69-1.98,1.54c-0.24,0.85,0.25,1.54,1.1,1.54
					C133.72,193.75,134.61,193.07,134.85,192.22z"/>
			</g>
		</g>
	</g>
	<g>
		<g>
			<g>
				<path class="st1" d="M295.93,206.6c0-0.13,0.71-14.77-6.36-18.14l0.5-0.48c3.24,1.13,6.83,4.63,8.27,9.57
					c1.07,3.67,0.26,4.48,0.26,4.61L295.93,206.6z"/>
			</g>
			<g>
				<path class="st1" d="M277.46,177.6c0,0-0.81,7.53,3.14,10.73c3.94,3.2,11.15,0.87,11.15,0.87s0.81-7.53-3.14-10.73
					C284.66,175.27,277.46,177.6,277.46,177.6z"/>
				<g>
					<path class="st1" d="M294.72,234.06c-0.13-0.74-2.68-17.98,3.84-37.19c6.27-18.46,2.8-34.11,2.77-34.27h4.61
						c0.12,0.67,0.44,16.03-4.47,37.08c-4.42,18.95,3.83,34.37,2.08,34.37H294.72z"/>
				</g>
				<g>
					<path class="st1" d="M304.41,183.17c0.02-0.1,2.23-12.73,8.15-14.17l0,0c-2.65,0.34-6.01,2.24-7.89,5.77
						c-1.4,2.62-0.91,3.37-0.94,3.47L304.41,183.17z"/>
				</g>
			</g>
			<path class="st1" d="M280.7,149.66c0,0-6.39-9.02-13.65-11.67c0,0,2.71,21.16-1.26,21.42c-3.97,0.26-1.32-23.8-1.32-23.8
				s-18.9-10.5-26.58-10.21c0,0,10.87,21.14,6.96,20.42c-3.91-0.72-16.24-22.2-16.24-22.2s-19.73-4.86-23.62,6.77
				c-3.89,11.63,0.93,17.84,3.84,18.76c2.91,0.91,21.89,1.78,21.25,4.21s-13.67,5.62-20.68,2.99c0,0,6.74,19.91,17.14,19.54
				c10.4-0.38,13.98-6.59,20.41-6.71c6.43-0.12,11.01,1.88,7.71,3.42c-3.3,1.54-14.07-0.26-19.5,3.84
				c-5.43,4.09-9.77,6.56-0.29,9.09c9.49,2.53,23.81-0.33,30.6-4.86c0.02-0.01,5.56-0.45,9.93,25.21
				c1.68,9.89,0.39,24.57,0.39,24.57l3.52-0.54c1.95-28.77-8.43-52.69-8.43-52.69S288.5,164.2,280.7,149.66z"/>
			<path class="st4" d="M338.31,187.63c0,0-21.23-8.92-13.63-25.14c0,0,6.4-10.16,14.11-13.46c0,0-1.7,23.1,2.62,23.15
				c4.32,0.05,0.04-25.88,0.04-25.88s19.88-12.49,28.22-12.63c0,0-10.54,23.57-6.34,22.55c4.2-1.01,16.31-25.03,16.31-25.03
				s21.11-6.43,26.01,5.95c4.91,12.38,0.04,19.4-3.06,20.56c-3.1,1.16-23.63,3.21-22.79,5.81c0.83,2.6,15.15,5.29,22.6,2.02
				c0,0-6.14,21.99-17.44,22.19c-11.3,0.2-15.54-6.33-22.52-6.08c-6.98,0.25-11.83,2.69-8.16,4.16c3.67,1.47,15.24-1.11,21.37,3.01
				c6.13,4.12,10.98,6.53,0.84,9.84c-10.14,3.3-28.92,4.08-33.55-3.48C338.31,187.63,338.31,187.63,338.31,187.63z"/>
			<g>
				<path class="st1" d="M396.25,142.26c0,0-53.84,24.42-57.94,45.37c0,0,1.29,9.02-3.12,20.03l0.45,3.99c0,0,4.32-14.24,7.3-16.46
					C342.94,195.19,328.45,179.04,396.25,142.26z"/>
				<path class="st1" d="M335.19,207.66c0,0-7.14,14.06-0.42,29.44l2.15-0.85c0,0-4.14-17.31-0.63-26.64
					C339.8,200.28,335.19,207.66,335.19,207.66z"/>
			</g>
			<path class="st1" d="M257.38,91.02c8.7,9.26,4.17,27.64,4.17,27.64s-18.63,3.38-27.33-5.88c-8.7-9.26-4.17-27.64-4.17-27.64
				S248.69,81.76,257.38,91.02z"/>
			<path class="st4" d="M257.38,91.02c8.7,9.26,4.17,27.64,4.17,27.64l-31.5-33.52C230.05,85.14,248.69,81.76,257.38,91.02z"/>
			<path class="st1" d="M369.58,126.28c-4.54,5.26-14.8,3.84-14.8,3.84s-2.9-9.94,1.64-15.2c4.54-5.26,14.8-3.84,14.8-3.84
				S374.12,121.02,369.58,126.28z"/>
			<path class="st1" d="M315.92,172.55c-3.04,0.84-6.57-2.28-6.57-2.28s1.41-4.49,4.45-5.33c3.04-0.84,6.57,2.28,6.57,2.28
				S318.97,171.7,315.92,172.55z"/>
			<path class="st1" d="M262.18,73.85c2.09,4.95-2.41,11.57-2.41,11.57s-7.88-1.4-9.96-6.35c-2.09-4.95,2.41-11.57,2.41-11.57
				S260.1,68.91,262.18,73.85z"/>
			<g>
				
					<ellipse transform="matrix(0.7071 -0.7071 0.7071 0.7071 7.2695 248.8928)" class="st7" cx="304.07" cy="115.67" rx="46.42" ry="46.42"/>
				
					<ellipse transform="matrix(0.9435 -0.3313 0.3313 0.9435 -21.5438 105.9663)" class="st2" cx="300.06" cy="116.18" rx="46.42" ry="46.42"/>
				<g>
					<path class="st3" d="M305.41,158.69c-11.21,1.41-22.3-1.63-31.22-8.55c-8.92-6.93-14.62-16.92-16.03-28.13
						c-1.41-11.21,1.63-22.3,8.56-31.22c6.93-8.92,16.92-14.62,28.13-16.03c11.21-1.41,22.3,1.63,31.22,8.55
						c8.92,6.93,14.62,16.92,16.03,28.13c1.41,11.21-1.63,22.3-8.55,31.22C326.61,151.58,316.62,157.27,305.41,158.69z
						 M295.16,77.26c-21.76,2.74-37.23,22.67-34.49,44.43c2.74,21.76,22.67,37.23,44.43,34.49c21.76-2.74,37.23-22.67,34.49-44.43
						C336.85,89.99,316.92,74.52,295.16,77.26z"/>
				</g>
				<g>
					<path class="st3" d="M307.44,128.17c-0.01-0.92-0.14-1.73-0.41-2.42c-0.26-0.7-0.69-1.33-1.28-1.89
						c-0.59-0.56-1.36-1.08-2.29-1.56c-0.93-0.47-2.07-0.94-3.42-1.39c-2.31-0.79-4.41-1.63-6.3-2.5c-1.89-0.87-3.51-1.88-4.86-3.03
						c-1.35-1.15-2.4-2.5-3.15-4.05c-0.75-1.55-1.14-3.39-1.15-5.54c-0.01-1.86,0.3-3.56,0.95-5.09c0.65-1.53,1.58-2.88,2.8-4.02
						c1.22-1.15,2.67-2.08,4.38-2.8c1.7-0.72,3.61-1.19,5.73-1.4l-0.05-7.02l5.65-0.04l0.05,7.12c2.03,0.25,3.87,0.77,5.52,1.57
						c1.65,0.8,3.06,1.84,4.23,3.12c1.16,1.28,2.06,2.8,2.7,4.56c0.64,1.76,0.96,3.73,0.98,5.91l-10.21,0.07
						c-0.02-2.62-0.62-4.58-1.79-5.88c-1.17-1.29-2.74-1.93-4.69-1.92c-1.06,0.01-1.97,0.16-2.73,0.46
						c-0.76,0.3-1.39,0.71-1.88,1.23c-0.49,0.52-0.85,1.13-1.08,1.83c-0.23,0.7-0.34,1.46-0.34,2.27c0.01,0.81,0.13,1.54,0.37,2.19
						c0.24,0.65,0.65,1.26,1.23,1.81c0.58,0.55,1.35,1.07,2.31,1.56c0.96,0.49,2.14,0.99,3.56,1.5c2.29,0.84,4.37,1.7,6.25,2.58
						c1.88,0.88,3.49,1.91,4.84,3.07c1.35,1.16,2.4,2.52,3.15,4.06c0.75,1.55,1.14,3.38,1.15,5.5c0.01,1.92-0.31,3.65-0.97,5.19
						c-0.66,1.54-1.6,2.87-2.81,3.99c-1.22,1.12-2.69,2.03-4.41,2.72c-1.73,0.69-3.65,1.14-5.76,1.35l0.05,6.53l-5.62,0.04
						l-0.05-6.5c-1.96-0.18-3.85-0.6-5.68-1.24c-1.83-0.64-3.45-1.58-4.88-2.8c-1.42-1.23-2.56-2.78-3.42-4.65
						c-0.86-1.87-1.3-4.12-1.32-6.75l10.21-0.07c0.01,1.55,0.24,2.85,0.68,3.88c0.44,1.04,1.03,1.86,1.77,2.48
						c0.73,0.62,1.57,1.05,2.5,1.29c0.93,0.25,1.88,0.36,2.85,0.36c1.11-0.01,2.08-0.16,2.91-0.45c0.83-0.29,1.53-0.69,2.09-1.2
						c0.56-0.51,0.98-1.11,1.26-1.8C307.31,129.73,307.44,128.98,307.44,128.17z"/>
				</g>
			</g>
		</g>
		<g>
			<polygon class="st17" points="341.11,229.58 341.11,229.62 340.18,243.84 336.75,296.63 272.5,296.63 268.71,244.56 
				267.67,230.21 267.62,229.58 			"/>
			<path class="st18" d="M341.11,229.62l-0.92,14.22c-4.84-1.69-18.29-5.74-35.82-5.74c-22.13,0-35.66,6.46-35.66,6.46l-1.04-14.35
				L341.11,229.62z"/>
			<polygon class="st17" points="343.34,237.1 265.29,237.1 264.4,228.02 344.34,228.02 			"/>
			<polygon class="st18" points="337.74,299.45 271.12,299.45 270.35,296.29 338.58,296.29 			"/>
		</g>
	</g>
	<g>
		<g>
			<g>
				<g>
					<path class="st1" d="M222.49,270.04c-0.06-0.33-1.21-8.09,1.73-16.73c2.82-8.3,1.26-15.34,1.25-15.41h2.08
						c0.05,0.3,0.2,7.21-2.01,16.68c-1.99,8.52,1.72,15.46,0.93,15.46H222.49z"/>
				</g>
				<g>
					<path class="st1" d="M226.85,247.15c0.01-0.04,1-5.73,3.67-6.37l0,0c-1.19,0.16-2.7,1.01-3.55,2.6
						c-0.63,1.18-0.41,1.51-0.42,1.56L226.85,247.15z"/>
				</g>
			</g>
			<path class="st1" d="M221.93,245.82c0,0-2.61-4.23-5.79-5.63c0,0,0.61,9.58-1.18,9.58c-1.79,0,0.1-10.72,0.1-10.72
				s-8.18-5.26-11.64-5.35c0,0,4.27,9.81,2.53,9.37c-1.73-0.44-6.65-10.44-6.65-10.44s-8.71-2.75-10.8,2.35
				c-2.08,5.11-0.1,8.04,1.18,8.53c1.28,0.49,9.77,1.43,9.42,2.51c-0.36,1.07-6.3,2.13-9.37,0.74c0,0,2.45,9.13,7.13,9.27
				c4.68,0.13,6.46-2.55,9.35-2.42c2.89,0.13,4.89,1.16,3.36,1.76c-1.53,0.59-6.31-0.52-8.86,1.16c-2.56,1.68-4.58,2.66-0.39,4.07
				c4.19,1.41,10.7,0.54,13.88-1.29c0.01-0.01,2.51-0.04,3.73,11.6c0.47,4.49-0.54,11.04-0.54,11.04l1.6-0.14
				c1.71-12.86-2.26-23.89-2.26-23.89S225.01,252.57,221.93,245.82z"/>
			<path class="st1" d="M232.03,242.37c-1.37,0.38-2.95-1.02-2.95-1.02s0.63-2.02,2-2.4c1.37-0.38,2.95,1.02,2.95,1.02
				S233.4,241.99,232.03,242.37z"/>
			<g>
				<path class="st1" d="M247.78,211.5c-4.78,3.13-4.74,11.65-4.74,11.65s7.79,3.44,12.57,0.31c4.78-3.13,4.74-11.65,4.74-11.65
					S252.56,208.37,247.78,211.5z"/>
				<path class="st4" d="M247.78,211.5c-4.78,3.13-4.74,11.65-4.74,11.65l17.31-11.34C260.35,211.81,252.56,208.37,247.78,211.5z"/>
				<path class="st1" d="M247.49,203.49c-1.43,1.94-0.17,5.31-0.17,5.31s3.59,0.22,5.03-1.72c1.43-1.94,0.17-5.31,0.17-5.31
					S248.93,201.55,247.49,203.49z"/>
			</g>
			<g>
				
					<ellipse transform="matrix(0.7525 -0.6586 0.6586 0.7525 -86.6665 202.9777)" class="st7" cx="226.7" cy="216.79" rx="20.88" ry="20.88"/>
				
					<ellipse transform="matrix(0.9979 -0.0651 0.0651 0.9979 -13.6568 15.1083)" class="st2" cx="224.89" cy="217.01" rx="20.88" ry="20.88"/>
				<g>
					<path class="st3" d="M227.3,236.14c-5.04,0.63-10.03-0.73-14.04-3.85c-4.01-3.12-6.57-7.61-7.21-12.65
						c-0.63-5.04,0.73-10.03,3.85-14.04c3.12-4.01,7.61-6.57,12.65-7.21c5.04-0.63,10.03,0.73,14.04,3.85
						c4.01,3.12,6.57,7.61,7.21,12.65c0.63,5.04-0.73,10.03-3.85,14.04C236.84,232.94,232.34,235.5,227.3,236.14z M222.69,199.51
						c-9.79,1.23-16.75,10.2-15.51,19.98c1.23,9.79,10.2,16.75,19.98,15.51c9.79-1.23,16.75-10.2,15.51-19.98
						C241.44,205.24,232.48,198.28,222.69,199.51z"/>
				</g>
				<g>
					<path class="st3" d="M228.21,222.41c0-0.41-0.06-0.78-0.18-1.09c-0.12-0.31-0.31-0.6-0.58-0.85c-0.27-0.25-0.61-0.49-1.03-0.7
						c-0.42-0.21-0.93-0.42-1.54-0.62c-1.04-0.36-1.99-0.73-2.84-1.12c-0.85-0.39-1.58-0.85-2.19-1.36
						c-0.61-0.52-1.08-1.12-1.42-1.82c-0.34-0.7-0.51-1.53-0.52-2.49c-0.01-0.84,0.14-1.6,0.43-2.29c0.29-0.69,0.71-1.29,1.26-1.81
						c0.55-0.52,1.2-0.94,1.97-1.26c0.77-0.32,1.62-0.54,2.58-0.63l-0.02-3.16l2.54-0.02l0.02,3.2c0.91,0.11,1.74,0.35,2.48,0.71
						c0.74,0.36,1.38,0.83,1.9,1.4c0.52,0.58,0.93,1.26,1.21,2.05c0.29,0.79,0.43,1.68,0.44,2.66l-4.59,0.03
						c-0.01-1.18-0.28-2.06-0.81-2.64c-0.53-0.58-1.23-0.87-2.11-0.86c-0.48,0-0.89,0.07-1.23,0.21c-0.34,0.13-0.63,0.32-0.85,0.55
						c-0.22,0.23-0.38,0.51-0.49,0.82c-0.1,0.32-0.15,0.66-0.15,1.02c0,0.36,0.06,0.69,0.17,0.99c0.11,0.29,0.29,0.57,0.55,0.82
						c0.26,0.25,0.61,0.48,1.04,0.7c0.43,0.22,0.96,0.44,1.6,0.67c1.03,0.38,1.97,0.76,2.81,1.16c0.84,0.4,1.57,0.86,2.18,1.38
						c0.61,0.52,1.08,1.13,1.42,1.83c0.34,0.7,0.51,1.52,0.52,2.48c0.01,0.87-0.14,1.64-0.44,2.33c-0.3,0.69-0.72,1.29-1.27,1.79
						c-0.55,0.51-1.21,0.91-1.98,1.22c-0.78,0.31-1.64,0.51-2.59,0.61l0.02,2.94l-2.53,0.02l-0.02-2.92
						c-0.88-0.08-1.73-0.27-2.55-0.56c-0.82-0.29-1.55-0.71-2.19-1.26c-0.64-0.55-1.15-1.25-1.54-2.09
						c-0.39-0.84-0.59-1.86-0.59-3.04l4.59-0.03c0,0.7,0.11,1.28,0.31,1.75c0.2,0.47,0.46,0.84,0.79,1.12
						c0.33,0.28,0.7,0.47,1.12,0.58c0.42,0.11,0.85,0.16,1.28,0.16c0.5,0,0.93-0.07,1.31-0.2c0.38-0.13,0.69-0.31,0.94-0.54
						c0.25-0.23,0.44-0.5,0.57-0.81C228.15,223.11,228.22,222.77,228.21,222.41z"/>
				</g>
			</g>
		</g>
		<g>
			<polygon class="st4" points="243.36,268.02 243.36,268.04 242.94,274.44 241.4,298.19 212.5,298.19 210.79,274.76 210.33,268.31 
				210.31,268.02 			"/>
			<path class="st1" d="M243.36,268.04l-0.42,6.4c-2.18-0.76-8.23-2.58-16.11-2.58c-9.95,0-16.04,2.91-16.04,2.91l-0.47-6.46
				L243.36,268.04z"/>
			<polygon class="st4" points="244.37,271.4 209.26,271.4 208.86,267.32 244.81,267.32 			"/>
			<polygon class="st1" points="241.84,299.45 211.88,299.45 211.53,298.03 242.22,298.03 			"/>
		</g>
	</g>
	<g>
		<path class="st14" d="M362.45,177.38c0,0-3.3-0.64-4.06,0c-0.75,0.64-4.33,4.28-3.57,5.47c0.77,1.19,4.44-0.99,5.2-1.19
			c0.76-0.21,2.9-1.04,2.9-1.04L362.45,177.38z"/>
		<path class="st8" d="M397.52,294.06l3.54,1.32c0,0,15.37-21.31,17.26-40.06c0.34-3.35,0.23-6.59-0.51-9.59
			c0,0,0.15-0.86,0.41-2.37c0.12-0.71,0.27-1.56,0.44-2.54c0.5-2.86,1.19-6.78,1.97-11.24c1.81-10.26,4.15-23.38,5.97-33.03
			l-0.95-0.31l-10.31-3.33l-2.13-6.77l-7.68-2.02c0,0-1.72,3.36-3.25,19.21c-0.28,2.08-0.54,4.37-0.73,6.86
			c-0.6,7.59-0.64,17.01,0.73,27.77c0.35,2.76,0.8,5.6,1.35,8.52c0.4,2.14,0.46,5.06,0.29,8.42
			C403.14,270.24,397.52,294.06,397.52,294.06z"/>
		<path class="st9" d="M401.54,210.2l16.68,33.16c0.12-0.71,0.27-1.56,0.44-2.54c0.5-2.86,1.19-6.78,1.97-11.24
			c1.81-10.26,4.15-23.38,5.97-33.03l-0.95-0.31l-10.31-3.33l-2.13-6.77l-7.68-2.02c0,0-1.72,3.36-3.25,19.21
			C401.99,205.41,401.74,207.71,401.54,210.2z"/>
		<path class="st8" d="M408.88,188.38l0.39-3.31c6.47,1.72,23.75-4.8,23.75-4.8s6.27,5.51,5.44,18.71
			c-0.4,6.44-1.14,33.83-1.9,41.93c-0.28,2.94-0.52,5.03-0.62,5.86c0,0,0,0.01,0,0.01c-0.03,0.25,0.06,0.5,0.19,0.72
			c1.13,1.91,2.06,3.91,2.83,5.95c7.52,20.04-1.16,44.71-1.16,44.71l-2.25-0.91c0,0-4.94-27.46-8.95-39.59
			c-0.68-2.06-1.33-3.67-1.93-4.64c-1.74-2.82-3.36-7.42-4.83-12.89c-2.78-10.35-5.01-23.8-6.5-34.19
			C413.12,205.95,408.88,188.38,408.88,188.38z"/>
		<path class="st14" d="M362.45,177.38l0.48,3.24c0,0,0.21,0,0.59-0.03c1.18-0.08,4.04-0.24,7.28-0.59
			c4.87-0.48,10.66-1.34,12.96-2.76c3.51-2.14,9.26-8.7,13.01-15.26c0.11-0.16,0.19-0.32,0.27-0.48c1.95-3.48,3.32-6.93,3.43-9.69
			c0.08-1.69-0.11-3.13-0.46-4.39c-0.46-1.66-1.2-2.97-1.98-3.96c-0.11-0.16-0.21-0.32-0.37-0.46c-1.29-1.53-2.54-2.17-2.54-2.17
			c-0.64-0.27-1.34,0.05-2.06,0.83v0.03c-0.59,0.62-1.23,1.55-1.85,2.73c-0.03,0.03-0.05,0.05-0.05,0.08
			c-0.13,0.24-0.27,0.51-0.43,0.8c-0.05,0.05-0.08,0.13-0.11,0.19c-0.29,0.62-0.59,1.26-0.88,1.93c-3.29,7.18-6.8,18.05-9.72,21.29
			c-1.26,1.39-7.01,4.12-11.59,6.16C365.12,176.3,362.45,177.38,362.45,177.38z"/>
		<path class="st14" d="M396.52,148.22c2.03,0.94,4.48,1.58,7.45,1.74c11.12,0.61,13.65-9.14,14.1-15.61
			c-1.6-0.58-3.01-0.53-3.82-0.48c-0.79,0.04-1.61,0.12-2.29,0.21c-1.36-0.71-3.8-4.16-5.22-9.94l-0.48,0.22l-8.02,3.77
			c0,0,0.85,2.61,1.48,5.11c0.49,1.96,0.84,3.84,0.55,4.37c-0.63,0.26-1.01,0.42-1.01,0.42s0,0,0,0.01
			C399.19,138.26,397.44,142.7,396.52,148.22z"/>
		<path class="st17" d="M393.74,155.52c0.08,0.22,0.18,0.44,0.28,0.66c2.82,6.07,8.03,31.19,8.03,31.19
			c-0.74,4.52,33.95-0.89,34.04-5c1.22-4.36-4.34-11.37-7.47-14.88c-0.39-0.44-0.74-0.92-1.05-1.42c-0.77-1.25-1.27-2.67-1.42-4.15
			c-0.62-5.83-0.38-11.3-0.43-14.62c0,0,0,0,0,0c-0.61-0.45-1.2-0.87-1.76-1.27c-0.84-0.62-1.59-1.19-2.14-1.77
			c-0.6-0.64-0.98-1.29-1.03-2.02c-0.03-0.55-0.01-1.12,0.04-1.69c0.03-0.27,0.06-0.54,0.1-0.81c0.43-2.82,1.61-5.38,1.61-5.38
			c-2.98-1.21-8.29-0.49-8.29-0.49s0.01,0.29,0.01,0.78c0.02,1.94,0,6.91-0.62,7.86c-0.78,1.17-14.99,6.31-15.74,4.72
			c-0.74-1.57,1.29-8.9,1.36-9.18c0-0.01,0-0.01,0-0.01c-4.76,1.87-6.46,3.44-6.46,3.44C395.68,143.34,391.52,149.63,393.74,155.52z
			"/>
		<path class="st19" d="M403.32,103.1c0.02-0.48,0.39-5.68,8.3-5.95c0,0-3.89,0.46-4.56,2.17c0,0,2.65-2.11,4.81-1.43
			c2.16,0.68,3.42,4.46,3.44,5.7c0.01,1.24-1.19,5.25-2.56,5.59c-0.52,0.13-1.12,0.09-1.66,0c0.36,0.57,0.72,1.2,1.06,1.9
			c3.16,6.48-0.1,12.82-2.77,12.12c-1.71-0.45-2.2,2.48-2.2,2.48l-16.66-13.48C390.52,112.2,396.64,99.54,403.32,103.1z"/>
		<path class="st20" d="M398.25,128.14c0,0,0.85,2.61,1.48,5.11c4.69-1.31,6.11-6.24,6.54-8.88L398.25,128.14z"/>
		<path class="st14" d="M397.26,130.9c0,0,11.22-2.6,9.5-9.56c-1.72-6.96-1.44-11.99-8.68-10.62c-7.24,1.36-7.97,4.36-7.96,6.83
			C390.14,120.01,394.3,131.4,397.26,130.9z"/>
		<path class="st19" d="M389.5,113.59c1.21-2.52,2.63-2.39,3.51-1.94c5.27-4.88,10.44-0.89,10.44-0.89c1.99,4.81,6.3,6.77,6.3,6.77
			s-1.72,1.77-6.72,1.73c-1.53-0.01-3.06-0.71-4.46-1.68c2.69,2.71,5.85,4.36,5.85,4.36c-6.25-1.2-10.45-8.44-10.88-9.21
			c-0.53,0.78-1.54,2.45-1.63,3.85c-0.12,1.91,0.54,5.62-0.55,5.76C391.37,122.36,387.69,117.38,389.5,113.59z"/>
		<path class="st17" d="M392.81,141.48c0,0-2.7,4.71-3.11,5.93c0,0,3.5-0.13,4.92,2.56C394.62,149.96,394.96,142.11,392.81,141.48z"
			/>
		<path class="st21" d="M411.39,178.93c6.84-0.07,12.64-7.18,16.18-12.86c-0.77-1.25-1.27-2.67-1.42-4.15
			c-0.62-5.83-0.38-11.3-0.43-14.62c0,0,0,0,0,0c-0.61-0.45-1.2-0.87-1.76-1.27c-0.84-0.62-1.59-1.19-2.14-1.77
			C416.22,153.73,402.11,179.03,411.39,178.93z"/>
		<path class="st14" d="M385.52,182.65l0.94,3.43c0,0,1.18-0.21,3.05-0.56c0.56-0.11,0.88-0.19,0.88-0.19
			c1.5-0.29,3.29-0.7,5.25-1.12h0.03c3.35-0.8,7.09-1.77,10.25-2.84c2.22-0.78,4.15-1.61,5.46-2.44c0.13-0.08,0.24-0.16,0.37-0.27
			c3.13-2.28,6.85-8.97,9.75-16.14c0.4-0.99,0.78-1.98,1.15-2.95c1.34-3.59,2.41-7.12,3.05-10.17c0.4-1.82,0.67-3.48,0.72-4.85
			c0.03-0.48,0.05-0.94,0.03-1.37c-0.05-7.76-3.91-8.84-3.91-8.84c-0.08-0.03-0.16-0.05-0.27-0.08c-0.67-0.11-1.37,0.35-2.09,1.23
			c-0.91,1.1-1.87,2.89-2.86,5.06c-1.53,3.45-3.13,7.93-4.63,12.37c-0.83,2.44-1.63,4.87-2.44,7.12c-0.46,1.37-0.91,2.65-1.34,3.83
			c-0.83,2.25-1.58,4.07-2.25,5.22c-0.43,0.75-1.66,1.79-3.29,2.97c-2.84,2.06-6.99,4.55-10.6,6.59c-1.5,0.86-2.92,1.63-4.1,2.28
			C386.78,181.98,385.52,182.65,385.52,182.65z"/>
		<path class="st17" d="M417.34,140.57c5.15-1.42,9.13,2.6,9.13,2.6c-0.06-7.75-3.92-8.81-3.92-8.81
			C421,133.72,419.2,136.41,417.34,140.57z"/>
		<path d="M424.7,300h17.82c0,0,0.43-2.72-0.5-4.78c-0.89-1.98-2.29-2.88-1.95-5.27c-1.13,1.17-2.98,2.47-5.55,2.12
			c-0.32,0.51-2.04,3.25-3.09,4.01C430.26,296.93,425.06,296.63,424.7,300z"/>
		<path d="M386.44,300h17.82c0,0,0.67-2.84-0.5-4.78c-1.04-1.71-0.64-2.69,0.13-4.1c-0.81,0.33-1.85,0.63-3,0.57
			c-0.89-0.05-1.83-0.45-2.65-0.93c-0.77,0.87-4.05,4.6-5.08,5.33C392,296.93,386.8,296.63,386.44,300z"/>
		<path class="st17" d="M384.47,198.53l-4.23-10.33c-0.55-1.35-2.03-2.05-3.4-1.67c-1.4-2.64-3.33-4.78-5.52-6.28
			c-2.31-1.59-4.9-2.46-7.46-2.45c-1.35,0.01-2.7,0.26-3.98,0.79c-6.02,2.47-8.72,10.07-6.51,17.55l-0.33,0.13
			c0,0-1.03-0.07-2.76-0.07c-5.45,0-17.85,0.72-26.55,6.77c0,0-0.55,0.58-0.57,1.47c-0.01,0.29,0.04,0.62,0.18,0.97
			c0,0,13.96-9.04,26.87,0.25c0.79,0.57,1.56,1.09,2.31,1.58l1.16,2.83c1.92,4.69,7.32,6.95,12.01,5.03l11.83-4.85l2.46-1.01
			C384.16,207.52,386.18,202.7,384.47,198.53z M361.54,190.15l-4.82,1.98c-1.31,0.54-2,1.96-1.66,3.3l-0.52,0.21
			c-1.96-6.81,0.43-13.67,5.81-15.87c0.75-0.31,1.53-0.51,2.32-0.61c2.48-0.33,5.06,0.34,7.37,1.79c2.2,1.37,4.17,3.45,5.58,6.06
			l-0.71,0.29c-0.7-1.19-2.18-1.72-3.49-1.18l-4.82,1.98c-0.38-0.92-1.27-1.48-2.21-1.48c-0.3,0-0.6,0.06-0.89,0.18l-0.67,0.27
			C361.63,187.55,361.04,188.94,361.54,190.15z"/>
		<path class="st18" d="M352.53,207.23c-0.75-0.49-1.52-1.02-2.31-1.58c-12.91-9.29-26.87-0.25-26.87-0.25
			c-0.15-0.35-0.19-0.68-0.18-0.97c1.95-1.29,9.28-5.57,18.35-4.11C352.15,202.03,354.07,203.51,352.53,207.23z"/>
		<path class="st18" d="M379.99,209.23l-2.46,1.01c3.69-2.02-0.88-10.54-3.56-16.16c-2.68-5.63-6.72-3.05-6.72-3.05
			c-0.93-1.89-2.91-1.78-2.91-1.78c-0.1-1.82-1.49-2.18-1.49-2.18l0.67-0.27c0.29-0.12,0.6-0.18,0.89-0.18
			c0.94,0,1.83,0.56,2.21,1.48l4.82-1.98c1.31-0.54,2.8,0,3.49,1.18l0.71-0.29c-1.42-2.61-3.38-4.68-5.58-6.06
			c-2.32-1.45-4.9-2.11-7.37-1.79c0.39-0.31,0.8-0.75,1.18-1.36c2.56-0.01,5.15,0.86,7.46,2.45c2.19,1.5,4.12,3.65,5.52,6.28
			c1.37-0.38,2.85,0.32,3.4,1.67l4.23,10.33C386.18,202.7,384.16,207.52,379.99,209.23z"/>
		<path class="st14" d="M374.44,185.97c1.71,0.72,4.12,3.24,7.98,1.71c2.76-1.07,5.68-1.82,7.1-2.17c0.56-0.11,0.88-0.19,0.88-0.19
			l-1.53-4.44c0,0-0.05,0.03-0.19,0.05c-0.99,0.21-6.02,1.28-8.38,0.75c-2.65-0.62-7.1,2.57-7.1,2.57S372.73,185.27,374.44,185.97z"
			/>
		<path class="st1" d="M326.07,212.86c0-1.61-2.91-6.57-2.91-6.57s-2.91,4.96-2.91,6.57c0,1.61,1.3,2.91,2.91,2.91
			C324.76,215.77,326.07,214.47,326.07,212.86z"/>
	</g>
	<g>
		<path class="st4" d="M405.13,20.02l-4.27,0.93l-0.1,0.02c-0.52,0.12-0.87,0.6-0.81,1.13l0.39,3.63c0.01,0.06,0.01,0.12,0,0.18
			c-0.03,0.4-0.29,0.77-0.68,0.9c-2.29,0.81-4.38,2.07-6.18,3.71c-0.08,0.07-0.16,0.12-0.24,0.16c-0.33,0.16-0.73,0.13-1.04-0.07
			l-2.53-1.7c-0.33-0.22-0.77-0.23-1.1-0.04c-0.1,0.06-0.2,0.14-0.28,0.23l-2.88,3.42c-0.35,0.42-0.33,1.05,0.06,1.44l2.87,2.87
			c0.28,0.28,0.38,0.7,0.24,1.08c-0.19,0.55-0.36,1.1-0.5,1.66c-0.26,1.07-0.43,2.13-0.5,3.18l0,0c-0.03,0.44-0.32,0.81-0.74,0.94
			l-3.93,1.22l-0.2,0.06c-0.51,0.15-0.82,0.68-0.7,1.2l0.95,4.37c0.12,0.53,0.62,0.89,1.16,0.84l4.04-0.43
			c0.45-0.05,0.88,0.2,1.06,0.6c0.8,1.71,1.85,3.3,3.13,4.69c0.32,0.36,0.36,0.88,0.09,1.29l-2.01,3c-0.31,0.46-0.21,1.06,0.2,1.41
			l3.43,2.89c0.41,0.34,1.01,0.31,1.37-0.06l3.37-3.37c0.28-0.29,0.71-0.38,1.09-0.26c0.47,0.16,0.95,0.3,1.45,0.42
			c0.93,0.23,1.86,0.39,2.77,0.47c0.42,0.03,0.78,0.31,0.89,0.72l1.46,4.73c0.16,0.52,0.69,0.83,1.22,0.71l4.38-0.95
			c0.46-0.1,0.8-0.51,0.82-0.98c0-0.05,0-0.1-0.01-0.15l-0.47-4.49c-0.05-0.42,0.16-0.82,0.52-1.02c0.03-0.02,0.06-0.04,0.1-0.05
			c0.1-0.04,0.2-0.08,0.3-0.14c1.18-0.54,2.3-1.21,3.34-1.99c0.34-0.27,0.83-0.28,1.19-0.03l3.17,2.12c0.45,0.3,1.06,0.21,1.4-0.2
			l0.64-0.76l2.23-2.65c0.35-0.41,0.32-1.03-0.06-1.42l-2.83-2.82c-0.3-0.3-0.38-0.76-0.2-1.14c0.46-1.02,0.85-2.1,1.13-3.23
			c0.21-0.84,0.35-1.69,0.44-2.53l0.83-0.25l3.39-1.05c0.42-0.13,0.71-0.51,0.72-0.93c0.01-0.09,0-0.18-0.02-0.27l-0.95-4.4
			c-0.12-0.52-0.61-0.86-1.13-0.81l-2.76,0.3c-0.47,0.05-0.92-0.23-1.08-0.67c-0.67-1.83-1.63-3.53-2.83-5.04
			c-0.28-0.36-0.31-0.85-0.05-1.21l2.54-3.79c0.28-0.43,0.2-0.99-0.19-1.33l-3.47-2.92c-0.41-0.35-1.01-0.32-1.38,0.06l-3.51,3.5
			c-0.3,0.3-0.75,0.39-1.15,0.22c-0.84-0.36-1.73-0.65-2.66-0.88c-0.5-0.12-0.99-0.23-1.49-0.31c-0.39-0.06-0.71-0.34-0.83-0.72
			l-1.4-4.53C406.2,20.22,405.67,19.91,405.13,20.02z M396.54,40.5c0.42-1.13,1.06-2.24,1.94-3.3c0.18-0.23,0.42-0.46,0.67-0.69
			c1.11-0.98,2.73-1.86,3.99-2.13c9.65-2.04,16.05,8.36,10.05,16.01c-0.1,0.12-0.2,0.25-0.31,0.37c-0.97,1.16-3,2.37-4.47,2.7
			c-0.77,0.17-1.53,0.26-2.25,0.28C398.91,53.94,394.16,46.96,396.54,40.5z"/>
	</g>
	<g>
		<path class="st1" d="M470.39,34.84l-6.72,0.61l-0.16,0.02c-0.82,0.08-1.45,0.75-1.46,1.57l-0.1,5.64c0,0.09-0.01,0.18-0.03,0.27
			c-0.12,0.61-0.59,1.12-1.22,1.25c-3.66,0.81-7.11,2.33-10.17,4.5c-0.13,0.09-0.27,0.16-0.4,0.2c-0.53,0.18-1.14,0.07-1.58-0.31
			l-3.55-3.09c-0.47-0.4-1.13-0.49-1.68-0.27c-0.17,0.07-0.33,0.17-0.48,0.3l-5.06,4.68c-0.62,0.57-0.71,1.54-0.18,2.22l3.85,4.94
			c0.38,0.49,0.44,1.15,0.16,1.7c-0.39,0.8-0.76,1.61-1.08,2.45c-0.61,1.58-1.06,3.18-1.37,4.78l0,0.01
			c-0.13,0.67-0.64,1.18-1.31,1.3l-6.26,1.11l-0.31,0.06c-0.81,0.14-1.38,0.88-1.31,1.71l0.62,6.87c0.08,0.84,0.77,1.49,1.61,1.5
			l6.27,0.12c0.7,0.01,1.31,0.47,1.51,1.13c0.89,2.78,2.2,5.4,3.9,7.78c0.43,0.61,0.39,1.42-0.11,1.99l-3.66,4.21
			c-0.56,0.64-0.53,1.58,0.04,2.2l4.7,5.09c0.56,0.6,1.48,0.67,2.12,0.17l5.81-4.51c0.49-0.38,1.16-0.45,1.72-0.18
			c0.69,0.34,1.41,0.64,2.14,0.92c1.38,0.53,2.77,0.95,4.16,1.25c0.63,0.13,1.13,0.63,1.23,1.27l1.33,7.52
			c0.15,0.83,0.9,1.4,1.73,1.33l6.9-0.62c0.73-0.07,1.32-0.63,1.44-1.34c0.01-0.07,0.02-0.15,0.02-0.23l0.13-6.96
			c0.01-0.65,0.39-1.23,0.99-1.47c0.05-0.02,0.1-0.05,0.16-0.06c0.16-0.05,0.32-0.09,0.48-0.16c1.91-0.6,3.76-1.42,5.5-2.41
			c0.58-0.34,1.32-0.26,1.83,0.19l4.45,3.86c0.63,0.55,1.58,0.53,2.19-0.04l1.13-1.04l3.93-3.64c0.62-0.57,0.69-1.51,0.18-2.18
			l-3.79-4.87c-0.41-0.52-0.43-1.23-0.09-1.79c0.91-1.47,1.7-3.06,2.34-4.73c0.48-1.25,0.87-2.52,1.16-3.79l1.31-0.23l5.39-0.96
			c0.67-0.11,1.18-0.64,1.28-1.29c0.03-0.14,0.03-0.27,0.01-0.41l-0.61-6.92c-0.08-0.82-0.76-1.44-1.58-1.46l-4.29-0.07
			c-0.72-0.01-1.37-0.53-1.53-1.23c-0.68-2.93-1.82-5.72-3.36-8.26c-0.37-0.6-0.31-1.36,0.15-1.87l4.62-5.32
			c0.51-0.6,0.5-1.49-0.03-2.07l-4.76-5.13c-0.56-0.61-1.49-0.69-2.13-0.18l-6.05,4.7c-0.52,0.41-1.23,0.45-1.8,0.12
			c-1.23-0.71-2.53-1.32-3.9-1.85c-0.74-0.28-1.48-0.54-2.23-0.75c-0.58-0.17-1.02-0.66-1.13-1.26l-1.28-7.21
			C471.99,35.35,471.24,34.77,470.39,34.84z M453.3,64.57c0.86-1.66,2.05-3.24,3.6-4.69c0.33-0.31,0.73-0.62,1.16-0.92
			c1.89-1.29,4.54-2.33,6.53-2.5c15.18-1.28,22.99,15.88,12.33,26.46c-0.18,0.17-0.35,0.34-0.54,0.51
			c-1.71,1.58-5.04,3.05-7.36,3.27c-1.22,0.11-2.39,0.11-3.5,0C454.35,85.61,448.41,74.01,453.3,64.57z"/>
	</g>
</g>
</svg>
