<?xml version="1.0" encoding="utf-8"?>
<!-- Generator: Adobe Illustrator 23.0.5, SVG Export Plug-In . SVG Version: 6.00 Build 0)  -->
<svg version="1.0" id="Layer_1" xmlns="http://www.w3.org/2000/svg" xmlns:xlink="http://www.w3.org/1999/xlink" x="0px" y="0px"
	 viewBox="0 0 624 320" style="enable-background:new 0 0 624 320;" xml:space="preserve">
<style type="text/css">
	.st0{opacity:0.3;fill:#35B24A;}
	.st1{fill:#E9F7FF;}
	.st2{fill:#00CC82;}
	.st3{fill:#00A26D;}
	.st4{fill:#FFFFFF;}
	.st5{opacity:0.95;fill:#57A8E5;}
	.st6{opacity:0.95;fill:#8AC8FD;}
	.st7{fill:#007048;}
	.st8{fill:none;stroke:#007048;stroke-width:2;stroke-miterlimit:10;}
	.st9{fill:#A9DAFF;}
	.st10{fill:#FFFFFF;stroke:#007048;stroke-width:2;stroke-miterlimit:10;}
	.st11{fill:#DD8B6B;}
	.st12{fill:#EA9972;}
	.st13{fill:#FBE597;}
	.st14{fill:#7D251B;}
	.st15{fill:#FCB092;}
	.st16{fill:#E59200;}
	.st17{fill:#FAC240;}
	.st18{fill:#FFAA00;}
	.st19{fill:#2850CB;}
	.st20{fill:#1845B5;}
	.st21{fill:#FFD073;}
	.st22{opacity:0.05;}
	.st23{fill:#FFC73D;}
	.st24{fill:#F4AA0E;}
</style>
<rect x="0" class="st0" width="624" height="320"/>
<g>
	<path class="st1" d="M468.44,262.87c0,26.59-338.71,26.62-338.71,0C129.73,236.28,468.44,236.25,468.44,262.87z"/>
	<g>
		<path class="st1" d="M442.91,126.31v11.66l12.98,6.69l3.24,7.82l-4.45,13.92l8.25,8.24l13.91-4.45l7.82,3.24l6.69,12.98h11.66
			l6.69-12.98l7.82-3.24l13.91,4.45l8.25-8.25l-4.45-13.91l3.24-7.82l12.98-6.69v-11.66l-12.98-6.69l-3.24-7.82l4.45-13.92
			l-8.25-8.24l-13.91,4.45l-7.83-3.24l-6.68-12.98h-11.66l-6.69,12.98l-7.82,3.24l-13.92-4.45l-8.24,8.24l4.45,13.92l-3.24,7.82
			L442.91,126.31z M497.18,105.91c14.49,0,26.24,11.75,26.24,26.24c0,14.49-11.75,26.23-26.24,26.23
			c-14.49,0-26.23-11.74-26.23-26.23C470.96,117.66,482.7,105.91,497.18,105.91z"/>
		<g>
			<path class="st1" d="M268.67,72.03L268.67,72.03c0-3.07,2.49-5.56,5.56-5.56h0.01c3.06,0,5.55,2.49,5.55,5.55v0.01
				c0,3.07-2.49,5.56-5.55,5.56h-0.01C271.16,77.59,268.67,75.1,268.67,72.03z"/>
			<path class="st1" d="M212.19,66.12v11.8l16.3,8.4l3.28,7.92l-5.58,17.48l8.34,8.33l17.48-5.55l7.91,3.27l8.39,16.28h11.81
				l8.4-16.3l7.92-3.28l17.48,5.56l8.34-8.34l-5.6-17.46l3.28-7.92l16.3-8.4v-11.8l-16.3-8.41l-3.28-7.91l5.58-17.48l-8.34-8.34
				l-17.48,5.59l-7.92-3.28L280.13,10h-11.81l-8.39,16.29l-7.91,3.28l-17.48-5.58l-8.34,8.34l5.59,17.48l-3.29,7.91L212.19,66.12z
				 M274.23,49.8c12.28,0,22.23,9.95,22.23,22.23c0,12.27-9.95,22.22-22.23,22.22c-12.27,0-22.22-9.95-22.22-22.22
				C252,59.75,261.95,49.8,274.23,49.8z"/>
			<path class="st1" d="M268.67,72.03L268.67,72.03c0-3.07,2.49-5.56,5.56-5.56h0.01c3.06,0,5.55,2.49,5.55,5.55v0.01
				c0,3.07-2.49,5.56-5.55,5.56h-0.01C271.16,77.59,268.67,75.1,268.67,72.03z"/>
			<path class="st1" d="M268.67,72.03L268.67,72.03c0-3.07,2.49-5.56,5.56-5.56h0.01c3.06,0,5.55,2.49,5.55,5.55v0.01
				c0,3.07-2.49,5.56-5.55,5.56h-0.01C271.16,77.59,268.67,75.1,268.67,72.03z"/>
		</g>
		<g>
			<path class="st1" d="M106.11,111.26L106.11,111.26c0-0.92,0.37-1.75,0.96-2.34c0.6-0.6,1.42-0.97,2.34-0.97
				c1.83,0,3.31,1.48,3.31,3.3v0.01c0,0.92-0.37,1.74-0.97,2.34c-0.6,0.59-1.42,0.96-2.34,0.96
				C107.58,114.55,106.11,113.08,106.11,111.26z"/>
			<path class="st1" d="M72.54,107.74v7.02l9.69,4.99l1.95,4.7l-3.32,10.39l4.95,4.96l10.39-3.31l4.71,1.95l4.98,9.68h7.01l5-9.69
				l4.7-1.95l10.39,3.3l4.95-4.95l-3.33-10.38l1.95-4.7l9.69-4.99v-7.02l-9.69-4.99l-1.95-4.7l3.32-10.39L133,82.69l-10.39,3.33
				l-4.71-1.95l-4.98-9.69h-7.01l-4.98,9.69l-4.71,1.95L85.81,82.7l-4.95,4.96l3.32,10.39l-1.95,4.7L72.54,107.74z M109.41,98.04
				c7.3,0,13.21,5.92,13.21,13.21c0,7.3-5.92,13.21-13.21,13.21c-7.3,0-13.21-5.91-13.21-13.21
				C96.2,103.96,102.12,98.04,109.41,98.04z"/>
			<path class="st1" d="M106.11,111.26L106.11,111.26c0-0.92,0.37-1.75,0.96-2.34c0.6-0.6,1.42-0.97,2.34-0.97
				c1.83,0,3.31,1.48,3.31,3.3v0.01c0,0.92-0.37,1.74-0.97,2.34c-0.6,0.59-1.42,0.96-2.34,0.96
				C107.58,114.55,106.11,113.08,106.11,111.26z"/>
			<path class="st1" d="M106.11,111.26L106.11,111.26c0-0.92,0.37-1.75,0.96-2.34c0.6-0.6,1.42-0.97,2.34-0.97
				c1.83,0,3.31,1.48,3.31,3.3v0.01c0,0.92-0.37,1.74-0.97,2.34c-0.6,0.59-1.42,0.96-2.34,0.96
				C107.58,114.55,106.11,113.08,106.11,111.26z"/>
		</g>
	</g>
	<g>
		<g>
			<g>
				<path class="st2" d="M400.96,245.08H176.27c-3.18,0-5.76-2.58-5.76-5.76V88.21c0-3.18,2.58-5.76,5.76-5.76h224.68
					c3.18,0,5.76,2.58,5.76,5.76v151.11C406.72,242.5,404.14,245.08,400.96,245.08z"/>
				<path class="st3" d="M412.48,245.08H180.24c-3.23,0-5.85-2.62-5.85-5.85V88.3c0-3.23,2.62-5.85,5.85-5.85h232.24
					c3.23,0,5.85,2.62,5.85,5.85v150.92C418.33,242.46,415.71,245.08,412.48,245.08z"/>
				<path class="st2" d="M418.33,87.61v152.31c0,2.24-1.43,4.13-3.42,4.84c0.2-0.54,0.31-1.13,0.31-1.74V90.72
					c0-2.84-2.31-5.15-5.17-5.15H176.45c-0.62,0-1.21,0.11-1.75,0.31c0.71-1.99,2.61-3.42,4.86-3.42h233.61
					C416.02,82.46,418.33,84.77,418.33,87.61z"/>
				<path class="st4" d="M184.71,231.83V95.7c0-1.62,1.31-2.93,2.93-2.93h212.15c1.62,0,2.93,1.31,2.93,2.93v136.13
					c0,1.62-1.31,2.93-2.93,2.93H187.64C186.02,234.75,184.71,233.44,184.71,231.83z"/>
				<g>
					<path class="st5" d="M227.18,238.63v6.45h-23.23v-6.45c0-2.85,2.31-5.16,5.16-5.16h12.91
						C224.87,233.47,227.18,235.78,227.18,238.63z"/>
					<path class="st6" d="M227.18,238.63v6.45h-19.36v-6.45c0-2.85,2.31-5.16,5.16-5.16h9.03
						C224.87,233.47,227.18,235.78,227.18,238.63z"/>
					<path class="st7" d="M395.1,239.48v5.61h-23.23v-5.61c0-2.48,2.31-4.48,5.16-4.48h12.91C392.79,234.99,395.1,237,395.1,239.48z
						"/>
					<path class="st2" d="M395.1,239.48v5.61h-19.36v-5.61c0-2.48,2.31-4.48,5.16-4.48h9.04C392.79,234.99,395.1,237,395.1,239.48z"
						/>
				</g>
				<path class="st6" d="M184.71,95.36v10.33h218V95.36c0-1.43-1.16-2.58-2.58-2.58H187.3C185.87,92.78,184.71,93.93,184.71,95.36z"
					/>
				<path class="st8" d="M184.71,231.83V95.7c0-1.62,1.31-2.93,2.93-2.93h212.15c1.62,0,2.93,1.31,2.93,2.93v136.13
					c0,1.62-1.31,2.93-2.93,2.93H187.64C186.02,234.75,184.71,233.44,184.71,231.83z"/>
			</g>
		</g>
		<path class="st8" d="M402.71,105.68h-218H402.71z"/>
		<g>
			<path class="st7" d="M209.1,246.63h-33.5c-3.66,0-6.63-2.97-6.63-6.63V87.53c0-3.66,2.97-6.63,6.63-6.63h237.57
				c2.93,0,5.49,1.89,6.38,4.7c0.23,0.71,0.34,1.37,0.34,2.01v152.31c0,0.39-0.04,0.78-0.12,1.24c-0.02,0.1-0.04,0.19-0.08,0.34
				c-0.07,0.29-0.15,0.57-0.26,0.84c-0.05,0.13-0.1,0.25-0.16,0.37c-0.11,0.25-0.25,0.49-0.43,0.78c-0.05,0.09-0.1,0.17-0.17,0.27
				c-0.21,0.3-0.44,0.58-0.69,0.84c-0.1,0.1-0.2,0.19-0.4,0.36c-0.15,0.13-0.31,0.27-0.46,0.38c-0.17,0.12-0.34,0.23-0.52,0.34
				c-0.15,0.09-0.3,0.17-0.45,0.24c-0.2,0.1-0.4,0.19-0.51,0.23c-0.05,0.03-0.15,0.07-0.2,0.09c-0.06,0.02-0.11,0.03-0.17,0.05
				c-0.7,0.24-1.41,0.35-2.1,0.35h-17.93c-0.05,0-0.09,0.01-0.14,0.01h-23.23c-0.05,0-0.09,0-0.14-0.01H232.61
				c-0.05,0-0.09,0.01-0.14,0.01h-23.23C209.19,246.64,209.14,246.64,209.1,246.63z M232.47,243.53h139.4c0.05,0,0.09,0,0.14,0.01
				h22.96c0.05,0,0.09-0.01,0.14-0.01h18.07c0.39,0,0.79-0.08,1.22-0.23c0.03-0.01,0.05-0.02,0.08-0.03
				c0.1-0.04,0.19-0.08,0.29-0.13c0.08-0.04,0.17-0.09,0.24-0.13c0.09-0.05,0.18-0.11,0.29-0.18c0.08-0.06,0.16-0.13,0.25-0.21
				c0.01-0.01,0.2-0.17,0.21-0.18c0.14-0.14,0.27-0.3,0.37-0.45l1.31,0.84l-1.2-1.02c0.08-0.13,0.15-0.25,0.21-0.39
				c0,0,0.01-0.01,0.01-0.02l0.08-0.19c0.05-0.14,0.1-0.29,0.14-0.44c0-0.01,0.04-0.16,0.04-0.17c0.04-0.22,0.07-0.44,0.07-0.67
				V87.61c0-0.32-0.06-0.66-0.19-1.08c-0.48-1.51-1.85-2.53-3.42-2.53H175.6c-1.95,0-3.53,1.58-3.53,3.53V240
				c0,1.95,1.58,3.53,3.53,3.53h33.64c0.05,0,0.09,0,0.14,0.01h22.96C232.38,243.53,232.42,243.53,232.47,243.53z"/>
		</g>
		<g>
			<path class="st2" d="M424.53,249.84c-0.79-0.4-1.68-0.62-2.61-0.62H169.74c-0.94,0-1.83,0.22-2.62,0.63
				c0.27-0.57,0.63-1.07,1.07-1.51c1.03-1.06,2.47-1.7,4.05-1.7h247.18C421.66,246.64,423.6,247.94,424.53,249.84z"/>
			<path class="st9" d="M430.32,255.02c0,1.61-0.65,3.06-1.71,4.11c-1.04,1.04-2.5,1.7-4.1,1.7H167.14c-0.96,0-1.87-0.24-2.66-0.65
				c-1.3-1.33-2.1-3.14-2.1-5.14c0-1.96,0.75-3.79,2.11-5.18c0.79-0.41,1.7-0.64,2.66-0.64H424.5
				C427.72,249.21,430.32,251.81,430.32,255.02z"/>
		</g>
		<path class="st7" d="M424.96,247.67c-1.38-1.63-3.39-2.59-5.54-2.59H172.24c-1.95,0-3.78,0.78-5.16,2.18
			c-0.25,0.25-0.5,0.54-0.71,0.84c-0.16,0.22-0.3,0.44-0.42,0.65c-0.13,0.08-0.27,0.17-0.4,0.25c-0.34,0.22-0.7,0.5-1.01,0.82
			c-0.02,0.02-0.03,0.03-0.04,0.04c-1.36,1.39-2.11,3.22-2.11,5.18c0,2,0.8,3.81,2.1,5.14c1.34,1.37,3.21,2.21,5.27,2.21h151
			c0.07,0,0.14-0.01,0.21-0.02H424.5c1.95,0,3.8-0.76,5.2-2.13c1.39-1.39,2.16-3.25,2.16-5.22
			C431.86,251.11,428.8,247.91,424.96,247.67z M424.5,259.27H320.79c-0.07,0-0.14,0.01-0.21,0.02H169.74
			c-2.35,0-4.26-1.91-4.26-4.25c0-1.15,0.44-2.22,1.24-3.02c0.16-0.17,0.34-0.31,0.5-0.41c0.21-0.14,0.43-0.27,0.67-0.39l-0.01-0.01
			c0.19-0.09,0.35-0.2,0.49-0.34c0.2-0.22,0.33-0.49,0.38-0.77c0.04-0.06,0.08-0.13,0.12-0.19c0.11-0.15,0.26-0.32,0.41-0.46
			c0.07-0.08,0.15-0.15,0.23-0.21c0.01-0.01,0.01-0.02,0.02-0.02c0.77-0.67,1.71-1.03,2.71-1.03h247.18c1.01,0,1.96,0.37,2.71,1.03
			c0.01,0,0.01,0,0.02,0.02c0.27,0.24,0.52,0.52,0.73,0.84c0.28,0.43,0.77,0.7,1.3,0.7h0.33c2.34,0,4.25,1.91,4.25,4.25
			c0,1.15-0.44,2.21-1.23,3.02C426.71,258.83,425.63,259.27,424.5,259.27z"/>
		<g>
			<path class="st10" d="M319.89,255.67h-41.45c-1.62,0-2.93-1.31-2.93-2.93v-0.94h47.3v0.94
				C322.81,254.36,321.5,255.67,319.89,255.67z"/>
			<path class="st10" d="M319.89,255.67h-41.45c-1.62,0-2.93-1.31-2.93-2.93v-0.94h47.3v0.94
				C322.81,254.36,321.5,255.67,319.89,255.67z"/>
		</g>
		<g>
			<g>
				<g>
					<path class="st11" d="M294.23,147.44c-1.32,0.44-1.79,1.09-2.88,0.42c-1.09-0.67-7.18-2.83-7.46-2.31
						c-0.28,0.52,3.71,2.57,3.71,2.57s-10.36,2.55-10.36,3.12c0,0.56,6.31-0.12,6.31-0.12s-6.59,1.14-6.48,1.72
						c0.12,0.58,6.6-0.67,6.6-0.67s-5.24,1.54-5.08,2.16c0.16,0.62,5.63-1.02,5.63-1.02c0.15,0.01-9.42,4.71,5.16,0
						c1.08-0.35,3.15-0.91,4.41-0.93C294.34,151.24,294.23,147.44,294.23,147.44z"/>
					<path class="st11" d="M340.74,93.82c-0.04,3.13,0.44,6.48,1.11,9.54c-2.09-0.11-3.53,0.24-14.1,1.96
						c2.05-3.53,4.17-7.34,3.82-11.41c3.44,1.13,6.71,1.25,10.19,0.26L340.74,93.82z"/>
					
						<ellipse transform="matrix(0.9991 -0.0417 0.0417 0.9991 -3.004 14.0551)" class="st12" cx="335.58" cy="79.07" rx="13.69" ry="17.54"/>
					<path class="st11" d="M312.17,121.65c0,0,0.57,3.01,0.5,11.3c-0.07,8.02-21.14,15.51-21.14,15.51l1.41,3.99
						c0,0,29.38,0.58,32.52-21.38c1.26-10.46,0.28-9.81,0.28-9.81L312.17,121.65z"/>
					<g>
						<path class="st12" d="M327.16,303.38l0.95-9.24h-4.56c0,0,2.44,8.75-1.55,10c-0.5,1,1.07,1.12,1.07,1.12s2.02-0.28,2.08-0.31
							c0.06-0.03,1.5-0.68,1.5-0.68L327.16,303.38z"/>
						<path class="st12" d="M326.66,302.16c0.71,1.58,1.94,3.98-2.64,4.9c-4.58,0.92-9.88,1.73-12.92-0.02
							c0.42-1.97,12.72-1.56,13.11-4.67c0.04-0.32,0.13-0.78,0.16-1.03C324.66,298.81,326.68,300.45,326.66,302.16z"/>
						<path class="st13" d="M310.37,309.53c1.3,0.26,7.5,0.46,14.42-0.35c4.88-0.57,3.79-3.79,2.71-5.8
							c-2.31,1.08-5.38,1.84-8.78,2.09c-2.02,0.15-3.02,0.57-4.77,0.35C308.3,306.48,309.31,309.31,310.37,309.53z"/>
					</g>
					<g>
						<path class="st12" d="M351.77,303.62l0.95-9.24h-4.56c0,0,2.44,8.75-1.55,10c-0.5,1,1.07,1.12,1.07,1.12s2.02-0.28,2.08-0.31
							c0.06-0.03,1.5-0.68,1.5-0.68L351.77,303.62z"/>
						<path class="st12" d="M351.27,302.4c0.71,1.58,1.94,3.98-2.64,4.9c-4.58,0.92-9.88,1.73-12.92-0.02
							c0.42-1.97,12.72-1.56,13.11-4.67c0.04-0.32,0.13-0.78,0.16-1.03C349.28,299.05,351.29,300.69,351.27,302.4z"/>
						<path class="st13" d="M334.98,309.77c1.3,0.26,7.5,0.46,14.42-0.35c4.88-0.57,3.79-3.79,2.71-5.8
							c-2.31,1.08-5.38,1.84-8.78,2.09c-2.02,0.15-3.02,0.57-4.77,0.35C332.91,306.72,333.93,309.55,334.98,309.77z"/>
					</g>
					<path class="st7" d="M321.37,160.33l-9.56,78.55l11.02,63.35l6.73-1.35c0,0,5.6-41.75-0.87-65.66
						c-0.56-3.52,20.81-58.3,19.41-73.21C337.12,160.33,321.37,160.33,321.37,160.33z"/>
					<path class="st3" d="M356.93,164.99c0,0,1.02,40.05-10.26,69.54c12.75,13.29,7.06,66.03,7.06,66.03h-6.14l-17.61-65.86
						l-3.27-76.9L356.93,164.99z"/>
					<path class="st9" d="M362.16,129.77l-5.06,0.28c0,0,7.57,32.83,0.56,39.94c-7.16,7.26-35.54,6.64-40.65-1.53
						c0.19-9.25,3.53-40.95,3.53-40.95s-2.13,0.27-10.13-3.94c3.09-7.03,10.7-25.23,25.97-25.2c25.63,0.05,27.47,31.11,27.47,31.11
						L362.16,129.77z"/>
					<path class="st14" d="M344.98,69.23c0,0-19.24,9.43-26.06-4.33c-1.47-3.31-1.72-11.66,3.16-11.15
						c5.63,0.59,0.06,5.21,6.24,6.46c6.18,1.24,19.92-3.74,21.66,6.54c1.57,9.29-1.41,17.86-1.41,17.86S348.29,71.59,344.98,69.23z"
						/>
					<path class="st12" d="M349.73,81.96c3.29,0,3.29-6.34,0-6.34C346.44,75.62,346.44,81.96,349.73,81.96z"/>
				</g>
				<g>
					<g>
						<path class="st15" d="M239.17,121.74c2.49-1.77,5.97-1.03,7.52,1.63c2.63,4.52,7.37,12.82,17.25,29.38
							c10.37-1.62,20.73-3.13,31.11-4.56c0.15-0.38,0.32-0.75,0.57-1.05c0.8-0.96,5.73-4.88,6.16-4.49
							c0.42,0.39-2.62,3.55-2.62,3.55s7.8-0.43,7.98,0.09c0.18,0.52-3.29,1.4-3.29,1.4s4.61-0.85,4.69-0.28
							c0.08,0.57-4.47,1.29-4.47,1.29s4.01-0.31,4.06,0.32c0.05,0.63-4.21,0.91-4.21,0.91s2.19,0.3,2.13,0.9
							c-0.09,0.88-8.61,0.4-11.27,1.26c-0.01-0.01-0.01-0.02-0.02-0.03c-34.34,8.18-33.44,9.24-35.32,6.69
							c-7.96-10.89-13.61-18.67-21.5-29.76C236.28,126.65,236.83,123.4,239.17,121.74z"/>
						<path class="st12" d="M198.37,272.62c-0.01-0.1-0.01-0.2-0.01-0.29c2.04,0.12,6.1-5.63,8.37-7.78l3.52,3.88l-6.77,5.07l0,0
							c-0.23,0.18-0.59,0.48-0.87,0.68c-2.82,2.09,4.34,13.88,2.64,15.37c-3.38-2.01-5.5-7.63-7.12-12.61
							C197.38,274.58,197.66,273.32,198.37,272.62z"/>
						<path d="M203.22,291.64c-0.98-1.13-4.57-7.08-7.58-14.27c-2.13-5.08,1.62-5.78,4.18-5.84c0.4,5.32,4.22,13.44,5.07,14.57
							C207.35,291.99,204.02,292.55,203.22,291.64z"/>
						<path class="st16" d="M248.53,168.72c2.81,28.68,12.5,63.57-13.46,82.12l-29.19,23.46l-3.44-7.63l24.11-27.8
							c16.81-17.85,10.14-40.49,4.37-72.43L248.53,168.72z"/>
						<g>
							<path class="st12" d="M237.13,296.08L237.13,296.08l-0.59-6.27h5.24c-0.01,0.15-0.78,8.46-0.81,8.61
								c-0.54,3.47,13.54,1.84,14.17,4.01c-3.26,2.2-9.25,1.72-14.44,1.06c-3.87-0.49-4.2-2.16-3.84-3.73
								C236.88,299.61,237.25,298.08,237.13,296.08z"/>
							<path d="M256.16,305.17c-1.44,0.4-8.35,1.11-16.14,0.77c-5.5-0.24-4.54-3.93-3.5-6.27c4.99,1.9,13.95,1.91,15.34,1.63
								C258.23,301.59,257.32,304.84,256.16,305.17z"/>
							<g>
								<path class="st17" d="M242.26,292.38h-6.4c-0.33-4.86-4.76-83.71-8.54-99.05c-10.91-13.25,2.39-25.14,2.39-25.14
									s-2.2-0.97,19.93,0.53C254.47,226.58,242.28,292.23,242.26,292.38z"/>
								<path class="st18" d="M246.42,264.15c-2.1,17.11-4.16,28.23-4.16,28.23h-6.4c0,0-0.56-9.91-1.45-23.54
									c1.72,2.82,3.97,4.89,6.59,4.47C243.36,272.93,245.11,269.46,246.42,264.15z"/>
							</g>
						</g>
						<g>
							<path class="st14" d="M234.62,136.54c1.89-0.31,6.93-1.3,8.91-2.66c3.36-2.32,5.75-7.41,6.32-10.88
								c0.88-4.9-1.08-12.55,2.2-16.08c2.56-2.77,10.65-4.13,5.86-11.11c1-2.29,2.81-3.42,1.57-11.5
								c-0.74-4.76-2.89-10.38-7.21-12.5c0,0-0.01-0.01-0.02-0.01c-5.21-2.56-13.27-1.77-17.52,2.36
								c-7.84,7.61-5.37,15.26-6.42,23.28c-0.89,5.87-4.13,8.92-7.72,13.41C208.28,126.22,219,139.12,234.62,136.54z"/>
							<g>
								<path class="st12" d="M239.01,115.67h10.95c-0.02-0.15-1.48-13.39-1.38-12.55h-8.18
									C240.38,103.28,238.92,116.51,239.01,115.67z"/>
								<path class="st11" d="M239.47,111.5c3.9,1.15,7.63,0.75,10.14,0.61c-0.02-0.15-0.95-8.65-0.89-8.12c-0.16,0-8.57,0-8.42,0
									C240.11,105.74,239.43,111.89,239.47,111.5z"/>
								<path class="st12" d="M246.59,105.84c-12,2.07-21-16.21-14.09-28.29c1.86-3.25,14.62-5.68,17.35-3.55
									c0.95,0.75,1.85,1.63,2.66,2.63C260.85,86.91,257.33,103.99,246.59,105.84z"/>
							</g>
							<path class="st14" d="M227.32,101.15c3.77,1.89,8.26-0.07,11.47-2.54c10.03-7.68,7.42-14.97,10.83-19.87
								c1.38-1.98,2.49-3.46,4.99-3.48c-0.84-1.22-1.91-1.46-4.56-4.3c-10.1-2.93-19.13,3.51-20.93,13.54
								c-0.92,5.19,0.14,10.1-1.32,15.25C227.67,100.23,227.5,100.7,227.32,101.15z"/>
						</g>
						<path class="st19" d="M238.73,113.18c-14.1,3.85-11.15,55.54-11.15,55.54h23.04c0,0,0.4-48.14-0.97-55.5
							C246.7,113.22,238.73,113.18,238.73,113.18z"/>
						<path class="st19" d="M252.22,141.47c-0.84,1.47-1.59,27.1-1.6,27.25l-2.05-12.25c0.01-0.16,1.24-27.2,1.23-27.02l-0.15-16.24
							C249.68,113.37,269.92,139.5,252.22,141.47z"/>
						<path class="st20" d="M259.01,137.21c-0.85,2.23-2.9,3.83-6.78,4.27c-0.08,0.14-0.16,0.49-0.23,1
							c-2.11-0.88-4.08-2.3-5.43-3.16c0.78-7.29,1.15-7.4,1.18-7.4C247.62,134.04,252.04,144.61,259.01,137.21z"/>
						<path class="st12" d="M245.01,140.17c-0.2,4.01,0.03,8.18,0.63,12.27c5.31,16.63,11.24,32.71,11.3,32.88
							c0.42,0.08,0.84,0.19,1.21,0.39c1.13,0.63,6.09,4.93,5.77,5.44c-0.32,0.51-4.13-2-4.13-2s2.92,10.44,2.42,10.72
							c-0.5,0.28-3.05-5.64-3.05-5.64s2.28,6.4,1.72,6.59c-0.57,0.19-2.71-6.17-2.71-6.17s1.26,5.4,0.63,5.57
							c-0.63,0.17-1.91-5.49-1.91-5.49s0.28,3.52-0.34,3.57c-0.82,0.07-2.08-8.81-3.3-11.81c-2.45-5.14-4.86-10.28-7.22-15.45
							c-6.27-13.69-9.08-18.18-9.54-31.23C238.86,140.27,242.74,140.24,245.01,140.17z"/>
						<path class="st20" d="M237.11,140.56l-2.64-0.53c0,0,0.23-14.06,4.23-16.46C238.12,131.35,237.11,140.56,237.11,140.56z"/>
						<path class="st19" d="M247.34,140.65c-3.51,2.56-11.45-0.44-11.63-0.45c0.04-0.15-0.06-20.1,7.26-19.51
							C250.29,121.27,247.04,134.06,247.34,140.65z"/>
					</g>
				</g>
				<path class="st12" d="M364.14,131.12c0,0,4.75,27.32-13.82,25.95c-18.57-1.38-40.28-7.68-40.28-7.68l-0.24-5.27
					c0,0,33.41-0.12,36.73-0.58c3.32-0.46-0.23-15.7-0.23-15.7l17.04-1.21L364.14,131.12z"/>
				<path class="st12" d="M312.79,146.25c-1.03-0.2-1.99-1.77-3.35-2.28c-1.36-0.51-8.62-1.63-8.82-0.99
					c-0.2,0.64,4.7,2.08,4.7,2.08s-11.02,5.07-10.9,5.7c0.12,0.63,7.02-1.48,7.02-1.48s-7.12,2.69-6.86,3.31
					c0.25,0.62,7.22-2.15,7.22-2.15s-5.52,2.84-5.2,3.5c0.31,0.66,6.06-2.34,6.06-2.34c0.18-0.02-9.51,7.27,5.76-1.11
					c1.13-0.62,3.32-1.69,4.73-1.98C313.51,147.1,312.79,146.25,312.79,146.25z"/>
			</g>
		</g>
	</g>
	<g>
		<g>
			<g>
				<path class="st17" d="M201.75,126.84c-2.03-2.42-5.79-3.4-12.96-3.4h-26.04c-7.34,0-11.16,1.05-13.18,3.62
					c-1.98,2.51-1.98,6.21-1.98,11.33v9.76c0,9.92,2.34,14.95,15.16,14.95h26.04c6.22,0,9.67-0.87,11.9-3
					c2.29-2.19,3.26-5.76,3.26-11.95v-9.76C203.94,132.99,203.79,129.27,201.75,126.84z M183.77,144.61l-11.82,6.18
					c-0.26,0.14-0.55,0.21-0.84,0.21c-0.33,0-0.65-0.09-0.94-0.26c-0.54-0.33-0.88-0.92-0.88-1.56v-12.32
					c0-0.63,0.33-1.22,0.87-1.55c0.54-0.33,1.22-0.35,1.78-0.06l11.82,6.14c0.6,0.31,0.98,0.93,0.98,1.61
					C184.75,143.68,184.37,144.3,183.77,144.61z"/>
			</g>
			<g>
				<path class="st18" d="M201.75,126.84c-0.77-0.92-1.79-1.62-3.14-2.15c0.04,0.62,0.05,1.23,0.05,1.85
					c0,18.97-15.37,34.34-34.34,34.34c-5.49,0-10.67-1.29-15.28-3.58c1.82,3.86,5.74,5.8,13.71,5.8h26.03
					c6.23,0,9.67-0.87,11.91-3.01c2.28-2.18,3.26-5.76,3.26-11.94v-9.76C203.94,132.99,203.79,129.27,201.75,126.84z"/>
			</g>
			<g>
				<path class="st21" d="M201.75,126.84c-2.03-2.41-5.79-3.4-12.97-3.4h-26.03c-7.34,0-11.16,1.05-13.19,3.62
					c-1.97,2.51-1.97,6.21-1.97,11.33v9.76c0,6.14,0.9,10.41,4.62,12.76c-1.55-2.45-1.98-5.82-1.98-10.12v-9.76
					c0-5.12,0-8.82,1.97-11.33c2.03-2.57,5.85-3.62,13.19-3.62h26.03c5.35,0,8.81,0.55,11.06,1.83
					C202.28,127.52,202.03,127.17,201.75,126.84z"/>
			</g>
			<path class="st4" d="M171.94,135.25c-0.56-0.29-1.24-0.27-1.78,0.06c-0.54,0.33-0.87,0.92-0.87,1.55v12.32
				c0,0.64,0.33,1.23,0.88,1.56c0.29,0.17,0.61,0.26,0.94,0.26c0.29,0,0.58-0.07,0.84-0.21l11.82-6.18c0.6-0.31,0.98-0.94,0.98-1.61
				c0-0.68-0.38-1.3-0.98-1.61L171.94,135.25z"/>
			<path class="st22" d="M184.75,142.99c0,0.68-0.38,1.3-0.98,1.62l-11.83,6.17c-0.26,0.14-0.55,0.21-0.85,0.21
				c-0.33,0-0.65-0.09-0.93-0.26c-0.55-0.33-0.88-0.92-0.88-1.56v-12.32c0-0.63,0.33-1.22,0.87-1.55c0.55-0.33,1.22-0.35,1.79-0.06
				l11.82,6.14C184.37,141.7,184.75,142.32,184.75,142.99z"/>
		</g>
	</g>
	<g>
		<g>
			<path class="st18" d="M404.77,165.97h-9.87v25.02c0,11.47,9.37,20.75,20.88,20.6c11.32-0.15,20.33-9.58,20.33-20.91v-23.49
				c0-0.68-0.55-1.22-1.22-1.22h-9.87v25.02c0,5.34-4.41,9.65-9.78,9.51c-5.18-0.14-9.24-4.52-9.24-9.7v-23.6
				C405.99,166.51,405.45,165.97,404.77,165.97z M405.99,165.97"/>
			<path class="st9" d="M436.1,177.06v-9.87c0-0.68-0.55-1.22-1.22-1.22h-9.87v11.09H436.1z"/>
			<path class="st9" d="M405.99,177.06v-9.87c0-0.68-0.55-1.22-1.22-1.22h-9.87v11.09H405.99z"/>
		</g>
		<g>
			<path class="st17" d="M399.27,165.97h-8.65c-0.68,0-1.22,0.55-1.22,1.22v23.79c0,11.47,9.37,20.75,20.88,20.6
				c11.32-0.15,20.33-9.58,20.33-20.91v-23.49c0-0.68-0.55-1.22-1.22-1.22h-8.65c-0.68,0-1.22,0.55-1.22,1.22v23.79
				c0,5.34-4.41,9.65-9.78,9.51c-5.18-0.14-9.24-4.52-9.24-9.7v-23.6C400.49,166.51,399.95,165.97,399.27,165.97z M400.49,165.97"/>
			<path class="st1" d="M430.6,177.06v-9.87c0-0.68-0.55-1.22-1.22-1.22h-8.65c-0.68,0-1.22,0.55-1.22,1.22v9.87H430.6z"/>
			<path class="st1" d="M400.49,177.06v-9.87c0-0.68-0.55-1.22-1.22-1.22h-8.65c-0.68,0-1.22,0.55-1.22,1.22v9.87H400.49z"/>
		</g>
	</g>
	<g>
		<g>
			<g>
				<g>
					<circle class="st23" cx="212.19" cy="108.78" r="9.55"/>
				</g>
			</g>
		</g>
		<g>
			<g>
				<g>
					<g>
						<path class="st24" d="M212.2,116.71L212.2,116.71c-0.52,0-1.04-0.05-1.55-0.15c-0.17-0.03-0.28-0.2-0.24-0.36
							c0.09-0.46,0.47-0.11,1.78-0.11c0.17,0,0.31,0.14,0.31,0.31C212.51,116.57,212.37,116.71,212.2,116.71z M213.38,116.31
							c-0.09-0.46,0.4-0.28,1.61-0.78c0.38-0.16,0.62,0.42,0.24,0.57c-0.48,0.2-0.98,0.35-1.49,0.45
							C213.57,116.59,213.41,116.48,213.38,116.31z M209.17,116.11c-0.48-0.2-0.94-0.44-1.37-0.73c-0.14-0.1-0.18-0.29-0.09-0.43
							c0.26-0.39,0.48,0.09,1.69,0.59c0.16,0.07,0.23,0.25,0.17,0.41C209.51,116.1,209.32,116.18,209.17,116.11z M216.17,115.29
							c-0.26-0.39,0.26-0.41,1.19-1.34c0.29-0.29,0.73,0.15,0.44,0.44c-0.37,0.37-0.77,0.7-1.2,0.99
							C216.46,115.47,216.27,115.43,216.17,115.29z M206.59,114.39c-0.37-0.37-0.7-0.77-0.99-1.2c-0.1-0.14-0.06-0.33,0.08-0.43
							c0.39-0.26,0.41,0.26,1.34,1.19c0.12,0.12,0.12,0.32,0,0.44C206.91,114.51,206.72,114.52,206.59,114.39z M218.36,113.27
							c-0.39-0.26,0.09-0.48,0.59-1.69c0.16-0.38,0.73-0.14,0.57,0.24c-0.2,0.48-0.44,0.94-0.73,1.37
							C218.69,113.32,218.5,113.36,218.36,113.27z M204.87,111.83c-0.2-0.48-0.35-0.98-0.45-1.49c-0.03-0.17,0.08-0.33,0.24-0.36
							c0.46-0.09,0.28,0.4,0.78,1.61c0.07,0.16-0.01,0.34-0.17,0.41C205.12,112.06,204.94,111.98,204.87,111.83z M219.6,110.57
							c-0.46-0.09-0.11-0.47-0.11-1.79l0-0.03c0-0.41,0.62-0.41,0.62,0c-0.01,0.19,0.02,0.73-0.15,1.57
							C219.93,110.5,219.77,110.6,219.6,110.57z M204.26,108.79c0.01-0.2-0.01-0.72,0.15-1.55c0.08-0.4,0.69-0.28,0.61,0.12
							c-0.14,0.74-0.13,1.25-0.14,1.43C204.88,108.96,204.26,109.2,204.26,108.79z M219.36,107.33c-0.26-1.28-0.69-1.59-0.25-1.77
							c0.16-0.07,0.34,0.01,0.41,0.17c0.2,0.48,0.35,0.98,0.46,1.49C220.04,107.61,219.44,107.73,219.36,107.33z M204.86,105.76
							c0.2-0.48,0.44-0.94,0.73-1.37c0.23-0.34,0.74,0,0.52,0.34c-0.27,0.4-0.49,0.82-0.67,1.26
							C205.28,106.38,204.7,106.14,204.86,105.76z M218.26,104.7c-0.74-1.09-1.25-1.21-0.91-1.54c0.12-0.12,0.32-0.12,0.44,0
							c0.37,0.37,0.7,0.77,0.99,1.2C219,104.7,218.49,105.04,218.26,104.7z M206.57,103.19c0.37-0.37,0.77-0.7,1.2-0.99
							c0.34-0.23,0.69,0.29,0.35,0.51c-0.4,0.27-0.77,0.57-1.1,0.91C206.72,103.92,206.28,103.48,206.57,103.19z M216.23,102.69
							c-1.09-0.73-1.61-0.64-1.43-1.08c0.07-0.16,0.25-0.23,0.4-0.17c0.48,0.2,0.94,0.44,1.37,0.73c0.14,0.09,0.18,0.29,0.09,0.43
							C216.57,102.75,216.38,102.79,216.23,102.69z M209.14,101.46c0.48-0.2,0.98-0.35,1.49-0.45c0.4-0.08,0.53,0.53,0.12,0.61
							c-0.47,0.09-0.93,0.23-1.37,0.42C209,102.19,208.76,101.62,209.14,101.46z M213.6,101.61c-0.74-0.14-1.27-0.13-1.43-0.14
							c-0.4,0-0.42-0.62,0.01-0.62c0.52,0,1.03,0.05,1.53,0.15c0.17,0.03,0.28,0.2,0.25,0.36
							C213.93,101.53,213.77,101.64,213.6,101.61z"/>
					</g>
				</g>
			</g>
		</g>
		<path class="st24" d="M215.17,108.87c-0.56-0.57-1.42-0.82-2.19-1.02c-0.07-0.02-0.15-0.04-0.23-0.06
			c-0.31-0.07-1.11-0.28-1.41-0.41c-0.42-0.19-0.51-0.39-0.51-0.64c0-0.53,0.41-0.69,0.93-0.75c0.34-0.04,0.78-0.04,1.14,0.03
			c0.46,0.09,0.85,0.32,0.95,0.79c0.02,0.04,0.03,0.27,0.28,0.27c1.22-0.18,1.4-0.1,1.52-0.27c0.1-0.12,0.04-0.24,0.04-0.27
			c-0.27-1.36-1.21-1.99-2.57-2.17v-0.67c0-0.58-0.82-0.34-1.18-0.39c-0.57,0-0.35,0.77-0.39,1.04c-0.73,0.08-1.32,0.28-1.76,0.6
			c-1.06,0.78-1.13,2.31-0.59,3.12c0.56,0.83,1.5,1.12,2.48,1.38c1.23,0.32,1.08,0.28,1.19,0.32c0.54,0.16,1,0.36,1,0.91
			c0,0.58-0.4,0.79-0.98,0.88c-0.35,0.05-0.82,0.06-1.15,0.02c-0.69-0.07-1.2-0.31-1.38-0.98c-0.21-0.34,0.09-0.32-1.6,0
			c-0.16,0.03-0.26,0.18-0.22,0.34c0.02,0.04,0.19,1.17,1.22,1.79c0.45,0.27,1.05,0.45,1.78,0.51c0.05,0.28-0.18,1.07,0.39,1.07
			c0.35-0.05,1.18,0.19,1.18-0.39v-0.7c1.58-0.21,2.71-1.06,2.71-2.64C215.83,110.2,215.6,109.3,215.17,108.87z"/>
	</g>
	<g>
		<g>
			<g>
				<g>
					<circle class="st23" cx="458.82" cy="214.8" r="12.79"/>
				</g>
			</g>
		</g>
		<g>
			<g>
				<g>
					<g>
						<path class="st24" d="M458.83,225.41L458.83,225.41c-0.7,0-1.4-0.07-2.07-0.2c-0.23-0.04-0.37-0.26-0.33-0.49
							c0.12-0.62,0.63-0.14,2.39-0.14c0.23,0,0.42,0.19,0.42,0.42S459.06,225.41,458.83,225.41z M460.42,224.88
							c-0.12-0.62,0.54-0.37,2.16-1.05c0.51-0.21,0.83,0.56,0.32,0.77c-0.64,0.27-1.31,0.47-1.99,0.6
							C460.68,225.25,460.46,225.11,460.42,224.88z M454.77,224.61c-0.64-0.26-1.26-0.59-1.84-0.98c-0.19-0.13-0.24-0.39-0.11-0.58
							c0.35-0.52,0.64,0.12,2.27,0.79c0.21,0.09,0.31,0.33,0.23,0.54C455.23,224.6,454.99,224.7,454.77,224.61z M464.15,223.51
							c-0.35-0.52,0.35-0.55,1.6-1.79c0.39-0.39,0.98,0.2,0.59,0.59c-0.49,0.49-1.03,0.94-1.61,1.32
							C464.54,223.75,464.28,223.7,464.15,223.51z M451.33,222.31c-0.49-0.49-0.94-1.03-1.32-1.61c-0.13-0.19-0.08-0.45,0.11-0.58
							c0.52-0.35,0.55,0.35,1.8,1.59c0.16,0.16,0.16,0.42,0,0.59C451.75,222.47,451.49,222.48,451.33,222.31z M467.08,220.81
							c-0.52-0.35,0.12-0.64,0.79-2.27c0.21-0.51,0.98-0.19,0.77,0.32c-0.27,0.64-0.6,1.26-0.98,1.83
							C467.53,220.88,467.27,220.94,467.08,220.81z M449.02,218.88c-0.27-0.64-0.47-1.31-0.61-1.99c-0.04-0.22,0.1-0.44,0.33-0.49
							c0.62-0.12,0.37,0.54,1.05,2.16c0.09,0.21-0.01,0.45-0.22,0.54C449.35,219.19,449.11,219.09,449.02,218.88z M468.75,217.19
							c-0.62-0.12-0.14-0.63-0.14-2.4l0-0.04c0-0.55,0.83-0.55,0.83,0c-0.01,0.26,0.02,0.98-0.2,2.1
							C469.19,217.1,468.97,217.24,468.75,217.19z M448.21,214.81c0.01-0.27-0.02-0.97,0.2-2.07c0.11-0.54,0.92-0.38,0.82,0.16
							c-0.19,0.99-0.17,1.67-0.18,1.91C449.04,215.04,448.21,215.36,448.21,214.81z M468.42,212.86c-0.35-1.72-0.92-2.13-0.34-2.38
							c0.21-0.09,0.45,0.01,0.54,0.22c0.27,0.64,0.47,1.31,0.61,1.99C469.34,213.23,468.53,213.39,468.42,212.86z M449.01,210.75
							c0.26-0.64,0.59-1.26,0.98-1.84c0.31-0.46,1,0,0.69,0.46c-0.35,0.53-0.66,1.1-0.9,1.69
							C449.56,211.58,448.8,211.26,449.01,210.75z M466.95,209.34c-0.98-1.46-1.67-1.62-1.22-2.07c0.16-0.16,0.42-0.16,0.59,0
							c0.49,0.49,0.94,1.03,1.33,1.6C467.94,209.33,467.25,209.79,466.95,209.34z M451.3,207.31c0.49-0.49,1.03-0.94,1.6-1.32
							c0.46-0.31,0.92,0.38,0.46,0.69c-0.53,0.36-1.03,0.77-1.48,1.22C451.5,208.28,450.91,207.7,451.3,207.31z M464.24,206.64
							c-1.47-0.98-2.16-0.86-1.92-1.44c0.09-0.21,0.33-0.31,0.54-0.23c0.64,0.26,1.26,0.59,1.84,0.98c0.19,0.13,0.24,0.38,0.12,0.58
							C464.69,206.72,464.43,206.77,464.24,206.64z M454.74,205c0.64-0.27,1.31-0.47,1.99-0.61c0.54-0.11,0.7,0.71,0.16,0.81
							c-0.63,0.13-1.24,0.31-1.83,0.56C454.55,205.97,454.23,205.21,454.74,205z M460.71,205.19c-0.99-0.19-1.7-0.17-1.91-0.18
							c-0.54,0-0.57-0.83,0.02-0.83c0.69,0,1.38,0.07,2.05,0.2c0.23,0.04,0.37,0.26,0.33,0.49
							C461.15,205.09,460.93,205.24,460.71,205.19z"/>
					</g>
				</g>
			</g>
		</g>
		<path class="st24" d="M462.82,214.91c-0.75-0.76-1.91-1.1-2.93-1.37c-0.1-0.03-0.2-0.05-0.31-0.08c-0.41-0.1-1.48-0.37-1.89-0.55
			c-0.56-0.25-0.68-0.52-0.68-0.86c0-0.71,0.54-0.92,1.25-1c0.45-0.06,1.05-0.06,1.52,0.04c0.62,0.12,1.14,0.43,1.27,1.05
			c0.03,0.05,0.04,0.36,0.38,0.36c1.63-0.24,1.88-0.14,2.03-0.36c0.13-0.17,0.06-0.32,0.06-0.37c-0.37-1.82-1.62-2.67-3.44-2.91
			v-0.89c0-0.78-1.09-0.45-1.58-0.53c-0.76,0-0.46,1.03-0.52,1.39c-0.97,0.1-1.76,0.37-2.35,0.81c-1.42,1.05-1.51,3.09-0.78,4.18
			c0.75,1.11,2.01,1.5,3.32,1.85c1.65,0.44,1.44,0.38,1.6,0.42c0.72,0.21,1.34,0.49,1.34,1.22c0,0.78-0.53,1.06-1.31,1.17
			c-0.47,0.07-1.09,0.07-1.54,0.02c-0.93-0.1-1.61-0.41-1.84-1.31c-0.28-0.45,0.12-0.44-2.15,0c-0.21,0.04-0.34,0.25-0.3,0.45
			c0.02,0.05,0.25,1.56,1.63,2.4c0.61,0.37,1.41,0.6,2.38,0.68c0.06,0.37-0.24,1.43,0.52,1.43c0.46-0.07,1.58,0.26,1.58-0.53v-0.94
			c2.11-0.28,3.64-1.42,3.64-3.53C463.7,216.7,463.39,215.49,462.82,214.91z"/>
	</g>
	<g>
		<g>
			<g>
				<g>
					
						<ellipse transform="matrix(0.1609 -0.987 0.987 0.1609 190.0896 480.9649)" class="st23" cx="377.91" cy="128.69" rx="12.67" ry="12.67"/>
				</g>
			</g>
		</g>
		<g>
			<g>
				<g>
					<g>
						<path class="st24" d="M377.92,139.21c-0.28-0.01-0.96,0.02-2.05-0.2c-0.22-0.04-0.37-0.26-0.32-0.48
							c0.12-0.61,0.63-0.14,2.37-0.14c0.23,0,0.42,0.18,0.42,0.41C378.32,139.02,378.14,139.21,377.92,139.21z M379.48,138.68
							c-0.12-0.61,0.53-0.37,2.14-1.04c0.5-0.21,0.82,0.55,0.32,0.76c-0.63,0.26-1.3,0.47-1.97,0.6
							C379.74,139.05,379.53,138.9,379.48,138.68z M373.89,138.41c-0.63-0.26-1.25-0.59-1.82-0.97c-0.19-0.13-0.24-0.38-0.11-0.57
							c0.35-0.52,0.64,0.12,2.25,0.78C374.71,137.86,374.39,138.62,373.89,138.41z M383.19,137.32c-0.35-0.52,0.35-0.54,1.58-1.78
							c0.38-0.38,0.97,0.2,0.58,0.58c-0.49,0.49-1.02,0.93-1.59,1.31C383.57,137.56,383.31,137.51,383.19,137.32z M370.48,136.14
							c-0.49-0.49-0.93-1.02-1.31-1.59c-0.13-0.19-0.08-0.44,0.11-0.57c0.52-0.35,0.54,0.35,1.78,1.58c0.16,0.16,0.16,0.42,0,0.58
							C370.9,136.3,370.64,136.3,370.48,136.14z M386.09,134.64c-0.52-0.35,0.12-0.64,0.78-2.25c0.21-0.5,0.97-0.19,0.76,0.32
							c-0.26,0.63-0.59,1.25-0.97,1.82C386.53,134.72,386.28,134.77,386.09,134.64z M368.19,132.73c-0.26-0.63-0.47-1.3-0.6-1.97
							c-0.04-0.22,0.1-0.44,0.32-0.48c0.61-0.12,0.37,0.53,1.04,2.14C369.16,132.91,368.4,133.23,368.19,132.73z M387.74,131.06
							c-0.61-0.12-0.14-0.63-0.14-2.37l0-0.03c0-0.54,0.82-0.54,0.82,0c-0.01,0.25,0.02,0.97-0.2,2.09
							C388.18,130.97,387.96,131.11,387.74,131.06z M367.39,128.71c0.01-0.26-0.02-0.96,0.2-2.05c0.1-0.53,0.91-0.38,0.81,0.16
							c-0.19,0.98-0.17,1.66-0.18,1.89C368.21,128.93,367.39,129.25,367.39,128.71z M387.41,126.76c-0.34-1.71-0.91-2.11-0.34-2.35
							c0.21-0.09,0.45,0.01,0.54,0.22c0.27,0.63,0.47,1.3,0.6,1.97c0.04,0.22-0.1,0.44-0.32,0.48
							C387.67,127.13,387.46,126.99,387.41,126.76z M368.18,124.68c0.26-0.64,0.59-1.25,0.97-1.82c0.3-0.45,0.99,0,0.68,0.46
							c-0.35,0.53-0.65,1.09-0.89,1.68C368.73,125.5,367.97,125.18,368.18,124.68z M385.95,123.28c-0.98-1.45-1.65-1.6-1.21-2.05
							c0.16-0.16,0.42-0.16,0.58,0c0.49,0.48,0.93,1.02,1.31,1.59C386.94,123.27,386.26,123.73,385.95,123.28z M370.45,121.27
							c0.49-0.49,1.02-0.93,1.59-1.31c0.45-0.3,0.91,0.38,0.46,0.68c-0.53,0.35-1.02,0.76-1.47,1.21
							C370.65,122.23,370.07,121.65,370.45,121.27z M383.27,120.61c-1.45-0.97-2.14-0.85-1.9-1.43c0.09-0.21,0.33-0.31,0.54-0.22
							c0.63,0.26,1.25,0.59,1.82,0.97C384.18,120.23,383.72,120.91,383.27,120.61z M373.86,118.98c0.63-0.26,1.3-0.47,1.97-0.6
							c0.53-0.11,0.7,0.7,0.16,0.81c-0.62,0.12-1.23,0.31-1.82,0.56C373.67,119.95,373.35,119.19,373.86,118.98z M379.77,119.17
							c-0.98-0.19-1.68-0.17-1.89-0.18c-0.53,0-0.56-0.82,0.02-0.82c0.69,0,1.37,0.07,2.03,0.19c0.22,0.04,0.37,0.26,0.33,0.48
							C380.21,119.07,380,119.21,379.77,119.17z"/>
					</g>
				</g>
			</g>
		</g>
		<path class="st24" d="M376.1,125.97c0-0.7,0.54-0.91,1.23-0.99c0.45-0.06,1.04-0.06,1.51,0.04c0.61,0.12,1.13,0.42,1.26,1.04
			c0.02,0.04,0.04,0.35,0.38,0.35c1.67-0.24,1.86-0.14,2.01-0.36c0.13-0.16,0.06-0.33,0.06-0.36c-0.36-1.81-1.61-2.64-3.41-2.88
			v-0.88c0-0.78-1.09-0.45-1.56-0.52c-0.75,0-0.46,1.04-0.52,1.38c-0.96,0.1-1.75,0.37-2.33,0.8c-1.41,1.04-1.5,3.07-0.78,4.14
			c0.74,1.1,1.99,1.49,3.29,1.83c1.74,0.46,2.91,0.61,2.91,1.62c0,0.77-0.53,1.05-1.3,1.16c-0.46,0.07-1.08,0.07-1.53,0.02
			c-1.76-0.19-1.78-1.27-1.84-1.35c-0.04-0.16-0.19-0.28-0.36-0.28c-0.07,0-0.06,0.01-1.75,0.33c-0.21,0.04-0.34,0.25-0.29,0.45
			c0.08,0.19,0.25,1.55,1.61,2.38c0.6,0.36,1.39,0.59,2.36,0.68c0.06,0.37-0.24,1.41,0.52,1.41h1.04c0.76,0,0.46-1.06,0.52-1.45
			c0.92-0.12,1.69-0.4,2.28-0.83c0.87-0.63,1.32-1.53,1.32-2.67C382.74,126.67,376.1,127.87,376.1,125.97z"/>
	</g>
	<g>
		<g>
			<g>
				<g>
					<circle class="st23" cx="133.56" cy="198.05" r="15.88"/>
				</g>
			</g>
		</g>
		<g>
			<g>
				<g>
					<g>
						<path class="st24" d="M133.57,211.23c-0.35-0.02-1.21,0.02-2.57-0.25c-0.28-0.06-0.46-0.33-0.41-0.61
							c0.15-0.76,0.79-0.18,2.96-0.18c0.28,0,0.52,0.23,0.52,0.52C134.08,211,133.85,211.23,133.57,211.23z M135.53,210.57
							c-0.15-0.77,0.67-0.46,2.68-1.3c0.63-0.26,1.03,0.69,0.4,0.95c-0.79,0.33-1.63,0.58-2.47,0.75
							C135.86,211.03,135.59,210.85,135.53,210.57z M128.53,210.23c-0.79-0.33-1.56-0.74-2.28-1.22c-0.24-0.16-0.3-0.48-0.14-0.72
							c0.43-0.65,0.8,0.14,2.81,0.98C129.55,209.54,129.16,210.49,128.53,210.23z M140.17,208.86c-0.44-0.65,0.43-0.68,1.98-2.23
							c0.48-0.48,1.21,0.25,0.73,0.73c-0.61,0.61-1.28,1.16-1.99,1.64C140.65,209.16,140.33,209.1,140.17,208.86z M124.25,207.38
							c-0.61-0.61-1.16-1.28-1.64-1.99c-0.16-0.24-0.1-0.56,0.14-0.72c0.65-0.43,0.68,0.43,2.23,1.98c0.2,0.2,0.2,0.53,0,0.73
							C124.78,207.58,124.45,207.58,124.25,207.38z M143.8,205.51c-0.65-0.43,0.15-0.8,0.98-2.81c0.26-0.63,1.21-0.24,0.95,0.39
							c-0.33,0.79-0.74,1.56-1.22,2.28C144.36,205.6,144.04,205.67,143.8,205.51z M121.39,203.11c-0.33-0.8-0.58-1.63-0.75-2.47
							c-0.06-0.28,0.13-0.55,0.41-0.61c0.77-0.15,0.46,0.66,1.3,2.68C122.6,203.34,121.65,203.74,121.39,203.11z M145.88,201.02
							c-0.77-0.15-0.18-0.79-0.18-2.98l0-0.04c0-0.68,1.03-0.68,1.03,0c-0.02,0.32,0.03,1.22-0.25,2.61
							C146.43,200.9,146.15,201.08,145.88,201.02z M120.38,198.07c0.02-0.33-0.02-1.2,0.25-2.57c0.13-0.67,1.14-0.47,1.01,0.2
							c-0.24,1.22-0.21,2.08-0.23,2.37C121.41,198.35,120.38,198.75,120.38,198.07z M145.47,195.64c-0.43-2.14-1.14-2.65-0.42-2.95
							c0.26-0.11,0.56,0.01,0.67,0.28c0.33,0.79,0.59,1.63,0.76,2.47c0.06,0.28-0.12,0.55-0.4,0.61
							C145.79,196.1,145.52,195.92,145.47,195.64z M121.37,193.03c0.33-0.8,0.74-1.56,1.21-2.28c0.38-0.57,1.24,0,0.86,0.57
							c-0.44,0.66-0.82,1.37-1.12,2.1C122.06,194.05,121.11,193.66,121.37,193.03z M143.64,191.27c-1.22-1.81-2.07-2.01-1.52-2.56
							c0.2-0.2,0.53-0.2,0.73,0c0.61,0.61,1.16,1.28,1.65,1.99C144.87,191.26,144.02,191.83,143.64,191.27z M124.22,188.75
							c0.61-0.61,1.28-1.16,1.99-1.64c0.57-0.38,1.14,0.47,0.58,0.86c-0.66,0.44-1.28,0.95-1.84,1.52
							C124.47,189.96,123.74,189.23,124.22,188.75z M140.28,187.93c-1.82-1.21-2.68-1.07-2.38-1.79c0.11-0.26,0.41-0.39,0.67-0.28
							c0.8,0.33,1.56,0.74,2.28,1.21C141.42,187.45,140.85,188.3,140.28,187.93z M128.48,185.88c0.79-0.33,1.63-0.59,2.47-0.75
							c0.67-0.13,0.87,0.88,0.2,1.01c-0.78,0.16-1.54,0.39-2.28,0.7C128.25,187.1,127.85,186.14,128.48,185.88z M135.9,186.12
							c-1.23-0.24-2.11-0.21-2.37-0.22c-0.67,0-0.71-1.02,0.02-1.03c0.86,0,1.71,0.08,2.54,0.24c0.28,0.05,0.46,0.33,0.41,0.6
							C136.45,186,136.18,186.18,135.9,186.12z"/>
					</g>
				</g>
			</g>
		</g>
		<path class="st24" d="M131.29,194.64c0-0.88,0.68-1.14,1.55-1.25c0.56-0.07,1.3-0.07,1.89,0.05c0.77,0.15,1.42,0.53,1.58,1.31
			c0.03,0.05,0.05,0.44,0.47,0.44c2.09-0.3,2.33-0.18,2.52-0.45c0.16-0.2,0.07-0.41,0.07-0.45c-0.46-2.26-2.02-3.31-4.27-3.61v-1.11
			c0-0.97-1.36-0.56-1.96-0.65c-0.94,0-0.58,1.3-0.65,1.73c-1.21,0.13-2.19,0.46-2.92,1c-1.77,1.3-1.88,3.84-0.97,5.19
			c0.93,1.38,2.49,1.87,4.12,2.3c2.17,0.57,3.65,0.77,3.65,2.04c0,0.96-0.66,1.31-1.62,1.46c-0.58,0.09-1.36,0.09-1.91,0.03
			c-2.21-0.24-2.23-1.59-2.31-1.69c-0.05-0.2-0.24-0.35-0.45-0.35c-0.09,0-0.07,0.01-2.2,0.42c-0.26,0.05-0.43,0.31-0.37,0.56
			c0.1,0.24,0.32,1.94,2.02,2.98c0.75,0.46,1.75,0.74,2.96,0.85c0.08,0.46-0.3,1.77,0.65,1.77h1.31c0.95,0,0.57-1.33,0.65-1.81
			c1.15-0.15,2.12-0.5,2.86-1.04c1.1-0.79,1.65-1.92,1.65-3.35C139.61,195.52,131.29,197.02,131.29,194.64z"/>
	</g>
	<g>
		<g>
			<g>
				<g>
					
						<ellipse transform="matrix(0.155 -0.9879 0.9879 0.155 -20.5865 358.3554)" class="st23" cx="199.2" cy="191.21" rx="6.8" ry="6.8"/>
				</g>
			</g>
		</g>
		<g>
			<g>
				<g>
					<g>
						<path class="st24" d="M199.2,196.85c-0.48-0.02-1.35,0.03-1.27-0.37c0.06-0.33,0.34-0.08,1.27-0.08c0.12,0,0.22,0.1,0.22,0.22
							C199.42,196.75,199.32,196.85,199.2,196.85z M200.04,196.57c-0.07-0.33,0.29-0.2,1.15-0.56c0.27-0.11,0.44,0.3,0.17,0.41
							c-0.34,0.14-0.7,0.25-1.06,0.32C200.18,196.77,200.07,196.69,200.04,196.57z M197.04,196.43c-0.34-0.14-0.67-0.32-0.98-0.52
							c-0.1-0.07-0.13-0.2-0.06-0.31c0.19-0.28,0.34,0.06,1.2,0.42C197.48,196.13,197.31,196.54,197.04,196.43z M202.03,195.84
							c-0.19-0.28,0.19-0.29,0.85-0.95c0.21-0.21,0.52,0.11,0.31,0.31c-0.26,0.26-0.55,0.5-0.85,0.7
							C202.23,195.97,202.1,195.94,202.03,195.84z M195.21,195.21c-0.26-0.26-0.5-0.55-0.7-0.85c-0.07-0.1-0.04-0.24,0.06-0.31
							c0.28-0.19,0.29,0.19,0.95,0.85C195.73,195.1,195.42,195.41,195.21,195.21z M203.58,194.41c-0.28-0.19,0.06-0.34,0.42-1.2
							c0.11-0.27,0.52-0.1,0.41,0.17c-0.14,0.34-0.32,0.67-0.52,0.97C203.82,194.45,203.68,194.47,203.58,194.41z M193.99,193.38
							c-0.14-0.34-0.25-0.7-0.32-1.06c-0.02-0.12,0.05-0.24,0.17-0.26c0.33-0.06,0.2,0.28,0.56,1.15
							C194.51,193.48,194.1,193.65,193.99,193.38z M204.47,192.49c-0.33-0.06-0.07-0.34-0.07-1.27l0-0.02c0-0.29,0.44-0.29,0.44,0
							c-0.01,0.14,0.01,0.52-0.11,1.12C204.71,192.43,204.59,192.51,204.47,192.49z M193.56,191.22c0.01-0.14-0.01-0.51,0.11-1.1
							c0.06-0.29,0.49-0.2,0.43,0.08c-0.1,0.52-0.09,0.89-0.1,1.01C194,191.34,193.56,191.51,193.56,191.22z M204.29,190.18
							c-0.18-0.91-0.49-1.13-0.18-1.26c0.11-0.05,0.24,0.01,0.29,0.12c0.14,0.34,0.25,0.7,0.32,1.06
							C204.78,190.38,204.35,190.47,204.29,190.18z M193.98,189.06c0.14-0.34,0.32-0.67,0.52-0.98c0.16-0.24,0.53,0,0.37,0.24
							c-0.19,0.28-0.35,0.59-0.48,0.9C194.28,189.5,193.87,189.33,193.98,189.06z M203.51,188.31c-0.52-0.78-0.89-0.86-0.65-1.1
							c0.09-0.09,0.23-0.09,0.31,0c0.26,0.26,0.5,0.55,0.7,0.85C204.04,188.31,203.68,188.55,203.51,188.31z M195.2,187.23
							c0.26-0.26,0.55-0.5,0.85-0.7c0.24-0.16,0.49,0.2,0.25,0.37c-0.28,0.19-0.55,0.41-0.79,0.65
							C195.31,187.75,194.99,187.44,195.2,187.23z M202.07,186.88c-0.78-0.52-1.15-0.46-1.02-0.77c0.05-0.11,0.18-0.17,0.29-0.12
							c0.34,0.14,0.67,0.31,0.98,0.52C202.56,186.67,202.32,187.04,202.07,186.88z M197.03,186c0.34-0.14,0.7-0.25,1.06-0.32
							c0.29-0.06,0.37,0.38,0.09,0.43c-0.33,0.07-0.66,0.17-0.97,0.3C196.93,186.52,196.76,186.12,197.03,186z M200.2,186.11
							c-0.53-0.1-0.9-0.09-1.01-0.1c-0.29,0-0.3-0.44,0.01-0.44c0.37,0,0.73,0.04,1.09,0.1c0.12,0.02,0.2,0.14,0.17,0.26
							C200.43,186.05,200.32,186.13,200.2,186.11z"/>
					</g>
				</g>
			</g>
		</g>
		<path class="st24" d="M201.32,191.27c-0.4-0.4-1.01-0.58-1.56-0.73c-0.89-0.24-1.53-0.31-1.53-0.79c0-0.38,0.29-0.49,0.66-0.53
			c1.45-0.18,1.45,0.58,1.49,0.61c0.02,0.09,0.1,0.16,0.19,0.16c1.03-0.15,1.12-0.04,1.11-0.39c-0.2-0.97-0.86-1.42-1.83-1.55v-0.47
			c0-0.42-0.59-0.24-0.84-0.28c-0.4,0-0.25,0.55-0.28,0.74c-2,0.21-2.18,1.88-1.67,2.65c0.87,1.29,3.33,0.87,3.33,1.85
			c0,0.41-0.28,0.56-0.7,0.62c-1.7,0.25-1.77-0.69-1.81-0.71c-0.07-0.26-0.33-0.12-1.13,0.03c-0.11,0.02-0.18,0.13-0.16,0.24
			c0.04,0.11,0.14,0.83,0.87,1.27c0.32,0.2,0.75,0.32,1.27,0.36c0.03,0.19-0.13,0.76,0.28,0.76c0.25-0.04,0.84,0.14,0.84-0.28v-0.5
			c1.12-0.15,1.93-0.75,1.93-1.88C201.79,192.22,201.62,191.58,201.32,191.27z"/>
	</g>
	<g>
		<g>
			<g>
				<g>
					<circle class="st23" cx="437.54" cy="105.68" r="6.8"/>
				</g>
			</g>
		</g>
		<g>
			<g>
				<g>
					<g>
						<path class="st24" d="M437.54,111.32c-0.48-0.02-1.35,0.03-1.27-0.37c0.06-0.33,0.34-0.08,1.27-0.08
							c0.12,0,0.22,0.1,0.22,0.22C437.76,111.22,437.67,111.32,437.54,111.32z M438.38,111.04c-0.07-0.33,0.29-0.2,1.15-0.56
							c0.27-0.11,0.44,0.3,0.17,0.41c-0.34,0.14-0.7,0.25-1.06,0.32C438.52,111.24,438.41,111.16,438.38,111.04z M435.38,110.9
							c-0.34-0.14-0.67-0.32-0.98-0.52c-0.1-0.07-0.13-0.2-0.06-0.31c0.19-0.28,0.34,0.06,1.2,0.42
							C435.82,110.6,435.65,111.01,435.38,110.9z M440.37,110.31c-0.19-0.28,0.19-0.29,0.85-0.95c0.21-0.21,0.52,0.11,0.31,0.31
							c-0.26,0.26-0.55,0.5-0.85,0.7C440.57,110.44,440.44,110.41,440.37,110.31z M433.56,109.68c-0.26-0.26-0.5-0.55-0.7-0.85
							c-0.07-0.1-0.04-0.24,0.06-0.31c0.28-0.19,0.29,0.19,0.95,0.85C434.07,109.57,433.76,109.88,433.56,109.68z M441.92,108.88
							c-0.28-0.19,0.06-0.34,0.42-1.2c0.11-0.27,0.52-0.1,0.41,0.17c-0.14,0.34-0.32,0.67-0.52,0.97
							C442.16,108.92,442.03,108.94,441.92,108.88z M432.33,107.85c-0.14-0.34-0.25-0.7-0.32-1.06c-0.02-0.12,0.05-0.24,0.17-0.26
							c0.33-0.06,0.2,0.28,0.56,1.15C432.85,107.95,432.44,108.12,432.33,107.85z M442.81,106.96c-0.33-0.06-0.07-0.34-0.07-1.27
							l0-0.02c0-0.29,0.44-0.29,0.44,0c-0.01,0.14,0.01,0.52-0.11,1.12C443.05,106.9,442.93,106.98,442.81,106.96z M431.9,105.69
							c0.01-0.14-0.01-0.51,0.11-1.1c0.06-0.29,0.49-0.2,0.43,0.08c-0.1,0.52-0.09,0.89-0.1,1.01
							C432.34,105.81,431.9,105.98,431.9,105.69z M442.64,104.65c-0.18-0.91-0.49-1.13-0.18-1.26c0.11-0.05,0.24,0.01,0.29,0.12
							c0.14,0.34,0.25,0.7,0.32,1.06C443.13,104.85,442.69,104.94,442.64,104.65z M432.32,103.53c0.14-0.34,0.32-0.67,0.52-0.98
							c0.16-0.24,0.53,0,0.37,0.24c-0.19,0.28-0.35,0.59-0.48,0.9C432.62,103.97,432.21,103.8,432.32,103.53z M441.85,102.78
							c-0.52-0.78-0.89-0.86-0.65-1.1c0.09-0.09,0.23-0.09,0.31,0c0.26,0.26,0.5,0.55,0.7,0.85
							C442.38,102.78,442.02,103.02,441.85,102.78z M433.54,101.7c0.26-0.26,0.55-0.5,0.85-0.7c0.24-0.16,0.49,0.2,0.25,0.37
							c-0.28,0.19-0.55,0.41-0.79,0.65C433.65,102.22,433.34,101.91,433.54,101.7z M440.41,101.35c-0.78-0.52-1.15-0.46-1.02-0.77
							c0.05-0.11,0.18-0.17,0.29-0.12c0.34,0.14,0.67,0.31,0.98,0.52C440.9,101.14,440.66,101.51,440.41,101.35z M435.37,100.47
							c0.34-0.14,0.7-0.25,1.06-0.32c0.29-0.06,0.37,0.38,0.09,0.43c-0.33,0.07-0.66,0.17-0.97,0.3
							C435.27,100.99,435.1,100.59,435.37,100.47z M438.54,100.58c-0.53-0.1-0.9-0.09-1.02-0.1c-0.29,0-0.3-0.44,0.01-0.44
							c0.37,0,0.73,0.04,1.09,0.1c0.12,0.02,0.2,0.14,0.17,0.26C438.78,100.52,438.66,100.6,438.54,100.58z"/>
					</g>
				</g>
			</g>
		</g>
		<path class="st24" d="M439.66,105.74c-0.4-0.4-1.01-0.58-1.56-0.73c-0.89-0.24-1.53-0.31-1.53-0.79c0-0.38,0.29-0.49,0.66-0.53
			c1.45-0.18,1.45,0.58,1.49,0.61c0.02,0.09,0.1,0.16,0.19,0.16c1.03-0.15,1.12-0.04,1.11-0.39c-0.2-0.97-0.86-1.42-1.83-1.55v-0.47
			c0-0.42-0.59-0.24-0.84-0.28c-0.4,0-0.25,0.55-0.28,0.74c-2,0.21-2.18,1.88-1.67,2.65c0.87,1.29,3.33,0.87,3.33,1.85
			c0,0.41-0.28,0.56-0.7,0.62c-1.7,0.25-1.77-0.69-1.81-0.71c-0.07-0.26-0.33-0.12-1.13,0.03c-0.11,0.02-0.18,0.13-0.16,0.24
			c0.04,0.11,0.14,0.83,0.87,1.27c0.32,0.2,0.75,0.32,1.27,0.36c0.03,0.19-0.13,0.76,0.28,0.76c0.25-0.04,0.84,0.14,0.84-0.28v-0.5
			c1.12-0.15,1.93-0.75,1.93-1.88C440.13,106.69,439.96,106.05,439.66,105.74z"/>
	</g>
	<g>
		<path class="st9" d="M291.37,137.85h-8.59c-1.9,0-3.44-1.54-3.44-3.44l0,0h15.47l0,0C294.81,136.31,293.27,137.85,291.37,137.85z"
			/>
		<path class="st17" d="M268.75,91.04c0-10.16,8.31-18.37,18.5-18.22c9.84,0.14,17.85,8.19,17.95,18.02c0.04,4.21-1.34,8.1-3.7,11.2
			c-3.32,4.38-5.37,9.58-5.8,15.03c-0.05,0.7-0.08,1.4-0.08,2.1v4.31h-17.3v-4.06c0-0.79-0.03-1.57-0.09-2.35
			c-0.43-5.4-2.36-10.6-5.69-14.91C270.16,99.09,268.75,95.23,268.75,91.04z"/>
		<g>
			<path class="st18" d="M278.22,117.07h17.48c-0.05,0.7-0.08,1.4-0.08,2.1v4.31h-17.3v-4.06
				C278.32,118.64,278.29,117.86,278.22,117.07z"/>
			<path class="st18" d="M291.22,104.52c0.63,0,1.14,0.51,1.14,1.14v21.53c0,0.63-0.51,1.14-1.14,1.14c-0.63,0-1.14-0.51-1.14-1.14
				v-21.53C290.08,105.03,290.59,104.52,291.22,104.52z"/>
			<path class="st18" d="M282.78,104.52c0.63,0,1.14,0.51,1.14,1.14v21.53c0,0.63-0.51,1.14-1.14,1.14c-0.63,0-1.14-0.51-1.14-1.14
				v-21.53C281.64,105.03,282.15,104.52,282.78,104.52z"/>
			<path class="st18" d="M282.78,108.76c0.29,0,0.58,0.11,0.8,0.33c1.07,1.07,2.53,0.02,2.7-0.1c0.45-0.34,1.1-0.3,1.5,0.1
				c1.02,1.02,2.74-0.1,2.82-0.14c0.52-0.34,1.23-0.2,1.58,0.32c0.35,0.52,0.21,1.22-0.31,1.57c-1,0.67-3.17,1.5-4.95,0.44
				c-1.29,0.66-3.3,1.06-4.93-0.58c-0.44-0.44-0.44-1.17,0-1.61C282.19,108.87,282.49,108.76,282.78,108.76z"/>
		</g>
		<g>
			<path class="st18" d="M286.97,59.92c0.63,0,1.14,0.51,1.14,1.14v6.52c0,0.63-0.51,1.14-1.14,1.14c-0.63,0-1.14-0.51-1.14-1.14
				v-6.52C285.83,60.43,286.34,59.92,286.97,59.92z"/>
			<path class="st18" d="M304.83,64.87c0.29,0,0.58,0.11,0.8,0.33c0.44,0.44,0.44,1.17,0,1.61l-4.61,4.61
				c-0.44,0.44-1.17,0.44-1.61,0c-0.44-0.44-0.44-1.17,0-1.61l4.61-4.61C304.25,64.99,304.54,64.87,304.83,64.87z"/>
			<path class="st18" d="M269.11,64.87c0.29,0,0.58,0.11,0.8,0.33l4.61,4.61c0.44,0.44,0.44,1.17,0,1.61
				c-0.44,0.44-1.17,0.44-1.61,0l-4.61-4.61c-0.44-0.44-0.44-1.17,0-1.61C268.53,64.99,268.82,64.87,269.11,64.87z"/>
		</g>
		<path class="st1" d="M295.67,135.54h-17.41c-0.77,0-1.4-0.62-1.4-1.4v-12.51c0-0.77,0.62-1.4,1.4-1.4h17.41
			c0.77,0,1.4,0.62,1.4,1.4v12.51C297.06,134.91,296.44,135.54,295.67,135.54z"/>
		<g>
			<path class="st9" d="M297.66,125.05h-21.07c-0.79,0-1.42-0.64-1.42-1.42l0,0c0-0.79,0.64-1.42,1.42-1.42h21.07
				c0.79,0,1.42,0.64,1.42,1.42l0,0C299.09,124.41,298.45,125.05,297.66,125.05z"/>
			<path class="st9" d="M297.66,129.31h-21.07c-0.79,0-1.42-0.64-1.42-1.42l0,0c0-0.79,0.64-1.42,1.42-1.42h21.07
				c0.79,0,1.42,0.64,1.42,1.42l0,0C299.09,128.67,298.45,129.31,297.66,129.31z"/>
			<path class="st9" d="M297.66,133.57h-21.07c-0.79,0-1.42-0.64-1.42-1.42l0,0c0-0.79,0.64-1.42,1.42-1.42h21.07
				c0.79,0,1.42,0.64,1.42,1.42l0,0C299.09,132.93,298.45,133.57,297.66,133.57z"/>
		</g>
	</g>
</g>
</svg>
