<?xml version="1.0" encoding="utf-8"?>
<!-- Generator: Adobe Illustrator 23.0.5, SVG Export Plug-In . SVG Version: 6.00 Build 0)  -->
<svg version="1.0" id="Layer_1" xmlns="http://www.w3.org/2000/svg" xmlns:xlink="http://www.w3.org/1999/xlink" x="0px" y="0px"
	 viewBox="0 0 624 320" style="enable-background:new 0 0 624 320;" xml:space="preserve">
<style type="text/css">
	.st0{opacity:0.3;fill:#35B24A;}
	.st1{fill:#00CC82;}
	.st2{fill:#00A26D;}
	.st3{fill:#FFFFFF;}
	.st4{fill:#007048;}
	.st5{fill:#85DAE8;}
	.st6{fill:none;stroke:#007048;stroke-width:2;stroke-miterlimit:10;}
	.st7{fill:#FFFFFF;stroke:#007048;stroke-width:2;stroke-miterlimit:10;}
	.st8{fill:#015E3A;}
	.st9{fill:#E1E1E1;}
	.st10{fill:#999999;}
	.st11{clip-path:url(#SVGID_2_);fill:#EF6A1C;}
	.st12{clip-path:url(#SVGID_2_);}
	.st13{fill:#F7BA93;}
	.st14{fill:#C6C6C5;}
	.st15{fill:#D9D9D9;}
	.st16{fill:#00B0C2;}
	.st17{fill:#E64645;}
	.st18{fill:#732400;}
	.st19{fill:#EF6A1C;}
	.st20{clip-path:url(#SVGID_4_);fill:#EF6A1C;}
	.st21{clip-path:url(#SVGID_4_);}
</style>
<rect x="0" class="st0" width="624" height="320"/>
<g>
	<g>
		<g>
			<g>
				<g>
					<path class="st1" d="M432.98,273.29H80.1c-3.18,0-5.76-2.58-5.76-5.76V28.15c0-3.18,2.58-5.76,5.76-5.76h352.88
						c3.18,0,5.76,2.58,5.76,5.76v239.38C438.74,270.71,436.16,273.29,432.98,273.29z"/>
					<path class="st2" d="M450.8,273.29H86.16c-3.23,0-5.85-2.62-5.85-5.85V28.25c0-3.23,2.62-5.85,5.85-5.85H450.8
						c3.23,0,5.85,2.62,5.85,5.85v239.19C456.66,270.67,454.04,273.29,450.8,273.29z"/>
					<path class="st1" d="M456.66,30.36v234.98c0,3.45-2.2,6.37-5.27,7.47c0.31-0.84,0.48-1.75,0.48-2.68V35.15
						c0-4.38-3.57-7.95-7.98-7.95H83.5c-0.96,0-1.87,0.17-2.71,0.48c1.1-3.07,4.02-5.27,7.5-5.27h360.39
						C453.09,22.4,456.66,25.97,456.66,30.36z"/>
					<path class="st3" d="M96.24,254.43V41.25c0-1.62,1.31-2.93,2.93-2.93h330.47c1.62,0,2.93,1.31,2.93,2.93v213.18
						c0,1.62-1.31,2.93-2.93,2.93H99.17C97.55,257.36,96.24,256.05,96.24,254.43z"/>
					<g>
						<path class="st4" d="M161.75,263.34v9.96h-35.84v-9.96c0-4.4,3.56-7.97,7.97-7.97h19.91
							C158.19,255.38,161.75,258.94,161.75,263.34z"/>
						<path class="st1" d="M161.75,263.34v9.96h-29.87v-9.96c0-4.4,3.56-7.97,7.97-7.97h13.94
							C158.19,255.38,161.75,258.94,161.75,263.34z"/>
						<path class="st4" d="M420.81,264.65v8.65h-35.84v-8.65c0-3.82,3.56-6.92,7.97-6.92h19.91
							C417.25,257.73,420.81,260.83,420.81,264.65z"/>
						<path class="st1" d="M420.81,264.65v8.65h-29.87v-8.65c0-3.82,3.56-6.92,7.96-6.92h13.94
							C417.25,257.73,420.81,260.83,420.81,264.65z"/>
					</g>
					<path class="st5" d="M96.24,42.31v15.93h336.32V42.31c0-2.2-1.78-3.98-3.98-3.98H100.22C98.02,38.32,96.24,40.11,96.24,42.31z"
						/>
					<path class="st6" d="M96.24,254.43V41.25c0-1.62,1.31-2.93,2.93-2.93h330.47c1.62,0,2.93,1.31,2.93,2.93v213.18
						c0,1.62-1.31,2.93-2.93,2.93H99.17C97.55,257.36,96.24,256.05,96.24,254.43z"/>
				</g>
			</g>
			<path class="st6" d="M432.56,58.24H96.24H432.56z"/>
			<g>
				<path class="st4" d="M133.86,275.68H82.17c-5.64,0-10.23-4.59-10.23-10.23V30.23c0-5.64,4.59-10.23,10.23-10.23h366.52
					c4.52,0,8.48,2.92,9.85,7.26c0.35,1.1,0.52,2.11,0.52,3.1v234.98c0,0.6-0.06,1.21-0.19,1.92c-0.03,0.15-0.06,0.29-0.12,0.52
					c-0.11,0.44-0.24,0.87-0.4,1.29c-0.08,0.19-0.15,0.38-0.24,0.57c-0.18,0.39-0.38,0.75-0.66,1.21c-0.08,0.14-0.16,0.27-0.26,0.42
					c-0.33,0.46-0.69,0.9-1.07,1.29c-0.15,0.15-0.31,0.29-0.62,0.55c-0.24,0.21-0.48,0.41-0.71,0.58c-0.25,0.19-0.53,0.36-0.8,0.52
					c-0.23,0.14-0.46,0.26-0.69,0.38c-0.31,0.15-0.62,0.3-0.78,0.35c-0.08,0.04-0.23,0.11-0.32,0.14c-0.09,0.03-0.17,0.05-0.26,0.07
					c-1.09,0.36-2.17,0.55-3.23,0.55h-27.66c-0.07,0.01-0.14,0.01-0.21,0.01h-35.84c-0.07,0-0.14,0-0.21-0.01H170.13
					c-0.07,0.01-0.14,0.01-0.21,0.01h-35.84C134,275.69,133.93,275.69,133.86,275.68z M169.92,270.89h215.05
					c0.07,0,0.14,0,0.21,0.01h35.42c0.07-0.01,0.14-0.01,0.21-0.01h27.88c0.6,0,1.22-0.12,1.89-0.36c0.04-0.02,0.08-0.03,0.13-0.04
					c0.15-0.06,0.29-0.13,0.45-0.21c0.13-0.07,0.26-0.13,0.38-0.21c0.14-0.08,0.28-0.17,0.44-0.28c0.13-0.09,0.25-0.2,0.39-0.32
					c0.02-0.02,0.3-0.26,0.32-0.28c0.22-0.22,0.41-0.46,0.57-0.69l2.01,1.3l-1.85-1.58c0.12-0.19,0.23-0.39,0.33-0.6
					c0-0.01,0.01-0.02,0.01-0.03l0.12-0.29c0.08-0.22,0.15-0.45,0.21-0.69c0-0.02,0.06-0.25,0.07-0.26
					c0.06-0.34,0.11-0.68,0.11-1.03V30.36c0-0.5-0.09-1.02-0.29-1.66c-0.74-2.34-2.86-3.91-5.28-3.91H82.17
					c-3,0-5.44,2.44-5.44,5.44v235.22c0,3,2.44,5.44,5.44,5.44h51.9c0.07,0,0.14,0,0.21,0.01h35.42
					C169.78,270.9,169.85,270.89,169.92,270.89z"/>
			</g>
			<g>
				<path class="st1" d="M466.22,280.63c-1.21-0.62-2.59-0.96-4.02-0.96H73.13c-1.45,0-2.83,0.34-4.04,0.98
					c0.42-0.88,0.98-1.65,1.65-2.33c1.59-1.63,3.8-2.63,6.25-2.63h381.34C461.8,275.69,464.78,277.7,466.22,280.63z"/>
				<path class="st2" d="M475.14,288.62c0,2.48-1.01,4.72-2.64,6.34c-1.61,1.61-3.85,2.63-6.33,2.63H69.13
					c-1.48,0-2.89-0.37-4.11-1.01c-2-2.06-3.24-4.85-3.24-7.93c0-3.02,1.16-5.85,3.25-7.99c1.22-0.64,2.63-0.99,4.1-0.99h397.05
					C471.14,279.67,475.14,283.67,475.14,288.62z"/>
			</g>
			<path class="st4" d="M466.88,277.29c-2.12-2.52-5.23-4-8.55-4H76.99c-3.01,0-5.82,1.2-7.96,3.36c-0.38,0.38-0.78,0.83-1.1,1.29
				c-0.25,0.34-0.46,0.68-0.65,1.01c-0.2,0.12-0.42,0.26-0.61,0.38c-0.53,0.34-1.08,0.78-1.56,1.27c-0.03,0.03-0.04,0.04-0.07,0.07
				c-2.1,2.14-3.25,4.97-3.25,7.99c0,3.09,1.24,5.88,3.24,7.93c2.07,2.11,4.95,3.42,8.12,3.42H306.1c0.11,0,0.22-0.01,0.33-0.03
				h159.75c3.01,0,5.87-1.17,8.02-3.29c2.15-2.15,3.33-5.01,3.33-8.06C477.53,282.59,472.8,277.65,466.88,277.29z M466.17,295.18
				H306.18c-0.11,0-0.22,0.01-0.33,0.03H73.14c-3.62,0-6.57-2.94-6.57-6.56c0-1.77,0.68-3.43,1.92-4.65
				c0.25-0.26,0.52-0.48,0.78-0.64c0.33-0.22,0.67-0.42,1.03-0.6l-0.01-0.01c0.29-0.14,0.54-0.31,0.75-0.53
				c0.31-0.34,0.5-0.76,0.59-1.18c0.05-0.1,0.12-0.2,0.19-0.3c0.18-0.23,0.39-0.49,0.63-0.71c0.11-0.12,0.23-0.23,0.35-0.33
				c0.01-0.01,0.01-0.03,0.03-0.03c1.18-1.03,2.64-1.59,4.18-1.59h381.34c1.55,0,3.02,0.57,4.18,1.59c0.01,0,0.01,0,0.03,0.03
				c0.42,0.37,0.8,0.8,1.13,1.29c0.44,0.67,1.18,1.08,2,1.08h0.5c3.61,0,6.56,2.94,6.56,6.56c0,1.77-0.68,3.42-1.91,4.65
				C469.58,294.5,467.92,295.18,466.17,295.18z"/>
			<g>
				<path class="st7" d="M306.37,289.63h-67.12c-1.62,0-2.93-1.31-2.93-2.93v-3.04h72.97v3.04
					C309.3,288.32,307.99,289.63,306.37,289.63z"/>
				<path class="st7" d="M306.37,289.63h-67.12c-1.62,0-2.93-1.31-2.93-2.93v-3.04h72.97v3.04
					C309.3,288.32,307.99,289.63,306.37,289.63z"/>
			</g>
		</g>
		<rect x="96.44" y="59.58" class="st4" width="98.74" height="195.4"/>
		<g>
			<rect x="256.51" y="105.83" class="st5" width="114.33" height="19.75"/>
			<g>
				
					<rect x="300.68" y="21.12" transform="matrix(-1.836970e-16 1 -1 -1.836970e-16 395.0771 -232.2678)" class="st2" width="25.98" height="120.57"/>
				<rect x="256.51" y="71.53" class="st5" width="114.33" height="19.75"/>
			</g>
			<rect x="256.51" y="135.97" class="st5" width="54.05" height="19.75"/>
			<rect x="316.79" y="136.49" class="st5" width="54.05" height="19.75"/>
			<rect x="256.51" y="166.11" class="st5" width="114.33" height="19.75"/>
			<rect x="256.51" y="196.25" class="st5" width="114.33" height="19.75"/>
			<g>
				<g>
					<path class="st2" d="M303.8,228.47h-11.43h-12.47h-11.43c-5.2,0-5.2,5.2-5.2,5.2v7.28c0,0,0,5.2,5.2,5.2h11.43h12.47h11.43
						c5.2,0,5.2-5.2,5.2-5.2v-7.28C309,233.67,309,228.47,303.8,228.47z"/>
					<path class="st8" d="M303.8,245.1h-11.43h-12.47h-11.43c-5.2,0-5.2-5.2-5.2-5.2v1.04c0,0,0,5.2,5.2,5.2h11.43h12.47h11.43
						c5.2,0,5.2-5.2,5.2-5.2v-1.04C309,239.91,309,245.1,303.8,245.1z"/>
					<rect x="271.06" y="236.79" class="st3" width="30.14" height="1.04"/>
				</g>
				<g>
					<g>
						<path class="st9" d="M358.88,228.47h-11.43h-12.47h-11.43c-5.2,0-5.2,5.2-5.2,5.2v7.28c0,0,0,5.2,5.2,5.2h11.43h12.47h11.43
							c5.2,0,5.2-5.2,5.2-5.2v-7.28C364.08,233.67,364.08,228.47,358.88,228.47z"/>
						<path class="st10" d="M358.88,245.1h-11.43h-12.47h-11.43c-5.2,0-5.2-5.2-5.2-5.2v1.04c0,0,0,5.2,5.2,5.2h11.43h12.47h11.43
							c5.2,0,5.2-5.2,5.2-5.2v-1.04C364.08,239.91,364.08,245.1,358.88,245.1z"/>
					</g>
					<rect x="326.14" y="236.79" class="st3" width="30.14" height="1.04"/>
				</g>
			</g>
		</g>
		<g>
			<defs>
				<circle id="SVGID_1_" cx="145.81" cy="102.19" r="33.78"/>
			</defs>
			<clipPath id="SVGID_2_">
				<use xlink:href="#SVGID_1_"  style="overflow:visible;"/>
			</clipPath>
			<circle class="st11" cx="145.81" cy="102.19" r="33.78"/>
			<g class="st12">
				<rect x="142.49" y="118.18" class="st13" width="6.64" height="3.95"/>
				<path class="st14" d="M142.87,121.14c0.78-0.78,1.79-1.23,2.9-1.31c0.95-0.07,2.57,0.13,3.07-0.86
					c0.08-0.16,0.18-0.27,0.29-0.36v-0.42h-6.64v3.41C142.6,121.44,142.73,121.28,142.87,121.14z"/>
				<g>
					<path class="st13" d="M162.45,105.5c0,1.63-1.37,2.96-3.06,2.96c-1.69,0-3.06-1.32-3.06-2.96c0-1.63,1.37-2.96,3.06-2.96
						C161.08,102.55,162.45,103.87,162.45,105.5z"/>
					<g>
						<path class="st15" d="M159.78,103.86c0,0,0.07-0.01,0.21-0.01c0.13,0.01,0.32,0.02,0.54,0.11c0.22,0.08,0.48,0.23,0.65,0.5
							c0.04,0.06,0.08,0.14,0.11,0.21c0.03,0.08,0.05,0.16,0.07,0.24l0.02,0.25c0,0.08-0.01,0.16-0.01,0.24
							c-0.01,0.15-0.05,0.31-0.1,0.46c-0.04,0.15-0.11,0.29-0.19,0.42c-0.15,0.26-0.36,0.46-0.57,0.57
							c-0.1,0.07-0.21,0.09-0.29,0.12c-0.09,0.02-0.17,0.04-0.24,0.04c-0.13,0-0.21,0-0.21,0s0.07-0.03,0.19-0.08
							c0.06-0.02,0.12-0.07,0.2-0.1c0.07-0.05,0.15-0.1,0.22-0.17c0.08-0.07,0.15-0.15,0.22-0.24c0.07-0.09,0.13-0.2,0.18-0.31
							c0.05-0.11,0.09-0.24,0.13-0.36c0.04-0.13,0.06-0.25,0.07-0.39l0.02-0.19l-0.01-0.19c-0.02-0.06-0.03-0.12-0.04-0.18
							c-0.02-0.05-0.04-0.11-0.07-0.16c-0.11-0.2-0.28-0.36-0.45-0.48c-0.17-0.11-0.34-0.19-0.46-0.23
							C159.85,103.88,159.78,103.86,159.78,103.86z"/>
					</g>
					<path class="st15" d="M160.18,105.65c0,0.32-0.22,0.57-0.5,0.57c-0.27,0-0.5-0.26-0.5-0.57c0-0.32,0.22-0.57,0.5-0.57
						C159.95,105.08,160.18,105.33,160.18,105.65z"/>
				</g>
				<g>
					<path class="st13" d="M129.6,105.5c0,1.63,1.37,2.96,3.06,2.96c1.69,0,3.06-1.32,3.06-2.96c0-1.63-1.37-2.96-3.06-2.96
						C130.97,102.55,129.6,103.87,129.6,105.5z"/>
					<g>
						<path class="st15" d="M132.27,103.86c0,0-0.07-0.01-0.21-0.01c-0.13,0.01-0.32,0.02-0.54,0.11c-0.22,0.08-0.47,0.23-0.65,0.5
							c-0.04,0.06-0.08,0.14-0.12,0.21c-0.03,0.08-0.05,0.16-0.07,0.24l-0.03,0.25c0,0.08,0.01,0.16,0.01,0.24
							c0.01,0.15,0.05,0.31,0.1,0.46c0.04,0.15,0.12,0.29,0.19,0.42c0.15,0.26,0.37,0.46,0.57,0.57c0.1,0.07,0.21,0.09,0.3,0.12
							c0.09,0.02,0.17,0.04,0.24,0.04c0.13,0,0.21,0,0.21,0s-0.07-0.03-0.19-0.08c-0.06-0.02-0.12-0.07-0.2-0.1
							c-0.07-0.05-0.15-0.1-0.22-0.17c-0.08-0.07-0.15-0.15-0.22-0.24c-0.07-0.09-0.13-0.2-0.18-0.31
							c-0.06-0.11-0.09-0.24-0.13-0.36c-0.03-0.13-0.06-0.25-0.07-0.39l-0.01-0.19l0.01-0.19c0.02-0.06,0.03-0.12,0.04-0.18
							c0.02-0.05,0.04-0.11,0.07-0.16c0.11-0.2,0.28-0.36,0.45-0.48c0.17-0.11,0.34-0.19,0.46-0.23
							C132.2,103.88,132.27,103.86,132.27,103.86z"/>
					</g>
					<path class="st15" d="M131.87,105.65c0,0.32,0.22,0.57,0.5,0.57c0.27,0,0.5-0.26,0.5-0.57c0-0.32-0.22-0.57-0.5-0.57
						C132.1,105.08,131.87,105.33,131.87,105.65z"/>
				</g>
				<path class="st13" d="M159.39,101.6c0,10.05-4.72,17.11-13.57,17.11c-8.85,0-13.57-7.06-13.57-17.11
					c0-10.05,4.89-18.2,13.75-18.2C154.85,83.41,159.39,91.55,159.39,101.6z"/>
				<path class="st13" d="M142.63,121.97c0,0-8.43,1.11-11.46,3.74c-3.09,2.67-4,4.98-5.11,10.26h19.63h0.27h19.63
					c-1.11-5.28-2.03-7.59-5.11-10.26c-3.03-2.62-11.46-3.74-11.46-3.74H142.63z"/>
				<path class="st16" d="M138.15,122.83c0,0,0.91-0.39-2.42,0.67c0.92,8.28-0.58,12.47-0.58,12.47h21.77
					c-2.11-7.02,0-12.13,0-12.13c-2.01-0.73-2.01-0.73-2.01-0.73s-0.19,10.09-9.22,9.39C145.68,132.5,137.85,133.27,138.15,122.83z"
					/>
				<path class="st18" d="M141.19,83.07c0,0-9.72,0.33-11.59,15.7c0,0-1.81,12.66,4.32,23.46c0,0,4.1-0.63,8.57-0.24v-3.65
					c0,0-9.19-1.62-9.07-13.64c0,0,0.06-13.88,7.12-16.51L141.19,83.07z"/>
				<path class="st18" d="M150.44,83.07c0,0,11.03-0.17,12.89,15.2c0,0,0.96,10.28-5.62,23.96c0,0-4.1-0.63-8.57-0.24v-3.65
					c0,0,9.19-1.62,9.07-13.64c0,0-0.06-13.88-7.12-16.51L150.44,83.07z"/>
				<path class="st18" d="M137.28,86.97c0,0,6.27,9.99,19.33,9.03l2.57,6.54l2.55,1.06c0,0,3.85-1.06-0.15-16.64
					c0,0-4.14-11.39-19.08-8C142.49,78.97,135.05,80.33,137.28,86.97z"/>
			</g>
		</g>
		<rect x="95.41" y="145.85" class="st3" width="4.16" height="15.59"/>
		<rect x="104.76" y="148.96" class="st3" width="72.76" height="9.35"/>
		<rect x="104.76" y="167.67" class="st19" width="61.32" height="9.35"/>
		<rect x="104.76" y="186.38" class="st19" width="61.32" height="9.35"/>
		<rect x="104.76" y="205.09" class="st19" width="61.32" height="9.35"/>
		<g>
			<rect x="170.24" y="42.95" class="st3" width="252.57" height="10.39"/>
			<g>
				<circle class="st3" cx="114.11" cy="48.14" r="5.2"/>
				<circle class="st3" cx="128.67" cy="48.14" r="5.2"/>
				<circle class="st3" cx="143.22" cy="48.14" r="5.2"/>
			</g>
		</g>
	</g>
	<g>
		<g>
			<g>
				<path class="st4" d="M557.75,287.89c0,6.35-5.15,11.51-11.5,11.51l-102.93,0.05c-6.36,0-11.51-5.15-11.51-11.5l-0.1-216.08
					c0-6.35,5.15-11.51,11.5-11.51l102.93-0.05c6.36,0,11.51,5.15,11.51,11.5L557.75,287.89z"/>
				<path class="st2" d="M562.22,287.89c0,6.35-5.15,11.51-11.5,11.51l-102.93,0.05c-6.35,0-11.51-5.15-11.51-11.5l-0.1-216.08
					c0-6.35,5.15-11.51,11.5-11.51l102.93-0.05c6.36,0,11.51,5.15,11.51,11.5L562.22,287.89z"/>
				<rect x="440.7" y="75.68" class="st3" width="116.99" height="200.1"/>
				<polygon class="st1" points="442.98,271.96 442.89,75.7 440.66,75.7 440.75,275.8 557.74,275.75 557.74,271.91 				"/>
				<rect x="480.61" y="60.33" class="st3" width="37.08" height="8.31"/>
				<path class="st3" d="M513.25,286.48c0,3.97-3.22,7.19-7.19,7.19l-13.61,0.01c-3.97,0-7.19-3.22-7.19-7.19l0,0
					c0-3.97,3.22-7.19,7.19-7.2l13.61-0.01C510.02,279.29,513.25,282.5,513.25,286.48L513.25,286.48z"/>
			</g>
		</g>
		<g>
			<rect x="450.44" y="158.14" class="st5" width="98.56" height="17.02"/>
			<g>
				
					<rect x="488.52" y="88.23" transform="matrix(-1.836970e-16 1 -1 -1.836970e-16 639.9195 -359.5185)" class="st2" width="22.4" height="103.94"/>
				<rect x="450.44" y="131.69" class="st5" width="98.56" height="17.02"/>
			</g>
			<rect x="502.41" y="181" class="st5" width="46.59" height="17.02"/>
			<rect x="450.44" y="181" class="st5" width="46.59" height="17.02"/>
			<rect x="450.44" y="203.87" class="st5" width="98.56" height="17.02"/>
			<rect x="450.44" y="226.74" class="st5" width="98.56" height="17.02"/>
			<g>
				<g>
					<path class="st2" d="M491.21,249.32h-9.86H470.6h-9.86c-4.48,0-4.48,4.48-4.48,4.48v6.27c0,0,0,4.48,4.48,4.48h9.86h10.75h9.86
						c4.48,0,4.48-4.48,4.48-4.48v-6.27C495.69,253.8,495.69,249.32,491.21,249.32z"/>
					<path class="st8" d="M491.21,263.65h-9.86H470.6h-9.86c-4.48,0-4.48-4.48-4.48-4.48v0.9c0,0,0,4.48,4.48,4.48h9.86h10.75h9.86
						c4.48,0,4.48-4.48,4.48-4.48v-0.9C495.69,259.17,495.69,263.65,491.21,263.65z"/>
					<rect x="462.98" y="256.48" class="st3" width="25.98" height="0.9"/>
				</g>
				<g>
					<g>
						<path class="st9" d="M538.7,249.32h-9.86h-10.75h-9.86c-4.48,0-4.48,4.48-4.48,4.48v6.27c0,0,0,4.48,4.48,4.48h9.86h10.75
							h9.86c4.48,0,4.48-4.48,4.48-4.48v-6.27C543.18,253.8,543.18,249.32,538.7,249.32z"/>
						<path class="st10" d="M538.7,263.65h-9.86h-10.75h-9.86c-4.48,0-4.48-4.48-4.48-4.48v0.9c0,0,0,4.48,4.48,4.48h9.86h10.75
							h9.86c4.48,0,4.48-4.48,4.48-4.48v-0.9C543.18,259.17,543.18,263.65,538.7,263.65z"/>
					</g>
					<rect x="510.47" y="256.48" class="st3" width="25.98" height="0.9"/>
				</g>
			</g>
		</g>
		<g>
			<defs>
				<circle id="SVGID_3_" cx="499.72" cy="102.62" r="20.79"/>
			</defs>
			<clipPath id="SVGID_4_">
				<use xlink:href="#SVGID_3_"  style="overflow:visible;"/>
			</clipPath>
			<circle class="st20" cx="499.72" cy="102.62" r="20.79"/>
			<g class="st21">
				<rect x="497.67" y="112.46" class="st13" width="4.09" height="2.43"/>
				<path class="st14" d="M497.91,114.28c0.48-0.48,1.1-0.75,1.79-0.81c0.58-0.04,1.58,0.08,1.89-0.53c0.05-0.1,0.11-0.17,0.18-0.22
					v-0.26h-4.09v2.1C497.74,114.46,497.82,114.37,497.91,114.28z"/>
				<g>
					<path class="st13" d="M509.95,104.66c0,1.01-0.84,1.82-1.88,1.82c-1.04,0-1.89-0.82-1.89-1.82c0-1.01,0.84-1.82,1.89-1.82
						C509.11,102.84,509.95,103.65,509.95,104.66z"/>
					<g>
						<path class="st15" d="M508.31,103.65c0,0,0.05-0.01,0.13,0c0.08,0,0.2,0.02,0.33,0.07c0.13,0.05,0.29,0.14,0.4,0.31
							c0.03,0.04,0.05,0.09,0.07,0.13c0.02,0.05,0.03,0.1,0.04,0.15l0.02,0.15c0,0.05,0,0.1-0.01,0.15
							c-0.01,0.09-0.03,0.19-0.06,0.28c-0.03,0.09-0.07,0.18-0.12,0.26c-0.09,0.16-0.22,0.28-0.35,0.35
							c-0.06,0.04-0.13,0.06-0.18,0.08c-0.06,0.01-0.11,0.02-0.15,0.02c-0.08,0-0.13,0-0.13,0s0.04-0.02,0.12-0.05
							c0.04-0.01,0.08-0.04,0.12-0.06c0.04-0.03,0.09-0.06,0.14-0.1c0.05-0.04,0.09-0.09,0.13-0.15c0.04-0.06,0.08-0.12,0.11-0.19
							c0.03-0.07,0.06-0.15,0.08-0.22c0.02-0.08,0.04-0.16,0.04-0.24l0.01-0.12l-0.01-0.11c-0.01-0.04-0.02-0.07-0.02-0.11
							c-0.01-0.03-0.02-0.07-0.04-0.1c-0.07-0.13-0.17-0.22-0.28-0.29c-0.11-0.07-0.21-0.11-0.28-0.14
							C508.36,103.66,508.31,103.65,508.31,103.65z"/>
					</g>
					<path class="st15" d="M508.56,104.75c0,0.2-0.14,0.35-0.31,0.35c-0.17,0-0.31-0.16-0.31-0.35c0-0.19,0.14-0.35,0.31-0.35
						C508.42,104.4,508.56,104.55,508.56,104.75z"/>
				</g>
				<g>
					<path class="st13" d="M489.74,104.66c0,1.01,0.84,1.82,1.88,1.82c1.04,0,1.88-0.82,1.88-1.82c0-1.01-0.84-1.82-1.88-1.82
						C490.59,102.84,489.74,103.65,489.74,104.66z"/>
					<g>
						<path class="st15" d="M491.38,103.65c0,0-0.05-0.01-0.13,0c-0.08,0-0.2,0.02-0.33,0.07c-0.13,0.05-0.29,0.14-0.4,0.31
							c-0.03,0.04-0.05,0.09-0.07,0.13c-0.02,0.05-0.03,0.1-0.04,0.15l-0.02,0.15c0,0.05,0,0.1,0.01,0.15
							c0.01,0.09,0.03,0.19,0.06,0.28c0.03,0.09,0.07,0.18,0.12,0.26c0.09,0.16,0.23,0.28,0.35,0.35c0.06,0.04,0.13,0.06,0.18,0.08
							c0.06,0.01,0.11,0.02,0.15,0.02c0.08,0,0.13,0,0.13,0s-0.04-0.02-0.12-0.05c-0.04-0.01-0.08-0.04-0.12-0.06
							c-0.04-0.03-0.09-0.06-0.14-0.1c-0.05-0.04-0.09-0.09-0.13-0.15c-0.04-0.06-0.08-0.12-0.11-0.19
							c-0.03-0.07-0.06-0.15-0.08-0.22c-0.02-0.08-0.04-0.16-0.04-0.24l-0.01-0.12l0.01-0.11c0.01-0.04,0.02-0.07,0.02-0.11
							c0.01-0.03,0.02-0.07,0.04-0.1c0.07-0.13,0.17-0.22,0.28-0.29c0.11-0.07,0.21-0.11,0.28-0.14
							C491.34,103.66,491.38,103.65,491.38,103.65z"/>
					</g>
					<path class="st15" d="M491.14,104.75c0,0.2,0.14,0.35,0.31,0.35c0.17,0,0.31-0.16,0.31-0.35c0-0.19-0.14-0.35-0.31-0.35
						C491.28,104.4,491.14,104.55,491.14,104.75z"/>
				</g>
				<path class="st13" d="M508.07,102.26c0,6.18-2.9,10.53-8.35,10.53c-5.45,0-8.35-4.34-8.35-10.53c0-6.19,3.01-11.2,8.46-11.2
					C505.28,91.06,508.07,96.07,508.07,102.26z"/>
				<path class="st13" d="M497.76,114.79c0,0-5.19,0.69-7.05,2.3c-1.9,1.64-2.46,3.07-3.15,6.32h12.08h0.16h12.08
					c-0.68-3.25-1.25-4.67-3.15-6.32c-1.87-1.61-7.05-2.3-7.05-2.3H497.76z"/>
				<path class="st16" d="M495,115.32c0,0,0.56-0.24-1.49,0.41c0.56,5.1-0.35,7.68-0.35,7.68h13.39c-1.3-4.32,0-7.46,0-7.46
					c-1.24-0.45-1.24-0.45-1.24-0.45s-0.11,6.21-5.68,5.78C499.64,121.27,494.82,121.74,495,115.32z"/>
				<path class="st18" d="M496.87,90.85c0,0-5.98,0.2-7.13,9.66c0,0-1.12,7.79,2.66,14.44c0,0,2.52-0.39,5.27-0.15v-2.24
					c0,0-5.66-1-5.58-8.4c0,0,0.04-8.54,4.38-10.16L496.87,90.85z"/>
				<path class="st18" d="M502.57,90.85c0,0,6.79-0.11,7.93,9.35c0,0,0.59,6.33-3.46,14.74c0,0-2.53-0.39-5.27-0.15v-2.24
					c0,0,5.66-1,5.58-8.4c0,0-0.04-8.54-4.38-10.16L502.57,90.85z"/>
				<path class="st18" d="M494.47,93.25c0,0,3.86,6.15,11.89,5.56l1.58,4.03l1.57,0.65c0,0,2.37-0.65-0.09-10.24
					c0,0-2.55-7.01-11.74-4.92C497.67,88.33,493.09,89.17,494.47,93.25z"/>
			</g>
		</g>
	</g>
</g>
</svg>
