<?xml version="1.0" encoding="utf-8"?>
<!-- Generator: Adobe Illustrator 23.0.5, SVG Export Plug-In . SVG Version: 6.00 Build 0)  -->
<svg version="1.0" id="Layer_1" xmlns="http://www.w3.org/2000/svg" xmlns:xlink="http://www.w3.org/1999/xlink" x="0px" y="0px"
	 viewBox="0 0 624 320" style="enable-background:new 0 0 624 320;" xml:space="preserve">
<style type="text/css">
	.st0{opacity:0.3;fill:#35B24A;}
	.st1{fill:#EBF3FA;}
	.st2{fill:#82B378;}
	.st3{fill:#A8D29F;}
	.st4{fill:#233862;}
	.st5{fill:#B7D3F3;}
	.st6{fill:#D2E3FC;}
	.st7{fill:#C5DCF8;}
	.st8{fill:#D1E6FA;}
	.st9{fill:#FFB27D;}
	.st10{fill:#932722;}
	.st11{fill:#015E3A;}
	.st12{fill:#B5453C;}
	.st13{fill:#00A26D;}
	.st14{fill:#ED975D;}
	.st15{fill:#FFFFFF;}
	.st16{fill:#163560;}
	.st17{fill:#EF6A1C;}
	.st18{fill:#BC5019;}
	.st19{fill:#97BADD;}
	.st20{fill:#FCECDB;}
	.st21{fill:#78ACEA;}
	.st22{fill:#AFCDFB;}
	.st23{opacity:0.4;fill:#5E92DD;}
	.st24{fill:#95C0F4;}
	.st25{fill:#8CBAF1;}
	.st26{fill:#C0D8FB;}
	.st27{fill:#A9D1FF;}
	.st28{fill:#699DEE;}
	.st29{fill:#F99746;}
	.st30{fill:#FFB176;}
	.st31{fill:#B25918;}
	.st32{fill:#ED7D2B;}
	.st33{fill:#ED985F;}
	.st34{fill:#2C3A64;}
	.st35{fill:#FFE4CC;}
	.st36{fill:#F77548;}
	.st37{fill:#EFCBAB;}
	.st38{fill:#FF7D5A;}
	.st39{fill:#FFFBF8;}
</style>
<g>
	<rect y="0" class="st0" width="624" height="320"/>
	<path class="st1" d="M71.04,319.85c0,0-65.46-70.97-11.07-147.81c48.26-68.18,104.52-63.52,145.79-35.85
		c17.58,11.78,68.27,1.45,111.41-67.92C376-26.33,579.94,31.04,542.75,176.6c-17.99,70.44,54.76,73,17.69,143.4L71.04,319.85z"/>
	<g>
		<path class="st2" d="M361.65,281.21c0,0-12.47-14.54-0.77-23.78c0,0,8.54-5.17,15.51-4.75c0,0-9.87,16.56-6.68,18.2
			c3.19,1.65,9.67-19.24,9.67-19.24s19.45-1.89,25.7,1.12c0,0-16.62,13.6-13.12,14.41c3.5,0.81,21.46-12.54,21.46-12.54
			s18.1,3.08,17.13,14.12c-0.96,11.04-7.2,14.45-9.94,14.16c-2.74-0.29-18.77-6.41-19.12-4.17c-0.35,2.25,9.3,9.58,16.06,9.93
			c0,0-12.76,14.07-21.24,10.01c-8.48-4.06-9.2-10.5-14.49-12.91c-5.29-2.41-9.8-2.41-7.62,0.05c2.18,2.46,11.75,4.86,14.77,10.2
			c3.02,5.35,5.74,8.95-3.04,7.63c-8.77-1.32-23.03-7.74-23.66-15.09C361.65,281.21,361.65,281.21,361.65,281.21z"/>
		<g>
			<path class="st2" d="M421.66,269.04c0,0-49.16-1.89-60.01,12.16c0,0-2.4,7.19-9.79,13.74l-1.15,3.14c0,0,8.52-8.98,11.57-9.52
				C362.28,288.56,357.51,271.14,421.66,269.04z"/>
			<path class="st2" d="M351.86,294.94c0,0-10.55,7.8-11.28,21.74l1.91,0.17c0,0,3.37-14.42,9.46-20.05
				C358.04,291.17,351.86,294.94,351.86,294.94z"/>
		</g>
	</g>
	<g>
		<path class="st3" d="M233.2,162.4c0,0,19.07-10.68,10.17-25.17c0,0-7.12-8.9-14.75-11.19c0,0,4.07,21.61,0,22.12
			c-4.07,0.51-2.8-24.41-2.8-24.41s-20.09-9.66-27.97-8.9c0,0,12.46,21.1,8.39,20.6c-4.07-0.51-18.05-21.87-18.05-21.87
			s-20.6-3.81-23.9,8.39c-3.31,12.21,2.03,18.31,5.09,19.07c3.05,0.76,22.63,0.51,22.12,3.05c-0.51,2.54-13.73,6.61-21.1,4.32
			c0,0,8.14,20.09,18.82,19.07c10.68-1.02,13.98-7.63,20.6-8.14c6.61-0.51,11.44,1.27,8.14,3.05c-3.31,1.78-14.49,0.58-19.83,5.12
			c-5.34,4.54-9.66,7.34,0.25,9.37c9.92,2.03,27.72,0.76,31.28-6.87C233.2,162.4,233.2,162.4,233.2,162.4z"/>
		<g>
			<path class="st2" d="M173.7,125.78c0,0,53.4,17.29,59.5,36.61c0,0-0.25,8.65,5.09,18.56v3.81c0,0-5.59-12.97-8.65-14.75
				C229.64,170.03,241.59,153.24,173.7,125.78z"/>
			<path class="st2" d="M238.29,180.96c0,0,8.23,12.5,3.54,27.73l-2.12-0.57c0,0,2.06-16.77-2.25-25.2
				C233.15,174.49,238.29,180.96,238.29,180.96z"/>
		</g>
	</g>
	<g>
		<path class="st3" d="M349.61,247.6c0,0-26.14-14.64-13.94-34.51c0,0,9.76-12.2,20.22-15.34c0,0-5.58,29.63,0,30.32
			c5.58,0.7,3.83-33.46,3.83-33.46s27.54-13.25,38.34-12.2c0,0-17.08,28.93-11.5,28.23c5.58-0.7,24.75-29.98,24.75-29.98
			s28.23-5.23,32.76,11.5c4.53,16.73-2.79,25.1-6.97,26.14c-4.18,1.05-31.02,0.7-30.32,4.18c0.7,3.49,18.82,9.06,28.93,5.93
			c0,0-11.15,27.54-25.79,26.14c-14.64-1.39-19.17-10.46-28.23-11.15c-9.06-0.7-15.69,1.74-11.15,4.18
			c4.53,2.44,19.87,0.8,27.19,7.02c7.32,6.22,13.25,10.06-0.35,12.85c-13.59,2.79-37.99,1.05-42.87-9.41
			C349.61,247.6,349.61,247.6,349.61,247.6z"/>
		<g>
			<path class="st2" d="M431.17,197.41c0,0-73.2,23.7-81.56,50.19c0,0,0.35,11.85-6.97,25.44v5.23c0,0,7.67-17.78,11.85-20.22
				C354.49,258.06,338.11,235.05,431.17,197.41z"/>
			<path class="st2" d="M342.64,273.04c0,0-11.29,17.14-4.85,38.01l2.9-0.78c0,0-2.82-22.98,3.09-34.54
				C349.68,264.17,342.64,273.04,342.64,273.04z"/>
		</g>
	</g>
	<g>
		<path class="st4" d="M103.82,175.83c0,0-4.55,3.79,0.46,8.6c0,0-4.31,1.5-5.7,0.48c0,0,0.29,0.52,0.55,0.75
			c0,0-4.41,0.4-6.31-0.88c-1.9-1.28-1.96-23.94,10.44-22.09c0,0,10.35-1.35,10.04,10.73c-0.31,12.08,3.61,11.86,3.61,11.86
			s-1.06,0.6-1.59,0.63c0,0-0.79-0.25-0.96-0.67c0,0,0.19,0.66,0.4,0.86c0,0-4.21,0.63-6.42-0.85
			C106.14,183.76,103.35,178.34,103.82,175.83z"/>
		<path class="st4" d="M103.15,182c0,0-3.54-3.37-5-6.64c-1.05-2.34-6.1-11.8,3.34-12.77c0,0,6.74-0.32,9.64,0.74
			c2.31,0.84,5.89,3.01,4.68,11.72l-0.16,2.88L103.15,182z"/>
		<path class="st5" d="M92.38,249.21c-0.4-9.93-1.27-18.58-2.32-24.6c-1.66-9.61-3.16-15.13-3.17-15.19
			c-0.22-0.84-3.38-4.26-10.41-4.16c-7.03,0.11-6.36,4.59-6.36,4.59l0,0c0,0.15,0.02,0.29,0.05,0.4c0.07,0.23,6.52,23.63,6.24,53.84
			c0,0.42-0.05,1.16-0.02,1.65c0,0,16.29,0.42,16.29,0C93.25,263.08,92.97,255.76,92.38,249.21z"/>
		<path class="st6" d="M94.43,263.92c0,0.42-0.23,0.76-0.5,0.76h-0.01c-0.27-0.01-0.49-0.34-0.49-0.76H79.48
			c0,0.42-0.23,0.76-0.5,0.76h-0.01c-0.28-0.01-0.49-0.35-0.49-0.78c0.08-8.65-0.41-16.72-1.16-23.85
			c-1.86-17.77-5.29-29.65-5.34-29.82c-0.03-0.11-0.05-0.25-0.05-0.4c0,0-0.67-4.48,6.36-4.59c7.03-0.11,10.19,3.31,10.41,4.16
			c0.01,0.04,0.86,3.17,1.99,8.8c0.37,1.86,0.78,4,1.19,6.39c1.04,6.03,1.91,14.67,2.32,24.6C94.79,255.76,95,261.29,94.43,263.92z"
			/>
		<path class="st7" d="M77.45,264.68h54.73c0,0-1.27-5.16-32.97-4.39C76.78,260.84,77.45,264.68,77.45,264.68z"/>
		<g>
			<path class="st8" d="M72.99,318.56c6.35-32.13,4.71-51.84,4.71-52.09c-0.02-0.49,0.9-0.94,1.39-0.96
				c0.5-0.01,2.69-0.15,2.94,0.28c0.33,0.55,1.61,24.84-7.85,52.77H72.99z"/>
		</g>
		<g>
			<path class="st8" d="M124.1,318.56c-6.35-32.13-4.71-51.84-4.71-52.09c0.02-0.49-0.9-0.94-1.39-0.96
				c-0.5-0.01-2.69-0.15-2.94,0.28c-0.33,0.55-1.61,24.84,7.85,52.77H124.1z"/>
		</g>
		<g>
			<path class="st8" d="M134.22,318.56c-6.35-32.13-4.71-51.84-4.71-52.09c0.02-0.49-0.9-0.94-1.39-0.96
				c-0.5-0.01-2.69-0.15-2.94,0.28c-0.33,0.55-1.61,24.84,7.85,52.77H134.22z"/>
		</g>
		<g>
			<path class="st8" d="M83.19,318.56c6.35-32.13,4.71-51.84,4.71-52.09c-0.02-0.49,0.9-0.94,1.39-0.96
				c0.5-0.01,2.69-0.15,2.94,0.28c0.33,0.55,1.61,24.84-7.85,52.77H83.19z"/>
		</g>
		<path class="st5" d="M131.84,266.33H77.85c-0.82,0-1.49-0.67-1.49-1.49l0,0c0-0.82,0.67-1.49,1.49-1.49h53.99
			c0.82,0,1.49,0.67,1.49,1.49l0,0C133.33,265.66,132.66,266.33,131.84,266.33z"/>
		<g>
			<path class="st9" d="M161.18,319.95c-2,0-6.12,0.52-7.93-1.69c-1.81-2.2-5.73-3.29-6.23-3.99c-0.27-0.38,0.09-2.07,0.48-3.55l0,0
				c0.98-1.34-0.6-3.17-0.6-3.17l5.24,0.35c0,0,2.5,3.31,4.34,5.98c0.7,1.01,2.8,2.53,4.07,2.98c1.64,0.59,3.27,0.95,3.87,1.53
				C165.47,319.43,163.17,319.95,161.18,319.95z"/>
			<path class="st10" d="M161.18,319.95c-2,0-6.12,0.52-7.93-1.69c-1.81-2.2-5.73-3.29-6.23-3.99c-0.27-0.38-0.28-1.91,0.48-3.55
				l0,0c0,0,3.3,1.35,5.16,3.94c1.86,2.59,6.83,3.72,7.87,2.22c0,0,0.01-0.01,0.01-0.02c1.64,0.59,3.27,0.95,3.87,1.53
				C165.47,319.43,163.17,319.95,161.18,319.95z"/>
			<polygon class="st10" points="147.02,314.27 149.03,318.56 150.37,318.7 150.17,314.89 			"/>
		</g>
		<path class="st11" d="M107.77,238.29c0,0,29.15,9.03,35.43,14.24c6.27,5.21,10.64,56.94,10.64,56.94s-0.75,0.45-2.28,0.42
			c-1.43-0.03-4.42-1.27-4.42-1.27s-12.81-24.57-13.18-30.38c-0.37-5.81,0.57-10.84-1.94-11.3c-2.51-0.47-34.55-0.64-38.22-9.66
			c-3.67-9.03,1.37-16.82,1.37-16.82L107.77,238.29z"/>
		<g>
			<path class="st9" d="M154.41,319.95c-2,0-6.12,0.52-7.93-1.69c-1.81-2.2-5.73-3.29-6.23-3.99c-0.27-0.38,0.09-2.07,0.48-3.55l0,0
				c0.98-1.34-0.6-3.17-0.6-3.17l5.24,0.35c0,0,2.5,3.31,4.34,5.98c0.7,1.01,2.8,2.53,4.07,2.98c1.64,0.59,3.27,0.95,3.87,1.53
				C158.71,319.43,156.41,319.95,154.41,319.95z"/>
			<path class="st12" d="M154.41,319.95c-2,0-6.12,0.52-7.93-1.69c-1.81-2.2-5.73-3.29-6.23-3.99c-0.27-0.38-0.28-1.91,0.48-3.55
				l0,0c0,0,3.3,1.35,5.16,3.94c1.86,2.59,6.83,3.72,7.87,2.22c0,0,0.01-0.01,0.01-0.02c1.64,0.59,3.27,0.95,3.87,1.53
				C158.71,319.43,156.41,319.95,154.41,319.95z"/>
			<polygon class="st12" points="140.26,314.27 142.27,318.56 143.6,318.7 143.4,314.89 			"/>
		</g>
		<path class="st13" d="M100.14,241.02c0,0,30.02,6.3,36.3,11.51c6.27,5.21,10.64,56.94,10.64,56.94s-0.75,0.45-2.28,0.42
			c-1.43-0.03-4.42-1.27-4.42-1.27s-12.81-24.57-13.18-30.38c-0.37-5.81,0.57-10.84-1.94-11.3c-2.51-0.47-34.55-0.64-38.22-9.66
			c-3.67-9.03,1.37-16.82,1.37-16.82L100.14,241.02z"/>
		<path class="st9" d="M111.42,192.59c0.04,0.02-3.5,1.85-6.15,1.12c-2.5-0.68-4.13-3.92-4.1-3.93c1.06-0.21,1.36-1.66,1.34-7.91
			l0.48,0.09l8.04,1.59c0,0-0.18,2.53-0.19,4.92C110.84,190.47,110.96,192.37,111.42,192.59z"/>
		<path class="st14" d="M111.03,183.55c0,0-0.18,2.53-0.19,4.92c-4.5-0.13-6.88-4.23-7.86-6.51L111.03,183.55z"/>
		<path class="st9" d="M112.54,185.81c0,0-10.65,0.18-10.66-6.46c-0.01-6.63-1.39-11.08,5.41-11.47c6.8-0.39,8.12,2.14,8.66,4.35
			C116.5,174.45,115.31,185.6,112.54,185.81z"/>
		<path class="st15" d="M87.71,221.24c-1.05-4.4,2.52-12.95,6.25-20.03c3.38-6.41,6.9-11.62,7.21-11.43
			c8.93,5.3,9.73,0.89,9.73,0.89l0,0c0,0,8.11,1.08,10.4,5.03c2.85,4.9,5.92,18.6,8.98,21.2c-0.47,1.44-0.27,2.2,0.23,3.98
			c0.11,0.38,0.22,0.74,0.35,1.09c0.46,1.25,1.04,2.27,1.53,3.15c-1.55,0.94-4.55,2.74-6.76,1.45c-3.37-1.97-6-7.98-7.48-10.37
			c-0.01-0.01-0.01-0.02-0.02-0.03c-3.22,18.2,1.16,22.35-1.06,24.27c-2.34,2.03-5.68-0.97-13.02,2.22
			c-4.82,2.09-11.51,5.11-16.01,5.64c-2.36,0.28-4.12-0.13-4.7-1.73C81.69,241.94,89.71,229.63,87.71,221.24z"/>
		<path class="st15" d="M110.17,181.79c0,0,0.2,0.84,2.29,0.71c0,0,1.76-0.11,1.71-1.04C114.17,181.47,112.47,180.81,110.17,181.79z
			"/>
		<path class="st15" d="M81.84,227.71c2.39-3.35,4.87-5.12,6.51-6.02c-0.38-0.97,10.04-13.74,10.04-15.72c0-2,2.78-16.19,2.78-16.19
			s-8.68,0.54-11.68,4.73C85.73,199.75,77.92,219.92,81.84,227.71z"/>
		<path class="st9" d="M88.35,221.69l17.34,4.53l-1.63,2.92c0,0-21.11-0.15-22.23-1.43C80.72,226.42,88.35,221.69,88.35,221.69z"/>
		<path class="st16" d="M118.17,216.2c1.48,2.39,4.11,8.39,7.48,10.37c2.21,1.29,5.21-0.5,6.76-1.45c-0.5-0.88-1.07-1.9-1.53-3.15
			c-1.24,0.28-2.75,0.65-3.73,0.94C125.25,223.48,118.17,216.2,118.17,216.2z"/>
		<g>
			<polygon class="st17" points="116.4,213.82 107.11,234.42 129.12,236.49 137.78,215.58 			"/>
			<path class="st18" d="M137.78,215.58l10.27-6.51l-10.27,22.45l-8.66,4.97C129.58,235.38,137.78,215.58,137.78,215.58z"/>
		</g>
		<path class="st9" d="M105.7,226.22c0,0,3.21-1.41,4.02-2.13c0.52-0.47,0.48,0.2,0.43,0.38c-0.1,0.37-0.23,1.1-1.17,1.72
			C107.64,227.07,105.7,226.22,105.7,226.22z"/>
		<path class="st4" d="M111.46,165.5c0,0-3.4,9.53-8.28,11.07c-4.88,1.54-6.46-0.41-6.46-0.41s3.63-3.22,4.13-8.53
			C100.85,167.63,108.8,161.53,111.46,165.5z"/>
		<path class="st4" d="M110.69,166.24c0,0,2.51,1.79,3.2,3.63c0.69,1.84,1.16,5.67,2.28,5.48c0,0,2.11-5.98-0.8-9.15
			C112.29,162.85,110.69,166.24,110.69,166.24z"/>
		<path class="st4" d="M111.16,166.51c0,0-1.81,9.14-7.89,12.37c0,0,5.94-5.88,6.15-11.86
			C109.62,161.04,111.16,166.51,111.16,166.51z"/>
		<path class="st4" d="M92.82,184.77c1.9,1.28,6.31,0.88,6.31,0.88c-0.26-0.23-0.55-0.75-0.55-0.75c2.6,1.29,7.72-1.22,7.72-1.22
			c-4.53,0.02-4.53-6.52-3.12-7.11c-0.2-4.89,0.18-11.11,0.39-13.91c-0.2,0.01-0.31,0.03-0.31,0.03
			C90.86,160.83,90.92,183.5,92.82,184.77z"/>
		<path class="st9" d="M105.7,226.22c0,0,5.63-1.07,6.87-0.8c1.24,0.27,4.02,1.47,4.23,1.72c0.21,0.26-0.81,0.4-1.54,0.1
			c-0.94-0.38-2.49-0.22-2.49-0.22s2.99,0.98,3.72,1.4c0.07,0.04,0.08,0.15,0,0.19c-0.2,0.13-0.68,0.17-1.35,0
			c-0.96-0.24-2.67-0.39-2.67-0.39l3.4,1.12c0.04,0.01,0.07,0.06,0.06,0.1c-0.02,0.16-0.32,0.31-1.14,0.27
			c-0.63-0.04-2.72-0.57-2.72-0.57l1.79,1.19c0,0-0.49,0.28-1.42-0.14c-0.64-0.29-2.56-0.99-3.03-0.94
			c-0.47,0.05-2.85,0.7-3.89,0.37c-1.04-0.34-1.48-0.49-1.48-0.49L105.7,226.22z"/>
	</g>
	<g>
		<g>
			<path class="st5" d="M99.27,320c0.5,0,0.92-0.35,1.01-0.83l4.93-27.97l7.1-40.22l1.98-11.25l-5.06-0.14l-0.88,6.53L102.21,292
				l-3.65,27.2C98.5,319.63,98.84,320,99.27,320z"/>
		</g>
		<path class="st19" d="M108.36,246.12c3.28,1.45,3.95,4.86,3.95,4.86l1.98-11.25l-5.06-0.14L108.36,246.12z"/>
		<g>
			<path class="st5" d="M225.01,320c-0.5,0-0.92-0.35-1.01-0.83l-4.93-27.97l-7.1-40.22l-1.98-11.25l5.06-0.14l0.88,6.53l6.16,45.89
				l3.65,27.2C225.79,319.63,225.45,320,225.01,320z"/>
		</g>
		<path class="st19" d="M215.92,246.12c-3.28,1.45-3.95,4.86-3.95,4.86l-1.98-11.25l5.06-0.14L215.92,246.12z"/>
		<path class="st5" d="M95.62,244.15h130.02c1.54,0,2.8-1.26,2.8-2.8l0,0c0-1.54-1.26-2.8-2.8-2.8H95.62c-1.54,0-2.8,1.26-2.8,2.8
			l0,0C92.82,242.89,94.08,244.15,95.62,244.15z"/>
	</g>
	<path class="st20" d="M366.6,248.42h-24.72c-0.68,0-1.24-0.56-1.24-1.24l0,0c0-0.68,0.56-1.24,1.24-1.24h24.72
		c0.68,0,1.24,0.56,1.24,1.24l0,0C367.84,247.86,367.28,248.42,366.6,248.42z"/>
	<path class="st20" d="M366.6,253.29h-24.72c-0.68,0-1.24-0.56-1.24-1.24l0,0c0-0.68,0.56-1.24,1.24-1.24h24.72
		c0.68,0,1.24,0.56,1.24,1.24l0,0C367.84,252.73,367.28,253.29,366.6,253.29z"/>
	<g>
		<path class="st21" d="M371.81,43.11v267.66c0,4.13-3.33,7.52-7.43,7.63c-0.07,0-0.13,0-0.2,0H230.33c-4.2,0-7.63-3.43-7.63-7.63
			V43.11c0-4.2,3.44-7.63,7.63-7.63h133.85C368.37,35.48,371.81,38.91,371.81,43.11z"/>
		<path class="st22" d="M379.69,43.11v267.67c0,4.19-3.44,7.63-7.63,7.63H238.21c-4.2,0-7.63-3.43-7.63-7.63V43.11
			c0-4.2,3.43-7.63,7.63-7.63h133.85C376.25,35.48,379.69,38.91,379.69,43.11z"/>
		<g>
			<path class="st23" d="M326.98,46.19h-38.76c-0.83,0-1.51-0.68-1.51-1.51l0,0c0-0.83,0.68-1.51,1.51-1.51h38.76
				c0.83,0,1.51,0.68,1.51,1.51l0,0C328.49,45.51,327.81,46.19,326.98,46.19z"/>
			<path class="st23" d="M281.34,46.19L281.34,46.19c-0.83,0-1.51-0.68-1.51-1.51l0,0c0-0.83,0.68-1.51,1.51-1.51l0,0
				c0.83,0,1.51,0.68,1.51,1.51l0,0C282.85,45.51,282.17,46.19,281.34,46.19z"/>
		</g>
		<path class="st24" d="M316.71,302.77c0,2.67-1.08,5.09-2.82,6.85c-1.76,1.78-4.21,2.88-6.91,2.88c-5.37,0-9.73-4.36-9.73-9.73
			c0-3.45,1.8-6.48,4.51-8.21c1.51-0.96,3.3-1.52,5.21-1.52C312.35,293.05,316.71,297.4,316.71,302.77z"/>
		<rect x="239.51" y="52.91" class="st6" width="132.22" height="235.35"/>
		<path class="st25" d="M313.89,309.62c-1.76,1.78-4.21,2.88-6.91,2.88c-5.37,0-9.73-4.36-9.73-9.73c0-3.45,1.8-6.48,4.51-8.21
			C302.72,298.7,305.54,305.63,313.89,309.62z"/>
	</g>
	<path class="st26" d="M371.81,71.97v92.59H245.87c-1.41,0-2.57-1.23-2.57-2.72V74.7c0-1.5,1.16-2.73,2.57-2.73H371.81z"/>
	<path class="st26" d="M335.89,183.17v87.13c0,1.5-1.04,2.72-2.32,2.72h-94.06v-92.59h94.06
		C334.84,180.44,335.89,181.67,335.89,183.17z"/>
	<path class="st15" d="M429.67,67v87.13c0,1.5-1.23,2.72-2.73,2.72H250.48c-1.5,0-2.72-1.23-2.72-2.72V67c0-1.5,1.23-2.73,2.72-2.73
		h176.45C428.44,64.27,429.67,65.5,429.67,67z"/>
	<path class="st27" d="M429.67,67v87.13c0,1.5-1.43,2.73-3.17,2.73h-87.78V64.27h87.78C428.24,64.27,429.67,65.5,429.67,67z"/>
	<g>
		<g>
			<path class="st15" d="M390.75,76.32h-33.03c-0.54,0-0.99-0.44-0.99-0.99l0,0c0-0.54,0.44-0.99,0.99-0.99h33.03
				c0.54,0,0.99,0.44,0.99,0.99l0,0C391.74,75.87,391.3,76.32,390.75,76.32z"/>
		</g>
		<g>
			<path class="st15" d="M390.75,80.13h-33.03c-0.54,0-0.99-0.44-0.99-0.99l0,0c0-0.54,0.44-0.99,0.99-0.99h33.03
				c0.54,0,0.99,0.44,0.99,0.99l0,0C391.74,79.69,391.3,80.13,390.75,80.13z"/>
		</g>
		<path class="st15" d="M351.7,76.53h-0.78c-0.66,0-1.2-0.54-1.2-1.2l0,0c0-0.66,0.54-1.2,1.2-1.2h0.78c0.66,0,1.2,0.54,1.2,1.2l0,0
			C352.9,75.99,352.36,76.53,351.7,76.53z"/>
	</g>
	<g>
		<g>
			<path class="st15" d="M390.75,90.35h-33.03c-0.54,0-0.99-0.44-0.99-0.99l0,0c0-0.54,0.44-0.99,0.99-0.99h33.03
				c0.54,0,0.99,0.44,0.99,0.99l0,0C391.74,89.9,391.3,90.35,390.75,90.35z"/>
		</g>
		<g>
			<path class="st15" d="M390.75,94.16h-33.03c-0.54,0-0.99-0.44-0.99-0.99l0,0c0-0.54,0.44-0.99,0.99-0.99h33.03
				c0.54,0,0.99,0.44,0.99,0.99l0,0C391.74,93.72,391.3,94.16,390.75,94.16z"/>
		</g>
		<path class="st15" d="M351.7,90.56h-0.78c-0.66,0-1.2-0.54-1.2-1.2v0c0-0.66,0.54-1.2,1.2-1.2h0.78c0.66,0,1.2,0.54,1.2,1.2v0
			C352.9,90.02,352.36,90.56,351.7,90.56z"/>
	</g>
	<g>
		<g>
			<path class="st15" d="M390.75,104.22h-33.03c-0.54,0-0.99-0.44-0.99-0.99l0,0c0-0.54,0.44-0.99,0.99-0.99h33.03
				c0.54,0,0.99,0.44,0.99,0.99l0,0C391.74,103.78,391.3,104.22,390.75,104.22z"/>
		</g>
		<g>
			<path class="st15" d="M390.75,108.03h-33.03c-0.54,0-0.99-0.44-0.99-0.99l0,0c0-0.54,0.44-0.99,0.99-0.99h33.03
				c0.54,0,0.99,0.44,0.99,0.99l0,0C391.74,107.59,391.3,108.03,390.75,108.03z"/>
		</g>
		<path class="st15" d="M351.7,104.44h-0.78c-0.66,0-1.2-0.54-1.2-1.2l0,0c0-0.66,0.54-1.2,1.2-1.2h0.78c0.66,0,1.2,0.54,1.2,1.2
			l0,0C352.9,103.89,352.36,104.44,351.7,104.44z"/>
	</g>
	<g>
		<path class="st15" d="M342.54,174.01v87.13c0,1.5-1.23,2.73-2.73,2.73H163.36c-1.5,0-2.73-1.23-2.73-2.73v-87.13
			c0-1.5,1.23-2.72,2.73-2.72h176.45C341.31,171.29,342.54,172.51,342.54,174.01z"/>
		<path class="st28" d="M342.54,174.01v87.13c0,1.5-1.23,2.73-2.73,2.73h-78.48v-92.59h78.48
			C341.31,171.29,342.54,172.51,342.54,174.01z"/>
		<path class="st17" d="M184.3,186.4c-5.4,0-9.78,4.38-9.78,9.78c0,5.4,4.38,9.78,9.78,9.78c5.4,0,9.78-4.38,9.78-9.78
			C194.09,190.78,189.71,186.4,184.3,186.4z M191.08,196.5h-6.78c-0.17,0-0.31-0.14-0.31-0.31v-7.29c0-0.17,0.14-0.31,0.31-0.31
			c0.17,0,0.31,0.14,0.31,0.31v6.97h6.46c0.17,0,0.31,0.14,0.31,0.31C191.39,196.36,191.25,196.5,191.08,196.5z"/>
		<path class="st17" d="M183.33,224.27c-4.86,0-8.81,3.94-8.81,8.81c0,4.86,8.81,15.68,8.81,15.68s8.81-10.81,8.81-15.68
			C192.13,228.21,188.19,224.27,183.33,224.27z M183.33,237.11c-2.27,0-4.12-1.84-4.12-4.12s1.84-4.12,4.12-4.12
			c2.27,0,4.12,1.84,4.12,4.12S185.6,237.11,183.33,237.11z"/>
		<g>
			<path class="st29" d="M232.79,229.69h-32.05c-0.81,0-1.48-0.67-1.48-1.48l0,0c0-0.81,0.67-1.48,1.48-1.48h32.05
				c0.81,0,1.48,0.67,1.48,1.48l0,0C234.26,229.03,233.6,229.69,232.79,229.69z"/>
		</g>
		<g>
			<path class="st29" d="M224.26,235.35h-23.53c-0.81,0-1.48-0.67-1.48-1.48l0,0c0-0.81,0.67-1.48,1.48-1.48h23.53
				c0.81,0,1.48,0.67,1.48,1.48v0C225.74,234.69,225.07,235.35,224.26,235.35z"/>
		</g>
		<g>
			<path class="st29" d="M232.79,194.83h-32.05c-0.81,0-1.48-0.67-1.48-1.48l0,0c0-0.81,0.67-1.48,1.48-1.48h32.05
				c0.81,0,1.48,0.67,1.48,1.48l0,0C234.26,194.17,233.6,194.83,232.79,194.83z"/>
		</g>
		<g>
			<path class="st29" d="M224.26,200.49h-23.53c-0.81,0-1.48-0.67-1.48-1.48l0,0c0-0.81,0.67-1.48,1.48-1.48h23.53
				c0.81,0,1.48,0.67,1.48,1.48v0C225.74,199.83,225.07,200.49,224.26,200.49z"/>
		</g>
	</g>
	<polygon class="st30" points="342.54,213.01 342.54,198.01 310.56,184.83 261.33,194.96 261.33,215.23 289.26,226.62 289.3,226.63 
		342.54,213.02 	"/>
	<polygon class="st31" points="289.21,226.63 289.21,235.57 261.33,223.47 261.33,215.24 	"/>
	<polygon class="st29" points="342.54,213.01 289.26,226.62 289.21,226.63 289.21,235.57 342.54,221.02 342.54,213.02 	"/>
	<g>
		<path class="st9" d="M410.45,99.71c-0.18-0.11-0.44-0.25-0.74-0.42h0l-4.78-3.9c0,0-0.61,0.35,0,1.01
			c0.08,0.08,0.18,0.2,0.31,0.32l-1.82-1.42c0,0-0.32,0.32-0.11,0.83c0.15,0.37,1.86,1.83,2.82,2.63c-0.58-0.28-1.39-0.89-2.61-2.11
			c-0.76-0.76-0.51,0.39-0.4,0.89c0.2,0.89,2.58,3.89,3.41,5.25c0.83,1.35,1.25,2.69,0.67,2.1c-0.58-0.58-3.75-2.54-4.09-2.1
			c-0.33,0.43,1.58,2.1,2.5,3.44c0.92,1.33,1.92,3.59,5.17,4.09c3.25,0.5,3.81-1.14,3.81-1.14S411.95,100.63,410.45,99.71z"/>
		<path class="st9" d="M510.98,180.99c0,0-0.79,7.71-1.66,9.16c-0.87,1.46-4.91,5.69-6.15,7.03c-0.08,0.09-0.89-0.62-0.28-1.64
			c2.45-4.14,1.77-3.15,0.92-5.87c-0.42-1.35-0.68,2.53-1.38,2.62c-0.7,0.09-0.45-4.08-0.47-5.35c-0.03-1.27,3.49-1.87,3.9-6.44
			C506.13,177.55,510.98,180.99,510.98,180.99z"/>
		<path class="st11" d="M486.82,101.93c0,0-6.41,31.45-41.67,41.72c-11.01,3.21-36.01-33.03-36.01-33.03s0.88-3.34,6.39-2.57
			c0,0,24.35,16.12,27.41,17.87c2.72,1.55,20.61-19.97,28.76-23.44S486.82,101.93,486.82,101.93z"/>
		<g>
			<path class="st11" d="M528.92,299.62c0,0,4.37,3.99,3.52,6.83c-0.85,2.84-4.8,4.73-5.33,8.19c-0.53,3.47-2.67,5.36-4.59,5.36
				s-9.16,0-9.16,0s-1.41-2.44,2-3.17c3.41-0.74,4.7-4.81,4.49-8.59c-0.21-3.78,0.32-8.82,0.32-8.82l7.25-1.68L528.92,299.62z"/>
			<path class="st11" d="M475.25,309.94c0,0,0.79,9.08-1.14,10.03l-24.58-0.05c0,0,0-2.84,3.95-3.47
				c3.95-0.63,10.88-2.94,12.06-8.09C466.72,303.22,475.25,309.94,475.25,309.94z"/>
			<path class="st29" d="M454.5,181.61c0,0,1.3,15.92,2.82,35.07c2.07,26,4.56,57.94,4.81,63.99c0.43,10.51,2.13,27.31,2.13,27.31
				s4.05,3.99,12.16,2.31c0,0,7.23-23.99,9.29-49.38c0.03-0.42,0.06-0.84,0.1-1.25c1.92-25.84,4.91-80.26,4.91-80.26L454.5,181.61z"
				/>
			<path class="st32" d="M454.5,181.61c0,0,1.3,15.92,2.82,35.07l28.4,44.24c0.03-0.42,0.06-0.84,0.1-1.25
				c1.92-25.84,4.91-80.26,4.91-80.26L454.5,181.61z"/>
			<path class="st29" d="M460.42,183.51c0,0,23.36,57.67,38.73,84.78c15.36,27.1,20.16,34.67,20.16,34.67s8.8-3.47,9.6-5.83
				c0,0-5.87-52.32-16.16-65.08c-5.81-7.21-12.64-28.84-12.96-36.4c-0.32-7.56-2.08-22.53-2.08-22.53L460.42,183.51z"/>
		</g>
		<path class="st9" d="M491.16,94.63c0,0-15.81,7.63-24.92,4.8c0,0,2.24-2.83,6.17-4.94c-0.32-1.83-0.56-3.42-0.7-4.76
			c-0.39-3.11-0.39-4.87-0.39-4.87l6.1-4.8l5.78-4.59C482.75,88.38,491.16,94.63,491.16,94.63z"/>
		<path class="st13" d="M499.49,176.06c0.04,0.97-2.03,2.07-2.95,2.48c-6.76,2.97-13.07,5.04-20.22,5.73
			c-8.45,0.86-18.44-1.04-21.87-0.97c-0.35,0-0.67-0.14-0.95-0.38c-0.25-0.17-0.42-10.35-0.25-23.16c0-0.52,0-1.03,0.04-1.55v-0.17
			c0.07-5,0.25-10.25,0.49-15.5c0.49-11.53,1.4-22.64,2.94-28.78c1.86-7.25,6.07-12.05,9.89-15.53l3.15-2.76
			c3.16,0.62,6.49,0.45,9.82-1.17c3.65-1.76,7.57-3.66,8.2-3.18c4.77,3.49,7.99,11.32,9.71,21.33c0.01,0.05,0.02,0.1,0.03,0.15
			c0.96,5.72,1.45,12.13,1.41,18.83c0,2.49-0.07,5.04-0.21,7.56c-0.7,11.41-0.23,21.58,0.23,28.62c0.09,1.39,0.18,2.66,0.26,3.79
			C499.35,173.4,499.46,174.96,499.49,176.06z"/>
		<path class="st11" d="M498.95,167.61c-26.2-30.26-9.95-52.24-9.95-52.24l8.52-2.76c0.96,5.72,1.45,12.13,1.41,18.83
			c0,2.49-0.07,5.04-0.21,7.56C498.02,150.4,498.49,160.57,498.95,167.61z"/>
		<path class="st33" d="M483.31,80.41c0,0-4,7.28-11.6,9.32c-0.39-3.11-0.39-4.87-0.39-4.87l6.1-4.8L483.31,80.41z"/>
		<path class="st9" d="M468.54,84.65c0,0,15.08,2.47,16.5-6.8s4.32-15.2-5.25-17.16c-9.57-1.97-11.98,1.29-13.22,4.27
			C465.33,67.94,464.66,83.77,468.54,84.65z"/>
		<path class="st34" d="M490.52,59.57c0.14-0.16,0.45-0.28,1.16-0.32c0,0-0.56-0.35-1.31-0.37c-0.15-0.98-0.67-2.71-2.35-3.13
			c0,0,0.9,0.48,1.02,1.52c-1.95-2-6.12-3.46-17.68-2.54c-15.23,1.2-10.21,10.95-8.24,12.12c1.97,1.16,6.94-2.02,10.61-1.73
			c3.67,0.29,4.37,5.6,5.62,6.33c1.25,0.73,0.76-0.56,2.44-1.32c1.69-0.76,1.85,2.03,1.36,3.85c-0.49,1.82,1.83,4.21,1.83,4.21
			s0,0,2.34-2.52c2.34-2.52,4.55-13.2,3.48-15.48C490.71,59.98,490.62,59.78,490.52,59.57z"/>
		<path class="st13" d="M487.78,91.04c0,0,9.54,4.52,14.12,11.46c7.1,10.77,15.32,50.04,15.47,53.68c0.15,3.64-6,29.31-6,29.31
			s-6.24-0.41-7.85-3.56c0,0,1.25-26.38,0.46-28.07c-0.79-1.7-26.03-35.38-23.19-42.57C483.62,104.1,487.78,91.04,487.78,91.04z"/>
		<path class="st9" d="M509.32,190.15l-4.52,7.55c0,0-0.54-0.23-0.45-0.77c0.09-0.54,1.39-4.63,1.39-4.63L509.32,190.15z"/>
		<path class="st9" d="M504.8,190.37c0,0-3.26,3.71-2.53,4.55l2.35-1.82L504.8,190.37z"/>
	</g>
	<path class="st2" d="M301.1,198.03c0,0-1.36-0.26-2.62,0.49C298.47,198.52,300.21,199.11,301.1,198.03z"/>
	<g>
		<path class="st35" d="M298.91,193.12c-10.62,0.77-20.26,1.39-27.02,3.62c-6.22,2.05-10.04,4.81-10.04,7.85
			c0,3.38,4.14,6.99,12.21,8.51c6.78,1.28,17.46,3.91,24.85,2.96c9.27-1.18,17.51-1.02,23.97-2.72l-3-1.1l-20.93-7.65l33.71,0.93
			l3.16,0.09c0.1-0.34,0.15-0.68,0.15-1.02c0-3.25-4.37-6.19-11.38-8.27C317.93,194.34,308.86,192.4,298.91,193.12z"/>
		<path class="st36" d="M332.67,205.52l-33.71-0.93l20.93,7.65c-2.08,0.47-4.35,0.87-6.78,1.19c-4.31,0.57-9.29,0.18-14.15,0.89
			c-8.06,1.17-15.49-1.52-21.45-2.2c-6.42-0.73-13.15-4.59-12.42-7.53c0.76-3.06,5.11-6.61,12.91-7.65
			c5.86-0.78,13.59-2.59,21.5-2.59c6.42,0,11.82,1.6,17,1.91c9.79,0.6,16.32,4.8,16.32,8.33
			C332.82,204.91,332.77,205.22,332.67,205.52z"/>
		<g>
			<path class="st12" d="M281.16,203.53c0,0.33-0.71,0.61-1.58,0.61c-0.87,0-1.58-0.27-1.58-0.61c0-0.33,0.71-0.61,1.58-0.61
				C280.46,202.93,281.16,203.2,281.16,203.53z"/>
			<path class="st12" d="M290.8,200.62c0,0.33-0.71,0.61-1.58,0.61c-0.88,0-1.58-0.27-1.58-0.61c0-0.33,0.71-0.61,1.58-0.61
				C290.09,200.01,290.8,200.29,290.8,200.62z"/>
			<path class="st12" d="M284.85,199.02c0,0.28-0.58,0.5-1.31,0.5c-0.72,0-1.31-0.22-1.31-0.5c0-0.28,0.58-0.5,1.31-0.5
				C284.27,198.52,284.85,198.74,284.85,199.02z"/>
			<path class="st12" d="M296.66,197.78c0,0.31-0.65,0.56-1.45,0.56c-0.8,0-1.45-0.25-1.45-0.56c0-0.31,0.65-0.56,1.45-0.56
				C296.01,197.22,296.66,197.47,296.66,197.78z"/>
			<ellipse class="st12" cx="294.36" cy="203.53" rx="2.29" ry="0.88"/>
			<path class="st12" d="M301.64,200.33c0,0.33-0.71,0.61-1.58,0.61c-0.87,0-1.58-0.27-1.58-0.61c0-0.33,0.71-0.61,1.58-0.61
				C300.93,199.72,301.64,199.99,301.64,200.33z"/>
			<path class="st12" d="M308.98,200.63c0,0.17-0.35,0.3-0.79,0.3c-0.44,0-0.79-0.14-0.79-0.3c0-0.17,0.35-0.3,0.79-0.3
				C308.62,200.33,308.98,200.46,308.98,200.63z"/>
			<ellipse class="st12" cx="304.86" cy="198.03" rx="0.79" ry="0.3"/>
			<path class="st12" d="M296.66,207.8c0,0.17-0.35,0.3-0.79,0.3c-0.44,0-0.79-0.14-0.79-0.3c0-0.17,0.35-0.3,0.79-0.3
				C296.3,207.49,296.66,207.63,296.66,207.8z"/>
			<path class="st12" d="M302.08,209.18c0,0.17-0.35,0.3-0.79,0.3c-0.44,0-0.79-0.14-0.79-0.3c0-0.17,0.35-0.3,0.79-0.3
				C301.73,208.87,302.08,209.01,302.08,209.18z"/>
			<ellipse class="st12" cx="288.29" cy="206.8" rx="1.79" ry="0.68"/>
			<path class="st2" d="M279.82,206.97c0,0-1.17-0.3-2.31,0.3C277.5,207.27,278.99,207.87,279.82,206.97z"/>
			<path class="st2" d="M288.85,202.64c0,0-1.59-0.4-3.13,0.41C285.71,203.05,287.72,203.86,288.85,202.64z"/>
			<path class="st2" d="M305.98,200.34c0,0-1.64,0-2.94,1.17C303.05,201.51,305.2,201.79,305.98,200.34z"/>
			<path class="st2" d="M313.6,201.21c0,0-1.39-0.87-3.11-0.58C310.49,200.64,312.16,202.02,313.6,201.21z"/>
			<path class="st2" d="M301.4,203.7c0,0-0.77-1.15-2.2-1.51C299.2,202.19,300.01,203.83,301.4,203.7z"/>
			<path class="st2" d="M298.71,205.33c0,0-1.38-0.1-2.55,0.8C296.16,206.13,297.95,206.51,298.71,205.33z"/>
			<path class="st2" d="M300.01,210.47c0,0-1.14-0.79-2.6-0.62C297.41,209.85,298.75,211.1,300.01,210.47z"/>
			<path class="st2" d="M302.02,207.02c0,0-1.38-0.05-2.52,0.88C299.5,207.91,301.3,208.23,302.02,207.02z"/>
			<path class="st2" d="M295.68,200.67c0,0-1.35-0.31-2.64,0.4C293.04,201.07,294.76,201.72,295.68,200.67z"/>
			<path class="st2" d="M292.22,199.16c0,0-1.03-0.92-2.51-0.92C289.72,198.24,290.9,199.63,292.22,199.16z"/>
			<path class="st37" d="M281.96,207.73L281.96,207.73c-1.56,0.39-2.34,1.19-1.74,1.78l0,0c0.45,0.44,1.46,0.35,2.59,0.1l0.58,0.56
				c0.08,0.08,0.31,0.1,0.52,0.04l1.1-0.28c0.21-0.05,0.31-0.16,0.23-0.23l-0.57-0.55c1.04-0.3,1.69-0.62,1.22-1.07l0,0
				C285.28,207.49,283.51,207.33,281.96,207.73z"/>
			<path class="st37" d="M311.53,197.56L311.53,197.56c1.27,0.32,1.91,0.97,1.42,1.45l0,0c-0.37,0.36-1.19,0.28-2.11,0.08
				l-0.47,0.45c-0.06,0.06-0.25,0.08-0.42,0.04l-0.9-0.23c-0.17-0.04-0.25-0.13-0.19-0.19l0.47-0.45c-0.85-0.25-1.38-0.51-1-0.88
				l0,0C308.82,197.36,310.26,197.24,311.53,197.56z"/>
			<path class="st37" d="M293.41,205.26L293.41,205.26c1.27,0.32,1.91,0.97,1.42,1.45l0,0c-0.37,0.36-1.19,0.28-2.11,0.08
				l-0.47,0.45c-0.06,0.06-0.25,0.08-0.42,0.04l-0.9-0.23c-0.17-0.04-0.25-0.13-0.19-0.19l0.47-0.45c-0.85-0.25-1.38-0.51-0.99-0.88
				l0,0C290.7,205.06,292.14,204.94,293.41,205.26z"/>
			<path class="st37" d="M282.67,200.33L282.67,200.33c-1.27,0.32-1.91,0.97-1.42,1.45l0,0c0.37,0.36,1.19,0.28,2.11,0.08l0.47,0.45
				c0.06,0.06,0.25,0.08,0.42,0.04l0.9-0.23c0.17-0.04,0.25-0.13,0.19-0.19l-0.47-0.45c0.85-0.25,1.38-0.51,1-0.88l0,0
				C285.38,200.14,283.94,200.01,282.67,200.33z"/>
		</g>
	</g>
	<g>
		<path class="st35" d="M337.93,204.56l-29.1-0.8l-3.97-1.11v1l22.71,8.3c6.86-1.8,11.45-4.4,12.29-7.34v-1L337.93,204.56z"/>
		<path class="st38" d="M339.86,203.61c-0.83,2.93-5.43,5.54-12.29,7.34l-10.29-3.76l-2.14-0.78c0,0,0,0,0,0l-10.27-3.76
			L339.86,203.61z"/>
		<g>
			<path class="st12" d="M316.5,204.44c0,0.33-0.71,0.61-1.58,0.61s-1.58-0.27-1.58-0.61c0-0.33,0.71-0.61,1.58-0.61
				S316.5,204.11,316.5,204.44z"/>
			<path class="st12" d="M318.18,206.64c0,0.24-0.37,0.45-0.9,0.55l-2.14-0.78c0.24-0.22,0.8-0.37,1.46-0.37
				C317.47,206.04,318.18,206.31,318.18,206.64z"/>
			<path class="st12" d="M323.84,206.78c0,0.17-0.35,0.3-0.79,0.3s-0.79-0.14-0.79-0.3c0-0.17,0.35-0.3,0.79-0.3
				S323.84,206.61,323.84,206.78z"/>
			<ellipse class="st12" cx="327.3" cy="205.05" rx="0.79" ry="0.3"/>
			<path class="st12" d="M320.04,204.59c0,0.17-0.35,0.3-0.79,0.3c-0.44,0-0.79-0.14-0.79-0.3c0-0.17,0.35-0.3,0.79-0.3
				C319.69,204.29,320.04,204.42,320.04,204.59z"/>
			<path class="st12" d="M324.1,204.06c0,0.28-0.58,0.5-1.3,0.5c-0.72,0-1.3-0.22-1.3-0.5s0.58-0.5,1.3-0.5
				C323.52,203.56,324.1,203.78,324.1,204.06z"/>
			<path class="st12" d="M322.79,205.68c0,0.19-0.4,0.34-0.88,0.34c-0.49,0-0.88-0.15-0.88-0.34c0-0.19,0.4-0.34,0.88-0.34
				C322.4,205.34,322.79,205.49,322.79,205.68z"/>
			<path class="st12" d="M311.21,203.83c0,0.12-0.26,0.22-0.58,0.22s-0.58-0.1-0.58-0.22c0-0.12,0.26-0.22,0.58-0.22
				S311.21,203.71,311.21,203.83z"/>
			<path class="st2" d="M317.93,204.63c0,0-1.14,0-2.04,0.81C315.89,205.44,317.38,205.64,317.93,204.63z"/>
			<path class="st2" d="M331.05,205.4c0,0-0.87-0.74-2.08-0.71C328.98,204.69,329.98,205.81,331.05,205.4z"/>
			<path class="st2" d="M320.7,206.64c0,0-0.89-0.71-2.1-0.64C318.6,206,319.64,207.09,320.7,206.64z"/>
			<path class="st2" d="M327.57,207.36c0,0-1.13-0.14-2.12,0.55C325.44,207.91,326.9,208.29,327.57,207.36z"/>
			<path class="st2" d="M310.12,203.15c0,0-0.99-0.22-1.92,0.31C308.2,203.46,309.45,203.92,310.12,203.15z"/>
		</g>
	</g>
	<g>
		<g>
			<path class="st35" d="M268.36,73.71c-4.7,0.68-8.97,1.23-11.97,3.2c-2.76,1.82-4.45,4.26-4.45,6.95c0,2.99,1.83,6.18,5.41,7.53
				c3,1.13,7.73,3.46,11.01,2.62c4.11-1.05,7.75-0.91,10.62-2.41l-1.33-0.97l-9.27-6.77l14.93,0.82l1.4,0.08
				c0.04-0.3,0.06-0.6,0.06-0.9c0-2.88-1.93-5.47-5.04-7.32C276.79,74.79,272.77,73.08,268.36,73.71z"/>
			<path class="st36" d="M283.31,84.69l-14.93-0.82l9.27,6.77c-0.92,0.42-1.93,0.77-3,1.06c-1.91,0.5-4.12,0.16-6.27,0.79
				c-3.57,1.04-6.86-1.34-9.5-1.95c-2.84-0.65-5.82-4.06-5.5-6.67c0.34-2.71,2.26-5.85,5.72-6.77c2.6-0.69,6.02-2.29,9.52-2.29
				c2.85,0,5.23,1.41,7.53,1.69c4.33,0.53,7.23,4.25,7.23,7.37C283.38,84.14,283.36,84.42,283.31,84.69z"/>
			<g>
				<path class="st12" d="M260.5,82.93c0,0.3-0.31,0.54-0.7,0.54c-0.39,0-0.7-0.24-0.7-0.54s0.31-0.54,0.7-0.54
					C260.19,82.39,260.5,82.63,260.5,82.93z"/>
				<path class="st12" d="M264.77,80.35c0,0.3-0.31,0.54-0.7,0.54s-0.7-0.24-0.7-0.54c0-0.3,0.31-0.54,0.7-0.54
					S264.77,80.06,264.77,80.35z"/>
				<ellipse class="st12" cx="261.56" cy="78.93" rx="0.58" ry="0.44"/>
				<path class="st12" d="M267.36,77.84c0,0.27-0.29,0.49-0.64,0.49c-0.36,0-0.64-0.22-0.64-0.49c0-0.27,0.29-0.49,0.64-0.49
					C267.07,77.34,267.36,77.56,267.36,77.84z"/>
				<path class="st12" d="M267.36,82.93c0,0.43-0.46,0.78-1.02,0.78s-1.02-0.35-1.02-0.78c0-0.43,0.45-0.78,1.02-0.78
					S267.36,82.5,267.36,82.93z"/>
				<path class="st12" d="M269.57,80.09c0,0.3-0.31,0.54-0.7,0.54c-0.39,0-0.7-0.24-0.7-0.54c0-0.3,0.31-0.54,0.7-0.54
					C269.26,79.56,269.57,79.8,269.57,80.09z"/>
				<path class="st12" d="M272.82,80.36c0,0.15-0.16,0.27-0.35,0.27c-0.19,0-0.35-0.12-0.35-0.27c0-0.15,0.16-0.27,0.35-0.27
					C272.66,80.09,272.82,80.21,272.82,80.36z"/>
				<path class="st12" d="M271.35,78.06c0,0.15-0.16,0.27-0.35,0.27c-0.19,0-0.35-0.12-0.35-0.27c0-0.15,0.16-0.27,0.35-0.27
					C271.19,77.79,271.35,77.91,271.35,78.06z"/>
				<path class="st12" d="M267.36,86.7c0,0.15-0.16,0.27-0.35,0.27c-0.19,0-0.35-0.12-0.35-0.27c0-0.15,0.16-0.27,0.35-0.27
					C267.21,86.43,267.36,86.55,267.36,86.7z"/>
				<path class="st12" d="M269.77,87.92c0,0.15-0.16,0.27-0.35,0.27c-0.19,0-0.35-0.12-0.35-0.27c0-0.15,0.16-0.27,0.35-0.27
					C269.61,87.66,269.77,87.78,269.77,87.92z"/>
				<path class="st12" d="M264.45,85.82c0,0.33-0.35,0.61-0.79,0.61c-0.44,0-0.79-0.27-0.79-0.61c0-0.33,0.35-0.61,0.79-0.61
					C264.1,85.21,264.45,85.49,264.45,85.82z"/>
				<path class="st2" d="M259.9,85.97c0,0-0.52-0.26-1.02,0.27C258.88,86.24,259.54,86.77,259.9,85.97z"/>
				<path class="st2" d="M263.9,82.14c0,0-0.7-0.36-1.39,0.36C262.51,82.5,263.41,83.22,263.9,82.14z"/>
				<path class="st2" d="M271.49,80.1c0,0-0.73,0-1.3,1.04C270.19,81.14,271.15,81.39,271.49,80.1z"/>
				<path class="st2" d="M274.87,80.88c0,0-0.62-0.77-1.38-0.51C273.49,80.37,274.23,81.59,274.87,80.88z"/>
				<path class="st2" d="M269.46,83.07c0,0-0.34-1.02-0.98-1.34C268.49,81.74,268.85,83.19,269.46,83.07z"/>
				<path class="st2" d="M268.27,84.52c0,0-0.61-0.09-1.13,0.71C267.14,85.23,267.94,85.56,268.27,84.52z"/>
				<path class="st2" d="M268.85,89.07c0,0-0.5-0.7-1.15-0.55C267.7,88.52,268.29,89.62,268.85,89.07z"/>
				<path class="st2" d="M269.74,86.02c0,0-0.61-0.05-1.12,0.78C268.62,86.8,269.42,87.08,269.74,86.02z"/>
				<path class="st2" d="M266.93,80.39c0,0-0.6-0.28-1.17,0.35C265.76,80.75,266.52,81.32,266.93,80.39z"/>
				<path class="st2" d="M265.4,79.06c0,0-0.46-0.82-1.11-0.82C264.29,78.25,264.82,79.48,265.4,79.06z"/>
				<path class="st37" d="M260.85,86.64L260.85,86.64c-0.69,0.35-1.04,1.06-0.77,1.57l0,0c0.2,0.39,0.64,0.31,1.15,0.09l0.25,0.49
					c0.04,0.07,0.14,0.09,0.23,0.04l0.49-0.25c0.09-0.05,0.14-0.14,0.1-0.21l-0.25-0.49c0.46-0.27,0.75-0.55,0.54-0.95l0,0
					C262.32,86.43,261.54,86.29,260.85,86.64z"/>
				<path class="st37" d="M273.95,77.64L273.95,77.64c0.56,0.28,0.84,0.86,0.63,1.28l0,0c-0.16,0.32-0.53,0.25-0.93,0.08l-0.21,0.4
					c-0.03,0.06-0.11,0.07-0.19,0.03l-0.4-0.2c-0.07-0.04-0.11-0.11-0.08-0.17l0.21-0.4c-0.38-0.22-0.61-0.45-0.44-0.78l0,0
					C272.75,77.47,273.39,77.36,273.95,77.64z"/>
				<path class="st37" d="M265.92,84.46L265.92,84.46c0.56,0.28,0.84,0.86,0.63,1.28l0,0c-0.16,0.32-0.53,0.25-0.93,0.08l-0.21,0.4
					c-0.03,0.06-0.11,0.07-0.19,0.03l-0.4-0.2c-0.07-0.04-0.11-0.11-0.08-0.17l0.21-0.4c-0.38-0.22-0.61-0.45-0.44-0.78l0,0
					C264.72,84.28,265.36,84.17,265.92,84.46z"/>
				<path class="st37" d="M261.17,80.1L261.17,80.1c-0.56,0.28-0.84,0.86-0.63,1.28l0,0c0.16,0.32,0.53,0.25,0.93,0.08l0.21,0.4
					c0.03,0.06,0.11,0.07,0.19,0.03l0.4-0.2c0.07-0.04,0.11-0.11,0.08-0.17l-0.21-0.4c0.38-0.22,0.61-0.45,0.44-0.78l0,0
					C262.37,79.92,261.73,79.81,261.17,80.1z"/>
			</g>
		</g>
		<g>
			<path class="st35" d="M285.64,83.84l-12.89-0.71L271,82.15v0.88l10.06,7.35c3.04-1.59,5.07-3.9,5.44-6.49V83L285.64,83.84z"/>
			<path class="st38" d="M286.5,83c-0.37,2.6-2.41,4.9-5.44,6.49l-4.56-3.33l-0.95-0.69c0,0,0,0,0,0L271,82.15L286.5,83z"/>
			<g>
				<path class="st12" d="M276.15,83.73c0,0.3-0.31,0.54-0.7,0.54c-0.39,0-0.7-0.24-0.7-0.54c0-0.3,0.31-0.54,0.7-0.54
					C275.84,83.2,276.15,83.44,276.15,83.73z"/>
				<path class="st12" d="M276.89,85.68c0,0.21-0.16,0.4-0.4,0.48l-0.95-0.69c0.11-0.19,0.36-0.33,0.65-0.33
					C276.58,85.14,276.89,85.39,276.89,85.68z"/>
				<path class="st12" d="M279.4,85.8c0,0.15-0.16,0.27-0.35,0.27c-0.19,0-0.35-0.12-0.35-0.27c0-0.15,0.16-0.27,0.35-0.27
					C279.25,85.53,279.4,85.65,279.4,85.8z"/>
				<path class="st12" d="M281.29,84.27c0,0.15-0.16,0.27-0.35,0.27c-0.19,0-0.35-0.12-0.35-0.27c0-0.15,0.16-0.27,0.35-0.27
					C281.13,84,281.29,84.12,281.29,84.27z"/>
				<path class="st12" d="M277.72,83.87c0,0.15-0.16,0.27-0.35,0.27c-0.19,0-0.35-0.12-0.35-0.27c0-0.15,0.16-0.27,0.35-0.27
					C277.56,83.6,277.72,83.72,277.72,83.87z"/>
				<path class="st12" d="M279.52,83.39c0,0.24-0.26,0.44-0.58,0.44c-0.32,0-0.58-0.2-0.58-0.44c0-0.24,0.26-0.44,0.58-0.44
					C279.26,82.95,279.52,83.15,279.52,83.39z"/>
				<path class="st12" d="M278.94,84.83c0,0.17-0.18,0.3-0.39,0.3c-0.22,0-0.39-0.13-0.39-0.3c0-0.17,0.17-0.3,0.39-0.3
					C278.76,84.53,278.94,84.66,278.94,84.83z"/>
				<path class="st12" d="M273.81,83.2c0,0.11-0.12,0.2-0.26,0.2c-0.14,0-0.26-0.09-0.26-0.2s0.12-0.2,0.26-0.2
					C273.69,83,273.81,83.09,273.81,83.2z"/>
				<path class="st2" d="M276.78,83.9c0,0-0.5,0-0.9,0.72C275.88,84.62,276.54,84.8,276.78,83.9z"/>
				<path class="st2" d="M282.6,84.58c0,0-0.38-0.65-0.92-0.63C281.68,83.95,282.12,84.94,282.6,84.58z"/>
				<path class="st2" d="M278.01,85.68c0,0-0.39-0.63-0.93-0.57C277.08,85.11,277.54,86.07,278.01,85.68z"/>
				<path class="st2" d="M281.05,86.31c0,0-0.5-0.12-0.94,0.49C280.11,86.8,280.76,87.14,281.05,86.31z"/>
				<path class="st2" d="M273.33,82.59c0,0-0.44-0.19-0.85,0.27C272.47,82.86,273.03,83.27,273.33,82.59z"/>
			</g>
		</g>
	</g>
	<g>
		<g>
			<path class="st35" d="M309.63,100.56c-4.7,0.68-8.97,1.23-11.97,3.2c-2.76,1.82-4.45,4.26-4.45,6.95c0,2.99,1.83,6.18,5.41,7.53
				c3,1.13,7.73,3.46,11.01,2.62c4.11-1.05,7.75-0.91,10.62-2.41l-1.33-0.97l-9.27-6.77l14.93,0.82l1.4,0.08
				c0.04-0.3,0.06-0.6,0.06-0.9c0-2.88-1.93-5.47-5.04-7.32C318.05,101.64,314.03,99.93,309.63,100.56z"/>
			<path class="st36" d="M324.58,111.54l-14.93-0.82l9.27,6.77c-0.92,0.42-1.93,0.77-3,1.06c-1.91,0.5-4.12,0.16-6.27,0.79
				c-3.57,1.04-6.86-1.34-9.5-1.95c-2.85-0.65-5.82-4.06-5.5-6.67c0.34-2.71,2.26-5.85,5.72-6.77c2.6-0.69,6.02-2.29,9.52-2.29
				c2.85,0,5.23,1.41,7.53,1.69c4.33,0.53,7.23,4.25,7.23,7.37C324.65,110.99,324.63,111.27,324.58,111.54z"/>
			<g>
				<path class="st12" d="M301.77,109.78c0,0.3-0.31,0.54-0.7,0.54s-0.7-0.24-0.7-0.54c0-0.3,0.31-0.54,0.7-0.54
					S301.77,109.48,301.77,109.78z"/>
				<path class="st12" d="M306.04,107.2c0,0.3-0.31,0.54-0.7,0.54c-0.39,0-0.7-0.24-0.7-0.54c0-0.3,0.31-0.54,0.7-0.54
					C305.72,106.67,306.04,106.91,306.04,107.2z"/>
				<path class="st12" d="M303.4,105.78c0,0.24-0.26,0.44-0.58,0.44c-0.32,0-0.58-0.2-0.58-0.44c0-0.24,0.26-0.44,0.58-0.44
					C303.14,105.34,303.4,105.54,303.4,105.78z"/>
				<path class="st12" d="M308.63,104.68c0,0.27-0.29,0.49-0.64,0.49c-0.36,0-0.64-0.22-0.64-0.49c0-0.27,0.29-0.49,0.64-0.49
					C308.34,104.19,308.63,104.41,308.63,104.68z"/>
				<path class="st12" d="M308.63,109.78c0,0.43-0.46,0.78-1.02,0.78c-0.56,0-1.02-0.35-1.02-0.78c0-0.43,0.46-0.78,1.02-0.78
					C308.18,109,308.63,109.35,308.63,109.78z"/>
				<path class="st12" d="M310.84,106.94c0,0.3-0.31,0.54-0.7,0.54c-0.39,0-0.7-0.24-0.7-0.54c0-0.3,0.31-0.54,0.7-0.54
					C310.52,106.41,310.84,106.65,310.84,106.94z"/>
				<path class="st12" d="M314.09,107.21c0,0.15-0.16,0.27-0.35,0.27c-0.19,0-0.35-0.12-0.35-0.27c0-0.15,0.16-0.27,0.35-0.27
					C313.93,106.94,314.09,107.06,314.09,107.21z"/>
				<path class="st12" d="M312.61,104.91c0,0.15-0.16,0.27-0.35,0.27c-0.19,0-0.35-0.12-0.35-0.27c0-0.15,0.16-0.27,0.35-0.27
					C312.46,104.64,312.61,104.76,312.61,104.91z"/>
				<path class="st12" d="M308.63,113.55c0,0.15-0.16,0.27-0.35,0.27c-0.19,0-0.35-0.12-0.35-0.27c0-0.15,0.16-0.27,0.35-0.27
					C308.47,113.28,308.63,113.4,308.63,113.55z"/>
				<path class="st12" d="M311.03,114.77c0,0.15-0.16,0.27-0.35,0.27c-0.19,0-0.35-0.12-0.35-0.27c0-0.15,0.16-0.27,0.35-0.27
					C310.88,114.5,311.03,114.62,311.03,114.77z"/>
				<path class="st12" d="M305.72,112.67c0,0.33-0.35,0.61-0.79,0.61c-0.44,0-0.79-0.27-0.79-0.61s0.35-0.61,0.79-0.61
					C305.36,112.06,305.72,112.33,305.72,112.67z"/>
				<path class="st2" d="M301.17,112.82c0,0-0.52-0.26-1.02,0.27C300.15,113.09,300.8,113.61,301.17,112.82z"/>
				<path class="st2" d="M305.17,108.99c0,0-0.7-0.36-1.39,0.36C303.78,109.35,304.67,110.07,305.17,108.99z"/>
				<path class="st2" d="M312.76,106.95c0,0-0.73,0-1.3,1.04C311.46,107.99,312.41,108.24,312.76,106.95z"/>
				<path class="st2" d="M316.13,107.72c0,0-0.62-0.77-1.38-0.51C314.76,107.22,315.5,108.44,316.13,107.72z"/>
				<path class="st2" d="M310.73,109.92c0,0-0.34-1.02-0.98-1.34C309.76,108.59,310.12,110.04,310.73,109.92z"/>
				<path class="st2" d="M309.54,111.37c0,0-0.61-0.09-1.13,0.71C308.41,112.08,309.2,112.41,309.54,111.37z"/>
				<path class="st2" d="M310.11,115.92c0,0-0.5-0.7-1.15-0.55C308.96,115.37,309.56,116.47,310.11,115.92z"/>
				<path class="st2" d="M311,112.87c0,0-0.61-0.05-1.12,0.78C309.89,113.65,310.69,113.93,311,112.87z"/>
				<path class="st2" d="M308.2,107.24c0,0-0.6-0.28-1.17,0.35C307.03,107.6,307.79,108.17,308.2,107.24z"/>
				<path class="st2" d="M306.67,105.91c0,0-0.46-0.82-1.11-0.82C305.56,105.1,306.08,106.33,306.67,105.91z"/>
				<path class="st37" d="M302.12,113.49L302.12,113.49c-0.69,0.35-1.04,1.06-0.77,1.57l0,0c0.2,0.39,0.64,0.31,1.15,0.09l0.25,0.49
					c0.04,0.07,0.14,0.09,0.23,0.04l0.49-0.25c0.09-0.05,0.14-0.14,0.1-0.21l-0.25-0.49c0.46-0.27,0.75-0.55,0.54-0.95l0,0
					C303.59,113.28,302.81,113.14,302.12,113.49z"/>
				<path class="st37" d="M315.22,104.49L315.22,104.49c0.56,0.28,0.84,0.86,0.63,1.28l0,0c-0.16,0.32-0.53,0.25-0.93,0.08
					l-0.21,0.4c-0.03,0.06-0.11,0.07-0.19,0.03l-0.4-0.2c-0.07-0.04-0.11-0.11-0.08-0.17l0.21-0.4c-0.38-0.22-0.61-0.45-0.44-0.78
					l0,0C314.02,104.32,314.65,104.21,315.22,104.49z"/>
				<path class="st37" d="M307.19,111.3L307.19,111.3c0.56,0.28,0.84,0.86,0.63,1.28l0,0c-0.16,0.32-0.53,0.25-0.93,0.08l-0.21,0.4
					c-0.03,0.06-0.11,0.07-0.19,0.03l-0.4-0.2c-0.07-0.04-0.11-0.11-0.08-0.17l0.21-0.4c-0.38-0.22-0.61-0.45-0.44-0.78l0,0
					C305.99,111.13,306.63,111.02,307.19,111.3z"/>
				<path class="st37" d="M302.44,106.95L302.44,106.95c-0.56,0.28-0.84,0.86-0.63,1.28l0,0c0.16,0.32,0.53,0.25,0.93,0.08l0.21,0.4
					c0.03,0.06,0.11,0.07,0.19,0.03l0.4-0.2c0.07-0.04,0.11-0.11,0.08-0.17l-0.21-0.4c0.38-0.22,0.61-0.45,0.44-0.78l0,0
					C303.64,106.77,303,106.66,302.44,106.95z"/>
			</g>
		</g>
		<g>
			<path class="st35" d="M326.91,110.69l-12.89-0.71l-1.76-0.98v0.88l10.06,7.35c3.04-1.59,5.07-3.9,5.44-6.49v-0.88L326.91,110.69z
				"/>
			<path class="st38" d="M327.77,109.85c-0.37,2.6-2.41,4.9-5.44,6.49l-4.56-3.33l-0.95-0.69c0,0,0,0,0,0l-4.55-3.33L327.77,109.85z
				"/>
			<g>
				<path class="st12" d="M317.42,110.58c0,0.3-0.31,0.54-0.7,0.54s-0.7-0.24-0.7-0.54c0-0.3,0.31-0.54,0.7-0.54
					S317.42,110.28,317.42,110.58z"/>
				<path class="st12" d="M318.16,112.53c0,0.21-0.16,0.4-0.4,0.48l-0.95-0.69c0.11-0.19,0.36-0.33,0.65-0.33
					C317.85,111.99,318.16,112.23,318.16,112.53z"/>
				<path class="st12" d="M320.67,112.65c0,0.15-0.16,0.27-0.35,0.27c-0.19,0-0.35-0.12-0.35-0.27c0-0.15,0.16-0.27,0.35-0.27
					C320.51,112.38,320.67,112.5,320.67,112.65z"/>
				<path class="st12" d="M322.55,111.12c0,0.15-0.16,0.27-0.35,0.27c-0.19,0-0.35-0.12-0.35-0.27c0-0.15,0.16-0.27,0.35-0.27
					C322.4,110.85,322.55,110.97,322.55,111.12z"/>
				<path class="st12" d="M318.99,110.71c0,0.15-0.16,0.27-0.35,0.27s-0.35-0.12-0.35-0.27c0-0.15,0.16-0.27,0.35-0.27
					S318.99,110.57,318.99,110.71z"/>
				<path class="st12" d="M320.79,110.24c0,0.24-0.26,0.44-0.58,0.44c-0.32,0-0.58-0.2-0.58-0.44c0-0.24,0.26-0.44,0.58-0.44
					C320.53,109.8,320.79,110,320.79,110.24z"/>
				<path class="st12" d="M320.21,111.68c0,0.17-0.18,0.3-0.39,0.3c-0.22,0-0.39-0.13-0.39-0.3c0-0.17,0.18-0.3,0.39-0.3
					C320.03,111.38,320.21,111.51,320.21,111.68z"/>
				<path class="st12" d="M315.08,110.04c0,0.11-0.12,0.2-0.26,0.2c-0.14,0-0.26-0.09-0.26-0.2s0.12-0.2,0.26-0.2
					C314.96,109.85,315.08,109.94,315.08,110.04z"/>
				<path class="st2" d="M318.05,110.75c0,0-0.5,0-0.9,0.72C317.15,111.47,317.81,111.65,318.05,110.75z"/>
				<path class="st2" d="M323.86,111.43c0,0-0.38-0.65-0.92-0.63C322.95,110.8,323.39,111.79,323.86,111.43z"/>
				<path class="st2" d="M319.28,112.53c0,0-0.39-0.63-0.93-0.57C318.35,111.96,318.81,112.92,319.28,112.53z"/>
				<path class="st2" d="M322.32,113.16c0,0-0.5-0.12-0.94,0.49C321.38,113.65,322.03,113.99,322.32,113.16z"/>
				<path class="st2" d="M314.59,109.44c0,0-0.44-0.19-0.85,0.27C313.74,109.71,314.3,110.12,314.59,109.44z"/>
			</g>
		</g>
	</g>
	<g>
		<g>
			<path class="st35" d="M268.36,128.83c-4.7,0.68-8.97,1.23-11.97,3.2c-2.76,1.82-4.45,4.26-4.45,6.95c0,2.99,1.83,6.18,5.41,7.53
				c3,1.13,7.73,3.46,11.01,2.62c4.11-1.05,7.75-0.91,10.62-2.41l-1.33-0.97l-9.27-6.77l14.93,0.82l1.4,0.08
				c0.04-0.3,0.06-0.6,0.06-0.9c0-2.88-1.93-5.47-5.04-7.32C276.79,129.91,272.77,128.2,268.36,128.83z"/>
			<path class="st36" d="M283.31,139.81l-14.93-0.82l9.27,6.77c-0.92,0.42-1.93,0.77-3,1.06c-1.91,0.5-4.12,0.16-6.27,0.79
				c-3.57,1.04-6.86-1.34-9.5-1.95c-2.84-0.65-5.82-4.06-5.5-6.67c0.34-2.71,2.26-5.85,5.72-6.77c2.6-0.69,6.02-2.29,9.52-2.29
				c2.85,0,5.23,1.41,7.53,1.69c4.33,0.53,7.23,4.25,7.23,7.37C283.38,139.27,283.36,139.54,283.31,139.81z"/>
			<g>
				<path class="st12" d="M260.5,138.05c0,0.3-0.31,0.54-0.7,0.54c-0.39,0-0.7-0.24-0.7-0.54c0-0.3,0.31-0.54,0.7-0.54
					C260.19,137.52,260.5,137.76,260.5,138.05z"/>
				<path class="st12" d="M264.77,135.47c0,0.3-0.31,0.54-0.7,0.54s-0.7-0.24-0.7-0.54c0-0.3,0.31-0.54,0.7-0.54
					S264.77,135.18,264.77,135.47z"/>
				<path class="st12" d="M262.13,134.05c0,0.24-0.26,0.44-0.58,0.44c-0.32,0-0.58-0.2-0.58-0.44c0-0.24,0.26-0.44,0.58-0.44
					C261.88,133.61,262.13,133.81,262.13,134.05z"/>
				<path class="st12" d="M267.36,132.96c0,0.27-0.29,0.49-0.64,0.49c-0.36,0-0.64-0.22-0.64-0.49c0-0.27,0.29-0.49,0.64-0.49
					C267.07,132.46,267.36,132.68,267.36,132.96z"/>
				<path class="st12" d="M267.36,138.05c0,0.43-0.46,0.78-1.02,0.78s-1.02-0.35-1.02-0.78c0-0.43,0.45-0.78,1.02-0.78
					S267.36,137.62,267.36,138.05z"/>
				<path class="st12" d="M269.57,135.21c0,0.3-0.31,0.54-0.7,0.54c-0.39,0-0.7-0.24-0.7-0.54c0-0.3,0.31-0.54,0.7-0.54
					C269.26,134.68,269.57,134.92,269.57,135.21z"/>
				<path class="st12" d="M272.82,135.48c0,0.15-0.16,0.27-0.35,0.27c-0.19,0-0.35-0.12-0.35-0.27c0-0.15,0.16-0.27,0.35-0.27
					C272.66,135.21,272.82,135.33,272.82,135.48z"/>
				<path class="st12" d="M271.35,133.18c0,0.15-0.16,0.27-0.35,0.27c-0.19,0-0.35-0.12-0.35-0.27c0-0.15,0.16-0.27,0.35-0.27
					C271.19,132.91,271.35,133.03,271.35,133.18z"/>
				<path class="st12" d="M267.36,141.82c0,0.15-0.16,0.27-0.35,0.27c-0.19,0-0.35-0.12-0.35-0.27c0-0.15,0.16-0.27,0.35-0.27
					C267.21,141.56,267.36,141.68,267.36,141.82z"/>
				<path class="st12" d="M269.77,143.04c0,0.15-0.16,0.27-0.35,0.27c-0.19,0-0.35-0.12-0.35-0.27c0-0.15,0.16-0.27,0.35-0.27
					C269.61,142.78,269.77,142.9,269.77,143.04z"/>
				<path class="st12" d="M264.45,140.94c0,0.33-0.35,0.61-0.79,0.61c-0.44,0-0.79-0.27-0.79-0.61c0-0.33,0.35-0.61,0.79-0.61
					C264.1,140.34,264.45,140.61,264.45,140.94z"/>
				<path class="st2" d="M259.9,141.09c0,0-0.52-0.26-1.02,0.27C258.88,141.36,259.54,141.89,259.9,141.09z"/>
				<path class="st2" d="M263.9,137.26c0,0-0.7-0.36-1.39,0.36C262.51,137.62,263.41,138.34,263.9,137.26z"/>
				<path class="st2" d="M271.49,135.22c0,0-0.73,0-1.3,1.04C270.19,136.26,271.15,136.51,271.49,135.22z"/>
				<path class="st2" d="M274.87,136c0,0-0.62-0.77-1.38-0.51C273.49,135.49,274.23,136.72,274.87,136z"/>
				<path class="st2" d="M269.46,138.2c0,0-0.34-1.02-0.98-1.34C268.49,136.86,268.85,138.31,269.46,138.2z"/>
				<path class="st2" d="M268.27,139.64c0,0-0.61-0.09-1.13,0.71C267.14,140.35,267.94,140.68,268.27,139.64z"/>
				<path class="st2" d="M268.85,144.19c0,0-0.5-0.7-1.15-0.55C267.7,143.64,268.29,144.74,268.85,144.19z"/>
				<path class="st2" d="M269.74,141.14c0,0-0.61-0.05-1.12,0.78C268.62,141.92,269.42,142.2,269.74,141.14z"/>
				<path class="st2" d="M266.93,135.52c0,0-0.6-0.28-1.17,0.35C265.76,135.87,266.52,136.44,266.93,135.52z"/>
				<path class="st2" d="M265.4,134.18c0,0-0.46-0.82-1.11-0.82C264.29,133.37,264.82,134.6,265.4,134.18z"/>
				<path class="st37" d="M260.85,141.76L260.85,141.76c-0.69,0.35-1.04,1.06-0.77,1.57l0,0c0.2,0.39,0.64,0.31,1.15,0.09l0.25,0.49
					c0.04,0.07,0.14,0.09,0.23,0.04l0.49-0.25c0.09-0.05,0.14-0.14,0.1-0.21l-0.25-0.49c0.46-0.27,0.75-0.55,0.54-0.95l0,0
					C262.32,141.55,261.54,141.41,260.85,141.76z"/>
				<path class="st37" d="M273.95,132.76L273.95,132.76c0.56,0.28,0.84,0.86,0.63,1.28l0,0c-0.16,0.32-0.53,0.25-0.93,0.08
					l-0.21,0.4c-0.03,0.06-0.11,0.07-0.19,0.03l-0.4-0.2c-0.07-0.04-0.11-0.11-0.08-0.17l0.21-0.4c-0.38-0.22-0.61-0.45-0.44-0.78
					l0,0C272.75,132.59,273.39,132.48,273.95,132.76z"/>
				<path class="st37" d="M265.92,139.58L265.92,139.58c0.56,0.28,0.84,0.86,0.63,1.28l0,0c-0.16,0.32-0.53,0.25-0.93,0.07
					l-0.21,0.4c-0.03,0.06-0.11,0.07-0.19,0.03l-0.4-0.2c-0.07-0.04-0.11-0.11-0.08-0.17l0.21-0.4c-0.38-0.22-0.61-0.45-0.44-0.78
					l0,0C264.72,139.4,265.36,139.29,265.92,139.58z"/>
				<path class="st37" d="M261.17,135.22L261.17,135.22c-0.56,0.28-0.84,0.86-0.63,1.28l0,0c0.16,0.32,0.53,0.25,0.93,0.08l0.21,0.4
					c0.03,0.06,0.11,0.07,0.19,0.03l0.4-0.2c0.07-0.04,0.11-0.11,0.08-0.17l-0.21-0.4c0.38-0.22,0.61-0.45,0.44-0.78l0,0
					C262.37,135.04,261.73,134.93,261.17,135.22z"/>
			</g>
		</g>
		<g>
			<path class="st35" d="M285.64,138.96l-12.89-0.71l-1.76-0.98v0.88l10.06,7.35c3.04-1.59,5.07-3.9,5.44-6.49v-0.88L285.64,138.96z
				"/>
			<path class="st38" d="M286.5,138.12c-0.37,2.6-2.41,4.9-5.44,6.49l-4.56-3.33l-0.95-0.69c0,0,0,0,0,0l-4.55-3.33L286.5,138.12z"
				/>
			<g>
				<path class="st12" d="M276.15,138.85c0,0.3-0.31,0.54-0.7,0.54c-0.39,0-0.7-0.24-0.7-0.54s0.31-0.54,0.7-0.54
					C275.84,138.32,276.15,138.56,276.15,138.85z"/>
				<path class="st12" d="M276.89,140.8c0,0.21-0.16,0.4-0.4,0.48l-0.95-0.69c0.11-0.19,0.36-0.33,0.65-0.33
					C276.58,140.27,276.89,140.51,276.89,140.8z"/>
				<path class="st12" d="M279.4,140.92c0,0.15-0.16,0.27-0.35,0.27c-0.19,0-0.35-0.12-0.35-0.27c0-0.15,0.16-0.27,0.35-0.27
					C279.25,140.66,279.4,140.78,279.4,140.92z"/>
				<path class="st12" d="M281.29,139.39c0,0.15-0.16,0.27-0.35,0.27c-0.19,0-0.35-0.12-0.35-0.27s0.16-0.27,0.35-0.27
					C281.13,139.12,281.29,139.24,281.29,139.39z"/>
				<path class="st12" d="M277.72,138.99c0,0.15-0.16,0.27-0.35,0.27c-0.19,0-0.35-0.12-0.35-0.27c0-0.15,0.16-0.27,0.35-0.27
					C277.56,138.72,277.72,138.84,277.72,138.99z"/>
				<path class="st12" d="M279.52,138.51c0,0.24-0.26,0.44-0.58,0.44c-0.32,0-0.58-0.2-0.58-0.44c0-0.24,0.26-0.44,0.58-0.44
					C279.26,138.07,279.52,138.27,279.52,138.51z"/>
				<path class="st12" d="M278.94,139.95c0,0.16-0.18,0.3-0.39,0.3c-0.22,0-0.39-0.13-0.39-0.3s0.17-0.3,0.39-0.3
					C278.76,139.65,278.94,139.78,278.94,139.95z"/>
				<path class="st12" d="M273.81,138.32c0,0.11-0.12,0.2-0.26,0.2c-0.14,0-0.26-0.09-0.26-0.2s0.12-0.2,0.26-0.2
					C273.69,138.12,273.81,138.21,273.81,138.32z"/>
				<path class="st2" d="M276.78,139.02c0,0-0.5,0-0.9,0.72C275.88,139.74,276.54,139.92,276.78,139.02z"/>
				<path class="st2" d="M282.6,139.7c0,0-0.38-0.65-0.92-0.63C281.68,139.07,282.12,140.06,282.6,139.7z"/>
				<path class="st2" d="M278.01,140.8c0,0-0.39-0.63-0.93-0.57C277.08,140.23,277.54,141.19,278.01,140.8z"/>
				<path class="st2" d="M281.05,141.43c0,0-0.5-0.12-0.94,0.49C280.11,141.92,280.76,142.26,281.05,141.43z"/>
				<path class="st2" d="M273.33,137.71c0,0-0.44-0.19-0.85,0.27C272.47,137.99,273.03,138.39,273.33,137.71z"/>
			</g>
		</g>
	</g>
	<path class="st35" d="M337.56,203.55c0,0-2.05,0.98-2.62,2.21c-0.57,1.23-2.87,0.8-3.89,1.59c-1.03,0.78-2.08,3.12-4.89,3.09v0.51
		l1.13,0.44c0,0,7.63-2.12,8.67-2.95c1.05-0.83,3.54-2.98,3.54-2.98l0.35-1.85L337.56,203.55z"/>
	<path class="st20" d="M293.35,255h-22.21c-0.5,0-0.91-0.41-0.91-0.91l0,0c0-0.5,0.41-0.91,0.91-0.91h22.21
		c0.5,0,0.91,0.41,0.91,0.91l0,0C294.25,254.6,293.84,255,293.35,255z"/>
	<path class="st20" d="M293.35,250.76h-22.21c-0.5,0-0.91-0.41-0.91-0.91l0,0c0-0.5,0.41-0.91,0.91-0.91h22.21
		c0.5,0,0.91,0.41,0.91,0.91l0,0C294.25,250.35,293.84,250.76,293.35,250.76z"/>
	<g>
		<path class="st29" d="M281.06,106.99h-25.79c-0.54,0-0.99-0.45-0.99-0.99l0,0c0-0.54,0.45-0.99,0.99-0.99h25.79
			c0.54,0,0.99,0.45,0.99,0.99l0,0C282.05,106.54,281.61,106.99,281.06,106.99z"/>
		<path class="st29" d="M281.06,111.03h-25.79c-0.54,0-0.99-0.45-0.99-0.99l0,0c0-0.54,0.45-0.99,0.99-0.99h25.79
			c0.54,0,0.99,0.45,0.99,0.99l0,0C282.05,110.59,281.61,111.03,281.06,111.03z"/>
		<path class="st29" d="M281.06,115.08h-25.79c-0.54,0-0.99-0.45-0.99-0.99l0,0c0-0.54,0.45-0.99,0.99-0.99h25.79
			c0.54,0,0.99,0.45,0.99,0.99l0,0C282.05,114.64,281.61,115.08,281.06,115.08z"/>
	</g>
	<g>
		<path class="st29" d="M325.16,78.1h-25.79c-0.54,0-0.99-0.45-0.99-0.99l0,0c0-0.54,0.45-0.99,0.99-0.99h25.79
			c0.54,0,0.99,0.45,0.99,0.99l0,0C326.15,77.66,325.7,78.1,325.16,78.1z"/>
		<path class="st29" d="M325.16,82.15h-25.79c-0.54,0-0.99-0.45-0.99-0.99l0,0c0-0.54,0.45-0.99,0.99-0.99h25.79
			c0.54,0,0.99,0.45,0.99,0.99l0,0C326.15,81.7,325.7,82.15,325.16,82.15z"/>
		<path class="st29" d="M325.16,86.2h-25.79c-0.54,0-0.99-0.45-0.99-0.99l0,0c0-0.54,0.45-0.99,0.99-0.99h25.79
			c0.54,0,0.99,0.45,0.99,0.99l0,0C326.15,85.75,325.7,86.2,325.16,86.2z"/>
	</g>
	<g>
		<path class="st29" d="M325.16,135.53h-25.79c-0.54,0-0.99-0.45-0.99-0.99l0,0c0-0.54,0.45-0.99,0.99-0.99h25.79
			c0.54,0,0.99,0.45,0.99,0.99l0,0C326.15,135.09,325.7,135.53,325.16,135.53z"/>
		<path class="st29" d="M325.16,139.58h-25.79c-0.54,0-0.99-0.45-0.99-0.99l0,0c0-0.54,0.45-0.99,0.99-0.99h25.79
			c0.54,0,0.99,0.45,0.99,0.99l0,0C326.15,139.13,325.7,139.58,325.16,139.58z"/>
		<path class="st29" d="M325.16,143.63h-25.79c-0.54,0-0.99-0.45-0.99-0.99l0,0c0-0.54,0.45-0.99,0.99-0.99h25.79
			c0.54,0,0.99,0.45,0.99,0.99l0,0C326.15,143.18,325.7,143.63,325.16,143.63z"/>
	</g>
	<path class="st17" d="M395.69,138.59H371c-4.06,0-7.39-3.32-7.39-7.39l0,0c0-4.06,3.32-7.39,7.39-7.39h24.7
		c4.06,0,7.39,3.32,7.39,7.39l0,0C403.08,135.26,399.75,138.59,395.69,138.59z"/>
	<path class="st15" d="M378.62,129.08c0,0,4.69,6.56,4.67,6.32c-0.01-0.25,4.77-9.32,4.77-9.32l-5.52,5.35L378.62,129.08z"/>
	<polygon class="st39" points="305.38,219.41 289.53,223.24 284.6,221.13 299.97,217.58 	"/>
</g>
</svg>
