<?xml version="1.0" encoding="utf-8"?>
<!-- Generator: Adobe Illustrator 23.0.5, SVG Export Plug-In . SVG Version: 6.00 Build 0)  -->
<svg version="1.0" id="Layer_1" xmlns="http://www.w3.org/2000/svg" xmlns:xlink="http://www.w3.org/1999/xlink" x="0px" y="0px"
	 viewBox="0 0 624 320" style="enable-background:new 0 0 624 320;" xml:space="preserve">
<style type="text/css">
	.st0{opacity:0.3;fill:#35B24A;}
	.st1{fill:#015E3A;}
	.st2{fill:#EF6A1C;}
	.st3{fill:#00A26D;}
	.st4{fill:#FFC017;}
	.st5{fill:#F1F2F2;}
	.st6{opacity:0.7;}
	.st7{fill:#FFFFFF;}
	.st8{fill:#CCCCCC;}
	.st9{fill:url(#SVGID_1_);}
	.st10{fill:url(#SVGID_2_);}
	.st11{fill:url(#SVGID_3_);}
	.st12{fill:url(#SVGID_4_);}
	.st13{fill:url(#SVGID_5_);}
	.st14{fill:url(#SVGID_6_);}
	.st15{fill:url(#SVGID_7_);}
	.st16{fill:url(#SVGID_8_);}
	.st17{fill:url(#SVGID_9_);}
	.st18{fill:url(#SVGID_10_);}
	.st19{fill:url(#SVGID_11_);}
	.st20{fill:url(#SVGID_12_);}
	.st21{fill:url(#SVGID_13_);}
	.st22{fill:url(#SVGID_14_);}
	.st23{fill:url(#SVGID_15_);}
	.st24{fill:url(#SVGID_16_);}
	.st25{fill:url(#SVGID_17_);}
	.st26{fill:url(#SVGID_18_);}
	.st27{fill:url(#SVGID_19_);}
	.st28{fill:url(#SVGID_20_);}
	.st29{fill:url(#SVGID_21_);}
	.st30{fill:url(#SVGID_22_);}
	.st31{fill:#FFCE4B;}
	.st32{fill:#E6E7E8;}
	.st33{opacity:0.7;fill:#5BFCFF;}
	.st34{fill:#B3B3B3;}
	.st35{opacity:0.7;fill:#00A26D;}
	.st36{fill:url(#SVGID_23_);}
	.st37{fill:#D1D3D4;}
	.st38{fill:#302B2D;}
	.st39{fill:#EBC4A5;}
	.st40{fill:#ED804A;}
	.st41{fill:#F5D4B3;}
	.st42{fill:#231F20;}
	.st43{fill:#F2CAAA;}
	.st44{fill:#E1E2E3;}
	.st45{fill:#ADADAD;}
	.st46{fill:#D6D6D6;}
	.st47{fill:#C7C7C7;}
	.st48{fill:#8C6239;}
	.st49{fill:#603813;}
	.st50{fill:#B5B5B5;}
</style>
<rect y="0" class="st0" width="624" height="320"/>
<g>
	<g>
		<g>
			<path class="st1" d="M265.7,25.58c-2.23-1.35-5.07-1.55-8.25-0.52l-0.36,2.1c-1.03,0.31-2.12,0.8-3.26,1.45
				c-5.38,3.11-10.09,9.08-12.78,15.5l-1.37-0.29c-1.68,3.96-2.64,8.05-2.66,11.88c0,5.38,1.89,9.16,4.99,10.87l-7.25-4.53
				c-3.08-1.71-4.99-5.49-4.97-10.87c0-3.83,0.98-7.92,2.64-11.88l1.4,0.28c2.67-6.42,7.4-12.4,12.78-15.5
				c1.11-0.65,2.2-1.14,3.26-1.45l0.34-2.1c1.35-0.44,2.64-0.65,3.86-0.65c1.68,0,3.21,0.41,4.5,1.19h0.03
				c0.03,0.03,0.05,0.05,0.08,0.05L265.7,25.58z"/>
			<g>
				<path class="st2" d="M270.54,36.21l-1.29,0.8l-9.45,5.9l-6.03,3.75l3.31-19.51l0.36-2.1c3.18-1.04,6.03-0.83,8.25,0.52
					c0.13,0.03,0.26,0.1,0.36,0.23c0.13,0.05,0.26,0.16,0.39,0.26C268.96,27.93,270.51,31.43,270.54,36.21z"/>
				<path class="st3" d="M253.77,46.67l-9.94,16.77l-1.84,3.13c-3.11-1.71-4.99-5.49-4.99-10.87c0.03-3.83,0.98-7.92,2.66-11.88
					l1.37,0.29L253.77,46.67z"/>
				<path class="st4" d="M269.24,37.02v0.08c-0.03,9.86-6.99,21.81-15.53,26.76c-1.06,0.62-2.1,1.09-3.11,1.45l0.08-0.47l0.18-1.14
					l0.47-2.77l1.09-6.42l0.03-0.03l1.32-7.81l6.03-3.75L269.24,37.02z"/>
				<path class="st5" d="M257.08,27.16l-3.31,19.51l-12.73-2.56c2.69-6.42,7.4-12.4,12.78-15.5
					C254.96,27.96,256.05,27.47,257.08,27.16z"/>
				<path class="st5" d="M253.77,46.67l-1.32,7.81l-0.03,0.03l-1.09,6.42l-0.47,2.77c-0.67,0.23-1.32,0.39-1.94,0.49h-0.03
					c-1.89,0.31-3.62,0.05-5.05-0.72c0-0.03-0.03-0.03-0.03-0.03L253.77,46.67z"/>
			</g>
		</g>
		<g>
			<path class="st1" d="M261.19,112.24V90.08l5.51-3.19l-5-3.01l-2.53,1.46v28.07l-5.52,3.18v-31.5l5.52-3.19l-2.11-1.27
				c-1.23-0.22-2.56-0.23-4.26,0.39c-0.64,0.23-1.26,0.51-1.85,0.81c-0.01,1.34-1.02,3-2.31,3.89v8.09l-2.02-1.22l-5.52,3.19v7.12
				l-2.02-1.21l-5.51,3.18v17.42l1.37,0.82c-0.8,0.71-1.37,1.76-1.37,2.64c0,0.48,0.18,0.82,0.47,0.99
				c0.04,0.02,0.07,0.05,0.11,0.07l4.67,2.76c-0.16-0.18-0.24-0.46-0.24-0.8c0-1.09,0.87-2.47,1.96-3.08
				c0.79-0.46,1.45-0.37,1.76,0.12l24.4-14.17l-2.18-1.32L261.19,112.24z M244.1,122.11l-5.52,3.18v-17.41l5.52-3.19V122.11z
				 M251.63,117.76l-5.52,3.18V98.78l5.52-3.18V117.76z"/>
			<path class="st1" d="M266.83,79.32c-0.12-0.04-0.25-0.02-0.36,0.05c-3.28,1.89-5.26,1.34-7.36,0.76
				c-1.87-0.51-3.81-1.04-6.64-0.02c-0.6,0.22-1.19,0.47-1.75,0.74c-0.41-0.66-1.32-0.77-2.38-0.16c-1.29,0.75-2.38,2.33-2.58,3.69
				c-4.56,4.34-6.89,10.12-7.65,12.27c-0.06,0.19,0,0.4,0.14,0.52l-4.96-2.97c-0.17-0.13-0.27-0.34-0.19-0.56
				c0.76-2.16,3.11-7.93,7.66-12.27c0.19-1.37,1.26-2.94,2.56-3.69c1.06-0.62,1.97-0.51,2.38,0.17c0.57-0.28,1.15-0.53,1.75-0.75
				c2.83-1.03,4.76-0.5,6.64,0.02c2.1,0.57,4.09,1.12,7.35-0.76c0.08-0.05,0.16-0.07,0.24-0.07c0.07,0,0.13,0.02,0.19,0.05
				l0.04,0.01c0.02,0.02,0.05,0.04,0.07,0.06L266.83,79.32z"/>
			<g class="st6">
				<polygon class="st7" points="244.1,104.69 244.1,122.11 238.57,125.29 238.57,107.88 				"/>
				<polygon class="st7" points="251.63,95.6 251.63,117.76 246.1,120.94 246.1,98.78 				"/>
				<polygon class="st7" points="266.7,86.89 266.7,109.06 264.52,110.31 261.19,112.24 261.19,90.08 				"/>
				<polygon class="st7" points="259.17,81.9 259.17,113.41 253.65,116.59 253.65,85.09 				"/>
				<g>
					<path class="st7" d="M266.94,80.19c-3.61,2.09-5.89,1.48-8.09,0.86c-0.6-0.16-1.2-0.31-1.8-0.42
						c-1.23-0.22-2.56-0.23-4.26,0.39c-0.64,0.23-1.26,0.51-1.85,0.81c-0.82,0.41-1.58,0.88-2.31,1.4
						c-1.02,0.71-1.93,1.52-2.76,2.37c-4.05,4.12-6.15,9.36-6.87,11.37c-0.06,0.19-0.25,0.31-0.45,0.31c-0.05,0-0.11,0-0.16-0.03
						c-0.06-0.02-0.11-0.05-0.16-0.1c-0.14-0.12-0.21-0.33-0.14-0.52c0.76-2.15,3.09-7.93,7.65-12.27c1.43-1.38,3.07-2.6,4.96-3.53
						c0.57-0.27,1.15-0.52,1.75-0.74c2.83-1.02,4.76-0.48,6.64,0.02c2.1,0.58,4.09,1.12,7.36-0.76c0.11-0.07,0.24-0.08,0.36-0.05
						c0.01,0,0.04,0.01,0.05,0.02c0.1,0.02,0.19,0.1,0.24,0.19C267.26,79.77,267.17,80.07,266.94,80.19z"/>
				</g>
				<path class="st7" d="M250.95,81.79v0.04c-0.01,1.34-1.02,3-2.31,3.89c-0.1,0.07-0.19,0.13-0.3,0.19
					c-1.14,0.65-2.1,0.48-2.45-0.31c-0.07-0.14-0.12-0.31-0.13-0.51c-0.02-0.08-0.02-0.18-0.02-0.28c0-0.14,0.01-0.28,0.04-0.43
					c0.19-1.35,1.28-2.94,2.58-3.69c1.06-0.62,1.97-0.51,2.38,0.16C250.87,81.09,250.95,81.4,250.95,81.79z"/>
				<path class="st7" d="M266.7,111.63v1.91l-24.61,14.29c-0.35,0.71-0.91,1.38-1.56,1.75c-0.75,0.43-1.39,0.39-1.72-0.02
					c-0.16-0.18-0.24-0.46-0.24-0.8c0-1.09,0.87-2.47,1.96-3.08c0.79-0.46,1.45-0.37,1.76,0.12L266.7,111.63z"/>
			</g>
		</g>
	</g>
	<g>
		<path class="st1" d="M321.76,274.11h-1.93l-53.3-30.77c-2.1-1.21-5.75-1.07-8.17,0.32l-34.58,19.85
			c-0.21,0.12-0.38,0.25-0.56,0.38h-1.44v2.41h0.03c0.05,0.72,0.49,1.4,1.39,1.92l53.82,31.07c2.09,1.21,5.75,1.06,8.17-0.33
			l34.58-19.85c1.2-0.69,1.87-1.56,1.98-2.4h0.01V274.11z"/>
		<path class="st8" d="M320.36,272.01l-53.82-31.07c-2.1-1.21-5.75-1.07-8.17,0.32l-34.58,19.85c-2.42,1.39-2.68,3.49-0.59,4.71
			l53.82,31.07c2.09,1.21,5.75,1.06,8.17-0.33l34.58-19.85C322.19,275.32,322.45,273.22,320.36,272.01z"/>
		<g>
			
				<linearGradient id="SVGID_1_" gradientUnits="userSpaceOnUse" x1="159.2192" y1="231.6326" x2="231.9978" y2="218.9253" gradientTransform="matrix(1 0.5774 -1 0.5774 318.3945 21.8099)">
				<stop  offset="0" style="stop-color:#58DFEC"/>
				<stop  offset="0.3053" style="stop-color:#88E8F1"/>
				<stop  offset="1" style="stop-color:#FFFFFF"/>
			</linearGradient>
			<path class="st9" d="M293.43,269.51c0.62,0.01,1.25-0.11,1.78-0.41c0.76-0.44,0.83-0.98,0.44-1.42l0.02-0.01
				c0.82,0.19,1.57,0.06,2.1-0.24c0.53-0.3,0.68-0.68,0.54-1.02c-0.12-0.36-0.47-0.65-1.18-1.06c-0.57-0.33-1.24-0.66-1.61-0.79
				l-5.8,3.33c0.22,0.17,0.6,0.44,1.17,0.77C291.9,269.24,292.71,269.49,293.43,269.51z M295.77,265.72
				c0.12,0.05,0.28,0.12,0.53,0.27c0.52,0.3,0.58,0.61,0.14,0.87c-0.43,0.25-1.05,0.22-1.66-0.13l-0.38-0.22L295.77,265.72z
				 M293.45,267.06l0.39,0.23c0.58,0.34,0.8,0.74,0.21,1.08c-0.62,0.36-1.31,0.22-1.83-0.08c-0.2-0.12-0.34-0.19-0.44-0.27
				L293.45,267.06z"/>
			
				<linearGradient id="SVGID_2_" gradientUnits="userSpaceOnUse" x1="159.2" y1="233.3465" x2="232.62" y2="220.5272" gradientTransform="matrix(1 0.5774 -1 0.5774 318.3945 21.8099)">
				<stop  offset="0" style="stop-color:#58DFEC"/>
				<stop  offset="0.3053" style="stop-color:#88E8F1"/>
				<stop  offset="1" style="stop-color:#FFFFFF"/>
			</linearGradient>
			<path class="st10" d="M298.4,271.72l1.49-0.86c1.01-0.58,1.45-1.29,0.22-2c-0.68-0.39-1.39-0.56-1.83-0.62l-0.64,0.62
				c0.42,0.04,0.96,0.19,1.35,0.41c0.57,0.33,0.35,0.57,0.12,0.7l-0.06,0.03c-0.01,0-0.02-0.01-0.02-0.01
				c-1.3-0.75-2.68-0.94-3.79-0.3c-0.68,0.39-0.87,1.01-0.12,1.44c0.44,0.26,1,0.37,1.59,0.31l0.02,0.01l-0.37,0.29l1.04,0.6
				C297.61,272.19,297.98,271.96,298.4,271.72z M297.79,270.77c-0.08,0.04-0.16,0.09-0.25,0.12c-0.34,0.11-0.8,0.1-1.09-0.06
				c-0.26-0.15-0.28-0.36,0.06-0.56c0.49-0.29,1.1-0.13,1.68,0.2c0.02,0.01,0.04,0.03,0.06,0.04L297.79,270.77z"/>
			
				<linearGradient id="SVGID_3_" gradientUnits="userSpaceOnUse" x1="164.0967" y1="192.7684" x2="230.9164" y2="181.1015" gradientTransform="matrix(1.5774 0.244 -1 0.5774 156.8114 114.8016)">
				<stop  offset="0" style="stop-color:#58DFEC"/>
				<stop  offset="0.3053" style="stop-color:#88E8F1"/>
				<stop  offset="1" style="stop-color:#FFFFFF"/>
			</linearGradient>
			<path class="st11" d="M300.63,274.21l1.15,0.67l2.54-1.46c1.26-0.73,1.27-1.39,0.51-1.82c-0.61-0.36-1.41-0.34-1.83-0.27
				l-0.02-0.01l0.53-0.37l-1-0.58c-0.36,0.22-0.8,0.49-1.34,0.8l-2.92,1.67l1.16,0.67l2.47-1.42c0.12-0.07,0.27-0.14,0.38-0.17
				c0.32-0.1,0.77-0.13,1.09,0.05c0.41,0.24,0.21,0.55-0.35,0.87L300.63,274.21z"/>
			
				<linearGradient id="SVGID_4_" gradientUnits="userSpaceOnUse" x1="164.5362" y1="195.1732" x2="231.328" y2="183.5112" gradientTransform="matrix(1.5774 0.244 -1 0.5774 156.8114 114.8016)">
				<stop  offset="0" style="stop-color:#58DFEC"/>
				<stop  offset="0.3053" style="stop-color:#88E8F1"/>
				<stop  offset="1" style="stop-color:#FFFFFF"/>
			</linearGradient>
			<path class="st12" d="M305.2,275.31l0.72-0.07l-0.87,1.53l1.42,0.82l1.03-2.34l3.06-0.23l-1.39-0.8l-2.03,0.31
				c-0.26,0.04-0.52,0.09-0.78,0.14l-0.02-0.01l3.74-2.15l-1.15-0.66l-6.22,3.57l1.15,0.66L305.2,275.31z"/>
			
				<linearGradient id="SVGID_5_" gradientUnits="userSpaceOnUse" x1="161.5875" y1="247.5691" x2="235.1039" y2="234.7329" gradientTransform="matrix(1 0.5774 -1 0.5774 318.3945 21.8099)">
				<stop  offset="0" style="stop-color:#58DFEC"/>
				<stop  offset="0.3053" style="stop-color:#88E8F1"/>
				<stop  offset="1" style="stop-color:#FFFFFF"/>
			</linearGradient>
			<path class="st13" d="M234.11,260.8c0.91,0.52,2.2,0.28,3.46-0.44c1.12-0.64,1.72-1.41,0.77-1.96c-0.91-0.53-2.28-0.24-3.46,0.43
				C233.74,259.5,233.2,260.28,234.11,260.8z M237.61,258.81c0.33,0.19,0.03,0.56-0.88,1.08c-0.93,0.53-1.57,0.7-1.89,0.52
				c-0.32-0.19-0.07-0.56,0.87-1.09C236.66,258.77,237.31,258.64,237.61,258.81z"/>
			
				<linearGradient id="SVGID_6_" gradientUnits="userSpaceOnUse" x1="161.7074" y1="248.074" x2="235.2221" y2="235.2381" gradientTransform="matrix(1 0.5774 -1 0.5774 318.3945 21.8099)">
				<stop  offset="0" style="stop-color:#58DFEC"/>
				<stop  offset="0.3053" style="stop-color:#88E8F1"/>
				<stop  offset="1" style="stop-color:#FFFFFF"/>
			</linearGradient>
			<path class="st14" d="M237.12,262.55c0.9,0.52,2.2,0.28,3.46-0.44c1.12-0.64,1.72-1.41,0.77-1.96c-0.92-0.53-2.28-0.24-3.46,0.44
				C236.75,261.24,236.21,262.02,237.12,262.55z M240.63,260.55c0.33,0.19,0.03,0.56-0.88,1.08c-0.93,0.53-1.57,0.7-1.89,0.51
				c-0.32-0.19-0.07-0.56,0.87-1.09C239.68,260.51,240.32,260.38,240.63,260.55z"/>
			
				<linearGradient id="SVGID_7_" gradientUnits="userSpaceOnUse" x1="161.8287" y1="248.579" x2="235.3264" y2="235.7461" gradientTransform="matrix(1 0.5774 -1 0.5774 318.3945 21.8099)">
				<stop  offset="0" style="stop-color:#58DFEC"/>
				<stop  offset="0.3053" style="stop-color:#88E8F1"/>
				<stop  offset="1" style="stop-color:#FFFFFF"/>
			</linearGradient>
			<path class="st15" d="M240.14,264.29c0.9,0.52,2.2,0.28,3.46-0.44c1.12-0.64,1.72-1.41,0.77-1.96c-0.91-0.53-2.28-0.24-3.46,0.44
				C239.77,262.99,239.22,263.76,240.14,264.29z M243.64,262.29c0.33,0.19,0.02,0.56-0.88,1.08c-0.93,0.53-1.56,0.7-1.89,0.52
				c-0.32-0.19-0.07-0.55,0.87-1.09C242.69,262.25,243.34,262.12,243.64,262.29z"/>
			
				<linearGradient id="SVGID_8_" gradientUnits="userSpaceOnUse" x1="161.9479" y1="249.0842" x2="235.4535" y2="236.2499" gradientTransform="matrix(1 0.5774 -1 0.5774 318.3945 21.8099)">
				<stop  offset="0" style="stop-color:#58DFEC"/>
				<stop  offset="0.3053" style="stop-color:#88E8F1"/>
				<stop  offset="1" style="stop-color:#FFFFFF"/>
			</linearGradient>
			<path class="st16" d="M243.15,266.02c0.91,0.52,2.2,0.28,3.46-0.44c1.12-0.64,1.72-1.41,0.77-1.96
				c-0.91-0.52-2.28-0.24-3.46,0.44C242.78,264.72,242.24,265.5,243.15,266.02z M246.65,264.03c0.34,0.19,0.03,0.56-0.88,1.08
				c-0.93,0.53-1.56,0.7-1.89,0.51c-0.32-0.18-0.07-0.55,0.87-1.09C245.71,263.99,246.35,263.86,246.65,264.03z"/>
			
				<linearGradient id="SVGID_9_" gradientUnits="userSpaceOnUse" x1="162.1553" y1="249.9577" x2="235.6575" y2="237.1239" gradientTransform="matrix(1 0.5774 -1 0.5774 318.3945 21.8099)">
				<stop  offset="0" style="stop-color:#58DFEC"/>
				<stop  offset="0.3053" style="stop-color:#88E8F1"/>
				<stop  offset="1" style="stop-color:#FFFFFF"/>
			</linearGradient>
			<path class="st17" d="M248.36,269.03c0.9,0.52,2.2,0.28,3.46-0.44c1.12-0.64,1.72-1.41,0.77-1.96c-0.92-0.53-2.28-0.24-3.46,0.43
				C247.99,267.73,247.45,268.5,248.36,269.03z M251.87,267.04c0.33,0.19,0.03,0.56-0.88,1.08c-0.93,0.53-1.57,0.7-1.89,0.51
				c-0.32-0.19-0.07-0.56,0.87-1.09C250.91,267,251.56,266.87,251.87,267.04z"/>
			
				<linearGradient id="SVGID_10_" gradientUnits="userSpaceOnUse" x1="162.2809" y1="250.4611" x2="235.7611" y2="237.6312" gradientTransform="matrix(1 0.5774 -1 0.5774 318.3945 21.8099)">
				<stop  offset="0" style="stop-color:#58DFEC"/>
				<stop  offset="0.3053" style="stop-color:#88E8F1"/>
				<stop  offset="1" style="stop-color:#FFFFFF"/>
			</linearGradient>
			<path class="st18" d="M251.38,270.77c0.9,0.52,2.2,0.28,3.46-0.45c1.12-0.64,1.72-1.41,0.77-1.96c-0.91-0.52-2.28-0.24-3.46,0.44
				C251.01,269.47,250.46,270.25,251.38,270.77z M254.88,268.78c0.34,0.19,0.03,0.56-0.88,1.08c-0.93,0.53-1.56,0.7-1.89,0.51
				c-0.32-0.18-0.06-0.55,0.87-1.08C253.93,268.74,254.57,268.61,254.88,268.78z"/>
			
				<linearGradient id="SVGID_11_" gradientUnits="userSpaceOnUse" x1="162.3963" y1="250.9669" x2="235.8944" y2="238.1339" gradientTransform="matrix(1 0.5774 -1 0.5774 318.3945 21.8099)">
				<stop  offset="0" style="stop-color:#58DFEC"/>
				<stop  offset="0.3053" style="stop-color:#88E8F1"/>
				<stop  offset="1" style="stop-color:#FFFFFF"/>
			</linearGradient>
			<path class="st19" d="M254.39,272.51c0.91,0.52,2.2,0.28,3.46-0.44c1.12-0.64,1.72-1.41,0.77-1.96
				c-0.91-0.53-2.28-0.24-3.46,0.44C254.02,271.21,253.48,271.99,254.39,272.51z M257.89,270.52c0.33,0.19,0.03,0.56-0.88,1.08
				c-0.93,0.53-1.57,0.7-1.89,0.51c-0.32-0.18-0.07-0.56,0.87-1.09C256.94,270.48,257.59,270.35,257.89,270.52z"/>
			
				<linearGradient id="SVGID_12_" gradientUnits="userSpaceOnUse" x1="162.5106" y1="251.4734" x2="236.0266" y2="238.6373" gradientTransform="matrix(1 0.5774 -1 0.5774 318.3945 21.8099)">
				<stop  offset="0" style="stop-color:#58DFEC"/>
				<stop  offset="0.3053" style="stop-color:#88E8F1"/>
				<stop  offset="1" style="stop-color:#FFFFFF"/>
			</linearGradient>
			<path class="st20" d="M257.4,274.25c0.9,0.52,2.2,0.28,3.46-0.44c1.12-0.64,1.72-1.41,0.77-1.96c-0.92-0.53-2.28-0.24-3.46,0.44
				C257.03,272.95,256.49,273.73,257.4,274.25z M260.91,272.26c0.33,0.19,0.03,0.56-0.88,1.08c-0.93,0.53-1.57,0.7-1.89,0.52
				c-0.32-0.19-0.07-0.56,0.87-1.09C259.96,272.22,260.6,272.08,260.91,272.26z"/>
			
				<linearGradient id="SVGID_13_" gradientUnits="userSpaceOnUse" x1="162.723" y1="252.346" x2="236.2233" y2="239.5126" gradientTransform="matrix(1 0.5774 -1 0.5774 318.3945 21.8099)">
				<stop  offset="0" style="stop-color:#58DFEC"/>
				<stop  offset="0.3053" style="stop-color:#88E8F1"/>
				<stop  offset="1" style="stop-color:#FFFFFF"/>
			</linearGradient>
			<path class="st21" d="M262.61,277.26c0.91,0.52,2.2,0.28,3.46-0.44c1.12-0.64,1.72-1.41,0.77-1.96
				c-0.91-0.53-2.28-0.24-3.46,0.43C262.24,275.96,261.7,276.73,262.61,277.26z M266.11,275.27c0.33,0.19,0.03,0.56-0.88,1.08
				c-0.93,0.53-1.57,0.7-1.89,0.51c-0.32-0.18-0.07-0.55,0.87-1.09C265.17,275.23,265.81,275.09,266.11,275.27z"/>
			
				<linearGradient id="SVGID_14_" gradientUnits="userSpaceOnUse" x1="162.8362" y1="252.8517" x2="236.3508" y2="240.0158" gradientTransform="matrix(1 0.5774 -1 0.5774 318.3945 21.8099)">
				<stop  offset="0" style="stop-color:#58DFEC"/>
				<stop  offset="0.3053" style="stop-color:#88E8F1"/>
				<stop  offset="1" style="stop-color:#FFFFFF"/>
			</linearGradient>
			<path class="st22" d="M265.62,279c0.91,0.52,2.2,0.28,3.46-0.44c1.12-0.64,1.72-1.41,0.77-1.96c-0.92-0.53-2.28-0.24-3.46,0.44
				C265.26,277.7,264.72,278.47,265.62,279z M269.13,277.01c0.33,0.19,0.03,0.56-0.88,1.08c-0.93,0.53-1.57,0.7-1.89,0.51
				c-0.32-0.18-0.07-0.56,0.87-1.09C268.18,276.96,268.83,276.83,269.13,277.01z"/>
			
				<linearGradient id="SVGID_15_" gradientUnits="userSpaceOnUse" x1="162.9655" y1="253.356" x2="236.4604" y2="240.5236" gradientTransform="matrix(1 0.5774 -1 0.5774 318.3945 21.8099)">
				<stop  offset="0" style="stop-color:#58DFEC"/>
				<stop  offset="0.3053" style="stop-color:#88E8F1"/>
				<stop  offset="1" style="stop-color:#FFFFFF"/>
			</linearGradient>
			<path class="st23" d="M268.64,280.74c0.9,0.52,2.2,0.28,3.46-0.44c1.12-0.64,1.72-1.41,0.77-1.96c-0.92-0.53-2.28-0.24-3.46,0.44
				C268.27,279.44,267.72,280.21,268.64,280.74z M272.14,278.75c0.33,0.19,0.03,0.56-0.88,1.08c-0.93,0.53-1.57,0.7-1.89,0.51
				c-0.32-0.19-0.07-0.56,0.87-1.09C271.19,278.71,271.84,278.57,272.14,278.75z"/>
			
				<linearGradient id="SVGID_16_" gradientUnits="userSpaceOnUse" x1="163.0891" y1="253.8604" x2="236.5783" y2="241.029" gradientTransform="matrix(1 0.5774 -1 0.5774 318.3945 21.8099)">
				<stop  offset="0" style="stop-color:#58DFEC"/>
				<stop  offset="0.3053" style="stop-color:#88E8F1"/>
				<stop  offset="1" style="stop-color:#FFFFFF"/>
			</linearGradient>
			<path class="st24" d="M275.89,280.08c-0.91-0.53-2.28-0.24-3.46,0.44c-1.14,0.66-1.69,1.43-0.78,1.96
				c0.9,0.52,2.2,0.28,3.46-0.45C276.23,281.4,276.83,280.62,275.89,280.08z M272.39,282.08c-0.32-0.18-0.07-0.55,0.87-1.09
				c0.95-0.55,1.59-0.68,1.89-0.51c0.34,0.19,0.03,0.56-0.88,1.08C273.35,282.1,272.71,282.27,272.39,282.08z"/>
			
				<linearGradient id="SVGID_17_" gradientUnits="userSpaceOnUse" x1="163.2981" y1="254.7332" x2="236.7852" y2="241.9021" gradientTransform="matrix(1 0.5774 -1 0.5774 318.3945 21.8099)">
				<stop  offset="0" style="stop-color:#58DFEC"/>
				<stop  offset="0.3053" style="stop-color:#88E8F1"/>
				<stop  offset="1" style="stop-color:#FFFFFF"/>
			</linearGradient>
			<path class="st25" d="M281.1,283.09c-0.92-0.53-2.28-0.24-3.46,0.44c-1.14,0.66-1.68,1.44-0.77,1.96c0.9,0.52,2.2,0.28,3.46-0.44
				C281.44,284.4,282.05,283.63,281.1,283.09z M277.6,285.09c-0.32-0.19-0.07-0.55,0.87-1.09c0.95-0.55,1.59-0.68,1.9-0.5
				c0.33,0.19,0.03,0.56-0.88,1.08C278.56,285.11,277.92,285.27,277.6,285.09z"/>
			
				<linearGradient id="SVGID_18_" gradientUnits="userSpaceOnUse" x1="163.4002" y1="255.2413" x2="236.9156" y2="242.4053" gradientTransform="matrix(1 0.5774 -1 0.5774 318.3945 21.8099)">
				<stop  offset="0" style="stop-color:#58DFEC"/>
				<stop  offset="0.3053" style="stop-color:#88E8F1"/>
				<stop  offset="1" style="stop-color:#FFFFFF"/>
			</linearGradient>
			<path class="st26" d="M284.11,284.83c-0.91-0.53-2.28-0.24-3.46,0.44c-1.14,0.66-1.69,1.44-0.78,1.97
				c0.9,0.52,2.2,0.28,3.46-0.45C284.45,286.14,285.06,285.38,284.11,284.83z M280.61,286.83c-0.32-0.18-0.07-0.55,0.87-1.08
				c0.95-0.55,1.59-0.68,1.9-0.5c0.33,0.19,0.02,0.56-0.88,1.08C281.57,286.85,280.94,287.02,280.61,286.83z"/>
			
				<linearGradient id="SVGID_19_" gradientUnits="userSpaceOnUse" x1="163.5331" y1="255.7442" x2="237.029" y2="242.9116" gradientTransform="matrix(1 0.5774 -1 0.5774 318.3945 21.8099)">
				<stop  offset="0" style="stop-color:#58DFEC"/>
				<stop  offset="0.3053" style="stop-color:#88E8F1"/>
				<stop  offset="1" style="stop-color:#FFFFFF"/>
			</linearGradient>
			<path class="st27" d="M287.13,286.57c-0.91-0.53-2.28-0.24-3.46,0.44c-1.14,0.66-1.69,1.44-0.77,1.96
				c0.9,0.52,2.2,0.28,3.46-0.44C287.47,287.88,288.07,287.11,287.13,286.57z M283.63,288.57c-0.32-0.18-0.07-0.55,0.87-1.09
				c0.95-0.55,1.6-0.68,1.9-0.5c0.33,0.19,0.03,0.56-0.88,1.08C284.59,288.59,283.95,288.75,283.63,288.57z"/>
			
				<linearGradient id="SVGID_20_" gradientUnits="userSpaceOnUse" x1="163.6537" y1="256.2501" x2="237.1496" y2="243.4175" gradientTransform="matrix(1 0.5774 -1 0.5774 318.3945 21.8099)">
				<stop  offset="0" style="stop-color:#58DFEC"/>
				<stop  offset="0.3053" style="stop-color:#88E8F1"/>
				<stop  offset="1" style="stop-color:#FFFFFF"/>
			</linearGradient>
			<path class="st28" d="M290.14,288.31c-0.91-0.53-2.28-0.24-3.46,0.44c-1.14,0.66-1.68,1.44-0.78,1.96
				c0.91,0.52,2.2,0.28,3.46-0.44C290.49,289.63,291.09,288.85,290.14,288.31z M286.64,290.31c-0.32-0.18-0.07-0.56,0.87-1.09
				c0.95-0.55,1.6-0.68,1.9-0.5c0.33,0.19,0.03,0.56-0.88,1.08C287.6,290.33,286.96,290.5,286.64,290.31z"/>
			
				<linearGradient id="SVGID_21_" gradientUnits="userSpaceOnUse" x1="165.2131" y1="199.0681" x2="232.0082" y2="187.4054" gradientTransform="matrix(1.5774 0.244 -1 0.5774 156.8114 114.8016)">
				<stop  offset="0" style="stop-color:#58DFEC"/>
				<stop  offset="0.3053" style="stop-color:#88E8F1"/>
				<stop  offset="1" style="stop-color:#FFFFFF"/>
			</linearGradient>
			<polygon class="st29" points="229.18,261.91 267.32,283.93 268.61,283.19 230.48,261.17 			"/>
			
				<linearGradient id="SVGID_22_" gradientUnits="userSpaceOnUse" x1="164.3002" y1="193.8404" x2="231.0969" y2="182.1775" gradientTransform="matrix(1.5774 0.244 -1 0.5774 156.8114 114.8016)">
				<stop  offset="0" style="stop-color:#58DFEC"/>
				<stop  offset="0.3053" style="stop-color:#88E8F1"/>
				<stop  offset="1" style="stop-color:#FFFFFF"/>
			</linearGradient>
			<polygon class="st30" points="226.54,263.43 243.33,273.13 244.63,272.39 227.83,262.69 			"/>
		</g>
		<g>
			<path class="st31" d="M247.05,254.64c0.56-0.32,1.24-0.52,1.97-0.61l-2.73-1.57l-3.03,1.74l2.72,1.57
				C246.15,255.35,246.5,254.96,247.05,254.64z"/>
			<path class="st31" d="M251.94,252.56l-2.12-1.22c-0.43-0.25-1.11-0.26-1.51-0.03l-1.49,0.86l2.9,1.67L251.94,252.56z"/>
			<path class="st31" d="M241.26,255.35c-0.41,0.23-0.38,0.63,0.04,0.87l2.12,1.22l2.22-1.27l-2.9-1.67L241.26,255.35z"/>
			<path class="st31" d="M253.24,254.77c0.77,0.44,1.21,0.99,1.35,1.55l1.94-1.11l-4.03-2.33l-1.94,1.11
				C251.52,254.07,252.48,254.33,253.24,254.77z"/>
			<path class="st31" d="M247.26,258.2c-0.76-0.44-1.21-1-1.34-1.55l-1.94,1.11l4.03,2.32l1.94-1.11
				C248.98,258.9,248.03,258.64,247.26,258.2z"/>
			<path class="st31" d="M252.86,258c0.13-0.08,0.26-0.16,0.35-0.25c0.57-0.47,0.74-1.05,0.51-1.6c-0.17-0.38-0.5-0.75-1.04-1.06
				c-0.53-0.31-1.16-0.5-1.83-0.6c-0.96-0.14-1.97-0.04-2.79,0.29c-0.15,0.05-0.3,0.13-0.43,0.2c-0.13,0.08-0.26,0.16-0.35,0.25
				c-0.56,0.46-0.73,1.04-0.51,1.59c0.15,0.38,0.5,0.75,1.03,1.06c0.53,0.31,1.17,0.51,1.84,0.6c0.97,0.13,1.98,0.04,2.78-0.29
				C252.58,258.14,252.73,258.07,252.86,258z"/>
			<path class="st31" d="M259.19,256.74l-2.11-1.22l-2.22,1.28l2.89,1.67l1.49-0.86C259.65,257.39,259.62,256.99,259.19,256.74z"/>
			<path class="st31" d="M253.45,258.34c-0.55,0.32-1.23,0.52-1.95,0.61l2.71,1.56l3.03-1.74l-2.72-1.57
				C254.36,257.62,254.01,258.01,253.45,258.34z"/>
			<path class="st31" d="M248.57,260.42l2.11,1.22c0.43,0.25,1.11,0.26,1.52,0.03l1.48-0.85l-2.89-1.67L248.57,260.42z"/>
		</g>
	</g>
	<g>
		<g>
			<path class="st7" d="M466.36,96.97L333.25,20.17c-0.53-0.32-1.08-0.36-1.57-0.14v0l-3.33,1.28l1.7,1.73l-30.34,90.89
				c-0.52,1.77,0.37,3.44,2.73,4.68l133.25,76.25l-0.81,2.16l3.37-1.29l0,0c0.59-0.19,1.07-0.77,1.42-1.7l29.29-91.97
				C469.69,99.41,468.5,98.12,466.36,96.97z"/>
			<path class="st5" d="M463.06,98.24c2.14,1.15,3.32,2.44,2.59,5.08l-29.29,91.97c-0.58,1.56-1.54,2.16-2.74,1.55l-134.49-76.96
				c-2.37-1.24-3.25-2.9-2.73-4.67l30.79-92.22c0.42-1.7,1.66-2.21,2.75-1.54L463.06,98.24z"/>
			<path class="st7" d="M457.3,103.81l-26.29,82.59l-4.15-2.35l-36.01-20.6l-5.92-3.37l-1.48-0.84l-5.16-2.97l-4.04-2.32
				c-0.02,0-0.02,0-0.02,0l-8.57-4.9l-3.94-2.25l-1.95-1.12l-4.02-2.3l-5.02-2.88l-1.48-0.84l-5.83-3.34l-1.46-0.83l-32.41-18.55
				l-1.44-0.83l-3.2-1.81l27.54-82.48L457.3,103.81z"/>
			<path class="st7" d="M433.29,199.72l-89.64,51.63c-1.5,0.86-3.95,0.86-5.45,0.01l-134.5-76.97c-0.76-0.43-1.13-1-1.13-1.57
				l-0.01,3.11c0,0.57,0.38,1.13,1.13,1.57l134.5,76.97c1.5,0.86,3.95,0.86,5.45-0.01l89.64-51.63c0.75-0.43,1.11-0.99,1.12-1.55
				l0.01-3.11C434.4,198.74,434.03,199.3,433.29,199.72z"/>
			<path class="st8" d="M433.27,196.6c1.5,0.86,1.52,2.26,0.02,3.12l-89.64,51.63c-1.5,0.86-3.95,0.86-5.45,0.01l-134.5-76.97
				c-1.51-0.86-1.51-2.26,0-3.13l89.64-51.63c1.5-0.86,3.93-0.86,5.44,0L433.27,196.6z"/>
			<polygon class="st7" points="305.12,128.05 297.92,132.19 290.68,128.05 297.88,123.9 			"/>
			<polygon class="st7" points="314.3,133.3 307.1,137.45 299.86,133.31 307.06,129.16 			"/>
			<polygon class="st7" points="323.48,138.55 316.28,142.7 309.03,138.55 316.23,134.4 			"/>
			<polygon class="st7" points="332.65,143.8 325.44,147.95 318.21,143.8 325.41,139.66 			"/>
			<polygon class="st7" points="341.83,149.05 334.63,153.2 327.39,149.06 334.59,144.91 			"/>
			<polygon class="st7" points="351.01,154.3 343.8,158.45 336.55,154.3 343.76,150.15 			"/>
			<polygon class="st7" points="360.19,159.56 352.98,163.71 345.73,159.56 352.94,155.41 			"/>
			<polygon class="st7" points="369.35,164.8 362.15,168.95 354.91,164.81 362.12,160.66 			"/>
			<polygon class="st7" points="378.53,170.06 371.33,174.21 364.08,170.06 371.28,165.91 			"/>
			<polygon class="st7" points="387.71,175.31 380.51,179.46 373.26,175.31 380.46,171.16 			"/>
			<polygon class="st7" points="396.88,180.55 389.68,184.7 382.44,180.56 389.64,176.41 			"/>
			<polygon class="st7" points="406.06,185.81 398.86,189.96 391.61,185.81 398.81,181.66 			"/>
			<polygon class="st7" points="415.24,191.06 408.04,195.21 400.79,191.06 407.99,186.91 			"/>
			<polygon class="st7" points="424.41,196.31 417.2,200.45 409.97,196.31 417.17,192.17 			"/>
			<polygon class="st7" points="292.48,135.32 285.28,139.47 278.04,135.33 285.25,131.18 			"/>
			<polygon class="st7" points="301.67,140.58 294.46,144.73 287.22,140.58 294.43,136.43 			"/>
			<polygon class="st7" points="310.84,145.83 303.64,149.98 296.39,145.83 303.59,141.68 			"/>
			<polygon class="st7" points="320.01,151.08 312.81,155.23 305.57,151.08 312.77,146.93 			"/>
			<polygon class="st7" points="329.19,156.33 321.99,160.48 314.75,156.34 321.95,152.19 			"/>
			<polygon class="st7" points="338.37,161.58 331.17,165.73 323.92,161.58 331.12,157.43 			"/>
			<polygon class="st7" points="347.55,166.84 340.35,170.98 333.1,166.84 340.3,162.69 			"/>
			<polygon class="st7" points="356.72,172.08 349.52,176.23 342.28,172.09 349.48,167.94 			"/>
			<polygon class="st7" points="365.9,177.33 358.69,181.48 351.44,177.33 358.65,173.19 			"/>
			<polygon class="st7" points="375.08,182.59 367.88,186.74 360.62,182.59 367.83,178.44 			"/>
			<polygon class="st7" points="393.42,193.09 386.22,197.23 378.97,193.09 386.17,188.94 			"/>
			<polygon class="st7" points="402.6,198.34 395.4,202.49 388.15,198.34 395.35,194.19 			"/>
			<polygon class="st7" points="411.77,203.58 404.57,207.73 397.33,203.59 404.53,199.44 			"/>
			<polygon class="st7" points="283.74,140.36 276.55,144.5 269.31,140.36 276.51,136.22 			"/>
			<polygon class="st7" points="292.92,145.61 285.73,149.75 278.49,145.61 285.69,141.47 			"/>
			<polygon class="st7" points="302.1,150.87 294.91,155.01 287.66,150.86 294.85,146.72 			"/>
			<polygon class="st7" points="311.27,156.11 304.08,160.25 296.84,156.11 304.03,151.97 			"/>
			<polygon class="st7" points="320.45,161.37 313.26,165.51 306.02,161.37 313.21,157.22 			"/>
			<polygon class="st7" points="329.63,166.62 322.44,170.76 315.19,166.61 322.38,162.47 			"/>
			<polygon class="st7" points="338.81,171.87 331.62,176.01 324.37,171.86 331.56,167.72 			"/>
			<polygon class="st7" points="347.98,177.12 340.79,181.26 333.55,177.12 340.74,172.98 			"/>
			<polygon class="st7" points="357.16,182.37 349.97,186.51 342.72,182.36 349.91,178.22 			"/>
			<polygon class="st7" points="366.33,187.62 359.15,191.76 351.89,187.61 359.09,183.47 			"/>
			<polygon class="st7" points="384.68,198.12 377.49,202.26 370.24,198.11 377.43,193.97 			"/>
			<polygon class="st7" points="393.86,203.37 386.67,207.52 379.42,203.37 386.61,199.22 			"/>
			<polygon class="st7" points="403.03,208.62 395.84,212.76 388.6,208.62 395.79,204.48 			"/>
			<polygon class="st7" points="275,145.39 267.81,149.54 260.57,145.39 267.76,141.25 			"/>
			<polygon class="st7" points="284.18,150.65 276.99,154.79 269.75,150.65 276.94,146.51 			"/>
			<polygon class="st7" points="293.36,155.9 286.17,160.04 278.92,155.89 286.11,151.75 			"/>
			<polygon class="st7" points="302.53,161.15 295.34,165.29 288.1,161.15 295.29,157 			"/>
			<polygon class="st7" points="311.71,166.4 304.52,170.54 297.28,166.4 304.47,162.26 			"/>
			<polygon class="st7" points="320.89,171.65 313.7,175.79 306.45,171.65 313.64,167.5 			"/>
			<polygon class="st7" points="330.07,176.9 322.88,181.05 315.63,176.9 322.82,172.76 			"/>
			<polygon class="st7" points="339.23,182.15 332.04,186.29 324.81,182.15 332,178.01 			"/>
			<polygon class="st7" points="266.27,150.42 259.07,154.57 251.83,150.43 259.03,146.28 			"/>
			<polygon class="st7" points="275.45,155.67 268.25,159.82 261.01,155.68 268.21,151.53 			"/>
			<polygon class="st7" points="284.63,160.93 277.43,165.08 270.18,160.93 277.38,156.78 			"/>
			<polygon class="st7" points="293.8,166.17 286.6,170.32 279.36,166.18 286.56,162.03 			"/>
			<polygon class="st7" points="302.98,171.43 295.78,175.58 288.54,171.43 295.74,167.28 			"/>
			<polygon class="st7" points="312.16,176.68 304.96,180.83 297.71,176.68 304.91,172.53 			"/>
			<polygon class="st7" points="321.34,181.93 314.14,186.08 306.88,181.93 314.09,177.78 			"/>
			<polygon class="st7" points="330.5,187.18 323.3,191.33 316.06,187.19 323.27,183.04 			"/>
			<polygon class="st7" points="348.41,187.4 341.22,191.55 333.97,187.4 341.16,183.26 			"/>
			<polygon class="st7" points="357.59,192.66 348.86,197.69 342.77,201.19 341.66,201.83 325.23,192.43 332.44,188.28 
				341.61,193.54 350.34,188.51 			"/>
			<polygon class="st7" points="375.94,203.16 368.75,207.3 361.5,203.15 368.69,199.01 			"/>
			<polygon class="st7" points="385.12,208.41 377.93,212.55 370.68,208.4 377.87,204.26 			"/>
			<polygon class="st7" points="394.29,213.65 387.1,217.8 379.86,213.65 387.05,209.51 			"/>
			<polygon class="st7" points="367.21,208.18 360.01,212.33 352.76,208.18 359.96,204.03 			"/>
			<polygon class="st7" points="376.39,213.44 369.19,217.59 361.94,213.44 369.14,209.29 			"/>
			<polygon class="st7" points="385.56,218.68 378.36,222.83 371.12,218.69 378.32,214.54 			"/>
			<polygon class="st7" points="266.71,160.71 259.52,164.85 243.1,155.46 250.29,151.32 			"/>
			<polygon class="st7" points="275.89,165.96 268.7,170.1 261.45,165.96 268.64,161.81 			"/>
			<polygon class="st7" points="285.06,171.21 277.87,175.35 270.63,171.21 277.82,167.07 			"/>
			<polygon class="st7" points="294.24,176.46 287.05,180.6 279.81,176.46 287,172.32 			"/>
			<polygon class="st7" points="303.42,181.71 296.23,185.86 288.98,181.71 296.17,177.57 			"/>
			<polygon class="st7" points="312.6,186.97 305.41,191.11 298.16,186.96 305.35,182.82 			"/>
			<polygon class="st7" points="340.12,202.72 332.93,206.86 307.33,192.22 314.53,188.07 			"/>
			<polygon class="st7" points="358.47,213.22 351.28,217.36 344.03,213.21 351.22,209.07 			"/>
			<polygon class="st7" points="367.65,218.47 360.46,222.61 353.21,218.46 360.4,214.32 			"/>
			<polygon class="st7" points="376.82,223.72 369.63,227.86 362.39,223.72 369.58,219.58 			"/>
			<polygon class="st7" points="248.8,160.48 241.6,164.63 234.36,160.49 241.56,156.34 			"/>
			<polygon class="st7" points="257.98,165.74 250.78,169.89 243.54,165.74 250.74,161.6 			"/>
			<polygon class="st7" points="313.04,197.24 305.83,201.39 252.71,170.99 259.91,166.84 			"/>
			<polygon class="st7" points="322.21,202.5 315.01,206.64 307.76,202.5 314.96,198.35 			"/>
			<polygon class="st7" points="331.39,207.75 324.19,211.9 316.94,207.75 324.14,203.6 			"/>
			<polygon class="st7" points="349.74,218.25 342.54,222.4 335.29,218.25 342.49,214.1 			"/>
			<polygon class="st7" points="358.92,223.5 351.72,227.65 344.47,223.5 351.67,219.35 			"/>
			<g>
				<polygon class="st32" points="305.12,128.05 305.12,128.82 297.92,132.97 297.92,132.19 				"/>
				<polygon class="st32" points="297.92,132.19 297.92,132.97 290.68,128.83 290.68,128.05 				"/>
				<polygon class="st32" points="314.3,133.3 314.3,134.08 307.1,138.22 307.1,137.45 				"/>
				<polygon class="st32" points="307.1,137.45 307.1,138.22 299.86,134.08 299.86,133.31 				"/>
				<polygon class="st32" points="323.48,138.55 323.48,139.33 316.28,143.48 316.28,142.7 				"/>
				<polygon class="st32" points="316.28,142.7 316.28,143.48 309.02,139.33 309.03,138.55 				"/>
				<polygon class="st32" points="332.65,143.8 332.65,144.58 325.44,148.72 325.44,147.95 				"/>
				<polygon class="st32" points="325.44,147.95 325.44,148.72 318.2,144.58 318.21,143.8 				"/>
				<polygon class="st32" points="341.83,149.05 341.82,149.83 334.62,153.98 334.63,153.2 				"/>
				<polygon class="st32" points="334.63,153.2 334.62,153.98 327.38,149.83 327.39,149.06 				"/>
				<polygon class="st32" points="351.01,154.3 351,155.08 343.8,159.23 343.8,158.45 				"/>
				<polygon class="st32" points="343.8,158.45 343.8,159.23 336.55,155.08 336.55,154.3 				"/>
				<polygon class="st32" points="360.19,159.56 360.18,160.33 352.98,164.48 352.98,163.71 				"/>
				<polygon class="st32" points="352.98,163.71 352.98,164.48 345.73,160.33 345.73,159.56 				"/>
				<polygon class="st32" points="369.35,164.8 369.35,165.58 362.15,169.73 362.15,168.95 				"/>
				<polygon class="st32" points="362.15,168.95 362.15,169.73 354.91,165.59 354.91,164.81 				"/>
				<polygon class="st32" points="378.53,170.06 378.53,170.83 371.33,174.98 371.33,174.21 				"/>
				<polygon class="st32" points="371.33,174.21 371.33,174.98 364.08,170.83 364.08,170.06 				"/>
				<polygon class="st32" points="387.71,175.31 387.71,176.09 380.51,180.23 380.51,179.46 				"/>
				<polygon class="st32" points="380.51,179.46 380.51,180.23 373.26,176.09 373.26,175.31 				"/>
				<polygon class="st32" points="396.88,180.55 396.88,181.33 389.67,185.48 389.68,184.7 				"/>
				<polygon class="st32" points="389.68,184.7 389.67,185.48 382.44,181.34 382.44,180.56 				"/>
				<polygon class="st32" points="406.06,185.81 406.06,186.58 398.85,190.73 398.86,189.96 				"/>
				<polygon class="st32" points="398.86,189.96 398.85,190.73 391.61,186.58 391.61,185.81 				"/>
				<polygon class="st32" points="415.24,191.06 415.24,191.84 408.03,195.99 408.04,195.21 				"/>
				<polygon class="st32" points="408.04,195.21 408.03,195.99 400.78,191.84 400.79,191.06 				"/>
				<polygon class="st32" points="424.41,196.31 424.4,197.09 417.2,201.23 417.2,200.45 				"/>
				<polygon class="st32" points="417.2,200.45 417.2,201.23 409.96,197.09 409.97,196.31 				"/>
				<polygon class="st32" points="292.48,135.32 292.48,136.1 285.28,140.25 285.28,139.47 				"/>
				<polygon class="st32" points="285.28,139.47 285.28,140.25 278.04,136.11 278.04,135.33 				"/>
				<polygon class="st32" points="301.67,140.58 301.66,141.35 294.46,145.5 294.46,144.73 				"/>
				<polygon class="st32" points="294.46,144.73 294.46,145.5 287.22,141.36 287.22,140.58 				"/>
				<polygon class="st32" points="310.84,145.83 310.84,146.61 303.64,150.76 303.64,149.98 				"/>
				<polygon class="st32" points="303.64,149.98 303.64,150.76 296.39,146.61 296.39,145.83 				"/>
				<polygon class="st32" points="320.01,151.08 320.01,151.85 312.81,156 312.81,155.23 				"/>
				<polygon class="st32" points="312.81,155.23 312.81,156 305.57,151.86 305.57,151.08 				"/>
				<polygon class="st32" points="329.19,156.33 329.19,157.11 321.99,161.26 321.99,160.48 				"/>
				<polygon class="st32" points="321.99,160.48 321.99,161.26 314.75,157.11 314.75,156.34 				"/>
				<polygon class="st32" points="338.37,161.58 338.37,162.36 331.16,166.51 331.17,165.73 				"/>
				<polygon class="st32" points="331.17,165.73 331.16,166.51 323.91,162.36 323.92,161.58 				"/>
				<polygon class="st32" points="347.55,166.84 347.55,167.61 340.35,171.76 340.35,170.98 				"/>
				<polygon class="st32" points="340.35,170.98 340.35,171.76 333.09,167.61 333.1,166.84 				"/>
				<polygon class="st32" points="356.72,172.08 356.72,172.86 349.51,177.01 349.52,176.23 				"/>
				<polygon class="st32" points="349.52,176.23 349.51,177.01 342.27,172.87 342.28,172.09 				"/>
				<polygon class="st32" points="365.9,177.33 365.9,178.11 358.69,182.26 358.69,181.48 				"/>
				<polygon class="st32" points="358.69,181.48 358.69,182.26 351.44,178.11 351.44,177.33 				"/>
				<polygon class="st32" points="375.08,182.59 375.08,183.36 367.87,187.51 367.88,186.74 				"/>
				<polygon class="st32" points="367.88,186.74 367.87,187.51 360.62,183.36 360.62,182.59 				"/>
				<polygon class="st32" points="393.42,193.09 393.42,193.86 386.22,198.01 386.22,197.23 				"/>
				<polygon class="st32" points="386.22,197.23 386.22,198.01 378.97,193.86 378.97,193.09 				"/>
				<polygon class="st32" points="402.6,198.34 402.6,199.12 395.4,203.26 395.4,202.49 				"/>
				<polygon class="st32" points="395.4,202.49 395.4,203.26 388.15,199.12 388.15,198.34 				"/>
				<polygon class="st32" points="411.77,203.58 411.77,204.36 404.57,208.51 404.57,207.73 				"/>
				<polygon class="st32" points="404.57,207.73 404.57,208.51 397.33,204.37 397.33,203.59 				"/>
				<polygon class="st32" points="283.74,140.36 283.74,141.14 276.55,145.28 276.55,144.5 				"/>
				<polygon class="st32" points="276.55,144.5 276.55,145.28 269.31,141.14 269.31,140.36 				"/>
				<polygon class="st32" points="292.92,145.61 292.92,146.39 285.73,150.53 285.73,149.75 				"/>
				<polygon class="st32" points="285.73,149.75 285.73,150.53 278.49,146.39 278.49,145.61 				"/>
				<polygon class="st32" points="302.1,150.87 302.1,151.64 294.91,155.79 294.91,155.01 				"/>
				<polygon class="st32" points="294.91,155.01 294.91,155.79 287.66,151.64 287.66,150.86 				"/>
				<polygon class="st32" points="311.27,156.11 311.27,156.89 304.08,161.03 304.08,160.25 				"/>
				<polygon class="st32" points="304.08,160.25 304.08,161.03 296.84,156.89 296.84,156.11 				"/>
				<polygon class="st32" points="320.45,161.37 320.45,162.14 313.26,166.28 313.26,165.51 				"/>
				<polygon class="st32" points="313.26,165.51 313.26,166.28 306.02,162.14 306.02,161.37 				"/>
				<polygon class="st32" points="329.63,166.62 329.63,167.4 322.44,171.54 322.44,170.76 				"/>
				<polygon class="st32" points="322.44,170.76 322.44,171.54 315.19,167.39 315.19,166.61 				"/>
				<polygon class="st32" points="338.81,171.87 338.81,172.65 331.62,176.79 331.62,176.01 				"/>
				<polygon class="st32" points="331.62,176.01 331.62,176.79 324.37,172.64 324.37,171.86 				"/>
				<polygon class="st32" points="347.98,177.12 347.97,177.89 340.78,182.03 340.79,181.26 				"/>
				<polygon class="st32" points="340.79,181.26 340.78,182.03 333.55,177.89 333.55,177.12 				"/>
				<polygon class="st32" points="357.16,182.37 357.15,183.15 349.96,187.29 349.97,186.51 				"/>
				<polygon class="st32" points="349.97,186.51 349.96,187.29 342.71,183.14 342.72,182.36 				"/>
				<polygon class="st32" points="366.33,187.62 366.33,188.4 359.14,192.54 359.15,191.76 				"/>
				<polygon class="st32" points="359.15,191.76 359.14,192.54 351.89,188.39 351.89,187.61 				"/>
				<polygon class="st32" points="384.68,198.12 384.68,198.9 377.49,203.04 377.49,202.26 				"/>
				<polygon class="st32" points="377.49,202.26 377.49,203.04 370.24,198.89 370.24,198.11 				"/>
				<polygon class="st32" points="393.86,203.37 393.86,204.15 386.67,208.29 386.67,207.52 				"/>
				<polygon class="st32" points="386.67,207.52 386.67,208.29 379.42,204.14 379.42,203.37 				"/>
				<polygon class="st32" points="403.03,208.62 403.03,209.4 395.84,213.54 395.84,212.76 				"/>
				<polygon class="st32" points="395.84,212.76 395.84,213.54 388.6,209.4 388.6,208.62 				"/>
				<polygon class="st32" points="275,145.39 275,146.17 267.81,150.31 267.81,149.54 				"/>
				<polygon class="st32" points="267.81,149.54 267.81,150.31 260.57,146.17 260.57,145.39 				"/>
				<polygon class="st32" points="284.18,150.65 284.18,151.42 276.99,155.57 276.99,154.79 				"/>
				<polygon class="st32" points="276.99,154.79 276.99,155.57 269.75,151.42 269.75,150.65 				"/>
				<polygon class="st32" points="293.36,155.9 293.36,156.68 286.17,160.82 286.17,160.04 				"/>
				<polygon class="st32" points="286.17,160.04 286.17,160.82 278.92,156.67 278.92,155.89 				"/>
				<polygon class="st32" points="302.53,161.15 302.53,161.92 295.34,166.07 295.34,165.29 				"/>
				<polygon class="st32" points="295.34,165.29 295.34,166.07 288.1,161.92 288.1,161.15 				"/>
				<polygon class="st32" points="311.71,166.4 311.71,167.18 304.52,171.32 304.52,170.54 				"/>
				<polygon class="st32" points="304.52,170.54 304.52,171.32 297.28,167.18 297.28,166.4 				"/>
				<polygon class="st32" points="320.89,171.65 320.89,172.43 313.69,176.57 313.7,175.79 				"/>
				<polygon class="st32" points="313.7,175.79 313.69,176.57 306.44,172.42 306.45,171.65 				"/>
				<polygon class="st32" points="330.07,176.9 330.07,177.68 322.87,181.82 322.88,181.05 				"/>
				<polygon class="st32" points="322.88,181.05 322.87,181.82 315.62,177.68 315.63,176.9 				"/>
				<polygon class="st32" points="339.23,182.15 339.23,182.93 332.04,187.07 332.04,186.29 				"/>
				<polygon class="st32" points="332.04,186.29 332.04,187.07 324.8,182.93 324.81,182.15 				"/>
				<polygon class="st32" points="266.27,150.42 266.27,151.2 259.07,155.35 259.07,154.57 				"/>
				<polygon class="st32" points="259.07,154.57 259.07,155.35 251.83,151.21 251.83,150.43 				"/>
				<polygon class="st32" points="275.45,155.67 275.45,156.45 268.25,160.6 268.25,159.82 				"/>
				<polygon class="st32" points="268.25,159.82 268.25,160.6 261.01,156.46 261.01,155.68 				"/>
				<polygon class="st32" points="284.63,160.93 284.63,161.7 277.43,165.86 277.43,165.08 				"/>
				<polygon class="st32" points="277.43,165.08 277.43,165.86 270.18,161.7 270.18,160.93 				"/>
				<polygon class="st32" points="293.8,166.17 293.8,166.95 286.59,171.1 286.6,170.32 				"/>
				<polygon class="st32" points="286.6,170.32 286.59,171.1 279.36,166.96 279.36,166.18 				"/>
				<polygon class="st32" points="302.98,171.43 302.98,172.2 295.77,176.35 295.78,175.58 				"/>
				<polygon class="st32" points="295.78,175.58 295.77,176.35 288.54,172.21 288.54,171.43 				"/>
				<polygon class="st32" points="312.16,176.68 312.16,177.46 304.95,181.61 304.96,180.83 				"/>
				<polygon class="st32" points="304.96,180.83 304.95,181.61 297.7,177.46 297.71,176.68 				"/>
				<polygon class="st32" points="321.34,181.93 321.34,182.71 314.13,186.86 314.14,186.08 				"/>
				<polygon class="st32" points="314.14,186.08 314.13,186.86 306.88,182.71 306.88,181.93 				"/>
				<polygon class="st32" points="330.5,187.18 330.5,187.96 323.3,192.11 323.3,191.33 				"/>
				<polygon class="st32" points="323.3,191.33 323.3,192.11 316.06,187.96 316.06,187.19 				"/>
				<polygon class="st32" points="348.41,187.4 348.41,188.18 341.22,192.32 341.22,191.55 				"/>
				<polygon class="st32" points="341.22,191.55 341.22,192.32 333.97,188.17 333.97,187.4 				"/>
				<polygon class="st32" points="357.59,192.66 357.59,193.43 348.86,198.46 348.86,197.69 				"/>
				<polygon class="st32" points="348.86,197.69 348.86,198.46 342.77,201.97 342.77,201.19 				"/>
				<polygon class="st32" points="342.77,201.19 342.77,201.97 341.66,202.61 341.66,201.83 				"/>
				<polygon class="st32" points="341.66,201.83 341.66,202.61 325.23,193.21 325.23,192.43 				"/>
				<polygon class="st32" points="375.94,203.16 375.94,203.93 368.75,208.08 368.75,207.3 				"/>
				<polygon class="st32" points="368.75,207.3 368.75,208.08 361.5,203.93 361.5,203.15 				"/>
				<polygon class="st32" points="385.12,208.41 385.12,209.19 377.93,213.33 377.93,212.55 				"/>
				<polygon class="st32" points="377.93,212.55 377.93,213.33 370.68,209.18 370.68,208.4 				"/>
				<polygon class="st32" points="394.29,213.65 394.29,214.43 387.09,218.57 387.1,217.8 				"/>
				<polygon class="st32" points="387.1,217.8 387.09,218.57 379.86,214.43 379.86,213.65 				"/>
				<polygon class="st32" points="367.21,208.18 367.21,208.96 360.01,213.11 360.01,212.33 				"/>
				<polygon class="st32" points="360.01,212.33 360.01,213.11 352.76,208.96 352.76,208.18 				"/>
				<polygon class="st32" points="376.39,213.44 376.39,214.22 369.18,218.36 369.19,217.59 				"/>
				<polygon class="st32" points="369.19,217.59 369.18,218.36 361.94,214.22 361.94,213.44 				"/>
				<polygon class="st32" points="385.56,218.68 385.56,219.46 378.35,223.61 378.36,222.83 				"/>
				<polygon class="st32" points="378.36,222.83 378.35,223.61 371.12,219.47 371.12,218.69 				"/>
				<polygon class="st32" points="266.71,160.71 266.71,161.49 259.52,165.63 259.52,164.85 				"/>
				<polygon class="st32" points="259.52,164.85 259.52,165.63 243.1,156.23 243.1,155.46 				"/>
				<polygon class="st32" points="275.89,165.96 275.89,166.74 268.7,170.88 268.7,170.1 				"/>
				<polygon class="st32" points="268.7,170.1 268.7,170.88 261.45,166.73 261.45,165.96 				"/>
				<polygon class="st32" points="285.06,171.21 285.06,171.99 277.86,176.13 277.87,175.35 				"/>
				<polygon class="st32" points="277.87,175.35 277.86,176.13 270.63,171.99 270.63,171.21 				"/>
				<polygon class="st32" points="294.24,176.46 294.24,177.24 287.04,181.38 287.05,180.6 				"/>
				<polygon class="st32" points="287.05,180.6 287.04,181.38 279.81,177.24 279.81,176.46 				"/>
				<polygon class="st32" points="303.42,181.71 303.42,182.49 296.22,186.63 296.23,185.86 				"/>
				<polygon class="st32" points="296.23,185.86 296.22,186.63 288.97,182.49 288.98,181.71 				"/>
				<polygon class="st32" points="312.6,186.97 312.59,187.75 305.4,191.89 305.41,191.11 				"/>
				<polygon class="st32" points="305.41,191.11 305.4,191.89 298.15,187.74 298.16,186.96 				"/>
				<polygon class="st32" points="340.12,202.72 340.12,203.5 332.93,207.64 332.93,206.86 				"/>
				<polygon class="st32" points="332.93,206.86 332.93,207.64 307.33,192.99 307.33,192.22 				"/>
				<polygon class="st32" points="358.47,213.22 358.47,214 351.28,218.14 351.28,217.36 				"/>
				<polygon class="st32" points="351.28,217.36 351.28,218.14 344.03,213.99 344.03,213.21 				"/>
				<polygon class="st32" points="367.65,218.47 367.65,219.25 360.46,223.39 360.46,222.61 				"/>
				<polygon class="st32" points="360.46,222.61 360.46,223.39 353.21,219.24 353.21,218.46 				"/>
				<polygon class="st32" points="376.82,223.72 376.82,224.5 369.62,228.64 369.63,227.86 				"/>
				<polygon class="st32" points="369.63,227.86 369.62,228.64 362.39,224.5 362.39,223.72 				"/>
				<polygon class="st32" points="248.8,160.48 248.8,161.26 241.6,165.41 241.6,164.63 				"/>
				<polygon class="st32" points="241.6,164.63 241.6,165.41 234.36,161.27 234.36,160.49 				"/>
				<polygon class="st32" points="257.98,165.74 257.98,166.51 250.78,170.67 250.78,169.89 				"/>
				<polygon class="st32" points="250.78,169.89 250.78,170.67 243.54,166.52 243.54,165.74 				"/>
				<polygon class="st32" points="313.04,197.24 313.03,198.02 305.83,202.17 305.83,201.39 				"/>
				<polygon class="st32" points="305.83,201.39 305.83,202.17 252.71,171.77 252.71,170.99 				"/>
				<polygon class="st32" points="322.21,202.5 322.21,203.27 315.01,207.42 315.01,206.64 				"/>
				<polygon class="st32" points="315.01,206.64 315.01,207.42 307.76,203.27 307.76,202.5 				"/>
				<polygon class="st32" points="331.39,207.75 331.39,208.53 324.19,212.67 324.19,211.9 				"/>
				<polygon class="st32" points="324.19,211.9 324.19,212.67 316.94,208.53 316.94,207.75 				"/>
				<polygon class="st32" points="349.74,218.25 349.74,219.03 342.54,223.17 342.54,222.4 				"/>
				<polygon class="st32" points="342.54,222.4 342.54,223.17 335.29,219.03 335.29,218.25 				"/>
				<polygon class="st32" points="358.92,223.5 358.92,224.28 351.72,228.43 351.72,227.65 				"/>
				<polygon class="st32" points="351.72,227.65 351.72,228.43 344.46,224.28 344.47,223.5 				"/>
				<polygon class="st32" points="368.09,228.74 368.09,229.52 360.88,233.67 360.88,232.9 				"/>
				<polygon class="st32" points="360.88,232.9 360.88,233.67 353.65,229.53 353.65,228.75 				"/>
			</g>
			<polygon class="st7" points="368.09,228.74 360.88,232.9 353.65,228.75 360.85,224.6 			"/>
			<g>
				<path class="st7" d="M262.72,198.18l-3.24,1.86c-0.75,0.43-0.75,1.12,0.01,1.56l14.91,8.53l4.59-2.65L262.72,198.18z"/>
				<path class="st7" d="M275.52,210.77l14.92,8.54c0.76,0.44,1.97,0.43,2.72,0l3.23-1.86l-16.28-9.32L275.52,210.77z"/>
				<path class="st7" d="M310.11,207.98l-30.94-17.71c-0.76-0.44-1.97-0.43-2.72,0l-12.62,7.27l33.67,19.27l12.62-7.27
					C310.86,209.11,310.87,208.42,310.11,207.98z"/>
			</g>
		</g>
		<g>
			<path class="st33" d="M393.22,106.02c-4.01,3.51-8.14,13.64-11.85,16.07c-3.38,2.21-6.34-0.48-6.9-5.43
				c-0.99-8.74,2.52-24.06,3.08-29.59c1.53-15.13-6.36-15.05-11.7-5.46c-2.53,4.53-16.66,34.41-24.52,29.93
				c-6.4-3.66-3.71-13.66-3.51-22c0.08-3.15-2.44-9.06-7.8-5.65c-4.41,2.81-12.82,17.36-14.57,21.12l-3.56,9.6l76.91,43.88l3.15-9.8
				l9.91-30.77C405,108.15,398.54,101.36,393.22,106.02z"/>
			<g>
				<polygon class="st1" points="312.06,114.61 311.73,114.63 335.77,49.75 336.09,49.74 				"/>
			</g>
			<g>
				<polygon class="st1" points="327.47,123.41 327.14,123.42 350.64,58.27 350.95,58.26 				"/>
			</g>
			<g>
				<polygon class="st1" points="342.87,132.19 342.54,132.21 365.49,66.78 365.8,66.77 				"/>
			</g>
			<g>
				<polygon class="st1" points="358.25,140.97 357.92,140.99 380.33,75.28 380.64,75.27 				"/>
			</g>
			<g>
				<polygon class="st1" points="373.61,149.74 373.29,149.75 395.15,83.78 395.46,83.77 				"/>
			</g>
			<g>
				<polygon class="st1" points="388.97,158.49 388.65,158.51 409.96,92.26 410.27,92.25 				"/>
			</g>
			<g>
				<path class="st2" d="M314.6,107.29c-0.05,0-0.1,0-0.15-0.01c-0.23-0.06-0.28-0.3-0.11-0.54l22.36-30.5
					c0.16-0.22,0.48-0.35,0.7-0.29c0.22,0.06,0.28,0.3,0.11,0.52l-22.34,30.5C315.05,107.16,314.81,107.29,314.6,107.29z"/>
			</g>
			<g>
				<path class="st2" d="M341.48,108.85c-0.19,0.01-0.33-0.08-0.35-0.24l-4.51-32.07c-0.03-0.21,0.17-0.46,0.45-0.56
					c0.27-0.1,0.52-0.02,0.55,0.19l4.52,32.05c0.03,0.21-0.17,0.47-0.45,0.58C341.61,108.84,341.54,108.85,341.48,108.85z"/>
			</g>
			<g>
				<path class="st2" d="M341.48,108.85c-0.08,0-0.15-0.01-0.21-0.04c-0.2-0.1-0.19-0.36,0.01-0.57l33.52-36.2
					c0.19-0.21,0.5-0.29,0.69-0.19c0.19,0.1,0.19,0.34,0,0.55l-33.51,36.21C341.85,108.75,341.65,108.84,341.48,108.85z"/>
			</g>
			<g>
				<path class="st2" d="M378.19,118.63c-0.19,0.01-0.34-0.09-0.35-0.26l-3.19-45.99c-0.01-0.21,0.19-0.45,0.47-0.54
					c0.27-0.09,0.5,0.01,0.51,0.23l3.2,45.96c0.02,0.22-0.19,0.47-0.47,0.57C378.31,118.61,378.25,118.62,378.19,118.63z"/>
			</g>
			<g>
				<path class="st2" d="M378.19,118.63c-0.12,0.01-0.23-0.03-0.3-0.11c-0.13-0.16-0.03-0.43,0.21-0.61l22.81-16.54
					c0.23-0.17,0.53-0.18,0.66-0.02c0.13,0.16,0.04,0.42-0.2,0.6l-22.81,16.55C378.45,118.57,378.31,118.62,378.19,118.63z"/>
			</g>
			<g>
				<path class="st2" d="M401.01,102.07c-0.12,0.01-0.22-0.03-0.29-0.11c-0.13-0.16-0.04-0.42,0.19-0.6l7.81-5.77
					c0.23-0.17,0.53-0.19,0.66-0.03c0.13,0.16,0.04,0.42-0.19,0.59l-7.81,5.77C401.26,102.02,401.13,102.07,401.01,102.07z"/>
			</g>
			<path class="st2" d="M343.08,109.25c-0.31,0.88-1.21,1.21-2.02,0.75c-0.8-0.46-1.2-1.54-0.89-2.42c0.31-0.87,1.22-1.21,2.02-0.75
				C343,107.3,343.39,108.38,343.08,109.25z"/>
			<path class="st2" d="M338.35,77.74c-0.31,0.85-1.2,1.17-2,0.72c-0.8-0.45-1.19-1.51-0.87-2.36c0.31-0.85,1.2-1.17,2-0.71
				C338.26,75.84,338.65,76.89,338.35,77.74z"/>
			<path class="st2" d="M376.36,73.6c-0.29,0.84-1.16,1.15-1.94,0.7c-0.78-0.45-1.18-1.49-0.9-2.33c0.29-0.84,1.16-1.15,1.94-0.7
				C376.25,71.72,376.65,72.77,376.36,73.6z"/>
			<path class="st2" d="M402.49,102.71c-0.28,0.86-1.14,1.18-1.93,0.73c-0.79-0.45-1.2-1.51-0.92-2.36
				c0.28-0.85,1.14-1.18,1.93-0.73C402.35,100.8,402.77,101.85,402.49,102.71z"/>
			<path class="st2" d="M380.07,118.16c-0.29,0.87-1.17,1.21-1.97,0.76c-0.8-0.46-1.21-1.53-0.91-2.41
				c0.29-0.87,1.18-1.21,1.97-0.76C379.95,116.21,380.36,117.28,380.07,118.16z"/>
		</g>
		<g>
			<polygon class="st5" points="441.89,113.47 446.26,120.17 448.5,113.06 			"/>
			<g>
				<polygon class="st5" points="436.48,106.18 436.48,106.18 436.69,105.51 				"/>
				<polygon class="st5" points="440.84,112.88 436.48,106.18 434.24,113.29 				"/>
			</g>
			<polygon class="st32" points="448.71,112.38 441.47,112.84 436.69,105.51 436.34,106.54 440.35,112.91 434.24,113.29 
				446.26,120.17 441.89,113.47 448.5,113.06 			"/>
			<polygon class="st34" points="436.69,105.51 441.47,112.84 448.71,112.38 			"/>
		</g>
		<g>
			<polygon class="st35" points="439.27,131.35 411.82,113.19 412.63,110.71 440.07,128.87 			"/>
			<polygon class="st35" points="430,131.56 410.13,118.42 410.94,115.93 430.8,129.08 			"/>
			<polygon class="st35" points="434.2,147.02 406.75,128.86 407.55,126.38 435,144.54 			"/>
			<polygon class="st35" points="432.51,152.25 405.06,134.09 405.86,131.61 433.31,149.76 			"/>
			<polygon class="st35" points="430.81,157.47 403.37,139.31 404.17,136.83 431.62,154.99 			"/>
			<polygon class="st35" points="411.8,151.23 401.68,144.54 402.48,142.05 412.6,148.75 			"/>
			<polygon class="st35" points="427.44,167.92 399.99,149.76 400.79,147.28 428.24,165.44 			"/>
			<polygon class="st35" points="425.74,173.15 398.3,154.99 399.1,152.5 426.55,170.66 			"/>
			<polygon class="st35" points="411.53,170.09 396.61,160.21 397.41,157.73 412.34,167.6 			"/>
		</g>
		<polygon class="st3" points="332.9,33.06 331.65,36.81 455.1,108.11 456.32,104.28 		"/>
		<g>
			<path class="st7" d="M454.74,104.81c0.04,0.67-0.48,1.22-1.17,1.22c-0.69,0-1.28-0.54-1.32-1.22c-0.04-0.67,0.48-1.22,1.17-1.22
				C454.11,103.59,454.7,104.14,454.74,104.81z"/>
			<path class="st7" d="M451.42,102.99c0.04,0.67-0.48,1.22-1.17,1.22c-0.69,0-1.28-0.54-1.32-1.22c-0.04-0.67,0.48-1.22,1.17-1.22
				C450.79,101.77,451.38,102.32,451.42,102.99z"/>
			<path class="st7" d="M448.1,101.17c0.04,0.67-0.48,1.22-1.17,1.22c-0.69,0-1.28-0.54-1.32-1.22c-0.04-0.67,0.48-1.22,1.17-1.22
				C447.47,99.95,448.06,100.49,448.1,101.17z"/>
		</g>
	</g>
	<g>
		<polygon class="st34" points="435.91,227.75 426.08,233.46 415.5,227.35 		"/>
		<linearGradient id="SVGID_23_" gradientUnits="userSpaceOnUse" x1="385.2248" y1="280.9108" x2="454.8875" y2="237.4071">
			<stop  offset="0" style="stop-color:#58DFEC"/>
			<stop  offset="1" style="stop-color:#5A9DFF"/>
		</linearGradient>
		<polygon class="st36" points="456.97,248.81 456.96,252.98 432.35,238.78 432.36,234.61 		"/>
		<polygon class="st1" points="456.97,248.81 454.91,250 430.31,235.8 432.36,234.61 		"/>
		<polygon class="st1" points="459.91,258.58 458.53,259.39 413.42,233.35 414.81,232.54 		"/>
		<polygon class="st1" points="456.91,260.32 455.52,261.14 410.42,235.1 411.81,234.28 		"/>
		<polygon class="st1" points="383.26,263.08 381.87,263.88 371.34,257.8 372.73,257 		"/>
		<polygon class="st1" points="450.9,263.82 449.51,264.63 404.41,238.59 405.8,237.78 		"/>
		<polygon class="st1" points="447.89,265.57 446.5,266.37 401.4,240.33 402.79,239.53 		"/>
		<polygon class="st1" points="441.88,269.06 440.49,269.87 395.39,243.83 396.78,243.02 		"/>
		<polygon class="st1" points="438.88,270.81 437.49,271.61 392.39,245.57 393.77,244.77 		"/>
		<polygon class="st1" points="426.85,277.79 425.47,278.6 380.37,252.56 381.75,251.75 		"/>
		<polygon class="st1" points="408.3,288.58 406.9,289.39 396.36,283.3 397.75,282.49 		"/>
		<path class="st5" d="M435.91,227.75l-9.82,5.71l-10.59-6.11l-64.33,37.38l54.05,31.21l74.16-43.1L435.91,227.75z M432.36,234.61
			l24.61,14.2l-2.06,1.19l-24.6-14.2L432.36,234.61z M381.87,263.88l-10.53-6.08l1.39-0.8l10.53,6.08L381.87,263.88z M406.9,289.39
			l-10.54-6.09l1.4-0.81l10.54,6.09L406.9,289.39z M409.53,287.86l-10.54-6.09l1.4-0.81l10.54,6.09L409.53,287.86z M419.45,282.1
			l-45.1-26.04l1.39-0.8l45.1,26.04L419.45,282.1z M422.46,280.35l-45.1-26.04l1.39-0.81l45.1,26.04L422.46,280.35z M425.47,278.6
			l-45.1-26.04l1.39-0.8l45.1,26.04L425.47,278.6z M428.47,276.86l-45.1-26.04l1.4-0.81l45.1,26.04L428.47,276.86z M437.49,271.61
			l-45.1-26.04l1.39-0.8l45.1,26.04L437.49,271.61z M440.49,269.87l-45.1-26.04l1.4-0.81l45.1,26.04L440.49,269.87z M443.49,268.12
			l-45.1-26.04l1.39-0.81l45.1,26.04L443.49,268.12z M446.5,266.37l-45.1-26.04l1.39-0.8l45.1,26.04L446.5,266.37z M449.51,264.63
			l-45.1-26.04l1.39-0.8l45.1,26.04L449.51,264.63z M452.52,262.88l-45.1-26.04l1.38-0.8l45.1,26.04L452.52,262.88z M455.52,261.14
			l-45.1-26.04l1.4-0.81l45.1,26.04L455.52,261.14z M413.42,233.35l1.39-0.8l45.1,26.04l-1.39,0.8L413.42,233.35z"/>
		<polygon class="st1" points="453.91,262.07 452.52,262.88 407.42,236.84 408.8,236.03 		"/>
		<polygon class="st1" points="444.88,267.32 443.49,268.12 398.39,242.08 399.78,241.28 		"/>
		<polygon class="st1" points="429.86,276.05 428.47,276.86 383.36,250.82 384.76,250.01 		"/>
		<polygon class="st1" points="423.84,279.54 422.46,280.35 377.36,254.31 378.74,253.5 		"/>
		<polygon class="st1" points="420.84,281.29 419.45,282.1 374.35,256.06 375.74,255.25 		"/>
		<polygon class="st1" points="410.93,287.05 409.53,287.86 398.99,281.77 400.38,280.96 		"/>
		<polygon class="st37" points="479.38,252.85 479.36,257.02 405.21,300.11 405.22,295.94 		"/>
		<polygon class="st37" points="405.22,295.94 405.21,300.11 351.16,268.91 351.17,264.73 		"/>
	</g>
	<g>
		<path class="st38" d="M503.77,211.99c0,0,2.01,0.64,2.01,3.96c0,3.31,0,9.56,0,9.56h-1.28c0,0-0.07-5.23-0.45-5.23
			c-0.38,0-0.79,4.65-0.79,5.23c0,0.57-1.57,2.61-3.29,3.5c-1.72,0.89-4.52,1.21-5.03,0.7c-0.51-0.51-0.97-3.74,2.13-5.98
			L503.77,211.99z"/>
		<path class="st39" d="M504.08,211.37c0,1.65,0.73,1.67-0.35,4.07c-1.52,3.44-1.08,7.71-3.06,9.69c-1.12,1.12-2.72,1.18-3.63,0.76
			c-0.69-0.31-0.99-0.91-0.38-1.52c1.44-1.44,1.73-8.42,1.73-12.74c0-2.47-0.3-9.92-0.56-15.89c0-0.01,0-0.01,0-0.01
			c-0.21-4.54-0.39-8.24-0.39-8.24l9.87-0.72C507.3,203.33,504.08,209.7,504.08,211.37z"/>
		<path class="st38" d="M515.15,217.69c0,0,1.21-0.08,1.21,3.55c0,3.63,0.83,8.09,0.38,10.07c-0.45,1.97-2.61,5.54-5.54,5.54
			c-2.93,0-1.59-7.75-1.59-9.8c0-2.05,0.68-8.42,0.68-8.42L515.15,217.69z"/>
		<path class="st39" d="M515.54,210.39c-0.01,1.89-0.67,6.28-0.25,7.83c0.43,1.55,0,6.36,0,8.82c0,2.21-0.96,4.34-2.76,4.64
			c-0.23,0.04-0.47,0.05-0.72,0.02c-1.55-0.15-1.62-2.41-1.65-5.18c-0.05-3.31,0.12-7.12,0.12-7.9c0-0.76-0.91-9.32-1.8-17.39
			c0-0.01,0-0.01,0-0.01c-0.81-7.5-1.6-14.57-1.6-14.57l9.49,0.12C518.66,196.12,515.55,207.59,515.54,210.39z"/>
		<path class="st40" d="M517.76,190.12c0,0-0.3,4.66-10.11,4.66c-9.81,0-10.8-4.66-10.8-4.66s-0.21-0.49-0.52-1.44h-0.01
			c-0.89-2.71-2.73-9.16-3.48-18.61c-1.01-12.76,3.78-18.66,3.78-18.66l7.49-0.33l14.28-0.63c0,0,2.52,1.3,3.4,13.79
			C522.69,176.58,517.76,190.12,517.76,190.12z"/>
		<path class="st2" d="M517.76,190.12c0,0-0.3,4.66-10.11,4.66c-9.81,0-10.8-4.66-10.8-4.66s-0.21-0.49-0.52-1.44
			c13.52,7.59,17.54-1.7,18.63-16.67c1.1-14.96-9.19-15.73-9.19-15.73l-1.67-5.2l14.28-0.63c0,0,2.52,1.3,3.4,13.79
			C522.69,176.58,517.76,190.12,517.76,190.12z"/>
		<path class="st32" d="M520.77,123.53c0,2.52-0.59,8.84-1.2,14.8c-0.67,6.62-1.38,12.79-1.39,12.85c-0.17,1.38-1.07,2.64-3.19,3.63
			c-4.24,2-11.16,2.06-15.38,0c-2.82-1.37-3.2-3.62-3.2-3.62c-1.09-3.08-2.33-7.58-3.19-11.87c-0.9-4.41-1.41-8.61-1.03-10.82
			c0.67-3.87,5.48-12.16,7.54-14.11c2.82-2.69,13.8-1.26,13.8-1.26S520.77,118.2,520.77,123.53z"/>
		<path class="st37" d="M514.46,128.84c0,0-4.52,3.83-5.28,6.52c-0.76,2.69,1.2,1.86,1.2,1.86L514.46,128.84z"/>
		<path class="st37" d="M519.57,138.32c-0.67,6.62-1.38,12.79-1.39,12.85c-0.17,1.38-1.07,2.64-3.19,3.63
			c-4.24,2-11.16,2.06-15.38,0c-2.82-1.37-3.2-3.62-3.2-3.62c-1.09-3.08-2.33-7.58-3.19-11.87h3.12l8.23-2.1l14.5,0.55
			L519.57,138.32z"/>
		<path class="st41" d="M511.15,140.3c-1.64,0.23-3.37,0.28-3.86,0.17c-1.32-0.29-2.71-0.38-5.16-0.01c0,0-0.44-0.07-0.78-0.83
			c-0.15-0.35-0.29-0.84-0.33-1.52c-0.17-2.19,0.96-2.88,0.96-2.88s3.85-0.23,5.67-0.23c0.33,0,0.74,0.08,1.18,0.24
			c1.93,0.62,4.53,2.39,4.73,2.94C513.79,138.88,512.77,140.09,511.15,140.3z"/>
		<path class="st39" d="M511.15,140.3c-1.64,0.23-3.37,0.28-3.86,0.17c-1.32-0.29-2.71-0.38-5.16-0.01c0,0-0.44-0.07-0.78-0.83
			c0,0,4.33,0.39,5.94-0.2c1.54-0.58,1.54-3.92,1.54-4.18c1.93,0.62,4.53,2.39,4.73,2.94C513.79,138.88,512.77,140.09,511.15,140.3z
			"/>
		<path class="st32" d="M486.28,140.49c6.61,1.52,15.86-0.03,15.86-0.03s-0.94-0.14-1.12-2.35c-0.16-2.19,0.96-2.87,0.96-2.87
			l-11.05-1.6l3.05-7.45l13.67-13.08c-4.05-2.14-10.8-3.94-14.33,1.51c-3.55,5.47-6.79,11.77-9.02,14.87
			C482.05,132.6,479.66,139,486.28,140.49z"/>
		<path class="st39" d="M503.34,113.1c0,0-3.4,3.59-1.67,8.24c2.26,6.08,10.33-1.82,11.48-3.94c1.15-2.12,0.6-4.04,0.6-4.04
			L503.34,113.1z"/>
		<path class="st32" d="M523.18,134.58c-3.15,6.6-8.34,11.32-11.45,14.39c-3.1,3.07-7.59,2.72-10.74-0.07
			c-0.07-0.06-0.14-0.13-0.22-0.2c-0.01-0.01-0.02-0.01-0.04-0.02c-0.56-0.5-1-0.96-1.41-1.39c-0.07-0.1-0.14-0.18-0.19-0.23
			c-1.44-1.63-2.2-3.07-6.03-6.33l7.99-0.19c0,0,7.35,3.29,8.73-1.56c1.38-4.85,4.74-11.06,7.18-13.47
			c2.44-2.41,0.05-9.27,0.05-9.27s1.39,1.14,3.85,3.58c0.18,0.17,0.36,0.35,0.55,0.54C524.83,123.73,526.33,127.98,523.18,134.58z"
			/>
		<path class="st37" d="M502.56,141.06c0,0-6.35,0.6-5.57,3.42l-3.38-3.33c0,0,1.6,0.08,4.26-0.19c2.66-0.27,3.42-0.35,3.42-0.35
			L502.56,141.06z"/>
		<path class="st37" d="M496.89,117.89c0,0-5.06,8.69-7.11,10.75c-2.06,2.06-2.01,4.44,1.16,4.99c3.16,0.55,0.12-5.02,0.12-5.02
			S496.34,121.73,496.89,117.89z"/>
		<path class="st41" d="M497.26,134.55l-6.33-0.92c0,0-0.73-0.64-1.44-1.14c-0.13-0.1-0.25-0.3-0.35-0.55
			c-0.35-1.06-0.26-3.08,0.64-3.3c1.12-0.28,3.75,1.47,4.68,2.4c0.11,0.11,0.23,0.24,0.35,0.38
			C495.78,132.52,497.26,134.55,497.26,134.55z"/>
		<path class="st37" d="M523.18,134.58c-3.15,6.6-8.34,11.32-11.45,14.39c-3.1,3.07-7.59,2.72-10.74-0.07
			c-0.07-0.06-0.14-0.13-0.22-0.2c1.24,0.79,3.31,1.37,6.88,0.36c6.41-1.8,12.54-11.83,14.41-18.2c1.79-6.08-0.91-10.61-1.16-11.03
			c0.18,0.17,0.36,0.35,0.55,0.54C524.83,123.73,526.33,127.98,523.18,134.58z"/>
		<path class="st38" d="M522.68,80.35c0,4.7-3.81,8.5-8.51,8.5c-4.69,0-8.5-3.8-8.5-8.5c0-0.88,0.13-1.73,0.38-2.52
			c1.07-3.46,4.3-5.98,8.12-5.98c0.84,0,1.64,0.12,2.4,0.35C520.1,73.23,522.68,76.49,522.68,80.35z"/>
		<path class="st42" d="M522.68,80.35c0,4.7-3.81,8.5-8.51,8.5c-4.69,0-8.61-8.59-8.36-9.38c0,0,4.65,0.62,7.94-1.59
			c2.8-1.88,3.08-4.97,2.81-5.67C520.1,73.23,522.68,76.49,522.68,80.35z"/>
		<path class="st39" d="M503.07,113.37v-10.51h10.68v10.51c0.01,0.79-0.51,1.59-1.56,2.2c-2.09,1.2-5.47,1.2-7.56,0
			C503.58,114.96,503.06,114.16,503.07,113.37z"/>
		<path class="st38" d="M519.82,98.9c-2.65,7.21-6.76,7.96-6.76,7.96l-0.76-5.79l-0.38-2.89c-0.04-0.28-0.06-0.56-0.11-0.83
			c0-0.01,0-0.01,0-0.02l-0.22-1.64v-0.01l-0.43-3.24l-5.68-3.61l-2.91-1.32l-7.37,3.28c0,0,0.17-10.61,12.83-11.75
			c1.09-0.1,2.11-0.08,3.05,0.02C520.96,80.24,522.24,92.32,519.82,98.9z"/>
		<path class="st41" d="M517.01,99.12c-0.61,5.54-3.04,5.57-3.09,5.57c0,0.8-0.35,1.56-0.92,2.27c-0.01,0-0.01,0.02-0.04,0.02
			c-0.38,0.47-0.88,0.92-1.43,1.37c-0.59,0.47-1.25,0.91-1.96,1.35c-1.94,1.23-5.19,3.05-7.75,2.24c-0.5-0.16-0.96-0.36-1.39-0.59
			c-4.09-2.23-5.3-7.82-5.49-12.76c-0.03-0.17-0.03-0.26-0.03-0.26c-0.14-4.59,0.55-8.56,0.55-8.56c6.05-4.53,10.57-2.88,13.64,0.08
			c0.34,0.32,0.66,0.67,0.96,1.02c1.01,1.17,1.82,2.45,2.45,3.59c1.04,1.88,1.55,3.38,1.55,3.38s0.03-0.06,0.08-0.14
			c0.19-0.29,0.64-0.92,1.13-1.16C516.2,96.07,517.29,96.52,517.01,99.12z"/>
		<path class="st38" d="M510.95,97.51c0,0-2.06,1.1-5.19,1.3c-0.16,0-0.45-4.29-0.54-5.91v-0.01c-0.03-0.36-0.04-0.59-0.04-0.59
			s-0.03,0.25-0.05,0.65c-0.13,1.64-0.49,5.88-0.7,5.88c-1.17-0.04-2.45-0.32-3.84-0.61c-4.87-1.02-6.32-3.66-6.32-3.66
			s-0.61-4.77,2.12-7.58c3.52-3.62,9.44-3.48,9.44-3.48s1.21,0.24,2.47,1.63C509.88,86.86,511.53,90.4,510.95,97.51z"/>
		<path class="st39" d="M517.01,99.12c-0.61,5.54-3.04,5.57-3.09,5.57c0,0.8-0.35,1.56-0.92,2.27c-0.01,0-0.01,0.02-0.04,0.02
			c-0.79,0.97-2.02,1.87-3.38,2.72c-1.94,1.23-5.19,3.05-7.75,2.24c-0.5-0.16-0.96-0.36-1.39-0.59c2.42,0.42,5.53-0.28,7.97-2.71
			c3.18-3.18,3.24-12.03,1.66-17.77c2.69,3.12,3.99,6.97,3.99,6.97s0.56-1,1.21-1.31C516.2,96.07,517.29,96.52,517.01,99.12z"/>
		<path class="st38" d="M514.16,97.74c0,0-0.24,3.82-1.44,3.82c-0.7,0-0.61-2.3-0.91-4.21c-0.07-0.47-0.2-0.9-0.34-1.27
			c-0.26-0.71-0.55-1.19-0.55-1.19l-2.61-5.12l0.8,0.08l3.43,0.34l0.67,3.13l0.93,4.38L514.16,97.74z"/>
		<path class="st42" d="M505.13,92.94c-0.13,1.64-0.49,5.88-0.7,5.88c-1.17-0.04-2.45-0.32-3.84-0.61
			c-4.87-1.02-6.32-3.66-6.32-3.66S500.99,95.81,505.13,92.94z"/>
		<path class="st42" d="M510.95,97.51c0,0-2.06,1.1-5.19,1.3c-0.16,0-0.45-4.29-0.54-5.91v-0.01c1.99-1.4,3.38-3.79,3.09-7.76
			C509.88,86.86,511.53,90.4,510.95,97.51z"/>
		<path class="st42" d="M519.82,98.9c-2.65,7.21-6.76,7.96-6.76,7.96c0.54-0.68,0.85-1.4,0.85-2.17c0.06,0,2.48-0.04,3.09-5.57
			c0.29-2.6-0.8-3.05-1.73-2.58c-0.49,0.24-0.93,0.87-1.13,1.16l0.01,0.04c0,0-0.24,3.82-1.44,3.82c-0.19,0-0.34-0.18-0.42-0.49
			c-0.2-0.62-0.26-1.76-0.38-2.89c-0.04-0.28-0.06-0.56-0.11-0.83c0-0.01,0-0.01,0-0.02c-0.07-0.46-0.2-0.89-0.34-1.25l0.12-0.4
			v-0.01c0,0,0.39-0.44,0.92-1.21c0.22-0.32,0.45-0.71,0.7-1.14c1.79-3.17,3.69-8.99-2.15-14.26
			C520.96,80.24,522.24,92.32,519.82,98.9z"/>
		<path class="st39" d="M497.26,134.55l-6.33-0.92c0,0-0.73-0.64-1.44-1.14c-0.13-0.1-0.25-0.3-0.35-0.55l0.01-0.01
			c0,0,4.28,3.13,5.64-0.5C495.78,132.52,497.26,134.55,497.26,134.55z"/>
		<path class="st41" d="M501.81,215.85c-0.87,5.64-2.85,8.63-4.77,10.04c-0.69-0.31-0.99-0.91-0.38-1.52
			c1.44-1.44,1.73-8.42,1.73-12.74c0-2.47-0.3-9.92-0.56-15.89C498.08,196.14,503.5,205.01,501.81,215.85z"/>
		<path class="st41" d="M512.53,231.69c-0.23,0.04-0.47,0.05-0.72,0.02c-1.55-0.15-1.62-2.41-1.65-5.18
			c-0.05-3.31,0.12-7.12,0.12-7.9c0-0.76-0.91-9.32-1.8-17.39c0,0,5.15,1.57,5.15,10.11C513.62,218.3,514.15,227.13,512.53,231.69z"
			/>
	</g>
	<g>
		<polygon class="st5" points="152.82,105.8 171.37,116.51 189.93,105.8 171.37,95.09 		"/>
		<polygon class="st5" points="126.29,92.12 144.84,102.83 163.4,92.12 144.84,81.41 		"/>
		<polygon class="st5" points="99.09,79.96 117.64,90.68 136.2,79.96 117.64,69.25 		"/>
		<polygon class="st5" points="179.35,118.99 197.91,129.7 216.46,118.99 197.91,108.27 		"/>
		<polygon class="st1" points="117.64,90.68 117.64,194.25 99.09,183.53 99.09,79.96 		"/>
		<polygon class="st1" points="197.91,129.7 197.91,147.84 179.35,137.13 179.35,118.99 		"/>
		<polygon class="st3" points="216.46,118.99 216.46,137.13 197.91,147.84 197.91,129.7 		"/>
		<polygon class="st3" points="189.93,105.8 189.93,152.44 171.37,163.15 171.37,116.51 		"/>
		<polygon class="st1" points="152.82,105.8 171.37,116.51 171.37,163.15 152.82,152.44 		"/>
		<polygon class="st3" points="163.4,92.12 163.4,167.75 144.84,178.46 144.84,102.83 		"/>
		<polygon class="st1" points="126.29,92.12 144.84,102.83 144.84,178.46 126.29,167.75 		"/>
		<polygon class="st3" points="136.2,79.96 136.2,183.53 117.64,194.25 117.64,90.68 		"/>
	</g>
	<g>
		<path class="st43" d="M186.15,192.08c0,0,3.69,0.45,4.83,1.15c1.13,0.7,3.97,3.96,3.62,4.52c-0.35,0.57-1.52,0.64-2.51,0.03
			c-0.98-0.61-2.14-2.03-2.52-2.19c-1.03-0.42-3.21,0.37-4.76-1C183.25,193.23,186.15,192.08,186.15,192.08z"/>
		<g>
			<path class="st44" d="M184.35,269.19c-0.06-0.04-0.11-0.08-0.17-0.12c-1.55-0.89-3.79-0.63-5.33,0.26l-5.61,3.24l-1.16-0.41
				l0.01,1.96h0c-0.03,0.61,0.35,1.22,1.15,1.69c1.55,0.89,4.06,0.89,5.61,0l5.33-3.5c0.72-0.42,1.09-0.95,1.14-1.5h0.02l-0.21-1.54
				L184.35,269.19z"/>
			<path class="st38" d="M184.18,270.81l-5.33,3.5c-1.55,0.89-4.06,0.89-5.61,0l0,0c-1.55-0.89-1.55-3.19,0-4.08
				c0,0,3.95-2.24,5.93-2.84c2.59-0.79,4.08-0.28,5.08,0.31C185.14,268.22,185.73,269.92,184.18,270.81z"/>
		</g>
		<g>
			<path class="st44" d="M168.28,262.31c-0.06-0.04-0.11-0.08-0.17-0.12c-1.55-0.89-3.79-0.63-5.33,0.26l-5.61,3.24l-1.16-0.29
				l0.01,1.84h0c-0.03,0.61,0.35,1.22,1.15,1.69c1.55,0.89,4.06,0.89,5.61,0l5.33-3.5c0.72-0.42,1.09-0.95,1.14-1.5h0.02l-0.21-1.54
				L168.28,262.31z"/>
			<path class="st38" d="M168.11,263.93l-5.33,3.5c-1.55,0.9-4.06,0.9-5.61,0l0,0c-1.55-0.89-1.55-3.18,0-4.08
				c0,0,3.95-2.24,5.93-2.84c2.59-0.79,4.08-0.28,5.08,0.31C169.06,261.35,169.66,263.04,168.11,263.93z"/>
		</g>
		<path class="st45" d="M156,265.18c0,1.08,1.85,1.65,2.85,1.88c1.12,0.22,2.54,0.03,3.57-0.37c0.99-0.34,1.83-0.93,2.05-1.81
			c0,0,0.34-1.12,0.83-3.19c0.03-0.14,0.06-0.27,0.1-0.42c0.1-0.37,0.18-0.74,0.29-1.14c1.07-4.76,2.69-16.46,3.75-26.75
			c0.06-0.49,0.11-0.99,0.16-1.49c0.13,0.34,0.24,0.67,0.35,1.04c3.21,10.18,2.34,34.36,2.53,37.1c0,0.16,0.02,0.29,0.02,0.39
			c0,0.14,0.02,0.29,0.05,0.4c0.14,0.54,0.56,0.93,1.12,1.17c0.6,0.32,1.64,0.46,1.84,0.46c1.6,0.13,3.15-0.15,3.8-0.58
			c0.54-0.32,0.91-0.72,1.07-1.17c0.24-2.17,3.07-29.93,2.77-43.83c-0.18-8.22-0.72-13.22-0.91-14.67
			c-0.05-0.35-0.08-0.53-0.08-0.53c-3.78,0.37-7.04,0.78-9.54,1.57c-0.19-1.44-0.83,0.26-0.83,0.26l-14.18-1.54l-0.32-0.03
			c0,0,0,0.02,0,0.05c-0.02,0.11-0.03,0.37-0.05,0.77c-0.03,0.56-0.06,1.36-0.1,2.45c-0.03,1.84-0.06,4.49,0.02,7.79
			C157.32,228.32,160.07,241.38,156,265.18z"/>
		<path class="st46" d="M177.86,224.67c0.83-0.29,1.62-0.66,2.34-1.07c2.82-1.63,4.73-3.8,4.55-5.93c0,0-0.26-5.63-0.54-12.32h-0.05
			C176.16,204.78,177,218.18,177.86,224.67z"/>
		<path class="st46" d="M161.69,171.29c1.07,3.35,3.85,4.6,6.39,5.37c3.72,1.09,7.42,0.69,8.41,0.5c0.19-0.03,0.29-0.06,0.29-0.06
			l-1.01,1.28l-0.58,1.92v6.94l8.03,9.97c0,0,0.27,0.21,0.71,0.58c-0.1-2.9-0.19-5.71-0.24-8.05c0-5-1.07-11.97-2.04-14.09
			c-0.21-0.42-0.43-0.74-0.69-0.99c-0.34-0.34-0.64-0.64-0.93-0.91c-3.77-3.62-4.34-3.09-4.34-3.09l-8.38-3.01l-0.42-0.14
			c0,0-0.19,0-0.53,0.05h-0.02c-0.19,0.03-0.45,0.08-0.74,0.15c-0.3,0.06-0.64,0.16-1.03,0.27v-0.59c-0.26-0.05-0.53-0.08-0.8-0.1
			c0.11,0.02,0.24,0.06,0.37,0.1C162.4,168.18,161.16,169.6,161.69,171.29z"/>
		<path class="st46" d="M154.16,178.74c0.1-1.36,0.32-2.76,0.66-4.07C154.46,175.84,154.24,177.17,154.16,178.74z"/>
		<path class="st47" d="M168.93,176.8c7.05,1.14,11.66-2.54,11.66-2.54c-0.19-0.19-0.36-0.36-0.54-0.52
			c-0.56,0.43-4.84,3.45-10.99,2.45c-6.65-1.06-7.27-3.86-7.11-5.79c0.16-1.67,2.22-2.82,2.65-3.04l-0.74-0.11
			c0,0-2.34,1.35-2.54,3.36C161.16,172.66,161.81,175.66,168.93,176.8z"/>
		<path class="st48" d="M176.94,146.03c-5.1,0.93-7.71-0.46-9.68,2.15c-1.74,2.29,1.12,8.67-1.06,11.83
			c-1.55,2.29-6.92-0.14-8.26-4.63c-1.14-5.64-0.12-11.25,1.74-13.62c4.17-5.33,11.32-6.17,16.77-4.7c2.67,0.74,4.58,1.83,5.83,3.03
			C182.99,142.32,182.07,145.1,176.94,146.03z"/>
		<path class="st48" d="M177.18,146.56c-5.06,0.98-7.66-0.49-9.6,2.27c-1.73,2.42,1.11,9.15-1.06,12.48
			c-1.54,2.42-6.87-0.14-8.2-4.89c-1.14-5.96-0.12-11.88,1.72-14.37c4.14-5.62,11.23-6.51,16.64-4.96c2.65,0.78,4.54,1.93,5.79,3.19
			C183.19,142.65,182.27,145.58,177.18,146.56z"/>
		<path class="st41" d="M180.38,162.16c-0.16,0.38-0.35,0.71-0.55,0.95c-2.43,3.14-7.09,3.3-9.98,2.51
			c-1.2-0.33-1.39-3.62-1.23-7.39c0.25-5.34,1.23-11.64,1.23-11.64l11.91,0.82C181.77,147.42,182.2,158.02,180.38,162.16z"/>
		<path class="st7" d="M164.78,167.75c0,0-1.74,1.4-0.47,3.4c1.27,2,4.34,2.94,7.21,2.47c2.87-0.47,6.06-1.8,6.38-1.8
			c0.32,0-2.2-1.98-2.2-1.98L164.78,167.75z"/>
		<path class="st39" d="M171.33,159.74l-0.03-0.02l-2.67-1.48c-0.05,1.1-0.07,2.17-0.03,3.11c0.02,0.22,0.02,0.45,0.03,0.65
			c0,0.1,0.02,0.21,0.02,0.29c0.03,0.43,0.09,0.81,0.14,1.17h-0.02l-4.16-1.34v7.1c0.01,0.02,0,1.67,1.64,2.52
			c2.22,1.15,5.62,1.13,7.86,0c1.87-0.94,1.62-2.21,1.62-2.21c0-0.04,0-3.85,0-3.85l-0.03-0.02c1.65-0.43,3.1-1.19,4.16-2.55
			c0.19-0.26,0.38-0.58,0.53-0.96C175.2,165.08,171.33,159.74,171.33,159.74z"/>
		<path class="st49" d="M184.17,143.76c-0.08,2.13-3.24,4.25-4.88,5.89c-2.34,2.34,0.3,6.18-1.33,6.44c-1.61,0.26-1.39-5-4.36-3
			c-1.63,1.1-2.67,8.27-2.67,10.07c0,1.83-5.6,3.97-8.09,1.47c-2.3-2.3-4.14-5.48-4.88-9.27c1.34,4.5,6.71,6.92,8.26,4.63
			c2.18-3.16-0.68-9.54,1.06-11.83c1.96-2.62,4.58-1.23,9.68-2.15c5.12-0.93,6.05-3.71,5.34-5.94h0.03
			C183.59,141.34,184.19,142.67,184.17,143.76z"/>
		<path class="st46" d="M176.39,190.85c1.75,2.87,8.08,13.91,11.97,13.88c3.93-0.05,4.49-3.91,3.75-6.78
			c-0.06-0.22-0.13-0.45-0.21-0.66c-1.01-2.89-6.57-20.74-10.5-21.75c-1.91-0.5-3.65,0.38-4.97,1.92c-0.63,0.74-1.15,1.63-1.55,2.6
			C173.66,182.94,174.63,187.97,176.39,190.85z"/>
		<path class="st50" d="M176.32,239.96l-0.8,32.5c0,0.03,0,0,0,0c0.98,0.06,2.73,0.13,3.8-0.58c0.54-0.32,0.91-0.72,1.07-1.17
			c0.02-0.2,0.26-2.83,0.37-3.67c1.55-16.12,2.6-31.25,2.4-40.16C182.05,227.09,176.32,228.75,176.32,239.96z"/>
		<path class="st50" d="M162.43,266.69c0.99-0.34,1.83-0.93,2.05-1.81c0.49-1.64,1-3.97,1.22-4.74c1.07-4.76,2.69-16.46,3.75-26.75
			c-1.75,1.65-3.51,4.66-4.18,10.13C164.35,251.01,163.2,260.44,162.43,266.69z"/>
		<path class="st47" d="M176.39,190.85c1.75,2.87,8.08,13.91,11.97,13.88c3.93-0.05,4.49-3.91,3.75-6.78l-0.22-0.13
			c-3.41,3.72-7.95-1.63-12.66-8.35c-4.71-6.71-2.76-12-2.76-12h-0.03c-0.63,0.74-1.15,1.63-1.55,2.6
			C173.66,182.94,174.63,187.97,176.39,190.85z"/>
		<path class="st47" d="M154.46,195.58c0.06,0.94,1.75,2.88,2.1,2.8c-0.02,0.26-0.48,17.13-0.56,18c-0.21,2.12,1.77,6.67,9.31,8.86
			l0.72-7.4l0.74,7.71c4.38,0.66,8.04,0.23,11.09-0.88c-0.87-6.49-1.7-19.89,6.3-19.33h0.05c-0.08-2.45-0.19-5.05-0.27-7.56
			c-0.43-0.37-0.71-0.58-0.71-0.58l-8.03-9.97v-6.94l0.58-1.92l1.01-1.28c-0.47,0.15-4.58,0.78-8.7-0.43
			c-2.55-0.77-5.32-2.02-6.39-5.37c-0.53-1.68,0.7-3.11,2.47-3.93c-3.12-0.78-8.11,2.32-9.34,7.31c-0.46,1.79-0.72,3.75-0.72,5.85
			C154.1,180.52,153.92,187.76,154.46,195.58z"/>
		<path class="st47" d="M154.98,174.11c0.9-2.66,2.4-4.3,4.15-5.48c0.26-0.18,0.54-0.35,0.82-0.51c1.17-0.69,2.56-0.96,3.85-0.85
			C159.13,166.05,156.29,169.6,154.98,174.11z"/>
	</g>
</g>
</svg>
