<?xml version="1.0" encoding="utf-8"?>
<!-- Generator: Adobe Illustrator 23.0.5, SVG Export Plug-In . SVG Version: 6.00 Build 0)  -->
<svg version="1.0" id="Layer_1" xmlns="http://www.w3.org/2000/svg" xmlns:xlink="http://www.w3.org/1999/xlink" x="0px" y="0px"
	 viewBox="0 0 624 320" style="enable-background:new 0 0 624 320;" xml:space="preserve">
<style type="text/css">
	.st0{opacity:0.3;fill:#35B24A;}
	.st1{fill:#B6D1F8;}
	.st2{fill:#00A26D;}
	.st3{fill:#F99746;}
	.st4{fill:#ED7D2B;}
	.st5{fill:#C2DBFD;}
	.st6{fill:#F2C5A0;}
	.st7{fill:#F5D1B7;}
	.st8{fill:#D8E3B7;}
	.st9{fill:#DCE9BF;}
	.st10{fill:#FFA412;}
	.st11{fill:#FFB93E;}
	.st12{opacity:0.5;fill:#FFB93E;}
	.st13{fill:#FFFFFF;}
	.st14{fill:#2E3552;}
	.st15{fill:#EFEFEF;}
	.st16{opacity:0.5;}
	.st17{fill:#FCCBA2;}
	.st18{fill:#EBF3FA;}
	.st19{fill:#EA8E50;}
	.st20{fill:#015E3A;}
	.st21{fill:#1A2E35;}
	.st22{fill:#FFB07B;}
	.st23{fill:#233862;}
	.st24{fill:#ED985F;}
	.st25{fill:#CEE085;}
	.st26{fill:#FFB27D;}
	.st27{fill:#2C3A64;}
	.st28{fill:#F77D48;}
	.st29{fill:#FBBEA3;}
	.st30{fill:#2A4E96;}
	.st31{fill:#4673BC;}
</style>
<rect y="0" class="st0" width="624" height="320"/>
<g>
	<rect x="214.9" y="118.81" class="st1" width="73.91" height="200.26"/>
	<g>
		<path class="st2" d="M99.8,286.24c0,0-42.2,1.75-51.48,22.87c0,0-1.71,4.77,4.97,5.55c6.68,0.78,26.96-24.47,46.51-26.81V286.24z"
			/>
		<path class="st2" d="M99.8,284.52c0,0-23.19-20.88-40.89-13.55c-17.69,7.33,12.38,7.88,21.36,9.4c8.98,1.53,19.53,5.86,19.53,5.86
			V284.52z"/>
		<path class="st2" d="M99.2,289.5c0,0-21.14,7.15-17.55,18.58C85.23,319.51,99.2,289.5,99.2,289.5z"/>
		<g>
			<path class="st3" d="M267.08,312.44L267.08,312.44c-0.45,3.88-3.48,6.82-7.03,6.83l-147.44,0.33
				c-10.27-1.19-17.6-11.43-16.29-22.74l0.92-7.94c1.4-12.02,11.47-20.81,22.37-19.54l142.82,35.71
				C265.49,305.85,267.48,309.01,267.08,312.44z"/>
			<path class="st4" d="M122.23,293.13l-1.19,10.25c-0.04,0.31-0.32,0.54-0.64,0.51l-0.2-0.02c-0.31-0.04-0.54-0.32-0.51-0.64
				l1.19-10.25c0.04-0.31,0.32-0.54,0.64-0.51l0.2,0.02C122.04,292.53,122.27,292.82,122.23,293.13z"/>
			<path class="st4" d="M131.39,303.33l-1.19,10.25c-0.04,0.31-0.32,0.54-0.64,0.51l-0.2-0.02c-0.31-0.04-0.54-0.32-0.51-0.64
				l1.19-10.25c0.04-0.31,0.32-0.54,0.64-0.51l0.2,0.02C131.2,302.73,131.43,303.02,131.39,303.33z"/>
			<path class="st4" d="M160.38,293.13l-1.19,10.25c-0.04,0.31-0.32,0.54-0.64,0.51l-0.2-0.02c-0.31-0.04-0.54-0.32-0.51-0.64
				l1.19-10.25c0.04-0.31,0.32-0.54,0.64-0.51l0.2,0.02C160.19,292.53,160.41,292.82,160.38,293.13z"/>
			<path class="st4" d="M164.37,303.73l-1.19,10.25c-0.04,0.31-0.32,0.54-0.64,0.51l-0.2-0.02c-0.31-0.04-0.54-0.32-0.51-0.64
				l1.19-10.25c0.04-0.31,0.32-0.54,0.64-0.51l0.2,0.02C164.18,303.13,164.4,303.42,164.37,303.73z"/>
			<path class="st4" d="M173.01,290.16l-1.19,10.25c-0.04,0.31-0.32,0.54-0.64,0.51l-0.2-0.02c-0.31-0.04-0.54-0.32-0.51-0.64
				l1.19-10.25c0.04-0.31,0.32-0.54,0.64-0.51l0.2,0.02C172.82,289.56,173.05,289.85,173.01,290.16z"/>
			<path class="st4" d="M189.56,294.18l-0.72,6.19c-0.04,0.34-0.35,0.59-0.69,0.55l-0.1-0.01c-0.34-0.04-0.59-0.35-0.55-0.69
				l0.72-6.19c0.04-0.34,0.35-0.59,0.69-0.55l0.1,0.01C189.35,293.53,189.6,293.84,189.56,294.18z"/>
			<path class="st4" d="M191.65,303.67l-0.72,6.19c-0.04,0.34-0.35,0.59-0.69,0.55l-0.1-0.01c-0.34-0.04-0.59-0.35-0.55-0.69
				l0.72-6.19c0.04-0.34,0.35-0.59,0.69-0.55l0.1,0.01C191.44,303.02,191.69,303.33,191.65,303.67z"/>
			<path class="st4" d="M199.57,293.67l-0.86,7.39c-0.03,0.27-0.28,0.47-0.55,0.43l-0.36-0.04c-0.27-0.03-0.47-0.28-0.43-0.55
				l0.86-7.39c0.03-0.27,0.28-0.47,0.55-0.43l0.36,0.04C199.4,293.15,199.6,293.4,199.57,293.67z"/>
			<path class="st4" d="M209.03,302.23l-0.83,7.14c-0.04,0.34-0.35,0.59-0.69,0.55l-0.1-0.01c-0.34-0.04-0.59-0.35-0.55-0.69
				l0.83-7.14c0.04-0.34,0.35-0.59,0.69-0.55l0.1,0.01C208.82,301.58,209.07,301.89,209.03,302.23z"/>
			<path class="st4" d="M216.43,298.61l-0.83,7.14c-0.04,0.34-0.35,0.59-0.69,0.55l-0.1-0.01c-0.34-0.04-0.59-0.35-0.55-0.69
				l0.83-7.14c0.04-0.34,0.35-0.59,0.69-0.55l0.1,0.01C216.22,297.96,216.47,298.27,216.43,298.61z"/>
			<path class="st4" d="M219.38,308.56l-0.83,7.14c-0.04,0.34-0.35,0.59-0.69,0.55l-0.1-0.01c-0.34-0.04-0.59-0.35-0.55-0.69
				l0.83-7.14c0.04-0.34,0.35-0.59,0.69-0.55l0.1,0.01C219.17,307.91,219.42,308.22,219.38,308.56z"/>
			<path class="st4" d="M212.11,312.82l-0.33,2.88c-0.04,0.34-0.35,0.59-0.69,0.55l-0.1-0.01c-0.34-0.04-0.59-0.35-0.55-0.69
				l0.33-2.88c0.04-0.34,0.35-0.59,0.69-0.55l0.1,0.01C211.9,312.17,212.15,312.48,212.11,312.82z"/>
			<path class="st4" d="M206.05,296.21l-0.33,2.88c-0.04,0.34-0.35,0.59-0.69,0.55l-0.1-0.01c-0.34-0.04-0.59-0.35-0.55-0.69
				l0.33-2.88c0.04-0.34,0.35-0.59,0.69-0.55l0.1,0.01C205.84,295.56,206.08,295.87,206.05,296.21z"/>
			<path class="st4" d="M201.3,307.68l-0.83,7.14c-0.04,0.34-0.35,0.59-0.69,0.55l-0.1-0.01c-0.34-0.04-0.59-0.35-0.55-0.69
				l0.83-7.14c0.04-0.34,0.35-0.59,0.69-0.55l0.1,0.01C201.1,307.03,201.34,307.34,201.3,307.68z"/>
			<path class="st4" d="M182.26,308l-0.76,6.5c-0.03,0.25-0.26,0.44-0.52,0.41l-0.41-0.05c-0.25-0.03-0.44-0.26-0.41-0.52l0.76-6.5
				c0.03-0.25,0.26-0.44,0.52-0.41l0.41,0.05C182.1,307.51,182.29,307.75,182.26,308z"/>
			<path class="st4" d="M115.53,299.13l-1.67,14.34c-0.04,0.37-0.38,0.63-0.75,0.59l0,0c-0.37-0.04-0.63-0.38-0.59-0.75l1.67-14.34
				c0.04-0.37,0.38-0.63,0.75-0.59l0,0C115.31,298.42,115.57,298.76,115.53,299.13z"/>
			<path class="st4" d="M129.89,281.55l-0.73,6.24c-0.04,0.34-0.35,0.59-0.69,0.55l-0.1-0.01c-0.34-0.04-0.59-0.35-0.55-0.69
				l0.73-6.24c0.04-0.34,0.35-0.59,0.69-0.55l0.1,0.01C129.68,280.9,129.93,281.21,129.89,281.55z"/>
			<path class="st4" d="M145.79,281.55l-0.73,6.24c-0.04,0.34-0.35,0.59-0.69,0.55l-0.1-0.01c-0.34-0.04-0.59-0.35-0.55-0.69
				l0.73-6.24c0.04-0.34,0.35-0.59,0.69-0.55l0.1,0.01C145.58,280.9,145.83,281.21,145.79,281.55z"/>
			<path class="st4" d="M138.92,292.17l-0.73,6.24c-0.04,0.34-0.35,0.59-0.69,0.55l-0.1-0.01c-0.34-0.04-0.59-0.35-0.55-0.69
				l0.73-6.24c0.04-0.34,0.35-0.59,0.69-0.55l0.1,0.01C138.72,291.52,138.96,291.83,138.92,292.17z"/>
			<path class="st4" d="M106,281.4l-0.76,6.55c-0.03,0.26-0.26,0.44-0.52,0.41l-0.41-0.05c-0.26-0.03-0.44-0.26-0.41-0.52l0.76-6.55
				c0.03-0.26,0.26-0.44,0.52-0.41l0.41,0.05C105.84,280.91,106.03,281.14,106,281.4z"/>
			<path class="st4" d="M106,297.1l-0.76,6.55c-0.03,0.26-0.26,0.44-0.52,0.41l-0.41-0.05c-0.26-0.03-0.44-0.26-0.41-0.52l0.76-6.55
				c0.03-0.26,0.26-0.44,0.52-0.41l0.41,0.05C105.84,296.6,106.03,296.84,106,297.1z"/>
			<path class="st4" d="M113.05,284.97l-1.07,9.2c-0.03,0.3-0.31,0.52-0.61,0.48l-0.25-0.03c-0.3-0.03-0.52-0.31-0.48-0.61l1.07-9.2
				c0.03-0.3,0.31-0.52,0.61-0.48l0.25,0.03C112.87,284.4,113.09,284.67,113.05,284.97z"/>
			<path class="st4" d="M120.23,273.52l-1.07,9.2c-0.03,0.3-0.31,0.52-0.61,0.48l-0.25-0.03c-0.3-0.03-0.52-0.31-0.48-0.61l1.07-9.2
				c0.03-0.3,0.31-0.52,0.61-0.48l0.25,0.03C120.05,272.95,120.27,273.22,120.23,273.52z"/>
			<path class="st4" d="M144.07,301.71l-1.27,10.89c-0.04,0.32-0.33,0.56-0.66,0.52l-0.16-0.02c-0.32-0.04-0.56-0.33-0.52-0.66
				l1.27-10.89c0.04-0.32,0.33-0.56,0.66-0.52l0.16,0.02C143.88,301.09,144.11,301.38,144.07,301.71z"/>
			<path class="st4" d="M154.69,284.45l-1.67,14.34c-0.04,0.37-0.38,0.63-0.75,0.59l0,0c-0.37-0.04-0.63-0.38-0.59-0.75l1.67-14.34
				c0.04-0.37,0.38-0.63,0.75-0.59l0,0C154.47,283.75,154.74,284.08,154.69,284.45z"/>
		</g>
	</g>
	<ellipse class="st5" cx="251.86" cy="118.81" rx="36.95" ry="12.81"/>
	<g>
		<rect x="307.85" y="80.78" class="st6" width="73.91" height="238.28"/>
		<ellipse class="st7" cx="344.8" cy="80.78" rx="36.95" ry="12.81"/>
	</g>
	<g>
		<rect x="404.02" y="178.26" class="st8" width="60.85" height="140.8"/>
		<ellipse class="st9" cx="434.45" cy="178.26" rx="30.43" ry="12.81"/>
	</g>
	<g>
		<path class="st10" d="M575.88,239.77v66.34c0,7.16-5.8,12.96-12.96,12.96H455.8c-7.16,0-12.96-5.8-12.96-12.96v-12.45
			c3.04-0.99,5.49-3.62,5.49-6.85c0-3.4-1.77-7.42-5.49-7.86v-38.47c1.16-0.31,2.26-0.96,3.09-1.85c1.75-1.9,1.48-5.07-0.11-7.12
			c2.38-2.87,5.97-4.69,9.98-4.69h107.13C570.08,226.81,575.88,232.61,575.88,239.77z"/>
		<path class="st11" d="M522.74,237.2v71.48c0,5.74-4.65,10.39-10.39,10.39h-69.52v-25.41c3.04-0.99,5.49-3.62,5.49-6.85
			c0-3.4-1.77-7.42-5.49-7.86v-7.85c1.2-0.12,2.39-0.5,3.5-1.08c3.44-1.82,6.14-5.61,6.14-9.79c0-4.92-4.73-8.57-9.65-8.93v-10.82
			c1.16-0.31,2.26-0.96,3.09-1.85c1.75-1.9,1.48-5.07-0.11-7.12c-0.2-0.25-0.41-0.49-0.65-0.71c-0.68-0.63-1.49-1.04-2.33-1.24
			v-2.74h69.52C518.09,226.81,522.74,231.46,522.74,237.2z"/>
		<g>
			<path class="st10" d="M483.62,262.63c0,4.18-2.7,7.97-6.14,9.79c-1.36,0.72-2.83,1.12-4.3,1.12c-2.38,0-4.55-0.88-6.21-2.35
				c0,0-0.01-0.01-0.01-0.01c-1.94-1.72-3.17-4.23-3.17-7.03c0-5.19,4.2-10.48,9.39-10.48
				C478.36,253.68,483.62,257.45,483.62,262.63z"/>
			<path class="st12" d="M482.02,264.4c0,3.3-1.94,6.32-4.55,8.02c-1.36,0.72-2.83,1.12-4.3,1.12c-2.38,0-4.55-0.88-6.21-2.35
				c0,0-0.01-0.01-0.01-0.01c-1.31-1.44-2.11-3.36-2.11-5.47c0-4.49,3.64-9.08,8.13-9.08C477.47,256.65,482.02,259.92,482.02,264.4z
				"/>
		</g>
		<g>
			<path class="st10" d="M456.01,245.89c-1.72-1.58-2.26-4.13-1.7-6.23c0.22-0.83,0.61-1.59,1.17-2.19c0.9-0.98,2.09-1.54,3.32-1.67
				c0,0,0.01,0,0.01,0c1.44-0.15,2.94,0.3,4.09,1.36c2.13,1.96,2.72,5.7,0.76,7.83C461.69,247.12,458.14,247.86,456.01,245.89z"/>
			<path class="st12" d="M455.89,244.57c-1.36-1.25-1.86-3.19-1.58-4.91c0.22-0.83,0.61-1.59,1.17-2.19
				c0.9-0.98,2.09-1.54,3.32-1.67c0,0,0.01,0,0.01,0c1.09,0.01,2.18,0.4,3.05,1.2c1.85,1.7,2.36,4.94,0.66,6.78
				C460.8,245.63,457.73,246.27,455.89,244.57z"/>
		</g>
		<g>
			<path class="st10" d="M502.24,248.75c-1.89,2.17-5.02,2.93-7.63,2.32c-1.03-0.24-1.98-0.7-2.75-1.36
				c-1.24-1.08-1.97-2.52-2.17-4.03c0,0,0-0.01,0-0.01c-0.23-1.77,0.27-3.64,1.53-5.09c2.35-2.7,6.93-3.55,9.63-1.21
				C503.56,241.71,504.59,246.05,502.24,248.75z"/>
			<path class="st12" d="M500.61,248.95c-1.49,1.72-3.87,2.41-5.99,2.12c-1.03-0.24-1.98-0.7-2.75-1.36
				c-1.24-1.08-1.97-2.52-2.17-4.03c0,0,0-0.01,0-0.01c-0.03-1.35,0.42-2.71,1.37-3.8c2.03-2.34,6-3.08,8.34-1.05
				C501.75,242.85,502.64,246.61,500.61,248.95z"/>
		</g>
		<g>
			<path class="st10" d="M505.09,282.87c-1.29,3.44-4.69,5.72-8.08,6.15c-1.34,0.17-2.68,0.05-3.88-0.41
				c-1.96-0.74-3.47-2.14-4.38-3.85c0,0,0-0.01-0.01-0.01c-1.07-2.01-1.3-4.46-0.43-6.76c1.61-4.26,6.7-7.32,10.97-5.71
				C503.54,273.87,506.7,278.6,505.09,282.87z"/>
			<path class="st12" d="M503.23,283.83c-1.02,2.71-3.56,4.6-6.22,5.19c-1.34,0.17-2.68,0.05-3.88-0.41
				c-1.96-0.74-3.47-2.14-4.38-3.85c0,0,0-0.01-0.01-0.01c-0.63-1.59-0.7-3.42-0.04-5.15c1.39-3.69,5.8-6.34,9.5-4.95
				C501.89,276.04,504.62,280.14,503.23,283.83z"/>
		</g>
		<g>
			<path class="st10" d="M492.09,301.79c0.47,2.18-0.52,4.47-2.11,5.8c-0.63,0.53-1.35,0.9-2.12,1.07c-1.24,0.27-2.48,0.05-3.5-0.53
				c0,0,0,0-0.01,0c-1.21-0.68-2.13-1.86-2.44-3.32c-0.58-2.71,1.02-5.94,3.73-6.52C488.35,297.7,491.51,299.09,492.09,301.79z"/>
			<path class="st12" d="M491.45,302.9c0.37,1.72-0.31,3.52-1.48,4.7c-0.63,0.53-1.35,0.9-2.12,1.07c-1.24,0.27-2.48,0.05-3.5-0.53
				c0,0,0,0-0.01,0c-0.85-0.61-1.48-1.52-1.71-2.62c-0.5-2.34,0.89-5.15,3.23-5.65C488.21,299.35,490.95,300.55,491.45,302.9z"/>
		</g>
		<g>
			<path class="st10" d="M516.08,253.06c1.36,1.39,1.69,3.54,1.13,5.26c-0.22,0.68-0.58,1.3-1.07,1.77
				c-0.79,0.77-1.81,1.19-2.83,1.24c0,0,0,0-0.01,0c-1.21,0.06-2.43-0.38-3.34-1.32c-1.69-1.73-2.01-4.86-0.28-6.55
				C511.41,251.78,514.39,251.33,516.08,253.06z"/>
			<path class="st12" d="M516.12,254.17c1.07,1.1,1.41,2.74,1.09,4.15c-0.22,0.68-0.58,1.3-1.07,1.77
				c-0.79,0.77-1.81,1.19-2.83,1.24c0,0,0,0-0.01,0c-0.91-0.05-1.8-0.43-2.48-1.14c-1.46-1.5-1.74-4.21-0.24-5.67
				C512.08,253.06,514.66,252.67,516.12,254.17z"/>
		</g>
		<g>
			<path class="st10" d="M460.25,311.13c-3.66,0.31-7.18-1.77-9.03-4.64c-0.73-1.14-1.2-2.39-1.31-3.68
				c-0.18-2.08,0.43-4.05,1.59-5.61c0,0,0.01-0.01,0.01-0.01c1.36-1.83,3.47-3.09,5.92-3.3c4.54-0.39,9.49,2.89,9.88,7.43
				C467.7,305.86,464.79,310.75,460.25,311.13z"/>
			<path class="st12" d="M458.58,309.87c-2.89,0.25-5.68-1.23-7.36-3.38c-0.73-1.14-1.2-2.39-1.31-3.68
				c-0.18-2.08,0.43-4.05,1.59-5.61c0,0,0.01-0.01,0.01-0.01c1.17-1.26,2.79-2.1,4.63-2.26c3.93-0.34,8.22,2.51,8.56,6.44
				C465.03,305.3,462.51,309.53,458.58,309.87z"/>
		</g>
	</g>
	<g>
		<path class="st13" d="M357.86,211.35c-11.66-17.62-16.33-55.7,1.3-67.37c17.62-11.66,50.86,7.51,62.52,25.13
			c11.66,17.62,6.83,41.36-10.79,53.03C393.27,233.8,369.53,228.97,357.86,211.35z"/>
		
			<ellipse transform="matrix(0.9128 -0.4084 0.4084 0.9128 -43.3599 175.4041)" class="st3" cx="389.13" cy="189.25" rx="21.37" ry="21.37"/>
	</g>
	<g>
		<path class="st2" d="M338.3,25.02h-4.4v4.4h-0.8V20h5.84v0.68h-5.04v3.66h4.4V25.02z"/>
		<path class="st2" d="M344.59,29.43c-0.04-0.12-0.08-0.27-0.1-0.44c-0.02-0.17-0.04-0.35-0.05-0.53c-0.12,0.15-0.25,0.29-0.41,0.43
			c-0.16,0.13-0.34,0.25-0.54,0.35c-0.2,0.1-0.42,0.18-0.65,0.24c-0.24,0.06-0.49,0.09-0.77,0.09c-0.34,0-0.65-0.05-0.93-0.15
			c-0.28-0.1-0.52-0.24-0.71-0.42c-0.2-0.18-0.35-0.39-0.46-0.63c-0.11-0.24-0.16-0.5-0.16-0.79c0-0.34,0.07-0.65,0.22-0.92
			c0.15-0.27,0.36-0.51,0.63-0.7c0.28-0.19,0.61-0.34,1.01-0.44c0.4-0.1,0.84-0.15,1.33-0.15h1.44v-0.8c0-0.5-0.15-0.89-0.46-1.18
			c-0.31-0.29-0.76-0.43-1.35-0.43c-0.27,0-0.52,0.04-0.75,0.11c-0.23,0.07-0.43,0.17-0.59,0.3c-0.17,0.13-0.3,0.28-0.39,0.45
			c-0.09,0.17-0.14,0.35-0.14,0.55l-0.78-0.01c0-0.26,0.06-0.52,0.19-0.76c0.13-0.25,0.31-0.47,0.55-0.66
			c0.24-0.19,0.52-0.35,0.85-0.46c0.33-0.12,0.7-0.17,1.1-0.17c0.37,0,0.71,0.05,1.03,0.14c0.31,0.09,0.58,0.24,0.81,0.43
			c0.22,0.19,0.4,0.43,0.52,0.71c0.13,0.28,0.19,0.62,0.19,1v3.39c0,0.12,0,0.25,0.01,0.38c0.01,0.13,0.02,0.25,0.04,0.38
			c0.02,0.12,0.04,0.24,0.07,0.35c0.03,0.11,0.06,0.21,0.09,0.29v0.08H344.59z M342.15,28.87c0.28,0,0.54-0.04,0.78-0.11
			c0.24-0.07,0.46-0.17,0.65-0.29c0.19-0.13,0.36-0.27,0.51-0.44c0.14-0.17,0.26-0.35,0.34-0.54v-1.54h-1.33
			c-0.4,0-0.75,0.04-1.07,0.11c-0.31,0.07-0.58,0.17-0.79,0.31c-0.22,0.13-0.38,0.3-0.5,0.49c-0.11,0.19-0.17,0.41-0.17,0.65
			c0,0.19,0.04,0.37,0.11,0.53c0.07,0.17,0.18,0.31,0.31,0.43c0.14,0.12,0.3,0.22,0.5,0.29C341.69,28.84,341.91,28.87,342.15,28.87z
			"/>
		<path class="st2" d="M348.47,20.63v1.79h1.45v0.63h-1.45v4.67c0,0.25,0.02,0.44,0.07,0.59s0.12,0.27,0.2,0.35
			c0.08,0.08,0.18,0.14,0.29,0.17c0.11,0.03,0.23,0.04,0.35,0.04c0.12,0,0.23-0.01,0.34-0.02c0.11-0.02,0.21-0.03,0.29-0.04
			l0.03,0.63c-0.1,0.03-0.22,0.06-0.37,0.08c-0.15,0.02-0.31,0.03-0.46,0.03c-0.22,0-0.42-0.03-0.61-0.09
			c-0.19-0.06-0.35-0.16-0.48-0.3c-0.13-0.14-0.24-0.33-0.31-0.57c-0.08-0.24-0.11-0.53-0.11-0.88v-4.67h-1.29v-0.63h1.29v-1.79
			H348.47z"/>
		<path class="st2" d="M355.72,27.65c0-0.14-0.02-0.28-0.07-0.43c-0.05-0.14-0.14-0.28-0.28-0.4c-0.14-0.13-0.33-0.25-0.57-0.36
			c-0.24-0.11-0.56-0.21-0.95-0.29c-0.39-0.08-0.74-0.18-1.04-0.28c-0.3-0.11-0.56-0.24-0.77-0.39c-0.21-0.15-0.37-0.34-0.48-0.55
			c-0.11-0.21-0.16-0.46-0.16-0.74c0-0.26,0.06-0.51,0.17-0.74c0.11-0.23,0.28-0.44,0.49-0.61c0.21-0.17,0.47-0.31,0.78-0.41
			c0.3-0.1,0.65-0.15,1.03-0.15c0.41,0,0.77,0.05,1.09,0.16c0.32,0.11,0.59,0.25,0.82,0.44c0.22,0.19,0.39,0.41,0.51,0.66
			c0.12,0.25,0.17,0.53,0.17,0.83h-0.78c0-0.18-0.04-0.36-0.12-0.53c-0.08-0.17-0.2-0.32-0.35-0.46c-0.15-0.13-0.34-0.24-0.57-0.32
			c-0.23-0.08-0.48-0.12-0.77-0.12c-0.3,0-0.56,0.04-0.77,0.11c-0.21,0.07-0.39,0.17-0.52,0.28c-0.14,0.12-0.24,0.25-0.3,0.39
			c-0.06,0.14-0.09,0.29-0.09,0.44c0,0.16,0.02,0.3,0.07,0.42c0.05,0.13,0.14,0.25,0.28,0.36c0.14,0.11,0.33,0.21,0.57,0.3
			c0.24,0.09,0.56,0.18,0.96,0.28c0.42,0.1,0.79,0.21,1.09,0.33c0.31,0.12,0.56,0.26,0.76,0.43c0.2,0.17,0.35,0.36,0.45,0.57
			s0.15,0.46,0.15,0.74c0,0.29-0.06,0.55-0.18,0.79c-0.12,0.24-0.29,0.44-0.52,0.62c-0.22,0.17-0.5,0.3-0.82,0.4
			c-0.32,0.09-0.68,0.14-1.07,0.14c-0.44,0-0.84-0.06-1.18-0.17c-0.34-0.11-0.63-0.27-0.86-0.46c-0.23-0.19-0.41-0.42-0.53-0.67
			c-0.12-0.25-0.18-0.51-0.18-0.79h0.78c0.02,0.28,0.09,0.51,0.21,0.69c0.13,0.18,0.28,0.33,0.47,0.44
			c0.19,0.11,0.39,0.19,0.62,0.24c0.23,0.05,0.45,0.07,0.67,0.07c0.29,0,0.55-0.03,0.78-0.1c0.22-0.07,0.41-0.16,0.57-0.28
			c0.15-0.12,0.27-0.25,0.35-0.4C355.68,27.97,355.72,27.81,355.72,27.65z"/>
	</g>
	<g>
		<path class="st2" d="M330.13,41.45h-7.99v-3.23h12.24v2.82l-7.63,14.19h-4.23L330.13,41.45z"/>
		<path class="st2" d="M335.96,52.96l2.26-2.7c1.29,1.17,2.55,1.85,4.06,1.85c1.75,0,2.84-0.85,2.84-2.4c0-1.46-1.24-2.31-3.01-2.31
			c-1.07,0-2.04,0.29-2.84,0.63l-2.16-1.43l0.49-8.38h10.45v3.28h-7.24l-0.19,2.94c0.68-0.17,1.29-0.29,2.23-0.29
			c3.3,0,5.95,1.6,5.95,5.49c0,3.6-2.55,5.88-6.46,5.88C339.61,55.51,337.62,54.54,335.96,52.96z"/>
		<path class="st2" d="M351.01,43.96c0-2.12,1.47-3.82,3.65-3.82c2.16,0,3.61,1.69,3.61,3.82c0,2.09-1.47,3.82-3.65,3.82
			C352.46,47.78,351.01,46.09,351.01,43.96z M363.43,40.3h2.54l-10.92,14.96h-2.54L363.43,40.3z M356.03,43.96
			c0-1-0.56-1.88-1.41-1.88c-0.9,0-1.37,0.85-1.37,1.88c0,1,0.56,1.88,1.41,1.88C355.56,45.84,356.03,44.96,356.03,43.96z
			 M360.2,51.6c0-2.12,1.47-3.82,3.65-3.82c2.16,0,3.61,1.69,3.61,3.82c0,2.09-1.47,3.82-3.65,3.82
			C361.65,55.43,360.2,53.74,360.2,51.6z M365.22,51.6c0-1-0.56-1.88-1.41-1.88c-0.9,0-1.37,0.85-1.37,1.88c0,1,0.56,1.88,1.41,1.88
			C364.75,53.48,365.22,52.61,365.22,51.6z"/>
	</g>
	<g>
		<path class="st2" d="M231.18,62.48v3.84h-0.8v-9.43h3.21c0.52,0,0.97,0.07,1.37,0.21c0.39,0.14,0.73,0.33,0.99,0.58
			c0.27,0.25,0.47,0.54,0.61,0.89c0.14,0.35,0.2,0.73,0.2,1.14c0,0.44-0.07,0.83-0.2,1.17c-0.14,0.34-0.34,0.63-0.6,0.87
			c-0.27,0.24-0.6,0.42-0.99,0.54c-0.4,0.13-0.85,0.19-1.37,0.19H231.18z M231.18,61.81h2.42c0.42,0,0.78-0.05,1.08-0.16
			c0.3-0.11,0.55-0.25,0.74-0.44c0.19-0.19,0.33-0.41,0.42-0.66c0.09-0.25,0.14-0.53,0.14-0.82c0-0.29-0.05-0.56-0.14-0.83
			c-0.09-0.26-0.23-0.49-0.42-0.69c-0.19-0.2-0.44-0.35-0.74-0.47c-0.3-0.11-0.66-0.17-1.08-0.17h-2.42V61.81z"/>
		<path class="st2" d="M241.6,59.98c-0.16-0.03-0.34-0.05-0.52-0.05c-0.26,0-0.5,0.04-0.71,0.12c-0.21,0.08-0.4,0.19-0.56,0.33
			c-0.16,0.14-0.3,0.31-0.41,0.5c-0.11,0.19-0.2,0.4-0.26,0.64v4.81h-0.77v-7.01h0.76l0.01,1.11c0.19-0.38,0.45-0.69,0.77-0.91
			c0.33-0.22,0.73-0.33,1.2-0.33c0.09,0,0.19,0.01,0.29,0.03c0.1,0.02,0.17,0.04,0.22,0.06L241.6,59.98z"/>
		<path class="st2" d="M242.27,62.71c0-0.51,0.07-0.98,0.22-1.41c0.15-0.43,0.36-0.8,0.63-1.12c0.27-0.31,0.6-0.56,0.98-0.73
			c0.38-0.18,0.81-0.27,1.28-0.27c0.48,0,0.91,0.09,1.3,0.27c0.39,0.18,0.72,0.42,0.99,0.73c0.27,0.31,0.48,0.69,0.63,1.12
			c0.15,0.43,0.22,0.9,0.22,1.41v0.21c0,0.51-0.07,0.98-0.22,1.41c-0.15,0.43-0.36,0.8-0.63,1.12c-0.27,0.31-0.6,0.56-0.98,0.73
			c-0.38,0.17-0.81,0.26-1.29,0.26c-0.47,0-0.9-0.09-1.29-0.26c-0.38-0.17-0.71-0.42-0.99-0.73c-0.27-0.31-0.49-0.69-0.63-1.12
			c-0.15-0.43-0.22-0.9-0.22-1.41V62.71z M243.04,62.93c0,0.38,0.05,0.75,0.16,1.1c0.1,0.35,0.25,0.65,0.45,0.91
			c0.2,0.26,0.44,0.47,0.74,0.62c0.29,0.16,0.63,0.23,1.01,0.23c0.38,0,0.72-0.08,1.01-0.23c0.29-0.16,0.54-0.36,0.73-0.62
			c0.2-0.26,0.35-0.57,0.45-0.91c0.1-0.35,0.16-0.71,0.16-1.1v-0.21c0-0.38-0.05-0.74-0.16-1.08c-0.1-0.35-0.25-0.65-0.45-0.92
			c-0.2-0.26-0.45-0.47-0.74-0.63c-0.3-0.16-0.63-0.24-1.01-0.24c-0.38,0-0.71,0.08-1,0.24c-0.29,0.16-0.54,0.37-0.73,0.63
			c-0.2,0.26-0.35,0.57-0.45,0.92c-0.1,0.35-0.16,0.71-0.16,1.08V62.93z"/>
		<path class="st2" d="M251.32,57.52v1.79h1.45v0.63h-1.45v4.67c0,0.25,0.03,0.44,0.07,0.59c0.05,0.15,0.12,0.27,0.2,0.35
			c0.08,0.08,0.18,0.14,0.29,0.17c0.11,0.03,0.23,0.04,0.35,0.04c0.12,0,0.23-0.01,0.34-0.02c0.11-0.02,0.21-0.03,0.29-0.04
			l0.03,0.63c-0.1,0.03-0.22,0.06-0.37,0.08c-0.15,0.02-0.31,0.03-0.46,0.03c-0.22,0-0.42-0.03-0.61-0.09
			c-0.19-0.06-0.35-0.16-0.48-0.3c-0.13-0.14-0.24-0.33-0.31-0.57c-0.08-0.24-0.11-0.53-0.11-0.88v-4.67h-1.29v-0.63h1.29v-1.79
			H251.32z"/>
		<path class="st2" d="M257.09,66.45c-0.46,0-0.88-0.09-1.26-0.26c-0.38-0.17-0.72-0.41-0.99-0.71c-0.28-0.3-0.5-0.67-0.65-1.08
			c-0.16-0.42-0.23-0.88-0.23-1.38v-0.28c0-0.54,0.08-1.03,0.24-1.47c0.16-0.44,0.38-0.81,0.66-1.12c0.28-0.31,0.59-0.55,0.95-0.72
			c0.36-0.17,0.74-0.25,1.14-0.25c0.44,0,0.84,0.08,1.18,0.24c0.35,0.16,0.64,0.38,0.87,0.67c0.24,0.28,0.41,0.62,0.53,1.02
			c0.12,0.39,0.18,0.82,0.18,1.29v0.47h-5v0.15c0,0.38,0.06,0.75,0.17,1.08c0.12,0.34,0.28,0.63,0.49,0.88
			c0.21,0.25,0.46,0.45,0.76,0.59c0.29,0.14,0.62,0.22,0.98,0.22c0.41,0,0.78-0.08,1.1-0.23c0.32-0.15,0.61-0.39,0.86-0.73
			l0.49,0.37c-0.12,0.17-0.25,0.33-0.4,0.48c-0.15,0.15-0.33,0.28-0.53,0.39c-0.2,0.11-0.43,0.2-0.69,0.27
			C257.69,66.42,257.41,66.45,257.09,66.45z M256.95,59.85c-0.29,0-0.57,0.06-0.82,0.17c-0.25,0.11-0.47,0.27-0.66,0.48
			c-0.19,0.21-0.35,0.46-0.47,0.75c-0.12,0.29-0.21,0.61-0.25,0.97h4.2v-0.08c-0.01-0.29-0.06-0.58-0.14-0.85
			c-0.09-0.27-0.21-0.52-0.38-0.73c-0.17-0.21-0.37-0.38-0.62-0.51C257.57,59.91,257.28,59.85,256.95,59.85z"/>
		<path class="st2" d="M261.19,57.29c0-0.15,0.05-0.27,0.14-0.37c0.09-0.1,0.22-0.15,0.39-0.15c0.16,0,0.29,0.05,0.39,0.15
			c0.1,0.1,0.15,0.23,0.15,0.37c0,0.15-0.05,0.27-0.15,0.37c-0.1,0.1-0.23,0.15-0.39,0.15c-0.16,0-0.29-0.05-0.39-0.15
			C261.23,57.56,261.19,57.44,261.19,57.29z M262.1,66.32h-0.78v-7.01h0.78V66.32z"/>
		<path class="st2" d="M264.94,59.32l0.03,1.2c0.12-0.2,0.26-0.38,0.42-0.54c0.16-0.16,0.33-0.3,0.53-0.42
			c0.19-0.12,0.4-0.21,0.63-0.27s0.46-0.09,0.71-0.09c0.35,0,0.66,0.05,0.94,0.14c0.28,0.09,0.51,0.25,0.7,0.45
			c0.19,0.21,0.34,0.47,0.44,0.8c0.1,0.33,0.15,0.72,0.15,1.18v4.56h-0.77v-4.56c0-0.36-0.04-0.66-0.12-0.91
			c-0.08-0.24-0.19-0.44-0.33-0.58c-0.14-0.15-0.32-0.25-0.52-0.31c-0.21-0.06-0.43-0.09-0.68-0.09c-0.28,0-0.53,0.05-0.75,0.14
			c-0.22,0.09-0.42,0.22-0.6,0.37c-0.17,0.16-0.32,0.33-0.45,0.53c-0.13,0.2-0.22,0.41-0.3,0.62v4.8h-0.77v-7.01H264.94z"/>
	</g>
	<g>
		<path class="st2" d="M225.24,90.55l5.75-4.71c2.15-1.78,2.98-2.71,2.98-4.14c0-1.45-0.96-2.24-2.32-2.24
			c-1.33,0-2.24,0.74-3.53,2.32l-2.66-2.15c1.7-2.32,3.35-3.58,6.44-3.58c3.58,0,5.94,2.1,5.94,5.38c0,2.89-1.48,4.32-4.54,6.68
			l-2.81,2.17h7.52v3.28h-12.78V90.55z"/>
		<path class="st2" d="M240.72,84.92c0-5.01,3.11-8.93,7.69-8.93c4.56,0,7.65,3.87,7.65,8.93c0,5.01-3.08,8.93-7.69,8.93
			C243.76,93.85,240.72,89.98,240.72,84.92z M252.17,84.92c0-3.13-1.53-5.5-3.8-5.5c-2.27,0-3.75,2.29-3.75,5.5
			c0,3.16,1.5,5.5,3.8,5.5C250.71,90.42,252.17,88.11,252.17,84.92z"/>
		<path class="st2" d="M258.18,82.29c0-2.12,1.47-3.82,3.65-3.82c2.16,0,3.61,1.69,3.61,3.82c0,2.09-1.47,3.82-3.65,3.82
			C259.63,86.12,258.18,84.43,258.18,82.29z M270.59,78.64h2.54l-10.92,14.96h-2.54L270.59,78.64z M263.2,82.29
			c0-1-0.56-1.88-1.41-1.88c-0.9,0-1.37,0.85-1.37,1.88c0,1,0.56,1.88,1.41,1.88C262.73,84.17,263.2,83.3,263.2,82.29z
			 M267.37,89.94c0-2.12,1.47-3.82,3.65-3.82c2.16,0,3.61,1.69,3.61,3.82c0,2.09-1.47,3.82-3.65,3.82
			C268.82,93.77,267.37,92.08,267.37,89.94z M272.39,89.94c0-1-0.56-1.88-1.41-1.88c-0.9,0-1.37,0.85-1.37,1.88
			c0,1,0.56,1.88,1.41,1.88C271.92,91.82,272.39,90.95,272.39,89.94z"/>
	</g>
	<g>
		<path class="st2" d="M423.65,127.9c-0.05,0.48-0.16,0.91-0.34,1.29c-0.17,0.38-0.4,0.7-0.7,0.96c-0.29,0.26-0.64,0.47-1.05,0.61
			c-0.41,0.14-0.87,0.21-1.39,0.21c-0.54,0-1.02-0.1-1.46-0.3c-0.44-0.2-0.81-0.49-1.12-0.86c-0.31-0.37-0.55-0.82-0.72-1.34
			c-0.17-0.52-0.25-1.1-0.25-1.74v-1.18c0-0.63,0.08-1.21,0.25-1.74c0.17-0.52,0.41-0.97,0.72-1.34c0.31-0.37,0.69-0.66,1.14-0.86
			c0.44-0.21,0.94-0.31,1.5-0.31c0.5,0,0.95,0.07,1.35,0.21c0.4,0.14,0.75,0.34,1.03,0.61c0.29,0.27,0.52,0.59,0.69,0.97
			c0.17,0.38,0.29,0.81,0.33,1.3h-0.8c-0.05-0.38-0.13-0.72-0.26-1.02c-0.13-0.3-0.29-0.55-0.51-0.75c-0.21-0.2-0.47-0.36-0.78-0.47
			c-0.3-0.11-0.66-0.16-1.07-0.16c-0.44,0-0.83,0.09-1.18,0.26c-0.35,0.17-0.64,0.41-0.88,0.72c-0.24,0.31-0.43,0.69-0.55,1.12
			c-0.13,0.44-0.19,0.92-0.19,1.46v1.2c0,0.52,0.06,1,0.18,1.43c0.12,0.44,0.3,0.82,0.53,1.13c0.23,0.32,0.52,0.56,0.86,0.74
			c0.34,0.18,0.73,0.27,1.17,0.27c0.83,0,1.46-0.2,1.88-0.6c0.42-0.4,0.68-1,0.78-1.8H423.65z"/>
		<path class="st2" d="M429.83,130.84c-0.04-0.12-0.08-0.27-0.1-0.44c-0.02-0.17-0.04-0.35-0.05-0.53
			c-0.12,0.15-0.25,0.29-0.41,0.43c-0.16,0.13-0.34,0.25-0.54,0.35c-0.2,0.1-0.42,0.18-0.65,0.24c-0.24,0.06-0.49,0.09-0.77,0.09
			c-0.34,0-0.65-0.05-0.93-0.15c-0.28-0.1-0.52-0.24-0.71-0.42s-0.35-0.39-0.46-0.63c-0.11-0.24-0.16-0.51-0.16-0.79
			c0-0.34,0.07-0.65,0.22-0.92c0.15-0.27,0.36-0.51,0.63-0.7s0.61-0.34,1.01-0.44c0.4-0.1,0.84-0.15,1.33-0.15h1.44v-0.8
			c0-0.5-0.15-0.89-0.46-1.18c-0.31-0.29-0.76-0.43-1.35-0.43c-0.27,0-0.52,0.04-0.75,0.11c-0.23,0.07-0.43,0.17-0.59,0.3
			c-0.17,0.13-0.3,0.28-0.39,0.45c-0.09,0.17-0.14,0.35-0.14,0.55l-0.78-0.01c0-0.26,0.06-0.52,0.19-0.76
			c0.13-0.25,0.31-0.46,0.55-0.66c0.24-0.19,0.52-0.35,0.85-0.46c0.33-0.12,0.7-0.17,1.1-0.17c0.37,0,0.71,0.05,1.03,0.14
			c0.31,0.09,0.58,0.24,0.81,0.43c0.22,0.19,0.4,0.43,0.52,0.71c0.13,0.28,0.19,0.62,0.19,1v3.39c0,0.12,0,0.25,0.01,0.38
			c0.01,0.13,0.02,0.25,0.04,0.38c0.02,0.12,0.04,0.24,0.07,0.35c0.03,0.11,0.06,0.21,0.09,0.29v0.08H429.83z M427.39,130.28
			c0.28,0,0.54-0.04,0.78-0.11c0.24-0.07,0.46-0.17,0.65-0.29c0.19-0.13,0.36-0.27,0.51-0.44c0.14-0.17,0.26-0.35,0.34-0.54v-1.54
			h-1.33c-0.4,0-0.75,0.04-1.07,0.11c-0.31,0.07-0.58,0.17-0.79,0.31c-0.22,0.13-0.38,0.3-0.5,0.49c-0.11,0.19-0.17,0.41-0.17,0.65
			c0,0.19,0.04,0.37,0.11,0.53c0.07,0.17,0.18,0.31,0.31,0.43c0.14,0.12,0.3,0.22,0.5,0.29
			C426.93,130.25,427.15,130.28,427.39,130.28z"/>
		<path class="st2" d="M435.74,124.5c-0.16-0.03-0.34-0.05-0.52-0.05c-0.26,0-0.5,0.04-0.71,0.12c-0.21,0.08-0.4,0.19-0.56,0.33
			c-0.16,0.14-0.3,0.31-0.41,0.5c-0.11,0.19-0.2,0.4-0.26,0.64v4.81h-0.77v-7.01h0.76l0.01,1.11c0.19-0.38,0.45-0.69,0.77-0.91
			c0.33-0.22,0.73-0.33,1.2-0.33c0.09,0,0.19,0.01,0.29,0.03c0.1,0.02,0.17,0.04,0.22,0.06L435.74,124.5z"/>
		<path class="st2" d="M442.61,127.41c0,0.53-0.06,1.01-0.18,1.44c-0.12,0.44-0.29,0.81-0.52,1.12c-0.23,0.31-0.51,0.56-0.84,0.73
			c-0.33,0.17-0.71,0.26-1.13,0.26c-0.51,0-0.95-0.1-1.32-0.29c-0.37-0.19-0.66-0.46-0.9-0.8l-0.03,0.96h-0.73v-9.95h0.77v3.96
			c0.23-0.36,0.53-0.64,0.89-0.85c0.36-0.2,0.79-0.3,1.3-0.3c0.43,0,0.81,0.08,1.14,0.25c0.33,0.17,0.61,0.41,0.84,0.72
			c0.23,0.31,0.41,0.69,0.52,1.12c0.12,0.44,0.18,0.93,0.18,1.47V127.41z M441.83,127.27c0-0.41-0.04-0.79-0.12-1.14
			c-0.08-0.35-0.2-0.66-0.37-0.92c-0.17-0.26-0.38-0.46-0.64-0.61c-0.26-0.15-0.57-0.22-0.93-0.22c-0.29,0-0.55,0.04-0.78,0.12
			c-0.22,0.08-0.42,0.19-0.58,0.32c-0.16,0.13-0.3,0.29-0.41,0.46c-0.11,0.17-0.2,0.35-0.27,0.54v3.16
			c0.08,0.19,0.18,0.36,0.31,0.52c0.12,0.16,0.27,0.3,0.44,0.42c0.17,0.12,0.36,0.21,0.58,0.28c0.22,0.07,0.46,0.1,0.74,0.1
			c0.35,0,0.65-0.07,0.91-0.22c0.26-0.15,0.47-0.35,0.64-0.61c0.17-0.26,0.29-0.56,0.37-0.92c0.08-0.35,0.12-0.73,0.12-1.14V127.27z
			"/>
		<path class="st2" d="M448.51,129.06c0-0.14-0.02-0.28-0.07-0.43c-0.05-0.14-0.14-0.28-0.28-0.4c-0.14-0.13-0.33-0.25-0.57-0.36
			c-0.24-0.11-0.56-0.21-0.95-0.29c-0.39-0.08-0.73-0.18-1.04-0.28c-0.3-0.11-0.56-0.24-0.77-0.39c-0.21-0.15-0.37-0.34-0.48-0.55
			c-0.11-0.21-0.16-0.46-0.16-0.74c0-0.26,0.06-0.51,0.17-0.74c0.11-0.23,0.28-0.44,0.49-0.61c0.21-0.17,0.47-0.31,0.78-0.41
			c0.3-0.1,0.65-0.15,1.03-0.15c0.41,0,0.77,0.05,1.09,0.16c0.32,0.11,0.59,0.25,0.82,0.44c0.22,0.19,0.39,0.41,0.51,0.66
			c0.12,0.25,0.17,0.53,0.17,0.83h-0.78c0-0.18-0.04-0.36-0.12-0.53c-0.08-0.17-0.2-0.32-0.35-0.46c-0.15-0.13-0.34-0.24-0.57-0.32
			c-0.23-0.08-0.48-0.12-0.77-0.12c-0.3,0-0.56,0.04-0.77,0.11c-0.21,0.07-0.39,0.17-0.52,0.28c-0.14,0.12-0.24,0.25-0.3,0.39
			c-0.06,0.14-0.09,0.29-0.09,0.44c0,0.16,0.02,0.3,0.07,0.42c0.05,0.13,0.14,0.25,0.28,0.36c0.14,0.11,0.33,0.21,0.57,0.3
			c0.24,0.09,0.56,0.18,0.95,0.28c0.42,0.1,0.79,0.21,1.09,0.33c0.31,0.12,0.56,0.26,0.76,0.43c0.2,0.17,0.35,0.36,0.45,0.57
			c0.1,0.21,0.15,0.46,0.15,0.74c0,0.29-0.06,0.55-0.18,0.79c-0.12,0.24-0.29,0.44-0.52,0.62c-0.22,0.17-0.5,0.3-0.82,0.4
			c-0.32,0.09-0.68,0.14-1.07,0.14c-0.44,0-0.84-0.06-1.18-0.17c-0.34-0.11-0.63-0.27-0.86-0.46c-0.23-0.19-0.41-0.42-0.53-0.67
			c-0.12-0.25-0.18-0.51-0.18-0.79h0.78c0.02,0.28,0.09,0.51,0.21,0.69c0.13,0.18,0.28,0.33,0.47,0.44
			c0.19,0.11,0.39,0.19,0.62,0.24c0.23,0.05,0.45,0.07,0.67,0.07c0.29,0,0.55-0.03,0.78-0.1c0.22-0.07,0.41-0.16,0.57-0.28
			c0.15-0.12,0.27-0.25,0.35-0.4C448.47,129.38,448.51,129.22,448.51,129.06z"/>
	</g>
	<g>
		<path class="st2" d="M416.81,153.05l2.4-2.86c1.37,1.24,2.71,1.96,4.31,1.96c1.86,0,3.02-0.9,3.02-2.55c0-1.55-1.32-2.45-3.2-2.45
			c-1.13,0-2.17,0.31-3.02,0.67l-2.3-1.52l0.52-8.9h11.09v3.48h-7.69l-0.21,3.12c0.72-0.18,1.37-0.31,2.37-0.31
			c3.51,0,6.32,1.7,6.32,5.83c0,3.82-2.71,6.24-6.86,6.24C420.68,155.76,418.57,154.72,416.81,153.05z"/>
		<path class="st2" d="M432.65,144.2c0-2.12,1.47-3.82,3.65-3.82c2.16,0,3.61,1.69,3.61,3.82c0,2.09-1.47,3.82-3.65,3.82
			C434.11,148.02,432.65,146.33,432.65,144.2z M445.07,140.54h2.54l-10.92,14.96h-2.54L445.07,140.54z M437.67,144.2
			c0-1-0.56-1.88-1.41-1.88c-0.9,0-1.37,0.85-1.37,1.88c0,1,0.56,1.88,1.41,1.88C437.2,146.08,437.67,145.2,437.67,144.2z
			 M441.84,151.85c0-2.12,1.47-3.82,3.65-3.82c2.16,0,3.61,1.69,3.61,3.82c0,2.09-1.47,3.82-3.65,3.82
			C443.29,155.67,441.84,153.98,441.84,151.85z M446.86,151.85c0-1-0.56-1.88-1.41-1.88c-0.9,0-1.37,0.85-1.37,1.88
			c0,1,0.56,1.88,1.41,1.88C446.39,153.73,446.86,152.85,446.86,151.85z"/>
	</g>
	<g>
		<path class="st14" d="M552.05,186.47c-5.54,12.88-15.01,27.75-27.97,32.3c-0.96,0.34-1.98,0.48-2.99,0.37
			c-1.84-0.19-3.59-0.77-4.82-1.68c-1.69-1.25-2.42-3.13-1.1-5.49c6.93-12.49,6.15-25.58-1.27-27.78
			c-5.35-1.59-14.16,8.74-14.34,22.56c-0.04,3.19-2.38,4.83-5.39,4.61c-1.86-0.14-3.98-0.98-5.97-2.59
			c-0.18-0.15-0.34-0.32-0.47-0.52c-7.14-10.83-8.17-28.12-7.32-42.47c1.08-18.24,15.96-38.46,38.09-38.48c3.38,0,8.63-0.52,11,0.13
			c2.1,0.58,6.6,3.71,9.46,5.31C559.97,144.47,559.12,170.02,552.05,186.47z"/>
		<path class="st3" d="M554.74,166.18c0,0.1,0,0.19,0,0.28c-0.01,7.13-1.7,14.24-4.27,20.21c-0.6,1.39-1.25,2.81-1.95,4.24
			c0,0,0,0,0,0c-0.08,0.17-0.16,0.34-0.25,0.51c-2.1,4.25-4.62,8.54-7.54,12.43v0c-0.13,0.17-0.25,0.33-0.38,0.5
			c-1.05,1.37-2.15,2.69-3.3,3.93c-0.27,0.29-0.54,0.58-0.81,0.86l0,0c-3.7,3.81-7.9,6.87-12.57,8.52
			c-0.98,0.35-2.03,0.49-3.07,0.37c-1.73-0.19-3.36-0.75-4.52-1.6c-1.63-1.2-2.32-3-1.06-5.27c6.66-11.99,5.91-24.58-1.22-26.69
			c-5.14-1.53-13.61,8.4-13.77,21.68c-0.04,3.07-2.28,4.64-5.18,4.43c-1.36-0.1-2.87-0.59-4.35-1.51c-1.05-0.64-1.9-1.55-2.53-2.6
			c-2.08-3.49-3.56-7.58-4.59-11.99c0.5,1.04,1.39,2.77,2.6,4.45c1.83,2.52,3.8,4.09,5.78,4.64c0.78,0.22,1.56,0.27,2.34,0.17
			c2.26-0.3,4.37-2.42,6.26-6.29c1.4-2.85,2.16-5.66,2.17-5.69l-0.4-0.11c-0.03,0.11-3.01,11-8.08,11.67
			c-6.31,0.84-10.66-9.86-10.7-9.97l-0.19,0.08c-0.36-1.67-0.66-3.38-0.89-5.12c-0.02-0.14-0.04-0.26-0.06-0.4c0,0,0,0,0-0.01
			c-0.63-4.71-0.84-9.59-0.8-14.32l0,0c0-0.09,0-0.19,0-0.28c0.02-2.21,0.11-4.39,0.23-6.5c0.42-6.98,2.91-14.15,7.1-20.23l0,0
			c0.05-0.08,0.11-0.15,0.17-0.23c3.29-4.7,7.59-8.74,12.75-11.52c0.14-0.08,0.29-0.15,0.43-0.23c1.46-0.76,3-1.43,4.59-1.98
			c0.2-0.07,0.4-0.13,0.6-0.2c0.6-0.2,1.21-0.37,1.82-0.53c0,0,0,0,0,0c5.7-1.49,12.14-1.55,19.12,0.38
			c7.82,2.16,13.6,5.7,17.73,10.07c0,0,0,0,0.01,0c0.54,0.57,1.05,1.15,1.53,1.75c0.11,0.14,0.22,0.27,0.33,0.41
			c0.99,1.26,1.86,2.58,2.62,3.94c0.05,0.09,0.1,0.17,0.14,0.26C553.49,154.07,554.72,160.13,554.74,166.18z"/>
		<path class="st15" d="M516.26,217.47c-1.9-1.11-3.09-4.22-1.6-6.79c6.88-11.87,6.23-23.56-0.9-25.67
			c-5.14-1.52-13.57,7.89-13.73,21.16c-0.04,3.07-2.13,5.87-6.79,5.09l1.59-0.67c0,0,2.7-0.4,3.5-3.25c0.7-2.51,1.41-28.65,15.85-25
			c13.94,3.53,6.12,20.58,4.39,23.7C516.83,209.16,515.08,213.91,516.26,217.47z"/>
		<g class="st16">
			<path class="st13" d="M515.98,168.5l-0.42-0.06c0.02-0.14,1.95-14.62-1.93-21.29c-4.27-7.32-10.11-11.21-11.99-12.33
				c0.14-0.08,0.29-0.15,0.43-0.23c2.11,1.29,7.76,5.21,11.92,12.35c1.67,2.86,2.51,7.36,2.5,13.38
				C516.48,164.78,515.98,168.46,515.98,168.5z"/>
		</g>
		<g class="st16">
			<path class="st13" d="M550.56,148.69l-0.06,0.2l-0.3-0.08c-17.21-4.75-27.57,20.07-27.67,20.32l-0.39-0.16
				c0.03-0.06,2.68-6.49,7.48-12.19c6.3-7.48,13.45-10.37,20.7-8.37l0.1,0.03C550.47,148.52,550.51,148.61,550.56,148.69z"/>
		</g>
		<g class="st16">
			<path class="st13" d="M514.19,167.97l-0.42,0.02c-0.01-0.15-0.63-15.26-7.55-19.08c-6.96-3.85-17.35-2.14-17.45-2.12l-0.04-0.21
				l0,0c0.06-0.08,0.11-0.15,0.17-0.23c1.5-0.22,10.99-1.42,17.53,2.2c3,1.66,5.22,5.44,6.6,11.24
				C514.04,164.07,514.19,167.93,514.19,167.97z"/>
		</g>
		<g class="st16">
			<path class="st13" d="M554.74,166.46l-0.14,0.15c-4.02-3.69-8.58-5.37-13.56-5c-9.7,0.73-17.6,8.95-17.67,9.04l-0.34-0.24
				c0.05-0.08,7.58-7.99,17.14-9.13c5.37-0.64,10.27,1.01,14.58,4.9C554.74,166.27,554.74,166.37,554.74,166.46z"/>
		</g>
		<g class="st16">
			<path class="st13" d="M511.88,171.16c-4.25-3.99-10.14-4.64-14.88-5.17c-3.91-0.43-7-0.78-7.83-2.84
				c-0.94-2.36-0.18-5.44,1.84-7.49c1.5-1.52,4.93-3.7,11.17-1.31c10.2,3.91,10.69,15.04,10.69,15.15l-0.42,0.01
				c0-0.11-0.49-10.97-10.42-14.77c-6.01-2.3-9.3-0.23-10.72,1.22c-1.88,1.9-2.61,4.86-1.75,7.04c0.73,1.84,3.71,2.16,7.48,2.58
				c4.8,0.53,10.77,1.19,15.12,5.28L511.88,171.16z"/>
		</g>
		<g class="st16">
			<path class="st13" d="M542.33,179.74c-1.34-0.37-2.88-1.1-4.59-1.91c-4.07-1.92-9.13-4.32-14.84-3.48l-0.06-0.42
				c5.84-0.86,10.97,1.57,15.09,3.52c3.32,1.57,5.94,2.81,7.62,1.7c1.79-1.18,3.4-3.48,2.98-5.95c-0.32-1.85-1.91-4.35-7.63-5.77
				c-10.33-2.56-17.31,5.67-17.38,5.75l-0.32-0.27c0.07-0.09,7.21-8.51,17.8-5.89c5.95,1.48,7.6,4.13,7.94,6.11
				c0.46,2.66-1.26,5.12-3.16,6.38C544.83,180.13,543.68,180.11,542.33,179.74z"/>
		</g>
		<g class="st16">
			<path class="st13" d="M512.64,172.96l-0.16,0.39c-0.21-0.09-20.89-8.74-30.94,0.39l-0.14-0.15l0,0c0-0.09,0-0.19,0-0.28
				C491.7,164.19,512.43,172.87,512.64,172.96z"/>
		</g>
		<g class="st16">
			<path class="st13" d="M512.47,174.73c-0.23-0.03-22.97-3.16-30.03,13.67l-0.19-0.08c-0.02-0.14-0.04-0.26-0.06-0.4
				c0-0.01,0-0.01,0-0.01c7.34-16.76,30.1-13.63,30.34-13.59L512.47,174.73z"/>
		</g>
		<g class="st16">
			<path class="st13" d="M492.99,194.12c-0.78-0.22-1.47-0.83-1.91-1.73c-0.85-1.77-0.82-4.93,1.82-8.47
				c5.54-7.42,20.42-7.36,20.57-7.35l0,0.42c-0.15,0-14.81-0.07-20.23,7.18c-2.54,3.4-2.58,6.38-1.78,8.04
				c0.47,0.97,1.23,1.55,2.1,1.58c1.06,0.03,2.09-0.75,2.9-2.2c3.21-5.73,11.93-13.73,18.84-13.72v0.42
				c-6.75-0.01-15.31,7.86-18.47,13.51c-0.89,1.59-2.06,2.45-3.28,2.41C493.36,194.2,493.18,194.17,492.99,194.12z"/>
		</g>
		<g class="st16">
			<path class="st13" d="M547.8,144.5l-0.1,0.18c-3.56-2.02-7.92,0.5-12.53,3.17c-0.86,0.5-1.75,1.01-2.62,1.49
				c-2.65,1.45-5.26,1.87-7.59,1.23c-0.18-0.05-0.35-0.11-0.53-0.17c-2.82-1-5.09-3.52-6.73-7.51c-2.57-6.23-8.54-9.25-11.04-10.28
				c0.2-0.07,0.4-0.13,0.6-0.2c2.76,1.2,8.34,4.3,10.82,10.31c1.6,3.87,3.78,6.32,6.48,7.27c2.34,0.82,5.03,0.47,7.78-1.03
				c0.87-0.48,1.75-0.99,2.61-1.49c4.54-2.63,8.84-5.12,12.52-3.4C547.59,144.22,547.69,144.36,547.8,144.5z"/>
		</g>
		<g class="st16">
			<path class="st13" d="M548.52,190.91C548.53,190.91,548.53,190.91,548.52,190.91c-0.08,0.17-0.16,0.34-0.25,0.52
				c-4.6-12.32-25.87-15.37-26.09-15.4l0.06-0.42C522.46,175.63,543.56,178.66,548.52,190.91z"/>
		</g>
		<g class="st16">
			<path class="st13" d="M540.74,203.86L540.74,203.86c-0.13,0.17-0.26,0.34-0.38,0.51l-0.1-0.01
				c2.57-18.07-18.56-27.05-18.77-27.14l0.16-0.39C521.85,176.91,542.86,185.83,540.74,203.86z"/>
		</g>
		<g class="st16">
			<path class="st13" d="M528.25,203.85c-0.18-0.05-0.36-0.12-0.52-0.21c-1.07-0.6-1.63-1.93-1.58-3.75
				c0.18-6.47-3.13-17.61-8.93-21.07l0.22-0.36c5.93,3.53,9.32,14.87,9.13,21.44c-0.05,1.66,0.44,2.86,1.36,3.37
				c0.76,0.42,1.71,0.32,2.61-0.28c1.54-1.01,3.03-3.6,2.59-7.82c-0.93-9-13.55-16.47-13.68-16.54l0.21-0.36
				c0.13,0.08,12.94,7.64,13.89,16.86c0.45,4.4-1.14,7.13-2.78,8.21C529.94,203.89,529.04,204.07,528.25,203.85z"/>
		</g>
		<g class="st16">
			<path class="st13" d="M537.05,208.29c-0.27,0.29-0.54,0.58-0.81,0.86l0,0c-0.96,0.65-2.58,1.64-4.43,2.43
				c-2.87,1.23-5.36,1.57-7.34,1.02c-0.78-0.21-1.47-0.56-2.09-1.05c-1.79-1.42-2.51-4.31-2.16-8.61c0.27-3.17,1.05-5.97,1.06-5.99
				l0.41,0.11c-0.03,0.11-3.05,10.99,0.95,14.17c4.98,3.96,14.2-3,14.3-3.07L537.05,208.29z"/>
		</g>
		<path class="st17" d="M545.94,142.33c-3.39-2.85-10.59-3.93-14.66-1.07c-2.86,2.01-11,26.32-11,26.32l-2.28-0.63
			c0,0,6.41-23.38,2.43-29.12c-2.79-4.01-11.07-5.91-11.34-5.95c5.71-1.5,12.14-1.55,19.12,0.38
			C536.03,134.42,541.81,137.96,545.94,142.33z"/>
		<path class="st13" d="M510.49,172.22c1.05-3.82,5-6.06,8.82-5.01c3.82,1.05,6.06,5,5.01,8.82c-1.05,3.82-5,6.06-8.82,5.01
			C511.68,179.99,509.44,176.04,510.49,172.22z"/>
		<path class="st15" d="M512.09,172.66c0.81-2.94,3.85-4.66,6.78-3.85c2.94,0.81,4.66,3.85,3.85,6.78
			c-0.81,2.94-3.85,4.66-6.78,3.85C513.01,178.63,511.28,175.6,512.09,172.66z"/>
	</g>
	<g>
		<path class="st18" d="M547.09,319.03h-25.66V283.2h25.76c5.57,0,10.08,4.51,10.08,10.08v15.58
			C557.27,314.48,552.71,319.03,547.09,319.03z"/>
		<path class="st13" d="M525.77,319.03h-16.01c-5.88,0-10.65-4.77-10.65-10.65v-13.56c0-6.42,5.21-11.63,11.63-11.63h14.34
			c5.45,0,9.87,4.42,9.87,9.87v16.79C534.95,314.93,530.84,319.03,525.77,319.03z"/>
		<g>
			<path class="st2" d="M511.05,293.4c0-0.17-0.03-0.32-0.08-0.45c-0.05-0.13-0.15-0.25-0.28-0.36c-0.13-0.11-0.3-0.21-0.51-0.3
				c-0.21-0.09-0.48-0.18-0.8-0.27c-0.31-0.09-0.58-0.18-0.83-0.28c-0.25-0.1-0.45-0.22-0.63-0.36c-0.17-0.14-0.3-0.3-0.4-0.47
				c-0.09-0.18-0.14-0.39-0.14-0.63c0-0.23,0.05-0.45,0.15-0.64c0.1-0.19,0.24-0.36,0.42-0.5c0.18-0.14,0.4-0.25,0.65-0.32
				c0.25-0.08,0.53-0.12,0.83-0.12c0.32,0,0.61,0.05,0.87,0.14c0.26,0.1,0.48,0.22,0.66,0.39c0.18,0.17,0.32,0.36,0.42,0.58
				c0.1,0.22,0.15,0.46,0.15,0.71h-0.52c0-0.2-0.03-0.38-0.1-0.55c-0.07-0.17-0.17-0.32-0.31-0.44c-0.13-0.12-0.3-0.22-0.49-0.29
				c-0.2-0.07-0.42-0.1-0.67-0.1s-0.47,0.03-0.66,0.09c-0.19,0.06-0.35,0.14-0.48,0.24c-0.13,0.1-0.22,0.22-0.29,0.36
				c-0.07,0.14-0.1,0.28-0.1,0.44c0,0.15,0.03,0.28,0.08,0.4c0.05,0.12,0.15,0.24,0.27,0.34c0.13,0.1,0.3,0.2,0.51,0.29
				c0.21,0.09,0.47,0.18,0.78,0.26c0.32,0.09,0.61,0.19,0.86,0.29c0.25,0.11,0.46,0.23,0.64,0.38s0.3,0.31,0.39,0.5
				c0.09,0.19,0.13,0.4,0.13,0.65c0,0.25-0.05,0.47-0.16,0.67c-0.1,0.2-0.25,0.36-0.44,0.5c-0.19,0.14-0.41,0.24-0.66,0.31
				c-0.26,0.07-0.54,0.11-0.84,0.11c-0.18,0-0.36-0.02-0.55-0.05c-0.18-0.03-0.36-0.08-0.53-0.14c-0.17-0.06-0.33-0.14-0.47-0.24
				c-0.15-0.1-0.27-0.21-0.38-0.35c-0.11-0.14-0.19-0.29-0.26-0.47c-0.06-0.17-0.09-0.37-0.09-0.58h0.52c0,0.26,0.05,0.47,0.16,0.65
				c0.11,0.18,0.24,0.32,0.41,0.43c0.17,0.11,0.36,0.19,0.57,0.24c0.21,0.05,0.42,0.07,0.63,0.07c0.24,0,0.45-0.03,0.65-0.08
				c0.19-0.05,0.36-0.13,0.5-0.23c0.14-0.1,0.24-0.22,0.32-0.36C511.01,293.74,511.05,293.58,511.05,293.4z"/>
			<path class="st2" d="M515.48,294.33c-0.14,0.21-0.33,0.37-0.57,0.48c-0.24,0.12-0.53,0.17-0.88,0.17c-0.22,0-0.43-0.03-0.61-0.09
				c-0.18-0.06-0.34-0.16-0.47-0.3c-0.13-0.14-0.23-0.31-0.3-0.53c-0.07-0.22-0.11-0.48-0.11-0.79v-2.91h0.5v2.91
				c0,0.24,0.03,0.45,0.08,0.61c0.06,0.16,0.13,0.29,0.23,0.39c0.1,0.1,0.21,0.17,0.33,0.21c0.13,0.04,0.26,0.06,0.4,0.06
				c0.2,0,0.38-0.02,0.53-0.07c0.15-0.04,0.29-0.11,0.4-0.19c0.11-0.08,0.2-0.18,0.28-0.29c0.07-0.11,0.13-0.23,0.17-0.36v-3.28h0.5
				v4.54h-0.49L515.48,294.33z"/>
			<path class="st2" d="M517.07,292.6c0-0.35,0.04-0.67,0.12-0.95c0.08-0.28,0.19-0.53,0.35-0.73c0.15-0.2,0.33-0.36,0.55-0.47
				c0.22-0.11,0.46-0.16,0.74-0.16c0.32,0,0.6,0.06,0.83,0.19c0.23,0.13,0.42,0.31,0.57,0.54l0.03-0.65h0.47v4.46
				c0,0.29-0.04,0.56-0.13,0.79c-0.09,0.23-0.21,0.43-0.37,0.59c-0.16,0.16-0.35,0.29-0.57,0.37c-0.22,0.09-0.47,0.13-0.75,0.13
				c-0.14,0-0.29-0.02-0.44-0.05c-0.15-0.03-0.29-0.08-0.43-0.14c-0.14-0.06-0.27-0.14-0.39-0.24c-0.12-0.1-0.23-0.21-0.32-0.34
				l0.28-0.3c0.18,0.23,0.38,0.39,0.59,0.5c0.21,0.1,0.43,0.16,0.68,0.16c0.22,0,0.41-0.03,0.57-0.1c0.17-0.07,0.31-0.16,0.42-0.29
				c0.11-0.12,0.2-0.28,0.26-0.45c0.06-0.18,0.09-0.38,0.09-0.61v-0.53c-0.15,0.21-0.34,0.37-0.57,0.49
				c-0.23,0.12-0.51,0.18-0.83,0.18c-0.27,0-0.51-0.06-0.73-0.17s-0.4-0.27-0.55-0.47c-0.15-0.2-0.27-0.45-0.35-0.73
				c-0.08-0.28-0.12-0.59-0.12-0.93V292.6z M517.58,292.68c0,0.27,0.03,0.51,0.08,0.74c0.05,0.23,0.13,0.43,0.24,0.59
				c0.11,0.17,0.25,0.3,0.41,0.39c0.17,0.1,0.36,0.14,0.59,0.14c0.17,0,0.33-0.02,0.47-0.06c0.14-0.04,0.26-0.1,0.37-0.17
				c0.11-0.07,0.2-0.16,0.28-0.26c0.08-0.1,0.15-0.21,0.2-0.33v-2.11c-0.05-0.12-0.11-0.23-0.18-0.34c-0.07-0.11-0.16-0.2-0.27-0.28
				c-0.1-0.08-0.23-0.15-0.37-0.2c-0.14-0.05-0.3-0.07-0.49-0.07c-0.23,0-0.43,0.05-0.6,0.14c-0.17,0.1-0.31,0.23-0.42,0.4
				c-0.11,0.17-0.19,0.37-0.24,0.6c-0.05,0.23-0.08,0.48-0.08,0.74V292.68z"/>
			<path class="st2" d="M524.9,294.91c-0.03-0.08-0.05-0.17-0.07-0.29c-0.02-0.11-0.03-0.23-0.03-0.35
				c-0.08,0.1-0.17,0.19-0.27,0.28c-0.1,0.09-0.22,0.16-0.35,0.23c-0.13,0.06-0.27,0.12-0.42,0.16c-0.15,0.04-0.32,0.06-0.5,0.06
				c-0.22,0-0.42-0.03-0.6-0.1c-0.18-0.06-0.33-0.15-0.46-0.27c-0.13-0.12-0.23-0.25-0.3-0.41c-0.07-0.16-0.1-0.33-0.1-0.51
				c0-0.22,0.05-0.42,0.14-0.6c0.1-0.18,0.23-0.33,0.41-0.45c0.18-0.12,0.4-0.22,0.65-0.28c0.26-0.07,0.54-0.1,0.86-0.1h0.93v-0.52
				c0-0.32-0.1-0.58-0.3-0.76c-0.2-0.19-0.49-0.28-0.87-0.28c-0.18,0-0.34,0.02-0.49,0.07c-0.15,0.05-0.28,0.11-0.38,0.2
				c-0.11,0.08-0.19,0.18-0.25,0.29c-0.06,0.11-0.09,0.23-0.09,0.35l-0.5,0c0-0.17,0.04-0.34,0.13-0.49c0.08-0.16,0.2-0.3,0.35-0.43
				c0.15-0.12,0.34-0.22,0.55-0.3c0.21-0.08,0.45-0.11,0.71-0.11c0.24,0,0.46,0.03,0.66,0.09c0.2,0.06,0.38,0.15,0.52,0.28
				c0.15,0.12,0.26,0.28,0.34,0.46c0.08,0.18,0.12,0.4,0.12,0.65v2.2c0,0.08,0,0.16,0.01,0.24c0.01,0.08,0.01,0.16,0.03,0.24
				c0.01,0.08,0.03,0.15,0.04,0.22c0.02,0.07,0.04,0.13,0.06,0.19v0.05H524.9z M523.32,294.54c0.18,0,0.35-0.02,0.51-0.07
				c0.16-0.05,0.3-0.11,0.42-0.19c0.13-0.08,0.23-0.18,0.33-0.28c0.09-0.11,0.17-0.22,0.22-0.35v-1h-0.86
				c-0.26,0-0.49,0.02-0.69,0.07c-0.2,0.05-0.37,0.11-0.51,0.2c-0.14,0.09-0.25,0.19-0.32,0.32c-0.07,0.12-0.11,0.26-0.11,0.42
				c0,0.12,0.02,0.24,0.07,0.35c0.05,0.11,0.12,0.2,0.2,0.28c0.09,0.08,0.19,0.14,0.32,0.19
				C523.03,294.52,523.17,294.54,523.32,294.54z"/>
			<path class="st2" d="M528.73,290.8c-0.11-0.02-0.22-0.03-0.34-0.03c-0.17,0-0.32,0.03-0.46,0.08c-0.14,0.05-0.26,0.12-0.36,0.21
				c-0.1,0.09-0.19,0.2-0.26,0.32c-0.07,0.12-0.13,0.26-0.17,0.41v3.12h-0.5v-4.54h0.49l0.01,0.72c0.12-0.25,0.29-0.45,0.5-0.59
				c0.21-0.14,0.47-0.22,0.78-0.22c0.06,0,0.12,0.01,0.19,0.02c0.06,0.01,0.11,0.02,0.14,0.04L528.73,290.8z"/>
		</g>
		<g>
			<path class="st2" d="M505.08,306.19c0-3.62,2.25-6.45,5.56-6.45c3.3,0,5.53,2.8,5.53,6.45c0,3.62-2.23,6.45-5.56,6.45
				S505.08,309.85,505.08,306.19z M513.36,306.19c0-2.26-1.11-3.97-2.75-3.97s-2.71,1.66-2.71,3.97c0,2.28,1.09,3.97,2.74,3.97
				C512.3,310.17,513.36,308.49,513.36,306.19z"/>
			<path class="st2" d="M517.54,305.16c0-1.37,0.95-2.48,2.37-2.48c1.4,0,2.34,1.09,2.34,2.48c0,1.36-0.95,2.48-2.37,2.48
				C518.48,307.64,517.54,306.55,517.54,305.16z M525.58,302.8h1.65l-7.07,9.68h-1.65L525.58,302.8z M520.79,305.16
				c0-0.65-0.36-1.22-0.91-1.22c-0.58,0-0.89,0.55-0.89,1.22c0,0.65,0.36,1.22,0.91,1.22C520.49,306.38,520.79,305.81,520.79,305.16
				z M523.49,310.11c0-1.37,0.95-2.48,2.37-2.48c1.4,0,2.34,1.09,2.34,2.48c0,1.36-0.95,2.48-2.37,2.48
				C524.43,312.59,523.49,311.5,523.49,310.11z M526.74,310.11c0-0.65-0.36-1.22-0.91-1.22c-0.58,0-0.89,0.55-0.89,1.22
				c0,0.65,0.36,1.22,0.91,1.22C526.44,311.33,526.74,310.77,526.74,310.11z"/>
		</g>
	</g>
	<g>
		<g>
			<path class="st19" d="M382.64,226.16l1.72,1.4c0,0,4.71-1.69,5.77,3.91c0,0,0.28,2.38-1.23,2.39c-1.51,0-0.89-0.26-3.03-0.2
				c-2.14,0.06-3.91-1.06-4.22-2.8l-1.02-1.47L382.64,226.16z"/>
			<path class="st20" d="M382.44,229.16c1.37-1.43,1.26-2.49,1.26-2.49s-15.9-13.02-17.51-14.08c-1.1-0.72-12.81-11.1-18.28-17.43
				c-2.72-3.14-6.08-1.92-9.93-0.82l-3.17,0.91c-3.83,1.1-4.82,6.45-1.68,9.05c8.84,7.32,23.55,15.56,26.3,17.29
				c6.83,4.3,20.21,9.4,20.21,9.4S381.26,230.39,382.44,229.16z"/>
		</g>
		<path class="st21" d="M400.59,309.14c0,0,3.86,2.89,9.77,1.36c0,0,4.77-1.09,5.81,1.29c0,0-7.31,3.71-9.16,4.73
			c-1.39,0.77-2.85,1.97-3.88,2.91c-0.81,0.74-2.08,0.64-2.78-0.21c-0.32-0.4-0.69-0.87-1.09-1.41c-1.13-1.53-3.75-6.46-3.75-6.46
			L400.59,309.14z"/>
		<path class="st2" d="M402.85,307.67c0,0-2.35,5.42-7.77,4.42c0,0-11.07-9.14-18.66-18.64c-2.47-3.08-4.57-6.21-5.8-9.06
			c-5.03-11.66-18.62-29.04-27.26-37.85l21.61-7.82c0,0,6.92,13.93,16.14,31.03C387.75,282.09,395.57,296.06,402.85,307.67z"/>
		<path class="st20" d="M381.11,269.76l-4.69,23.7c-2.47-3.08-4.57-6.21-5.8-9.06c-5.03-11.66-18.62-29.04-27.26-37.85l21.61-7.82
			C364.97,238.73,371.9,252.65,381.11,269.76z"/>
		<path class="st21" d="M363.44,312.28c0,0-0.24,4.32,5.01,4.9c0,0,2.99,0.02,3,2.77L356.22,320c0,0-0.44-1.11-0.55-3.49
			c-0.08-1.83,1.77-6.6,1.77-6.6L363.44,312.28z"/>
		<path class="st2" d="M357.89,238.73c0,0,9.63,10.58,15.74,29.64c3.33,10.37-6.1,36.45-7.93,45.51c0,0-6.32,0.54-10.64-1.13
			c0,0-0.33-18.71,2.2-33.13c1.41-8.07-12.68-17.26-18.84-31.85c-4.19-9.92,0.91-9.75,7.17-9.99L357.89,238.73z"/>
		<path class="st22" d="M346.77,191.52c-5.36,3.03-16.33,0.24-16.33,0.24s4.45-5.09,2.43-13.29l4.21,2.14l4.52,2.29
			c0,0,0.29,1.45,0.5,4.05c0.05,0.67,0.1,1.42,0.13,2.24C344.98,190.01,346.77,191.52,346.77,191.52z"/>
		<path class="st2" d="M366.41,238.18c0,0.94-1.08,1.39-1.32,1.44c-2.16,0.4-8.19,2.74-13.63,3.28c-4.58,0.48-8.83,0.02-13.49-0.91
			c-0.62-0.12-2.07-0.52-2.17-1.11c-0.13-0.65-18.01-36.44-4.11-51.82c0.33-0.36,3.07,0.29,5.58,0.88c2.32,0.55,4.44,0.24,6.34-0.52
			l2.35,1.24c2.89,1.61,8.36,7.33,9,11.82c0.32,2.28,1.63,3.97,2.01,5.98c0.14,0.74,0.28,1.47,0.43,2.18
			c0.28,1.39,0.58,2.71,0.88,3.96c0.82,3.39,1.68,6.32,2.53,8.84c0.9,2.68,1.79,4.91,2.58,6.77c1.02,2.42,1.89,4.23,2.43,5.61
			C366.2,236.8,366.41,237.56,366.41,238.18z"/>
		<path class="st20" d="M365.81,235.82c-25.23-11.89-33.97-34.72-33.97-34.72s20.5,7.56,25.56,9.53c0.28,1.39,0.58,2.71,0.88,3.96
			c0.82,3.39,1.68,6.32,2.53,8.84c0.9,2.68,1.79,4.91,2.58,6.77C364.41,232.63,365.27,234.44,365.81,235.82z"/>
		<path class="st19" d="M342.09,186.95c-5.27,0.3-8.69-4.05-8.69-4.05s2.38-1.32,3.68-2.29l4.52,2.29
			C341.6,182.9,341.89,184.34,342.09,186.95z"/>
		<path class="st22" d="M344.34,181.54c0,0-7.98,5.73-11.47,0.7c-3.49-5.03-6.87-7.67-1.92-11.54c4.95-3.87,7.28-2.65,8.86-1.25
			C341.37,170.84,346.33,179.92,344.34,181.54z"/>
		<path class="st23" d="M340.64,164.91c-0.29-1.93-0.93-3.29-0.93-3.29s-0.5,2.08-4.29,1.79c-3.79-0.29-9.8,0.37-11.81,4.69
			c-0.13,0.27-0.24,0.56-0.34,0.85c-0.36-0.96-0.45-2.39-0.45-2.39c-0.72,1.86,0,4.19,0,4.19h0c-0.01,0.07-0.02,0.14-0.03,0.2
			c-0.84,0.71-1.54,2.91-1.54,2.91c0.25-0.61,0.87-1.01,1.42-1.26c-0.02,3.36,1.35,6.65,3.74,7.63c3.5,1.43,3.47,0.34,6.99,2.67
			c0,0,0.94-1.17,0.3-1.96c-0.64-0.79-3.08-1.93-1.72-3.08c1.36-1.14,1.86,0.14,2.36-0.64c0.5-0.79-2-3.08,1.22-5.22
			C338.78,169.84,340.93,166.84,340.64,164.91z"/>
		<g>
			<path class="st22" d="M381.11,232.82c0,0,4.27,1.44,6.73,1.38c2.46-0.06,6.74-2.65,6.75-2.83c0.01-0.18-1.92-1.3-4.73-0.94
				c-2.8,0.35-3.37-0.07-2.5-0.41c0.98-0.39,1.68-0.98,1.44-1.35c-0.13-0.21-1.54,0.24-2.02,0.4c-0.48,0.16-1.68-0.28-2.68,0.44
				c-0.66,0.48-3.16,0.84-3.16,0.84L381.11,232.82z"/>
			<path class="st2" d="M382.8,231.43c0.75-2.12,1.1-3.09,1.1-3.09s-16.81-13.01-18.52-14.12c-1.16-0.76-12.76-8.98-18.48-15.47
				c-2.84-3.22-7.22-4.62-11.39-3.63l-3.44,0.81c-4.15,0.98-5.38,6.3-2.07,9c9.32,7.59,24.93,16.27,27.85,18.09
				c7.24,4.5,23.16,10.67,23.16,10.67S382.21,233.1,382.8,231.43z"/>
		</g>
	</g>
	<g>
		<path class="st24" d="M219.16,210.84c-1.3,1.15-4.77-2.81-5.24-3.34c-0.03-0.05-0.05-0.08-0.05-0.08l1.05-2.94
			c0,0,4.54-0.18,5.29,0.58C220.97,205.82,220.59,209.61,219.16,210.84z"/>
		<path class="st24" d="M214.92,204.49l-0.45,3.04c0,0-0.2,0-0.55-0.03c-1.1-0.08-3.79-0.23-6.82-0.55
			c-4.57-0.45-9.98-1.25-12.14-2.58c-3.29-2.01-8.68-8.15-12.19-14.3c-0.1-0.15-0.18-0.3-0.25-0.45c-1.83-3.26-3.11-6.5-3.21-9.08
			c-0.08-1.58,0.1-2.93,0.43-4.11c0.43-1.56,1.13-2.78,1.86-3.71c0.1-0.15,0.2-0.3,0.35-0.43c1.2-1.43,2.38-2.03,2.38-2.03
			c0.6-0.25,1.25,0.05,1.93,0.78v0.03c0.55,0.58,1.15,1.45,1.73,2.56c0.03,0.03,0.05,0.05,0.05,0.08c0.13,0.23,0.25,0.48,0.4,0.75
			c0.05,0.05,0.08,0.13,0.1,0.18c0.28,0.58,0.55,1.18,0.83,1.81c3.09,6.72,6.37,16.91,9.11,19.94c1.18,1.3,6.57,3.86,10.86,5.77
			C212.41,203.49,214.92,204.49,214.92,204.49z"/>
		<g>
			<path class="st2" d="M259.81,207.99c-0.1-0.3-0.2-0.59-0.31-0.89c-5.99-16.55-24.92-25.19-41.54-18.96
				c-16.48,6.17-25.03,24.35-19.12,40.83c0.03,0.08,0.06,0.16,0.08,0.23c3.18,8.66,3.41,18.1,0.78,26.98
				c-2.93,9.92-2.8,20.82,1.09,31.26c9.49,25.47,38.08,38.58,63.87,29.29c26.03-9.38,39.61-37.9,30.34-63.74
				c-3.79-10.55-10.81-19.03-19.56-24.72C268.08,223.46,262.56,216.33,259.81,207.99z"/>
			<path class="st25" d="M257.73,209.94c-0.09-0.28-0.19-0.55-0.29-0.83c-5.6-15.48-23.07-23.64-38.34-17.92
				c-15.14,5.67-22.91,22.59-17.38,38c0.03,0.07,0.05,0.15,0.08,0.22c2.98,8.1,3.23,16.91,0.86,25.18
				c-2.65,9.24-2.47,19.42,1.17,29.18c8.87,23.82,35.26,36.21,58.94,27.67c23.91-8.62,36.26-35.16,27.59-59.32
				c-3.54-9.87-10.05-17.81-18.13-23.18C265.41,224.42,260.3,217.73,257.73,209.94z"/>
			<path class="st3" d="M271.92,262.45c4.4,12.26-1.97,25.77-14.23,30.17c-0.66,0.24-1.32,0.44-1.98,0.62
				c-11.71,3.08-24.03-3.25-28.19-14.85c-2.78-7.74-1.26-15.97,3.31-22.1c2.68-3.59,6.4-6.45,10.93-8.08
				C254.01,243.82,267.52,250.19,271.92,262.45z"/>
			<path class="st4" d="M259.01,271.14c2.78,7.74,1.26,15.97-3.31,22.1c-11.71,3.08-24.03-3.25-28.19-14.85
				c-2.78-7.74-1.26-15.97,3.31-22.1C242.52,253.2,254.85,259.54,259.01,271.14z"/>
		</g>
		<path class="st2" d="M182.06,313.82l-3.31,1.23c0,0-14.4-19.97-16.17-37.54c-0.32-3.14-0.21-6.18,0.47-8.98
			c0,0-0.14-0.8-0.39-2.22c-0.11-0.66-0.25-1.46-0.41-2.38c-0.47-2.68-1.11-6.35-1.85-10.53c-1.69-9.62-3.89-21.91-5.59-30.94
			l0.89-0.29l9.66-3.12l2-6.34l7.2-1.89c0,0,1.61,3.14,3.04,18c0.27,1.95,0.51,4.1,0.69,6.43c0.56,7.11,0.6,15.93-0.68,26.02
			c-0.33,2.58-0.75,5.25-1.26,7.99c-0.38,2.01-0.44,4.74-0.28,7.89C176.79,291.5,182.06,313.82,182.06,313.82z"/>
		<path class="st20" d="M178.29,235.24l-15.63,31.07c-0.11-0.66-0.25-1.46-0.41-2.38c-0.47-2.68-1.11-6.35-1.85-10.53
			c-1.69-9.62-3.89-21.91-5.59-30.94l0.89-0.29l9.66-3.12l2-6.34l7.2-1.89c0,0,1.61,3.14,3.04,18
			C177.87,230.76,178.11,232.91,178.29,235.24z"/>
		<path class="st2" d="M171.42,214.8l-0.36-3.1c-6.06,1.61-22.25-4.5-22.25-4.5s-5.87,5.16-5.1,17.53
			c0.38,6.04,1.06,31.7,1.78,39.29c0.26,2.75,0.49,4.71,0.58,5.49c0,0,0,0.01,0,0.01c0.03,0.24-0.05,0.46-0.18,0.67
			c-1.06,1.79-1.93,3.66-2.65,5.57c-7.05,18.77,1.09,41.89,1.09,41.89l2.11-0.85c0,0,4.63-25.73,8.39-37.1
			c0.64-1.93,1.25-3.44,1.81-4.35c1.63-2.64,3.15-6.95,4.53-12.08c2.6-9.69,4.7-22.3,6.09-32.03
			C167.44,231.26,171.42,214.8,171.42,214.8z"/>
		<path class="st26" d="M182.99,177.18c-1.9,0.88-4.2,1.48-6.98,1.63c-10.42,0.57-12.78-8.56-13.21-14.62
			c1.5-0.54,2.82-0.49,3.57-0.45c0.74,0.04,1.51,0.12,2.15,0.19c1.27-0.67,3.56-3.9,4.89-9.31l0.45,0.21l7.52,3.53
			c0,0-0.8,2.45-1.39,4.79c-0.46,1.83-0.79,3.6-0.51,4.1c0.59,0.24,0.95,0.39,0.95,0.39s0,0,0,0.01
			C180.5,167.84,182.13,172,182.99,177.18z"/>
		<path class="st3" d="M185.6,184.01c-0.08,0.21-0.17,0.41-0.26,0.62c-2.64,5.68-7.52,29.22-7.52,29.22
			c0.7,4.23-31.81-0.83-31.89-4.68c-1.14-4.09,4.06-10.65,7-13.95c0.37-0.41,0.7-0.86,0.99-1.33c0.73-1.17,1.19-2.5,1.33-3.89
			c0.58-5.46,0.36-10.58,0.41-13.7c0,0,0,0,0,0c0.57-0.42,1.13-0.82,1.65-1.19c0.79-0.58,1.49-1.12,2-1.66
			c0.57-0.6,0.92-1.2,0.96-1.89c0.03-0.52,0.01-1.05-0.04-1.59c-0.02-0.25-0.06-0.5-0.09-0.75c-0.41-2.64-1.51-5.04-1.51-5.04
			c2.8-1.13,7.77-0.46,7.77-0.46s-0.01,0.28-0.01,0.73c-0.02,1.82,0,6.48,0.58,7.36c0.73,1.1,14.05,5.91,14.75,4.42
			c0.69-1.47-1.2-8.34-1.27-8.6c0-0.01,0-0.01,0-0.01c4.46,1.75,6.05,3.22,6.05,3.22C183.79,172.6,187.68,178.5,185.6,184.01z"/>
		<path class="st27" d="M176.63,134.91c-0.02-0.45-0.37-5.32-7.78-5.57c0,0,3.65,0.43,4.28,2.04c0,0-2.48-1.98-4.5-1.34
			c-2.02,0.64-3.21,4.18-3.22,5.34c-0.01,1.16,1.11,4.92,2.39,5.24c0.49,0.12,1.05,0.09,1.55,0c-0.34,0.53-0.68,1.12-1,1.78
			c-2.96,6.07,0.09,12.01,2.6,11.35c1.61-0.42,2.06,2.32,2.06,2.32l15.61-12.63C188.62,143.43,182.88,131.57,176.63,134.91z"/>
		<path class="st24" d="M181.38,158.36c0,0-0.8,2.44-1.39,4.79c-4.39-1.23-5.73-5.85-6.13-8.32L181.38,158.36z"/>
		<path class="st26" d="M182.3,160.95c0,0-10.51-2.43-8.9-8.96c1.62-6.52,1.35-11.23,8.13-9.95c6.78,1.28,7.46,4.09,7.45,6.4
			C188.98,150.75,185.08,161.42,182.3,160.95z"/>
		<path class="st27" d="M189.58,144.73c-1.13-2.36-2.46-2.24-3.29-1.82c-4.94-4.57-9.79-0.84-9.79-0.84
			c-1.87,4.51-5.91,6.35-5.91,6.35s1.62,1.65,6.3,1.62c1.43-0.01,2.87-0.67,4.18-1.57c-2.52,2.54-5.48,4.09-5.48,4.09
			c5.86-1.12,9.79-7.91,10.19-8.63c0.5,0.73,1.45,2.29,1.53,3.61c0.11,1.79-0.51,5.27,0.52,5.4
			C187.82,152.94,191.27,148.28,189.58,144.73z"/>
		<path class="st3" d="M186.48,170.86c0,0,2.53,4.42,2.91,5.55c0,0-3.28-0.13-4.61,2.4C184.78,178.81,184.46,171.45,186.48,170.86z"
			/>
		<path class="st4" d="M169.07,205.95c-6.41-0.07-11.84-6.73-15.16-12.05c0.73-1.17,1.19-2.5,1.33-3.89
			c0.58-5.46,0.36-10.58,0.41-13.7c0,0,0,0,0,0c0.57-0.42,1.13-0.82,1.65-1.19c0.79-0.58,1.49-1.12,2-1.66
			C164.54,182.34,177.76,206.04,169.07,205.95z"/>
		<path class="st26" d="M203.42,212.22c-0.56,0.43-5.01,2.17-6.7,1.63c-0.95-0.3-4.24-1.11-5.57-1.44c-0.53-0.1-2.42-0.47-2.42-0.47
			l1.43-4.16c0,0,0.05,0.01,0.18,0.05c0.54,0.19,1.59,0.71,2.96,0.91c1.69,0.25,3.8-0.81,4.89-0.21c2.32,1.27,5.52-0.02,6.26,0.66
			C205.01,209.7,204.81,211.16,203.42,212.22z"/>
		<path class="st26" d="M193.3,209.43l-0.88,3.21c0,0-1.1-0.2-2.86-0.53c-0.53-0.1-0.83-0.18-0.83-0.18
			c-1.4-0.28-3.09-0.65-4.92-1.05h-0.03c-3.14-0.75-6.65-1.66-9.61-2.66c-2.08-0.73-3.89-1.5-5.12-2.28
			c-0.13-0.08-0.23-0.15-0.35-0.25c-2.93-2.13-6.42-8.4-9.13-15.13c-0.38-0.93-0.73-1.86-1.08-2.76c-1.25-3.36-2.26-6.67-2.86-9.53
			c-0.38-1.71-0.63-3.26-0.68-4.54c-0.03-0.45-0.05-0.88-0.03-1.28c0.05-7.27,3.66-8.28,3.66-8.28c0.08-0.03,0.15-0.05,0.25-0.08
			c0.63-0.1,1.28,0.33,1.96,1.15c0.85,1.03,1.76,2.71,2.68,4.74c1.43,3.24,2.93,7.43,4.34,11.59c0.78,2.28,1.53,4.57,2.28,6.67
			c0.43,1.28,0.85,2.48,1.25,3.59c0.78,2.11,1.48,3.81,2.11,4.89c0.4,0.7,1.56,1.68,3.09,2.78c2.66,1.93,6.55,4.26,9.93,6.17
			c1.4,0.8,2.73,1.53,3.84,2.13C192.12,208.81,193.3,209.43,193.3,209.43z"/>
		<path class="st3" d="M163.49,170.01c-4.83-1.33-8.55,2.44-8.55,2.44c0.06-7.26,3.68-8.26,3.68-8.26
			C160.06,163.59,161.75,166.11,163.49,170.01z"/>
		<path class="st21" d="M156.59,319.38h-16.7c0,0-0.4-2.54,0.47-4.47c0.84-1.85,2.14-2.69,1.83-4.94c1.06,1.09,2.79,2.32,5.2,1.99
			c0.3,0.48,1.91,3.05,2.9,3.76C151.39,316.5,156.25,316.22,156.59,319.38z"/>
		<path class="st21" d="M192.44,319.38h-16.7c0,0-0.62-2.66,0.47-4.47c0.97-1.6,0.6-2.52-0.12-3.84c0.76,0.31,1.73,0.59,2.81,0.53
			c0.83-0.05,1.71-0.43,2.48-0.87c0.72,0.82,3.8,4.31,4.76,5C187.24,316.5,192.1,316.22,192.44,319.38z"/>
		<path class="st26" d="M194.16,209.16c0,0,1.43-0.93,3.53-1.64c1.31-0.44,3.04-0.92,2.98-0.44c-0.05,0.48-2.77,1.76-2.82,1.97
			C197.79,209.27,194.16,209.16,194.16,209.16z"/>
	</g>
	<g>
		<path class="st28" d="M285.51,272.81c11.18-7.86,21.25-1.41,29.12,9.77s9.9,23.21-1.27,31.07c-11.18,7.86-37.26,7.61-42.7-0.13
			C266.36,307.42,274.34,280.67,285.51,272.81z"/>
		<g>
			<g>
				<path class="st29" d="M299.53,275.28c-0.4,0.28-1.82,0.2-1.82,0.2s0.4-1.37,0.8-1.65c0.4-0.28,0.95-0.19,1.24,0.21
					S299.94,274.99,299.53,275.28z"/>
				<path class="st29" d="M299.22,280.36c-0.4,0.28-1.82,0.2-1.82,0.2s0.4-1.37,0.8-1.65c0.4-0.28,0.95-0.19,1.24,0.21
					C299.72,279.52,299.62,280.08,299.22,280.36z"/>
				<path class="st29" d="M304.68,282.58c-0.4,0.28-1.82,0.2-1.82,0.2s0.4-1.37,0.8-1.65c0.4-0.28,0.95-0.19,1.24,0.21
					C305.17,281.75,305.08,282.3,304.68,282.58z"/>
				<path class="st29" d="M306.1,290.14c-0.4,0.28-1.82,0.2-1.82,0.2s0.4-1.37,0.8-1.65c0.4-0.28,0.95-0.19,1.24,0.22
					C306.6,289.3,306.5,289.86,306.1,290.14z"/>
				<path class="st29" d="M311.3,292.77c-0.4,0.28-1.82,0.2-1.82,0.2s0.4-1.37,0.8-1.65c0.4-0.28,0.95-0.19,1.24,0.21
					C311.8,291.94,311.7,292.49,311.3,292.77z"/>
				<path class="st29" d="M312.35,299.02c-0.4,0.28-1.82,0.2-1.82,0.2s0.4-1.37,0.8-1.65c0.4-0.28,0.95-0.19,1.24,0.21
					C312.85,298.19,312.76,298.74,312.35,299.02z"/>
				<path class="st29" d="M317.02,300.9c-0.4,0.28-1.82,0.2-1.82,0.2s0.4-1.37,0.8-1.65c0.4-0.28,0.95-0.19,1.24,0.21
					C317.52,300.07,317.42,300.62,317.02,300.9z"/>
			</g>
			<g>
				<path class="st29" d="M290.46,278.18c-0.48,0.34-2.18,0.24-2.18,0.24s0.48-1.63,0.96-1.97c0.48-0.34,1.14-0.22,1.48,0.26
					C291.05,277.18,290.93,277.84,290.46,278.18z"/>
				<path class="st29" d="M290.08,284.25c-0.48,0.34-2.18,0.24-2.18,0.24s0.48-1.63,0.96-1.97c0.48-0.34,1.14-0.22,1.48,0.26
					C290.67,283.26,290.56,283.92,290.08,284.25z"/>
				<path class="st29" d="M296.6,286.91c-0.48,0.34-2.18,0.24-2.18,0.24s0.48-1.63,0.96-1.97c0.48-0.34,1.14-0.22,1.48,0.26
					C297.19,285.91,297.08,286.57,296.6,286.91z"/>
				<path class="st29" d="M298.3,295.94c-0.48,0.34-2.18,0.24-2.18,0.24s0.48-1.63,0.96-1.97c0.48-0.34,1.14-0.22,1.48,0.26
					C298.9,294.94,298.78,295.6,298.3,295.94z"/>
				<path class="st29" d="M304.51,299.09c-0.48,0.34-2.18,0.24-2.18,0.24s0.48-1.63,0.96-1.97c0.48-0.34,1.14-0.22,1.48,0.26
					C305.11,298.09,304.99,298.75,304.51,299.09z"/>
				<path class="st29" d="M305.77,306.56c-0.48,0.34-2.18,0.24-2.18,0.24s0.48-1.63,0.96-1.97c0.48-0.34,1.14-0.22,1.48,0.26
					S306.25,306.22,305.77,306.56z"/>
				<path class="st29" d="M311.35,308.8c-0.48,0.34-2.18,0.24-2.18,0.24s0.48-1.63,0.96-1.97c0.48-0.34,1.14-0.22,1.48,0.26
					S311.83,308.46,311.35,308.8z"/>
			</g>
			<g>
				<path class="st29" d="M274.54,298.96c-0.26,0.18-1.17,0.13-1.17,0.13s0.26-0.88,0.52-1.06s0.61-0.12,0.79,0.14
					C274.86,298.42,274.8,298.78,274.54,298.96z"/>
				<path class="st29" d="M274.34,302.22c-0.26,0.18-1.17,0.13-1.17,0.13s0.26-0.88,0.52-1.06c0.26-0.18,0.61-0.12,0.79,0.14
					C274.66,301.69,274.6,302.04,274.34,302.22z"/>
				<path class="st29" d="M277.85,303.65c-0.26,0.18-1.17,0.13-1.17,0.13s0.26-0.88,0.52-1.06c0.26-0.18,0.61-0.12,0.79,0.14
					C278.17,303.11,278.1,303.47,277.85,303.65z"/>
				<path class="st29" d="M278.76,308.5c-0.26,0.18-1.17,0.13-1.17,0.13s0.26-0.88,0.52-1.06s0.61-0.12,0.79,0.14
					C279.08,307.97,279.02,308.32,278.76,308.5z"/>
				<path class="st29" d="M282.1,310.19c-0.26,0.18-1.17,0.13-1.17,0.13s0.26-0.88,0.52-1.06s0.61-0.12,0.79,0.14
					S282.36,310.01,282.1,310.19z"/>
				<path class="st29" d="M282.78,314.21c-0.26,0.18-1.17,0.13-1.17,0.13s0.26-0.88,0.52-1.06c0.26-0.18,0.61-0.12,0.79,0.14
					C283.1,313.67,283.04,314.03,282.78,314.21z"/>
				<path class="st29" d="M285.78,315.42c-0.26,0.18-1.17,0.13-1.17,0.13s0.26-0.88,0.52-1.06c0.26-0.18,0.61-0.12,0.79,0.14
					C286.09,314.88,286.03,315.24,285.78,315.42z"/>
			</g>
			<g>
				<path class="st29" d="M278.89,292.5c-0.33,0.23-1.52,0.17-1.52,0.17s0.33-1.14,0.67-1.37c0.33-0.23,0.79-0.15,1.03,0.18
					C279.31,291.8,279.23,292.27,278.89,292.5z"/>
				<path class="st29" d="M278.63,296.73c-0.33,0.23-1.52,0.17-1.52,0.17s0.33-1.14,0.67-1.37c0.33-0.23,0.79-0.15,1.03,0.18
					C279.05,296.04,278.97,296.5,278.63,296.73z"/>
				<path class="st29" d="M283.17,298.58c-0.33,0.23-1.52,0.17-1.52,0.17s0.33-1.14,0.67-1.37c0.33-0.23,0.79-0.15,1.03,0.18
					C283.59,297.89,283.51,298.35,283.17,298.58z"/>
				<path class="st29" d="M284.36,304.87c-0.33,0.23-1.52,0.17-1.52,0.17s0.33-1.14,0.67-1.37c0.33-0.23,0.79-0.15,1.03,0.18
					C284.77,304.17,284.69,304.64,284.36,304.87z"/>
				<path class="st29" d="M288.68,307.06c-0.33,0.23-1.52,0.17-1.52,0.17s0.33-1.14,0.67-1.37c0.33-0.23,0.79-0.15,1.03,0.18
					C289.1,306.37,289.02,306.83,288.68,307.06z"/>
				<path class="st29" d="M289.56,312.26c-0.33,0.23-1.52,0.17-1.52,0.17s0.33-1.14,0.67-1.37c0.33-0.23,0.79-0.15,1.03,0.18
					C289.98,311.57,289.9,312.03,289.56,312.26z"/>
				<path class="st29" d="M293.45,313.83c-0.33,0.23-1.52,0.17-1.52,0.17s0.33-1.14,0.67-1.37c0.33-0.23,0.79-0.15,1.03,0.18
					C293.86,313.13,293.78,313.59,293.45,313.83z"/>
			</g>
			<g>
				<path class="st29" d="M283.78,285.84c-0.41,0.29-1.85,0.2-1.85,0.2s0.41-1.39,0.81-1.67c0.41-0.29,0.97-0.19,1.25,0.22
					C284.28,284.99,284.18,285.55,283.78,285.84z"/>
				<path class="st29" d="M283.46,290.99c-0.41,0.29-1.85,0.2-1.85,0.2s0.41-1.39,0.81-1.67c0.41-0.29,0.97-0.19,1.25,0.22
					C283.96,290.14,283.87,290.7,283.46,290.99z"/>
				<path class="st29" d="M288.98,293.24c-0.41,0.29-1.85,0.2-1.85,0.2s0.41-1.38,0.81-1.67c0.41-0.29,0.97-0.19,1.25,0.22
					C289.49,292.39,289.39,292.95,288.98,293.24z"/>
				<path class="st29" d="M290.43,300.89c-0.41,0.29-1.85,0.2-1.85,0.2s0.41-1.39,0.81-1.67c0.41-0.29,0.97-0.19,1.25,0.22
					C290.93,300.04,290.83,300.6,290.43,300.89z"/>
				<path class="st29" d="M295.69,303.55c-0.41,0.29-1.85,0.2-1.85,0.2s0.41-1.39,0.81-1.67c0.41-0.29,0.97-0.19,1.25,0.22
					C296.19,302.71,296.1,303.27,295.69,303.55z"/>
				<path class="st29" d="M296.76,309.89c-0.41,0.29-1.85,0.2-1.85,0.2s0.41-1.39,0.81-1.67c0.41-0.29,0.97-0.19,1.25,0.22
					C297.26,309.04,297.17,309.6,296.76,309.89z"/>
				<path class="st29" d="M301.48,311.79c-0.41,0.29-1.85,0.2-1.85,0.2s0.41-1.39,0.81-1.67c0.41-0.29,0.97-0.19,1.25,0.22
					C301.99,310.94,301.89,311.5,301.48,311.79z"/>
			</g>
		</g>
		<path class="st2" d="M313.41,282.04c0,0,8.48-6.78,16.88-3.33c0,0-0.87,1.02-1.49,1.46c-0.62,0.44-6.59-2.74-15.15,3.01
			L313.41,282.04z"/>
		<path class="st2" d="M314.52,281.72c0,0-2.48-6.59-8.43-8.26c0,0,3.91,3.83,4.24,4.99c0,0-1.61-0.69-4.25,0.82
			c0,0,4.36,0.92,5.23,3.46c0.87,2.53,0.18,7.22,0.18,7.22s3.57-1.68,3.58-3.57c0,0,3.29,2.43,5.16,7.28
			C320.23,293.68,319.43,286.28,314.52,281.72z"/>
	</g>
	<g>
		<path class="st30" d="M301.63,306.69c0,6.76-6.49,12.24-14.5,12.24c-8.01,0-14.5-5.48-14.5-12.24c0-6.76,6.49-12.24,14.5-12.24
			C295.14,294.45,301.63,299.93,301.63,306.69z"/>
		<ellipse class="st31" cx="292.99" cy="302.27" rx="3.75" ry="3.17"/>
	</g>
</g>
</svg>
