<?xml version="1.0" encoding="utf-8"?>
<!-- Generator: Adobe Illustrator 23.0.5, SVG Export Plug-In . SVG Version: 6.00 Build 0)  -->
<svg version="1.0" id="Layer_1" xmlns="http://www.w3.org/2000/svg" xmlns:xlink="http://www.w3.org/1999/xlink" x="0px" y="0px"
	 viewBox="0 0 624 320" style="enable-background:new 0 0 624 320;" xml:space="preserve">
<style type="text/css">
	.st0{opacity:0.3;fill:#35B24A;}
	.st1{fill:#EBF3FA;}
	.st2{fill:#00A26D;}
	.st3{fill:#015E3A;}
	.st4{fill:#F2A245;}
	.st5{fill:#EF6A1C;}
	.st6{fill:#FFC22A;}
	.st7{fill:#ED8D24;}
	.st8{fill:#EAEAEA;}
	.st9{fill:#EE8914;}
	.st10{fill:#F7CC7F;}
	.st11{fill:#FFFFFF;}
	.st12{fill:#FB9900;}
	.st13{fill:#FF7042;}
	.st14{fill:#FFBB99;}
	.st15{fill:#FF4A1E;}
	.st16{fill:#FF9F23;}
	.st17{fill:#184655;}
	.st18{fill:#FFB792;}
	.st19{fill:#D8B275;}
	.st20{fill:#F2AC8C;}
	.st21{fill:#FFB894;}
	.st22{fill:#C8D1CE;}
</style>
<g>
	<rect class="st0" width="624" height="320"/>
	<path class="st1" d="M59.76,319.85c0,0-70.65-73.11-11.95-152.26c52.08-70.23,112.8-65.43,157.35-36.93
		c18.97,12.14,73.68,1.5,120.24-69.96c63.5-97.45,283.6-38.35,243.47,111.58c-19.42,72.55,59.11,75.19,19.09,147.72L59.76,319.85z"
		/>
</g>
<g>
	<g>
		<path class="st2" d="M322.95,110.59c-0.02,0.3-0.04,0.45-0.04,0.45s-0.07-0.15-0.2-0.44c-1.07-2.4-6.32-14.24-11.09-27.42
			c-6.6-18.24-12.29-39.05-4.8-40.97c14.2-3.65,16.81,25.49,16.85,47C323.7,99.8,323.1,108.54,322.95,110.59z"/>
		<path class="st2" d="M339.14,86.91c-5.13,8.25-9.58,15.19-12.14,19.35c-1.11,1.81-1.86,3.09-2.15,3.73
			c0.25-1.03,0.92-3.78,1.87-7.7c0,0,0,0,0-0.01c1.43-5.88,3.52-14.36,5.8-23.58c5.55-22.4,12.3-49.09,13.87-52.91
			c2.78-6.73,15.6-21.06,24.22-8.59C376.22,25.3,354.6,62.04,339.14,86.91z"/>
		<path class="st2" d="M342.47,99.77c-5.3,4.06-9.76,7.35-12.25,9.17c-1.36,1-2.13,1.55-2.13,1.55s1.36-2.1,3.67-5.45
			c2.19-3.17,5.22-7.45,8.77-12.14c11.63-15.36,28.75-35.05,39.36-33.92C392.01,60.28,361.69,85.06,342.47,99.77z"/>
		<path class="st3" d="M322.95,110.59c-0.07,0-0.15,0.01-0.23,0.01c-1.07-2.4-6.32-14.24-11.09-27.42
			c2.22,2.42,6.25,5.66,12.05,6.03C323.7,99.8,323.1,108.54,322.95,110.59z"/>
		<path class="st3" d="M339.14,86.91c-5.13,8.25-9.58,15.19-12.14,19.35c-0.19-1.16-0.28-2.51-0.28-3.98c0,0,0,0,0-0.01
			c1.43-5.88,3.52-14.36,5.8-23.58C333.42,81.91,335.28,85.48,339.14,86.91z"/>
		<path class="st3" d="M342.47,99.77c-5.3,4.06-9.76,7.35-12.25,9.17c0.24-1.05,0.8-2.4,1.54-3.9c2.19-3.17,5.22-7.45,8.77-12.14
			C340.61,94.87,341,97.8,342.47,99.77z"/>
	</g>
	<path class="st4" d="M326.03,109.79c-0.06,0.34-0.1,0.52-0.1,0.52C325.88,110.29,325.91,110.11,326.03,109.79z"/>
	<path class="st5" d="M332.52,145.12c-8.11,21.79-18.21,45.55-18.21,45.55l-22.82-6.49c0,0,2.67-16.14,6.59-34.1
		c4.57-20.94,7.18-42.07,16.57-47.57c2.58-1.51,5.37-2.21,8.1-2.4c1.38-0.1,2.75-0.05,4.08,0.11c0.32,0.04,0.63,0.09,0.95,0.14
		c0.79,0.13,1.57,0.31,2.33,0.52c0.3,0.08,0.59,0.17,0.88,0.27c1.01,0.32,1.99,0.72,2.92,1.16c3.95,1.91,7.13,4.77,8.38,7.87
		C346.04,119.51,338.65,128.66,332.52,145.12z"/>
	<g>
		<path class="st6" d="M321.36,166.41c-6.76,19.43-8.76,40.76-5.99,63.51c0.46,3.79,2.69,7.09,5.91,9.11
			c1.44,0.91,3.08,1.55,4.85,1.88c3.97-0.02,11.8-6.86,16.28-15.59c1.23-2.4,2.21-4.94,2.78-7.53c4.49-20.2,12.8-44.51,23.11-56.94
			c10.54-12.71,24.75-27.9,44.28-38.35c0,0,0,0,0.01,0c1.88-1.02,46.2-31.63,46.2-31.63c4.41-4.42-0.81-9.37-0.81-9.37
			s-4.21,3.5-17.05,10.51c-12.84,7.01-35.38-1.21-35.39-1.21c-6.32-2.71-13.81-2.43-20.02,1.14c-9.58,5.51-22.33,14.21-34.43,26.73
			C337.49,132.75,327.48,148.81,321.36,166.41z"/>
		<path class="st7" d="M345.2,217.79c4.49-20.2,12.8-44.51,23.11-56.94c10.54-12.71,24.75-27.9,44.28-38.35c0,0,0,0,0.01,0
			c0.34-0.23,13.55-9.47-1.09-17.84c-14.33-8.19-72.83,52.81-69.09,120.67C343.65,222.92,344.63,220.38,345.2,217.79z"/>
	</g>
	<g>
		<path class="st2" d="M294.93,147.33c-1.64,2.45-3.66,4.82-6.04,7.04c-9.01,8.42-23.16,14.66-41.37,14.5c0,0-7.65-6.91-11.35-15.71
			l0,0c-2.57-6.1-4.45-15.08,0-21.75c2.86-4.3,6.55-6.33,10.28-7.4c6.34-1.83,12.83-0.89,15.66-3.57c2.8-2.64,6.77-4.92,11.14-6.24
			c0.71-0.22,1.44-0.41,2.17-0.56h0c0.3-0.07,0.6-0.13,0.91-0.19c0.01,0,0.01,0,0.02,0c6.73-1.25,13.93-0.03,18.93,5.67
			c1.16,1.32,2.21,2.91,3.11,4.83C301.6,130.78,300.22,139.44,294.93,147.33z"/>
		<path class="st8" d="M241.96,130.41c0,0-6.01,4.47-4.17,9.42c1.84,4.95,6.59,2.66,8.08-0.77
			C247.35,135.64,245.91,128.75,241.96,130.41z"/>
		<path class="st3" d="M295.29,119.11c1.16,1.32,2.21,2.92,3.11,4.83c3.2,6.83,7.6,24.95,2.31,32.84l-7.1,6.16
			c-9.01,8.42-27.87,6.08-46.08,5.92c0,0-7.64-6.91-11.35-15.71l0,0c0,0,22.53,8.45,43.75-9.19
			C289.55,135.94,293.66,126.76,295.29,119.11z"/>
		<g>
			<path class="st5" d="M260.93,110.1c-3.72-2.1-7.48,0.85-11.85,2.47c-4.37,1.62-12.78,1.59-12.78,1.59s3.46-4.72,9.12-9.41
				C251.09,100.06,260.93,110.1,260.93,110.1z"/>
			<path class="st5" d="M260.93,110.1c-3.49-2.72-9.96-4.28-13.11-3.06c-3.15,1.22-11.51,7.11-11.51,7.11s3.46-4.72,9.12-9.41
				C251.09,100.06,260.93,110.1,260.93,110.1z"/>
		</g>
		<path class="st3" d="M262.11,120.44c2.8-2.64,6.77-4.92,11.14-6.24c-7.43,2.64-11.52,11.57-14.34,10.53
			c-3.02-1.11-12.12-0.75-12.46-0.73C252.79,122.17,259.28,123.12,262.11,120.44z"/>
		<path class="st9" d="M276.34,113.45c-0.23,0.06-0.54,0.13-0.91,0.19C275.73,113.57,276.03,113.51,276.34,113.45z"/>
		<g>
			<path class="st5" d="M259.43,124.56L259.43,124.56c-2.38-4.99-1.09-11.18,0.4-15.5c1.19-3.43,3.48-8.07,4.61-10.27
				c0.24-0.47,0.95-0.42,1.12,0.07l0.45,1.3c0.45,1.3,0.29,2.73-0.46,3.9c-2.3,3.61-6.93,12.05-4.84,18.99
				C260.95,123.83,259.86,125.45,259.43,124.56z"/>
		</g>
	</g>
	<g>
		<g>
			<path class="st10" d="M308.2,142.69l-0.74-0.28c3.28-4.63,8.37-7.8,12.38-9.27c3.51-1.29,6.32-1.71,7.32-1.83
				c0.24-0.03,0.49,0.06,0.65,0.24l0.62,0.69c0.31,0.34,0.09,0.88-0.37,0.95C324.47,133.66,313.16,135.7,308.2,142.69z"/>
		</g>
		<path class="st10" d="M294.25,144.01c3.76-8.91,9.06-6.9,15.59-4.42c6.53,2.48,11.83,4.49,8.06,13.4
			c-2.7,6.39-10.18,9.55-16.71,7.08C294.66,157.59,291.55,150.4,294.25,144.01z"/>
		<path class="st11" d="M298.21,142.17c0.24-1.6,2.95-3.28,4.63-3.06c1.68,0.22,2.47,2.01,2.23,3.61c-0.24,1.6-2.56,2.97-4.24,2.75
			C299.15,145.24,297.97,143.77,298.21,142.17z"/>
	</g>
	<path class="st12" d="M385.18,150.62l20.17,136.27c2.5,16.9-11.34,32-29.33,32h-30.39c-15.35,0-27.3-12.64-25.63-27.11
		l17.07-126.76L385.18,150.62z"/>
	<path class="st12" d="M279.24,150.62c0,0,48.9,15.81,105.94,0l-16.81,168.7H261.93L279.24,150.62z"/>
	<path class="st5" d="M279.24,150.62l20.17,136.62c2.5,16.94-11.34,32.08-29.33,32.08h-30.39c-15.35,0-27.3-12.67-25.63-27.18
		l14.45-141.52c0,0,7.12,1.32,24.44,1.32C270.1,151.94,279.24,150.62,279.24,150.62z"/>
	<path class="st11" d="M369.72,165.81c0-1.98-1.7-3.59-3.79-3.59c-2.09,0-3.79,1.61-3.79,3.59c0,1.33,0.76,2.48,1.89,3.1
		c1.61,12.09-0.93,21.97-7.25,28.02c-5.75,5.5-14.46,7.54-25.21,5.9c-9.45-1.45-15.66-11.36-19.22-19.42
		c-2.55-5.8-4.13-11.51-4.94-14.9c0.8-0.66,1.31-1.63,1.31-2.71c0-1.98-1.7-3.59-3.79-3.59c-2.09,0-3.79,1.61-3.79,3.59
		c0,1.34,0.77,2.5,1.92,3.12c2.04,8.86,9.58,35.17,27.82,37.96c2.66,0.41,5.21,0.61,7.64,0.61c8.75,0,16.03-2.6,21.33-7.67
		c7.25-6.94,10.21-17.96,8.49-31.25C369.18,167.92,369.72,166.92,369.72,165.81z"/>
	<g>
		<g>
			<path class="st13" d="M454.09,201.44c2.56,0.81,5.33,1.36,8.27,1.62c11.12,1,24.47-2.21,36.83-11.95c0,0,1.17-8.77-1.47-16.75
				l0,0c-1.83-5.53-5.82-12.67-12.78-14.88c-4.48-1.42-8.2-0.87-11.38,0.37c-5.42,2.1-9.3,6.18-12.81,5.84
				c-3.46-0.33-7.53,0.21-11.29,1.62c-0.62,0.23-1.22,0.48-1.82,0.76l0,0c-0.25,0.11-0.49,0.23-0.73,0.35c-0.01,0-0.01,0-0.02,0.01
				c-5.34,2.71-9.54,7.34-9.62,13.88c-0.02,1.52,0.2,3.16,0.71,4.95C439.8,193.65,445.83,198.85,454.09,201.44z"/>
			<path class="st14" d="M480.39,161.87c0,0,6.74-0.12,8.39,4.24c1.65,4.36-2.94,5.31-5.98,3.75
				C479.77,168.3,476.71,162.83,480.39,161.87z"/>
			<path class="st15" d="M437.26,182.33c-0.02,1.52,0.2,3.17,0.71,4.95c1.82,6.37,9.46,21.09,17.72,23.69c0,0,16.38,7.14,25.75,3.82
				c10.46-3.71,16.9-11.54,17.74-23.67c0,0,1.17-8.77-1.46-16.75l0,0c0,0-10.45,17.69-35.33,16.83
				C451.08,190.82,442.86,186.7,437.26,182.33z"/>
			<g>
				<path class="st4" d="M455.47,158c1.31-3.4,5.62-3.37,9.56-4.57c3.94-1.2,9.68-5.67,9.68-5.67s-5.14-1.4-11.77-1.61
					C456.3,145.94,455.47,158,455.47,158z"/>
				<path class="st16" d="M455.47,158c0.79-3.71,4.3-8.19,7.17-9.02c2.88-0.83,12.06-1.22,12.06-1.22s-5.14-1.4-11.77-1.61
					C456.3,145.94,455.47,158,455.47,158z"/>
			</g>
			<path class="st15" d="M460.74,165.7c-3.46-0.33-7.53,0.21-11.29,1.62c6.63-2.12,14.68,1.82,16-0.37c1.41-2.36,7.85-6.92,8.1-7.09
				C468.13,161.96,464.25,166.04,460.74,165.7z"/>
			<path class="st9" d="M446.9,168.44c0.2-0.08,0.44-0.2,0.73-0.35C447.38,168.2,447.14,168.32,446.9,168.44z"/>
			<g>
				<path class="st16" d="M464.99,167.11L464.99,167.11c-1.3-4.67-5.82-8.23-9.39-10.39c-2.84-1.72-7.13-3.68-9.19-4.59
					c-0.44-0.19-0.9,0.22-0.72,0.64l0.45,1.13c0.46,1.13,1.41,2.02,2.61,2.43c3.7,1.25,11.82,4.58,14.48,10.43
					C463.53,167.41,465.23,167.94,464.99,167.11z"/>
			</g>
		</g>
		<path class="st17" d="M436.79,306.47c0,0-4.96,3.52-12.55,1.66c0,0-6.12-1.32-7.46,1.57c0,0,9.39,4.52,11.76,5.76
			c1.79,0.93,3.66,2.4,4.98,3.54c1.05,0.9,2.67,0.78,3.57-0.26c0.41-0.48,0.89-1.06,1.4-1.72c1.45-1.86,4.82-7.87,4.82-7.87
			L436.79,306.47z"/>
		<path class="st2" d="M433.88,304.68c0,0,3.02,6.6,9.98,5.38c0,0,14.21-11.13,23.96-22.69c3.17-3.76,5.86-7.56,7.45-11.03
			c6.46-14.19,23.91-35.36,35.01-46.09l-27.76-9.52c0,0-8.89,16.96-20.72,37.79C453.27,273.52,443.23,290.54,433.88,304.68z"/>
		<path class="st3" d="M461.8,258.51l6.02,28.86c3.17-3.76,5.86-7.56,7.45-11.03c6.46-14.19,23.91-35.36,35.01-46.09l-27.76-9.52
			C482.52,220.72,473.63,237.68,461.8,258.51z"/>
		<path class="st17" d="M484.49,310.29c0,0,0.3,5.26-6.43,5.97c0,0-3.85,0.02-3.86,3.37l19.56,0.06c0,0,0.57-1.35,0.71-4.25
			c0.11-2.22-2.27-8.03-2.27-8.03L484.49,310.29z"/>
		<path class="st2" d="M491.62,220.72c0,0-12.37,12.88-20.21,36.1c-4.27,12.63,7.83,44.38,10.19,55.42c0,0,8.12,0.65,13.66-1.38
			c0,0,0.42-22.79-2.82-40.35c-1.82-9.83,16.28-21.02,24.19-38.78c5.38-12.08-1.16-11.88-9.21-12.17L491.62,220.72z"/>
		<path class="st18" d="M505.9,163.24c6.88,3.68,20.96,0.29,20.96,0.29s-5.72-6.2-3.12-16.19l-5.4,2.6l-5.8,2.79
			c0,0-0.37,1.76-0.64,4.93c-0.07,0.82-0.13,1.73-0.17,2.72C508.2,161.4,505.9,163.24,505.9,163.24z"/>
		<path class="st10" d="M480.67,220.05c0,1.15,1.39,1.7,1.69,1.75c2.77,0.48,10.52,3.34,17.5,3.99c5.88,0.58,11.33,0.03,17.33-1.11
			c0.79-0.15,2.66-0.63,2.79-1.35c0.17-0.79,23.12-44.38,5.28-63.1c-0.42-0.44-3.94,0.35-7.16,1.08c-2.98,0.67-5.7,0.3-8.14-0.63
			l-3.02,1.51c-3.71,1.96-10.73,8.93-11.55,14.39c-0.42,2.78-2.09,4.84-2.58,7.28c-0.18,0.9-0.36,1.79-0.55,2.65
			c-0.37,1.69-0.74,3.3-1.13,4.82c-1.05,4.13-2.16,7.69-3.25,10.77c-1.16,3.26-2.29,5.98-3.31,8.25c-1.32,2.94-2.43,5.15-3.12,6.83
			C480.95,218.37,480.67,219.3,480.67,220.05z"/>
		<path class="st19" d="M481.44,217.18c32.4-14.48,43.63-42.28,43.63-42.28s-26.33,9.21-32.82,11.61c-0.37,1.69-0.74,3.3-1.13,4.82
			c-1.05,4.13-2.16,7.69-3.25,10.77c-1.16,3.26-2.29,5.98-3.31,8.25C483.25,213.3,482.14,215.5,481.44,217.18z"/>
		<g>
			<path class="st18" d="M459.47,209.53c0,0-4.51-1.75-5.54-1.61c-1.03,0.14-3.9-0.54-3.74,0.35c0.11,0.61,3.81,1.26,3.81,1.26
				s-4.13-0.88-3.81,0.04c0.22,0.63,1.1,3.14,2.46,3.96c1.63,0.98,4.59,0.51,8.06,0.03C467.07,212.68,459.47,209.53,459.47,209.53z"
				/>
			<path class="st10" d="M460.18,212.55c-1.04-2.56-1.51-3.72-1.51-3.72s21.16-16.36,23.32-17.76c1.47-0.96,16.1-11.32,23.23-19.4
				c3.54-4.01,9.11-5.84,14.51-4.77l4.44,0.88c5.36,1.07,7.11,7.5,2.95,10.89c-11.72,9.53-31.48,20.57-35.17,22.87
				c-9.15,5.7-29.38,13.7-29.38,13.7S460.99,214.56,460.18,212.55z"/>
		</g>
		<path class="st20" d="M511.9,157.66c6.77,0.36,11.16-4.94,11.16-4.94s-3.06-1.61-4.73-2.79l-5.8,2.79
			C512.54,152.73,512.16,154.49,511.9,157.66z"/>
		<path class="st18" d="M509.02,151.08c0,0,10.25,6.98,14.73,0.86c4.48-6.12,8.83-9.34,2.47-14.05c-6.36-4.71-9.35-3.22-11.37-1.53
			C512.83,138.05,506.47,149.1,509.02,151.08z"/>
		<path class="st17" d="M513.77,130.82c0.37-2.35,1.19-4.01,1.19-4.01s0.64,2.53,5.51,2.18c4.87-0.35,12.59,0.45,15.16,5.72
			c0.16,0.33,0.31,0.68,0.44,1.03c0.47-1.17,0.58-2.91,0.58-2.91c0.93,2.27,0,5.1,0,5.1h0c0.01,0.08,0.03,0.17,0.04,0.25
			c1.07,0.86,1.98,3.54,1.98,3.54c-0.32-0.75-1.12-1.23-1.82-1.53c0.02,4.1-1.73,8.1-4.8,9.29c-4.49,1.74-4.46,0.41-8.98,3.26
			c0,0-1.21-1.43-0.39-2.38c0.83-0.96,3.95-2.35,2.21-3.75c-1.75-1.39-2.39,0.17-3.03-0.78c-0.64-0.96,2.57-3.75-1.56-6.36
			C516.16,136.83,513.4,133.18,513.77,130.82z"/>
	</g>
	<g>
		<path class="st17" d="M143.38,15.69c-0.02-0.46-0.39-5.43-8.38-5.69c0,0,3.93,0.44,4.6,2.08c0,0-2.67-2.02-4.85-1.37
			c-2.18,0.65-3.46,4.27-3.47,5.46c-0.01,1.19,1.2,5.02,2.58,5.35c0.52,0.12,1.13,0.09,1.67,0c-0.37,0.54-0.73,1.14-1.07,1.82
			c-3.19,6.2,0.1,12.26,2.8,11.59c1.73-0.43,2.22,2.37,2.22,2.37l16.8-12.9C156.28,24.39,150.11,12.28,143.38,15.69z"/>
		<path class="st2" d="M149.23,198.37l-3.57,1.26c0,0-15.5-20.39-17.41-38.33c-0.34-3.2-0.23-6.31,0.51-9.17
			c0,0-0.15-0.82-0.42-2.27c-0.12-0.68-0.27-1.49-0.45-2.43c-0.5-2.74-1.2-6.49-1.99-10.75c-1.82-9.82-4.19-22.37-6.02-31.6
			l0.96-0.29l10.41-3.18l2.15-6.48l7.75-1.93c0,0,1.73,3.21,3.28,18.38c0.29,1.99,0.54,4.18,0.74,6.56
			c0.6,7.26,0.65,16.27-0.74,26.57c-0.36,2.64-0.8,5.36-1.36,8.15c-0.41,2.05-0.47,4.84-0.3,8.05
			C143.55,175.58,149.23,198.37,149.23,198.37z"/>
		<path class="st3" d="M145.16,118.14l-16.82,31.72c-0.12-0.68-0.27-1.49-0.45-2.43c-0.5-2.74-1.2-6.49-1.99-10.75
			c-1.82-9.82-4.19-22.37-6.02-31.6l0.96-0.29l10.41-3.18l2.15-6.48l7.75-1.93c0,0,1.73,3.21,3.28,18.38
			C144.71,113.57,144.97,115.76,145.16,118.14z"/>
		<path class="st2" d="M137.76,97.27l-0.39-3.17c-6.53,1.64-23.96-4.59-23.96-4.59s-6.32,5.27-5.49,17.9
			c0.41,6.17,1.15,32.36,1.92,40.12c0.28,2.81,0.52,4.81,0.62,5.61c0,0,0,0.01,0,0.01c0.03,0.24-0.06,0.47-0.19,0.69
			c-1.14,1.83-2.08,3.74-2.85,5.69c-7.59,19.17,1.17,42.78,1.17,42.78l2.27-0.87c0,0,4.98-26.27,9.03-37.88
			c0.69-1.97,1.35-3.52,1.95-4.44c1.76-2.69,3.39-7.09,4.88-12.33c2.8-9.9,5.06-22.77,6.56-32.71
			C133.48,114.08,137.76,97.27,137.76,97.27z"/>
		<path class="st21" d="M189.17,93.23c-1.4,1.18-5.13-2.87-5.65-3.41c-0.03-0.05-0.05-0.08-0.05-0.08l1.13-3c0,0,4.89-0.18,5.7,0.59
			C191.12,88.1,190.71,91.97,189.17,93.23z"/>
		<path class="st21" d="M184.61,86.74l-0.49,3.1c0,0-0.22,0-0.59-0.03c-1.19-0.08-4.08-0.23-7.35-0.56
			c-4.92-0.46-10.75-1.28-13.07-2.64c-3.54-2.05-9.35-8.32-13.13-14.6c-0.11-0.15-0.19-0.31-0.27-0.46
			c-1.97-3.33-3.35-6.63-3.46-9.27c-0.08-1.61,0.11-3,0.46-4.2c0.46-1.59,1.22-2.84,2-3.79c0.11-0.15,0.22-0.31,0.38-0.44
			c1.3-1.46,2.57-2.07,2.57-2.07c0.65-0.26,1.35,0.05,2.08,0.79v0.03c0.59,0.59,1.24,1.49,1.86,2.61c0.03,0.03,0.05,0.05,0.05,0.08
			c0.14,0.23,0.27,0.49,0.43,0.77c0.05,0.05,0.08,0.13,0.11,0.18c0.3,0.59,0.59,1.2,0.89,1.84c3.32,6.86,6.86,17.26,9.8,20.36
			c1.27,1.33,7.08,3.94,11.7,5.89C181.91,85.72,184.61,86.74,184.61,86.74z"/>
		<path class="st21" d="M150.23,58.85c-2.05,0.9-4.52,1.51-7.52,1.67c-11.22,0.58-13.77-8.74-14.23-14.93
			c1.62-0.56,3.03-0.5,3.85-0.46c0.8,0.04,1.63,0.12,2.31,0.2c1.37-0.68,3.84-3.98,5.26-9.51l0.48,0.21l8.09,3.61
			c0,0-0.86,2.5-1.49,4.89c-0.5,1.87-0.85,3.68-0.55,4.18c0.64,0.25,1.02,0.4,1.02,0.4s0,0,0,0.01
			C147.54,49.32,149.3,53.57,150.23,58.85z"/>
		<path class="st13" d="M153.03,65.83c-0.08,0.21-0.18,0.42-0.28,0.63c-2.84,5.8-8.1,29.84-8.1,29.84
			c0.75,4.32-34.25-0.85-34.34-4.78c-1.23-4.17,4.37-10.88,7.54-14.24c0.4-0.42,0.75-0.88,1.06-1.35c0.78-1.2,1.28-2.55,1.43-3.97
			c0.62-5.58,0.38-10.81,0.44-13.98l0,0c0.62-0.43,1.22-0.83,1.77-1.22c0.85-0.59,1.6-1.14,2.16-1.7c0.61-0.61,0.99-1.23,1.03-1.93
			c0.03-0.53,0.01-1.08-0.04-1.62c-0.03-0.26-0.06-0.51-0.1-0.77c-0.44-2.7-1.63-5.15-1.63-5.15c3.01-1.16,8.36-0.47,8.36-0.47
			s-0.01,0.28-0.01,0.74c-0.02,1.85,0,6.62,0.63,7.52c0.78,1.12,15.12,6.04,15.88,4.52c0.75-1.5-1.3-8.51-1.37-8.78
			c0-0.01,0-0.01,0-0.01c4.8,1.79,6.52,3.29,6.52,3.29C151.08,54.18,155.27,60.2,153.03,65.83z"/>
		<path class="st20" d="M148.49,39.64c0,0-0.86,2.5-1.49,4.89c-4.73-1.25-6.17-5.97-6.6-8.5L148.49,39.64z"/>
		<path class="st21" d="M149.48,42.29c0,0-11.32-2.48-9.58-9.15c1.74-6.66,1.45-11.47,8.75-10.16c7.3,1.3,8.04,4.18,8.03,6.53
			C156.67,31.87,152.47,42.76,149.48,42.29z"/>
		<path class="st17" d="M157.32,25.73c-1.22-2.41-2.65-2.29-3.55-1.86c-5.32-4.67-10.54-0.85-10.54-0.85
			c-2.01,4.6-6.36,6.48-6.36,6.48s1.74,1.69,6.78,1.65c1.54-0.01,3.09-0.68,4.5-1.61c-2.72,2.59-5.9,4.17-5.9,4.17
			c6.31-1.15,10.54-8.07,10.97-8.81c0.53,0.75,1.56,2.34,1.64,3.69c0.12,1.83-0.55,5.38,0.56,5.51
			C155.42,34.11,159.14,29.35,157.32,25.73z"/>
		<path class="st13" d="M153.98,52.4c0,0,2.73,4.51,3.13,5.67c0,0-3.53-0.13-4.96,2.45C152.15,60.52,151.81,53.01,153.98,52.4z"/>
		<path class="st15" d="M135.23,88.23c-6.9-0.07-12.75-6.87-16.32-12.3c0.78-1.2,1.28-2.55,1.43-3.97
			c0.62-5.58,0.38-10.81,0.44-13.98l0,0c0.62-0.43,1.22-0.83,1.77-1.22c0.85-0.59,1.6-1.14,2.16-1.7
			C130.36,64.13,144.59,88.32,135.23,88.23z"/>
		<path class="st17" d="M121.8,204.06h-17.98c0,0-0.43-2.6,0.51-4.57c0.9-1.89,2.31-2.75,1.97-5.04c1.14,1.12,3,2.36,5.6,2.03
			c0.32,0.49,2.06,3.11,3.12,3.83C116.2,201.12,121.44,200.83,121.8,204.06z"/>
		<path class="st17" d="M160.4,204.06h-17.98c0,0-0.67-2.72,0.51-4.57c1.04-1.64,0.64-2.57-0.13-3.92c0.81,0.32,1.87,0.6,3.03,0.54
			c0.9-0.05,1.84-0.43,2.67-0.89c0.77,0.84,4.09,4.4,5.12,5.1C154.8,201.12,160.03,200.83,160.4,204.06z"/>
		<g>
			<g>
				<path class="st3" d="M178.37,82.32l-0.88-0.21c2.92-5.7,8.12-10.02,12.38-12.27c3.73-1.97,6.82-2.86,7.93-3.15
					c0.27-0.07,0.56-0.01,0.77,0.17l0.81,0.68c0.4,0.34,0.25,0.98-0.26,1.12C195.16,69.74,182.78,73.72,178.37,82.32z"/>
			</g>
			<path class="st15" d="M162.89,85.89c2.75-10.58,9.04-9.11,16.8-7.3c7.76,1.81,14.04,3.28,11.29,13.87
				c-1.97,7.58-9.86,12.26-17.62,10.45C165.61,101.1,160.92,93.48,162.89,85.89z"/>
			<path class="st8" d="M167.04,83.23c0-1.83,2.77-4.13,4.7-4.13c1.93,0,3.11,1.89,3.11,3.72c0,1.83-2.38,3.72-4.31,3.72
				C168.61,86.54,167.04,85.06,167.04,83.23z"/>
		</g>
		<path class="st21" d="M161.32,91.79l-0.95,3.28c0,0-1.19-0.2-3.08-0.54c-0.57-0.1-0.89-0.18-0.89-0.18
			c-1.51-0.28-3.32-0.67-5.29-1.08h-0.03c-3.38-0.77-7.16-1.69-10.35-2.72c-2.24-0.74-4.19-1.54-5.51-2.33
			c-0.14-0.08-0.24-0.15-0.38-0.26c-3.16-2.18-6.91-8.58-9.83-15.45c-0.41-0.95-0.78-1.9-1.16-2.82c-1.35-3.43-2.43-6.81-3.08-9.73
			c-0.41-1.74-0.68-3.33-0.73-4.64c-0.03-0.46-0.05-0.9-0.03-1.31c0.05-7.43,3.94-8.45,3.94-8.45c0.08-0.03,0.16-0.05,0.27-0.08
			c0.68-0.1,1.38,0.33,2.11,1.18c0.92,1.05,1.89,2.77,2.89,4.84c1.54,3.3,3.16,7.58,4.67,11.83c0.84,2.33,1.65,4.66,2.46,6.81
			c0.46,1.31,0.92,2.54,1.35,3.66c0.84,2.15,1.59,3.89,2.27,4.99c0.43,0.72,1.67,1.72,3.32,2.84c2.86,1.97,7.05,4.35,10.7,6.3
			c1.51,0.82,2.94,1.56,4.13,2.18C160.05,91.15,161.32,91.79,161.32,91.79z"/>
		<path class="st13" d="M129.23,51.54c-5.2-1.36-9.21,2.49-9.21,2.49c0.07-7.42,3.96-8.43,3.96-8.43
			C125.54,44.98,127.35,47.55,129.23,51.54z"/>
		<path class="st21" d="M161.32,91.79c0,0,1.7,0.04,2.66-0.52c0.96-0.56,3.68-1.31,4.9-1.19c0,0,0.45,0.18,0.29,0.58
			c-0.16,0.4-2.16,0.73-2.16,1.49c0,0,2.5-0.08,3.25-0.38c0.75-0.3,3.62,0.39,4.18,0.71c0.56,0.31-3.65,2.72-5.52,3.69
			c-1.87,0.97-8.56-1.1-8.56-1.1L161.32,91.79z"/>
	</g>
	<g>
		<g>
			<g>
				<path class="st16" d="M171.56,319.7c-0.61,0-1.14-0.47-1.24-1.12l-6.08-37.93l-8.75-54.55l-2.45-15.25l6.23-0.2l1.08,8.85
					l7.59,62.22l4.5,36.88C172.52,319.19,172.1,319.7,171.56,319.7z"/>
			</g>
			<g>
				<path class="st16" d="M107.79,210.85l-2.77,17.29v0l-7.66,47.75l-6.85,42.69c-0.1,0.65-0.63,1.12-1.24,1.12
					c-0.54,0-0.96-0.51-0.89-1.08l5.91-48.39l6.32-51.76l0.95-7.81L107.79,210.85z"/>
			</g>
			<path class="st9" d="M105.02,228.14c0.36-7.43-4.41-9.67-4.41-9.67l0.95-7.81l6.23,0.2L105.02,228.14z"/>
			<path class="st9" d="M160.36,219.51c-4.04,1.96-4.87,6.59-4.87,6.59l-2.45-15.25l6.23-0.2L160.36,219.51z"/>
		</g>
		<path class="st16" d="M177.76,210.85H83.08c-1.51,0-2.74-1.23-2.74-2.74v-0.5c0-1.51,1.23-2.74,2.74-2.74h94.68
			c1.51,0,2.74,1.23,2.74,2.74v0.5C180.5,209.62,179.27,210.85,177.76,210.85z"/>
	</g>
	<path class="st12" d="M542.12,320h-31.1c-1.67-1.34,1.15-4.39,4.1-4.59c1.28-0.09,2.9,0.16,4.75,0.53
		c0.43-5.39,2.87-29.63,12.08-28.65c10.36,1.09,0,10.67-2.93,16.35c-2.17,4.2-4.46,10.23-5.5,13.07c0.84,0.17,1.71,0.34,2.6,0.5
		c1.37-4,6.48-17.44,12.98-16.66c7.63,0.92,4.56,6.31-0.84,9.51c-3.97,2.35-8.84,5.7-11.15,7.31c1.96,0.3,4.01,0.51,6.08,0.46
		C538.51,317.71,541.11,319.2,542.12,320z"/>
	<g>
		<path class="st10" d="M267,285.55c0.99,4.7,2.2,8.77,3.6,12.28c10.91,27.25,33.64,21.37,55.83,21.37c25.05,0,25-15.91,25-37.42
			s-13.88-38.6-38.93-38.6C287.46,243.18,262.58,264.45,267,285.55z"/>
		<g>
			<path class="st9" d="M366.69,288.77c0.16-21.79-16.55-39.3-38.86-45.11c-22.77-5.93-41.67,8.58-41.64,29.71
				c0.04,21.23,19.33,42.26,42.43,45.09C350.95,321.19,366.54,309.97,366.69,288.77z"/>
			<path class="st8" d="M364.68,288.25c0.15-20.71-15.73-37.34-36.93-42.86c-21.63-5.63-39.6,8.15-39.56,28.23
				c0.03,20.17,18.37,40.15,40.31,42.84C349.72,319.05,364.54,308.39,364.68,288.25z"/>
			<g>
				<path class="st12" d="M326.07,276.12l6.2-22.14c0.46-1.65-0.89-3.59-2.78-3.98c-2.3-0.47-5.46-0.98-8.82-1.09
					c-3.89-0.13-7.16,0.18-9.42,0.52c-1.75,0.26-2.45,2.12-1.42,3.77l14.31,22.89C324.67,276.9,325.85,276.92,326.07,276.12z"/>
				<path class="st12" d="M331.45,282.92l23.26,13.79c1.73,1.03,3.71,0.39,4.05-1.3c0.42-2.07,0.84-4.96,0.84-8.19
					c0-3.74-0.43-7.02-0.85-9.33c-0.33-1.79-2.29-3.12-3.97-2.7l-23.35,5.89C330.59,281.28,330.6,282.42,331.45,282.92z"/>
				<path class="st12" d="M330.01,278.82l23.01-5.8c1.71-0.43,2.25-2.39,1.1-4.02c-1.4-1.99-3.45-4.65-5.98-7.28
					c-2.93-3.04-5.73-5.39-7.76-6.97c-1.58-1.22-3.65-0.87-4.2,0.71l-7.63,21.87C328.28,278.12,329.18,279.03,330.01,278.82z"/>
				<path class="st12" d="M327.8,284.97l7.12,24.36c0.53,1.81,2.6,3,4.25,2.43c2.01-0.69,4.69-1.79,7.31-3.36
					c3.03-1.82,5.36-3.75,6.91-5.2c1.2-1.12,0.74-3.26-0.94-4.33l-23.17-14.83C328.45,283.52,327.54,284.08,327.8,284.97z"/>
				<path class="st12" d="M322.15,276.79l-15.54-21.83c-1.16-1.62-3.4-2.07-4.59-0.9c-1.46,1.42-3.34,3.48-4.98,6.01
					c-1.9,2.92-3.15,5.7-3.92,7.7c-0.6,1.56,0.63,3.53,2.48,4l25.64,6.48C322.15,278.47,322.72,277.58,322.15,276.79z"/>
				<path class="st12" d="M321.23,280.24l-25.32-4.18c-1.88-0.31-3.25,1.12-2.79,2.94c0.56,2.22,1.47,5.26,2.88,8.46
					c1.63,3.7,3.43,6.78,4.78,8.9c1.05,1.64,3.26,2.16,4.47,1.05l16.8-15.35C322.66,281.51,322.15,280.39,321.23,280.24z"/>
				<path class="st12" d="M323.5,283.96l-13.65,17.71c-1.02,1.32-0.3,3.46,1.48,4.39c2.16,1.14,5.19,2.57,8.55,3.71
					c3.89,1.32,7.29,2.06,9.68,2.47c1.85,0.32,3.18-1.12,2.69-2.9l-6.82-24.76C325.18,283.7,324,283.32,323.5,283.96z"/>
			</g>
		</g>
	</g>
	<g>
		<path class="st17" d="M267.71,173.7c0.1-0.39-9.06,3.93-9.52,4.41c-4.3,4.52-3.07,10.42-0.61,10.47c1.58,0.04,1.27,2.52,1.27,2.52
			l17.56-7.04C276.41,184.06,274.29,172.37,267.71,173.7z"/>
		<path class="st17" d="M269.87,174.61c0,0,0.63-6.49-7.02-6.49c0,0,2.32,0.6,3.51,1.79c0,0-4.88-2.71-10.18,1.46
			c-5.31,4.17-2.01,14.63-3.62,16.62c-1.61,1.99-7.9,2.38-7.13,8.8c0.77,6.42,19.94,14.46,18.71,19.78c0,0,7.51-10.47,2.14-15.25
			c0,0,2.62,2.34,2.89,5.12c0,0,0.71-5.43-2.93-7.16c-3.22-1.54-5.86-7.16-5.58-8.16C260.94,190.1,269.87,174.61,269.87,174.61z"/>
		<path class="st20" d="M262.93,205.13c-1.18-5.38-8.54-7.05-12.02-2.66c-0.63,0.79-1.07,1.72-1.21,2.83
			c-0.79,6.11,9.51,31,10.98,33.25c2.69,4.1,18.5,18.16,18.5,18.16l2.91-1.68c0,0-11.22-18.01-12.95-19.69
			C267.13,233.4,265.17,215.35,262.93,205.13z"/>
		<path class="st20" d="M278.07,255.05c0,0,4.25-2.65,5.86-2.48c1.61,0.17,6.27,1.44,6.33,2.09c0.06,0.65-5.19,1.05-5.55,1.41
			c-0.35,0.36-3.92,2.61-5.21,1.9C278.22,257.27,278.07,255.05,278.07,255.05z"/>
		<path class="st8" d="M248.4,314.89l-3.8-0.53c0,0-12.78-9.63-14.68-27.6c-0.19-1.83-0.23-3.68-0.09-5.56
			c0.02-0.22-0.01-0.43-0.13-0.61c0,0,0,0,0-0.01c-0.41-0.59-1.43-2.08-2.8-4.2c-1.36-2.09-3.68-6.03-6.24-10.46
			c-4.61-7.97-9.97-17.51-11.81-20.55c-5.86-9.68-3.04-16.19-3.04-16.19s16.35-1.53,20.84-5.25l1.61,2.36c0,0,3.54,14.88,3.38,14.95
			c0.17,0.51,0.35,1.02,0.53,1.55c2.8,8.19,6.01,18.42,7.77,26.75c0.99,4.69,1.51,8.77,1.23,11.56c-0.1,0.95,0.02,2.42,0.29,4.23
			C243.02,296,248.4,314.89,248.4,314.89z"/>
		<path class="st17" d="M256.37,319.45h-15.85c0,0-0.38-2.29,0.45-4.03c0.79-1.67,1.92-1.72,0.14-4.34c1.01,0.98,4.25,1.39,6.54,1.1
			c0.28,0.43,1.81,3.33,2.75,3.97C251.43,316.85,256.05,316.6,256.37,319.45z"/>
		<path class="st22" d="M232.16,242.79c-1.39,7.24-4.66,19.3-11.51,23.14c-4.61-7.97-9.97-17.51-11.81-20.55
			c-5.86-9.68-3.04-16.19-3.04-16.19s16.35-1.53,20.84-5.25l1.61,2.36c0,0,3.54,14.88,3.38,14.95
			C231.8,241.75,231.98,242.26,232.16,242.79z"/>
		<path class="st2" d="M261.23,201.79c0,0,2.24,2.21,3.27,4.86c0,0-3.58,9.74-11.93,10.96
			C252.57,217.61,259.18,201.79,261.23,201.79z"/>
		<path class="st8" d="M221.04,230.31l0.05-2.81c-5.91,0.71-20.37-6.7-20.37-6.7s-6.18,3.9-7.03,15.03
			c-0.41,5.43-3.03,28.42-3.31,35.28c-0.11,2.49-0.14,4.26-0.15,4.97c0,0,0,0.01,0,0.01c0,0.22-0.11,0.41-0.25,0.58
			c-1.22,1.47-2.28,3.03-3.2,4.65c-9.02,15.91-4.3,37.52-4.3,37.52l2.09-0.5c0,0,7.62-22.41,12.6-32.1
			c0.85-1.64,1.61-2.92,2.26-3.66c1.87-2.16,3.85-5.82,5.8-10.23c3.68-8.34,7.25-19.34,9.8-27.86
			C215.2,244.52,221.04,230.31,221.04,230.31z"/>
		<path class="st21" d="M255.61,211.54c-9.66-2.1-3.49-14.97-2.93-14.75c1.34-0.26,4.28-2.49,6.91-6.84l0.36,0.29l5.93,4.93
			c0,0-1.37,1.92-2.53,3.8c-0.9,1.47-1.67,2.92-1.55,3.42C262.28,202.75,258.19,212.1,255.61,211.54z"/>
		<path class="st20" d="M265.88,195.18c0,0-1.37,1.92-2.52,3.8c-3.69-2.16-3.69-6.49-3.41-8.73L265.88,195.18z"/>
		<path class="st21" d="M266.04,197.65c0,0-8.95-4.73-5.77-9.97c3.19-5.24,4.18-9.38,10.03-6.59c5.85,2.8,5.74,5.4,5.12,7.39
			C274.81,190.48,268.45,198.75,266.04,197.65z"/>
		<path class="st17" d="M276.94,185.43c-0.41-2.33-1.66-2.55-2.53-2.39c-3.31-5.19-8.71-3.16-8.71-3.16
			c-2.89,3.43-7.06,4.02-7.06,4.02s1.04,1.83,5.32,2.97c1.31,0.35,2.79,0.14,4.22-0.32c-2.97,1.57-6.08,2.17-6.08,2.17
			c5.64,0.49,11.01-4.4,11.57-4.93c0.26,0.76,0.72,2.35,0.44,3.51c-0.37,1.58-1.85,4.43-0.95,4.8
			C273.18,192.1,277.56,188.92,276.94,185.43z"/>
		<path class="st17" d="M195.08,319.45h-15.85c0,0-0.38-2.29,0.45-4.03c0.79-1.67,2.04-2.43,1.74-4.44
			c1.01,0.98,2.65,2.09,4.94,1.79c0.28,0.43,1.81,2.74,2.75,3.38C190.14,316.85,194.76,316.6,195.08,319.45z"/>
		<path class="st2" d="M256.75,221.74c-2.04,0.68-4.9,1.04-7.83,1.35c-4.17,0.43-8.47,0.73-10.73,1.58
			c-0.82,0.31-1.37,0.7-1.54,1.19c-0.98,2.79-5.28,7.09-5.28,7.09c-27.61-1.19-30.64-12.14-30.64-12.14
			c18.57-20.48,50.02-26.41,50.02-26.41s2.25-0.9,7.9,3.36c3.78,2.85,3.28,3.94,3.28,3.94S262.75,219.76,256.75,221.74z"/>
		<path class="st3" d="M248.91,223.09c-4.17,0.43-8.47,0.73-10.73,1.58c-0.92-13.06,5.58-22.88,5.58-22.88S248,218.15,248.91,223.09
			z"/>
		<path class="st21" d="M253.21,199.26c0,0-10.45,0.98-11.29,7.42c-0.84,6.44,10.02,32.66,11.57,35.04
			c2.83,4.32,19.5,19.14,19.5,19.14l3.07-1.77c0,0-11.82-18.98-13.65-20.75C259.53,235.55,256.74,201.49,253.21,199.26z"/>
		<path class="st2" d="M242.22,210.56c0.03,0.15,9.64,2.98,15.83,0c0,0,1.32-13.54-6.06-12.8c-7.39,0.73-11.76,2.94-11.95,6.3
			C239.85,207.4,242.22,210.56,242.22,210.56z"/>
		<path class="st21" d="M272.04,258.98c0,0,3.75-3.26,5.37-3.34c1.62-0.08,6.43,0.47,6.6,1.1c0.17,0.63-4.95,1.84-5.23,2.24
			c-0.29,0.4-3.42,3.18-4.82,2.68C272.56,261.15,272.04,258.98,272.04,258.98z"/>
	</g>
</g>
</svg>
