<?xml version="1.0" encoding="utf-8"?>
<!-- Generator: Adobe Illustrator 23.0.5, SVG Export Plug-In . SVG Version: 6.00 Build 0)  -->
<svg version="1.0" id="Layer_1" xmlns="http://www.w3.org/2000/svg" xmlns:xlink="http://www.w3.org/1999/xlink" x="0px" y="0px"
	 viewBox="0 0 624 320" style="enable-background:new 0 0 624 320;" xml:space="preserve">
<style type="text/css">
	.st0{opacity:0.3;fill:#35B24A;}
	.st1{fill:#00A26D;}
	.st2{fill:#FFFFFF;}
	.st3{fill:#FFB680;}
	.st4{fill:#ED8A40;}
	.st5{fill:#4385F5;}
	.st6{fill:#6B2618;}
	.st7{fill:#96281B;}
	.st8{fill:#7F1911;}
	.st9{fill:#4D4D4D;}
	.st10{fill:#E6E6E6;}
	.st11{fill:#F2B121;}
	.st12{fill:#3F3F3F;}
	.st13{fill:#D73D33;}
	.st14{fill:#EF6A1C;}
	.st15{fill:#FCC63F;}
	.st16{clip-path:url(#SVGID_2_);}
	.st17{fill:#606060;}
	.st18{fill:#E8B679;}
	.st19{fill:#F7CC9F;}
	.st20{fill:#FFE1C0;}
	.st21{fill:#DBA763;}
	.st22{fill:#AFAFAF;}
	.st23{fill:#808080;}
	.st24{fill:#969696;}
	.st25{fill:#77A7FB;}
	.st26{fill:#438EE8;}
	.st27{fill:#A4C9FF;}
	.st28{fill:#EDBC80;}
</style>
<g>
	<rect y="0" class="st0" width="624" height="320"/>
	<g>
		<path class="st1" d="M591.54,143.2c0-34.85-39.51-63.1-88.24-63.1c-7.84,0-15.44,0.74-22.68,2.11
			c-5.89-32.35-46.58-57.4-95.91-57.4c-38.6,0-71.9,15.34-87.39,37.51c-9.06-2.5-18.76-3.85-28.86-3.85
			c-49.51,0-89.64,32.56-89.64,72.72c0,35.02,30.51,64.25,71.15,71.16c-0.12,1.31-0.18,2.63-0.18,3.96
			c0,35.18,41.18,63.7,91.98,63.7c30.24,0,57.08-10.11,73.84-25.72c11.54,4.88,24.9,7.69,39.15,7.69
			c39.42,0,72.08-21.36,77.96-49.27C566.98,194.04,591.54,170.67,591.54,143.2z"/>
		<path class="st2" d="M592.3,138.39c0-34.85-39.51-63.1-88.24-63.1c-7.84,0-15.44,0.74-22.68,2.11C475.49,45.05,434.8,20,385.48,20
			c-38.6,0-71.9,15.34-87.39,37.51c-9.06-2.5-18.76-3.85-28.86-3.85c-49.51,0-89.64,32.56-89.64,72.72
			c0,35.02,30.51,64.25,71.15,71.16c-0.12,1.31-0.18,2.63-0.18,3.96c0,35.18,41.18,63.7,91.98,63.7c30.24,0,57.08-10.11,73.84-25.72
			c11.54,4.88,24.9,7.69,39.15,7.69c39.42,0,72.08-21.36,77.96-49.27C567.74,189.24,592.3,165.87,592.3,138.39z"/>
		<g>
			<g>
				<g>
					<g>
						<path class="st3" d="M126.07,171.91c-0.19,4.47-0.87,9.15-2.8,11.08c-4.16,4.16-7.68,6.08-7.68,6.08s12.29,10.4,32.63,11.13
							v0.04c0.11,0,0.21-0.01,0.32-0.02c0.11,0,0.21,0.02,0.32,0.02v-0.04c20.33-0.73,32.63-11.13,32.63-11.13s-3.52-1.92-7.68-6.08
							c-1-1-1.66-2.74-2.09-4.8c-0.65,0.31-1.34,0.63-2.06,0.96C150.62,188.03,132.22,176.48,126.07,171.91z"/>
						<path class="st4" d="M171.26,161.89l-22.71,5.83l-22.71-5.83c0,0,0.45,4.87,0.24,10.03c6.14,4.57,24.54,16.11,43.58,7.24
							c0.72-0.34,1.41-0.66,2.06-0.96C170.34,171.67,171.26,161.89,171.26,161.89z"/>
					</g>
					<path class="st3" d="M198.67,113.33c-0.53-6.04-4.48-6.59-7.59-6.05c0.85-11.43,1.61-27.91,1.61-27.91l-43.93,6.4l-43.93-6.4
						c0,0,0.76,16.58,1.61,28.01c-3.16-0.68-7.56-0.43-8.12,5.96c-0.94,10.78,5.03,15.68,10.69,18.37
						c2.14,15.7,4.29,23.71,10.74,28.59c10.56,8,21.62,11.2,29,11.2c7.38,0,18.46-3.86,29.21-11.2c7.04-4.8,8.42-12.97,10.56-28.86
						C194.02,128.68,199.57,123.75,198.67,113.33z"/>
					<path class="st4" d="M190.09,107.14c-0.07-0.42-0.56-0.74-0.94-0.44c-0.56,0.44-3.87-8.06-4.12-8.95
						c-0.56-2.03-0.68-4.05-0.58-6.13c0.01-0.27,0-0.5-0.02-0.72c0.93-0.51,1.88-1,2.77-1.58c1.22-0.8,0.67-2.18-0.36-2.7
						c0.19-0.14,0.4-0.27,0.59-0.41c1.02-0.78,0.19-2.38-1.04-1.98c-5.72,1.84-11.03,4.42-16.92,5.78
						c-5.87,1.36-11.91,1.55-17.91,1.63c-11.01,0.14-22.97-0.12-33.4-4.24c-0.31-0.12-0.67-0.01-0.9,0.22
						c-0.62-0.97-2.47-0.83-2.56,0.63c-0.18,3.08-0.64,6.14-0.86,9.23c-0.2,2.84-0.72,5.63-1.79,8.29c0.02-0.05-1.49,3.89-2.14,3.22
						c-0.34-0.35-1.06-0.01-0.97,0.49c0.66,3.56,3.32,1.45,4.5-0.59c2.97-5.09,3.9-10.44,4.24-16.4
						c24.15,10.24,52.94,4.37,63.49-0.32c-0.05,2.57,0.44,5.93,1.18,7.88c1.2,3.17,2.64,7.39,6,8.81c0.43,0.18,0.85,0.18,1.2-0.16
						C190.12,108.14,190.21,107.9,190.09,107.14z"/>
					<path class="st4" d="M173.81,104.89c-1.15-2.38-4.84-1.61-6.97-1.26c-2.98,0.48-5.68,2.07-7.38,4.56
						c-2.3,3.37-1.48,16.12,4.43,10.36c0.34-0.04,0.64-0.29,0.53-0.71c-0.41-1.6,0.09-1.14,0.28-2.76c0.27-2.35,1.19-4.5,2-5.54
						c1.26-1.62,3.2-2.32,5.2-2.67c2.08-0.37,2.97-0.17,4.26-0.27c0.05,0-0.65-0.57-0.67-0.62
						C175.13,105.3,174.53,104.97,173.81,104.89z"/>
					<path class="st4" d="M122.19,104.89c1.15-2.38,4.85-1.61,6.97-1.26c2.98,0.48,5.68,2.07,7.38,4.56
						c2.3,3.37,1.48,16.12-4.43,10.36c-0.34-0.04-0.64-0.29-0.53-0.71c0.41-1.6-0.09-1.14-0.28-2.76c-0.27-2.35-1.19-4.5-2-5.54
						c-1.26-1.62-3.2-2.32-5.2-2.67c-2.08-0.37-2.97-0.17-4.26-0.27c-0.05,0,0.65-0.57,0.67-0.62
						C120.87,105.3,121.47,104.97,122.19,104.89z"/>
					<g>
						<path class="st2" d="M159.74,118.92c0,0,0.75-2.24,2.67-3.31c1.92-1.07,8.42-2.67,11.3-0.21c2.88,2.45,2.35,2.45,2.35,2.45
							s-2.23,4.61-8.2,4.61C161.89,122.46,159.63,119.98,159.74,118.92z"/>
						<path class="st5" d="M170.46,117.61c0,1.99-1.61,3.6-3.6,3.6c-1.99,0-3.6-1.61-3.6-3.6c0-1.99,1.61-3.6,3.6-3.6
							C168.85,114.01,170.46,115.62,170.46,117.61z"/>
						<path class="st6" d="M168.46,117.68c0,1.02-0.82,1.84-1.84,1.84c-1.02,0-1.84-0.82-1.84-1.84c0-1.02,0.82-1.84,1.84-1.84
							C167.63,115.84,168.46,116.66,168.46,117.68z"/>
						<path class="st6" d="M176.82,117.19c-1.82-3.17-5.89-4.28-9.56-3.84c-2.85,0.34-6.27,1.54-7.63,4.76
							c-0.52,1.24-0.16,1.48,0.28,0.64c2.74-5.22,12.13-6.24,15.39-0.87c-0.15,0.67-1.47,2.43-3.43,3.55
							c-0.47,0.27-0.24,0.77,0.48,0.48c1.17-0.47,3.01-1.89,4-3.32C176.69,118.06,177.06,117.61,176.82,117.19z"/>
						<path class="st2" d="M169.02,116.41c0,0.68-0.55,1.23-1.23,1.23c-0.68,0-1.23-0.55-1.23-1.23c0-0.68,0.55-1.23,1.23-1.23
							C168.47,115.19,169.02,115.73,169.02,116.41z"/>
					</g>
					<g>
						<path class="st2" d="M136.38,118.92c0,0-0.75-2.24-2.67-3.31c-1.92-1.07-8.42-2.67-11.3-0.21c-2.88,2.45-2.35,2.45-2.35,2.45
							s2.23,4.61,8.2,4.61C134.23,122.46,136.49,119.98,136.38,118.92z"/>
						<path class="st5" d="M125.66,117.61c0,1.99,1.61,3.6,3.6,3.6c1.99,0,3.6-1.61,3.6-3.6c0-1.99-1.61-3.6-3.6-3.6
							C127.27,114.01,125.66,115.62,125.66,117.61z"/>
						<path class="st6" d="M127.66,117.68c0,1.02,0.82,1.84,1.84,1.84c1.02,0,1.84-0.82,1.84-1.84c0-1.02-0.82-1.84-1.84-1.84
							C128.49,115.84,127.66,116.66,127.66,117.68z"/>
						<path class="st6" d="M119.3,117.19c1.82-3.17,5.89-4.28,9.56-3.84c2.85,0.34,6.27,1.54,7.63,4.76
							c0.52,1.24,0.16,1.48-0.28,0.64c-2.73-5.22-12.13-6.24-15.39-0.87c0.15,0.67,1.47,2.43,3.43,3.55
							c0.47,0.27,0.24,0.77-0.48,0.48c-1.17-0.47-3.01-1.89-4-3.32C119.43,118.06,119.06,117.61,119.3,117.19z"/>
						<path class="st2" d="M129.01,116.41c0,0.68,0.55,1.23,1.23,1.23c0.68,0,1.23-0.55,1.23-1.23c0-0.68-0.55-1.23-1.23-1.23
							C129.56,115.19,129.01,115.73,129.01,116.41z"/>
					</g>
					<path class="st6" d="M178.14,106.12c-2.73-2.73-8.01-4.28-12.04-3.56c-2.28,0.41-4.36,1.41-5.76,2.88
						c-0.51,0.41-0.93,1.27-1.25,2.04c-0.4-0.77-0.57-1.37-1.17-1.79c-0.34,1.14-0.42,2.76-0.21,4.13c0.13,0.83,0.81,1.33,1.39,0.78
						c3-2.85,8.74-7.94,17.72-2.66C178.27,108.79,179.28,107.27,178.14,106.12z"/>
					<path class="st6" d="M118.58,106.12c2.73-2.73,8.01-4.28,12.04-3.56c2.28,0.41,4.36,1.41,5.76,2.88
						c0.51,0.41,0.93,1.27,1.25,2.04c0.4-0.77,0.57-1.37,1.17-1.79c0.34,1.14,0.42,2.76,0.21,4.13c-0.13,0.83-0.81,1.33-1.39,0.78
						c-3-2.85-8.74-7.94-17.72-2.66C118.46,108.79,117.44,107.27,118.58,106.12z"/>
					<g>
						<path class="st7" d="M185.97,56.97c0.64,4.64-1.55,7.04-3.31,7.89c1.17-4.8-1.01-10.61-3.89-12.85
							c0.26,4.95-1.25,6.7-4.64,9.12c1.07-5.22-1.17-8.48-7.25-10.56c-9.22-3.16-23.19-2.56-32.63-1.28
							c-10.55,1.43-29.21,8.96-34.02,30.1c-2.11,9.3-0.28,18.72,2.4,27.96c2.27,0.23,3.52,0.75,4.61,1.62
							c3.94-7.03,5.25-17.52,4.25-25.09c-0.07-0.52-0.03-1.94,2.92-0.58c6.37,2.93,22.37,6.96,30.25,6.76
							c5.65-0.15,11.8-0.85,16.72-3.88c4.68-2.89,9.01-6.71,10.29-12.15c1.49,3.95,0.32,7.46-0.59,9.17
							c3.79-1.17,6.77-4.05,7.95-9.06c1.6,1.17,3.09,4.8-0.32,11.3c2.03-0.32,5.33-2.56,6.18-9.17c4.05,0.75,4.1,8.84,3.52,12.37
							c-0.96,5.86,1.31,9.61,2.73,14.79c0.37,1.36,0.57,2.79,0.61,4.14c0.73-0.33,1.66-0.52,2.84-0.22
							C196.27,106.07,201.69,64.37,185.97,56.97z"/>
						<path class="st8" d="M188.42,88.64c0.58-3.53,0.53-11.62-3.52-12.37c-0.85,6.61-4.16,8.85-6.18,9.17
							c3.41-6.5,1.92-10.13,0.32-11.3c-1.17,5.01-4.16,7.89-7.95,9.06c0.91-1.7,2.08-5.22,0.59-9.17
							c-1.28,5.44-5.6,9.26-10.29,12.15c-4.92,3.04-11.08,3.74-16.72,3.88c-7.88,0.2-23.88-3.83-30.25-6.76
							c-2.95-1.36-2.99,0.06-2.92,0.58c1,7.56-0.32,18.06-4.25,25.09c0.45,0.36,0.87,0.77,1.31,1.25c3.68,4,7.52-13.33,7.36-21.48
							c4.54,1.64,9.96,3.06,14.39,3.73c37.1,5.6,46.96-1.79,52.62-4c-0.14,4.57,2.64,17.96,6.4,20.31c0.49,0.3,1.19-0.66,2.44-1.22
							c-0.04-1.35-0.24-2.78-0.61-4.14C189.73,98.25,187.46,94.5,188.42,88.64z"/>
					</g>
					<path class="st4" d="M156.5,136.94c-0.37-0.64-1.38-1.5-2.04-1.49c-1.15,0.01-0.47,1.44,0.19,2.27
						c0.69,0.87,0.14,1.18-0.08,1.43c-0.95,1.07-3.08,1.65-3.79,1.85c-2.25,0.64-3.69,0.48-5.88,0c-0.72-0.16-2.89-0.74-3.96-1.69
						c-0.25-0.22-0.63-0.55,0.09-1.58c0.6-0.87,1.34-2.26,0.19-2.27c-0.66,0-1.63,0.89-2,1.53c-0.6,1.03-0.75,1.54-0.56,2.41
						c0.28,1.27,1.92,2.25,3.41,2.83c4.42,1.71,7.57,1.55,11.53,0c1.49-0.58,2.81-1.56,3.41-2.83
						C157.4,138.58,157.11,137.97,156.5,136.94z"/>
					<path class="st4" d="M109.04,124.7c-3.61-0.96-5.74-7.06-1.76-5.92c0.56,0.16,0.82-0.67,0.8-1.6c-0.05-1.83-0.78-4.9-2.02-6.19
						c-0.85-0.89-2.45-1.28-3.52-0.57c-3.72,2.47-2.29,8.93-0.06,11.72c0.96,1.2,1.23,0.25,0.48-1.04c-1.12-1.92-1.14-2.98-1.44-5.2
						c-0.18-1.35,0.11-3.59,1.36-4.2c1.85-0.91,3.24,0.75,3.55,2.45c0.31,0.99,0.36,2.12,0.42,3.19c-1.41-0.08-2.49,0.83-2.51,2.75
						c-0.03,2.38,2.4,5.04,4.54,5.52C109.54,125.74,109.8,124.9,109.04,124.7z"/>
					<path class="st4" d="M188.37,124.7c3.61-0.96,5.74-7.06,1.76-5.92c-0.56,0.16-0.82-0.67-0.8-1.6c0.05-1.83,0.78-4.9,2.02-6.19
						c0.85-0.89,2.45-1.28,3.52-0.57c3.72,2.47,2.29,8.93,0.06,11.72c-0.96,1.2-1.23,0.25-0.48-1.04c1.12-1.92,1.14-2.98,1.44-5.2
						c0.18-1.35-0.11-3.59-1.36-4.2c-1.85-0.91-3.24,0.75-3.55,2.45c-0.31,0.99-0.36,2.12-0.42,3.19c1.41-0.08,2.49,0.83,2.51,2.75
						c0.03,2.38-2.4,5.04-4.54,5.52C187.87,125.74,187.61,124.9,188.37,124.7z"/>
					<path class="st9" d="M151.84,320l-1.37-63.65c0,0-17.06-29.85-21.32-40.09c-4.26-10.24-6.82-23.88-17.91-25.59
						c0,0-14.93,5.54-26.02,8.96c-11.09,3.41-21.75,8.1-26.87,20.9c-3.86,9.66-4.63,70.34-4.77,99.47H151.84z"/>
					<path class="st9" d="M247.03,320c-0.6-29.14-2.29-89.81-6.15-99.47c-5.12-12.79-15.78-17.49-26.87-20.9
						c-11.09-3.41-26.02-8.96-26.02-8.96c-11.09,1.71-13.65,15.35-17.91,25.59s-21.32,40.09-21.32,40.09L147.39,320H247.03z"/>
					<polygon class="st10" points="127.43,205.71 145.67,197.07 150.14,197.71 172.86,208.59 148.01,272.02 130.74,232.36 					"/>
					<polygon class="st11" points="139.59,206.03 143.43,217.54 152.38,217.54 156.86,205.39 148.33,197.5 					"/>
					<polygon class="st11" points="143.64,215.84 135.11,245.05 148.33,274.26 162.19,245.9 152.38,215.84 					"/>
					<polygon class="st2" points="122.42,184.7 147.91,197.5 129.57,223.94 					"/>
					<polygon class="st2" points="175.2,184.7 148.33,197.5 168.06,223.94 					"/>
					<path class="st12" d="M91.34,320c-2.65-18.71-9.5-44.99-10.36-78.29c-4.8,33.3-6.68,53.4-3.95,78.29H91.34z"/>
					<path class="st12" d="M225.4,320c2.66-16.85,3.06-42.82-3.95-78.29c0.26,33.3-7.71,59.58-10.36,78.29H225.4z"/>
					<path class="st12" d="M125.92,174.44c0,0-0.8,8.96-3.04,12.71c2.96,15.35,25.56,87.86,25.56,87.86l-38.49-43.39l7.68-17.91
						l-16.21,0.85c0,0-0.13-12.39,3.31-19.65C108.54,186.86,114.84,177.15,125.92,174.44z"/>
					<path class="st12" d="M170.96,174.44c0,0,0.8,8.96,3.04,12.71c-2.96,15.35-25.77,87.86-25.77,87.86l38.7-43.39l-7.68-17.91
						l16.21,0.85c0,0,0.13-12.39-3.31-19.65C188.34,186.86,182.03,177.15,170.96,174.44z"/>
					<path class="st6" d="M183.35,113.16c-0.54-2.09-2.71-3.1-5.75-3.17c-7.93-0.2-15.42-0.31-21.8,0.4
						c-1.83,0.2-3.41,1.89-5.25,3.04c-2.11,1.32-4.1,1.19-5.81,0c-1.78-1.23-3.12-2.84-4.95-3.04c-6.38-0.71-13.87-0.59-21.8-0.4
						c-3.04,0.08-5.21,1.09-5.75,3.17c-1.54,5.98,0.89,15.79,6.54,17.04c7.13,1.59,11.42,1.27,17.84,0.4
						c2.42-0.33,4.36-4.95,6.74-9.71c0.95-1.9,2.84-3.23,4.43-3.37c1.58,0.14,3.5,1.47,4.45,3.37c2.38,4.76,4.32,9.38,6.74,9.71
						c6.42,0.88,10.7,1.19,17.84-0.4C182.47,128.95,184.9,119.14,183.35,113.16z M139.29,123.62c-1.14,2.48-2.37,4.7-4.45,5
						c-7.47,1.07-14.22,0.49-16.58-1.48c-2.39-1.99-3.21-4.84-3.64-7.64c-0.43-2.81-0.49-6.56,2.6-7.02
						c2.9-0.43,15.04-0.12,20.98,0.28C141.18,112.96,142.17,117.32,139.29,123.62z M180.98,119.5c-0.43,2.8-1.24,5.65-3.64,7.64
						c-2.36,1.97-9.11,2.55-16.58,1.48c-2.08-0.3-3.31-2.52-4.45-5c-2.88-6.3-1.89-10.66,1.08-10.86c5.94-0.4,18.08-0.71,20.98-0.28
						C181.46,112.95,181.41,116.69,180.98,119.5z"/>
					<g>
						<path class="st2" d="M161.29,153.08c0.73-1.39,1.1-1.51,1.1-2.33h-28.12c0,0.96,0.49,1.37,1.46,3.04
							C140.07,154.25,153.31,155.37,161.29,153.08z"/>
						<path class="st13" d="M148.33,161.26c6.72,0,11.06-4.54,12.96-8.18c-7.98,2.29-21.22,1.17-25.56,0.71
							C137.76,157.28,141.93,161.26,148.33,161.26z"/>
					</g>
					<g>
						<rect x="186.42" y="257.6" class="st2" width="24.68" height="34.81"/>
						<rect x="194.69" y="251.64" class="st14" width="8.15" height="9.94"/>
						<rect x="189.11" y="267.34" class="st14" width="19.3" height="2.36"/>
					</g>
				</g>
				<g>
					<path class="st14" d="M109.31,319.98H34.18c-1.36,0-2.48-1.12-2.48-2.48V214.04c0-1.36,1.12-2.48,2.48-2.48h75.13
						c1.36,0,2.48,1.12,2.48,2.48V317.5C111.79,318.87,110.67,319.98,109.31,319.98z"/>
					<rect x="42.01" y="221.5" class="st2" width="59.46" height="88.54"/>
					<g>
						<path class="st15" d="M85.15,209.21c0-1.86-1.84-3.38-4.08-3.38H62.42c-2.24,0-4.08,1.52-4.08,3.38v6.63h26.81V209.21z"/>
						<path class="st11" d="M62.42,225.84h18.65c2.25,0,4.08-1.52,4.08-3.38v-6.63H58.34v6.63
							C58.34,224.32,60.17,225.84,62.42,225.84z"/>
					</g>
					<g>
						<rect x="60.38" y="273.27" class="st1" width="35.49" height="2.84"/>
						<rect x="60.38" y="286.46" class="st1" width="35.49" height="2.84"/>
						<rect x="60.38" y="299.83" class="st1" width="35.49" height="2.84"/>
						<rect x="60.38" y="245.86" class="st1" width="35.49" height="2.84"/>
						<rect x="60.38" y="259.06" class="st1" width="35.49" height="2.84"/>
					</g>
					<g>
						<path class="st1" d="M52.3,247.28c0,1.3-1.05,2.35-2.35,2.35c-1.3,0-2.35-1.05-2.35-2.35c0-1.3,1.05-2.35,2.35-2.35
							C51.25,244.93,52.3,245.98,52.3,247.28z"/>
						<path class="st1" d="M52.3,260.48c0,1.3-1.05,2.35-2.35,2.35c-1.3,0-2.35-1.05-2.35-2.35c0-1.3,1.05-2.35,2.35-2.35
							C51.25,258.13,52.3,259.18,52.3,260.48z"/>
						<path class="st1" d="M52.3,274.61c0,1.3-1.05,2.35-2.35,2.35c-1.3,0-2.35-1.05-2.35-2.35c0-1.3,1.05-2.35,2.35-2.35
							C51.25,272.26,52.3,273.31,52.3,274.61z"/>
						<path class="st1" d="M52.3,287.88c0,1.3-1.05,2.35-2.35,2.35c-1.3,0-2.35-1.05-2.35-2.35c0-1.3,1.05-2.35,2.35-2.35
							C51.25,285.54,52.3,286.59,52.3,287.88z"/>
						<path class="st1" d="M52.3,301.25c0,1.3-1.05,2.35-2.35,2.35c-1.3,0-2.35-1.05-2.35-2.35c0-1.3,1.05-2.35,2.35-2.35
							C51.25,298.9,52.3,299.95,52.3,301.25z"/>
					</g>
					<rect x="47.61" y="232.8" class="st1" width="48.27" height="3.04"/>
				</g>
			</g>
			<g>
				<defs>
					<path id="SVGID_1_" d="M592.3,138.39c0-34.85-39.51-63.1-88.24-63.1c-7.84,0-15.44,0.74-22.68,2.11
						C475.49,45.05,434.8,20,385.48,20c-38.6,0-71.9,15.34-87.39,37.51c-9.06-2.5-18.76-3.85-28.86-3.85
						c-49.51,0-89.64,32.56-89.64,72.72c0,35.02,30.51,64.25,71.15,71.16c-0.12,1.31-0.18,2.63-0.18,3.96
						c0,35.18,41.18,63.7,91.98,63.7c30.24,0,57.08-10.11,73.84-25.72c11.54,4.88,24.9,7.69,39.15,7.69
						c39.42,0,72.08-21.36,77.96-49.27C567.74,189.24,592.3,165.87,592.3,138.39z"/>
				</defs>
				<clipPath id="SVGID_2_">
					<use xlink:href="#SVGID_1_"  style="overflow:visible;"/>
				</clipPath>
				<g class="st16">
					<g>
						<rect x="294.52" y="86.9" class="st17" width="9.83" height="133.82"/>
						<g>
							<path class="st17" d="M333.05,225.17h-47.91c-6.14,0-11.14-5-11.14-11.14v-68.01c0-6.14,5-11.14,11.14-11.14h47.91
								c6.14,0,11.14,5,11.14,11.14v68.01C344.19,220.18,339.19,225.17,333.05,225.17z M285.14,139.34c-3.68,0-6.68,3-6.68,6.68
								v68.01c0,3.68,3,6.68,6.68,6.68h47.91c3.68,0,6.68-3,6.68-6.68v-68.01c0-3.68-3-6.68-6.68-6.68H285.14z"/>
						</g>
						<g>
							<rect x="287.76" y="110.09" class="st18" width="84.51" height="37.17"/>
							<rect x="287.76" y="110.09" class="st19" width="34.82" height="37.17"/>
							<rect x="301.29" y="110.09" class="st20" width="10.92" height="7.79"/>
							<rect x="341.96" y="110.09" class="st20" width="10.92" height="7.79"/>
							<rect x="312.91" y="132.25" class="st9" width="6.77" height="10.16"/>
							<rect x="361.29" y="134.87" class="st9" width="7.54" height="7.55"/>
							<rect x="301.93" y="132.25" class="st9" width="6.77" height="10.16"/>
							<rect x="325.89" y="140.17" class="st9" width="20.44" height="2.25"/>
							<rect x="325.89" y="134.87" class="st9" width="20.44" height="2.25"/>
							<rect x="325.89" y="112.47" class="st9" width="10.22" height="2.25"/>
						</g>
						<g>
							<rect x="284.83" y="147.26" class="st21" width="96.69" height="67.33"/>
							<rect x="284.83" y="147.26" class="st18" width="39.53" height="67.33"/>
							<rect x="298.35" y="147.26" class="st20" width="10.92" height="15.58"/>
							<rect x="349.95" y="147.26" class="st20" width="10.92" height="15.58"/>
							<rect x="312.98" y="200.48" class="st9" width="7.54" height="11.32"/>
							<rect x="359.94" y="200.48" class="st9" width="18.78" height="9.49"/>
							<rect x="302.94" y="200.48" class="st9" width="7.54" height="11.32"/>
							<rect x="293.2" y="200.48" class="st9" width="7.54" height="11.32"/>
							<rect x="327" y="200.72" class="st9" width="20.44" height="2.25"/>
							<rect x="327" y="206.15" class="st9" width="20.44" height="2.25"/>
							<rect x="327" y="150.71" class="st9" width="20.44" height="2.25"/>
						</g>
						<g>
							<path class="st17" d="M405.06,228.04v-0.54H261.28v0.54c0,4.9,4.01,8.91,8.91,8.91h1.6c-0.7,1.74-1.86,3.51-3.76,3.9
								c-0.2,0.04-0.32,0.09-0.4,0.14c-0.92,0.29-1.6,1.13-1.6,2.15c0,1.26,1.03,2.28,2.28,2.28h15.94c1.26,0,2.28-1.03,2.28-2.28
								c0-1.02-0.69-1.85-1.61-2.15c-0.12-0.05-0.27-0.09-0.53-0.13c-1.96-0.26-3.24-2.1-4.03-3.91h43.96
								c-0.7,1.74-1.86,3.51-3.76,3.9c-0.2,0.04-0.32,0.09-0.4,0.14c-0.92,0.29-1.6,1.13-1.6,2.15c0,1.26,1.03,2.28,2.28,2.28h15.94
								c1.26,0,2.28-1.03,2.28-2.28c0-1.02-0.69-1.85-1.61-2.15c-0.12-0.05-0.27-0.09-0.53-0.13c-1.96-0.26-3.24-2.1-4.03-3.91
								h55.47c-0.7,1.74-1.86,3.51-3.76,3.9c-0.2,0.04-0.32,0.09-0.4,0.14c-0.92,0.29-1.6,1.13-1.6,2.15c0,1.26,1.03,2.28,2.28,2.28
								h15.94c1.26,0,2.28-1.03,2.28-2.28c0-1.02-0.69-1.85-1.61-2.15c-0.12-0.05-0.27-0.09-0.53-0.13
								c-1.99-0.27-3.27-2.15-4.06-3.98C401.44,236.5,405.06,232.69,405.06,228.04z"/>
							<rect x="257.65" y="214.59" class="st22" width="73.35" height="13.61"/>
							<rect x="328.8" y="214.59" class="st23" width="81.96" height="13.61"/>
						</g>
						<g>
							<path class="st17" d="M334.13,92.85h-52.29c-2.2,0-4-1.8-4-4V70.07c0-2.2,1.8-4,4-4h52.29c2.2,0,4,1.8,4,4v18.78
								C338.13,91.05,336.33,92.85,334.13,92.85z"/>
							<path class="st12" d="M340.25,92.85h-52.29c-2.2,0-4-1.8-4-4V70.07c0-2.2,1.8-4,4-4h52.29c2.2,0,4,1.8,4,4v18.78
								C344.25,91.05,342.45,92.85,340.25,92.85z"/>
							<rect x="290.65" y="70.76" class="st2" width="46.57" height="3.34"/>
							<rect x="290.65" y="76.98" class="st24" width="46.57" height="10.26"/>
						</g>
					</g>
					<g>
						<g>
							<g>
								<path class="st3" d="M440.13,155.61c1.44,0.69,2.98,1.04,4.55,1.2c-0.05-0.11-0.08-0.18-0.08-0.18l-9.49-3.35
									c0,0,0,0.49-0.02,1.29C436.81,154.11,438.46,154.82,440.13,155.61z"/>
								<path class="st3" d="M457.94,169.72c-0.6,0.34-1.27,0.66-2.06,0.96c-10.19,3.99-18.47-2.52-21.7-6.97
									c-0.5,2.53-1.25,4.79-2.41,5.76c-3.35,2.79-8.93,4.47-8.93,4.47s10.05,10.6,21.77,10.05c0.03,0,0.06-0.01,0.09-0.01
									c0.03,0,0.06,0.01,0.09,0.01c11.72,0.56,21.77-10.05,21.77-10.05S461.31,172.36,457.94,169.72z"/>
								<path class="st3" d="M454.35,155.82c-0.07-1.51-0.07-2.53-0.07-2.53l-9.49,3.35c0,0-0.03,0.08-0.08,0.18
									C447.89,157.14,451.22,156.58,454.35,155.82z"/>
								<path class="st4" d="M444.71,156.82c-0.01,0-0.02,0-0.03,0c0.01,0.01,0.01,0.02,0.01,0.03
									C444.7,156.84,444.7,156.83,444.71,156.82z"/>
								<path class="st4" d="M455.88,170.68c0.78-0.31,1.46-0.63,2.06-0.96c-0.1-0.08-0.21-0.16-0.31-0.24
									c-2.43-2.03-3.1-9.64-3.28-13.66c-3.12,0.76-6.46,1.32-9.64,1c-0.01,0.01-0.01,0.02-0.01,0.03
									c-0.01-0.01-0.01-0.02-0.01-0.03c-1.57-0.16-3.11-0.51-4.55-1.2c-1.67-0.8-3.32-1.5-5.04-1.04
									c-0.06,1.95-0.25,5.78-0.91,9.14C437.42,168.17,445.7,174.68,455.88,170.68z"/>
							</g>
							<g>
								<path class="st3" d="M475.59,122.18c-1-5.84-4.75-4.8-6.61-3.95c0.07-7.05,0.05-17.29,0.05-17.29l-23.14,1.18l-0.27-0.04
									l-0.28,0.04l-22.74-1.5c0,0-0.43,10.48-0.36,17.46c-1.75-0.69-5.34-1.37-6.28,4.09c-1.07,6.24,4.16,8.96,6.82,9.92
									c0.28,3.51,0.68,6.67,1.28,8.89c1.71,6.42,11.69,14.32,14.12,15.84c2.69,1.68,5.9,2.04,7.15,2.12v0.02c0,0,0.1,0,0.28-0.01
									c0.17,0.01,0.27,0.01,0.27,0.01v-0.02c1.26-0.08,4.47-0.44,7.15-2.12c2.43-1.52,12.41-9.42,14.12-15.84
									c0.59-2.2,0.99-5.31,1.27-8.78C470.94,131.37,476.71,128.71,475.59,122.18z"/>
								<path class="st4" d="M472.03,120.17c-0.77-0.31-1.82,0.03-2.35,0.65c-1.21,1.41-1.04,3.04-0.92,4.75
									c0.04,0.59,0.29,0.73,0.53,0.66c0.69-0.19,1.5,0.22,1.49,0.99c-0.02,1-0.83,1.47-1.61,1.82c-0.38,0.17-0.18,0.73,0.21,0.68
									c2.72-0.34,3.14-4.86,0.25-4.45c-0.01-0.92-0.26-1.66-0.06-2.59c0.29-1.36,1.6-2.59,2.82-1.49c1.24,1.12,0.8,3.69,0.21,4.94
									c-0.02,0.05,0.04,0.09,0.08,0.06C474.34,124.92,474.02,120.97,472.03,120.17z"/>
								<path class="st4" d="M419.58,120.17c0.77-0.31,1.82,0.03,2.35,0.65c1.21,1.41,1.04,3.04,0.92,4.75
									c-0.04,0.59-0.29,0.73-0.53,0.66c-0.69-0.19-1.5,0.22-1.49,0.99c0.02,1,0.83,1.47,1.61,1.82c0.38,0.17,0.18,0.73-0.21,0.68
									c-2.72-0.34-3.14-4.86-0.25-4.45c0.01-0.92,0.26-1.66,0.06-2.59c-0.29-1.36-1.6-2.59-2.82-1.49
									c-1.24,1.12-0.8,3.69-0.21,4.94c0.02,0.05-0.04,0.09-0.08,0.06C417.27,124.92,417.59,120.97,419.58,120.17z"/>
								<path class="st4" d="M456.19,141.67c-0.14-0.49-0.63-0.44-1.22,0.67c-0.81,1.55-4.94,2.63-9.13,2.63
									c-4.18,0-8.32-1.08-9.12-2.63c-0.58-1.12-1.07-1.16-1.22-0.67c-0.32,1.08,0.41,1.73,2.7,3.06c1.64,0.96,5.79,1.45,7.71,1.44
									c1.89,0,5.38-0.42,7.37-1.42C455.65,143.57,456.51,142.75,456.19,141.67z"/>
								<path class="st4" d="M464.1,103.92c-5.86-2.97-13.99-2.38-20.33-2.51c-5.26-0.11-12.94-1.35-17.57,2.29
									c-4.65,3.65-5.03,14.19-5.03,14.19c0.33,0.18,0.5-0.4,0.81-0.12c0.31,0.29,1.24,1.9,1.61-0.24
									c0.89-5.14,2.18-11.08,8.73-10.64c4.58,0.31,8.98,1.12,13.62,1.22c4.89,0.11,9.47-0.21,14.24-1.2
									c6.86-1.43,8.64,5.52,8.17,10.67c-0.13,1.43,0.62,0.56,0.96,0.29c0.38-0.3,0.79,0.18,1.19-0.05
									C470.97,111.9,469.75,106.79,464.1,103.92z"/>
								<g>
									<path class="st7" d="M463.31,92.67c-2.06-1.2-2.89-2.96-5.85-4.11c-3.44-1-7.05-1.38-10.65-1.26
										c-10.81,0.35-18.55,5.46-25.64,13.33c-1.91,6.94-1.14,17-1.14,17l1.39,0.45c-0.32-5.64,0.1-10.66,2.17-13.92
										c2.57-4.06,10.07-4.28,14.47-2.84c0.12-0.02,0.24-0.04,0.35-0.06c-1.24-1.04-2.15-3.94-2.15-5.51
										c1.52,1.51,3.99,2.93,6.03,3.48c1.6,0.43,3.32,0.28,4.84,0.88c-0.46-0.48-0.8-1.15-1-1.72c-0.34-0.96-0.54-3.59-0.3-4.49
										c3.11,4.17,8.3,5.41,13.08,6.34c2.39,0.46,5.92,0.64,7.97,2.13c3.79,2.73,3.77,9.19,2.78,15.72l1.53-0.45
										c0,0,1.02-7.91-0.57-15.78C469.31,97.77,466.87,95.16,463.31,92.67z"/>
									<path class="st8" d="M466.86,102.35c-2.05-1.48-5.58-1.66-7.97-2.13c-4.78-0.93-9.97-2.17-13.08-6.34
										c-0.24,0.9-0.04,3.53,0.3,4.49c0.21,0.57,0.54,1.24,1,1.72c-1.53-0.6-3.24-0.45-4.84-0.88c-2.04-0.54-4.51-1.97-6.03-3.48
										c0,1.57,0.91,4.47,2.15,5.51c-0.12,0.02-0.24,0.05-0.35,0.06c-4.39-1.45-11.9-1.22-14.47,2.84
										c-2.07,3.26-2.48,8.28-2.17,13.92l1.04,0.34c0,0-0.52-7.17,2.07-11.32c2.59-4.14,8.91-2.4,20.14-2.4
										c11.23,0,19.01-2.47,22.87,1.88c2.01,2.27,1.35,11.72,1.35,11.72l0.76-0.22C470.62,111.55,470.64,105.09,466.86,102.35z"/>
								</g>
								<path class="st4" d="M452.17,146.82c-2.17,1.61-4.04,1.97-6.35,1.97c-2.69,0-4.17-0.56-6.31-1.77
									c-0.1-0.06-0.25,0.08-0.19,0.16c2.25,2.9,10.51,3.11,13.07-0.23C452.51,146.81,452.32,146.71,452.17,146.82z"/>
								<path class="st4" d="M448.39,135.21c-0.12-0.1-0.32-0.01-0.27,0.14c0.73,2.22-0.75,2.62-1.52,2.91
									c-0.63,0.23-1.07,0.17-1.58,0c-0.78-0.26-2.25-0.69-1.52-2.91c0.05-0.16-0.15-0.24-0.27-0.14c-1.27,1.07-0.66,2.7,0.5,3.53
									c1.42,1.02,3.2,0.64,4.17,0C449.08,137.96,449.66,136.28,448.39,135.21z"/>
								<g>
									<path class="st4" d="M452.27,119.21c2.43-0.91,5.89-2.06,8.3-0.93c0.13,0.06,0.14,0.2,0.08,0.3
										c0.59,0.03,1.22,0.22,1.94,0.64c0.03,0.02,0.01,0.06-0.02,0.06c-2.99-0.59-6.36,2.05-7.14,3.87
										c-0.51,1.19-3.25,5.2-5.44-0.21C449.11,120.78,450.62,119.82,452.27,119.21z"/>
									<g>
										<path class="st2" d="M462.13,124.38c-1.82-1.86-5.13-1.74-7.48-0.86c-0.03-0.01-0.06-0.02-0.1,0
											c-1.88,0.71-2.89,2.55-0.93,3.76c1.76,1.09,4.57,1.21,6.44,0.43C461.15,127.26,463.53,125.81,462.13,124.38z"/>
										<path class="st5" d="M459.37,125.41c0,1.23-1,2.23-2.23,2.23c-1.23,0-2.23-1-2.23-2.23c0-1.23,1-2.23,2.23-2.23
											C458.37,123.18,459.37,124.18,459.37,125.41z"/>
										<path class="st6" d="M458.32,125.53c0,0.64-0.52,1.16-1.16,1.16c-0.64,0-1.16-0.52-1.16-1.16c0-0.64,0.52-1.16,1.16-1.16
											C457.8,124.37,458.32,124.89,458.32,125.53z"/>
										<path class="st2" d="M457.33,124.71c0,0.55-0.44,0.99-0.99,0.99c-0.55,0-0.99-0.44-0.99-0.99c0-0.55,0.44-0.99,0.99-0.99
											C456.89,123.71,457.33,124.16,457.33,124.71z"/>
										<path class="st6" d="M459.33,122.91c-2.41-0.42-5.62,0.18-6.79,2.21c-0.19,0.32-0.12,0.7,0.21,0.33
											c1.61-1.81,3.65-2.19,6.07-1.94c1.28,0.13,3.46,0.91,3.29,2.19c-0.04,0.34-0.22,0.66-0.81,1.14
											c-0.46,0.37-0.05,0.57,0.39,0.19C464.22,124.81,461.78,123.33,459.33,122.91z"/>
									</g>
									<path class="st6" d="M450.19,119.46c4.33-1.4,8.85-3.89,13.02-0.52c0.26,0.21,0,0.64-0.26,0.53
										c-2.02-0.91-3.56-1.44-5.43-1.11c-2.3,0.41-4.57,2.22-6.72,2.4C449.23,120.89,448.84,119.9,450.19,119.46z"/>
								</g>
								<g>
									<path class="st4" d="M439.6,119.21c-2.43-0.91-5.89-2.06-8.3-0.93c-0.13,0.06-0.14,0.2-0.08,0.3
										c-0.59,0.03-1.22,0.22-1.94,0.64c-0.03,0.02-0.01,0.06,0.02,0.06c2.99-0.59,6.36,2.05,7.14,3.87
										c0.51,1.19,3.25,5.2,5.44-0.21C442.76,120.78,441.25,119.82,439.6,119.21z"/>
									<g>
										<path class="st2" d="M429.74,124.38c1.82-1.86,5.13-1.74,7.48-0.86c0.03-0.01,0.06-0.02,0.1,0
											c1.88,0.71,2.89,2.55,0.93,3.76c-1.76,1.09-4.57,1.21-6.44,0.43C430.72,127.26,428.34,125.81,429.74,124.38z"/>
										<path class="st5" d="M432.5,125.41c0,1.23,1,2.23,2.23,2.23c1.23,0,2.23-1,2.23-2.23c0-1.23-1-2.23-2.23-2.23
											C433.5,123.18,432.5,124.18,432.5,125.41z"/>
										<circle class="st6" cx="434.71" cy="125.53" r="1.16"/>
										<path class="st2" d="M433.1,124.71c0,0.55,0.44,0.99,0.99,0.99s0.99-0.44,0.99-0.99c0-0.55-0.44-0.99-0.99-0.99
											S433.1,124.16,433.1,124.71z"/>
										<path class="st6" d="M432.54,122.91c2.41-0.42,5.62,0.18,6.79,2.21c0.19,0.32,0.12,0.7-0.21,0.33
											c-1.61-1.81-3.65-2.19-6.07-1.94c-1.28,0.13-3.46,0.91-3.29,2.19c0.04,0.34,0.22,0.66,0.81,1.14
											c0.46,0.37,0.05,0.57-0.39,0.19C427.65,124.81,430.09,123.33,432.54,122.91z"/>
									</g>
									<path class="st6" d="M441.68,119.46c-4.33-1.4-8.85-3.89-13.02-0.52c-0.26,0.21,0,0.64,0.26,0.53
										c2.01-0.91,3.56-1.44,5.43-1.11c2.3,0.41,4.57,2.22,6.72,2.4C442.64,120.89,443.03,119.9,441.68,119.46z"/>
								</g>
								<g>
									<path class="st25" d="M419.25,111.17c0,0-2.75-25.7,25.91-25.7c30.47,0,26.46,26.29,26.46,26.29s-5.99-1.88-26.19-1.88
										C426.18,109.87,419.25,111.17,419.25,111.17z"/>
									<path class="st26" d="M464.19,109.82c-4.49-1.25-7.21-5.7-18.61-5.95c-0.01,0-0.02,0-0.02,0c-0.01,0-0.02,0-0.02,0
										c-11.39,0.25-14.11,4.7-18.61,5.95c-4.49,1.25-7.68-2.26-7.68-2.26v5.07c0,0,3.54,1.85,13.48,2.77
										c3.31,0.31,5.93-3.61,12.43-3.61c6.5,0,10.52,3.88,13.97,3.54c9.36-0.94,13.22-2.88,13.22-2.88l-0.49-4.89
										C471.87,107.57,468.68,111.08,464.19,109.82z"/>
									<path class="st25" d="M458.05,113.73c-5.04-0.9-5-6.16-11.73-6.16c-0.14,0-1.61,0-1.74,0c-6.73,0-6.69,5.26-11.73,6.16
										c-3.81,0.68-8.43-1.84-12.33-0.58c0,0,8.22,3.56,13.3,2.76c5.08-0.8,5.96-5.77,10.71-6.02c0.36-0.02,1.48-0.02,1.84,0
										c4.75,0.26,5.63,5.23,10.71,6.02c5.08,0.8,13.3-2.76,13.3-2.76C466.48,111.89,461.86,114.41,458.05,113.73z"/>
									<path class="st2" d="M452.83,98.05c0,2.3-3.51,4.16-7.85,4.16c-4.34,0-7.85-1.86-7.85-4.16s3.51-4.16,7.85-4.16
										C449.31,93.89,452.83,95.75,452.83,98.05z"/>
								</g>
							</g>
							<g>
								<path class="st25" d="M499.22,244.72c-0.15-4.77-1-45.24-3.41-53.65c-1.28-4.48-4.92-10.78-14.02-14.28
									c-7.26-2.8-19.42-7.14-19.42-7.14c-2.34,2.97-6.23,2.92-11.65,4.34c-2.31,0.61-3.87,5.75-6.23,5.75
									c-3.22,0-2.82-5.92-5.79-6.98c-4.33-1.54-10.06-0.04-12.04-2.55c0,0-8.05,1.92-19.23,6.58c-8.99,3.75-12.74,9.8-14.02,14.28
									c-2.4,8.41-3.25,48.88-3.41,53.65H499.22z"/>
								<path class="st26" d="M411.89,225.32h-7.45c-0.31-2.19,0.19-4.74,0.43-6.59c0.87-6.76,1.63-13.52,0.99-20.3
									c-0.15-1.56-0.67-10.9-1.1-14.02c-0.7-5.11,1.5-6.01,2-1.7c0.41,3.53,0.9,5.11,1.8,10.01c0.86,4.69,2.63,10.58,3.02,13.3
									c0.46,3.28-0.32,8.04-0.61,11.33C410.67,220.68,411.38,222.28,411.89,225.32z"/>
								<path class="st26" d="M477.76,225.32h7.45c0.31-2.19-0.19-4.74-0.43-6.59c-0.87-6.76-1.63-13.52-0.99-20.3
									c0.15-1.56,0.67-10.9,1.1-14.02c0.7-5.11-1.5-6.01-2-1.7c-0.41,3.53-0.9,5.11-1.8,10.01c-0.86,4.69-2.63,10.58-3.02,13.3
									c-0.46,3.28,0.32,8.04,0.61,11.33C478.98,220.68,478.27,222.28,477.76,225.32z"/>
							</g>
							<polygon class="st26" points="446.81,173.98 444.7,177.96 442.63,173.98 438.71,175.7 444.74,185.53 450.73,175.7 							"/>
							<path class="st27" d="M434.74,159.82c1.36,3.9,7.93,14.16,7.93,14.16l-11.2,10.98l-6.45-14.49
								C425.02,170.47,430.44,161.46,434.74,159.82z"/>
							<path class="st27" d="M454.64,159.82c-1.05,3.9-7.88,14.16-7.88,14.16l11.2,10.98l6.45-14.49
								C464.41,170.47,458.94,161.46,454.64,159.82z"/>
							<path class="st4" d="M492.23,225.77c0,0-1.59-2.2-2.08-3.8c-0.84-2.72,0.87-3.99-0.43-5.74c-0.68-0.91-1.97,0.15-2.72,1.58
								c-0.75,1.43-2.33,5.5-1.41,8.32C486.52,228.96,492.23,225.77,492.23,225.77z"/>
							<path class="st4" d="M396.93,226.32c0,0,1.59-2.2,2.08-3.8c0.84-2.72-0.87-3.99,0.43-5.74c0.68-0.91,1.97,0.15,2.72,1.58
								c0.75,1.43,2.33,5.5,1.41,8.32C402.65,229.51,396.93,226.32,396.93,226.32z"/>
						</g>
						<g>
							<rect x="402.33" y="199.57" class="st21" width="84.88" height="45.14"/>
							<rect x="402.33" y="197.19" class="st28" width="84.88" height="6.46"/>
							<rect x="406.04" y="209.1" class="st9" width="20.66" height="2.39"/>
							<rect x="406.04" y="214.83" class="st9" width="20.66" height="2.39"/>
							<rect x="406.04" y="237.2" class="st9" width="20.66" height="2.39"/>
							<rect x="473.91" y="226.98" class="st9" width="9.79" height="14.37"/>
							<rect x="457.88" y="226.98" class="st9" width="9.79" height="14.37"/>
							<rect x="439.75" y="197.15" class="st20" width="9.83" height="13"/>
						</g>
						<g>
							<path class="st3" d="M493.56,226.05c0,0,2.51,0.17,2.46,1.98c-0.05,1.81-1.66,2.35-1.63,3.07c0.02,0.72,0.82,1.44,1.15,2.5
								c0.33,1.06-2.04,1.66-1.97,2.67c0.04,0.57,1.56,1.39,1.56,2.65s-2.57,1.64-2.25,2.57c0.21,0.61,0.82,1.32,0.69,2.05
								c-0.13,0.73-1.25,1.72-3.29,1.87c-0.82,0.06-9.84-1.24-10.42-3.19c-0.67-2.25,0.89-2.54,0.89-2.52c0,0-1.95-0.47-2.05-2.08
								c-0.12-1.8,1.82-2.31,1.82-2.31s-2-0.26-2.16-2.24c-0.1-1.2,1.19-2,1.57-2.4c-1.82-0.95-1.81-3.43-0.77-3.96
								C482.22,225.15,488.43,224.63,493.56,226.05z"/>
							<path class="st4" d="M490.79,240.97c0,0-2.3,0.76-4.34,0.37c-2.03-0.39-3.72-1.6-3.72-1.6S488.89,240.61,490.79,240.97z"/>
							<path class="st4" d="M491.21,235.69c0,0-1.93,0.25-4.19,0.21c-2.07-0.04-4.55-0.61-4.55-0.61S488.85,234.79,491.21,235.69z"
								/>
							<path class="st4" d="M491.69,229.96c0,0-2.52,0.51-4.59,0.54c-2.43,0.04-4.37-0.73-4.37-0.73S489.34,229.07,491.69,229.96z"
								/>
							<path class="st4" d="M494.25,237.27c-0.62-0.29-1.28-0.72-1.2-1.54c0.04-0.4,0.69-0.58,1.3-0.96c0.65-0.4,1.38-0.88,1-1.52
								c-0.4-0.67-1.42-0.72-1.37-2.07c0.05-1.35,1.55-2.04,1.49-3.21c-0.06-1.17-2.75-2.23-2.75-2.23s1.97,0.26,2.77,1.09
								c0.8,0.83,0.86,1.69,0.04,2.73c-0.66,0.83-1.32,1.58-0.64,2.39c0.6,0.72,1.64,1.29,0.89,2.49
								C495.11,235.54,493.16,235.71,494.25,237.27z"/>
						</g>
						<g>
							<path class="st3" d="M396.09,226.05c0,0-2.51,0.17-2.46,1.98c0.05,1.81,1.66,2.35,1.63,3.07c-0.02,0.72-0.82,1.44-1.15,2.5
								c-0.33,1.06,2.04,1.66,1.97,2.67c-0.04,0.57-1.56,1.39-1.56,2.65c0,1.26,2.57,1.64,2.25,2.57c-0.21,0.61-0.82,1.32-0.69,2.05
								c0.13,0.73,1.25,1.72,3.29,1.87c0.82,0.06,9.84-1.24,10.42-3.19c0.67-2.25-0.89-2.54-0.89-2.52c0,0,1.94-0.47,2.05-2.08
								c0.12-1.8-1.82-2.31-1.82-2.31s2-0.26,2.16-2.24c0.1-1.2-1.19-2-1.57-2.4c1.82-0.95,1.81-3.43,0.77-3.96
								C407.43,225.15,401.22,224.63,396.09,226.05z"/>
							<path class="st4" d="M398.86,240.97c0,0,2.3,0.76,4.34,0.37c2.03-0.39,3.72-1.6,3.72-1.6S400.76,240.61,398.86,240.97z"/>
							<path class="st4" d="M398.44,235.69c0,0,1.93,0.25,4.19,0.21c2.07-0.04,4.55-0.61,4.55-0.61S400.8,234.79,398.44,235.69z"/>
							<path class="st4" d="M397.96,229.96c0,0,2.52,0.51,4.59,0.54c2.43,0.04,4.37-0.73,4.37-0.73S400.31,229.07,397.96,229.96z"/>
							<path class="st4" d="M395.4,237.27c0.62-0.29,1.28-0.72,1.2-1.54c-0.04-0.4-0.69-0.58-1.3-0.96c-0.65-0.4-1.38-0.88-1-1.52
								c0.4-0.67,1.42-0.72,1.37-2.07c-0.05-1.35-1.55-2.04-1.49-3.21c0.06-1.17,2.75-2.23,2.75-2.23s-1.97,0.26-2.77,1.09
								c-0.8,0.83-0.86,1.69-0.04,2.73c0.66,0.83,1.32,1.58,0.64,2.39c-0.6,0.72-1.64,1.29-0.89,2.49
								C394.54,235.54,396.49,235.71,395.4,237.27z"/>
						</g>
					</g>
				</g>
			</g>
		</g>
	</g>
</g>
</svg>
