<?xml version="1.0" encoding="utf-8"?>
<!-- Generator: Adobe Illustrator 23.0.5, SVG Export Plug-In . SVG Version: 6.00 Build 0)  -->
<svg version="1.0" id="Layer_1" xmlns="http://www.w3.org/2000/svg" xmlns:xlink="http://www.w3.org/1999/xlink" x="0px" y="0px"
	 viewBox="0 0 624 320" style="enable-background:new 0 0 624 320;" xml:space="preserve">
<style type="text/css">
	.st0{fill:url(#SVGID_1_);}
	.st1{fill:#A9D1FF;}
	.st2{fill:url(#SVGID_2_);}
	.st3{fill:#FFFFFF;}
	.st4{fill:#015E3A;}
	.st5{opacity:0.5;fill:#9EACEE;}
	.st6{fill:#00A26D;}
	.st7{fill:#E4FFFA;}
	.st8{fill:#333333;}
	.st9{fill:#757574;}
	.st10{fill:#F9EDEC;}
	.st11{opacity:0.46;fill:#776E6C;}
	.st12{fill:#BBDBFF;}
	.st13{fill:#41FF00;}
	.st14{fill:#4C4272;}
	.st15{fill:#FF7C4F;}
	.st16{fill:#F4C886;}
	.st17{fill:#E5BE84;}
	.st18{fill:#C78B5B;}
	.st19{fill:#3C5FB3;}
	.st20{fill:#C22C0D;}
	.st21{fill:#397EFF;}
	.st22{fill:#BB4C48;}
	.st23{fill:#BF544C;}
	.st24{opacity:0.61;fill:#2A5FBF;}
	.st25{fill:#3A3256;}
	.st26{fill:#FB9900;}
	.st27{fill:#00083E;}
	.st28{fill:#507EEF;}
	.st29{opacity:0.68;fill:#507EEF;}
	.st30{fill:#EF6A1C;}
	.st31{fill:#000444;}
	.st32{fill:#BFBFBF;}
	.st33{fill:#F9F8BD;}
	.st34{fill:#E23410;}
	.st35{fill:#ED7D2B;}
	.st36{fill:#537BB7;}
	.st37{fill:#2D1104;}
	.st38{fill:#2B5CA6;}
	.st39{fill:#5CB30B;}
	.st40{fill:#7C9AC8;}
	.st41{fill:#6D8FC1;}
	.st42{fill:#4D76B4;}
</style>
<g>
	<linearGradient id="SVGID_1_" gradientUnits="userSpaceOnUse" x1="326.1823" y1="226.5804" x2="294.3942" y2="-29.5958">
		<stop  offset="0" style="stop-color:#00A26D"/>
		<stop  offset="1" style="stop-color:#FFFFFF"/>
	</linearGradient>
	<rect y="0" class="st0" width="624.11" height="225.43"/>
	<rect y="225.43" class="st1" width="624.05" height="94.57"/>
	<linearGradient id="SVGID_2_" gradientUnits="userSpaceOnUse" x1="312.0534" y1="140.0964" x2="312.0534" y2="234.0804">
		<stop  offset="0.027" style="stop-color:#00A26D"/>
		<stop  offset="1" style="stop-color:#FFFFFF"/>
	</linearGradient>
	<rect y="128.28" class="st2" width="624.11" height="97.15"/>
	<rect y="128.28" class="st3" width="624.11" height="3.64"/>
	<rect y="131.92" class="st4" width="624.11" height="2.77"/>
	<g>
		<path class="st5" d="M552.24,85.12h-44.77c-13.8,0-24.99-11.19-24.99-24.99v0c0-13.8,11.19-24.99,24.99-24.99h44.77
			c13.8,0,24.99,11.19,24.99,24.99v0C577.23,73.93,566.04,85.12,552.24,85.12z"/>
		<path class="st3" d="M550.79,83.67h-44.77c-13.8,0-24.99-11.19-24.99-24.99v0c0-13.8,11.19-24.99,24.99-24.99h44.77
			c13.8,0,24.99,11.19,24.99,24.99v0C575.78,72.48,564.59,83.67,550.79,83.67z"/>
		<path class="st4" d="M542.7,47.17h-52.78c-0.81,0-1.46-0.66-1.46-1.46l0,0c0-0.81,0.66-1.46,1.46-1.46h52.78
			c0.81,0,1.46,0.66,1.46,1.46l0,0C544.17,46.52,543.51,47.17,542.7,47.17z"/>
		<path class="st4" d="M561.14,47.17h-9.2c-0.81,0-1.46-0.66-1.46-1.46l0,0c0-0.81,0.66-1.46,1.46-1.46h9.2
			c0.81,0,1.46,0.66,1.46,1.46l0,0C562.61,46.52,561.95,47.17,561.14,47.17z"/>
		<path class="st4" d="M542.7,53.9h-52.78c-0.81,0-1.46-0.66-1.46-1.46l0,0c0-0.81,0.66-1.46,1.46-1.46h52.78
			c0.81,0,1.46,0.66,1.46,1.46l0,0C544.17,53.24,543.51,53.9,542.7,53.9z"/>
		<path class="st4" d="M561.14,53.9h-9.2c-0.81,0-1.46-0.66-1.46-1.46l0,0c0-0.81,0.66-1.46,1.46-1.46h9.2
			c0.81,0,1.46,0.66,1.46,1.46l0,0C562.61,53.24,561.95,53.9,561.14,53.9z"/>
		<path class="st4" d="M542.7,60.14h-52.78c-0.81,0-1.46-0.66-1.46-1.46l0,0c0-0.81,0.66-1.46,1.46-1.46h52.78
			c0.81,0,1.46,0.66,1.46,1.46l0,0C544.17,59.49,543.51,60.14,542.7,60.14z"/>
		<path class="st4" d="M561.14,60.14h-9.2c-0.81,0-1.46-0.66-1.46-1.46l0,0c0-0.81,0.66-1.46,1.46-1.46h9.2
			c0.81,0,1.46,0.66,1.46,1.46l0,0C562.61,59.49,561.95,60.14,561.14,60.14z"/>
		<path class="st4" d="M542.7,67.48h-52.78c-0.81,0-1.46-0.66-1.46-1.46l0,0c0-0.81,0.66-1.46,1.46-1.46h52.78
			c0.81,0,1.46,0.66,1.46,1.46l0,0C544.17,66.82,543.51,67.48,542.7,67.48z"/>
		<path class="st4" d="M561.14,67.48h-9.2c-0.81,0-1.46-0.66-1.46-1.46l0,0c0-0.81,0.66-1.46,1.46-1.46h9.2
			c0.81,0,1.46,0.66,1.46,1.46l0,0C562.61,66.82,561.95,67.48,561.14,67.48z"/>
		<path class="st4" d="M542.7,74.82h-52.78c-0.81,0-1.46-0.66-1.46-1.46l0,0c0-0.81,0.66-1.46,1.46-1.46h52.78
			c0.81,0,1.46,0.66,1.46,1.46l0,0C544.17,74.16,543.51,74.82,542.7,74.82z"/>
		<path class="st4" d="M561.14,74.82h-9.2c-0.81,0-1.46-0.66-1.46-1.46l0,0c0-0.81,0.66-1.46,1.46-1.46h9.2
			c0.81,0,1.46,0.66,1.46,1.46l0,0C562.61,74.16,561.95,74.82,561.14,74.82z"/>
	</g>
	<g>
		<path class="st5" d="M44.41,1.06V51.1c0,5.6,4.42,10.15,9.87,10.15h33.56c5.45,0,9.87-4.54,9.87-10.15V1.06
			c0-0.36-0.02-0.71-0.05-1.06H44.47C44.43,0.35,44.41,0.7,44.41,1.06z"/>
		<path class="st6" d="M46.85,1.03V49.7c0,5.45,4.42,9.87,9.87,9.87h33.56c5.45,0,9.87-4.42,9.87-9.87V1.03
			c0-0.35-0.02-0.69-0.05-1.03H46.91C46.87,0.34,46.85,0.68,46.85,1.03z"/>
		<g>
			<path class="st3" d="M96.34,31.18H51.11c-0.34,0-0.61-0.27-0.61-0.61c0-0.34,0.27-0.61,0.61-0.61h45.23
				c0.34,0,0.61,0.27,0.61,0.61C96.95,30.9,96.68,31.18,96.34,31.18z"/>
		</g>
		<g>
			<path class="st3" d="M96.31,4.01h-4.28c-0.34,0-0.61-0.27-0.61-0.61c0-0.34,0.27-0.61,0.61-0.61h4.28c0.34,0,0.61,0.27,0.61,0.61
				C96.92,3.73,96.65,4.01,96.31,4.01z"/>
		</g>
		<g>
			<path class="st3" d="M96.31,7.4h-4.28c-0.34,0-0.61-0.27-0.61-0.61c0-0.34,0.27-0.61,0.61-0.61h4.28c0.34,0,0.61,0.27,0.61,0.61
				C96.92,7.13,96.65,7.4,96.31,7.4z"/>
		</g>
		<g>
			<path class="st3" d="M96.31,10.8h-4.28c-0.34,0-0.61-0.27-0.61-0.61c0-0.34,0.27-0.61,0.61-0.61h4.28c0.34,0,0.61,0.27,0.61,0.61
				C96.92,10.53,96.65,10.8,96.31,10.8z"/>
		</g>
		<g>
			<path class="st3" d="M96.31,14.2h-4.28c-0.34,0-0.61-0.27-0.61-0.61c0-0.34,0.27-0.61,0.61-0.61h4.28c0.34,0,0.61,0.27,0.61,0.61
				C96.92,13.92,96.65,14.2,96.31,14.2z"/>
		</g>
		<g>
			<path class="st3" d="M96.31,17.59h-4.28c-0.34,0-0.61-0.27-0.61-0.61c0-0.34,0.27-0.61,0.61-0.61h4.28
				c0.34,0,0.61,0.27,0.61,0.61C96.92,17.32,96.65,17.59,96.31,17.59z"/>
		</g>
		<g>
			<path class="st3" d="M96.31,20.99h-4.28c-0.34,0-0.61-0.27-0.61-0.61c0-0.34,0.27-0.61,0.61-0.61h4.28
				c0.34,0,0.61,0.27,0.61,0.61C96.92,20.71,96.65,20.99,96.31,20.99z"/>
		</g>
		<g>
			<path class="st3" d="M85.14,4.01h-32.6c-0.34,0-0.61-0.27-0.61-0.61c0-0.34,0.27-0.61,0.61-0.61h32.6c0.34,0,0.61,0.27,0.61,0.61
				C85.75,3.73,85.47,4.01,85.14,4.01z"/>
		</g>
		<g>
			<path class="st3" d="M85.14,7.4h-32.6c-0.34,0-0.61-0.27-0.61-0.61c0-0.34,0.27-0.61,0.61-0.61h32.6c0.34,0,0.61,0.27,0.61,0.61
				C85.75,7.13,85.47,7.4,85.14,7.4z"/>
		</g>
		<g>
			<path class="st3" d="M85.14,10.8h-32.6c-0.34,0-0.61-0.27-0.61-0.61c0-0.34,0.27-0.61,0.61-0.61h32.6c0.34,0,0.61,0.27,0.61,0.61
				C85.75,10.53,85.47,10.8,85.14,10.8z"/>
		</g>
		<g>
			<path class="st3" d="M85.14,14.2h-32.6c-0.34,0-0.61-0.27-0.61-0.61c0-0.34,0.27-0.61,0.61-0.61h32.6c0.34,0,0.61,0.27,0.61,0.61
				C85.75,13.92,85.47,14.2,85.14,14.2z"/>
		</g>
		<g>
			<path class="st3" d="M85.14,17.59h-32.6c-0.34,0-0.61-0.27-0.61-0.61c0-0.34,0.27-0.61,0.61-0.61h32.6
				c0.34,0,0.61,0.27,0.61,0.61C85.75,17.32,85.47,17.59,85.14,17.59z"/>
		</g>
		<g>
			<path class="st3" d="M85.14,20.99h-32.6c-0.34,0-0.61-0.27-0.61-0.61c0-0.34,0.27-0.61,0.61-0.61h32.6
				c0.34,0,0.61,0.27,0.61,0.61C85.75,20.71,85.47,20.99,85.14,20.99z"/>
		</g>
	</g>
	<path class="st4" d="M276.46,50.98H152.42c-0.84,0-1.53-0.68-1.53-1.53l0,0c0-0.84,0.68-1.53,1.53-1.53h124.05V50.98z"/>
	<rect x="275.37" y="0" class="st4" width="4.16" height="128.19"/>
	<rect x="335.9" y="0" class="st4" width="8.79" height="128.19"/>
	<path class="st4" d="M276.46,91.16H152.42c-0.84,0-1.53-0.68-1.53-1.53l0,0c0-0.84,0.68-1.53,1.53-1.53h124.05V91.16z"/>
	<rect x="344.7" y="0" class="st7" width="98.52" height="121.13"/>
	<rect x="279.05" y="0" class="st7" width="57" height="121.13"/>
	<g>
		<path class="st8" d="M123.43,127.99H69.51v-26.96c0-14.89,12.07-26.96,26.96-26.96h0c14.89,0,26.96,12.07,26.96,26.96V127.99z"/>
		<rect x="88.37" y="96.7" class="st9" width="2.07" height="8.22"/>
		<rect x="102.05" y="96.7" class="st9" width="2.07" height="8.22"/>
		<path class="st4" d="M111.32,99.14H80.91v0c0-2.69,2.18-4.87,4.87-4.87h20.66C109.13,94.27,111.32,96.45,111.32,99.14
			L111.32,99.14z"/>
		<path class="st4" d="M114.49,88.01h-12.42c-1.12,0-2.02-0.9-2.02-2.02v0c0-1.12,0.9-2.02,2.02-2.02h12.42
			c1.11,0,2.02,0.9,2.02,2.02v0C116.51,87.1,115.6,88.01,114.49,88.01z"/>
		<g>
			<path class="st10" d="M93.86,116.39H82.61c-0.15,0-0.28,0.12-0.28,0.28v0.75h-0.75c-1.28,0-2.32,1.03-2.32,2.28
				c0,1.25,1.04,2.27,2.32,2.27h1.03c0.68,1.93,2.53,3.31,4.72,3.31h1.83c0.52,0,1.01-0.08,1.48-0.22c2.03-0.62,3.51-2.48,3.51-4.68
				v-3.72C94.14,116.51,94.02,116.39,93.86,116.39z M81.57,121.15c-0.81,0-1.48-0.65-1.48-1.45c0-0.8,0.66-1.45,1.48-1.45h0.75v2.14
				c0,0.26,0.03,0.51,0.07,0.76H81.57z"/>
			<path class="st11" d="M84.52,116.39h-1.91c-0.15,0-0.28,0.12-0.28,0.28v0.75h-0.75c-1.28,0-2.32,1.03-2.32,2.28
				c0,1.25,1.04,2.27,2.32,2.27h1.03c0.68,1.93,2.53,3.31,4.72,3.31h1.83c0.52,0,1.01-0.08,1.48-0.22
				C86.54,122.43,85.02,119.08,84.52,116.39z M81.57,121.15c-0.81,0-1.48-0.65-1.48-1.45c0-0.8,0.66-1.45,1.48-1.45h0.75v2.14
				c0,0.26,0.03,0.51,0.07,0.76H81.57z"/>
			<g>
				<path class="st10" d="M112.13,117.42h-0.75v-0.75c0-0.16-0.13-0.28-0.28-0.28H99.85c-0.16,0-0.28,0.12-0.28,0.28v3.72
					c0,2.71,2.24,4.9,4.99,4.9h1.83c0.52,0,1.02-0.08,1.49-0.23c1.51-0.46,2.72-1.61,3.23-3.09h1.03c1.28,0,2.32-1.02,2.32-2.27
					C114.45,118.45,113.41,117.42,112.13,117.42z M112.13,121.15h-0.82c0.04-0.25,0.07-0.5,0.07-0.76v-2.14h0.75
					c0.81,0,1.48,0.65,1.48,1.45C113.61,120.5,112.95,121.15,112.13,121.15z"/>
				<path class="st11" d="M107.88,125.07c-0.47,0.15-0.97,0.23-1.49,0.23h-1.83c-2.76,0-4.99-2.19-4.99-4.9v-3.72
					c0-0.16,0.12-0.28,0.28-0.28h1.49C101.48,119.44,102.68,123.58,107.88,125.07z"/>
			</g>
		</g>
		<rect x="81.25" y="125.29" class="st12" width="32.36" height="2.89"/>
		<rect x="101.67" y="85.55" class="st13" width="6.05" height="1.43"/>
	</g>
	<g>
		<g>
			<rect x="464.99" y="220.43" class="st14" width="2.76" height="86.1"/>
			<path class="st15" d="M547.82,278.45c0,0,6.92,5.62,8,6.7c1.08,1.08-8,9.65-8,9.65s0.93-8.73,0-9.65
				c-0.93-0.93-6.19-1.58-6.19-1.58L547.82,278.45z"/>
			<path class="st16" d="M551.68,280.3c0,0,7.44,3.94,7.44,5.5c0,1.57-10.18,14.54-11.51,15.28c-1.91,1.06-8.51,1.6-9.6,0.51
				c-1.09-1.09,1.92-3.39,3.63-5.09s3.09-4.28,3.09-5.91c0-1.63-3.18-6.04,0-6.04C547.91,284.55,551.68,280.3,551.68,280.3z"/>
			<path class="st15" d="M553.22,291.81l2.15,4.26c0.99,1.96,2.61,3.54,4.6,4.47l0,0l-4.99,8.13c0,0-7.06,4.68-9.73,3.6
				c-2.68-1.08,5.68-5.05,5.68-5.05l-3.54-11.61L553.22,291.81z"/>
			<path class="st17" d="M504.07,184.61c0,0-1.33,4.28,0,5.61c1.33,1.33,3.55,2.7,3.55,4.26s-0.98,21.67,3.62,22.66
				c4.6,0.99,21.08-15.94,21.08-15.94l-6.7-8.18c0,0-10.57,12.61-10.57,11.3c0-1.31-4.27-11.43-4.27-11.43l2.1-4.2
				c0,0,1.31-4.99-1.18-6.04C509.19,181.58,504.07,184.61,504.07,184.61z"/>
			<g>
				<path class="st18" d="M511.2,213.04c-3.24-1.8-3.28-14.88-3.58-18.52c-0.02,1.89-0.94,21.63,3.62,22.61
					c4.6,0.99,21.08-15.94,21.08-15.94l-3.09-3.77C525,202.45,514.26,214.74,511.2,213.04z"/>
				<path class="st18" d="M507.39,193.6c0.08,0.16,0.14,0.32,0.18,0.49C507.52,193.71,507.47,193.53,507.39,193.6z"/>
			</g>
			<path class="st19" d="M542.52,178.1c0,0-1.49-0.88-4.86,0.57c-3.36,1.44-14.68,15.27-14.68,15.27l9.77,8.41
				c0,0,4.55-5.2,9.02-12.12C546.23,183.29,542.52,178.1,542.52,178.1z"/>
			<path class="st4" d="M560.04,229.79l-2.75,1.65c0,0-51.19,9.38-53.23,17.66c-2.04,8.27,39.9,36.06,39.9,36.06l7.91-6.3
				c0,0-26.65-18.37-23.64-21.38c3-3,38.42-9.75,38.42-9.75L560.04,229.79z"/>
			<path class="st15" d="M492.76,296.18c0,0,1.64,13.74,2.54,13.74c0.9,0,18.59,0,18.59,0s-10.06-4.09-11.94-5.96
				c-1.88-1.88-3.86-8.3-3.86-8.3L492.76,296.18z"/>
			<path class="st20" d="M493.97,306.42c0,0,11,1.58,12.41,0.17c1.41-1.41,8.18,2.51,8.18,3.33c0,0.83-17.9,1.59-20.85,0.63
				C492.72,310.22,493.97,306.93,493.97,306.42z"/>
			<path class="st17" d="M461.94,167.78c0,0-0.13,7.86,1.49,11.95c1.62,4.09-10.97,3.76-10.97,3.76l1.55-23.97L461.94,167.78z"/>
			<path class="st18" d="M461.94,167.78l-3.85-4.02c-0.17,2.58-0.1,4.68,0.28,5.54c0.7,1.61,2.2,3.1,3.79,3.86
				C461.9,170.26,461.94,167.78,461.94,167.78z"/>
			<path class="st3" d="M470.17,165.86v6.99c0,1.61,1.3,2.91,2.91,2.91h2.49c1.61,0,2.91-1.3,2.91-2.91v-7.88h-8.31V165.86z"/>
			<path class="st17" d="M487.3,178.66c0,0-3.1-6.6-4.53-8.03c-1.43-1.43-4.33-2.86-4.33-2.86s0.84,2.46,0.3,3
				c-0.54,0.54-1.43,1.58-3.05,1.58c-1.63,0-1.82,0.94-0.69,2.07c1.13,1.13,4.73,3.99,6.21,4.53l0,0c0.62,0,1.18,0.39,1.4,0.97
				l0.38,1l4.33-1.18V178.66z"/>
			<path class="st21" d="M482.23,179.94c0,0,1.18,17.63,1.77,22.66c0.59,5.02,9.06,7.69,9.06,7.69s0-4.24,0-11.04
				c0-6.8-5.42-20.59-5.42-20.59L482.23,179.94z"/>
			<path class="st22" d="M543.21,221.71H434.46l0,0c0-2.2,1.78-3.98,3.98-3.98h100.8C541.43,217.73,543.21,219.51,543.21,221.71
				L543.21,221.71z"/>
			<path class="st23" d="M578.14,221.07c0,0,11.85-3.34,15.38-2.19l-4.67,13.86l-14.08-2.41L578.14,221.07z"/>
			<path class="st17" d="M464.66,147.17c0,0,3.22,2.04,3.94,3.87c0.72,1.84-0.07,15.3-1.97,17.93c-1.9,2.63-6.83,0.2-8.27-2.69
				C456.91,163.39,459.93,144.35,464.66,147.17z"/>
			<path class="st21" d="M484.3,191.67c-3.21-4.82-6.62-8.63-9.51-11.44c-3.82-3.73-9.29-5.23-14.5-4.07
				c-1.23,0.27-2.54,0.56-3.89,0.83c-7.29,1.47-12.6,7.75-12.79,15.18l-0.93,36.59c-0.24,9.64,8.11,17.43,17.67,16.19
				c1.79-0.23,3.29-0.74,4.19-1.64c4.33-4.33,2.48-31.54,4.32-36.67c1.19-3.31,1.81-3.28,2-7.61c0,0,15.5,16.87,18.65,16.87
				c3.55,0,3.55-3.45,3.55-7.65S491.98,203.19,484.3,191.67z"/>
			<path class="st24" d="M460.29,176.15c-1.23,0.27-2.54,0.56-3.89,0.83c-7.29,1.47-12.6,7.75-12.79,15.18l-0.53,21.12
				c1.27,0.33,2.56,0.46,3.82,0.35c9.31-0.87,18.69-9.38,19.13-18.29c0.35-7.05-1.94-13.76-3.61-19.52
				C461.71,175.89,461,176,460.29,176.15z"/>
			<rect x="461.94" y="263.48" class="st14" width="1.67" height="50.34"/>
			<rect x="437.01" y="263.48" class="st14" width="1.67" height="50.34"/>
			<rect x="468.49" y="263.48" class="st25" width="1.67" height="50.34"/>
			<rect x="526.58" y="221.21" class="st14" width="2.76" height="86.1"/>
			<path class="st6" d="M566.65,231.35c0,0-24.25,6.83-42.56,13.73c-18.3,6.89,22.85,52.49,22.85,52.49l8.67-3.94
				c0,0-19.83-34.75-16.78-37.8c3.05-3.05,33.13-10.87,33.13-10.87L566.65,231.35z"/>
			<path class="st15" d="M504.78,298.53c0,0,1.64,13.74,2.54,13.74c0.9,0,18.59,0,18.59,0s-10.06-4.09-11.94-5.96
				c-1.88-1.88-3.86-8.3-3.86-8.3L504.78,298.53z"/>
			<path class="st4" d="M492.25,254.64c-3.55-3.55-30.32-17.76-30.32-17.76l-19.6,5.91c0,0,0.89,7.59,4.33,11.03
				c3.45,3.45,37.21,9.65,37.21,9.65s5.84,36.98,5.85,37.09c1.73-0.13,9-1.62,10.73-1.66C500.2,297.1,495.8,258.19,492.25,254.64z"
				/>
			<path class="st6" d="M469.32,233.93c0,0,26.54,2.27,33.1,18.95c1.99,5.06,11.14,48.2,11.14,48.2l-9.1,1.19
				c0,0-12.82-32.1-13.71-37.81c-0.89-5.71-25.13-8.5-30.05-9.49c-4.93-0.99-13.8-12.7-13.8-12.7L469.32,233.93z"/>
			<path class="st26" d="M421.45,214.42c0,0,1.61,38.62,15.56,49.06h46.86c0,0,9.24-4.53,9.24-13.4c0-8.87-4.43-18.52-28.55-29.16
				C440.46,210.29,421.45,214.42,421.45,214.42z"/>
			<path class="st3" d="M464.57,220.92c-9.17-4.05-17.61-5.95-24.54-6.77c4.99,1.26,13.58,3.19,19.34,6.07
				c24.11,12.06,29.11,20.91,29.11,30.96c0,8.93-4.63,10.82-7.32,12.29h2.71c0,0,9.24-4.53,9.24-13.4
				C493.12,241.22,488.69,231.56,464.57,220.92z"/>
			<rect x="482.04" y="264.47" class="st14" width="1.67" height="49.35"/>
			<rect x="437.01" y="263.48" class="st14" width="46.7" height="4.53"/>
			<rect x="537.17" y="262.15" class="st25" width="1.68" height="51.67"/>
			<rect x="577.64" y="262.48" class="st25" width="1.67" height="51.34"/>
			<rect x="537.17" y="260.92" class="st25" width="42.15" height="3.56"/>
			<path class="st27" d="M464.53,142.44c0,0-3.55-2.76-11.03,0c-7.48,2.76-6.31,9.32-5.65,13.53c0.69,4.43-6.04,5.93-8.43,8.44
				c-8.39,8.8-11.65,22.62-9.58,34.4c1.32,7.53,8.35,12.38,15.84,11.68c9.31-0.87,15.8-9.89,16.23-18.79
				c0.66-13.4-4.07-21.94-0.13-28.63c3.94-6.7,2.63-10.25,3.94-11.56c1.31-1.31,2.89-0.46,2.89-0.46S478.66,141.22,464.53,142.44z"
				/>
			<path class="st28" d="M537.66,178.66c0,0-2.07,9.49-1.28,16.45c0.62,5.44,13.25,24.95,18.73,33.2c1.6,2.4,3.99,4.16,6.76,4.95
				l18.38,5.29l3.42,2.4c0,0,0.53-6.3-0.92-17.08c-1.44-10.77-25.09-50.18-30.47-50.18S537.66,178.66,537.66,178.66z"/>
			<path class="st12" d="M539.81,183.64c0.05,0,0.1,0,0.15-0.01c8.81-0.75,11.91-8.81,12.04-9.16l0.2-0.55l-0.13-0.22
				c-5.41,0.12-14.41,4.96-14.41,4.96s-0.08,0.38-0.21,1.04C537.67,181.62,538.08,183.64,539.81,183.64z"/>
			<path class="st29" d="M557.42,178.23l-5.75-0.94c0,0-7.3,18.59-10.89,27.92c1.17,2.12,2.49,4.39,3.87,6.68
				c0.54-1.41,1.23-2.84,2.02-3.63c1.94-1.94,4.13-0.87,4.99-1.73c0.87-0.87,8.3-12.23,8.3-19.26
				C559.98,180.23,557.42,178.23,557.42,178.23z"/>
			<path class="st17" d="M550.17,196.33c0,0-9.38,20.78-13,21.43c-3.98,0.72-24.54-0.04-24.54-0.04l-5.68,0
				c-2.05,0.03-3.84-1.52-3.96-3.57c-0.05-0.84,0.18-1.49,1-1.49c2.31,0,7.57,0.44,8.88,0.44c1.31,0,14.12-1.25,15.56-2.69
				c1.44-1.44,12.77-23.15,12.77-23.15L550.17,196.33z"/>
			<path class="st18" d="M545.7,205.51c2.49-4.8,4.47-9.18,4.47-9.18l-8.96-9.06c0,0-3.02,5.8-6.15,11.6
				C537.78,201.2,542.04,204.46,545.7,205.51z"/>
			<path class="st26" d="M537.17,259.34c0,0,4.6-9.72,16.68-19.7c12.08-9.98,39.67-20.75,39.67-20.75s1.18,37.17-14.05,42.03h-42.29
				V259.34z"/>
			<path class="st30" d="M577.97,256.2h-39c-1.24,1.96-1.8,3.15-1.8,3.15v1.58h42.29c11.94-3.81,13.8-27.44,14.04-37.51
				C591.21,238.15,586.72,252.59,577.97,256.2z"/>
			<path class="st17" d="M541.06,157.41l9.79,16.64c0,0-2.85,7.67-11,8.37c-1.24,0.11-1.17-3.89-1.46-5.1l-2.4-10.18L541.06,157.41z
				"/>
			<path class="st18" d="M541.06,157.41l-5.06,9.72l1.01,4.29c2.37-3.84,4.26-9.87,4.64-13.02L541.06,157.41z"/>
			<path class="st17" d="M537.07,146.95c0,0,3.99,7.01,3.99,10.46c0,3.45-5.07,13.48-9.28,12.08s-5.82-13.7-5.82-19.41
				C525.96,144.36,534.37,143.17,537.07,146.95z"/>
			<path class="st31" d="M536.85,141.13c0,0,3.24,0.11,3.24,2.7c0,2.59,3.24,0.97,3.88,4.1c0.65,3.13-1.88,11.24-1.88,11.24
				s-3.08-2.28-5.23-4.44c-2.16-2.16-2.26-5.45-3.34-5.45s-3.99,0.38-7.55,3.94c-3.56,3.56-10.03,0.54-7.66-4.75
				c2.37-5.28,6.36-4.53,11-5.07C533.94,142.85,536.85,141.13,536.85,141.13z"/>
			<path class="st12" d="M543.96,178.09c-2.94,4.36-6.93,15.8-7.59,17.02c-1.66,3.09,9.63,8.11,11.73,7.58
				c2.1-0.53,8.25-13.32,9.55-18.09c0.93-3.42,0.12-8.17-3.15-10.18C550.75,172.12,546.36,174.54,543.96,178.09z"/>
			<g>
				<path class="st32" d="M477.06,172.36h-1.38v-1.18h1.38c0.65,0,1.18-0.53,1.18-1.18v-1.18c0-0.65-0.53-1.18-1.18-1.18h-1.77
					v-1.18h1.77c1.3,0,2.36,1.06,2.36,2.36v1.18C479.42,171.3,478.36,172.36,477.06,172.36z"/>
			</g>
			<path class="st3" d="M519.2,181.81v6.99c0,1.61-1.3,2.91-2.91,2.91h-2.49c-1.61,0-2.91-1.3-2.91-2.91v-7.88h8.31V181.81z"/>
			<g>
				<path class="st32" d="M509.76,188.32h1.38v-1.18h-1.38c-0.65,0-1.18-0.53-1.18-1.18v-1.18c0-0.65,0.53-1.18,1.18-1.18h1.77
					v-1.18h-1.77c-1.3,0-2.36,1.06-2.36,2.36v1.18C507.39,187.26,508.45,188.32,509.76,188.32z"/>
			</g>
			<path class="st3" d="M537.17,259.34c3.23-9.24,11.68-18.39,19.71-24.18c8.69-6.33,25.91-13.64,36.64-16.27
				c-24.57,13.71-36.26,17.31-50.84,33.56C540.72,254.63,538.87,256.9,537.17,259.34z"/>
			<path class="st17" d="M504.07,184.61c0,0,6.71-1.1,7.81,0c1.1,1.1-5.37,1.99-5.37,1.99L504.07,184.61z"/>
			<path class="st17" d="M505.35,188.32c0,0,5.41-0.44,5.54-1.58c0.12-1.14-4.99-0.42-4.99-0.42L505.35,188.32z"/>
			<path class="st17" d="M507,184.12c0,0,2.43,0.11,3.89-0.53s-2.77-0.77-2.77-0.77L507,184.12z"/>
			<path class="st33" d="M555.19,295.55c0,0,6.52,3.45,6.52,4.83c0,1.37-8.85,12.91-10.1,13.4c-0.5,0.2-9.64,0.04-9.98-0.3
				c-0.95-0.95,3.25-2.23,4.74-3.72c1.5-1.5,2.71-3.75,2.71-5.18c0-1.43-2.79-5.3,0-5.3C551.88,299.27,555.19,295.55,555.19,295.55z
				"/>
			<path class="st34" d="M505.99,308.78c0,0,11,1.58,12.41,0.17c1.41-1.41,8.18,2.51,8.18,3.33c0,0.83-17.9,1.59-20.85,0.63
				C504.73,312.58,505.99,309.28,505.99,308.78z"/>
		</g>
		<g>
			<g>
				<path class="st35" d="M155.51,214.31c-6.85,0.06-13.71-0.47-20.49-1.58h0c-4.3-0.7-8.12,2.73-7.69,6.93l7.26,43.41l20.92-3.25
					V214.31z"/>
				<path class="st26" d="M186.84,256.14l-46.3-0.74l-4.03-35.74c-0.39-4.19,4.61-6.71,7.04-6.93c11.86-1.05,23.7,2.11,35.43,0.04
					l1.07-0.19c3.71-0.65,7.08,2.39,7.05,6.36L186.84,256.14z"/>
				<path class="st27" d="M167.79,175.33c-1.23-4.99-4.44-9.47-9.52-11.01c-6.05-1.83-12.91-0.27-16.66,4.85
					c-1.18,1.61-1.71,3.4-1.64,5.33c0.05,1.55,0.35,3.88-0.86,5.09c-2.01,2.02-4.77,2.79-6.64,5.01
					c-7.76,9.24,0.28,21.07,10.25,23.85c7.89,2.2,16.86-0.15,21.09-7.48c2.24-3.87,3.54-8.19,4.21-12.56
					C168.71,183.96,168.88,179.74,167.79,175.33z"/>
				<g>
					<path class="st17" d="M195.1,250.02c0,0-0.87-0.69-1.14-0.95c-0.32-0.3-1.21-1.26-1.21-1.26s-2.93-3.5-2.66-3.7
						c0.28-0.2,1.12,0.12,1.37,0.28c0.26,0.15,0.57,0.31,0.83,0.46c0.26,0.15,0.58,0.09,0.79-0.22c0.21-0.31-0.68-1.14-1.04-1.36
						c-1.14-0.7-4.56-1.97-4.92-2.12c-0.42-0.18-4.39-7.19-5.94-9.48c0,0,0,0,0,0c-2.43-3.83-4.08-6.96-4.34-7.36l-5.87-19.64
						l-7.6-0.75c0,0,6.52,22.35,6.91,23.36c0.19,0.48,5.49,7.41,5.5,7.41c3.37,3.96,6.35,7.44,6.91,8.13c0,0,1.1,2.49,1.71,4.12
						c0.61,1.63,1.83,2.88,2.07,3.32c0.04,0.06,0.79,1.59,2.33,3.01c1.33,1.22,0.62-0.56,0.62-0.56s-2.07-2.71-1.82-2.83
						c0.19-0.1,1.23,1.45,2.69,2.81c0.38,0.35,0.75,0.69,1.09,1.01c0.9,0.82,1.67,0.49,0.86-0.52c-0.29-0.36-0.77-0.94-1.18-1.31
						c-0.44-0.39-0.72-0.9-1.04-1.29c-0.63-0.77-1.1-1.33-1.06-1.34c0.06-0.01,0.04-0.26,0.45,0.1c0.49,0.43,1.34,1.58,2.11,2.16
						c0.44,0.33,1.31,1.07,1.31,1.07s1.55,1.04,1.63,0.97c0.44-0.4-0.46-1.47-1.11-1.83c-0.3-0.45-1.24-1.2-1.24-1.2
						s-1.57-1.96-1.29-2.19c0.22-0.19,4.88,3.76,5.29,3.33C196.45,251.28,195.1,250.02,195.1,250.02z"/>
					<path class="st18" d="M186.75,244.46c0,0,2.34,0.89,3.32-0.31c0,0-0.3,0.89-1.24,1.06
						C187.89,245.37,186.75,244.46,186.75,244.46z"/>
				</g>
				<path class="st4" d="M165.7,215.63c0,0,7.47-2.17,8.55-3.15c0,0-2.77-15.69-8.17-18.61c-0.21-0.12-0.79-0.37-1.01-0.44
					C160.96,192.15,165.7,215.63,165.7,215.63z"/>
				<path class="st6" d="M158.86,192.65c0,0-11.56,0.14-14.22,2.32c-2.67,2.19-8.96,16-8.96,16l9.03,3.62c0,0,2.75-4.82,3.04-4.55
					c0.54,0.51,1.91,9.47,2.43,12.75c0.51,3.28-1.09,12.51-1.09,12.51s13.81,2.43,19.45-0.85c0,0-0.1-18.87,0.92-22.26
					c1.03-3.38,1.64-5.44,0.31-8.82c-1.33-3.38-2.37-8.04-4.41-9.8C164.62,192.96,158.86,192.65,158.86,192.65z"/>
				<path class="st17" d="M154.73,184.05c0,0,0.59,5.64,0.24,7.82c-0.36,2.18,0.09,9.33,4.38,9.66c4.28,0.33,1.9-7.25,1.65-9.44
					c-0.25-2.18-0.31-10.55-0.31-10.55L154.73,184.05z"/>
				<path class="st18" d="M160.72,184.75c0.06-1.83-0.03-3.19-0.03-3.19l-5.96,2.49c0,0,0.12,1.15,0.22,2.62
					C157.43,187.4,159.51,186.36,160.72,184.75z"/>
				<path class="st17" d="M155.77,167.86c0,0-2.48,0.71-3.98,3.29c-1.51,2.59-2.48,10.06,2.61,13.32c5.09,3.26,8.97-1.81,8.98-6.59
					C163.39,173.09,162.37,166.74,155.77,167.86z"/>
				<path class="st17" d="M164.52,176.34c-0.42,1.17-1.27,1.92-1.89,1.68c-0.63-0.25-0.8-1.39-0.38-2.57
					c0.42-1.17,1.27-1.92,1.89-1.68C164.77,174.01,164.94,175.16,164.52,176.34z"/>
				<path class="st17" d="M151.78,177.81c0.38,1.23,0.06,2.47-0.72,2.77c-0.78,0.3-1.71-0.46-2.09-1.68
					c-0.38-1.23-0.06-2.47,0.72-2.77C150.46,175.82,151.4,176.58,151.78,177.81z"/>
				<g>
					<g>
						<polygon class="st14" points="206.25,312.14 191.65,266.65 194.56,265.43 209.65,312.14 						"/>
					</g>
					<g>
						<polygon class="st14" points="130.59,312.14 146.51,262.88 149.42,264.1 134.51,312.14 						"/>
					</g>
					<path class="st35" d="M141.11,254.54l41.38,0.69c3.58,0,6.78,2.18,6.78,6.17v2.12c0,4-2.9,7.24-6.48,7.24h-41.77
						c-3.58,0-6.48-3.24-6.48-7.24v-2.12C134.54,257.4,137.53,254.54,141.11,254.54z"/>
					<g>
						<polygon class="st14" points="140.28,312.13 156.16,264.79 159.07,265.96 143.72,312.13 						"/>
					</g>
					<g>
						<polygon class="st14" points="212.86,312.14 197.75,265.67 200.66,264.46 216.16,312.14 						"/>
					</g>
					<path class="st26" d="M153.15,254.17c0,0,18.15,0.83,24.25,0.84c6.33,0.01,23.58-2.11,23.58-2.11c4.25,0,9.52,4.52,9.52,8.51
						v2.12c0,4-3.45,7.24-7.7,7.24h-49.64c-4.25,0-7.7-3.24-7.7-7.24v-2.12C145.44,257.41,148.89,254.17,153.15,254.17z"/>
				</g>
				<path class="st18" d="M182.93,265.82c2.05-3.01,7.58-9.54,6.49-14.06c-1.09-4.52-6.69-4.77-9.69-2.92
					c-1.76,1.08-16.37,38.3-17.55,40.05c-0.33,0.49-2.71-0.17-3.13,0.92c-1.07,2.79-0.25,8.4-0.33,10.04
					c-0.12,2.28-0.23,7.16,0.35,7.55c0.58,0.39,1.78-2.25,2.4-4.75c0.61-2.5,0.82-6.13,2.1-7.51
					C164.84,293.75,178.84,271.83,182.93,265.82z"/>
				<path d="M161.67,292.96c0.55-1.6,0.76-3.14,0.51-4.05c-0.78,0.13-2.79,0-3.13,0.89c-1.07,2.79-0.25,8.4-0.33,10.04
					c-0.12,2.28-0.23,7.16,0.35,7.55c0.58,0.39,1.78-2.25,2.4-4.75c0.23-0.93,0.4-2.02,0.59-3.09
					C161.6,297.78,161.03,294.83,161.67,292.96z"/>
				<path class="st17" d="M181.42,246.06c-1.16-1.61-8.28-3.02-8.88-3.08c-1.02-0.1-5.28-0.61-9.46-0.9
					c-1.58,0.25-3.4,0.77-4.74,1.83c-2.92,2.31-10.77,9.69-5.08,11.08c0.75,0.18,1.89,0.3,3.3,0.38l0.25,0.01l10.28,0.43
					c-1.85,7.9-4.01,44.42-6.67,47.9c-1.72,2.25-1.28,5.1-0.74,6.85h5.61c0.51-1.7,1.19-4.62,1.19-8.18
					c0-4.5,11.68-32.62,14.93-47.77C182.29,250.6,182.52,247.59,181.42,246.06z"/>
				<path class="st36" d="M182.07,244.48c0,0-4.33-2.46-8.64,0.41c-4.31,2.87-5.21,11.06-5.21,11.06s-17.29,0.63-19.2-1.55
					c-1.91-2.19-5.36-4.74-3.93-9.39c1.44-4.65,4.75-12.03,4.75-12.03l8.82,1.53l10.44,0c0,0,1.1,4.07,2.48,5.4
					C173.43,241.68,179.73,242.17,182.07,244.48z"/>
				<path class="st3" d="M169.75,232.43v7.06c0,1.62-1.31,2.93-2.93,2.93h-2.52c-1.62,0-2.93-1.31-2.93-2.93v-7.95h8.38V232.43z"/>
				<g>
					<path class="st3" d="M160.24,240.02h1.39v-1.19h-1.39c-0.66,0-1.19-0.54-1.19-1.19v-1.19c0-0.66,0.54-1.19,1.19-1.19h1.79
						v-1.19h-1.79c-1.32,0-2.39,1.07-2.39,2.39v1.19C157.85,238.95,158.92,240.02,160.24,240.02z"/>
				</g>
				<path class="st17" d="M163.54,236.64c-0.2,0.15-2.46,1-2.46,1s-1.82,0.21-2.38,0.18c0,0-0.34,0.14,0.31,0.27
					c0.26,0.05,1.24,0.04,1.24,0.04s2.6-0.6,2.97,0.15c0.11,0.23-3.08,0.79-3.08,0.79s-2.3-0.19-2.96-0.21
					c-1.22-0.03-2.46-0.72-6.88-2.76c-0.47-0.24-17.41-10.33-17.57-11.53c-0.11-0.81,1.94-8.49,3.65-13.32l7.73,3.1
					c-1.26,2.66-3.42,7.88-3.27,8.36c0.05,0.18,7.15,5.84,10.98,8.88c1.41,1.12,2.38,1.89,2.38,1.89l3.63-0.24
					c0,0,2.5-0.05,3.06,1.25c0.24,0.56-1.09-0.02-1.39-0.03c-0.29-0.01-0.57-0.02-0.81,0.14c0.69,0.33,1.05,0.39,1.81,0.42
					c1.68,0.06,2.49,0.09,2.7,0.33c0.25,0.28-0.86,0.68-2.67,0.79c-0.74,0.04-1.42-0.18-1.74-0.12c-0.16,0.03-0.13,0.13,0.02,0.25
					c0.27,0.2,0.94,0.42,1.72,0.38c0.7-0.05,1.93-0.43,2.7-0.54C164.51,235.93,163.71,236.52,163.54,236.64z"/>
				<path class="st37" d="M163.17,309.3c-1.02-0.09-2.04-3.59-2.59-5.82c-0.05,0.08-0.1,0.15-0.14,0.22
					c-2.67,3.49-0.13,8.44-0.13,8.44s2.59,3.26,4.44,0c0,0,1.33-3.11,1.67-7.7C165.79,306.04,164.32,309.41,163.17,309.3z"/>
			</g>
			<polygon class="st14" points="227.02,254.95 224.68,312.14 226.62,312.14 232.97,254.29 			"/>
			<g>
				<g>
					<path class="st18" d="M251.02,209.9l4.09,11.55c0,0,3.61-7.5,5.88-16.14c3.58,1.28,5.89,2.72,8.72,5.18
						c-3.3,8.02-9.53,21.16-14.45,21.89c-3.83,0.56-7.73-18.25-7.73-18.25L251.02,209.9z"/>
					<g>
						<path class="st3" d="M245.5,208.72l-1.32-0.05l0.06-1.61l1.32,0.05c0.62,0.02,1.16-0.68,1.19-1.57l0.05-1.61
							c0.03-0.89-0.45-1.62-1.08-1.65l-1.7-0.06l0.06-1.61l1.7,0.06c1.25,0.04,2.21,1.52,2.15,3.29l-0.06,1.61
							C247.82,207.36,246.75,208.77,245.5,208.72z"/>
					</g>
					<path class="st3" d="M235.75,200.42l-0.25,7.36c-0.06,1.69,1.27,3.11,2.96,3.17l2.62,0.09c1.69,0.06,3.11-1.27,3.17-2.96
						l0.28-8.29l-8.74-0.3L235.75,200.42z"/>
					<path class="st18" d="M249.1,203.22c-0.48-0.5-1.64-1.05-2.23-0.51c-0.59,0.53-0.35,1.4-0.68,1.84
						c-0.3,0.39-0.63,1.06-0.83,1.69c-0.06,0.17-0.44,1.49-0.56,1.87c-0.12,0.38,2.72,6.03,2.72,6.03l4.14-2.12
						C251.67,212,249.58,203.72,249.1,203.22z"/>
					<path class="st12" d="M262.46,200.99c0,0-2.94,7.8-3.69,10.26c-0.75,2.46-2.26,6.02-2.26,6.02l8.14,5.27l5.74-12.17
						L262.46,200.99z"/>
				</g>
				<g>
					<g>
						<polygon class="st14" points="293.65,312.14 277.34,266.78 274.24,267.95 290.11,312.14 						"/>
					</g>
					<path class="st38" d="M243.96,259.28h43.5c4.11,0,7.44,3.33,7.44,7.44v0.97c0,4.11-3.33,7.44-7.44,7.44h-43.5
						c-4.11,0-7.44-3.33-7.44-7.44v-0.97C236.52,262.61,239.85,259.28,243.96,259.28z"/>
					<g>
						<polygon class="st14" points="319.54,312.14 303.14,266.52 300.03,267.69 316.02,312.14 						"/>
					</g>
					<g>
						<polygon class="st14" points="253.91,312.14 269.58,268.62 266.47,267.46 250.11,312.14 						"/>
					</g>
					<path class="st26" d="M277.9,260.6h6.15l16.06-44.22c0.63-1.67,2.19-2.77,3.94-2.79l19.25-0.28c2.96-0.03,5.74,4.21,4.1,9.64
						l-12.29,36.28l0.01,0l-3.39,10.88l-36.09,0.38L277.9,260.6z"/>
					<path class="st35" d="M271.2,261.01l31.32-0.07l14.46-41.76c0.99-2.85-1.1-5.83-4.07-5.8l-20.88,0.21
						c-1.75,0.02-3.31,1.12-3.94,2.79L271.2,261.01z"/>
					<path class="st26" d="M256.57,259.29c0,0,17.66,1.1,23.55,1.11c6.12,0.01,22.69-2.32,22.69-2.32c4.11,0,9.2,4.31,9.2,8.13v2.02
						c0,3.82-3.33,6.91-7.45,6.91h-48c-4.11,0-7.45-3.09-7.45-6.91v-2.02C249.12,262.38,252.46,259.29,256.57,259.29z"/>
					<g>
						<path class="st17" d="M252.1,294.34c-0.87,3.9-1.21,11.14-1.03,11.98c0.05,0.24-0.21,1.24-0.34,1.46
							c-5.05,2.78-10.12,1.59-14.25,0.05c2.85-0.99,6.63-2.26,7.2-2.63c1.49-0.96,0.75-5.88,0.5-12.12
							C246.22,295.31,249.23,293.34,252.1,294.34z"/>
						<path d="M251.06,306.24c0.3,1.9-0.17,5.84-0.56,5.9c-0.47,0.07-16.49,0.72-18.78-0.94c-1.41-1.02,1.26-2.08,4.76-3.37
							C240.61,309.37,250.82,307.5,251.06,306.24z"/>
						<path class="st6" d="M275.72,240.55l-0.37,4.95c0,0-34.61,4.82-35.17,11.16c-0.56,6.34,3.18,44.99,3.18,44.99l8.48,0.54
							c0,0,4.38-20.92,3.97-28.17c-0.37-6.59-1.84-10.17-1.84-10.17s36.62-1.17,38.98-2.24c2.37-1.07,4.64-4.63,2.28-14.08
							c-2.36-9.45-3.62-11.88-3.62-11.88L275.72,240.55z"/>
						<path class="st27" d="M253.56,187.96c-0.82-3.41-1.62-6.84,0.54-10.59c1.74-3.03,4.75-4.78,8.23-5.16
							c9.87-1.08,7.76,7.39,21.55,9.23c4.29,0.57,8.27,1.12,11.85,3.08c6.46,3.54,6.73,13.7,4.62,18.46
							c-10.11,22.79-36.25,3.42-39.43-1.04C258.55,198.63,254.08,190.16,253.56,187.96z"/>
						<path class="st28" d="M260.48,207.97c0.31-2.95,1.98-7.04,1.98-7.04c0.36-2.97,9.91-3.98,12.38-3.49
							c8.75,2.76,15.21,27.27,18.97,42.39l-18.25,2.89c0,0-6.12-19.92-12.07-22.85C259.35,217.84,260.01,212.34,260.48,207.97z"/>
						<path class="st17" d="M266.58,189.49c0,0,0.04,0.2,0.11,0.55c0.34,1.66,1.39,6.61,2.26,8.13c1.06,1.83-2.39,10.07-6.88,9.36
							c-1.34-0.21,0.76-4.43,0.31-6.47c-0.26-1.15-1.03-4.75-1.66-7.66c-0.48-2.23-0.87-4.06-0.87-4.06L266.58,189.49z"/>
						<path class="st18" d="M266.69,190.04c-0.07-0.35-0.11-0.55-0.11-0.55l-6.74-0.15c0,0,0.39,1.83,0.87,4.06
							c0.17,0.78,0.35,1.61,0.52,2.43c1.04-0.14,2.13-0.6,3.22-1.48c1.19-0.95,1.97-2.1,2.44-3.32
							C266.81,190.63,266.74,190.3,266.69,190.04z"/>
						<path class="st17" d="M262.53,174.77c0,0,2.75,0.35,4.74,2.71c1.99,2.36,4.14,9.67-0.81,13.64
							c-4.95,3.97-9.83-0.52-10.56-5.29C255.18,181.06,255.33,174.6,262.53,174.77z"/>
						<path class="st17" d="M254.32,184.2c0.59,1.05,1.58,1.64,2.21,1.3c0.63-0.33,0.67-1.46,0.08-2.51
							c-0.59-1.05-1.58-1.64-2.21-1.3C253.77,182.02,253.73,183.15,254.32,184.2z"/>
						<path class="st27" d="M261.69,174.66c0,0,4.24,6.95,7.28,7.27c3.03,0.32,3.43,4.01,3.43,4.01s-1.09-8.51-4.09-10.15
							C265.31,174.15,261.69,174.66,261.69,174.66z"/>
						<path class="st17" d="M267.98,183.58c-0.25,1.23,0.25,2.36,1.11,2.53c0.86,0.16,1.76-0.71,2-1.94
							c0.25-1.23-0.25-2.36-1.11-2.53C269.12,181.48,268.23,182.35,267.98,183.58z"/>
						<path class="st17" d="M270.68,207.56c0.97,9.08-1.04,21.88-1.04,21.88l-18.67,6.09c0,0-3.19-1.26-4.21-0.86
							c-1.02,0.4-3.25,1.04-2.91,1.61c0.35,0.57,2.25-0.5,2.74-0.29c0.49,0.2-1.32,1.87-2.08,2.33c-0.76,0.46-6.38-0.48-7.23-0.4
							c-0.45,0.04,0.01,0.38,0.7,0.69c-0.81-0.17-1.64-0.27-1.93-0.02c-0.64,0.53,3.3,1.64,3.3,1.64s-5.2-0.98-2.85,0.08
							c0,0,5.48,2.75,8.57,1.23c3.09-1.52,3.94-1.7,4.98-2.13c0.3-0.13,23.46-1.23,25.11-2.72c3.93-3.55,5.61-19.03,5.86-27.97
							C277.39,207.61,274.62,207.24,270.68,207.56z"/>
						<path class="st12" d="M268.99,204.65c0.14-2.63,0.74-6.01,3.56-6.94c1.74-0.57,3.75-0.25,5.16,0.82
							c1.68,1.28,3.62,3.88,3.85,6.01c0.49,4.61,0.35,8.88-0.45,13.47c-3.19-1.62-7.68-0.6-11.33-0.95
							C269.78,217.03,268.8,208.13,268.99,204.65z"/>
					</g>
					<path class="st17" d="M235.57,287.76c-2.96,3.49-5.1,7.12-5.33,7.57c-0.11,0.22-0.16,1.46-0.27,1.69
						c-4.6,3.03-9.47,2.19-13.48,0.94c2.63-1.14,6.3-2.46,6.65-3.01c0.55-0.88,3.06-4.06,5.64-9.79
						C230.84,287.2,232.79,286.97,235.57,287.76z"/>
					<path d="M230.19,295.49c0.4,1.84,0.24,5.57-0.12,5.65c-0.44,0.1-15.88,2.38-17.86,0.4c-1.19-1.19,1.06-2.11,4.29-3.58
						C220.49,299.2,230.04,296.74,230.19,295.49z"/>
					<path class="st4" d="M226.88,287.4l6.27,3.7c0,0,17.13-25.73,18.48-31.66c1.23-5.41,6-7.85,6-7.85l17.7-6.07
						c0,0-29.1-1.15-32.93,1.15C237.52,249.6,226.88,287.4,226.88,287.4z"/>
				</g>
			</g>
			<g>
				<polygon class="st14" points="42.27,312.14 58.38,266.43 55.28,265.24 38.74,312.14 				"/>
			</g>
			<polygon class="st14" points="133.57,254.95 136.39,312.14 134.05,312.14 126.44,254.29 			"/>
			<g>
				<g>
					<polygon class="st14" points="59.81,312.14 75.92,266.68 72.82,265.5 56.28,312.14 					"/>
				</g>
				<g>
					<polygon class="st14" points="121.62,312.18 104.64,266.33 101.53,267.46 118.12,312.15 					"/>
				</g>
				<path class="st35" d="M112.43,258H70.96c-4.11,0-7.44,3.33-7.44,7.44v0.97c0,4.11,3.33,7.44,7.44,7.44h41.48
					c4.11,0,7.44-3.33,7.44-7.44v-0.97C119.87,261.33,116.54,258,112.43,258z"/>
				<g>
					<polygon class="st14" points="108.92,312.14 91.94,266.17 88.84,267.31 105.4,312.14 					"/>
				</g>
				<path class="st26" d="M80.51,259.32h-6.15L58.3,215.1c-0.63-1.67-2.19-2.77-3.94-2.79l-19.25-0.28
					c-2.96-0.03-5.74,4.21-4.1,9.64l12.29,36.28h-0.01l3.39,10.88l36.09,0.38L80.51,259.32z"/>
				<path class="st35" d="M87.21,259.73l-31.32-0.07l-14.46-41.76c-0.99-2.85,1.1-5.83,4.07-5.8l20.88,0.21
					c1.75,0.02,3.31,1.12,3.94,2.79L87.21,259.73z"/>
				<path class="st39" d="M109.9,244.49c-0.21-0.38-0.67-2.63-1.45-2.64c-0.78,0-3.37,3.12-3.37,3.12L109.9,244.49z"/>
				<path class="st27" d="M64.18,221.23c11.22,4.62,14.83-5.47,14.55-5.2c0.21-0.23,1.9-0.97,2.98-1.5c4.5-2.2,4.36-9.98,4.26-15.14
					c6.45-3.93,8.07-11.45,3.64-16.05c1.36-5.11,1.65-8.33-2.92-10.92c-3.46-6.03-13.14-3.98-17.84,0.75
					c-2.38,2.4-3.76,5.91-3.73,9.41c-5.53,2.29-8.43,8.39-7.17,14.54C50.5,203.26,52.73,216.52,64.18,221.23z"/>
				<path class="st18" d="M83.61,200.57c4.03,7.8,12.58,16.65,12.58,16.65l19.18-6.33c0,0,0.89-1.89,1.92-2.1
					c1.03-0.22,3.88-1.04,3.9-0.39c0.02,0.65-1.81,0.75-2.1,1.17c-0.29,0.42,1.83,0.19,2.68,0.15c0.85-0.03,4.11-2.97,4.83-3.35
					c0.39-0.2,0.2,0.31-0.2,0.93c0.56-0.57,1.17-1.08,1.54-1.04c0.8,0.09-1.78,3.06-1.78,3.06s2.05-2.53,2.52-2.1
					c0.12,0.11,0.14,0.14-0.2,0.66c0,0-2.94,5.11-6.23,5.53c-3.28,0.42-4.06,0.72-5.13,0.92c-0.31,0.06-19.95,12.09-22.02,11.54
					c-3.25-0.87-14.15-12.73-19.09-19.77C78.38,203.29,80.28,202.39,83.61,200.57z"/>
				<path class="st40" d="M91.95,211.45c0,0-3.38,6.67-5.85,7.56l-11.25-13.72c0,0-0.06-6.74,3.34-6.73
					c3.41,0.01,3.83,0.26,4.57,0.77C83.51,199.83,91.95,211.45,91.95,211.45z"/>
				<path class="st41" d="M85.69,204.51c-1.36-2.51-2.75-4.5-2.75-4.5c-1.41-2.51-5.04-3.78-5.04-3.78s-1.22,0.02-2.61,0.09
					c-0.09,0.23-0.17,0.4-0.26,0.47c-0.52,0.39-3.53-0.11-5.47,1.21c-5.9,5.08-4.81,27.86-4.21,38.45c0.06,1.09-0.04,2.06,0.01,2.86
					l16.25,0.07c0,0,0.01-0.27,0.04-0.73c0.25-3.44,1.51-18.16,5.06-22.33C89.5,213.01,87.7,208.23,85.69,204.51z"/>
				<path class="st18" d="M119.3,306.23c-0.07-0.38-1.78-6.38-1.89-9.61c-0.15-4.69,0.47-50.44-4.48-52.23
					c-1.31-0.47-7.54-1.13-10.12-1.05c-4.45,4.99-2.46,8.57-3.32,15.51c3.13-1.22,5.51-1.35,5.45-0.18c-0.4,8.62,7,37.59,6.74,38.31
					c-1.13,3.2-3.65,4.7-3.65,4.7s11.86,11.27,12.57,9.97C121.32,310.35,120.08,310.52,119.3,306.23z"/>
				<path class="st17" d="M136.74,304.75c-0.19-0.36-3.74-5.82-4.84-9.05c-1.6-4.69-14.93-50.07-20.57-51.19
					c-1.41-0.28-13.22-2.08-15.76-1.1c-2.88,6.59-1.4,9.02-0.12,16.33c4.74-0.85,12.08-2.53,12.28-1.31
					c1.63,10.18,18.63,38.81,18.6,39.63c-0.14,3.63-2.17,6.02-2.17,6.02s15.25,7.25,15.56,5.68
					C140.02,308.21,138.84,308.82,136.74,304.75z"/>
				<path class="st42" d="M123.88,304.48l16.69,6.68c0.64,0.19,0.97-0.29,0.88-0.7c-0.2-0.86-2.89-3.79-4.7-5.75
					c-3.99-1.11-10.15-5.49-10.43-6.68C125.31,299.79,123.56,304.26,123.88,304.48z"/>
				<path class="st17" d="M76.75,187.05c0,0-1.09,7.81-1.85,9.71c-0.76,1.9,4.18,5.96,8.3,7.19c4.12,1.23-1.26-4.19-1.09-6.22
					c0.17-2.03,0.92-11.63,0.92-11.63L76.75,187.05z"/>
				<path class="st18" d="M82.82,188.85c0.12-1.59,0.21-2.75,0.21-2.75l-6.28,0.96c0,0-0.16,0.92-0.33,2.21
					C78.96,190.75,81.25,190.28,82.82,188.85z"/>
				<path class="st17" d="M78.72,172.79c0,0-2.48,0.56-4,2.9s-2.58,9.23,2.46,12.45c5.03,3.22,8.95-1.33,9.01-5.77
					C86.25,177.93,85.31,172.01,78.72,172.79z"/>
				<path class="st17" d="M87.34,180.98c-0.43,1.07-1.28,1.74-1.9,1.48c-0.62-0.25-0.78-1.32-0.35-2.39
					c0.43-1.07,1.28-1.74,1.9-1.48C87.62,178.83,87.77,179.91,87.34,180.98z"/>
				<path class="st17" d="M74.64,181.86c0.37,1.15,0.03,2.29-0.75,2.54c-0.78,0.25-1.7-0.49-2.07-1.64
					c-0.36-1.15-0.03-2.29,0.75-2.54C73.35,179.97,74.27,180.7,74.64,181.86z"/>
				<path class="st6" d="M93.75,240.15c-2.78-0.26-11.91-0.24-11.91-0.24l-0.2-1.26l-16.32-2.19c0,0-2.88,6.89-3,11.21
					c-0.2,7.56,6.76,13.94,12.72,13.57c3.54-0.22,23.6-0.66,27.52-2.11c0.81-6.16,1.74-12.84,5.89-17.27
					C101.8,240.94,97.52,240.49,93.75,240.15z"/>
				<path class="st42" d="M121.49,310.3c-0.56-1.41-1.5-2.68-2.18-4.11c-3.32-2.24-7.71-8.09-7.63-9.24c-1.41,1.25-4.24,4.7-4.01,5
					l10.44,10.2c0.08,0.06,4.68,0.34,5.62-0.24C124.19,311.62,122.46,310.69,121.49,310.3z"/>
				<path class="st17" d="M88.57,216.38l-8.86,9.47c0,0-0.61-5.52-1.03-14.07c-3.61,0.49-6.06,1.38-9.2,3.13
					c1.51,8.18,3.81,20.06,8.28,21.71c3.48,1.28,11.8-13.92,11.8-13.92L88.57,216.38z"/>
				<path class="st40" d="M78.79,202.65c-0.54-2.58-1.16-5.17-3.95-5.99c-1.73-0.51-3.67-0.02-5.05,1.11
					c-1.64,1.35-2.1,3.51-2.09,5.55c0.02,4.64,0.33,9.46,1.18,14.03c3.14-1.75,7.7-1.55,11.31-2.04
					C80.52,211.18,79.49,206.01,78.79,202.65z"/>
				<path class="st26" d="M100.95,258.88c0,0-19.48,0.28-24.95,0.28c-5.68,0.01-21.06-2.37-21.06-2.37c-3.82,0-8.54,4.39-8.54,8.27
					v2.06c0,3.88,3.09,7.03,6.91,7.03h44.55c3.82,0,6.91-3.15,6.91-7.03v-2.06C104.77,261.18,104.76,258.88,100.95,258.88z"/>
				<path class="st3" d="M102.62,211.11v7.06c0,1.62-1.31,2.93-2.93,2.93h-2.52c-1.62,0-2.93-1.31-2.93-2.93v-7.95h8.38V211.11z"/>
				<g>
					<path class="st3" d="M93.01,218.73h1.27v-1.54h-1.27c-0.6,0-1.08-0.69-1.08-1.54v-1.54c0-0.85,0.49-1.54,1.08-1.54h1.63v-1.54
						h-1.63c-1.2,0-2.17,1.38-2.17,3.08v1.54C90.84,217.35,91.81,218.73,93.01,218.73z"/>
				</g>
				<path class="st17" d="M90.25,212.17c0.55-0.38,1.74-0.66,2.19-0.04c0.44,0.62,0.05,1.39,0.27,1.85c0.2,0.42,0.38,1.12,0.44,1.74
					c0.02,0.17,0.12,1.49,0.15,1.86c0.03,0.38-3.74,5.11-3.74,5.11l-2.97-3.73C86.59,218.98,89.7,212.55,90.25,212.17z"/>
			</g>
			<g>
				<path class="st22" d="M202.13,221.03c0.04-0.64,0.57-1.14,1.21-1.14h7.81c0.64,0,1.17,0.5,1.21,1.14l0.01,0.21h-10.25
					L202.13,221.03z"/>
				<polygon class="st3" points="212.37,221.24 213.64,242.77 200.85,242.77 202.12,221.24 				"/>
				<path class="st3" d="M206.63,216.39c-0.03-0.22,0.15-0.42,0.37-0.42h0.47c0.23,0,0.4,0.2,0.37,0.42l0,0.02h-1.21L206.63,216.39z
					"/>
				<g>
					<path class="st3" d="M201.51,236.3l0.86-0.53c-2.97-4.83-6.64-12.27-5.54-13.71c1.47-1.91,5.39,0.87,5.43,0.9l0.6-0.82
						c-0.19-0.14-4.74-3.42-6.83-0.7C194.1,223.96,200.25,234.26,201.51,236.3z"/>
				</g>
				<polygon class="st3" points="207.85,216.41 207.57,218.69 206.92,218.69 206.64,216.41 				"/>
				<path class="st3" d="M207.24,217.48c2.04,0,3.7,1.08,3.75,2.42h-7.5C203.54,218.56,205.2,217.48,207.24,217.48z"/>
				<polygon class="st3" points="212.61,225.4 212.94,231 216.58,222.83 214.66,222.83 				"/>
			</g>
			<polygon class="st14" points="122.42,254.52 125.13,312.14 122.82,312.14 115.29,253.85 			"/>
			<polygon class="st14" points="236.32,254.52 234.06,312.14 236.54,312.14 242.27,253.85 			"/>
			<path class="st22" d="M247.74,256.11H108.95v-0.82c0-6.91,5.6-12.51,12.51-12.51h113.76c6.91,0,12.51,5.6,12.51,12.51V256.11z"/>
		</g>
	</g>
	<g>
		<g>
			<polygon class="st3" points="379.12,179.58 389.94,174.73 379.12,169.88 379.12,172.46 367.11,172.46 367.11,177.01 
				379.12,177.01 			"/>
			<polygon class="st3" points="370.75,180.18 359.94,185.03 370.75,189.88 370.75,187.31 382.76,187.31 382.76,182.76 
				370.75,182.76 			"/>
		</g>
		<g>
			<path class="st3" d="M374.94,205.88c-14.34,0-26-11.66-26-26s11.66-26,26-26s26,11.66,26,26S389.27,205.88,374.94,205.88z
				 M374.94,155.88c-13.23,0-24,10.77-24,24s10.77,24,24,24s24-10.77,24-24S388.17,155.88,374.94,155.88z"/>
		</g>
	</g>
	<path class="st30" d="M214.66,0v47.47c-3.97,0.2-7.15,3.36-7.4,7.31h-4.65c-1.17,0-2.11,0.94-2.11,2.11h0.64
		c-2.1,0-4.16,0.51-6.02,1.49l-5.94,3.13c-0.09,0.02-0.14,0.05-0.14,0.07c0,0.93,52.04,0.93,52.04,0c0-0.02-0.04-0.05-0.12-0.07
		c-3.97-1.97-6.55-4.62-11.57-4.62h0.23c0-1.17-0.94-2.11-2.11-2.11h-4.65c-0.25-3.95-3.43-7.11-7.4-7.31V0H214.66z"/>
	<path class="st30" d="M446.94,48.67c-3.97-1.97-6.55-4.62-11.57-4.62h0.23c0-1.17-0.94-2.11-2.11-2.11h-4.65
		c-0.25-3.95-3.43-7.11-7.4-7.31V0h-0.81v34.63c-3.97,0.2-7.15,3.36-7.4,7.31h-4.65c-1.17,0-2.11,0.94-2.11,2.11h0.64
		c-2.1,0-4.16,0.51-6.02,1.49l-5.94,3.13c-0.09,0.02-0.14,0.05-0.14,0.07c0,0.93,52.04,0.93,52.04,0
		C447.06,48.72,447.02,48.7,446.94,48.67z"/>
	<path class="st30" d="M351.83,51.73c-3.97-1.97-6.55-4.62-11.57-4.62h0.23c0-1.17-0.94-2.11-2.11-2.11h-4.65
		c-0.25-3.95-3.43-7.11-7.4-7.31V0h-0.82v37.68c-3.97,0.2-7.15,3.36-7.4,7.31h-4.65c-1.17,0-2.11,0.94-2.11,2.11h0.64
		c-2.1,0-4.16,0.51-6.02,1.49l-5.94,3.13c-0.09,0.02-0.14,0.05-0.14,0.07c0,0.93,52.04,0.93,52.04,0
		C351.95,51.77,351.91,51.75,351.83,51.73z"/>
</g>
</svg>
