<?xml version="1.0" encoding="utf-8"?>
<!-- Generator: Adobe Illustrator 23.0.5, SVG Export Plug-In . SVG Version: 6.00 Build 0)  -->
<svg version="1.0" id="Layer_1" xmlns="http://www.w3.org/2000/svg" xmlns:xlink="http://www.w3.org/1999/xlink" x="0px" y="0px"
	 viewBox="0 0 624 320" style="enable-background:new 0 0 624 320;" xml:space="preserve">
<style type="text/css">
	.st0{opacity:0.3;fill:#35B24A;}
	.st1{fill:#00A99D;}
	.st2{fill:#B7C4CB;}
	.st3{fill:#D6E5ED;}
	.st4{fill:#259CAA;}
	.st5{fill:#196770;}
	.st6{fill:#99A4AA;}
	.st7{fill:#FFFFFF;stroke:#454F56;stroke-width:1.4736;stroke-miterlimit:10;}
	.st8{fill:#C6C6C5;}
	.st9{fill:#00A26D;}
	.st10{fill:#FFFFFF;stroke:#454F56;stroke-width:0.9824;stroke-miterlimit:10;}
	.st11{fill:none;stroke:#454F56;stroke-width:0.9824;stroke-miterlimit:10;}
	.st12{fill:#F15A24;}
	.st13{fill:#064868;}
	.st14{fill:none;stroke:#006837;stroke-width:0.9824;stroke-miterlimit:10;}
	.st15{fill:#422918;}
	.st16{fill:#062C44;}
	.st17{fill:#E09F7A;}
	.st18{fill:#181D1F;}
	.st19{fill:#062136;}
	.st20{fill:#083B5A;}
	.st21{fill:#ECECEC;}
	.st22{fill:#293033;}
	.st23{fill:#D9D9D9;}
	.st24{fill:#F8BA8C;}
	.st25{fill:#D6C7C4;}
	.st26{fill:#CC9473;}
	.st27{fill:none;stroke:#062136;stroke-width:1.1688;stroke-linecap:round;stroke-miterlimit:10;}
	.st28{fill:#4F100E;}
	.st29{fill:#FFFFFF;}
	.st30{fill:#CFEAFB;}
	.st31{fill:#FFFFFF;stroke:#D9D9D9;stroke-width:0.4075;stroke-linecap:round;stroke-linejoin:round;stroke-miterlimit:10;}
	.st32{fill:#B1B1B1;}
	.st33{fill:#454F56;}
	.st34{fill:#EDEDED;stroke:#D9D9D9;stroke-width:0.4075;stroke-linecap:round;stroke-linejoin:round;stroke-miterlimit:10;}
	.st35{fill:none;stroke:#454F56;stroke-width:0.1344;stroke-miterlimit:10;}
	.st36{fill:#C7DFED;}
	.st37{fill:#809EAD;}
	.st38{fill:none;stroke:#454F56;stroke-width:0.3262;stroke-miterlimit:10;}
	.st39{fill:#A7A6A6;}
	.st40{fill:#7AB829;}
	.st41{fill:#E20613;}
	.st42{fill:#424F7D;}
</style>
<rect y="0" class="st0" width="624" height="320"/>
<g>
	<path class="st1" d="M202.43,283.31c0,5,34.72,9.05,77.55,9.05c42.83,0,77.55-4.05,77.55-9.05c0-5-34.72-9.05-77.55-9.05
		C237.15,274.26,202.43,278.31,202.43,283.31z"/>
	<g>
		<path class="st2" d="M457.81,234.87c0,5.09-4.12,9.21-9.21,9.21H103.22c-5.09,0-9.21-4.12-9.21-9.21V29.21
			c0-5.09,4.12-9.21,9.21-9.21H448.6c5.09,0,9.21,4.12,9.21,9.21V234.87z"/>
		<path class="st2" d="M214.64,282.85v-4.86c0-1.94,3.63-7.02,5.01-7.02h113.99c1.38,0,5.01,5.08,5.01,7.02v4.86H214.64z"/>
		<path class="st3" d="M217.96,282.85v-4.17c0-1.66,3.43-6.03,4.74-6.03h107.88c1.31,0,4.74,4.37,4.74,6.03v4.17H217.96z"/>
		<path class="st3" d="M453.65,232.87c0,4.92-4.03,8.91-9,8.91H107.16c-4.97,0-9-3.99-9-8.91V34.28c0-4.92,4.03-8.91,9-8.91h337.49
			c4.97,0,9,3.99,9,8.91V232.87z"/>
		<rect x="109.65" y="35.85" class="st4" width="332.52" height="199.33"/>
		<polygon class="st5" points="442.17,235.17 109.65,235.17 109.65,35.85 119.95,231.6 		"/>
		<path class="st6" d="M300.56,244.08h-43.04c0,0,15.58,13.77,0,26.89c-15.58,0,30.42,0,43.04,0
			C283.49,257.27,300.56,244.08,300.56,244.08z"/>
	</g>
	<g>
		<rect x="143.82" y="57.98" class="st7" width="272.31" height="151.19"/>
		<rect x="162.2" y="72.63" class="st8" width="15.01" height="6.58"/>
		<rect x="287.49" y="72.63" class="st8" width="15.01" height="6.58"/>
		<rect x="204.08" y="188.32" class="st8" width="15.01" height="6.58"/>
		<rect x="287.49" y="178.52" class="st8" width="7.5" height="3.29"/>
		<rect x="300.45" y="186.68" class="st8" width="7.51" height="3.29"/>
		<rect x="310.89" y="186.68" class="st8" width="7.51" height="3.29"/>
		<rect x="321.34" y="186.68" class="st8" width="7.51" height="3.29"/>
		<rect x="331.77" y="186.68" class="st8" width="7.51" height="3.29"/>
		<rect x="342.22" y="186.68" class="st8" width="7.51" height="3.29"/>
		<rect x="352.66" y="186.68" class="st8" width="7.51" height="3.29"/>
		<rect x="363.1" y="186.68" class="st8" width="7.51" height="3.29"/>
		<rect x="373.54" y="186.68" class="st8" width="7.51" height="3.29"/>
		<rect x="383.98" y="186.68" class="st8" width="7.51" height="3.29"/>
		<rect x="394.42" y="186.68" class="st8" width="7.51" height="3.29"/>
		<rect x="287.49" y="168.5" class="st8" width="7.5" height="3.29"/>
		<rect x="287.49" y="158.47" class="st8" width="7.5" height="3.29"/>
		<rect x="287.49" y="148.45" class="st8" width="7.5" height="3.29"/>
		<rect x="287.49" y="138.43" class="st8" width="7.5" height="3.29"/>
		<rect x="287.49" y="128.4" class="st8" width="7.5" height="3.29"/>
		<rect x="287.49" y="118.38" class="st8" width="7.5" height="3.29"/>
		<rect x="287.49" y="108.36" class="st8" width="7.5" height="3.29"/>
		<rect x="287.49" y="98.33" class="st8" width="7.5" height="3.29"/>
		<rect x="245.21" y="92.18" class="st9" width="6.58" height="90.26"/>
		<rect x="235.97" y="109.77" class="st9" width="6.58" height="72.67"/>
		<rect x="227.04" y="127.93" class="st9" width="6.58" height="54.5"/>
		<rect x="217.8" y="150.88" class="st9" width="6.57" height="31.56"/>
		<rect x="208.3" y="92.18" class="st9" width="6.58" height="90.26"/>
		<rect x="199.06" y="109.77" class="st9" width="6.58" height="72.67"/>
		<rect x="190.13" y="119.32" class="st9" width="6.58" height="63.12"/>
		<rect x="180.9" y="138.55" class="st9" width="6.58" height="43.88"/>
		<rect x="171.97" y="133.57" class="st9" width="6.58" height="48.86"/>
		<line class="st7" x1="169.71" y1="182.44" x2="256.59" y2="182.44"/>
		<rect x="298.14" y="92.18" class="st10" width="102.74" height="90.26"/>
		<line class="st11" x1="307.96" y1="182.44" x2="307.96" y2="92.18"/>
		<line class="st11" x1="318.4" y1="182.44" x2="318.4" y2="92.18"/>
		<line class="st11" x1="328.84" y1="182.44" x2="328.84" y2="92.18"/>
		<line class="st11" x1="339.28" y1="182.44" x2="339.28" y2="92.18"/>
		<line class="st11" x1="349.72" y1="182.44" x2="349.72" y2="92.18"/>
		<line class="st11" x1="360.16" y1="182.44" x2="360.16" y2="92.18"/>
		<line class="st11" x1="370.61" y1="182.44" x2="370.61" y2="92.18"/>
		<line class="st11" x1="381.05" y1="182.44" x2="381.05" y2="92.18"/>
		<line class="st11" x1="391.49" y1="182.44" x2="391.49" y2="92.18"/>
		<line class="st10" x1="298.14" y1="100.56" x2="400.89" y2="100.56"/>
		<line class="st10" x1="298.14" y1="111" x2="400.89" y2="111"/>
		<line class="st10" x1="298.14" y1="121.44" x2="400.89" y2="121.44"/>
		<line class="st10" x1="298.14" y1="131.88" x2="400.89" y2="131.88"/>
		<line class="st10" x1="298.14" y1="142.32" x2="400.89" y2="142.32"/>
		<line class="st10" x1="298.14" y1="152.76" x2="400.89" y2="152.76"/>
		<line class="st10" x1="298.14" y1="163.2" x2="400.89" y2="163.2"/>
		<line class="st10" x1="298.14" y1="173.64" x2="400.89" y2="173.64"/>
		<path class="st12" d="M322.63,152.76c0,2.34-1.89,4.23-4.23,4.23c-2.34,0-4.23-1.9-4.23-4.23c0-2.34,1.89-4.23,4.23-4.23
			C320.74,148.53,322.63,150.42,322.63,152.76z"/>
		<path class="st13" d="M320.15,152.76c0,0.97-0.78,1.75-1.75,1.75c-0.97,0-1.75-0.78-1.75-1.75c0-0.97,0.79-1.75,1.75-1.75
			C319.37,151.01,320.15,151.8,320.15,152.76z"/>
		<path class="st12" d="M343.51,163.21c0,2.33-1.89,4.23-4.23,4.23c-2.34,0-4.23-1.9-4.23-4.23c0-2.34,1.89-4.23,4.23-4.23
			C341.62,158.97,343.51,160.87,343.51,163.21z"/>
		<path class="st13" d="M341.03,163.21c0,0.97-0.78,1.75-1.75,1.75c-0.97,0-1.75-0.78-1.75-1.75c0-0.97,0.78-1.75,1.75-1.75
			C340.25,161.45,341.03,162.24,341.03,163.21z"/>
		<path class="st12" d="M353.95,142.32c0,2.34-1.89,4.23-4.23,4.23c-2.34,0-4.23-1.89-4.23-4.23c0-2.34,1.89-4.23,4.23-4.23
			C352.06,138.09,353.95,139.99,353.95,142.32z"/>
		<path class="st13" d="M351.48,142.32c0,0.97-0.78,1.75-1.75,1.75c-0.97,0-1.75-0.78-1.75-1.75c0-0.97,0.78-1.75,1.75-1.75
			C350.69,140.57,351.48,141.36,351.48,142.32z"/>
		<path class="st12" d="M374.84,152.76c0,2.34-1.9,4.23-4.23,4.23c-2.34,0-4.23-1.9-4.23-4.23c0-2.34,1.89-4.23,4.23-4.23
			C372.94,148.53,374.84,150.42,374.84,152.76z"/>
		<path class="st13" d="M372.36,152.76c0,0.97-0.78,1.75-1.75,1.75s-1.75-0.78-1.75-1.75c0-0.97,0.78-1.75,1.75-1.75
			S372.36,151.8,372.36,152.76z"/>
		<path class="st12" d="M395.72,121.44c0,2.33-1.89,4.23-4.23,4.23c-2.34,0-4.23-1.89-4.23-4.23c0-2.34,1.89-4.23,4.23-4.23
			C393.82,117.21,395.72,119.1,395.72,121.44z"/>
		<path class="st13" d="M393.24,121.44c0,0.97-0.78,1.75-1.75,1.75c-0.97,0-1.75-0.78-1.75-1.75c0-0.97,0.78-1.75,1.75-1.75
			C392.45,119.69,393.24,120.47,393.24,121.44z"/>
		<polyline class="st14" points="298.14,173.64 318.4,152.76 339.28,163.2 349.72,142.32 370.61,152.76 391.49,121.44 
			400.89,100.56 		"/>
	</g>
	<path class="st1" d="M132.03,305.07c0,2.72-12.42,4.93-27.73,4.93c-15.32,0-27.73-2.21-27.73-4.93c0-2.72,12.41-4.93,27.73-4.93
		C119.61,300.14,132.03,302.35,132.03,305.07z"/>
	<g>
		<path class="st15" d="M122.99,301.01c-0.02-2.33-1.69-2.92-6.45-4.51c-1.72-0.57-5.2-2.49-5.2-2.49l-6.12-0.21l-0.47,3.14
			c0,0-0.8,4.41,0.49,4.83c1.8,0.59,6.58,0.99,11.09,0.99C122.3,302.76,123,302.06,122.99,301.01z"/>
		<g>
			<polygon class="st16" points="121.49,232.54 114.19,294.66 104.11,294.66 97.04,228.82 			"/>
		</g>
		<g>
			<g>
				<g>
					<path class="st17" d="M116.95,155.56c0,0,0.66,0.72,1.36,2.2c0.33,0.59,0.66,1.24,1.13,2.07c0.52,0.84,1.08,1.81,1.81,2.81
						c0.34,0.51,0.72,1.03,1.13,1.56c0.4,0.54,0.82,1.09,1.29,1.64c0.91,1.11,1.93,2.25,3.05,3.38c0.56,0.56,1.13,1.15,1.74,1.7
						c0.6,0.57,1.22,1.13,1.87,1.68c1.27,1.12-6.02,10.55-7.59,9.31c-0.8-0.61-1.58-1.23-2.33-1.88c-0.76-0.62-1.49-1.28-2.21-1.93
						c-1.43-1.3-2.76-2.62-3.98-3.95c-0.62-0.64-1.19-1.32-1.74-1.96c-0.56-0.64-1.08-1.28-1.56-1.92c-0.99-1.24-1.8-2.45-2.54-3.52
						c-0.73-1.12-1.37-2.22-1.86-3.05c-0.78-1.45-1.23-2.27-1.23-2.27L116.95,155.56z"/>
				</g>
			</g>
			<g>
				<g>
					<path class="st17" d="M149.86,159.62c0,0-4.48,6.14-26.16,14.7c-6.19,3.23,1.07,12.66,8.42,9.35
						c14.24-5.91,23.08-21.12,23.08-21.12L149.86,159.62z"/>
				</g>
			</g>
			<path class="st18" d="M155.19,164.35c0,0-17.48,27.2-30.61,20.08c-7.57-4.11-15.5-10.78-23.05-20.35
				c-5.23-6.64,7.27-17.09,14.58-10.02c4.84,6.89,9.58,12.31,14.02,16.57c4.72-4.54,19.15-10.36,19.15-10.36L155.19,164.35z"/>
			<path class="st17" d="M149.86,159.62c0,0-1.62-4.23,0.56-10.93c0.56-1.73,3.62-1.77,2.72,1.11c-0.44,1.39,0.14,2.53,0.4,1.92
				c2.22-5.17,1.93-7.67,4.25-8.51c2.33-0.84,6.75,3.4,5.2,7.51c-1.58,4.21-7.8,11.82-7.8,11.82L149.86,159.62z"/>
		</g>
		<path class="st19" d="M136.5,98.42c0,3.91-0.88,6.59-3.48,6.59c-2.6,0-4.7-3.17-4.7-7.08c0-3.91,3.95-9.12,6.55-9.12
			C137.46,88.81,136.5,94.51,136.5,98.42z"/>
		<path class="st20" d="M123.77,217.03c2.62,15.77-8.46,27.26-21.75,27.26c-13.29,0-26.64-10.19-23.67-27.26
			c2.05-11.79,9.47-22.01,22.76-22.01C114.4,195.02,121.8,205.22,123.77,217.03z"/>
		<path class="st21" d="M125.01,211.36c0-5.3-2.88-32.78-4.96-45.17c-2.07-12.39-7.97-14.32-7.97-14.32l-21.78,1.77
			c0,0-6.98-0.42-10.65,10.88c-2.25,6.91,0.62,18.93,0.58,29.78c-0.04,9.97-3.07,19.06-3.08,19.92c-0.03,1.8,1.2,2.82,1.2,2.82
			h45.41C123.77,217.03,125.01,216.66,125.01,211.36z"/>
		<path class="st22" d="M120.69,165.98c-2.08-12.39-8.6-14.11-8.6-14.11l-0.48,0.04c0,0,1.74,4.87,2.36,14.29
			c0.62,9.42,0.37,55.38,0.37,55.38l10.67-3.23c0,0,1.62-0.04,1.62-5.34C126.64,207.7,122.76,178.37,120.69,165.98z"/>
		<path class="st22" d="M101.05,210.34c0-3.19,1.09-38.12,1.09-38.12l-11.29-20.36c0,0-8.31,1.18-11.98,12.48
			c-2.25,6.91,0.67,19.1,0.62,29.95c-0.04,9.97-3.07,19.06-3.08,19.92c-0.03,1.8,1.2,2.82,1.2,2.82l16.95,4.54
			C94.56,221.57,101.05,215.64,101.05,210.34z"/>
		<path class="st18" d="M89.27,187.62c2.2,3.18,8.38,7.65,8.38,7.65s2.16,6.73,3.59,6.82c0.3-10.17,0.9-29.87,0.9-29.87L96,161.16
			l-14.69,13C81.31,174.16,86.56,183.69,89.27,187.62z"/>
		<path class="st23" d="M113.12,150.91l-4.83-0.47c0,0-0.03,0.41,0.5,1.68c0.53,1.27,3.74,9.03,3.74,9.03L113.12,150.91z"/>
		<path class="st24" d="M91.21,140.67h19.32c0,0-3.95,6.1-1.74,11.45c0.38,0.92,3.74,9.03,3.74,9.03s-27.55-2.58-21.31-7.64
			C97.45,148.45,91.21,140.67,91.21,140.67z"/>
		<path class="st25" d="M96.71,145.57c1.59,2.17,9.04,3.66,11.44,3.66c-0.28-4.44,2.37-8.57,2.37-8.57H99.94
			C100.21,142.75,95.46,143.86,96.71,145.57z"/>
		<path class="st24" d="M133.92,112.24c7.81,6.9-2.71,35.39-23.27,35.39c-19.23,0-36.09-10.55-36.09-33.2
			c0-22.65,9.65-41.01,30.7-41.01C126.31,73.42,136.96,91.8,133.92,112.24z"/>
		<path class="st26" d="M116.51,116.76c0-1.1,1.21-1.99,2.7-1.99c1.49,0,2.7,0.89,2.7,1.99c0,0-0.84-0.76-2.7-0.84
			C117.35,115.85,116.51,116.76,116.51,116.76z"/>
		<path class="st19" d="M110.52,67.11c-13.47-1.63-28.59-4.84-33.76,9.45c-8.18,0.26-11.5,13.12-10.79,18.93
			c2.48,20.28,4.01,36.29,18.51,43.26c-0.56-5.2,0.9-13.79,0.9-13.79s-4.63-10.57,3.88-3.87c3.7-1.21,4.1-6.49,1.57-12
			c0.43-8.11,5.23-23.21,16.07-17.66c15.34,7.84,26.59,3.91,29.58-0.49C142.28,82.46,135.19,70.09,110.52,67.11z"/>
		<polygon class="st23" points="104.36,161.43 100.67,161.43 85.39,154.79 93.87,149.23 112.53,161.16 105.62,163.74 		"/>
		<path class="st24" d="M90.3,120.37c0,0,0.07,5.07-4.46,5.07c-4.54,0-8.66-2.28-8.66-6.82c0-4.54,3.68-8.21,8.22-8.21
			C89.93,110.4,90.3,120.37,90.3,120.37z"/>
		<path class="st27" d="M126.1,101.18c1.61-0.45,4.35,0.55,5.03,2.11"/>
		<path class="st27" d="M106.92,101.18c-1.61-0.45-4.36,0.55-5.03,2.11"/>
		<path class="st15" d="M105.8,303.32c-0.03-2.33-1.69-2.92-6.46-4.51c-1.72-0.57-5.2-2.49-5.2-2.49l-6.12-0.21l-0.47,3.13
			c0,0-0.8,4.41,0.49,4.83c1.8,0.59,6.58,0.99,11.09,0.99C105.11,305.07,105.81,304.37,105.8,303.32z"/>
		<g>
			<polygon class="st20" points="104.3,236.34 97,296.97 86.93,296.97 79.84,231.13 			"/>
		</g>
		<path class="st19" d="M130.28,109.08c0,0.96-0.78,1.73-1.73,1.73c-0.96,0-1.73-0.78-1.73-1.73c0-0.96,0.77-1.73,1.73-1.73
			C129.51,107.34,130.28,108.12,130.28,109.08z"/>
		<path class="st19" d="M108.83,109.08c0,0.96-0.78,1.73-1.73,1.73c-0.96,0-1.73-0.78-1.73-1.73c0-0.96,0.77-1.73,1.73-1.73
			C108.05,107.34,108.83,108.12,108.83,109.08z"/>
		<path class="st28" d="M123.55,130.78c0,3.57-2.03,6.47-4.54,6.47c-2.51,0-4.54-2.89-4.54-6.47c0-3.57,2.03-6.46,4.54-6.46
			C121.51,124.32,123.55,127.21,123.55,130.78z"/>
		<g>
			<path class="st29" d="M99.58,103.13c0,1.22-0.69,2.22-1.54,2.22c-0.85,0-1.54-0.99-1.54-2.22c0-1.22,1.54-4.1,1.54-4.1
				S99.58,101.9,99.58,103.13z"/>
			<path class="st30" d="M97.31,103.43c0.27,1.19,1.58,1.91,0.73,1.91c-0.85,0-1.54-0.99-1.54-2.22c0-1.22,1.54-4.1,1.54-4.1
				S97.03,102.18,97.31,103.43z"/>
		</g>
		<g>
			<path class="st29" d="M96.04,111.76c0,1.22-0.69,2.22-1.54,2.22c-0.85,0-1.54-0.99-1.54-2.22c0-1.23,1.54-4.1,1.54-4.1
				S96.04,110.53,96.04,111.76z"/>
			<path class="st30" d="M93.78,112.06c0.27,1.2,1.58,1.91,0.73,1.91c-0.85,0-1.54-0.99-1.54-2.22c0-1.23,1.54-4.1,1.54-4.1
				S93.5,110.81,93.78,112.06z"/>
		</g>
		<g>
			<path class="st29" d="M100.5,122.03c0,1.22-0.69,2.22-1.54,2.22c-0.85,0-1.54-0.99-1.54-2.22c0-1.23,1.54-4.1,1.54-4.1
				S100.5,120.8,100.5,122.03z"/>
			<path class="st30" d="M98.23,122.33c0.27,1.19,1.58,1.91,0.73,1.91c-0.85,0-1.54-0.99-1.54-2.22c0-1.23,1.54-4.1,1.54-4.1
				S97.95,121.08,98.23,122.33z"/>
		</g>
		<g>
			<polygon class="st31" points="172.26,214.08 125.87,202.29 134.43,189.69 180.83,201.48 			"/>
			<polygon class="st31" points="188.47,171.43 142.07,159.64 158.87,144.53 205.27,156.32 			"/>
			<polygon class="st32" points="175.44,204.75 133.8,194.17 134.98,192.34 176.73,202.95 			"/>
			<polygon class="st32" points="173.45,207.65 131.93,197.1 133.24,195.3 174.76,205.85 			"/>
			<polygon class="st32" points="153.4,205.96 130.49,200.14 131.63,198.3 153.91,203.96 			"/>
			<polygon class="st32" points="191.6,160.49 166.1,154.01 167.95,152.01 195.03,158.89 			"/>
			<polygon class="st32" points="188,163.51 163.46,157.27 165.29,155.27 190.51,161.68 			"/>
			<polygon class="st32" points="174.66,164.06 161.2,160.64 162.9,158.6 176.39,162.03 			"/>
			<g>
				<g>
					<path class="st33" d="M156.79,155.26l-1.71,2.31c-0.14,0.18-0.34,0.32-0.62,0.41c-0.28,0.09-0.53,0.11-0.76,0.05l-1.61-0.41
						c-0.15-0.04-0.17-0.11-0.08-0.22l2.59-3.3c0.09-0.11,0.2-0.15,0.34-0.12l1.53,0.38c0.21,0.05,0.36,0.17,0.43,0.35
						C156.96,154.9,156.92,155.08,156.79,155.26z M154.22,157.36l1.74-2.31l-0.92-0.23l-1.77,2.3L154.22,157.36z"/>
					<path class="st33" d="M157.12,158.74l0.31-0.73l-0.9-0.23l-0.67,0.64c-0.09,0.08-0.19,0.11-0.31,0.08l-0.45-0.11
						c-0.07-0.02-0.11-0.05-0.12-0.1c-0.02-0.05,0-0.1,0.06-0.15l3.27-3.14c0.08-0.09,0.19-0.11,0.3-0.09l0.82,0.21
						c0.11,0.03,0.15,0.09,0.1,0.19l-1.5,3.59c-0.03,0.06-0.07,0.1-0.14,0.13c-0.07,0.03-0.14,0.04-0.21,0.02l-0.45-0.11
						C157.12,158.9,157.08,158.84,157.12,158.74z M157.74,157.28l0.51-1.18l-1.06,1.04L157.74,157.28z"/>
					<path class="st33" d="M160.23,158.08l-0.8,1.21c-0.08,0.12-0.19,0.15-0.33,0.12l-0.44-0.11c-0.14-0.04-0.18-0.11-0.1-0.23
						l0.82-1.21l0.54-2.35c0.01-0.06,0.06-0.11,0.13-0.15c0.08-0.04,0.15-0.05,0.22-0.03l0.41,0.1c0.1,0.02,0.13,0.08,0.11,0.17
						l-0.34,1.41l1.36-1.15c0.08-0.07,0.17-0.09,0.27-0.07l0.44,0.11c0.07,0.02,0.11,0.06,0.12,0.12c0.01,0.06-0.02,0.11-0.07,0.16
						L160.23,158.08z"/>
				</g>
				<g>
					<path class="st33" d="M159.59,150.37l-0.61-0.15l-2.27,2.98c-0.09,0.12-0.21,0.16-0.35,0.12l-0.44-0.11
						c-0.14-0.04-0.17-0.11-0.08-0.23l2.31-2.96l-0.61-0.15c-0.13-0.03-0.16-0.11-0.07-0.22l0.28-0.36
						c0.09-0.12,0.21-0.16,0.34-0.13l2.03,0.49c0.13,0.03,0.16,0.11,0.06,0.23l-0.27,0.36C159.84,150.36,159.72,150.4,159.59,150.37
						z"/>
					<path class="st33" d="M159.26,153.87l0.35-0.77l-0.89-0.22l-0.71,0.68c-0.09,0.09-0.2,0.12-0.32,0.09l-0.44-0.11
						c-0.07-0.02-0.11-0.05-0.12-0.1c-0.01-0.05,0.01-0.11,0.07-0.16l3.46-3.32c0.09-0.09,0.19-0.12,0.3-0.1l0.81,0.2
						c0.11,0.03,0.14,0.09,0.1,0.19l-1.7,3.76c-0.03,0.06-0.08,0.11-0.15,0.14c-0.07,0.03-0.14,0.04-0.21,0.02l-0.44-0.11
						C159.25,154.04,159.21,153.97,159.26,153.87z M159.97,152.34l0.58-1.23l-1.12,1.1L159.97,152.34z"/>
					<path class="st33" d="M163.05,154.98l-0.47-0.12c-0.1-0.02-0.14-0.08-0.12-0.16l0.16-1.12l-1.16,0.87
						c-0.09,0.07-0.18,0.09-0.27,0.06l-0.48-0.12c-0.08-0.02-0.12-0.06-0.12-0.12c-0.01-0.07,0.03-0.12,0.1-0.18l2.1-1.56l0.34-1.86
						c0.01-0.07,0.05-0.12,0.13-0.17c0.08-0.04,0.15-0.06,0.22-0.04l0.45,0.11c0.09,0.02,0.12,0.07,0.11,0.16l-0.17,0.99l1.01-0.78
						c0.08-0.07,0.17-0.09,0.26-0.07l0.45,0.11c0.07,0.02,0.11,0.06,0.12,0.12c0,0.07-0.03,0.13-0.09,0.18l-1.91,1.48l-0.29,2.01
						c-0.01,0.07-0.06,0.12-0.13,0.17C163.2,154.99,163.12,155,163.05,154.98z"/>
				</g>
			</g>
			<g>
				<polygon class="st34" points="186.46,202.92 141.06,191.38 142.07,159.64 188.47,171.43 				"/>
				<polygon class="st32" points="184.19,174.86 146.71,165.33 146.78,163.22 184.32,172.76 				"/>
				<polygon class="st32" points="184,178.21 146.59,168.7 146.67,166.59 184.12,176.11 				"/>
				<polygon class="st32" points="166.36,177.13 146.47,172.08 146.55,169.97 166.46,175.03 				"/>
				<g>
					<polygon class="st33" points="183.4,187.99 146.25,178.55 146.42,173.74 183.69,183.21 					"/>
				</g>
				<g>
					<path class="st33" d="M183.51,183.34l-1.05,17.33l-36.5-9.27l0.62-17.44L183.51,183.34 M183.69,183.21l-37.27-9.47l-0.63,17.79
						l36.82,9.36L183.69,183.21L183.69,183.21z"/>
				</g>
				<line class="st35" x1="146.18" y1="180.63" x2="183.27" y2="190.05"/>
				<line class="st35" x1="146.1" y1="182.77" x2="183.14" y2="192.19"/>
				<line class="st35" x1="146.02" y1="184.92" x2="183.01" y2="194.32"/>
				<line class="st35" x1="145.95" y1="187.07" x2="182.88" y2="196.46"/>
				<line class="st35" x1="145.87" y1="189.22" x2="182.75" y2="198.59"/>
				<line class="st35" x1="149.41" y1="192.45" x2="150.07" y2="174.67"/>
				<line class="st35" x1="171.29" y1="198.01" x2="172.23" y2="180.3"/>
				<line class="st35" x1="177.07" y1="199.48" x2="178.08" y2="181.78"/>
			</g>
		</g>
		<g>
			<g>
				<g>
					<path class="st24" d="M95.96,162.25c0,0,0.3,0.89,0.83,2.45c0.26,0.62,0.51,1.31,0.88,2.19c0.42,0.9,0.87,1.92,1.47,3
						c0.28,0.55,0.6,1.11,0.95,1.68c0.34,0.58,0.69,1.18,1.09,1.77c0.78,1.21,1.67,2.45,2.65,3.71c0.49,0.62,0.99,1.27,1.53,1.89
						c0.53,0.63,1.08,1.27,1.66,1.88c1.13,1.26,4.8,5.65,6.06,6.85c5.07,4.8-4.05,10.8-10.21,5.59c-1.53-1.31-3.05-2.65-4.47-4.06
						c-0.72-0.69-1.42-1.4-2.1-2.13c-0.69-0.71-1.33-1.44-1.97-2.17c-1.27-1.45-2.44-2.92-3.49-4.38c-0.54-0.71-1.03-1.44-1.5-2.15
						c-0.48-0.7-0.93-1.39-1.32-2.08c-0.84-1.34-1.52-2.64-2.12-3.79c-0.6-1.2-1.1-2.36-1.5-3.24c-0.61-1.53-0.96-2.4-0.96-2.4
						L95.96,162.25z"/>
				</g>
			</g>
			<g>
				<g>
					<path class="st24" d="M129.85,199.48c0,0-6.71-1.83-22.82-18.67c-5.33-4.52-11.29,5.89-5.44,11.44
						c10.84,10.96,27.57,13.28,27.57,13.28L129.85,199.48z"/>
				</g>
			</g>
			<path class="st22" d="M123.22,204.7c0,0-32.56-8.47-43.83-35.66c-3.23-7.8,9.18-16.14,15.64-8.28
				c3.28,3.99,1.94,13.53,32.71,37.76C127.72,203.69,123.22,204.7,123.22,204.7z"/>
			<path class="st24" d="M129.85,199.48c0,0,3.3-3.1,10.34-3.6c1.81-0.13,3.01,2.69-0.01,2.94c-1.45,0.12-2.29,1.08-1.62,1.1
				c5.62,0.11,7.82-1.11,9.48,0.73c1.65,1.84-0.61,7.53-5,7.65c-4.5,0.12-13.89-2.77-13.89-2.77L129.85,199.48z"/>
		</g>
	</g>
	<path class="st1" d="M336.15,303.42c0,4.54,49.69,8.22,110.98,8.22c61.29,0,110.98-3.68,110.98-8.22c0-4.54-49.69-8.22-110.98-8.22
		C385.84,295.21,336.15,298.89,336.15,303.42z"/>
	<g>
		<path class="st36" d="M516.64,126.74v4.7c1.17,0.63,1.97,1.85,1.97,3.28c0,2.06-1.67,3.74-3.74,3.74c-2.06,0-3.74-1.68-3.74-3.74
			c0-1.34,0.71-2.51,1.77-3.17v-4.8H501.4v4.73c1.13,0.65,1.91,1.85,1.91,3.24c0,2.06-1.68,3.74-3.74,3.74
			c-2.07,0-3.74-1.68-3.74-3.74c0-1.37,0.74-2.55,1.84-3.2v-4.77h-11.66v4.69c1.18,0.63,1.99,1.85,1.99,3.28
			c0,2.06-1.67,3.74-3.74,3.74c-2.07,0-3.74-1.68-3.74-3.74c0-1.34,0.7-2.5,1.76-3.16v-4.81h-11.7v4.62
			c1.25,0.61,2.11,1.87,2.11,3.35c0,2.06-1.68,3.74-3.74,3.74c-2.06,0-3.74-1.68-3.74-3.74c0-1.29,0.65-2.42,1.64-3.09v-4.88h-11.37
			v4.73c1.13,0.64,1.9,1.84,1.9,3.24c0,2.06-1.67,3.74-3.74,3.74c-2.06,0-3.74-1.68-3.74-3.74c0-1.37,0.74-2.55,1.84-3.2v-4.77
			h-11.7v4.67c1.2,0.62,2.03,1.86,2.03,3.31c0,2.06-1.67,3.74-3.74,3.74c-2.07,0-3.74-1.68-3.74-3.74c0-1.32,0.69-2.47,1.72-3.14
			v-4.84h-11.47v4.72c1.14,0.64,1.92,1.85,1.92,3.25c0,2.06-1.67,3.74-3.74,3.74s-3.74-1.68-3.74-3.74c0-1.36,0.73-2.54,1.82-3.2
			v-4.78h-11.61v4.71c1.16,0.63,1.95,1.85,1.95,3.26c0,2.06-1.67,3.74-3.73,3.74c-2.07,0-3.74-1.68-3.74-3.74
			c0-1.35,0.72-2.52,1.79-3.18v-4.79h-7.15c0,0,0,121.01,0,140.03c0,19.02,5.44,32.31,19.14,32.31c13.7,0,116.42,0,123.8,0
			c-17.98,0-19.14-12.54-19.14-27.46c0-14.92,0-144.88,0-144.88H516.64z"/>
		<rect x="414.47" y="183.5" class="st37" width="94.13" height="5.01"/>
		<rect x="414.47" y="191.51" class="st37" width="94.13" height="5.01"/>
		<rect x="414.47" y="199.52" class="st37" width="50.16" height="5.01"/>
		<rect x="414.47" y="261.02" class="st37" width="94.13" height="5.02"/>
		<rect x="414.47" y="269.03" class="st37" width="94.13" height="5.01"/>
		<rect x="448.03" y="144.36" class="st37" width="60.57" height="5.8"/>
		<rect x="448.03" y="153.62" class="st37" width="60.57" height="5.8"/>
		<rect x="448.03" y="162.88" class="st37" width="36.56" height="5.8"/>
		<rect x="414.47" y="212.94" class="st33" width="94.13" height="11.43"/>
		<g>
			<path class="st33" d="M508.18,213.36v41.39h-93.3v-41.39H508.18 M508.6,212.94h-94.13v42.22h94.13V212.94L508.6,212.94z"/>
		</g>
		<g>
			<path class="st33" d="M424.86,161.33v7.15c0,0.57-0.26,1.06-0.78,1.48c-0.52,0.42-1.12,0.63-1.79,0.63h-4.73
				c-0.42,0-0.64-0.17-0.64-0.52v-10.32c0-0.35,0.21-0.52,0.64-0.52h4.73c0.68,0,1.27,0.21,1.79,0.64
				C424.59,160.28,424.86,160.77,424.86,161.33z M422.31,168.49v-7.17h-2.83v7.17H422.31z"/>
			<path class="st33" d="M432.06,170.16l-0.51-2.11h-2.67l-0.51,2.11c-0.07,0.28-0.28,0.42-0.62,0.42h-1.31
				c-0.21,0-0.37-0.06-0.49-0.19c-0.13-0.12-0.17-0.26-0.13-0.43l2.52-10.32c0.06-0.28,0.27-0.42,0.62-0.42h2.55
				c0.34,0,0.55,0.14,0.62,0.42l2.51,10.32c0.03,0.17-0.01,0.31-0.13,0.43c-0.13,0.13-0.29,0.19-0.49,0.19h-1.32
				C432.32,170.59,432.12,170.45,432.06,170.16z M431.03,165.96l-0.83-3.4l-0.83,3.4H431.03z"/>
			<path class="st33" d="M438.78,166.4v3.67c0,0.35-0.21,0.52-0.63,0.52h-1.32c-0.42,0-0.63-0.17-0.63-0.52v-3.68l-2.78-6.47
				c-0.08-0.17-0.05-0.33,0.08-0.48c0.14-0.14,0.31-0.22,0.52-0.22h1.29c0.3,0,0.5,0.12,0.6,0.35l1.6,3.88l1.56-3.88
				c0.09-0.24,0.29-0.35,0.6-0.35h1.36c0.21,0,0.38,0.07,0.51,0.22c0.13,0.15,0.15,0.3,0.08,0.47L438.78,166.4z"/>
		</g>
		<g>
			<path class="st33" d="M422.58,146.73h-2.01v9.26c0,0.37-0.22,0.55-0.67,0.55h-1.37c-0.45,0-0.67-0.18-0.67-0.55v-9.26h-2.01
				c-0.44,0-0.67-0.18-0.67-0.54v-1.12c0-0.37,0.23-0.55,0.67-0.55h6.73c0.45,0,0.67,0.18,0.67,0.55v1.12
				C423.25,146.55,423.03,146.73,422.58,146.73z"/>
			<path class="st33" d="M428.68,156.09l-0.54-2.24h-2.83l-0.54,2.24c-0.07,0.3-0.3,0.44-0.66,0.44h-1.39
				c-0.22,0-0.39-0.07-0.52-0.2c-0.14-0.13-0.19-0.28-0.14-0.46l2.66-10.92c0.07-0.3,0.29-0.44,0.65-0.44h2.7
				c0.36,0,0.59,0.15,0.66,0.44l2.65,10.92c0.04,0.18-0.01,0.33-0.14,0.46c-0.13,0.13-0.31,0.2-0.51,0.2h-1.4
				C428.97,156.53,428.75,156.39,428.68,156.09z M427.6,151.63l-0.88-3.6l-0.87,3.6H427.6z"/>
			<path class="st33" d="M440.86,156.53h-1.49c-0.29,0-0.5-0.11-0.62-0.34l-1.56-3.01l-1.56,3.01c-0.12,0.22-0.32,0.34-0.62,0.34
				h-1.49c-0.25,0-0.43-0.08-0.55-0.24c-0.14-0.17-0.16-0.34-0.06-0.52l2.81-5.42l-2.64-5.08c-0.1-0.18-0.08-0.35,0.05-0.52
				c0.13-0.16,0.31-0.24,0.56-0.24h1.49c0.29,0,0.49,0.11,0.61,0.34l1.4,2.68l1.4-2.68c0.11-0.22,0.31-0.34,0.62-0.34h1.49
				c0.23,0,0.42,0.08,0.56,0.24c0.12,0.17,0.14,0.35,0.05,0.52l-2.64,5.08l2.81,5.42c0.08,0.18,0.06,0.36-0.06,0.52
				C441.28,156.45,441.09,156.53,440.86,156.53z"/>
		</g>
		<line class="st38" x1="414.47" y1="229.29" x2="508.6" y2="229.29"/>
		<line class="st38" x1="414.47" y1="234.39" x2="508.6" y2="234.39"/>
		<line class="st38" x1="414.47" y1="239.49" x2="508.6" y2="239.49"/>
		<line class="st38" x1="414.47" y1="244.58" x2="508.6" y2="244.58"/>
		<line class="st38" x1="414.47" y1="249.68" x2="508.6" y2="249.68"/>
		<line class="st38" x1="423.71" y1="255.16" x2="423.71" y2="212.94"/>
		<line class="st38" x1="479.67" y1="255.16" x2="479.67" y2="212.94"/>
		<line class="st38" x1="494.44" y1="255.16" x2="494.44" y2="212.94"/>
		<path class="st29" d="M434.32,271.62v-13.05h123.79v8.2c0,19.02-5.44,32.31-19.14,32.31H415.18
			C433.16,299.08,434.32,286.54,434.32,271.62z"/>
	</g>
	<g>
		<path class="st39" d="M435.81,299.66c0,3.98-3.3,7.21-7.36,7.21h-66.5c-4.07,0-7.36-3.23-7.36-7.21V197.87
			c0-3.98,3.3-7.21,7.36-7.21h66.5c4.06,0,7.36,3.22,7.36,7.21V299.66z"/>
		<path class="st8" d="M432.24,294.12c0,3.78-3.01,6.84-6.71,6.84h-60.65c-3.71,0-6.71-3.07-6.71-6.84V197.5
			c0-3.78,3.01-6.84,6.71-6.84h60.65c3.71,0,6.71,3.06,6.71,6.84V294.12z"/>
		<path class="st33" d="M426.56,231.71c0,1.5-0.99,2.72-2.2,2.72h-57.33c-1.22,0-2.2-1.22-2.2-2.72v-23.75c0-1.5,0.98-2.72,2.2-2.72
			h57.33c1.22,0,2.2,1.22,2.2,2.72V231.71z"/>
		<path class="st40" d="M422.88,230.29c0,1.32-0.87,2.39-1.94,2.39h-50.49c-1.07,0-1.94-1.07-1.94-2.39v-16.18
			c0-1.32,0.87-2.39,1.94-2.39h50.49c1.07,0,1.94,1.07,1.94,2.39V230.29z"/>
		<path class="st41" d="M379.1,246.07c0,0.97-0.78,1.74-1.75,1.74h-10.79c-0.96,0-1.74-0.78-1.74-1.74v-2.71
			c0-0.96,0.78-1.75,1.74-1.75h10.79c0.96,0,1.75,0.78,1.75,1.75V246.07z"/>
		<path class="st42" d="M394.92,246.07c0,0.97-0.78,1.74-1.74,1.74h-10.79c-0.96,0-1.74-0.78-1.74-1.74v-2.71
			c0-0.96,0.78-1.75,1.74-1.75h10.79c0.96,0,1.74,0.78,1.74,1.75V246.07z"/>
		<path class="st42" d="M410.74,246.07c0,0.97-0.78,1.74-1.75,1.74h-10.79c-0.96,0-1.74-0.78-1.74-1.74v-2.71
			c0-0.96,0.78-1.75,1.74-1.75H409c0.96,0,1.75,0.78,1.75,1.75V246.07z"/>
		<path class="st42" d="M426.56,246.07c0,0.97-0.78,1.74-1.74,1.74h-10.79c-0.96,0-1.74-0.78-1.74-1.74v-2.71
			c0-0.96,0.78-1.75,1.74-1.75h10.79c0.96,0,1.74,0.78,1.74,1.75V246.07z"/>
		<path class="st42" d="M379.1,258.99c0,0.96-0.78,1.74-1.75,1.74h-10.79c-0.96,0-1.74-0.78-1.74-1.74v-8.15
			c0-0.96,0.78-1.74,1.74-1.74h10.79c0.96,0,1.75,0.78,1.75,1.74V258.99z"/>
		<path class="st42" d="M394.92,258.99c0,0.96-0.78,1.74-1.74,1.74h-10.79c-0.96,0-1.74-0.78-1.74-1.74v-8.15
			c0-0.96,0.78-1.74,1.74-1.74h10.79c0.96,0,1.74,0.78,1.74,1.74V258.99z"/>
		<path class="st42" d="M410.74,258.99c0,0.96-0.78,1.74-1.75,1.74h-10.79c-0.96,0-1.74-0.78-1.74-1.74v-8.15
			c0-0.96,0.78-1.74,1.74-1.74H409c0.96,0,1.75,0.78,1.75,1.74V258.99z"/>
		<path class="st21" d="M426.56,258.99c0,0.96-0.78,1.74-1.74,1.74h-10.79c-0.96,0-1.74-0.78-1.74-1.74v-8.15
			c0-0.96,0.78-1.74,1.74-1.74h10.79c0.96,0,1.74,0.78,1.74,1.74V258.99z"/>
		<path class="st42" d="M379.1,273.53c0,0.96-0.78,1.74-1.75,1.74h-10.79c-0.96,0-1.74-0.78-1.74-1.74v-8.15
			c0-0.96,0.78-1.74,1.74-1.74h10.79c0.96,0,1.75,0.78,1.75,1.74V273.53z"/>
		<path class="st42" d="M394.92,273.53c0,0.96-0.78,1.74-1.74,1.74h-10.79c-0.96,0-1.74-0.78-1.74-1.74v-8.15
			c0-0.96,0.78-1.74,1.74-1.74h10.79c0.96,0,1.74,0.78,1.74,1.74V273.53z"/>
		<path class="st42" d="M410.74,273.53c0,0.96-0.78,1.74-1.75,1.74h-10.79c-0.96,0-1.74-0.78-1.74-1.74v-8.15
			c0-0.96,0.78-1.74,1.74-1.74H409c0.96,0,1.75,0.78,1.75,1.74V273.53z"/>
		<path class="st42" d="M379.1,288.08c0,0.96-0.78,1.74-1.75,1.74h-10.79c-0.96,0-1.74-0.78-1.74-1.74v-8.15
			c0-0.97,0.78-1.75,1.74-1.75h10.79c0.96,0,1.75,0.78,1.75,1.75V288.08z"/>
		<path class="st42" d="M394.92,288.08c0,0.96-0.78,1.74-1.74,1.74h-10.79c-0.96,0-1.74-0.78-1.74-1.74v-8.15
			c0-0.97,0.78-1.75,1.74-1.75h10.79c0.96,0,1.74,0.78,1.74,1.75V288.08z"/>
		<path class="st42" d="M410.74,288.08c0,0.96-0.78,1.74-1.75,1.74h-10.79c-0.96,0-1.74-0.78-1.74-1.74v-8.15
			c0-0.97,0.78-1.75,1.74-1.75H409c0.96,0,1.75,0.78,1.75,1.75V288.08z"/>
		<path class="st21" d="M424.82,263.64h-10.79c-0.96,0-1.74,0.78-1.74,1.74v5.66v2.49v14.55c0,0.96,0.78,1.74,1.74,1.74h10.79
			c0.96,0,1.74-0.78,1.74-1.74v-14.55v-2.49v-5.66C426.56,264.42,425.78,263.64,424.82,263.64z"/>
	</g>
</g>
</svg>
