<?xml version="1.0" encoding="utf-8"?>
<!-- Generator: Adobe Illustrator 23.0.5, SVG Export Plug-In . SVG Version: 6.00 Build 0)  -->
<svg version="1.0" id="Layer_1" xmlns="http://www.w3.org/2000/svg" xmlns:xlink="http://www.w3.org/1999/xlink" x="0px" y="0px"
	 viewBox="0 0 624 320" style="enable-background:new 0 0 624 320;" xml:space="preserve">
<style type="text/css">
	.st0{opacity:0.3;fill:#35B24A;}
	.st1{fill-rule:evenodd;clip-rule:evenodd;fill:#00A859;}
	.st2{fill:#F7941D;}
	.st3{fill:#FFFFFF;}
	.st4{fill:#93D8BE;}
	.st5{fill:#007048;}
	.st6{fill:#00A859;}
	.st7{fill:#FF9762;}
	.st8{opacity:0.3;fill:#FFFFFF;}
	.st9{fill:#2F353F;}
	.st10{fill:#39414E;}
	.st11{fill:#EE2A7B;}
	.st12{opacity:0.5;fill:#FFFFFF;}
	.st13{fill:url(#SVGID_1_);}
	.st14{fill:url(#SVGID_2_);}
	.st15{fill:#D1DEFD;}
	.st16{fill:url(#SVGID_3_);}
	.st17{fill:#F7CE8D;}
	.st18{opacity:0.4;fill:#A7A9AC;}
	.st19{fill:#E1E1E1;}
	.st20{fill-rule:evenodd;clip-rule:evenodd;fill:#FFFFFF;}
</style>
<rect y="0" class="st0" width="624" height="320"/>
<g>
	<g>
		<path class="st1" d="M125.5,81.98l-9.93,40.16l-19.29-6.26L113.5,94.5l-22.21,19.84l-18.04-5.74L125.5,81.98z"/>
		<path class="st1" d="M102.02,120.94l-6.35,9.14v-11.05L102.02,120.94z"/>
	</g>
	<g>
		<ellipse class="st2" cx="437.66" cy="43.91" rx="5.25" ry="5.35"/>
		<path class="st2" d="M429.01,36.07c-0.49,0.5-0.49,1.3,0,1.8c0.49,0.5,1.28,0.5,1.77,0c3.73-3.8,9.8-3.8,13.53,0
			c0.24,0.25,0.56,0.37,0.88,0.37c0.32,0,0.64-0.12,0.88-0.37c0.49-0.5,0.49-1.3,0-1.8C441.37,31.27,433.71,31.27,429.01,36.07z"/>
		<path class="st2" d="M437.54,26.08c-4.55,0-8.82,1.8-12.04,5.08c-0.49,0.5-0.49,1.3,0,1.8c0.49,0.5,1.28,0.5,1.77,0
			c2.74-2.8,6.39-4.33,10.27-4.33c3.88,0,7.53,1.54,10.27,4.33c0.24,0.25,0.56,0.37,0.88,0.37c0.32,0,0.64-0.12,0.88-0.37
			c0.49-0.5,0.49-1.3,0-1.8C446.36,27.88,442.09,26.08,437.54,26.08z"/>
		<path class="st2" d="M452.34,26.25c-3.95-4.03-9.21-6.25-14.8-6.25c-5.59,0-10.85,2.22-14.8,6.25c-0.49,0.5-0.49,1.3,0,1.8
			c0.49,0.5,1.28,0.5,1.77,0c3.48-3.55,8.11-5.5,13.04-5.5c4.92,0,9.55,1.95,13.04,5.5c0.24,0.25,0.56,0.37,0.88,0.37
			s0.64-0.12,0.88-0.37C452.83,27.55,452.83,26.75,452.34,26.25z"/>
	</g>
	<g>
		<path class="st3" d="M287.94,249.85c21.87-12.84,46.48-20.27,71.15-26.14c31.51-7.5,64.65-13.1,91.13-31.73
			c27.01-19.01,44.32-51.13,45.36-84.14c-9.74-7.37-20.39-11.38-31.31-12.82c-27.93-3.69-57.66,9.39-78.65,25.8
			c-4.65,3.64-8.87,7.44-12.54,11.25c-29.17,30.29-76.3,55.54-150.35,90.32C148.68,257.17,170,320,170,320s25.79-0.06,62.61-0.11
			c0.16,0,0.33,0,0.49,0c0.95-5.1,2.46-10.11,4.4-14.92C246.95,281.43,266.07,262.69,287.94,249.85z"/>
		<path class="st4" d="M477.99,320c4.43-4.95,7.2-10.24,8.85-15.7c6.52-21.56-4.5-45.63,0.13-60.6c1.02-3.29,3.3-7.68,6.22-12.94
			C508.11,204,539.81,155,506.04,117.48c-3.34-3.71-6.83-6.91-10.45-9.65c-1.04,33.01-18.34,65.13-45.36,84.14
			c-26.49,18.64-59.63,24.24-91.13,31.73c-24.67,5.87-49.28,13.3-71.15,26.14c-21.87,12.84-40.99,31.58-50.45,55.11
			c-1.93,4.81-3.45,9.82-4.4,14.92c34.69-0.05,79.05-0.11,120.83-0.13C409.35,319.73,460.24,319.78,477.99,320z"/>
	</g>
	<g>
		<g>
			<path class="st5" d="M87.99,250.4c0,0,10.27-39.7,25.97-40.7c15.7-1-16.14,40.7-16.14,40.7H87.99z"/>
			<path class="st6" d="M80.15,231.7c0,0-4.4-28.74-10.86-29.12c-6.46-0.37-3.46,14.85-1.15,25.71c2.31,10.86,3.81,22.11,3.81,22.11
				h8.89L80.15,231.7z"/>
			<path class="st7" d="M69.44,234.88c0,0-6.73-15.19-13.65-14.07c-6.92,1.12-3.83,10.13,4.81,19.17
				c7.55,7.89,9.91,10.42,9.91,10.42h3.86L69.44,234.88z"/>
			<path class="st8" d="M91.52,249.99c1.39-2.66,2.84-5.24,4.34-7.81c1.5-2.56,3.04-5.1,4.66-7.57c1.62-2.47,3.28-4.92,5.07-7.25
				c1.79-2.33,3.66-4.59,5.74-6.61c-1.98,2.13-3.74,4.48-5.42,6.89c-1.68,2.41-3.21,4.93-4.71,7.47c-1.5,2.54-2.91,5.14-4.28,7.76
				c-1.37,2.62-2.7,5.28-3.94,7.95L91.52,249.99z"/>
			<path class="st8" d="M75.99,250.52c-0.69-6.71-1.49-13.43-2.41-20.12c-0.47-3.34-0.97-6.68-1.55-10.01
				c-0.6-3.32-1.22-6.64-2.24-9.84c1.16,3.15,1.91,6.46,2.65,9.75c0.71,3.3,1.35,6.62,1.96,9.95c1.19,6.66,2.27,13.33,3.24,20.04
				L75.99,250.52z"/>
			<polygon class="st8" points="72.61,250.91 58.2,227.12 73.98,249.9 			"/>
			<path class="st2" d="M78.75,250.4c0,0,0.35-40.45,12.93-48.31c12.58-7.86,2.58,30.22,2.58,30.22l-3.39,18.09H78.75z"/>
			<path class="st8" d="M83.77,249.93c0.29-3.45,0.68-6.86,1.12-10.27c0.45-3.41,0.97-6.81,1.61-10.18
				c0.64-3.37,1.37-6.73,2.33-10.02c0.48-1.64,1.01-3.27,1.66-4.84c0.65-1.57,1.4-3.11,2.4-4.44c-0.94,1.38-1.63,2.94-2.21,4.53
				c-0.58,1.59-1.05,3.23-1.46,4.88c-0.82,3.3-1.42,6.67-1.91,10.05c-0.49,3.38-0.88,6.78-1.19,10.18c-0.31,3.4-0.55,6.83-0.7,10.22
				L83.77,249.93z"/>
		</g>
		<g>
			<path class="st9" d="M88.42,247.56c-1.13,2.87-1.79,6.42-0.4,9.79c2.1,5.11,5.87,4.42,9.48,8.31l0.84-15.58
				C95.12,248.79,91.81,247.94,88.42,247.56z"/>
			<path class="st9" d="M82.93,266.65c-3.58-7.44-2.37-14.83-0.99-19.25c-3.95,0.25-8.03,1.12-12.24,2.68l0.52,9.53
				c1.19,2.06,2.69,4.26,4.43,6.05c4.27,4.38,9.25,17.81-3.18,17.1l0.65,11.99C89.45,295.93,88.2,277.59,82.93,266.65z"/>
			<path class="st10" d="M74.65,265.66c-1.74-1.79-3.24-3.99-4.43-6.05l1.25,23.14C83.9,283.47,78.91,270.04,74.65,265.66z"/>
			<path class="st10" d="M92.23,294.8c-0.44-9.35,4.34-12.02,4.34-12.02l0,0l0.93-17.12c-3.61-3.89-7.37-3.2-9.48-8.31
				c-1.39-3.37-0.73-6.92,0.4-9.79c-2.12-0.24-4.28-0.29-6.48-0.16c-1.38,4.43-2.59,11.81,0.99,19.25
				c5.27,10.94,6.51,29.27-10.81,28.09l0.81,14.97C87.51,314.02,92.64,303.39,92.23,294.8z"/>
			<path class="st9" d="M94.56,320l2.01-37.22l0,0c0,0-4.77,2.66-4.34,12.02c0.4,8.59-4.73,19.21-19.31,14.92L73.48,320H94.56z"/>
		</g>
	</g>
	<path class="st3" d="M552.4,101.52c-10.82,0-19.62,8.8-19.62,19.62c0,10.82,8.8,19.62,19.62,19.62c10.82,0,19.62-8.8,19.62-19.62
		C572.01,110.32,563.21,101.52,552.4,101.52z M552.4,105.28c8.74,0,15.86,7.11,15.86,15.86c0,8.74-7.11,15.86-15.86,15.86
		c-8.74,0-15.86-7.11-15.86-15.86C536.54,112.39,543.65,105.28,552.4,105.28z"/>
	<path class="st2" d="M117.26,153.13c-7.65,0-13.87,6.22-13.87,13.87c0,7.65,6.22,13.87,13.87,13.87c7.65,0,13.87-6.22,13.87-13.87
		C131.13,159.35,124.9,153.13,117.26,153.13z M117.26,155.79c6.18,0,11.21,5.03,11.21,11.21c0,6.18-5.03,11.21-11.21,11.21
		c-6.18,0-11.21-5.03-11.21-11.21C106.05,160.82,111.08,155.79,117.26,155.79z"/>
	<g>
		<g>
			<g>
				<g>
					<path class="st6" d="M394.75,318.4c0,0,1.59-104.88,37.51-129.71s44.38,16.64,21.4,48.08s-30.64,81.63-30.64,81.63H394.75z"/>
					<path class="st11" d="M366.48,230.96c22.19,2.11,31.83,43.34,31.83,43.34c0,0,0,0,0,0c-3.27,24.37-3.57,44.1-3.57,44.1
						s-13.21,0-18.49,0C350.36,266.89,344.29,228.84,366.48,230.96z"/>
					<path class="st12" d="M410.09,318.43c0.03-1.22,0.1-3.36,0.18-4.6c0.08-1.25,0.18-2.51,0.29-3.76
						c0.23-2.51,0.48-5.01,0.81-7.51c0.62-5,1.43-9.98,2.38-14.93c1.9-9.91,4.47-19.69,7.61-29.29c1.6-4.79,3.34-9.53,5.25-14.21
						c0.48-1.17,0.99-2.33,1.48-3.49l0.75-1.74l0.79-1.72l1.59-3.44l1.68-3.4c0.28-0.56,0.55-1.14,0.85-1.7l0.89-1.68
						c0.6-1.11,1.17-2.24,1.79-3.35l1.87-3.3c0.32-0.55,0.61-1.11,0.95-1.64l0.99-1.62c0.66-1.08,1.31-2.17,1.99-3.23l2.08-3.17
						c0.35-0.53,0.69-1.06,1.05-1.58l1.1-1.55l2.19-3.1l-2.26,3.06l-1.13,1.53c-0.37,0.51-0.72,1.04-1.08,1.56l-2.15,3.13
						c-0.7,1.05-1.37,2.13-2.06,3.2l-1.02,1.6c-0.35,0.53-0.66,1.08-0.99,1.63l-1.95,3.27c-0.64,1.09-1.24,2.21-1.86,3.32
						l-0.92,1.66c-0.31,0.55-0.59,1.12-0.89,1.68l-1.75,3.38l-1.66,3.42l-0.83,1.71l-0.78,1.73c-0.52,1.16-1.06,2.31-1.56,3.47
						c-2.02,4.66-3.86,9.39-5.58,14.17c-3.36,9.58-6.16,19.38-8.27,29.32c-1.06,4.97-1.98,9.98-2.72,15.01
						c-0.38,2.52-0.69,5.04-0.97,7.58c-0.14,1.27-0.26,2.54-0.37,3.81c-0.11,1.28-0.2,3.4-0.26,4.72L410.09,318.43z"/>
					<path class="st12" d="M391.49,318.4c-0.68-3.45-1.45-7.07-2.25-10.47c-0.8-3.4-1.65-6.78-2.55-10.16
						c-0.9-3.37-1.84-6.73-2.83-10.08c-1-3.34-2.05-6.67-3.16-9.98c-2.23-6.61-4.7-13.15-7.6-19.5c-1.44-3.18-3.02-6.29-4.75-9.32
						c-1.73-3.03-3.62-5.97-5.78-8.7c2.08,2.79,3.87,5.79,5.5,8.85c1.62,3.07,3.11,6.22,4.44,9.42c2.69,6.41,4.95,12.99,6.97,19.63
						c1,3.33,1.95,6.67,2.84,10.02c0.88,3.36,1.72,6.73,2.51,10.11c0.79,3.38,1.53,6.77,2.22,10.17c0.69,3.4,1.31,6.6,1.88,9.99
						H391.49z"/>
				</g>
			</g>
			<rect x="351.5" y="318.4" class="st9" width="92.43" height="1.6"/>
		</g>
		<g>
			<g>
				<g>
					<path class="st2" d="M220.88,222.56c24.28,2.31,34.84,47.43,34.84,47.43c0,0,0,0,0,0c-3.58,26.67-3.91,48.26-3.91,48.26
						s-14.46,0-20.24,0C203.25,261.87,196.6,220.24,220.88,222.56z"/>
					<path class="st12" d="M248.25,318.25c-0.75-3.78-1.58-7.74-2.46-11.46c-0.88-3.72-1.81-7.43-2.79-11.12
						c-0.98-3.69-2.01-7.37-3.1-11.03c-1.09-3.66-2.24-7.3-3.45-10.92c-2.44-7.24-5.14-14.39-8.31-21.34
						c-1.57-3.48-3.31-6.88-5.19-10.2c-1.89-3.31-3.96-6.53-6.33-9.52c2.28,3.06,4.24,6.33,6.02,9.69c1.78,3.36,3.4,6.8,4.86,10.31
						c2.95,7.01,5.42,14.21,7.62,21.48c1.1,3.64,2.13,7.3,3.11,10.97c0.97,3.68,1.88,7.36,2.75,11.07c0.86,3.7,1.67,7.41,2.43,11.14
						c0.76,3.72,1.44,7.22,2.06,10.94H248.25z"/>
				</g>
			</g>
			<rect x="204.49" y="318.25" class="st9" width="101.15" height="1.75"/>
		</g>
	</g>
	<g>
		<g>
			<g>
				<path class="st9" d="M383.11,320H260.96c-9.79,0-17.73-7.94-17.73-17.73V49.63c0-9.79,7.94-17.73,17.73-17.73h122.15
					c9.79,0,17.73,7.94,17.73,17.73v252.64C400.84,312.06,392.9,320,383.11,320z"/>
				<g>
					<linearGradient id="SVGID_1_" gradientUnits="userSpaceOnUse" x1="321.3185" y1="16.0832" x2="322.3065" y2="383.6589">
						<stop  offset="0" style="stop-color:#DADDFD"/>
						<stop  offset="0.9872" style="stop-color:#FFFFFF"/>
					</linearGradient>
					<path class="st13" d="M262.08,38.98c-7.71,0-13.97,6.25-13.97,13.97v246.01c0,7.71,6.25,13.97,13.97,13.97h119.91
						c7.71,0,13.97-6.25,13.97-13.97v-33.66L263.19,38.98H262.08z"/>
					<linearGradient id="SVGID_2_" gradientUnits="userSpaceOnUse" x1="263.1926" y1="152.137" x2="395.9565" y2="152.137">
						<stop  offset="0" style="stop-color:#DADDFD"/>
						<stop  offset="0.9872" style="stop-color:#FFFFFF"/>
					</linearGradient>
					<path class="st14" d="M381.99,38.98H353.4h-2.33H293.9h-7.42h-23.29l132.76,226.31V52.95
						C395.96,45.23,389.7,38.98,381.99,38.98z"/>
				</g>
				<path class="st15" d="M335.25,37.17h-26.42c-0.73,0-1.32-0.59-1.32-1.32v-0.12c0-0.73,0.59-1.32,1.32-1.32h26.42
					c0.73,0,1.32,0.59,1.32,1.32v0.12C336.57,36.57,335.98,37.17,335.25,37.17z"/>
				<linearGradient id="SVGID_3_" gradientUnits="userSpaceOnUse" x1="338.6795" y1="35.7835" x2="341.4443" y2="35.7835">
					<stop  offset="0" style="stop-color:#D1DEFD"/>
					<stop  offset="0.9872" style="stop-color:#FFFFFF"/>
				</linearGradient>
				<path class="st16" d="M341.44,35.78c0,0.76-0.62,1.38-1.38,1.38c-0.76,0-1.38-0.62-1.38-1.38c0-0.76,0.62-1.38,1.38-1.38
					C340.83,34.4,341.44,35.02,341.44,35.78z"/>
			</g>
			<path class="st5" d="M362.37,108.75H234.39c-8.48,0-15.35-6.87-15.35-15.35V63c0-8.48,6.87-15.35,15.35-15.35h127.98
				c8.48,0,15.35,6.87,15.35,15.35v30.4C377.73,101.88,370.85,108.75,362.37,108.75z"/>
			<g>
				<g>
					<path class="st17" d="M140.64,299.83l0.23,0.2c1.37,1.22,3.46,1.09,4.68-0.27l3.69-4.15l-5.18-4.61l-3.69,4.15
						C139.14,296.52,139.27,298.61,140.64,299.83z"/>
					<path class="st9" d="M136.06,294.96c2.27-0.79,4.41,0.07,4.41,0.07c-1.27,1.43-1.14,3.62,0.29,4.9
						c1.29,1.15,3.2,1.15,4.49,0.09c0,0,0.67,1.17,1.63,2.88c0.71,1.26,0.53,5.42,1.4,7.02c2.05,3.78,5.18,5.23,5.3,6.3
						c0.25,2.13-0.38,3.04-2.91,3.53c-1.32,0.26-4.61,0.33-8.7-1.16c-6.41-2.33-11.19-14.44-11.19-14.99
						C130.78,302.69,133.78,295.75,136.06,294.96z"/>
					<g>
						<path class="st9" d="M169.89,308.03l0.31-0.03c1.82-0.15,3.18-1.76,3.03-3.58l-0.47-5.54l-6.91,0.58l0.47,5.54
							C166.47,306.83,168.07,308.19,169.89,308.03z"/>
						<path class="st9" d="M162.75,305.37c1.15-1.37,2.7-1.92,3.42-2.11l0.13,1.6c0.16,1.91,1.84,3.33,3.75,3.17
							c1.63-0.14,2.89-1.38,3.13-2.92c0.01-0.04,0.04-0.07,0.05-0.11c0,0,14.16,7.92,15.46,9.62c1.31,1.7,1.87,4.23-0.69,4.52
							c-2.56,0.29-24.09,1.37-24.54,0.59C163,318.94,161.2,307.21,162.75,305.37z"/>
					</g>
					<g>
						<path class="st10" d="M156.51,150.92l6.32,149.14h13.09l4.41-49.36l6.86-103.85C187.2,146.85,177.14,150.43,156.51,150.92z"/>
						<g>
							<polygon class="st9" points="187.2,146.85 178.14,272.06 195.66,248.49 							"/>
							<polygon class="st9" points="142.8,290.27 149.88,297.47 162.13,286.75 161.24,265.16 							"/>
						</g>
					</g>
				</g>
				<path class="st17" d="M185.53,66.12c0,0,3.69,14.8-2.49,20.13c-6.18,5.34-8.41,2.23-8.41,2.23l-0.49,1.53l-5.86,2.18
					c0,0-0.32-12.37,0.6-14.51c-1.24-4.18,0.17-11.07,7.4-6.29c0.73-4.18,5.12-7.18,5.12-7.18l-0.73,2.63L185.53,66.12z"/>
				<path class="st9" d="M185.53,66.12l-4.85,0.72l0.73-2.63c0,0-4.39,3-5.12,7.18c-7.23-4.78-8.65,2.1-7.4,6.29
					c-0.35,1.06-0.48,2.97-0.6,5.64c-9.77-6.8-9.69-17.59-9.69-17.59s-4.21-2.78,0.32-8.13c13.91-13.81,26.2-4.16,26.2-4.16
					s9.14-2.76,11.79,4.52c4.22,11.61-10.77,11.32-10.77,11.32l0,0C185.84,67.38,185.53,66.12,185.53,66.12z"/>
				<path class="st7" d="M168.22,88.56c0,0-11.03,5.37-12.97,17.44c-1.94,12.07-1.94,44.56-1.94,44.56s15.95,5.81,35.92-2.98
					c0-6.26,0.99-55.39-15.09-57.57C170.52,91.52,169.11,90.65,168.22,88.56z"/>
				<path class="st18" d="M158.83,102.49c0,0,0.18,7.14,6.94,12.73s23.18,16.4,23.18,16.4l-0.47-6.94
					C188.48,124.68,163.69,98.86,158.83,102.49z"/>
				<path class="st7" d="M160.63,106.65c0,0-6.78-10.04,4.23-12.33c11-2.29,29.45,22.94,32.27,22.58
					c2.82-0.37,19.51-23.31,19.51-23.31s4.29,0.61,6.01,3.19c-3.44,8.59-14.97,34.11-22.33,34.23
					C192.96,131.13,164.22,111.91,160.63,106.65z"/>
				<path class="st17" d="M217.04,93.59c0,0,1.32-3.31,1.07-5.52c-0.25-2.21,2.45-5.77,5.28-6.99c2.82-1.23,5.4-0.49,4.42,0.74
					c-0.98,1.23-1.96,5.05-1.96,6.76c0,1.71-3.97,7.31-3.97,7.31L217.04,93.59z"/>
				<path class="st7" d="M177.24,90.67c0,0,19.11,4.22,41.7-14.94c0.23,5.59,0,7.67,0,7.67s-11.38,16.96-33.75,21.07
					C177.98,95.92,174.79,90.37,177.24,90.67z"/>
			</g>
			<g>
				<path class="st6" d="M299.75,74.83c-3.73,0-6.76,3.03-6.76,6.76s3.03,6.76,6.76,6.76c3.73,0,6.76-3.03,6.76-6.76
					S303.49,74.83,299.75,74.83z"/>
				<path class="st6" d="M334.89,75.93c-1.81-2.36-4.27-4.2-7.03-5.27c0,0,0,0,0,0c-1.29-5.85-6.49-10.11-12.62-10.11
					c-1.87,0-3.69,0.4-5.36,1.16c0,0-0.01,0-0.01,0c-1.51-1.91-3.38-3.53-5.51-4.73c-2.82-1.6-6.03-2.45-9.3-2.45
					c-4.72,0-9.23,1.75-12.71,4.93c-2.97,2.72-4.98,6.27-5.76,10.17c0,0,0,0.01-0.01,0.01c-8.24,0.67-14.75,7.56-14.82,15.95
					c-0.07,8.95,7.35,16.28,16.3,16.28h41.47h1.56h0.8c8.91,0,16.26-7.14,16.31-16.05C338.22,82.21,337.08,78.79,334.89,75.93z
					 M315.65,83.72c0.03,0.32-0.2,0.6-0.52,0.64c-1.37,0.15-2.74,0.3-4.11,0.45c-0.25,0.87-0.59,1.69-1.02,2.46
					c0.86,1.07,1.72,2.15,2.58,3.22c0.2,0.25,0.16,0.61-0.09,0.82c-1.09,0.92-2.1,1.93-3.02,3.02c-0.21,0.25-0.57,0.29-0.82,0.09
					c-1.07-0.86-2.15-1.72-3.22-2.58c-0.77,0.43-1.6,0.77-2.46,1.02c-0.15,1.37-0.3,2.74-0.45,4.11c-0.04,0.32-0.32,0.54-0.64,0.52
					c-1.42-0.12-2.85-0.12-4.27,0c-0.32,0.03-0.6-0.2-0.64-0.52c-0.15-1.37-0.3-2.74-0.45-4.11c-0.87-0.25-1.69-0.59-2.46-1.02
					c-1.07,0.86-2.15,1.72-3.22,2.58c-0.25,0.2-0.61,0.16-0.82-0.09c-0.92-1.09-1.93-2.1-3.02-3.02c-0.25-0.21-0.29-0.57-0.09-0.82
					c0.86-1.07,1.72-2.15,2.58-3.22c-0.43-0.77-0.77-1.6-1.02-2.46c-1.37-0.15-2.74-0.3-4.11-0.45c-0.32-0.03-0.55-0.32-0.52-0.64
					c0.12-1.42,0.12-2.85,0-4.27c-0.03-0.32,0.2-0.6,0.52-0.64c1.37-0.15,2.74-0.3,4.11-0.45c0.25-0.87,0.59-1.69,1.02-2.46
					c-0.86-1.07-1.72-2.15-2.58-3.22c-0.2-0.25-0.16-0.61,0.09-0.82c1.09-0.92,2.1-1.93,3.02-3.02c0.21-0.25,0.57-0.29,0.82-0.09
					c1.07,0.86,2.15,1.72,3.22,2.58c0.77-0.43,1.6-0.77,2.46-1.02c0.15-1.37,0.3-2.74,0.45-4.11c0.04-0.32,0.32-0.54,0.64-0.52
					c1.42,0.12,2.85,0.12,4.27,0c0.32-0.03,0.6,0.2,0.64,0.52c0.15,1.37,0.3,2.74,0.45,4.11c0.87,0.25,1.69,0.59,2.47,1.02
					c1.07-0.86,2.15-1.72,3.22-2.58c0.25-0.2,0.61-0.16,0.82,0.09c0.92,1.09,1.93,2.1,3.02,3.02c0.25,0.21,0.29,0.57,0.09,0.82
					c-0.86,1.07-1.72,2.15-2.58,3.22c0.43,0.77,0.77,1.6,1.02,2.46c1.37,0.15,2.74,0.3,4.11,0.45c0.32,0.04,0.54,0.32,0.52,0.64
					C315.53,80.88,315.53,82.3,315.65,83.72z"/>
			</g>
		</g>
		<g>
			<g>
				<path class="st5" d="M336.39,159.2c0.05-0.55-0.34-1.05-0.9-1.11c-2.37-0.26-4.75-0.52-7.12-0.79c-0.43-1.5-1.02-2.93-1.77-4.27
					c1.49-1.86,2.98-3.73,4.48-5.59c0.35-0.43,0.28-1.06-0.15-1.42c-1.89-1.59-3.64-3.34-5.23-5.23c-0.36-0.43-0.98-0.5-1.42-0.15
					c-1.86,1.49-3.72,2.98-5.59,4.48c-1.34-0.74-2.77-1.34-4.27-1.77c-0.26-2.37-0.52-4.75-0.79-7.12c-0.06-0.55-0.55-0.94-1.11-0.9
					c-2.46,0.21-4.94,0.21-7.4,0c-0.55-0.05-1.05,0.34-1.11,0.9c-0.26,2.37-0.52,4.75-0.79,7.12c-1.5,0.43-2.93,1.02-4.27,1.77
					c-1.86-1.49-3.73-2.98-5.59-4.48c-0.43-0.35-1.06-0.28-1.42,0.15c-1.59,1.89-3.34,3.64-5.23,5.23c-0.42,0.36-0.5,0.98-0.15,1.42
					c1.49,1.86,2.98,3.73,4.48,5.59c-0.74,1.34-1.34,2.77-1.77,4.27c-2.37,0.26-4.75,0.52-7.12,0.79c-0.55,0.06-0.94,0.55-0.9,1.11
					c0.21,2.46,0.21,4.94,0,7.4c-0.05,0.55,0.35,1.05,0.9,1.11c2.37,0.26,4.74,0.52,7.12,0.79c0.43,1.5,1.02,2.93,1.77,4.27
					c-1.49,1.86-2.98,3.73-4.48,5.59c-0.35,0.43-0.28,1.06,0.15,1.42c1.89,1.59,3.64,3.34,5.23,5.23c0.36,0.42,0.98,0.5,1.42,0.15
					c1.86-1.49,3.73-2.98,5.59-4.48c1.34,0.74,2.77,1.34,4.27,1.77c0.26,2.37,0.52,4.75,0.79,7.12c0.06,0.55,0.55,0.94,1.11,0.9
					c2.46-0.21,4.94-0.21,7.4,0c0.55,0.05,1.04-0.34,1.11-0.9c0.26-2.37,0.52-4.75,0.79-7.12c1.5-0.43,2.93-1.02,4.27-1.77
					c1.86,1.49,3.73,2.98,5.59,4.48c0.43,0.35,1.06,0.28,1.42-0.15c1.59-1.89,3.34-3.64,5.23-5.23c0.42-0.36,0.5-0.98,0.15-1.42
					c-1.49-1.86-2.98-3.73-4.48-5.59c0.74-1.34,1.34-2.77,1.77-4.27c2.37-0.26,4.74-0.52,7.12-0.79c0.55-0.06,0.94-0.55,0.9-1.11
					C336.18,164.14,336.18,161.66,336.39,159.2z M308.83,174.62c-6.47,0-11.72-5.25-11.72-11.72c0-6.47,5.25-11.72,11.72-11.72
					c6.47,0,11.72,5.25,11.72,11.72C320.55,169.37,315.31,174.62,308.83,174.62z"/>
				<path class="st5" d="M368.7,175.43c-0.06-0.39-0.41-0.67-0.81-0.61c-1.69,0.22-3.37,0.44-5.06,0.66
					c-0.55-0.97-1.2-1.86-1.95-2.66c0.72-1.54,1.44-3.08,2.16-4.62c0.17-0.36,0.01-0.78-0.34-0.96c-1.58-0.78-3.09-1.7-4.51-2.74
					c-0.32-0.23-0.76-0.18-1.01,0.14c-1.04,1.35-2.08,2.69-3.11,4.04c-1.05-0.29-2.14-0.46-3.26-0.5c-0.58-1.6-1.16-3.2-1.75-4.8
					c-0.14-0.37-0.54-0.56-0.92-0.43c-1.67,0.56-3.38,0.98-5.12,1.25c-0.39,0.06-0.67,0.42-0.61,0.81c0.22,1.69,0.44,3.37,0.66,5.06
					c-0.97,0.55-1.86,1.2-2.66,1.95c-1.54-0.72-3.08-1.44-4.62-2.16c-0.36-0.17-0.78-0.01-0.96,0.34c-0.78,1.58-1.7,3.09-2.74,4.51
					c-0.23,0.32-0.18,0.76,0.14,1.01c1.35,1.04,2.69,2.08,4.04,3.11c-0.29,1.05-0.46,2.14-0.5,3.26c-1.6,0.58-3.2,1.16-4.8,1.74
					c-0.37,0.14-0.56,0.54-0.43,0.92c0.56,1.67,0.98,3.38,1.25,5.12c0.06,0.39,0.42,0.67,0.81,0.61c1.69-0.22,3.37-0.44,5.06-0.66
					c0.55,0.97,1.2,1.86,1.95,2.66c-0.72,1.54-1.44,3.08-2.16,4.62c-0.17,0.36-0.01,0.78,0.34,0.96c1.58,0.78,3.09,1.7,4.51,2.74
					c0.32,0.23,0.76,0.18,1.01-0.14c1.04-1.35,2.08-2.69,3.11-4.04c1.05,0.29,2.14,0.46,3.26,0.5c0.58,1.6,1.16,3.2,1.74,4.8
					c0.14,0.37,0.54,0.56,0.92,0.43c1.67-0.56,3.38-0.98,5.12-1.25c0.39-0.06,0.67-0.41,0.61-0.81c-0.22-1.69-0.44-3.37-0.66-5.06
					c0.97-0.55,1.86-1.2,2.66-1.95c1.54,0.72,3.08,1.44,4.62,2.16c0.36,0.17,0.78,0.01,0.96-0.34c0.78-1.58,1.7-3.09,2.74-4.51
					c0.23-0.32,0.18-0.76-0.14-1.01c-1.35-1.04-2.69-2.08-4.04-3.11c0.29-1.05,0.46-2.14,0.5-3.26c1.6-0.58,3.2-1.16,4.8-1.75
					c0.37-0.14,0.56-0.54,0.43-0.92C369.38,178.89,368.97,177.17,368.7,175.43z M352.22,190.76c-4.48,1.09-9-1.66-10.09-6.14
					c-1.09-4.48,1.66-9,6.14-10.09c4.48-1.09,9,1.66,10.09,6.14C359.45,185.15,356.7,189.67,352.22,190.76z"/>
			</g>
			<g>
				<path class="st5" d="M381.74,228.43H269.52c-2.21,0-4-1.79-4-4v-3.23c0-2.21,1.79-4,4-4h112.22c2.21,0,4,1.79,4,4v3.23
					C385.74,226.64,383.95,228.43,381.74,228.43z"/>
				<path class="st5" d="M269.93,219.15c-1.32,0-2.39,1.07-2.39,2.39v2.55c0,1.32,1.07,2.39,2.39,2.39h56.59v-7.33H269.93z"/>
				<path class="st3" d="M383.72,224.08v-2.55c0-1.32-1.07-2.39-2.39-2.39h-54.8v7.33h54.8
					C382.65,226.47,383.72,225.4,383.72,224.08z"/>
			</g>
		</g>
	</g>
	<path class="st5" d="M520.15,91.67l9.71-9.71c0.2-0.2,0.31-0.47,0.31-0.75l0,0c0-0.58-0.47-1.05-1.05-1.05h-18.43
		c-0.58,0-1.05-0.47-1.05-1.05V69.6c0-0.58,0.47-1.05,1.05-1.05h18.43c0.58,0,1.05-0.47,1.05-1.05l0,0c0-0.28-0.11-0.55-0.31-0.75
		l-9.71-9.71c-0.2-0.2-0.47-0.31-0.75-0.31h-13.73c-0.28,0-0.55,0.11-0.75,0.31l-7.14,7.14c-0.2,0.2-0.47,0.31-0.75,0.31h-63.75
		c-3.37,0-6.1,2.73-6.1,6.1v7.54c0,3.37,2.73,6.1,6.1,6.1h63.75c0.28,0,0.55,0.11,0.75,0.31l7.14,7.14c0.2,0.2,0.47,0.31,0.75,0.31
		h13.73C519.68,91.98,519.95,91.87,520.15,91.67z"/>
	<g>
		<path class="st2" d="M403.85,244.02l-41.91,72.58c-0.87,1.51,0.22,3.4,1.96,3.4h83.81c1.74,0,2.83-1.89,1.96-3.4l-41.91-72.58
			C406.9,242.51,404.72,242.51,403.85,244.02z"/>
		<g>
			<path class="st3" d="M405.73,315.45c-2.89,0-4.9-2.09-4.9-5.14c0-2.89,2.01-5.14,4.9-5.14c2.89,0,5.06,2.25,5.06,5.14
				C410.79,313.36,408.62,315.45,405.73,315.45z M405.65,261.02c2.17,0,4.58,0.48,4.66,2.73c0,0.8-0.08,1.93-0.24,3.13
				c-0.56,6.18-2.17,20.63-2.81,30.19h-3.13c-0.72-9.55-2.17-23.6-2.81-30.11c-0.08-1.04-0.24-2.49-0.24-3.29
				C401.08,261.58,403.41,261.02,405.65,261.02z"/>
		</g>
	</g>
	<g>
		<path class="st19" d="M446.85,122.62l0.01-0.01c0.02-2.14,1.75-3.86,3.89-3.89l0,0c-2.14-0.02-3.88-1.76-3.89-3.9l-0.01,0.01
			c-0.02,2.14-1.75,3.86-3.89,3.89l0,0C445.11,118.74,446.84,120.48,446.85,122.62z"/>
		<path class="st19" d="M446.95,125.14l-0.02,0.02c-0.04,3.74-3.06,6.76-6.8,6.8l-0.01,0.01c3.75,0.03,6.78,3.07,6.81,6.82
			l0.02-0.02c0.04-3.74,3.06-6.76,6.8-6.8l0.01-0.01C450.01,131.93,446.98,128.89,446.95,125.14z"/>
		<path class="st19" d="M444.13,123.63c-6.55-0.06-11.85-5.37-11.89-11.92l-0.04,0.04c-0.06,6.53-5.35,11.81-11.88,11.88l-0.01,0.01
			c6.55,0.06,11.85,5.37,11.89,11.92l0.04-0.04c0.07-6.53,5.35-11.81,11.88-11.88L444.13,123.63z"/>
	</g>
	<g>
		<path class="st20" d="M494.61,193.53h4.46c0.6,1.36,0.96,2.84,1.02,4.41h-5.12C494.94,196.28,494.81,194.83,494.61,193.53z
			 M492.65,187.3c2.56,1.01,4.66,2.93,5.98,5.35h-4.17C493.99,190.19,493.27,188.44,492.65,187.3z M488.92,192.65v-6.15
			c0.92,0.04,1.81,0.19,2.67,0.43c0.65,1.11,1.48,2.96,2.01,5.71H488.92z M483.24,203.23c-0.2-1.29-0.34-2.74-0.36-4.41h5.18v4.41
			H483.24z M483.24,193.53h4.82v4.41h-5.18C482.9,196.28,483.03,194.83,483.24,193.53z M485.4,186.92c0.85-0.23,1.74-0.38,2.66-0.41
			v6.14h-4.68C483.91,189.89,484.75,188.03,485.4,186.92z M478.22,192.65c1.34-2.46,3.5-4.38,6.12-5.39
			c-0.62,1.13-1.34,2.9-1.82,5.39H478.22z M482.01,197.94h-5.23c0.06-1.56,0.4-3.05,1-4.41h4.59
			C482.17,194.83,482.03,196.28,482.01,197.94z M482.38,203.23h-4.57c-0.6-1.36-0.98-2.83-1.04-4.41h5.24
			C482.04,200.48,482.18,201.93,482.38,203.23z M482.52,204.1c0.48,2.52,1.22,4.28,1.84,5.4c-2.63-1-4.79-2.93-6.13-5.4H482.52z
			 M488.06,204.1v6.15c-0.91-0.03-1.79-0.17-2.63-0.4c-0.65-1.09-1.5-2.95-2.03-5.74H488.06z M493.58,204.1
			c-0.53,2.77-1.37,4.63-2.02,5.72c-0.85,0.24-1.73,0.37-2.64,0.41v-6.13H493.58z M488.92,198.82h5.18
			c-0.02,1.66-0.16,3.11-0.36,4.41h-4.81V198.82z M494.1,197.94h-5.18v-4.41h4.82C493.94,194.83,494.08,196.28,494.1,197.94z
			 M494.96,198.82h5.11c-0.06,1.57-0.44,3.05-1.03,4.41h-4.44C494.8,201.93,494.94,200.48,494.96,198.82z M498.62,204.1
			c-1.31,2.43-3.42,4.35-5.99,5.36c0.62-1.12,1.35-2.87,1.82-5.36H498.62z"/>
	</g>
</g>
</svg>
