<?xml version="1.0" encoding="utf-8"?>
<!-- Generator: Adobe Illustrator 23.0.5, SVG Export Plug-In . SVG Version: 6.00 Build 0)  -->
<svg version="1.0" id="Layer_1" xmlns="http://www.w3.org/2000/svg" xmlns:xlink="http://www.w3.org/1999/xlink" x="0px" y="0px"
	 viewBox="0 0 624 320" style="enable-background:new 0 0 624 320;" xml:space="preserve">
<style type="text/css">
	.st0{opacity:0.3;fill:#35B24A;}
	.st1{fill:#435277;}
	.st2{fill:#F7FFF8;}
	.st3{fill:#00A26D;}
	.st4{fill:#82CEB3;}
	.st5{fill:none;stroke:#271971;stroke-width:2.7868;stroke-linecap:round;stroke-linejoin:round;stroke-miterlimit:10;}
	.st6{fill:none;stroke:#FFFFFF;stroke-width:2.048;stroke-linecap:round;stroke-linejoin:round;stroke-dasharray:6.2853,9.8765;}
	.st7{fill:#FFFFFF;}
	.st8{fill:none;stroke:#FFFFFF;stroke-width:1.7146;stroke-miterlimit:10;}
	.st9{fill:#FBFFFF;}
	.st10{fill:#E9018B;}
	.st11{opacity:0.8;fill:#E9018B;}
	.st12{opacity:0.6;fill:#E9018B;}
	.st13{opacity:0.4;fill:#E9018B;}
	.st14{opacity:0.3;fill:#E9018B;}
	.st15{opacity:0.15;fill:#E9018B;}
	.st16{fill:#FAEF04;}
	.st17{opacity:0.8;fill:#FAEF04;}
	.st18{opacity:0.6;fill:#FAEF04;}
	.st19{opacity:0.4;fill:#FAEF04;}
	.st20{opacity:0.3;fill:#FAEF04;}
	.st21{opacity:0.15;fill:#FAEF04;}
	.st22{fill:#05ACED;}
	.st23{opacity:0.8;fill:#05ACED;}
	.st24{opacity:0.6;fill:#05ACED;}
	.st25{opacity:0.4;fill:#05ACED;}
	.st26{opacity:0.3;fill:#05ACED;}
	.st27{opacity:0.15;fill:#05ACED;}
	.st28{fill:none;stroke:#271971;stroke-width:2.3491;stroke-linecap:round;stroke-linejoin:round;stroke-miterlimit:10;}
	.st29{fill:none;stroke:#009245;stroke-width:2.3491;stroke-linecap:round;stroke-linejoin:round;stroke-miterlimit:10;}
	.st30{fill:none;stroke:#009245;stroke-width:2.0679;stroke-linecap:round;stroke-linejoin:round;stroke-miterlimit:10;}
</style>
<rect y="0" class="st0" width="624" height="320"/>
<g>
	<g>
		<g>
			<g>
				<path class="st1" d="M353.77,167.79h-81.55c-4.88,0-8.83-3.96-8.83-8.83v-51.12c0-4.88,3.96-8.83,8.83-8.83h81.55
					c4.88,0,8.83,3.96,8.83,8.83v51.12C362.6,163.84,358.64,167.79,353.77,167.79z"/>
				<g>
					<path class="st2" d="M340.4,143.44h-55.17c-3.54,0-6.4-2.87-6.4-6.4V89.57c0-3.54,2.87-6.4,6.4-6.4h55.17
						c3.54,0,6.4,2.87,6.4,6.4v47.47C346.8,140.57,343.93,143.44,340.4,143.44z"/>
				</g>
				<path class="st1" d="M364.41,196.14H260.06c-4.88,0-8.83-3.96-8.83-8.83v-51.12c0-4.88,3.96-8.83,8.83-8.83h104.35
					c4.88,0,8.83,3.96,8.83,8.83v51.12C373.24,192.18,369.29,196.14,364.41,196.14z"/>
			</g>
			<g>
				<g>
					<path class="st3" d="M368.45,220.97H257.84c-8.72,0-15.79-7.07-15.79-15.79v-52.59c0-8.72,7.07-15.79,15.79-15.79h110.61
						c8.72,0,15.79,7.07,15.79,15.79v52.59C384.23,213.9,377.17,220.97,368.45,220.97z"/>
					<path class="st4" d="M384.23,147.58H242.05l0,0c0-5.95,4.83-10.78,10.78-10.78h120.62
						C379.41,136.8,384.23,141.63,384.23,147.58L384.23,147.58z"/>
				</g>
				<g>
					<g>
						<rect x="263.38" y="196.52" class="st1" width="99.22" height="24.44"/>
						<g>
							<path class="st2" d="M278.82,196.52h67.97v41.47c0,3.54-2.87,6.4-6.4,6.4h-55.17c-3.54,0-6.4-2.87-6.4-6.4V196.52z"/>
							<g>
								<line class="st5" x1="337.36" y1="229.52" x2="302.68" y2="229.52"/>
								<line class="st5" x1="337.36" y1="222.34" x2="302.68" y2="222.34"/>
								<line class="st5" x1="337.36" y1="215.16" x2="287.83" y2="215.16"/>
								<line class="st5" x1="337.36" y1="207.98" x2="287.83" y2="207.98"/>
							</g>
						</g>
						<path class="st4" d="M263.38,196.52v-3.97c0-5.1,4.13-9.24,9.24-9.24h80.75c5.1,0,9.24,4.13,9.24,9.24v3.97H263.38z"/>
					</g>
					<g>
						<g>
							<path class="st1" d="M330.31,163.93h-63.13c-2.1,0-3.8,1.7-3.8,3.8v4.39c0,2.1,1.7,3.8,3.8,3.8h63.13c2.1,0,3.8-1.7,3.8-3.8
								v-4.39C334.11,165.63,332.41,163.93,330.31,163.93z"/>
							<path class="st1" d="M358.74,163.93h-13.32c-2.1,0-3.8,1.7-3.8,3.8v4.39c0,2.1,1.7,3.8,3.8,3.8h13.32c2.1,0,3.8-1.7,3.8-3.8
								v-4.39C362.55,165.63,360.84,163.93,358.74,163.93z"/>
						</g>
						<g>
							<circle class="st4" cx="267.96" cy="156.38" r="3.86"/>
							<path class="st2" d="M283.79,156.38c0,2.13-1.73,3.86-3.86,3.86c-2.13,0-3.86-1.73-3.86-3.86c0-2.13,1.73-3.86,3.86-3.86
								C282.06,152.52,283.79,154.25,283.79,156.38z"/>
						</g>
					</g>
				</g>
			</g>
		</g>
		<g>
			<polygon class="st2" points="247.22,96.39 248.23,92.99 249.16,96.39 252.42,97.22 249.34,98.15 248.15,101.45 247.22,98.24 
				244.18,97.22 			"/>
			<polygon class="st4" points="265.48,77.32 267.01,72.19 268.41,77.32 273.35,78.59 268.68,79.99 266.88,84.99 265.48,80.12 
				260.87,78.59 			"/>
		</g>
	</g>
	<g>
		<g>
			<g>
				<g>
					<path class="st3" d="M339.06,269.75c0.02-0.27,0.05-0.54,0.09-0.81c-8.71,2.13-17.81,3.26-27.16,3.26
						c-53.42,0-98.42-36.73-111.08-86.26c-0.38,0.24-0.76,0.46-1.15,0.67c12.93,49.91,58.35,86.87,112.24,86.87
						c9.32,0,18.39-1.11,27.08-3.2C339.05,270.11,339.05,269.93,339.06,269.75z"/>
					<g>
						<polyline class="st3" points="207,189.57 199.83,185.69 197.12,193.19 						"/>
					</g>
				</g>
				<g>
					<path class="st3" d="M374.57,60.02c-18.06-11.63-39.55-18.39-62.59-18.39c-63.92,0-115.93,52-115.93,115.93
						c0,2.57,0.09,5.13,0.26,7.66c0.02-0.01,0.03-0.01,0.05-0.02c0.44-0.15,0.85-0.19,1.23-0.18c-0.16-2.47-0.25-4.96-0.25-7.46
						c0-63.21,51.43-114.64,114.64-114.64c22.66,0,43.81,6.61,61.62,18.01C373.92,60.62,374.24,60.32,374.57,60.02z"/>
					<g>
						<polyline class="st3" points="366.45,61.54 374.57,60.85 372.72,53.1 						"/>
					</g>
				</g>
				<g>
					<path class="st3" d="M389.65,71.58c-0.31,0.29-0.63,0.59-0.94,0.88c23.26,21,37.91,51.37,37.91,85.1
						c0,45.91-27.14,85.6-66.21,103.89c0,0.2,0.01,0.39,0,0.59v0.83c39.8-18.38,67.49-58.67,67.49-105.31
						C427.91,123.49,413.13,92.8,389.65,71.58z"/>
					<g>
						<polyline class="st3" points="362.24,254.6 359.92,262.41 367.81,263.51 						"/>
					</g>
				</g>
			</g>
			<g>
				<circle class="st6" cx="311.98" cy="157.56" r="138.89"/>
			</g>
		</g>
		<g>
			<g>
				<g>
					<g>
						<g>
							<g>
								<g>
									<g>
										<path class="st3" d="M205.61,278.01h-56.89c-1.63,0-2.96-1.32-2.96-2.96v-53.67h59.84V278.01z"/>
									</g>
								</g>
							</g>
						</g>
					</g>
				</g>
				<g>
					<polygon class="st7" points="166.47,248.42 181.73,243.04 175.57,257.71 173.63,250.37 					"/>
					<rect x="161.59" y="235.6" class="st8" width="27.92" height="27.92"/>
					<rect x="159.01" y="233.02" class="st7" width="5.72" height="5.72"/>
					<rect x="186.65" y="233.02" class="st7" width="5.72" height="5.72"/>
					<rect x="159.01" y="260.65" class="st7" width="5.72" height="5.72"/>
					<rect x="186.65" y="260.65" class="st7" width="5.72" height="5.72"/>
				</g>
			</g>
			<g>
				<g>
					<path class="st9" d="M184.86,121.88l-14.89,1.8c-2.71,0.33-5.17-1.6-5.5-4.31l-7.21-59.67c-0.33-2.71,1.6-5.17,4.31-5.5
						l14.89-1.8c2.71-0.33,5.17,1.6,5.5,4.31l7.21,59.67C189.5,119.09,187.57,121.55,184.86,121.88z"/>
					
						<rect x="161.03" y="59.05" transform="matrix(0.9928 -0.1199 0.1199 0.9928 -6.2953 20.8704)" class="st10" width="18.4" height="7.36"/>
					
						<rect x="162.13" y="68.16" transform="matrix(0.9928 -0.1199 0.1199 0.9928 -7.3793 21.0679)" class="st11" width="18.4" height="7.36"/>
					
						<rect x="163.23" y="77.26" transform="matrix(0.9928 -0.1199 0.1199 0.9928 -8.4633 21.2656)" class="st12" width="18.4" height="7.36"/>
					
						<rect x="164.33" y="86.37" transform="matrix(0.9928 -0.1199 0.1199 0.9928 -9.5473 21.4632)" class="st13" width="18.4" height="7.36"/>
					
						<rect x="165.43" y="95.47" transform="matrix(0.9928 -0.1199 0.1199 0.9928 -10.6313 21.6609)" class="st14" width="18.4" height="7.36"/>
					
						<rect x="166.53" y="104.57" transform="matrix(0.9928 -0.1199 0.1199 0.9928 -11.7153 21.8585)" class="st15" width="18.4" height="7.36"/>
				</g>
				<g>
					<path class="st9" d="M185.98,122.14l-13.55,6.42c-2.47,1.17-5.41,0.12-6.58-2.35L140.11,71.9c-1.17-2.47-0.12-5.41,2.35-6.58
						l13.55-6.42c2.47-1.17,5.41-0.12,6.58,2.35l25.74,54.31C189.5,118.02,188.45,120.97,185.98,122.14z"/>
					
						<rect x="144.17" y="67" transform="matrix(0.9036 -0.4283 0.4283 0.9036 -15.4912 72.5017)" class="st16" width="18.4" height="7.36"/>
					
						<rect x="148.1" y="75.28" transform="matrix(0.9036 -0.4283 0.4283 0.9036 -18.662 74.9821)" class="st17" width="18.4" height="7.36"/>
					
						<rect x="152.02" y="83.57" transform="matrix(0.9036 -0.4283 0.4283 0.9036 -21.8327 77.4631)" class="st18" width="18.4" height="7.36"/>
					
						<rect x="155.95" y="91.86" transform="matrix(0.9036 -0.4283 0.4283 0.9036 -25.0035 79.9446)" class="st19" width="18.4" height="7.36"/>
					
						<rect x="159.88" y="100.14" transform="matrix(0.9036 -0.4283 0.4283 0.9036 -28.1743 82.4253)" class="st20" width="18.4" height="7.36"/>
					
						<rect x="163.81" y="108.43" transform="matrix(0.9036 -0.4283 0.4283 0.9036 -31.345 84.9059)" class="st21" width="18.4" height="7.36"/>
				</g>
				<g>
					<path class="st9" d="M187.53,121.81l-9.8,11.35c-1.78,2.06-4.9,2.29-6.97,0.51l-45.48-39.28c-2.06-1.78-2.29-4.9-0.51-6.97
						l9.8-11.35c1.78-2.06,4.9-2.29,6.97-0.51l45.48,39.28C189.09,116.63,189.32,119.75,187.53,121.81z"/>
					
						<rect x="127.71" y="84.23" transform="matrix(0.6536 -0.7568 0.7568 0.6536 -19.1058 134.0699)" class="st22" width="18.4" height="7.36"/>
					
						<rect x="134.65" y="90.22" transform="matrix(0.6536 -0.7568 0.7568 0.6536 -21.238 141.3987)" class="st23" width="18.4" height="7.36"/>
					
						<rect x="141.59" y="96.22" transform="matrix(0.6536 -0.7568 0.7568 0.6536 -23.3702 148.7281)" class="st24" width="18.4" height="7.36"/>
					
						<rect x="148.54" y="102.21" transform="matrix(0.6536 -0.7568 0.7568 0.6536 -25.5025 156.057)" class="st25" width="18.4" height="7.36"/>
					
						<rect x="155.48" y="108.2" transform="matrix(0.6536 -0.7568 0.7568 0.6536 -27.6349 163.3854)" class="st26" width="18.4" height="7.36"/>
					
						<rect x="162.42" y="114.2" transform="matrix(0.6536 -0.7568 0.7568 0.6536 -29.7671 170.7144)" class="st27" width="18.4" height="7.36"/>
				</g>
			</g>
			<g>
				<rect x="437.32" y="202.06" class="st1" width="48.77" height="63.37"/>
				<g>
					<rect x="427.11" y="210.44" class="st2" width="48.77" height="63.37"/>
					<g>
						<path class="st4" d="M439.73,230.4L439.73,230.4c-3.03,0-5.49-2.46-5.49-5.49l0,0c0-3.03,2.46-5.49,5.49-5.49l0,0
							c3.03,0,5.49,2.46,5.49,5.49l0,0C445.21,227.94,442.76,230.4,439.73,230.4z"/>
						<line class="st28" x1="449.43" y1="220.51" x2="467.71" y2="220.51"/>
						<line class="st28" x1="449.43" y1="224.91" x2="467.71" y2="224.91"/>
						<line class="st28" x1="449.43" y1="229.31" x2="467.71" y2="229.31"/>
						<line class="st29" x1="434.24" y1="236.58" x2="467.71" y2="236.58"/>
						<line class="st29" x1="434.24" y1="242" x2="467.71" y2="242"/>
						<line class="st29" x1="434.24" y1="247.42" x2="467.71" y2="247.42"/>
						<line class="st29" x1="434.24" y1="252.83" x2="448.5" y2="252.83"/>
						<line class="st29" x1="434.24" y1="258.25" x2="467.71" y2="258.25"/>
						<line class="st29" x1="434.24" y1="263.66" x2="448.5" y2="263.66"/>
					</g>
				</g>
			</g>
			<g>
				<g>
					<g>
						
							<ellipse transform="matrix(0.2251 -0.9743 0.9743 0.2251 261.426 529.363)" class="st2" cx="463.5" cy="100.33" rx="31.93" ry="31.93"/>
					</g>
				</g>
				<g>
					
						<ellipse transform="matrix(0.7071 -0.7071 0.7071 0.7071 70.3751 354.9523)" class="st22" cx="463.65" cy="92.53" rx="10.66" ry="10.66"/>
					<circle class="st10" cx="456.62" cy="104.49" r="10.66"/>
					<circle class="st16" cx="471.77" cy="104.49" r="10.66"/>
				</g>
			</g>
			<g>
				<g>
					<g>
						<g>
							<path class="st4" d="M353.31,62.46l-79.13-0.14c-3-0.01-5.42-2.44-5.42-5.44l0,0l89.98,0.16l0,0
								C358.74,60.04,356.31,62.47,353.31,62.46z"/>
							<path class="st1" d="M353.32,60.6l-79.13-0.14c-2.34,0-4.32-1.49-5.08-3.57l-0.34,0c-0.01,3,2.42,5.43,5.42,5.44l79.13,0.14
								c3,0.01,5.43-2.42,5.44-5.42l-0.34,0C357.65,59.12,355.66,60.6,353.32,60.6z"/>
							<path class="st1" d="M318.87,58.79l-10.22-0.02c-1,0-1.82-0.82-1.81-1.82l0,0l13.86,0.02l0,0
								C320.69,57.98,319.87,58.79,318.87,58.79z"/>
						</g>
						<g>
							<path class="st1" d="M350.98,57.03l-74.45-0.13l0.08-42.24c0-2.58,2.1-4.66,4.68-4.66l65.11,0.12c2.58,0,4.66,2.1,4.66,4.68
								L350.98,57.03z"/>
							<rect x="281.61" y="15.01" class="st2" width="64.29" height="38.9"/>
							<circle class="st2" cx="313.76" cy="12.52" r="0.96"/>
						</g>
					</g>
					<g>
						<path class="st30" d="M322.55,30.65c0.43,1.15,0.67,2.39,0.67,3.69c0,5.8-4.7,10.49-10.49,10.49c-5.8,0-10.49-4.7-10.49-10.49
							c0-5.8,4.7-10.49,10.49-10.49c1.85,0,3.6,0.48,5.11,1.32"/>
						<polyline class="st30" points="309.77,30.66 313.57,34.55 322.35,25.18 						"/>
					</g>
				</g>
				<g>
					<g>
						<path class="st1" d="M409.7,49.24h-30.33V33.8c0-3.2,2.6-5.8,5.8-5.8h24.53c2.42,0,4.38,1.96,4.38,4.38v12.47
							C414.09,47.27,412.12,49.24,409.7,49.24z"/>
						<polygon class="st1" points="379.37,45.43 379.37,54.96 386.37,45.43 						"/>
					</g>
					<g>
						<polygon class="st2" points="399.01,42.04 392.99,36.14 401.58,33.69 						"/>
						<polygon class="st2" points="393.73,43.25 391.91,41.43 396.45,36.81 398.2,38.76 						"/>
					</g>
				</g>
			</g>
			<g>
				
					<ellipse transform="matrix(0.7071 -0.7071 0.7071 0.7071 -116.9167 306.1653)" class="st1" cx="311.12" cy="294.21" rx="15.79" ry="15.79"/>
				<g>
					<path class="st2" d="M311.12,300.79c-3.63,0-6.58-2.95-6.58-6.58c0-3.63,2.95-6.58,6.58-6.58c3.63,0,6.58,2.95,6.58,6.58
						C317.69,297.84,314.74,300.79,311.12,300.79z M311.12,288.4c-3.21,0-5.81,2.61-5.81,5.81c0,3.21,2.61,5.81,5.81,5.81
						c3.21,0,5.81-2.61,5.81-5.81C316.93,291.01,314.32,288.4,311.12,288.4z"/>
					<g>
						<path class="st2" d="M311.12,302.64c-0.21,0-0.38-0.17-0.38-0.38v-16.1c0-0.21,0.17-0.38,0.38-0.38
							c0.21,0,0.38,0.17,0.38,0.38v16.1C311.5,302.47,311.33,302.64,311.12,302.64z"/>
						<path class="st2" d="M319.16,294.6h-16.1c-0.21,0-0.38-0.17-0.38-0.38c0-0.21,0.17-0.38,0.38-0.38h16.1
							c0.21,0,0.38,0.17,0.38,0.38C319.55,294.43,319.37,294.6,319.16,294.6z"/>
					</g>
				</g>
			</g>
		</g>
	</g>
</g>
</svg>
