<?xml version="1.0" encoding="utf-8"?>
<!-- Generator: Adobe Illustrator 23.0.5, SVG Export Plug-In . SVG Version: 6.00 Build 0)  -->
<svg version="1.0" id="Layer_1" xmlns="http://www.w3.org/2000/svg" xmlns:xlink="http://www.w3.org/1999/xlink" x="0px" y="0px"
	 viewBox="0 0 624 320" style="enable-background:new 0 0 624 320;" xml:space="preserve">
<style type="text/css">
	.st0{opacity:0.3;fill:#35B24A;}
	.st1{fill:#82B378;}
	.st2{fill:#A8D29F;}
	.st3{opacity:0.2;}
	.st4{fill:#FFFFFF;}
	.st5{opacity:0.1;}
	.st6{fill:#515151;}
	.st7{fill:#A9D1FF;}
	.st8{fill:#2C3A64;}
	.st9{fill:#FF8400;}
	.st10{opacity:0.6;fill:#8BE8FF;}
	.st11{opacity:0.3;}
	.st12{fill:#FFA679;}
	.st13{fill:#AE66FF;}
	.st14{fill:#F99746;}
	.st15{fill:#015E3A;}
	.st16{fill:#023A23;}
	.st17{fill:#ED7D2B;}
	.st18{fill:#3FDAFF;}
	.st19{fill:url(#SVGID_1_);}
	.st20{fill:#383838;}
	.st21{fill:url(#SVGID_2_);}
	.st22{fill:url(#SVGID_3_);}
	.st23{fill:#391CFF;}
	.st24{fill:#6D1800;}
	.st25{fill:#8E2200;}
	.st26{fill:#00A26D;}
	.st27{fill:url(#SVGID_4_);}
	.st28{fill:url(#SVGID_5_);}
	.st29{fill:url(#SVGID_6_);}
</style>
<rect y="0" class="st0" width="624" height="320"/>
<g>
	<g>
		<g>
			<path class="st1" d="M402.45,290.53c0,0-10.27-11.98-0.63-19.59c0,0,7.04-4.26,12.77-3.91c0,0-8.13,13.63-5.5,14.99
				s7.96-15.84,7.96-15.84s16.01-1.55,21.16,0.92c0,0-13.69,11.2-10.81,11.87c2.88,0.67,17.67-10.33,17.67-10.33
				s14.9,2.54,14.11,11.63c-0.79,9.09-5.93,11.9-8.19,11.66c-2.26-0.24-15.46-5.28-15.75-3.43c-0.29,1.85,7.66,7.89,13.23,8.18
				c0,0-10.51,11.59-17.49,8.24c-6.98-3.34-7.58-8.65-11.93-10.63s-8.07-1.98-6.27,0.04c1.8,2.03,9.68,4,12.16,8.4
				c2.49,4.4,4.72,7.37-2.5,6.29c-7.22-1.09-18.97-6.37-19.48-12.43C402.45,290.53,402.45,290.53,402.45,290.53z"/>
			<g>
				<path class="st1" d="M451.87,280.52c0,0-40.48-1.56-49.42,10.02c0,0-1.98,5.92-8.06,11.31l-0.95,2.58c0,0,7.01-7.4,9.52-7.84
					C402.96,296.59,399.04,282.24,451.87,280.52z"/>
				<path class="st1" d="M394.39,301.84c0,0-8.69,6.43-9.29,17.91l1.58,0.14c0,0,2.77-11.87,7.79-16.51
					C399.48,298.74,394.39,301.84,394.39,301.84z"/>
			</g>
		</g>
		<g>
			<path class="st2" d="M392.53,262.86c0,0-21.53-12.06-11.48-28.42c0,0,8.04-10.05,16.65-12.63c0,0-4.59,24.4,0,24.97
				c4.59,0.57,3.16-27.56,3.16-27.56s22.68-10.91,31.57-10.05c0,0-14.06,23.82-9.47,23.25c4.59-0.57,20.38-24.69,20.38-24.69
				s23.25-4.31,26.98,9.47c3.73,13.78-2.3,20.67-5.74,21.53c-3.44,0.86-25.55,0.57-24.97,3.44c0.57,2.87,15.5,7.46,23.82,4.88
				c0,0-9.19,22.68-21.24,21.53c-12.06-1.15-15.79-8.61-23.25-9.19c-7.46-0.57-12.92,1.44-9.19,3.44
				c3.73,2.01,16.36,0.66,22.39,5.78c6.03,5.12,10.91,8.28-0.29,10.58c-11.19,2.3-31.29,0.86-35.31-7.75
				C392.53,262.86,392.53,262.86,392.53,262.86z"/>
			<g>
				<path class="st1" d="M459.7,221.52c0,0-60.28,19.52-67.17,41.33c0,0,0.29,9.76-5.74,20.95v4.31c0,0,6.31-14.64,9.76-16.65
					C396.55,271.47,383.06,252.52,459.7,221.52z"/>
				<path class="st1" d="M386.79,283.81c0,0-9.3,14.12-4,31.3l2.39-0.64c0,0-2.32-18.93,2.54-28.45
					C392.59,276.5,386.79,283.81,386.79,283.81z"/>
			</g>
		</g>
	</g>
	<g>
		<path class="st2" d="M250.02,150.33c0,0,15.7-8.79,8.38-20.73c0,0-5.86-7.33-12.14-9.21c0,0,3.35,17.8,0,18.22
			c-3.35,0.42-2.3-20.1-2.3-20.1s-16.54-7.96-23.03-7.33c0,0,10.26,17.38,6.91,16.96c-3.35-0.42-14.87-18.01-14.87-18.01
			s-16.96-3.14-19.68,6.91c-2.72,10.05,1.68,15.08,4.19,15.7c2.51,0.63,18.64,0.42,18.22,2.51c-0.42,2.09-11.31,5.44-17.38,3.56
			c0,0,6.7,16.54,15.49,15.7c8.79-0.84,11.52-6.28,16.96-6.7c5.44-0.42,9.42,1.05,6.7,2.51c-2.72,1.47-11.94,0.48-16.33,4.22
			c-4.4,3.74-7.96,6.04,0.21,7.72c8.17,1.67,22.82,0.63,25.75-5.65C250.02,150.33,250.02,150.33,250.02,150.33z"/>
		<g>
			<path class="st1" d="M201.03,120.18c0,0,43.97,14.24,49,30.15c0,0-0.21,7.12,4.19,15.29v3.14c0,0-4.61-10.68-7.12-12.14
				C247.09,156.61,256.93,142.79,201.03,120.18z"/>
			<path class="st1" d="M254.21,165.62c0,0,6.78,10.3,2.92,22.83l-1.74-0.47c0,0,1.69-13.81-1.85-20.75
				C249.98,160.28,254.21,165.62,254.21,165.62z"/>
		</g>
	</g>
	<path class="st3" d="M229.69,191.44c-0.7-0.47-1.43-0.92-2.14-1.38c-1.15,5.77,0.03,11.89,0.48,17.83
		c0.51,6.77-0.39,14.47-5.69,18.7c-3.63,2.9-8.72,3.63-12.46,6.25c16.68,9.5,37.26,15.64,56.4,16.86
		c0.71-5.95,0.81-11.95,0.49-17.96C257.72,215.7,244.97,201.73,229.69,191.44z"/>
	<g>
		<path class="st4" d="M215.28,20h131.91h10.36h22.03c-12.17,0-22.03,9.86-22.03,22.03v19.19h-32.39H193.24V42.03
			C193.24,29.86,203.11,20,215.28,20z"/>
		<path class="st5" d="M215.28,20h131.91h10.36h22.03c-12.17,0-22.03,9.86-22.03,22.03v19.19h-32.39H193.24V42.03
			C193.24,29.86,203.11,20,215.28,20z"/>
		<path class="st5" d="M230.89,42.03v19.19h94.27h32.39V42.03c0-11.08,8.17-20.24,18.82-21.8c-1.05-0.15-2.12-0.24-3.21-0.24h-15.61
			h-10.36H241.24h-10.36h-15.61c-1.09,0-2.16,0.08-3.21,0.24C222.71,21.79,230.89,30.96,230.89,42.03z"/>
		<path class="st6" d="M392.57,319.89H253.98c-10.14,0-18.36-8.22-18.36-18.36V97.41c0-10.14,8.22-18.36,18.36-18.36h138.59
			c10.14,0,18.36,8.22,18.36,18.36v204.12C410.93,311.67,402.71,319.89,392.57,319.89z"/>
		<path class="st4" d="M383.39,20H251.48h-10.36h-22.03c12.17,0,22.03,9.86,22.03,22.03v52.14v53.91v156.7
			c0,5.3,4.31,9.61,9.61,9.61h145.07c5.3,0,9.61-4.31,9.61-9.61v-156.7V94.17V42.03C405.43,29.86,395.56,20,383.39,20z"/>
	</g>
	<g>
		<path class="st7" d="M375.86,123.08h-105.9c-2.25,0-4.07-1.82-4.07-4.07l0,0c0-2.25,1.82-4.07,4.07-4.07h105.9
			c2.25,0,4.07,1.82,4.07,4.07l0,0C379.93,121.25,378.11,123.08,375.86,123.08z"/>
		<path class="st7" d="M375.86,140.16h-105.9c-2.25,0-4.07-1.82-4.07-4.07l0,0c0-2.25,1.82-4.07,4.07-4.07h105.9
			c2.25,0,4.07,1.82,4.07,4.07l0,0C379.93,138.33,378.11,140.16,375.86,140.16z"/>
		<path class="st7" d="M375.86,157.24h-105.9c-2.25,0-4.07-1.82-4.07-4.07l0,0c0-2.25,1.82-4.07,4.07-4.07h105.9
			c2.25,0,4.07,1.82,4.07,4.07l0,0C379.93,155.41,378.11,157.24,375.86,157.24z"/>
		<path class="st7" d="M375.86,174.32h-105.9c-2.25,0-4.07-1.82-4.07-4.07l0,0c0-2.25,1.82-4.07,4.07-4.07h105.9
			c2.25,0,4.07,1.82,4.07,4.07l0,0C379.93,172.49,378.11,174.32,375.86,174.32z"/>
		<path class="st7" d="M375.86,191.4h-105.9c-2.25,0-4.07-1.82-4.07-4.07l0,0c0-2.25,1.82-4.07,4.07-4.07h105.9
			c2.25,0,4.07,1.82,4.07,4.07v0C379.93,189.57,378.11,191.4,375.86,191.4z"/>
		<path class="st7" d="M375.86,208.48h-105.9c-2.25,0-4.07-1.82-4.07-4.07l0,0c0-2.25,1.82-4.07,4.07-4.07h105.9
			c2.25,0,4.07,1.82,4.07,4.07l0,0C379.93,206.65,378.11,208.48,375.86,208.48z"/>
		<path class="st7" d="M375.86,225.56h-105.9c-2.25,0-4.07-1.82-4.07-4.07l0,0c0-2.25,1.82-4.07,4.07-4.07h105.9
			c2.25,0,4.07,1.82,4.07,4.07l0,0C379.93,223.73,378.11,225.56,375.86,225.56z"/>
		<path class="st7" d="M375.86,242.64h-105.9c-2.25,0-4.07-1.82-4.07-4.07l0,0c0-2.25,1.82-4.07,4.07-4.07h105.9
			c2.25,0,4.07,1.82,4.07,4.07l0,0C379.93,240.81,378.11,242.64,375.86,242.64z"/>
		<path class="st7" d="M375.86,259.72h-105.9c-2.25,0-4.07-1.82-4.07-4.07l0,0c0-2.25,1.82-4.07,4.07-4.07h105.9
			c2.25,0,4.07,1.82,4.07,4.07l0,0C379.93,257.89,378.11,259.72,375.86,259.72z"/>
		<path class="st7" d="M375.86,276.8h-105.9c-2.25,0-4.07-1.82-4.07-4.07l0,0c0-2.25,1.82-4.07,4.07-4.07h105.9
			c2.25,0,4.07,1.82,4.07,4.07l0,0C379.93,274.97,378.11,276.8,375.86,276.8z"/>
	</g>
	<path class="st3" d="M354.55,308.51H292c-1.34,0-2.43-1.09-2.43-2.43l0,0c0-1.34,1.09-2.43,2.43-2.43h62.55
		c1.34,0,2.43,1.09,2.43,2.43l0,0C356.98,307.42,355.89,308.51,354.55,308.51z"/>
	<g>
		
			<rect x="202.41" y="211.08" transform="matrix(0.7071 0.7071 -0.7071 0.7071 236.576 -77.2436)" class="st8" width="18.23" height="71.73"/>
		<path class="st3" d="M241.09,228.69c-3.67-3.67-6.71-7.73-9.14-12.04l-1.5-1.5l-9.28,9.28c2.88,4.85,6.41,9.43,10.58,13.61
			c0.27,0.27,0.55,0.52,0.82,0.78l9.34-9.34C241.64,229.2,241.36,228.95,241.09,228.69z"/>
		<path class="st9" d="M148.31,316.08l-5.91-5.91c-4.18-4.18-4.18-10.96,0-15.14l56.09-56.09c4.18-4.18,10.96-4.18,15.14,0
			l5.91,5.91c4.18,4.18,4.18,10.96,0,15.14l-56.09,56.09C159.27,320.26,152.49,320.26,148.31,316.08z"/>
		<path class="st3" d="M220.88,246.18l-6.58-6.58c3.44,3.44,3.44,9.03,0,12.47l-58.76,58.76c-3.44,3.44-9.03,3.44-12.47,0l6.58,6.58
			c3.44,3.44,9.03,3.44,12.47,0l58.76-58.76C224.32,255.21,224.32,249.63,220.88,246.18z"/>
		<path class="st8" d="M328.19,130.29c-26.96-26.96-70.66-26.96-97.62,0c-26.96,26.96-26.96,70.66,0,97.62
			c26.96,26.96,70.66,26.96,97.62,0C355.15,200.95,355.15,157.24,328.19,130.29z M239.91,218.56c-21.8-21.8-21.8-57.14,0-78.94
			c21.8-21.8,57.14-21.8,78.94,0c21.8,21.8,21.8,57.14,0,78.94C297.05,240.36,261.71,240.36,239.91,218.56z"/>
		<path class="st3" d="M321.88,136.6c-23.47-23.47-61.52-23.47-84.99,0c-23.47,23.47-23.47,61.52,0,84.99s61.52,23.47,84.99,0
			C345.34,198.12,345.34,160.07,321.88,136.6z M239.91,218.56c-21.8-21.8-21.8-57.14,0-78.94c21.8-21.8,57.14-21.8,78.94,0
			c21.8,21.8,21.8,57.14,0,78.94C297.05,240.36,261.71,240.36,239.91,218.56z"/>
		
			<ellipse transform="matrix(0.2266 -0.974 0.974 0.2266 41.6289 410.6199)" class="st10" cx="279.38" cy="179.1" rx="55.82" ry="55.82"/>
		<path class="st5" d="M279.38,123.28c-17.25,0-32.67,7.83-42.91,20.13c9.68-8.06,22.11-12.91,35.69-12.91
			c30.83,0,55.82,24.99,55.82,55.82c0,13.57-4.85,26.01-12.91,35.69c12.3-10.24,20.13-25.66,20.13-42.91
			C335.2,148.27,310.21,123.28,279.38,123.28z"/>
		<g class="st11">
			<path class="st4" d="M244.46,135.57c-8.51,6.84-14.99,16.12-18.33,26.79l70,70c10.67-3.35,19.95-9.82,26.79-18.33L244.46,135.57z
				"/>
			<path class="st4" d="M266.7,124.74c-5.74,1.34-11.15,3.54-16.06,6.5l76.59,76.59c2.96-4.91,5.17-10.32,6.5-16.06L266.7,124.74z"
				/>
		</g>
	</g>
	<g>
		<path class="st12" d="M444.95,115.46c-0.52-0.73-0.55-1.7-0.42-2.59c0.13-0.89,0.39-1.77,0.37-2.66
			c-0.02-0.81-0.27-1.61-0.71-2.29c-0.31-0.46-0.72-0.88-1.25-1.05c-0.53-0.17-1.18-0.05-1.51,0.39c-0.5-1.34-1.51-2.81-2.81-3.39
			c-1.3-0.58-3.01-0.35-3.91,0.75c-0.83,1-0.85,2.44-0.68,3.73c0.55,4.14,2.68,8.06,5.87,10.76
			C441.57,117.65,442.98,116.51,444.95,115.46z"/>
		<path class="st13" d="M473.34,118.63c-6.48,6.36-12.23,13.46-17.08,21.14c-2.68-8.61-6.06-17.83-10.39-25.73
			c-3.24,0.67-6.46,2.58-8.78,4.94c2.53,8.14,5.45,16.87,7.98,25.01c0.83,2.68,1.74,5.48,3.76,7.42c2.64,2.53,6.71,3.05,10.27,2.24
			c3.56-0.81,6.74-2.75,9.85-4.67C478.29,143.21,477.66,128.72,473.34,118.63z"/>
		<path class="st14" d="M473.34,118.63c-6.48,6.36-12.23,13.46-17.08,21.14c-2.68-8.61-6.06-17.83-10.39-25.73
			c-3.24,0.67-6.46,2.58-8.78,4.94c2.53,8.14,5.45,16.87,7.98,25.01c0.83,2.68,1.74,5.48,3.76,7.42c2.64,2.53,6.71,3.05,10.27,2.24
			c3.56-0.81,6.74-2.75,9.85-4.67C478.29,143.21,477.66,128.72,473.34,118.63z"/>
		<path class="st8" d="M500.82,310.25c0.12,1.16-0.36,2.31-0.97,3.3c-0.62,0.99-1.38,1.89-1.95,2.91c-0.57,1.02-0.92,2.23-0.63,3.36
			h13.38c0.13-3.23-0.57-6.41-1.48-9.51C506.41,309.39,503.59,309.4,500.82,310.25z"/>
		<path class="st8" d="M479.08,310.38c0.14,1.24-0.7,2.43-1.77,3.07c-1.08,0.64-2.35,0.83-3.59,0.98c-1.24,0.16-2.51,0.3-3.63,0.86
			c-1.7,0.85-2.87,2.69-2.91,4.6h19.74c0.63-3.2,0.47-6.47-0.39-9.61C484.19,310.1,481.42,310.24,479.08,310.38z"/>
		<path class="st15" d="M488.65,312.23c-1.07-42.95,0.19-85.17,3.24-128.05c-6.95-0.19-13.54,0.93-20.34,2.32
			c-1.83,0.37-3.75,0.21-5.15-1.03c3.82,42.25,7.64,84.5,11.46,126.76H488.65z"/>
		<path class="st15" d="M509.98,312.23c0.4-42.53,0.81-85.05,1.21-127.58c-1.29,1.35-3.2,1.67-5.05,1.44
			c-6.9-0.84-13.56-1.43-20.47-0.68c6.47,42.3,11.11,84.11,13.51,126.81H509.98z"/>
		<path class="st16" d="M511.05,199.6c0.05-4.98,0.09-9.97,0.14-14.95c-1.29,1.35-3.2,1.67-5.05,1.44
			c-4.83-0.59-9.55-1.04-14.32-1.01c0.02-0.3,0.04-0.6,0.06-0.9c-6.95-0.19-13.54,0.93-20.34,2.32c-1.83,0.37-3.75,0.21-5.15-1.03
			c0.15,1.65,0.3,3.3,0.45,4.95C479.91,198.47,495.86,201.71,511.05,199.6z"/>
		<path class="st14" d="M482.21,112.76c-7.92,2.26-13.75,8.14-16.8,14.6c-3.04,6.47-3.65,13.53-3.86,20.47
			c-0.43,13.91,0.58,27.86,3.01,41.63c15.71,2.14,33.3,1.76,48.72-1.49c-4.38-20.77,4.86-38.87-0.07-60.45
			C510.82,117.02,493.93,109.41,482.21,112.76z"/>
		<path class="st17" d="M513.21,127.51c-0.13-0.55-0.3-1.09-0.5-1.62c-1.13-1.51-2.32-2.99-3.53-4.44c-1.64-1.95-4.9-0.82-4.85,1.73
			c0.02,0.83,0.13,1.66,0.33,2.46c0.64-0.96,2.28-0.93,2.7,0.4c0.25,0.78,0.33,1.75,0.24,2.77c0.15,0.73,0.36,1.45,0.63,2.15
			c-0.01-0.07-0.02-0.14-0.02-0.21c-0.05-0.65,0.27-1.08,0.71-1.29c0.65-0.96,2.56-0.97,2.75,0.39c0.35,2.56,0.82,5.09,1.33,7.62
			c0.13,0.64-0.09,1.14-0.46,1.47c0.07,0.75,0.13,1.5,0.18,2.25c0.1,1.68-2.51,2.03-2.94,0.46c-0.39,0.69-0.98,1.26-1.73,1.5
			c-1.62,0.53-3.31-0.51-4.56-1.67c-2.3-2.14-4.01-4.73-4.98-7.72c-0.36,0.02-0.73,0.07-1.09,0.14c-0.02-0.46-0.11-0.91-0.22-1.36
			c-0.83-0.55-1.61-1.11-2.24-1.57c-2.26-1.64-3.74-3.64-4.58-6.29c-0.01-0.03-0.01-0.05-0.01-0.07c-0.14,0.09-0.28,0.2-0.4,0.32
			c-0.55,0.56-0.85,1.3-1.14,2.03c-0.55,1.4-1.11,2.96-0.57,4.37c0.38,0.99,1.25,1.7,1.97,2.49c0.79,0.86,1.41,1.87,1.87,2.94
			c-0.25,0.27-0.49,0.55-0.71,0.85c3.13,8.96,6.51,18.31,13.51,24.73c1.56,1.43,3.4,2.74,5.51,2.87c0.79,0.05,1.55-0.09,2.28-0.33
			C513.91,152.78,516.25,140.81,513.21,127.51z"/>
		<path class="st12" d="M497.41,134.93c0.3-1.95-0.4-4.03-1.81-5.4c-1.38-1.34-2.45-2.97-3.76-4.38c-0.37-0.4-0.77-0.81-1.3-0.95
			c-0.76-0.2-1.56,0.26-2.01,0.89c-0.45,0.64-0.63,1.42-0.79,2.19c-0.32,1.47-0.61,3.11,0.15,4.4c0.54,0.92,1.51,1.48,2.35,2.14
			c1.4,1.1,2.5,2.57,3.18,4.21C495.11,137.76,497.14,136.64,497.41,134.93z"/>
		<path class="st14" d="M502.41,121.03c-0.46-2.51,2.57-4.16,4.51-2.5c4.99,4.29,9.71,8.91,12.97,14.58
			c4.08,7.11,5.49,16.3,1.54,23.48c-1.32,2.4-3.45,4.63-6.17,4.91c-2.1,0.21-4.14-0.78-5.91-1.93c-7.95-5.19-12.8-13.87-17.35-22.2
			c1.26-2.49,3.68-4.31,6.4-4.95c1.45,2.79,3.55,5.07,6.17,6.81c1.42,0.94,3.26,1.69,4.77,0.9c1.08-0.56,1.68-1.82,1.72-3.04
			c0.04-1.22-0.4-2.4-0.96-3.49c-1.58-3.06-4.13-5.51-6.01-8.4C503.26,123.95,502.68,122.51,502.41,121.03z"/>
		<path class="st17" d="M444.12,98.2c-2.76,1.92-3.97,4.93-2.72,6.73c1.25,1.8,4.5,1.71,7.26-0.21c2.76-1.92,3.97-4.93,2.72-6.73
			C450.13,96.18,446.88,96.28,444.12,98.2z"/>
		<path class="st18" d="M444.81,99.18c-1.92,1.34-2.77,3.44-1.9,4.7c0.87,1.26,3.14,1.19,5.06-0.15s2.77-3.44,1.9-4.7
			C449,97.78,446.73,97.85,444.81,99.18z"/>
		<path class="st17" d="M434.98,109.4L434.98,109.4c0.29,0.42,0.87,0.52,1.28,0.23l6.41-4.46c0.42-0.29,0.52-0.87,0.23-1.28l0,0
			c-0.29-0.42-0.87-0.52-1.28-0.23l-6.41,4.46C434.8,108.4,434.69,108.98,434.98,109.4z"/>
		<path class="st12" d="M434.69,104.61c0.91-1.1,2.61-1.33,3.91-0.75c1.23,0.54,2.2,1.89,2.72,3.17c-0.06,0.41-0.24,0.75-0.59,0.97
			c-0.61,0.39-1.51,0.21-2.04,0.7c-0.5,0.47-0.49,1.4-1.12,1.69c-0.47,0.22-1.03-0.08-1.34-0.48c-0.32-0.4-0.49-0.91-0.78-1.33
			c-0.38-0.55-0.95-0.91-1.52-1.29C433.91,106.32,434.08,105.35,434.69,104.61z"/>
		<path class="st8" d="M486.81,93.16c-1.09-1.44-3.1-1.82-4.89-1.69c-1.8,0.13-3.56,0.66-5.36,0.62c-3.7-0.09-7.16-2.94-7.98-6.55
			c-0.6-2.69,0.6-6.04,3.27-6.73c2.03-0.53,4.11,0.59,6.21,0.66c2.81,0.1,5.33-1.69,8.08-2.24c10.79-2.15,15.38,4.8,15.38,8.32
			c1.51,0.6,2.28,2.51,2.71,4.08c0.44,1.56,0.31,3.23-0.01,4.82c-1.15,5.72-4.96,10.85-10.1,13.62c1.41-3.2,1.51-6.75-0.15-9.82
			S490.26,93.73,486.81,93.16z"/>
		<path class="st12" d="M479.68,92.94c-0.28-0.5-0.99-0.62-1.51-0.39c-0.52,0.24-0.88,0.73-1.13,1.25
			c-0.75,1.51-0.84,3.33-0.24,4.91c0.6,1.57,1.89,2.87,3.46,3.49C481.16,99.1,481.24,95.77,479.68,92.94z"/>
		<path class="st5" d="M479.68,92.94c-0.28-0.5-0.99-0.62-1.51-0.39c-0.52,0.24-0.88,0.73-1.13,1.25c-0.75,1.51-0.84,3.33-0.24,4.91
			c0.6,1.57,1.89,2.87,3.46,3.49C481.16,99.1,481.24,95.77,479.68,92.94z"/>
		<path class="st17" d="M507.18,124.79c1.58-0.36,3.08-1.06,4.4-2c-0.71-0.7-1.44-1.38-2.18-2.06c-6.21-6.67-18.21-10.54-27.19-7.98
			c-2.89,0.83-5.5,2.14-7.8,3.78c-0.07,0.42-0.13,0.84-0.15,1.27c-0.1,2.58,1.02,5.29,3.21,6.65c1.88,1.17,4.24,1.23,6.43,0.89
			c2.18-0.34,4.31-1.04,6.51-1.26C496,123.51,501.7,126.03,507.18,124.79z"/>
		<path class="st12" d="M484.11,102.71c-0.08,4.48-0.15,8.96-0.23,13.43c4.04,2.52,9.6,2.31,13.43-0.51
			c-0.16-4.56-1.03-8.93-1.86-13.42C491.9,101.18,487.63,101.59,484.11,102.71z"/>
		<path class="st5" d="M496.94,111.12c-0.37-2.98-0.93-5.91-1.48-8.9c-3.05-0.89-6.62-0.71-9.8,0.07c-0.54,0.35-1.06,0.73-1.56,1.15
			c-0.06,3.23-0.11,6.46-0.17,9.69c0.81,0.53,1.68,0.94,2.62,1.19c3.14,0.83,6.54-0.29,9.17-2.21
			C496.14,111.8,496.55,111.46,496.94,111.12z"/>
		<path class="st8" d="M477.66,91.05c-0.41,3.01-0.06,6.12,1,8.96c0.66-2.52,1.63-5.1,2.29-7.62c0.17-0.64,0.31-1.39-0.12-1.89
			c-0.34-0.39-0.94-0.48-1.43-0.33C478.89,90.31,478.07,90.74,477.66,91.05z"/>
		<path class="st12" d="M478.91,102.14c0.98,4,3.88,7.81,7.92,8.61c2.53,0.5,5.22-0.24,7.35-1.72s3.72-3.61,4.86-5.93
			c2.15-4.38,2.7-9.69,0.78-14.17c-1.92-4.49-6.55-7.89-11.43-7.68C478.45,81.67,477.08,94.7,478.91,102.14z"/>
		<path class="st8" d="M477.55,91.79c5.01,1.01,10.27,0.78,15.18-0.66c0.68,1.54,2.14,2.91,3.69,3.56
			c-0.11,1.42,0.12,4.41,0.45,4.37c0.27-0.64,0.33-1.37,0.46-2.05c0.13-0.68,0.56-1.41,1.26-1.48c0.73-0.08,1.34,0.68,1.38,1.41
			c0.04,0.73-0.31,1.43-0.67,2.07c-0.76,1.35-1.59,2.67-2.48,3.95c0.05,0.98,0.14,2.2,0.51,3.11c4.74-3.88,6.8-10.88,4.6-16.6
			c-2.2-5.72-8.3-9.69-14.42-9.38c-2.97,0.15-5.96,1.27-7.97,3.46C477.52,85.74,476.47,89.03,477.55,91.79z"/>
		<linearGradient id="SVGID_1_" gradientUnits="userSpaceOnUse" x1="484.1008" y1="103.243" x2="484.1008" y2="98.5791">
			<stop  offset="0" style="stop-color:#FF867A"/>
			<stop  offset="1" style="stop-color:#FFA679"/>
		</linearGradient>
		<path class="st19" d="M483.36,100.95c-0.18,0.31-0.4,0.6-0.53,0.93c-0.13,0.33-0.16,0.74,0.05,1.03c0.29,0.4,0.91,0.42,1.33,0.17
			c0.42-0.26,0.67-0.72,0.87-1.17c0.29-0.65,0.5-1.37,0.34-2.06c-0.09-0.41-0.8-1.52-1.4-1.22
			C483.74,98.77,483.61,100.53,483.36,100.95z"/>
		<circle class="st20" cx="489.08" cy="98.2" r="0.88"/>
		<path class="st20" d="M482.22,98.2c0,0.49-0.39,0.88-0.88,0.88c-0.49,0-0.88-0.39-0.88-0.88c0-0.49,0.39-0.88,0.88-0.88
			C481.83,97.32,482.22,97.71,482.22,98.2z"/>
		<g>
			<path class="st20" d="M493.98,95.94c-0.1,0-0.2-0.03-0.28-0.09c-0.93-0.71-2.08-1.11-3.25-1.11c-1.13-0.03-2.33,0.37-3.27,1.07
				c-0.2,0.15-0.49,0.11-0.64-0.09c-0.15-0.2-0.11-0.49,0.1-0.64c1.1-0.81,2.5-1.24,3.82-1.25c1.37,0.01,2.72,0.47,3.8,1.3
				c0.2,0.15,0.24,0.44,0.09,0.64C494.25,95.87,494.12,95.94,493.98,95.94z"/>
		</g>
		<g>
			<path class="st20" d="M479.09,96.38c-0.13,0-0.25-0.05-0.34-0.15c-0.17-0.19-0.15-0.48,0.03-0.65c0.68-0.61,1.6-0.98,2.52-1.01
				c0.92-0.02,1.86,0.29,2.58,0.86c0.2,0.16,0.23,0.45,0.07,0.64c-0.16,0.2-0.45,0.23-0.64,0.07c-0.55-0.44-1.25-0.68-1.98-0.66
				c-0.71,0.02-1.41,0.3-1.93,0.78C479.31,96.34,479.2,96.38,479.09,96.38z"/>
		</g>
		<linearGradient id="SVGID_2_" gradientUnits="userSpaceOnUse" x1="488.2062" y1="102.6652" x2="494.9381" y2="102.6652">
			<stop  offset="0" style="stop-color:#FF867A"/>
			<stop  offset="1" style="stop-color:#FFA679"/>
		</linearGradient>
		<path class="st21" d="M494.94,102.67c0,1.26-1.51,2.27-3.37,2.27c-1.86,0-3.37-1.02-3.37-2.27c0-1.26,1.51-2.27,3.37-2.27
			C493.43,100.39,494.94,101.41,494.94,102.67z"/>
		<linearGradient id="SVGID_3_" gradientUnits="userSpaceOnUse" x1="478.562" y1="102.5864" x2="482.0211" y2="102.5864">
			<stop  offset="0" style="stop-color:#FF867A"/>
			<stop  offset="1" style="stop-color:#FFA679"/>
		</linearGradient>
		<path class="st22" d="M478.66,100.39c-0.03,0-0.06,0.01-0.09,0.01c0.1,0.61,0.21,1.19,0.35,1.74c0.22,0.9,0.55,1.79,0.95,2.64
			c1.26-0.33,2.16-1.15,2.16-2.12C482.02,101.41,480.51,100.39,478.66,100.39z"/>
	</g>
	<g>
		<circle class="st4" cx="437.3" cy="51.59" r="1.98"/>
		<circle class="st4" cx="127.47" cy="81.13" r="3.29"/>
		<path class="st4" d="M163.31,153.59c0,2.19-1.77,3.96-3.96,3.96c-2.19,0-3.96-1.77-3.96-3.96c0-2.19,1.77-3.96,3.96-3.96
			C161.54,149.63,163.31,151.4,163.31,153.59z"/>
		<path class="st4" d="M201.73,101.75c0,2.18-1.76,3.94-3.94,3.94c-2.18,0-3.94-1.76-3.94-3.94c0-2.18,1.76-3.94,3.94-3.94
			C199.97,97.81,201.73,99.58,201.73,101.75z"/>
		<circle class="st4" cx="517.68" cy="65.16" r="3.94"/>
		<path class="st4" d="M548.51,152.89c0,2.03-1.65,3.68-3.68,3.68c-2.03,0-3.68-1.65-3.68-3.68c0-2.03,1.65-3.68,3.68-3.68
			C546.86,149.22,548.51,150.86,548.51,152.89z"/>
		<path class="st4" d="M482.62,26.59c0,1.4-1.13,2.53-2.53,2.53c-1.4,0-2.53-1.13-2.53-2.53c0-1.4,1.13-2.53,2.53-2.53
			C481.49,24.05,482.62,25.19,482.62,26.59z"/>
		<path class="st4" d="M571.34,51.86L571.34,51.86c0.7,3.45,3.39,6.15,6.85,6.85l0,0l0,0c-3.45,0.7-6.15,3.39-6.85,6.85l0,0l0,0
			c-0.7-3.45-3.39-6.15-6.85-6.85h0h0C567.94,58.01,570.64,55.31,571.34,51.86L571.34,51.86z"/>
		<path class="st4" d="M149.87,31.84L149.87,31.84c0.44,2.2,2.17,3.93,4.37,4.37l0,0l0,0c-2.2,0.44-3.93,2.17-4.37,4.37l0,0l0,0
			c-0.44-2.2-2.17-3.93-4.37-4.37l0,0l0,0C147.7,35.77,149.43,34.04,149.87,31.84L149.87,31.84z"/>
		<path class="st4" d="M67.41,68.01L67.41,68.01c0.44,2.2,2.17,3.93,4.37,4.37l0,0l0,0c-2.2,0.44-3.93,2.17-4.37,4.37l0,0l0,0
			c-0.44-2.2-2.17-3.93-4.37-4.37h0h0C65.24,71.94,66.97,70.21,67.41,68.01L67.41,68.01z"/>
		<path class="st4" d="M564.55,109.33L564.55,109.33c0.44,2.2,2.17,3.93,4.37,4.37l0,0l0,0c-2.2,0.44-3.93,2.17-4.37,4.37l0,0l0,0
			c-0.44-2.2-2.17-3.93-4.37-4.37l0,0l0,0C562.38,113.26,564.11,111.54,564.55,109.33L564.55,109.33z"/>
		<path class="st4" d="M73.66,120.68L73.66,120.68c0.44,2.2,2.17,3.93,4.37,4.37l0,0l0,0c-2.2,0.44-3.93,2.17-4.37,4.37l0,0l0,0
			c-0.44-2.2-2.17-3.93-4.37-4.37l0,0l0,0C71.49,124.61,73.21,122.89,73.66,120.68L73.66,120.68z"/>
	</g>
	<g>
		<path class="st8" d="M113.74,206.1c-3.46,1.75-7.88-0.78-9.39-4.35c-1.58-0.2-3.02-1.25-3.71-2.68c-0.69-1.44-1.02-4.05-0.19-5.4
			c-1.68-0.62-2.84-2.41-2.72-4.2s1.24-4.01,2.98-4.4c-0.52-2.87,1.82-5.93,4.73-6.19c0.48-1.24,1.71-2.93,2.52-3.98
			c0.81-1.05,2.01-1.89,3.33-1.95c1.33-0.06,2.73,0.83,2.95,2.15c0.97-1.75,4.07-2.88,6.06-2.9c2-0.02,3.96,1.1,4.97,2.82
			c1.98-0.76,4.67,0.62,6.26,2.03c1.58,1.41,2.29,3.73,1.77,5.78c1.62,2.8,0.54,7.45-2.47,8.63c1.27,1.62,1.64,3.67,0.94,5.6
			c-0.7,1.93-2.43,3.46-4.44,3.9c-0.13,1.38-0.84,3.25-2.1,3.83c-1.26,0.58-2.82,0.45-3.95-0.34c-0.52,1.21-2.27,2.81-3.57,3.02
			C116.44,207.68,114.63,207.08,113.74,206.1z"/>
		<path class="st23" d="M129.46,212.17c9.39,6.81,16.58,16.6,20.28,27.59c3.7,10.99,3.89,23.14,0.53,34.24
			c-1.98,6.56-9.36,10.44-16.09,9.12c1.89-16.82,3.76-34.08-0.36-50.5C132.09,225.72,129.42,219.28,129.46,212.17z"/>
		<path class="st15" d="M129.46,212.17c9.39,6.81,16.58,16.6,20.28,27.59c3.7,10.99,3.89,23.14,0.53,34.24
			c-1.98,6.56-9.36,10.44-16.09,9.12c1.89-16.82,3.76-34.08-0.36-50.5C132.09,225.72,129.42,219.28,129.46,212.17z"/>
		<path class="st8" d="M164.55,303.94c3.6,0.9,7.38,0.53,11.1,0.45c3.71-0.07,7.63,0.21,10.75,2.22c1.86,1.19,3.43,3.43,2.68,5.5
			c-0.56,1.54-2.18,2.38-3.7,2.99c-7.5,2.98-15.97,3.45-23.75,1.33C161.23,312.27,162.04,307.29,164.55,303.94z"/>
		<path class="st24" d="M134,279.9c1.13,3.93,4.94,6.52,8.82,7.8c3.88,1.28,8.02,1.58,11.93,2.76c3.91,1.19,7.81,3.56,9.22,7.4
			c1.38,3.74-0.04,8.14-2.86,10.97c-2.82,2.82-6.81,4.23-10.78,4.64c-3.97,0.41-7.97-0.09-11.93-0.58
			c-5.86-0.73-12.4-1.59-17.52-4.54c-5.12-2.95-9.44-7.91-10.08-13.78c-0.65-5.88,2.63-11.81,7.55-15.09
			C123.27,276.18,128.18,278.84,134,279.9z"/>
		<path class="st25" d="M103.53,283.24c-6.27-0.05-12.78-0.05-18.46,2.6c-5.68,2.65-10.27,8.76-9.05,14.91
			c1.44,7.22,9.54,10.81,16.7,12.53c15.17,3.65,30.89,4.19,46.48,4.73c4.31,0.15,9.33-0.03,11.9-3.5c1.82-2.46,1.72-5.96,0.48-8.76
			c-1.24-2.8-3.45-5.05-5.7-7.13c-6.97-6.44-14.78-11.96-23.18-16.37C116.9,282.42,109.32,283.28,103.53,283.24z"/>
		<path class="st25" d="M124.27,286.51c11.47,7.27,24.43,12.16,37.84,14.3c3.83,0.61,6.54,4.02,6.3,7.89
			c-0.07,1.08-0.19,2.1-0.38,3.01c-0.63,2.92-2.27,5.78-4.93,7.14c-2.36,1.21-5.15,1.1-7.79,0.94c-9.92-0.58-19.82-1.45-29.69-2.6
			C119,308.98,119.66,296,124.27,286.51z"/>
		<path class="st26" d="M123.85,208.72c7.92,2.26,13.75,8.14,16.8,14.6c3.04,6.47,3.65,13.53,3.86,20.47
			c0.43,13.91-0.58,27.86-3.01,41.63c-15.71,2.14-33.3,1.76-48.72-1.49c4.38-20.77-4.86-38.87,0.07-60.45
			C95.24,212.99,112.13,205.38,123.85,208.72z"/>
		<path class="st26" d="M98.75,214.56c-7.04,7.73-13.04,16.59-16.27,26.53c-3.22,9.94-3.5,21.06,0.55,30.69
			c4.04,9.64,12.72,17.52,23.01,19.36c3.24,0.58,5.68-1.04,8.14-3.23c-1.7-6.55-7.89-11.83-11.64-17.46
			c-5.34-8.01-6.12-18.84-2-27.54c2.3-4.86,6.01-9.06,7.54-14.21C109.62,223.55,103.97,215.86,98.75,214.56z"/>
		<path class="st12" d="M126.38,188.91c0.28-0.5,0.99-0.62,1.51-0.39c0.52,0.24,0.88,0.73,1.13,1.25c0.75,1.51,0.84,3.33,0.24,4.91
			c-0.6,1.57-1.89,2.87-3.46,3.49C124.89,195.07,124.82,191.73,126.38,188.91z"/>
		<path class="st5" d="M126.38,188.91c0.28-0.5,0.99-0.62,1.51-0.39c0.52,0.24,0.88,0.73,1.13,1.25c0.75,1.51,0.84,3.33,0.24,4.91
			c-0.6,1.57-1.89,2.87-3.46,3.49C124.89,195.07,124.82,191.73,126.38,188.91z"/>
		<path class="st15" d="M98.88,220.75c-1.58-0.36-3.08-1.06-4.4-2c0.71-0.7,1.44-1.38,2.18-2.06c6.21-6.67,18.21-10.54,27.19-7.98
			c2.89,0.83,5.5,2.14,7.8,3.78c0.07,0.42,0.13,0.84,0.15,1.27c0.1,2.58-1.02,5.29-3.21,6.65c-1.88,1.17-4.24,1.23-6.43,0.89
			c-2.18-0.34-4.31-1.04-6.51-1.26C110.06,219.48,104.36,222,98.88,220.75z"/>
		<path class="st12" d="M121.95,198.68c0.08,4.48,0.15,8.96,0.23,13.43c-4.04,2.52-9.6,2.31-13.43-0.51
			c0.16-4.56,1.03-8.93,1.86-13.42C114.15,197.15,118.43,197.56,121.95,198.68z"/>
		<path class="st5" d="M109.12,207.09c0.37-2.98,0.93-5.91,1.48-8.9c3.05-0.89,6.62-0.71,9.8,0.07c0.54,0.35,1.06,0.73,1.56,1.15
			c0.06,3.23,0.11,6.46,0.17,9.69c-0.81,0.53-1.68,0.94-2.62,1.19c-3.14,0.83-6.54-0.29-9.17-2.21
			C109.92,207.77,109.51,207.43,109.12,207.09z"/>
		<path class="st8" d="M128.4,187.02c0.41,3.01,0.06,6.12-1,8.96c-0.66-2.52-1.63-5.1-2.29-7.62c-0.17-0.64-0.31-1.39,0.12-1.89
			c0.34-0.39,0.94-0.48,1.43-0.33C127.17,186.28,127.99,186.71,128.4,187.02z"/>
		<path class="st12" d="M127.15,198.11c-0.98,4-3.88,7.81-7.92,8.61c-2.53,0.5-5.22-0.24-7.35-1.72c-2.12-1.47-3.72-3.61-4.86-5.93
			c-2.15-4.38-2.7-9.69-0.78-14.17c1.92-4.49,6.55-7.89,11.43-7.68C127.61,177.64,128.98,190.66,127.15,198.11z"/>
		<path class="st8" d="M128.51,187.76c-5.01,1.01-10.27,0.78-15.18-0.66c-0.68,1.54-2.14,2.91-3.69,3.56
			c0.11,1.42-0.12,4.41-0.45,4.37c-0.27-0.64-0.33-1.37-0.46-2.05c-0.13-0.68-0.56-1.41-1.26-1.48c-0.73-0.08-1.34,0.68-1.38,1.41
			c-0.04,0.73,0.31,1.43,0.67,2.07c0.76,1.35,1.59,2.67,2.48,3.95c-0.05,0.98-0.14,2.2-0.51,3.11c-4.74-3.88-6.8-10.88-4.6-16.6
			c2.2-5.72,8.3-9.69,14.42-9.38c2.97,0.15,5.96,1.27,7.97,3.46C128.54,181.71,129.59,184.99,128.51,187.76z"/>
		
			<linearGradient id="SVGID_4_" gradientUnits="userSpaceOnUse" x1="122.1551" y1="199.2105" x2="122.1551" y2="194.5467" gradientTransform="matrix(-1 0 0 1 244.1115 0)">
			<stop  offset="0" style="stop-color:#FF867A"/>
			<stop  offset="1" style="stop-color:#FFA679"/>
		</linearGradient>
		<path class="st27" d="M122.7,196.92c0.18,0.31,0.4,0.6,0.53,0.93c0.13,0.33,0.16,0.74-0.05,1.03c-0.29,0.4-0.91,0.42-1.33,0.17
			c-0.42-0.26-0.67-0.72-0.87-1.17c-0.29-0.65-0.5-1.37-0.34-2.06c0.09-0.41,0.8-1.52,1.4-1.22
			C122.31,194.74,122.45,196.49,122.7,196.92z"/>
		<circle class="st20" cx="116.97" cy="194.16" r="0.88"/>
		<path class="st20" d="M123.83,194.16c0,0.49,0.39,0.88,0.88,0.88c0.49,0,0.88-0.39,0.88-0.88c0-0.49-0.39-0.88-0.88-0.88
			C124.23,193.29,123.83,193.68,123.83,194.16z"/>
		
			<linearGradient id="SVGID_5_" gradientUnits="userSpaceOnUse" x1="126.2605" y1="198.6327" x2="132.9924" y2="198.6327" gradientTransform="matrix(-1 0 0 1 244.1115 0)">
			<stop  offset="0" style="stop-color:#FF867A"/>
			<stop  offset="1" style="stop-color:#FFA679"/>
		</linearGradient>
		<path class="st28" d="M111.12,198.63c0,1.26,1.51,2.27,3.37,2.27s3.37-1.02,3.37-2.27c0-1.26-1.51-2.27-3.37-2.27
			S111.12,197.38,111.12,198.63z"/>
		
			<linearGradient id="SVGID_6_" gradientUnits="userSpaceOnUse" x1="116.6163" y1="198.5539" x2="120.0754" y2="198.5539" gradientTransform="matrix(-1 0 0 1 244.1115 0)">
			<stop  offset="0" style="stop-color:#FF867A"/>
			<stop  offset="1" style="stop-color:#FFA679"/>
		</linearGradient>
		<path class="st29" d="M127.4,196.36c0.03,0,0.06,0.01,0.09,0.01c-0.1,0.61-0.21,1.19-0.35,1.74c-0.22,0.9-0.55,1.79-0.95,2.64
			c-1.26-0.33-2.16-1.15-2.16-2.12C124.04,197.38,125.54,196.36,127.4,196.36z"/>
		<path class="st4" d="M152.96,296.92h-35.53c-3.71,0-6.71-3.01-6.71-6.71v-24.44c0-3.71,3.01-6.71,6.71-6.71h35.53
			c3.71,0,6.71,3.01,6.71,6.71v24.44C159.67,293.91,156.67,296.92,152.96,296.92z"/>
		<path class="st8" d="M112.89,186.49c0.08,1.25,0.85,2.44,1.97,3.02c1.11,0.58,2.53,0.54,3.61-0.11c1.51,1.62,4.36,1.71,6.03,0.25
			c0.88,0.59,2.01,0.94,3.04,0.72c1.03-0.22,1.97-0.87,2.53-1.77c0.97-1.54-0.38-3.6-2-4.43c-1.62-0.84-3.55-0.77-5.36-0.52
			c-1.81,0.24-3.63,0.64-5.44,0.4c-0.94-0.13-1.9-0.43-2.83-0.21C113.53,184.06,112.83,185.54,112.89,186.49z"/>
		<path class="st5" d="M139.15,277.98c0,2.18-1.77,3.95-3.95,3.95s-3.95-1.77-3.95-3.95s1.77-3.95,3.95-3.95
			S139.15,275.8,139.15,277.98z"/>
	</g>
</g>
<g>
	<path class="st7" d="M375.22,76.47c-0.2,0-0.4,0.04-0.6,0.06v-0.06h-38.1v0.06c-0.2-0.02-0.39-0.06-0.6-0.06
		c-2.96,0-5.36,2.4-5.36,5.36c0,2.96,2.4,5.36,5.36,5.36c0.2,0,0.4-0.04,0.6-0.06v0.06h19.05h19.05v-0.06
		c0.2,0.02,0.39,0.06,0.6,0.06c2.96,0,5.36-2.4,5.36-5.36C380.58,78.87,378.18,76.47,375.22,76.47z"/>
	<path class="st26" d="M355.88,87.18h-0.6h-18.45v0.6l2.38,14.29c0,0,1.19,3.57,7.14,3.57h8.93h0.6h8.93c5.95,0,7.14-3.57,7.14-3.57
		l2.38-14.29v-0.6H355.88z M347.33,91.87v4.54v4.54h-0.01c0.01,0.05,0.01,0.09,0.01,0.14c0,0.7-0.57,1.28-1.28,1.28
		c-0.7,0-1.28-0.57-1.28-1.28c0-0.05,0.01-0.09,0.01-0.14h-0.01v-9.07h0.01c-0.01-0.05-0.01-0.09-0.01-0.14
		c0-0.7,0.57-1.28,1.28-1.28c0.7,0,1.28,0.57,1.28,1.28c0,0.05-0.01,0.09-0.01,0.14H347.33z M352.1,91.87v4.54v4.54h-0.01
		c0.01,0.05,0.01,0.09,0.01,0.14c0,0.7-0.57,1.28-1.28,1.28c-0.7,0-1.28-0.57-1.28-1.28c0-0.05,0.01-0.09,0.01-0.14h-0.01v-9.07
		h0.01c-0.01-0.05-0.01-0.09-0.01-0.14c0-0.7,0.57-1.28,1.28-1.28c0.7,0,1.28,0.57,1.28,1.28c0,0.05-0.01,0.09-0.01,0.14H352.1z
		 M356.86,91.87v4.54v4.54h-0.01c0.01,0.05,0.01,0.09,0.01,0.14c0,0.7-0.57,1.28-1.28,1.28c-0.7,0-1.28-0.57-1.28-1.28
		c0-0.05,0.01-0.09,0.01-0.14h-0.01v-9.07h0.01c-0.01-0.05-0.01-0.09-0.01-0.14c0-0.7,0.57-1.28,1.28-1.28
		c0.7,0,1.28,0.57,1.28,1.28c0,0.05-0.01,0.09-0.01,0.14H356.86z M361.62,91.87v4.54v4.54h-0.01c0.01,0.05,0.01,0.09,0.01,0.14
		c0,0.7-0.57,1.28-1.28,1.28s-1.28-0.57-1.28-1.28c0-0.05,0.01-0.09,0.01-0.14h-0.01v-9.07h0.01c-0.01-0.05-0.01-0.09-0.01-0.14
		c0-0.7,0.57-1.28,1.28-1.28s1.28,0.57,1.28,1.28c0,0.05-0.01,0.09-0.01,0.14H361.62z M366.38,91.87v4.54v4.54h-0.01
		c0.01,0.05,0.01,0.09,0.01,0.14c0,0.7-0.57,1.28-1.28,1.28s-1.28-0.57-1.28-1.28c0-0.05,0.01-0.09,0.01-0.14h-0.01v-9.07h0.01
		c-0.01-0.05-0.01-0.09-0.01-0.14c0-0.7,0.57-1.28,1.28-1.28s1.28,0.57,1.28,1.28c0,0.05-0.01,0.09-0.01,0.14H366.38z"/>
	<g>
		<g>
			
				<rect x="346.94" y="61.28" transform="matrix(0.7071 0.7071 -0.7071 0.7071 153.5367 -226.2829)" class="st7" width="5.95" height="21.83"/>
			<circle class="st4" cx="342.9" cy="79.21" r="2.98"/>
		</g>
		<g>
			
				<rect x="358.27" y="61.52" transform="matrix(-0.7071 0.7071 -0.7071 -0.7071 667.9018 -131.7981)" class="st7" width="5.95" height="21.83"/>
			<circle class="st4" cx="368.26" cy="79.44" r="2.98"/>
		</g>
	</g>
</g>
</svg>
