<svg xmlns="http://www.w3.org/2000/svg" xmlns:xlink="http://www.w3.org/1999/xlink" width="192" height="154.859" viewBox="0 0 192 154.859"><defs><style>.a,.b{fill:#00a859;}.a{opacity:0.18;}.c{fill:#fff;}.d{fill:url(#a);}.e{fill:#ffbbab;}.f{fill:#473f47;}.g{fill:#020202;opacity:0.1;}.h{fill:#e0a194;}.i{opacity:0.57;}</style><linearGradient id="a" x1="1.36" y1="1.999" x2="0.091" y2="0.014" gradientUnits="objectBoundingBox"><stop offset="0.01"/><stop offset="0.13" stop-opacity="0.69"/><stop offset="0.25" stop-opacity="0.322"/><stop offset="1" stop-opacity="0"/></linearGradient></defs><g transform="translate(0 -0.003)"><path class="a" d="M98.6,56.74c-17.111,11.052-28.7,28.69-39.777,45.8-4.52,6.983-9.061,14.007-12.4,21.626a94.6,94.6,0,0,0-6.735,24.577c-1.8,12.585-.848,27.2,8.873,35.394,5.1,4.3,11.844,6.095,18.411,7.268,26.105,4.7,53,1.818,79.347,4.876,14.414,1.676,28.751,5.135,43.246,4.373s29.782-6.724,36.994-19.3c8.416-14.693,3.464-33.424-4.276-48.483s-18.213-29.274-20.94-45.984c-1.122-6.862-.96-14.19-4.353-20.254-3.794-6.79-11.275-10.594-18.573-13.281C153.386,44.119,122.009,41.6,98.6,56.74Z" transform="translate(-38.94 -45.9)"/><path class="a" d="M87.1,180.744a28.836,28.836,0,0,0,6.775,4.6l11.681,6.425a2.8,2.8,0,0,0,1.224.437,2.717,2.717,0,0,0,1.331-.432,143.358,143.358,0,0,0,18.137-11.392c-1.331-1.183-2.763-2.418-4.525-2.707a9.935,9.935,0,0,0-2.9.117,111.305,111.305,0,0,1-21.367.792,31.2,31.2,0,0,1-3.372-.335c-.858-.147-2.108-.772-2.966-.615C90.442,177.762,87.313,180.957,87.1,180.744Z" transform="translate(-62.64 -110.715)"/><path class="a" d="M164.79,248.739c3.195,3.2,7.217,5.419,11.173,7.618l19.3,10.594a4.652,4.652,0,0,0,2.032.726,4.6,4.6,0,0,0,2.2-.716,237.688,237.688,0,0,0,29.919-18.792c-2.194-1.955-4.571-3.992-7.461-4.464a16.354,16.354,0,0,0-4.794.188,183.851,183.851,0,0,1-35.252,1.31,52.312,52.312,0,0,1-5.561-.559c-1.412-.239-3.479-1.275-4.891-1.016C170.306,243.823,165.14,249.09,164.79,248.739Z" transform="translate(-100.873 -143.184)"/><path class="a" d="M295.45,188.046a26.366,26.366,0,0,0,6.242,4.246l10.767,5.912a1.93,1.93,0,0,0,2.357,0,132.52,132.52,0,0,0,16.709-10.5,8.8,8.8,0,0,0-4.17-2.494,9.294,9.294,0,0,0-2.677.107,102.438,102.438,0,0,1-19.686.731,28.914,28.914,0,0,1-3.1-.31c-.787-.137-1.945-.711-2.732-.564C298.533,185.3,295.648,188.244,295.45,188.046Z" transform="translate(-165.173 -114.427)"/><path class="a" d="M283.65,308.2a26.244,26.244,0,0,0,6.242,4.241l10.767,5.917a2.656,2.656,0,0,0,1.128.406,2.591,2.591,0,0,0,1.229-.4,133.069,133.069,0,0,0,16.709-10.493,8.757,8.757,0,0,0-4.17-2.494,8.951,8.951,0,0,0-2.677.107,102.85,102.85,0,0,1-19.686.731,27.676,27.676,0,0,1-3.1-.315c-.787-.132-1.945-.711-2.732-.564C286.733,305.433,283.828,308.374,283.65,308.2Z" transform="translate(-159.366 -173.56)"/><path class="a" d="M75.29,306.486a26.292,26.292,0,0,0,6.247,4.246L92.3,316.644a1.93,1.93,0,0,0,2.357,0,132.522,132.522,0,0,0,16.709-10.5,8.8,8.8,0,0,0-4.17-2.494,9.3,9.3,0,0,0-2.677.107,102.44,102.44,0,0,1-19.686.731,28.918,28.918,0,0,1-3.1-.31c-.787-.137-1.94-.711-2.732-.564C78.373,303.744,75.488,306.684,75.29,306.486Z" transform="translate(-56.829 -172.713)"/><path class="b" d="M158.18,200.709l-29.3-16.918v-4.612L158,166.98l29.3,12.306V183.9Z" transform="translate(-63.424 -82.172)"/><path class="c" d="M158.18,191.629l-29.3-16.918L158,157.9l29.3,16.918Z" transform="translate(-63.424 -77.704)"/><path class="b" d="M165.138,191.495,143.06,178.747,165,166.08l22.078,12.748Z" transform="translate(-70.402 -81.729)"/><path class="c" d="M168.612,191.435l-18.462-10.66L168.5,170.18l18.462,10.66Z" transform="translate(-73.891 -83.747)"/><path class="d" d="M197.353,226.069l-19.523-5.587a5.759,5.759,0,0,1,1.473-1.016l15.506-8.35a1.051,1.051,0,0,1,1.524.2L208.623,222.3a1.935,1.935,0,0,1,.767,1.112,1.305,1.305,0,0,1-.813,1.249,3.555,3.555,0,0,1-1.564.208,23.54,23.54,0,0,1-4.129-.508,5.378,5.378,0,0,0-1.767-.2,1.559,1.559,0,0,0-1.351,1.016" transform="translate(-107.29 -127.086)"/><path class="e" d="M226.5,223.792a4.485,4.485,0,0,0,.35,1.889,3.119,3.119,0,0,0,1.376,1.27,5.389,5.389,0,0,0,4.007.4.752.752,0,0,0,.462-.279.63.63,0,0,0,.081-.4,2.946,2.946,0,0,0-1.051-1.884,6.6,6.6,0,0,1-1.442-1.661c-.615-1.239-.157-4.546-2.494-4.012C225.836,219.536,226.445,222.41,226.5,223.792Z" transform="translate(-131.176 -131.111)"/><path class="b" d="M225.877,232.691s-.33.818.076,1.3,4.607,3.093,7.435.99-3.835-2.377-3.835-2.377Z" transform="translate(-130.873 -137.777)"/><path class="c" d="M226.09,228.724a.6.6,0,0,1,.757.2,2.468,2.468,0,0,0,2.25.8c.924-.218,1.29-1.28,1.752-1.285s2.9,2.077,3.047,2.971-1.107,1.524-2.489,1.635-4.51-.868-5.079-1.595A2.956,2.956,0,0,1,226.09,228.724Z" transform="translate(-130.928 -135.729)"/><path class="e" d="M210.711,226.307a4.485,4.485,0,0,0,.35,1.889,3.119,3.119,0,0,0,1.376,1.27,5.384,5.384,0,0,0,4.007.4.752.752,0,0,0,.462-.279.63.63,0,0,0,.081-.4,2.946,2.946,0,0,0-1.051-1.884,6.6,6.6,0,0,1-1.442-1.661c-.615-1.239-.157-4.571-2.494-4.012C210.046,222.071,210.655,224.926,210.711,226.307Z" transform="translate(-123.406 -132.347)"/><path class="b" d="M210.077,235.236s-.33.818.076,1.3,4.607,3.093,7.435,1.016-3.835-2.377-3.835-2.377Z" transform="translate(-123.097 -139.041)"/><path class="c" d="M210.28,231.309a.6.6,0,0,1,.752.223,2.468,2.468,0,0,0,2.25.8c.924-.218,1.29-1.28,1.752-1.285s2.9,2.077,3.047,2.971-1.107,1.549-2.489,1.635-4.51-.868-5.1-1.595A2.941,2.941,0,0,1,210.28,231.309Z" transform="translate(-123.138 -137.014)"/><path class="f" d="M207.494,162.63s-.437,24.023,1.346,32.037l4.515.554,3.124-32.891Z" transform="translate(-121.865 -103.196)"/><path class="f" d="M227.161,157.75s2.128,12.961-.452,33.769l-4.515.559-3.123-32.891Z" transform="translate(-127.585 -100.942)"/><path class="c" d="M238.378,127.445c-.051.868-.335,1.625-1.087,1.874a.833.833,0,0,1-.193.051c-1.387.279-3.2-.777-4.474-1.7a17.088,17.088,0,0,1-1.524-1.234V117.16l6.745,6.907A10.818,10.818,0,0,1,238.378,127.445Z" transform="translate(-133.505 -80.967)"/><path class="c" d="M219.363,126.319c0,.432.056.874.056,1.31,0,2.4-.554,4.871.157,7.222a2.616,2.616,0,0,1,.2,1.6,2.032,2.032,0,0,1-1.016.965,19.9,19.9,0,0,1-6.938,1.844c-1.793.249-4.337.782-6-.183a2.987,2.987,0,0,1-1.168-1.945,36.457,36.457,0,0,1-1.122-7.562c0-.33-.046-.66-.066-1.016q-.2-3.443-.137-6.887c.03-1.671.163-3.469,1.249-4.728,1.447-1.676,4.251-2.783,6.374-3.174a7.283,7.283,0,0,1,2.1-.117,8.883,8.883,0,0,1,2.834.965,4.7,4.7,0,0,1,2.514,2.006,14.165,14.165,0,0,1,1.178,3.8,13.675,13.675,0,0,1,.066,3.728c-.061.609-.218,1.214-.279,1.818C219.368,126.1,219.363,126.207,219.363,126.319Z" transform="translate(-119.833 -79.226)"/><path class="g" d="M209.034,141.39a2.113,2.113,0,0,1-.828.066,17.641,17.641,0,0,1-1.96-.508c-.32-.061-.609-.218-.924-.295-1.59-.4-1.778-4.855-1.935-6.054a91.188,91.188,0,0,1-1.082-9.65,10.793,10.793,0,0,1,.422-3.636,4.205,4.205,0,0,1,2.382-2.646,1.193,1.193,0,0,1,.7-.076c.929.239.9,1.3,1.209,2a1.807,1.807,0,0,0,2.27,1.016c.914-.411,1.046-1.737,1.4-2.743a3.169,3.169,0,0,1,1.427-1.767c1.661-.884,2.956.472,3.515,1.945s-.051,3.4-.345,4.982a35.262,35.262,0,0,1-3.779,11.3c-.813,1.4-2.367,3.078-2.357,4.718C209.145,140.837,209.369,141.243,209.034,141.39Z" transform="translate(-119.326 -80.798)"/><path class="e" d="M218.141,104.67a1.549,1.549,0,0,1-1.077.178,5,5,0,0,1-.9-.264c-.472-.168-.381.457-.406.828a6.857,6.857,0,0,0,.056,1.407,1.168,1.168,0,0,1,0,.508.736.736,0,0,1-.543.508,1.635,1.635,0,0,1-.752,0,4.676,4.676,0,0,1-.828-.239,1.31,1.31,0,0,1-.584-.386,1.524,1.524,0,0,1-.188-.975c.081-2.423-.086-5.13.9-7.4a2.265,2.265,0,0,1,3.164-1.356,5.109,5.109,0,0,1,2.453,1.569,1.092,1.092,0,0,1,.152.914q-.081.828-.244,1.646c-.122.615-.269,1.229-.447,1.833a2.138,2.138,0,0,1-.752,1.234Z" transform="translate(-124.549 -71.164)"/><path class="f" d="M216.984,96.478a2.293,2.293,0,0,1-.366,0,5.8,5.8,0,0,0-1.757-.315,2.092,2.092,0,0,0-1.727,2.128c-.284,0-.188-.462-.325-.716s-.67-.132-.8.178a2.031,2.031,0,0,0,0,1.016,2.814,2.814,0,0,1-.437,1.833c-.086.127-.239.264-.366.183s-.157-.35-.208-.508a4.12,4.12,0,0,0-.31-.594c-.223-.371-.508-.721-.731-1.087a2.685,2.685,0,0,1-.508-2.189,1.722,1.722,0,0,1,.554-.752c.249-.2.584-.223.828-.4s.132-.33.213-.554a4.205,4.205,0,0,1,1.366-1.59,4.673,4.673,0,0,1,3.555-1.148,3.357,3.357,0,0,1,2.682,2.722,1.432,1.432,0,0,1,.691,1.346,1.966,1.966,0,0,1-.117.706,1.458,1.458,0,0,1-1.392.909,2.27,2.27,0,0,0,.066-.848.432.432,0,0,0-.056-.178C217.756,96.463,217.309,96.473,216.984,96.478Z" transform="translate(-122.812 -68.558)"/><path class="h" d="M217.586,110.584l-.168-.061a.188.188,0,0,0-.127,0c-.051,0-.076.071-.1.117a2.6,2.6,0,0,0-.173,1.2l.066.635a2.585,2.585,0,0,1-1.356-3.113,10.361,10.361,0,0,0,1.844,1.229Z" transform="translate(-125.868 -77.128)"/><path class="c" d="M248.668,130.534a13.291,13.291,0,0,1-3.24,3.225,6.425,6.425,0,0,1-3.047,1.092,1.016,1.016,0,0,1-.427-.046,1.148,1.148,0,0,1-.584-.406,3.383,3.383,0,0,1-.782-1.925c-.076-1.849,1.93-2.92,1.93-2.92s4.571-1.458,5.079-1.219c.3.127.579.772.772,1.326A7.647,7.647,0,0,1,248.668,130.534Z" transform="translate(-138.173 -86.453)"/><path class="b" d="M243.361,121.816l2.671-8.4a1.32,1.32,0,0,1,1.356-.919l2.128.157a1.326,1.326,0,0,1,1.133,1.813l-3.342,8.319a1.315,1.315,0,0,1-1.29.823l-1.463-.071a1.326,1.326,0,0,1-1.194-1.722Z" transform="translate(-139.509 -78.67)"/><path class="c" d="M209.435,134.821h0a3.428,3.428,0,0,1-4.373-2.082l-3.1-8.746a3.428,3.428,0,0,1,2.082-4.373h0c1.783-.63,2.087.508,2.717,2.27l2.682,7.994C210.075,131.657,211.218,134.186,209.435,134.821Z" transform="translate(-119.067 -82.091)"/><path class="g" d="M245.472,131.863a13.291,13.291,0,0,1-3.24,3.225,6.425,6.425,0,0,1-3.047,1.092,1.015,1.015,0,0,1-.427-.046.833.833,0,0,1-.193.051c-1.387.279-3.2-.777-4.474-1.7v-.03l.432-2.773a10.909,10.909,0,0,0,2.859,2.118,4.1,4.1,0,0,0,2.453.457,2.387,2.387,0,0,0,.655-.2,21.2,21.2,0,0,0,4.7-3.047A8.3,8.3,0,0,1,245.472,131.863Z" transform="translate(-134.977 -87.783)"/><path class="e" d="M220.862,111.368c.066-.269.193-.589.467-.645.361-.066.63.376,1.016.411a1.481,1.481,0,0,1,.579,0,.675.675,0,0,1,.223.193,3.245,3.245,0,0,1-.975,4.815,1.336,1.336,0,0,1-.767.208,1.727,1.727,0,0,1-.691-.295c-.686-.427-.361-1.153-.289-1.823A22.277,22.277,0,0,1,220.862,111.368Z" transform="translate(-128.183 -77.796)"/><path class="c" d="M213.585,134.286c-.924.188-4.363-1.041-1.691-7.308,1.219-2.87,1.849-5.587,3.464-8.263a.9.9,0,0,1,.376-.4.863.863,0,0,1,.508,0,17.622,17.622,0,0,1,2.275.538.472.472,0,0,1,.279.163.508.508,0,0,1,.046.3c-.2,2.59-1.209,5.043-1.62,7.618-.264,1.671-.295,3.433-1.1,4.921A8.663,8.663,0,0,1,213.585,134.286Z" transform="translate(-123.563 -81.515)"/><path class="e" d="M251.659,123.837a1.737,1.737,0,0,0-1.823-.239,2.484,2.484,0,0,0-1.224,2.032,3.048,3.048,0,0,0,.33,1.854,2.331,2.331,0,0,0,2.839.975,2.225,2.225,0,0,0,1.249-2.352,2.763,2.763,0,0,0-.508-.894,5.379,5.379,0,0,0-.863-1.376Z" transform="translate(-142.109 -84.058)"/><path class="c" d="M171.009,250.688H170.9a.589.589,0,0,1-.467-.691,6.1,6.1,0,0,1,3.7-4.241.591.591,0,1,1,.442,1.1,4.916,4.916,0,0,0-2.976,3.367A.6.6,0,0,1,171.009,250.688Z" transform="translate(-103.643 -144.229)"/><path class="c" d="M180.195,256.336a.415.415,0,0,1-.112,0,.594.594,0,0,1-.472-.691,6.12,6.12,0,0,1,3.7-4.246.594.594,0,1,1,.442,1.1,4.9,4.9,0,0,0-2.976,3.367A.6.6,0,0,1,180.195,256.336Z" transform="translate(-108.161 -147.002)"/><path class="c" d="M189.425,262.015h-.112a.594.594,0,0,1-.472-.691,6.125,6.125,0,0,1,3.7-4.246.592.592,0,1,1,.447,1.1,4.911,4.911,0,0,0-2.976,3.367A.6.6,0,0,1,189.425,262.015Z" transform="translate(-112.704 -149.801)"/><path class="c" d="M198.575,267.7h-.112a.594.594,0,0,1-.472-.691,6.1,6.1,0,0,1,3.7-4.246.594.594,0,0,1,.447,1.1,4.916,4.916,0,0,0-2.981,3.367A.589.589,0,0,1,198.575,267.7Z" transform="translate(-117.207 -152.607)"/><path class="c" d="M207.764,273.344a.456.456,0,0,1-.117,0,.589.589,0,0,1-.467-.691,6.1,6.1,0,0,1,3.7-4.246.595.595,0,0,1,.447,1.1,4.916,4.916,0,0,0-2.981,3.367A.589.589,0,0,1,207.764,273.344Z" transform="translate(-121.728 -155.377)"/><path class="c" d="M274.731,250.68a.415.415,0,0,0,.112,0,.594.594,0,0,0,.472-.691,6.1,6.1,0,0,0-3.7-4.241.591.591,0,1,0-.442,1.1,4.9,4.9,0,0,1,2.976,3.367A.594.594,0,0,0,274.731,250.68Z" transform="translate(-153.042 -144.226)"/><path class="c" d="M265.542,256.345a.394.394,0,0,0,.112,0,.594.594,0,0,0,.472-.691,6.1,6.1,0,0,0-3.7-4.246.595.595,0,0,0-.447,1.1,4.916,4.916,0,0,1,2.981,3.367A.594.594,0,0,0,265.542,256.345Z" transform="translate(-148.521 -147.012)"/><path class="c" d="M256.379,262.02h.112a.589.589,0,0,0,.472-.691,6.094,6.094,0,0,0-3.713-4.256.594.594,0,0,0-.447,1.1,4.927,4.927,0,0,1,2.981,3.367.594.594,0,0,0,.594.482Z" transform="translate(-144.025 -149.806)"/><path class="c" d="M247.188,267.683h.112a.594.594,0,0,0,.467-.691,6.1,6.1,0,0,0-3.7-4.246.592.592,0,0,0-.447,1.1,4.916,4.916,0,0,1,2.981,3.367A.6.6,0,0,0,247.188,267.683Z" transform="translate(-139.487 -152.59)"/><path class="c" d="M238,273.354a.439.439,0,0,0,.112,0,.589.589,0,0,0,.467-.691,6.1,6.1,0,0,0-3.7-4.246.594.594,0,0,0-.442,1.1,4.916,4.916,0,0,1,2.976,3.367.594.594,0,0,0,.584.467Z" transform="translate(-134.977 -155.386)"/><path class="b" d="M265.158,260.58l-15.948-9.208v-2.514l15.851-6.638,15.948,6.7v2.509Z" transform="translate(-122.64 -119.199)"/><path class="c" d="M265.158,255.635l-15.948-9.213,15.851-9.152,15.948,9.213Z" transform="translate(-122.64 -116.763)"/><path class="b" d="M268.947,255.565l-12.017-6.938,11.94-6.9,12.022,6.938Z" transform="translate(-126.439 -118.958)"/><path class="c" d="M270.836,255.53l-10.056-5.805,9.99-5.764,10.056,5.8Z" transform="translate(-128.334 -120.055)"/><path class="c" d="M289.885,308.694h-.066a.325.325,0,0,1-.254-.376,3.316,3.316,0,0,1,2.032-2.311.323.323,0,1,1,.239.6,2.666,2.666,0,0,0-1.62,1.833A.325.325,0,0,1,289.885,308.694Z" transform="translate(-162.274 -173.89)"/><path class="c" d="M294.884,311.785h-.061a.32.32,0,0,1-.259-.376A3.337,3.337,0,0,1,296.6,309.1a.33.33,0,0,1,.422.178.325.325,0,0,1-.183.422,2.682,2.682,0,0,0-1.62,1.833A.325.325,0,0,1,294.884,311.785Z" transform="translate(-164.734 -175.412)"/><path class="c" d="M299.889,314.863h-.061a.32.32,0,0,1-.254-.376,3.3,3.3,0,0,1,2.032-2.311.32.32,0,0,1,.422.178.33.33,0,0,1-.178.422,2.671,2.671,0,0,0-1.625,1.833A.32.32,0,0,1,299.889,314.863Z" transform="translate(-167.199 -176.925)"/><path class="c" d="M304.888,317.964h-.061a.315.315,0,0,1-.254-.376,3.327,3.327,0,0,1,2.032-2.311.325.325,0,0,1,.244.6,2.667,2.667,0,0,0-1.62,1.833A.325.325,0,0,1,304.888,317.964Z" transform="translate(-169.659 -178.457)"/><path class="c" d="M309.889,321.044h-.061a.32.32,0,0,1-.254-.376,3.317,3.317,0,0,1,2.032-2.311.325.325,0,0,1,.244.6,2.672,2.672,0,0,0-1.62,1.833A.325.325,0,0,1,309.889,321.044Z" transform="translate(-172.121 -179.972)"/><path class="c" d="M346.367,308.706h.061a.325.325,0,0,0,.259-.376,3.327,3.327,0,0,0-2.032-2.311.325.325,0,0,0-.239.6,2.666,2.666,0,0,1,1.62,1.833A.325.325,0,0,0,346.367,308.706Z" transform="translate(-189.187 -173.902)"/><path class="c" d="M341.357,311.794h.061a.32.32,0,0,0,.259-.376,3.337,3.337,0,0,0-2.032-2.311.325.325,0,0,0-.244.6,2.682,2.682,0,0,1,1.625,1.833.325.325,0,0,0,.33.254Z" transform="translate(-186.717 -175.42)"/><path class="c" d="M336.327,314.863h.061a.32.32,0,0,0,.254-.376,3.3,3.3,0,0,0-2.032-2.311.32.32,0,0,0-.422.178.33.33,0,0,0,.178.422,2.671,2.671,0,0,1,1.625,1.833A.32.32,0,0,0,336.327,314.863Z" transform="translate(-184.226 -176.925)"/><path class="c" d="M331.352,317.964h.061a.315.315,0,0,0,.254-.376,3.327,3.327,0,0,0-2.032-2.311.325.325,0,0,0-.244.6,2.666,2.666,0,0,1,1.62,1.833A.325.325,0,0,0,331.352,317.964Z" transform="translate(-181.79 -178.456)"/><path class="c" d="M326.3,321.021h.061a.325.325,0,0,0,.254-.376,3.317,3.317,0,0,0-2.032-2.311.325.325,0,1,0-.244.6,2.671,2.671,0,0,1,1.62,1.833A.325.325,0,0,0,326.3,321.021Z" transform="translate(-179.273 -179.949)"/><path class="b" d="M71.548,132.46,55.6,123.252v-2.509L71.451,114.1,87.4,120.8v2.514Z" transform="translate(-27.362 -56.149)"/><path class="c" d="M71.548,127.52,55.6,118.312l15.851-9.152L87.4,118.368Z" transform="translate(-27.362 -53.718)"/><path class="b" d="M75.337,127.445,63.32,120.507l11.94-6.9,12.022,6.943Z" transform="translate(-31.161 -55.908)"/><path class="c" d="M77.226,127.415,67.17,121.61l9.99-5.77,10.056,5.805Z" transform="translate(-33.056 -57.005)"/><path class="c" d="M96.274,180.584h-.061a.32.32,0,0,1-.259-.376,3.337,3.337,0,0,1,2.032-2.311.323.323,0,1,1,.239.6,2.682,2.682,0,0,0-1.62,1.833.33.33,0,0,1-.33.254Z" transform="translate(-66.995 -110.845)"/><path class="c" d="M101.275,183.664h-.061a.325.325,0,0,1-.259-.376,3.327,3.327,0,0,1,2.032-2.311.325.325,0,0,1,.422.178.33.33,0,0,1-.178.422,2.661,2.661,0,0,0-1.625,1.833A.32.32,0,0,1,101.275,183.664Z" transform="translate(-69.456 -112.361)"/><path class="c" d="M106.278,186.741h-.061a.315.315,0,0,1-.254-.376,3.327,3.327,0,0,1,2.032-2.311.325.325,0,1,1,.244.6,2.682,2.682,0,0,0-1.625,1.833.32.32,0,0,1-.335.254Z" transform="translate(-71.92 -113.868)"/><path class="c" d="M111.279,189.821h-.061a.32.32,0,0,1-.254-.376A3.317,3.317,0,0,1,113,187.134a.325.325,0,1,1,.244.6,2.666,2.666,0,0,0-1.62,1.833A.325.325,0,0,1,111.279,189.821Z" transform="translate(-74.381 -115.384)"/><path class="c" d="M116.284,192.936h-.066a.32.32,0,0,1-.254-.376A3.337,3.337,0,0,1,118,190.25a.325.325,0,0,1,.239.6,2.682,2.682,0,0,0-1.62,1.833A.33.33,0,0,1,116.284,192.936Z" transform="translate(-76.842 -116.93)"/><path class="c" d="M152.762,180.586h.061a.315.315,0,0,0,.254-.376,3.322,3.322,0,0,0-2.032-2.311.325.325,0,0,0-.239.6,2.682,2.682,0,0,1,1.62,1.833A.325.325,0,0,0,152.762,180.586Z" transform="translate(-93.909 -110.852)"/><path class="c" d="M147.757,183.676h.061a.325.325,0,0,0,.259-.376,3.327,3.327,0,0,0-2.032-2.311.325.325,0,0,0-.239.6,2.666,2.666,0,0,1,1.62,1.833A.325.325,0,0,0,147.757,183.676Z" transform="translate(-91.448 -112.373)"/><path class="c" d="M142.69,186.741h.061a.325.325,0,0,0,.259-.376,3.337,3.337,0,0,0-2.032-2.311.325.325,0,1,0-.244.6,2.682,2.682,0,0,1,1.625,1.833A.325.325,0,0,0,142.69,186.741Z" transform="translate(-88.92 -113.868)"/><path class="c" d="M137.715,189.833h.061a.32.32,0,0,0,.254-.376A3.316,3.316,0,0,0,136,187.146a.32.32,0,0,0-.422.178.325.325,0,0,0,.178.422,2.651,2.651,0,0,1,1.62,1.833A.325.325,0,0,0,137.715,189.833Z" transform="translate(-86.485 -115.396)"/><path class="c" d="M132.714,192.924h.061a.315.315,0,0,0,.254-.376A3.327,3.327,0,0,0,131,190.237a.325.325,0,0,0-.422.178.32.32,0,0,0,.178.422,2.682,2.682,0,0,1,1.62,1.833A.33.33,0,0,0,132.714,192.924Z" transform="translate(-84.023 -116.918)"/><path class="b" d="M56.5,258.11,40.55,248.9v-2.509l15.856-6.638,15.948,6.694v2.514Z" transform="translate(-19.955 -117.983)"/><path class="c" d="M56.5,253.16,40.55,243.952,56.406,234.8l15.948,9.208Z" transform="translate(-19.955 -115.547)"/><path class="b" d="M60.292,253.095,48.27,246.152l11.945-6.892L72.237,246.2Z" transform="translate(-23.755 -117.742)"/><path class="c" d="M62.186,253.06,52.13,247.254l9.99-5.764,10.056,5.8Z" transform="translate(-25.654 -118.84)"/><path class="c" d="M81.229,306.223h-.061a.32.32,0,0,1-.254-.376,3.316,3.316,0,0,1,2.032-2.311.315.315,0,0,1,.416.178.32.32,0,0,1-.178.416,2.682,2.682,0,0,0-1.62,1.833A.325.325,0,0,1,81.229,306.223Z" transform="translate(-59.593 -172.673)"/><path class="c" d="M86.234,309.3h-.061a.32.32,0,0,1-.259-.376,3.337,3.337,0,0,1,2.032-2.311.323.323,0,1,1,.239.6,2.682,2.682,0,0,0-1.62,1.833A.325.325,0,0,1,86.234,309.3Z" transform="translate(-62.054 -174.19)"/><path class="c" d="M91.236,312.373h-.061a.33.33,0,0,1-.259-.376,3.327,3.327,0,0,1,2.032-2.311.321.321,0,1,1,.244.594,2.682,2.682,0,0,0-1.625,1.833.32.32,0,0,1-.33.259Z" transform="translate(-64.516 -175.699)"/><path class="c" d="M96.238,315.484h-.061a.315.315,0,0,1-.254-.376,3.327,3.327,0,0,1,2.032-2.311.325.325,0,0,1,.244.6,2.666,2.666,0,0,0-1.62,1.833.325.325,0,0,1-.34.254Z" transform="translate(-66.979 -177.236)"/><path class="c" d="M101.239,318.563h-.061a.32.32,0,0,1-.254-.376,3.316,3.316,0,0,1,2.032-2.311.32.32,0,0,1,.422.178.325.325,0,0,1-.178.422,2.666,2.666,0,0,0-1.62,1.833A.325.325,0,0,1,101.239,318.563Z" transform="translate(-69.441 -178.746)"/><path class="c" d="M137.686,306.224h.061a.325.325,0,0,0,.259-.376,3.327,3.327,0,0,0-2.032-2.311.32.32,0,1,0-.239.594,2.682,2.682,0,0,1,1.62,1.833.325.325,0,0,0,.33.259Z" transform="translate(-86.476 -172.675)"/><path class="c" d="M132.65,309.29h.061a.32.32,0,0,0,.259-.376,3.337,3.337,0,0,0-2.032-2.311.325.325,0,1,0-.244.6,2.682,2.682,0,0,1,1.625,1.833A.32.32,0,0,0,132.65,309.29Z" transform="translate(-83.98 -174.177)"/><path class="c" d="M127.676,312.373h.061a.32.32,0,0,0,.254-.376,3.316,3.316,0,0,0-2.032-2.311.321.321,0,1,0-.244.594,2.682,2.682,0,0,1,1.625,1.833A.315.315,0,0,0,127.676,312.373Z" transform="translate(-81.545 -175.699)"/><path class="c" d="M122.674,315.474h.061a.315.315,0,0,0,.254-.376,3.327,3.327,0,0,0-2.032-2.311.325.325,0,0,0-.422.178.32.32,0,0,0,.178.422,2.682,2.682,0,0,1,1.62,1.833A.325.325,0,0,0,122.674,315.474Z" transform="translate(-79.082 -177.226)"/><path class="c" d="M117.675,318.564h.066a.325.325,0,0,0,.254-.376,3.327,3.327,0,0,0-2.032-2.311.32.32,0,0,0-.416.178.325.325,0,0,0,.178.422,2.666,2.666,0,0,1,1.62,1.833A.325.325,0,0,0,117.675,318.564Z" transform="translate(-76.628 -178.747)"/><path class="b" d="M277.333,142.54l-15.953-9.208v-2.514l15.851-6.638,15.953,6.7v2.509Z" transform="translate(-128.629 -61.109)"/><path class="c" d="M277.333,137.59l-15.953-9.208,15.851-9.152,15.953,9.213Z" transform="translate(-128.629 -58.673)"/><path class="b" d="M281.117,137.525,269.1,130.587l11.94-6.9,12.022,6.938Z" transform="translate(-132.429 -60.868)"/><path class="c" d="M283.011,137.49l-10.051-5.805,9.99-5.764L293,131.72Z" transform="translate(-134.328 -61.966)"/><path class="c" d="M302.055,190.654h-.061a.325.325,0,0,1-.259-.376,3.327,3.327,0,0,1,2.032-2.311.325.325,0,0,1,.422.178.33.33,0,0,1-.183.422,2.667,2.667,0,0,0-1.62,1.833A.32.32,0,0,1,302.055,190.654Z" transform="translate(-168.263 -115.801)"/><path class="c" d="M307.058,193.754H307a.315.315,0,0,1-.254-.376,3.311,3.311,0,0,1,2.031-2.311.325.325,0,0,1,.244.6,2.682,2.682,0,0,0-1.625,1.833A.325.325,0,0,1,307.058,193.754Z" transform="translate(-170.727 -117.331)"/><path class="c" d="M312.059,196.823H312a.32.32,0,0,1-.254-.376,3.316,3.316,0,0,1,2.032-2.311.32.32,0,0,1,.422.178.33.33,0,0,1-.178.422,2.651,2.651,0,0,0-1.62,1.833.325.325,0,0,1-.34.254Z" transform="translate(-173.188 -118.835)"/><path class="c" d="M317.058,199.914H317a.315.315,0,0,1-.254-.376,3.327,3.327,0,0,1,2.032-2.311.325.325,0,0,1,.422.178.32.32,0,0,1-.178.422,2.682,2.682,0,0,0-1.64,1.813A.33.33,0,0,1,317.058,199.914Z" transform="translate(-175.648 -120.357)"/><path class="c" d="M322.065,203.006H322a.325.325,0,0,1-.259-.376,3.327,3.327,0,0,1,2.032-2.311.325.325,0,0,1,.239.6,2.666,2.666,0,0,0-1.62,1.833A.325.325,0,0,1,322.065,203.006Z" transform="translate(-178.111 -121.886)"/><path class="c" d="M358.505,190.653h.061a.32.32,0,0,0,.254-.376,3.316,3.316,0,0,0-2.032-2.311.32.32,0,0,0-.422.178.325.325,0,0,0,.178.422,2.666,2.666,0,0,1,1.62,1.833A.325.325,0,0,0,358.505,190.653Z" transform="translate(-195.14 -115.799)"/><path class="c" d="M353.537,193.756h.066a.32.32,0,0,0,.254-.376,3.337,3.337,0,0,0-2.032-2.311.325.325,0,0,0-.239.6,2.682,2.682,0,0,1,1.62,1.833.33.33,0,0,0,.33.254Z" transform="translate(-192.716 -117.334)"/><path class="c" d="M348.465,196.808h.061a.325.325,0,0,0,.259-.376,3.327,3.327,0,0,0-2.032-2.311.325.325,0,1,0-.239.6,2.666,2.666,0,0,1,1.62,1.833A.32.32,0,0,0,348.465,196.808Z" transform="translate(-190.183 -118.821)"/><path class="c" d="M343.465,199.9h.061a.315.315,0,0,0,.254-.376,3.311,3.311,0,0,0-2.032-2.311.325.325,0,1,0-.244.6,2.682,2.682,0,0,1,1.661,1.813.325.325,0,0,0,.3.274Z" transform="translate(-187.723 -120.344)"/><path class="c" d="M338.5,202.993h.061a.32.32,0,0,0,.254-.376,3.317,3.317,0,0,0-2.032-2.311.32.32,0,0,0-.422.178.325.325,0,0,0,.178.422,2.651,2.651,0,0,1,1.62,1.833A.325.325,0,0,0,338.5,202.993Z" transform="translate(-185.292 -121.872)"/><g class="i" transform="translate(44.973 112.538)"><path class="c" d="M89.048,233.8l-.5-.889,14.18-7.908,11.366,5.226,15.551-8.654.5.889-16.009,8.9-11.361-5.226Z" transform="translate(-88.55 -221.58)"/></g><g class="i" transform="translate(48.335 106.815)"><path class="c" d="M95.652,219.813l-.482-.894,11.681-6.267,5.693,2.478,6.648-4.82.594.823-7.121,5.16-5.77-2.514Z" transform="translate(-95.17 -210.31)"/></g><g class="i" transform="translate(106.488 109.298)"><path class="c" d="M221.448,242.961,209.67,236.78,229.4,223.966l-18.131-7.832.4-.935,19.874,8.583-19.863,12.905,10.244,5.368Z" transform="translate(-209.67 -215.2)"/></g><g class="i" transform="translate(39.325 69.297)"><path class="c" d="M87.115,161.2,77.43,155.8,110.5,136.44l.513.879-31.54,18.457,7.644,4.266,17.761-9.675,10.727,5.9-.493.889-10.239-5.627Z" transform="translate(-77.43 -136.44)"/></g></g></svg>