<svg xmlns="http://www.w3.org/2000/svg" xmlns:xlink="http://www.w3.org/1999/xlink" width="192" height="159.063" viewBox="0 0 192 159.063"><defs><style>.a,.f{fill:#00a859;}.a{opacity:0.18;}.b{fill:#fff;}.c{fill:url(#a);}.d{fill:#ffbbab;}.e{fill:#282328;}.g{fill:#473f47;}.h{fill:#020202;opacity:0.1;}.i{fill:#e0a194;}.j{fill:url(#b);}.k{fill:#fc682d;}.l{fill:url(#c);}.m{fill:url(#d);}</style><linearGradient id="a" x1="0.535" y1="2.695" x2="0.457" y2="-1.749" gradientUnits="objectBoundingBox"><stop offset="0.01"/><stop offset="0.13" stop-opacity="0.69"/><stop offset="0.25" stop-opacity="0.322"/><stop offset="1" stop-opacity="0"/></linearGradient><linearGradient id="b" x1="-0.523" y1="0.365" x2="1.915" y2="0.676" xlink:href="#a"/><linearGradient id="c" x1="6.798" y1="-0.001" x2="-8.7" y2="1.232" xlink:href="#a"/><linearGradient id="d" x1="-2.733" y1="1.258" x2="3.494" y2="-0.097" xlink:href="#a"/></defs><g transform="translate(0.015 -0.006)"><path class="a" d="M140.291,10.137c-6.09-2.886-12.924-3.846-19.661-4.089-15.668-.571-32.9,3.422-42.3,15.977-3.255,4.347-5.347,9.426-7.738,14.3a122.744,122.744,0,0,1-19.58,28.734c-5.221,5.711-11,10.943-15.668,17.124-10.8,14.354-14.774,34-8.956,51.013s21.87,30.417,39.788,31.741c10.751.794,21.334-2.477,32.009-3.988,23.659-3.346,47.571,1.981,71.412,3.654,8.875.622,18.2.652,26.141-3.351,14.152-7.127,19.6-24.741,19.949-40.591.824-37.715-19.161-70.346-49.613-91.018C157.187,23.6,150.1,14.792,140.291,10.137Z" transform="translate(-23.72 -5.99)"/><path class="b" d="M214.616,69.514a9.371,9.371,0,0,1-2.926,6.818,9.841,9.841,0,0,1-5.838,2.648,9.007,9.007,0,0,1-1.228.056l-68.511-1.395a10.087,10.087,0,0,1-9.982-9.922,9.355,9.355,0,0,1,2.921-6.8,9.922,9.922,0,0,1,7.076-2.7l2.325.045a19.015,19.015,0,0,1-.763-5.221A18.5,18.5,0,0,1,143.456,39.6a19.388,19.388,0,0,1,5.56-3.674,19.808,19.808,0,0,1,8.385-1.653l5.823.121A20.243,20.243,0,0,1,180.7,45.081a11.979,11.979,0,0,1,5.378-1.147l1.516.03a11.985,11.985,0,0,1,11.847,11.772V56.3a10.948,10.948,0,0,1-.465,3.169l5.671.121A10.1,10.1,0,0,1,214.616,69.514Z" transform="translate(-74.376 -19.973)"/><path class="c" d="M205.852,105.059a9.006,9.006,0,0,1-1.228.056l-68.511-1.395A10.087,10.087,0,0,1,126.13,93.8a9.355,9.355,0,0,1,2.921-6.8c-2.694,16.912,14.961,14.5,14.961,14.5h44.513Z" transform="translate(-74.376 -46.052)"/><path class="b" d="M107.276,180.56l-.066-.04.187.035Z" transform="translate(-65.019 -92.304)"/><path class="b" d="M109.45,180.81l-1.87-.334,2.022-.116C109.5,180.648,109.45,180.81,109.45,180.81Z" transform="translate(-65.202 -92.225)"/><path class="b" d="M117.656,129.268l-1.1,5.438-1.516.505L111.464,146q-1.011,3-1.991,6.01a7.506,7.506,0,0,1-.794,2.244c-.435.526-.965.379-1.516.4l-.915.04a.758.758,0,0,0,.116.076l-.359-.071-.505-.086.283-.733,7.46-19.525v-2.527l2.805-3.316Z" transform="translate(-64.173 -66.587)"/><path class="d" d="M68.894,269.422a5.1,5.1,0,0,0-1.764,1.324,3.619,3.619,0,0,0-.612,2.057,6.187,6.187,0,0,0,1.627,4.326.874.874,0,0,0,.505.334.778.778,0,0,0,.455-.116,3.417,3.417,0,0,0,1.405-2.022,7.536,7.536,0,0,1,.97-2.33c.965-1.259,4.6-2.466,2.866-4.6C72.917,266.592,70.3,268.669,68.894,269.422Z" transform="translate(-44.893 -135.409)"/><path class="e" d="M84.839,230.1a50.541,50.541,0,0,1,2.977,5.494c1.516,3.316,1.557,6.126-.981,8.9a42.477,42.477,0,0,1-7.531,6.985,3.183,3.183,0,0,1-2.249.718,2.37,2.37,0,0,1-1.516-2.841,7.321,7.321,0,0,1,1.835-3.033c1.3-1.552,4.736-4.711,4.043-6.707-.95-2.664-3.74-4.65-5.14-7.076a1.051,1.051,0,0,1-.2-.834c.071-.217-.763-1.9-.576-2.022,1.82-1.294,4.822-.844,6.9-1.663a1.269,1.269,0,0,1,.662-.131,1.289,1.289,0,0,1,.743.637Q84.308,229.287,84.839,230.1Z" transform="translate(-49.324 -115.728)"/><path class="f" d="M64.868,272.72s-1.011.076-1.294.738-.839,6.308,2.76,8.148.505-5.15.505-5.15Z" transform="translate(-43.334 -137.903)"/><path class="b" d="M67.58,271.144a.687.687,0,0,1,.182.874,2.825,2.825,0,0,0,.308,2.724c.7.839,1.976.677,2.214,1.147s-.662,4.043-1.516,4.635-2.158-.354-2.952-1.734-1.39-5.054-.945-6.065A3.34,3.34,0,0,1,67.58,271.144Z" transform="translate(-44.004 -137.121)"/><path class="d" d="M103.919,268.881a5.1,5.1,0,0,0,.081,2.2,3.614,3.614,0,0,0,1.344,1.678,6.2,6.2,0,0,0,4.483,1.127.915.915,0,0,0,.571-.238.768.768,0,0,0,.162-.44,3.4,3.4,0,0,0-.874-2.315,7.581,7.581,0,0,1-1.36-2.123c-.505-1.516.586-5.186-2.153-4.978C103.863,263.964,104.076,267.3,103.919,268.881Z" transform="translate(-63.35 -133.484)"/><path class="g" d="M74.47,232.09a51.108,51.108,0,0,1,6.207.682c3.6.627,5.924,2.209,6.758,5.873a42.912,42.912,0,0,1,1.456,10.169,3.1,3.1,0,0,1-.692,2.254A2.338,2.338,0,0,1,85,250.695a7.478,7.478,0,0,1-1.451-3.235c-.536-1.956-1.173-6.571-3.22-7.127-3.477-.935-7.076,1.2-10.5-.182a15.623,15.623,0,0,1-3.452-1.784,6.409,6.409,0,0,1-2.34-3.033,7.2,7.2,0,0,1-.318-2,8.051,8.051,0,0,1,.071-1.673c.116-.637.222-.561.874-.546a28.564,28.564,0,0,1,3.275.248C70.124,231.63,72.277,231.989,74.47,232.09Z" transform="translate(-43.505 -117.324)"/><path class="f" d="M102.228,278.78s-.505.874-.126,1.486,4.706,4.281,8.269,2.37-3.952-3.341-3.952-3.341Z" transform="translate(-62.423 -140.9)"/><path class="b" d="M102.994,274.537a.682.682,0,0,1,.824.349,2.846,2.846,0,0,0,2.421,1.3c1.082-.1,1.678-1.238,2.2-1.168s2.947,2.846,2.947,3.882-1.516,1.572-3.1,1.435-4.968-1.744-5.519-2.669A3.378,3.378,0,0,1,102.994,274.537Z" transform="translate(-62.678 -138.785)"/><path class="b" d="M95.5,197.458c-.051.844-.323,1.587-1.056,1.83l-.192.051c-1.35.273-3.124-.758-4.362-1.658a17.26,17.26,0,0,1-1.476-1.2V187.43l6.571,6.732A10.346,10.346,0,0,1,95.5,197.458Z" transform="translate(-55.721 -95.722)"/><path class="b" d="M76.124,195.561c0,.42.051.849.056,1.274,0,2.34-.546,4.751.152,7.041a2.583,2.583,0,0,1,.2,1.567,1.956,1.956,0,0,1-.981.94,19.6,19.6,0,0,1-6.768,1.8c-1.749.248-4.23.763-5.848-.177a2.93,2.93,0,0,1-1.142-1.9,35.885,35.885,0,0,1-1.092-7.374c0-.323-.045-.647-.066-.97q-.2-3.361-.136-6.722c.035-1.627.162-3.381,1.223-4.61a11.667,11.667,0,0,1,6.217-3.1,7.111,7.111,0,0,1,2.022-.111,8.642,8.642,0,0,1,2.77.94,4.742,4.742,0,0,1,2.451,1.956,13.985,13.985,0,0,1,1.147,3.71,13.46,13.46,0,0,1,.066,3.634c-.061.6-.217,1.183-.273,1.774C76.129,195.343,76.124,195.45,76.124,195.561Z" transform="translate(-41.908 -93.627)"/><path class="h" d="M66.075,212.013c-.677.2-2.239-.42-2.76-.505-.313-.056-.6-.212-.9-.288-1.547-.384-1.729-4.736-1.88-5.9a83.676,83.676,0,0,1-1.056-9.406,10.437,10.437,0,0,1,.409-3.538,4.084,4.084,0,0,1,2.325-2.578,1.137,1.137,0,0,1,.682-.076c.945.243,1.142,1.794,1.3,2.552a4.763,4.763,0,0,0,1.663,3.068c2.446,1.744,6.571.45,9.214,0a1.238,1.238,0,0,1,.718.025.884.884,0,0,1,.379,1.011,5.019,5.019,0,0,1-.505,1.056c-.632,1.274-.465,2.785-.819,4.16a7.743,7.743,0,0,1-2.982,4.043,32.941,32.941,0,0,1-4.438,2.557,3.25,3.25,0,0,0-.93.652,2.1,2.1,0,0,0-.45,1.405c0,.323.414,1.314.293,1.516A.425.425,0,0,1,66.075,212.013Z" transform="translate(-41.402 -96.843)"/><path class="d" d="M76.368,173.332a1.516,1.516,0,0,1-.95.475,5.1,5.1,0,0,1-.92,0h-.172a.177.177,0,0,0-.126,0,.2.2,0,0,0-.056.136,10.7,10.7,0,0,0-.035,1.845h0l.03.334a.458.458,0,0,1-.4.591,2.946,2.946,0,0,1-.834.142,3.73,3.73,0,0,1-1.693-.6,17.135,17.135,0,0,0-.167-3.139,16.3,16.3,0,0,1-.4-4.043,2.608,2.608,0,0,1,.551-1.466,2.654,2.654,0,0,1,2.022-.718,5.055,5.055,0,0,1,2.739.753c.3.2.339.465.409.809.1.505.187,1.066.248,1.6s.1,1.223.111,1.84A2.092,2.092,0,0,1,76.368,173.332Z" transform="translate(-46.918 -85.561)"/><path class="g" d="M72.056,165.4a1.87,1.87,0,0,1-.561.162,4.614,4.614,0,0,0-1.486.207A2.022,2.022,0,0,0,69,168.249c-.263.1-.308-.379-.505-.571s-.662.066-.692.394a2.022,2.022,0,0,0,.323.925,2.76,2.76,0,0,1,.121,1.835c-.04.142-.147.313-.288.273s-.243-.278-.334-.384a3.6,3.6,0,0,0-.455-.465c-.42-.369-.566-.642-1.188-.561a1.6,1.6,0,0,1-.874,0c-.273-.116-.44-.505-.222-.713-.546-.071-.783-.753-.708-1.294a2.345,2.345,0,0,1,.293-.859,2.294,2.294,0,0,0,.273-.505,4.043,4.043,0,0,0,0-1.1,1.814,1.814,0,0,1,1.112-1.516,4.139,4.139,0,0,1,1.926-.268.612.612,0,0,0,.344-.051.718.718,0,0,0,.2-.243,2.8,2.8,0,0,1,2.835-1.264,4.842,4.842,0,0,1,1.89.95,1.289,1.289,0,0,1,.44.45,1.314,1.314,0,0,1,.081.627,10.438,10.438,0,0,1-.111,1.051.505.505,0,0,1-.187.369c-.157.091-.344,0-.505-.04a1.117,1.117,0,0,0-.708.116Z" transform="translate(-43.729 -83.066)"/><path class="i" d="M76.213,180h-.172a.177.177,0,0,0-.126,0,.2.2,0,0,0-.056.136,10.7,10.7,0,0,0-.035,1.845h0a2.466,2.466,0,0,1-1.7-2.613,10.266,10.266,0,0,0,2.072.617Z" transform="translate(-48.649 -91.735)"/><path class="b" d="M105.573,200.518a12.974,12.974,0,0,1-3.159,3.149,6.252,6.252,0,0,1-2.967,1.066,1.036,1.036,0,0,1-.414-.045,1.1,1.1,0,0,1-.571-.394,3.326,3.326,0,0,1-.763-1.875c-.071-1.8,1.88-2.856,1.88-2.856s4.453-1.42,4.979-1.188c.293.126.566.753.758,1.294C105.472,200.124,105.573,200.518,105.573,200.518Z" transform="translate(-60.314 -101.122)"/><path class="h" d="M102.424,201.809a12.974,12.974,0,0,1-3.159,3.149,6.252,6.252,0,0,1-2.967,1.066,1.036,1.036,0,0,1-.414-.045l-.192.051c-1.35.273-3.124-.758-4.362-1.658v-.025l.414-2.709a10.7,10.7,0,0,0,2.79,2.072,4.044,4.044,0,0,0,2.391.44,2.476,2.476,0,0,0,.642-.2,20.833,20.833,0,0,0,4.584-2.992C102.323,201.415,102.424,201.809,102.424,201.809Z" transform="translate(-57.165 -102.413)"/><path class="f" d="M99.018,183.808c-.192.505-1.9,1.213-1.9,1.213L95.51,190.03s-6.459,18.3-7.738,19.206c-.692.505-2.067.2-3.376-.374a10.615,10.615,0,0,1-2.744-1.648c-1.193-1.107,6.121-18.12,6.121-18.12l2.527-6.818a3.3,3.3,0,0,1,0-2.76c.283-.874,1.83-.819,3.487-.425a12.233,12.233,0,0,1,4.458,1.931A3.073,3.073,0,0,1,99.018,183.808Z" transform="translate(-52.313 -91.463)"/><path class="j" d="M92.412,186.451a4.16,4.16,0,0,1-.677,1.739,7.248,7.248,0,0,1-1.516,1.951,5.144,5.144,0,0,0-.874.733,5.383,5.383,0,0,0-.6,1.425,3.877,3.877,0,0,1-2.1,2.168c-1.668,2.78-1.779,6.181-2.345,9.376a15.375,15.375,0,0,0-.384,3.033A4.549,4.549,0,0,0,84.4,208.9a10.615,10.615,0,0,1-2.744-1.683c-1.193-1.107,6.121-18.12,6.121-18.12l2.527-6.818a3.3,3.3,0,0,1,0-2.76c.283-.874,1.83-.819,3.487-.425l-.162.425.505.086-1.759.081a1.2,1.2,0,0,0-.6.136.829.829,0,0,0-.278.354,1.985,1.985,0,0,0,1.011,2.249,22.324,22.324,0,0,1,2.33,1.319l-2.7-.278a.506.506,0,0,0-.3,0,.561.561,0,0,0-.167.222c-.1.2-.2.4-.293.6a.409.409,0,0,0-.061.238c0,.157.2.227.339.3A1.622,1.622,0,0,1,92.412,186.451Z" transform="translate(-52.313 -91.463)"/><path class="d" d="M93.274,190.441l.172-.263c.071-.116.187-.243.313-.2s.142.227.253.293a.313.313,0,0,0,.182.025,10.069,10.069,0,0,1,1.7.061.935.935,0,0,1,.794.556,1.274,1.274,0,0,1-.03.687,3.422,3.422,0,0,1-.687,1.577,3.568,3.568,0,0,1-1.132.718,3.957,3.957,0,0,0-1.011.581c-.4.263-.7.667-1.1.95a1.152,1.152,0,0,1-1.688-1.552l.6-.92Z" transform="translate(-56.911 -96.978)"/><rect class="b" width="6.682" height="15.729" rx="3.341" transform="translate(17.221 94.131) rotate(-19.53)"/><path class="b" d="M72.6,199.593l7.359-4.013,2.841,3.245s-9.265,9.32-12,8.951-1.582-3.27-1.582-3.27S68.181,201.387,72.6,199.593Z" transform="translate(-46.106 -99.752)"/><path class="d" d="M109.66,193.233a1.516,1.516,0,0,0-.505,1.708,2.1,2.1,0,0,0,.182.546,2.254,2.254,0,0,0,.47.536l.425.384a.43.43,0,0,0,.177.121.349.349,0,0,0,.374-.162,1.051,1.051,0,0,0,.131-.414,7.8,7.8,0,0,0,.369-2.785C111,192.263,110.075,192.763,109.66,193.233Z" transform="translate(-65.938 -98.31)"/><path class="k" d="M314.913,177.16a3.852,3.852,0,0,1,2.593-1.607c2.092-.3,3.765,1.213,4.61,2.992a11.618,11.618,0,0,0,1.547,3.073,7.483,7.483,0,0,0,2.527,1.491,12.706,12.706,0,0,1,5.484,4.23,3.5,3.5,0,0,1,.708,1.875c0,.975-.652,1.88-.581,2.856.081,1.092,1.011,1.9,1.491,2.886a4.044,4.044,0,0,1-.733,4.362,4.888,4.888,0,0,1-4.3,1.395,6.242,6.242,0,0,1-3.9-2.421c-2.022-2.623-2.148-6.495-4.65-8.648-.677-.581-1.547-1.066-1.815-1.926a7.067,7.067,0,0,1-.056-1.88,3.174,3.174,0,0,0-1.638-2.6c-1.491-.8-3.26-.46-3.634-2.608a2.178,2.178,0,0,1,1.112-2.325,3.337,3.337,0,0,0,.591-.278,2.235,2.235,0,0,0,.505-.7A2.022,2.022,0,0,1,314.913,177.16Z" transform="translate(-166.566 -89.829)"/><path class="b" d="M288.126,196.96a.232.232,0,0,0,.066-.04l-.192.04Z" transform="translate(-154.432 -100.415)"/><path class="d" d="M272.049,267.3a5.055,5.055,0,0,1-.91,2.022,3.619,3.619,0,0,1-1.88,1.011,6.212,6.212,0,0,1-4.574-.662.92.92,0,0,1-.44-.435.788.788,0,0,1,0-.47,3.4,3.4,0,0,1,1.688-1.809A7.581,7.581,0,0,0,268,265.505c1.011-1.213,1.42-5.019,3.882-3.791C273.954,262.75,272.489,265.783,272.049,267.3Z" transform="translate(-142.666 -132.341)"/><path class="e" d="M293.163,240.424a50.475,50.475,0,0,0-6-1.734c-3.568-.788-6.318-.2-8.476,2.871a42.1,42.1,0,0,0-5.206,8.855,3.141,3.141,0,0,0-.212,2.35,2.356,2.356,0,0,0,3.093.864,7.684,7.684,0,0,0,2.568-2.441c1.238-1.607,3.584-5.641,5.686-5.373,2.805.354,5.347,2.648,8.036,3.493a1.051,1.051,0,0,0,.854,0c.2-.116,2.022.334,2.108.121.879-2.052-.212-4.888.147-7.076a.932.932,0,0,0-.778-1.264C294.366,240.863,293.78,240.636,293.163,240.424Z" transform="translate(-147.07 -120.917)"/><path class="f" d="M269.9,276.635s.147,1.011-.44,1.425-5.979,2.178-8.552-.945,4.923-1.592,4.923-1.592Z" transform="translate(-140.765 -139.104)"/><path class="b" d="M270.6,272.2a.687.687,0,0,0-.895,0,2.841,2.841,0,0,1-2.729.278c-.965-.505-1.087-1.784-1.592-1.916s-3.806,1.516-4.2,2.477.809,2.022,2.325,2.527,5.262.268,6.121-.379A3.379,3.379,0,0,0,270.6,272.2Z" transform="translate(-141.133 -136.833)"/><path class="d" d="M285.121,285.311a5.135,5.135,0,0,1-.081,2.2,3.6,3.6,0,0,1-1.344,1.7,6.186,6.186,0,0,1-4.483,1.122.859.859,0,0,1-.571-.238.738.738,0,0,1-.162-.435,3.412,3.412,0,0,1,.874-2.32,7.52,7.52,0,0,0,1.36-2.123c.505-1.516-.586-5.186,2.153-4.979C285.162,280.393,284.949,283.734,285.121,285.311Z" transform="translate(-149.723 -141.619)"/><path class="g" d="M296.507,248.5a51.11,51.11,0,0,0-6.207.682c-3.6.622-5.924,2.209-6.758,5.868a42.95,42.95,0,0,0-1.456,10.169,3.089,3.089,0,0,0,.692,2.254,2.343,2.343,0,0,0,3.194-.369,7.478,7.478,0,0,0,1.451-3.235c.536-1.956,1.173-6.571,3.225-7.132,3.472-.935,7.1,1.2,10.493-.177a15.32,15.32,0,0,0,3.422-1.789,6.373,6.373,0,0,0,2.34-3.007,6.843,6.843,0,0,0,.318-2.022,8.4,8.4,0,0,0-.066-1.673c-.116-.637-.227-.566-.874-.551a29.749,29.749,0,0,0-3.28.248C300.838,248.041,298.685,248.395,296.507,248.5Z" transform="translate(-151.505 -125.435)"/><path class="f" d="M284.194,295.2s.505.869.131,1.481-4.711,4.286-8.274,2.376S280,295.716,280,295.716Z" transform="translate(-148.048 -149.021)"/><path class="b" d="M283.88,290.967a.682.682,0,0,0-.824.349,2.82,2.82,0,0,1-2.416,1.294c-1.082-.1-1.683-1.238-2.2-1.168s-2.947,2.846-2.947,3.882,1.516,1.572,3.1,1.44,4.968-1.749,5.519-2.674A3.308,3.308,0,0,0,283.88,290.967Z" transform="translate(-148.245 -146.911)"/><path class="b" d="M293.16,213.873c.051.844.323,1.582,1.056,1.825a1.206,1.206,0,0,0,.192.056c1.349.268,3.124-.758,4.362-1.658a17.843,17.843,0,0,0,1.476-1.2V203.84l-6.571,6.737a10.5,10.5,0,0,0-.516,3.3Z" transform="translate(-156.984 -103.837)"/><path class="b" d="M282.31,216.938a12.975,12.975,0,0,0,3.159,3.149,6.368,6.368,0,0,0,2.967,1.066,1.041,1.041,0,0,0,.414-.051,1.1,1.1,0,0,0,.571-.394,3.3,3.3,0,0,0,.763-1.875c.071-1.8-1.88-2.851-1.88-2.851s-4.453-1.42-4.979-1.188c-.293.126-.566.748-.758,1.294C282.411,216.544,282.31,216.938,282.31,216.938Z" transform="translate(-151.618 -109.243)"/><path class="h" d="M282.31,218.229a12.975,12.975,0,0,0,3.159,3.149,6.369,6.369,0,0,0,2.967,1.066,1.041,1.041,0,0,0,.414-.051,1.206,1.206,0,0,0,.192.056c1.349.268,3.124-.758,4.362-1.658v-.03l-.419-2.7a10.741,10.741,0,0,1-2.79,2.067,4,4,0,0,1-2.391.445,2.477,2.477,0,0,1-.642-.2,21.022,21.022,0,0,1-4.584-2.992C282.411,217.835,282.31,218.229,282.31,218.229Z" transform="translate(-151.618 -110.534)"/><path class="d" d="M283.726,209.645a2.057,2.057,0,0,1,.607,1.087,2.021,2.021,0,0,1-.076.622,2.361,2.361,0,0,1-.187.551,2.138,2.138,0,0,1-.47.531l-.419.389a.637.637,0,0,1-.182.121.349.349,0,0,1-.374-.162,1.051,1.051,0,0,1-.131-.414,7.81,7.81,0,0,1-.369-2.79C282.382,208.68,283.312,209.175,283.726,209.645Z" transform="translate(-151.497 -106.428)"/><path class="b" d="M303.721,211.974c0,.419-.051.854-.051,1.279,0,2.34.541,4.751-.157,7.041a2.577,2.577,0,0,0-.2,1.567,1.956,1.956,0,0,0,.981.94,19.633,19.633,0,0,0,6.768,1.8c1.749.243,4.23.763,5.848-.177a2.943,2.943,0,0,0,1.142-1.9,35.594,35.594,0,0,0,1.092-7.379c.025-.323.045-.647.066-.97.131-2.239.182-4.478.136-6.717-.03-1.627-.162-3.381-1.223-4.61-1.41-1.638-4.145-2.719-6.217-3.1a6.935,6.935,0,0,0-2.022-.111,8.592,8.592,0,0,0-2.765.935,4.707,4.707,0,0,0-2.451,1.961,13.777,13.777,0,0,0-1.152,3.7,13.5,13.5,0,0,0-.066,3.639c.066.591.217,1.183.273,1.769C303.716,211.762,303.721,211.868,303.721,211.974Z" transform="translate(-161.985 -101.747)"/><path class="h" d="M313.088,228.441c.677.2,2.239-.42,2.76-.505.313-.056.6-.207.9-.283,1.547-.384,1.729-4.736,1.88-5.909a83.455,83.455,0,0,0,1.056-9.4,10.468,10.468,0,0,0-.409-3.538,4.1,4.1,0,0,0-2.32-2.578,1.238,1.238,0,0,0-.687-.076c-.945.243-1.142,1.8-1.3,2.552a4.816,4.816,0,0,1-1.668,3.073c-2.446,1.739-6.571.45-9.214,0a1.258,1.258,0,0,0-.713.025.9.9,0,0,0-.384,1.011,5.288,5.288,0,0,0,.505,1.056c.632,1.269.465,2.785.824,4.16a7.7,7.7,0,0,0,2.977,4.043,32.714,32.714,0,0,0,4.438,2.557,3.265,3.265,0,0,1,.93.657,2.087,2.087,0,0,1,.45,1.405c0,.323-.414,1.314-.293,1.542a.455.455,0,0,0,.263.207Z" transform="translate(-161.829 -104.972)"/><rect class="f" width="9.3" height="45.863" transform="translate(124.857 92.964) rotate(-24.41)"/><rect class="l" width="3.973" height="33.177" rx="1.986" transform="translate(129.84 97.495) rotate(-24.41)"/><path class="d" d="M313.291,189.756a1.516,1.516,0,0,0,.955.48,5.532,5.532,0,0,0,.915,0h.172a.212.212,0,0,1,.126.025.187.187,0,0,1,.056.136,10.171,10.171,0,0,1,.035,1.84h0l-.03.329a.678.678,0,0,0,.03.349.571.571,0,0,0,.374.243,2.572,2.572,0,0,0,.829.142,3.675,3.675,0,0,0,1.693-.6,17.1,17.1,0,0,1,.167-3.134,16.32,16.32,0,0,0,.4-4.043,2.2,2.2,0,0,0-2.527-2.178,5.054,5.054,0,0,0-2.744.748,1.056,1.056,0,0,0-.4.814,15.96,15.96,0,0,0-.248,1.6c-.071.612-.106,1.223-.116,1.84A2.088,2.088,0,0,0,313.291,189.756Z" transform="translate(-166.773 -93.69)"/><path class="i" d="M317.32,196.4h.172a.212.212,0,0,1,.126.025.187.187,0,0,1,.056.136,10.171,10.171,0,0,1,.035,1.84h0a2.472,2.472,0,0,0,1.7-2.613,10.026,10.026,0,0,1-2.072.612Z" transform="translate(-168.932 -99.856)"/><path class="d" d="M296.534,206.856l-.172-.263c-.071-.111-.187-.238-.313-.192s-.136.222-.253.288a.354.354,0,0,1-.182.03,10.644,10.644,0,0,0-1.7.056.95.95,0,0,0-.794.561,1.279,1.279,0,0,0,.03.687,3.427,3.427,0,0,0,.687,1.572,3.538,3.538,0,0,0,1.132.723,3.857,3.857,0,0,1,1.011.576c.4.268.7.667,1.1.95a1.152,1.152,0,0,0,1.688-1.547l-.6-.925Z" transform="translate(-156.946 -105.099)"/><rect class="b" width="6.682" height="15.729" rx="3.341" transform="translate(153.464 117.25) rotate(-160.47)"/><path class="b" d="M309.465,216.008,302.105,212l-2.835,3.22s9.27,9.345,12,8.976,1.582-3.265,1.582-3.265S313.882,217.807,309.465,216.008Z" transform="translate(-160.006 -107.873)"/><path class="k" d="M316.6,183.048c.541.243,1.157.293,1.678.576s.925.96.612,1.466c.222-.172.581.056.6.339a.723.723,0,0,1-.46.642l.561,1.147a.591.591,0,0,0,.207.273.505.505,0,0,0,.313.051,1.668,1.668,0,0,0,1.183-.834,4.262,4.262,0,0,0,.47-1.41,21.114,21.114,0,0,0,.354-2.815A3.609,3.609,0,0,0,322,181.1a2.962,2.962,0,0,0-1.011-1.294,4.888,4.888,0,0,0-3.442-1.072c-.92.1-2.446.753-2.714,1.769S315.82,182.7,316.6,183.048Z" transform="translate(-167.685 -91.415)"/><g transform="translate(69.429 37.547)"><path class="f" d="M190.365,113.928a2.381,2.381,0,0,1-1.724-.682c-.339-.323-.657-.672-1.011-1.011a2.153,2.153,0,0,0-2.472-.48,2.188,2.188,0,0,0-1.4,2.1q0,.758,0,1.516a2.376,2.376,0,0,1-2.431,2.34H178.5a2.416,2.416,0,0,1-2.456-2.431v-1.516a2.264,2.264,0,0,0-3.811-1.572c-.344.323-.662.672-1.011,1.011a2.456,2.456,0,0,1-3.5-.025c-.692-.682-1.39-1.37-2.072-2.062a2.381,2.381,0,0,1,0-3.482c.318-.329.652-.637.965-.965a2.241,2.241,0,0,0-1.516-3.821h-1.516a2.411,2.411,0,0,1-2.472-2.563V97.6a2.37,2.37,0,0,1,2.239-2.431c.505-.045,1.036,0,1.557,0a2.214,2.214,0,0,0,2.189-1.415,2.173,2.173,0,0,0-.591-2.527c-.308-.308-.627-.612-.925-.93a2.355,2.355,0,0,1,0-3.341c.733-.758,1.486-1.516,2.264-2.219a2.441,2.441,0,0,1,3.356.051c.354.339.687.7,1.041,1.011a2.1,2.1,0,0,0,2.391.445,2.133,2.133,0,0,0,1.415-2.022V82.8a2.436,2.436,0,0,1,2.573-2.527h2.654a2.436,2.436,0,0,1,2.527,2.461V84.1a2.269,2.269,0,0,0,3.9,1.592c.313-.308.617-.627.93-.93a2.451,2.451,0,0,1,3.467,0c.728.7,1.44,1.41,2.148,2.128a2.37,2.37,0,0,1,0,3.412c-.344.349-.7.677-1.041,1.011a2.067,2.067,0,0,0-.505,2.254,2.1,2.1,0,0,0,1.85,1.516c.531.056,1.072,0,1.607.03a2.219,2.219,0,0,1,2.36,2.3q.051,1.516,0,3.073a2.264,2.264,0,0,1-2.436,2.345h-1.415a2.128,2.128,0,0,0-1.961,1.44,2.072,2.072,0,0,0,.475,2.34c.339.349.7.677,1.011,1.011a2.381,2.381,0,0,1,0,3.417c-.7.723-1.42,1.43-2.138,2.138A2.416,2.416,0,0,1,190.365,113.928ZM172.114,98.967a3.239,3.239,0,1,0-.01,0Z" transform="translate(-161.1 -80.272)"/></g><g transform="translate(105.003 51.408)"><path class="f" d="M251.28,130.462a1.6,1.6,0,0,1-1.168-.46c-.227-.222-.445-.455-.677-.672a1.441,1.441,0,0,0-1.673-.323,1.486,1.486,0,0,0-.95,1.415v1.011a1.607,1.607,0,0,1-1.648,1.582h-1.916a1.633,1.633,0,0,1-1.663-1.643v-1.011a1.446,1.446,0,0,0-.965-1.37,1.415,1.415,0,0,0-1.612.3c-.233.217-.45.455-.682.677a1.663,1.663,0,0,1-2.37,0c-.47-.46-.94-.925-1.405-1.395a1.617,1.617,0,0,1,0-2.36c.217-.217.445-.425.657-.652a1.415,1.415,0,0,0,.329-1.607,1.441,1.441,0,0,0-1.365-.975H233.16a1.633,1.633,0,0,1-1.673-1.734v-1.82A1.607,1.607,0,0,1,233,117.781h1.056a1.516,1.516,0,0,0,1.481-.955,1.471,1.471,0,0,0-.4-1.713c-.212-.212-.425-.414-.632-.632a1.6,1.6,0,0,1,0-2.259q.743-.773,1.516-1.516a1.648,1.648,0,0,1,2.274.035c.238.227.46.47.7.692a1.415,1.415,0,0,0,1.617.3,1.435,1.435,0,0,0,.955-1.375V109.4a1.653,1.653,0,0,1,1.744-1.7H245.1a1.648,1.648,0,0,1,1.718,1.663q0,.462,0,.925a1.516,1.516,0,0,0,2.638,1.1l.632-.627a1.653,1.653,0,0,1,2.345,0c.505.475.975.955,1.451,1.44a1.6,1.6,0,0,1,0,2.31c-.227.232-.475.455-.7.692a1.405,1.405,0,0,0-.339,1.516,1.43,1.43,0,0,0,1.253,1.011,9.742,9.742,0,0,0,1.087,0,1.516,1.516,0,0,1,1.6,1.562q.03,1.041,0,2.077a1.516,1.516,0,0,1-1.653,1.587h-.955a1.435,1.435,0,0,0-1.329.975,1.4,1.4,0,0,0,.323,1.582c.227.238.47.46.7.7a1.612,1.612,0,0,1,0,2.31c-.475.505-.965.965-1.451,1.446A1.617,1.617,0,0,1,251.28,130.462Zm-12.353-10.109a5.254,5.254,0,1,0,0-.015Z" transform="translate(-231.484 -107.695)"/></g><path class="f" d="M158.892,62.623h-.6V51.351H147.09v-.6h11.8Z" transform="translate(-72.753 -25.096)"/><path class="f" d="M178.951,67.919h-.6V61.46h20.6v.6H178.951Z" transform="translate(-88.213 -30.393)"/><path class="f" d="M221.741,92.7h-.6V84.146H211.45v-.6h10.291Z" transform="translate(-104.584 -41.318)"/><path class="f" d="M243.786,68.133a1.516,1.516,0,1,1,1.516-1.516A1.547,1.547,0,0,1,243.786,68.133Zm0-2.482a.94.94,0,1,0,.94.94.94.94,0,0,0-.94-.94Z" transform="translate(-131.815 -35.221)"/><path class="f" d="M166.876,57.423a1.516,1.516,0,1,1,1.516-1.516,1.547,1.547,0,0,1-1.516,1.516Zm0-2.482a.94.94,0,1,0,.94.94A.94.94,0,0,0,166.876,54.941Z" transform="translate(-93.778 -29.924)"/><path class="f" d="M231.607,90.213a1.516,1.516,0,1,1,1.516-1.542A1.547,1.547,0,0,1,231.607,90.213Zm0-2.482a.945.945,0,1,0,.68.268.94.94,0,0,0-.68-.268Z" transform="translate(-125.791 -46.141)"/><path class="m" d="M154.721,61.76l-4.973-1.9a19.014,19.014,0,0,1-.748-5.2,18.5,18.5,0,0,1,5.767-13.439,19.389,19.389,0,0,1,5.56-3.674C146.559,49.362,154.721,61.76,154.721,61.76Z" transform="translate(-85.687 -21.596)"/><path class="f" d="M275.682,170.111a8.931,8.931,0,1,1-15.522-6.03l1.693,3.73,1.911,4.2,6.682-3.033-1.921-4.236-1.617-3.538A8.921,8.921,0,0,1,275.682,170.111Z" transform="translate(-139.506 -82.749)"/><path class="f" d="M321.632,268.591a8.855,8.855,0,0,1-2.2,5.888l-3.75-8.284L309,269.228l3.771,8.284H312.7a8.936,8.936,0,1,1,8.931-8.934Z" transform="translate(-162.226 -131.434)"/></g></svg>