<svg xmlns="http://www.w3.org/2000/svg" xmlns:xlink="http://www.w3.org/1999/xlink" width="191.899" height="205.967" viewBox="0 0 191.899 205.967"><defs><style>.a,.h,.j{fill:#00a859;}.a{opacity:0.24;}.b{fill:url(#a);}.c{fill:url(#b);}.d{fill:url(#c);}.e{fill:url(#d);}.f{fill:#feba7b;}.g{fill:url(#e);}.i{fill:#fff;}.j{opacity:0.16;}.k{fill:url(#f);}.l{fill:url(#g);}.m{fill:url(#h);}.n{fill:url(#i);}.o{fill:url(#j);}.p{fill:url(#k);}.q{fill:url(#l);}.r{fill:url(#m);}.s{opacity:0.48;fill:url(#n);}</style><linearGradient id="a" x1="0.496" y1="-3.722" x2="0.521" y2="23.242" gradientUnits="objectBoundingBox"><stop offset="0" stop-color="#010101" stop-opacity="0"/><stop offset="0.95" stop-color="#010101"/></linearGradient><linearGradient id="b" x1="0.492" y1="0.5" x2="1.492" y2="0.5" gradientUnits="objectBoundingBox"><stop offset="0" stop-color="#fff" stop-opacity="0"/><stop offset="0.14" stop-color="#fff" stop-opacity="0.22"/><stop offset="0.3" stop-color="#fff" stop-opacity="0.451"/><stop offset="0.45" stop-color="#fff" stop-opacity="0.651"/><stop offset="0.6" stop-color="#fff" stop-opacity="0.8"/><stop offset="0.73" stop-color="#fff" stop-opacity="0.91"/><stop offset="0.85" stop-color="#fff" stop-opacity="0.98"/><stop offset="0.94" stop-color="#fff"/></linearGradient><linearGradient id="c" x1="0.156" y1="0.5" x2="1.156" y2="0.5" xlink:href="#b"/><linearGradient id="d" x1="0.156" y1="0.5" x2="1.156" y2="0.5" xlink:href="#b"/><linearGradient id="e" x1="-0.314" y1="0.749" x2="1.753" y2="0.121" xlink:href="#a"/><linearGradient id="f" x1="0.495" y1="0.115" x2="0.525" y2="2.561" xlink:href="#a"/><linearGradient id="g" x1="-0.435" y1="0.424" x2="4.094" y2="0.74" xlink:href="#a"/><linearGradient id="h" x1="0.198" y1="-0.861" x2="1.607" y2="3.449" xlink:href="#a"/><linearGradient id="i" x1="0.524" y1="-0.733" x2="0.444" y2="3.323" xlink:href="#a"/><linearGradient id="j" x1="0.525" y1="-0.732" x2="0.444" y2="3.324" xlink:href="#a"/><linearGradient id="k" x1="0.418" y1="0.061" x2="0.814" y2="1.567" xlink:href="#a"/><linearGradient id="l" x1="1.039" y1="0.265" x2="-1.383" y2="1.015" xlink:href="#a"/><linearGradient id="m" x1="-0.263" y1="1.292" x2="2.596" y2="-1.735" xlink:href="#a"/><linearGradient id="n" x1="0.156" y1="0.5" x2="1.156" y2="0.5" xlink:href="#b"/></defs><g transform="translate(0.032 -0.008)"><path class="a" d="M252.318,135.833c.437,20.114-16.118,36.009-31.417,49.127a1.273,1.273,0,0,1-.166.149l-20.7,17.473a39.389,39.389,0,0,1-8.575,5.684c-13.6,6.712-30.7,6.1-46.35,5.05-12.6-.875-26.918-2.654-34.194-13-2.361-3.384-3.721-7.412-6.283-10.647-3.673-4.666-9.379-7.149-14.548-10.057a63.066,63.066,0,0,1-18.12-15.479c-9.594-12.016-14.473-27.3-9.668-41.54.074-.24.166-.485.258-.73,2.93-8.05,8.614-14.784,12.615-22.362,12.886-24.281,9.117-57.347,29.406-75.94,9.834-9.008,23.485-12.506,36.7-14.255,13.787-1.828,27.985-2.06,41.453,1.342,27.622,6.922,50.329,30.1,57.373,57.6a68.882,68.882,0,0,1,1.618,8.129c1.281,9.318.914,18.868,2.851,28.077.533,2.488,1.22,4.928,1.985,7.368C249.025,119.76,252.152,127.569,252.318,135.833Z" transform="translate(-60.46 -7.99)"/><path class="b" d="M253.118,240.46H118.03v5.794H254.837Z" transform="translate(-66.438 -135.311)"/><path class="c" d="M316.217,189.373l-.38,1.312H184.22V145.8H309.763a68.881,68.881,0,0,1,1.618,8.129c1.281,9.318.914,18.868,2.851,28.077C314.765,184.493,315.452,186.933,316.217,189.373Z" transform="translate(-130.122 -85.536)"/><rect class="d" width="14.342" height="2.991" transform="translate(113.255 74.729)"/><rect class="e" width="14.342" height="10.403" transform="translate(113.255 87.296)"/><path class="f" d="M204.253,177.176c1.4-3.008,2.3-6.249,3.865-9.183,3.1-5.789,8.745-10.114,10.892-16.323,2.584,1.036,3.45,4.329,3.166,7.1s-1.36,5.461-1.229,8.242a39.489,39.489,0,0,1,26.065-9c2.283.066,4.753.437,6.358,2.046a10.125,10.125,0,0,1,2.112,4.233c1.224,3.879,2.462,7.963,1.657,11.946a13.221,13.221,0,0,0-.582,3.708c.157,1.71,1.312,3.463.595,5.02a18.4,18.4,0,0,0-.988,1.631c-.385,1.115.367,2.278.525,3.446.324,2.348-1.749,4.32-3.809,5.483-6.122,3.446-13.389,4.088-20.018,6.419-21.339,7.495-29.428,3.03-29.673,2.265-1.675-5.151-5.12-11.627-5.492-17.01C197.445,183.529,202.675,180.56,204.253,177.176Z" transform="translate(-137.702 -88.839)"/><path class="g" d="M237.72,209.36c-1.049,1.714,1.395,3.747,2.449,5.457a4.088,4.088,0,0,0,4.661,2.545,12.572,12.572,0,0,0,5.269-1c2.479-1.272,3.817-3.992,4.854-6.581,3.061-7.626,4.915-16.179,2.4-24.019-.721-2.256-1.981-4.574-4.185-5.444-2.138-.84-4.543-.083-6.655.818-1.224.525-3.564,1.15-4.246,2.374C241.664,184.6,244.887,197.663,237.72,209.36Z" transform="translate(-160.085 -104.757)"/><path class="h" d="M127.743,251.089a2.943,2.943,0,0,1-1.281,1.128c-9.484,5.645-36.525,18.1-44.942,25.226-3.008,2.562-6.025,5.247-9.519,7.031q-1.312-1.644-2.514-3.384a.345.345,0,0,0-.048-.061c-7.871-11.408-11.469-25.182-7.106-38.086,2.851-.271,8.553-4.373,10.752-5.4,8.081-3.721,34.435-12.873,42.979-15.4a3.188,3.188,0,0,1,2.269-.1,3.371,3.371,0,0,1,1.237,1.417,65.611,65.611,0,0,1,7.473,20.333c.367,1.876.638,3.782.84,5.684a2.943,2.943,0,0,1-.14,1.618Z" transform="translate(-60.475 -128.34)"/><rect class="h" width="33.853" height="61.234" rx="10.56" transform="translate(82.297 55.183)"/><rect class="i" width="30.434" height="51.046" transform="translate(84.002 59.053)"/><circle class="j" cx="9.93" cy="9.93" r="9.93" transform="translate(88.668 63.063)"/><rect class="h" width="21.334" height="6.804" rx="3.402" transform="translate(87.658 96.124)"/><path class="i" d="M266.342,234.969a3.057,3.057,0,0,0,.022.437h-.621a3.034,3.034,0,0,0,.022-.437v-1.421H265v-.538a3.416,3.416,0,0,0,.437,0h1.237a3.793,3.793,0,0,0,.437,0v.538a3.91,3.91,0,0,0-.437,0h-.319Z" transform="translate(-175.58 -134.612)"/><path class="i" d="M271.725,235.416a2.9,2.9,0,0,0-.14-.437c-.087-.249-.122-.31-.192-.372a.3.3,0,0,0-.219-.079h-.289v.464a2.849,2.849,0,0,0,.022.437H270.3a2.587,2.587,0,0,0,.026-.437v-1.526a2.883,2.883,0,0,0-.026-.415h1.172a.634.634,0,0,1,.721.643.617.617,0,0,1-.166.464.713.713,0,0,1-.267.14c.144.044.21.109.3.31.044.087.083.184.21.49.031.079.066.149.136.3Zm-.4-1.369a.249.249,0,0,0,.271-.262c0-.157-.092-.241-.267-.241h-.437v.5Z" transform="translate(-178.563 -134.634)"/><path class="i" d="M277,235.444a2.327,2.327,0,0,0-.066-.3l-.079-.24h-.8l-.074.24a1.579,1.579,0,0,0-.07.3h-.66a2.328,2.328,0,0,0,.136-.341l.608-1.7a1.541,1.541,0,0,0,.092-.3h.735a2.683,2.683,0,0,0,.1.3l.612,1.7c.052.149.1.262.136.341Zm-.551-1.863-.262.844h.533Z" transform="translate(-181.348 -134.663)"/><path class="i" d="M282.555,234.239a3.414,3.414,0,0,1,.2.337v-1.058a2.866,2.866,0,0,0-.026-.437h.6a2.987,2.987,0,0,0-.022.437v1.5a3.685,3.685,0,0,0,.022.437h-.621a2.931,2.931,0,0,0-.21-.359l-.52-.787a3.277,3.277,0,0,1-.206-.345,3.286,3.286,0,0,1,.022.437v.634a3.013,3.013,0,0,0,0,.437h-.6a2.823,2.823,0,0,0,0-.437v-1.482a3.022,3.022,0,0,0,0-.437h.612a1.748,1.748,0,0,0,.2.35Z" transform="translate(-184.696 -134.651)"/><path class="i" d="M287.223,234.6a.372.372,0,0,0,.07.21.411.411,0,0,0,.332.136c.214,0,.345-.1.345-.258a.21.21,0,0,0-.118-.2,2.461,2.461,0,0,0-.437-.114,1.177,1.177,0,0,1-.437-.162.647.647,0,0,1-.271-.542c0-.437.35-.708.905-.708a.918.918,0,0,1,.783.319.8.8,0,0,1,.14.341l-.595.066c-.035-.184-.136-.262-.35-.262s-.3.1-.3.223a.192.192,0,0,0,.136.179,1.661,1.661,0,0,0,.389.1,1.347,1.347,0,0,1,.437.157.634.634,0,0,1,.306.577.721.721,0,0,1-.2.52,1.041,1.041,0,0,1-.743.236,1.342,1.342,0,0,1-.63-.136.656.656,0,0,1-.3-.363.976.976,0,0,1-.066-.262Z" transform="translate(-187.747 -134.585)"/><path class="i" d="M292.366,234.931a3.2,3.2,0,0,0,.022.49h-.608a2.62,2.62,0,0,0,.026-.481v-1.469a2.733,2.733,0,0,0,0-.411h1.229a3.188,3.188,0,0,0,.472,0v.538a3.988,3.988,0,0,0-.472-.022h-.647v.464h.529a2.987,2.987,0,0,0,.437,0v.525a3.771,3.771,0,0,0-.437-.022h-.529Z" transform="translate(-190.65 -134.64)"/><path class="i" d="M298,235.443a2.934,2.934,0,0,0-.463,0h-1.29a2.561,2.561,0,0,0,0-.411v-1.561a2.878,2.878,0,0,0,0-.411h1.316a3.635,3.635,0,0,0,.437,0v.529a3.629,3.629,0,0,0-.437,0h-.735V234h1.045v.52a3.6,3.6,0,0,0-.437-.022h-.608v.477h.726a3.88,3.88,0,0,0,.459,0Z" transform="translate(-193.166 -134.64)"/><path class="i" d="M302.345,235.416a3.287,3.287,0,0,0-.136-.437c-.092-.249-.127-.31-.2-.372a.3.3,0,0,0-.219-.079h-.289v.464a2.853,2.853,0,0,0,.022.437h-.608a2.587,2.587,0,0,0,.026-.437v-1.526a2.887,2.887,0,0,0-.026-.415h1.168c.459,0,.721.236.721.643a.617.617,0,0,1-.166.464.682.682,0,0,1-.267.14c.144.044.21.109.3.31.044.087.083.184.21.49.031.079.066.149.136.3Zm-.4-1.369a.245.245,0,0,0,.267-.262c0-.157-.092-.241-.267-.241h-.437v.5Z" transform="translate(-195.794 -134.634)"/><rect class="k" width="21.334" height="6.804" rx="3.402" transform="translate(87.658 96.124)"/><path class="l" d="M301.012,191.542c.341.529.905.918,1.1,1.517.345,1.089-.7,2.1-.962,3.214-.407,1.749,1.137,3.4.979,5.164-.114,1.342-1.194,2.584-.875,3.887-1.312-1.915-4.613-1.1-5.776.918s-.831,4.521-.437,6.813c.437,2.4,1.22,5.164,3.5,6.008,1.718.63,3.6-.118,5.278-.853q-1.229-4.5-2.239-9.056a11.95,11.95,0,0,1,5.816,1.421,23.444,23.444,0,0,0,.739-7.1l.022-16.384v-8.457c0-1.688,1.045-1.81-.2-2.864-1.609,2.654-6.537,1.255-6.786,4.4-.171,2.121,1.312,3.673.783,5.89C301.589,187.79,299.867,189.745,301.012,191.542Z" transform="translate(-192.278 -102.401)"/><path class="f" d="M339.173,298.873a2.264,2.264,0,0,1-.761.625c-2.654,1.552-5.492,3.17-8.575,3.157-4.526-.031-5.182,3.782-8.264.472-4.071-4.373-12.125-13.393-15.89-18.046-3.205-3.935-4.316-7.9-4.652-12.991a11.084,11.084,0,0,1,.4-4.959c.332-.875,2.042-4.438,2.44-5.308a6.625,6.625,0,0,0,.24-.625,9.643,9.643,0,0,0-.363-6.327h0A22.01,22.01,0,0,0,302,251.18c-1.906-3.249-4.272-6.45-4.548-10.188a3.95,3.95,0,0,1,.643-2.759,3.294,3.294,0,0,1,4.04-.533,9.412,9.412,0,0,1,3.083,3.113c2.361,3.4,4.574,6.891,6.6,10.494a4.934,4.934,0,0,1,4.972-1.631,8.09,8.09,0,0,1,4.482,3.035,8.457,8.457,0,0,0,2.488,2.65,15.928,15.928,0,0,0,2.82.778c3.384,1.01,4.88,4.836,6.467,7.993a62.327,62.327,0,0,1,3.5,7.062,25.876,25.876,0,0,1,1.141,7.35c.275,6.209-.153,12.536,1.5,18.531A2.268,2.268,0,0,1,339.173,298.873Z" transform="translate(-193.831 -137.001)"/><path class="m" d="M334.36,367.157c1.7,1.688,5.383,6.091,7.084,7.779a6.429,6.429,0,0,0,2.624,1.854c.875.245-.2-2.593.691-2.742,4.294-.717,11.264-1.893,15.261-3.621l-.7-3.218c-1.356-.721-7.1.4-8.745.481q-4.145.205-8.308.057C340.845,367.7,335.366,368.154,334.36,367.157Z" transform="translate(-214.611 -209.995)"/><path class="h" d="M379.728,388.238a1.273,1.273,0,0,1-.166.149l-18.929,15.956-1.749,1.5a39.388,39.388,0,0,1-8.575,5.684C345.6,399.476,342.67,376.7,342.67,376.7l2.519-.748,22.873-6.725Z" transform="translate(-219.288 -211.268)"/><rect class="h" width="44.474" height="23.232" transform="translate(127.519 74.681)"/><path class="n" d="M397.546,189.4v9.3c-1.981.048-3.577,2.073-3.577,4.574a1.956,1.956,0,0,0,0,.319H362.906a1.962,1.962,0,0,0,0-.319c0-2.523-1.618-4.574-3.612-4.574a3.06,3.06,0,0,0-.774.114v-9.528a3.061,3.061,0,0,0,.774.114c1.994,0,3.594-2.025,3.612-4.552h31.046C393.986,187.347,395.587,189.349,397.546,189.4Z" transform="translate(-228.207 -107.511)"/><rect class="h" width="44.474" height="23.232" transform="translate(131.17 66.714)"/><path class="o" d="M405.891,171.159v9.309c-1.977.044-3.577,2.068-3.577,4.574a1.571,1.571,0,0,0,.022.319H371.256a1.949,1.949,0,0,0,0-.319c0-2.527-1.618-4.574-3.612-4.574a2.856,2.856,0,0,0-.774.114v-9.524a2.855,2.855,0,0,0,.774.114c1.994,0,3.594-2.025,3.612-4.552H402.3C402.345,169.126,403.932,171.128,405.891,171.159Z" transform="translate(-232.906 -97.252)"/><path class="f" d="M246.126,159.4a13.1,13.1,0,0,0,.2-7.342,8.837,8.837,0,0,0-2.16-4.373,1.657,1.657,0,0,0-1.093-.582c-.8,0-1.268.875-1.539,1.627q-1.705,4.727-3.1,9.563a15.155,15.155,0,0,0-.8,4.609c.079,2.685,1.557,4.771,3.97,2.654A15.7,15.7,0,0,0,246.126,159.4Z" transform="translate(-160.178 -86.267)"/><path class="f" d="M312.875,171.8a3.663,3.663,0,0,0-2.567,3.328,3.745,3.745,0,0,0,1.985,2.917,11.115,11.115,0,0,0,3.5,1.1,6.738,6.738,0,0,0-4.985,3.621,3.864,3.864,0,0,0,.275,4.325,4.01,4.01,0,0,0,1.364.875,8.185,8.185,0,0,0,2.742.625,4.2,4.2,0,0,0-4.294,3.76,3.767,3.767,0,0,0,4.032,3.817,3.379,3.379,0,0,0-3.612,2.519,4.311,4.311,0,0,0,1.6,4.285,6,6,0,0,0,4.574,1.058,2.9,2.9,0,0,0,2.073-1.115,3.6,3.6,0,0,0,.232-2.348c-1.032-8.907,2.51-17.823.289-26.6-.293-1.146-2.287-2.055-3.411-2.379A6.786,6.786,0,0,0,312.875,171.8Z" transform="translate(-201.063 -99.945)"/><path class="p" d="M133,279.179a2.943,2.943,0,0,1-1.281,1.128c-9.484,5.645-36.525,18.1-44.942,25.226-3.008,2.562-6.025,5.247-9.519,7.031a23.036,23.036,0,0,1-2.514-3.384.344.344,0,0,0-.048-.061,100.367,100.367,0,0,1-4.9-9.1c9.672,1.067,61.418-28.217,61.418-28.217a3.532,3.532,0,0,1,1.084.061c.367,1.876.638,3.782.84,5.684a2.943,2.943,0,0,1-.14,1.635Z" transform="translate(-65.734 -156.43)"/><path class="q" d="M360.633,412.333l-1.749,1.5a39.384,39.384,0,0,1-8.575,5.684c-4.709-12.047-7.639-34.819-7.639-34.819l2.519-.748a28.74,28.74,0,0,1,3.214-.516c1.893,4.193,3.769,8.387,5.278,12.751.9,2.624,1.679,5.273,2.685,7.871a45.9,45.9,0,0,0,3.861,7A3.061,3.061,0,0,1,360.633,412.333Z" transform="translate(-219.288 -219.259)"/><path class="r" d="M317.133,293.815a1.526,1.526,0,0,1-.289,1.067c-.5.516-1.355.136-1.95-.275-1.391-.931-2.868-2.016-3.205-3.647a6.834,6.834,0,0,1,.109-2.361c.2-1.312.319-2.672.393-4.027a2.808,2.808,0,0,0-.092-.7,9.643,9.643,0,0,0-.363-6.327c1.662,3.231,3.52,8.1,3.874,8.981A20.455,20.455,0,0,1,317.133,293.815Z" transform="translate(-201.822 -159.671)"/><path class="h" d="M217.91,200.741h5.068l-.931-1.351H223.2l1.823,2.23h-7Z" transform="translate(-122.644 -112.199)"/><path class="h" d="M225.024,207h-5.064l.931,1.351h-1.154l-1.828-2.23h7Z" transform="translate(-122.644 -115.986)"/><path class="h" d="M282.285,173.406v-1.53a4.4,4.4,0,0,1-2.335-.673l.367-1.019a4.084,4.084,0,0,0,2.186.656c1.084,0,1.819-.63,1.819-1.5s-.595-1.36-1.749-1.819c-1.557-.612-2.519-1.312-2.519-2.624a2.471,2.471,0,0,1,2.3-2.457V160.9h.949v1.482a4.1,4.1,0,0,1,1.985.533l-.385,1.01a3.669,3.669,0,0,0-1.92-.52c-1.176,0-1.618.7-1.618,1.312,0,.8.564,1.189,1.889,1.749,1.574.643,2.37,1.434,2.37,2.794a2.652,2.652,0,0,1-2.414,2.593v1.587Z" transform="translate(-183.993 -94.033)"/><path class="h" d="M407.6,184.484v-1.539a4.464,4.464,0,0,1-2.335-.673l.363-1.023a4.075,4.075,0,0,0,2.186.656c1.084,0,1.819-.625,1.819-1.5s-.595-1.36-1.727-1.815c-1.557-.612-2.519-1.312-2.519-2.624a2.478,2.478,0,0,1,2.3-2.462V171.97h.958v1.482a4.018,4.018,0,0,1,1.985.533l-.385,1.006a3.668,3.668,0,0,0-1.92-.52c-1.176,0-1.622.7-1.622,1.312,0,.791.568,1.189,1.893,1.749,1.574.638,2.37,1.434,2.37,2.794a2.655,2.655,0,0,1-2.414,2.593v1.587Z" transform="translate(-254.509 -100.263)"/><rect class="s" width="14.342" height="16.695" transform="translate(116.836 66.723)"/><rect class="s" width="14.342" height="11.299" transform="translate(116.836 78.953)"/></g></svg>