<svg xmlns="http://www.w3.org/2000/svg" xmlns:xlink="http://www.w3.org/1999/xlink" width="624" height="311" viewBox="0 0 624 311"><defs><style>.a{fill:url(#a);}.b{fill:#006837;}.c{fill:url(#b);}.d{fill:url(#c);}.e{fill:url(#d);}.f{fill:#373737;}.g{fill:#fff;}.h{fill:url(#e);}.i{fill:url(#f);}.j{fill:url(#g);}.k{fill:url(#h);}.l{fill:url(#i);}.m{fill:url(#j);}.n{fill:url(#k);}.o{fill:#4d4d4d;}.p{fill:#5e605b;}.q{fill:#dabe6e;}.r{fill:url(#l);}.s{fill:url(#m);}.t{fill:url(#n);}.u{fill:#fad67a;}.v{fill:url(#o);}.w{fill:url(#p);}.ak,.x{fill:#ccc;}.x{opacity:0.5;}.y{fill:url(#q);}.z{fill:#c5aa29;}.aa{fill:url(#r);}.ab{fill:url(#s);}.ac{fill:url(#t);}.ad{fill:url(#u);}.ae{fill:#00a26d;}.af{fill:#005362;}.ag{fill:#e6e6e6;}.ah{fill:#004754;}.ai{fill:#ff7f27;}.aj{fill:#008357;}.al{fill:#ffed79;}.am{fill:#ffd880;}.an{fill:#e5b790;}.ao{fill:#fcc79b;}.ap{fill:#f46606;}.aq{fill:#e6cec6;}.ar{fill:#0056a6;}.as{fill:#e69376;}.at{fill:#4c9ebf;}.au{fill:#231f20;}.av{fill:#000714;}.aw{fill:#f6a382;}.ax{fill:#e69575;}.ay{fill:#08101b;}.az{fill:#e0856e;}.ba{fill:#f79f7d;}.bb{fill:#e98a6f;}.bc{fill:#4fa5c9;}.bd{fill:#4691b0;}.be{fill:#79cfe1;}.bf{fill:#370900;}.bg{fill:#101a26;}.bh{fill:#00b8c4;}.bi{fill:#d2e7f1;}.bj{fill:#c3a17e;}.bk{fill:#d6b088;}.bl{fill:#c98168;}.bm{fill:#c93132;}.bn{fill:#24365f;}.bo{fill:#ddbd8f;}.bp{fill:#3b2314;}.bq{fill:#010b18;}.br{fill:#2b070c;}.bs{fill:#00010f;}.bt{fill:#08141f;}.bu{fill:#d0d2d3;}.bv{fill:#e6e7e8;}.bw,.by{fill:none;stroke-miterlimit:10;}.bw{stroke:#e6e7e8;stroke-width:2.948px;}.bx{fill:#471f08;}.by{stroke:#bbbdbf;stroke-width:4.823px;}.bz{fill:#1f3038;}.ca{fill:#b0775f;}.cb{fill:#0087cd;}.cc{fill:#0071ab;}.cd{fill:#f9bc8f;}.ce{fill:#05d88c;}</style><linearGradient id="a" x1="0.413" y1="0.168" x2="0.585" y2="0.751" gradientUnits="objectBoundingBox"><stop offset="0.159" stop-color="#00a26d"/><stop offset="1" stop-color="#008075"/></linearGradient><linearGradient id="b" x1="0.642" y1="0.937" x2="0.425" y2="0.271" gradientUnits="objectBoundingBox"><stop offset="0" stop-color="#fff"/><stop offset="1" stop-color="#939598"/></linearGradient><linearGradient id="c" x1="0.5" y1="0.984" x2="0.5" y2="0.262" gradientUnits="objectBoundingBox"><stop offset="0.299" stop-color="#fff"/><stop offset="0.428" stop-color="#e6e6e7"/><stop offset="0.685" stop-color="#b9babc"/><stop offset="0.884" stop-color="#9d9fa2"/><stop offset="1" stop-color="#939598"/></linearGradient><linearGradient id="d" x1="0.541" y1="0.902" x2="0.475" y2="0.219" gradientUnits="objectBoundingBox"><stop offset="0" stop-color="#fff"/><stop offset="0.902" stop-color="#888a8d"/></linearGradient><linearGradient id="e" x1="0.643" y1="0.937" x2="0.426" y2="0.271" xlink:href="#b"/><linearGradient id="f" x1="0.5" y1="0.984" x2="0.5" y2="0.262" xlink:href="#c"/><linearGradient id="g" x1="0.541" y1="0.902" x2="0.475" y2="0.219" xlink:href="#d"/><linearGradient id="h" x1="0.642" y1="0.937" x2="0.425" y2="0.271" xlink:href="#b"/><linearGradient id="i" x1="0.5" y1="0.984" x2="0.5" y2="0.262" xlink:href="#c"/><linearGradient id="j" x1="0.541" y1="0.902" x2="0.475" y2="0.219" xlink:href="#d"/><linearGradient id="k" x1="0.5" y1="0.096" x2="0.5" y2="1.192" xlink:href="#c"/><linearGradient id="l" x1="-0.116" y1="0.248" x2="1.102" y2="0.746" xlink:href="#c"/><linearGradient id="m" x1="0.389" y1="0.05" x2="0.597" y2="0.915" xlink:href="#d"/><linearGradient id="n" x1="0.588" y1="0.852" x2="0.43" y2="0.12" xlink:href="#b"/><linearGradient id="o" x1="0.516" y1="0.614" x2="0.473" y2="0.258" gradientUnits="objectBoundingBox"><stop offset="0" stop-color="#fff"/><stop offset="0.768" stop-color="#888a8d"/></linearGradient><linearGradient id="p" x1="-0.001" y1="0.499" x2="0.999" y2="0.499" xlink:href="#c"/><linearGradient id="q" x1="0" y1="0.5" x2="1.001" y2="0.5" xlink:href="#b"/><linearGradient id="r" x1="0.275" y1="0.203" x2="0.707" y2="0.743" gradientUnits="objectBoundingBox"><stop offset="0" stop-color="#fff9b8"/><stop offset="1" stop-color="#faca79"/></linearGradient><linearGradient id="s" x1="0.276" y1="0.202" x2="0.707" y2="0.743" xlink:href="#r"/><linearGradient id="t" x1="0.276" y1="0.203" x2="0.707" y2="0.743" xlink:href="#r"/><linearGradient id="u" x1="0.276" y1="0.202" x2="0.708" y2="0.741" xlink:href="#r"/></defs><path class="a" d="M413.11,58.92,282.46,91.73c-3.32.89-4.51-1.04-4.51-1.04l-26.09-37.8c-.55-1.51,1.69-2.22,1.69-2.22L369.31,26.9Z"/><path class="b" d="M282.46,91.73c-3.32.89-4.51-1.04-4.51-1.04L251.9,52.95a1.285,1.285,0,0,0-.04.99l26.09,37.8s1.19,1.93,4.51,1.04L413.11,59.96V58.92Z"/><path class="c" d="M369.66,21.81l-20.1,5.07V39.35l20.1-5.06Z"/><path class="d" d="M342.26,33.79l7.3,5.52V26.84l-7.3-5.52Z"/><path class="e" d="M360.84,16.7l8.82,5.11-20.1,5.07-7.3-5.53Z"/><path class="f" d="M363.53,26.81l-.38.09V25.55l5.34-2.53v.42l-4.96,2.35Z"/><path class="f" d="M342.26,21.35l.71.54.35.27v1.49l-1.06-.85Z"/><path class="f" d="M349.56,26.88l-1.21-.91v1.55l1.21.95Z"/><path class="f" d="M342.88,25.86v.31l5.67,4.29v-.3Z"/><path class="g" d="M342.88,26.17v.31l5.67,4.29v-.31Z"/><path class="f" d="M342.88,30.58v.31l5.67,4.29v-.3Z"/><path class="g" d="M342.88,30.89v.31l5.67,4.29v-.31Z"/><path class="h" d="M383.6,29.73l-22.43,5.65V49.29l22.43-5.65Z"/><path class="i" d="M353.03,43.09l8.14,6.16V35.34l-8.14-6.16Z"/><path class="j" d="M373.77,24.03l9.83,5.7-22.43,5.65-8.14-6.16Z"/><path class="f" d="M376.76,35.3l-.42.11V33.9l5.96-2.82v.47l-5.54,2.62Z"/><path class="f" d="M353.03,29.22l.79.6.4.3v1.66l-1.19-.94Z"/><path class="f" d="M361.17,35.38l-1.34-1.01v1.72l1.34,1.07Z"/><path class="f" d="M353.73,34.25v.34l6.33,4.79v-.34Z"/><path class="g" d="M353.73,34.59v.34l6.33,4.79v-.34Z"/><path class="f" d="M353.73,39.51v.35l6.33,4.78V44.3Z"/><path class="g" d="M353.73,39.86v.34l6.33,4.79v-.35Z"/><path class="k" d="M402.05,38.67l-31.26,7.87V65.93l31.26-7.88Z"/><path class="l" d="M359.44,57.28l11.35,8.59V46.48l-11.35-8.59Z"/><path class="m" d="M388.34,30.72l13.71,7.95-31.26,7.87-11.35-8.59Z"/><path class="f" d="M373.83,49.91l-3.11-3.15.45-.44,2.85,2.89,10.67-2.93,1.73-4.06,14.89-3.84.16.61-14.58,3.76-1.72,4.05Z"/><rect class="f" width="0.63" height="3.91" transform="matrix(0.602, -0.799, 0.799, 0.602, 360.767, 39.509)"/><rect class="f" width="0.63" height="3.91" transform="matrix(0.602, -0.799, 0.799, 0.602, 365.111, 42.791)"/><path class="n" d="M379.32,63.78l-3.28.82V49.31l3.28-.9Z"/><path class="o" d="M336.86,48.82l12-2.54,7,4.73-12.73,3.12Z"/><path class="f" d="M343.13,54.13l-6.27-5.31v.64l6.27,5.3,12.73-3.12v-.63Z"/><path class="o" d="M274.18,58.63l18.21-4.05,9.53,8.68-18.79,4.26Z"/><path class="f" d="M283.13,67.52l-8.95-8.89v1.91l8.95,8.9,18.79-4.27V63.26Z"/><path class="g" d="M283.2,68.56l18.67-4.24.05-.01v.43l-18.86,4.28-8.88-8.83v-.52Z"/><path class="p" d="M261.62,59.91V57.34l1.03,1.17-.15.04v1.4l7.47,8.73.5-.38,3.16,3.45h.54v7.58L261.62,62.98Z"/><path class="q" d="M270.99,77.12l-.13-.29.7-.3V74.7h.31v2.03Z"/><path class="q" d="M270.09,76.22l-.13-.29.7-.3V73.8h.32v2.04Z"/><path class="q" d="M269.41,75.33l-.12-.29.69-.31V72.9h.32v2.04Z"/><path class="q" d="M268.8,74.43l-.13-.29.7-.31V72h.32v2.04Z"/><path class="q" d="M268.15,73.38l-.13-.28.7-.31V70.96h.32V73Z"/><path class="q" d="M267.45,72.62l-.12-.29.7-.31V70.19h.31v2.04Z"/><path class="q" d="M266.88,71.75l-.12-.29.7-.3V69.33h.31v2.04Z"/><path class="q" d="M266.27,70.84l-.13-.29.7-.3V68.42h.32v2.03Z"/><path class="q" d="M265.57,69.99l-.13-.29.7-.31V67.56h.32V69.6Z"/><path class="q" d="M264.94,69.09l-.13-.29.7-.31V66.66h.31V68.7Z"/><path class="q" d="M264.26,68.3l-.13-.29.7-.3V65.88h.32v2.03Z"/><path class="q" d="M263.61,67.29l-.13-.29.7-.3V64.86h.32V66.9Z"/><path class="q" d="M262.95,66.61l-.13-.29.7-.31V64.18h.32v2.04Z"/><path class="q" d="M262.39,65.62l-.13-.29.7-.31V63.19h.32v2.04Z"/><path class="q" d="M261.61,64.71l-.13-.29.7-.31V62.28h.32v2.04Z"/><path class="o" d="M273.63,71.4V70.19l3.91-.56v9.01l-3.37.69V71.75h-.54Z"/><path class="f" d="M273.63,70.19l-3.16-3.53V68.3l3.16,3.45Z"/><path class="p" d="M269.97,66.96l.5-.3,3.16,3.53,3.91-.56L264.5,55.23l-3.45.67,2.23,2.45-.78.2Z"/><path class="f" d="M261.05,56.68V55.9l2.23,2.45-.63.16Z"/><path class="f" d="M269.97,68.68V66.96l-7.47-8.41v1.4Z"/><path class="o" d="M270.47,68.3l-.5.38V66.96l.5-.3Z"/><path class="r" d="M306.48,77.25l6.78,6.22V78l-6.78-7.08Z"/><path class="s" d="M325.36,66.2l7.26,7.34-19.36,4.45-6.78-7.08Z"/><path class="t" d="M313.26,83.46V77.99l19.36-4.45v4.77l-2.8,2.85-13.64,3.59Z"/><path class="f" d="M315.41,78.58v1.73l12.7-3.47V75.6Z"/><path class="p" d="M332.25,73.99v3.87l-2.83-3.22Z"/><path class="o" d="M313.7,76.71c-.04-.06-.61-1.39-1.7-3.95a.581.581,0,0,1,.41-.72l.03-.01,1.39-.4a.848.848,0,0,1,.87.34l2.85,3.3-.32.28-2.87-3.32a.422.422,0,0,0-.43-.18l-1.36.39c-.14.06-.18.13-.17.18.64,1.5,1.6,3.75,1.67,3.88Z"/><path class="o" d="M320.38,74.85a1.029,1.029,0,0,1-.81-.38l-3.76-3.91.3-.29,3.79,3.94a.613.613,0,0,0,.54.21l1.65-.42c.05-.04.12-.19.02-.53l-1.24-4.37.41-.12,1.24,4.37c.25.85-.26,1.04-.28,1.05l-1.73.44A.717.717,0,0,1,320.38,74.85Z"/><path class="o" d="M324.88,73.59c-.04-.14-.85-2.27-1.38-3.67l-.01-.03c-.01-.07-.12-.65.28-.87l.03-.02.84-.15a1.045,1.045,0,0,1,1.13.36l3.8,3.28-.28.32-3.85-3.33a.627.627,0,0,0-.68-.23l-.03.01-.77.14a.554.554,0,0,0-.05.39c1.4,3.66,1.4,3.7,1.4,3.75h-.21Z"/><path class="g" d="M316.17,84.88l-2.88-1.3-.14.04V77.93l19.58-4.5v4.94l-2.85,2.9-.03.01Zm-2.81-1.51,2.83,1.28,13.58-3.58,2.75-2.8V73.68l-19.16,4.4v5.29Z"/><path class="f" d="M331.19,35.78h0c-.02.41-.49.6-.49.6L265.78,49.31a4.482,4.482,0,0,1-2.15,0l-2.5-2.37c-.14.1-.18.5-.18.5v2.28a2.652,2.652,0,0,0,.18,1.05l2.2,2.09a3.437,3.437,0,0,0,2.28.16l65.11-13.1s.46-.07.47-1.71Z"/><path class="o" d="M262.15,45.89s-1.23.14-1.02,1.05l2.5,2.37a4.482,4.482,0,0,0,2.15,0L330.7,36.38s1-.38.15-1.31l-1.82-1.65s-.66-.85-2.49-.43Z"/><rect class="u" width="0.92" height="6.75" transform="translate(262.42 40.69)"/><rect class="u" width="0.92" height="6.75" transform="translate(263.93 41.61)"/><rect class="u" width="0.92" height="6.75" transform="translate(265.62 39.88)"/><rect class="u" width="0.92" height="6.75" transform="translate(267.15 40.69)"/><rect class="u" width="0.92" height="6.75" transform="translate(269.16 39.35)"/><rect class="u" width="0.92" height="6.75" transform="translate(270.72 40.2)"/><rect class="u" width="0.92" height="6.75" transform="translate(272.76 38.81)"/><rect class="u" width="0.92" height="6.75" transform="translate(274.27 39.58)"/><rect class="u" width="0.92" height="6.75" transform="translate(275.86 37.92)"/><rect class="u" width="0.92" height="6.75" transform="translate(277.35 38.36)"/><rect class="u" width="0.92" height="6.4" transform="translate(279.52 37.92)"/><rect class="u" width="0.92" height="6.75" transform="translate(281.19 38.24)"/><rect class="u" width="0.92" height="5.33" transform="translate(282.88 37.92)"/><rect class="u" width="0.92" height="6.4" transform="translate(284.37 37.92)"/><rect class="u" width="0.92" height="4.84" transform="translate(286.18 37.89)"/><rect class="u" width="0.92" height="5.78" transform="translate(288.06 37.89)"/><rect class="u" width="0.92" height="4.27" transform="translate(289.91 37.92)"/><rect class="u" width="0.92" height="5.03" transform="translate(291.42 37.92)"/><rect class="u" width="0.92" height="3.84" transform="translate(293.19 37.89)"/><rect class="u" width="0.92" height="6.75" transform="translate(294.63 35.44)"/><rect class="u" width="0.92" height="6.75" transform="translate(303.36 32.06)"/><rect class="u" width="0.92" height="6.75" transform="translate(304.78 32.81)"/><rect class="u" width="0.92" height="6.75" transform="translate(306.51 31.47)"/><rect class="u" width="0.92" height="6.75" transform="translate(308.17 32.06)"/><rect class="u" width="0.92" height="6.75" transform="translate(310.23 30.85)"/><rect class="u" width="0.92" height="6.75" transform="translate(311.65 31.59)"/><rect class="u" width="0.92" height="6.75" transform="translate(313.38 30.25)"/><rect class="u" width="0.92" height="6.75" transform="translate(315.04 30.85)"/><rect class="u" width="0.92" height="6.75" transform="translate(316.82 29.63)"/><rect class="u" width="0.92" height="6.75" transform="translate(318.23 30.38)"/><rect class="u" width="0.92" height="6.75" transform="translate(319.97 29.04)"/><rect class="u" width="0.92" height="6.75" transform="translate(321.63 29.63)"/><rect class="u" width="0.92" height="6.75" transform="translate(323.4 28.32)"/><rect class="u" width="0.92" height="6.75" transform="translate(324.82 29.06)"/><rect class="u" width="0.92" height="6.75" transform="translate(327.15 27.72)"/><rect class="u" width="0.92" height="6.75" transform="translate(328.56 28.32)"/><rect class="u" width="0.92" height="6.75" transform="translate(296.59 33.97)"/><rect class="u" width="0.92" height="6.75" transform="translate(298.01 34.72)"/><rect class="u" width="0.92" height="6.75" transform="translate(299.74 33.38)"/><rect class="u" width="0.92" height="6.75" transform="translate(301.4 33.97)"/><path class="v" d="M290.67,88.79l8.38-2.34a2.043,2.043,0,0,0,.54-2,2.369,2.369,0,0,0-1.73,0c-1.04.35-5.96,1.35-5.96,1.35s-1.77.58-1.77,2.15A.684.684,0,0,0,290.67,88.79Z"/><path class="w" d="M290.14,87.95c0-1.58,1.77-2.15,1.77-2.15s4.92-1,5.96-1.35a2.369,2.369,0,0,1,1.73,0l-3.92-4.57c-.35-.61-1.65-.35-1.65-.35l-5.96,1.5c-1.69.38-.96,3.27-.96,3.27l3.03,3.97A.574.574,0,0,1,290.14,87.95Z"/><path class="f" d="M291.37,84.3s-.83-1.15-1.32,0l.66.77C290.71,85.06,292.21,85.53,291.37,84.3Z"/><path class="f" d="M297.59,82.93s-.83-1.15-1.32,0l.66.77S298.44,84.16,297.59,82.93Z"/><path class="o" d="M353.35,72.38v-6.2l7.21-1.52v5.88Z"/><path class="f" d="M347.42,60.47l6.87-1.64,3.77,3.63.7,1.48L352.5,65.9l-.91,3.11-.77.37-3.4-3.95Z"/><ellipse class="f" cx="2.67" cy="3.1" rx="2.67" ry="3.1" transform="translate(354.53 65.76)"/><ellipse class="p" cx="2.67" cy="3.1" rx="2.67" ry="3.1" transform="translate(355.07 66.01)"/><path class="x" d="M359.19,66.51a3.32,3.32,0,0,1,.95,2.37,2.907,2.907,0,0,1-2.67,3.1,2.423,2.423,0,0,1-1.45-.5,2.451,2.451,0,0,0,1.71.73,2.914,2.914,0,0,0,2.67-3.1A3.227,3.227,0,0,0,359.19,66.51Z"/><path class="o" d="M356.84,69.37a2.243,2.243,0,0,1,1.92-2.36,1.836,1.836,0,0,0-1.09-.37,2.4,2.4,0,0,0,0,4.74.487.487,0,0,0,.12-.01A2.449,2.449,0,0,1,356.84,69.37Z"/><path class="y" d="M350.82,69.72V63.87l2.03.79-1.24-2.48,3.74-.77s2.7,2.06,2.7,1.96v-.92l2.5,2.21-7.22,1.51v6.2Z"/><path class="o" d="M345.59,74.83l-.15-4.97.7-.28V66.64l-3.77,1.24.23,7.9Z"/><path class="p" d="M346.14,66.64l-13.53-11.7-4.15.74,13.91,12.2Z"/><path class="f" d="M342.6,75.78s-.03-7.72-.23-7.89-13.91-12.2-13.91-12.2v5.45Z"/><path class="q" d="M339.72,73.84l-.13-.29.7-.31V71.7h.32v1.75Z"/><path class="q" d="M339.12,73.27l-.12-.29.7-.31V71.13h.31v1.75Z"/><path class="q" d="M338.53,72.7l-.13-.29.7-.31V70.56h.32v1.75Z"/><path class="q" d="M337.93,72.12l-.12-.29.7-.3V69.99h.31v1.74Z"/><path class="q" d="M337.34,71.55l-.13-.29.7-.3V69.42h.32v1.74Z"/><path class="q" d="M336.74,70.98l-.12-.29.69-.31V68.84h.32v1.75Z"/><path class="q" d="M336.15,70.41l-.13-.29.7-.31V68.27h.32v1.75Z"/><path class="q" d="M335.55,69.84l-.12-.29.69-.31V67.7h.32v1.75Z"/><path class="q" d="M334.96,69.2l-.13-.29.7-.3V67.07h.32v1.74Z"/><path class="q" d="M334.36,68.62l-.13-.29.7-.31V66.48h.32v1.75Z"/><path class="q" d="M333.77,68.02l-.13-.29.7-.3V65.89h.31v1.74Z"/><path class="q" d="M333.17,67.39l-.13-.29.7-.31V65.25h.32V67Z"/><path class="q" d="M332.58,66.77l-.13-.29.7-.31V64.63h.31v1.75Z"/><path class="q" d="M331.98,66.17l-.13-.29.7-.31V64.03h.32v1.75Z"/><path class="q" d="M331.39,65.49l-.13-.29.7-.31V63.35h.31V65.1Z"/><path class="q" d="M330.79,64.84l-.13-.29.7-.31V62.7h.32v1.75Z"/><path class="q" d="M330.2,64.27l-.13-.29.7-.31V62.13h.31v1.75Z"/><path class="q" d="M329.6,63.7l-.13-.29.7-.31V61.56h.32v1.75Z"/><path class="z" d="M281.04,86.25s3.84-.6,4.76.79c0,0,1.54,1.69-.92,2.98,0,0-3.2,1.49-5.78.1C279.1,90.12,275.88,88.04,281.04,86.25Z"/><path class="aa" d="M280.93,85.94s3.84-.6,4.76.79c0,0,1.54,1.69-.92,2.98,0,0-3.2,1.49-5.78.1C279,89.81,275.77,87.72,280.93,85.94Z"/><path class="g" d="M279.9,87.72a4.09,4.09,0,0,1,3.35-.74c1.81.5.89,1.56.42,1.69S279.35,90.03,279.9,87.72Z"/><path class="z" d="M284.21,87.56c.35.5-.21,1.06-.54,1.14-.37.1-2.77.87-3.56.12.66.95,3.29.1,3.67,0C284.14,88.74,284.76,88.09,284.21,87.56Z"/><path class="z" d="M364.66,65.95s3.43-.53,4.25.71c0,0,1.37,1.5-.82,2.65,0,0-2.85,1.33-5.15.09C362.93,69.4,360.06,67.54,364.66,65.95Z"/><path class="ab" d="M364.56,65.67s3.43-.53,4.25.71c0,0,1.37,1.5-.82,2.65,0,0-2.85,1.33-5.15.09C362.84,69.12,359.96,67.26,364.56,65.67Z"/><path class="g" d="M363.64,67.26a3.63,3.63,0,0,1,2.99-.66c1.61.44.8,1.39.38,1.5S363.16,69.31,363.64,67.26Z"/><path class="z" d="M367.49,67.12c.31.44-.19.94-.49,1.02-.33.09-2.47.77-3.18.11.59.84,2.93.09,3.27,0S367.98,67.58,367.49,67.12Z"/><path class="z" d="M336.26,35.02s3.43-.53,4.25.71c0,0,1.37,1.5-.82,2.65,0,0-2.85,1.33-5.15.09C334.53,38.47,331.66,36.61,336.26,35.02Z"/><path class="ac" d="M336.16,34.74s3.43-.53,4.25.71c0,0,1.37,1.5-.82,2.65,0,0-2.85,1.33-5.15.09C334.44,38.19,331.56,36.33,336.16,34.74Z"/><path class="g" d="M335.24,36.33a3.63,3.63,0,0,1,2.99-.66c1.61.44.8,1.39.38,1.5S334.76,38.39,335.24,36.33Z"/><path class="z" d="M339.09,36.19c.31.44-.19.94-.49,1.02-.33.09-2.47.77-3.18.11.59.84,2.93.09,3.27,0S339.58,36.66,339.09,36.19Z"/><path class="z" d="M255.96,51.28s3.13-.49,3.88.65c0,0,1.25,1.37-.75,2.43,0,0-2.61,1.21-4.71.08C254.39,54.44,251.76,52.74,255.96,51.28Z"/><path class="ad" d="M255.87,51.03s3.13-.49,3.88.65c0,0,1.25,1.37-.75,2.43,0,0-2.61,1.21-4.71.08C254.3,54.18,251.67,52.48,255.87,51.03Z"/><path class="g" d="M255.03,52.48a3.346,3.346,0,0,1,2.73-.61c1.48.4.73,1.27.34,1.37S254.59,54.36,255.03,52.48Z"/><path class="z" d="M258.55,52.35c.28.4-.17.86-.44.93-.3.08-2.26.71-2.91.1.54.77,2.68.08,2.99,0S259,52.78,258.55,52.35Z"/><path class="g" d="M302.49,53.16a4.451,4.451,0,0,1,5.52-5.13l-1.26,4.94-1.64-2.44-2.03.39,4.29,4.39,3.96-8.8-3.09.59-.19.73a4.9,4.9,0,1,0,2.09,7.46,4.442,4.442,0,0,1-7.65-2.13Z"/><path class="g" d="M320.16,51.8a1.256,1.256,0,0,1-.4.16.242.242,0,0,1-.25-.07.66.66,0,0,1-.1-.29l-.24-1.23.73-.14-.19-.98-.73.14-.25-1.32-1.2.94.12.64-.49.09.19.98.49-.09.23,1.22a2.413,2.413,0,0,0,.27.82.773.773,0,0,0,.42.32,1.761,1.761,0,0,0,.76-.01,3.757,3.757,0,0,0,.9-.29Z"/><path class="g" d="M322.78,49.82a.7.7,0,0,1,.21.44l.37,1.92,1.34-.26-.42-2.21a1.477,1.477,0,0,0-.51-.96,1.145,1.145,0,0,0-.92-.17,1.692,1.692,0,0,0-.61.24,1.658,1.658,0,0,0-.46.51l-.34-1.77-1.33.26.92,4.8,1.33-.26-.32-1.67a1.16,1.16,0,0,1,.02-.69.509.509,0,0,1,.36-.26A.437.437,0,0,1,322.78,49.82Z"/><path class="g" d="M314.3,53.79a2.524,2.524,0,0,0,1.13-.01,2.787,2.787,0,0,0,1.18-.46,1.849,1.849,0,0,0,.58-.89l-1.34.13a.83.83,0,0,1-.19.26.754.754,0,0,1-.36.17.635.635,0,0,1-.55-.13.961.961,0,0,1-.27-.45l2.68-.51-.03-.15a2.446,2.446,0,0,0-.44-1.08,1.59,1.59,0,0,0-.79-.53,2.489,2.489,0,0,0-1.22,0,2.08,2.08,0,0,0-1.35.78,1.816,1.816,0,0,0-.27,1.42,1.875,1.875,0,0,0,.45.95A1.708,1.708,0,0,0,314.3,53.79Zm.14-2.52a.634.634,0,0,1,.46-.35.61.61,0,0,1,.48.08.949.949,0,0,1,.32.52l-1.32.25A.942.942,0,0,1,314.44,51.27Z"/><path class="g" d="M329.03,50.32l-.29-1.54a1.585,1.585,0,0,0-.2-.5,1.045,1.045,0,0,0-.35-.37,1.2,1.2,0,0,0-.66-.16,5.065,5.065,0,0,0-.97.12,3.924,3.924,0,0,0-.68.19,1.681,1.681,0,0,0-.47.25,1.244,1.244,0,0,0-.33.41,1.439,1.439,0,0,0-.11.57l1.3-.11a.544.544,0,0,1,.15-.35.937.937,0,0,1,.47-.2.53.53,0,0,1,.37.03.465.465,0,0,1,.17.32,4.035,4.035,0,0,1-.44.25c-.14.07-.45.2-.93.4a1.584,1.584,0,0,0-.79.55,1,1,0,0,0,.35,1.35,1.4,1.4,0,0,0,1,.11,2.172,2.172,0,0,0,.79-.3,1.648,1.648,0,0,0,.45-.46.717.717,0,0,0,.09.21,1.116,1.116,0,0,0,.14.18l1.25-.24a1.252,1.252,0,0,1-.2-.33A2.64,2.64,0,0,1,329.03,50.32Zm-1.43-.45a.98.98,0,0,1,0,.42.663.663,0,0,1-.22.32.839.839,0,0,1-.39.19.463.463,0,0,1-.34-.04.32.32,0,0,1-.16-.24.341.341,0,0,1,.06-.27,1.413,1.413,0,0,1,.47-.31,4.63,4.63,0,0,0,.54-.29Z"/><rect class="g" width="1.36" height="0.92" transform="translate(310.45 49.665) rotate(-10.842)"/><path class="g" d="M331.95,49.73a.6.6,0,0,1-.39.19.687.687,0,0,1-.41-.03.673.673,0,0,1-.29-.29l-1.3.37a1.223,1.223,0,0,0,.67.67,2.591,2.591,0,0,0,1.41.01,2.9,2.9,0,0,0,1.03-.37,1.289,1.289,0,0,0,.49-.56,1.037,1.037,0,0,0,.07-.62.924.924,0,0,0-.28-.51,1.191,1.191,0,0,0-.57-.29,3.677,3.677,0,0,0-1.03-.02,2.026,2.026,0,0,1-.59-.01.227.227,0,0,1-.17-.17.238.238,0,0,1,.07-.21.6.6,0,0,1,.31-.14.668.668,0,0,1,.4.03.428.428,0,0,1,.21.21l1.24-.36a1.565,1.565,0,0,0-.43-.48,1.254,1.254,0,0,0-.55-.2,3.071,3.071,0,0,0-.93.08,3.412,3.412,0,0,0-.92.3,1.228,1.228,0,0,0-.48.48.982.982,0,0,0,.2,1.16,1.028,1.028,0,0,0,.52.26,6.328,6.328,0,0,0,1.01.04,2.624,2.624,0,0,1,.6.03.233.233,0,0,1,.19.19A.266.266,0,0,1,331.95,49.73Z"/><rect class="g" width="1.36" height="3.54" transform="translate(310.704 50.988) rotate(-10.842)"/><path class="ae" d="M341.19,109.71c-15.22,0-29.44-4.25-39.16-11.68a76.749,76.749,0,0,1-19.28,2.4c-28.11,0-50.99-14.59-50.99-32.52a23.492,23.492,0,0,1,5.26-14.41c-11.16-4.24-17.52-10.4-17.52-17.03,0-12.34,22.55-22.38,50.26-22.38a109.848,109.848,0,0,1,14.89.99C294.83,5.9,316.9,0,341.19,0c34.42,0,62.43,11.81,62.43,26.33a11.611,11.611,0,0,1-.37,2.91c25.26,4.49,42.13,16.77,42.13,30.77,0,17.39-25.94,31.59-59.16,32.47C377.34,103.13,360.16,109.71,341.19,109.71ZM302.64,95.62l.52.41c9.28,7.33,23.14,11.53,38.03,11.53,18.43,0,35.05-6.42,43.36-16.75l.36-.45.62-.01c32.17-.7,57.37-14.02,57.37-30.34,0-13.18-16.65-24.78-41.42-28.88l-1.36-.23.42-1.15a10,10,0,0,0,.61-3.42c0-13.33-26.89-24.18-59.95-24.18-24,0-45.66,5.81-55.18,14.81l-.45.43-.66-.09a106.99,106.99,0,0,0-15.14-1.05c-26.35,0-47.79,9.08-47.79,20.23,0,5.99,6.34,11.67,17.41,15.56l1.48.52-.95,1.12a22.014,22.014,0,0,0-5.68,14.24c0,16.75,21.76,30.37,48.52,30.37a73.855,73.855,0,0,0,19.22-2.48Z"/><rect class="af" width="127.56" height="83.64" transform="translate(15.95 104.98)"/><rect class="ag" width="115.72" height="72.11" transform="translate(21.87 110.75)"/><path class="ag" d="M143.51,188.62H15.95l38.67,20.14H183.04Z"/><path class="ah" d="M54.62,208.76,15.95,188.62v6.31l38.67,20.14H183.04v-6.31Z"/><rect class="g" width="82.08" height="52.3" transform="translate(52.87 127.91)"/><rect class="ae" width="110.43" height="11.99" transform="translate(24.52 113.39)"/><rect class="g" width="19.62" height="7.4" transform="translate(31.14 115.69)"/><rect class="g" width="22.15" height="3.5" transform="translate(57.85 117.64)"/><rect class="g" width="22.15" height="3.5" transform="translate(82.02 117.64)"/><rect class="g" width="22.15" height="3.5" transform="translate(106.18 117.64)"/><rect class="ae" width="33.1" height="1.43" transform="translate(95.23 140.56)"/><rect class="ae" width="27.06" height="3.33" transform="translate(95.23 133.06)"/><rect class="ae" width="33.1" height="1.43" transform="translate(95.23 143.68)"/><rect class="ae" width="33.1" height="1.43" transform="translate(95.23 146.8)"/><rect class="ae" width="33.1" height="1.43" transform="translate(95.23 149.92)"/><rect class="ae" width="33.1" height="1.43" transform="translate(95.23 153.05)"/><rect class="ae" width="13.68" height="1.43" transform="translate(95.23 156.17)"/><circle class="ai" cx="7.72" cy="7.72" r="7.72" transform="translate(57.85 130.41)"/><rect class="g" width="26.24" height="52.3" transform="translate(24.52 127.91)"/><path class="ae" d="M70.32,150.42v29.79H52.87Z"/><path class="aj" d="M70.32,150.42v29.79H87.76Z"/><path class="ag" d="M70.32,150.42v12.72H62.87Z"/><path class="ak" d="M70.32,163.14V150.42l7.45,12.72Z"/><path class="al" d="M81.5,160.92v19.29H70.2Z"/><path class="am" d="M81.5,160.92v19.29H92.8Z"/><path class="ag" d="M81.5,160.92v8.24H76.68Z"/><path class="ak" d="M81.5,169.16v-8.24l4.82,8.24Z"/><rect class="ai" width="14.88" height="4.4" transform="translate(107.65 164.23)"/><path class="an" d="M33.67,177.97s-.11.53,0,.59,3.43,1.05,3.42,1.28c0,0-3.31.84-4.68,0,0,0-.14-1.01.16-1.17a1.716,1.716,0,0,0,.11-.82c-.04-.55.91-.64.91-.64Z"/><path class="an" d="M41.76,173.06l-.07.87s-.52.2-.43,1.41c0,0,2.76,1.16,4.25.62,0,0,.68-.21-2.76-1.69a4.455,4.455,0,0,1,0-1.21C42.84,172.37,41.76,173.06,41.76,173.06Z"/><path class="af" d="M43.28,175.29a1.686,1.686,0,0,0,1.14-.25c1.52.79,1.1.92,1.1.92-1.49.53-4.25-.62-4.25-.62-.09-1.21.43-1.41.43-1.41l.12.59A2.128,2.128,0,0,0,43.28,175.29Z"/><path class="an" d="M39.55,149.3l2.25,5.12a2.155,2.155,0,0,1,1.99,1s-.09.19-.57,0a7.687,7.687,0,0,0,.78,1.42c.28.28-.59.71-1.57-.21a10.307,10.307,0,0,1-1.45-1.52c-.86-1.06-1.33-1.28-1.33-1.86a34.338,34.338,0,0,0-.85-3.62Z"/><path class="an" d="M36.3,139.96l-.27,1.37a1.674,1.674,0,0,0-.09.95,3.222,3.222,0,0,1-.02,1.3c-.06.04-.76.96-1.15.76a4.587,4.587,0,0,1-1.17-1.46,7.122,7.122,0,0,1-.98-2.22,5.268,5.268,0,0,1,0-2.08h2.1Z"/><path class="ao" d="M37.9,136.43l-.21,1.05s.46,6.78-4.34,2.35l-.28-2.13s2.1-2.38,2.15-2.38S37.9,136.43,37.9,136.43Z"/><path class="g" d="M34.07,143.3s1.73.05,1.87-1.01c0,0,1.16.46,1.33.91s2.28,1.68,2.11,4.46L39,153.59a2.5,2.5,0,0,0,.28,1.29c.36.7-1.4,1.43-1.64,1.43s-4.03-.59-4.2-.64a9.45,9.45,0,0,1-1.1-1.06s.23-.25.25-1.34,1.97-4.96,1.92-5.34C34.48,147.56,34.07,143.3,34.07,143.3Z"/><path class="al" d="M32.99,141.65l1.1.64s2.28,1.42,2.28,5.66a30.454,30.454,0,0,1-.6,6.65s-3.06.25-4.48-.93a24.131,24.131,0,0,0-.11-5.55,4.337,4.337,0,0,1,1-3.77l-.39-2.21Z"/><path class="af" d="M39.29,154.88a9.1,9.1,0,0,1-6.94-.26s-1.28,2.29,0,6.35c0,0,.25,14.37,0,17.08,0,0,1.28.78,1.85-.14,0,0,2.17-13.48,2.6-17.22,0,0,3.81,3.34,5.12,3.77,0,0-.71,7.22-.39,9.07,0,0,1.03.39,1.49.18,0,0,2.13-8.82,2.03-10.35A42.226,42.226,0,0,0,39.29,154.88Z"/><path class="af" d="M29.65,145.81a7.747,7.747,0,0,1-.52.76A7.07,7.07,0,0,1,29.65,145.81Z"/><path class="af" d="M37.69,137.48c-.64-.71-.5-1-.5-1-.82,2.13-3.52,2.49-3.52,2.49a1.081,1.081,0,0,1-.32.85c.71.64.75,2.45.75,2.45a2.771,2.771,0,0,0-1.35.28s-1.07-.21-3.1,3.24c-1.89-3.13,2.21-4.45,2.21-4.45a6.314,6.314,0,0,1,1.42-6.58c1.17-1.1,4.3-.82,5.09.71A1.307,1.307,0,0,1,37.69,137.48Z"/><path class="ao" d="M29.65,145.81c2.03-3.45,3.1-3.24,3.1-3.24.46,4.13-1.57,5.55-1.57,5.55a3.533,3.533,0,0,0-1.21,2.56,10.268,10.268,0,0,0,2.56,5.69c.89.57.75.78,1.25,1.42s-.21.6-.21.6c.46,1.03.25,1.42.25,1.42-1.35-.11-1.81-2.31-1.81-2.31a21.964,21.964,0,0,1-3.66-4.38c-1.24-2.61.02-5.29.8-6.57A8.583,8.583,0,0,0,29.65,145.81Z"/><path class="am" d="M35.95,142.29a8.6,8.6,0,0,0,1.96,2.06,3.184,3.184,0,0,1,1.07,3.78,9.048,9.048,0,0,0-.55,2.76c.09.96,0,3.27,0,3.27s1.55.11,1.97-.25a30.809,30.809,0,0,1-.6-4.45c0-1.53-.39-4.02-1.37-5.12,0,0-.55-1.75-1.09-1.78A8.174,8.174,0,0,0,35.95,142.29Z"/><path class="af" d="M33.67,179.34a2.5,2.5,0,0,0,1.9-.16,4.566,4.566,0,0,1,1.51.66s-3.31.84-4.68,0c0,0-.14-1.01.16-1.17C32.57,178.67,32.71,178.99,33.67,179.34Z"/><rect class="ai" width="12.86" height="3.57" transform="translate(37.9 176.64)"/><path class="ao" d="M132.17,101.88l-.44,2.16s.44,2.13,3.33,1.9l-.52-.81a10.673,10.673,0,0,1,3.62,0c1.55.37-1.77-2.46-3.94-2.59C134.22,102.54,131.65,99.81,132.17,101.88Z"/><path class="ae" d="M116.86,97.44l-2.44-.11s-8.12,1.28-9.03,1.66-1.46,4.33-1.35,4.55,1.66,2.55,1.66,2.55,13.87,2.11,17.28-.83c0,0,3.08-2.57,1.25-7.41S116.86,97.44,116.86,97.44Z"/><path class="an" d="M101.85,100.1s-1.29,0-1.26,2.11c0,0,.96,17.01.63,18.04a1.532,1.532,0,0,1-.92,1.07c-.78.3-4.66,1.63-4.66,2.14s2.4.81,5.03,0c0,0,1.04-.43.78.51h.92a1.991,1.991,0,0,0,.48-2.91s1.18-9.58,2-10.83-1.11-5.1-1.11-5.1Z"/><path class="ah" d="M118.55,76.01s-2.24-.48-2.02-2.37c0,0,.83-1.16,1.16,0,0,0-.17,1.94.5,2.55,0,0-.11-2.5.89-2.72,0,0,2.4,2.26,3.46-.63,0,0,.24.98,1.98.41,0,0,1.66.39,1.61-2s-4.81-2.55-4.81-2.55a4.834,4.834,0,0,0-5.67-1.33c-3.44,1.5-2.33,6.82-2.33,6.82a2.57,2.57,0,0,1-.89,2.5c-1.22.78-3.22,1.61-2.5,4.44s1.5,1.11.44,3.44,2.27,4.49,2.27,4.49l2.05-2.77.78-2.38,6.21.55,2.16-2.72s1.28-1.39-2.05-3.22l-3.85,1.94Z"/><path class="ap" d="M112.98,86.38l-2.33,5.66s-5.18,4.4-7.4,5.81c0,0,1.55,1.07,1.85,2.07,0,0,6.17-2.51,9.35-8.17S112.98,86.38,112.98,86.38Z"/><path class="ai" d="M122.99,80.8l-2.47,1.11s-2.48.42-2.57.39-2.56-1.5-2.56-1.5-2.94,2.94-3.02,4.85,1.28,3.8,1.5,5.35,1.05,4.08.55,6.32c0,0,2.05,4.3,10.62,1.66a42.394,42.394,0,0,0-1.64-6.13,26.384,26.384,0,0,0,1.16-5.24s3.05,4.41,4.22,5.74a12.117,12.117,0,0,1,1.83,5.85s.78,4.49,1.11,4.83a4.067,4.067,0,0,0,2.5-1.5C134.22,102.54,133.75,86.54,122.99,80.8Z"/><path class="an" d="M117.81,73.87s-.39-1.5-1.05-.55a1.917,1.917,0,0,0,1.05,2.72s.39,3.05-.22,4.35a7.089,7.089,0,0,0-2.19.42,3.426,3.426,0,0,0,3.38,1.91A6,6,0,0,0,123,80.81a8.677,8.677,0,0,0-2.02-.5,6.242,6.242,0,0,1,.11-2.05c.25-.8-1.39-2.16-1.39-2.16Z"/><path class="ao" d="M123.93,72.3c.02-.76.2-1.24-.63-1.05s-1.61,1.46-2.68,1a2.3,2.3,0,0,0-2.92,1.32,4.984,4.984,0,0,0,.16,2.28,4.2,4.2,0,0,0,2.26,2.78c3.92,2.11,4.4-5.36,4.4-5.36A.978.978,0,0,1,123.93,72.3Z"/><path class="ao" d="M105.11,99.92s-.41-1.92-1.85-2.07a4.487,4.487,0,0,0-1.96,3.18s-.44,1.55,2.22,8.54l5.07,12.9-4.66,2.77s-.85.74.55.96a9.291,9.291,0,0,0,4.51-1.04v1.04h.7a4.982,4.982,0,0,0,1.18-2.52,4.777,4.777,0,0,0-.7-1.48L107.25,106A15,15,0,0,0,105.11,99.92Z"/><path class="an" d="M103.61,101.15s.64-.12,1.5-1.24l.29.48A5.055,5.055,0,0,1,103.61,101.15Z"/><path class="ap" d="M103.26,122.15c-1.99.92-5.22.02-5.22.02-1.2.47-2.4,1.01-2.4,1.3,0,.52,2.4.81,5.03,0,0,0,1.04-.43.78.51h.92A2.014,2.014,0,0,0,103.26,122.15Z"/><path class="ap" d="M106.06,123.97h0l-2.13,1.27s-.85.74.55.96a9.291,9.291,0,0,0,4.51-1.04v1.04h.7a4.982,4.982,0,0,0,1.18-2.52,5.053,5.053,0,0,0-.39-.98h0C110.49,122.71,107.65,124.9,106.06,123.97Z"/><path class="ah" d="M29.65,190.12H36.3l2.24,1.38s.22.51,0,.51H32.19l-2.54-1.24v-.65Z"/><path class="ah" d="M38.24,190.12h6.65l2.24,1.38s.22.51,0,.51H40.78l-2.54-1.24v-.65Z"/><path class="ah" d="M46.83,190.12h6.65l2.24,1.38s.22.51,0,.51H49.37l-2.54-1.24v-.65Z"/><path class="ah" d="M55.41,190.12h6.65l2.24,1.38s.22.51,0,.51H57.95l-2.54-1.24v-.65Z"/><path class="ah" d="M64,190.12h6.65l2.24,1.38s.22.51,0,.51H66.54L64,190.78Z"/><path class="ah" d="M72.59,190.12h6.65l2.24,1.38s.22.51,0,.51H75.13l-2.54-1.24Z"/><path class="ah" d="M81.18,190.12h6.65l2.24,1.38s.22.51,0,.51H83.72l-2.54-1.24Z"/><path class="ah" d="M89.76,190.12h6.65l2.24,1.38s.22.51,0,.51H92.3l-2.54-1.24Z"/><path class="ah" d="M37.69,193.33h6.65l2.24,1.38s.22.51,0,.51H40.23l-2.54-1.24v-.65Z"/><path class="ah" d="M46.28,193.33h6.65l2.24,1.38s.22.51,0,.51H48.82l-2.54-1.24v-.65Z"/><path class="ah" d="M54.86,193.33h6.65l2.24,1.38s.22.51,0,.51H57.4l-2.54-1.24v-.65Z"/><path class="ah" d="M63.45,193.33H70.1l2.24,1.38s.22.51,0,.51H65.99l-2.54-1.24v-.65Z"/><path class="ah" d="M72.04,193.33h6.65l2.24,1.38s.22.51,0,.51H74.58l-2.54-1.24Z"/><path class="ah" d="M80.63,193.33h6.65l2.24,1.38s.22.51,0,.51H83.17l-2.54-1.24Z"/><path class="ah" d="M89.22,193.33h6.65l2.24,1.38s.22.51,0,.51H91.76l-2.54-1.24Z"/><path class="ah" d="M97.8,193.33h6.65l2.24,1.38s.22.51,0,.51h-6.35l-2.54-1.24Z"/><path class="ah" d="M45.73,196.53h6.65l2.24,1.38s.22.51,0,.51H48.27l-2.54-1.24v-.65Z"/><path class="ah" d="M54.31,196.53h6.65l2.24,1.38s.22.51,0,.51H56.85l-2.54-1.24v-.65Z"/><path class="ah" d="M62.9,196.53h6.65l2.24,1.38s.22.51,0,.51H65.44l-2.54-1.24Z"/><path class="ah" d="M71.49,196.53h6.65l2.24,1.38s.22.51,0,.51H74.03l-2.54-1.24Z"/><path class="ah" d="M80.08,196.53h6.65l2.24,1.38s.22.51,0,.51H82.62l-2.54-1.24Z"/><path class="ah" d="M88.67,196.53h6.65l2.24,1.38s.22.51,0,.51H91.21l-2.54-1.24Z"/><path class="ah" d="M97.25,196.53h6.65l2.24,1.38s.22.51,0,.51H99.79l-2.54-1.24Z"/><path class="ah" d="M105.84,196.53h6.65l2.24,1.38s.22.51,0,.51h-6.35l-2.54-1.24Z"/><path class="ah" d="M53.77,199.74h6.65l2.24,1.38s.22.51,0,.51H56.31l-2.54-1.24v-.65Z"/><path class="ah" d="M62.35,199.74H69l2.24,1.38s.22.51,0,.51H64.89l-2.54-1.24Z"/><path class="ah" d="M70.94,199.74h6.65l2.24,1.38s.22.51,0,.51H73.48l-2.54-1.24Z"/><path class="ah" d="M79.53,199.74h6.65l2.24,1.38s.22.51,0,.51H82.07l-2.54-1.24Z"/><path class="ah" d="M88.12,199.74h6.65l2.24,1.38s.22.51,0,.51H90.66l-2.54-1.24Z"/><path class="ah" d="M96.7,199.74h6.65l2.24,1.38s.22.51,0,.51H99.24l-2.54-1.24Z"/><path class="ah" d="M105.29,199.74h6.65l2.24,1.38s.22.51,0,.51h-6.35l-2.54-1.24Z"/><path class="ah" d="M113.88,199.74h6.65l2.24,1.38s.22.51,0,.51h-6.35l-2.54-1.24Z"/><path class="ah" d="M113.52,190.12h6.65l2.24,1.38s.22.51,0,.51h-6.35l-2.54-1.24Z"/><path class="ah" d="M122.11,190.12h6.65L131,191.5s.22.51,0,.51h-6.35l-2.54-1.24Z"/><path class="ah" d="M130.7,190.12h6.65l2.24,1.38s.22.51,0,.51h-6.35l-2.54-1.24Z"/><path class="ah" d="M121.56,193.33h6.65l2.24,1.38s.22.51,0,.51H124.1l-2.54-1.24Z"/><path class="ah" d="M130.15,193.33h6.65l2.24,1.38s.22.51,0,.51h-6.35l-2.54-1.24Z"/><path class="ah" d="M138.74,193.33h6.65l2.24,1.38s.22.51,0,.51h-6.35l-2.54-1.24Z"/><path class="ah" d="M129.6,196.53h6.65l2.24,1.38s.22.51,0,.51h-6.35l-2.54-1.24Z"/><path class="ah" d="M138.19,196.53h6.65l2.24,1.38s.22.51,0,.51h-6.35l-2.54-1.24Z"/><path class="ah" d="M146.78,196.53h6.65l2.24,1.38s.22.51,0,.51h-6.35l-2.54-1.24Z"/><path class="ah" d="M137.64,199.74h6.65l2.24,1.38s.22.51,0,.51h-6.35l-2.54-1.24Z"/><path class="ah" d="M146.23,199.74h6.65l2.24,1.38s.22.51,0,.51h-6.35l-2.54-1.24Z"/><path class="ah" d="M154.81,199.74h6.65l2.24,1.38s.22.51,0,.51h-6.35l-2.54-1.24Z"/><path class="ah" d="M90.16,203.02h35.9l11.04,4.86H97.25Z"/><path class="ae" d="M106.81,245.08a38.352,38.352,0,0,1-31.96-17.04,53.055,53.055,0,0,1-17.92,3.12C25.54,231.17,0,203.59,0,169.68a65.439,65.439,0,0,1,7.06-29.65,47.274,47.274,0,0,1-5.23-21.68c0-24.86,19.03-45.08,42.43-45.08a40.494,40.494,0,0,1,20.41,5.56c9.14-13.58,27.1-21.98,47.15-21.98,29.24,0,53.02,18.2,53.02,40.57,0,8.54-3.39,16.64-9.83,23.53,18.07,3.95,30.38,14.35,32.32,27.44,1.44,9.75-2.91,19.65-12.27,28.03,12.94,4.78,21.21,14.52,21.21,25.18,0,15.56-17.35,28.21-38.68,28.21a50.762,50.762,0,0,1-17.89-3.19A38.686,38.686,0,0,1,106.81,245.08ZM75.65,225.64l.43.67a36.52,36.52,0,0,0,62.33-1.42l.43-.74.8.32a48.423,48.423,0,0,0,17.94,3.36c20.23,0,36.7-11.77,36.7-26.23,0-10.23-8.43-19.6-21.48-23.86l-1.69-.55,1.37-1.15c9.71-8.15,14.29-17.87,12.89-27.35-1.87-12.66-14.33-22.67-32.52-26.15l-1.85-.35,1.34-1.32c6.88-6.79,10.52-14.89,10.52-23.44,0-21.28-22.9-38.58-51.04-38.58-19.48,0-37.53,8.59-46.01,21.87l-.52.82-.83-.51a38.559,38.559,0,0,0-20.2-5.77c-22.3,0-40.45,19.33-40.45,43.1a45.339,45.339,0,0,0,5.24,21.22l.25.46-.24.46a63.384,63.384,0,0,0-7.07,29.2c0,32.81,24.65,59.51,54.95,59.51a51.1,51.1,0,0,0,17.97-3.27Z"/><path class="aq" d="M402.57,292.28c0,4.44-34.99,8.03-78.16,8.03s-78.16-3.6-78.16-8.03,34.99-8.03,78.16-8.03S402.57,287.85,402.57,292.28Z"/><path class="aq" d="M365.13,300.63c0,5.73-21.31,10.37-47.6,10.37s-47.6-4.64-47.6-10.37,21.31-10.37,47.6-10.37S365.13,294.9,365.13,300.63Z"/><path class="ar" d="M383.05,157.77c.49,1.23-.09,2.84.43,3.94s1.94,1.16,2.46,2.19c1.78,3.48-.24,4.2-.01,6.84.25,2.95,3.31,4.46.71,7.55-2.14,2.54-6.47,2.13-7.44-1.23.07-.1.07-.1.01,0-5.03,3.31-8.96-5.56-2.92-7.32-2.21-1.57-3.19-4.91-.67-6.85a3.788,3.788,0,0,1,.13-6.43c.38-.24-1.2-3.4,1.96-3.67C379.98,152.59,382.36,156.05,383.05,157.77Z"/><path class="as" d="M382.75,173.93a4.431,4.431,0,0,1,4.56,4.32c.07,2.45-1.27,8.78-3.14,7.19-3.67-3.13-5.5-5.01-5.57-7.46S380.29,174,382.75,173.93Z"/><path class="as" d="M385.93,176.49l-4.25,1.41-.77,4.54s9.35,11.37,12.4,12.96c3.25,1.69,2.38-1.27,2.16-2.49C395.47,192.91,388.33,178.04,385.93,176.49Z"/><path class="as" d="M395.19,195.78s7.93-3.95,13.04-8.38c0,0,.48-1.55-.87-1.2-1.29.33-14.1,3.66-14.92,4.71S395.19,195.78,395.19,195.78Z"/><path class="as" d="M413.82,186.35l-1.23.57s2.5-.53,2.85-1.6c0,0,.13-.2-.28-.32a18.861,18.861,0,0,1-2.98,1.08,13.729,13.729,0,0,0,3.48-1.31s.37-.62-.38-.66c.36-.39-.16-.49-.16-.49a8.223,8.223,0,0,0-1.57.14,35.067,35.067,0,0,1-3.61.32s.86-1.47.05-1.91l-1.46,2.01-1.22,2.03.36,1.32,2.49.37a12.97,12.97,0,0,0,3.2-.64C413.38,187.27,416.26,185.72,413.82,186.35Z"/><path class="at" d="M383.75,173.93a4.862,4.862,0,0,1,3.87,3.95s9.95,14,8.11,17.97c-.78.3-4.65,2.55-16.64-14.59C379.1,181.27,375.88,172.71,383.75,173.93Z"/><path class="at" d="M392.28,189.9a84.939,84.939,0,0,1,14.58-4.2s1.62,1.62,1.45,2.69c0,0-11.31,7.67-12.97,7.53C395.35,195.91,391.58,193.24,392.28,189.9Z"/><path class="as" d="M374.68,287.94a10.326,10.326,0,0,0,4.42.84l-1.93-1.97a34.285,34.285,0,0,1-1.84-4.9,14,14,0,0,1,.41-3.01l-2.88-.6-.44,1.59-1.69,2.13s-.41,1.11,1.59,1.9C372.33,283.91,373.34,285.93,374.68,287.94Z"/><path class="au" d="M377.18,286.81a2.783,2.783,0,0,1-2.74-1.02,13.026,13.026,0,0,1-2.01-5.92,3.328,3.328,0,0,0-1.83,2.58l-.04.57-.32,4.38.3.06,1.74-3.21,1.1,3.72c4.54,1.9,6.02.93,6.02.93Z"/><path class="av" d="M387.83,247.2s-11.64,32.23-12.33,33.55c0,0-3.43-.54-3.19-1.34.59-1.93,1.71-16.24,2.36-19.33,1.04-4.97,1.96-8.05,6.29-13.93C380.96,246.14,387.55,243.2,387.83,247.2Z"/><path class="aw" d="M382.81,208.57s1.79,6.29,2.59,10.28c1.41,7.05,1.98,25.19,1.98,25.19s-5.91,3.2-6.74,1.7c-3.97-7.23-4.44-5.25-9.95-29.73Z"/><path class="av" d="M371.02,216.79s2.24,18.55,9.4,29.06c0,0,2.16,5.72,7.41,1.34,0,0,.65-30.21-4.44-39.55C383.39,207.65,368.83,206.93,371.02,216.79Z"/><path class="ax" d="M377.85,196.32c.56-.1,2.88,1.1,2.88,1.1s2.9,9.31,3.02,10.73-9.62,8.75-20.5,4.57c0,0,5.04-13.12,5.35-16.35S377.85,196.32,377.85,196.32Z"/><path class="ay" d="M380.73,197.42s2.78,8.4,3.02,10.73c.87,8.25-10.3,11.71-21.18,7.54,0,0-.71-11.35,6.03-19.31C368.6,196.37,370.39,198.01,380.73,197.42Z"/><path class="ay" d="M370.44,221.81l-7.87-4.32s1.28,24.9,2.27,31.89c0,0,4.4,1.23,5.77.32,4.08-9.57,6.45-30.36,6.45-30.36Z"/><path class="ay" d="M365.67,210.2s-3.78,1.09-3,8.09c.76,6.83,13.33,7.48,14.5.48C378.45,211.23,372.33,207.23,365.67,210.2Z"/><path class="aw" d="M370.98,173.44h7.57c-.34-1.1-1.06-3.96.05-5.9l-7.65-5.02S372.31,170.95,370.98,173.44Z"/><path class="az" d="M378.01,170.13a4.987,4.987,0,0,1,.59-2.59l-7.65-5.02a53.007,53.007,0,0,1,.61,6.57C374.32,169.97,375.46,170.31,378.01,170.13Z"/><path class="aw" d="M365.78,174.1c-3.41,1.67-1.51,5.67-1.51,5.67l4.61,16.77s4.3,1.76,11.86.88c1.05-1.5,3.21-7.79,3.93-12.6.59-3.96,2.44-7.85.43-10.06-.77-.85-6.65-1.69-6.68-1.83h-7.07Z"/><path class="aw" d="M379.78,168.23l.46-1.12,1.15-3.3a3.477,3.477,0,0,0,.11-1.78,5.383,5.383,0,0,1-.01-2.79,5.6,5.6,0,0,0-.49-4.67c-1.64-2.89-5.83-3.09-5.83-3.09a5.858,5.858,0,0,0-5.88,5.01c-1,3.3,1.52,6.21,1.52,6.21a3.708,3.708,0,0,1,.47,1.38,4.146,4.146,0,0,0,.7,1.31,9.51,9.51,0,0,0,2.55,2.27,10.381,10.381,0,0,0,3.95,1.15C379,168.84,379.52,168.87,379.78,168.23Z"/><path class="ar" d="M371.28,164.68c.09-2.37.15-2.22.15-2.22.09-.69,1.37.87,1.39-.03.08-4.13,1.68-6.02,2.28-6.31a7.311,7.311,0,0,1,4.65-.64c2.07.48,1.85,3.25,1.85,3.25,2.3-10.08-9.21-7.41-9.21-7.41a6.292,6.292,0,0,0-5.29,6.41c-.96,5.56,4.38,9.05,4.38,9.05Z"/><path class="ba" d="M371.69,163.89a1.123,1.123,0,0,1-.73.18,1.632,1.632,0,0,1-1.4-1.75,1.505,1.505,0,0,1,1.5-1.56,1.42,1.42,0,0,1,.97.5,2.016,2.016,0,0,1,.22,1.68A1.546,1.546,0,0,1,371.69,163.89Z"/><path class="bb" d="M371.34,161.63c-.02-.48-1.02-.07-.88.2a1.561,1.561,0,0,0,.37.4.682.682,0,0,1,.27.54c0,.03,0,.11-.03.13-.13.08-.52-.41-.6-.51a.786.786,0,0,1-.08-.77.48.48,0,0,1,.55-.33c.22.02.44.05.41.32,0,0-.01.04-.01.02Z"/><path class="bb" d="M371,162.11c.11-.1.2-.01.3.07a.5.5,0,0,1,.16.29,1.19,1.19,0,0,1-.16.8.584.584,0,0,1-.53.25c-.29-.02-.37-.29-.36-.53,0-.07,0-.22.07-.26s.12.07.16.12a.528.528,0,0,0,.24.11.516.516,0,0,0,.44-.17.3.3,0,0,0,.05-.07c-.01.16-.02.2-.03.11a.613.613,0,0,0-.05-.12c-.06-.11-.17-.2-.24-.31-.05-.06-.1-.24-.05-.29Z"/><path class="g" d="M371.72,164.06a.5.5,0,0,1-.52.47.5.5,0,0,1,.05-.99A.507.507,0,0,1,371.72,164.06Z"/><path class="bc" d="M380.48,173.35l3.27.59s2.38.52,2.46,2.56c0,0,.13,3.86-1.97,10.85C384.25,187.34,380.77,176.62,380.48,173.35Z"/><path class="bc" d="M379.65,173.22l1.47.23a37.693,37.693,0,0,1,3.53,11.38c-.72,4.8-2.17,12.08-3.93,12.6-5.95,1.76-12.17-1.01-12.17-1.01l-2.85-11.37c7.65-2.98,3.78-11.72,3.78-11.72l1.61-.38,6.76,6.83,1.8-6.56"/><path class="bc" d="M382.67,176.99s2.99,4.14,3.51,6.27c.34,1.4-2.1,4.56-4.07,5.11C381.03,188.68,381,177.27,382.67,176.99Z"/><path class="bd" d="M376.84,174.84l-.08,3.83-1.41-1.38Z"/><path class="be" d="M376.84,174.75s-4.28-1.75-5.35-3.5l-2,2.07,5.2,5.04,2.15-3.52"/><path class="be" d="M380.66,174.95a5.746,5.746,0,0,0-2.45-2.96l.27,5.54C378.47,177.52,379.6,174.69,380.66,174.95Z"/><path class="bd" d="M380.84,177.52l-.19-2.57c-.62-.15-1.18.72-1.63,1.43Z"/><path class="aw" d="M369.02,289.49a10.32,10.32,0,0,0,4.5-.08l-2.29-1.54a35.326,35.326,0,0,1-2.81-4.42,13.775,13.775,0,0,1-.22-3.03h-2.94l-.1,1.64-1.22,2.43s-.17,1.17,1.95,1.54A43.561,43.561,0,0,0,369.02,289.49Z"/><path class="au" d="M371.23,287.87a2.8,2.8,0,0,1-2.89-.43,13.086,13.086,0,0,1-3.18-5.38,3.328,3.328,0,0,0-1.26,2.9l.08.56.58,4.35h.3l1.05-3.5,1.84,3.42c4.84.93,6.08-.32,6.08-.32Z"/><path class="ay" d="M364.54,246.78l6.43,1.9s-2.21,30.85-2.5,32.31c0,0-3.44.46-3.44-.37.02-2.01-2.35-14.6-2.58-17.76C362.07,257.45,360.6,253.82,364.54,246.78Z"/><path class="as" d="M367.42,173.93a4.431,4.431,0,0,0-4.56,4.32c-.07,2.45,1.27,8.78,3.14,7.19,3.67-3.13,5.5-5.01,5.57-7.46S369.87,174,367.42,173.93Z"/><path class="as" d="M364.24,176.49l4.25,1.41.77,4.54s-9.35,11.37-12.4,12.96c-3.25,1.69-2.38-1.27-2.16-2.49C354.7,192.91,361.84,178.04,364.24,176.49Z"/><path class="as" d="M354.98,195.78s-7.93-3.95-13.04-8.38c0,0-.48-1.55.87-1.2,1.29.33,14.1,3.66,14.92,4.71S354.98,195.78,354.98,195.78Z"/><path class="as" d="M336.34,186.35l1.23.57s-2.5-.53-2.85-1.6c0,0-.13-.2.28-.32a18.861,18.861,0,0,0,2.98,1.08,13.729,13.729,0,0,1-3.48-1.31s-.37-.62.38-.66c-.36-.39.16-.49.16-.49a8.223,8.223,0,0,1,1.57.14,35.067,35.067,0,0,0,3.61.32s-.86-1.47-.05-1.91l1.46,2.01,1.22,2.03-.36,1.32-2.49.37a12.97,12.97,0,0,1-3.2-.64C336.78,187.27,333.9,185.72,336.34,186.35Z"/><path class="bc" d="M371.07,181.27c-11.99,17.14-15.86,14.89-16.64,14.59-1.83-3.97,7.76-18.34,7.76-18.34,1.55-3.33,4.22-3.59,4.22-3.59l3.08-.61,1.98,2.52A6.138,6.138,0,0,1,371.07,181.27Z"/><path class="at" d="M357.89,189.9a84.939,84.939,0,0,0-14.58-4.2s-1.62,1.62-1.45,2.69c0,0,11.31,7.67,12.97,7.53C354.82,195.91,358.58,193.24,357.89,189.9Z"/><path class="ar" d="M365.02,157.77c-.49,1.23.09,2.84-.43,3.94s-1.94,1.16-2.46,2.19c-1.78,3.48.24,4.2.01,6.84-.25,2.95-3.31,4.46-.71,7.55,2.14,2.54,6.47,2.13,7.44-1.23-.07-.1-.07-.1-.01,0,5.03,3.31,8.96-5.56,2.92-7.32,2.21-1.57,3.19-4.91.67-6.85a3.788,3.788,0,0,0-.13-6.43c-.38-.24,1.2-3.4-1.96-3.67C368.09,152.59,365.71,156.05,365.02,157.77Z"/><path class="bc" d="M383.24,190.96s-.68,12.56,4.38,19.16c0,0-13.88,6.07-26.93.18,1.22-3.83.94-3.82,5.02-12.63,0,0,2.05-4.46,1.48-6.7h16.05Z"/><path class="bf" d="M285.66,158.4s2.6,2.4,2.33,10.2v23.6a6.074,6.074,0,0,0,2.16,4.02s-17.11,5.03-18.57-2.65V169.09s-.79-10.3,3.17-12.15C274.74,156.94,281.76,154.05,285.66,158.4Z"/><path class="aw" d="M287.57,178.64c3.54,1.7,1.65,5.7,1.65,5.7l-4.61,16.77s-4.3,1.76-11.86.88c-1.05-1.5-3.21-7.79-3.93-12.6-.59-3.96-2.44-7.85-.43-10.06.77-.85,6.65-1.69,6.68-1.83l6.94-.03Z"/><path class="as" d="M282.46,221.36s-2.24,18.55-9.4,29.06c0,0-3.34,5.61-7.41,1.34,0,0-.65-30.21,4.44-39.55C270.09,212.21,284.65,211.5,282.46,221.36Z"/><path class="as" d="M271.95,178.01c-2.45-.07-5.71,2.35-5.78,4.81s1.27,8.78,3.14,7.19c3.67-3.13,5.5-5.01,5.57-7.46S274.4,178.08,271.95,178.01Z"/><path class="as" d="M267.45,181.77l4.48-.2,2.34,3.96s-4.68,13.96-6.96,16.53c-2.43,2.74-2.67-.34-2.91-1.55C264.39,200.52,265.76,184.08,267.45,181.77Z"/><path class="as" d="M267.64,293.49a10.39,10.39,0,0,1-4.49-.35l2.38-1.4a34.336,34.336,0,0,0,3.06-4.25,14.007,14.007,0,0,0,.4-3.02l2.94.17.01,1.65,1.07,2.5s.1,1.18-2.04,1.42A42.993,42.993,0,0,1,267.64,293.49Z"/><path class="ay" d="M265.53,291.74a2.791,2.791,0,0,0,2.91-.26,13.13,13.13,0,0,0,3.5-5.18,3.335,3.335,0,0,1,1.08,2.97l-.11.56-.84,4.31-.3-.02-.84-3.56-2.04,3.3c-4.88.64-6.05-.68-6.05-.68Z"/><path class="as" d="M265.65,251.76s3.01,31.26,3.34,32.71c0,0,2.97,1.01,2.94.17-.07-2.01,2.86-14.89,3.05-18.05.31-5.07-.52-8.44-3.16-15.26C271.82,251.35,266.97,247.98,265.65,251.76Z"/><path class="ax" d="M275.63,200.89c-.56-.1-2.88,1.1-2.88,1.1s-2.9,9.31-3.02,10.73,9.62,8.75,20.5,4.57c0,0-5.04-13.12-5.35-16.35S275.63,200.89,275.63,200.89Z"/><path class="bg" d="M272.75,201.98s-2.78,8.4-3.02,10.73c-.87,8.25,10.3,11.71,21.18,7.54,0,0,.71-11.35-6.03-19.31C284.88,200.94,283.09,202.57,272.75,201.98Z"/><path class="aw" d="M283.04,226.37l7.87-4.32s-1.28,24.9-2.27,31.89c0,0-4.4,1.23-5.77.32-4.08-9.57-6.45-30.36-6.45-30.36Z"/><path class="aw" d="M287.8,214.77s3.78,1.09,2.99,8.09c-.76,6.83-13.33,7.48-14.5.48C275.03,215.79,281.15,211.8,287.8,214.77Z"/><path class="aw" d="M282.5,178.01h-7.57c.34-1.1,1.06-3.96-.05-5.9l7.65-5.02S281.17,175.52,282.5,178.01Z"/><path class="az" d="M275.47,174.7a4.987,4.987,0,0,0-.59-2.59l7.65-5.02a55.3,55.3,0,0,0-.61,6.57C279.16,174.53,278.02,174.88,275.47,174.7Z"/><path class="aw" d="M273.7,172.8l-.46-1.12-1.15-3.3a3.477,3.477,0,0,1-.11-1.78,5.383,5.383,0,0,0,.01-2.79,5.6,5.6,0,0,1,.49-4.67c1.64-2.89,5.83-3.09,5.83-3.09a5.858,5.858,0,0,1,5.88,5.01c1,3.3-1.52,6.21-1.53,6.21a3.708,3.708,0,0,0-.47,1.38,4.146,4.146,0,0,1-.7,1.31,9.51,9.51,0,0,1-2.55,2.27,10.381,10.381,0,0,1-3.95,1.15C274.48,173.41,273.96,173.44,273.7,172.8Z"/><path class="bf" d="M282.19,169.25c-.09-2.37-.15-2.22-.15-2.22-.09-.69-1.37.87-1.39-.03-.08-4.13-1.68-6.02-2.28-6.31a7.311,7.311,0,0,0-4.65-.64c-2.07.48-1.85,3.25-1.85,3.25-2.3-10.08,9.21-7.41,9.21-7.41a6.292,6.292,0,0,1,5.29,6.41c.96,5.56-4.38,9.05-4.38,9.05Z"/><path class="ba" d="M281.79,168.46a1.123,1.123,0,0,0,.73.18,1.632,1.632,0,0,0,1.4-1.75,1.505,1.505,0,0,0-1.5-1.56,1.462,1.462,0,0,0-.97.5,2.016,2.016,0,0,0-.22,1.68A1.528,1.528,0,0,0,281.79,168.46Z"/><path class="bb" d="M282.14,166.19c.02-.48,1.02-.07.88.2a1.561,1.561,0,0,1-.37.4.682.682,0,0,0-.27.54c0,.03,0,.11.03.13.13.08.52-.41.6-.51a.786.786,0,0,0,.08-.77.48.48,0,0,0-.55-.33c-.22.02-.44.05-.41.32,0,0,.01.05.01.02Z"/><path class="bb" d="M282.48,166.68c-.11-.1-.2-.01-.3.07a.5.5,0,0,0-.16.29,1.19,1.19,0,0,0,.16.8.584.584,0,0,0,.53.25c.29-.02.37-.29.36-.53,0-.07,0-.22-.07-.26s-.12.07-.16.12a.442.442,0,0,1-.24.11.516.516,0,0,1-.44-.17.3.3,0,0,1-.05-.07c.01.16.02.2.03.11a.613.613,0,0,1,.05-.12c.06-.11.17-.2.24-.31.04-.07.1-.25.05-.29Z"/><path class="g" d="M281.76,168.63a.5.5,0,1,0,.47-.52A.5.5,0,0,0,281.76,168.63Z"/><path class="bh" d="M273.83,177.78l-1.47.23a37.693,37.693,0,0,0-3.53,11.38c.72,4.8,2.17,12.08,3.93,12.6,5.95,1.76,12.17-1.01,12.17-1.01l2.85-11.37c-7.65-2.98-3.78-11.72-3.78-11.72l-1.61-.38C282.38,177.5,276.7,181.67,273.83,177.78Z"/><path class="bh" d="M270.81,181.56s-2.99,4.14-3.51,6.27c-.34,1.4,2.1,4.56,4.07,5.11C272.45,193.25,272.47,181.83,270.81,181.56Z"/><path class="aw" d="M284.46,294.06a10.32,10.32,0,0,1-4.5-.08l2.29-1.54a35.326,35.326,0,0,0,2.81-4.42,13.857,13.857,0,0,0,.22-3.04h2.94l.1,1.64,1.22,2.43s.17,1.17-1.95,1.54C287.58,290.59,286.18,292.36,284.46,294.06Z"/><path class="ay" d="M282.25,292.44a2.8,2.8,0,0,0,2.89-.43,13.086,13.086,0,0,0,3.18-5.38,3.328,3.328,0,0,1,1.26,2.9l-.08.56-.58,4.35h-.3l-1.05-3.5-1.84,3.42c-4.84.93-6.08-.32-6.08-.32Z"/><path class="aw" d="M288.94,251.35l-6.43,1.9s2.48,30.27,2.76,31.73c0,0,2.95.83,2.94,0-.02-2.01,2.58-14.39,2.8-17.54C291.41,262.02,292.88,258.38,288.94,251.35Z"/><path class="bg" d="M290.79,217.05l1.27,29.93s-16.3,3.77-27.62-1.4c0,0,1.03-25.6,5.64-34.09C270.08,211.48,289.87,209.65,290.79,217.05Z"/><path class="aw" d="M283.35,180.39c-1.38,2.03-.6,3.99.51,6.13,1.14,2.17,8.07,3.68,7.74,1.25-.65-4.78-1.14-7.5-3.26-8.72C286.53,178.01,284.73,178.36,283.35,180.39Z"/><path class="aw" d="M283.13,184.4l3.49-2.81,4.23,1.81s4.51,14.02,4.2,17.44c-.33,3.64-2.35,1.31-3.26.48C291.79,201.31,283.14,187.26,283.13,184.4Z"/><path class="aw" d="M294.97,200.55s.55,9.86-.96,16.46c0,0-1.91,1.13-2.06-.25-.26-2.35-2.23-13.94-1.73-18.05C290.38,197.38,294.97,200.55,294.97,200.55Z"/><path class="aw" d="M293.12,225.08s-.51.25-.17-.95l.41-1.88s-.41,3.13-1.48,3.73c0,0-.19.18-.4-.24a18.2,18.2,0,0,0,.9-3.75s-.24,3.26-1.44,4.2c0,0-.61.26-.6-.38a15.385,15.385,0,0,0,1.01-4.15,17.114,17.114,0,0,1-1.39,4.07s-.68.14-.53-.62c0,0,.52-1.91.91-4.11,0,0-1.25,1.05-2.19.56l2.82-4.11.99-.7,2.06.25.24,2.44a15.617,15.617,0,0,1-.61,4.95C293.64,224.4,293.44,225.01,293.12,225.08Z"/><path class="bi" d="M270.18,192.1l6.11,13.46-12.44-1.15-5.61-13.21Z"/><path class="as" d="M260.21,195.37a3.489,3.489,0,0,0,.87,1.13c.43.34,1.16.24,1.44.49.49.44.14,1.62-.89,2.8-.89,1.03-1.55-.32-1.85-1.14a2.834,2.834,0,0,1,.09-2.75Z"/><path class="bj" d="M356.69,184.98l.44-16.63c.32-3.89-1.21-5.3-1.21-5.3-6.49-2.43-9.76.85-9.76.85v16.99A14.541,14.541,0,0,0,356.69,184.98Z"/><path class="aw" d="M339.15,183.19c-3.41,1.67-1.51,5.67-1.51,5.67l4.61,16.77s4.3,1.76,11.86.88c1.05-1.5,3.21-7.79,3.93-12.6.59-3.96,2.44-7.85.43-10.06-.77-.85-6.65-1.69-6.68-1.83h-7.07Z"/><path class="bk" d="M354.77,168.35l-.44,16.56a10.912,10.912,0,0,0,2.35.07l.44-16.63c.32-3.89-1.21-5.3-1.21-5.3a12,12,0,0,0-5.7-.83,13.951,13.951,0,0,1,3.35.83S355.09,164.46,354.77,168.35Z"/><path class="as" d="M357.93,183.52c2.19,1.1,2.54,3.65,2.18,5.97-.38,2.42-4.71,7.51-5.78,5.3-2.09-4.35-3.07-7.64-2.14-9.91S354.42,181.75,357.93,183.52Z"/><path class="as" d="M360.18,187.13l-5.09-.23-2.54,3.84s3.95,14.19,6.09,16.87c2.28,2.86,2.68-.2,2.98-1.4C361.63,206.2,360.98,190.34,360.18,187.13Z"/><path class="bl" d="M361.39,228.78l.31,2.11-1.23,2.79s.52.46,1.09-.45l1.09-2.3-.15-2.37Z"/><path class="bl" d="M361.95,229.49l.43,2.09-1.07,2.86s.54.43,1.06-.51l.96-2.36-.29-2.36Z"/><path class="as" d="M364.31,229.96l-.38-2.45-.42-3.04-1.9-.26-.65,3.21-.16,1.68-.19,2.3-.1.74s.6.19,1.06-.99l.49-2.17.82,1.7-.7,2.99s.18,1.56.65.97l1.57-4.2Z"/><path class="as" d="M356.91,204.15s2.46,11.65,4.69,20.05c0,0,1.63,1.94,1.9.26.53-3.35-1.24-21.5-2.09-22.89C360.55,200.2,356.91,204.15,356.91,204.15Z"/><path class="as" d="M352.58,298.45a10.39,10.39,0,0,0,4.49-.35l-2.38-1.4a34.336,34.336,0,0,1-3.06-4.25,14.007,14.007,0,0,1-.4-3.02l-2.94.17-.01,1.65-1.07,2.5s-.1,1.18,2.04,1.42A45.184,45.184,0,0,0,352.58,298.45Z"/><path class="bm" d="M354.69,296.7a2.791,2.791,0,0,1-2.91-.26,13.13,13.13,0,0,1-3.5-5.18,3.335,3.335,0,0,0-1.08,2.97l.11.56.84,4.31.3-.02.84-3.56,2.04,3.3c4.88.64,6.05-.68,6.05-.68Z"/><path class="as" d="M354.57,256.72s-3.01,31.26-3.34,32.72c0,0-2.97,1.01-2.94.17.07-2.01-2.86-14.89-3.05-18.05-.31-5.07.52-8.44,3.16-15.26C348.4,256.3,353.25,252.94,354.57,256.72Z"/><path class="as" d="M343.43,224.65s-1.13,18.65,4.03,30.28c0,0,2.28,6.12,7.05,2.65,0,0,6.06-29.6,2.73-39.7C357.23,217.87,343.04,214.55,343.43,224.65Z"/><path class="ax" d="M351.22,205.41c.56-.1,2.88,1.1,2.88,1.1s2.9,9.31,3.02,10.73-9.62,8.75-20.5,4.57c0,0,5.04-13.12,5.35-16.35S351.22,205.41,351.22,205.41Z"/><path class="bn" d="M354.1,206.5s2.78,8.4,3.02,10.73c.87,8.25-10.3,11.71-21.18,7.54,0,0-.71-11.35,6.03-19.31C341.98,205.46,343.76,207.09,354.1,206.5Z"/><path class="aw" d="M343.82,230.9l-7.87-4.32s1.28,24.9,2.27,31.89c0,0,4.4,1.23,5.77.32,4.08-9.57,6.45-30.36,6.45-30.36Z"/><path class="aw" d="M339.05,219.29s-3.78,1.09-2.99,8.09c.76,6.83,13.33,7.48,14.5.48C351.82,220.31,345.7,216.32,339.05,219.29Z"/><path class="aw" d="M344.36,182.53h7.57c-.34-1.1-1.06-3.96.05-5.9l-7.65-5.02C344.32,171.61,345.68,180.04,344.36,182.53Z"/><path class="az" d="M351.39,179.22a4.987,4.987,0,0,1,.59-2.59l-7.65-5.02a55.3,55.3,0,0,1,.61,6.57C347.7,179.06,348.83,179.4,351.39,179.22Z"/><path class="aw" d="M353.15,177.32l.46-1.12,1.15-3.3a3.477,3.477,0,0,0,.11-1.78,5.383,5.383,0,0,1-.01-2.79,5.6,5.6,0,0,0-.49-4.67c-1.64-2.89-5.83-3.09-5.83-3.09a5.858,5.858,0,0,0-5.88,5.01c-1,3.3,1.52,6.21,1.53,6.21a3.708,3.708,0,0,1,.47,1.38,4.146,4.146,0,0,0,.7,1.31,9.51,9.51,0,0,0,2.55,2.27,10.381,10.381,0,0,0,3.95,1.15C352.37,177.93,352.89,177.96,353.15,177.32Z"/><path class="bj" d="M344.66,173.77c.09-2.37.15-2.22.15-2.22.09-.69,1.37.87,1.39-.03.08-4.13,1.68-6.02,2.28-6.31a7.311,7.311,0,0,1,4.65-.64c2.07.48,1.85,3.25,1.85,3.25,2.3-10.08-9.21-7.41-9.21-7.41a6.292,6.292,0,0,0-5.29,6.41c-.96,5.56,4.38,9.05,4.38,9.05Z"/><path class="ba" d="M345.06,172.98a1.123,1.123,0,0,1-.73.18,1.632,1.632,0,0,1-1.4-1.75,1.505,1.505,0,0,1,1.5-1.56,1.462,1.462,0,0,1,.97.5,2.016,2.016,0,0,1,.22,1.68A1.528,1.528,0,0,1,345.06,172.98Z"/><path class="bb" d="M344.71,170.71c-.02-.48-1.02-.07-.88.2a1.561,1.561,0,0,0,.37.4.682.682,0,0,1,.27.54c0,.03,0,.11-.03.13-.13.08-.52-.41-.6-.51a.786.786,0,0,1-.08-.77.48.48,0,0,1,.55-.33c.22.02.44.05.41.32,0,0-.01.05-.01.02Z"/><path class="bb" d="M344.37,171.2c.11-.1.2-.01.3.07a.5.5,0,0,1,.16.29,1.19,1.19,0,0,1-.16.8.584.584,0,0,1-.53.25c-.29-.02-.37-.29-.36-.53,0-.07,0-.22.07-.26s.12.07.16.12a.442.442,0,0,0,.24.11.516.516,0,0,0,.44-.17.3.3,0,0,0,.05-.07c-.01.16-.02.2-.03.11a.613.613,0,0,0-.05-.12c-.06-.11-.17-.2-.24-.31-.04-.07-.1-.24-.05-.29Z"/><path class="g" d="M345.09,173.15a.5.5,0,1,1-.47-.52A.494.494,0,0,1,345.09,173.15Z"/><path class="bc" d="M356.05,186.08s2.99,4.14,3.51,6.27c.34,1.4-2.1,4.56-4.07,5.11C354.4,197.77,354.38,186.36,356.05,186.08Z"/><path class="bn" d="M356.05,186.08s2.99,4.14,3.51,6.27c.34,1.4-2.1,4.56-4.07,5.11C354.4,197.77,354.38,186.36,356.05,186.08Z"/><path class="bn" d="M353.03,182.31l1.7.23a40.429,40.429,0,0,1,3.4,11.41c-.72,4.8-2.26,12.04-4.02,12.56-5.95,1.76-12.17-1.01-12.17-1.01l-2.85-11.37c7.65-2.98,3.78-11.72,3.78-11.72l1.61-.38C344.48,182.02,349.73,186.74,353.03,182.31Z"/><path class="aw" d="M342.39,298.58a10.32,10.32,0,0,0,4.5-.08l-2.29-1.54a35.326,35.326,0,0,1-2.81-4.42,13.857,13.857,0,0,1-.22-3.04h-2.94l-.1,1.64-1.22,2.43s-.17,1.17,1.95,1.54A45.006,45.006,0,0,0,342.39,298.58Z"/><path class="bm" d="M344.6,296.96a2.8,2.8,0,0,1-2.89-.43,13.086,13.086,0,0,1-3.18-5.38,3.328,3.328,0,0,0-1.26,2.9l.08.56.58,4.35h.3l1.05-3.5,1.84,3.42c4.84.93,6.08-.32,6.08-.32Z"/><path class="aw" d="M337.91,255.87l6.43,1.9s-2.48,30.27-2.76,31.73c0,0-2.95.83-2.94,0,.02-2.01-2.58-14.39-2.8-17.54C335.44,266.54,333.97,262.9,337.91,255.87Z"/><path class="aw" d="M343.66,186.75c.15,2.45-1.13,4.85-3.58,5s-8.82-.97-7.29-2.89c3-3.78,4.82-5.67,7.26-5.82C342.51,182.89,343.51,184.3,343.66,186.75Z"/><path class="aw" d="M341.79,190.31l-1.56-4.2-4.56-.61s-11.05,9.74-12.53,12.84c-1.58,3.3,1.35,2.33,2.56,2.08C325.71,200.41,340.32,192.77,341.79,190.31Z"/><path class="aw" d="M322.89,200.46s5.5,7.74,10.63,12.15c0,0,2.21-.22,1.51-1.42-1.19-2.05-6.09-11.63-7.29-13.68C327.06,196.35,322.89,200.46,322.89,200.46Z"/><path class="aw" d="M335.03,211.19l1.21-.03,2.85-1.29c-.01,1.6.15,3.22.15,3.22a31.069,31.069,0,0,1,2.32,2.74c.57.52-.06.81-.06.81a14.683,14.683,0,0,1-3.07-1.88,34.637,34.637,0,0,0,2.91,2.52c.39.51-.26.67-.26.67-1.53-.04-3.29-2.31-3.29-2.31a20.049,20.049,0,0,0,2.46,2.39c.08.46-.18.43-.18.43-1.22.16-2.91-2.03-2.91-2.03l.65.8c1,1.02.08,1.12.08,1.12l-.6-.45a8.3,8.3,0,0,1-2.51-3.2l-1.26-2.1Z"/><path class="bk" d="M352.52,164.46l-4-4.37c4.75-1.61,7.59,3.2,7.59,3.2l-.9,1.18C355.22,164.46,353.51,160.58,352.52,164.46Z"/><path class="bn" d="M357.92,238.85c.67-7.98.89-17.64-1.19-22.85,0,0-18.91,1.24-20.71,5.57,0,0-.91,5-.16,17.28C335.86,238.85,349.02,242.01,357.92,238.85Z"/><path class="bo" d="M338.3,179.04c0,2.72,5.32,5.04,8.83,5.85-.15-3.21-.16-5.62-.16-5.62a55.929,55.929,0,0,1,.4-12.67c.44-3.32,2.84-4.65,5.15-2.13a2.131,2.131,0,0,1-.16-.59,4.725,4.725,0,0,0-.25-.62,6.729,6.729,0,0,0-4.23-3.41,4.985,4.985,0,0,0-1.92-.17,8.647,8.647,0,0,0-6.01,3.71,15.6,15.6,0,0,0-1.5,6.39c-.1,1.2-.18,2.43-.16,3.64C338.31,173.41,338.35,175.7,338.3,179.04Z"/><path class="bp" d="M307.27,176.53a4.878,4.878,0,0,1,.94,1.94c1.89-2.49,3.28-7.39.59-9.63C304.76,165.46,304.67,173.95,307.27,176.53Z"/><path class="bl" d="M298.6,243.58l-.31,2.11,1.23,2.79s-.52.46-1.09-.45l-1.09-2.3.15-2.37Z"/><path class="bl" d="M298.03,244.29l-.43,2.09,1.07,2.86s-.54.43-1.06-.51l-.96-2.36.29-2.36Z"/><path class="as" d="M295.68,244.76l.38-2.45.42-3.04,1.9-.26.65,3.2.16,1.68.19,2.3.1.74s-.6.19-1.06-.99l-.49-2.17-.82,1.7.7,2.99s-.18,1.56-.65.97l-1.57-4.2Z"/><path class="as" d="M303,218.57s-4.21,16.59-4.61,20.44c0,0-1.63,1.94-1.9.26-.53-3.35.22-20.88,1.08-22.27S303,218.57,303,218.57Z"/><path class="as" d="M299.58,198.58l-1.38.45s-2.19,17.01-.34,20.81,3.98-.02,4.68-.45,5.12-19.7,5.12-19.7Z"/><path class="bq" d="M296.61,217.87l.88-21.32c1-5.23,6.36-3.67,6.36-3.67,4.34,1.13,4.14,6,4.14,6l-3.74,20.42s-.78,3.12-4.8,3.12C299.44,222.42,296.48,222.02,296.61,217.87Z"/><rect class="g" width="1.94" height="3.38" transform="translate(295.733 241.37) rotate(-88.029)"/><path class="bq" d="M303.88,220.02s-1.86,12.53-4.54,20.2a14.033,14.033,0,0,1-3.6-.12s-.2-17.97,1.28-23.78C297.02,216.32,304.41,216.47,303.88,220.02Z"/><path class="br" d="M301.16,299.28s-.75,2.93-1.68,3.73a21.6,21.6,0,0,1-4.46,1.97l-1.96.28s-1.36.98,2.38,2,10.29-2.07,10.29-2.07l-1.48-6Z"/><path class="br" d="M321.12,307.35c.66-1.03,2.04-6.63,2.04-6.63l3.05-.09,1.91,6.16s.31,1.03-.32,1.42c0,0-3.81,1.32-7.06-.06A2.939,2.939,0,0,1,321.12,307.35Z"/><path class="aw" d="M302.2,222.33l-3.9-23.82s-1.34-3.58,1.34-5.37l10.24-4.81h7.22l12.31,7.27-8.07,26.73H302.2Z"/><path class="bs" d="M321.34,222.33s2.21,5.05,2.74,16.65c0,0-16.64,5.22-21.86,0l-.03-16.65Z"/><path class="bs" d="M310.43,238.93a6.829,6.829,0,1,0,6.88-7A6.94,6.94,0,0,0,310.43,238.93Z"/><path class="bs" d="M324.08,239.89l1.81,29.65s-3.2,7.71-8.88,2.97l-6.16-30.5S313.84,231.76,324.08,239.89Z"/><path class="bs" d="M325.89,269.54s1.71,5.57,1.2,15.26l.51,18.12-6.28.12-4.27-30.45C317.04,272.6,321.32,262.73,325.89,269.54Z"/><path class="bs" d="M302.26,239c-.39,3.87.99,7.19,4.74,7.57a7.056,7.056,0,0,0,1.44-14.03C304.68,232.16,302.65,235.12,302.26,239Z"/><path class="bs" d="M312.9,244.1l-3.45,27.32s-7.47,3.31-8.8-1.32c0,0,.17-20.81,1.6-31.09C302.26,239,311.48,234.5,312.9,244.1Z"/><path class="bs" d="M309.46,270.3s1.05,4.01-.08,11.32l-2.59,20.7-6.62-.35.5-32.98C300.66,268.99,304.78,264.67,309.46,270.3Z"/><path class="aw" d="M327.82,220.2c1.41,14.11.83,15.04.68,20.7,0,0,.75,1.99,2.03.87s3.32-19.9,2.68-21.4C332.25,218.15,327.82,220.2,327.82,220.2Z"/><path class="aw" d="M328.71,240.34l-1.98,1.98-1.69,2.47c.83.56,1.71-.82,1.71-.82a19.786,19.786,0,0,1-1.6,4.1c-.26.78.48.72.48.72a15.45,15.45,0,0,0,1.88-3.34,38.678,38.678,0,0,1-1.4,3.85c-.09.68.59.49.59.49,1.4-.83,1.86-3.85,1.86-3.85a21.759,21.759,0,0,1-1.04,3.5c.16.47.39.31.39.31,1.21-.49,1.65-3.4,1.65-3.4l-.19,1.09c-.4,1.46.51,1.09.51,1.09l.33-.73a8.82,8.82,0,0,0,.67-4.28l-.01-2.63Z"/><path class="aw" d="M324.7,196.04a5.406,5.406,0,0,1,6.37,3.31s2.39,14.62,2.36,20.88c-.02,4.23-5.18.82-5.52.08-.75-1.64-6.17-19.25-6.17-19.25S321.46,196.92,324.7,196.04Z"/><path class="bt" d="M327.11,220.55l-6.16-19.98c.14-4.97,5-5.71,5-5.71a4.973,4.973,0,0,1,5.57,3.49l2.21,20s.75,4.5-1.85,4.56C331.88,222.92,327.52,223.39,327.11,220.55Z"/><rect class="g" width="1.94" height="3.38" transform="translate(327.83 240.947) rotate(-78.686)"/><path class="bt" d="M326.74,219.34s.8,16.78,1.09,20.21l3.75.79s3.39-16.82,2.16-21.98C333.73,218.36,328.83,215.69,326.74,219.34Z"/><path class="aw" d="M317.14,183.06v7.72h-8.16a10.692,10.692,0,0,0,1-7.72Z"/><path class="az" d="M313,189.62c-.74.47-2.3,1.48-3.19.89a.866.866,0,0,1-.39-.6,11.323,11.323,0,0,0,.56-6.85h7.16v.7C316.24,186.02,315.1,188.26,313,189.62Z"/><path class="ba" d="M317.33,183.17s1.39-.6,2.96-4.04c0,0,3.41-4.06.99-8.68,0,0-1.43-3.9-8.36-2.81C312.93,167.64,312.31,178.1,317.33,183.17Z"/><path class="aw" d="M308.8,185.26l-.46-1.21-1.28-4.5a4.68,4.68,0,0,1-.07-1.9,4.786,4.786,0,0,0,.02-1.96,5.716,5.716,0,0,1,.85-5.08c1.83-3.05,6.33-3.15,6.33-3.15,5.57.14,6.16,5.52,6.16,5.52.99,3.56-1.79,6.61-1.8,6.62-.22.24-.08,1.42-.14,1.76-.26,1.44-1.61,2.35-2.81,2.98a13.262,13.262,0,0,1-4.4,1.61C310.66,186,309.06,185.95,308.8,185.26Z"/><path class="g" d="M322.67,221.68c-.02.79,1.19,9.1.68,9.2,0,0-13.77,3.17-21.12,0l-.03-8.56-3.9-23.82s-1.34-3.58,1.34-5.37l10.24-4.81-.69,2.07,1.48,4.21,6.43-6.28,12.31,7.27c-.69,2.28-1.37,4.56-2.06,6.84-1.27,4.2-2.5,8.41-3.81,12.6C323.54,215.04,322.46,219.59,322.67,221.68Z"/><path class="bu" d="M311.56,189.82l.08,3.84,1.42-1.38Z"/><path class="bv" d="M309.76,196.01a.55.55,0,1,0,1.1,0,.555.555,0,0,0-.55-.55A.548.548,0,0,0,309.76,196.01Z"/><path class="bv" d="M309.76,205.94a.55.55,0,1,0,1.1,0,.55.55,0,1,0-1.1,0Z"/><path class="bv" d="M309.76,215.88a.548.548,0,0,0,.55.55.55.55,0,0,0,0-1.1A.548.548,0,0,0,309.76,215.88Z"/><circle class="bv" cx="0.55" cy="0.55" r="0.55" transform="translate(309.76 225.27)"/><line class="bw" y2="37.71" transform="translate(311.56 194.1)"/><path class="bx" d="M302.31,231.67s7.03,3.3,21.43-.07c.24-.06.14-.67.14-.67l-.14-1.39c-.06-.44-.31-.42-.31-.42s-13.77,3.17-21.12,0c0,0-.3-.05-.31.39v1.73A.457.457,0,0,0,302.31,231.67Z"/><path class="by" d="M309.46,232.71a.393.393,0,0,0,.39.4h2.8a.4.4,0,0,0,.39-.4v-2.02a.393.393,0,0,0-.39-.4h-2.8a.4.4,0,0,0-.39.4Z"/><line class="by" x1="1.49" transform="translate(311.55 231.58)"/><path class="bv" d="M311.56,189.74s4.52-1.75,5.58-3.5l1.33,2.54-4.76,4.57-2.15-3.52"/><path class="bp" d="M315.99,171.49c.15.27.76,2.19.01,3.15,1.57,1.21.81,3.66.81,3.66l.38.02c2.21-.57,1.47,3.6,1.47,3.6.02-.1.38-.33.46-.4a16.016,16.016,0,0,0,1.63-2.42,12.606,12.606,0,0,0,1.82-4.67c.28-1.15.16-4.26-1.51-5.82C321.06,168.61,319.11,168.61,315.99,171.49Z"/><path class="aw" d="M317.73,180.11a1.23,1.23,0,0,0,.78.28,1.807,1.807,0,0,0,1.73-1.78,1.661,1.661,0,0,0-1.48-1.88,1.564,1.564,0,0,0-1.12.45,2.225,2.225,0,0,0-.42,1.82A1.635,1.635,0,0,0,317.73,180.11Z"/><path class="bb" d="M318.36,177.66c.08-.53,1.13.03.95.32a1.725,1.725,0,0,1-.45.4.786.786,0,0,0-.36.56.257.257,0,0,0,.01.15c.13.1.61-.39.72-.5a.882.882,0,0,0,.17-.84.542.542,0,0,0-.57-.43c-.24,0-.49.01-.49.31.01.01.02.06.02.03Z"/><path class="bb" d="M318.68,178.23c-.11-.12-.22-.03-.34.05a.536.536,0,0,0-.21.3,1.3,1.3,0,0,0,.09.89.66.66,0,0,0,.56.33c.32,0,.43-.28.46-.55.01-.07.02-.25-.05-.29s-.14.07-.19.11a.394.394,0,0,1-.28.09.553.553,0,0,1-.47-.24.2.2,0,0,1-.04-.08c-.01.18,0,.22.02.12a.346.346,0,0,1,.07-.12c.08-.12.21-.2.3-.31.05-.06.13-.24.08-.3Z"/><path class="bt" d="M319.15,189.53l-5.47,19.23.81,34.94s8.51-.52,12.22-3.88l-2.62-20.41,5.32-23.81Z"/><path class="bz" d="M319.15,189.53l-5.47,19.23.02.91,6.89-7.06s.72-1.22-.26-1.95l-1.63-1.56,1.16-.83s1.63-.79,1.43-2.27l-.47-5.57Z"/><path class="bt" d="M307.02,189.67l-6.23,2.93a3.892,3.892,0,0,0-2.82,4.61l2.05,20.36-1.03,21.58s-.88,4.01,6.35,3.33l2.56-34.24Z"/><path class="bv" d="M307.75,189.93a5.746,5.746,0,0,1,2.45-2.96l-.27,5.54S308.8,189.67,307.75,189.93Z"/><path class="bu" d="M307.56,192.51l.19-2.57c.62-.15,1.18.72,1.63,1.43Z"/><path class="bz" d="M307.02,189.67l-1.61.76-1.16,5.36s-.58,1.39.26,1.75l1.52.88-2.13,1.35a1.233,1.233,0,0,0-.43,1.74l4.28,8.36.13-1.43Z"/><path class="ca" d="M317.79,180.92l-.6-2.6-.38-.02a2.846,2.846,0,0,1-2.45,2.03s-.89.13-1.27.19c-.05.01-.6-.54-.67-.58a4.322,4.322,0,0,0-2.06-.56,4.943,4.943,0,0,0-2.2.14c-.09.04-.98.49-1.01.36a33.827,33.827,0,0,0,1.61,5.36s.29.92,2.43.69a12.229,12.229,0,0,0,6.54-2.99C318.21,182.57,317.79,180.92,317.79,180.92Zm-9.6-.18c.08-.43.1-.71.47-.78a7.525,7.525,0,0,1,2.27.08c.59.07,1.32.15,1.56.8a2.5,2.5,0,0,1-.24,1.91,2.389,2.389,0,0,1-2.97.76A3.355,3.355,0,0,1,308.19,180.74Z"/><path class="cb" d="M312,191.21l.17-.31,1.13,1.74-.97.35Z"/><path class="cb" d="M309.38,191.36l-.32-.49a1.31,1.31,0,0,0,.06,2.11A5.667,5.667,0,0,1,309.38,191.36Z"/><path class="cb" d="M312,191.21a2.512,2.512,0,0,1-2.63.15,2.007,2.007,0,0,0-.26,1.63l.86,1.78h1.2l1.14-1.78C312.33,192.99,312.45,192.6,312,191.21Z"/><path class="cc" d="M311.18,194.77l.98,25.45-2.03,3.95-1.66-3.93,1.51-25.47Z"/><path class="bp" d="M315.67,171.14l1.86-.92,3.53-1.61s0-2.42-4.46-3.36c0,0-5.46-.86-9.81,1.44a2.342,2.342,0,0,1-2.12.07S306.18,173.08,315.67,171.14Z"/><path class="af" d="M569,185.64s4.64,1.16,4.64-4.64V112.29s.29-7.54-6.09-11.02L533.92,82.14s-5.8-2.9-5.8,4.06v66.1s-.58,8.12,4.64,12.18Z"/><path class="ap" d="M523.49,94.9l38.85,23.19-.01,4.68L523.49,98.25Z"/><path class="ai" d="M570.45,111.13l-8.11,6.96L523.49,94.9l8.12-6.38Z"/><path class="ao" d="M537.23,91.79l-5.62-3.27-8.12,6.38,5.56,3.32Z"/><path class="ao" d="M548.44,98.31l-5.62-3.27-8.23,6.47,5.56,3.32Z"/><path class="ao" d="M559.67,104.83l-5.62-3.27-8.36,6.58,5.56,3.32Z"/><path class="ao" d="M570.45,111.1l-5.62-3.27-8.03,6.94,5.56,3.32Z"/><path class="g" d="M562.34,122.79h0l-.15-.1-30.74-19.4v49.37l39,22.61V111.13l-8.11,6.96Z"/><path class="cd" d="M551.23,111.46l-5.54-3.31v4.12l5.54,3.5Z"/><path class="cd" d="M534.59,105.26l5.54,3.5v-3.93l-5.54-3.3Z"/><path class="cd" d="M556.8,119.28l5.53,3.49.01-4.68-5.54-3.31Z"/><path class="cd" d="M529.03,98.2l-5.54-3.3v3.35l5.54,3.5Z"/><path class="ah" d="M572.19,98.96,538.56,79.83s-.38-.24-1-.6a4.031,4.031,0,0,0-3.64.02L529.9,81.9c1.7-.91,4.02.25,4.02.25l33.63,19.13c6.38,3.48,6.09,11.02,6.09,11.02V181c0,3.25-1.46,4.32-2.74,4.62v.01c2.44-.58,6.8-2.2,6.8-6.38V110.54C577.7,110.55,578.57,102.43,572.19,98.96Z"/><path class="ae" d="M558.75,124.67l-10.72-6.22v1.98l8.71,5.05-3.04,10.57-7.74-5.16c-.1-1.04-.39-3.93-.69-6.83-.78-7.67-.78-7.67-1.23-7.93l-3.01-1.74v1.98l1.8,1.04c.22,1.7.97,9.08,1.46,14.05l.04.4.58.39a1.894,1.894,0,0,0-.6,1.64c.08.96.68,1.69,1.35,1.63s1.14-.87,1.07-1.83a2.526,2.526,0,0,0-.04-.27l5.25,3.49a2.3,2.3,0,0,0-.7,1.96c.09,1.15.82,2.03,1.62,1.96s1.37-1.05,1.28-2.2c-.01-.1-.03-.19-.04-.28l.6.4Z"/><path class="aj" d="M555.48,147.59l-12.71-7.3c-1.95-1.12-2.29,1.3-2.29,1.3v2.18c.05.54.46,1.86,2.97,3.44l11.39,7.16h0c2.37,1.49,2.33,0,2.33,0v-3.43A3.967,3.967,0,0,0,555.48,147.59Z"/><path class="ae" d="M555.04,147.86l-12.71-7.3c-1.95-1.12-2.29,1.3-2.29,1.3v2.18c.05.54.46,1.86,2.97,3.44l11.39,7.16h0c2.37,1.49,2.33,0,2.33,0v-3.43A3.947,3.947,0,0,0,555.04,147.86Z"/><path class="g" d="M544.66,143.16l1.26.75a4.913,4.913,0,0,1,.54.36.9.9,0,0,1,.25.33.915.915,0,0,1,.09.41.847.847,0,0,1-.12.43.905.905,0,0,1-.36.34.915.915,0,0,1-.49.09.926.926,0,0,1,.27.55.893.893,0,0,1-.13.57,1.2,1.2,0,0,1-.35.36.914.914,0,0,1-.47.16,1.118,1.118,0,0,1-.52-.1c-.11-.05-.37-.2-.78-.44l-1.08-.64Zm.33.91-.43.73.42.25c.25.15.41.24.47.27a.491.491,0,0,0,.33.04.406.406,0,0,0,.24-.19.387.387,0,0,0,.06-.29.453.453,0,0,0-.17-.25c-.06-.04-.24-.16-.54-.34Zm-.75,1.25-.5.85.59.35a2.6,2.6,0,0,0,.45.24.473.473,0,0,0,.31.01.437.437,0,0,0,.25-.22.421.421,0,0,0,.07-.28.46.46,0,0,0-.11-.26,2.564,2.564,0,0,0-.54-.38Z"/><path class="g" d="M547.85,145.05l.64.38-1.02,1.71a3.96,3.96,0,0,0-.29.54.58.58,0,0,0,.01.43.816.816,0,0,0,.35.37.73.73,0,0,0,.48.13.528.528,0,0,0,.33-.17,4.9,4.9,0,0,0,.35-.52l1.04-1.75.64.38-.99,1.66a4.7,4.7,0,0,1-.53.77.972.972,0,0,1-.43.28,1.3,1.3,0,0,1-.53.04,1.71,1.71,0,0,1-.67-.27,2.216,2.216,0,0,1-.63-.51,1.3,1.3,0,0,1-.21-.49,1.154,1.154,0,0,1,.03-.46,4.434,4.434,0,0,1,.41-.84Z"/><path class="g" d="M550,150.61l.79-1.33-.07-2.52.75.45v1.69l1.47-.82.74.44-2.26,1.15-.79,1.33Z"/><path class="ap" d="M506.32,153.69s-.48,5.7,3.53,7.87.34-7.87.34-7.87S506.06,150.59,506.32,153.69Z"/><path class="ao" d="M530.67,153.57v-1.02l6.38-9.57s.48-3.53,3.33-3.94,2.44,3.73,1.49,4.75-2.78,1.43-3.46,3.12-3.8,12.56-6.65,10.11C528.91,154.59,530.67,153.57,530.67,153.57Z"/><path class="ao" d="M523,192.74l-2.58,25.66,3.33,1.49s3.05-.34,2.92,1.83-4.34,3.05-5.7,2.24-2.65-2.31-3.05-1.43v1.72h-1.49l-.27-2.4s-1.46-2.65.56-3.94l-1.07-25.46Z"/><path class="ao" d="M512.69,192.47l.88.61-4.55,23.89,1.76,2.38,1.97,1.02s1.02.95.48,1.83-2.31,1.76-4.68.75a35.2,35.2,0,0,1-2.85-3.19v2.17h-1.49l-.27-3.67a2.529,2.529,0,0,1,1.09-3.26l1.83-23.56Z"/><path class="ao" d="M521.37,129.27a6.387,6.387,0,0,1,1.02,7.13c-2.04,3.97-7.33,2.62-7.33,2.62S516.69,126.32,521.37,129.27Z"/><path class="ai" d="M517.51,141.42s2.39-2.17,5.64,2.52c0,0,10.85,9.78,10.11,11.47,0,0-.48,3.8-3.8,2.24,0,0-6.16-7.47-6.3-3.94,0,0,.74,12.08,1.76,17.17,0,0,2.78,15.14,2.78,21.93,0,0-15.14,7.13-27.56-1.63,0,0,1.29-16.97,9.1-28.99a8.187,8.187,0,0,0-.75-5.7C506.93,153.37,517.51,141.42,517.51,141.42Z"/><path class="ah" d="M519.27,136.6a6.512,6.512,0,0,1,2.38-4.07c1.97-1.29,2.04-5.36,0-6.58s-6.45-2.92-9.98.68c0,0-2.1,1.76-3.05,7.94s-1.56,5.29-3.12,7.13-3.6,8.14-1.56,12.22c1.83,3.67,6.81,6.42,9.44,2.69s2.3-4.28,4.55-5.4c2.85-1.43,1.22-6.79,1.22-6.79A39.781,39.781,0,0,1,519.27,136.6Z"/><path class="ap" d="M519.41,220.1a8.881,8.881,0,0,0-2.7-2.17c-2.02,1.29-.56,3.94-.56,3.94l.27,2.4h1.49v-1.72c.41-.88,1.7.61,3.05,1.43s5.57-.07,5.7-2.24-2.92-1.83-2.92-1.83C523.51,221.93,520.08,221.18,519.41,220.1Z"/><path class="ap" d="M503.93,218.26l.27,3.67h1.49v-2.17a35.2,35.2,0,0,0,2.85,3.19c2.38,1.02,4.14.14,4.68-.75s-.48-1.83-.48-1.83l-1.97-1.02a1.964,1.964,0,0,1-3.21-.88,8.326,8.326,0,0,0-2.56-3.46A2.522,2.522,0,0,0,503.93,218.26Z"/><ellipse class="g" cx="2.24" cy="3.19" rx="2.24" ry="3.19" transform="translate(544.73 163.87)"/><path class="ao" d="M605.72,174.89l-8.87,5.47-2.66,34.44,5.76-9.46,8.72,1.92Z"/><path class="am" d="M572.45,164.98l24.4,15.38,8.87-5.47L580.88,160.1l-8.43,4.88"/><path class="ap" d="M608.67,207.26l-8.72-1.92-5.76,9.46Z"/><path class="ai" d="M572.45,164.98l24.4,15.38-2.66,34.44-25.52-16.32Z"/><path class="al" d="M572.45,164.98l8.43-4.88v10.19Z"/><path class="g" d="M576.07,174.74s-.96-.52-.89-2.37,3.1-.37,3.47,1.18-.3,2.37-.96,2.29v6.06a10.729,10.729,0,0,0,2.14,7.76s5.4,7.02,7.69,2V182.2s-1.18-.89-.59-3.1c0,0,3.1-1.63,3.4,2.29,0,0-.15,1.4-.81,1.4l-.07,7.84s.15,5.54-5.1,4.66A12.3,12.3,0,0,1,576,184.57Z"/><path class="ce" d="M537.93,184.35l8.87,5.47,2.66,34.44-5.77-9.46-8.72,1.92Z"/><path class="am" d="M571.19,174.44,546.8,189.82l-8.87-5.47,24.84-14.79,8.42,4.88"/><path class="aj" d="M534.97,216.72l8.72-1.92,5.77,9.46Z"/><path class="ae" d="M571.19,174.44,546.8,189.82l2.66,34.44,25.55-16.06Z"/><path class="al" d="M571.19,174.44l-8.42-4.88v10.19Z"/><path class="g" d="M567.57,184.2s.96-.52.89-2.37-3.1-.37-3.47,1.18.3,2.37.96,2.29v6.06a10.729,10.729,0,0,1-2.14,7.76s-5.4,7.02-7.69,2v-9.46s1.18-.89.59-3.1c0,0-3.1-1.63-3.4,2.29,0,0,.15,1.4.81,1.4l.07,7.84s-.15,5.54,5.1,4.66a12.3,12.3,0,0,0,8.35-10.72Z"/><path class="ae" d="M534.58,246.21a45.258,45.258,0,0,1-38.93-68.36,45.255,45.255,0,0,1,15.58-76.65c2.22-25.33,18.04-44.35,37.03-44.35,19.3,0,35.49,20.12,37.14,45.97a28.189,28.189,0,0,1,6.41,2.18c16.47,7.94,22.73,31.15,14.74,54.23C617.34,166.73,624,180,624,194.08c0,22.7-16.73,41.16-37.29,41.16a34.553,34.553,0,0,1-17.69-4.93A45.109,45.109,0,0,1,534.58,246.21ZM548.26,59c-18.03,0-33.05,18.52-34.94,43.08l-.06.72-.69.22a43.1,43.1,0,0,0-14.84,73.8l.7.6-.49.78a43.115,43.115,0,0,0,70.01,50.03l.6-.74.8.51a32.466,32.466,0,0,0,17.34,5.09c19.37,0,35.14-17.5,35.14-39.01,0-13.67-6.58-26.52-17.18-33.53l-.7-.47.29-.8c8.03-22.3,2.28-44.81-13.38-52.35a26.009,26.009,0,0,0-6.7-2.17l-.84-.15-.04-.85C582.01,78.66,566.62,59,548.26,59Z"/><path class="ae" d="M266.43,171.64c-32.13-35.66-79.16-16.08-79.63-15.88l-.98-2.3a86.329,86.329,0,0,1,28.56-5.78c.24-.01.48-.02.73-.02,14.94-.37,36.04,3.28,53.18,22.3Z"/><path class="ae" d="M393.03,162.21l-1.66-1.87c.32-.29,35.24-28.58,90.7-13.62l-.65,2.41C427.32,134.55,393.34,161.93,393.03,162.21Z"/><path class="ae" d="M300.08,181.1c-10.52-24.02-4.01-43.4,3.31-55.44a73.5,73.5,0,0,1,18.54-20.5l1.43,2.05a72.221,72.221,0,0,0-17.89,19.82c-10.15,16.74-11.19,34.59-3.1,53.06Z"/></svg>