<?xml version="1.0" encoding="utf-8"?>
<!-- Generator: Adobe Illustrator 23.0.5, SVG Export Plug-In . SVG Version: 6.00 Build 0)  -->
<svg version="1.1" id="Layer_1" xmlns="http://www.w3.org/2000/svg" xmlns:xlink="http://www.w3.org/1999/xlink" x="0px" y="0px"
	 viewBox="0 0 624 420" style="enable-background:new 0 0 624 420;" xml:space="preserve">
<style type="text/css">
	.st0{opacity:0.15;fill:#35B24A;enable-background:new    ;}
	.st1{fill:#00A26D;}
	.st2{fill:#9CB220;}
	.st3{fill:#D0DA67;}
	.st4{fill:none;stroke:#D0DA67;stroke-width:5.5593;stroke-miterlimit:10;}
	.st5{opacity:0.3;fill:#FFF7BC;}
	.st6{fill:#462703;}
	.st7{fill:#683B11;}
	.st8{fill:none;stroke:#925F36;stroke-width:1.2269;stroke-linecap:round;stroke-miterlimit:10;stroke-dasharray:3.2717;}
	.st9{fill:#8A4E1C;}
	.st10{fill:#F29100;}
	.st11{fill:#CB7D00;}
	.st12{fill:#B0B0AF;}
	.st13{fill:#D9D9D9;}
	.st14{fill:#77C4D5;}
	.st15{fill:#C2D0D8;}
	.st16{fill:#C6C6C5;}
	.st17{fill:#9FC418;}
	.st18{fill:#86B01E;}
	.st19{fill:#CED500;}
	.st20{fill:#015E3A;}
	.st21{fill:#FFFFFF;}
	.st22{fill:none;stroke:#015E3A;stroke-width:4;stroke-miterlimit:10;}
</style>
<rect class="st0" width="624" height="419.2"/>
<g>
	
		<ellipse transform="matrix(0.2298 -0.9732 0.9732 0.2298 -53.1028 216.1881)" class="st1" cx="110" cy="141.6" rx="33.9" ry="33.9"/>
	
		<ellipse transform="matrix(0.2298 -0.9732 0.9732 0.2298 239.3276 415.5728)" class="st1" cx="382.2" cy="56.6" rx="33.9" ry="33.9"/>
	
		<ellipse transform="matrix(0.7071 -0.7071 0.7071 0.7071 32.2268 190.972)" class="st1" cx="246.6" cy="56.6" rx="33.9" ry="33.9"/>
	<g>
		<path class="st1" d="M84.6,266.6c0,18.7-15.2,33.9-33.9,33.9c-18.7,0-33.9-15.2-33.9-33.9c0-18.7,15.2-33.9,33.9-33.9
			C69.4,232.7,84.6,247.9,84.6,266.6z"/>
		<g>
			<polyline class="st1" points="34.7,246.6 51,262.5 51,288 			"/>
			<line class="st1" x1="51" y1="262.7" x2="66.8" y2="246.4"/>
		</g>
	</g>
	<path class="st1" d="M612,266.6c0,18.7-15.2,33.9-33.9,33.9c-18.7,0-33.9-15.2-33.9-33.9c0-18.7,15.2-33.9,33.9-33.9
		C596.8,232.7,612,247.9,612,266.6z"/>
	
		<ellipse transform="matrix(0.7071 -0.7071 0.7071 0.7071 51.8956 408.5735)" class="st1" cx="519.1" cy="141.6" rx="33.9" ry="33.9"/>
	<ellipse class="st1" cx="241.9" cy="383.7" rx="88.3" ry="14.6"/>
	<ellipse class="st1" cx="355.3" cy="369.1" rx="88.3" ry="14.6"/>
	<g>
		<g>
			
				<rect x="296.3" y="229.2" transform="matrix(0.9094 -0.416 0.416 0.9094 -79.3107 188.8406)" class="st2" width="194.9" height="94.5"/>
			<path class="st3" d="M482.9,264l-21.2-46.3c-6.4,2.9-14,0.1-16.9-6.3c-0.1-0.1-0.1-0.3-0.2-0.5L311.1,272
				c0.1,0.1,0.2,0.3,0.2,0.4c2.9,6.4,0.1,14-6.3,16.9c-0.1,0-0.1,0-0.2,0.1l21.2,46.3c0.1,0,0.1-0.1,0.2-0.1
				c6.4-2.9,14-0.1,16.9,6.3l133.5-61C473.7,274.5,476.5,266.9,482.9,264z"/>
			<path class="st2" d="M428.7,260.5c8.8,19.3,0.3,42.1-19,51c-19.3,8.8-42.1,0.3-51-19c-8.8-19.3-0.3-42.1,19-51
				C397.1,232.7,419.9,241.1,428.7,260.5z"/>
			<g>
				<path class="st4" d="M401.1,250.3c0,0-26.7-0.6-26.1,13.9c0.6,16.8,32.7,3.6,40.2,16.9c7.7,13.6-16.5,23.8-30,18.8"/>
				<line class="st4" x1="383.2" y1="253.3" x2="379" y2="244.2"/>
				<line class="st4" x1="408.4" y1="308.5" x2="404.2" y2="299.3"/>
			</g>
			
				<rect x="306.1" y="274.3" transform="matrix(0.9094 -0.416 0.416 0.9094 -87.3599 194.8771)" class="st5" width="194.9" height="47.3"/>
		</g>
		<g>
			
				<rect x="277.1" y="183.5" transform="matrix(0.7413 -0.6712 0.6712 0.7413 -57.9472 311.1294)" class="st2" width="194.9" height="94.5"/>
			<path class="st3" d="M455.8,191.9l-34.2-37.8c-5.2,4.7-13.3,4.3-18-0.9c-0.1-0.1-0.2-0.3-0.3-0.4l-108.8,98.5
				c0.1,0.1,0.2,0.2,0.3,0.3c4.7,5.2,4.3,13.3-0.9,18c0,0-0.1,0.1-0.2,0.1l34.2,37.8c0,0,0.1-0.1,0.1-0.1c5.2-4.7,13.3-4.3,18,0.9
				l108.8-98.5C450.1,204.7,450.5,196.6,455.8,191.9z"/>
			<path class="st2" d="M403.1,204.9c14.3,15.7,13,40.1-2.7,54.3c-15.7,14.3-40.1,13.1-54.3-2.7c-14.3-15.7-13-40.1,2.7-54.3
				C364.5,188,388.8,189.2,403.1,204.9z"/>
			<g>
				<path class="st4" d="M373.7,203.6c0,0-25.6,7.5-20.7,21.2c5.6,15.8,32.2-6.4,43.4,4c11.4,10.6-8.6,27.7-22.9,27"/>
				<line class="st4" x1="357.5" y1="211.9" x2="350.8" y2="204.4"/>
				<line class="st4" x1="398.2" y1="256.9" x2="391.5" y2="249.4"/>
			</g>
			
				<rect x="293" y="224.6" transform="matrix(0.7413 -0.6712 0.6712 0.7413 -65.6023 326.3102)" class="st5" width="194.9" height="47.3"/>
		</g>
		<g>
			
				<rect x="227.3" y="156.3" transform="matrix(0.3876 -0.9218 0.9218 0.3876 11.2596 424.0614)" class="st2" width="194.9" height="94.5"/>
			<path class="st3" d="M381.9,134.1l-47-19.7c-2.7,6.5-10.2,9.5-16.7,6.8c-0.1-0.1-0.3-0.1-0.4-0.2l-56.9,135.3
				c0.2,0.1,0.3,0.1,0.5,0.2c6.5,2.7,9.5,10.2,6.8,16.7c0,0.1-0.1,0.1-0.1,0.2l47,19.8c0-0.1,0-0.1,0.1-0.2
				c2.7-6.5,10.2-9.5,16.7-6.8l56.9-135.3C382.2,148,379.2,140.5,381.9,134.1z"/>
			<path class="st2" d="M339.7,168.1c19.6,8.2,28.8,30.8,20.5,50.3c-8.2,19.6-30.8,28.8-50.3,20.5c-19.6-8.2-28.8-30.8-20.5-50.3
				C297.6,169.1,320.1,159.9,339.7,168.1z"/>
			<g>
				<path class="st4" d="M312.5,179.3c0,0-20,17.6-9.8,28c11.8,11.9,26.5-19.5,41-14.8c14.8,4.8,3.9,28.7-9.3,34.2"/>
				<line class="st4" x1="301.4" y1="193.7" x2="292.1" y2="189.8"/>
				<line class="st4" x1="357.3" y1="217.2" x2="348" y2="213.3"/>
			</g>
			
				<rect x="249.1" y="189.1" transform="matrix(0.3876 -0.9218 0.9218 0.3876 16.157 449.7556)" class="st5" width="194.9" height="47.3"/>
		</g>
		<g>
			<path class="st6" d="M459.7,348c0,7-5.7,12.6-12.6,12.6H308.7c-7,0-12.6-5.7-12.6-12.6V251c0-7,5.7-12.6,12.6-12.6h138.4
				c7,0,12.6,5.7,12.6,12.6V348z"/>
			<path class="st7" d="M459.7,356.4c0,7-5.7,12.6-12.6,12.6H308.7c-7,0-12.6-5.7-12.6-12.6v-96.9c0-7,5.7-12.6,12.6-12.6h138.4
				c7,0,12.6,5.7,12.6,12.6V356.4z"/>
			<path class="st8" d="M450.4,350.8c0,6.2-5,11.2-11.2,11.2H316.6c-6.2,0-11.2-5-11.2-11.2V265c0-6.2,5-11.2,11.2-11.2h122.5
				c6.2,0,11.2,5,11.2,11.2V350.8z"/>
			<path class="st6" d="M468.9,317.2c0,0-4.5,8.1-10,8.1h-46.5c-5.5,0-10-4.5-10-10V294c0-5.5,3.9-10,3.9-10h52.6
				c5.5,0,10,4.5,10,10V317.2z"/>
			<path class="st9" d="M470.8,311.2c0,5.5-4.5,10-10,10h-46.5c-5.5,0-10-4.5-10-10v-21.3c0-5.5,4.5-10,10-10h46.5
				c5.5,0,10,4.5,10,10V311.2z"/>
			<path class="st10" d="M432.5,300.5c0,6.8-5.5,12.4-12.4,12.4c-6.8,0-12.4-5.5-12.4-12.4c0-6.8,5.5-12.4,12.4-12.4
				C427,288.2,432.5,293.7,432.5,300.5z"/>
			<path class="st11" d="M425.2,289.2c1.7,2.1,2.7,4.8,2.7,7.7c0,6.8-5.5,12.4-12.4,12.4c-1.8,0-3.5-0.4-5-1.1
				c2.3,2.8,5.7,4.6,9.7,4.6c6.8,0,12.4-5.5,12.4-12.4C432.5,295.5,429.5,291.2,425.2,289.2z"/>
		</g>
		<g>
			<g>
				<path class="st12" d="M307,370.7c0,7-5.7,12.6-12.6,12.6H181.3c-7,0-12.6-5.7-12.6-12.6V133.2c0-7,5.7-12.6,12.6-12.6h113.1
					c7,0,12.6,5.7,12.6,12.6V370.7z"/>
				<path class="st13" d="M311.9,370.7c0,7-5.7,12.6-12.6,12.6H186.2c-7,0-12.6-5.7-12.6-12.6V133.2c0-7,5.7-12.6,12.6-12.6h113.1
					c7,0,12.6,5.7,12.6,12.6V370.7z"/>
				<rect x="178.4" y="137.5" class="st14" width="128.6" height="219.9"/>
				<polygon class="st15" points="180.9,353.1 180.9,137.5 178.4,137.5 178.4,357.3 307,357.3 307,353.1 				"/>
				<rect x="222.4" y="120.6" class="st16" width="40.7" height="9.1"/>
				<path class="st16" d="M258.1,369.1c0,4.4-3.5,7.9-7.9,7.9h-15c-4.4,0-7.9-3.5-7.9-7.9l0,0c0-4.4,3.5-7.9,7.9-7.9h15
					C254.6,361.2,258.1,364.7,258.1,369.1L258.1,369.1z"/>
			</g>
			<g>
				<rect x="188.3" y="285.9" class="st17" width="108.9" height="42.4"/>
				<rect x="188.3" y="305.2" class="st18" width="108.9" height="23.1"/>
				<path class="st19" d="M292.4,292.5c0,2.1-1.6,3.8-3.6,3.8h-93.7c-2,0-3.6-1.7-3.6-3.8l0,0c0-2.1,1.6-3.8,3.6-3.8h93.7
					C290.7,288.7,292.4,290.4,292.4,292.5L292.4,292.5z"/>
				<g>
					<path class="st20" d="M222.4,299.8h2.5v17.5h-2.5V299.8z M223.8,315h4.8c1.2,0,2.2-0.2,2.7-0.7c0.6-0.5,0.9-1.1,0.9-2v0
						c0-0.6-0.1-1.1-0.3-1.5c-0.2-0.4-0.5-0.8-1-1c-0.4-0.2-1-0.3-1.7-0.3h-5.4v-2.2h5.4c0.9,0,1.6-0.2,2.1-0.6
						c0.5-0.4,0.7-1.1,0.7-1.9c0-0.9-0.3-1.5-0.8-2c-0.5-0.4-1.3-0.7-2.3-0.7h-5v-2.3h5.5c1.1,0,2.1,0.2,2.8,0.6
						c0.8,0.4,1.3,0.9,1.7,1.6c0.4,0.7,0.6,1.6,0.6,2.5c0,0.6-0.1,1.2-0.3,1.7c-0.2,0.5-0.6,1-1.1,1.4c-0.5,0.4-1.1,0.6-1.8,0.8
						c0.7,0.1,1.3,0.4,1.8,0.8c0.5,0.4,0.9,0.9,1.2,1.5c0.3,0.6,0.4,1.2,0.4,1.9v0c0,0.9-0.2,1.8-0.6,2.5c-0.4,0.7-1,1.3-1.8,1.7
						c-0.8,0.4-1.7,0.6-2.7,0.6h-5.7V315z"/>
					<path class="st20" d="M240.9,316.7c-0.9-0.5-1.6-1.3-2.1-2.2c-0.5-1-0.7-2.2-0.7-3.5v-11.2h2.5V311c0,1.3,0.3,2.3,1,3
						c0.6,0.7,1.6,1.1,2.7,1.1c1.2,0,2.1-0.3,2.7-1.1c0.6-0.7,1-1.7,1-3v-11.3h2.5V311c0,1.4-0.2,2.6-0.7,3.5
						c-0.5,1-1.2,1.7-2.1,2.2c-0.9,0.5-2,0.8-3.3,0.8C242.9,317.5,241.8,317.2,240.9,316.7z"/>
					<path class="st20" d="M259.5,310.2v7.1h-2.5v-7.1l-5.3-10.4h2.7l3.8,7.9l3.8-7.9h2.7L259.5,310.2z"/>
				</g>
			</g>
		</g>
	</g>
	
		<ellipse transform="matrix(0.2298 -0.9732 0.9732 0.2298 -55.0651 210.0641)" class="st21" cx="105.2" cy="139.8" rx="33.9" ry="33.9"/>
	<g>
		<path class="st22" d="M117.8,125c0,0-17.2-8.4-21.2,1.3c-4.6,11.1,20.3,12.1,21.2,23c0.9,11.1-17.9,10.6-25.2,3.3"/>
		<line class="st22" x1="105.2" y1="121.7" x2="105.2" y2="114.4"/>
		<line class="st22" x1="105.2" y1="165.2" x2="105.2" y2="158"/>
	</g>
	
		<ellipse transform="matrix(0.2298 -0.9732 0.9732 0.2298 237.3653 409.4487)" class="st21" cx="377.4" cy="54.8" rx="33.9" ry="33.9"/>
	<g>
		<polyline class="st22" points="361.3,34.2 377.6,50 377.6,75.6 		"/>
		<line class="st22" x1="377.6" y1="50.3" x2="393.4" y2="34"/>
		<line class="st22" x1="365" y1="53.8" x2="391.4" y2="53.8"/>
		<line class="st22" x1="365" y1="63.7" x2="391.4" y2="63.7"/>
	</g>
	
		<ellipse transform="matrix(0.7071 -0.7071 0.7071 0.7071 32.0948 187.0087)" class="st21" cx="241.8" cy="54.8" rx="33.9" ry="33.9"/>
	<g>
		<path class="st22" d="M229.8,72.8c0,0,13.4,0,19.7,0c9.6,0,10.6-19.6,0-19.6c-5.4,0-19.7,0-19.7,0"/>
		<path class="st22" d="M235.3,72.8V36.7h-6.1c0,0,13.7,0,17.5,0c10.2,0,11,16.5-1.8,16.5"/>
		<line class="st22" x1="235.3" y1="36.7" x2="235.3" y2="30.9"/>
		<line class="st22" x1="241.7" y1="36.7" x2="241.7" y2="30.9"/>
		<line class="st22" x1="235.3" y1="78.7" x2="235.3" y2="72.8"/>
		<line class="st22" x1="241.7" y1="78.7" x2="241.7" y2="72.8"/>
	</g>
	<g>
		<path class="st21" d="M79.8,264.8c0,18.7-15.2,33.9-33.9,33.9c-18.7,0-33.9-15.2-33.9-33.9c0-18.7,15.2-33.9,33.9-33.9
			C64.6,230.9,79.8,246,79.8,264.8z"/>
		<g>
			<polyline class="st22" points="29.8,244.8 46.1,260.6 46.1,286.1 			"/>
			<line class="st22" x1="46.1" y1="260.9" x2="61.9" y2="244.6"/>
			<line class="st22" x1="33.5" y1="264.4" x2="59.9" y2="264.4"/>
			<line class="st22" x1="33.5" y1="274.3" x2="59.9" y2="274.3"/>
		</g>
	</g>
	<path class="st21" d="M607.1,264.8c0,18.7-15.2,33.9-33.9,33.9c-18.7,0-33.9-15.2-33.9-33.9c0-18.7,15.2-33.9,33.9-33.9
		C592,230.9,607.1,246,607.1,264.8z"/>
	<g>
		<line class="st22" x1="558.6" y1="269.9" x2="579.7" y2="269.9"/>
		<line class="st22" x1="558.6" y1="262.1" x2="579.7" y2="262.1"/>
		<path class="st22" d="M581.6,277.7c0,0,0,3.5,0,5.6c0,2-18,2-18-18.3c0-21.1,18-19.6,18-16.1v2.9"/>
	</g>
	
		<ellipse transform="matrix(0.7071 -0.7071 0.7071 0.7071 51.7636 404.6101)" class="st21" cx="514.3" cy="139.8" rx="33.9" ry="33.9"/>
	<g>
		<line class="st22" x1="501.4" y1="160.1" x2="527.2" y2="160.1"/>
		<line class="st22" x1="501.4" y1="140.5" x2="524.3" y2="140.5"/>
		<path class="st22" d="M506.9,160.1c0,0,0-5.8,0-28.6c0-22.8,20.3-12.2,20.3-8.4c0,3.9,0,8.7,0,8.7"/>
	</g>
</g>
</svg>
