<?xml version="1.0" encoding="utf-8"?>
<!-- Generator: Adobe Illustrator 23.0.5, SVG Export Plug-In . SVG Version: 6.00 Build 0)  -->
<svg version="1.1" id="Layer_1" xmlns="http://www.w3.org/2000/svg" xmlns:xlink="http://www.w3.org/1999/xlink" x="0px" y="0px"
	 viewBox="0 0 624 420" style="enable-background:new 0 0 624 420;" xml:space="preserve">
<style type="text/css">
	.st0{opacity:0.15;fill:#35B24A;enable-background:new    ;}
	.st1{fill:#F4F2F1;}
	.st2{fill:#FFCF4B;}
	.st3{fill:#FFB222;}
	.st4{fill:#FFDA8B;}
	.st5{fill:#FFFFFF;}
	.st6{fill:#015E3A;}
	.st7{fill:#00A26D;}
	.st8{fill:#FFBA00;}
	.st9{fill:#FFA800;}
	.st10{fill:#EF6A1C;}
	.st11{fill:#EDEDED;}
	.st12{fill:none;stroke:#015E3A;stroke-miterlimit:10;}
</style>
<rect class="st0" width="624" height="419.2"/>
<g>
	<g id="XMLID_266_">
		<path id="XMLID_267_" class="st1" d="M180.2,365.3v38.9h-44.2v-37.6c-43.8-2.7-85.8-16.4-110.2-35.4l24.3-54
			c22.1,16.4,54,28.3,85.8,31.4v-73.9c-49.1-11.9-104-28.3-104-91.6c0-46.9,34.1-87.2,104-95.1V9.6h44.2v37.6
			c33.2,2.7,65.5,11.5,89.8,27l-22.1,54.4c-22.6-12.8-45.6-20.4-67.7-23v75.2c49.1,11.5,103.1,27.9,103.1,90.3
			C283.3,317.1,249.6,356.9,180.2,365.3z M135.9,169.7v-62.8c-23.5,5.3-32.7,18.1-32.7,32.7C103.2,155.1,116.4,163.5,135.9,169.7z
			 M212,276.4c0-15.5-12.8-23.9-31.9-30.5v61.1C202.3,302,212,290.5,212,276.4z"/>
	</g>
	<g id="XMLID_265_">
		<g id="XMLID_610_">
			<g id="XMLID_860_">
				<path id="XMLID_924_" class="st2" d="M591.1,204.1c-11.8-7.7-24.8,2.5-31.2,12.1c-5,7.5-8.9,16.9-17.3,21.3
					c-6.8,3.6-15.6,2.4-21.1,8.6c-3.7,4.2-4.2,9.8-4.4,15.1c-0.3,8.5-0.6,15-9,19.4c-7.5,3.9-14.4,7.1-19.9,13.9
					c-4.6,5.7-7.7,12.6-8.4,20c-1.8,18.5,12.9,31,27,40.1c2.8,1.8,5.1-1.6,4.1-4.1c11.6,5,27.1,8.1,33.6-5.8
					c5.7-12.1-1.3-26.8,11.1-35.9c9-6.5,22.5-9.8,26.3-21.6c2.4-7.4-0.9-14.6-2-21.9c-1.5-9.9,4.1-17.9,9.5-25.5
					C596.3,229.9,604.4,212.8,591.1,204.1z"/>
				<g id="XMLID_917_">
					<g>
						<path class="st3" d="M505.3,337.6c10.9-15.8,21.8-31.5,32.7-47.3c10.5-15.2,20.9-30.4,30.8-45.9c5.6-8.8,11-17.8,16.1-26.9
							c0.4-0.7-0.7-1.3-1.1-0.6c-9,16.2-19,31.8-29.3,47.1c-10.4,15.5-21.1,30.9-31.7,46.2c-6.2,8.9-12.3,17.9-18.5,26.8
							C503.8,337.6,504.8,338.2,505.3,337.6L505.3,337.6z"/>
					</g>
				</g>
				<g id="XMLID_910_">
					<g>
						<path class="st3" d="M514.3,324.2c-1.8-8.5-2.4-17.2-1.7-25.9c0.1-0.8-1.2-0.8-1.3,0c-0.7,8.8-0.1,17.6,1.7,26.3
							C513.3,325.4,514.5,325,514.3,324.2L514.3,324.2z"/>
					</g>
				</g>
				<g id="XMLID_903_">
					<g>
						<path class="st3" d="M514.1,324.2c8.8-0.5,17.7-0.9,26.4-2.2c0.8-0.1,0.5-1.3-0.3-1.2c-8.6,1.3-17.4,1.6-26.1,2.1
							C513.3,323,513.2,324.2,514.1,324.2L514.1,324.2z"/>
					</g>
				</g>
				<g id="XMLID_896_">
					<g>
						<path class="st3" d="M531,298.8c-2.4-7.5-3.7-15.3-3.9-23.2c0-0.8-1.3-0.8-1.3,0c0.2,8,1.5,15.9,3.9,23.6
							C530,299.9,531.2,299.6,531,298.8L531,298.8z"/>
					</g>
				</g>
				<g id="XMLID_889_">
					<g>
						<path class="st3" d="M531,299.9c8.7,0.5,17.4,0.4,26-0.2c0.8-0.1,0.8-1.3,0-1.3c-8.7,0.7-17.3,0.8-26,0.2
							C530.2,298.6,530.2,299.8,531,299.9L531,299.9z"/>
					</g>
				</g>
				<g id="XMLID_882_">
					<g>
						<path class="st3" d="M548.1,274.9c-3.9-7-6.3-14.8-7-22.8c-0.1-0.8-1.3-0.8-1.3,0c0.7,8.2,3.1,16.2,7.2,23.5
							C547.4,276.2,548.5,275.6,548.1,274.9L548.1,274.9z"/>
					</g>
				</g>
				<g id="XMLID_875_">
					<g>
						<path class="st3" d="M547.4,275.6c7.2,0.5,14.5-0.4,21.4-2.7c0.8-0.3,0.4-1.5-0.3-1.2c-6.8,2.3-13.9,3.2-21,2.7
							C546.6,274.3,546.6,275.5,547.4,275.6L547.4,275.6z"/>
					</g>
				</g>
				<g id="XMLID_868_">
					<g>
						<path class="st3" d="M563,251.8c-2.1-5.3-3.5-10.8-4.4-16.4c-0.1-0.8-1.3-0.5-1.2,0.3c0.8,5.6,2.3,11.1,4.4,16.4
							C562.1,252.9,563.3,252.5,563,251.8L563,251.8z"/>
					</g>
				</g>
				<g id="XMLID_861_">
					<g>
						<path class="st3" d="M562.5,252.3c5.9-0.3,11.8-1.4,17.4-3.2c0.8-0.3,0.4-1.5-0.3-1.2c-5.5,1.8-11.3,2.9-17.1,3.2
							C561.7,251.1,561.7,252.4,562.5,252.3L562.5,252.3z"/>
					</g>
				</g>
			</g>
			<g id="XMLID_793_">
				<path id="XMLID_857_" class="st4" d="M558,134.1c-13.4-4.3-23.2,8.9-26.9,19.9c-2.9,8.5-4.1,18.7-11.1,25.1
					c-5.7,5.2-14.4,6.4-18.1,13.8c-2.5,5-1.5,10.5-0.3,15.7c2,8.3,3.3,14.6-3.6,21.1c-6.2,5.8-12.1,10.6-15.5,18.6
					c-2.9,6.7-4.1,14.2-2.8,21.5c3.2,18.3,20.5,26.6,36.5,31.6c8.8,2.7,31.1-4.3,33.8-19.4c2.3-13.2-8.3-25.5,1.3-37.6
					c6.9-8.7,19.1-15.4,19.7-27.7c0.4-7.8-4.7-13.8-7.7-20.6c-4.1-9.1-0.7-18.3,2.5-27.1C569.9,157.7,573.2,139,558,134.1z"/>
				<g id="XMLID_850_">
					<g>
						<path class="st3" d="M510.3,285.5c6.3-17.9,12.6-35.7,18.9-53.6c6.2-17.6,12.4-35.2,17.8-53c3.1-10,5.9-20.1,8.4-30.2
							c0.2-0.8-1-1.1-1.2-0.3c-4.5,18-10,35.8-15.9,53.3c-6,17.8-12.3,35.5-18.6,53.3c-3.5,10.1-7.1,20.2-10.6,30.2
							C508.8,285.9,510,286.2,510.3,285.5L510.3,285.5z"/>
					</g>
				</g>
				<g id="XMLID_843_">
					<g>
						<path class="st3" d="M515.5,270.2c-4-7.7-6.8-16-8.5-24.6c-0.2-0.8-1.4-0.5-1.2,0.3c1.7,8.7,4.6,17,8.6,24.9
							C514.8,271.6,515.8,270.9,515.5,270.2L515.5,270.2z"/>
					</g>
				</g>
				<g id="XMLID_836_">
					<g>
						<path class="st3" d="M515.2,270.2c8.4-2.8,16.8-5.5,24.9-9c0.7-0.3,0.1-1.4-0.6-1.1c-8,3.5-16.4,6.1-24.6,8.9
							C514.1,269.3,514.4,270.5,515.2,270.2L515.2,270.2z"/>
					</g>
				</g>
				<g id="XMLID_829_">
					<g>
						<path class="st3" d="M524.9,241.4c-4.3-6.6-7.6-13.8-9.8-21.4c-0.2-0.8-1.4-0.4-1.2,0.3c2.3,7.7,5.7,15,10,21.7
							C524.2,242.7,525.3,242,524.9,241.4L524.9,241.4z"/>
					</g>
				</g>
				<g id="XMLID_822_">
					<g>
						<path class="st3" d="M525.2,242.3c8.5-1.8,16.9-4.1,25-7.1c0.8-0.3,0.4-1.5-0.3-1.2c-8.2,2.9-16.5,5.3-25,7.1
							C524.1,241.3,524.4,242.5,525.2,242.3L525.2,242.3z"/>
					</g>
				</g>
				<g id="XMLID_815_">
					<g>
						<path class="st3" d="M535.1,213.8c-5.7-5.7-10-12.6-12.7-20.2c-0.3-0.8-1.5-0.4-1.2,0.3c2.8,7.8,7.2,14.9,13.1,20.8
							C534.8,215.2,535.7,214.4,535.1,213.8L535.1,213.8z"/>
					</g>
				</g>
				<g id="XMLID_808_">
					<g>
						<path class="st3" d="M534.6,214.6c7.1-1.4,13.9-4.2,19.9-8.2c0.7-0.4,0-1.5-0.6-1.1c-5.9,4-12.6,6.7-19.6,8.1
							C533.5,213.5,533.8,214.7,534.6,214.6L534.6,214.6z"/>
					</g>
				</g>
				<g id="XMLID_801_">
					<g>
						<path class="st3" d="M543.4,187.5c-3.4-4.6-6.2-9.5-8.5-14.7c-0.3-0.7-1.4-0.1-1.1,0.6c2.3,5.2,5.1,10.1,8.5,14.7
							C542.8,188.8,543.9,188.2,543.4,187.5L543.4,187.5z"/>
					</g>
				</g>
				<g id="XMLID_794_">
					<g>
						<path class="st3" d="M543.1,188.2c5.6-1.8,11-4.4,16-7.7c0.7-0.4,0-1.5-0.6-1.1c-4.9,3.2-10.1,5.8-15.7,7.6
							C542,187.2,542.3,188.4,543.1,188.2L543.1,188.2z"/>
					</g>
				</g>
			</g>
			<path id="XMLID_792_" class="st5" d="M551.5,145.6l-1.2-0.4c-1.3-0.4-2-1.8-1.7-3.1l0.4-1.2c0.4-1.3-0.3-2.7-1.7-3.1l0,0
				c-1.3-0.4-2.7,0.3-3.1,1.7l-0.4,1.2c-0.4,1.3-1.8,2-3.1,1.7l-1.2-0.4c-1.3-0.4-2.7,0.3-3.1,1.7l0,0c-0.4,1.3,0.3,2.7,1.7,3.1
				l1.2,0.4c1.3,0.4,2,1.8,1.7,3.1l-0.4,1.2c-0.4,1.3,0.3,2.7,1.7,3.1l0,0c1.3,0.4,2.7-0.3,3.1-1.7l0.4-1.2c0.4-1.3,1.8-2,3.1-1.7
				l1.2,0.4c1.3,0.4,2.7-0.3,3.1-1.7l0,0C553.5,147.4,552.8,146,551.5,145.6z"/>
			<path id="XMLID_859_" class="st5" d="M555.1,136.6l-0.5-0.1c-0.5-0.1-0.8-0.7-0.6-1.1l0.1-0.5c0.1-0.5-0.1-1-0.6-1.1l0,0
				c-0.5-0.1-1,0.1-1.1,0.6l-0.1,0.5c-0.1,0.5-0.7,0.8-1.1,0.6l-0.5-0.1c-0.5-0.1-1,0.1-1.1,0.6l0,0c-0.1,0.5,0.1,1,0.6,1.1l0.5,0.1
				c0.5,0.1,0.8,0.7,0.6,1.1l-0.1,0.5c-0.1,0.5,0.1,1,0.6,1.1l0,0c0.5,0.1,1-0.1,1.1-0.6l0.1-0.5c0.1-0.5,0.7-0.8,1.1-0.6l0.5,0.1
				c0.5,0.1,1-0.1,1.1-0.6l0,0C555.9,137.3,555.6,136.8,555.1,136.6z"/>
			<path id="XMLID_927_" class="st5" d="M553.1,157.5l-0.5-0.1c-0.5-0.1-0.8-0.7-0.6-1.1l0.1-0.5c0.1-0.5-0.1-1-0.6-1.1l0,0
				c-0.5-0.1-1,0.1-1.1,0.6l-0.1,0.5c-0.1,0.5-0.7,0.8-1.1,0.6l-0.5-0.1c-0.5-0.1-1,0.1-1.1,0.6l0,0c-0.1,0.5,0.1,1,0.6,1.1l0.5,0.1
				c0.5,0.1,0.8,0.7,0.6,1.1l-0.1,0.5c-0.1,0.5,0.1,1,0.6,1.1l0,0c0.5,0.1,1-0.1,1.1-0.6l0.1-0.5c0.1-0.5,0.7-0.8,1.1-0.6l0.5,0.1
				c0.5,0.1,1-0.1,1.1-0.6l0,0C553.9,158.2,553.6,157.7,553.1,157.5z"/>
		</g>
		<g id="XMLID_314_">
			<g id="XMLID_387_">
				<path id="XMLID_395_" class="st6" d="M189.3,132.6c-14.3,0-26-11.7-26-26V73.7c0-14.3,11.7-26,26-26c14.3,0,26,11.7,26,26v32.8
					C215.3,120.9,203.7,132.6,189.3,132.6z M189.3,55.6c-10,0-18.1,8.1-18.1,18.1v32.8c0,10,8.1,18.1,18.1,18.1
					c10,0,18.1-8.1,18.1-18.1V73.7C207.5,63.7,199.3,55.6,189.3,55.6z"/>
			</g>
			<path id="XMLID_385_" class="st6" d="M219.4,92.3h-60.2c-5.3,0-9.6,4.3-9.6,9.6V146c0,5.3,4.3,9.6,9.6,9.6h60.2
				c5.3,0,9.6-4.3,9.6-9.6v-44.2C229,96.5,224.7,92.3,219.4,92.3z"/>
			<path id="XMLID_316_" class="st7" d="M198.9,142.6l-5.6-21c2.7-1.4,4.6-4.3,4.6-7.6c0-4.8-3.9-8.6-8.6-8.6
				c-4.8,0-8.6,3.9-8.6,8.6c0,3.3,1.9,6.2,4.6,7.6l-5.6,21H198.9z"/>
		</g>
		<g id="XMLID_18_">
			<g id="XMLID_322_">
				<polygon id="XMLID_17_" class="st8" points="370.6,60.7 218.7,178.8 522.5,178.8 				"/>
				<rect id="XMLID_8_" x="212.3" y="178.8" class="st9" width="316.5" height="19.4"/>
				<rect id="XMLID_30_" x="205.1" y="191.7" class="st10" width="331.1" height="21"/>
				<rect id="XMLID_370_" x="205.1" y="351.1" class="st10" width="331.1" height="21"/>
				<g id="XMLID_29_">
					<g id="XMLID_320_">
						<g id="XMLID_319_">
							<rect id="XMLID_233_" x="229.6" y="212.6" class="st8" width="32.1" height="138.6"/>
							<rect id="XMLID_240_" x="226.9" y="212.6" class="st10" width="37.4" height="7.1"/>
							<rect id="XMLID_307_" x="226.9" y="344.2" class="st10" width="37.4" height="7.1"/>
							<g id="XMLID_311_">
								<g id="XMLID_264_">
									<path id="XMLID_312_" class="st10" d="M239.1,334.8c-1.4,0-2.5-0.8-2.5-1.9V230.5c0-1,1.1-1.9,2.5-1.9
										c1.4,0,2.5,0.8,2.5,1.9v102.4C241.6,334,240.5,334.8,239.1,334.8z"/>
								</g>
								<g id="XMLID_313_">
									<path id="XMLID_317_" class="st10" d="M252.1,334.8c-1.4,0-2.5-0.8-2.5-1.9V230.5c0-1,1.1-1.9,2.5-1.9
										c1.4,0,2.5,0.8,2.5,1.9v102.4C254.6,334,253.5,334.8,252.1,334.8z"/>
								</g>
							</g>
						</g>
						<g id="XMLID_359_">
							<rect id="XMLID_367_" x="479.5" y="212.6" class="st8" width="32.1" height="138.6"/>
							<rect id="XMLID_366_" x="476.8" y="212.6" class="st10" width="37.4" height="7.1"/>
							<rect id="XMLID_365_" x="476.8" y="344.2" class="st10" width="37.4" height="7.1"/>
							<g id="XMLID_360_">
								<g id="XMLID_363_">
									<path id="XMLID_364_" class="st10" d="M489.1,334.8c-1.4,0-2.5-0.8-2.5-1.9V230.5c0-1,1.1-1.9,2.5-1.9
										c1.4,0,2.5,0.8,2.5,1.9v102.4C491.5,334,490.4,334.8,489.1,334.8z"/>
								</g>
								<g id="XMLID_361_">
									<path id="XMLID_362_" class="st10" d="M502,334.8c-1.4,0-2.5-0.8-2.5-1.9V230.5c0-1,1.1-1.9,2.5-1.9c1.4,0,2.5,0.8,2.5,1.9
										v102.4C504.5,334,503.4,334.8,502,334.8z"/>
								</g>
							</g>
						</g>
					</g>
					<g id="XMLID_323_">
						<g id="XMLID_339_">
							<rect id="XMLID_369_" x="314.8" y="212.6" class="st8" width="32.1" height="138.6"/>
							<rect id="XMLID_368_" x="312.2" y="212.6" class="st10" width="37.4" height="7.1"/>
							<rect id="XMLID_358_" x="312.2" y="344.2" class="st10" width="37.4" height="7.1"/>
							<g id="XMLID_344_">
								<g id="XMLID_353_">
									<path id="XMLID_357_" class="st10" d="M324.4,334.8c-1.4,0-2.5-0.8-2.5-1.9V230.5c0-1,1.1-1.9,2.5-1.9
										c1.4,0,2.5,0.8,2.5,1.9v102.4C326.9,334,325.8,334.8,324.4,334.8z"/>
								</g>
								<g id="XMLID_348_">
									<path id="XMLID_351_" class="st10" d="M337.4,334.8c-1.4,0-2.5-0.8-2.5-1.9V230.5c0-1,1.1-1.9,2.5-1.9
										c1.4,0,2.5,0.8,2.5,1.9v102.4C339.8,334,338.7,334.8,337.4,334.8z"/>
								</g>
							</g>
						</g>
						<g id="XMLID_324_">
							<rect id="XMLID_338_" x="400.8" y="212.6" class="st8" width="32.1" height="138.6"/>
							<rect id="XMLID_336_" x="398.2" y="212.6" class="st10" width="37.4" height="7.1"/>
							<rect id="XMLID_335_" x="398.2" y="344.2" class="st10" width="37.4" height="7.1"/>
							<g id="XMLID_327_">
								<g id="XMLID_333_">
									<path id="XMLID_334_" class="st10" d="M410.4,334.8c-1.4,0-2.5-0.8-2.5-1.9V230.5c0-1,1.1-1.9,2.5-1.9
										c1.4,0,2.5,0.8,2.5,1.9v102.4C412.9,334,411.8,334.8,410.4,334.8z"/>
								</g>
								<g id="XMLID_330_">
									<path id="XMLID_331_" class="st10" d="M423.4,334.8c-1.4,0-2.5-0.8-2.5-1.9V230.5c0-1,1.1-1.9,2.5-1.9
										c1.4,0,2.5,0.8,2.5,1.9v102.4C425.9,334,424.8,334.8,423.4,334.8z"/>
								</g>
							</g>
						</g>
					</g>
				</g>
				<rect id="XMLID_371_" x="212.3" y="358.7" class="st9" width="316.5" height="8.7"/>
			</g>
			<g id="XMLID_373_">
				<path id="XMLID_12_" class="st6" d="M418.1,170.5h-94.9c-5.1,0-9.3-4.1-9.3-9.3V144c0-5.1,4.1-9.2,9.2-9.2h94.9
					c5.1,0,9.2,4.1,9.2,9.2v17.3C427.3,166.4,423.2,170.5,418.1,170.5z"/>
				<g id="XMLID_372_">
					<path id="XMLID_374_" class="st5" d="M347.1,157c0,3.3-2.6,5.2-7.6,5.2h-9.9v-19.1h9.3c4.8,0,7.2,2,7.2,5c0,1.9-1,3.4-2.5,4.2
						C345.8,152.9,347.1,154.6,347.1,157z M334,146.4v4.5h4.4c2.2,0,3.3-0.8,3.3-2.3c0-1.5-1.2-2.2-3.3-2.2H334z M342.7,156.5
						c0-1.6-1.2-2.4-3.5-2.4H334v4.7h5.1C341.5,158.9,342.7,158.1,342.7,156.5z"/>
					<path id="XMLID_378_" class="st5" d="M363,158.1h-8.9l-1.7,4.1H348l8.5-19.1h4.4l8.5,19.1h-4.6L363,158.1z M361.6,154.7l-3-7.3
						l-3,7.3H361.6z"/>
					<path id="XMLID_381_" class="st5" d="M388.8,143.1v19.1h-3.6l-9.5-11.6v11.6h-4.4v-19.1h3.7l9.5,11.6v-11.6H388.8z"/>
					<path id="XMLID_383_" class="st5" d="M400.3,154.7l-2.6,2.7v4.8h-4.4v-19.1h4.4v8.9l8.4-8.9h4.9l-7.9,8.5l8.4,10.6h-5.1
						L400.3,154.7z"/>
				</g>
			</g>
		</g>
		<g id="XMLID_538_">
			<path id="XMLID_527_" class="st8" d="M308.1,75l2,2l2-2l2,2l2-2l2,2l2-2l2,2l2-2l2,2l2-2l2,2l2-2l2,2l2-2l2,2l2-2l0,0V56.6
				c0-9.9-8-17.9-17.9-17.9h0c-9.9,0-17.9,8-17.9,17.9v20.6h1.8L308.1,75z"/>
			<path id="XMLID_548_" class="st4" d="M244,142.5l2,2l2-2l2,2l2-2l2,2l2-2l2,2l2-2l2,2l2-2l2,2l2-2l2,2l2-2l2,2l2-2l2,2l2.1-2.1
				l2,2l2-2l2,2l2-2l2,2l2-2l2,2l2-2l2,2l2-2l2,2l2-2l2,2l0.2-0.2V55.6c0-9.4,7.6-16.9,16.9-16.9h-64.6c-9.4,0-16.9,7.6-16.9,16.9
				v89.5h0.1L244,142.5z"/>
			<g id="XMLID_536_">
				<path id="XMLID_521_" class="st10" d="M299.2,64.5h-52c-0.3,0-0.6-0.3-0.6-0.6v-1.7c0-0.3,0.3-0.6,0.6-0.6h52
					c0.3,0,0.6,0.3,0.6,0.6v1.7C299.7,64.2,299.5,64.5,299.2,64.5z"/>
				<path id="XMLID_523_" class="st10" d="M299.2,73.6h-52c-0.3,0-0.6-0.3-0.6-0.6v-1.7c0-0.3,0.3-0.6,0.6-0.6h52
					c0.3,0,0.6,0.3,0.6,0.6V73C299.7,73.3,299.5,73.6,299.2,73.6z"/>
				<path id="XMLID_524_" class="st10" d="M299.2,82.6h-52c-0.3,0-0.6-0.3-0.6-0.6v-1.7c0-0.3,0.3-0.6,0.6-0.6h52
					c0.3,0,0.6,0.3,0.6,0.6V82C299.7,82.4,299.5,82.6,299.2,82.6z"/>
				<path id="XMLID_525_" class="st10" d="M299.2,91.7h-52c-0.3,0-0.6-0.3-0.6-0.6v-1.7c0-0.3,0.3-0.6,0.6-0.6h52
					c0.3,0,0.6,0.3,0.6,0.6v1.7C299.7,91.4,299.5,91.7,299.2,91.7z"/>
				<path id="XMLID_526_" class="st10" d="M299.2,100.8h-52c-0.3,0-0.6-0.3-0.6-0.6v-1.7c0-0.3,0.3-0.6,0.6-0.6h52
					c0.3,0,0.6,0.3,0.6,0.6v1.7C299.7,100.5,299.5,100.8,299.2,100.8z"/>
				<path id="XMLID_528_" class="st10" d="M299.2,109.8h-52c-0.3,0-0.6-0.3-0.6-0.6v-1.7c0-0.3,0.3-0.6,0.6-0.6h52
					c0.3,0,0.6,0.3,0.6,0.6v1.7C299.7,109.6,299.5,109.8,299.2,109.8z"/>
				<path id="XMLID_537_" class="st10" d="M299.2,119.1h-35.4c-0.3,0-0.6-0.3-0.6-0.6v-1.7c0-0.3,0.3-0.6,0.6-0.6h35.4
					c0.3,0,0.6,0.3,0.6,0.6v1.7C299.7,118.8,299.5,119.1,299.2,119.1z"/>
				<path id="XMLID_539_" class="st10" d="M299.2,126.9h-35.4c-0.3,0-0.6-0.3-0.6-0.6v-1.7c0-0.3,0.3-0.6,0.6-0.6h35.4
					c0.3,0,0.6,0.3,0.6,0.6v1.7C299.7,126.7,299.5,126.9,299.2,126.9z"/>
				<path id="XMLID_540_" class="st10" d="M299.2,134.8h-35.4c-0.3,0-0.6-0.3-0.6-0.6v-1.7c0-0.3,0.3-0.6,0.6-0.6h35.4
					c0.3,0,0.6,0.3,0.6,0.6v1.7C299.7,134.5,299.5,134.8,299.2,134.8z"/>
				<g id="XMLID_522_">
					<g id="XMLID_529_">
						<path id="XMLID_531_" class="st10" d="M253.7,133.4v2.7h-2.4v-2.6c-2.4-0.1-4.6-0.9-5.9-1.9l1.3-2.9c1.2,0.9,2.9,1.5,4.6,1.7
							v-4c-2.6-0.6-5.6-1.5-5.6-4.9c0-2.5,1.8-4.7,5.6-5.1v-2.6h2.4v2.6c1.8,0.1,3.5,0.6,4.8,1.5l-1.2,2.9c-1.2-0.7-2.5-1.1-3.6-1.2
							v4c2.6,0.6,5.5,1.5,5.5,4.9C259.2,130.8,257.4,132.9,253.7,133.4z M251.3,122.9v-3.4c-1.3,0.3-1.8,1-1.8,1.8
							C249.5,122.1,250.2,122.6,251.3,122.9z M255.4,128.6c0-0.8-0.7-1.3-1.7-1.6v3.3C254.9,130,255.4,129.4,255.4,128.6z"/>
					</g>
				</g>
			</g>
		</g>
		<g id="XMLID_613_">
			<g id="XMLID_797_">
				<g>
					<g id="XMLID_45_">
						<path class="st4" d="M374.8,75.8l1.4,0.1c1.4,0.1,2.6-1.1,2.7-2.5l0.1-1.4c0.1-1.4,1.3-2.6,2.7-2.5l0,0
							c1.4,0.1,2.6,1.3,2.5,2.7l-0.1,1.4c-0.1,1.4,1.1,2.6,2.5,2.7l1.4,0.1c1.4,0.1,2.6,1.3,2.5,2.7l0,0c-0.1,1.4-1.3,2.6-2.7,2.5
							l-1.4-0.1c-1.4-0.1-2.6,1.1-2.7,2.5l-0.1,1.4c-0.1,1.4-1.3,2.6-2.7,2.5l0,0c-1.4-0.1-2.6-1.3-2.5-2.7l0.1-1.4
							c0.1-1.4-1.1-2.6-2.5-2.7l-1.4-0.1c-1.4-0.1-2.6-1.3-2.5-2.7l0,0C372.1,76.8,373.3,75.7,374.8,75.8z"/>
					</g>
				</g>
			</g>
			<g id="XMLID_799_">
				<g>
					<g id="XMLID_46_">
						<path class="st4" d="M411.6,76.4l1,0c1.1,0,2-0.8,2-1.9l0-1c0-1.1,1-1.9,2-1.9l0,0c1.1,0,1.9,1,1.9,2l0,1c0,1.1,0.8,2,1.9,2
							l1,0c1.1,0,1.9,1,1.9,2l0,0c0,1.1-1,1.9-2,1.9l-1,0c-1.1,0-2,0.8-2,1.9l0,1c0,1.1-1,1.9-2,1.9l0,0c-1.1,0-1.9-1-1.9-2l0-1
							c0-1.1-0.8-2-1.9-2l-1,0c-1.1,0-1.9-1-1.9-2l0,0C409.6,77.2,410.5,76.4,411.6,76.4z"/>
					</g>
				</g>
			</g>
			<g id="XMLID_796_">
				<g>
					<g id="XMLID_48_">
						<path class="st4" d="M392.5,60.1l2,0.1c2.1,0.1,3.9-1.6,4-3.7l0.1-2c0.1-2.1,1.9-3.8,4-3.7l0,0c2.1,0.1,3.8,1.9,3.7,4l-0.1,2
							c-0.1,2.1,1.6,3.9,3.7,4l2,0.1c2.1,0.1,3.8,1.9,3.7,4l0,0c-0.1,2.1-1.9,3.8-4,3.7l-2-0.1c-2.1-0.1-3.9,1.6-4,3.7l-0.1,2
							c-0.1,2.1-1.9,3.8-4,3.7l0,0c-2.1-0.1-3.8-1.9-3.7-4l0.1-2c0.1-2.1-1.6-3.9-3.7-4l-2-0.1c-2.1-0.1-3.8-1.9-3.7-4l0,0
							C388.6,61.7,390.4,60,392.5,60.1z"/>
					</g>
				</g>
			</g>
		</g>
		<g id="XMLID_254_">
			<ellipse id="XMLID_55_" class="st11" cx="339.2" cy="402.5" rx="45" ry="7.1"/>
			<g id="XMLID_545_">
				<path id="XMLID_530_" class="st6" d="M339.4,389.4L339.4,389.4c-2.3,0-4.2-1.9-4.2-4.2V299c0-2.3,1.9-4.2,4.2-4.2l0,0
					c2.3,0,4.2,1.9,4.2,4.2v86.1C343.7,387.5,341.8,389.4,339.4,389.4z"/>
				<polygon id="XMLID_543_" class="st12" points="309.9,314.1 300.3,341.1 322.8,341.1 				"/>
				<path id="XMLID_542_" class="st4" d="M311.2,355.1L311.2,355.1c-7.5,0-13.5-6.1-13.5-13.5v-2.4h27.1v2.4
					C324.8,349,318.7,355.1,311.2,355.1z"/>
				<polygon id="XMLID_547_" class="st12" points="365.4,314.1 355.7,341.1 378.3,341.1 				"/>
				<path id="XMLID_546_" class="st4" d="M366.7,355.1L366.7,355.1c-7.5,0-13.5-6.1-13.5-13.5v-2.4h27.1v2.4
					C380.2,349,374.2,355.1,366.7,355.1z"/>
				<g id="XMLID_550_">
					<rect id="XMLID_549_" x="320.1" y="382" class="st6" width="38.7" height="8.7"/>
				</g>
				<g id="XMLID_552_">
					<rect id="XMLID_553_" x="317.8" y="387.7" class="st7" width="43.3" height="15.7"/>
				</g>
				<path id="XMLID_541_" class="st7" d="M305.2,314.5L305.2,314.5c0-2.3,1.9-4.2,4.2-4.2h60.1c2.3,0,4.2,1.9,4.2,4.2l0,0
					c0,2.3-1.9,4.2-4.2,4.2h-60.1C307.1,318.7,305.2,316.8,305.2,314.5z"/>
			</g>
		</g>
		<g id="XMLID_941_">
			<g id="XMLID_965_">
				<g>
					<g id="XMLID_52_">
						<path class="st5" d="M243.3,49.9l0.4,0c0.4,0,0.8-0.3,0.8-0.8l0-0.4c0-0.4,0.4-0.8,0.8-0.8l0,0c0.4,0,0.8,0.4,0.8,0.8l0,0.4
							c0,0.4,0.3,0.8,0.8,0.8l0.4,0c0.4,0,0.8,0.4,0.8,0.8l0,0c0,0.4-0.4,0.8-0.8,0.8l-0.4,0c-0.4,0-0.8,0.3-0.8,0.8l0,0.4
							c0,0.4-0.4,0.8-0.8,0.8l0,0c-0.4,0-0.8-0.4-0.8-0.8l0-0.4c0-0.4-0.3-0.8-0.8-0.8l-0.4,0c-0.4,0-0.8-0.4-0.8-0.8l0,0
							C242.5,50.3,242.9,49.9,243.3,49.9z"/>
					</g>
				</g>
			</g>
			<g id="XMLID_954_">
				<g>
					<g id="XMLID_49_">
						<path class="st5" d="M254.8,50.1l0.3,0c0.3,0,0.6-0.3,0.6-0.6l0-0.3c0-0.3,0.3-0.6,0.6-0.6l0,0c0.3,0,0.6,0.3,0.6,0.6l0,0.3
							c0,0.3,0.3,0.6,0.6,0.6l0.3,0c0.3,0,0.6,0.3,0.6,0.6l0,0c0,0.3-0.3,0.6-0.6,0.6l-0.3,0c-0.3,0-0.6,0.3-0.6,0.6l0,0.3
							c0,0.3-0.3,0.6-0.6,0.6l0,0c-0.3,0-0.6-0.3-0.6-0.6l0-0.3c0-0.3-0.3-0.6-0.6-0.6l-0.3,0c-0.3,0-0.6-0.3-0.6-0.6l0,0
							C254.2,50.4,254.5,50.1,254.8,50.1z"/>
					</g>
				</g>
			</g>
			<g id="XMLID_943_">
				<g>
					<g id="XMLID_47_">
						<path class="st5" d="M248.9,45.1l0.6,0c0.7,0,1.2-0.5,1.2-1.1l0-0.6c0-0.7,0.6-1.2,1.2-1.1l0,0c0.7,0,1.2,0.6,1.1,1.2l0,0.6
							c0,0.7,0.5,1.2,1.1,1.2l0.6,0c0.7,0,1.2,0.6,1.1,1.2l0,0c0,0.7-0.6,1.2-1.2,1.1l-0.6,0c-0.7,0-1.2,0.5-1.2,1.1l0,0.6
							c0,0.7-0.6,1.2-1.2,1.1l0,0c-0.7,0-1.2-0.6-1.1-1.2l0-0.6c0-0.7-0.5-1.2-1.1-1.2l-0.6,0c-0.7,0-1.2-0.6-1.1-1.2l0,0
							C247.6,45.6,248.2,45,248.9,45.1z"/>
					</g>
				</g>
			</g>
		</g>
		<g id="XMLID_31_">
			<path id="XMLID_290_" class="st7" d="M512.6,146.8c-2.1,0-3.8,1.7-3.8,3.8c0,2.1,1.7,3.8,3.8,3.8c2.1,0,3.8-1.7,3.8-3.8
				C516.4,148.5,514.7,146.8,512.6,146.8z"/>
			<g id="XMLID_275_">
				<path id="XMLID_289_" class="st7" d="M512.6,137.2c-3.6,0-6.9,1.5-9.4,3.8c-0.9,0.9-0.9,2.5,0,3.4h0c0.9,1,2.5,1.1,3.5,0.1
					c1.5-1.5,3.6-2.5,5.9-2.5c2.3,0,4.4,0.9,5.9,2.5c1,1,2.5,0.9,3.5-0.1l0,0c0.9-1,0.9-2.5,0-3.4
					C519.5,138.7,516.2,137.2,512.6,137.2z"/>
				<path id="XMLID_288_" class="st7" d="M512.6,112.5c-10.2,0-19.4,4-26.3,10.6c-1,0.9-1,2.5,0,3.4l0.2,0.3c0.9,1,2.5,1.1,3.4,0.1
					c5.9-5.6,13.8-9.1,22.6-9.1c8.8,0,16.7,3.5,22.6,9.1c1,0.9,2.5,0.8,3.4-0.1l0.2-0.3c0.9-1,0.9-2.5,0-3.4
					C532,116.5,522.8,112.5,512.6,112.5z"/>
				<path id="XMLID_278_" class="st7" d="M512.6,125.9c-6.5,0-12.4,2.5-16.8,6.7c-1.1,1-1.2,2.7-0.1,3.8l0,0c1,1.1,2.7,1.1,3.7,0.1
					c3.5-3.3,8.1-5.3,13.3-5.3c5.1,0,9.8,2,13.3,5.3c1.1,1,2.7,1,3.7-0.1l0,0c1-1.1,0.9-2.8-0.1-3.8
					C525,128.5,519.1,125.9,512.6,125.9z"/>
			</g>
		</g>
		<g id="XMLID_256_">
			<ellipse id="XMLID_57_" class="st11" cx="478.3" cy="390.9" rx="92.5" ry="7.1"/>
			<g id="XMLID_388_">
				<rect id="XMLID_424_" x="404.8" y="313.6" class="st6" width="147.9" height="76.3"/>
				<path id="XMLID_423_" class="st7" d="M414.2,332.4v38.3c6,0,10.9,4.9,10.9,10.9c0,0.1,0,0.2,0,0.3h106.4c0-0.1,0-0.2,0-0.3
					c0-6,4.9-10.9,10.9-10.9c0.3,0,0.6,0,1,0v-38.4c-0.3,0-0.6,0-1,0c-6,0-10.9-4.9-10.9-10.9H425.1
					C425.1,327.5,420.2,332.4,414.2,332.4z"/>
				
					<ellipse id="XMLID_422_" transform="matrix(0.1608 -0.987 0.987 0.1608 54.6829 767.676)" class="st6" cx="478.8" cy="351.7" rx="23.7" ry="23.7"/>
				<g id="XMLID_415_">
					<path id="XMLID_421_" class="st6" d="M430.9,351.7c0,2.7-2.2,4.9-4.9,4.9s-4.9-2.2-4.9-4.9c0-2.7,2.2-4.9,4.9-4.9
						S430.9,349,430.9,351.7z"/>
					<path id="XMLID_416_" class="st6" d="M536.5,351.7c0,2.7-2.2,4.9-4.9,4.9s-4.9-2.2-4.9-4.9c0-2.7,2.2-4.9,4.9-4.9
						S536.5,349,536.5,351.7z"/>
				</g>
				<g id="XMLID_389_">
					<path id="XMLID_390_" class="st5" d="M480.6,363.2v3.6h-3.2v-3.5c-3.2-0.2-6.3-1.2-8-2.6l1.8-3.9c1.6,1.2,3.9,2.1,6.3,2.3v-5.4
						c-3.6-0.9-7.6-2.1-7.6-6.7c0-3.4,2.5-6.3,7.6-6.9v-3.6h3.2v3.5c2.4,0.2,4.8,0.8,6.5,2l-1.6,4c-1.6-0.9-3.3-1.5-4.9-1.7v5.5
						c3.6,0.8,7.5,2,7.5,6.6C488.2,359.7,485.7,362.6,480.6,363.2z M477.4,349v-4.6c-1.7,0.4-2.4,1.3-2.4,2.4
						C475,347.9,476,348.5,477.4,349z M483,356.7c0-1.1-0.9-1.7-2.3-2.2v4.4C482.3,358.6,483,357.8,483,356.7z"/>
				</g>
			</g>
		</g>
		<g id="XMLID_56_">
			<ellipse id="XMLID_253_" class="st11" cx="156.6" cy="367.2" rx="46.8" ry="7.1"/>
			<g id="XMLID_604_">
				<path id="XMLID_585_" class="st10" d="M82.4,305.9c0-0.4,0.1-0.9,0.1-1.3c0-0.1,0-0.2,0.1-0.3c0.1-0.4,0.2-0.7,0.3-1
					c0,0,0-0.1,0-0.1c0,0,0-0.1,0.1-0.1c0-0.1,0.1-0.2,0.1-0.2c0,0,0-0.1,0-0.1c0.1-0.1,0.1-0.2,0.2-0.3c0.1-0.1,0.2-0.3,0.2-0.4
					c0.2-0.2,0.4-0.5,0.6-0.7c0,0,0,0,0,0l0,0l0,0c0.2-0.2,0.4-0.4,0.7-0.6c0.1-0.1,0.1-0.1,0.2-0.2c0.2-0.1,0.4-0.2,0.6-0.4
					c0.1,0,0.2-0.1,0.2-0.1c0.3-0.1,0.6-0.3,0.9-0.4l2.1-0.7l4.4-1.4c1.6-0.5,2.8-1.7,3.3-3.3c2.1-6.7,5.8-12.3,10.6-17
					c-2.3-9-2.3-20.8,0.7-22.3c3.7-1.9,18,4.3,23.7,6.8c0.7,0.3,1.2,0.8,1.7,1.3c8.4-2.4,17.5-3.6,26.6-3.6
					c31,0,56.5,13.4,59.1,42.9c0,0,0,0,0-0.1c0,0,0,0,0,0c0,0.4,0.1,0.8,0.1,1.2c0,0,0,0,0,0c0,0,0,0.1,0,0.1c0,0.2,0,0.3,0,0.5
					c0,0.2,0,0.3,0,0.5c0,0,0,0.1,0,0.1c0,0.2,0,0.3,0,0.5c0,0.3,0,0.6,0,0.9c0,0.5,0,0.9,0,1.4c0,2.4-0.1,4.7-0.4,6.9
					c0,0,0,0,0,0.1c-0.2,1.2-0.4,2.4-0.6,3.6c-0.1,0.4-0.2,0.7-0.3,1.1c-0.2,0.8-0.4,1.7-0.6,2.5c-0.1,0.2-0.1,0.4-0.1,0.5
					c0,0.1-0.1,0.3-0.1,0.4c-0.1,0.3-0.2,0.7-0.3,1c0,0.1,0,0.1-0.1,0.2c0,0,0,0.1,0,0.1c0,0,0,0.1,0,0.1c-0.3,0.9-0.6,1.7-1,2.5
					c0,0,0,0.1,0,0.1c0,0,0,0.1,0,0.1c0,0,0,0,0,0.1c-0.2,0.4-0.4,0.8-0.5,1.2c0,0.1-0.1,0.1-0.1,0.2c-0.2,0.4-0.4,0.7-0.5,1.1
					c0,0,0,0.1,0,0.1c0,0,0,0,0,0c0,0,0,0,0,0c-0.2,0.4-0.4,0.8-0.6,1.1c0,0.1-0.1,0.2-0.1,0.2c-0.1,0.2-0.3,0.5-0.4,0.7
					c-0.1,0.2-0.3,0.4-0.4,0.7c-0.4,0.7-0.9,1.4-1.4,2.1c0,0,0,0.1-0.1,0.1c0,0,0,0.1-0.1,0.1c0,0-0.1,0.1-0.1,0.1
					c-0.2,0.3-0.4,0.5-0.6,0.8c-0.1,0.1-0.2,0.2-0.2,0.3c-0.3,0.3-0.5,0.7-0.8,1c0,0,0,0,0,0c-0.3,0.3-0.6,0.7-0.9,1
					c-0.1,0.1-0.2,0.2-0.3,0.3c-0.2,0.2-0.4,0.5-0.7,0.7c0,0-0.1,0.1-0.1,0.1c0,0-0.1,0.1-0.1,0.1c0,0,0,0-0.1,0.1
					c-0.3,0.3-0.6,0.6-0.9,0.9c0,0,0,0,0,0c-0.4,0.3-0.7,0.7-1.1,1c-0.7,0.7-1.5,1.3-2.3,1.9c-0.8,0.6-1.6,1.2-2.4,1.8
					c-0.4,0.3-0.8,0.6-1.2,0.8c-0.4,0.2-0.8,0.5-1.1,0.7c0,0-0.1,0-0.1,0.1c0,0-0.1,0-0.1,0.1c-0.1,0-0.1,0.1-0.2,0.1
					c-0.3,0.2-0.6,0.4-0.9,0.5c-0.1,0.1-0.2,0.1-0.4,0.2c-0.4,0.2-0.8,0.4-1.2,0.7c0,0,0,0,0,0c-0.2,0.1-0.3,0.2-0.4,0.4
					c0,0,0,0,0,0c-0.1,0.1-0.2,0.3-0.2,0.5c0,0,0,0,0,0l-3.2,16.8c0,0.2-0.1,0.4-0.2,0.6c0,0.1-0.1,0.2-0.1,0.3
					c0,0.1-0.1,0.2-0.1,0.3c0,0.1-0.1,0.2-0.2,0.2c-0.1,0.1-0.1,0.2-0.2,0.2c-0.1,0.1-0.1,0.2-0.2,0.2c0,0-0.1,0-0.1,0.1
					c0,0-0.1,0-0.1,0.1c0,0,0,0-0.1,0c0,0,0,0,0,0c0,0-0.1,0-0.1,0.1c-0.1,0-0.1,0.1-0.2,0.1c0,0-0.1,0-0.1,0.1c0,0,0,0,0,0
					c0,0,0,0,0,0c-0.1,0-0.2,0.1-0.2,0.1c0,0,0,0,0,0c-0.1,0-0.2,0.1-0.2,0.1c0,0,0,0,0,0c0,0,0,0,0,0c0,0-0.1,0-0.1,0
					c-0.1,0-0.1,0-0.2,0.1c0,0-0.1,0-0.1,0c0,0,0,0-0.1,0c0,0-0.1,0-0.1,0c0,0-0.1,0-0.1,0c0,0-0.1,0-0.1,0c-0.1,0-0.2,0-0.3,0h0
					h-10.9c0,0,0,0-0.1,0c-0.2,0-0.4,0-0.6-0.1c-0.1,0-0.1,0-0.2-0.1c-0.1,0-0.3-0.1-0.4-0.1c0,0-0.1,0-0.1,0c0,0-0.1-0.1-0.1-0.1
					c-0.1,0-0.2-0.1-0.2-0.1c0,0-0.1,0-0.1-0.1c0,0-0.1-0.1-0.1-0.1c-0.1-0.1-0.1-0.1-0.2-0.2c0,0-0.1-0.1-0.1-0.1
					c0,0,0-0.1-0.1-0.1c-0.2-0.2-0.3-0.4-0.5-0.6c0,0,0,0,0,0c-0.1-0.2-0.2-0.3-0.3-0.5c-0.1-0.2-0.1-0.4-0.2-0.6l-1.8-9.3
					c0-0.2-0.1-0.3-0.2-0.5c0,0,0,0,0,0c-0.1-0.1-0.1-0.2-0.2-0.2c-0.1-0.1-0.2-0.2-0.3-0.2c-0.1,0-0.1-0.1-0.2-0.1c0,0-0.1,0-0.1,0
					c-0.1,0-0.3,0-0.5,0c0,0,0,0,0,0c-0.6,0.1-1.2,0.1-1.8,0.2c-0.1,0-0.3,0-0.4,0c-0.6,0.1-1.2,0.1-1.8,0.1c0,0,0,0,0,0
					c-0.4,0-0.8,0.1-1.2,0.1c-0.1,0-0.2,0-0.2,0c-0.1,0-0.2,0-0.3,0c-0.2,0-0.3,0-0.5,0c-0.6,0-1.2,0.1-1.8,0.1c-0.9,0-1.8,0-2.8,0
					c-1.2,0-2.5,0-3.7-0.1c-0.6,0-1.3-0.1-1.9-0.1c-0.1,0-0.1,0-0.2,0c-0.5,0-1.1-0.1-1.6-0.1c0,0,0,0,0,0c0,0-0.1,0-0.1,0
					c0,0,0,0,0,0c-0.5,0-1-0.1-1.5-0.1c-0.7-0.1-1.4-0.1-2.2-0.2c0,0-0.1,0-0.1,0c0,0,0,0,0,0c-0.6-0.1-1.1-0.1-1.7-0.2
					c-0.3,0-0.5-0.1-0.8-0.1c-0.3,0-0.6-0.1-0.9-0.1c-0.2,0-0.3,0-0.5,0c0,0-0.1,0-0.1,0c-0.1,0-0.2,0.1-0.3,0.1
					c-0.1,0-0.1,0.1-0.1,0.1c-0.1,0.1-0.1,0.1-0.2,0.2c0,0.1-0.1,0.1-0.1,0.2c-0.1,0.1-0.1,0.2-0.1,0.4c0,0,0,0,0,0l-0.9,4.9
					l-0.9,4.9c-0.3,1.6-1.7,2.7-3.3,2.7h-10.9c0,0,0,0,0,0c-0.1,0-0.2,0-0.3,0c0,0-0.1,0-0.1,0c0,0-0.1,0-0.1,0c0,0-0.1,0-0.1,0
					c0,0,0,0,0,0c0,0-0.1,0-0.1,0c-0.1,0-0.1,0-0.2-0.1c0,0-0.1,0-0.1,0c0,0,0,0,0,0c0,0,0,0-0.1,0c-0.1,0-0.1-0.1-0.2-0.1
					c0,0,0,0,0,0c-0.1,0-0.1-0.1-0.2-0.1c0,0,0,0-0.1,0c0,0,0,0,0,0c0,0-0.1,0-0.1-0.1c-0.1,0-0.1-0.1-0.2-0.1c0,0-0.1,0-0.1-0.1
					c0,0,0,0,0,0c0,0-0.1,0-0.1-0.1c0,0,0,0-0.1-0.1c0,0-0.1,0-0.1-0.1c-0.1-0.1-0.2-0.2-0.2-0.2c0,0,0,0,0,0l0,0c0,0,0-0.1-0.1-0.1
					c-0.1-0.1-0.2-0.2-0.2-0.3c-0.2-0.3-0.4-0.7-0.4-1.1l-3.4-17.8c-0.1-0.4-0.3-0.7-0.7-0.9l0,0c-0.3-0.1-0.5-0.3-0.8-0.4
					c-0.3-0.1-0.5-0.3-0.8-0.4c-0.2-0.1-0.5-0.3-0.7-0.4c-0.3-0.2-0.6-0.3-0.9-0.5c-0.2-0.1-0.5-0.3-0.7-0.4
					c-0.3-0.2-0.6-0.3-0.8-0.5c-0.2-0.2-0.5-0.3-0.7-0.5c-0.3-0.2-0.5-0.3-0.8-0.5c-0.2-0.2-0.5-0.3-0.7-0.5
					c-0.2-0.2-0.5-0.3-0.7-0.5c-0.2-0.2-0.4-0.3-0.7-0.5c-0.2-0.2-0.5-0.4-0.7-0.5l0,0c0,0,0,0,0,0c-0.2-0.2-0.4-0.3-0.6-0.5
					c-0.2-0.2-0.5-0.4-0.7-0.6c-0.2-0.2-0.4-0.4-0.6-0.5c-0.2-0.2-0.4-0.4-0.7-0.6c0,0,0,0,0,0l0,0c-0.2-0.2-0.4-0.4-0.6-0.6
					c-0.2-0.2-0.4-0.4-0.7-0.6c-0.2-0.2-0.4-0.4-0.6-0.6c-0.2-0.2-0.4-0.4-0.6-0.6c0,0,0,0,0,0c0,0,0,0,0,0
					c-0.2-0.2-0.4-0.4-0.6-0.6c-0.2-0.2-0.4-0.4-0.6-0.7c-0.2-0.2-0.4-0.4-0.5-0.6c-0.2-0.2-0.4-0.4-0.5-0.6c0,0,0,0,0,0l0,0
					c-0.2-0.2-0.3-0.4-0.5-0.6c-0.2-0.2-0.4-0.5-0.5-0.7c-0.2-0.2-0.3-0.4-0.5-0.7c-0.2-0.2-0.3-0.4-0.5-0.7c0,0,0,0,0-0.1
					c-0.2-0.2-0.3-0.4-0.4-0.7c-0.2-0.2-0.3-0.5-0.5-0.7c-0.2-0.3-0.4-0.6-0.6-0.9c-0.1-0.2-0.2-0.3-0.3-0.5c0,0,0,0,0,0
					c-0.6-1-1.5-1.8-2.7-2.2l0,0h0l-5.4-1.7l-5.1-1.6c-1.3-0.4-2.4-1.3-3.2-2.3c-0.8-1.1-1.2-2.4-1.2-3.8V305.9z"/>
				<path id="XMLID_593_" class="st10" d="M225.5,298.7c-1-0.5-1.9-1.1-2.7-1.8c-2.5,1.5-4.5,2.5-4.6,2.6c-1.2,0.6-2.6,0.1-3.1-1.1
					c-0.5-1.2,0-2.5,1.2-3.1c1.2-0.6,2.5-1.3,3.7-2c-0.7-1.4-1.1-2.9-1.2-4.5c-0.2-3.6,1.3-6.9,3.8-8.5c2-1.3,4.4-1.3,6.6-0.1
					c3.2,1.7,3.9,4,3.9,5.5c0,2.7-2,5.5-6.1,8.5c0.2,0.1,0.4,0.3,0.7,0.4c4.2,2.1,7.7,1.4,9.8,0.5c1.2-0.5,2.6,0,3.2,1.2l0,0
					c0.5,1.2,0.1,2.6-1.1,3.2c-0.1,0.1-0.3,0.2-0.5,0.2C236.4,300.8,231.8,301.8,225.5,298.7z M225,284.1c-0.9,0.6-1.8,2.3-1.6,4.4
					c0,0.5,0.1,1.3,0.5,2.2c2.6-2,4.5-3.9,4.5-5.1c0-0.5-0.9-1.1-1.4-1.4c-0.8-0.4-1.4-0.4-1.7-0.2C225.1,284,225.1,284.1,225,284.1
					z"/>
				<path id="XMLID_556_" class="st6" d="M126.5,289.8c0,2.3-1.9,4.2-4.2,4.2s-4.2-1.9-4.2-4.2c0-2.3,1.9-4.2,4.2-4.2
					S126.5,287.5,126.5,289.8z"/>
				<g id="XMLID_557_">
					<path id="XMLID_598_" class="st9" d="M145.1,276.6c-1.3,0-2.6-0.7-3.2-1.8c-0.9-1.6-0.2-3.6,1.6-4.4c0.6-0.3,14.6-6.6,36.3-0.5
						c1.9,0.5,3,2.4,2.4,4.1c-0.6,1.8-2.6,2.7-4.5,2.2c-19-5.3-30.9,0-31,0.1C146.1,276.5,145.6,276.6,145.1,276.6z"/>
				</g>
				<g id="XMLID_555_">
					<g id="XMLID_591_">
						<g id="XMLID_601_">
							<circle id="XMLID_532_" class="st7" cx="161.9" cy="196.5" r="25.3"/>
							<path id="XMLID_592_" class="st6" d="M161.9,224.6c-15.5,0-28.2-12.6-28.2-28.2c0-15.5,12.6-28.2,28.2-28.2
								c15.5,0,28.2,12.6,28.2,28.2C190.1,212,177.4,224.6,161.9,224.6z M161.9,174.1c-12.3,0-22.3,10-22.3,22.3
								c0,12.3,10,22.3,22.3,22.3c12.3,0,22.3-10,22.3-22.3C184.2,184.1,174.2,174.1,161.9,174.1z"/>
						</g>
					</g>
					<g id="XMLID_558_">
						<g id="XMLID_562_">
							<g id="XMLID_586_">
								<path id="XMLID_607_" class="st5" d="M163.8,208.4v3.7h-3.3v-3.6c-3.3-0.2-6.5-1.2-8.3-2.7l1.8-4.1c1.7,1.2,4.1,2.1,6.5,2.4
									v-5.6c-3.7-0.9-7.8-2.1-7.8-6.9c0-3.5,2.6-6.6,7.8-7.2v-3.7h3.3v3.6c2.5,0.2,4.9,0.9,6.8,2l-1.7,4.1c-1.7-1-3.4-1.5-5.1-1.7
									v5.7c3.7,0.9,7.8,2.1,7.8,6.8C171.6,204.7,169,207.7,163.8,208.4z M160.5,193.7v-4.7c-1.8,0.4-2.5,1.4-2.5,2.5
									C158,192.6,159,193.2,160.5,193.7z M166.2,201.7c0-1.2-1-1.8-2.4-2.3v4.6C165.5,203.6,166.2,202.7,166.2,201.7z"/>
							</g>
						</g>
					</g>
				</g>
				<g id="XMLID_599_">
					<path id="XMLID_597_" class="st9" d="M156.1,256.9h-2.4c-0.5,0-0.9-0.4-0.9-0.9v-26c0-0.5,0.4-0.9,0.9-0.9h2.4
						c0.5,0,0.9,0.4,0.9,0.9v26C156.9,256.5,156.5,256.9,156.1,256.9z"/>
					<path id="XMLID_602_" class="st9" d="M170.1,257.6h-2.4c-0.5,0-0.9-0.4-0.9-0.9V228c0-0.5,0.4-0.9,0.9-0.9h2.4
						c0.5,0,0.9,0.4,0.9,0.9v28.8C170.9,257.2,170.5,257.6,170.1,257.6z"/>
					<path id="XMLID_600_" class="st9" d="M162.8,251.3h-2.4c-0.5,0-0.9-0.4-0.9-0.9v-19.1c0-0.5,0.4-0.9,0.9-0.9h2.4
						c0.5,0,0.9,0.4,0.9,0.9v19.1C163.7,251,163.3,251.3,162.8,251.3z"/>
				</g>
			</g>
		</g>
		<g id="XMLID_51_">
			<g id="XMLID_788_">
				<path id="XMLID_789_" class="st7" d="M468.1,98.9c-15.1,0-27.3-12.3-27.3-27.3c0-15.1,12.3-27.3,27.3-27.3
					c15.1,0,27.3,12.3,27.3,27.3C495.5,86.6,483.2,98.9,468.1,98.9z M468.1,48.2c-12.9,0-23.3,10.5-23.3,23.3
					c0,12.9,10.5,23.3,23.3,23.3c12.9,0,23.3-10.5,23.3-23.3C491.5,58.7,481,48.2,468.1,48.2z"/>
			</g>
			<g id="XMLID_783_">
				<path id="XMLID_784_" class="st7" d="M468.1,98.5c-0.3,0-0.6-0.1-0.8-0.2c-0.6-0.3-13.8-6.5-13.8-26.5c0-20,13.1-27.1,13.7-27.4
					c0.6-0.3,1.4-0.3,2,0.1c0.6,0.4,1,1,1,1.7v50.3c0,0.7-0.3,1.3-0.9,1.7C468.9,98.4,468.5,98.5,468.1,98.5z M466.1,50.1
					c-3.4,3.1-8.6,9.7-8.6,21.7c0,11.9,5.2,18.2,8.6,21V50.1z"/>
			</g>
			<g id="XMLID_744_">
				<path id="XMLID_751_" class="st7" d="M468.6,98.5c-0.4,0-0.8-0.1-1.1-0.3c-0.6-0.4-0.9-1-0.9-1.7V46.2c0-0.7,0.4-1.3,1-1.7
					c0.6-0.4,1.3-0.4,2-0.1c0.6,0.3,13.7,7.4,13.7,27.4c0,20.1-13.2,26.3-13.8,26.5C469.2,98.5,468.9,98.5,468.6,98.5z M470.6,50.2
					v42.7c3.4-2.8,8.6-9,8.6-21C479.2,59.9,474,53.3,470.6,50.2z"/>
			</g>
			<g id="XMLID_474_">
				<g id="XMLID_712_">
					<rect id="XMLID_713_" x="443" y="63" class="st7" width="50.3" height="4"/>
				</g>
				<g id="XMLID_477_">
					<rect id="XMLID_479_" x="443" y="76" class="st7" width="50.3" height="4"/>
				</g>
			</g>
		</g>
	</g>
</g>
</svg>
