<?xml version="1.0" encoding="utf-8"?>
<!-- Generator: Adobe Illustrator 23.0.5, SVG Export Plug-In . SVG Version: 6.00 Build 0)  -->
<svg version="1.1" id="Layer_1" xmlns="http://www.w3.org/2000/svg" xmlns:xlink="http://www.w3.org/1999/xlink" x="0px" y="0px"
	 viewBox="0 0 624 420" style="enable-background:new 0 0 624 420;" xml:space="preserve">
<style type="text/css">
	.st0{opacity:0.15;fill:#35B24A;enable-background:new    ;}
	.st1{fill:#00A26D;}
	.st2{fill:#C7DFF4;}
	.st3{fill:#9C9C9C;}
	.st4{fill:#015E3A;}
	.st5{fill:#F4F2F1;}
	.st6{fill:#9CB4BE;}
	.st7{fill:#FFFFFF;}
</style>
<rect class="st0" width="624" height="419.2"/>
<g>
	<path class="st1" d="M569.1,345.7c24.1,0,43.6-19.5,43.6-43.6c0-18.4-11.5-34.2-27.7-40.6c-4.3-19.6-21.7-34.3-42.6-34.3
		c-7,0-13.6,1.7-19.4,4.6c-6.1-4.1-13.4-6.4-21.2-6.4c-20.2,0-36.7,15.5-38.2,35.3c-17.4,5.7-30.1,22.1-30.1,41.4
		c0,24.1,19.5,43.6,43.6,43.6H569.1z"/>
	<path class="st1" d="M147,345.7c24.1,0,43.6-19.5,43.6-43.6c0-18.4-11.5-34.2-27.7-40.6c-4.3-19.6-21.7-34.3-42.6-34.3
		c-7,0-13.6,1.7-19.4,4.6c-6.1-4.1-13.4-6.4-21.2-6.4c-20.2,0-36.7,15.5-38.2,35.3c-17.4,5.7-30.1,22.1-30.1,41.4
		c0,24.1,19.5,43.6,43.6,43.6H147z"/>
	<path class="st1" d="M227.5,204.7c24.1,0,43.6-19.5,43.6-43.6c0-18.4-11.5-34.2-27.7-40.6c-4.3-19.6-21.7-34.3-42.6-34.3
		c-7,0-13.6,1.7-19.4,4.6c-6.1-4.1-13.4-6.4-21.2-6.4c-20.2,0-36.7,15.5-38.2,35.3c-17.4,5.7-30.1,22.1-30.1,41.4
		c0,24.1,19.5,43.6,43.6,43.6H227.5z"/>
	<path class="st1" d="M444.4,166c24.1,0,43.6-19.5,43.6-43.6c0-18.4-11.5-34.2-27.7-40.6c-4.3-19.6-21.7-34.3-42.6-34.3
		c-7,0-13.6,1.7-19.4,4.6c-6.1-4.1-13.4-6.4-21.2-6.4c-20.2,0-36.7,15.5-38.2,35.3c-17.4,5.7-30.1,22.1-30.1,41.4
		c0,24.1,19.5,43.6,43.6,43.6H444.4z"/>
	<path class="st1" d="M351.2,354.6c20.5,0,37.1-16.6,37.1-37.1c0-15.7-9.8-29.1-23.6-34.6c-3.6-16.7-18.5-29.2-36.3-29.2
		c-5.9,0-11.6,1.4-16.5,3.9c-5.2-3.5-11.4-5.5-18.1-5.5c-17.2,0-31.2,13.2-32.6,30.1c-14.9,4.8-25.6,18.8-25.6,35.3
		c0,20.5,16.6,37.1,37.1,37.1H351.2z"/>
	<path class="st2" d="M131.1,49.7c0.1,0.1,0.1,0.3,0.2,0.4l-4.1,4.7l5.4,7l6-3c0.1,0.1,0.2,0.2,0.3,0.3c1.6,1.1,3.3,2,5.1,2.7
		c0.1,0,0.2,0.1,0.3,0.1l0,0l0.5,6.9l8.8,1.1l2.2-6.6l0-0.4c0.1,0,0.3,0,0.4,0c1.7-0.3,3.5-0.8,5.1-1.5c0.2-0.1,0.3-0.2,0.5-0.2
		l5.3,5l7-5.4l-3.5-6.4c0.1-0.1,0.2-0.3,0.4-0.4c1.1-1.4,2-3,2.7-4.6c0.1-0.2,0.1-0.4,0.2-0.6l7.2-0.2l1.1-8.8l-6.6-1.9
		c0-0.2,0-0.3,0-0.5c-0.2-2-0.7-3.9-1.4-5.7c-0.1-0.2-0.2-0.4-0.2-0.6l4.5-4.8l-5.4-7l-5.4,2.9c-0.1-0.1-0.2-0.2-0.4-0.3
		c-1.7-1.5-3.7-2.7-5.7-3.5c-0.2-0.1-0.4-0.1-0.5-0.2l-0.2-5.9l-8.8-1.1l-1.6,5.3c-0.2,0-0.3,0-0.5,0c-2.3,0.2-4.6,0.8-6.8,1.7
		c-0.2,0.1-0.4,0.2-0.6,0.3l-4.2-3.6l-7,5.4l2.5,4.9c-0.1,0.2-0.3,0.3-0.4,0.5c-1.4,1.8-2.4,3.8-3.2,5.8c-0.1,0.2-0.1,0.4-0.2,0.5
		l-5.6,0.4l-1.1,8.8l5.7,1.9c0,0.2,0,0.4,0.1,0.6C129.6,45.8,130.2,47.8,131.1,49.7z M142.8,47.2c-4.1-5.3-3.1-12.8,2.1-16.9
		c5.3-4.1,12.8-3.1,16.9,2.2c4.1,5.3,3.1,12.8-2.2,16.9C154.4,53.4,146.9,52.5,142.8,47.2z"/>
	<path class="st2" d="M164.6,164.8c0.1,0.2,0.2,0.3,0.2,0.5l-5.1,5.9l6.8,8.7l7.5-3.7c0.1,0.1,0.3,0.2,0.4,0.3
		c2,1.4,4.1,2.5,6.3,3.3c0.1,0,0.2,0.1,0.4,0.1l0,0l0.6,8.6l11,1.4l2.8-8.2l0.1-0.5c0.2,0,0.3,0,0.5-0.1c2.2-0.4,4.3-1,6.4-1.8
		c0.2-0.1,0.4-0.2,0.6-0.3l6.6,6.2l8.8-6.8l-4.4-8c0.1-0.2,0.3-0.4,0.4-0.5c1.4-1.8,2.5-3.7,3.4-5.8c0.1-0.2,0.2-0.5,0.3-0.7l9-0.3
		l1.4-11l-8.2-2.4c0-0.2,0-0.4,0-0.6c-0.3-2.4-0.8-4.9-1.7-7.2c-0.1-0.2-0.2-0.5-0.3-0.7l5.6-6l-6.8-8.7l-6.7,3.7
		c-0.2-0.1-0.3-0.3-0.5-0.4c-2.2-1.8-4.6-3.3-7.1-4.4c-0.2-0.1-0.5-0.2-0.7-0.3L202,118l-11-1.4l-2,6.7c-0.2,0-0.4,0-0.6,0.1
		c-2.9,0.3-5.7,1-8.4,2.1c-0.2,0.1-0.5,0.2-0.7,0.3l-5.2-4.5l-8.8,6.8l3.1,6.2c-0.2,0.2-0.3,0.4-0.5,0.6c-1.7,2.2-3.1,4.7-4,7.3
		c-0.1,0.2-0.2,0.4-0.2,0.7l-7.1,0.5l-1.4,11l7.1,2.4c0,0.2,0.1,0.5,0.1,0.7C162.7,159.9,163.5,162.4,164.6,164.8z M179.3,161.7
		c-5.1-6.6-3.9-16,2.7-21.1c6.6-5.1,16-3.9,21.1,2.7c5.1,6.6,3.9,16-2.7,21.1C193.8,169.4,184.4,168.2,179.3,161.7z"/>
	<path class="st2" d="M471.4,197.7c0.1,0.1,0.1,0.2,0.2,0.4l-3.9,4.5l5.2,6.7l5.8-2.9c0.1,0.1,0.2,0.2,0.3,0.3
		c1.5,1.1,3.2,1.9,4.9,2.6c0.1,0,0.2,0.1,0.3,0.1l0,0l0.5,6.6l8.4,1.1l2.1-6.3l0-0.3c0.1,0,0.2,0,0.4,0c1.7-0.3,3.3-0.7,4.9-1.4
		c0.2-0.1,0.3-0.2,0.5-0.2l5.1,4.8l6.7-5.2l-3.4-6.1c0.1-0.1,0.2-0.3,0.3-0.4c1.1-1.4,1.9-2.9,2.6-4.4c0.1-0.2,0.1-0.4,0.2-0.5
		l6.9-0.2l1.1-8.4l-6.3-1.9c0-0.2,0-0.3,0-0.5c-0.2-1.9-0.6-3.7-1.3-5.5c-0.1-0.2-0.1-0.4-0.2-0.6l4.3-4.6l-5.2-6.7l-5.2,2.8
		c-0.1-0.1-0.2-0.2-0.4-0.3c-1.7-1.4-3.5-2.5-5.5-3.4c-0.2-0.1-0.3-0.1-0.5-0.2l-0.2-5.6l-8.4-1.1l-1.5,5.1c-0.2,0-0.3,0-0.5,0
		c-2.2,0.2-4.4,0.7-6.5,1.6c-0.2,0.1-0.4,0.2-0.5,0.2l-4-3.5l-6.7,5.2l2.4,4.8c-0.1,0.2-0.3,0.3-0.4,0.5c-1.3,1.7-2.4,3.6-3.1,5.6
		c-0.1,0.2-0.1,0.3-0.2,0.5l-5.4,0.4l-1.1,8.4l5.4,1.8c0,0.2,0,0.4,0.1,0.5C469.9,193.9,470.5,195.9,471.4,197.7z M482.7,195.3
		c-3.9-5.1-3-12.3,2.1-16.2c5.1-3.9,12.3-3,16.2,2.1c3.9,5.1,3,12.3-2.1,16.2C493.8,201.3,486.6,200.3,482.7,195.3z"/>
	<path class="st2" d="M400.6,396.3c0,0.1,0.1,0.1,0.1,0.2l-2.4,2.7l3.1,4l3.5-1.7c0.1,0.1,0.1,0.1,0.2,0.2c0.9,0.6,1.9,1.1,2.9,1.5
		c0.1,0,0.1,0,0.2,0.1l0,0l0.3,4l5.1,0.6l1.3-3.8l0-0.2c0.1,0,0.1,0,0.2,0c1-0.2,2-0.4,3-0.8c0.1,0,0.2-0.1,0.3-0.1l3.1,2.9l4-3.1
		l-2-3.7c0.1-0.1,0.1-0.2,0.2-0.3c0.6-0.8,1.2-1.7,1.6-2.7c0-0.1,0.1-0.2,0.1-0.3l4.1-0.1l0.6-5.1l-3.8-1.1c0-0.1,0-0.2,0-0.3
		c-0.1-1.1-0.4-2.2-0.8-3.3c0-0.1-0.1-0.2-0.1-0.3l2.6-2.8l-3.1-4l-3.1,1.7c-0.1-0.1-0.1-0.1-0.2-0.2c-1-0.8-2.1-1.5-3.3-2
		c-0.1,0-0.2-0.1-0.3-0.1l-0.1-3.4l-5.1-0.6l-0.9,3.1c-0.1,0-0.2,0-0.3,0c-1.3,0.1-2.6,0.4-3.9,1c-0.1,0-0.2,0.1-0.3,0.1l-2.4-2.1
		l-4,3.1l1.4,2.9c-0.1,0.1-0.2,0.2-0.2,0.3c-0.8,1-1.4,2.2-1.9,3.4c0,0.1-0.1,0.2-0.1,0.3l-3.3,0.2l-0.6,5.1l3.3,1.1
		c0,0.1,0,0.2,0,0.3C399.7,394,400,395.1,400.6,396.3z M407.3,394.8c-2.3-3-1.8-7.4,1.2-9.7c3-2.3,7.4-1.8,9.7,1.2
		c2.3,3,1.8,7.4-1.2,9.7C414,398.4,409.7,397.8,407.3,394.8z"/>
	<g>
		<g>
			<circle class="st2" cx="432.8" cy="40.5" r="4"/>
			<circle class="st2" cx="449.9" cy="40.5" r="4"/>
			<circle class="st2" cx="466.9" cy="40.5" r="6.2"/>
			<circle class="st2" cx="484" cy="40.5" r="4"/>
		</g>
	</g>
	<g>
		<g>
			<circle class="st2" cx="214.4" cy="385.1" r="4"/>
			<circle class="st2" cx="197.3" cy="385.1" r="4"/>
			<circle class="st2" cx="180.3" cy="385.1" r="6.2"/>
			<circle class="st2" cx="163.2" cy="385.1" r="4"/>
		</g>
	</g>
	<g>
		
			<rect x="150.6" y="204.9" transform="matrix(-1.836970e-16 1 -1 -1.836970e-16 435.6873 101.7201)" class="st3" width="32.9" height="127.6"/>
		<rect x="108.8" y="257.9" class="st4" width="116.3" height="21.5"/>
		<circle class="st1" cx="152.9" cy="268.7" r="3.8"/>
		<circle class="st1" cx="167.2" cy="268.7" r="3.8"/>
		<circle class="st5" cx="181.4" cy="268.7" r="3.8"/>
		<circle class="st5" cx="195.7" cy="268.7" r="3.8"/>
		<circle class="st1" cx="210" cy="268.7" r="3.8"/>
		
			<rect x="150.6" y="243.4" transform="matrix(-1.836970e-16 1 -1 -1.836970e-16 474.1906 140.2235)" class="st3" width="32.9" height="127.6"/>
		<rect x="108.8" y="296.4" class="st4" width="116.3" height="21.5"/>
		<circle class="st5" cx="152.9" cy="307.2" r="3.8"/>
		<circle class="st1" cx="167.2" cy="307.2" r="3.8"/>
		<circle class="st5" cx="181.4" cy="307.2" r="3.8"/>
		<circle class="st1" cx="195.7" cy="307.2" r="3.8"/>
		<circle class="st1" cx="210" cy="307.2" r="3.8"/>
		
			<rect x="150.6" y="281.9" transform="matrix(-1.836970e-16 1 -1 -1.836970e-16 512.694 178.7269)" class="st3" width="32.9" height="127.6"/>
		<rect x="108.8" y="334.9" class="st4" width="116.3" height="21.5"/>
		<circle class="st5" cx="152.9" cy="345.7" r="3.8"/>
		<circle class="st1" cx="167.2" cy="345.7" r="3.8"/>
		<circle class="st5" cx="181.4" cy="345.7" r="3.8"/>
		<circle class="st1" cx="195.7" cy="345.7" r="3.8"/>
		<circle class="st1" cx="210" cy="345.7" r="3.8"/>
	</g>
	<g>
		
			<rect x="300.8" y="252.4" transform="matrix(-1.836970e-16 1 -1 -1.836970e-16 633.3754 -1.0397)" class="st3" width="32.9" height="127.6"/>
		<rect x="259.1" y="305.4" class="st4" width="116.3" height="21.5"/>
		<circle class="st1" cx="303.1" cy="316.2" r="3.8"/>
		<circle class="st1" cx="317.4" cy="316.2" r="3.8"/>
		<circle class="st1" cx="331.7" cy="316.2" r="3.8"/>
		<circle class="st5" cx="345.9" cy="316.2" r="3.8"/>
		<circle class="st5" cx="360.2" cy="316.2" r="3.8"/>
		
			<rect x="300.8" y="290.9" transform="matrix(-1.836970e-16 1 -1 -1.836970e-16 671.8787 37.4637)" class="st3" width="32.9" height="127.6"/>
		<rect x="259.1" y="343.9" class="st4" width="116.3" height="21.5"/>
		<circle class="st5" cx="303.1" cy="354.7" r="3.8"/>
		<circle class="st1" cx="317.4" cy="354.7" r="3.8"/>
		<circle class="st5" cx="331.7" cy="354.7" r="3.8"/>
		<circle class="st1" cx="345.9" cy="354.7" r="3.8"/>
		<circle class="st1" cx="360.2" cy="354.7" r="3.8"/>
		
			<rect x="300.8" y="329.4" transform="matrix(-1.836970e-16 1 -1 -1.836970e-16 710.3821 75.967)" class="st3" width="32.9" height="127.6"/>
		<rect x="259.1" y="382.4" class="st4" width="116.3" height="21.5"/>
		<circle class="st1" cx="303.1" cy="393.2" r="3.8"/>
		<circle class="st1" cx="317.4" cy="393.2" r="3.8"/>
		<circle class="st1" cx="331.7" cy="393.2" r="3.8"/>
		<circle class="st5" cx="345.9" cy="393.2" r="3.8"/>
		<circle class="st5" cx="360.2" cy="393.2" r="3.8"/>
	</g>
	<g>
		
			<rect x="451" y="204.9" transform="matrix(-1.836970e-16 1 -1 -1.836970e-16 736.1352 -198.7278)" class="st3" width="32.9" height="127.6"/>
		<rect x="409.3" y="257.9" class="st4" width="116.3" height="21.5"/>
		<circle class="st5" cx="453.3" cy="268.7" r="3.8"/>
		<circle class="st5" cx="467.6" cy="268.7" r="3.8"/>
		<circle class="st1" cx="481.9" cy="268.7" r="3.8"/>
		<circle class="st1" cx="496.2" cy="268.7" r="3.8"/>
		<circle class="st1" cx="510.5" cy="268.7" r="3.8"/>
		
			<rect x="451" y="243.4" transform="matrix(-1.836970e-16 1 -1 -1.836970e-16 774.6385 -160.2244)" class="st3" width="32.9" height="127.6"/>
		<rect x="409.3" y="296.4" class="st4" width="116.3" height="21.5"/>
		<circle class="st1" cx="453.3" cy="307.2" r="3.8"/>
		<circle class="st1" cx="467.6" cy="307.2" r="3.8"/>
		<circle class="st5" cx="481.9" cy="307.2" r="3.8"/>
		<circle class="st1" cx="496.2" cy="307.2" r="3.8"/>
		<circle class="st5" cx="510.5" cy="307.2" r="3.8"/>
		
			<rect x="451" y="281.9" transform="matrix(-1.836970e-16 1 -1 -1.836970e-16 813.142 -121.7211)" class="st3" width="32.9" height="127.6"/>
		<rect x="409.3" y="334.9" class="st4" width="116.3" height="21.5"/>
		<circle class="st5" cx="453.3" cy="345.7" r="3.8"/>
		<circle class="st5" cx="467.6" cy="345.7" r="3.8"/>
		<circle class="st1" cx="481.9" cy="345.7" r="3.8"/>
		<circle class="st1" cx="496.2" cy="345.7" r="3.8"/>
		<circle class="st1" cx="510.5" cy="345.7" r="3.8"/>
	</g>
	<rect x="308.7" y="179.2" class="st4" width="7.1" height="4"/>
	<rect x="308.7" y="186" class="st4" width="7.1" height="4"/>
	<rect x="308.7" y="192.7" class="st4" width="7.1" height="4"/>
	<rect x="308.7" y="199.5" class="st4" width="7.1" height="4"/>
	<rect x="308.7" y="206.3" class="st4" width="7.1" height="4"/>
	<rect x="308.7" y="213.1" class="st4" width="7.1" height="4"/>
	<rect x="308.7" y="219.9" class="st4" width="7.1" height="4"/>
	<rect x="308.7" y="226.7" class="st4" width="7.1" height="4"/>
	<rect x="308.7" y="233.4" class="st4" width="7.1" height="4"/>
	<rect x="308.7" y="240.2" class="st4" width="7.1" height="4"/>
	<rect x="399.9" y="179.2" class="st4" width="7.1" height="4"/>
	<rect x="399.9" y="186" class="st4" width="7.1" height="4"/>
	<rect x="399.9" y="192.7" class="st4" width="7.1" height="4"/>
	<rect x="399.9" y="199.5" class="st4" width="7.1" height="4"/>
	<rect x="399.9" y="206.3" class="st4" width="7.1" height="4"/>
	<rect x="399.9" y="213.1" class="st4" width="7.1" height="4"/>
	<rect x="399.9" y="219.9" class="st4" width="7.1" height="4"/>
	<rect x="399.9" y="226.7" class="st4" width="7.1" height="4"/>
	<rect x="399.9" y="233.4" class="st4" width="7.1" height="4"/>
	<rect x="399.9" y="240.2" class="st4" width="7.1" height="4"/>
	<rect x="218.6" y="206.3" class="st4" width="7.1" height="4"/>
	<rect x="218.6" y="213.1" class="st4" width="7.1" height="4"/>
	<rect x="218.6" y="219.9" class="st4" width="7.1" height="4"/>
	<rect x="218.6" y="226.7" class="st4" width="7.1" height="4"/>
	<rect x="218.6" y="233.4" class="st4" width="7.1" height="4"/>
	<rect x="218.6" y="240.2" class="st4" width="7.1" height="4"/>
	<rect x="218.6" y="247" class="st4" width="7.1" height="4"/>
	<rect x="308.7" y="247" class="st4" width="7.1" height="4"/>
	<g>
		<rect x="204.3" y="12.6" class="st4" width="217.4" height="161.6"/>
		<rect x="201.3" y="9.6" class="st2" width="217.4" height="19.3"/>
		<g>
			<g>
				<circle class="st6" cx="214.7" cy="19.2" r="6.1"/>
				<rect x="211" y="18" class="st7" width="7.5" height="2.4"/>
			</g>
			<g>
				<circle class="st6" cx="234.2" cy="19.2" r="6.1"/>
				<rect x="230.5" y="18" class="st7" width="7.5" height="2.4"/>
			</g>
			<g>
				<circle class="st6" cx="253.8" cy="19.2" r="6.1"/>
				<rect x="250" y="18" class="st7" width="7.5" height="2.4"/>
			</g>
		</g>
		<rect x="201.3" y="28.9" class="st7" width="217.4" height="142.3"/>
		<g>
			<path class="st4" d="M344.9,77.8c0.1,0.1,0.1,0.3,0.2,0.4l-4.1,4.7l5.4,7l6-3c0.1,0.1,0.2,0.2,0.3,0.3c1.6,1.1,3.3,2,5.1,2.7
				c0.1,0,0.2,0.1,0.3,0.1l0,0l0.5,6.9l8.8,1.1l2.2-6.6l0-0.4c0.1,0,0.3,0,0.4,0c1.7-0.3,3.5-0.8,5.1-1.5c0.2-0.1,0.3-0.2,0.5-0.2
				l5.3,5l7-5.4l-3.5-6.4c0.1-0.1,0.2-0.3,0.4-0.4c1.1-1.4,2-3,2.7-4.6c0.1-0.2,0.1-0.4,0.2-0.6l7.2-0.2l1.1-8.8l-6.6-1.9
				c0-0.2,0-0.3,0-0.5c-0.2-2-0.7-3.9-1.4-5.7c-0.1-0.2-0.2-0.4-0.2-0.6l4.5-4.8l-5.4-7l-5.4,2.9c-0.1-0.1-0.2-0.2-0.4-0.3
				c-1.7-1.5-3.7-2.7-5.7-3.5c-0.2-0.1-0.4-0.1-0.5-0.2l-0.2-5.9l-8.8-1.1l-1.6,5.3c-0.2,0-0.3,0-0.5,0c-2.3,0.2-4.6,0.8-6.8,1.7
				c-0.2,0.1-0.4,0.2-0.6,0.3l-4.2-3.6l-7,5.4l2.5,4.9c-0.1,0.2-0.3,0.3-0.4,0.5c-1.4,1.8-2.4,3.8-3.2,5.8c-0.1,0.2-0.1,0.4-0.2,0.5
				l-5.6,0.4l-1.1,8.8l5.7,1.9c0,0.2,0,0.4,0.1,0.6C343.4,73.9,344,75.9,344.9,77.8z M356.6,75.3c-4.1-5.3-3.1-12.8,2.1-16.9
				c5.3-4.1,12.8-3.1,16.9,2.2c4.1,5.3,3.1,12.8-2.2,16.9C368.3,81.5,360.7,80.6,356.6,75.3z"/>
			<path class="st4" d="M337.8,108.3c-0.1-0.2-0.2-0.3-0.3-0.5l5-6.5l-7.7-8.7l-7.6,4.4c-0.2-0.1-0.3-0.2-0.5-0.3
				c-2.2-1.3-4.5-2.3-6.9-3.1c-0.1,0-0.3-0.1-0.4-0.1l0-0.1l-1.2-9l-11.6-0.7l-2.4,8.8l0,0.5c-0.2,0-0.3,0.1-0.5,0.1
				c-2.3,0.5-4.5,1.3-6.6,2.4c-0.2,0.1-0.4,0.2-0.7,0.4l-7.4-6.1l-8.7,7.7l5.1,8.1c-0.1,0.2-0.3,0.4-0.4,0.6c-1.3,2-2.4,4.1-3.2,6.3
				c-0.1,0.2-0.2,0.5-0.3,0.7l-9.4,0.9l-0.7,11.6l8.8,2c0,0.2,0.1,0.5,0.1,0.7c0.4,2.5,1.2,5,2.3,7.4c0.1,0.3,0.2,0.5,0.4,0.7
				l-5.5,6.7l7.7,8.7l6.8-4.3c0.2,0.1,0.3,0.3,0.5,0.4c2.4,1.8,5,3.2,7.8,4.1c0.2,0.1,0.5,0.2,0.7,0.2l0.7,7.7l11.6,0.7l1.6-7.1
				c0.2,0,0.4-0.1,0.7-0.1c3-0.5,5.9-1.4,8.7-2.8c0.2-0.1,0.5-0.3,0.7-0.4l5.8,4.4l8.7-7.7l-3.6-6.3c0.2-0.2,0.3-0.4,0.5-0.7
				c1.6-2.5,2.9-5.1,3.7-7.9c0.1-0.2,0.1-0.5,0.2-0.7l7.4-1l0.7-11.6l-7.6-2c-0.1-0.2-0.1-0.5-0.2-0.7
				C340.2,113.3,339.2,110.7,337.8,108.3z M322.7,112.5c5.8,6.6,5.1,16.5-1.4,22.3c-6.5,5.8-16.5,5.1-22.3-1.4
				c-5.8-6.5-5.1-16.5,1.4-22.3C306.9,105.4,316.9,106,322.7,112.5z"/>
			<g>
				<g>
					<circle class="st1" cx="217.8" cy="154.6" r="4"/>
					<circle class="st1" cx="234.9" cy="154.6" r="4"/>
					<circle class="st1" cx="251.9" cy="154.6" r="4"/>
					<circle class="st1" cx="269" cy="154.6" r="4"/>
				</g>
				<g>
					<circle class="st1" cx="351.1" cy="154.6" r="4"/>
					<circle class="st1" cx="368.2" cy="154.6" r="4"/>
					<circle class="st1" cx="385.2" cy="154.6" r="6.2"/>
					<circle class="st1" cx="402.3" cy="154.6" r="4"/>
				</g>
			</g>
			<rect x="213.8" y="39.2" class="st2" width="69.6" height="5.9"/>
			<rect x="213.8" y="52.2" class="st2" width="69.6" height="5.9"/>
			<rect x="213.8" y="65.1" class="st2" width="69.6" height="5.9"/>
			<rect x="213.8" y="78" class="st2" width="55.1" height="5.9"/>
			<rect x="213.8" y="91" class="st2" width="55.1" height="5.9"/>
		</g>
	</g>
</g>
</svg>
