<?xml version="1.0" encoding="utf-8"?>
<!-- Generator: Adobe Illustrator 23.0.5, SVG Export Plug-In . SVG Version: 6.00 Build 0)  -->
<svg version="1.1" id="Layer_1" xmlns="http://www.w3.org/2000/svg" xmlns:xlink="http://www.w3.org/1999/xlink" x="0px" y="0px"
	 viewBox="0 0 624 420" style="enable-background:new 0 0 624 420;" xml:space="preserve">
<style type="text/css">
	.st0{opacity:0.15;clip-path:url(#SVGID_2_);fill:#35B24A;enable-background:new    ;}
	.st1{clip-path:url(#SVGID_2_);}
	.st2{fill:#E69090;}
	.st3{fill:#F29D9D;}
	.st4{fill:#F2AEAE;}
	.st5{fill:#F5B8B8;}
	.st6{fill:#F2C4C4;}
	.st7{fill:#5D5D5D;}
	.st8{fill:#F3B39E;}
	.st9{fill:#F3C9B3;}
	.st10{fill:#F0AC63;}
	.st11{fill:#F0C363;}
	.st12{fill:#F5D184;}
	.st13{fill:#FFE9DD;}
	.st14{fill:#FFFFFF;}
</style>
<g>
	<defs>
		<rect id="SVGID_1_" width="624" height="419"/>
	</defs>
	<clipPath id="SVGID_2_">
		<use xlink:href="#SVGID_1_"  style="overflow:visible;"/>
	</clipPath>
	<rect class="st0" width="624" height="419.2"/>
	<g class="st1">
		<g id="XMLID_7_">
			<path id="XMLID_9_" class="st2" d="M350.1,328.7c-30.1,4.4-28.8,42.9-11,60.8c8.6,8.7,27.5,7.7,33.2-2.4
				c8.6-15.2,7.6-38.5,7.7-55.4C370.2,329.4,360.1,327.2,350.1,328.7z"/>
			<path id="XMLID_10_" class="st3" d="M385.6,331c-30.1,4.4-28.8,42.9-11,60.8c8.6,8.7,27.5,7.7,33.2-2.4
				c8.6-15.2,7.6-38.5,7.7-55.4C405.7,331.7,395.6,329.5,385.6,331z"/>
			<path id="XMLID_11_" class="st2" d="M250,350.7c-12.7-7.4-45.9-20.3-51,0c-3.9,15.9,6.9,34.6,21.3,41.1c7.1,3.2,15.3,2.6,23.1,2
				c3.1-0.2,6.5-0.7,8.4-3.1c1.8-2.2,1.6-5.4,1.3-8.3C252,371.9,251,361.3,250,350.7z"/>
			<path id="XMLID_13_" class="st3" d="M244.8,192.8c-8.3,17.6-34.7,49.9-57.3,43c-20.4-6.3-24.8-34.8-32.7-51.3
				c-2.3-4.9-4.6-10.1-3.8-15.4c1.3-8,9.4-13.1,17.2-15.3c22-6,44.9,3.4,65.6,13c5.4,2.5,11.2,5.5,13.2,11.1
				C248.8,182.7,247,188.1,244.8,192.8z"/>
			<path id="XMLID_40_" class="st2" d="M207.4,200.2c-4.1,10-8.8,19.7-14.1,29.1c-1.4,2.5-3.3,5.3-5.8,6.4c-0.9,0.4-1.8,0.6-2.8,0.5
				c-0.2,0-0.4,0-0.7-0.1c-2.5-0.5-4.4-2.6-6-4.7c-0.1-0.1-0.2-0.2-0.3-0.4c-0.2-0.3-0.4-0.6-0.7-0.8c-0.7-0.9-1.4-1.8-2-2.7
				c-3.3-4.6-6.3-9.4-8.9-14.4c-4.5-8.5-8-17.4-10.5-26.7c0-0.1-0.1-0.2-0.1-0.3c-1.5-5.7-2-12.5,2.4-16.2l-2.3-2
				c15-1,30.3,2,43.9,8.5c3.7,1.8,7.5,4,9.3,7.7c0,0.1,0.1,0.2,0.1,0.2C211.4,189.3,209.5,195.1,207.4,200.2z"/>
			<path id="XMLID_37_" class="st4" d="M446.6,290.1c-1.2,3.9-2.7,7.7-4.4,11.4c-17.5,39.4-57.6,68.3-100.8,71.4
				c-12,0.9-25.9,0.7-33.3,10.2c-4.7,5.9-5.3,14-8.8,20.7c-6.4,12.3-23.3,12.2-34.5,7.3c-6.7-3-11.2-7.1-14.4-13.6
				c-1-2-5.5-25.3-3-24.8c-18.8-3.5-35.1-13.4-51.6-22.5c-14.5-8.1-31.3-13.4-39.8-28.2c-0.6-1-1.1-2.1-1.7-3.3
				c-3.9-8.7-5.4-18.3-6.7-27.8c-1.4-9.3-2.4-19.9,3.6-27.1c3-3.6,7.4-5.8,11.1-8.7c6.2-4.8,10-11.1,13-17.8c0.9-2,1.7-4,2.5-6
				c0.1-0.2,0.2-0.5,0.3-0.7c0.1-0.2,0.2-0.5,0.3-0.7c2.4-6.1,4.6-12.3,7.9-18c3.9-6.9,9-13.6,14.8-19.9c2.5-2.7,5.2-5.3,8-7.8
				c8-7.1,16.9-13,26.2-16.8c1.1-0.5,2.2-0.9,3.3-1.3c30.7-10.8,63.8-15.4,96-10.9c25.5,3.5,44.5,12.5,65,26.9
				c8.7,6.1,11.6,5.3,19.9-1.5c7.3-6,18.3-12.8,16,3.7c-1.5,10.9-3.9,19,0.5,28.8c4.5,10,11,17.7,13.6,28.8
				C453.2,257.7,451.5,274.6,446.6,290.1z"/>
			<path id="XMLID_6_" class="st5" d="M429.1,265.9c8.6-4.1,12.1-15.4,10-24.9c-6.5-29.8-38.2-54.9-65.2-64.9
				c-10-3.7-53.5-17.8-58.1,0.8c-1.3,5.4,0.4,11.1,3,16c2.6,4.9,5.9,9.4,8.3,14.4c7.3,15.7,3.3,36.3,14.7,50.3
				c9.9,12.2,33.5,12,47.8,11.4c9.3-0.4,18.6-0.7,27.8-1.1c3.7-0.1,7.5-0.3,10.9-1.7C428.5,266.1,428.8,266,429.1,265.9z"/>
			<path id="XMLID_30_" class="st3" d="M267.3,355.6c0.1,19.4,0.3,39.4,7.9,57.3c-10.9,0-19.7-5.2-24.7-15.4c-1-2-5.5-25.3-3-24.8
				c-18.8-3.5-35.1-13.4-51.6-22.5c-14.2-7.9-23.3-10.6-31.5-24.9c3.6,6.2,23.6,11.6,30.2,14.1c11.6,4.5,23.5,8.1,35.6,10.8
				C242.3,352.9,254.8,353.6,267.3,355.6z"/>
			<path id="XMLID_12_" class="st6" d="M187.1,320.4c-3,14.9-16.2,21-28,10.1c-13.8-12.7-15.2-32.9-13-50.1
				c1.9-14.9,14-28.2,29.5-15.8c7.4,5.9,10.7,15.6,12.2,25C189.4,299.9,189.2,310.3,187.1,320.4z"/>
			<path id="XMLID_14_" class="st6" d="M314.1,248.8c-13.5,25.8-46.1,24.8-53.6-3.4c-3.2-12-8.2-23.7-12.5-35.5
				c-1.5-4.2-3.1-8.4-3.3-12.8c-0.2-4.4,1.2-9.2,4.6-12c3.1-2.6,7.4-3.2,11.5-3.4c17.3-0.7,35.1,5.7,46.5,18.7
				C318.5,213.5,322.1,233.5,314.1,248.8z"/>
			<path id="XMLID_21_" class="st7" d="M158.5,293c-1-2.1-4.5-2.1-5.6,0c-1,2.1-0.8,4-0.7,6.3c0.2,2.3,0.7,3.7,1.8,5.6
				c0.7,1.2,2.6,1.2,3.3,0c1.1-1.9,1.7-3.3,1.8-5.6C159.3,297.1,159.5,295.1,158.5,293z"/>
			<path id="XMLID_22_" class="st7" d="M173.5,300c-0.3-1.8-0.6-3.7-2-4.9c-1.8-1.6-4.7-1-5.4,1.4c-0.6,2,0.2,3.8,1,5.6
				c0.8,1.7,1.5,3.2,3.5,3.8c0.7,0.2,1.6,0,2-0.5c0.7-0.8,1.2-1.6,1.2-2.7C173.8,301.7,173.6,300.8,173.5,300z"/>
			<path id="XMLID_23_" class="st7" d="M335.9,157.1c-6.1-5.8-19.4-3.8-27.1-2.7c-9.7,1.4-21.5,4.1-28.3,11.7
				c-1.5,1.7,0,4.1,2.2,3.7c9.7-1.8,18.5-6.6,28.5-7.8c4.2-0.5,8.6-0.6,12.8-0.4c4.5,0.3,7.4,1.3,11.5-0.5
				C336.9,160.5,337,158.2,335.9,157.1z"/>
			<path id="XMLID_15_" class="st3" d="M259.2,292.3c-0.6,14-25.1,23.8-35.3,14.1c-7.8-7.4-5.7-24.1,2.8-30.2
				c5.3-3.8,12.5-4.6,18.7-2.5C253.3,276.4,259.6,284,259.2,292.3z"/>
			<path id="XMLID_18_" class="st3" d="M243.3,193.9c1.5-22.5,32.1,11.9,35.5,18.2c7.3,13.9,12.8,31.2,12.3,47.1
				c-0.1,1.9-0.2,3.9-1.2,5.5c-2.1,3.5-7.3,3.8-11.2,2.6c-7.4-2.2-13.4-8.1-17.3-14.8c-4-6.7-6.2-14.2-8.4-21.6
				c-2.6-8.6-5.1-17.3-7.7-25.9C244.1,201.3,243.1,197.6,243.3,193.9z"/>
			<path id="XMLID_17_" class="st7" d="M226.2,242.4c-0.4-1.9-2.4-3.2-4.2-3.2c-2.1,0-3.5,1.4-4.2,3.2c-0.7,1.9-0.6,4.1-0.7,6.1
				c-0.1,2-0.2,4,0.4,5.9c1,3,5.5,4.1,7.1,0.9c1-2,1.3-4.2,1.5-6.4C226.4,246.7,226.7,244.6,226.2,242.4z"/>
			<path id="XMLID_34_" class="st7" d="M184,234.4c0,0.6,0,1.2,0,1.8c0,1-0.1,2-0.2,3c-0.2,1.8-1.1,3.3-1.6,5
				c-1.2,3.9-5.1,1.2-5.5-1.6c-0.4-3.3-0.3-9.2,2.2-11.8C181.5,228.2,183.9,231.6,184,234.4z"/>
		</g>
		<g id="XMLID_39_">
			<path id="XMLID_4_" class="st8" d="M289.4,47.9c-16-0.3-32-0.7-48-1c-4.5-0.1-9.2-0.2-13.1-2.5c-3.9-2.3-6.4-7.5-4.2-11.4
				c32.5,2.2,65.3,1.7,97.7-1.6L289.4,47.9z"/>
			<path id="XMLID_5_" class="st8" d="M290.7,39.9c-10.9,0-21.7-2.7-31.3-7.7c-3.1-1.6-6.2-3.6-8.4-6.4c-2.2-2.8-3.3-6.6-2.3-9.9
				c23.3,8.9,47.9,14.4,72.8,16.2L290.7,39.9z"/>
			<path id="XMLID_3_" class="st9" d="M316.6,53.1c-7,3.3-14.3,6.2-21.1,9.2c-7.1,3.1-15,5.3-21.9,8.8c-5.4,2.8-10.2,6.4-15.9,9.1
				c-6.5,3.1-21.8,10.9-28.2,3.5c-5.5-6.2,6-9.1,10-11.1c7.4-3.8,14.6-7.9,21.8-12c14.1-8.2,27.9-16.8,41.8-25.2
				c7.4-4.4,14.9-8.9,23-11.6c6.1-2,12.6-3,19-2.3c5.3,0.7,10.5,2.6,15,5.6c-8.7,4.9-16.7,10.2-24.9,15.7
				C329.5,46.8,323.1,50.1,316.6,53.1z"/>
			<path id="XMLID_42_" class="st8" d="M330.5,32.8c3.3-3,7.1-5.4,11.3-7c-6.8,0.1-14,1.5-18.9,6.1c-4.4,4.1-6.3,10-9.3,15.2
				c-4.2,7.4-9.9,8.3-17,11.4c-7.5,3.2-14.8,5.1-21.2,10c-6.3,4.8-13.3,8.6-20.8,11.1c-6.5,2.2-18.5,6.5-24,0.3
				c-0.6-0.7-1.1-1.4-1.3-2.1c-1.5,1.5-1.9,3.4,0.2,5.8c6.5,7.4,21.7-0.4,28.2-3.5c5.6-2.7,10.4-6.3,15.9-9.1
				c6.9-3.5,14.8-5.7,21.9-8.8c5.6-2.4,13.5-4,18.3-7.5c4.9-3.5,7.5-11.5,11.3-16.2C326.8,36.5,328.6,34.5,330.5,32.8z"/>
			<path id="XMLID_31_" class="st9" d="M323.9,33.2c-1.3,2-2.5,4.1-3.6,6.2c-5.3,9.7-9.2,20.2-14.5,29.8c-4,7.3-8.2,11.8-7.7,21
				c0.7,13.9,0.9,27.6,1.8,41.5c3.9,3.1,10-0.3,11.8-5c1.8-4.6,0.9-9.8,1.1-14.8c0.4-10.9,6.1-20.7,11.5-30.1
				c4.6-7.9,9.2-15.9,13.9-23.8c0.6-0.9,1.2-2,2.3-2.3c1.7-0.4,3.1,1.3,3.9,2.8c0.2,0.5,0.4,0.9,0.6,1.4
				C343.7,48.7,335.7,33.3,323.9,33.2z"/>
			<g id="XMLID_33_">
				<path id="XMLID_35_" class="st8" d="M305.5,131.7c-2.4-1.9-1-19.3-1.1-22.8c-0.2-5.2-2.3-10.1-3.2-15.2c-1-6.1,0.9-10,2.9-15.6
					c1,1,1.9,2,2.9,3c-0.5-0.5-0.2-3.6-1.1-4.8c3.8-3.1,6.4-9,8.7-13.3c3.8-7.1,7.2-14.7,9.9-22.1c2.3-6.5,6.9-11.9,14.5-11.6
					c-4-0.2-6.6-1.8-10.7,0.3c-4,2-5.9,6-7.9,9.8c-5.3,9.7-9.2,20.2-14.5,29.8c-4,7.3-8.2,11.8-7.7,21c0.7,13.9,0.9,27.6,1.8,41.5
					c1.9,1.5,4.2,1.5,6.4,0.5C306,132.1,305.7,131.9,305.5,131.7z"/>
				<path id="XMLID_36_" class="st8" d="M343.9,57.7c0.2,0.3,0.3,0.6,0.5,0.8c0.2,0.5,0.4,0.9,0.6,1.4c-0.1-1-0.3-2-0.5-3.1
					C344.3,57.1,344.1,57.4,343.9,57.7z"/>
			</g>
			<g id="XMLID_19_">
				<path id="XMLID_8_" class="st10" d="M318.6,125.6c-0.6-2.4-1.6-4.5-2.8-6.7c-0.6-1.1-1-3.3-1.9-4.1c-0.5-0.4-1.1-0.5-1.7-0.5
					c-4.2-0.1-9.5-0.5-13.2,1.7c-3,1.7-5.4,4.4-7.2,7.3c-3.5,5.9-5,13.3-4.2,20.1c1.3,10.6,8.9,16.3,19,17.1
					c1.1,0.1,2.2,0.1,3.2-0.4c1.8-0.9,2.5-3.2,3.7-4.7c1.7-2.1,3.1-3.9,4.1-6.5C320.6,141.7,320.5,133,318.6,125.6z"/>
				<path id="XMLID_24_" class="st11" d="M323.5,126.1c-1.8-6.9-5.6-12.7-13.3-11.7c-1.8,0.2-3.4,0.7-4.9,1.4
					c-0.1-0.2-0.2-0.3-0.5-0.3c-1.6,0-3.6-0.3-5.2,0.3c-0.3,0.1-0.3,0.4,0,0.5c1.2,0.4,2.8,0.4,4.2,0.3c-0.5,0.3-1,0.6-1.4,0.9
					c-0.8-0.3-1.8-0.2-2.7-0.2c-0.9,0-2-0.3-2.9,0.2c-0.2,0.1-0.2,0.3,0,0.5c0.8,0.5,2,0.4,2.9,0.5c0.4,0,0.9,0.1,1.4,0.1
					c-0.7,0.6-1.4,1.3-2.1,2.1c-0.8-0.1-1.6-0.1-2.3-0.1c-1-0.1-2.2-0.4-3.1,0.3c-0.1,0.1-0.1,0.2,0,0.2c0.7,0.8,2.1,0.6,3.1,0.7
					c0.4,0,0.9,0.1,1.3,0.1c-1,1.3-1.8,2.7-2.5,4.2c-1.8-0.1-3.8-0.2-5.5,0.2c-0.3,0-0.2,0.5,0,0.5c1.5,0.4,3.3,0.4,5,0.4
					c-0.7,1.5-1.2,3.1-1.6,4.7c-0.8-0.3-1.8,0-2.6,0.1c-0.9,0.1-1.9,0.1-2.8,0.4c-0.4,0.1-0.3,0.7,0.1,0.7c1,0.1,2.1,0,3.1-0.1
					c0.7,0,1.4,0,2-0.2c-0.5,2.4-0.8,4.8-0.9,7.1c-0.8,0-1.6,0.2-2.3,0.3c-0.7,0.1-1.4,0-2.1,0.3c-0.2,0.1-0.1,0.3,0,0.4
					c0.7,0.5,1.6,0.4,2.4,0.3c0.6,0,1.4-0.1,2-0.3c0,1,0.1,2,0.2,2.9c0.1,0.7,0.2,1.3,0.3,1.9c-0.6,0-1.2,0.1-1.7,0.2
					c-0.9,0-2.1-0.2-2.7,0.5c-0.1,0.1-0.1,0.3,0,0.4c0.7,0.7,2,0.3,2.9,0.3c0.6,0,1.2,0,1.8,0c0.3,1,0.6,2,1,2.9
					c-0.5,0.1-1,0.2-1.5,0.3c-0.9,0.1-1.9,0.2-2.7,0.7c-0.1,0.1-0.1,0.3,0,0.4c0.9,0.2,1.9,0,2.8-0.1c0.6-0.1,1.2-0.1,1.8-0.2
					c0.7,1.3,1.5,2.6,2.4,3.6c-0.3,0-0.6,0.1-0.9,0.1c-0.8,0.1-1.6,0.2-2.4,0.6c-0.3,0.1-0.2,0.6,0.1,0.6c0.9,0.2,1.8,0,2.6-0.1
					c0.5-0.1,1.1,0,1.5-0.3c0.3,0.3,0.6,0.6,0.9,0.9c-0.7,0.1-1.5,0.2-2,0.5c-0.3,0.1-0.2,0.5,0.1,0.6c0.9,0.2,2.2,0.1,3.1-0.1
					c7.2,5.4,17.7,4.1,22.7-8.1C325.6,142.2,325.4,133.4,323.5,126.1z"/>
				<path id="XMLID_16_" class="st12" d="M320.1,128.6c-1.4-5.3-4.4-9.8-10.3-9.1c-10.3,1.3-14.8,13.8-13.7,22.8
					c1.6,13.4,17.4,18.7,23.3,4.2C321.7,141.1,321.6,134.3,320.1,128.6z"/>
				<path id="XMLID_26_" class="st10" d="M320.1,128.6c-1.4-5.3-4.4-9.8-10.3-9.1c-3.6,0.4-6.4,2.2-8.6,4.7c1.9-1.7,4.3-2.9,7.1-3.2
					c5.9-0.7,8.9,3.8,10.3,9.1c1.5,5.7,1.6,12.5-0.6,18c-0.8,1.9-1.7,3.4-2.7,4.6c1.7-1.4,3.2-3.4,4.3-6.2
					C321.7,141.1,321.6,134.3,320.1,128.6z"/>
				<path id="XMLID_25_" class="st10" d="M310,136.1c-2.7-1.1-5.2-1.9-4.9-5.4c0.1-1,0.4-2,1-2.7c0.7-0.7,1.7-1.1,2.7-0.8
					c0.9,0.3,1.5,1.5,1.1,2.3c1.1,0,2.2,0,3.2,0c0.3,0-0.4-2.2-0.4-2.4c-0.4-0.8-1-1.3-1.8-1.7c-1.5-0.9-3.4-0.9-4.9,0
					c-2.5,1.4-4.4,5.4-3.9,8.2c0.3,1.5,1.3,2.9,2.6,3.8c1.1,0.7,2.5,1.1,3.7,1.6c1.2,0.5,2.5,1.4,2.9,2.7c0.4,1.4,0.4,2.9-0.7,3.9
					c-0.7,0.6-1.7,0.9-2.6,0.6c-0.9-0.3-1.6-1.2-1.5-2.1c-1.2,0-2.3,0.3-3.4,0.9c0,3.4,2.1,4.4,5,4.3c3.3-0.1,6.2-2.7,6.5-6
					C315,140.1,312.9,137.4,310,136.1z"/>
			</g>
			<path id="XMLID_49_" class="st9" d="M540.7-55.8v40.4c-4.2,3.2-8.5,6.2-12.9,9.2c-28,18.8-59.7,33.4-89.3,49.4
				c-12.8,6.9-23.9,15.1-34.7,24.1c-5.4,4.4-10.6,9.1-16,13.8c-11.9,10.6-26.4,14-38.1,24.1c-6.5,5.6-11.9,12.1-18,18
				c-0.2,0.2-0.4,0.4-0.6,0.5c-0.2,0.2-0.4,0.3-0.5,0.5c0,0-0.1,0.1-0.1,0.1c-0.4,0.4-0.8,0.7-1.2,1c-1.5,1.2-3,2.4-4.3,3.9
				c-0.2,0.3-0.5,0.6-0.7,0.9c-0.9,1.5-1.5,3.3-2.6,4.5c-0.2,0.2-0.4,0.4-0.6,0.5c-0.3,0.3-0.7,0.5-1.2,0.6c-0.1,0-0.2,0.1-0.4,0.1
				c-0.1,0-0.1,0-0.2,0c-0.1,0-0.2,0-0.3,0c-0.5,0-1,0-1.4-0.1c-0.1,0-0.1,0-0.2-0.1c-0.3-0.1-0.6-0.3-0.9-0.5
				c-1.7-1.1-2.9-3.3-3.3-5.4c0-0.1,0-0.2-0.1-0.3c-0.1-0.7-0.3-1.3-0.3-2c0,0,0,0,0,0c-0.2-2-0.1-3.9,0.2-5.9
				c0.1-0.7,0.2-1.3,0.4-2c0.3-1.3,0.8-2.5,1.3-3.7c0.2-0.4,0.4-0.8,0.6-1.3c2.7-5.7,7.1-10.8,11.2-15.1
				c5.5-5.7,11.5-11.3,15.4-18.2c3-5.2,4.8-11.5,4-17.4c0-0.3-0.1-0.5-0.1-0.8c-0.2-1.1-0.5-2.3-0.9-3.4c0-0.2-0.1-0.5-0.1-0.7
				c0-0.1,0-0.2,0-0.3c0,0,0-0.1,0-0.1c0-0.1,0-0.3-0.1-0.4v0c0-0.1,0-0.1,0-0.2c0-0.1,0-0.2-0.1-0.4c0-0.1,0-0.1,0-0.2
				c0-0.2-0.1-0.3-0.1-0.5c0-0.1,0-0.2-0.1-0.3c-0.4-2.1-1-4-1.8-5.9c-1-2.5-2.4-4.9-4.2-7.1c-0.6-0.8-1.2-1.4-1.9-1.9
				c-2.9-2.4-6.3-3.5-8.5-6.8c-0.1-0.2-0.2-0.4-0.4-0.6c-0.2-0.3-0.4-0.6-0.5-1c-0.1-0.1-0.1-0.2-0.1-0.3c2.5-1.5,5-3.1,7.6-4.6
				c0.2-0.1,0.3-0.2,0.5-0.3c1.7-1,3.4-1.8,5.2-2.5c3.5-1.3,7.3-2.2,11.2-2.8c8.9-1.5,18.3-1.8,26.5-4.4c16.1-5.2,31.1-13.3,45-22.9
				c22.2-15.2,41.6-34,62.1-51.5H540.7z"/>
			<path id="XMLID_43_" class="st8" d="M333.2,95.7c-2.4,1.9-4.8,4-6.9,6.4c-7.3,8.3-13.6,19.5-10.8,30.9c0.2,0.7,0.6,1.5,1.1,2.3
				c-1.7-1.1-2.9-3.3-3.3-5.4c-2.7-11.7,5.7-22.3,13.3-30.2c5.5-5.7,11.5-11.3,15.4-18.2c3-5.2,4.8-11.5,4-17.4
				c2.1-1.9,3.6-4.5,4.2-7.3c-1.5,7.8-0.4,15.2-3.2,23.1C344.3,87.2,338.7,91.2,333.2,95.7z"/>
			<path id="XMLID_52_" class="st13" d="M328.8,126.9c-2.4,2.6-4.8,5-7.1,7.7c-0.1,0.1-0.2,0.2-0.3,0.4c-0.7,0.8-1.5,2.7-3,2.1
				c-0.2-0.1-0.4-0.2-0.5-0.4c-0.4-0.5-0.4-1.2-0.5-1.8c-0.1-0.9-0.1-1.9,0.1-2.9c0,0,0,0,0,0c0.1-1,0.4-2,0.6-2.9
				c0.9-3.1,3-5.7,6.3-6.3c1.5-0.3,3.1,0,4.7,0.2c0.4,0.1,0.8,0.1,1,0.4C331,124.2,330.2,125.5,328.8,126.9z"/>
			<path id="XMLID_1_" class="st8" d="M328.7,122.1c-0.4,0.1-0.8,0.2-1.3,0.3c-0.4,0.1-3.2,0.7-3.4,0.5c1.8,1.5,4.4,1.3,6,3.2
				c1.2-1,1.6-2.2,0.4-3.5C329.8,122,329.3,122,328.7,122.1z"/>
			<path id="XMLID_29_" class="st8" d="M339.2,57c1.5-2.7,3-5.3,4.6-8c1.1,4.5,2.1,9.1,3.2,13.6c-0.5-3.6-3.9-6.5-7.5-6.5L339.2,57z
				"/>
			<path id="XMLID_32_" class="st8" d="M269.4,55.8c2.7-1.6,6.6-0.3,7.7,2.6c-0.5-1.4-1-2.8-1.5-4.3c2.2-1.5,4.4-2.9,6.6-4.4
				c-4.5,0.9-8.8,2.9-12.3,5.8c0.4,0.1,0.8,0.2,1.2,0.4L269.4,55.8z"/>
			<path id="XMLID_51_" class="st14" d="M321.8,134.7c-0.1,0.1-0.2,0.2-0.3,0.4c-0.7,0.8-1.5,2.7-3,2.1c-0.2-0.1-0.4-0.2-0.5-0.4
				c-0.4-0.6-0.8-1.3-0.8-1.8c-0.1-1,0-1.9,0.4-2.8c0,0,0,0,0,0c0.2-0.5,0.4-0.9,0.6-1.3l0.1-0.6C319,131.7,320.1,134,321.8,134.7z"
				/>
			<path id="XMLID_55_" class="st13" d="M240.3,71.9c-0.1,3.1-1.9,6.2-4.6,7.8c-1.1,0.7-2.3,1.2-3.6,1.4c-1.8,0.3-3.7,0.1-5.4-0.6
				l0.1-0.4c0.7-0.8,1.4-1.6,2.2-2.3C232.1,74.9,236.1,72.8,240.3,71.9z"/>
			<path id="XMLID_50_" class="st14" d="M232.8,80.5c-0.2,0.2-0.5,0.4-0.7,0.6c-1.8,0.3-3.7,0.1-5.4-0.6l0.1-0.4
				c0.7-0.8,1.4-1.6,2.2-2.3C229.8,79.2,231.2,80.2,232.8,80.5z"/>
			<path id="XMLID_38_" class="st8" d="M236.9,73c1,0.6,1.6,1.6,1.9,2.7c1.2-0.8,1.7-2.5,1.2-3.8c-1.2-0.2-2.6,0.6-3,1.7L236.9,73z"
				/>
			<path id="XMLID_47_" class="st8" d="M527.8-6.2c-28,18.8-59.7,33.4-89.3,49.4c-12.8,6.9-23.9,15.1-34.7,24.1l0.2-0.9
				c6.6-16.7,20.4-30.4,37.1-36.9c-2.8,2.9-5.7,5.9-8.5,8.8C464.4,23.5,496.1,8.6,527.8-6.2z"/>
		</g>
	</g>
</g>
</svg>
