<?xml version="1.0" encoding="utf-8"?>
<!-- Generator: Adobe Illustrator 23.0.5, SVG Export Plug-In . SVG Version: 6.00 Build 0)  -->
<svg version="1.0" id="Layer_1" xmlns="http://www.w3.org/2000/svg" xmlns:xlink="http://www.w3.org/1999/xlink" x="0px" y="0px"
	 viewBox="0 0 624 320" style="enable-background:new 0 0 624 320;" xml:space="preserve">
<style type="text/css">
	.st0{opacity:0.3;fill:#35B24A;}
	.st1{clip-path:url(#SVGID_2_);}
	.st2{fill:#FFFFFF;}
	.st3{fill:#1A2E35;}
	.st4{fill:#EF6A1C;}
	.st5{fill:#F5F5F5;}
	.st6{fill:#AEC199;}
	.st7{fill:#BAD2ED;}
	.st8{fill:#00A859;}
	.st9{opacity:0.4;}
	.st10{fill:#375A64;}
	.st11{opacity:0.6;}
	.st12{fill:#E1E1E1;}
	.st13{fill:#FFBE9D;}
	.st14{fill:#FF7F27;}
	.st15{fill:#C46220;}
	.st16{fill:#EB996E;}
	.st17{fill:#FAFAFA;}
</style>
<rect x="0" class="st0" width="624" height="320"/>
<g>
	<defs>
		<rect id="SVGID_1_" x="17" y="20" width="590" height="300"/>
	</defs>
	<clipPath id="SVGID_2_">
		<use xlink:href="#SVGID_1_"  style="overflow:visible;"/>
	</clipPath>
	<g class="st1">
		<g>
			<g>
				<path class="st2" d="M437.85,282.1H120.08c-4.01,0-7.26-3.25-7.26-7.26V40.09c0-4.01,3.25-7.26,7.26-7.26h317.77
					c4.01,0,7.26,3.25,7.26,7.26v234.75C445.1,278.85,441.85,282.1,437.85,282.1z"/>
			</g>
			<g>
				<g>
					<path class="st3" d="M437.85,282.1c-0.02-0.06,1.05,0.13,2.88-0.63c0.89-0.4,1.95-1.07,2.83-2.23c0.9-1.13,1.54-2.78,1.49-4.7
						c-0.01-7.67-0.03-18.97-0.05-33.52c-0.02-29.12-0.05-71.24-0.08-123.29c-0.01-13.01-0.01-26.65-0.02-40.85
						c0-7.1-0.01-14.35-0.01-21.73c0-3.69,0-7.42,0-11.18c0-0.94,0-1.88,0-2.83c0-0.95,0.02-1.87-0.22-2.77
						c-0.44-1.79-1.63-3.38-3.23-4.33c-0.8-0.47-1.69-0.79-2.61-0.92c-0.91-0.12-1.89-0.06-2.85-0.08c-1.93,0-3.87,0-5.81,0
						c-3.89,0-7.81,0-11.77,0c-7.91,0-15.94,0-24.09,0.01c-16.3,0-33.08,0.01-50.29,0.01c-68.82,0.01-144.49,0.01-223.91,0.02
						c-2.4-0.02-4.76,1.28-5.99,3.35c-0.63,1.01-0.98,2.19-1.02,3.38c-0.03,1.22-0.01,2.46-0.01,3.69c0,4.94,0,9.86,0,14.76
						c0,9.81,0,19.55,0,29.22c0,19.34,0,38.4,0,57.13c-0.01,37.46-0.01,73.59-0.02,108c0,4.3,0,8.58,0,12.83c0,2.12,0,4.24,0,6.35
						c0,1.05,0,2.11,0.01,3.16c0.02,1.02,0.26,2.03,0.7,2.94c0.87,1.84,2.58,3.23,4.54,3.72c0.97,0.27,1.99,0.23,3.04,0.23
						c1.04,0,2.07,0,3.11,0c4.13,0,8.24,0,12.32,0c16.3,0,32.13,0.01,47.44,0.01c30.61,0.01,59.12,0.02,85.14,0.03
						c52.05,0.04,94.17,0.06,123.29,0.08c14.55,0.02,25.85,0.04,33.52,0.05c3.83,0.01,6.75,0.02,8.72,0.03
						C436.84,282.08,437.85,282.1,437.85,282.1s-1.01,0.02-2.97,0.03c-1.97,0.01-4.89,0.01-8.72,0.03
						c-7.67,0.01-18.97,0.03-33.52,0.05c-29.11,0.02-71.24,0.05-123.29,0.08c-26.03,0.01-54.54,0.02-85.14,0.03
						c-15.3,0-31.13,0.01-47.44,0.01c-4.08,0-8.18,0-12.32,0c-1.03,0-2.07,0-3.11,0c-1.02,0-2.11,0.04-3.16-0.25
						c-2.09-0.52-3.91-2.01-4.85-3.97c-0.47-0.97-0.73-2.05-0.75-3.14c0-1.05,0-2.11-0.01-3.16c0-2.11,0-4.23,0-6.35
						c0-4.25,0-8.52,0-12.83c0-34.42-0.01-70.55-0.02-108c0-18.73,0-37.79,0-57.13c0-9.67,0-19.41,0-29.22c0-4.9,0-9.82,0-14.76
						c0.01-1.24-0.01-2.46,0.01-3.71c0.04-1.28,0.42-2.55,1.1-3.64c1.32-2.21,3.85-3.62,6.43-3.6
						c79.42,0.01,155.09,0.01,223.91,0.02c17.21,0,33.98,0.01,50.29,0.01c8.15,0,16.18,0,24.09,0.01c3.95,0,7.88,0,11.77,0
						c1.95,0,3.88,0,5.81,0c0.97,0.02,1.92-0.05,2.91,0.08c0.98,0.14,1.93,0.47,2.77,0.97c1.7,1,2.96,2.7,3.42,4.59
						c0.25,0.95,0.24,1.94,0.23,2.87c0,0.94,0,1.89,0,2.83c0,3.76,0,7.49,0,11.18c0,7.38-0.01,14.63-0.01,21.73
						c-0.01,14.21-0.01,27.84-0.02,40.85c-0.04,52.05-0.06,94.18-0.08,123.29c-0.02,14.55-0.04,25.86-0.05,33.52
						c0.04,1.93-0.62,3.61-1.54,4.75c-0.9,1.16-1.98,1.83-2.87,2.23c-0.91,0.39-1.66,0.48-2.15,0.55
						C438.1,282.09,437.85,282.1,437.85,282.1z"/>
				</g>
			</g>
		</g>
		<g>
			<g>
				<path class="st4" d="M421.22,136.66H291.96c-4.54,0-8.21-3.68-8.21-8.21V79c0-4.54,3.68-8.21,8.21-8.21h129.27
					c4.54,0,8.21,3.68,8.21,8.21v49.44C429.43,132.98,425.76,136.66,421.22,136.66z"/>
			</g>
		</g>
		<g>
			<g>
				<path class="st5" d="M362.36,100.97v2.61h-2.33v-2.54c-2.31-0.14-4.52-0.86-5.81-1.87l1.28-2.85c1.17,0.86,2.85,1.49,4.52,1.66
					v-3.9c-2.59-0.63-5.48-1.49-5.48-4.83c0-2.47,1.8-4.6,5.48-5.01v-2.59h2.33v2.54c1.75,0.14,3.45,0.61,4.74,1.42l-1.17,2.87
					c-1.19-0.68-2.4-1.07-3.57-1.21v3.97c2.59,0.61,5.43,1.47,5.43,4.76C367.79,98.42,366.02,100.52,362.36,100.97z M360.03,90.66
					v-3.31c-1.24,0.28-1.73,0.96-1.73,1.73C358.3,89.89,359,90.33,360.03,90.66z M364.04,96.28c0-0.82-0.68-1.26-1.68-1.61v3.22
					C363.53,97.63,364.04,97.02,364.04,96.28z"/>
			</g>
		</g>
		<g>
			<g>
				<path class="st5" d="M373.54,117.44v2.02h-1.81v-1.97c-1.79-0.11-3.5-0.67-4.5-1.44l0.99-2.2c0.9,0.67,2.2,1.16,3.5,1.28v-3.02
					c-2-0.49-4.24-1.16-4.24-3.74c0-1.91,1.39-3.56,4.24-3.88v-2h1.81v1.97c1.35,0.11,2.67,0.47,3.67,1.1l-0.9,2.22
					c-0.92-0.52-1.86-0.83-2.76-0.94v3.07c2,0.47,4.21,1.14,4.21,3.68C377.75,115.47,376.37,117.09,373.54,117.44z M371.73,109.46
					v-2.56c-0.96,0.22-1.34,0.74-1.34,1.34C370.4,108.86,370.94,109.2,371.73,109.46z M374.84,113.81c0-0.63-0.52-0.97-1.3-1.25
					v2.49C374.44,114.86,374.84,114.39,374.84,113.81z"/>
			</g>
		</g>
		<g>
			<g>
				<g>
					<g>
						<path class="st5" d="M387.37,98.55c0.01,0,0.02,0.14,0.03,0.41c0.01,0.31,0.02,0.7,0.03,1.18c0.01,1.09,0.02,2.58,0.04,4.44
							c0,3.86,0,9.24-0.01,15.58l-0.05-0.15c0.73,0.77,1.9,1.27,3.07,1.57c1.19,0.3,2.45,0.43,3.75,0.43c2.55,0,5.35-0.62,7.52-2.25
							l-0.09,0.2v-0.02c0.02-7.97,0.03-15.36,0.05-21.41l0.02,0.08c-0.23-0.44-0.7-0.84-1.16-1.12c-0.47-0.29-0.99-0.48-1.49-0.65
							c-1.03-0.31-2.04-0.46-3-0.52c-1.92-0.13-3.61,0-4.95,0.28c-1.34,0.29-2.33,0.75-2.92,1.18c-0.3,0.21-0.5,0.4-0.63,0.54
							C387.43,98.48,387.38,98.56,387.37,98.55c-0.02-0.01,0.16-0.39,0.75-0.86c0.58-0.47,1.58-0.98,2.94-1.32
							c1.36-0.32,3.07-0.48,5.03-0.38c0.98,0.05,2.02,0.18,3.1,0.49c1.04,0.35,2.23,0.78,2.94,1.98l0.02,0.03l0,0.05
							c0.01,6.05,0.03,13.44,0.05,21.41v0.02v0.13l-0.09,0.07c-2.36,1.76-5.21,2.36-7.86,2.36c-1.33,0-2.63-0.14-3.87-0.46
							c-1.23-0.34-2.42-0.8-3.32-1.76l-0.05-0.05l0-0.09c0.08-6.37,0.15-11.76,0.2-15.63c0.04-1.86,0.07-3.34,0.1-4.43
							c0.02-0.47,0.03-0.86,0.04-1.17C387.34,98.68,387.36,98.55,387.37,98.55z"/>
					</g>
				</g>
				<g>
					<g>
						<path class="st5" d="M401.92,98.59c0.03,0.05-0.63,0.62-1.91,1.26c-1.27,0.66-3.25,1.11-5.41,1.09
							c-2.15,0.02-4.14-0.32-5.43-0.95c-1.29-0.6-1.97-1.16-1.94-1.21c0.04-0.08,0.8,0.37,2.08,0.86c1.28,0.52,3.17,0.78,5.29,0.77
							c2.11,0.02,3.99-0.35,5.26-0.9C401.13,98.98,401.87,98.51,401.92,98.59z"/>
					</g>
				</g>
				<g>
					<g>
						<path class="st5" d="M401.92,103.94c0.03,0.05-0.63,0.62-1.91,1.26c-1.27,0.66-3.25,1.11-5.41,1.09
							c-2.15,0.02-4.14-0.32-5.43-0.95c-1.29-0.6-1.97-1.16-1.94-1.21c0.04-0.08,0.8,0.37,2.08,0.86c1.28,0.52,3.17,0.78,5.29,0.77
							c2.11,0.02,3.99-0.35,5.26-0.9C401.13,104.33,401.87,103.86,401.92,103.94z"/>
					</g>
				</g>
				<g>
					<g>
						<path class="st5" d="M401.92,109.28c0.03,0.05-0.63,0.62-1.91,1.26c-1.27,0.66-3.25,1.11-5.41,1.09
							c-2.15,0.02-4.14-0.32-5.43-0.95c-1.29-0.6-1.97-1.16-1.94-1.21c0.04-0.08,0.8,0.37,2.08,0.86c1.28,0.52,3.17,0.78,5.29,0.77
							c2.11,0.02,3.99-0.35,5.26-0.9C401.13,109.68,401.87,109.21,401.92,109.28z"/>
					</g>
				</g>
				<g>
					<g>
						<path class="st5" d="M401.92,114.63c0.03,0.05-0.63,0.62-1.91,1.26c-1.27,0.66-3.25,1.11-5.41,1.09
							c-2.15,0.02-4.14-0.32-5.43-0.95c-1.29-0.6-1.97-1.16-1.94-1.21c0.04-0.08,0.8,0.37,2.08,0.86c1.28,0.52,3.17,0.78,5.29,0.77
							c2.11,0.02,3.99-0.35,5.26-0.9C401.13,115.02,401.87,114.56,401.92,114.63z"/>
					</g>
				</g>
			</g>
			<g>
				<g>
					<g>
						<path class="st5" d="M401.98,87.59c0.01,0,0.03,0.22,0.04,0.63c0.01,0.45,0.02,1.05,0.03,1.81c0.01,1.62,0.02,3.9,0.04,6.76
							c0,5.81,0,13.93-0.01,23.39l-0.05-0.15c0.75,0.79,1.95,1.3,3.12,1.59c1.2,0.3,2.47,0.42,3.77,0.42
							c2.55-0.01,5.3-0.65,7.43-2.25l-0.09,0.2v-0.02c0.03-12.5,0.05-23.88,0.07-32.38l0.01,0.07c-0.24-0.46-0.72-0.86-1.19-1.14
							c-0.48-0.29-1.01-0.49-1.52-0.66c-1.04-0.31-2.07-0.45-3.03-0.51c-1.93-0.11-3.61,0.02-4.94,0.3c-1.33,0.3-2.3,0.77-2.88,1.19
							c-0.29,0.21-0.49,0.4-0.61,0.53C402.04,87.51,401.99,87.59,401.98,87.59c-0.01,0,0.03-0.1,0.14-0.25
							c0.11-0.15,0.3-0.36,0.59-0.59c0.57-0.46,1.55-0.97,2.89-1.31c1.35-0.32,3.05-0.49,5.01-0.4c0.98,0.05,2.03,0.18,3.12,0.49
							c1.05,0.34,2.26,0.78,2.97,1.99l0.01,0.02l0,0.05c0.02,8.5,0.04,19.88,0.07,32.38v0.02v0.13l-0.09,0.07
							c-2.31,1.74-5.12,2.35-7.77,2.37c-1.33,0-2.64-0.13-3.89-0.44c-1.25-0.33-2.46-0.79-3.39-1.78l-0.05-0.06l0-0.1
							c0.08-9.48,0.15-17.62,0.2-23.44c0.04-2.85,0.08-5.13,0.1-6.74c0.02-0.75,0.04-1.34,0.05-1.79
							C401.95,87.79,401.97,87.58,401.98,87.59z"/>
					</g>
				</g>
				<g>
					<g>
						<path class="st5" d="M416.53,98.59c0.03,0.05-0.63,0.62-1.91,1.26c-1.27,0.66-3.25,1.11-5.41,1.09
							c-2.15,0.02-4.14-0.32-5.43-0.95c-1.29-0.6-1.97-1.16-1.94-1.21c0.04-0.08,0.8,0.37,2.08,0.86c1.28,0.52,3.17,0.78,5.29,0.77
							c2.11,0.02,3.99-0.35,5.26-0.9C415.74,98.98,416.48,98.51,416.53,98.59z"/>
					</g>
				</g>
				<g>
					<g>
						<path class="st5" d="M416.53,103.94c0.03,0.05-0.63,0.62-1.91,1.26c-1.27,0.66-3.25,1.11-5.41,1.09
							c-2.15,0.02-4.14-0.32-5.43-0.95c-1.29-0.6-1.97-1.16-1.94-1.21c0.04-0.08,0.8,0.37,2.08,0.86c1.28,0.52,3.17,0.78,5.29,0.77
							c2.11,0.02,3.99-0.35,5.26-0.9C415.74,104.33,416.48,103.86,416.53,103.94z"/>
					</g>
				</g>
				<g>
					<g>
						<path class="st5" d="M416.53,93.11c0.03,0.05-0.63,0.62-1.91,1.26c-1.27,0.66-3.25,1.11-5.41,1.09
							c-2.15,0.02-4.14-0.32-5.43-0.95c-1.29-0.6-1.97-1.16-1.94-1.21c0.04-0.08,0.8,0.37,2.08,0.86c1.28,0.52,3.17,0.78,5.29,0.77
							c2.11,0.02,3.99-0.35,5.26-0.9C415.74,93.5,416.48,93.03,416.53,93.11z"/>
					</g>
				</g>
				<g>
					<g>
						<path class="st5" d="M416.53,87.59c0.03,0.05-0.63,0.62-1.91,1.26c-1.27,0.66-3.25,1.11-5.41,1.09
							c-2.15,0.02-4.14-0.32-5.43-0.95c-1.29-0.6-1.97-1.16-1.94-1.21c0.04-0.08,0.8,0.37,2.08,0.86c1.28,0.52,3.17,0.78,5.29,0.77
							c2.11,0.02,3.99-0.35,5.26-0.9C415.74,87.98,416.48,87.51,416.53,87.59z"/>
					</g>
				</g>
				<g>
					<g>
						<path class="st5" d="M416.53,109.28c0.03,0.05-0.63,0.62-1.91,1.26c-1.27,0.66-3.25,1.11-5.41,1.09
							c-2.15,0.02-4.14-0.32-5.43-0.95c-1.29-0.6-1.97-1.16-1.94-1.21c0.04-0.08,0.8,0.37,2.08,0.86c1.28,0.52,3.17,0.78,5.29,0.77
							c2.11,0.02,3.99-0.35,5.26-0.9C415.74,109.68,416.48,109.21,416.53,109.28z"/>
					</g>
				</g>
				<g>
					<g>
						<path class="st5" d="M416.53,114.63c0.03,0.05-0.63,0.62-1.91,1.26c-1.27,0.66-3.25,1.11-5.41,1.09
							c-2.15,0.02-4.14-0.32-5.43-0.95c-1.29-0.6-1.97-1.16-1.94-1.21c0.04-0.08,0.8,0.37,2.08,0.86c1.28,0.52,3.17,0.78,5.29,0.77
							c2.11,0.02,3.99-0.35,5.26-0.9C415.74,115.02,416.48,114.56,416.53,114.63z"/>
					</g>
				</g>
			</g>
		</g>
		<g>
			<g>
				<path class="st6" d="M269.31,136.66H140.06c-4.54,0-8.22-3.68-8.22-8.22V79.01c0-4.54,3.68-8.22,8.22-8.22h129.26
					c4.54,0,8.22,3.68,8.22,8.22v49.43C277.53,132.98,273.85,136.66,269.31,136.66z"/>
			</g>
			<g>
				<path class="st2" d="M199.75,100.92v2.61h-2.33v-2.54c-2.31-0.14-4.53-0.86-5.81-1.87l1.28-2.85c1.17,0.86,2.85,1.49,4.53,1.66
					v-3.9c-2.59-0.63-5.48-1.49-5.48-4.83c0-2.47,1.8-4.6,5.48-5.01V81.6h2.33v2.54c1.75,0.14,3.45,0.61,4.74,1.42l-1.17,2.87
					c-1.19-0.68-2.4-1.07-3.57-1.21v3.97c2.59,0.61,5.43,1.47,5.43,4.76C205.19,98.37,203.42,100.47,199.75,100.92z M197.42,90.61
					v-3.31c-1.24,0.28-1.73,0.96-1.73,1.73C195.69,89.84,196.39,90.28,197.42,90.61z M201.43,96.23c0-0.82-0.68-1.26-1.68-1.61v3.22
					C200.92,97.58,201.43,96.97,201.43,96.23z"/>
			</g>
			<g>
				<path class="st2" d="M210.93,117.39v2.02h-1.81v-1.97c-1.79-0.11-3.5-0.67-4.5-1.44l0.99-2.2c0.9,0.67,2.2,1.16,3.5,1.28v-3.02
					c-2-0.49-4.24-1.16-4.24-3.74c0-1.91,1.39-3.56,4.24-3.88v-2h1.81v1.97c1.35,0.11,2.67,0.47,3.67,1.1l-0.9,2.22
					c-0.92-0.52-1.86-0.83-2.76-0.94v3.07c2,0.47,4.21,1.14,4.21,3.68C215.14,115.42,213.77,117.04,210.93,117.39z M209.13,109.4
					v-2.56c-0.96,0.22-1.34,0.74-1.34,1.34C207.79,108.81,208.33,109.15,209.13,109.4z M212.23,113.76c0-0.63-0.52-0.97-1.3-1.25
					V115C211.84,114.8,212.23,114.33,212.23,113.76z"/>
			</g>
			<g>
				<path class="st3" d="M144.87,94.08h-1.68v-0.44h3.86v0.44h-1.68v4.34h-0.5V94.08z"/>
				<path class="st3" d="M147.01,96.62c0-1.06,0.78-1.82,1.83-1.82c1.05,0,1.82,0.76,1.82,1.82c0,1.06-0.77,1.83-1.82,1.83
					C147.79,98.45,147.01,97.69,147.01,96.62z M150.17,96.62c0-0.84-0.57-1.4-1.33-1.4c-0.76,0-1.34,0.56-1.34,1.4
					c0,0.84,0.57,1.4,1.34,1.4C149.61,98.02,150.17,97.46,150.17,96.62z"/>
				<path class="st3" d="M153.54,98.2c-0.19,0.17-0.48,0.25-0.76,0.25c-0.68,0-1.05-0.38-1.05-1.04v-2.17h-0.64v-0.41h0.64v-0.78
					h0.48v0.78h1.09v0.41h-1.09v2.14c0,0.42,0.22,0.65,0.62,0.65c0.2,0,0.4-0.06,0.53-0.18L153.54,98.2z"/>
				<path class="st3" d="M157.12,96.19v2.22h-0.46v-0.56c-0.22,0.37-0.64,0.59-1.23,0.59c-0.81,0-1.31-0.42-1.31-1.04
					c0-0.55,0.35-1.02,1.38-1.02h1.14v-0.22c0-0.61-0.35-0.95-1.02-0.95c-0.46,0-0.9,0.16-1.19,0.42l-0.22-0.36
					c0.36-0.31,0.89-0.48,1.46-0.48C156.6,94.8,157.12,95.27,157.12,96.19z M156.64,97.34v-0.59h-1.12c-0.7,0-0.92,0.27-0.92,0.64
					c0,0.42,0.33,0.67,0.91,0.67C156.05,98.07,156.45,97.81,156.64,97.34z"/>
				<path class="st3" d="M158.44,93.36h0.48v5.06h-0.48V93.36z"/>
				<path class="st3" d="M161.74,96.03c0-1.39,1.06-2.43,2.51-2.43c1.43,0,2.5,1.03,2.5,2.43c0,1.4-1.07,2.43-2.5,2.43
					C162.8,98.46,161.74,97.42,161.74,96.03z M166.25,96.03c0-1.14-0.85-1.98-2-1.98c-1.15,0-2.01,0.84-2.01,1.98
					c0,1.14,0.86,1.98,2.01,1.98C165.39,98.01,166.25,97.17,166.25,96.03z"/>
				<path class="st3" d="M169.58,94.8v0.47c-0.04,0-0.08-0.01-0.12-0.01c-0.75,0-1.21,0.48-1.21,1.32v1.83h-0.48v-3.59h0.46v0.7
					C168.47,95.05,168.92,94.8,169.58,94.8z"/>
				<path class="st3" d="M173.7,93.36v5.06h-0.46v-0.71c-0.29,0.48-0.79,0.74-1.38,0.74c-1.02,0-1.79-0.74-1.79-1.83
					c0-1.08,0.76-1.82,1.79-1.82c0.57,0,1.06,0.25,1.36,0.71v-2.15H173.7z M173.22,96.62c0-0.84-0.57-1.4-1.33-1.4
					c-0.76,0-1.34,0.56-1.34,1.4c0,0.84,0.57,1.4,1.34,1.4C172.65,98.02,173.22,97.46,173.22,96.62z"/>
				<path class="st3" d="M178.17,96.77h-3c0.05,0.75,0.63,1.25,1.41,1.25c0.44,0,0.82-0.16,1.1-0.47l0.27,0.31
					c-0.32,0.38-0.82,0.59-1.38,0.59c-1.12,0-1.88-0.76-1.88-1.83c0-1.06,0.74-1.82,1.75-1.82c1.01,0,1.74,0.74,1.74,1.82
					C178.17,96.66,178.17,96.72,178.17,96.77z M175.17,96.41h2.54c-0.06-0.7-0.57-1.19-1.28-1.19
					C175.74,95.22,175.23,95.71,175.17,96.41z"/>
				<path class="st3" d="M180.97,94.8v0.47c-0.04,0-0.08-0.01-0.12-0.01c-0.75,0-1.21,0.48-1.21,1.32v1.83h-0.48v-3.59h0.46v0.7
					C179.85,95.05,180.31,94.8,180.97,94.8z"/>
			</g>
			<g>
				<path class="st3" d="M149.7,104.47v14.81h-3.43v-12.06h-2.96v-2.75H149.7z"/>
				<path class="st3" d="M163.35,116.49v2.79h-11.19v-2.22l5.71-5.4c1.31-1.25,1.54-2.01,1.54-2.73c0-1.16-0.8-1.84-2.37-1.84
					c-1.27,0-2.35,0.49-3.07,1.48l-2.5-1.61c1.14-1.67,3.22-2.75,5.88-2.75c3.3,0,5.5,1.69,5.5,4.38c0,1.44-0.4,2.75-2.48,4.68
					l-3.41,3.22H163.35z"/>
				<path class="st3" d="M164.72,111.88c0-4.89,2.71-7.66,6.35-7.66c3.66,0,6.35,2.77,6.35,7.66c0,4.89-2.69,7.66-6.35,7.66
					C167.43,119.54,164.72,116.77,164.72,111.88z M173.97,111.88c0-3.36-1.19-4.76-2.9-4.76c-1.69,0-2.88,1.4-2.88,4.76
					s1.18,4.76,2.88,4.76C172.78,116.64,173.97,115.24,173.97,111.88z"/>
			</g>
			<g>
				<g>
					<path class="st5" d="M262.7,118.79h-36.34c-1.75,0-3.17-1.42-3.17-3.17V94.56c0-1.75,1.42-3.17,3.17-3.17h36.34
						c1.75,0,3.17,1.42,3.17,3.17v21.06C265.87,117.37,264.45,118.79,262.7,118.79z"/>
				</g>
				<g>
					<rect x="228.03" y="96.43" class="st6" width="6.96" height="2.53"/>
				</g>
				<g>
					<g>
						<path class="st6" d="M236.43,104.15c0,0.14-2.21,0.26-4.93,0.26c-2.72,0-4.93-0.12-4.93-0.26c0-0.14,2.21-0.26,4.93-0.26
							C234.23,103.89,236.43,104.01,236.43,104.15z"/>
					</g>
				</g>
				<g>
					<g>
						<path class="st6" d="M243.18,104.15c0,0.14-1.1,0.26-2.46,0.26c-1.36,0-2.46-0.12-2.46-0.26c0-0.14,1.1-0.26,2.46-0.26
							C242.07,103.89,243.18,104.01,243.18,104.15z"/>
					</g>
				</g>
				<g>
					<g>
						<path class="st6" d="M261.5,104.15c0,0.14-1.65,0.26-3.68,0.26c-2.03,0-3.68-0.12-3.68-0.26c0-0.14,1.65-0.26,3.68-0.26
							C259.85,103.89,261.5,104.01,261.5,104.15z"/>
					</g>
				</g>
				<g>
					<g>
						<path class="st6" d="M252.4,104.15c0,0.14-1.59,0.26-3.55,0.26c-1.96,0-3.55-0.12-3.55-0.26c0-0.14,1.59-0.26,3.55-0.26
							C250.81,103.89,252.4,104.01,252.4,104.15z"/>
					</g>
				</g>
				<g>
					<g>
						<path class="st6" d="M234.04,110.29c0,0.14-1.63,0.26-3.64,0.26c-2.01,0-3.64-0.12-3.64-0.26c0-0.14,1.63-0.26,3.64-0.26
							C232.42,110.03,234.04,110.15,234.04,110.29z"/>
					</g>
				</g>
				<g>
					<g>
						<path class="st6" d="M240.22,112.9c0,0.14-3.01,0.26-6.73,0.26c-3.72,0-6.73-0.12-6.73-0.26c0-0.14,3.01-0.26,6.73-0.26
							C237.21,112.64,240.22,112.76,240.22,112.9z"/>
					</g>
				</g>
				<g>
					<g>
						<path class="st6" d="M261.5,112.9c0,0.14-1.27,0.26-2.84,0.26c-1.57,0-2.84-0.12-2.84-0.26c0-0.14,1.27-0.26,2.84-0.26
							C260.22,112.64,261.5,112.76,261.5,112.9z"/>
					</g>
				</g>
			</g>
		</g>
		<g>
			<g>
				<path class="st5" d="M296.77,96.39h-1.68v-0.44h3.86v0.44h-1.68v4.34h-0.5V96.39z"/>
				<path class="st5" d="M298.92,98.94c0-1.06,0.78-1.82,1.83-1.82c1.05,0,1.82,0.76,1.82,1.82c0,1.06-0.77,1.83-1.82,1.83
					C299.69,100.76,298.92,100,298.92,98.94z M302.07,98.94c0-0.84-0.57-1.4-1.33-1.4c-0.76,0-1.34,0.56-1.34,1.4
					c0,0.84,0.57,1.4,1.34,1.4C301.51,100.33,302.07,99.77,302.07,98.94z"/>
				<path class="st5" d="M305.44,100.51c-0.19,0.17-0.48,0.25-0.76,0.25c-0.68,0-1.05-0.38-1.05-1.04v-2.17h-0.64v-0.41h0.64v-0.78
					h0.48v0.78h1.09v0.41h-1.09v2.14c0,0.42,0.22,0.65,0.62,0.65c0.2,0,0.4-0.06,0.53-0.18L305.44,100.51z"/>
				<path class="st5" d="M309.03,98.51v2.22h-0.46v-0.56c-0.22,0.37-0.64,0.59-1.23,0.59c-0.81,0-1.31-0.42-1.31-1.04
					c0-0.55,0.35-1.02,1.38-1.02h1.14v-0.22c0-0.61-0.35-0.95-1.02-0.95c-0.46,0-0.9,0.16-1.19,0.42l-0.22-0.36
					c0.36-0.31,0.89-0.48,1.46-0.48C308.5,97.11,309.03,97.58,309.03,98.51z M308.54,99.65v-0.59h-1.13c-0.7,0-0.92,0.27-0.92,0.64
					c0,0.42,0.33,0.67,0.91,0.67C307.95,100.38,308.35,100.12,308.54,99.65z"/>
				<path class="st5" d="M310.34,95.67h0.48v5.06h-0.48V95.67z"/>
				<path class="st5" d="M317.32,100.73l-1.09-1.53c-0.12,0.01-0.25,0.02-0.38,0.02h-1.28v1.51h-0.5v-4.77h1.79
					c1.21,0,1.95,0.61,1.95,1.64c0,0.75-0.4,1.27-1.09,1.5l1.17,1.64H317.32z M317.29,97.59c0-0.76-0.5-1.2-1.46-1.2h-1.27v2.39
					h1.27C316.79,98.79,317.29,98.34,317.29,97.59z"/>
				<path class="st5" d="M322.01,99.09h-3c0.05,0.75,0.63,1.25,1.41,1.25c0.44,0,0.82-0.16,1.1-0.47l0.27,0.31
					c-0.32,0.38-0.82,0.59-1.38,0.59c-1.12,0-1.88-0.76-1.88-1.83c0-1.06,0.74-1.82,1.75-1.82c1.01,0,1.74,0.74,1.74,1.82
					C322.02,98.98,322.01,99.03,322.01,99.09z M319.01,98.72h2.54c-0.06-0.7-0.57-1.19-1.27-1.19
					C319.58,97.53,319.07,98.02,319.01,98.72z"/>
				<path class="st5" d="M325.95,97.14l-1.6,3.59h-0.5l-1.59-3.59h0.5l1.34,3.05l1.36-3.05H325.95z"/>
				<path class="st5" d="M329.65,99.09h-3c0.05,0.75,0.63,1.25,1.41,1.25c0.44,0,0.82-0.16,1.1-0.47l0.27,0.31
					c-0.32,0.38-0.82,0.59-1.38,0.59c-1.12,0-1.88-0.76-1.88-1.83c0-1.06,0.74-1.82,1.75-1.82c1.01,0,1.74,0.74,1.74,1.82
					C329.66,98.98,329.65,99.03,329.65,99.09z M326.65,98.72h2.54c-0.06-0.7-0.57-1.19-1.27-1.19
					C327.23,97.53,326.71,98.02,326.65,98.72z"/>
				<path class="st5" d="M333.95,98.65v2.08h-0.48V98.7c0-0.76-0.4-1.15-1.08-1.15c-0.77,0-1.25,0.48-1.25,1.3v1.88h-0.48v-3.59
					h0.46v0.66c0.26-0.44,0.74-0.69,1.36-0.69C333.35,97.11,333.95,97.62,333.95,98.65z"/>
				<path class="st5" d="M338.49,97.14v3.59h-0.46v-0.65c-0.25,0.44-0.72,0.69-1.29,0.69c-0.91,0-1.51-0.51-1.51-1.54v-2.08h0.48
					v2.03c0,0.76,0.4,1.15,1.08,1.15c0.75,0,1.22-0.48,1.22-1.3v-1.88H338.49z"/>
				<path class="st5" d="M342.97,99.09h-3c0.05,0.75,0.63,1.25,1.41,1.25c0.44,0,0.82-0.16,1.1-0.47l0.27,0.31
					c-0.32,0.38-0.82,0.59-1.38,0.59c-1.12,0-1.88-0.76-1.88-1.83c0-1.06,0.74-1.82,1.75-1.82c1.01,0,1.74,0.74,1.74,1.82
					C342.98,98.98,342.97,99.03,342.97,99.09z M339.97,98.72h2.54c-0.06-0.7-0.57-1.19-1.27-1.19
					C340.54,97.53,340.03,98.02,339.97,98.72z"/>
			</g>
			<g>
				<path class="st5" d="M300.72,119.41v1.68h-1.5v-1.64c-1.48-0.09-2.91-0.56-3.74-1.2l0.82-1.83c0.75,0.55,1.83,0.96,2.91,1.06
					v-2.51c-1.67-0.41-3.53-0.96-3.53-3.11c0-1.59,1.16-2.96,3.53-3.23v-1.67h1.5v1.64c1.13,0.09,2.22,0.39,3.05,0.92l-0.75,1.85
					c-0.77-0.43-1.54-0.69-2.3-0.78v2.55c1.67,0.39,3.5,0.94,3.5,3.06C304.22,117.77,303.08,119.12,300.72,119.41z M299.22,112.77
					v-2.13c-0.8,0.18-1.11,0.62-1.11,1.11C298.11,112.28,298.56,112.56,299.22,112.77z M301.8,116.39c0-0.52-0.44-0.81-1.08-1.03
					v2.07C301.47,117.26,301.8,116.87,301.8,116.39z"/>
				<path class="st5" d="M309.12,108.78v10.5h-2.43v-8.55h-2.1v-1.95H309.12z"/>
				<path class="st5" d="M318.88,115.98c0,1.86-1.37,3.48-4.37,3.48c-1.46,0-2.99-0.4-4.01-1.12l0.96-1.86
					c0.8,0.6,1.89,0.94,2.99,0.94c1.21,0,1.96-0.51,1.96-1.37c0-0.83-0.54-1.37-2.45-1.37h-2.69l0.54-5.91h6.41v1.95h-4.38l-0.17,2
					h0.86C317.65,112.73,318.88,114.12,318.88,115.98z"/>
				<path class="st5" d="M322.7,117.93c0,0.39-0.06,0.68-0.41,1.5l-0.86,2.16h-1.49l0.66-2.39c-0.5-0.2-0.81-0.66-0.81-1.28
					c0-0.87,0.63-1.44,1.46-1.44C322.1,116.49,322.7,117.08,322.7,117.93z"/>
				<path class="st5" d="M323.6,114.03c0-3.47,1.92-5.43,4.5-5.43c2.6,0,4.5,1.97,4.5,5.43c0,3.47-1.91,5.43-4.5,5.43
					C325.52,119.47,323.6,117.5,323.6,114.03z M330.16,114.03c0-2.39-0.84-3.38-2.06-3.38c-1.2,0-2.04,0.99-2.04,3.38
					c0,2.39,0.84,3.38,2.04,3.38C329.32,117.41,330.16,116.42,330.16,114.03z"/>
				<path class="st5" d="M333.78,114.03c0-3.47,1.92-5.43,4.5-5.43c2.6,0,4.5,1.97,4.5,5.43c0,3.47-1.91,5.43-4.5,5.43
					C335.71,119.47,333.78,117.5,333.78,114.03z M340.34,114.03c0-2.39-0.84-3.38-2.05-3.38c-1.2,0-2.04,0.99-2.04,3.38
					c0,2.39,0.84,3.38,2.04,3.38C339.5,117.41,340.34,116.42,340.34,114.03z"/>
				<path class="st5" d="M343.97,114.03c0-3.47,1.92-5.43,4.5-5.43c2.6,0,4.5,1.97,4.5,5.43c0,3.47-1.91,5.43-4.5,5.43
					C345.89,119.47,343.97,117.5,343.97,114.03z M350.52,114.03c0-2.39-0.84-3.38-2.06-3.38c-1.2,0-2.04,0.99-2.04,3.38
					c0,2.39,0.84,3.38,2.04,3.38C349.68,117.41,350.52,116.42,350.52,114.03z"/>
			</g>
		</g>
		<g>
			<g>
				<path class="st3" d="M418.97,267.06c0,0,0.18-0.02,0.53-0.04c0.35,0,0.87-0.08,1.56-0.2c1.33-0.3,3.4-1.01,5.28-2.98
					c0.93-0.98,1.77-2.28,2.29-3.86c0.24-0.8,0.43-1.65,0.46-2.57c0.05-0.91,0.01-1.87,0.02-2.86c-0.01-3.97-0.01-8.56-0.02-13.72
					c-0.01-10.32-0.03-22.95-0.04-37.62c-0.01-7.33-0.01-15.17-0.02-23.49c0-4.16-0.01-8.43-0.01-12.82c0-2.2,0-4.42,0-6.67
					c-0.01-1.12,0.03-2.27-0.05-3.38c-0.12-1.11-0.42-2.21-0.9-3.24c-0.94-2.06-2.65-3.79-4.74-4.79c-1.04-0.5-2.18-0.82-3.35-0.94
					c-1.16-0.09-2.38-0.03-3.58-0.05c-4.83,0-9.77,0.01-14.8,0.01c-10.07,0-20.56,0.01-31.41,0.02c-21.7,0.01-44.9,0.02-69.3,0.02
					c-48.81,0.01-102.47,0.01-158.79,0.02c-1.71,0.02-3.43,0.44-4.91,1.29c-1.48,0.85-2.76,2.06-3.63,3.54
					c-0.9,1.45-1.37,3.15-1.42,4.84c-0.03,1.73-0.01,3.48-0.01,5.22c0,6.96,0,13.86,0,20.72c0,13.72,0,27.23,0,40.52
					c0,6.64,0,13.22,0,19.74c0,3.26,0,6.5,0,9.73l0,2.42c0,0.81-0.01,1.6,0.12,2.37c0.23,1.54,0.8,3.05,1.72,4.31
					c0.91,1.26,2.09,2.33,3.47,3.05c1.37,0.72,2.91,1.12,4.45,1.15c3.16,0,6.3,0.01,9.42,0.01c6.25,0,12.43,0,18.53,0
					c48.81,0.02,92.77,0.04,129.69,0.06c36.91,0.04,66.78,0.06,87.43,0.08c10.32,0.02,18.33,0.04,23.77,0.05
					c2.71,0.01,4.78,0.02,6.18,0.03C418.26,267.04,418.97,267.06,418.97,267.06s-0.71,0.02-2.11,0.03c-1.4,0.01-3.47,0.01-6.18,0.03
					c-5.44,0.01-13.45,0.03-23.77,0.05c-20.65,0.02-50.52,0.05-87.43,0.08c-36.92,0.02-80.87,0.04-129.69,0.06
					c-6.1,0-12.28,0-18.53,0c-3.13,0-6.27-0.01-9.43-0.01c-1.62-0.04-3.23-0.45-4.67-1.21c-1.44-0.76-2.69-1.88-3.64-3.21
					c-0.97-1.32-1.57-2.9-1.81-4.53c-0.13-0.81-0.12-1.65-0.12-2.44l0-2.42c0-3.23,0-6.47,0-9.73c0-6.52,0-13.1,0-19.74
					c0-13.28,0-26.8,0-40.52c0-6.86,0-13.77,0-20.72c0.01-1.74-0.01-3.47,0.01-5.23c0.06-1.78,0.55-3.57,1.49-5.1
					c0.91-1.55,2.26-2.83,3.82-3.72c1.56-0.89,3.37-1.34,5.17-1.36c56.32,0.01,109.98,0.01,158.79,0.02
					c24.4,0.01,47.59,0.02,69.3,0.02c10.85,0.01,21.33,0.01,31.41,0.02c5.04,0,9.97,0.01,14.8,0.01c1.21,0.02,2.4-0.04,3.62,0.05
					c1.21,0.13,2.39,0.46,3.47,0.98c2.17,1.04,3.94,2.83,4.91,4.97c0.5,1.06,0.81,2.2,0.93,3.36c0.09,1.17,0.04,2.29,0.05,3.42
					c0,2.25,0,4.48,0,6.67c0,4.39-0.01,8.67-0.01,12.82c-0.01,8.31-0.01,16.15-0.02,23.49c-0.02,14.66-0.03,27.29-0.04,37.62
					c-0.01,5.16-0.02,9.75-0.02,13.72c-0.01,0.99,0.02,1.95-0.03,2.87c-0.03,0.92-0.24,1.79-0.48,2.6c-0.54,1.6-1.4,2.91-2.34,3.9
					c-1.92,1.98-4,2.68-5.34,2.96c-0.69,0.11-1.21,0.18-1.57,0.18C419.15,267.06,418.97,267.06,418.97,267.06z"/>
			</g>
		</g>
		<g>
			<g>
				<g>
					<rect x="222.76" y="221.97" class="st7" width="9.66" height="38.35"/>
				</g>
			</g>
			<g>
				<g>
					<rect x="237.23" y="233.57" class="st7" width="9.66" height="26.75"/>
				</g>
			</g>
			<g>
				<g>
					<rect x="208.88" y="233.57" class="st7" width="9.66" height="26.75"/>
				</g>
			</g>
			<g>
				<rect x="180.54" y="256.76" class="st7" width="9.66" height="3.56"/>
			</g>
			<g>
				<rect x="194.9" y="251.39" class="st7" width="9.66" height="8.93"/>
			</g>
			<g>
				<rect x="166.71" y="257.36" class="st7" width="9.66" height="2.97"/>
			</g>
			<g>
				<rect x="152.2" y="257.36" class="st7" width="9.66" height="2.97"/>
			</g>
			<g>
				<g>
					<rect x="252.46" y="238.96" class="st7" width="9.66" height="21.37"/>
				</g>
			</g>
			<g>
				<g>
					<rect x="267.7" y="244.83" class="st7" width="9.66" height="15.5"/>
				</g>
			</g>
			<g>
				<g>
					<rect x="282.94" y="233.57" class="st7" width="9.66" height="26.75"/>
				</g>
			</g>
			<g>
				<g>
					<rect x="298.18" y="216.87" class="st7" width="9.66" height="43.45"/>
				</g>
			</g>
			<g>
				<g>
					<rect x="313.42" y="204.01" class="st7" width="9.66" height="56.31"/>
				</g>
			</g>
			<g>
				<g>
					<rect x="328.66" y="221.97" class="st7" width="9.66" height="38.35"/>
				</g>
			</g>
			<g>
				<g>
					<rect x="343.9" y="187.54" class="st7" width="9.66" height="72.78"/>
				</g>
			</g>
			<g>
				<g>
					<rect x="359.14" y="221.97" class="st7" width="9.66" height="38.35"/>
				</g>
			</g>
			<g>
				<g>
					<rect x="374.38" y="233.57" class="st7" width="9.66" height="26.75"/>
				</g>
			</g>
			<g>
				<g>
					<rect x="389.62" y="238.6" class="st7" width="9.66" height="21.73"/>
				</g>
			</g>
			<g>
				<g>
					<rect x="404.86" y="244.83" class="st7" width="9.66" height="15.5"/>
				</g>
			</g>
			<g>
				<g>
					<path class="st4" d="M160.13,260.32c0,0,0.32-0.02,0.95-0.03c0.64-0.01,1.57-0.01,2.79-0.03c2.46-0.01,6.07-0.03,10.71-0.05
						c1.16,0,2.39-0.01,3.68-0.01c1.29,0.01,2.64-0.02,4.04-0.21c2.78-0.37,5.78-1.28,8.55-3.05c1.39-0.87,2.68-2,3.81-3.33
						c1.1-1.35,1.85-3.03,2.63-4.71c1.51-3.42,2.88-7.14,4.28-11.05c1.37-3.93,2.8-8.04,4.3-12.33c0.76-2.14,1.52-4.33,2.4-6.53
						c0.91-2.19,1.95-4.38,3.31-6.44c1.36-2.05,2.99-3.99,4.94-5.64c1.94-1.65,4.2-3,6.68-3.91c2.47-0.92,5.15-1.35,7.85-1.38
						c2.69-0.01,5.45,0.23,8.12,1c1.35,0.35,2.64,0.9,3.91,1.51c1.23,0.68,2.46,1.42,3.53,2.36c2.2,1.83,3.91,4.22,5.25,6.79
						c1.36,2.58,2.14,5.42,3.04,8.21c0.88,2.8,1.76,5.63,2.75,8.45c1.98,5.62,4.25,11.32,7.7,16.42c1.73,2.52,3.81,4.89,6.43,6.52
						c1.29,0.84,2.76,1.39,4.27,1.69c0.75,0.18,1.53,0.19,2.3,0.23c0.78-0.04,1.57-0.01,2.35-0.12c2.12-0.19,4.22-0.71,6.07-1.71
						c1.85-1,3.35-2.53,4.58-4.23c1.22-1.71,2.24-3.56,3.27-5.39c1.04-1.82,1.94-3.7,2.77-5.6c3.3-7.62,5.35-15.56,8.44-22.88
						c1.46-3.69,2.96-7.32,4.86-10.69c1.88-3.38,4.22-6.45,6.93-9.04c1.36-1.28,2.79-2.51,4.4-3.42c1.57-0.99,3.29-1.64,5-2.23
						c3.46-1.08,7.04-1.41,10.5-1.28c3.46,0.15,6.83,0.8,9.94,1.94c3.11,1.15,5.92,2.87,8.25,4.97c4.72,4.17,8.14,9.05,12.05,12.92
						c3.86,3.95,8.63,6.2,13.07,7.66c4.48,1.45,8.75,2.09,12.55,2.39l-0.01,0c7.7,0.03,13.64,0.05,17.68,0.06
						c2,0.01,3.52,0.03,4.56,0.03c1.03,0.01,1.55,0.03,1.55,0.03s-0.52,0.02-1.55,0.03c-1.04,0.01-2.56,0.02-4.56,0.03
						c-4.03,0.01-9.98,0.03-17.68,0.06l0,0l0,0c-3.83-0.28-8.12-0.91-12.63-2.35c-4.47-1.46-9.3-3.71-13.23-7.7
						c-3.95-3.89-7.39-8.76-12.06-12.87c-2.32-2.07-5.07-3.74-8.13-4.87c-3.07-1.11-6.39-1.75-9.81-1.89
						c-3.41-0.13-6.94,0.21-10.34,1.27c-3.4,1.07-6.58,2.94-9.21,5.56c-2.67,2.56-4.98,5.58-6.83,8.93
						c-1.88,3.34-3.37,6.95-4.82,10.64c-3.07,7.3-5.11,15.22-8.43,22.9c-0.84,1.91-1.75,3.81-2.79,5.65
						c-1.04,1.83-2.06,3.69-3.3,5.44c-1.25,1.74-2.81,3.34-4.75,4.38c-1.93,1.05-4.1,1.58-6.27,1.77c-0.8,0.11-1.6,0.08-2.4,0.12
						c-0.8-0.04-1.62-0.05-2.4-0.24c-1.57-0.31-3.11-0.89-4.44-1.76c-2.71-1.7-4.83-4.12-6.58-6.67c-3.49-5.17-5.76-10.9-7.75-16.54
						c-0.99-2.83-1.87-5.66-2.75-8.47c-0.9-2.79-1.68-5.6-3-8.13c-1.31-2.52-2.98-4.86-5.12-6.64c-1.04-0.93-2.23-1.64-3.43-2.31
						c-1.24-0.6-2.5-1.13-3.82-1.48c-2.62-0.75-5.33-0.99-7.99-0.99c-2.65,0.03-5.27,0.45-7.69,1.34
						c-4.88,1.76-8.76,5.31-11.41,9.35c-2.68,4.07-4.16,8.6-5.69,12.86c-1.51,4.28-2.95,8.39-4.33,12.32
						c-1.41,3.91-2.79,7.63-4.32,11.06c-0.8,1.69-1.55,3.38-2.7,4.78c-1.16,1.36-2.48,2.49-3.89,3.37
						c-2.82,1.78-5.86,2.69-8.67,3.05c-1.41,0.18-2.78,0.2-4.07,0.19c-1.29,0-2.52-0.01-3.68-0.01c-4.64-0.02-8.25-0.04-10.71-0.05
						c-1.22-0.01-2.15-0.02-2.79-0.03C160.45,260.34,160.13,260.32,160.13,260.32z"/>
				</g>
			</g>
		</g>
		<g>
			<g>
				<path class="st4" d="M253.74,171.26h-54.31c-0.85,0-1.54,0.69-1.54,1.54v18.69c0,0.85,0.69,1.54,1.54,1.54h27.49
					c0.44,0,0.85,0.18,1.14,0.51c0.86,0.95,2.01,2.19,2.86,3.1c0.62,0.66,1.66,0.65,2.27-0.02l2.8-3.08
					c0.29-0.32,0.71-0.51,1.14-0.51h16.61c0.85,0,1.54-0.69,1.54-1.54V172.8C255.28,171.95,254.59,171.26,253.74,171.26z"/>
			</g>
		</g>
		<g>
			<path class="st7" d="M194.18,224.47H148.9c-0.51,0-0.92,0.41-0.92,0.92v11.12c0,0.51,0.41,0.92,0.92,0.92h16.35
				c0.26,0,0.5,0.11,0.68,0.3c0.51,0.57,1.2,1.3,1.7,1.84c0.37,0.39,0.99,0.39,1.35-0.01l1.66-1.83c0.17-0.19,0.42-0.3,0.68-0.3
				h22.86c0.51,0,0.92-0.41,0.92-0.92v-11.12C195.1,224.88,194.69,224.47,194.18,224.47z"/>
		</g>
		<g>
			<path class="st4" d="M233.88,201.71c0,1.17-0.95,2.11-2.11,2.11c-1.17,0-2.12-0.95-2.12-2.11c0-1.17,0.95-2.11,2.12-2.11
				C232.94,199.59,233.88,200.54,233.88,201.71z"/>
			<path class="st3" d="M231.77,203.85c-1.18,0-2.14-0.96-2.14-2.14c0-1.18,0.96-2.14,2.14-2.14c1.18,0,2.14,0.96,2.14,2.14
				C233.91,202.88,232.95,203.85,231.77,203.85z M231.77,199.62c-1.15,0-2.09,0.94-2.09,2.09s0.94,2.09,2.09,2.09
				c1.15,0,2.09-0.94,2.09-2.09S232.92,199.62,231.77,199.62z"/>
		</g>
		<g>
			<g>
				<path class="st2" d="M212.04,185.64v1.03h-0.92v-1.01c-0.92-0.06-1.79-0.34-2.3-0.74l0.51-1.13c0.46,0.34,1.13,0.59,1.79,0.66
					v-1.54c-1.03-0.25-2.17-0.59-2.17-1.91c0-0.98,0.71-1.82,2.17-1.99v-1.03h0.92V179c0.69,0.06,1.37,0.24,1.88,0.56l-0.46,1.14
					c-0.47-0.27-0.95-0.43-1.41-0.48v1.57c1.03,0.24,2.15,0.58,2.15,1.89C214.19,184.64,213.49,185.47,212.04,185.64z
					 M211.11,181.56v-1.31c-0.49,0.11-0.68,0.38-0.68,0.68C210.43,181.25,210.71,181.43,211.11,181.56z M212.7,183.78
					c0-0.32-0.27-0.5-0.67-0.64v1.28C212.5,184.32,212.7,184.08,212.7,183.78z"/>
				<path class="st2" d="M217.21,179.1v6.47h-1.5v-5.27h-1.29v-1.2H217.21z"/>
				<path class="st2" d="M223.23,183.54c0,1.15-0.84,2.14-2.69,2.14c-0.9,0-1.84-0.25-2.47-0.69l0.59-1.15
					c0.49,0.37,1.16,0.58,1.84,0.58c0.75,0,1.21-0.31,1.21-0.84c0-0.51-0.33-0.84-1.51-0.84h-1.66l0.33-3.64h3.95v1.2h-2.7
					l-0.1,1.23h0.53C222.47,181.53,223.23,182.39,223.23,183.54z"/>
				<path class="st2" d="M225.59,184.74c0,0.24-0.04,0.42-0.25,0.92l-0.53,1.33h-0.92l0.41-1.47c-0.3-0.12-0.5-0.41-0.5-0.79
					c0-0.54,0.39-0.89,0.9-0.89C225.22,183.85,225.59,184.21,225.59,184.74z"/>
				<path class="st2" d="M226.14,182.33c0-2.14,1.18-3.35,2.77-3.35c1.6,0,2.77,1.21,2.77,3.35c0,2.14-1.17,3.35-2.77,3.35
					C227.33,185.68,226.14,184.47,226.14,182.33z M230.18,182.33c0-1.47-0.52-2.08-1.27-2.08c-0.74,0-1.26,0.61-1.26,2.08
					c0,1.47,0.52,2.08,1.26,2.08C229.66,184.41,230.18,183.8,230.18,182.33z"/>
				<path class="st2" d="M232.42,182.33c0-2.14,1.18-3.35,2.77-3.35c1.6,0,2.77,1.21,2.77,3.35c0,2.14-1.17,3.35-2.77,3.35
					C233.6,185.68,232.42,184.47,232.42,182.33z M236.46,182.33c0-1.47-0.52-2.08-1.27-2.08c-0.74,0-1.26,0.61-1.26,2.08
					c0,1.47,0.52,2.08,1.26,2.08C235.94,184.41,236.46,183.8,236.46,182.33z"/>
				<path class="st2" d="M238.69,182.33c0-2.14,1.18-3.35,2.77-3.35c1.6,0,2.77,1.21,2.77,3.35c0,2.14-1.17,3.35-2.77,3.35
					C239.88,185.68,238.69,184.47,238.69,182.33z M242.73,182.33c0-1.47-0.52-2.08-1.27-2.08c-0.74,0-1.26,0.61-1.26,2.08
					c0,1.47,0.52,2.08,1.26,2.08C242.21,184.41,242.73,183.8,242.73,182.33z"/>
			</g>
		</g>
		<g>
			<path class="st8" d="M445.28,51.08H112.6V38.3c0-3.3,2.67-5.97,5.97-5.97h320.74c3.3,0,5.97,2.67,5.97,5.97V51.08z"/>
		</g>
		<g>
			<circle class="st5" cx="124.65" cy="41.96" r="2.68"/>
		</g>
		<g>
			<circle class="st5" cx="132.99" cy="41.96" r="2.68"/>
		</g>
		<g>
			<circle class="st5" cx="141.33" cy="41.96" r="2.68"/>
		</g>
	</g>
	<g class="st1">
		<g>
			<g>
				<g>
					<path class="st8" d="M580.72,321.18c8.72,0.07,16.26-6.06,17.94-14.61c2.98-15.12,6.81-36.27,6.93-60.02
						c0.07-14.56-3.18-33.01-7.69-46.86c-6.58-20.23-20.67-38.05-41.13-43.89c-26.57-7.58-36.19-4.67-55.03,5.21
						c-20.5,10.75-26.04,30.91-47.38,39.88c-20.71,8.71-45.69,5.74-64.58,17.91c-16.61,10.71-24.71,31.29-25.37,51.05
						c-0.42,12.53,0.72,21.5,3.03,31.22c2.57,10.78,12.3,20.02,23.39,20.12L580.72,321.18z"/>
				</g>
			</g>
			<g class="st9">
				<g>
					<path class="st8" d="M580.72,321.18c8.72,0.07,16.26-6.06,17.94-14.61c2.98-15.12,6.81-36.27,6.93-60.02
						c0.07-14.56-3.18-33.01-7.69-46.86c-6.58-20.23-20.67-38.05-41.13-43.89c-26.57-7.58-36.19-4.67-55.03,5.21
						c-20.5,10.75-26.04,30.91-47.38,39.88c-20.71,8.71-45.69,5.74-64.58,17.91c-16.61,10.71-24.71,31.29-25.37,51.05
						c-0.42,12.53,0.72,21.5,3.03,31.22c2.57,10.78,12.3,20.02,23.39,20.12L580.72,321.18z"/>
				</g>
			</g>
		</g>
		<g>
			<g>
				<g>
					<path class="st3" d="M567.06,159.4c0.01,0,0.08,0.12,0.2,0.38c0.13,0.28,0.31,0.65,0.54,1.13c0.48,1.03,1.16,2.5,2.03,4.37
						c0.44,0.95,0.92,2.01,1.45,3.17c0.52,1.16,0.98,2.47,1.52,3.85c0.54,1.39,1.11,2.87,1.71,4.45c0.64,1.56,1.18,3.26,1.74,5.05
						c0.57,1.78,1.16,3.65,1.79,5.6c0.33,0.97,0.58,1.98,0.85,3.01c0.27,1.03,0.53,2.08,0.81,3.14c0.27,1.07,0.55,2.15,0.84,3.25
						c0.14,0.55,0.28,1.11,0.43,1.67c0.12,0.57,0.23,1.14,0.35,1.71c0.46,2.3,0.94,4.67,1.42,7.1c1.7,9.75,2.94,20.6,3.28,32.02
						c0.27,11.43-0.31,22.32-1.27,32.18c-0.59,4.92-1.07,9.6-1.82,13.94c-0.35,2.17-0.65,4.28-1.01,6.29
						c-0.39,2.01-0.76,3.93-1.11,5.77c-0.66,3.69-1.48,6.97-2.13,9.87c-0.34,1.45-0.65,2.79-0.94,4.04
						c-0.33,1.23-0.63,2.35-0.9,3.37c-0.54,2-0.96,3.56-1.26,4.65c-0.14,0.51-0.26,0.91-0.34,1.21c-0.08,0.27-0.12,0.41-0.13,0.41
						s0.02-0.14,0.08-0.42c0.07-0.3,0.17-0.7,0.29-1.22c0.27-1.1,0.66-2.67,1.16-4.68c0.26-1.02,0.54-2.14,0.85-3.38
						c0.28-1.24,0.57-2.59,0.89-4.04c0.63-2.9,1.42-6.19,2.05-9.88c0.34-1.84,0.7-3.76,1.08-5.77c0.35-2.01,0.64-4.11,0.98-6.29
						c0.73-4.34,1.19-9.01,1.77-13.92c0.92-9.84,1.49-20.71,1.22-32.11c-0.34-11.4-1.57-22.21-3.23-31.95
						c-0.48-2.42-0.94-4.79-1.4-7.08c-0.12-0.57-0.23-1.14-0.34-1.71c-0.14-0.56-0.28-1.11-0.42-1.66c-0.28-1.1-0.55-2.18-0.82-3.25
						c-0.27-1.06-0.53-2.11-0.79-3.14c-0.26-1.03-0.5-2.04-0.83-3.01c-0.61-1.95-1.19-3.81-1.75-5.6c-0.55-1.79-1.07-3.49-1.7-5.05
						c-0.59-1.58-1.15-3.06-1.67-4.45c-0.53-1.38-0.98-2.7-1.48-3.86c-0.51-1.16-0.98-2.22-1.41-3.18c-0.83-1.9-1.48-3.38-1.93-4.41
						c-0.21-0.49-0.37-0.87-0.49-1.15C567.1,159.54,567.05,159.4,567.06,159.4z"/>
				</g>
			</g>
		</g>
		<g>
			<g>
				<g>
					<g>
						<g>
							<path class="st10" d="M392.45,321.03l-17.73,27.75l-34.64-21.88c2.29-3.18,24.41,1.49,24.41,1.49l10.63-18.24L392.45,321.03z
								"/>
						</g>
					</g>
					<g>
						<g>
							<g>
								<path class="st3" d="M370.35,320.39c-0.05,0.07,0.56,0.6,1.74,1.09c0.59,0.24,1.33,0.47,2.17,0.59
									c0.42,0.06,0.87,0.1,1.33,0.1c0.22,0,0.48,0.01,0.78-0.08c0.3-0.06,0.69-0.44,0.65-0.85c-0.01-0.38-0.25-0.69-0.5-0.85
									c-0.25-0.17-0.49-0.25-0.71-0.32c-0.44-0.15-0.89-0.25-1.31-0.31c-0.85-0.12-1.63-0.08-2.26,0.04
									c-1.27,0.24-1.95,0.7-1.91,0.76c0.04,0.1,0.77-0.18,1.97-0.28c0.6-0.05,1.32-0.03,2.1,0.11c0.39,0.07,0.79,0.18,1.19,0.32
									c0.43,0.14,0.74,0.33,0.73,0.55c-0.01,0.08-0.02,0.11-0.16,0.17c-0.14,0.05-0.35,0.05-0.57,0.05
									c-0.43,0.01-0.85-0.01-1.25-0.06c-0.79-0.08-1.5-0.24-2.08-0.42C371.09,320.66,370.41,320.29,370.35,320.39z"/>
							</g>
						</g>
					</g>
					<g>
						<g>
							<g>
								<path class="st3" d="M370.42,320.77c0.04,0.06,0.76-0.33,1.52-1.39c0.37-0.52,0.73-1.22,0.96-2.05
									c0.11-0.41,0.19-0.86,0.22-1.33c0.01-0.47,0.06-1.09-0.55-1.57c-0.33-0.23-0.79-0.14-1.03,0.03
									c-0.26,0.16-0.41,0.35-0.58,0.52c-0.32,0.36-0.56,0.77-0.74,1.17c-0.36,0.81-0.44,1.61-0.39,2.26
									c0.11,1.33,0.69,1.97,0.74,1.92c0.11-0.05-0.27-0.75-0.25-1.94c0.01-0.59,0.14-1.29,0.48-1.98
									c0.17-0.34,0.39-0.68,0.66-0.98c0.29-0.33,0.61-0.54,0.73-0.42c0.17,0.11,0.29,0.57,0.25,0.95
									c-0.02,0.42-0.08,0.83-0.16,1.21c-0.18,0.76-0.46,1.42-0.76,1.94C370.92,320.17,370.34,320.69,370.42,320.77z"/>
							</g>
						</g>
					</g>
				</g>
			</g>
			<g>
				<g>
					<g>
						<g>
							<path class="st10" d="M417.25,234.64l-10.62,31.17l-38.84-13.01c1.47-3.63,24.06-4.35,24.06-4.35l5.98-20.25L417.25,234.64z"
								/>
						</g>
					</g>
					<g class="st11">
						<g>
							<g>
								<path class="st2" d="M404.42,250.78c0.68,0.46,0.92,1.48,0.49,2.18c-0.43,0.7-1.46,0.95-2.15,0.51
									c-0.69-0.45-1.01-1.66-0.51-2.31c0.5-0.65,1.74-0.87,2.3-0.28"/>
							</g>
						</g>
					</g>
					<g class="st11">
						<g>
							<path class="st2" d="M406.63,265.81l0.95-3.18l-37.6-11.29c0,0-1.98,0.17-2.19,1.46L406.63,265.81z"/>
						</g>
					</g>
					<g>
						<g>
							<g>
								<path class="st3" d="M391.28,248.03c-0.06,0.19,0.86,0.6,1.59,1.52c0.75,0.9,0.96,1.89,1.16,1.87
									c0.19,0.02,0.28-1.21-0.62-2.31C392.52,248,391.3,247.85,391.28,248.03z"/>
							</g>
						</g>
					</g>
					<g>
						<g>
							<g>
								<path class="st3" d="M386.64,248.35c-0.1,0.17,0.61,0.77,0.98,1.79c0.41,1.01,0.28,1.93,0.47,1.98
									c0.17,0.09,0.67-0.98,0.18-2.23C387.8,248.63,386.71,248.18,386.64,248.35z"/>
							</g>
						</g>
					</g>
					<g>
						<g>
							<g>
								<path class="st3" d="M382.69,252.46c0.16,0.1,0.74-0.76,0.6-1.96c-0.13-1.2-0.89-1.91-1.02-1.78
									c-0.16,0.12,0.23,0.87,0.33,1.86C382.73,251.56,382.51,252.37,382.69,252.46z"/>
							</g>
						</g>
					</g>
					<g>
						<g>
							<g>
								<path class="st3" d="M393.16,243.57c0.02,0.2,0.98,0.23,2.03,0.66c1.06,0.41,1.77,1.05,1.92,0.92
									c0.16-0.1-0.42-1.08-1.66-1.57C394.21,243.09,393.11,243.39,393.16,243.57z"/>
							</g>
						</g>
					</g>
					<g>
						<g>
							<g>
								<path class="st3" d="M395.63,239.27c-0.03,0.08,0.68,0.45,1.95,0.64c0.63,0.1,1.4,0.14,2.24,0.06
									c0.42-0.04,0.86-0.11,1.32-0.22c0.22-0.06,0.47-0.1,0.74-0.26c0.28-0.13,0.56-0.59,0.42-0.98c-0.1-0.37-0.41-0.61-0.69-0.71
									c-0.28-0.11-0.53-0.13-0.76-0.14c-0.47-0.04-0.92-0.03-1.35,0.01c-0.86,0.09-1.6,0.31-2.19,0.58
									c-1.18,0.53-1.73,1.14-1.67,1.2c0.07,0.09,0.7-0.36,1.85-0.74c0.57-0.19,1.28-0.35,2.06-0.4c0.39-0.02,0.81-0.02,1.23,0.03
									c0.45,0.03,0.8,0.14,0.84,0.36c0.01,0.08,0.01,0.11-0.12,0.2c-0.13,0.08-0.33,0.13-0.54,0.19
									c-0.42,0.11-0.83,0.19-1.22,0.24c-0.79,0.11-1.51,0.12-2.12,0.09C396.41,239.36,395.66,239.17,395.63,239.27z"/>
							</g>
						</g>
					</g>
					<g>
						<g>
							<g>
								<path class="st3" d="M395.78,239.63c0.06,0.05,0.66-0.5,1.14-1.71c0.24-0.6,0.42-1.36,0.45-2.22
									c0.01-0.43-0.02-0.88-0.1-1.35c-0.1-0.46-0.2-1.07-0.91-1.4c-0.38-0.14-0.8,0.05-0.99,0.27c-0.22,0.22-0.32,0.44-0.44,0.65
									c-0.22,0.43-0.36,0.88-0.44,1.31c-0.15,0.87-0.05,1.67,0.16,2.29c0.42,1.26,1.14,1.75,1.17,1.69
									c0.1-0.07-0.44-0.66-0.7-1.82c-0.13-0.57-0.17-1.29,0-2.03c0.08-0.37,0.22-0.75,0.41-1.11c0.2-0.39,0.47-0.67,0.61-0.58
									c0.19,0.06,0.42,0.48,0.47,0.87c0.08,0.42,0.12,0.82,0.13,1.22c0.01,0.78-0.11,1.49-0.27,2.07
									C396.13,238.92,395.69,239.56,395.78,239.63z"/>
							</g>
						</g>
					</g>
				</g>
			</g>
			<g>
				<g>
					<path class="st3" d="M481.6,225.75c0,0-29.23-46.92-37.25-59.92c-9.29-15.06-28.34-13.14-32.91,0.45
						c1.03-3.05-3.55,10.39-18.98,60.63l25.98,7.44l12.64-25.88l10.71,30.65L481.6,225.75z"/>
				</g>
				<g>
					<g>
						<g>
							<path class="st3" d="M487.1,223.29h-53.73c-8.54,0-16.58,3.68-22.14,9.95c-1.88,2.12-3.21,4.67-4.05,7.38l-39.32,73.4
								l25.14,13.88l46.96-67.04l26.25,0.31l58.4-36.46L487.1,223.29z"/>
						</g>
					</g>
					<g>
						<g>
							<path class="st10" d="M433.74,246.54c0.05-0.03,0.61,0.64,1.38,1.83c0.77,1.19,1.71,2.92,2.52,4.93
								c0.8,2.01,1.31,3.92,1.57,5.31c0.27,1.39,0.32,2.27,0.26,2.28c-0.15,0.03-0.68-3.43-2.29-7.4
								C435.61,249.5,433.61,246.63,433.74,246.54z"/>
						</g>
					</g>
				</g>
			</g>
			<g>
				<g>
					<g>
						<path class="st12" d="M378.22,180.28l21.88,43.01h69l-2.79-5.62l-19.99-0.59l-16.28-36.26c-1.02-2.27-3.27-3.73-5.76-3.73
							h-44.1C378.54,177.1,377.48,178.83,378.22,180.28z"/>
					</g>
				</g>
				<g>
					<g>
						<path class="st3" d="M413.52,199.31c0,1.56-1.26,2.82-2.82,2.82c-1.56,0-2.82-1.26-2.82-2.82c0-1.56,1.26-2.82,2.82-2.82
							C412.26,196.49,413.52,197.75,413.52,199.31z"/>
					</g>
				</g>
			</g>
			<g>
				<g>
					<g>
						<g>
							<polygon class="st13" points="477.72,173.47 467.08,209.87 427.71,214.1 427.71,221.09 485.56,221.88 493.44,174.49 							
								"/>
						</g>
					</g>
					<g>
						<g>
							<path class="st14" d="M553.38,149.6c-2.3-10.38-17.8-14.33-24.79-14.35c-9.75-0.02-8.87-0.62-18.45,1.11l-1.26-0.04
								c-29.13-1.18-32.48,38.83-32.48,38.83l13.28,1.08v0l-3.51,27.57L476,223.32l55.95-0.09l3.13-45.55l23.43-0.61
								C558.5,177.06,555.7,160.11,553.38,149.6z"/>
						</g>
					</g>
					<g>
						<g>
							<g>
								<path class="st3" d="M491.28,158.26c0.15,0.02-0.83,9.73-2.2,21.7c-1.36,11.97-2.59,21.65-2.74,21.64
									c-0.15-0.02,0.83-9.73,2.2-21.7C489.91,167.93,491.13,158.24,491.28,158.26z"/>
							</g>
						</g>
					</g>
					<g>
						<g>
							<g>
								<path class="st15" d="M534.04,158.26c-2.39,11.4-5.5,23.13-7.88,34.53c-0.51,2.42-1.05,4.93-2.53,6.92
									c-0.92,1.24-2.17,2.2-3.4,3.13c-4.7,3.53-9.66,6.83-15.18,8.85c7.98-0.67,15.9-2.05,23.64-4.11
									c1.31-0.35,2.7-0.77,3.55-1.84c0.75-0.94,0.92-2.2,1.06-3.39C535.01,187.72,534.51,172.97,534.04,158.26"/>
							</g>
						</g>
					</g>
					<g>
						<g>
							<g>
								<path class="st13" d="M456.74,209l17.35-2.09l12.22,8.01l46.74-11.2l1.37-26.08l20.98-0.52l-0.49,30.61
									c-0.21,9.85-8.4,17.66-18.25,17.38l-68.45-1.9l-2.91-5.83l-14.69-0.44L456.74,209z"/>
							</g>
						</g>
						<g>
							<g>
								<g>
									<path class="st16" d="M533.05,203.73c0,0.02-0.3,0.11-0.88,0.27c-0.63,0.16-1.48,0.38-2.54,0.66
										c-2.26,0.56-5.46,1.36-9.38,2.34c-7.98,1.93-18.91,4.58-30.99,7.51c-0.97,0.23-1.93,0.46-2.88,0.69l-0.11,0.03l-0.1-0.06
										c-4.32-2.84-8.44-5.55-12.21-8.03l0.17,0.04c-6.86,0.79-12.81,1.48-17.36,2.01l0.11-0.07c-1.94,2.46-3.49,4.43-4.58,5.82
										c-0.52,0.64-0.93,1.15-1.24,1.53c-0.28,0.34-0.44,0.52-0.45,0.51c-0.01-0.01,0.12-0.2,0.38-0.57
										c0.29-0.4,0.68-0.92,1.17-1.59c1.07-1.41,2.57-3.41,4.46-5.91l0.04-0.06l0.07-0.01c4.55-0.57,10.48-1.31,17.34-2.16
										l0.09-0.01l0.08,0.05c3.78,2.47,7.9,5.17,12.23,8l-0.21-0.04c0.95-0.23,1.91-0.46,2.88-0.69
										c12.09-2.87,23.04-5.46,31.03-7.35c3.94-0.91,7.14-1.64,9.42-2.17c1.08-0.24,1.93-0.42,2.57-0.56
										C532.73,203.77,533.05,203.71,533.05,203.73z"/>
								</g>
							</g>
						</g>
						<g>
							<g>
								<g>
									<path class="st16" d="M466.81,213.97c0,0.15-3.02,0.27-6.74,0.27c-0.42,0-0.83,0-1.23,0l0.17-0.06
										c-2.4,2.01-4.28,3.46-4.37,3.36c-0.09-0.1,1.65-1.72,4.02-3.77l0.07-0.06l0.1,0c0.4,0,0.81,0,1.23,0
										C463.8,213.7,466.81,213.82,466.81,213.97z"/>
								</g>
							</g>
						</g>
						<g>
							<g>
								<g>
									<path class="st16" d="M541.22,208.09c-0.14,0.09-1.04-2.1-3.41-3.55c-2.33-1.5-4.7-1.36-4.68-1.53
										c-0.01-0.06,0.57-0.2,1.51-0.12c0.94,0.07,2.23,0.42,3.46,1.19c1.23,0.77,2.1,1.79,2.57,2.6
										C541.15,207.49,541.28,208.07,541.22,208.09z"/>
								</g>
							</g>
						</g>
					</g>
					<g>
						<g>
							<g>
								<path class="st3" d="M558.5,177.27C558.5,177.31,558.5,177.27,558.5,177.27c-1.29,0.05-3.02,0.11-5.11,0.19
									c-4.31,0.14-10.27,0.28-16.86,0.42c-0.72,0.01-1.44,0.03-2.12,0.04l-0.27,0.01l-0.01-0.26c-0.24-6.11-0.13-11.55-0.01-15.46
									c0.06-1.95,0.13-3.53,0.2-4.61c0.07-1.08,0.12-1.68,0.16-1.68c0.04,0,0.05,0.6,0.05,1.68c-0.01,1.17-0.02,2.72-0.03,4.61
									c-0.02,3.9-0.06,9.34,0.19,15.42l-0.28-0.26c0.67-0.01,1.39-0.03,2.12-0.04c6.58-0.13,12.54-0.22,16.86-0.26
									c2.09-0.01,3.82-0.01,5.11-0.02C559.71,177.07,556.63,177.21,558.5,177.27z"/>
							</g>
						</g>
					</g>
				</g>
				<g>
					<g>
						<path class="st3" d="M522.46,177.44c0.03,0.02-0.21,0.49-0.67,1.35c-0.22,0.43-0.51,0.95-0.88,1.53
							c-0.37,0.58-0.76,1.26-1.27,1.96c-0.97,1.44-2.23,3.07-3.74,4.8c-1.53,1.7-3.32,3.49-5.35,5.2c-2.04,1.69-4.11,3.14-6.06,4.34
							c-1.97,1.18-3.8,2.14-5.39,2.83c-0.78,0.38-1.52,0.64-2.16,0.9c-0.64,0.26-1.2,0.45-1.66,0.6c-0.92,0.3-1.43,0.45-1.44,0.42
							c-0.01-0.03,0.48-0.24,1.38-0.6c0.45-0.17,1-0.39,1.62-0.67c0.62-0.28,1.35-0.57,2.12-0.96c1.56-0.73,3.36-1.71,5.3-2.9
							c1.92-1.22,3.97-2.66,5.99-4.34c2.01-1.69,3.79-3.45,5.33-5.12c1.52-1.69,2.8-3.29,3.8-4.7c0.52-0.68,0.93-1.35,1.32-1.91
							c0.39-0.56,0.7-1.06,0.95-1.48C522.13,177.87,522.43,177.42,522.46,177.44z"/>
					</g>
				</g>
				<g>
					<g>
						<path class="st17" d="M552.35,147.67c0,0.02-0.24,0.02-0.68,0.01c-0.49-0.02-1.14-0.04-1.95-0.07
							c-1.75-0.07-4.19-0.16-7.18-0.27c-6.07-0.21-14.45-0.37-23.71-0.25c-9.26,0.13-17.64,0.53-23.7,0.9
							c-2.99,0.2-5.42,0.36-7.17,0.47c-0.81,0.05-1.46,0.09-1.95,0.12c-0.45,0.02-0.68,0.03-0.68,0.01c0-0.02,0.23-0.05,0.67-0.11
							c0.49-0.05,1.14-0.12,1.94-0.21c1.69-0.18,4.14-0.4,7.17-0.63c6.06-0.46,14.44-0.92,23.71-1.05
							c9.27-0.13,17.66,0.09,23.73,0.39c3.03,0.15,5.49,0.29,7.18,0.43c0.81,0.07,1.46,0.12,1.95,0.16
							C552.12,147.63,552.35,147.66,552.35,147.67z"/>
					</g>
				</g>
				<g>
					<g>
						<path class="st17" d="M490.1,166.73c0,0.13-2.75,0.24-6.14,0.24c-3.39,0-6.14-0.11-6.14-0.24s2.75-0.24,6.14-0.24
							C487.35,166.48,490.1,166.59,490.1,166.73z"/>
					</g>
				</g>
				<g>
					<g>
						<path class="st17" d="M533.92,168.85c0,0.02-0.15,0.05-0.44,0.1c-0.34,0.05-0.76,0.11-1.26,0.18
							c-1.1,0.15-2.68,0.34-4.65,0.54c-3.93,0.41-9.38,0.84-15.41,1.08c-6.03,0.23-11.5,0.22-15.45,0.12
							c-1.98-0.05-3.57-0.11-4.68-0.18c-0.5-0.03-0.92-0.06-1.27-0.08c-0.29-0.02-0.44-0.05-0.44-0.06c0-0.02,0.15-0.03,0.45-0.04
							c0.35,0,0.77,0,1.27-0.01c1.18,0.01,2.76,0.01,4.68,0.02c3.95,0.01,9.41-0.03,15.43-0.26c6.02-0.24,11.46-0.62,15.4-0.94
							c1.91-0.16,3.48-0.29,4.66-0.39c0.5-0.04,0.92-0.07,1.27-0.09C533.77,168.83,533.92,168.83,533.92,168.85z"/>
					</g>
				</g>
				<g>
					<g>
						<path class="st17" d="M556.45,165.02c0.01,0.13-4.98,0.69-11.15,1.24c-6.17,0.55-11.19,0.89-11.2,0.75
							c-0.01-0.13,4.98-0.69,11.15-1.24C551.43,165.22,556.44,164.88,556.45,165.02z"/>
					</g>
				</g>
				<g>
					<g>
						<path class="st17" d="M507.88,193.53c0,0.07-1.12,0.17-2.95,0.24c-1.82,0.07-4.35,0.1-7.13,0.04
							c-2.79-0.07-5.3-0.22-7.12-0.38c-1.82-0.16-2.94-0.31-2.93-0.38c0.01-0.07,1.13-0.04,2.95,0.03c1.82,0.07,4.33,0.17,7.11,0.24
							c2.78,0.07,5.29,0.09,7.11,0.1C506.75,193.44,507.87,193.46,507.88,193.53z"/>
					</g>
				</g>
				<g>
					<g>
						<path class="st17" d="M533.61,194.33c0,0.03-0.37,0.11-1.06,0.23c-0.69,0.12-1.68,0.26-2.92,0.41
							c-2.47,0.31-5.89,0.62-9.68,0.77c-3.79,0.15-7.23,0.1-9.72-0.02c-1.24-0.06-2.25-0.12-2.94-0.19
							c-0.69-0.06-1.07-0.11-1.07-0.15c0-0.03,0.39-0.05,1.08-0.04c0.8,0.01,1.78,0.02,2.94,0.03c2.48,0.03,5.91,0.02,9.69-0.13
							c3.78-0.15,7.2-0.41,9.67-0.63c1.15-0.1,2.13-0.19,2.93-0.26C533.22,194.32,533.6,194.3,533.61,194.33z"/>
					</g>
				</g>
				<g>
					<g>
						<path class="st17" d="M493.01,212.26c-0.02,0.12-2.24-0.16-4.79-1.2c-2.55-1.02-4.35-2.37-4.28-2.47
							c0.08-0.12,1.96,1.01,4.46,2.02C490.9,211.62,493.04,212.12,493.01,212.26z"/>
					</g>
				</g>
			</g>
			<g>
				<g>
					<g>
						<g>
							<g>
								<g>
									<g>
										<g>
											<g>
												<g>
													<path class="st13" d="M516.37,84.59l-0.89,0c-8.95,0.02-16.39,6.73-17.09,15.42c-0.65,8.08-1.27,17.02-1.2,21.36
														c0.13,8.98,9.36,10.36,9.36,10.36l-0.34,7.98c-0.2,5.96,4.38,10.99,10.33,11.33l0,0c6.1,0.36,11.32-4.33,11.61-10.44
														l1.91-37.93C530.86,93.34,525.96,85.12,516.37,84.59z"/>
												</g>
												<g>
													<g>
														<g>
															<g>
																<g>
																	<g>
																		<g>
																			<g>
																				<g>
																					<g>
																						<g>
																							<path class="st16" d="M506.46,131.71c0,0,5.89,0.33,12.07-3.47c0,0-2.83,6.47-12.03,5.68L506.46,131.71z"/>
																						</g>
																					</g>
																				</g>
																			</g>
																		</g>
																	</g>
																</g>
															</g>
														</g>
													</g>
												</g>
											</g>
										</g>
									</g>
									<g>
										<g>
											<g>
												<g>
													<g>
														<g>
															<g>
																<g>
																	<g>
																		<g>
																			<g>
																				<g>
																					<g>
																						<g>
																							<g>
																								<g>
																									<g>
																										<path class="st3" d="M501.65,105.58c-0.02,0.68,0.55,1.25,1.27,1.29c0.72,0.04,1.33-0.48,1.35-1.16
																											c0.02-0.68-0.55-1.26-1.27-1.29C502.29,104.39,501.68,104.91,501.65,105.58z"/>
																									</g>
																								</g>
																							</g>
																						</g>
																					</g>
																				</g>
																			</g>
																		</g>
																	</g>
																</g>
															</g>
															<g>
																<g>
																	<g>
																		<g>
																			<g>
																				<g>
																					<g>
																						<g>
																							<g>
																								<g>
																									<g>
																										<g>
																											<path class="st3" d="M500.38,104.4c0.16,0.17,1.16-0.55,2.58-0.55c1.42-0.02,2.46,0.69,2.61,0.52
																												c0.08-0.07-0.09-0.38-0.54-0.7c-0.45-0.32-1.21-0.63-2.09-0.62c-0.88,0.01-1.62,0.32-2.05,0.65
																												C500.44,104.02,500.3,104.32,500.38,104.4z"/>
																										</g>
																									</g>
																								</g>
																							</g>
																						</g>
																					</g>
																				</g>
																			</g>
																		</g>
																	</g>
																</g>
															</g>
														</g>
														<g>
															<g>
																<g>
																	<g>
																		<g>
																			<g>
																				<g>
																					<g>
																						<g>
																							<g>
																								<g>
																									<g>
																										<path class="st3" d="M514.88,106c-0.02,0.68,0.55,1.25,1.27,1.29c0.72,0.04,1.33-0.48,1.35-1.16
																											c0.02-0.68-0.55-1.26-1.27-1.29C515.51,104.81,514.91,105.33,514.88,106z"/>
																									</g>
																								</g>
																							</g>
																						</g>
																					</g>
																				</g>
																			</g>
																		</g>
																	</g>
																</g>
															</g>
															<g>
																<g>
																	<g>
																		<g>
																			<g>
																				<g>
																					<g>
																						<g>
																							<g>
																								<g>
																									<g>
																										<g>
																											<path class="st3" d="M513.6,104.63c0.16,0.17,1.16-0.55,2.58-0.55c1.41-0.02,2.46,0.69,2.61,0.52
																												c0.08-0.07-0.09-0.38-0.55-0.7c-0.45-0.32-1.21-0.63-2.09-0.62c-0.88,0.01-1.62,0.32-2.05,0.65
																												C513.67,104.25,513.52,104.55,513.6,104.63z"/>
																										</g>
																									</g>
																								</g>
																							</g>
																						</g>
																					</g>
																				</g>
																			</g>
																		</g>
																	</g>
																</g>
															</g>
														</g>
														<g>
															<g>
																<g>
																	<g>
																		<g>
																			<g>
																				<g>
																					<g>
																						<g>
																							<g>
																								<g>
																									<g>
																										<path class="st3" d="M509.18,114.87c0.01-0.08-0.87-0.22-2.3-0.4c-0.36-0.04-0.7-0.1-0.77-0.35
																											c-0.09-0.25,0.06-0.63,0.24-1.04c0.34-0.85,0.69-1.75,1.06-2.68c1.48-3.82,2.55-6.97,2.39-7.02
																											c-0.16-0.06-1.49,3-2.96,6.82c-0.36,0.94-0.7,1.84-1.02,2.7c-0.14,0.4-0.37,0.86-0.18,1.38
																											c0.1,0.26,0.36,0.45,0.6,0.51c0.23,0.07,0.44,0.07,0.61,0.08C508.29,114.94,509.18,114.95,509.18,114.87z
																											"/>
																									</g>
																								</g>
																							</g>
																						</g>
																					</g>
																				</g>
																			</g>
																		</g>
																	</g>
																</g>
															</g>
														</g>
														<g>
															<g>
																<g>
																	<g>
																		<g>
																			<g>
																				<g>
																					<g>
																						<g>
																							<g>
																								<g>
																									<g>
																										<path class="st3" d="M513.36,115.82c-0.23-0.01-0.23,1.48-1.54,2.55c-1.31,1.07-2.95,0.9-2.96,1.11
																											c-0.02,0.09,0.37,0.29,1.06,0.31c0.68,0.02,1.67-0.19,2.47-0.84c0.8-0.65,1.15-1.52,1.2-2.14
																											C513.63,116.18,513.46,115.81,513.36,115.82z"/>
																									</g>
																								</g>
																							</g>
																						</g>
																					</g>
																				</g>
																			</g>
																		</g>
																	</g>
																</g>
															</g>
														</g>
													</g>
												</g>
											</g>
											<g>
												<g>
													<g>
														<g>
															<g>
																<g>
																	<g>
																		<g>
																			<g>
																				<g>
																					<g>
																						<path class="st3" d="M513.93,99.22c0.14,0.37,1.55,0.19,3.22,0.39c1.67,0.16,3.01,0.63,3.23,0.29
																							c0.1-0.16-0.14-0.51-0.68-0.88c-0.54-0.36-1.4-0.7-2.39-0.81c-1-0.1-1.91,0.05-2.52,0.29
																							C514.17,98.75,513.87,99.04,513.93,99.22z"/>
																					</g>
																				</g>
																			</g>
																		</g>
																	</g>
																</g>
															</g>
														</g>
													</g>
												</g>
											</g>
											<g>
												<g>
													<g>
														<g>
															<g>
																<g>
																	<g>
																		<g>
																			<g>
																				<g>
																					<g>
																						<path class="st3" d="M500.89,100.4c0.25,0.31,1.23-0.01,2.4-0.03c1.17-0.06,2.17,0.21,2.4-0.12
																							c0.1-0.16-0.06-0.47-0.49-0.77c-0.43-0.29-1.14-0.53-1.95-0.51c-0.81,0.03-1.5,0.31-1.91,0.63
																							C500.91,99.93,500.78,100.25,500.89,100.4z"/>
																					</g>
																				</g>
																			</g>
																		</g>
																	</g>
																</g>
															</g>
														</g>
													</g>
												</g>
											</g>
										</g>
									</g>
								</g>
							</g>
						</g>
						<g>
							<g>
								<g>
									<g>
										<g>
											<g>
												<g>
													<g>
														<g>
															<g>
																<g>
																	<g>
																		<path class="st13" d="M528.68,109.32c0.16-0.07,6.33-1.84,6.14,4.3c-0.19,6.14-6.48,4.69-6.48,4.51
																			C528.33,117.95,528.68,109.32,528.68,109.32z"/>
																	</g>
																</g>
															</g>
														</g>
													</g>
												</g>
											</g>
										</g>
									</g>
								</g>
							</g>
							<g>
								<g>
									<g>
										<g>
											<g>
												<g>
													<g>
														<g>
															<g>
																<g>
																	<g>
																		<g>
																			<path class="st16" d="M529.78,115.86c0.03-0.02,0.11,0.08,0.29,0.17c0.18,0.09,0.49,0.15,0.82,0.04
																				c0.67-0.22,1.27-1.23,1.33-2.34c0.03-0.56-0.07-1.09-0.26-1.54c-0.18-0.45-0.47-0.78-0.8-0.84
																				c-0.33-0.08-0.57,0.1-0.66,0.27c-0.09,0.17-0.05,0.29-0.09,0.3c-0.02,0.01-0.13-0.11-0.07-0.36
																				c0.03-0.12,0.11-0.26,0.26-0.38c0.16-0.12,0.38-0.17,0.61-0.14c0.49,0.05,0.91,0.5,1.12,0.99
																				c0.24,0.49,0.37,1.1,0.33,1.72c-0.08,1.24-0.76,2.37-1.68,2.6c-0.45,0.1-0.81-0.04-1-0.19
																				C529.78,116.01,529.76,115.87,529.78,115.86z"/>
																		</g>
																	</g>
																</g>
															</g>
														</g>
													</g>
												</g>
											</g>
										</g>
									</g>
								</g>
							</g>
						</g>
						<g>
							<g>
								<path class="st3" d="M524.54,91.07l-26.29,0.56c0.82-1.77,2.28-3.18,3.86-4.35c3.42-2.52,7.62-4.1,11.9-4.17
									c4.29-0.07,13.01,5.01,16.12,7.89c2.49,2.3,2.47,4.3,2.47,4.3c0.39,3.32-1.51,7.09-2.27,10.35
									c-0.39,1.68-1.15,6.76-1.15,6.76s0,0,0,0c-1.45,0-1.99-1.13-1.77-2.52l0.27-5.47c0,0-4.93-3.41-2.59-9.65
									C525.48,94.28,526.28,92,524.54,91.07z"/>
							</g>
						</g>
					</g>
					<g>
						<g>
							<g>
								<g>
									<path class="st16" d="M519.02,110.48c0.08,0.02,0.17-0.04,0.19-0.13c0.02-0.09-0.04-0.18-0.12-0.19
										c-0.08-0.02-0.17,0.04-0.19,0.13C518.89,110.38,518.94,110.47,519.02,110.48z"/>
								</g>
							</g>
						</g>
					</g>
					<g>
						<g>
							<g>
								<g>
									<path class="st16" d="M516.32,109.89c0.08,0.02,0.17-0.05,0.19-0.16s-0.03-0.2-0.12-0.22c-0.08-0.02-0.17,0.05-0.19,0.16
										C516.18,109.78,516.23,109.88,516.32,109.89z"/>
								</g>
							</g>
						</g>
					</g>
					<g>
						<g>
							<g>
								<g>
									<path class="st16" d="M514.49,109.85c0.09,0.01,0.17-0.09,0.19-0.23c0.02-0.14-0.04-0.26-0.12-0.27
										c-0.09-0.01-0.17,0.09-0.19,0.23C514.35,109.72,514.41,109.84,514.49,109.85z"/>
								</g>
							</g>
						</g>
					</g>
					<g>
						<g>
							<g>
								<g>
									<path class="st16" d="M517.7,112.14c0.09,0,0.16-0.04,0.16-0.1c0-0.05-0.07-0.1-0.16-0.1c-0.09,0-0.16,0.04-0.16,0.1
										C517.54,112.1,517.61,112.14,517.7,112.14z"/>
								</g>
							</g>
						</g>
					</g>
					<g>
						<g>
							<g>
								<g>
									<path class="st16" d="M515.21,111.59c0.09,0.01,0.16-0.06,0.17-0.16c0.01-0.1-0.05-0.18-0.14-0.19
										c-0.09-0.01-0.16,0.06-0.17,0.16C515.06,111.5,515.13,111.58,515.21,111.59z"/>
								</g>
							</g>
						</g>
					</g>
					<g>
						<g>
							<g>
								<g>
									<path class="st16" d="M502.29,110.11c0.08,0.02,0.17-0.05,0.19-0.14c0.02-0.09-0.03-0.18-0.12-0.2
										c-0.08-0.02-0.17,0.05-0.19,0.14C502.15,110,502.21,110.09,502.29,110.11z"/>
								</g>
							</g>
						</g>
					</g>
					<g>
						<g>
							<g>
								<g>
									<path class="st16" d="M500.44,109.95c0.09,0.01,0.16-0.07,0.17-0.18c0.01-0.11-0.05-0.2-0.14-0.21
										c-0.09-0.01-0.16,0.07-0.17,0.18C500.3,109.85,500.36,109.94,500.44,109.95z"/>
								</g>
							</g>
						</g>
					</g>
					<g>
						<g>
							<g>
								<g>
									<path class="st16" d="M503.92,110.15c0.08,0.02,0.17-0.03,0.18-0.1c0.01-0.07-0.04-0.14-0.13-0.16
										c-0.08-0.02-0.17,0.03-0.18,0.1C503.78,110.06,503.83,110.13,503.92,110.15z"/>
								</g>
							</g>
						</g>
					</g>
					<g>
						<g>
							<g>
								<g>
									<path class="st16" d="M502.56,111.95c0.08,0.03,0.18-0.01,0.22-0.1c0.04-0.09,0.01-0.19-0.07-0.22
										c-0.08-0.03-0.18,0.01-0.22,0.1C502.44,111.82,502.48,111.92,502.56,111.95z"/>
								</g>
							</g>
						</g>
					</g>
					<g>
						<g>
							<g>
								<g>
									<path class="st16" d="M500.98,111.65c0.08-0.02,0.13-0.1,0.12-0.16c-0.02-0.07-0.1-0.11-0.19-0.08
										c-0.08,0.02-0.13,0.1-0.12,0.16C500.81,111.63,500.9,111.67,500.98,111.65z"/>
								</g>
							</g>
						</g>
					</g>
				</g>
				<g>
					<g>
						<path class="st3" d="M530.32,91.35c0.67-2.24,0-4.74-1.48-6.58c-1.48-1.84-3.89-2.93-6.29-2.83
							c-1.23,0.05-2.45,0.39-3.67,0.26c-2.27-0.24-4.03-2.02-6.14-2.88c-3.29-1.34-7.47-0.12-9.45,2.76
							c-0.8,1.16-1.32,2.6-2.55,3.33c-1.06,0.63-2.39,0.58-3.58,0.93c-2.41,0.71-4.06,3.19-3.93,5.64c0.13,2.44,1.88,4.68,4.2,5.64
							c2.31,0.96,5.07,0.69,7.26-0.5c1.98-1.07,3.76-2.91,6.03-2.84c2.35,0.07,4.4,2.23,6.71,1.78c1.21-0.23,2.14-1.14,3.03-1.98
							c0.88-0.84,1.9-1.69,3.13-1.76c1.23-0.07,1.87,1.58,1.43,2.7L530.32,91.35"/>
					</g>
				</g>
				<g>
					<g>
						<g>
							<path class="st10" d="M498.77,88.39c0,0,0.01,0.03,0.04,0.09c0.03,0.06,0.08,0.14,0.15,0.25c0.14,0.21,0.38,0.51,0.75,0.83
								c0.37,0.32,0.89,0.66,1.56,0.88c0.67,0.23,1.51,0.32,2.39,0.14c0.87-0.18,1.8-0.63,2.52-1.39c0.72-0.77,1.14-1.8,1.81-2.7
								c0.33-0.45,0.75-0.86,1.27-1.12c0.52-0.26,1.13-0.38,1.74-0.37c0.61,0.01,1.23,0.18,1.79,0.47c0.55,0.3,1.01,0.76,1.32,1.32
								c0.32,0.56,0.55,1.18,0.93,1.73c0.37,0.55,1,0.97,1.68,1c0.68,0.04,1.3-0.21,1.83-0.52c0.54-0.31,0.99-0.72,1.4-1.13
								c0.81-0.8,1.61-1.59,2.61-1.81c0.98-0.23,1.95,0.12,2.64,0.6c0.7,0.49,1.16,1.14,1.45,1.75c0.29,0.61,0.44,1.18,0.54,1.65
								c0.1,0.47,0.14,0.84,0.17,1.09c0.03,0.25,0.05,0.38,0.06,0.38c0,0,0.01-0.03,0.01-0.1c0-0.06,0-0.16-0.01-0.29
								c-0.01-0.25-0.04-0.63-0.13-1.1c-0.08-0.47-0.22-1.05-0.51-1.69c-0.29-0.63-0.75-1.31-1.47-1.83
								c-0.71-0.51-1.72-0.9-2.79-0.66c-1.08,0.23-1.91,1.06-2.72,1.85c-0.41,0.4-0.84,0.79-1.36,1.08
								c-0.51,0.29-1.1,0.51-1.69,0.48c-0.6-0.03-1.15-0.38-1.49-0.89c-0.36-0.51-0.58-1.12-0.91-1.71
								c-0.32-0.59-0.83-1.1-1.42-1.42c-0.59-0.31-1.25-0.48-1.91-0.5c-0.65-0.01-1.3,0.13-1.86,0.41c-0.56,0.29-1.01,0.73-1.35,1.2
								c-0.69,0.94-1.1,1.96-1.78,2.69c-0.67,0.74-1.56,1.18-2.4,1.36c-0.84,0.19-1.65,0.11-2.3-0.1c-0.66-0.21-1.17-0.52-1.54-0.82
								C499.03,88.87,498.8,88.36,498.77,88.39z"/>
						</g>
					</g>
				</g>
				<g>
					<g>
						<g>
							<path class="st10" d="M494,88.48c-0.01,0-0.07,0.17-0.11,0.49c-0.03,0.32-0.02,0.8,0.13,1.37c0.16,0.56,0.47,1.21,0.99,1.81
								c0.51,0.6,1.24,1.11,2.08,1.47c1.7,0.73,3.42,0.66,4.59,0.5c0.59-0.08,1.06-0.18,1.38-0.27c0.32-0.08,0.49-0.14,0.49-0.16
								c-0.01-0.04-0.72,0.13-1.89,0.25c-1.15,0.11-2.83,0.14-4.46-0.56c-0.81-0.35-1.5-0.84-2-1.4c-0.5-0.56-0.82-1.17-0.99-1.71
								C493.86,89.2,494.06,88.48,494,88.48z"/>
						</g>
					</g>
				</g>
			</g>
		</g>
		<g>
			<g>
				<g>
					<g>
						<g>
							<g>
								<path class="st8" d="M562.57,179.4c-0.16,12.05-7.5,23.15-17.08,30.46c-9.58,7.31-21.21,11.38-32.79,14.71
									c-11.58,3.33-23.42,6.09-34.31,11.24c-15.09,7.14-29.06,16.93-37.58,31.28c-8.52,14.35-11.56,33.2-10.61,49.86l128.12-12.81
									l7.02-72.82L562.57,179.4z"/>
							</g>
						</g>
					</g>
				</g>
				<g>
					<g>
						<path class="st3" d="M447.76,256.88c0.01,0.01-0.1,0.19-0.33,0.52c-0.26,0.37-0.6,0.85-1.02,1.44
							c-0.45,0.62-1.01,1.37-1.58,2.29c-0.57,0.92-1.31,1.92-1.96,3.12c-0.68,1.18-1.46,2.46-2.16,3.91
							c-0.76,1.41-1.46,2.98-2.19,4.63c-1.39,3.33-2.71,7.08-3.72,11.12c-0.99,4.05-1.6,7.98-1.98,11.57
							c-0.16,1.8-0.32,3.51-0.37,5.12c-0.1,1.6-0.09,3.1-0.11,4.47c-0.04,1.37,0.04,2.6,0.05,3.69c0.01,1.09,0.07,2.02,0.11,2.78
							c0.03,0.72,0.06,1.31,0.08,1.76c0.01,0.4,0.01,0.62-0.01,0.62c-0.02,0-0.05-0.21-0.09-0.61c-0.04-0.45-0.1-1.03-0.17-1.76
							c-0.07-0.76-0.16-1.7-0.2-2.79c-0.04-1.09-0.14-2.33-0.13-3.7c-0.01-1.37-0.03-2.87,0.05-4.49c0.03-1.61,0.17-3.33,0.32-5.14
							c0.36-3.61,0.95-7.57,1.95-11.64c1.02-4.07,2.36-7.84,3.78-11.18c0.75-1.66,1.46-3.23,2.24-4.64c0.72-1.45,1.52-2.72,2.22-3.9
							c0.68-1.19,1.43-2.18,2.03-3.09c0.6-0.91,1.18-1.65,1.65-2.25c0.45-0.57,0.81-1.03,1.09-1.39
							C447.6,257.03,447.74,256.87,447.76,256.88z"/>
					</g>
				</g>
			</g>
		</g>
	</g>
	<g class="st1">
		<g>
			<g>
				<path class="st8" d="M88.31,216.29C75.12,202.8,54.46,197.13,36.24,202c15.83,10.62,33.62,16.3,52.68,16.46"/>
			</g>
		</g>
		<g>
			<g>
				<g>
					<path class="st8" d="M70.65,153.76c2.17-15.34-3.79-32.6-15.28-43.76C54.99,125.21,61.41,142.32,70.65,153.76"/>
				</g>
			</g>
			<g>
				<g>
					<path class="st8" d="M79.83,182.74c-8.19-15.65-21.62-28.49-37.63-35.96c4.8,17.67,19.91,32.12,37.77,36.12"/>
				</g>
			</g>
			<g>
				<g>
					<path class="st8" d="M81.73,188.33c-9.27,0.26-18.65-0.07-27.61-2.44c-8.96-2.37-17.55-6.93-23.51-14.03
						c18.03,0.02,36.01,5.51,50.98,15.56"/>
				</g>
			</g>
			<g>
				<g>
					<path class="st8" d="M77.03,169.91c4.7-17.63,12.47-29.82,26.32-39.7c1.05,8.58-1.06,17.51-5.83,24.71
						C92.74,162.12,85.34,167.54,77.03,169.91"/>
				</g>
			</g>
			<g>
				<g>
					<path class="st8" d="M112.01,200.31c0.24-10.24-6.36-20.31-15.85-24.17C96.93,185.25,104.08,195.78,112.01,200.31"/>
				</g>
			</g>
			<g>
				<g>
					<path class="st8" d="M116.44,185.45c1.05-14.73,11.52-28.35,25.47-33.17C138.71,167.01,130.19,179.28,116.44,185.45"/>
				</g>
			</g>
			<g>
				<g>
					<path class="st8" d="M109.77,211.83c3.27-4.68,8.6-7.58,14.12-9.03c5.52-1.44,11.28-1.57,16.99-1.69
						c-7.69,8.46-19.24,13.28-30.67,12.77"/>
				</g>
			</g>
			<g>
				<g>
					<path class="st8" d="M103.14,249.41c10.28-3.17,21.74-2.35,31.46,2.25c9.72,4.61,17.62,12.95,21.67,22.92
						C136.98,270.92,117.93,262.34,103.14,249.41"/>
				</g>
			</g>
			<g>
				<g>
					<path class="st8" d="M81.96,236.35c3.21,9.48,2.59,20.93-4.54,29.1C74.52,255.72,76.24,244.73,81.96,236.35"/>
				</g>
			</g>
			<g>
				<g>
					<path class="st8" d="M69.44,231.08c-0.89,12.19-8.68,23.63-19.69,28.93c-0.55,0.26-1.18,0.52-1.74,0.29
						c-0.87-0.35-0.95-1.54-0.84-2.47C48.56,245.69,57.56,233.94,69.44,231.08"/>
				</g>
			</g>
			<g>
				<g>
					<path class="st8" d="M61.26,229.85c-5.42,5.86-13.33,9.34-21.31,9.38c-7.98,0.04-15.92-3.36-21.4-9.16
						C32.12,228.58,47.79,227.59,61.26,229.85"/>
				</g>
			</g>
			<g>
				<g>
					<g>
						<g>
							<path class="st3" d="M59.23,121.31c-0.01,0,0.03,0.14,0.12,0.4c0.1,0.28,0.24,0.66,0.41,1.15c0.38,1.03,0.93,2.51,1.64,4.4
								c0.73,1.9,1.57,4.25,2.55,6.97c0.49,1.36,1.02,2.82,1.57,4.36c0.54,1.55,1.1,3.19,1.7,4.91c2.41,6.88,5.08,15.13,7.96,24.32
								c2.83,9.2,5.8,19.37,8.73,30.09c2.89,10.74,5.44,21.01,7.62,30.39c2.12,9.4,3.94,17.88,5.25,25.04
								c0.34,1.79,0.66,3.49,0.96,5.11c0.27,1.62,0.53,3.14,0.78,4.57c0.49,2.85,0.91,5.31,1.2,7.32c0.31,1.99,0.55,3.55,0.71,4.64
								c0.08,0.51,0.15,0.91,0.2,1.2c0.05,0.27,0.08,0.41,0.09,0.41c0.01,0,0-0.14-0.03-0.42c-0.04-0.3-0.08-0.7-0.15-1.21
								c-0.14-1.09-0.35-2.65-0.62-4.65c-0.25-2.02-0.64-4.48-1.11-7.34c-0.23-1.43-0.48-2.96-0.74-4.58
								c-0.29-1.62-0.6-3.32-0.93-5.12c-1.27-7.18-3.05-15.67-5.14-25.08c-2.15-9.39-4.7-19.68-7.59-30.42
								c-2.93-10.73-5.92-20.89-8.77-30.09c-2.91-9.19-5.62-17.43-8.07-24.29c-0.61-1.72-1.18-3.35-1.73-4.9
								c-0.57-1.54-1.11-2.99-1.61-4.35c-1-2.72-1.87-5.05-2.63-6.94c-0.74-1.87-1.32-3.34-1.73-4.36c-0.2-0.48-0.35-0.85-0.46-1.13
								C59.3,121.43,59.24,121.3,59.23,121.31z"/>
						</g>
					</g>
				</g>
				<g>
					<g>
						<g>
							<path class="st3" d="M133.81,160.15c-0.01-0.01-0.09,0.07-0.23,0.22c-0.17,0.17-0.38,0.4-0.65,0.68
								c-0.57,0.6-1.39,1.51-2.41,2.7c-2.05,2.38-4.94,5.92-7.99,10.66c-3.05,4.72-6.18,10.74-8.36,17.88
								c-2.24,7.12-3.63,15.21-5.01,23.67c-2.76,16.93-6.15,32.09-8.6,43.06c-1.24,5.46-2.24,9.88-2.94,12.98
								c-0.33,1.51-0.6,2.69-0.78,3.53c-0.08,0.38-0.14,0.69-0.19,0.92c-0.04,0.21-0.06,0.32-0.05,0.32c0.01,0,0.04-0.1,0.1-0.31
								c0.06-0.23,0.14-0.53,0.24-0.91c0.21-0.84,0.5-2.01,0.88-3.51c0.74-3.09,1.8-7.51,3.1-12.95
								c2.54-10.95,5.99-26.11,8.75-43.06c1.38-8.46,2.76-16.52,4.96-23.61c2.14-7.11,5.21-13.1,8.21-17.83
								c3-4.74,5.84-8.31,7.84-10.73c1-1.21,1.8-2.14,2.34-2.76c0.25-0.3,0.45-0.53,0.61-0.72
								C133.75,160.24,133.81,160.15,133.81,160.15z"/>
						</g>
					</g>
				</g>
				<g>
					<g>
						<g>
							<path class="st3" d="M57.2,229.28c0,0.02,0.17,0.05,0.49,0.09c0.38,0.04,0.85,0.09,1.41,0.16c0.31,0.03,0.65,0.06,1.02,0.1
								c0.37,0.06,0.77,0.12,1.2,0.18c0.86,0.13,1.84,0.25,2.91,0.49c0.54,0.11,1.1,0.22,1.69,0.34c0.58,0.15,1.18,0.3,1.81,0.46
								c1.26,0.28,2.56,0.74,3.94,1.16c2.73,0.96,5.67,2.19,8.6,3.79c2.92,1.62,5.5,3.49,7.71,5.35c1.07,0.97,2.1,1.88,2.96,2.84
								c0.91,0.91,1.66,1.85,2.34,2.7c0.72,0.83,1.22,1.68,1.73,2.39c0.52,0.7,0.89,1.35,1.19,1.89c0.29,0.49,0.52,0.89,0.72,1.22
								c0.17,0.28,0.27,0.42,0.28,0.41c0.02-0.01-0.05-0.16-0.19-0.46c-0.17-0.34-0.38-0.76-0.64-1.27
								c-0.27-0.55-0.62-1.22-1.12-1.95c-0.49-0.73-0.98-1.61-1.69-2.45c-0.67-0.88-1.41-1.84-2.32-2.77
								c-0.85-0.99-1.88-1.92-2.96-2.91c-2.21-1.91-4.82-3.81-7.77-5.45c-2.96-1.62-5.93-2.85-8.7-3.79
								c-1.4-0.41-2.71-0.86-3.99-1.13c-0.63-0.15-1.24-0.29-1.83-0.43c-0.59-0.11-1.16-0.21-1.7-0.3
								c-1.08-0.22-2.07-0.32-2.94-0.42c-0.43-0.05-0.83-0.1-1.21-0.14c-0.37-0.02-0.71-0.04-1.02-0.06
								c-0.57-0.02-1.03-0.04-1.42-0.06C57.38,229.25,57.21,229.26,57.2,229.28z"/>
						</g>
					</g>
				</g>
			</g>
			<g>
				<g>
					<g>
						<path class="st3" d="M53.34,160.47c-0.02,0.03,0.33,0.36,0.98,0.94c0.74,0.64,1.67,1.45,2.79,2.42
							c2.37,2.03,5.68,4.81,9.35,7.85c3.67,3.04,7.01,5.78,9.45,7.73c1.16,0.92,2.14,1.69,2.9,2.3c0.69,0.53,1.08,0.81,1.11,0.79
							c0.02-0.03-0.33-0.36-0.98-0.94c-0.74-0.64-1.67-1.45-2.8-2.42c-2.37-2.03-5.68-4.81-9.34-7.85
							c-3.67-3.04-7.01-5.77-9.44-7.73c-1.16-0.92-2.14-1.69-2.9-2.3C53.76,160.73,53.36,160.44,53.34,160.47z"/>
					</g>
				</g>
			</g>
			<g>
				<g>
					<g>
						<path class="st3" d="M50,178.43c-0.04,0.14,7.09,2.37,15.92,4.97c8.84,2.61,16.03,4.61,16.07,4.48
							c0.04-0.14-7.09-2.36-15.92-4.98C57.24,180.3,50.04,178.29,50,178.43z"/>
					</g>
				</g>
			</g>
			<g>
				<g>
					<g>
						<path class="st3" d="M76.32,171.28c0.03,0.02,0.29-0.35,0.74-1.02c0.5-0.76,1.13-1.72,1.88-2.86c1.59-2.41,3.86-5.7,6.53-9.2
							c2.68-3.5,5.26-6.55,7.16-8.73c0.9-1.03,1.65-1.89,2.26-2.58c0.53-0.61,0.81-0.96,0.79-0.98c-0.03-0.02-0.36,0.28-0.94,0.85
							c-0.58,0.57-1.4,1.41-2.38,2.47c-1.97,2.12-4.61,5.15-7.3,8.66c-2.69,3.52-4.91,6.85-6.43,9.32
							c-0.76,1.23-1.35,2.25-1.74,2.96C76.5,170.86,76.29,171.26,76.32,171.28z"/>
					</g>
				</g>
			</g>
			<g>
				<g>
					<g>
						<path class="st3" d="M101.08,181.25c-0.06,0.04,0.61,1.08,1.67,2.75c1.07,1.67,2.51,4,4.01,6.63c1.5,2.63,2.76,5.06,3.65,6.83
							c0.9,1.77,1.44,2.87,1.51,2.84c0.06-0.03-0.36-1.18-1.18-3c-0.81-1.82-2.03-4.29-3.53-6.93c-1.5-2.64-3.01-4.95-4.15-6.58
							C101.91,182.17,101.14,181.21,101.08,181.25z"/>
					</g>
				</g>
			</g>
			<g>
				<g>
					<g>
						<path class="st3" d="M109.55,212.32c0.04,0.07,1.4-0.59,3.62-1.6c2.23-1,5.33-2.31,8.85-3.54c3.51-1.23,6.76-2.14,9.13-2.75
							c2.37-0.61,3.84-0.93,3.83-1.01c-0.01-0.04-0.38,0.01-1.06,0.11c-0.68,0.1-1.65,0.29-2.85,0.54c-2.4,0.51-5.68,1.38-9.21,2.61
							c-3.53,1.24-6.64,2.61-8.83,3.7c-1.1,0.55-1.97,1.01-2.57,1.35C109.86,212.09,109.54,212.29,109.55,212.32z"/>
					</g>
				</g>
			</g>
			<g>
				<g>
					<g>
						<path class="st3" d="M102.88,249.46c0,0.02,0.15,0.07,0.44,0.15c0.35,0.09,0.78,0.2,1.28,0.33c1.2,0.28,2.8,0.65,4.74,1.09
							c4,0.93,9.57,2.09,15.49,4.09c5.92,2.02,11,4.58,14.45,6.79c1.73,1.1,3.07,2.07,3.98,2.77c0.91,0.7,1.41,1.09,1.44,1.06
							c0.01-0.01-0.1-0.13-0.32-0.34c-0.22-0.2-0.54-0.52-0.99-0.88c-0.87-0.75-2.19-1.77-3.91-2.92c-3.42-2.3-8.52-4.94-14.48-6.97
							c-5.97-2.01-11.56-3.12-15.58-3.96c-1.95-0.38-3.57-0.7-4.78-0.93C103.52,249.53,102.89,249.43,102.88,249.46z"/>
					</g>
				</g>
			</g>
			<g>
				<g>
					<g>
						<path class="st3" d="M78.77,258.62c0.14,0.02,0.99-4.98,1.9-11.17c0.91-6.19,1.52-11.22,1.38-11.24
							c-0.14-0.02-0.99,4.98-1.9,11.17C79.25,253.56,78.63,258.6,78.77,258.62z"/>
					</g>
				</g>
			</g>
			<g>
				<g>
					<g>
						<path class="st3" d="M53.66,249.5c0.06,0.04,0.9-1,2.26-2.69c1.36-1.69,3.24-4.02,5.36-6.55c2.13-2.53,4.1-4.78,5.53-6.41
							c1.43-1.63,2.31-2.64,2.26-2.69c-0.03-0.02-0.28,0.2-0.72,0.62c-0.44,0.42-1.06,1.04-1.81,1.83c-1.5,1.57-3.52,3.79-5.65,6.32
							c-2.13,2.54-3.97,4.91-5.26,6.66c-0.64,0.87-1.15,1.59-1.49,2.1C53.81,249.19,53.63,249.48,53.66,249.5z"/>
					</g>
				</g>
			</g>
		</g>
		<g>
			<g>
				<polygon class="st6" points="120.11,272.79 120.11,285.19 117,285.19 105.98,320 81.52,320 70.84,285.54 66.7,285.19 
					66.7,272.79 				"/>
			</g>
		</g>
		<g>
			<g>
				<g>
					<path class="st3" d="M68.77,285.54c0,0.14,10.8,0.26,24.11,0.26c13.32,0,24.12-0.12,24.12-0.26c0-0.14-10.8-0.26-24.12-0.26
						C79.57,285.28,68.77,285.4,68.77,285.54z"/>
				</g>
			</g>
		</g>
		<g>
			<g>
				<g>
					<path class="st3" d="M51.18,205.74c-0.01,0.04,0.55,0.18,1.57,0.42c1.1,0.27,2.55,0.61,4.29,1.03
						c3.62,0.9,8.58,2.26,13.97,4.07c5.39,1.82,10.17,3.73,13.59,5.21c1.64,0.72,3.01,1.32,4.04,1.77c0.95,0.42,1.49,0.64,1.5,0.61
						c0.02-0.03-0.49-0.31-1.42-0.79c-0.93-0.48-2.29-1.14-3.98-1.92c-3.39-1.56-8.17-3.54-13.58-5.36
						c-5.41-1.82-10.41-3.12-14.05-3.93c-1.82-0.4-3.31-0.7-4.34-0.88C51.76,205.79,51.19,205.71,51.18,205.74z"/>
				</g>
			</g>
		</g>
		<g>
			<g>
				<g>
					<path class="st17" d="M76.89,304.87c0,0.14,7.58,0.26,16.92,0.26c9.35,0,16.92-0.12,16.92-0.26s-7.57-0.26-16.92-0.26
						C84.47,304.61,76.89,304.72,76.89,304.87z"/>
				</g>
			</g>
		</g>
		<g>
			<g>
				<g>
					<path class="st17" d="M75.94,301.99c0,0.14,8.03,0.26,17.93,0.26c9.9,0,17.93-0.12,17.93-0.26c0-0.14-8.03-0.26-17.93-0.26
						C83.97,301.73,75.94,301.85,75.94,301.99z"/>
				</g>
			</g>
		</g>
	</g>
</g>
</svg>
