<svg xmlns="http://www.w3.org/2000/svg" xmlns:xlink="http://www.w3.org/1999/xlink" width="192" height="175.387" viewBox="0 0 192 175.387"><defs><style>.a,.b{fill:#00a859;}.a{opacity:0.18;}.c{fill:#473f47;}.d,.e{fill:#fff;}.e{opacity:0.73;}.f{fill:url(#a);}.g{fill:#a0685b;}.h{fill:#020202;opacity:0.1;}.i{fill:#7d443c;}</style><linearGradient id="a" x1="0.554" y1="-3.225" x2="0.435" y2="4.988" gradientUnits="objectBoundingBox"><stop offset="0.01"/><stop offset="0.08" stop-opacity="0.69"/><stop offset="0.21" stop-opacity="0.322"/><stop offset="1" stop-opacity="0"/></linearGradient></defs><g transform="translate(0.002 -0.035)"><path class="a" d="M52.177,39.335a153.884,153.884,0,0,0-5.842,19.072C42.549,73.741,32.029,85.7,23.65,98.84c-6.931,10.829-12.574,23.379-11.052,36.151,1.683,14.047,12.054,25.99,24.592,32.537,13.8,7.24,33.007,11.646,47.7,6.015,24.307-9.332,50.891-9.2,75.829-16.683,11.522-3.453,23.23-7.884,31.7-16.436a41.312,41.312,0,0,0,2.067-55.842C184.764,73.159,171.571,67.9,163.6,54.57c-7.03-11.745-11.485-25.111-20.47-35.644a52.067,52.067,0,0,0-76.758-2.574,67.377,67.377,0,0,0-14.2,22.983Z" transform="translate(-12.35 -0.68)"/><rect class="b" width="68.218" height="131.918" rx="7.93" transform="translate(46.733 20.338)"/><rect class="c" width="65.532" height="128.379" rx="7.66" transform="translate(48.082 21.997)"/><path class="d" d="M114.591,28.723V134.676a9.059,9.059,0,0,1-9.146,8.96H61.818a9.282,9.282,0,0,1-4.554-1.238,8.923,8.923,0,0,1-4.6-7.772V28.723a9.072,9.072,0,0,1,9.158-8.973h7.426v1.312a4.307,4.307,0,0,0,2.7,3.948,4.418,4.418,0,0,0,1.671.322H93.922A4.381,4.381,0,0,0,98.353,21V19.762h7.141a9.208,9.208,0,0,1,6.312,2.475,8.861,8.861,0,0,1,2.785,6.485Z" transform="translate(-2.771 3.843)"/><path class="b" d="M114.249,28.473V134.426a9.059,9.059,0,0,1-9.146,8.96H61.476a9.282,9.282,0,0,1-4.554-1.238,8.886,8.886,0,0,1-2.822-6.473V29.773a9.059,9.059,0,0,1,9.158-8.96h5.569A4.307,4.307,0,0,0,71.6,24.76a4.48,4.48,0,0,0,3.416,1.621H95.325a4.381,4.381,0,0,0,4.443-4.344V20.8h7.141a9.307,9.307,0,0,1,4.53,1.238,8.861,8.861,0,0,1,2.809,6.436Z" transform="translate(-2.429 4.093)"/><path class="c" d="M70.71,97.73A12.1,12.1,0,0,1,71.8,92.779L64.373,88.72a20.3,20.3,0,0,0-2.153,9.01A20.519,20.519,0,0,0,77.7,117.618l1.5-8.39a12.042,12.042,0,0,1-8.49-11.5Z" transform="translate(-0.499 20.232)"/><path class="e" d="M97.346,105.292a20.582,20.582,0,0,1-22.636,9.344l1.5-8.391a12.079,12.079,0,0,0,13.614-5.025Z" transform="translate(2.469 23.203)"/><path class="d" d="M102.837,99.909a20.47,20.47,0,0,1-2.946,10.532l-7.426-4.072a12.03,12.03,0,1,0-21.04-11.485L64,90.825a20.52,20.52,0,0,1,38.837,9.084Z" transform="translate(-0.076 18.053)"/><rect class="e" width="54.678" height="39.678" rx="2.07" transform="translate(53.751 47.616)"/><path class="d" d="M45.47,54.233,54.2,46.115,66.213,60.607,76.732,51.4l4.356,3.75L90.866,42.08l4.963,5.99V74.3H45.47Z" transform="translate(10.805 9.991)"/><path class="b" d="M66.221,61.059,54.2,46.579,45.689,54.5l-.359-.384,8.923-8.3L66.283,60.3l10.483-9.171,4.319,3.713,9.8-13.106,5.173,6.238-.408.347-4.74-5.73-9.74,13.02-4.406-3.775Z" transform="translate(10.772 9.91)"/><circle class="b" cx="1.089" cy="1.089" r="1.089" transform="translate(63.825 55.041)"/><circle class="b" cx="1.089" cy="1.089" r="1.089" transform="translate(76.114 69.435)"/><circle class="b" cx="1.089" cy="1.089" r="1.089" transform="translate(86.449 60.301)"/><circle class="b" cx="1.089" cy="1.089" r="1.089" transform="translate(90.805 64.051)"/><circle class="b" cx="1.089" cy="1.089" r="1.089" transform="translate(100.582 50.982)"/><circle class="b" cx="1.089" cy="1.089" r="1.089" transform="translate(105.545 56.972)"/><rect class="d" width="39.53" height="39.53" rx="3.47" transform="translate(24.295 77.653)"/><circle class="b" cx="11.436" cy="11.436" r="11.436" transform="translate(31.944 84.645)"/><path class="c" d="M47.39,67.457V81.429l12.29-8.874S54.086,66.318,47.39,67.457Z" transform="translate(-4.023 15.147)"/><path class="f" d="M125.923,118.5l14.344,1.114a3.911,3.911,0,0,1,1.943.5,2.611,2.611,0,0,1,.829,2.921,5.755,5.755,0,0,1-1.968,2.55c-5.2,4.245-12.512,4.406-19.233,4.369l-31.7-.2a8.663,8.663,0,0,1-3.6-.532,2.97,2.97,0,0,1-1.881-2.859,3.775,3.775,0,0,1,2-2.475,25.594,25.594,0,0,1,9.183-2.921q7.24-1.238,14.5-2.475" transform="translate(4.833 27.306)"/><path class="g" d="M111.959,121.839a4.876,4.876,0,0,1-.408,2.153,3.639,3.639,0,0,1-1.559,1.46,6.188,6.188,0,0,1-4.579.446.891.891,0,0,1-.532-.309.854.854,0,0,1-.1-.458,3.453,3.453,0,0,1,1.238-2.153,7.512,7.512,0,0,0,1.658-1.894c.693-1.423.173-5.186,2.847-4.592C112.714,117,112.02,120.267,111.959,121.839Z" transform="translate(9.614 26.817)"/><path class="b" d="M112.68,122.891s.371.928-.087,1.473-5.26,3.527-8.49,1.126,4.381-2.71,4.381-2.71Z" transform="translate(9.264 28.326)"/><path class="d" d="M112.431,121.181a.693.693,0,0,0-.866.223,2.847,2.847,0,0,1-2.512.879c-1.052-.26-1.473-1.473-1.993-1.473s-3.317,2.364-3.478,3.391,1.238,1.77,2.847,1.869,5.149-.99,5.829-1.819a3.379,3.379,0,0,0,.173-3.069Z" transform="translate(9.327 27.858)"/><path class="g" d="M119.379,123.037a4.876,4.876,0,0,1-.408,2.153,3.564,3.564,0,0,1-1.559,1.46,6.188,6.188,0,0,1-4.579.446.891.891,0,0,1-.532-.309.829.829,0,0,1-.1-.458,3.453,3.453,0,0,1,1.238-2.153,7.512,7.512,0,0,0,1.658-1.894c.693-1.423.173-5.186,2.847-4.579C120.109,118.173,119.379,121.44,119.379,123.037Z" transform="translate(11.377 27.104)"/><path class="b" d="M120.08,124.071s.371.928-.087,1.473-5.26,3.527-8.49,1.126,4.369-2.71,4.369-2.71Z" transform="translate(11.022 28.606)"/><path class="d" d="M119.843,122.352a.693.693,0,0,0-.866.223,2.822,2.822,0,0,1-2.574.928c-1.052-.26-1.473-1.473-1.993-1.473s-3.317,2.364-3.478,3.391,1.238,1.77,2.847,1.869,5.149-.99,5.829-1.819A3.379,3.379,0,0,0,119.843,122.352Z" transform="translate(11.073 28.147)"/><path class="c" d="M121.49,90.2s.507,27.426-1.535,36.584l-5.149.631L111.23,89.85Z" transform="translate(11.147 20.501)"/><path class="c" d="M106.834,87.71s-2.475,14.852.52,38.552l5.149.644,3.577-37.6Z" transform="translate(9.874 19.992)"/><path class="d" d="M101.77,80.425a2.066,2.066,0,0,0,1.238,2.141h.223c1.584.322,3.713-.891,5.111-1.943a21.032,21.032,0,0,0,1.72-1.4V68.68l-7.7,7.884A12.265,12.265,0,0,0,101.77,80.425Z" transform="translate(8.899 15.47)"/><path class="d" d="M107.089,81.144v1.485c0,2.748.631,5.569-.186,8.255a3.045,3.045,0,0,0-.223,1.832,2.277,2.277,0,0,0,1.151,1.1,23.032,23.032,0,0,0,7.921,2.1c2.042.285,4.951.891,6.844-.21a3.453,3.453,0,0,0,1.337-2.215,41.486,41.486,0,0,0,1.238-8.663,5.871,5.871,0,0,1,.074-1.139q.235-3.936.161-7.871c0-1.894-.186-3.96-1.423-5.4A13.614,13.614,0,0,0,116.7,66.8a8.663,8.663,0,0,0-2.4-.124,9.8,9.8,0,0,0-3.23,1.1,5.384,5.384,0,0,0-2.871,2.29,16.163,16.163,0,0,0-1.349,4.332,15.828,15.828,0,0,0-.074,4.257c.074.705.248,1.386.322,2.079C107.089,80.884,107.089,81.008,107.089,81.144Z" transform="translate(10.053 14.986)"/><path class="h" d="M116.255,95.89c.792.235,2.624-.5,3.23-.594.359-.074.693-.248,1.052-.334,1.819-.458,2.03-5.545,2.2-6.918a94.915,94.915,0,0,0,1.238-11.015,11.992,11.992,0,0,0-.483-4.146,4.777,4.777,0,0,0-2.71-3.02c-2.314-.842-3.007,6.485-3.329,8.007l-1.733,8.267a18.912,18.912,0,0,0-.483,3.094,10.99,10.99,0,0,0,.78,3.713c.21.718-.371,2.1-.087,2.636a.458.458,0,0,0,.322.309Z" transform="translate(12.1 15.735)"/><path class="g" d="M111.623,66.444a1.782,1.782,0,0,0,1.114.557,6.289,6.289,0,0,0,1.077,0h.21a.173.173,0,0,1,.21.186,12.527,12.527,0,0,1,0,2.153h0v.4a.755.755,0,0,0,0,.408.73.73,0,0,0,.433.285,3.3,3.3,0,0,0,.978.161,4.332,4.332,0,0,0,1.98-.693,19.171,19.171,0,0,1,.2-3.713,19.677,19.677,0,0,0,.545-4.691,3.168,3.168,0,0,0-.656-1.72,3.119,3.119,0,0,0-2.339-.842,5.953,5.953,0,0,0-3.205.879,1.238,1.238,0,0,0-.483.953c-.111.619-.21,1.238-.285,1.869s-.124,1.436-.136,2.153A2.537,2.537,0,0,0,111.623,66.444Z" transform="translate(11.15 13.152)"/><path class="c" d="M112.891,60.758l.173.062a1.238,1.238,0,0,0,.483.111.458.458,0,0,0,.408-.223.322.322,0,0,0,.1.322.792.792,0,0,0,.322.161,2.562,2.562,0,0,0,.606.149.854.854,0,0,0,.569-.161c.136.173.359.26.5.433a2.252,2.252,0,0,1,.408.73,2.549,2.549,0,0,1,0,1.634c.309.111.371-.433.606-.668s.767.087.8.47a2.376,2.376,0,0,1-.334,1.089c-.2.446-.52,3.02.631,2.116a1.559,1.559,0,0,0,.433-.73l.656-1.819a.5.5,0,0,0,.545-.26.52.52,0,0,0-.149-.594.619.619,0,0,0,.928-.743.693.693,0,0,0,.594-.681.705.705,0,0,0-.631-.644.842.842,0,1,0-.569-1.584,1.436,1.436,0,0,0-.483-1.733,1.968,1.968,0,0,0-1.238-.47h-.322c-.062,0-.087-.21-.124-.26a.829.829,0,0,0-.507-.359.866.866,0,0,0-.829.26,1.386,1.386,0,0,0-.928-.953,1,1,0,0,0-1.151.532,2.389,2.389,0,0,0-.866-.52,1.139,1.139,0,0,0-.569-.074,1.089,1.089,0,0,0-.767.891.5.5,0,0,1-.285-.062.433.433,0,0,0-.507.322.557.557,0,0,0,.235.582.73.73,0,0,0-.359.334c-.062.149,0,.371.2.371a.557.557,0,0,0,.446,1,.371.371,0,0,0-.3.26.854.854,0,0,0,0,.4.075.075,0,1,0,.111.1c.26,0,.569,0,.705-.173a.275.275,0,0,0,.21.235Z" transform="translate(11.145 12.539)"/><path class="i" d="M113.332,65.568h.21a.173.173,0,0,1,.21.186,12.527,12.527,0,0,1,0,2.153h0a2.884,2.884,0,0,0,1.993-3.057,12.017,12.017,0,0,1-2.475.718Z" transform="translate(11.632 14.56)"/><path class="d" d="M96.58,76.5a15.148,15.148,0,0,0,3.713,3.713,7.426,7.426,0,0,0,3.478,1.238,1.238,1.238,0,0,0,.483,0,1.312,1.312,0,0,0,.668-.458,3.849,3.849,0,0,0,.891-2.2c.087-2.1-2.2-3.342-2.2-3.342s-5.272-1.782-5.842-1.51c-.334.149-.656.879-.879,1.522A10.21,10.21,0,0,0,96.58,76.5Z" transform="translate(7.666 16.712)"/><path class="h" d="M96.58,76.171a15.148,15.148,0,0,0,3.713,3.713,7.426,7.426,0,0,0,3.478,1.238,1.238,1.238,0,0,0,.483,0h.223c1.584.322,3.713-.891,5.111-1.943h0l-.5-3.168a12.5,12.5,0,0,1-3.267,2.475,4.554,4.554,0,0,1-2.8.52,2.772,2.772,0,0,1-.755-.223,24.591,24.591,0,0,1-5.359-3.5A4.3,4.3,0,0,0,96.58,76.171Z" transform="translate(7.666 17.039)"/><path class="d" d="M126.258,80.941a12.215,12.215,0,0,1,1.015,5.792c-.347,2.376-1.931,4.369-3.453,6.188-1.238.186-2.76.161-3.193-.978a2.859,2.859,0,0,1-.074-1.126l.173-2.475a9.109,9.109,0,0,0-.173-3.28,14.393,14.393,0,0,0-1.844-3.255,12.587,12.587,0,0,1-1.856-5.73c-.136-1.918,1.312-8.082,4.121-6.188,1.163.755,2.2,3.923,2.822,5.2Q125.169,77.97,126.258,80.941Z" transform="translate(12.481 15.673)"/><path class="g" d="M119.353,90.239a.619.619,0,0,0-.1.322.192.192,0,0,0,.248.173c.285.879-.309,1.807-.309,2.735a.767.767,0,0,0,0,.235.619.619,0,0,0,.21.26,1.126,1.126,0,0,0,1.052.062,2.822,2.822,0,0,0,.879-.656,4.406,4.406,0,0,0,1.238-1.782,5.223,5.223,0,0,0,.173-.978l.3-2.475C121.172,87.6,120.194,88.8,119.353,90.239Z" transform="translate(13.037 20.063)"/><path class="g" d="M97.771,72.409a.928.928,0,0,0-.272-.433.322.322,0,0,0-.446,0,.829.829,0,0,0-.087.3.569.569,0,0,1-.557.347,1.658,1.658,0,0,1-.681-.161,16.729,16.729,0,0,0-1.894-.582.73.73,0,0,0-.458,0,.644.644,0,0,0-.322.4,2.475,2.475,0,0,0,.4,2.327,3.9,3.9,0,0,0,2.042,1.337,9.431,9.431,0,0,0,2.475.359,1.1,1.1,0,0,0,.606-.074C99.528,75.627,98.031,73.053,97.771,72.409Z" transform="translate(6.797 16.221)"/></g></svg>