<svg xmlns="http://www.w3.org/2000/svg" xmlns:xlink="http://www.w3.org/1999/xlink" width="300" height="277.862" viewBox="0 0 300 277.862"><defs><style>.a,.c{fill:#00a859;}.a{opacity:0.18;}.b{fill:url(#a);}.d,.t,.w{opacity:0.69;}.d{fill:url(#b);}.e{fill:url(#c);}.f{fill:url(#d);}.g{fill:url(#e);}.h{fill:url(#f);}.i{fill:url(#g);}.j{fill:url(#h);}.k{fill:#435276;}.l{fill:url(#i);}.m{fill:url(#l);}.n,.r{fill:#fff;}.o{fill:url(#m);}.p{fill:url(#n);}.q{fill:url(#o);}.r{opacity:0.25;}.s{fill:url(#p);}.t{fill:url(#q);}.u{fill:url(#r);}.v{fill:url(#s);}.w{fill:url(#t);}.x{fill:url(#u);}.y{fill:#3f3d56;}.z{fill:url(#v);}.aa{fill:url(#w);}</style><linearGradient id="a" y1="0.5" x2="1" y2="0.5" gradientUnits="objectBoundingBox"><stop offset="0" stop-color="#ecc4d7"/><stop offset="0.42" stop-color="#efd4d1"/><stop offset="1" stop-color="#f2eac9"/></linearGradient><linearGradient id="b" y1="0.5" x2="1" y2="0.5" gradientUnits="objectBoundingBox"><stop offset="0.02" stop-color="#fff" stop-opacity="0"/><stop offset="0.58" stop-color="#fff" stop-opacity="0.388"/><stop offset="0.68" stop-color="#fff" stop-opacity="0.678"/><stop offset="1" stop-color="#fff"/></linearGradient><linearGradient id="c" x1="0.5" y1="0.506" x2="0.536" y2="1.138" gradientUnits="objectBoundingBox"><stop offset="0" stop-opacity="0"/><stop offset="0.99"/></linearGradient><linearGradient id="d" x1="0" y1="0.5" x2="1" y2="0.5" xlink:href="#c"/><linearGradient id="e" x1="0.522" y1="0.831" x2="0.47" y2="-0.035" xlink:href="#c"/><linearGradient id="f" x1="0.499" y1="0.601" x2="0.506" y2="0.029" xlink:href="#c"/><linearGradient id="g" x1="0.502" y1="0.984" x2="0.497" y2="-0.264" xlink:href="#c"/><linearGradient id="h" x1="0.492" y1="0.984" x2="0.546" y2="-2.149" xlink:href="#c"/><linearGradient id="i" x1="0.527" y1="0.813" x2="0.55" y2="1.371" xlink:href="#c"/><linearGradient id="l" x1="0" y1="0.5" x2="1.001" y2="0.5" xlink:href="#c"/><linearGradient id="m" x1="-0.422" y1="0.492" x2="4.103" y2="0.533" xlink:href="#c"/><linearGradient id="n" x1="-0.385" y1="0.388" x2="3.966" y2="0.993" xlink:href="#c"/><linearGradient id="o" x1="0.498" y1="-0.231" x2="0.534" y2="4.431" xlink:href="#c"/><linearGradient id="p" x1="1.247" y1="1.429" x2="-0.636" y2="-0.916" gradientUnits="objectBoundingBox"><stop offset="0" stop-opacity="0"/><stop offset="0.41" stop-opacity="0.412"/><stop offset="0.99"/></linearGradient><linearGradient id="q" x1="0" y1="0.499" x2="1" y2="0.499" xlink:href="#b"/><linearGradient id="r" x1="0.778" y1="0.452" x2="-0.387" y2="0.604" xlink:href="#c"/><linearGradient id="s" x1="0.002" y1="0.5" x2="1" y2="0.5" xlink:href="#a"/><linearGradient id="t" x1="0.004" y1="0.621" x2="1.047" y2="0.285" xlink:href="#b"/><linearGradient id="u" x1="0" y1="0.5" x2="1" y2="0.5" xlink:href="#a"/><linearGradient id="v" x1="0" y1="0.5" x2="1" y2="0.5" xlink:href="#c"/><linearGradient id="w" x1="0" y1="0.5" x2="1" y2="0.5" xlink:href="#c"/></defs><g transform="translate(0 -0.024)"><g transform="translate(0 2.294)"><path class="a" d="M105.693,38.339c10.292-17.23,32.657-22.956,52.726-22.95s40.4,4.133,60.027,0c9.057-1.92,17.8-5.574,27.036-6.059,19.624-1.036,36.825,12.1,52.035,24.525L325.339,56.6c11.27,9.215,22.833,18.781,29.665,31.644a55.46,55.46,0,0,1,5.269,36.884c-3.208,15.526-13.143,30.227-10.661,45.888,1.247,7.869,5.544,14.871,8.337,22.335a60.407,60.407,0,0,1-36.3,78.071c-20.983,7.47-44.044,2.88-66.11-.141-42.042-5.761-84.64-5.492-127-7.968-7.347-.427-15.163-1.118-20.977-5.632-8.366-6.5-9.666-18.459-9.906-29.056-.638-27.926,1.382-55.853,4.168-83.65,2.049-20.409.837-36.041-5.568-55.214C91.783,76.335,98.2,50.879,105.693,38.339Z" transform="translate(-65.531 -9.272)"/><path class="b" d="M256.833,75.6l2.459,4.274,17.23-7.669,1.756,2.722s-17.892,17.81-18.963,17.564-8.085-12.693-8.085-12.693Z" transform="translate(-130.386 -35.358)"/><path class="c" d="M205.14,44.72l7.746,15.169-6.756,5.937Z" transform="translate(-85.039 -20.823)"/><path class="d" d="M205.14,44.72l7.746,15.169-6.756,5.937Z" transform="translate(-85.039 -20.823)"/><path class="c" d="M230.86,73.144l4.18-28.582,16.709-.222-5.5,29.027Z" transform="translate(-95.701 -20.665)"/><path class="c" d="M356.07,231.967h4.912V196.594a8.782,8.782,0,0,1,8.782-8.782h22.921V182.9H369.74a13.682,13.682,0,0,0-13.67,13.67Z" transform="translate(-173.846 -81.248)"/><path class="e" d="M356.26,231.967h4.912V196.594a8.782,8.782,0,0,1,8.782-8.782H392.88V182.9H369.925a13.682,13.682,0,0,0-13.665,13.67Z" transform="translate(-173.925 -81.248)"/><rect class="f" width="128.168" height="161.44" rx="34.55" transform="translate(14.303 75.769)"/><path class="c" d="M276.76,360.332h0a2.459,2.459,0,0,1,2.453-2.453h21.621a8.782,8.782,0,0,0,8.753-8.782V326.2H314.5v22.921a13.67,13.67,0,0,1-13.67,13.67H279.242a2.459,2.459,0,0,1-2.482-2.459Z" transform="translate(-140.969 -140.652)"/><path class="c" d="M398.557,371.821v-4.912H363.184a8.782,8.782,0,0,1-8.782-8.782v-22.9H349.49v22.921a13.682,13.682,0,0,0,13.67,13.67Z" transform="translate(-171.119 -144.395)"/><path class="g" d="M276.76,360.332h0a2.459,2.459,0,0,1,2.453-2.453h21.621a8.782,8.782,0,0,0,8.753-8.782V326.2H314.5v22.921a13.67,13.67,0,0,1-13.67,13.67H279.242a2.459,2.459,0,0,1-2.482-2.459Z" transform="translate(-140.969 -140.652)"/><path class="h" d="M398.557,371.821v-4.912H363.184a8.782,8.782,0,0,1-8.782-8.782v-22.9H349.49v22.921a13.682,13.682,0,0,0,13.67,13.67Z" transform="translate(-171.119 -144.395)"/><path class="c" d="M350.836,459.914a8.308,8.308,0,0,1-8.308,8.325H67.615a8.308,8.308,0,0,1-1.645-16.445,8.474,8.474,0,0,1,1.645-.164H342.529A8.308,8.308,0,0,1,350.836,459.914Z" transform="translate(-50.836 -192.648)"/><rect class="c" width="106.091" height="35.976" transform="translate(19.548 226.671)"/><rect class="i" width="106.091" height="26.375" transform="translate(19.548 226.671)"/><rect class="c" width="128.168" height="161.446" rx="34.55" transform="translate(0 75.769)"/><path class="j" d="M172.988,287.6v45.666a20.233,20.233,0,0,1-20.228,20.228H65.048A20.233,20.233,0,0,1,44.82,333.243V287.578A20.228,20.228,0,0,1,65.048,267.35h87.713A20.228,20.228,0,0,1,172.988,287.6Z" transform="translate(-44.82 -116.256)"/><rect class="k" width="52.914" height="49.91" transform="translate(153.161 144.168)"/><g transform="translate(148.952 137.084)"><rect class="c" width="62.234" height="19.718" rx="9.08" transform="translate(0 0)"/><rect class="c" width="62.234" height="19.718" rx="9.08" transform="translate(0 22.798)"/><rect class="c" width="62.234" height="19.718" rx="9.08" transform="translate(0 45.595)"/></g><path class="c" d="M318.664,208.857h-4.912V173.484a8.782,8.782,0,0,0-8.782-8.782H278.689a2.459,2.459,0,0,1-2.459-2.459h0a2.459,2.459,0,0,1,2.459-2.453h26.3a13.665,13.665,0,0,1,13.67,13.67Z" transform="translate(-140.749 -71.668)"/><path class="l" d="M318.664,208.857h-4.912V173.484a8.782,8.782,0,0,0-8.782-8.782H278.689a2.459,2.459,0,0,1-2.459-2.459h0a2.459,2.459,0,0,1,2.459-2.453h26.3a13.665,13.665,0,0,1,13.67,13.67Z" transform="translate(-140.749 -71.668)"/><circle class="f" cx="2.09" cy="2.09" r="2.09" transform="translate(200.121 144.478)"/><circle class="f" cx="2.09" cy="2.09" r="2.09" transform="translate(194.875 144.478)"/><circle class="m" cx="2.09" cy="2.09" r="2.09" transform="translate(189.694 144.478)"/><path class="c" d="M350.405,61.453h98.439a9.683,9.683,0,0,0,9.689-9.683h0a20.3,20.3,0,0,0-20.3-20.3h-8.3A20.292,20.292,0,0,0,409.642,11.18H396.252a20.292,20.292,0,0,0-20.3,20.292v4.151H364.637a20.3,20.3,0,0,0-20.28,19.567v0a6.042,6.042,0,0,0,6.048,6.259Z" transform="translate(-168.989 -10.063)"/><path class="c" d="M116.852,75.821H57.136a4.76,4.76,0,0,1-4.766-4.76V70.049a12.1,12.1,0,0,1,12.078-12.1h4.976a12.107,12.107,0,0,1,12.1-12.107h7.98a12.1,12.1,0,0,1,12.1,12.107v2.471h6.75a12.107,12.107,0,0,1,12.1,11.674h0a3.6,3.6,0,0,1-3.6,3.729Z" transform="translate(-47.95 -24.431)"/><rect class="n" width="96.249" height="11.99" rx="5.995" transform="translate(16.17 114.433)"/><rect class="c" width="62.82" height="7.828" rx="3.914" transform="translate(18.799 116.751)"/><g transform="translate(216.49 75.769)"><rect class="c" width="59.518" height="74.974" rx="16.04" transform="translate(0 0)"/><rect class="o" width="30.918" height="74.974" rx="15.459" transform="translate(28.594 0)"/><path class="p" d="M474.118,148.086H414.6a9.367,9.367,0,0,1,9.367-9.4H464.7a9.367,9.367,0,0,1,9.42,9.4Z" transform="translate(-414.6 -138.69)"/><path class="q" d="M474.134,250.71a9.367,9.367,0,0,1-9.4,9.367h-40.73a9.367,9.367,0,0,1-9.367-9.367Z" transform="translate(-414.617 -185.127)"/></g><path class="c" d="M497.767,383.058H430V297.1l50.3-.585L498.539,310.1Zm-65.179-2.541h62.644l.749-69.084-16.51-12.295-46.883.527Z" transform="translate(-204.494 -128.344)"/><path class="c" d="M533.151,312.849l-15.374.252L515.09,298.09Zm-13.22-2.342,7.535-.416-8.6-6.03Z" transform="translate(-239.767 -128.999)"/><rect class="c" width="45.355" height="2.98" rx="1.49" transform="translate(237.883 187.462)"/><rect class="c" width="45.355" height="2.98" rx="1.49" transform="translate(237.883 197.304)"/><rect class="c" width="45.355" height="2.98" rx="1.49" transform="translate(237.883 207.146)"/><rect class="c" width="45.355" height="2.98" rx="1.49" transform="translate(237.883 216.981)"/><rect class="c" width="45.355" height="2.98" rx="1.49" transform="translate(237.883 226.823)"/><rect class="c" width="45.355" height="2.98" rx="1.49" transform="translate(237.883 236.664)"/><path class="c" d="M289.726,167.137H276.8a1.1,1.1,0,0,1-1.089-1.095h0a1.089,1.089,0,0,1,1.089-1.089h12.927a10.111,10.111,0,0,0,10.105-10.111V133.116a11.832,11.832,0,0,1,11.832-11.832h25.895a10.866,10.866,0,0,0,10.86-10.86V92.86H350.6v17.564a13.05,13.05,0,0,1-13.044,13.044H311.663a9.648,9.648,0,0,0-9.648,9.648v21.726A12.3,12.3,0,0,1,289.726,167.137Z" transform="translate(-140.534 -43.923)"/><path class="c" d="M146,120.256h2.184V118.98a11.826,11.826,0,0,0-11.809-11.809h-11.37a9.121,9.121,0,0,1-9.1-9.11V96.27H113.72v1.792a11.305,11.305,0,0,0,11.288,11.293h11.375a9.631,9.631,0,0,1,9.625,9.625Z" transform="translate(-73.382 -45.336)"/><rect class="r" width="43.821" height="29.519" transform="translate(224.81 91.986)"/><path class="s" d="M309.936,460.194a8.308,8.308,0,0,1-6.627,8.161H67.615A8.308,8.308,0,0,1,65.97,451.91H301.634a8.3,8.3,0,0,1,8.3,8.284Z" transform="translate(-50.836 -192.764)"/><path class="c" d="M207.52,59.749V92.534h27.042V57.524S234.837,46.2,228.9,46.7,210.043,44.527,207.52,59.749Z" transform="translate(-112.266 -24.78)"/><path class="t" d="M207.52,59.749V92.534h27.042V57.524S234.837,46.2,228.9,46.7,210.043,44.527,207.52,59.749Z" transform="translate(-112.266 -24.78)"/><path class="n" d="M253.71,124.92s17.564.55,22.54,8.782,11.873,29.027,11.873,29.027l-6.27,2.471-11.211-14.18Z" transform="translate(-131.414 -57.213)"/><path class="u" d="M253.71,124.92s17.564.55,22.54,8.782,11.873,29.027,11.873,29.027l-6.27,2.471-11.211-14.18Z" transform="translate(-131.414 -57.213)"/><path class="n" d="M207.2,124.92s-2.424,12.1,3.958,14.051,25.942,3.958,25.942,3.958l9.678,32.1,8.027-3.63s-2.968-34.852-6.926-39.226-13.635-7.254-13.635-7.254Z" transform="translate(-111.946 -57.213)"/><path class="v" d="M228.534,23.1A20.011,20.011,0,0,1,230,18.244a8.671,8.671,0,0,1,7.225-4.59,3.946,3.946,0,0,1,1.083.076,3.618,3.618,0,0,1,1.077.474,7.488,7.488,0,0,1,3.1,4.889,21.8,21.8,0,0,1,.146,5.925c-.146,2.154-.539,4.684-2.459,5.661-1.335.673-2.927.328-4.373-.117a1.1,1.1,0,0,0-.919,0,1.013,1.013,0,0,0-.34.708c-.328,2.1.345,4.274-.135,6.335a1.633,1.633,0,0,1-.744,1.171,1.756,1.756,0,0,1-1.171,0,11.99,11.99,0,0,1-5.07-2.746c-.585-.544-2.125-1.487-2.342-2.26s.89-2.441,1.171-3.2a54.24,54.24,0,0,0,2.283-7.465Z" transform="translate(-119.534 -11.084)"/></g><path class="w" d="M207.983,62.409l8.354,15.807,8.9-6.592s-6.6-16.469-7.892-17.13-4.455-2.635-5.937-.492S207.7,59.6,207.983,62.409Z" transform="translate(-112.448 -25.117)"/><path class="x" d="M225.73,84.815s3.63,6.44,5.269,6.6,25.069-10.064,25.069-10.064l3.63-1.171s.826-3.958.989-4.783,1.481-3.624-.334-3.958-4.608,2-4.608,2l-1.323,3.3-19.788,6.1L232.6,79.264Z" transform="translate(-119.815 -32.734)"/><path class="y" d="M246.458,10.9c.826-1.885.076-4.514-1.885-5.146-1.616-.527-3.331.392-5.029.427a36.937,36.937,0,0,1-4.262-.755,7.225,7.225,0,0,0-7.611,5.38,5.749,5.749,0,0,1-.427,1.481c-.585,1.06-2.084,1.5-2.377,2.676a3.079,3.079,0,0,0,.234,1.7l1.862,5.544c.211.621.685,1.382,1.306,1.171.345-.117.509-.5.638-.855l1.247-3.472c1.124-.1.878,2.517,2,2.342.726-.117.585-1.171.4-1.909a3.718,3.718,0,0,1,3.062-4.291,4.537,4.537,0,0,0,1.6-.263,9.952,9.952,0,0,1,.989-.656c1.376-.515,2.834.638,4.4.041a6.92,6.92,0,0,0,3.852-3.419Z" transform="translate(-119.443 -5.37)"/><path class="c" d="M237.166,200.76l1.153,3.138,8.9-.164-11.212,5.111-2.143-6.926Z" transform="translate(-96.949 -83.214)"/><path class="z" d="M235.9,201.47l1.159,3.132,8.9-.164-11.212,5.111-2.143-6.926Z" transform="translate(-96.423 -83.508)"/><path class="c" d="M263.926,184.71l1.153,3.132,8.9-.164-11.211,5.111-2.143-6.926Z" transform="translate(-108.042 -76.56)"/><path class="aa" d="M262.656,185.41l1.153,3.138,8.911-.17L261.5,193.5l-2.143-6.932Z" transform="translate(-107.516 -76.85)"/></g></svg>