<svg xmlns="http://www.w3.org/2000/svg" xmlns:xlink="http://www.w3.org/1999/xlink" width="300" height="236.732" viewBox="0 0 300 236.732"><defs><style>.a,.f,.s,.u{fill:#00a859;}.a{opacity:0.18;}.b{fill:#f1af8c;}.c{fill:#fff;}.d{fill:url(#a);}.e{fill:url(#b);}.g{fill:url(#c);}.h{fill:url(#d);}.i{fill:url(#e);}.j{fill:url(#f);}.k{fill:url(#g);}.l{fill:url(#h);}.m{fill:url(#i);}.n{fill:url(#j);}.o{fill:#3f3d56;}.p{fill:url(#k);}.q{fill:url(#l);}.r{fill:url(#m);}.s{opacity:0.45;}.t{fill:url(#n);}.u{opacity:0.51;}.v{fill:url(#o);}.w{fill:url(#p);}.x{fill:url(#q);}.y{fill:url(#r);}</style><linearGradient id="a" x1="3.152" y1="0.467" x2="-0.172" y2="0.515" gradientUnits="objectBoundingBox"><stop offset="0.01"/><stop offset="1" stop-opacity="0"/></linearGradient><linearGradient id="b" x1="2.499" y1="1.742" x2="-0.059" y2="0.131" xlink:href="#a"/><linearGradient id="c" x1="0.498" y1="0.11" x2="0.507" y2="1.846" xlink:href="#a"/><linearGradient id="d" x1="0.663" y1="-1.05" x2="0.397" y2="1.481" xlink:href="#a"/><linearGradient id="e" x1="0.185" y1="0.239" x2="0.908" y2="0.732" gradientUnits="objectBoundingBox"><stop offset="0.02" stop-color="#fff" stop-opacity="0"/><stop offset="0.58" stop-color="#fff" stop-opacity="0.388"/><stop offset="1" stop-color="#fff"/></linearGradient><linearGradient id="f" x1="1.26" y1="0.481" x2="-0.302" y2="0.521" xlink:href="#e"/><linearGradient id="g" x1="1.074" y1="-1.186" x2="0.428" y2="0.745" xlink:href="#a"/><linearGradient id="h" x1="0.69" y1="1.44" x2="0.274" y2="-0.517" gradientUnits="objectBoundingBox"><stop offset="0.01"/><stop offset="0.09" stop-opacity="0.82"/><stop offset="1" stop-opacity="0"/></linearGradient><linearGradient id="i" x1="0.462" y1="-0.383" x2="0.533" y2="1.403" xlink:href="#a"/><linearGradient id="j" x1="0.744" y1="-0.276" x2="0.279" y2="1.203" xlink:href="#a"/><linearGradient id="k" x1="0.747" y1="0.258" x2="0.545" y2="0.476" xlink:href="#a"/><linearGradient id="l" x1="0.587" y1="0.486" x2="-0.01" y2="0.583" xlink:href="#a"/><linearGradient id="m" x1="0.986" y1="0.352" x2="0.221" y2="0.604" xlink:href="#a"/><linearGradient id="n" x1="0.59" y1="-1.291" x2="0.477" y2="0.951" gradientUnits="objectBoundingBox"><stop offset="0.02" stop-color="#fff" stop-opacity="0"/><stop offset="0.58" stop-color="#fff" stop-opacity="0.388"/><stop offset="0.68" stop-color="#fff" stop-opacity="0.678"/><stop offset="1" stop-color="#fff"/></linearGradient><linearGradient id="o" x1="1.037" y1="-0.78" x2="0.526" y2="0.435" xlink:href="#n"/><linearGradient id="p" x1="0.445" y1="1.165" x2="0.539" y2="-0.341" xlink:href="#a"/><linearGradient id="q" x1="0.365" y1="0.055" x2="0.652" y2="0.907" xlink:href="#n"/><linearGradient id="r" x1="0.815" y1="-0.258" x2="0.039" y2="1.606" xlink:href="#a"/></defs><g transform="translate(0 0)"><path class="a" d="M278.785,258.094c15.628-5.906,29.757-18.536,32.821-34.969,2.525-13.553-2.68-27.314-9.006-39.575s-13.989-24.11-16.942-37.575c-5.5-25.04,5.847-52.819-4.931-76.079A57.188,57.188,0,0,0,266.7,51.759C241.683,29.406,204.116,24.4,172.07,34.285S113.272,67.246,93.592,94.4c-8.12,11.191-15.177,23.143-24.029,33.751-11.8,14.129-27.107,26.531-32.23,44.182-3.728,12.756-1.476,26.575,2.953,39.125,6.814,19.238,36.172,53.453,50.146,53.387,31.145-.155,90.9,1.373,119.774.266C231.835,264.258,256.144,266.642,278.785,258.094Z" transform="translate(-12.257 -29.45)"/><path class="b" d="M183.917,292.458c-.738,2.1-1.388,4.518-.317,6.474a8.261,8.261,0,0,0,2.813,2.643L196.6,308.5c1.956,1.329,4.031,2.694,6.378,2.872s5.012-1.321,5.212-3.691c.236-2.709-2.606-4.562-3.935-6.939-1.742-3.115-.783-6.976.126-10.431a190.993,190.993,0,0,0,5.005-26.472c-2.089-.856-8.172-4.688-10.335-4.053-2.436.738-4.636,7.552-5.721,9.774A176.993,176.993,0,0,0,183.917,292.458Z" transform="translate(-50.893 -89.732)"/><path class="c" d="M207.184,219.312c-2.643,7.508-5.448,15.037-9.685,21.784a1.07,1.07,0,0,0-.229.687,1.056,1.056,0,0,0,.413.576c4.259,3.728,8.858,7.618,14.461,8.423a1.771,1.771,0,0,0,1.093-.1,1.8,1.8,0,0,0,.679-.937c3.573-8.275,4.835-17.34,4.717-26.3a108.278,108.278,0,0,0-1.063-13.376c-.148-1.078-.229-5.861-1.166-6.422-1.425-.842-2.99,2.1-3.61,3.019C210.225,210.512,208.7,214.941,207.184,219.312Z" transform="translate(-54.619 -75.015)"/><path class="d" d="M220.994,205.54s-3.329,1.248-6.039,10.623-9.176,32.1-9.176,32.1,10,5,12.505,3.123S220.994,205.54,220.994,205.54Z" transform="translate(-56.847 -75.55)"/><path class="c" d="M249.747,192.444a53.579,53.579,0,0,1,16.2,1.572,26.852,26.852,0,0,1,13.664,8.5c3.809,4.68,5.477,10.8,5.861,16.816s-.413,12.048-1.019,18.056a286.418,286.418,0,0,0-1.122,42.336c.162,3.381,2.1,21.031-.281,23.445-1.476,1.521,1.476,3.041-.627,3.543-17.2,4.134-48.1,2.1-64.386-4.791-4.141-1.757-8.3-4.2-10.335-8.2-2.215-4.333,3.765-21.511,4.481-26.332q3.255-22.065,4.695-44.366c.421-6.577-.066-13.664,1.284-20.123.982-4.688,4-5.965,8.356-7.116a105.143,105.143,0,0,1,23.224-3.337Z" transform="translate(-57.224 -72.109)"/><path class="e" d="M268.384,277.011c-.568,2.99-1.314,6.112-3.359,8.371a14.44,14.44,0,0,1-5.773,3.529c-10.261,3.868-21.962,3.263-31.794,8.12a6.864,6.864,0,0,0-1.89,1.233c-1.9,1.875-1.366,5.167.14,7.382,3.344,4.894,9.848,6.267,15.716,7.175,14.07,2.215,28.436,4.023,42.5,1.757a3.9,3.9,0,0,0,2.1-.8,3.823,3.823,0,0,0,.893-1.993c3.189-14.159.679-28.9.62-43.414,0-8.371.738-16.75.17-25.1a50.936,50.936,0,0,0-3.2-15.185c-1.307-3.307-5.131-10.608-7.426-3.831-3.647,10.77-4.695,22.382-6.009,33.61C270.355,264.263,269.587,270.67,268.384,277.011Z" transform="translate(-61.709 -79.719)"/><rect class="f" width="131.43" height="12.121" rx="6.061" transform="translate(85.706 223.248)"/><rect class="g" width="131.43" height="12.121" rx="6.061" transform="translate(85.706 223.248)"/><path class="b" d="M245.9,196.564c-2.443-.391-3.817-2.849-2.724-8.77.118-.657.273-1.292.45-1.927a1.58,1.58,0,0,1,.1-.354c.266-.915.568-1.831.864-2.739a19.983,19.983,0,0,0,1.284-6.814,12.206,12.206,0,0,1,.428-5.027,8.224,8.224,0,0,1,2.739-3.315c2.635-2.03,10.335-5.847,11.811-.8.657,2.156.177,4.665.148,6.873a20.67,20.67,0,0,0,1.7,9.22C264.3,186.14,251.9,197.523,245.9,196.564Z" transform="translate(-66.538 -64.757)"/><path class="h" d="M244.65,186.979s13.612-5.167,16.241-13.339l-14.506,4.747S246.038,185.865,244.65,186.979Z" transform="translate(-67.023 -67.198)"/><path class="c" d="M294.51,212.819a91.449,91.449,0,0,0,7.441,45.171,3.365,3.365,0,0,0,.908,1.366,3.691,3.691,0,0,0,2.215.546,27.173,27.173,0,0,0,16.875-5.418c1.476-1.115,2.864-2.539,2.99-4.274a6.954,6.954,0,0,0-.539-2.709,300.06,300.06,0,0,0-13.177-32.119c-1.86-3.868-4.355-8.4-8.858-10.106C296.946,203.23,294.886,208.774,294.51,212.819Z" transform="translate(-79.98 -75.365)"/><path class="f" d="M256.14,216.978c4.038-4.259,7-9.4,9.921-14.491,1.779-3.1,3.6-6.341,3.853-9.914a1.979,1.979,0,0,0-.185-1.188,2.133,2.133,0,0,0-.679-.627L263.507,187c-.1,3.4-2.539,6.326-5.33,8.283-2.953,2.1-11.405,4.392-9.6,8.74C249.031,205.123,255.668,217.473,256.14,216.978Z" transform="translate(-67.987 -70.696)"/><path class="f" d="M243.569,203.094a97.335,97.335,0,0,1-5.544,9.53,7.2,7.2,0,0,1-2.953,2.953.812.812,0,0,1-.539.074c-.325-.111-.4-.539-.421-.878-.273-5.677-.539-11.45.849-16.979a15.658,15.658,0,0,1,2.392-5.47c.4-.532,3.588-2.82,4.931-3.064-.3.908-.6,1.823-.864,2.739a.9.9,0,0,0-.089.273v.081c-.177.635-.332,1.27-.45,1.927C239.774,200.244,241.147,202.7,243.569,203.094Z" transform="translate(-64.207 -71.288)"/><path class="i" d="M256.14,216.978c4.038-4.259,7-9.4,9.921-14.491,1.779-3.1,3.6-6.341,3.853-9.914a1.979,1.979,0,0,0-.185-1.188,2.133,2.133,0,0,0-.679-.627L263.507,187c-.1,3.4-2.539,6.326-5.33,8.283-2.953,2.1-11.405,4.392-9.6,8.74C249.031,205.123,255.668,217.473,256.14,216.978Z" transform="translate(-67.987 -70.696)"/><path class="j" d="M243.569,203.094a97.335,97.335,0,0,1-5.544,9.53,7.2,7.2,0,0,1-2.953,2.953.812.812,0,0,1-.539.074c-.325-.111-.4-.539-.421-.878-.273-5.677-.539-11.45.849-16.979a15.658,15.658,0,0,1,2.392-5.47c.4-.532,3.588-2.82,4.931-3.064-.3.908-.6,1.823-.864,2.739a.9.9,0,0,0-.089.273v.081c-.177.635-.332,1.27-.45,1.927C239.774,200.244,241.147,202.7,243.569,203.094Z" transform="translate(-64.207 -71.288)"/><path class="b" d="M286.731,318.413l32.333-6.179c1.912-.369,3.905-.738,5.418-1.993,2.074-1.668,2.805-4.592,2.5-7.242a23.784,23.784,0,0,0-2.643-7.515c-4.592-9.508-13.908-26.575-13.967-25.579-5.655,1.2-10.335,1.255-15.192,4.363a5.558,5.558,0,0,0-2.052,1.912c-1.941,3.691,3.366,9.08,5.167,11.885a6.953,6.953,0,0,1,1.344,3.064,5.05,5.05,0,0,1-.428,2.3c-1.75,4.3-7.98,6.8-11.811,9.006a39.767,39.767,0,0,1-16.447,5.522c-4.518.384-9.132-.2-13.546.812a19.407,19.407,0,0,0-12.719,9.921c2.628,1.668,6.046.7,9.073-.059a53.1,53.1,0,0,1,17.163-1.38C274.661,317.564,284.959,321.889,286.731,318.413Z" transform="translate(-67.034 -92.389)"/><path class="f" d="M192.757,323.953H101.22L77.073,262.682a5.381,5.381,0,0,1,5.005-7.382h71.857a17.326,17.326,0,0,1,16.13,10.977Z" transform="translate(-23.051 -88.576)"/><path class="k" d="M192.757,323.953H101.22L77.073,262.682a5.381,5.381,0,0,1,5.005-7.382h71.857a17.326,17.326,0,0,1,16.13,10.977Z" transform="translate(-23.051 -88.576)"/><path class="l" d="M188.512,325.279H101.537L78.594,267.1a5.116,5.116,0,0,1,4.754-6.991H151.6a16.492,16.492,0,0,1,15.325,10.431Z" transform="translate(-23.457 -89.836)"/><path class="f" d="M240.51,73.314a22.56,22.56,0,0,1,6.932-3.108c2.5-.487,5.906-.192,7.6,1.7a15.812,15.812,0,0,0-11.287,5.957,1.1,1.1,0,0,1-.568.487,1.07,1.07,0,0,1-.6-.111c-1.019-.384-8.652,1.358-9.095.436C233.512,78.674,239.573,73.883,240.51,73.314Z" transform="translate(-64.102 -40.065)"/><path class="m" d="M240.51,73.314a22.56,22.56,0,0,1,6.932-3.108c2.5-.487,5.906-.192,7.6,1.7a15.812,15.812,0,0,0-11.287,5.957,1.1,1.1,0,0,1-.568.487,1.07,1.07,0,0,1-.6-.111c-1.019-.384-8.652,1.358-9.095.436C233.512,78.674,239.573,73.883,240.51,73.314Z" transform="translate(-64.102 -40.065)"/><ellipse class="f" cx="8.962" cy="11.044" rx="8.962" ry="11.044" transform="translate(150.948 67.457)"/><ellipse class="f" cx="8.29" cy="10.217" rx="8.29" ry="10.217" transform="translate(153.458 69.524)"/><ellipse class="n" cx="8.29" cy="10.217" rx="8.29" ry="10.217" transform="translate(153.458 69.524)"/><path class="b" d="M219.19,105.516l2.074,37.951s.923,14.321,15.118,14.461c17.052.17,22.242-9.744,24.833-17.289s4.931-29.705,0-35.832S228.536,83.6,219.19,105.516Z" transform="translate(-60.358 -46.357)"/><path class="o" d="M227.223,78.719c-6.688-.118-14.329,3-17.377,9.316a10.925,10.925,0,0,0-.207,9.4,3.945,3.945,0,0,1,.576,2.982,7.818,7.818,0,0,0,3.167,6.644c1.174.849,2.6,1.38,3.536,2.48l-.362-7.065a1.476,1.476,0,0,1,1.122-1.757l4.5-2.1s1.388,1.011,1.558,1.093a5.655,5.655,0,0,0,2.362.45,33.219,33.219,0,0,0,5.271-.3,49.8,49.8,0,0,0,10.9-3.292,4.961,4.961,0,0,1-1.344,2.909l11.464,2.215a31.154,31.154,0,0,1,4.023,7.515,26.183,26.183,0,0,1,1.55,6.5,23.5,23.5,0,0,1-.834,9,9.442,9.442,0,0,0,2.023-2.111,11.613,11.613,0,0,0,3.4,1.617,1.476,1.476,0,0,0,.79.066c.561-.155.679-.819.738-1.351.458-4.761,4-8.785,5.625-13.332a20.049,20.049,0,0,0-2.037-16.8A13.545,13.545,0,0,0,264.1,88.64c-5.278-3.868-12.778-2.1-18.8-4.119-2.864-.96-5.167-2.783-7.906-3.986A28.407,28.407,0,0,0,227.223,78.719Z" transform="translate(-57.606 -42.347)"/><path class="p" d="M227.223,78.719c-6.688-.118-14.329,3-17.377,9.316a10.925,10.925,0,0,0-.207,9.4,3.945,3.945,0,0,1,.576,2.982,7.818,7.818,0,0,0,3.167,6.644c1.174.849,2.6,1.38,3.536,2.48l-.362-7.065a1.476,1.476,0,0,1,1.122-1.757l4.5-2.1s1.388,1.011,1.558,1.093a5.655,5.655,0,0,0,2.362.45,33.219,33.219,0,0,0,5.271-.3,49.8,49.8,0,0,0,10.9-3.292,4.961,4.961,0,0,1-1.344,2.909l11.464,2.215a31.154,31.154,0,0,1,4.023,7.515,26.183,26.183,0,0,1,1.55,6.5,23.5,23.5,0,0,1-.834,9,9.442,9.442,0,0,0,2.023-2.111,11.613,11.613,0,0,0,3.4,1.617,1.476,1.476,0,0,0,.79.066c.561-.155.679-.819.738-1.351.458-4.761,4-8.785,5.625-13.332a20.049,20.049,0,0,0-2.037-16.8A13.545,13.545,0,0,0,264.1,88.64c-5.278-3.868-12.778-2.1-18.8-4.119-2.864-.96-5.167-2.783-7.906-3.986A28.407,28.407,0,0,0,227.223,78.719Z" transform="translate(-57.606 -42.347)"/><ellipse class="f" cx="8.866" cy="10.933" rx="8.866" ry="10.933" transform="translate(200.408 68.926)"/><ellipse class="q" cx="8.866" cy="10.933" rx="8.866" ry="10.933" transform="translate(200.408 68.926)"/><ellipse class="f" cx="8.866" cy="10.933" rx="8.866" ry="10.933" transform="translate(203.803 68.926)"/><path class="f" d="M281.094,109.569l-4.429.472-1.056.111-4.429-21.8c-2.3-8.622-7.936-15.251-15-17.82a7.973,7.973,0,0,0-3.411-.406l-3.019.273,1.476-.391,2.953-.783a9.722,9.722,0,0,1,2.835-.347c7.884.288,15.362,6.644,18.071,15.753Z" transform="translate(-68.358 -39.771)"/><path class="r" d="M281.094,109.569l-4.429.472-1.056.111-4.429-21.8c-2.3-8.622-7.936-15.251-15-17.82a7.973,7.973,0,0,0-3.411-.406l-3.019.273,1.476-.391,2.953-.783a9.722,9.722,0,0,1,2.835-.347c7.884.288,15.362,6.644,18.071,15.753Z" transform="translate(-68.358 -39.771)"/><path class="f" d="M281.618,109.569l-4.429.472L272.759,88.19c-2.34-8.711-8.024-15.392-15.155-17.983a7.788,7.788,0,0,0-3.447-.413l-2.407.214,2.953-.783a9.722,9.722,0,0,1,2.835-.347c7.884.288,15.362,6.644,18.071,15.753Z" transform="translate(-68.882 -39.771)"/><rect class="s" width="131.334" height="150.195" rx="15.64" transform="translate(0 3.809)"/><circle class="t" cx="19.651" cy="19.651" r="19.651" transform="translate(19.954 100.337)"/><rect class="f" width="83.941" height="4.725" transform="translate(11.701 18.049)"/><rect class="u" width="83.941" height="4.725" transform="translate(14.233 80.176)"/><rect class="f" width="59.669" height="4.725" transform="translate(14.233 72.093)"/><rect class="f" width="39.944" height="4.725" transform="translate(82.066 72.093)"/><rect class="f" width="61.419" height="4.2" transform="translate(60.459 42.188)"/><rect class="u" width="65.708" height="4.2" transform="translate(47.592 49.637)"/><rect class="f" width="40.395" height="4.2" transform="translate(15.377 42.188)"/><rect class="f" width="88.784" height="4.2" transform="translate(33.094 56.871)"/><rect class="u" width="13.037" height="4.2" transform="translate(15.377 56.871)"/><rect class="u" width="58.599" height="4.2" transform="translate(63.271 64.327)"/><rect class="f" width="40.395" height="4.2" transform="translate(15.377 64.327)"/><rect class="f" width="25.977" height="4.2" transform="translate(15.377 49.46)"/><path class="f" d="M56.77,173.989a6.857,6.857,0,0,0-1.129,5.167,2.436,2.436,0,0,1,0,.982,2.214,2.214,0,0,1-.443.738,75.938,75.938,0,0,1-10.46,10.66,1.078,1.078,0,0,1-.376.236,1.107,1.107,0,0,1-.738-.1,5.89,5.89,0,0,0-3.455-.627,3.47,3.47,0,0,0-2.281,2.178,5.906,5.906,0,0,0-.17,3.241,49.107,49.107,0,0,1,3.935-2.953l1.941,1.927a.864.864,0,0,1,.34.65.842.842,0,0,1-.229.4l-2.864,3.381a5.544,5.544,0,0,0,5.677-.945,3.923,3.923,0,0,0,.251-5.433l10.992-12.321a4.208,4.208,0,0,0,5.1-.074,5.537,5.537,0,0,0,1.919-4.916A20.61,20.61,0,0,0,61,179.082l-2.215-2.761c.782-.738,3.817-2.776,1.846-3.573A3.7,3.7,0,0,0,56.77,173.989Z" transform="translate(-12.81 -66.92)"/><path class="v" d="M138.01,192.99l1.056-3.359s-4.171-3.292-4.3-3.086l-.17-2.429,3.817-4.06-1.757-3.049s-5.167.842-5.167,1.078a24.427,24.427,0,0,0-3.211-2.547L128.118,170l-3.4-.923s-3.108,4.311-2.9,4.429c0,0-2.392.5-3.536.864l-3.868-3.292-2.953,1.9s.878,4.112,1.225,4.975c-.827.908-1.86,1.934-1.86,1.934l-5.507.886-.472,3.484s3.876,2.1,4.629,2.311A12.07,12.07,0,0,0,110,189.9l-3,4.621,2.266,2.687s3-1.056,4.311-1.631c1.218,1.107,2.953,2.421,2.953,2.421l1.388,5.4,3.514.148s1.69-3.935,1.868-4.8a17.406,17.406,0,0,1,3.4-.044l4.939,2.591,2.473-2.51a50.488,50.488,0,0,0-2.384-4.665,9.659,9.659,0,0,0,.849-1.211Zm-16.388.125a6.983,6.983,0,1,1,6.976-6.983,6.983,6.983,0,0,1-6.976,6.983Z" transform="translate(-30.424 -66.004)"/><path class="w" d="M212.5,105.3c1.307-2.584,4.141-4.119,7-4.584a27.866,27.866,0,0,1,8.637.4c-2.768,2.215-10.5,5.514-10.645,6.1a17.993,17.993,0,0,0-.037,3.145c.1,1.521.155,3.115.148,4.636a11.811,11.811,0,0,0-2.377-1.8,5.906,5.906,0,0,1-1.993-1.277,6.135,6.135,0,0,1-.731-6.622Z" transform="translate(-58.437 -48.055)"/><path class="f" d="M259.8,167.024a34.4,34.4,0,0,1-9.818-1.639,1.48,1.48,0,0,1,.849-2.835c7.6,2.288,13.325,1.986,16.979-.9,4.975-3.905,4.651-11.346,4.651-11.42a1.478,1.478,0,1,1,2.953-.148c0,.362.391,9.058-5.78,13.9A15.446,15.446,0,0,1,259.8,167.024Z" transform="translate(-68.144 -60.663)"/><path class="x" d="M259.8,167.024a34.4,34.4,0,0,1-9.818-1.639,1.48,1.48,0,0,1,.849-2.835c7.6,2.288,13.325,1.986,16.979-.9,4.975-3.905,4.651-11.346,4.651-11.42a1.478,1.478,0,1,1,2.953-.148c0,.362.391,9.058-5.78,13.9A15.446,15.446,0,0,1,259.8,167.024Z" transform="translate(-68.144 -60.663)"/><path class="f" d="M247.895,162.988a3.913,3.913,0,0,1,1.868,2.023c.325,1.255-.65,2.458-1.654,3.278a6.179,6.179,0,0,1-3.064,1.476c-1.668.2-3.263-.7-4.651-1.654a6.157,6.157,0,0,1-1.934-1.868c-1.284-2.259.376-5.167,2.554-6.127C243.429,159.075,246,161.74,247.895,162.988Z" transform="translate(-65.285 -63.596)"/><path class="y" d="M247.895,162.988a3.913,3.913,0,0,1,1.868,2.023c.325,1.255-.65,2.458-1.654,3.278a6.179,6.179,0,0,1-3.064,1.476c-1.668.2-3.263-.7-4.651-1.654a6.157,6.157,0,0,1-1.934-1.868c-1.284-2.259.376-5.167,2.554-6.127C243.429,159.075,246,161.74,247.895,162.988Z" transform="translate(-65.285 -63.596)"/></g></svg>