<?xml version="1.0" encoding="utf-8"?>
<!-- Generator: Adobe Illustrator 23.0.5, SVG Export Plug-In . SVG Version: 6.00 Build 0)  -->
<svg version="1.1" xmlns="http://www.w3.org/2000/svg" xmlns:xlink="http://www.w3.org/1999/xlink" x="0px" y="0px"
	 viewBox="0 0 1920 598" style="enable-background:new 0 0 1920 598;" xml:space="preserve">
<style type="text/css">
	.st0{opacity:0.8;fill:#FF7F27;}
	.st1{fill:#FCC79B;}
	.st2{fill:#005362;}
	.st3{fill:#FFFFFF;}
	.st4{fill:#5790A1;}
	.st5{fill:#FF7F27;}
	.st6{fill:none;stroke:#FFFFFF;stroke-miterlimit:10;}
	.st7{fill:#E5B790;}
	.st8{font-family:'Roboto-Thin';}
	.st9{font-size:24px;}
	.st10{font-family:'Roboto-Regular';}
	.st11{font-size:32px;}
</style>
<g id="Layer_1">
	<g>
		<rect class="st0" width="1920" height="598"/>
		<g>
			<g>
				<g>
					<rect x="259.72" y="190.69" class="st1" width="178.97" height="218.82"/>
					<g>
						<path class="st2" d="M243.12,439.85v-282h214v282H243.12z M259.72,190.69l1.83,218.82h177.15l0.17-218.82H259.72z"/>
					</g>
					<g>
						<g>
							<circle class="st3" cx="387.82" cy="236.38" r="30"/>
							<circle class="st2" cx="387.82" cy="236.38" r="7.5"/>
							<g>
								<polygon class="st2" points="386.83,239.38 390.82,235.39 406.12,253.44 404.88,254.68 								"/>
							</g>
						</g>
						<g>
							<circle class="st3" cx="387.82" cy="307.23" r="30"/>
							<circle class="st2" cx="387.82" cy="307.23" r="7.5"/>
							<g>
								<polygon class="st2" points="384.82,306.24 388.82,310.23 370.77,325.53 369.53,324.29 								"/>
							</g>
						</g>
					</g>
					<rect x="282.41" y="206.38" class="st4" width="14.59" height="38.62"/>
					<rect x="282.41" y="252.5" class="st4" width="14.59" height="38.62"/>
					<rect x="282.41" y="298.61" class="st4" width="14.59" height="38.62"/>
					<rect x="282.41" y="344.73" class="st4" width="14.59" height="46.59"/>
					<rect x="306.41" y="206.38" class="st4" width="14.59" height="38.62"/>
					<rect x="306.41" y="252.5" class="st4" width="14.59" height="38.62"/>
					<rect x="306.41" y="298.61" class="st4" width="14.59" height="38.62"/>
					<rect x="306.41" y="344.73" class="st5" width="38.59" height="46.59"/>
					<rect x="330.41" y="206.38" class="st4" width="14.59" height="38.62"/>
					<rect x="330.41" y="252.5" class="st4" width="14.59" height="38.62"/>
					<rect x="330.41" y="298.61" class="st4" width="14.59" height="38.62"/>
				</g>
				<path class="st3" d="M281.61,354.09l-101.23-1.75c-2.09,0.7-0.7-3.84-0.7-3.84s32.81-4.89,34.21-6.63
					c23.74-6.63,17.11-19.55,17.11-19.55s-63.53,5.93-71.91,5.93c-8.38,0-18.85,3.49-18.85,3.49l-43.29,20.6L0,349.73v4.01v19.9
					v46.78c0,0,94.5-1.4,96.6-1.75c26.74,16.53,62.78,19.69,82.21,20.08l0,0l26.51,1.1c9.77,0,11.26-6.88,10.82-11.76
					c-0.67-7.41-10.27-6.63-10.27-6.63l-6.48-0.12c0.28-1.36,0.55-2.75,0.81-4.18h18.74c9.77,0,11.26-6.88,10.82-11.76
					c-0.67-7.41-10.27-6.63-10.27-6.63l-16.63-0.3c0.2-1.75,0.38-3.46,0.55-5.1h21.11c9.77,0,11.26-6.88,10.82-11.76
					c-0.67-7.41-10.27-6.63-10.27-6.63l-21-0.38c-0.78-3.46,1.45-4.09,1.45-4.09h73.66c9.77,0,10.47-4.89,10.82-9.77
					C290.34,355.84,281.61,354.09,281.61,354.09z"/>
			</g>
			<g>
				<rect x="637.16" y="438.32" class="st4" width="148.02" height="68.55"/>
				<rect x="637.16" y="509.89" class="st2" width="148.02" height="15.07"/>
				<polygon class="st2" points="813.43,463.18 790.46,463.18 790.46,524.95 837.16,524.95 837.16,486.91 				"/>
				<polygon class="st3" points="829.44,494.07 794.98,494.07 794.98,470.34 810.98,470.34 829.44,488.79 				"/>
				<g>
					<circle class="st2" cx="666.79" cy="534.24" r="14.81"/>
					<circle class="st1" cx="666.79" cy="534.24" r="8.54"/>
				</g>
				<g>
					<circle class="st2" cx="809.79" cy="534.24" r="14.81"/>
					<circle class="st1" cx="809.79" cy="534.24" r="8.54"/>
				</g>
			</g>
			<g>
				<g>
					<g>
						<path class="st3" d="M684.38,379.36l-3.49,1.23c-1.26-2.08-2.95-3.79-4.9-5.06l1.34-3.45c-1.48-0.88-3.06-1.57-4.72-2.05
							l-1.6,3.33c-2.27-0.55-4.67-0.62-7.04-0.12l-1.49-3.38c-0.82,0.21-1.64,0.46-2.45,0.78c-0.81,0.32-1.58,0.69-2.33,1.11
							l1.23,3.49c-2.08,1.26-3.79,2.95-5.06,4.9l-3.45-1.34c-0.88,1.48-1.57,3.06-2.05,4.72l3.33,1.6
							c-0.55,2.27-0.62,4.67-0.12,7.04l-3.38,1.49c0.21,0.82,0.46,1.64,0.78,2.45c0.32,0.81,0.69,1.58,1.11,2.33l3.49-1.23
							c1.26,2.08,2.95,3.79,4.9,5.06l-1.34,3.45c1.48,0.88,3.06,1.57,4.72,2.05l1.6-3.33c2.27,0.55,4.67,0.62,7.04,0.12l1.49,3.38
							c0.82-0.21,1.64-0.46,2.45-0.78c0.81-0.32,1.58-0.69,2.33-1.11l-1.23-3.49c2.08-1.26,3.79-2.95,5.06-4.9l3.45,1.34
							c0.88-1.48,1.57-3.06,2.05-4.72l-3.33-1.6c0.55-2.27,0.62-4.67,0.12-7.05l3.38-1.49c-0.21-0.82-0.46-1.64-0.78-2.45
							C685.17,380.87,684.8,380.1,684.38,379.36z M671.16,398.81c-5.47,2.16-11.67-0.52-13.83-6s0.52-11.67,6-13.83
							c5.47-2.16,11.67,0.52,13.83,6C679.32,390.45,676.63,396.65,671.16,398.81z"/>
					</g>
					<g>
						<path class="st4" d="M701.16,343.33l-2.52,2.02c-1.64-1.35-3.53-2.27-5.51-2.76l0.11-3.23c-1.48-0.3-2.98-0.41-4.49-0.32
							l-0.35,3.22c-2.03,0.2-4.03,0.84-5.85,1.94l-2.21-2.36c-0.62,0.41-1.22,0.86-1.8,1.36s-1.11,1.03-1.6,1.59l2.02,2.52
							c-1.35,1.64-2.27,3.53-2.76,5.51l-3.23-0.11c-0.3,1.48-0.41,2.98-0.32,4.49l3.22,0.35c0.2,2.03,0.84,4.03,1.94,5.85
							l-2.36,2.21c0.41,0.62,0.86,1.22,1.36,1.8c0.5,0.58,1.03,1.11,1.59,1.6l2.52-2.02c1.64,1.35,3.53,2.27,5.51,2.76l-0.11,3.23
							c1.48,0.3,2.98,0.41,4.49,0.32l0.35-3.22c2.03-0.2,4.03-0.84,5.85-1.94l2.21,2.36c0.62-0.41,1.22-0.86,1.8-1.36
							c0.58-0.5,1.11-1.03,1.6-1.59l-2.02-2.52c1.35-1.64,2.27-3.53,2.76-5.51l3.23,0.11c0.3-1.48,0.41-2.98,0.32-4.49l-3.22-0.35
							c-0.2-2.03-0.84-4.03-1.94-5.85l2.36-2.21c-0.41-0.62-0.86-1.22-1.36-1.8C702.24,344.35,701.71,343.82,701.16,343.33z
							 M695.87,363.22c-3.89,3.37-9.78,2.95-13.16-0.94s-2.95-9.78,0.94-13.16c3.89-3.37,9.78-2.95,13.16,0.94
							C700.19,353.96,699.77,359.85,695.87,363.22z"/>
					</g>
					<g>
						<path class="st1" d="M670.02,343.98l-4.47,0.4c-0.86-2.82-2.33-5.33-4.25-7.42l2.61-3.65c-1.47-1.48-3.13-2.76-4.93-3.81
							l-2.88,3.44c-2.5-1.33-5.3-2.12-8.24-2.24l-0.74-4.42c-1.03,0-2.07,0.05-3.12,0.19c-1.05,0.13-2.07,0.34-3.07,0.6l0.4,4.47
							c-2.82,0.86-5.33,2.33-7.42,4.25l-3.65-2.61c-1.48,1.47-2.76,3.13-3.81,4.93l3.44,2.88c-1.33,2.5-2.12,5.3-2.24,8.24
							l-4.42,0.74c0,1.03,0.05,2.07,0.19,3.12c0.13,1.05,0.34,2.07,0.6,3.07l4.47-0.4c0.86,2.82,2.33,5.33,4.25,7.42l-2.61,3.65
							c1.47,1.48,3.13,2.76,4.93,3.81l2.88-3.44c2.5,1.33,5.3,2.12,8.24,2.24l0.74,4.42c1.03,0,2.07-0.05,3.12-0.19
							c1.05-0.13,2.07-0.34,3.07-0.6l-0.4-4.47c2.82-0.86,5.33-2.33,7.42-4.25l3.65,2.61c1.48-1.47,2.76-3.13,3.81-4.93l-3.44-2.88
							c1.33-2.5,2.12-5.3,2.24-8.24l4.42-0.74c0-1.03-0.05-2.07-0.19-3.12C670.49,346,670.29,344.98,670.02,343.98z M648.66,362.89
							c-7.08,0.91-13.56-4.1-14.46-11.18c-0.91-7.08,4.1-13.56,11.18-14.46c7.08-0.91,13.56,4.1,14.46,11.18
							C660.75,355.51,655.74,361.98,648.66,362.89z"/>
					</g>
				</g>
				<g>
					<path class="st3" d="M745.77,366.78h4.21v5.95h-4.21v8.05h-7.38v-8.05h-15.25l-0.33-4.65l13.59-36.39h9.38V366.78z
						 M729.33,366.78h9.06v-25.03L729.33,366.78z"/>
					<path class="st3" d="M752.26,377.16c0-0.56,0.1-1.09,0.29-1.57c0.2-0.49,0.48-0.9,0.84-1.25s0.8-0.63,1.32-0.83
						c0.51-0.2,1.08-0.31,1.71-0.31s1.2,0.1,1.72,0.31c0.52,0.2,0.96,0.48,1.33,0.83s0.65,0.77,0.84,1.25
						c0.2,0.49,0.29,1.01,0.29,1.57c0,0.56-0.1,1.08-0.29,1.56c-0.2,0.48-0.48,0.89-0.84,1.24s-0.81,0.62-1.33,0.82
						c-0.52,0.2-1.09,0.29-1.72,0.29s-1.2-0.1-1.71-0.29c-0.51-0.2-0.95-0.47-1.32-0.82s-0.65-0.76-0.84-1.24
						C752.35,378.24,752.26,377.72,752.26,377.16z"/>
					<path class="st3" d="M788.23,365.4c0,2.79-0.3,5.19-0.91,7.19c-0.6,2-1.46,3.65-2.55,4.94c-1.1,1.29-2.42,2.24-3.96,2.85
						s-3.25,0.91-5.12,0.91c-1.87,0-3.58-0.3-5.12-0.91c-1.54-0.6-2.87-1.55-3.97-2.85c-1.11-1.29-1.97-2.94-2.58-4.94
						c-0.61-2-0.92-4.4-0.92-7.19v-18.36c0-2.79,0.3-5.19,0.91-7.19c0.6-2,1.46-3.64,2.57-4.93c1.11-1.29,2.43-2.23,3.96-2.84
						s3.24-0.91,5.11-0.91s3.58,0.3,5.12,0.91s2.87,1.55,3.97,2.84c1.11,1.29,1.97,2.93,2.58,4.93c0.61,2,0.92,4.4,0.92,7.19V365.4z
						 M780.85,346c0-1.65-0.11-3.04-0.34-4.16c-0.23-1.12-0.57-2.03-1.02-2.72s-1-1.19-1.65-1.49s-1.38-0.46-2.2-0.46
						s-1.55,0.15-2.18,0.46c-0.64,0.31-1.18,0.8-1.62,1.49c-0.44,0.69-0.78,1.6-1.01,2.72s-0.34,2.51-0.34,4.16v20.38
						c0,1.67,0.12,3.07,0.36,4.21c0.24,1.14,0.58,2.06,1.02,2.77c0.44,0.71,0.99,1.21,1.63,1.52s1.38,0.46,2.2,0.46
						s1.55-0.15,2.2-0.46c0.65-0.31,1.19-0.81,1.62-1.52c0.43-0.71,0.77-1.63,1-2.77c0.23-1.14,0.34-2.55,0.34-4.21V346z"/>
				</g>
			</g>
			<g>
				<path class="st3" d="M579.46,421.64h-9.71c-5.33,0-9.65-1.8-12.83-5.36c-6.9-7.71-5.83-21.04-5.67-22.68v-56.34
					c0-9.82-2.24-16.82-6.66-20.83c-4.31-3.9-9.36-3.51-9.41-3.51l-0.25,0.01h-77.81v-5h77.71c1.1-0.07,7.52-0.27,13.11,4.79
					c5.51,4.99,8.31,13.24,8.31,24.53l-0.02,56.75c-0.01,0.12-1.29,12.58,4.42,18.95c2.23,2.48,5.2,3.69,9.1,3.69h9.71
					c3.9,0,6.88-1.21,9.11-3.7c5.73-6.4,4.42-18.82,4.41-18.94l-0.02-0.28V207.85c0-11.29,2.8-19.54,8.31-24.53
					c5.59-5.06,12.02-4.86,13.11-4.79h56.91c1.29-0.11,10.16-0.58,16.85,5.46c4.83,4.36,7.29,10.93,7.29,19.52v78.71
					c0,0.09,0,5.77,4.28,10.1c3.45,3.49,8.77,5.26,15.81,5.26h814.45v5H715.51c-8.46,0-15-2.29-19.43-6.81
					c-5.75-5.86-5.67-13.29-5.66-13.6V203.5c0-7.09-1.88-12.4-5.6-15.77c-5.41-4.91-13.1-4.22-13.18-4.21l-0.25,0.01l-57.37-0.01
					c-0.19-0.02-5.15-0.39-9.48,3.57c-4.38,4.01-6.59,11-6.59,20.76V393.6c0.16,1.64,1.23,14.97-5.67,22.68
					C589.1,419.84,584.79,421.64,579.46,421.64z"/>
			</g>
			<rect x="1596.8" y="310.17" class="st3" width="56.08" height="8.82"/>
			<rect x="1622.34" y="343.45" class="st1" width="5" height="75.67"/>
			<g>
				<g>
					<g>
						<g>
							<path class="st3" d="M1571.31,315.44l3.08-2.94c-3.29-3.44-5.32-8.1-5.32-13.23c0-5.13,2.03-9.78,5.32-13.23l-3.08-2.94
								c-4.02,4.21-6.5,9.9-6.5,16.17C1564.81,305.54,1567.28,311.23,1571.31,315.44z"/>
							<path class="st3" d="M1549.77,336.02l3.08-2.94c-8.41-8.8-13.59-20.7-13.59-33.8s5.18-25.01,13.59-33.8l-3.08-2.94
								c-9.14,9.56-14.77,22.5-14.77,36.74C1535,313.51,1540.63,326.45,1549.77,336.02z"/>
							<path class="st3" d="M1559,327.2l3.08-2.94c-6.21-6.5-10.04-15.3-10.04-24.98c0-9.68,3.83-18.48,10.04-24.98l-3.08-2.94
								c-6.95,7.27-11.23,17.1-11.23,27.92S1552.05,319.93,1559,327.2z"/>
						</g>
						<g>
							<g>
								<rect x="1579.42" y="255.1" class="st2" width="162.25" height="88.35"/>
								<rect x="1587.23" y="262.44" class="st1" width="136.43" height="73.66"/>
							</g>
							<g>
								
									<rect x="1596.8" y="302.23" transform="matrix(6.123234e-17 -1 1 6.123234e-17 1294.5648 1924.2)" class="st4" width="25.17" height="25.17"/>
								
									<rect x="1596.8" y="271.15" transform="matrix(6.123234e-17 -1 1 6.123234e-17 1325.6525 1893.1123)" class="st3" width="25.17" height="25.17"/>
								
									<rect x="1627.71" y="302.23" transform="matrix(6.123234e-17 -1 1 6.123234e-17 1325.4747 1955.1099)" class="st2" width="25.17" height="25.17"/>
								
									<rect x="1627.71" y="271.15" transform="matrix(6.123234e-17 -1 1 6.123234e-17 1356.5624 1924.0222)" class="st4" width="25.17" height="25.17"/>
								
									<rect x="1658.62" y="302.23" transform="matrix(6.123234e-17 -1 1 6.123234e-17 1356.3848 1986.0198)" class="st3" width="25.17" height="25.17"/>
								
									<rect x="1658.62" y="271.15" transform="matrix(6.123234e-17 -1 1 6.123234e-17 1387.4723 1954.9321)" class="st2" width="25.17" height="25.17"/>
								
									<rect x="1688.77" y="277.77" transform="matrix(6.123234e-17 -1 1 6.123234e-17 1417.6227 1981.7961)" class="st4" width="21.88" height="8.64"/>
								
									<rect x="1682.48" y="305.85" transform="matrix(6.123234e-17 -1 1 6.123234e-17 1389.5403 2009.8787)" class="st5" width="34.46" height="8.64"/>
							</g>
						</g>
					</g>
					<g>
						<path class="st3" d="M1787.48,233.25l-50.81-6.4c-10.48-3.02-22.38,0.89-22.38,0.89l-54.54,14.21
							c-2.13,10.84,11.45,13.15,11.45,13.15h11.29c8.35,0,30.55-3.55,30.55-3.55c3.73,0,4.62,3.55,4.62,3.55h24v73.01
							c48.69-11.19,52.39-34.28,52.39-34.28L1920,250.84v-71.06L1787.48,233.25z"/>
						<path class="st3" d="M1680.71,343.45c-2.84,4.68-1.07,8.5-1.07,8.5c3.91,10.16,16.7,3.34,16.7,3.34
							c8.53,10.66,17.23,0.18,17.23,0.18c4.44,6.93,11.37,4.62,11.37,4.62c10.66-4.8,6.75-16.64,6.75-16.64H1680.71z"/>
						<path class="st3" d="M1644.83,360.46c4.09,3.39,11.37-2.15,11.37-2.15l10.66-14.86h-24.51
							C1635.59,352.57,1640.74,357.07,1644.83,360.46z"/>
					</g>
				</g>
				<g>
					<circle class="st3" cx="1624.84" cy="479.06" r="64.49"/>
					<g>
						<path class="st1" d="M1652.78,465.8c-1.14,5.44-2.93,9.8-5.78,10.24c0,0,3.61-29.79-4.9-28.81
							c-8.51,0.98-9.28,3.42-17.27,3.42c-7.99,0-8.76-2.44-17.27-3.42c-8.51-0.98-4.9,28.81-4.9,28.81
							c-2.84-0.43-4.64-4.8-5.78-10.24c0,0-2.99,15.12,5.52,16.83c0,0,7.99,22.46,22.43,22.47c14.44,0,22.43-22.47,22.43-22.47
							C1655.77,480.92,1652.78,465.8,1652.78,465.8z"/>
						<g>
							<path class="st4" d="M1595.09,442.58h59.65c12.63,0,3.59-5.62,3.59-5.62c-3.63-25.4-23.96-30.28-23.96-30.28
								c0.26-8.79-9.54-7.57-9.54-7.57s-9.8-1.22-9.54,7.57c0,0-20.33,4.88-23.96,30.28c0,0-9.04,5.62,3.59,5.62H1595.09z"/>
							<path class="st6" d="M1654.74,442.58"/>
						</g>
						<path class="st2" d="M1595.01,449.4c0.42,9.53,1.95,25.78,7.58,26.64c0,0-3.61-29.79,4.9-28.81
							c8.51,0.98,9.28,3.42,17.27,3.42c7.99,0,8.76-2.44,17.27-3.42c8.51-0.98,4.9,28.81,4.9,28.81c7.29-1.11,7.71-28,7.73-32.73
							v-0.72h-59.65V449.4z"/>
						<g>
							<g>
								<path class="st2" d="M1600.35,509.24l-37.12,14.16c0,0-10.57,1.22-13.4,19.53l-2.32,16.12h77.33v-42.79
									c0,0-8.51,6.6-11.41,9.43C1613.43,525.7,1601.46,508.82,1600.35,509.24z"/>
								<path class="st7" d="M1607.23,492.34c0,0,1.35,5.67-0.7,10.31c0,0,9.23,12.88,18.31,13.61v-11.17
									C1616.97,505.09,1611.02,498.42,1607.23,492.34z"/>
								<path class="st4" d="M1606.52,502.65c0,0-2.57-0.24-6.18,6.59c1.11-0.42,13.08,16.46,13.08,16.46
									c2.9-2.84,11.41-9.43,11.41-9.43C1615.75,515.53,1606.52,502.65,1606.52,502.65z"/>
							</g>
							<g>
								<path class="st2" d="M1649.33,509.24l37.12,14.16c0,0,10.57,1.22,13.4,19.53l2.32,16.12h-77.33v-42.79
									c0,0,8.51,6.6,11.41,9.43C1636.24,525.7,1648.22,508.82,1649.33,509.24z"/>
								<path class="st7" d="M1642.45,492.34c0,0-1.35,5.67,0.7,10.31c0,0-9.23,12.88-18.31,13.61v-11.17
									C1632.71,505.09,1638.66,498.42,1642.45,492.34z"/>
								<path class="st4" d="M1643.15,502.65c0,0,2.57-0.24,6.18,6.59c-1.11-0.42-13.08,16.46-13.08,16.46
									c-2.9-2.84-11.41-9.43-11.41-9.43C1633.92,515.53,1643.15,502.65,1643.15,502.65z"/>
							</g>
						</g>
					</g>
				</g>
			</g>
			<g>
				<g>
					<polygon class="st2" points="1137.65,487.15 1027.65,487.15 1027.65,573.03 1036.1,573.03 1036.1,579.06 1059.98,579.06 
						1059.98,573.03 1105.33,573.03 1105.33,579.06 1129.21,579.06 1129.21,573.03 1137.65,573.03 					"/>
					<rect x="1036.1" y="497.77" class="st3" width="93.11" height="66.34"/>
					<g>
						<polygon class="st1" points="1096.74,534.07 1081.3,542.27 1081.3,560.24 1096.74,552.04 						"/>
						<polygon class="st2" points="1081.3,526.95 1069.33,532.47 1069.33,535.91 1081.3,542.27 1096.74,534.07 						"/>
						<polygon class="st4" points="1069.33,535.91 1069.33,526.95 1065.87,526.95 1065.87,534.07 1065.87,538.11 1065.87,552.04 
							1081.3,560.24 1081.3,542.27 						"/>
						<polygon class="st2" points="1074.84,504.52 1069.33,504.52 1069.33,497.77 1065.87,497.77 1065.87,504.52 1060.36,504.52 
							1060.36,521.89 1065.87,521.89 1065.87,526.95 1069.33,526.95 1069.33,521.89 1074.84,521.89 						"/>
					</g>
				</g>
				<g>
					<rect x="1065.1" y="331.26" class="st4" width="5" height="155.89"/>
				</g>
			</g>
			<g>
				<circle class="st1" cx="960" cy="300.06" r="130"/>
				<g>
					<g>
						<g>
							<g>
								<polygon class="st4" points="957.49,300.71 921.74,320.83 921.74,324.88 957.49,304.76 								"/>
								<polygon class="st4" points="993.23,300.71 957.49,320.83 957.49,324.88 993.23,304.76 								"/>
								<polygon class="st4" points="993.23,320.83 993.23,324.88 1028.98,304.76 1028.98,300.71 								"/>
							</g>
							<polygon class="st2" points="994.51,324.16 993.23,324.16 993.23,304.76 958.76,324.16 957.49,324.16 957.49,304.76 
								923.87,323.68 920.12,265.9 898.57,265.9 891.02,382.18 1028.98,382.18 1028.98,326.14 1028.98,324.16 1028.98,304.76 
															"/>
						</g>
						<g>
							<rect x="928.62" y="331.65" class="st3" width="25.15" height="9.82"/>
							<rect x="961.68" y="331.65" class="st3" width="25.15" height="9.82"/>
							<rect x="994.73" y="331.65" class="st3" width="25.15" height="9.82"/>
						</g>
					</g>
					<path class="st3" d="M959.24,219.01c-2.2,0-4.21,0.81-5.76,2.14c0.43-1.13,0.68-2.35,0.68-3.63c0-5.63-4.57-10.2-10.2-10.2
						c-4.8,0-8.81,3.32-9.9,7.78c-1.76-1.83-4.23-2.98-6.97-2.98c-2.67,0-5.09,1.08-6.84,2.84c-1.73-2.62-4.7-4.35-8.07-4.35
						c-5.34,0-9.66,4.33-9.66,9.66c0,1.55,0.37,3.01,1.02,4.31c-3.85,0.96-6.71,4.43-6.71,8.57c0,3.63,2.18,6.74,5.31,8.1
						c-1.27,1.78-2.02,3.95-2.02,6.3c0,6,4.86,10.87,10.87,10.87c6,0,10.87-4.86,10.87-10.87c0-0.78-0.09-1.54-0.24-2.28
						c2.02,1.43,4.47,2.28,7.13,2.28c6.82,0,12.35-5.53,12.35-12.35c0-0.44-0.02-0.87-0.07-1.29c1.34,0.81,2.9,1.29,4.58,1.29
						c2.43,0,4.62-0.98,6.22-2.56c1.58,2.43,4.31,4.05,7.42,4.05c4.88,0,8.84-3.96,8.84-8.84
						C968.08,222.97,964.12,219.01,959.24,219.01z"/>
					<g>
						<path class="st4" d="M965.74,292.57l3.51,3.68c4.11-3.93,9.68-6.36,15.81-6.36s11.7,2.42,15.81,6.36l3.51-3.68
							c-5.03-4.81-11.83-7.77-19.32-7.77S970.77,287.77,965.74,292.57z"/>
						<path class="st4" d="M941.14,266.83l3.51,3.68c10.51-10.05,24.75-16.24,40.4-16.24c15.66,0,29.89,6.19,40.4,16.24l3.51-3.68
							c-11.43-10.92-26.9-17.66-43.92-17.66C968.04,249.18,952.57,255.91,941.14,266.83z"/>
						<path class="st4" d="M951.68,277.86l3.51,3.68c7.77-7.43,18.29-12.01,29.86-12.01c11.57,0,22.09,4.58,29.86,12.01l3.51-3.68
							c-8.69-8.3-20.44-13.42-33.38-13.42C972.13,264.44,960.37,269.56,951.68,277.86z"/>
					</g>
				</g>
			</g>
			<g>
				<path class="st3" d="M955.68,451.5c-3.35-0.09-6.74-0.3-10.07-0.61l0.28-2.99c3.27,0.31,6.59,0.51,9.88,0.6L955.68,451.5z
					 M965.77,451.45l-0.11-3c3.29-0.12,6.61-0.36,9.87-0.7l0.31,2.98C972.52,451.09,969.13,451.32,965.77,451.45z M935.59,449.6
					c-3.31-0.54-6.64-1.19-9.91-1.95l0.68-2.92c3.2,0.74,6.46,1.38,9.71,1.91L935.59,449.6z M985.84,449.36l-0.51-2.96
					c3.24-0.56,6.5-1.23,9.69-2l0.71,2.92C992.47,448.11,989.14,448.8,985.84,449.36z M915.93,445.05
					c-3.22-0.98-6.44-2.07-9.57-3.26l1.06-2.8c3.07,1.16,6.23,2.24,9.38,3.2L915.93,445.05z M1005.45,444.62l-0.9-2.86
					c3.14-0.99,6.28-2.09,9.33-3.28l1.09,2.79C1011.86,442.49,1008.65,443.62,1005.45,444.62z M897.03,437.89
					c-3.05-1.4-6.09-2.91-9.04-4.51l1.43-2.64c2.89,1.57,5.88,3.05,8.86,4.42L897.03,437.89z M1024.24,437.3l-1.27-2.72
					c2.97-1.39,5.93-2.9,8.8-4.49l1.45,2.63C1030.29,434.34,1027.27,435.88,1024.24,437.3z M879.27,428.28
					c-2.83-1.79-5.64-3.69-8.36-5.67l1.77-2.43c2.66,1.94,5.42,3.81,8.19,5.56L879.27,428.28z M1041.89,427.54l-1.63-2.52
					c2.77-1.78,5.5-3.68,8.14-5.63l1.79,2.41C1047.5,423.8,1044.71,425.73,1041.89,427.54z M862.95,416.39
					c-2.58-2.15-5.11-4.41-7.53-6.73l2.07-2.17c2.38,2.27,4.86,4.48,7.38,6.59L862.95,416.39z M1058.09,415.52l-1.94-2.29
					c2.51-2.13,4.97-4.37,7.32-6.66l2.09,2.15C1063.15,411.07,1060.64,413.35,1058.09,415.52z M848.35,402.46
					c-2.26-2.47-4.47-5.04-6.57-7.66l2.34-1.88c2.06,2.56,4.23,5.09,6.45,7.51L848.35,402.46z M1072.56,401.46l-2.23-2.01
					c2.2-2.43,4.34-4.98,6.38-7.57l2.36,1.86C1076.99,396.38,1074.8,398.98,1072.56,401.46z M835.72,386.73
					c-1.92-2.74-3.77-5.59-5.5-8.46l2.57-1.55c1.7,2.81,3.51,5.6,5.39,8.29L835.72,386.73z M1085.05,385.61l-2.47-1.7
					c1.86-2.72,3.65-5.53,5.32-8.35l2.58,1.53C1088.78,379.97,1086.95,382.83,1085.05,385.61z M825.3,369.47
					c-1.54-2.98-2.99-6.04-4.32-9.11l2.75-1.2c1.3,3,2.73,6.01,4.24,8.93L825.3,369.47z M1095.33,368.22l-2.68-1.35
					c1.48-2.93,2.88-5.95,4.16-8.99l2.76,1.17C1098.27,362.15,1096.84,365.24,1095.33,368.22z M817.27,350.98
					c-1.13-3.15-2.16-6.39-3.07-9.62l2.89-0.82c0.89,3.17,1.91,6.34,3.01,9.42L817.27,350.98z M1103.21,349.62l-2.84-0.98
					c1.08-3.1,2.06-6.29,2.92-9.45l2.89,0.79C1105.31,343.2,1104.31,346.45,1103.21,349.62z M811.78,331.56
					c-0.69-3.28-1.28-6.62-1.76-9.94l2.97-0.42c0.46,3.25,1.04,6.53,1.72,9.74L811.78,331.56z M1108.51,330.15l-2.94-0.59
					c0.65-3.22,1.2-6.5,1.63-9.76l2.97,0.39C1109.73,323.51,1109.17,326.86,1108.51,330.15z M808.93,311.59
					c-0.25-3.34-0.39-6.73-0.42-10.08l3-0.03c0.03,3.29,0.17,6.62,0.42,9.89L808.93,311.59z M1111.17,310.14l-2.99-0.2
					c0.21-3.27,0.32-6.6,0.32-9.89c0-0.95-0.01-1.89-0.03-2.84l3-0.05c0.02,0.96,0.03,1.93,0.03,2.89
					C1111.5,303.41,1111.39,306.81,1111.17,310.14z M811.74,291.58l-3-0.17c0.19-3.35,0.49-6.74,0.9-10.05l2.98,0.37
					C812.22,284.98,811.92,288.29,811.74,291.58z M1107.96,287.34c-0.28-3.28-0.67-6.59-1.16-9.83l2.96-0.45
					c0.5,3.3,0.9,6.68,1.19,10.02L1107.96,287.34z M814.16,271.95l-2.95-0.56c0.63-3.29,1.38-6.6,2.23-9.85l2.9,0.76
					C815.51,265.48,814.77,268.73,814.16,271.95z M1104.98,267.79c-0.71-3.2-1.54-6.43-2.46-9.58l2.88-0.84
					c0.94,3.22,1.79,6.51,2.51,9.78L1104.98,267.79z M819.17,252.82l-2.84-0.95c1.06-3.18,2.25-6.36,3.53-9.47l2.77,1.14
					C821.38,246.59,820.22,249.71,819.17,252.82z M1099.42,248.81c-1.13-3.07-2.38-6.15-3.72-9.15l2.74-1.22
					c1.37,3.06,2.64,6.21,3.79,9.34L1099.42,248.81z M826.71,234.51l-2.69-1.33c1.49-3.01,3.09-6.01,4.77-8.91l2.6,1.5
					C829.74,228.62,828.17,231.56,826.71,234.51z M1091.38,230.77c-1.53-2.9-3.18-5.79-4.91-8.58l2.55-1.57
					c1.76,2.85,3.44,5.8,5.01,8.76L1091.38,230.77z M836.63,217.38l-2.49-1.67c1.86-2.77,3.85-5.53,5.91-8.19l2.38,1.83
					C840.4,211.96,838.45,214.66,836.63,217.38z M1081,213.95c-1.9-2.67-3.92-5.31-6.01-7.86l2.32-1.9c2.13,2.6,4.19,5.3,6.13,8.02
					L1081,213.95z M848.73,201.72l-2.25-1.99c2.22-2.51,4.55-4.98,6.94-7.34l2.11,2.13C853.19,196.84,850.9,199.26,848.73,201.72z
					 M1068.47,198.64c-2.25-2.41-4.61-4.76-7-7l2.05-2.19c2.44,2.28,4.84,4.69,7.14,7.14L1068.47,198.64z M862.79,187.8l-1.96-2.27
					c2.53-2.19,5.17-4.33,7.84-6.35l1.81,2.39C867.85,183.55,865.27,185.65,862.79,187.8z M1054.03,185.12
					c-2.54-2.08-5.19-4.11-7.86-6.02l1.74-2.44c2.73,1.95,5.43,4.01,8.02,6.14L1054.03,185.12z M878.56,175.87l-1.65-2.51
					c2.8-1.84,5.7-3.61,8.61-5.26l1.48,2.61C884.14,172.33,881.3,174.06,878.56,175.87z M1037.92,173.62
					c-2.8-1.73-5.69-3.38-8.59-4.92l1.4-2.65c2.96,1.57,5.91,3.26,8.77,5.02L1037.92,173.62z M895.76,166.14l-1.3-2.7
					c3.02-1.45,6.13-2.82,9.23-4.06l1.12,2.79C901.76,163.37,898.72,164.71,895.76,166.14z M1020.42,164.37
					c-3-1.34-6.09-2.59-9.18-3.73l1.04-2.82c3.15,1.16,6.3,2.44,9.37,3.81L1020.42,164.37z M914.1,158.79l-0.93-2.85
					c3.19-1.03,6.45-1.97,9.7-2.79l0.73,2.91C920.43,156.85,917.23,157.77,914.1,158.79z M1001.85,157.54
					c-3.16-0.93-6.39-1.75-9.58-2.46l0.65-2.93c3.26,0.72,6.55,1.57,9.78,2.51L1001.85,157.54z M933.28,153.95l-0.54-2.95
					c3.3-0.6,6.66-1.09,9.99-1.47l0.34,2.98C939.81,152.88,936.52,153.37,933.28,153.95z M982.54,153.26
					c-3.24-0.49-6.55-0.88-9.83-1.16l0.25-2.99c3.34,0.28,6.71,0.68,10.02,1.19L982.54,153.26z M952.93,151.72l-0.14-3
					c3.33-0.16,6.74-0.2,10.09-0.14l-0.05,3C959.54,151.52,956.2,151.57,952.93,151.72z"/>
			</g>
			<g>
				<path class="st1" d="M1482.03,155.65c-4.39,0-7.96,3.56-7.96,7.96c0,1.8,0.6,3.45,1.61,4.79l-15.71,22.92
					c-0.38-0.06-0.76-0.09-1.16-0.09c-0.55,0-1.1,0.06-1.62,0.17l-14.97-23.35c1.4-1.43,2.27-3.39,2.27-5.56
					c0-4.39-3.56-7.96-7.96-7.96s-7.96,3.56-7.96,7.96c0,1.97,0.72,3.76,1.9,5.15l-16.35,23.69c-0.39-0.06-0.78-0.1-1.18-0.1
					c-4.39,0-7.96,3.56-7.96,7.96s3.56,7.96,7.96,7.96s7.96-3.56,7.96-7.96c0-2.06-0.79-3.93-2.07-5.34l16.25-23.54
					c0.47,0.09,0.96,0.14,1.46,0.14c0.3,0,0.6-0.02,0.89-0.05l15.23,23.75c-1.13,1.37-1.8,3.13-1.8,5.04c0,4.39,3.56,7.96,7.96,7.96
					s7.96-3.56,7.96-7.96c0-2.07-0.79-3.94-2.09-5.36l15.42-22.5c0.62,0.15,1.26,0.24,1.92,0.24c4.39,0,7.96-3.56,7.96-7.96
					C1489.99,159.21,1486.42,155.65,1482.03,155.65z"/>
				<path class="st3" d="M1391.11,115.83l-1.96-2.27c-2.55,2.21-5,4.59-7.29,7.08l2.21,2.03
					C1386.28,120.26,1388.65,117.96,1391.11,115.83z"/>
				<path class="st3" d="M1415.11,263.79c3.15,1.23,6.4,2.28,9.67,3.14l0.76-2.9c-3.16-0.83-6.3-1.85-9.34-3.03L1415.11,263.79z"/>
				<path class="st3" d="M1397.16,254.3c2.79,1.91,5.71,3.68,8.7,5.26l1.4-2.65c-2.88-1.53-5.71-3.24-8.41-5.08L1397.16,254.3z"/>
				<path class="st3" d="M1454.77,266.52l0.25,2.99c3.37-0.29,6.76-0.77,10.06-1.43l-0.59-2.94
					C1461.3,265.78,1458.03,266.25,1454.77,266.52z"/>
				<path class="st3" d="M1425.56,97.63l-0.76-2.9c-3.26,0.85-6.52,1.91-9.67,3.14l1.09,2.79
					C1419.26,99.48,1422.4,98.46,1425.56,97.63z"/>
				<path class="st3" d="M1407.29,104.75l-1.4-2.65c-2.98,1.58-5.91,3.34-8.7,5.25l1.7,2.47
					C1401.58,107.98,1404.41,106.27,1407.29,104.75z"/>
				<path class="st3" d="M1434.75,268.94c3.33,0.47,6.74,0.76,10.13,0.86l0.08-3c-3.27-0.09-6.56-0.37-9.79-0.83L1434.75,268.94z"/>
				<path class="st3" d="M1369.9,224.59c1.66,2.93,3.51,5.81,5.5,8.54l2.43-1.77c-1.92-2.64-3.71-5.42-5.31-8.25L1369.9,224.59z"/>
				<path class="st3" d="M1384.05,238.97l-2.21,2.03c2.28,2.49,4.73,4.87,7.29,7.08l1.96-2.27
					C1388.62,243.68,1386.25,241.38,1384.05,238.97z"/>
				<path class="st3" d="M1362,155.75l2.88,0.84c0.92-3.13,2.03-6.25,3.3-9.25l-2.76-1.17C1364.1,149.28,1362.95,152.51,1362,155.75
					z"/>
				<path class="st3" d="M1362,205.91c0.95,3.24,2.1,6.46,3.42,9.57l2.76-1.17c-1.27-3.01-2.38-6.12-3.3-9.25L1362,205.91z"/>
				<path class="st3" d="M1444.97,94.87l-0.08-3c-3.38,0.09-6.79,0.38-10.12,0.86l0.42,2.97
					C1438.4,95.24,1441.69,94.96,1444.97,94.87z"/>
				<path class="st3" d="M1369.91,137.05l2.61,1.48c1.6-2.83,3.39-5.61,5.32-8.26l-2.43-1.77
					C1373.42,131.24,1371.57,134.12,1369.91,137.05z"/>
				<path class="st3" d="M1361.55,185.74l-3,0.17c0.19,3.38,0.58,6.78,1.15,10.1l2.96-0.51
					C1362.11,192.29,1361.74,189.01,1361.55,185.74z"/>
				<path class="st3" d="M1362.66,166.16l-2.96-0.51c-0.57,3.32-0.96,6.72-1.15,10.1l3,0.17
					C1361.74,172.65,1362.11,169.37,1362.66,166.16z"/>
				<path class="st3" d="M1465.1,93.59c-3.3-0.67-6.69-1.15-10.06-1.43l-0.25,2.99c3.26,0.28,6.53,0.74,9.72,1.39L1465.1,93.59z"/>
				<path class="st3" d="M1534.13,160.69c-0.76-3.29-1.72-6.57-2.86-9.75l-2.83,1.01c1.1,3.08,2.03,6.25,2.76,9.42L1534.13,160.69z"
					/>
				<path class="st3" d="M1507.34,242.51l2.09,2.15c2.42-2.36,4.74-4.87,6.88-7.48l-2.32-1.9
					C1511.92,237.8,1509.69,240.24,1507.34,242.51z"/>
				<path class="st3" d="M1507.37,119.18c2.34,2.27,4.57,4.71,6.64,7.24l2.32-1.9c-2.14-2.62-4.45-5.13-6.87-7.49L1507.37,119.18z"
					/>
				<path class="st3" d="M1535.84,170.7l-2.98,0.34c0.37,3.23,0.55,6.52,0.55,9.79c0,3.28-0.19,6.58-0.55,9.81l2.98,0.34
					c0.38-3.34,0.57-6.75,0.57-10.14C1536.42,177.45,1536.22,174.04,1535.84,170.7z"/>
				<path class="st3" d="M1519.79,134.35c1.77,2.75,3.39,5.62,4.83,8.54l2.69-1.32c-1.49-3.03-3.17-6-5-8.84L1519.79,134.35z"/>
				<path class="st3" d="M1528.44,209.74l2.83,1.01c1.14-3.18,2.1-6.47,2.86-9.76l-2.92-0.68
					C1530.46,203.5,1529.53,206.67,1528.44,209.74z"/>
				<path class="st3" d="M1519.77,227.34l2.52,1.63c1.83-2.85,3.52-5.82,5.01-8.85l-2.69-1.33
					C1523.17,221.71,1521.54,224.59,1519.77,227.34z"/>
				<path class="st3" d="M1501.78,110.36c-2.68-2.07-5.5-4-8.38-5.75l-1.55,2.57c2.79,1.69,5.51,3.55,8.1,5.55L1501.78,110.36z"/>
				<path class="st3" d="M1491.82,254.5l1.55,2.57c2.88-1.74,5.71-3.67,8.38-5.74l-1.83-2.38
					C1497.34,250.95,1494.61,252.81,1491.82,254.5z"/>
				<path class="st3" d="M1484.41,99.86c-3.07-1.41-6.26-2.65-9.47-3.69l-0.93,2.85c3.1,1.01,6.18,2.21,9.15,3.57L1484.41,99.86z"/>
				<path class="st3" d="M1473.99,262.65l0.93,2.85c3.21-1.04,6.4-2.28,9.47-3.69l-1.25-2.73
					C1480.18,260.44,1477.1,261.64,1473.99,262.65z"/>
				<path class="st3" d="M1393.25,147.68c1.7-2.77,3.63-5.43,5.73-7.9l-2.29-1.94c-2.2,2.59-4.22,5.38-6,8.28L1393.25,147.68z"/>
				<path class="st3" d="M1513.14,191.02c0.51-3.35,0.78-6.77,0.78-10.18c0-2.92-0.19-5.86-0.57-8.74l-2.97,0.39
					c0.36,2.75,0.54,5.56,0.54,8.35c0,3.26-0.25,6.53-0.74,9.73L1513.14,191.02z"/>
				<path class="st3" d="M1382.5,195.33c0.74,3.32,1.74,6.61,2.98,9.77l2.79-1.1c-1.18-3.02-2.14-6.16-2.85-9.33L1382.5,195.33z"/>
				<path class="st3" d="M1504.9,153.82c1.38,2.94,2.55,6.01,3.46,9.12l2.88-0.84c-0.96-3.26-2.18-6.48-3.62-9.55L1504.9,153.82z"/>
				<path class="st3" d="M1386.03,155.21c-1.31,3.14-2.39,6.41-3.2,9.71l2.91,0.71c0.77-3.15,1.8-6.27,3.05-9.27L1386.03,155.21z"/>
				<path class="st3" d="M1392.53,212.79l-2.59,1.51c1.71,2.93,3.66,5.76,5.81,8.4l2.33-1.89
					C1396.03,218.28,1394.16,215.59,1392.53,212.79z"/>
				<path class="st3" d="M1478.77,125.6c2.82,1.61,5.54,3.44,8.09,5.46l1.87-2.35c-2.67-2.12-5.51-4.04-8.47-5.72L1478.77,125.6z"/>
				<path class="st3" d="M1477.54,236.75l1.43,2.64c2.99-1.61,5.88-3.47,8.59-5.53l-1.81-2.39
					C1483.16,233.43,1480.4,235.2,1477.54,236.75z"/>
				<path class="st3" d="M1460.57,118.7c3.18,0.67,6.33,1.59,9.37,2.75l1.06-2.8c-3.18-1.21-6.48-2.18-9.81-2.88L1460.57,118.7z"/>
				<path class="st3" d="M1494.02,137.7c2.21,2.38,4.25,4.96,6.06,7.64l2.49-1.68c-1.9-2.81-4.04-5.51-6.35-8L1494.02,137.7z"/>
				<path class="st3" d="M1499.28,217.48c-1.88,2.65-3.97,5.18-6.23,7.51l2.16,2.09c2.36-2.44,4.56-5.09,6.52-7.86L1499.28,217.48z"
					/>
				<path class="st3" d="M1507.95,200.06c-0.98,3.09-2.21,6.13-3.66,9.05l2.69,1.34c1.52-3.05,2.81-6.24,3.84-9.48L1507.95,200.06z"
					/>
				<path class="st3" d="M1459.21,243.24l0.55,2.95c3.34-0.63,6.66-1.52,9.87-2.66l-1-2.83
					C1465.57,241.79,1462.4,242.64,1459.21,243.24z"/>
				<path class="st3" d="M1441.14,117.64c3.22-0.32,6.52-0.39,9.76-0.21l0.16-3c-3.38-0.18-6.84-0.11-10.21,0.22L1441.14,117.64z"/>
				<path class="st3" d="M1419.79,241.34c3.1,1.42,6.33,2.6,9.6,3.52l0.81-2.89c-3.13-0.88-6.21-2.01-9.16-3.36L1419.79,241.34z"/>
				<path class="st3" d="M1383.92,180.83c0-1.86,0.08-3.73,0.24-5.57l-2.99-0.26c-0.17,1.92-0.25,3.88-0.25,5.83
					c0,1.46,0.05,2.93,0.14,4.38l2.99-0.19C1383.96,183.63,1383.92,182.23,1383.92,180.83z"/>
				<path class="st3" d="M1402.77,230.12c2.52,2.29,5.24,4.39,8.07,6.26l1.65-2.5c-2.71-1.79-5.3-3.8-7.71-5.98L1402.77,230.12z"/>
				<path class="st3" d="M1405.84,132.84c2.46-2.13,5.09-4.08,7.84-5.81l-1.6-2.54c-2.88,1.81-5.64,3.85-8.21,6.08L1405.84,132.84z"
					/>
				<path class="st3" d="M1439.76,243.88l-0.36,2.98c2.64,0.32,5.33,0.48,8.01,0.48c0.73,0,1.47-0.01,2.2-0.04l-0.1-3
					C1446.27,244.4,1442.97,244.26,1439.76,243.88z"/>
				<path class="st3" d="M1422.31,122.49c2.98-1.29,6.09-2.35,9.23-3.16l-0.75-2.9c-3.29,0.85-6.55,1.96-9.67,3.31L1422.31,122.49z"
					/>
				<g>
					<g>
						<circle class="st1" cx="1544.99" cy="113.56" r="47.5"/>
						<g>
							<g>
								<path class="st2" d="M1544.99,120.3h-16c0,0,0.82,9.41,5.88,11.76h10.12h10.12c5.06-2.35,5.88-11.76,5.88-11.76H1544.99z"/>
								<rect x="1537.05" y="133.95" class="st2" width="15.41" height="2.65"/>
								<rect x="1537.05" y="138.47" class="st2" width="15.41" height="2.65"/>
								<rect x="1537.05" y="143" class="st2" width="15.41" height="2.65"/>
							</g>
							<polygon class="st3" points="1548.46,150.18 1541.05,150.18 1540.05,147.53 1549.46,147.53 							"/>
							<g>
								<path class="st3" d="M1534.27,85.77l11.14-2.55c1.97-0.44,3.55-1.91,3.07-3.72c-0.48-1.8-2.46-2.91-4.43-2.47l-11.52,2.2
									c-1.97,0.44-3.17,2.26-2.69,4.07C1530.32,85.1,1532.3,86.21,1534.27,85.77z"/>
								<path class="st3" d="M1534.27,94.66l23.17-5.19c1.97-0.44,3.17-2.26,2.69-4.06c-0.48-1.8-2.46-2.91-4.43-2.47l-23.17,5.19
									c-1.97,0.44-3.17,2.26-2.69,4.07C1530.32,93.99,1532.3,95.1,1534.27,94.66z"/>
								<path class="st3" d="M1555.7,91.82l-23.17,5.19c-1.97,0.44-3.17,2.26-2.69,4.06c0.48,1.8,2.46,2.91,4.43,2.47l23.17-5.19
									c1.97-0.44,3.17-2.26,2.69-4.06C1559.65,92.49,1557.67,91.38,1555.7,91.82z"/>
								<path class="st3" d="M1555.7,100.71l-23.17,5.19c-1.97,0.44-3.17,2.26-2.69,4.07c0.32,1.19,1.3,2.07,2.49,2.41
									c0.13,1.7,0.86,3.48,2.21,5.31l0.09,0.11c0.64,0.78,1.24,1.67,1.7,2.5h5.46c-0.78-2.42-2.47-4.66-3.25-5.62
									c-0.61-0.84-1.24-1.95-1.21-2.92l12.8-2.87c0.97,0.61,2.19,1.53,2.45,2.34c0.35,1.07-0.42,2.46-1.14,3.45
									c-0.78,0.95-2.46,3.2-3.25,5.62h5.46c0.46-0.82,1.06-1.72,1.7-2.5l0.09-0.11c2.07-2.83,2.71-5.52,1.89-8.02
									c-0.27-0.82-0.68-1.53-1.15-2.14l1.26-0.28c1.97-0.44,3.17-2.26,2.69-4.06C1559.65,101.38,1557.67,100.27,1555.7,100.71z"/>
							</g>
						</g>
					</g>
					<g>
						<g>
							<path class="st3" d="M1412.45,64.77l1.92,2.01c2.25-2.15,5.29-3.47,8.64-3.47c3.35,0,6.39,1.32,8.64,3.47l1.92-2.01
								c-2.75-2.63-6.47-4.25-10.56-4.25S1415.2,62.15,1412.45,64.77z"/>
							<path class="st3" d="M1399.01,50.71l1.92,2.01c5.75-5.49,13.52-8.88,22.08-8.88c8.56,0,16.33,3.38,22.08,8.88l1.92-2.01
								c-6.25-5.97-14.7-9.65-24-9.65S1405.25,44.74,1399.01,50.71z"/>
							<path class="st3" d="M1404.77,56.74l1.92,2.01c4.25-4.06,9.99-6.56,16.32-6.56c6.32,0,12.07,2.5,16.32,6.56l1.92-2.01
								c-4.75-4.54-11.17-7.33-18.24-7.33C1415.94,49.4,1409.52,52.2,1404.77,56.74z"/>
						</g>
						<g>
							<rect x="1314.79" y="115.34" class="st2" width="55.39" height="37.47"/>
							<rect x="1302.49" y="152.8" class="st2" width="80.01" height="8.26"/>
							<g>
								<path class="st2" d="M1396.56,64.35l9.61,5.97l2.58-1.57l6.21,4.22l6.53-4.83l5.66,2.84l4.34,7.61c0,0,0.12,1.61-1.17,1.69
									l-6.33-4.5c0,0-1.99-1.2-3.16-0.48l-3.16,2.36v5.04c0,0-0.12,1.17,0.7,1.64l7.85,3.63l-0.82,1.17h-8.09
									c0,0-3.87-1.29-4.69-3.87l-0.35-5.62l-7.62-4.35v-1.86l-9.93-5.86L1396.56,64.35z"/>
								<g>
									<path class="st4" d="M1394.71,59.48L1394.71,59.48l-22.28-14.76c-0.37-0.3-0.77-0.57-1.2-0.79l-0.02-0.01l0,0
										c-1.04-0.55-2.22-0.86-3.48-0.86c-2.47,0-4.65,1.2-6.01,3.05l-26.18,20.73l0,0c-2.44,2.01-4,5.05-4,8.46l-2.4,44.82l0.03,0
										c-0.01,0.23-0.03,0.46-0.03,0.69c0,7.37,5.98,13.35,13.36,13.35c7.38,0,13.36-5.98,13.36-13.35c0-0.58-0.05-1.14-0.12-1.7
										l-2.85-40.33l14.85-20.78l21.84,11.15c0.79,0.43,1.69,0.68,2.65,0.68c3.03,0,5.48-2.45,5.48-5.48
										C1397.7,62.23,1396.48,60.39,1394.71,59.48z"/>
									<ellipse class="st2" cx="1342.49" cy="120.81" rx="5.48" ry="5.48"/>
									<ellipse class="st2" cx="1367.73" cy="50.53" rx="3.49" ry="3.48"/>
									<circle class="st2" cx="1392.22" cy="64.35" r="2.49"/>
									<ellipse class="st2" cx="1342.49" cy="75.31" rx="4.98" ry="4.98"/>
								</g>
							</g>
						</g>
					</g>
				</g>
			</g>
			<g>
				<g>
					<circle class="st4" cx="1208.29" cy="320.39" r="8.2"/>
					<circle class="st1" cx="1235.8" cy="320.39" r="8.2"/>
					<circle class="st3" cx="1263.31" cy="320.39" r="8.2"/>
				</g>
				<g>
					<g>
						<g>
							<rect x="1276.63" y="350.28" class="st1" width="46.74" height="15.49"/>
							<rect x="1289.47" y="356.48" class="st3" width="21.07" height="3.1"/>
						</g>
						<g>
							<rect x="1276.63" y="368.29" class="st1" width="46.74" height="15.49"/>
							<rect x="1289.47" y="374.49" class="st3" width="21.07" height="3.1"/>
						</g>
						<g>
							<rect x="1276.63" y="386.3" class="st1" width="46.74" height="15.49"/>
							<rect x="1289.47" y="392.49" class="st3" width="21.07" height="3.1"/>
						</g>
						<g>
							<rect x="1276.63" y="404.3" class="st1" width="46.74" height="15.49"/>
							<rect x="1289.47" y="410.5" class="st3" width="21.07" height="3.1"/>
						</g>
						<g>
							<rect x="1276.63" y="422.31" class="st1" width="46.74" height="15.49"/>
							<rect x="1289.47" y="428.51" class="st3" width="21.07" height="3.1"/>
						</g>
					</g>
					<g>
						<rect x="1328.35" y="350.28" class="st4" width="46.74" height="15.49"/>
						<rect x="1341.18" y="356.48" class="st3" width="21.07" height="3.1"/>
						<rect x="1328.35" y="368.29" class="st4" width="46.74" height="15.49"/>
						<rect x="1341.18" y="374.49" class="st3" width="21.07" height="3.1"/>
						<rect x="1328.35" y="386.3" class="st4" width="46.74" height="15.49"/>
						<rect x="1341.18" y="392.49" class="st3" width="21.07" height="3.1"/>
						<rect x="1328.35" y="404.3" class="st4" width="46.74" height="15.49"/>
						<rect x="1341.18" y="410.5" class="st3" width="21.07" height="3.1"/>
						<rect x="1328.35" y="422.31" class="st4" width="46.74" height="15.49"/>
						<rect x="1341.18" y="428.51" class="st3" width="21.07" height="3.1"/>
					</g>
				</g>
				<path class="st3" d="M1276.63,295.91c0-10.27,7.92-18.67,17.99-19.46c-0.02-0.34-0.05-0.68-0.05-1.02
					c0-11.05,8.96-20.01,20.01-20.01c5.74,0,10.9,2.43,14.55,6.3c3.23-2.96,7.52-4.79,12.25-4.79c10.02,0,18.14,8.12,18.14,18.14
					c0,1.06-0.11,2.08-0.28,3.09c9.01,1.62,15.86,9.48,15.86,18.96c0,10.65-8.63,19.28-19.28,19.28h-59.64
					C1296.17,316.39,1276.63,315.82,1276.63,295.91z"/>
				<g>
					<rect x="1311.57" y="339.47" class="st2" width="28.57" height="4.12"/>
					<rect x="1311.57" y="329.82" class="st2" width="28.57" height="6.69"/>
					<polygon class="st2" points="1344.52,309.74 1325.86,296.36 1307.2,309.74 1311.57,309.74 1311.57,326.86 1340.15,326.86 
						1340.15,309.74 					"/>
				</g>
			</g>
			<g>
				<circle class="st4" cx="667.69" cy="209.84" r="8.2"/>
				<circle class="st1" cx="667.69" cy="237.35" r="8.2"/>
				<circle class="st3" cx="667.69" cy="264.86" r="8.2"/>
			</g>
			<g>
				<circle class="st1" cx="1264.66" cy="68.88" r="47.82"/>
				<g>
					<polygon class="st3" points="1278.61,38.88 1263.64,54.64 1267.15,54.64 1267.15,74.8 1290.06,74.8 1290.06,54.64 
						1293.57,54.64 					"/>
					<polygon class="st3" points="1262.18,62.97 1239.26,62.97 1239.26,83.12 1235.75,83.12 1250.72,98.88 1265.68,83.12 
						1262.18,83.12 					"/>
				</g>
			</g>
			<g>
				<g>
					<g>
						
							<rect x="730.37" y="82.13" transform="matrix(-1.836970e-16 1 -1 -1.836970e-16 860.5285 -634.2642)" class="st3" width="34.05" height="62"/>
						<polygon class="st3" points="748.89,142.34 748.89,128.16 745.9,128.16 745.9,142.34 730.25,142.34 730.25,145.34 
							764.55,145.34 764.55,142.34 						"/>
						<g>
							<rect x="730.25" y="107.91" class="st2" width="10.44" height="10.44"/>
							<rect x="742.18" y="107.91" class="st2" width="10.44" height="10.44"/>
							<rect x="730.25" y="98.1" class="st2" width="10.44" height="8.31"/>
							<rect x="742.18" y="98.1" class="st2" width="10.44" height="8.31"/>
							<rect x="766.04" y="98.1" class="st2" width="10.36" height="8.31"/>
							<rect x="754.11" y="107.91" class="st2" width="10.44" height="10.44"/>
							<rect x="718.39" y="107.91" class="st2" width="10.36" height="10.44"/>
							<rect x="766.04" y="119.85" class="st2" width="10.36" height="8.32"/>
							<rect x="718.39" y="98.1" class="st2" width="10.36" height="8.31"/>
							<rect x="766.04" y="107.91" class="st2" width="10.36" height="10.44"/>
							<rect x="718.39" y="119.85" class="st2" width="10.36" height="8.32"/>
							<rect x="742.18" y="119.85" class="st2" width="10.44" height="8.32"/>
							<rect x="730.25" y="119.85" class="st2" width="10.44" height="8.32"/>
							<rect x="754.11" y="119.85" class="st2" width="10.44" height="8.32"/>
							<rect x="754.11" y="98.1" class="st2" width="10.44" height="8.31"/>
						</g>
					</g>
					<g>
						<circle class="st4" cx="747.4" cy="47.06" r="13"/>
						<path class="st4" d="M737.81,35.63l-7.87-7.87l-1.84,1.84l7.87,7.87C736.52,36.8,737.14,36.19,737.81,35.63z"/>
						<path class="st4" d="M732.47,47.06c0-0.44,0.03-0.87,0.07-1.3H721.4v2.61h11.14C732.5,47.93,732.47,47.5,732.47,47.06z"/>
						<path class="st4" d="M748.7,32.2V21.06h-2.61V32.2c0.43-0.04,0.86-0.07,1.3-0.07S748.27,32.16,748.7,32.2z"/>
						<path class="st4" d="M758.83,37.47l7.87-7.87l-1.84-1.84l-7.87,7.87C757.65,36.19,758.27,36.8,758.83,37.47z"/>
						<path class="st4" d="M735.96,56.65l-7.87,7.87l1.84,1.84l7.87-7.87C737.14,57.93,736.52,57.31,735.96,56.65z"/>
						<path class="st4" d="M762.26,45.76c0.04,0.43,0.07,0.86,0.07,1.3s-0.03,0.87-0.07,1.3h11.14v-2.61H762.26z"/>
						<path class="st4" d="M756.99,58.49l7.87,7.87l1.84-1.84l-7.87-7.87C758.27,57.31,757.65,57.93,756.99,58.49z"/>
						<path class="st4" d="M746.09,61.92v11.14h2.61V61.92c-0.43,0.04-0.86,0.07-1.3,0.07S746.52,61.96,746.09,61.92z"/>
					</g>
				</g>
				<polygon class="st3" points="763.4,186.57 731.4,158.12 731.4,199.55 743.49,190.44 750.48,205.74 754.36,203.96 747.48,188.89 
									"/>
			</g>
			<path class="st1" d="M615.96,178.47l2.47-87.18c0,0-1.41-4.24-3.71,0l-1.06,0.88L585.78,95c0,0-2.82,0.53-2.82-1.59l33.71-6.53
				c0,0,0.35-2.65,3.53-2.47c0,0,1.06-1.41,0-2.47c0,0-1.18-1.59,0.47-3.71l12.41-23.82c0,0,3-2.47,3,0.88l-12.71,28.76
				c0,0-1.59,1.94-0.18,3c0,0,1.76,0.71,1.06,1.76c0,0-0.53,2.12,2.47,1.94c0,0,2.12,0.53,3,3.18l12.53,23.82c0,0,1.24,3-1.41,1.94
				l-18.35-27.53l1.76,86.29H615.96z"/>
			<path class="st3" d="M666.37,178.47l-2.18-76.75c0,0,1.24-3.73,3.26,0l0.93,0.78l24.55,2.49c0,0,2.49,0.47,2.49-1.4l-29.68-5.75
				c0,0-0.31-2.33-3.11-2.18c0,0-0.93-1.24,0-2.18c0,0,1.04-1.4-0.41-3.26L651.3,69.24c0,0-2.64-2.18-2.64,0.78l11.19,25.33
				c0,0,1.4,1.71,0.16,2.64c0,0-1.55,0.62-0.93,1.55c0,0,0.47,1.86-2.18,1.71c0,0-1.86,0.47-2.64,2.8l-11.03,20.98
				c0,0-1.09,2.64,1.24,1.71l16.16-24.24l-1.55,75.98H666.37z"/>
			<g>
				<path class="st3" d="M1077.06,202.94l-1.87-2.35l7.82-6.23l1.87,2.35L1077.06,202.94z M1092.7,190.48l-1.87-2.35l7.82-6.23
					l1.87,2.35L1092.7,190.48z M1108.34,178.02l-1.87-2.35l7.82-6.23l1.87,2.35L1108.34,178.02z M1123.99,165.56l-1.87-2.35
					l7.82-6.23l1.87,2.35L1123.99,165.56z M1139.63,153.09l-1.87-2.35l7.82-6.23l1.87,2.35L1139.63,153.09z M1155.27,140.63
					l-1.87-2.35l7.06-5.62h2.03v3h-0.98L1155.27,140.63z M1302.49,135.66h-30v-3h30V135.66z M1262.49,135.66h-10v-3h10V135.66z
					 M1242.49,135.66h-10v-3h10V135.66z M1222.49,135.66h-10v-3h10V135.66z M1202.49,135.66h-10v-3h10V135.66z M1182.49,135.66h-10
					v-3h10V135.66z"/>
			</g>
			<g>
				<path class="st3" d="M540.39,275.28c-1.13,0-2.29-0.06-3.46-0.17l0.28-2.99c1.08,0.1,2.15,0.15,3.18,0.15c0.01,0,0.02,0,0.03,0
					c2.28,0,4.37-0.24,6.21-0.72l0.76,2.9c-2.09,0.55-4.43,0.82-6.97,0.82C540.41,275.28,540.4,275.28,540.39,275.28z
					 M527.12,274.49h-10v-3h10V274.49z M507.12,274.49h-10v-3h10V274.49z M487.12,274.49h-10v-3h10V274.49z M467.12,274.49h-10v-3
					h10V274.49z M556.41,268.48l-2.48-1.69c1.46-2.14,2.2-4.96,2.2-8.37v-0.31h3v0.31C559.13,262.45,558.22,265.83,556.41,268.48z
					 M559.13,248.12h-3v-10h3V248.12z M559.13,228.12h-3v-10h3V228.12z M559.13,208.12h-3v-10h3V208.12z M559.13,188.12h-3v-10h3
					V188.12z M559.13,168.12h-3v-10h3V168.12z M559.13,148.12h-3v-3.6c0-0.16,0.09-2.96,1.02-6.71l2.91,0.72
					c-0.85,3.41-0.94,6-0.94,6.03L559.13,148.12z M563.75,129.82l-2.51-1.65c2.07-3.15,4.69-5.58,7.78-7.23l1.41,2.65
					C567.8,125,565.55,127.1,563.75,129.82z M579.37,121.36l-0.09-3c0.31-0.01,0.62-0.01,0.94-0.01h9.11v3h-9.11
					C579.93,121.34,579.65,121.35,579.37,121.36z M607.04,121.34h-7.72v-3h7.72V121.34z"/>
			</g>
		</g>
		<g>
			<text transform="matrix(1 0 0 1 1244.0066 472.8323)" class="st3 st8 st9">An toàn, bảo mật</text>
		</g>
		<g>
			<text transform="matrix(1 0 0 1 1197.4871 190.8721)" class="st3 st8 st9">Tối ưu chi phí</text>
		</g>
		<g>
			<text transform="matrix(1 0 0 1 822.6342 112.7377)" class="st3 st10 st11">Công nghiệp thông minh</text>
		</g>
		<g>
			<text transform="matrix(1 0 0 1 246.4122 472.832)" class="st3 st8 st9">Giao diện trực quan</text>
		</g>
		<text transform="matrix(1 0 0 1 1640.2922 392.8376)" class="st3 st8 st9">Giám sát từ xa</text>
	</g>
</g>
<g id="Layer_3">
</g>
</svg>
