<?xml version="1.0" encoding="utf-8"?>
<!-- Generator: Adobe Illustrator 23.0.5, SVG Export Plug-In . SVG Version: 6.00 Build 0)  -->
<svg version="1.1" xmlns="http://www.w3.org/2000/svg" xmlns:xlink="http://www.w3.org/1999/xlink" x="0px" y="0px"
	 viewBox="0 0 1920 598" style="enable-background:new 0 0 1920 598;" xml:space="preserve">
<style type="text/css">
	.st0{fill:url(#SVGID_1_);}
	.st1{clip-path:url(#SVGID_3_);fill:#4C4C4C;}
	.st2{clip-path:url(#SVGID_3_);}
	.st3{fill:#FFFFFF;}
	.st4{fill:#B3B3B3;}
	.st5{fill:#51C6C6;}
	.st6{fill:#4C4C4C;}
	.st7{fill:#00A26D;}
	.st8{fill:#65A4CE;}
	.st9{fill:#82B938;}
	.st10{fill:#00623F;}
	.st11{fill:#008A5C;}
	.st12{fill:#FF7F27;}
	.st13{fill:#65A4CF;}
	.st14{fill:#717071;}
	.st15{fill:#CCCCCC;}
	.st16{fill:#F5CA8D;}
	.st17{fill:#008357;}
	.st18{fill:#FBBA86;}
	.st19{fill:url(#SVGID_4_);}
	.st20{fill:url(#SVGID_5_);}
	.st21{filter:url(#Adobe_OpacityMaskFilter);}
	.st22{fill:url(#SVGID_7_);}
	.st23{mask:url(#SVGID_6_);fill:url(#SVGID_8_);}
	.st24{filter:url(#Adobe_OpacityMaskFilter_1_);}
	.st25{fill:url(#SVGID_10_);}
	.st26{opacity:0.5;mask:url(#SVGID_9_);fill:#65A4CF;}
	.st27{fill:#CEE6C1;}
	.st28{fill:#00A859;}
	.st29{fill:#A1D07C;}
	.st30{fill:#009B51;}
	.st31{fill:#00783C;}
	.st32{fill:#9DCC70;}
	.st33{opacity:0.5;fill:#E6E6E6;}
	.st34{font-family:'ArialMT';}
	.st35{font-size:30px;}
</style>
<g id="Layer_2">
</g>
<g id="Layer_1">
	<g>
		<linearGradient id="SVGID_1_" gradientUnits="userSpaceOnUse" x1="960" y1="395.9706" x2="960" y2="163.7351">
			<stop  offset="0" style="stop-color:#DCDDDE"/>
			<stop  offset="0.106" style="stop-color:#E1E1E2"/>
			<stop  offset="0.2233" style="stop-color:#EEEEEF"/>
			<stop  offset="0.3222" style="stop-color:#FFFFFF"/>
		</linearGradient>
		<rect x="0" class="st0" width="1920" height="598"/>
		<g>
			<defs>
				<rect id="SVGID_2_" y="369.66" width="1920" height="228.34"/>
			</defs>
			<clipPath id="SVGID_3_">
				<use xlink:href="#SVGID_2_"  style="overflow:visible;"/>
			</clipPath>
			<polygon class="st1" points="764.12,431.61 763.12,431.61 763.12,431.61 764.12,431.61 			"/>
			<g class="st2">
				<path class="st3" d="M703.27,383.11c-21.66,0-39.21,17.56-39.21,39.21c0,21.66,17.56,39.21,39.21,39.21
					c21.66,0,39.21-17.56,39.21-39.21C742.48,400.66,724.92,383.11,703.27,383.11z M703.27,455.93c-18.56,0-33.61-15.05-33.61-33.61
					c0-18.56,15.05-33.61,33.61-33.61c18.56,0,33.61,15.05,33.61,33.61C736.88,440.88,721.83,455.93,703.27,455.93z"/>
				<path class="st3" d="M785.04,411.51l-15.53-0.59c-1.72-10.06-5.68-19.36-11.34-27.37l10.57-11.41
					c-4.41-5.74-9.55-10.88-15.29-15.29l-11.41,10.57c-8.01-5.67-17.3-9.62-27.37-11.34l-0.59-15.53
					c-3.54-0.46-7.14-0.73-10.81-0.73c-3.67,0-7.27,0.26-10.81,0.73l-0.59,15.53c-10.06,1.72-19.36,5.68-27.37,11.34l-11.41-10.57
					c-5.74,4.41-10.88,9.55-15.29,15.29l10.57,11.41c-5.67,8.01-9.62,17.3-11.34,27.37l-15.53,0.59c-0.46,3.54-0.73,7.14-0.73,10.81
					c0,3.67,0.26,7.27,0.73,10.81l15.53,0.59c1.72,10.06,5.68,19.36,11.34,27.37L637.8,472.5c4.41,5.74,9.55,10.88,15.29,15.29
					l11.41-10.57c8.01,5.67,17.3,9.62,27.37,11.34l0.59,15.53c3.54,0.46,7.14,0.73,10.81,0.73c3.67,0,7.27-0.26,10.81-0.73
					l0.59-15.53c10.06-1.72,19.36-5.68,27.37-11.34l11.41,10.57c5.74-4.41,10.88-9.55,15.29-15.29l-10.57-11.41
					c5.67-8.01,9.62-17.3,11.34-27.37l15.53-0.59c0.46-3.54,0.73-7.14,0.73-10.81C785.77,418.65,785.5,415.05,785.04,411.51z
					 M703.27,467.14c-24.75,0-44.81-20.06-44.81-44.81c0-24.75,20.06-44.81,44.81-44.81s44.81,20.06,44.81,44.81
					C748.08,447.07,728.02,467.14,703.27,467.14z"/>
			</g>
			<g class="st2">
				<path class="st3" d="M1611.54,326.39c-21.66,0-39.21,17.56-39.21,39.21c0,21.66,17.56,39.21,39.21,39.21
					c21.66,0,39.21-17.56,39.21-39.21C1650.76,343.95,1633.2,326.39,1611.54,326.39z M1611.54,399.22
					c-18.56,0-33.61-15.05-33.61-33.61c0-18.56,15.05-33.61,33.61-33.61c18.56,0,33.61,15.05,33.61,33.61
					C1645.15,384.17,1630.11,399.22,1611.54,399.22z"/>
				<path class="st3" d="M1693.32,354.8l-15.53-0.59c-1.72-10.06-5.68-19.36-11.34-27.37l10.57-11.41
					c-4.41-5.74-9.55-10.88-15.29-15.29l-11.41,10.57c-8.01-5.67-17.3-9.62-27.37-11.34l-0.59-15.53
					c-3.54-0.46-7.14-0.73-10.81-0.73s-7.27,0.26-10.81,0.73l-0.59,15.53c-10.06,1.72-19.36,5.68-27.37,11.34l-11.41-10.57
					c-5.74,4.41-10.88,9.55-15.29,15.29l10.57,11.41c-5.67,8.01-9.62,17.3-11.34,27.37l-15.53,0.59c-0.46,3.54-0.73,7.14-0.73,10.81
					c0,3.67,0.26,7.27,0.73,10.81l15.53,0.59c1.72,10.06,5.68,19.36,11.34,27.37l-10.57,11.41c4.41,5.74,9.55,10.88,15.29,15.29
					l11.41-10.57c8.01,5.67,17.3,9.62,27.37,11.34l0.59,15.53c3.54,0.46,7.14,0.73,10.81,0.73s7.27-0.26,10.81-0.73l0.59-15.53
					c10.06-1.72,19.36-5.68,27.37-11.34l11.41,10.57c5.74-4.41,10.88-9.55,15.29-15.29l-10.57-11.41
					c5.67-8.01,9.62-17.3,11.34-27.37l15.53-0.59c0.46-3.54,0.73-7.14,0.73-10.81C1694.04,361.94,1693.78,358.34,1693.32,354.8z
					 M1611.54,410.42c-24.75,0-44.81-20.06-44.81-44.81s20.06-44.81,44.81-44.81c24.75,0,44.81,20.06,44.81,44.81
					S1636.29,410.42,1611.54,410.42z"/>
			</g>
			<g class="st2">
				<path class="st3" d="M583.25,309.34c-13.13,0-23.77,10.64-23.77,23.77s10.64,23.77,23.77,23.77c13.13,0,23.77-10.64,23.77-23.77
					S596.38,309.34,583.25,309.34z M583.25,353.48c-11.25,0-20.37-9.12-20.37-20.37c0-11.25,9.12-20.37,20.37-20.37
					c11.25,0,20.37,9.12,20.37,20.37C603.62,344.36,594.5,353.48,583.25,353.48z"/>
				<path class="st3" d="M632.81,326.56l-9.41-0.36c-1.04-6.1-3.44-11.73-6.87-16.59l6.4-6.91c-2.67-3.48-5.79-6.59-9.26-9.26
					l-6.91,6.4c-4.85-3.43-10.49-5.83-16.59-6.87l-0.36-9.41c-2.15-0.28-4.33-0.44-6.55-0.44s-4.41,0.16-6.55,0.44l-0.36,9.41
					c-6.1,1.04-11.73,3.44-16.59,6.87l-6.91-6.4c-3.48,2.67-6.59,5.79-9.26,9.26l6.4,6.91c-3.43,4.85-5.83,10.49-6.87,16.59
					l-9.41,0.36c-0.28,2.15-0.44,4.33-0.44,6.55c0,2.22,0.16,4.41,0.44,6.55l9.41,0.36c1.04,6.1,3.44,11.73,6.87,16.59l-6.4,6.91
					c2.67,3.48,5.79,6.59,9.26,9.26l6.91-6.4c4.85,3.43,10.49,5.83,16.59,6.87l0.36,9.41c2.15,0.28,4.33,0.44,6.55,0.44
					s4.41-0.16,6.55-0.44l0.36-9.41c6.1-1.04,11.73-3.44,16.59-6.87l6.91,6.4c3.48-2.67,6.59-5.79,9.26-9.26l-6.4-6.91
					c3.43-4.85,5.83-10.49,6.87-16.59l9.41-0.36c0.28-2.15,0.44-4.33,0.44-6.55C633.25,330.89,633.09,328.7,632.81,326.56z
					 M583.25,360.27c-15,0-27.16-12.16-27.16-27.16s12.16-27.16,27.16-27.16c15,0,27.16,12.16,27.16,27.16
					S598.25,360.27,583.25,360.27z"/>
			</g>
			<g class="st2">
				<path class="st3" d="M1706.36,491.06c-13.13,0-23.77,10.64-23.77,23.77s10.64,23.77,23.77,23.77
					c13.13,0,23.77-10.64,23.77-23.77S1719.48,491.06,1706.36,491.06z M1706.36,535.19c-11.25,0-20.37-9.12-20.37-20.37
					s9.12-20.37,20.37-20.37s20.37,9.12,20.37,20.37S1717.61,535.19,1706.36,535.19z"/>
				<path class="st3" d="M1755.92,508.27l-9.41-0.36c-1.04-6.1-3.44-11.73-6.87-16.59l6.4-6.91c-2.67-3.48-5.79-6.59-9.26-9.26
					l-6.91,6.4c-4.85-3.43-10.49-5.83-16.59-6.87l-0.36-9.41c-2.15-0.28-4.33-0.44-6.55-0.44s-4.41,0.16-6.55,0.44l-0.36,9.41
					c-6.1,1.04-11.73,3.44-16.59,6.87l-6.91-6.4c-3.48,2.67-6.59,5.79-9.26,9.26l6.4,6.91c-3.43,4.85-5.83,10.49-6.87,16.59
					l-9.41,0.36c-0.28,2.15-0.44,4.33-0.44,6.55s0.16,4.41,0.44,6.55l9.41,0.36c1.04,6.1,3.44,11.73,6.87,16.59l-6.4,6.91
					c2.67,3.48,5.79,6.59,9.26,9.26l6.91-6.4c4.85,3.43,10.49,5.83,16.59,6.87l0.36,9.41c2.15,0.28,4.33,0.44,6.55,0.44
					s4.41-0.16,6.55-0.44l0.36-9.41c6.1-1.04,11.73-3.44,16.59-6.87l6.91,6.4c3.48-2.67,6.59-5.79,9.26-9.26l-6.4-6.91
					c3.43-4.85,5.83-10.49,6.87-16.59l9.41-0.36c0.28-2.15,0.44-4.33,0.44-6.55S1756.2,510.42,1755.92,508.27z M1706.36,541.98
					c-15,0-27.16-12.16-27.16-27.16c0-15,12.16-27.16,27.16-27.16s27.16,12.16,27.16,27.16
					C1733.52,529.82,1721.36,541.98,1706.36,541.98z"/>
			</g>
			<g class="st2">
				<path class="st3" d="M444.87,423.61c-32.81,0-59.41,26.6-59.41,59.41s26.6,59.41,59.41,59.41c32.81,0,59.41-26.6,59.41-59.41
					S477.68,423.61,444.87,423.61z M444.87,533.95c-28.13,0-50.93-22.8-50.93-50.93s22.8-50.93,50.93-50.93
					c28.13,0,50.93,22.8,50.93,50.93S472.99,533.95,444.87,533.95z"/>
				<path class="st3" d="M568.76,466.65l-23.53-0.9c-2.61-15.25-8.6-29.33-17.18-41.47L544.06,407
					c-6.68-8.7-14.46-16.48-23.16-23.16l-17.29,16.01c-12.13-8.58-26.22-14.58-41.47-17.18l-0.9-23.54
					c-5.36-0.7-10.82-1.1-16.38-1.1c-5.55,0-11.01,0.4-16.38,1.1l-0.9,23.54c-15.25,2.61-29.33,8.6-41.47,17.18l-17.29-16.01
					c-8.7,6.68-16.48,14.46-23.16,23.16l16.01,17.29c-8.58,12.13-14.58,26.22-17.18,41.47l-23.53,0.9c-0.7,5.36-1.1,10.82-1.1,16.38
					s0.4,11.01,1.1,16.38l23.53,0.9c2.61,15.25,8.6,29.33,17.18,41.47l-16.01,17.29c6.68,8.7,14.46,16.48,23.16,23.16l17.29-16.01
					c12.13,8.58,26.22,14.58,41.47,17.18l0.9,23.53c5.36,0.7,10.82,1.1,16.38,1.1c5.56,0,11.01-0.4,16.38-1.1l0.9-23.53
					c15.25-2.61,29.33-8.6,41.47-17.18l17.29,16.01c8.7-6.68,16.48-14.46,23.16-23.16l-16.01-17.29
					c8.58-12.13,14.58-26.22,17.18-41.47l23.53-0.9c0.7-5.36,1.1-10.82,1.1-16.38S569.47,472.01,568.76,466.65z M444.87,550.93
					c-37.5,0-67.9-30.4-67.9-67.9s30.4-67.9,67.9-67.9c37.5,0,67.9,30.4,67.9,67.9S482.37,550.93,444.87,550.93z"/>
			</g>
			<g class="st2">
				<path class="st3" d="M35.32,448.19c-32.81,0-59.41,26.6-59.41,59.41s26.6,59.41,59.41,59.41c32.81,0,59.41-26.6,59.41-59.41
					S68.13,448.19,35.32,448.19z M35.32,558.53c-28.13,0-50.93-22.8-50.93-50.93c0-28.13,22.8-50.93,50.93-50.93
					c28.13,0,50.93,22.8,50.93,50.93C86.24,535.73,63.44,558.53,35.32,558.53z"/>
				<path class="st3" d="M159.21,491.23l-23.53-0.9c-2.61-15.25-8.6-29.33-17.18-41.47l16.01-17.29
					c-6.68-8.7-14.46-16.48-23.16-23.16l-17.29,16.01c-12.13-8.58-26.22-14.58-41.47-17.18l-0.9-23.54
					c-5.36-0.7-10.82-1.1-16.38-1.1s-11.01,0.4-16.38,1.1l-0.9,23.54c-15.25,2.61-29.33,8.6-41.47,17.18l-17.29-16.01
					c-8.7,6.68-16.48,14.46-23.16,23.16l16.01,17.29c-8.58,12.13-14.58,26.22-17.18,41.47l-23.53,0.9c-0.7,5.36-1.1,10.82-1.1,16.38
					c0,5.56,0.4,11.01,1.1,16.38l23.53,0.9c2.61,15.25,8.6,29.33,17.18,41.47l-16.01,17.29c6.68,8.7,14.46,16.48,23.16,23.16
					l17.29-16.01c12.13,8.58,26.22,14.58,41.47,17.18l0.9,23.54c5.36,0.7,10.82,1.1,16.38,1.1s11.01-0.4,16.38-1.1l0.9-23.54
					c15.25-2.61,29.33-8.6,41.47-17.18l17.29,16.01c8.7-6.68,16.48-14.46,23.16-23.16l-16.01-17.29
					c8.58-12.13,14.58-26.22,17.18-41.47l23.53-0.9c0.7-5.36,1.1-10.82,1.1-16.38C160.32,502.05,159.92,496.59,159.21,491.23z
					 M35.32,575.51c-37.5,0-67.9-30.4-67.9-67.9s30.4-67.9,67.9-67.9c37.5,0,67.9,30.4,67.9,67.9S72.82,575.51,35.32,575.51z"/>
			</g>
			<g class="st2">
				<path class="st3" d="M1354.04,431.64c-45.94,0-83.18,37.24-83.18,83.18S1308.1,598,1354.04,598c45.94,0,83.18-37.24,83.18-83.18
					S1399.98,431.64,1354.04,431.64z M1354.04,586.12c-39.38,0-71.3-31.92-71.3-71.3s31.92-71.3,71.3-71.3
					c39.38,0,71.3,31.92,71.3,71.3S1393.42,586.12,1354.04,586.12z"/>
				<path class="st3" d="M1527.5,491.89l-32.95-1.26c-3.65-21.35-12.04-41.07-24.06-58.05l22.42-24.2
					c-9.35-12.17-20.25-23.08-32.42-32.42l-24.2,22.42c-16.99-12.02-36.7-20.41-58.05-24.06l-1.26-32.95
					c-7.51-0.98-15.15-1.54-22.93-1.54s-15.42,0.56-22.93,1.54l-1.26,32.95c-21.35,3.65-41.07,12.04-58.05,24.06l-24.2-22.42
					c-12.17,9.35-23.08,20.25-32.42,32.42l22.42,24.2c-12.02,16.99-20.41,36.7-24.06,58.05l-32.95,1.26
					c-0.98,7.51-1.54,15.15-1.54,22.93s0.56,15.42,1.54,22.93l32.95,1.26c3.65,21.35,12.04,41.07,24.06,58.05l-22.42,24.2
					c9.35,12.17,20.25,23.08,32.42,32.42l24.2-22.42c16.99,12.02,36.7,20.41,58.05,24.06l1.26,32.95
					c7.51,0.98,15.15,1.54,22.93,1.54s15.42-0.56,22.93-1.54l1.26-32.95c21.35-3.65,41.07-12.04,58.05-24.06l24.2,22.42
					c12.17-9.35,23.08-20.25,32.42-32.42l-22.42-24.2c12.02-16.99,20.41-36.7,24.06-58.05l32.95-1.26
					c0.98-7.51,1.54-15.15,1.54-22.93S1528.48,499.4,1527.5,491.89z M1354.04,609.88c-52.5,0-95.06-42.56-95.06-95.06
					s42.56-95.06,95.06-95.06c52.5,0,95.06,42.56,95.06,95.06S1406.54,609.88,1354.04,609.88z"/>
			</g>
			<g class="st2">
				<path class="st3" d="M1905.12,237.61c-45.94,0-83.18,37.24-83.18,83.18s37.24,83.18,83.18,83.18
					c45.94,0,83.18-37.24,83.18-83.18S1951.06,237.61,1905.12,237.61z M1905.12,392.09c-39.38,0-71.3-31.92-71.3-71.3
					s31.92-71.3,71.3-71.3c39.38,0,71.3,31.92,71.3,71.3S1944.5,392.09,1905.12,392.09z"/>
				<path class="st3" d="M2078.58,297.87l-32.95-1.26c-3.65-21.35-12.04-41.07-24.06-58.05l22.42-24.2
					c-9.35-12.17-20.25-23.08-32.42-32.42l-24.2,22.42c-16.99-12.02-36.7-20.41-58.05-24.06l-1.26-32.95
					c-7.51-0.98-15.15-1.54-22.93-1.54c-7.78,0-15.42,0.56-22.93,1.54l-1.26,32.95c-21.35,3.65-41.07,12.04-58.05,24.06l-24.2-22.42
					c-12.17,9.35-23.08,20.25-32.42,32.42l22.42,24.2c-12.02,16.99-20.41,36.7-24.06,58.05l-32.95,1.26
					c-0.98,7.51-1.54,15.15-1.54,22.93c0,7.78,0.56,15.42,1.54,22.93l32.95,1.26c3.65,21.35,12.04,41.07,24.06,58.05l-22.42,24.2
					c9.35,12.17,20.25,23.08,32.42,32.42l24.2-22.42c16.99,12.02,36.7,20.41,58.05,24.06l1.26,32.95
					c7.51,0.98,15.15,1.54,22.93,1.54c7.78,0,15.42-0.56,22.93-1.54l1.26-32.95c21.35-3.65,41.07-12.04,58.05-24.06l24.2,22.42
					c12.17-9.35,23.08-20.25,32.42-32.42l-22.42-24.2c12.02-16.99,20.41-36.7,24.06-58.05l32.95-1.26
					c0.98-7.51,1.54-15.15,1.54-22.93C2080.12,313.02,2079.56,305.37,2078.58,297.87z M1905.12,415.85
					c-52.5,0-95.06-42.56-95.06-95.06s42.56-95.06,95.06-95.06c52.5,0,95.06,42.56,95.06,95.06S1957.62,415.85,1905.12,415.85z"/>
			</g>
		</g>
		<rect x="195.08" y="379.24" class="st4" width="1724.92" height="7.66"/>
		<rect x="0" y="257.5" class="st4" width="305.13" height="8.19"/>
		<rect x="0" y="212.16" class="st4" width="1186.5" height="7.66"/>
		<g>
			<g>
				<polygon class="st5" points="583.49,340.5 485.2,170.25 583.49,0 780.08,0 878.37,170.25 780.08,340.5 				"/>
				<polygon class="st3" points="766.04,24.32 597.53,24.32 513.28,170.25 597.53,316.17 766.04,316.17 850.29,170.25 				"/>
			</g>
			<g>
				<g>
					<g>
						<path class="st6" d="M763.42,138.19v56.37h41.64v-44.31L793,138.19H763.42z M802.02,151.52v40h-35.55v-50.28h25.27l0.12,0.12
							v10.03h10.03L802.02,151.52z"/>
						<polygon class="st6" points="770.53,132.1 770.53,137.17 773.58,137.17 773.58,135.14 798.85,135.14 798.97,135.27 
							798.97,142.25 802.02,145.3 809.01,145.3 809.13,145.42 809.13,185.42 806.08,185.42 806.08,188.47 812.18,188.47 
							812.18,144.16 800.11,132.1 						"/>
						<polygon class="st6" points="807.22,126 777.64,126 777.64,131.08 780.69,131.08 780.69,129.05 805.96,129.05 806.08,129.17 
							806.08,136.16 809.13,139.21 816.12,139.21 816.24,139.33 816.24,179.33 813.19,179.33 813.19,182.37 819.29,182.37 
							819.29,138.07 						"/>
						<rect x="771.04" y="153.43" class="st6" width="26.41" height="4.06"/>
						<rect x="771.04" y="160.54" class="st6" width="26.41" height="4.06"/>
						<rect x="771.04" y="167.65" class="st6" width="26.41" height="4.06"/>
						<rect x="771.04" y="174.76" class="st6" width="26.41" height="4.06"/>
						<rect x="771.04" y="181.87" class="st6" width="26.41" height="4.06"/>
					</g>
					<g>
						<path class="st6" d="M544.29,181.36h3.05v3.05h-3.05v7.62h49.77v-7.62h-3.05v-3.05h3.05v-7.62h-49.77V181.36z M588.21,189.48
							h-6.09v-3.05h6.09V189.48z M581.61,175.26h7.11v7.11h-7.11V175.26z M573.99,175.26h4.06v4.06h-4.06V175.26z M573.99,180.85
							h4.06v4.06h-4.06V180.85z M573.99,186.44h4.06v4.06h-4.06V186.44z M567.9,175.26h4.06v4.06h-4.06V175.26z M567.9,180.85h4.06
							v4.06h-4.06V180.85z M567.9,186.44h4.06v4.06h-4.06V186.44z M561.81,175.26h4.06v4.06h-4.06V175.26z M561.81,180.85h4.06v4.06
							h-4.06V180.85z M561.81,186.44h4.06v4.06h-4.06V186.44z M555.71,175.26h4.06v4.06h-4.06V175.26z M555.71,180.85h4.06v4.06
							h-4.06V180.85z M555.71,186.44h4.06v4.06h-4.06V186.44z M549.62,175.26h4.06v4.06h-4.06V175.26z M549.62,180.85h4.06v4.06
							h-4.06V180.85z M549.62,186.44h4.06v4.06h-4.06V186.44z"/>
						<path class="st6" d="M544.29,159.01h3.05v3.05h-3.05v7.62h49.77v-7.62h-3.05v-3.05h3.05v-7.62h-49.77V159.01z M588.21,167.14
							h-6.09v-3.05h6.09V167.14z M581.61,152.92h7.11v7.11h-7.11V152.92z M573.99,152.92h4.06v4.06h-4.06V152.92z M573.99,158.5
							h4.06v4.06h-4.06V158.5z M573.99,164.09h4.06v4.06h-4.06V164.09z M567.9,152.92h4.06v4.06h-4.06V152.92z M567.9,158.5h4.06
							v4.06h-4.06V158.5z M567.9,164.09h4.06v4.06h-4.06V164.09z M561.81,152.92h4.06v4.06h-4.06V152.92z M561.81,158.5h4.06v4.06
							h-4.06V158.5z M561.81,164.09h4.06v4.06h-4.06V164.09z M555.71,152.92h4.06v4.06h-4.06V152.92z M555.71,158.5h4.06v4.06h-4.06
							V158.5z M555.71,164.09h4.06v4.06h-4.06V164.09z M549.62,152.92h4.06v4.06h-4.06V152.92z M549.62,158.5h4.06v4.06h-4.06V158.5
							z M549.62,164.09h4.06v4.06h-4.06V164.09z"/>
						<path class="st6" d="M594.05,136.67v-7.62h-49.77v7.62h3.05v3.05h-3.05v7.62h49.77v-7.62h-3.05v-3.05H594.05z M553.68,145.81
							h-4.06v-4.06h4.06V145.81z M553.68,140.22h-4.06v-4.06h4.06V140.22z M553.68,134.64h-4.06v-4.06h4.06V134.64z M559.77,145.81
							h-4.06v-4.06h4.06V145.81z M559.77,140.22h-4.06v-4.06h4.06V140.22z M559.77,134.64h-4.06v-4.06h4.06V134.64z M565.87,145.81
							h-4.06v-4.06h4.06V145.81z M565.87,140.22h-4.06v-4.06h4.06V140.22z M565.87,134.64h-4.06v-4.06h4.06V134.64z M571.96,145.81
							h-4.06v-4.06h4.06V145.81z M571.96,140.22h-4.06v-4.06h4.06V140.22z M571.96,134.64h-4.06v-4.06h4.06V134.64z M578.06,145.81
							h-4.06v-4.06h4.06V145.81z M578.06,140.22h-4.06v-4.06h4.06V140.22z M578.06,134.64h-4.06v-4.06h4.06V134.64z M588.21,144.79
							h-6.09v-3.05h6.09V144.79z M588.72,137.68h-7.11v-7.11h7.11V137.68z"/>
					</g>
				</g>
				<g>
					<g>
						<path class="st7" d="M713.53,146.82c10.94,0,19.81-8.87,19.81-19.81s-8.87-19.81-19.81-19.81c-0.57,0-1.12,0.04-1.68,0.08
							c0.43-1.48,0.66-3.04,0.66-4.66c0-8.98-7.05-16.25-15.74-16.25c-7.01,0-12.94,4.73-14.98,11.27
							c-2.04-6.54-7.97-11.27-14.98-11.27c-8.69,0-15.74,7.28-15.74,16.25c0,1.62,0.24,3.18,0.66,4.66
							c-0.55-0.05-1.11-0.08-1.68-0.08c-10.94,0-19.81,8.87-19.81,19.81s8.87,19.81,19.81,19.81H713.53z"/>
						<g>
							<ellipse class="st3" cx="681.79" cy="114.32" rx="8.25" ry="9.98"/>
							<g>
								<path class="st3" d="M691.46,114.32c0,0.65-0.05,1.29-0.14,1.91c1.35,1.18,3.01,1.88,4.8,1.88c4.55,0,8.25-4.47,8.25-9.98
									s-3.69-9.98-8.25-9.98c-3.88,0-7.12,3.25-8,7.61C690.17,107.84,691.46,110.9,691.46,114.32z"/>
								<path class="st3" d="M667.45,118.11c1.79,0,3.45-0.7,4.8-1.88c-0.09-0.62-0.14-1.26-0.14-1.91c0-3.42,1.3-6.48,3.34-8.56
									c-0.88-4.37-4.12-7.61-8-7.61c-4.55,0-8.25,4.47-8.25,9.98S662.89,118.11,667.45,118.11z"/>
								<path class="st3" d="M703.29,115.73c-1.77,2.3-4.32,3.75-7.17,3.75c-1.88,0-3.63-0.65-5.11-1.74
									c-0.3,1.09-0.73,2.11-1.27,3.03c5.31,2.8,8.81,8.08,9.48,14.11c4.57-0.22,8.92-0.91,12.91-2c0.08-0.67,0.12-1.35,0.12-2.04
									C712.26,124.22,708.6,118.49,703.29,115.73z"/>
								<path class="st3" d="M673.83,120.77c-0.55-0.92-0.98-1.94-1.27-3.03c-1.48,1.1-3.23,1.74-5.11,1.74
									c-2.84,0-5.39-1.45-7.17-3.75c-5.31,2.76-8.96,8.49-8.96,15.11c0,0.69,0.04,1.37,0.12,2.04c3.99,1.09,8.34,1.78,12.91,2
									C665.03,128.85,668.52,123.58,673.83,120.77z"/>
							</g>
							<path class="st3" d="M688.95,121.93c-1.77,2.3-4.32,3.75-7.17,3.75s-5.39-1.45-7.17-3.75c-5.31,2.76-8.96,8.49-8.96,15.11
								c0,0.69,0.04,1.37,0.12,2.04c4.89,1.34,10.3,2.09,16.01,2.09s11.12-0.75,16.01-2.09c0.08-0.67,0.12-1.35,0.12-2.04
								C697.92,130.41,694.26,124.68,688.95,121.93z"/>
						</g>
					</g>
					<g>
						<g>
							<polygon class="st7" points="643.07,158 662.74,158 662.74,142.25 661.73,142.25 661.73,156.98 643.07,156.98 643.07,152.42 
								634.3,157.49 643.07,162.55 							"/>
							<polygon class="st7" points="671.88,173.74 616.16,173.74 616.16,169.18 607.39,174.25 616.16,179.31 616.16,174.76 
								672.9,174.76 672.9,144.28 671.88,144.28 							"/>
							<polygon class="st7" points="720.5,162.55 729.27,157.49 720.5,152.42 720.5,156.98 701.85,156.98 701.85,142.25 
								700.83,142.25 700.83,158 720.5,158 							"/>
							<polygon class="st7" points="756.18,174.25 747.41,169.18 747.41,173.74 691.69,173.74 691.69,144.28 690.67,144.28 
								690.67,174.76 747.41,174.76 747.41,179.31 							"/>
						</g>
						<polygon class="st7" points="682.29,187.31 682.29,145.3 681.28,145.3 681.28,187.31 676.72,187.31 681.79,196.09 
							686.85,187.31 						"/>
					</g>
				</g>
			</g>
		</g>
		<g>
			<g>
				<polygon class="st8" points="250.32,598 152.03,427.75 250.32,257.5 446.91,257.5 545.2,427.75 446.91,598 				"/>
				<polygon class="st3" points="428.55,289.31 268.69,289.31 188.76,427.75 268.69,566.2 428.55,566.2 508.48,427.75 				"/>
			</g>
			<g>
				<g>
					<polygon class="st9" points="353.85,397.98 336.21,397.98 327.39,413.26 336.21,428.54 353.85,428.54 362.68,413.26 					"/>
					<g>
						<polygon class="st6" points="392.54,367.53 391.24,368.33 418.51,412.77 399.38,447.02 400.71,447.76 420.28,412.73 						"/>
						<path class="st6" d="M408.49,411.99h-25.38l-7.36-10.12l21.3-9.13l-10.35-17.98l4.68-4.23l-1.03-1.13l-4.43,4.01L377.05,358
							h-5.26l5.09-9.17h-48.44l5.09,9.17h-19.51l-25.24,42.08l23.43,4.07l-5.79,9.65l11.48,16.7l1.26-0.87l-10.93-15.89l6.43-10.72
							l-23.43-4.07l23.65-39.42h21.24l-5.09-9.17h43.25l-5.09,9.17h6.97l8.6,14.94l-15.09,13.65l-4.84-8.72h-14.26l2.55-11.21
							h-33.56v1.53h31.64l-2.2,9.68h-21.69l-12.91,18.28l9.24,6.16l-4.96,8.94l13.69,23.16h4.64l-3.06,20.37h21.02l0.47,10.7h-40.56
							l7.63-11.45l-11.3-17.75l5.73-4.05l-0.88-1.25l-5.67,4l-9.93-15.6l-17.8,9.66l-10.62-18.34l28.31-50.56l-1.33-0.75
							l-28.52,50.94l-0.21,0.38l11.8,20.38l17.85-9.69l9.2,14.46l-10.99,7.76l14.39,22.61l-0.52,0.77h45.01l-0.53-12.22h13.41
							l11.43-18.7l-1.3-0.8l-10.98,17.97h-12.62l-0.42-9.68h8.81l18.34-31.58h22.69l-27.12,47.21l7.49,8.56l1.15-1.01l-6.77-7.74
							L408.49,411.99z M300.22,445.56l9.74-6.88l10.72,16.85l-7.22,10.83L300.22,445.56z M363.95,443.57h-9.53l0.49,11.21h-19.18
							l3.06-20.37h-5.54l-12.8-21.66l5.22-9.4l-9.1-6.07l11.54-16.35h20.55l-2.55,11.21h11.73l12,20l1.31-0.79l-12.45-20.75h-10.68
							l2.2-9.68h13.71l5.34,9.62l16.27-14.72l9.33,16.2l-21.48,9.21l8.42,11.58L363.95,443.57z"/>
					</g>
					<circle class="st9" cx="308.36" cy="475.91" r="9.68"/>
					<circle class="st7" cx="400.55" cy="446.88" r="5.09"/>
					<circle class="st7" cx="382.21" cy="435.67" r="5.09"/>
					<circle class="st7" cx="355.73" cy="444.84" r="4.07"/>
					<circle class="st7" cx="298.68" cy="444.84" r="4.07"/>
					<circle class="st7" cx="338.41" cy="435.67" r="3.06"/>
					<circle class="st7" cx="392.4" cy="368.44" r="4.07"/>
					<circle class="st7" cx="329.24" cy="348.06" r="5.09"/>
					<circle class="st7" cx="356.64" cy="467.36" r="4.07"/>
					<circle class="st7" cx="318.03" cy="431.6" r="5.09"/>
					<circle class="st7" cx="291.55" cy="399" r="5.09"/>
					<circle class="st7" cx="324.15" cy="404.09" r="5.09"/>
					<circle class="st7" cx="396.48" cy="392.89" r="5.6"/>
					<circle class="st7" cx="369.48" cy="390.34" r="5.6"/>
					<circle class="st7" cx="376.61" cy="346.53" r="6.62"/>
					<circle class="st9" cx="406.66" cy="413.26" r="4.07"/>
					<circle class="st9" cx="352.67" cy="369.46" r="4.58"/>
					<circle class="st9" cx="301.23" cy="422.94" r="4.58"/>
					<circle class="st9" cx="317.52" cy="372" r="5.6"/>
					<circle class="st9" cx="301.23" cy="358.76" r="5.6"/>
					<circle class="st9" cx="370.5" cy="412.75" r="5.6"/>
					<circle class="st9" cx="334.84" cy="455.54" r="5.6"/>
					<circle class="st9" cx="387.82" cy="469.8" r="5.6"/>
					<g>
						<rect x="332.81" y="416.83" class="st3" width="4.07" height="4.07"/>
						<rect x="337.9" y="414.79" class="st3" width="4.07" height="6.11"/>
						<rect x="342.99" y="410.71" class="st3" width="4.07" height="10.19"/>
						<rect x="348.09" y="412.75" class="st3" width="4.07" height="8.15"/>
						<rect x="353.18" y="405.62" class="st3" width="4.07" height="15.28"/>
					</g>
				</g>
				<g>
					<g>
						<path class="st6" d="M429.59,398.49v41.77h17.32v-41.77H429.59z M442.83,416.83h-11.21v-2.04h11.21V416.83z M442.83,412.75
							h-11.21v-2.04h11.21V412.75z M442.83,408.68h-11.21v-2.04h11.21V408.68z M442.83,404.6h-11.21v-2.04h11.21V404.6z"/>
						<path class="st6" d="M468.3,398.49v41.77h17.32v-41.77H468.3z M472.37,414.79h11.21v2.04h-11.21V414.79z M472.37,410.71h11.21
							v2.04h-11.21V410.71z M472.37,406.64h11.21v2.04h-11.21V406.64z M472.37,402.56h11.21v2.04h-11.21V402.56z"/>
						<path class="st6" d="M448.94,396.45v43.81h17.32v-43.81H448.94z M457.6,433.13c-2.25,0-4.07-1.82-4.07-4.07
							c0-2.25,1.82-4.07,4.07-4.07s4.07,1.82,4.07,4.07C461.68,431.3,459.85,433.13,457.6,433.13z M463.2,414.79H452v-2.04h11.21
							V414.79z M463.2,410.71H452v-2.04h11.21V410.71z M463.2,406.64H452v-2.04h11.21V406.64z M463.2,402.56H452v-2.04h11.21V402.56
							z"/>
					</g>
					<g>
						<g>
							<g>
								<path class="st6" d="M250.8,362.33c0,0,5.09-1.02,2.04-6.11c0,0-3.06-1.02-3.06-5.09s-5.09-8.15-10.19-3.06
									S239.59,364.36,250.8,362.33z"/>
								<path class="st6" d="M262.02,359.17c0,0-5.09,1.02-2.04,6.11c0,0,3.06,1.02,3.06,5.09s5.09,8.15,10.19,3.06
									S273.23,357.14,262.02,359.17z"/>
								<path class="st6" d="M260.95,357.18c0,0,1.02-3.06,5.09-3.06s8.15-5.09,3.06-10.19s-16.3,0-14.26,11.21
									C254.83,355.14,255.85,360.23,260.95,357.18z"/>
								<path class="st6" d="M251.87,364.32c0,0-1.02,3.06-5.09,3.06c-4.07,0-8.15,5.09-3.06,10.19c5.09,5.09,16.3,0,14.26-11.21
									C257.98,366.36,256.97,361.27,251.87,364.32z"/>
							</g>
							<circle class="st6" cx="256.41" cy="360.75" r="2.16"/>
						</g>
						<g>
							<path class="st6" d="M233.99,392.63c-9.97,0-18.08,8.11-18.08,18.08c0,8.01,5.24,14.82,12.48,17.18v2.68h11.21v-2.68
								c7.23-2.37,12.48-9.17,12.48-17.18C252.07,400.74,243.96,392.63,233.99,392.63z M233.99,426.25
								c-8.57,0-15.54-6.97-15.54-15.54c0-8.57,6.97-15.54,15.54-15.54c8.57,0,15.54,6.97,15.54,15.54
								C249.52,419.28,242.56,426.25,233.99,426.25z"/>
							<path class="st6" d="M220.99,408.17h1.18c1.14-5.28,5.74-9.29,11.3-9.52v-1.15C227.28,397.73,222.15,402.25,220.99,408.17z"
								/>
							<rect x="228.39" y="431.6" class="st6" width="11.21" height="3.06"/>
							<rect x="231.44" y="435.67" class="st6" width="5.09" height="3.06"/>
							<rect x="232.46" y="380.66" class="st6" width="3.06" height="7.13"/>
							
								<rect x="217.69" y="384.74" transform="matrix(0.7071 -0.7071 0.7071 0.7071 -210.3642 268.7412)" class="st6" width="3.06" height="7.13"/>
							
								<rect x="245.19" y="386.77" transform="matrix(0.7071 -0.7071 0.7071 0.7071 -201.7112 289.6314)" class="st6" width="7.13" height="3.06"/>
						</g>
					</g>
				</g>
				<g>
					<path class="st6" d="M455.63,391.21c-0.39-1.01-0.78-1.99-1.19-2.95l1.87-0.8c0.42,0.98,0.83,1.99,1.23,3.02L455.63,391.21z
						 M452.31,383.72c-0.76-1.5-1.58-2.97-2.43-4.39l1.75-1.05c0.87,1.45,1.72,2.97,2.5,4.51L452.31,383.72z M447.14,375.14
						c-0.97-1.37-2-2.7-3.06-3.97l1.56-1.31c1.09,1.31,2.15,2.68,3.15,4.09L447.14,375.14z M440.72,367.47
						c-1.17-1.18-2.4-2.33-3.66-3.41l1.32-1.55c1.31,1.12,2.58,2.3,3.79,3.53L440.72,367.47z M433.12,360.97
						c-1.34-0.97-2.75-1.89-4.18-2.75l1.05-1.75c1.48,0.89,2.94,1.84,4.33,2.84L433.12,360.97z M424.53,355.84
						c-1.48-0.73-3.02-1.41-4.58-2.03l0.75-1.89c1.61,0.64,3.2,1.35,4.73,2.1L424.53,355.84z M415.22,352.13
						c-1.59-0.49-3.22-0.94-4.85-1.32l0.46-1.98c1.68,0.39,3.35,0.85,4.99,1.36L415.22,352.13z M405.45,349.84
						c-1.66-0.27-3.33-0.48-4.99-0.63l0.18-2.03c1.7,0.15,3.43,0.37,5.13,0.65L405.45,349.84z M390.47,349.08l-0.22-2.03
						c0.07-0.01,1.99-0.22,5.22-0.15l-0.04,2.04C392.35,348.88,390.49,349.07,390.47,349.08z"/>
				</g>
				<g>
					<g>
						<path class="st6" d="M235.53,447.05c-0.93-1.36-1.39-2.18-1.41-2.22l1.78-1c0,0.01,0.45,0.79,1.32,2.07L235.53,447.05z"/>
					</g>
					<g>
						<path class="st6" d="M286.46,476.73c-1.69-0.14-3.39-0.33-5.04-0.59l0.31-2.01c1.6,0.25,3.25,0.44,4.89,0.57L286.46,476.73z
							 M276.43,475.18c-1.64-0.38-3.29-0.83-4.9-1.34l0.61-1.94c1.56,0.49,3.15,0.92,4.75,1.29L276.43,475.18z M266.75,472.14
							c-1.56-0.62-3.12-1.32-4.64-2.07l0.9-1.83c1.47,0.73,2.98,1.4,4.49,2.01L266.75,472.14z M257.65,467.65
							c-1.44-0.85-2.88-1.78-4.27-2.74l1.16-1.67c1.35,0.94,2.74,1.83,4.14,2.66L257.65,467.65z M249.32,461.86
							c-1.31-1.06-2.6-2.18-3.83-3.32l1.39-1.49c1.2,1.12,2.45,2.2,3.72,3.23L249.32,461.86z M241.9,454.96
							c-1.17-1.25-2.29-2.54-3.33-3.83l1.58-1.28c1.01,1.25,2.1,2.51,3.24,3.72L241.9,454.96z"/>
					</g>
					<g>
						<path class="st6" d="M292.25,476.96c-0.24,0-0.48,0-0.72,0l0.02-2.04c0.83,0.01,1.66,0,2.51-0.02l0.05,2.04
							C293.49,476.95,292.87,476.96,292.25,476.96z"/>
					</g>
				</g>
			</g>
		</g>
		<g>
			<g>
				<path class="st10" d="M190.93,126.72l-1.03,0.43c-0.55,0.55-1.47-20.61-0.4,85l2.85-0.03c-0.24-23.77-0.47-30.82-0.48-53.91
					h52.69v25.76h2.85v-57.25H190.93z M196.84,130.07h42.48l-21.32,10.82L196.84,130.07z M214.87,142.49l-22.99,11.67
					c0.01-10.97,0.07-19.44,0.22-23.31L214.87,142.49z M195.77,155.37L218,144.09l22.07,11.28H195.77z M221.14,142.5l23.42-11.89
					v23.86L221.14,142.5z"/>
				<g>
					<g>
						<path class="st10" d="M76.79,139.4h-4.25l0.01-38.64c0.56-7.25,9.73-14.31,10.78-15.09l2.55,3.4
							c-2.4,1.8-8.67,7.43-9.08,11.94V139.4z"/>
					</g>
					<g>
						<rect x="31.85" y="154.8" class="st7" width="153.97" height="57.34"/>
						<g>
							<rect x="43.24" y="162.11" class="st6" width="36.7" height="2.12"/>
							<rect x="43.24" y="165.23" class="st6" width="36.7" height="2.12"/>
							<rect x="43.24" y="168.36" class="st6" width="36.7" height="2.12"/>
							<rect x="43.24" y="171.48" class="st6" width="36.7" height="2.12"/>
							<rect x="43.24" y="174.6" class="st6" width="36.7" height="2.12"/>
							<rect x="43.24" y="177.72" class="st6" width="36.7" height="2.12"/>
							<rect x="43.24" y="180.85" class="st6" width="36.7" height="2.12"/>
							<rect x="43.24" y="183.97" class="st6" width="36.7" height="2.12"/>
							<rect x="43.24" y="187.09" class="st6" width="36.7" height="2.12"/>
							<rect x="43.24" y="190.22" class="st6" width="36.7" height="2.12"/>
							<rect x="43.24" y="193.34" class="st6" width="36.7" height="2.12"/>
							<rect x="43.24" y="196.46" class="st6" width="36.7" height="2.12"/>
							<rect x="43.24" y="199.59" class="st6" width="36.7" height="2.12"/>
							<rect x="43.24" y="202.71" class="st6" width="36.7" height="2.12"/>
							<rect x="90.49" y="162.11" class="st6" width="36.7" height="2.12"/>
							<rect x="90.49" y="165.23" class="st6" width="36.7" height="2.12"/>
							<rect x="90.49" y="168.36" class="st6" width="36.7" height="2.12"/>
							<rect x="90.49" y="171.48" class="st6" width="36.7" height="2.12"/>
							<rect x="90.49" y="174.6" class="st6" width="36.7" height="2.12"/>
							<rect x="90.49" y="177.72" class="st6" width="36.7" height="2.12"/>
							<rect x="90.49" y="180.85" class="st6" width="36.7" height="2.12"/>
							<rect x="90.49" y="183.97" class="st6" width="36.7" height="2.12"/>
							<rect x="90.49" y="187.09" class="st6" width="36.7" height="2.12"/>
							<rect x="90.49" y="190.22" class="st6" width="36.7" height="2.12"/>
							<rect x="90.49" y="193.34" class="st6" width="36.7" height="2.12"/>
							<rect x="90.49" y="196.46" class="st6" width="36.7" height="2.12"/>
							<rect x="90.49" y="199.59" class="st6" width="36.7" height="2.12"/>
							<rect x="90.49" y="202.71" class="st6" width="36.7" height="2.12"/>
							<rect x="137.74" y="162.11" class="st6" width="36.7" height="2.12"/>
							<rect x="137.74" y="165.23" class="st6" width="36.7" height="2.12"/>
							<rect x="137.74" y="168.36" class="st6" width="36.7" height="2.12"/>
							<rect x="137.74" y="171.48" class="st6" width="36.7" height="2.12"/>
							<rect x="137.74" y="174.6" class="st6" width="36.7" height="2.12"/>
							<rect x="137.74" y="177.72" class="st6" width="36.7" height="2.12"/>
							<rect x="137.74" y="180.85" class="st6" width="36.7" height="2.12"/>
							<rect x="137.74" y="183.97" class="st6" width="36.7" height="2.12"/>
							<rect x="137.74" y="187.09" class="st6" width="36.7" height="2.12"/>
							<rect x="137.74" y="190.22" class="st6" width="36.7" height="2.12"/>
							<rect x="137.74" y="193.34" class="st6" width="36.7" height="2.12"/>
							<rect x="137.74" y="196.46" class="st6" width="36.7" height="2.12"/>
							<rect x="137.74" y="199.59" class="st6" width="36.7" height="2.12"/>
							<rect x="137.74" y="202.71" class="st6" width="36.7" height="2.12"/>
						</g>
					</g>
					<rect x="51.62" y="137.66" class="st11" width="122" height="17.15"/>
					<rect x="64.93" y="141.4" class="st9" width="95.39" height="10.87"/>
					<path class="st11" d="M220.77,23.79c-2.3-2.48-6.54-5.44-13.71-5.44h-64.61c-1.74-0.08-9.76-0.16-15.49,5.16
						c-2.46,2.29-5.39,6.47-5.39,13.42v19.02h11.68V36.94c0-3.3,1.23-4.46,1.64-4.84c2.01-1.9,5.75-2.14,6.97-2.07l65.19,0.01
						c3.54,0,4.72,1.25,5.11,1.66c1.65,1.75,1.86,4.86,1.81,5.85l-0.01,4.16h11.67v-3.54C225.73,36.48,225.77,29.19,220.77,23.79z"
						/>
					<path class="st11" d="M266.87,89.17c-2.3-2.48-6.54-5.44-13.71-5.44H249v11.68l4.15,0c3.54,0,4.72,1.25,5.11,1.66
						c1.65,1.75,1.86,4.86,1.81,5.85l-0.01,69.61h11.67v-68.99C271.82,101.86,271.87,94.57,266.87,89.17z"/>
					<g>
						<rect x="205.39" y="172.54" class="st7" width="107.75" height="39.6"/>
						<rect x="213.08" y="195.46" class="st9" width="10.26" height="16.68"/>
						<rect x="233.6" y="195.46" class="st9" width="10.26" height="16.68"/>
						<rect x="254.13" y="195.46" class="st9" width="10.26" height="16.68"/>
						<rect x="274.66" y="195.46" class="st9" width="10.26" height="16.68"/>
						<rect x="295.19" y="195.46" class="st9" width="10.26" height="16.68"/>
						<rect x="213.08" y="179.85" class="st9" width="92.38" height="10.37"/>
					</g>
					<rect x="84.6" y="89.5" class="st9" width="86.38" height="48.16"/>
					<rect x="81.19" y="80.88" class="st7" width="93.21" height="8.62"/>
					<polygon class="st9" points="140.94,55.96 116.77,55.96 87.04,80.88 168.55,80.88 					"/>
					<rect x="61.59" y="101.55" class="st10" width="13.09" height="4.62"/>
					<rect x="61.59" y="117.54" class="st10" width="13.09" height="4.62"/>
					<rect x="187.41" y="41.71" class="st9" width="10.26" height="91.32"/>
					<rect x="197.68" y="41.71" class="st7" width="10.26" height="91.32"/>
					<rect x="207.94" y="41.71" class="st9" width="10.26" height="91.32"/>
					<rect x="218.21" y="41.71" class="st7" width="10.26" height="91.32"/>
					<rect x="228.47" y="41.71" class="st9" width="10.26" height="91.32"/>
					<rect x="238.74" y="41.71" class="st7" width="10.26" height="91.32"/>
				</g>
				<rect x="187.41" y="105.24" class="st10" width="61.59" height="12.3"/>
			</g>
			<g>
				<rect x="341.09" y="69.24" class="st6" width="60.96" height="142.91"/>
				<rect x="353.8" y="79.95" class="st3" width="9.56" height="9.56"/>
				<rect x="366.79" y="79.95" class="st4" width="9.56" height="9.56"/>
				<rect x="379.78" y="79.95" class="st9" width="9.56" height="9.56"/>
				<rect x="353.8" y="95.94" class="st9" width="9.56" height="9.56"/>
				<rect x="366.79" y="95.94" class="st3" width="9.56" height="9.56"/>
				<rect x="379.78" y="95.94" class="st4" width="9.56" height="9.56"/>
				<rect x="353.8" y="111.94" class="st4" width="9.56" height="9.56"/>
				<rect x="366.79" y="111.94" class="st4" width="9.56" height="9.56"/>
				<rect x="379.78" y="111.94" class="st3" width="9.56" height="9.56"/>
				<rect x="353.8" y="127.93" class="st4" width="9.56" height="9.56"/>
				<rect x="366.79" y="127.93" class="st3" width="9.56" height="9.56"/>
				<rect x="379.78" y="127.93" class="st12" width="9.56" height="9.56"/>
				<rect x="353.8" y="143.92" class="st3" width="9.56" height="9.56"/>
				<rect x="366.79" y="143.92" class="st9" width="9.56" height="9.56"/>
				<rect x="379.78" y="143.92" class="st4" width="9.56" height="9.56"/>
				<rect x="353.8" y="159.91" class="st12" width="9.56" height="9.56"/>
				<rect x="366.79" y="159.91" class="st3" width="9.56" height="9.56"/>
				<rect x="379.78" y="159.91" class="st9" width="9.56" height="9.56"/>
				<rect x="353.8" y="175.9" class="st4" width="9.56" height="9.56"/>
				<rect x="366.79" y="175.9" class="st9" width="9.56" height="9.56"/>
				<rect x="379.78" y="175.9" class="st3" width="9.56" height="9.56"/>
				<rect x="353.8" y="191.89" class="st4" width="9.56" height="9.56"/>
				<rect x="366.79" y="191.89" class="st3" width="9.56" height="9.56"/>
				<rect x="379.78" y="191.89" class="st12" width="9.56" height="9.56"/>
				<g>
					<circle class="st13" cx="371.57" cy="53.64" r="8.76"/>
					<path class="st13" d="M371.57,31.75c-9.08,0-17.02,4.92-21.34,12.22l4.3,4.3c3.08-6.32,9.55-10.69,17.04-10.69
						s13.96,4.37,17.04,10.69l4.3-4.3C388.59,36.67,380.65,31.75,371.57,31.75z"/>
					<path class="st13" d="M371.57,17.16c-13.1,0-24.69,6.45-31.86,16.31l6.27,6.27c5.49-8.31,14.9-13.82,25.59-13.82
						c10.68,0,20.1,5.5,25.59,13.82l6.27-6.27C396.25,23.6,384.66,17.16,371.57,17.16z"/>
				</g>
			</g>
		</g>
		<g>
			<g>
				<g>
					<path class="st6" d="M861.7,76.17c-11.76,0-21.32-9.22-21.32-20.54s9.56-20.54,21.32-20.54s21.32,9.22,21.32,20.54
						S873.45,76.17,861.7,76.17z M861.7,37.25c-10.52,0-19.08,8.25-19.08,18.38s8.56,18.38,19.08,18.38s19.08-8.25,19.08-18.38
						S872.22,37.25,861.7,37.25z"/>
				</g>
				<g>
					
						<rect x="981.83" y="133.95" transform="matrix(6.123234e-17 -1 1 6.123234e-17 831.7985 1157.5479)" class="st7" width="25.68" height="57.86"/>
					
						<rect x="968.44" y="167.1" transform="matrix(6.123234e-17 -1 1 6.123234e-17 801.2397 1140.6715)" class="st3" width="5.03" height="5.22"/>
					
						<rect x="968.44" y="160.26" transform="matrix(6.123234e-17 -1 1 6.123234e-17 808.0809 1133.8303)" class="st3" width="5.03" height="5.22"/>
					
						<rect x="968.44" y="153.42" transform="matrix(6.123234e-17 -1 1 6.123234e-17 814.9221 1126.9891)" class="st3" width="5.03" height="5.22"/>
					
						<rect x="977.18" y="167.1" transform="matrix(6.123234e-17 -1 1 6.123234e-17 809.9774 1149.4092)" class="st3" width="5.03" height="5.22"/>
					
						<rect x="977.18" y="160.26" transform="matrix(6.123234e-17 -1 1 6.123234e-17 816.8185 1142.568)" class="st3" width="5.03" height="5.22"/>
					
						<rect x="977.18" y="153.42" transform="matrix(6.123234e-17 -1 1 6.123234e-17 823.6597 1135.7268)" class="st3" width="5.03" height="5.22"/>
					
						<rect x="985.91" y="167.1" transform="matrix(6.123234e-17 -1 1 6.123234e-17 818.7151 1158.1469)" class="st3" width="5.03" height="5.22"/>
					
						<rect x="985.91" y="160.26" transform="matrix(6.123234e-17 -1 1 6.123234e-17 825.5563 1151.3057)" class="st3" width="5.03" height="5.22"/>
					
						<rect x="985.91" y="153.42" transform="matrix(6.123234e-17 -1 1 6.123234e-17 832.3975 1144.4645)" class="st3" width="5.03" height="5.22"/>
					<rect x="993.97" y="153.52" class="st3" width="26.34" height="18.71"/>
				</g>
				<rect x="884.66" y="175.72" class="st6" width="143.73" height="36.44"/>
				<g>
					<rect x="892.3" y="169.72" class="st7" width="64.23" height="31.38"/>
					<rect x="886.92" y="158.55" class="st7" width="74.98" height="11.17"/>
					<g>
						<ellipse class="st3" cx="924.41" cy="190.3" rx="6.19" ry="5.96"/>
						<path class="st3" d="M924.41,175.38c-6.42,0-12.03,3.35-15.09,8.33l3.04,2.93c2.18-4.3,6.75-7.28,12.05-7.28
							c5.29,0,9.87,2.98,12.05,7.28l3.04-2.93C936.44,178.74,930.83,175.38,924.41,175.38z"/>
						<path class="st3" d="M924.41,165.44c-9.26,0-17.45,4.39-22.52,11.11l4.43,4.27c3.88-5.66,10.53-9.41,18.09-9.41
							c7.55,0,14.21,3.75,18.09,9.41l4.43-4.27C941.86,169.83,933.67,165.44,924.41,165.44z"/>
					</g>
				</g>
				<rect x="969.68" y="181.88" class="st7" width="11.34" height="19.22"/>
				<rect x="986.54" y="181.88" class="st7" width="11.34" height="19.22"/>
				<rect x="1003.41" y="181.88" class="st7" width="11.34" height="19.22"/>
				<rect x="899.49" y="152.33" class="st14" width="49.85" height="6.22"/>
				<rect x="906.09" y="120.31" class="st6" width="36.75" height="32.03"/>
				<g>
					<path class="st9" d="M1019.22,63.39l-22.57-0.73l-6.29-6.82l1.28-2.11l1.69-2.25l-12.73-6.22l-0.82-0.42l-5.25,8.79
						L938.2,35.59l-77.5,12.33l-6.33,13.07l53.74,76.11l22.82-15.95c-0.25-0.97-49.16-59.7-49.16-59.7l54.18-9.73l30.55,15.34
						l-6.32,10.58l11.52,8.7l1.95-2.9l6.42-10.61c8.24-0.79,34.14-3.4,34.14-3.4l16.05,12.81h8.53L1019.22,63.39z"/>
					<path class="st9" d="M996.7,96.86l-6.02-18.31l-6.96,6.71l9.59,19.59c0,0,23.33,7.05,23.89,7.82c0.56,0.77,1.21-2.76,1.21-2.76
						l-20.77-10.33L996.7,96.86z"/>
				</g>
				<g>
					<ellipse class="st7" cx="922.27" cy="129.95" rx="17.06" ry="16.44"/>
					<ellipse class="st3" cx="922.27" cy="129.95" rx="6.56" ry="6.32"/>
				</g>
				<g>
					<ellipse class="st7" cx="861.7" cy="55.63" rx="11.19" ry="10.79"/>
					<ellipse class="st3" cx="861.7" cy="55.63" rx="4.3" ry="4.15"/>
				</g>
				<g>
					<ellipse class="st7" cx="936.56" cy="42.94" rx="11.19" ry="10.79"/>
					<ellipse class="st3" cx="936.56" cy="42.94" rx="4.3" ry="4.15"/>
				</g>
				<g>
					<ellipse class="st7" cx="963.65" cy="56.72" rx="9.06" ry="8.73"/>
					<ellipse class="st3" cx="963.65" cy="56.72" rx="3.48" ry="3.36"/>
				</g>
				<g>
					<path class="st6" d="M874.18,106.93c0,0-24.38-34.54-24.56-34.78l1.76-1.15c0.17,0.24,24.56,34.78,24.56,34.78L874.18,106.93z"
						/>
				</g>
				<g>
					<ellipse class="st7" cx="879.83" cy="107.03" rx="5.86" ry="5.65"/>
					<ellipse class="st3" cx="879.83" cy="107.03" rx="2.25" ry="2.17"/>
				</g>
				<g>
					<ellipse class="st7" cx="1015.95" cy="66.42" rx="6.4" ry="6.16"/>
					<ellipse class="st3" cx="1015.95" cy="66.42" rx="2.46" ry="2.37"/>
				</g>
				<g>
					<ellipse class="st7" cx="994.67" cy="101.38" rx="6.4" ry="6.16"/>
					<ellipse class="st3" cx="994.67" cy="101.38" rx="2.46" ry="2.37"/>
				</g>
				<polygon class="st6" points="1004.68,61.11 991.62,53.73 973.64,83.45 986.86,90.7 				"/>
				<path class="st12" d="M1045.8,82.24c0.03,0,0.03,0.01,0,0.02v21.49l-28.41,9.77V89.61L1045.8,82.24z"/>
				<polygon class="st6" points="1017.4,89.61 1045.8,82.26 1022.76,82.26 1001.66,86.08 1001.66,101.58 1017.4,109.41 				"/>
			</g>
			<g>
				<g>
					<rect x="1051.67" y="142.93" class="st7" width="43.08" height="52.19"/>
					<rect x="1094.76" y="142.93" class="st15" width="44.96" height="52.19"/>
					<rect x="1070.22" y="101.38" class="st16" width="49.07" height="41.55"/>
				</g>
				<rect x="1037.65" y="195.12" class="st12" width="111.97" height="17.04"/>
			</g>
		</g>
		<g>
			<g>
				<g>
					<path class="st6" d="M1799.89,319.93c1.21,5.1,4.64,11.84,14.3,11.84h46.5c9.66,0,13.09-6.73,14.3-11.84v-5.63h-75.09V319.93z"
						/>
					<path class="st6" d="M1799.89,284.83h75.09V260.6h-75.09V284.83z M1861.66,266.82c3.26,0,5.89,2.64,5.89,5.89
						c0,3.26-2.64,5.89-5.89,5.89c-3.26,0-5.89-2.64-5.89-5.89C1855.77,269.46,1858.41,266.82,1861.66,266.82z M1806.98,266.82
						h35.36v11.79h-35.36V266.82z"/>
					<path class="st6" d="M1799.89,232.44v25.54h75.09v-25.54H1799.89z M1842.35,251.1h-35.36v-11.79h35.36V251.1z M1861.66,251.1
						c-3.26,0-5.89-2.64-5.89-5.89c0-3.26,2.64-5.89,5.89-5.89c3.26,0,5.89,2.64,5.89,5.89
						C1867.56,248.46,1864.92,251.1,1861.66,251.1z"/>
					<path class="st6" d="M1799.89,311.68h75.09v-24.23h-75.09V311.68z M1861.66,293.67c3.26,0,5.89,2.64,5.89,5.89
						c0,3.26-2.64,5.89-5.89,5.89c-3.26,0-5.89-2.64-5.89-5.89C1855.77,296.31,1858.41,293.67,1861.66,293.67z M1806.98,293.67
						h35.36v11.79h-35.36V293.67z"/>
				</g>
				<path class="st6" d="M1635.73,256.56l17.68-18.66l3.27-9.17l31.76-32.74l11.79-2.54l3.84,5.82l33.16,33.07l5.05-5.57
					l-33.54-33.32l-10.91-7.94l-11.35,5.89c0,0-35.04,34.38-35.04,35.36s-4.91,4.91-4.91,4.91l-15.06,22.27l-2.95-3.93l10.15-21.61
					l46.73-47.45l24.65,2.92l42.9,40.93l-1.75,18.72l-20.85-4.31l-36.82-36.35l-32.6,31.74l-2.62,8.92l-21.12,14.35L1635.73,256.56z
					"/>
				<rect x="1739.2" y="259.84" class="st17" width="24.01" height="71.93"/>
				<g>
					<circle class="st7" cx="1751.21" cy="243.52" r="23.19"/>
					<circle class="st3" cx="1751.21" cy="243.52" r="8.92"/>
				</g>
				<g>
					<circle class="st7" cx="1697.83" cy="187.2" r="16.24"/>
					<circle class="st3" cx="1697.83" cy="187.2" r="6.24"/>
				</g>
				<path class="st9" d="M1633.98,228.07c0,0,20.08,19.65,20.74,19.97s5.89,0,5.89,0l2.62-2.51l-0.74-12.45l-14.68-13.97l-9.68,1.2
					l-4.15,3.6V228.07z"/>
				<rect x="1440.77" y="331.76" class="st9" width="479.23" height="8.73"/>
				<rect x="1430.8" y="302.4" class="st7" width="308.4" height="29.36"/>
				<g>
					<rect x="1582.36" y="281.45" class="st18" width="18.01" height="38.97"/>
					<rect x="1600.36" y="281.45" class="st12" width="18.01" height="38.97"/>
				</g>
				<g>
					<rect x="1678.05" y="281.45" class="st18" width="18.01" height="38.97"/>
					<rect x="1696.06" y="281.45" class="st12" width="18.01" height="38.97"/>
				</g>
				<g>
					<rect x="1623.94" y="265.07" class="st18" width="23.9" height="55.34"/>
					<rect x="1647.84" y="265.07" class="st12" width="23.9" height="55.34"/>
				</g>
				<g>
					<path class="st13" d="M1771.34,152.11h-118.1c0,0-43.88,0.87-43.88-25.76s11.57-47.59,43.11-47.59c0,0-6.22-49.77,49.99-53.26
						c2.07,0.87,36.13-3.49,51.41,31c0,0,45.41-11.79,48.46,39.29c0,0,26.85,0,26.96,34.05c0,0-2.95,22.27-32.64,22.27
						L1771.34,152.11z"/>
					<linearGradient id="SVGID_4_" gradientUnits="userSpaceOnUse" x1="1604.731" y1="88.8028" x2="1824.6633" y2="88.8028">
						<stop  offset="0" style="stop-color:#C7EAFB"/>
						<stop  offset="0.0925" style="stop-color:#CCECFB"/>
						<stop  offset="0.195" style="stop-color:#D9F1FC"/>
						<stop  offset="0.302" style="stop-color:#EFF9FE"/>
						<stop  offset="0.3629" style="stop-color:#FFFFFF"/>
						<stop  offset="0.453" style="stop-color:#F6FCFE"/>
						<stop  offset="0.6032" style="stop-color:#DCF3FD"/>
						<stop  offset="0.7951" style="stop-color:#B2E5FA"/>
						<stop  offset="1" style="stop-color:#7ED3F7"/>
					</linearGradient>
					<path class="st19" d="M1766.71,152.11h-118.1c0,0-43.88,0.87-43.88-25.76s11.57-47.59,43.11-47.59c0,0-6.22-49.77,49.99-53.26
						c2.07,0.87,36.13-3.49,51.41,31c0,0,45.41-11.79,48.46,39.29c0,0,26.85,0,26.96,34.05c0,0-2.95,22.27-32.64,22.27
						L1766.71,152.11z"/>
				</g>
				<g>
					<path class="st13" d="M1863.12,170.5h-58.55c0,0-21.75,0.43-21.75-12.77c0-13.2,5.74-23.59,21.37-23.59
						c0,0-3.08-24.67,24.78-26.41c1.03,0.43,17.91-1.73,25.49,15.37c0,0,22.51-5.84,24.02,19.48c0,0,13.31,0,13.37,16.88
						c0,0-1.46,11.04-16.18,11.04L1863.12,170.5z"/>
					<linearGradient id="SVGID_5_" gradientUnits="userSpaceOnUse" x1="1780.5228" y1="139.1213" x2="1889.5537" y2="139.1213">
						<stop  offset="0" style="stop-color:#C7EAFB"/>
						<stop  offset="0.0925" style="stop-color:#CCECFB"/>
						<stop  offset="0.195" style="stop-color:#D9F1FC"/>
						<stop  offset="0.302" style="stop-color:#EFF9FE"/>
						<stop  offset="0.3629" style="stop-color:#FFFFFF"/>
						<stop  offset="0.453" style="stop-color:#F6FCFE"/>
						<stop  offset="0.6032" style="stop-color:#DCF3FD"/>
						<stop  offset="0.7951" style="stop-color:#B2E5FA"/>
						<stop  offset="1" style="stop-color:#7ED3F7"/>
					</linearGradient>
					<path class="st20" d="M1860.82,170.5h-58.55c0,0-21.75,0.43-21.75-12.77c0-13.2,5.74-23.59,21.37-23.59
						c0,0-3.08-24.67,24.78-26.41c1.03,0.43,17.91-1.73,25.49,15.37c0,0,22.51-5.84,24.02,19.48c0,0,13.31,0,13.37,16.88
						c0,0-1.46,11.04-16.18,11.04L1860.82,170.5z"/>
				</g>
				<defs>
					<filter id="Adobe_OpacityMaskFilter" filterUnits="userSpaceOnUse" x="1805.89" y="137.62" width="63.09" height="94.82">
						<feColorMatrix  type="matrix" values="1 0 0 0 0  0 1 0 0 0  0 0 1 0 0  0 0 0 1 0"/>
					</filter>
				</defs>
				<mask maskUnits="userSpaceOnUse" x="1805.89" y="137.62" width="63.09" height="94.82" id="SVGID_6_">
					<g class="st21">
						<linearGradient id="SVGID_7_" gradientUnits="userSpaceOnUse" x1="1837.4337" y1="178.9845" x2="1837.4337" y2="140.7822">
							<stop  offset="0" style="stop-color:#FFFFFF"/>
							<stop  offset="1" style="stop-color:#000000"/>
						</linearGradient>
						<rect x="1805.89" y="137.62" class="st22" width="63.09" height="94.82"/>
					</g>
				</mask>
				<linearGradient id="SVGID_8_" gradientUnits="userSpaceOnUse" x1="1805.89" y1="185.03" x2="1868.9774" y2="185.03">
					<stop  offset="0" style="stop-color:#C7EAFB"/>
					<stop  offset="0.0925" style="stop-color:#CCECFB"/>
					<stop  offset="0.195" style="stop-color:#D9F1FC"/>
					<stop  offset="0.302" style="stop-color:#EFF9FE"/>
					<stop  offset="0.3629" style="stop-color:#FFFFFF"/>
					<stop  offset="0.453" style="stop-color:#F6FCFE"/>
					<stop  offset="0.6032" style="stop-color:#DCF3FD"/>
					<stop  offset="0.7951" style="stop-color:#B2E5FA"/>
					<stop  offset="1" style="stop-color:#7ED3F7"/>
				</linearGradient>
				<path class="st23" d="M1805.89,137.62v94.82h63.09v-94.82H1805.89z M1809.86,231.23h-3.43v-4.08h3.43V231.23z M1809.86,226.34
					h-3.43v-4.18h3.43V226.34z M1809.86,221.34h-3.43v-2.61h3.43V221.34z M1809.86,217.92h-3.43v-4.08h3.43V217.92z M1809.86,213.02
					h-3.43v-4.18h3.43V213.02z M1809.86,208.03h-3.43v-2.61h3.43V208.03z M1809.86,204.6h-3.43v-4.08h3.43V204.6z M1809.86,199.7
					h-3.43v-4.18h3.43V199.7z M1809.86,194.71h-3.43v-2.61h3.43V194.71z M1809.86,191.28h-3.43v-4.08h3.43V191.28z M1809.86,186.38
					h-3.43v-4.18h3.43V186.38z M1809.86,181.39h-3.43v-2.61h3.43V181.39z M1809.86,177.96h-3.43v-4.08h3.43V177.96z M1809.86,173.07
					h-3.43v-4.18h3.43V173.07z M1809.86,168.07h-3.43v-2.61h3.43V168.07z M1809.86,164.64h-3.43v-4.08h3.43V164.64z M1809.86,159.75
					h-3.43v-4.18h3.43V159.75z M1809.86,154.75h-3.43v-2.61h3.43V154.75z M1809.86,151.33h-3.43v-4.08h3.43V151.33z M1809.86,146.43
					h-3.43v-4.18h3.43V146.43z M1809.86,141.44h-3.43v-2.61h3.43V141.44z M1814.74,231.23h-3.43v-4.08h3.43V231.23z M1814.74,226.34
					h-3.43v-4.18h3.43V226.34z M1814.74,221.34h-3.43v-2.61h3.43V221.34z M1814.74,217.92h-3.43v-4.08h3.43V217.92z M1814.74,213.02
					h-3.43v-4.18h3.43V213.02z M1814.74,208.03h-3.43v-2.61h3.43V208.03z M1814.74,204.6h-3.43v-4.08h3.43V204.6z M1814.74,199.7
					h-3.43v-4.18h3.43V199.7z M1814.74,194.71h-3.43v-2.61h3.43V194.71z M1814.74,191.28h-3.43v-4.08h3.43V191.28z M1814.74,186.38
					h-3.43v-4.18h3.43V186.38z M1814.74,181.39h-3.43v-2.61h3.43V181.39z M1814.74,177.96h-3.43v-4.08h3.43V177.96z M1814.74,173.07
					h-3.43v-4.18h3.43V173.07z M1814.74,168.07h-3.43v-2.61h3.43V168.07z M1814.74,164.64h-3.43v-4.08h3.43V164.64z M1814.74,159.75
					h-3.43v-4.18h3.43V159.75z M1814.74,154.75h-3.43v-2.61h3.43V154.75z M1814.74,151.33h-3.43v-4.08h3.43V151.33z M1814.74,146.43
					h-3.43v-4.18h3.43V146.43z M1814.74,141.44h-3.43v-2.61h3.43V141.44z M1819.62,231.23h-3.43v-4.08h3.43V231.23z M1819.62,226.34
					h-3.43v-4.18h3.43V226.34z M1819.62,221.34h-3.43v-2.61h3.43V221.34z M1819.62,217.92h-3.43v-4.08h3.43V217.92z M1819.62,213.02
					h-3.43v-4.18h3.43V213.02z M1819.62,208.03h-3.43v-2.61h3.43V208.03z M1819.62,204.6h-3.43v-4.08h3.43V204.6z M1819.62,199.7
					h-3.43v-4.18h3.43V199.7z M1819.62,194.71h-3.43v-2.61h3.43V194.71z M1819.62,191.28h-3.43v-4.08h3.43V191.28z M1819.62,186.38
					h-3.43v-4.18h3.43V186.38z M1819.62,181.39h-3.43v-2.61h3.43V181.39z M1819.62,177.96h-3.43v-4.08h3.43V177.96z M1819.62,173.07
					h-3.43v-4.18h3.43V173.07z M1819.62,168.07h-3.43v-2.61h3.43V168.07z M1819.62,164.64h-3.43v-4.08h3.43V164.64z M1819.62,159.75
					h-3.43v-4.18h3.43V159.75z M1819.62,154.75h-3.43v-2.61h3.43V154.75z M1819.62,151.33h-3.43v-4.08h3.43V151.33z M1819.62,146.43
					h-3.43v-4.18h3.43V146.43z M1819.62,141.44h-3.43v-2.61h3.43V141.44z M1824.5,231.23h-3.43v-4.08h3.43V231.23z M1824.5,226.34
					h-3.43v-4.18h3.43V226.34z M1824.5,221.34h-3.43v-2.61h3.43V221.34z M1824.5,217.92h-3.43v-4.08h3.43V217.92z M1824.5,213.02
					h-3.43v-4.18h3.43V213.02z M1824.5,208.03h-3.43v-2.61h3.43V208.03z M1824.5,204.6h-3.43v-4.08h3.43V204.6z M1824.5,199.7h-3.43
					v-4.18h3.43V199.7z M1824.5,194.71h-3.43v-2.61h3.43V194.71z M1824.5,191.28h-3.43v-4.08h3.43V191.28z M1824.5,186.38h-3.43
					v-4.18h3.43V186.38z M1824.5,181.39h-3.43v-2.61h3.43V181.39z M1824.5,177.96h-3.43v-4.08h3.43V177.96z M1824.5,173.07h-3.43
					v-4.18h3.43V173.07z M1824.5,168.07h-3.43v-2.61h3.43V168.07z M1824.5,164.64h-3.43v-4.08h3.43V164.64z M1824.5,159.75h-3.43
					v-4.18h3.43V159.75z M1824.5,154.75h-3.43v-2.61h3.43V154.75z M1824.5,151.33h-3.43v-4.08h3.43V151.33z M1824.5,146.43h-3.43
					v-4.18h3.43V146.43z M1824.5,141.44h-3.43v-2.61h3.43V141.44z M1829.38,231.23h-3.43v-4.08h3.43V231.23z M1829.38,226.34h-3.43
					v-4.18h3.43V226.34z M1829.38,221.34h-3.43v-2.61h3.43V221.34z M1829.38,217.92h-3.43v-4.08h3.43V217.92z M1829.38,213.02h-3.43
					v-4.18h3.43V213.02z M1829.38,208.03h-3.43v-2.61h3.43V208.03z M1829.38,204.6h-3.43v-4.08h3.43V204.6z M1829.38,199.7h-3.43
					v-4.18h3.43V199.7z M1829.38,194.71h-3.43v-2.61h3.43V194.71z M1829.38,191.28h-3.43v-4.08h3.43V191.28z M1829.38,186.38h-3.43
					v-4.18h3.43V186.38z M1829.38,181.39h-3.43v-2.61h3.43V181.39z M1829.38,177.96h-3.43v-4.08h3.43V177.96z M1829.38,173.07h-3.43
					v-4.18h3.43V173.07z M1829.38,168.07h-3.43v-2.61h3.43V168.07z M1829.38,164.64h-3.43v-4.08h3.43V164.64z M1829.38,159.75h-3.43
					v-4.18h3.43V159.75z M1829.38,154.75h-3.43v-2.61h3.43V154.75z M1829.38,151.33h-3.43v-4.08h3.43V151.33z M1829.38,146.43h-3.43
					v-4.18h3.43V146.43z M1829.38,141.44h-3.43v-2.61h3.43V141.44z M1834.27,231.23h-3.43v-4.08h3.43V231.23z M1834.27,226.34h-3.43
					v-4.18h3.43V226.34z M1834.27,221.34h-3.43v-2.61h3.43V221.34z M1834.27,217.92h-3.43v-4.08h3.43V217.92z M1834.27,213.02h-3.43
					v-4.18h3.43V213.02z M1834.27,208.03h-3.43v-2.61h3.43V208.03z M1834.27,204.6h-3.43v-4.08h3.43V204.6z M1834.27,199.7h-3.43
					v-4.18h3.43V199.7z M1834.27,194.71h-3.43v-2.61h3.43V194.71z M1834.27,191.28h-3.43v-4.08h3.43V191.28z M1834.27,186.38h-3.43
					v-4.18h3.43V186.38z M1834.27,181.39h-3.43v-2.61h3.43V181.39z M1834.27,177.96h-3.43v-4.08h3.43V177.96z M1834.27,173.07h-3.43
					v-4.18h3.43V173.07z M1834.27,168.07h-3.43v-2.61h3.43V168.07z M1834.27,164.64h-3.43v-4.08h3.43V164.64z M1834.27,159.75h-3.43
					v-4.18h3.43V159.75z M1834.27,154.75h-3.43v-2.61h3.43V154.75z M1834.27,151.33h-3.43v-4.08h3.43V151.33z M1834.27,146.43h-3.43
					v-4.18h3.43V146.43z M1834.27,141.44h-3.43v-2.61h3.43V141.44z M1839.15,231.23h-3.43v-4.08h3.43V231.23z M1839.15,226.34h-3.43
					v-4.18h3.43V226.34z M1839.15,221.34h-3.43v-2.61h3.43V221.34z M1839.15,217.92h-3.43v-4.08h3.43V217.92z M1839.15,213.02h-3.43
					v-4.18h3.43V213.02z M1839.15,208.03h-3.43v-2.61h3.43V208.03z M1839.15,204.6h-3.43v-4.08h3.43V204.6z M1839.15,199.7h-3.43
					v-4.18h3.43V199.7z M1839.15,194.71h-3.43v-2.61h3.43V194.71z M1839.15,191.28h-3.43v-4.08h3.43V191.28z M1839.15,186.38h-3.43
					v-4.18h3.43V186.38z M1839.15,181.39h-3.43v-2.61h3.43V181.39z M1839.15,177.96h-3.43v-4.08h3.43V177.96z M1839.15,173.07h-3.43
					v-4.18h3.43V173.07z M1839.15,168.07h-3.43v-2.61h3.43V168.07z M1839.15,164.64h-3.43v-4.08h3.43V164.64z M1839.15,159.75h-3.43
					v-4.18h3.43V159.75z M1839.15,154.75h-3.43v-2.61h3.43V154.75z M1839.15,151.33h-3.43v-4.08h3.43V151.33z M1839.15,146.43h-3.43
					v-4.18h3.43V146.43z M1839.15,141.44h-3.43v-2.61h3.43V141.44z M1844.03,231.23h-3.43v-4.08h3.43V231.23z M1844.03,226.34h-3.43
					v-4.18h3.43V226.34z M1844.03,221.34h-3.43v-2.61h3.43V221.34z M1844.03,217.92h-3.43v-4.08h3.43V217.92z M1844.03,213.02h-3.43
					v-4.18h3.43V213.02z M1844.03,208.03h-3.43v-2.61h3.43V208.03z M1844.03,204.6h-3.43v-4.08h3.43V204.6z M1844.03,199.7h-3.43
					v-4.18h3.43V199.7z M1844.03,194.71h-3.43v-2.61h3.43V194.71z M1844.03,191.28h-3.43v-4.08h3.43V191.28z M1844.03,186.38h-3.43
					v-4.18h3.43V186.38z M1844.03,181.39h-3.43v-2.61h3.43V181.39z M1844.03,177.96h-3.43v-4.08h3.43V177.96z M1844.03,173.07h-3.43
					v-4.18h3.43V173.07z M1844.03,168.07h-3.43v-2.61h3.43V168.07z M1844.03,164.64h-3.43v-4.08h3.43V164.64z M1844.03,159.75h-3.43
					v-4.18h3.43V159.75z M1844.03,154.75h-3.43v-2.61h3.43V154.75z M1844.03,151.33h-3.43v-4.08h3.43V151.33z M1844.03,146.43h-3.43
					v-4.18h3.43V146.43z M1844.03,141.44h-3.43v-2.61h3.43V141.44z M1848.91,231.23h-3.43v-4.08h3.43V231.23z M1848.91,226.34h-3.43
					v-4.18h3.43V226.34z M1848.91,221.34h-3.43v-2.61h3.43V221.34z M1848.91,217.92h-3.43v-4.08h3.43V217.92z M1848.91,213.02h-3.43
					v-4.18h3.43V213.02z M1848.91,208.03h-3.43v-2.61h3.43V208.03z M1848.91,204.6h-3.43v-4.08h3.43V204.6z M1848.91,199.7h-3.43
					v-4.18h3.43V199.7z M1848.91,194.71h-3.43v-2.61h3.43V194.71z M1848.91,191.28h-3.43v-4.08h3.43V191.28z M1848.91,186.38h-3.43
					v-4.18h3.43V186.38z M1848.91,181.39h-3.43v-2.61h3.43V181.39z M1848.91,177.96h-3.43v-4.08h3.43V177.96z M1848.91,173.07h-3.43
					v-4.18h3.43V173.07z M1848.91,168.07h-3.43v-2.61h3.43V168.07z M1848.91,164.64h-3.43v-4.08h3.43V164.64z M1848.91,159.75h-3.43
					v-4.18h3.43V159.75z M1848.91,154.75h-3.43v-2.61h3.43V154.75z M1848.91,151.33h-3.43v-4.08h3.43V151.33z M1848.91,146.43h-3.43
					v-4.18h3.43V146.43z M1848.91,141.44h-3.43v-2.61h3.43V141.44z M1853.79,231.23h-3.43v-4.08h3.43V231.23z M1853.79,226.34h-3.43
					v-4.18h3.43V226.34z M1853.79,221.34h-3.43v-2.61h3.43V221.34z M1853.79,217.92h-3.43v-4.08h3.43V217.92z M1853.79,213.02h-3.43
					v-4.18h3.43V213.02z M1853.79,208.03h-3.43v-2.61h3.43V208.03z M1853.79,204.6h-3.43v-4.08h3.43V204.6z M1853.79,199.7h-3.43
					v-4.18h3.43V199.7z M1853.79,194.71h-3.43v-2.61h3.43V194.71z M1853.79,191.28h-3.43v-4.08h3.43V191.28z M1853.79,186.38h-3.43
					v-4.18h3.43V186.38z M1853.79,181.39h-3.43v-2.61h3.43V181.39z M1853.79,177.96h-3.43v-4.08h3.43V177.96z M1853.79,173.07h-3.43
					v-4.18h3.43V173.07z M1853.79,168.07h-3.43v-2.61h3.43V168.07z M1853.79,164.64h-3.43v-4.08h3.43V164.64z M1853.79,159.75h-3.43
					v-4.18h3.43V159.75z M1853.79,154.75h-3.43v-2.61h3.43V154.75z M1853.79,151.33h-3.43v-4.08h3.43V151.33z M1853.79,146.43h-3.43
					v-4.18h3.43V146.43z M1853.79,141.44h-3.43v-2.61h3.43V141.44z M1858.67,231.23h-3.43v-4.08h3.43V231.23z M1858.67,226.34h-3.43
					v-4.18h3.43V226.34z M1858.67,221.34h-3.43v-2.61h3.43V221.34z M1858.67,217.92h-3.43v-4.08h3.43V217.92z M1858.67,213.02h-3.43
					v-4.18h3.43V213.02z M1858.67,208.03h-3.43v-2.61h3.43V208.03z M1858.67,204.6h-3.43v-4.08h3.43V204.6z M1858.67,199.7h-3.43
					v-4.18h3.43V199.7z M1858.67,194.71h-3.43v-2.61h3.43V194.71z M1858.67,191.28h-3.43v-4.08h3.43V191.28z M1858.67,186.38h-3.43
					v-4.18h3.43V186.38z M1858.67,181.39h-3.43v-2.61h3.43V181.39z M1858.67,177.96h-3.43v-4.08h3.43V177.96z M1858.67,173.07h-3.43
					v-4.18h3.43V173.07z M1858.67,168.07h-3.43v-2.61h3.43V168.07z M1858.67,164.64h-3.43v-4.08h3.43V164.64z M1858.67,159.75h-3.43
					v-4.18h3.43V159.75z M1858.67,154.75h-3.43v-2.61h3.43V154.75z M1858.67,151.33h-3.43v-4.08h3.43V151.33z M1858.67,146.43h-3.43
					v-4.18h3.43V146.43z M1858.67,141.44h-3.43v-2.61h3.43V141.44z M1863.55,231.23h-3.43v-4.08h3.43V231.23z M1863.55,226.34h-3.43
					v-4.18h3.43V226.34z M1863.55,221.34h-3.43v-2.61h3.43V221.34z M1863.55,217.92h-3.43v-4.08h3.43V217.92z M1863.55,213.02h-3.43
					v-4.18h3.43V213.02z M1863.55,208.03h-3.43v-2.61h3.43V208.03z M1863.55,204.6h-3.43v-4.08h3.43V204.6z M1863.55,199.7h-3.43
					v-4.18h3.43V199.7z M1863.55,194.71h-3.43v-2.61h3.43V194.71z M1863.55,191.28h-3.43v-4.08h3.43V191.28z M1863.55,186.38h-3.43
					v-4.18h3.43V186.38z M1863.55,181.39h-3.43v-2.61h3.43V181.39z M1863.55,177.96h-3.43v-4.08h3.43V177.96z M1863.55,173.07h-3.43
					v-4.18h3.43V173.07z M1863.55,168.07h-3.43v-2.61h3.43V168.07z M1863.55,164.64h-3.43v-4.08h3.43V164.64z M1863.55,159.75h-3.43
					v-4.18h3.43V159.75z M1863.55,154.75h-3.43v-2.61h3.43V154.75z M1863.55,151.33h-3.43v-4.08h3.43V151.33z M1863.55,146.43h-3.43
					v-4.18h3.43V146.43z M1863.55,141.44h-3.43v-2.61h3.43V141.44z M1868.43,231.23h-3.43v-4.08h3.43V231.23z M1868.43,226.34h-3.43
					v-4.18h3.43V226.34z M1868.43,221.34h-3.43v-2.61h3.43V221.34z M1868.43,217.92h-3.43v-4.08h3.43V217.92z M1868.43,213.02h-3.43
					v-4.18h3.43V213.02z M1868.43,208.03h-3.43v-2.61h3.43V208.03z M1868.43,204.6h-3.43v-4.08h3.43V204.6z M1868.43,199.7h-3.43
					v-4.18h3.43V199.7z M1868.43,194.71h-3.43v-2.61h3.43V194.71z M1868.43,191.28h-3.43v-4.08h3.43V191.28z M1868.43,186.38h-3.43
					v-4.18h3.43V186.38z M1868.43,181.39h-3.43v-2.61h3.43V181.39z M1868.43,177.96h-3.43v-4.08h3.43V177.96z M1868.43,173.07h-3.43
					v-4.18h3.43V173.07z M1868.43,168.07h-3.43v-2.61h3.43V168.07z M1868.43,164.64h-3.43v-4.08h3.43V164.64z M1868.43,159.75h-3.43
					v-4.18h3.43V159.75z M1868.43,154.75h-3.43v-2.61h3.43V154.75z M1868.43,151.33h-3.43v-4.08h3.43V151.33z M1868.43,146.43h-3.43
					v-4.18h3.43V146.43z M1868.43,141.44h-3.43v-2.61h3.43V141.44z"/>
				<defs>
					<filter id="Adobe_OpacityMaskFilter_1_" filterUnits="userSpaceOnUse" x="1784.61" y="138.83" width="104.95" height="31.68">
						<feColorMatrix  type="matrix" values="1 0 0 0 0  0 1 0 0 0  0 0 1 0 0  0 0 0 1 0"/>
					</filter>
				</defs>
				<mask maskUnits="userSpaceOnUse" x="1784.61" y="138.83" width="104.95" height="31.68" id="SVGID_9_">
					<g class="st24">
						<linearGradient id="SVGID_10_" gradientUnits="userSpaceOnUse" x1="1828.5027" y1="139.3967" x2="1838.326" y2="163.3">
							<stop  offset="0" style="stop-color:#FFFFFF"/>
							<stop  offset="1" style="stop-color:#000000"/>
						</linearGradient>
						<path class="st25" d="M1784.61,165.86c6.3,4.86,17.67,4.64,17.67,4.64h58.55l12.55,0c14.72,0,16.18-11.04,16.18-11.04
							c-0.01-4.62-1.03-7.98-2.49-10.41c-3.81-1.96-8.65-3.86-14.71-5.67C1821.4,128.16,1793.39,155.11,1784.61,165.86z"/>
					</g>
				</mask>
				<path class="st26" d="M1784.61,165.86c6.3,4.86,17.67,4.64,17.67,4.64h58.55l12.55,0c14.72,0,16.18-11.04,16.18-11.04
					c-0.01-4.62-1.03-7.98-2.49-10.41c-3.81-1.96-8.65-3.86-14.71-5.67C1821.4,128.16,1793.39,155.11,1784.61,165.86z"/>
			</g>
			<g>
				<rect x="1702.3" y="106.67" class="st18" width="4.5" height="11.23"/>
				<rect x="1706.8" y="106.67" class="st12" width="4.5" height="11.23"/>
				<rect x="1715.8" y="87.17" class="st18" width="4.5" height="30.73"/>
				<rect x="1720.3" y="87.17" class="st12" width="4.5" height="30.73"/>
				<rect x="1729.31" y="94.26" class="st18" width="4.5" height="23.64"/>
				<rect x="1733.81" y="94.26" class="st12" width="4.5" height="23.64"/>
				<rect x="1742.81" y="79.49" class="st18" width="4.5" height="38.41"/>
				<rect x="1747.31" y="79.49" class="st12" width="4.73" height="38.41"/>
				<g>
					<g>
						<g>
							<rect x="1652.79" y="136.13" class="st27" width="2.81" height="2.84"/>
							<rect x="1655.6" y="136.13" class="st28" width="2.81" height="2.84"/>
							<rect x="1661.23" y="131.95" class="st27" width="2.81" height="7.02"/>
							<rect x="1664.04" y="131.95" class="st28" width="2.81" height="7.02"/>
							<rect x="1669.67" y="119.76" class="st27" width="2.81" height="19.21"/>
							<rect x="1672.48" y="119.76" class="st28" width="2.81" height="19.21"/>
							<rect x="1678.1" y="124.19" class="st27" width="2.81" height="14.77"/>
							<rect x="1680.92" y="124.19" class="st28" width="2.81" height="14.77"/>
							<rect x="1686.54" y="114.96" class="st27" width="2.81" height="24.01"/>
							<rect x="1689.36" y="114.96" class="st28" width="2.95" height="24.01"/>
						</g>
						<g>
							<path class="st6" d="M1697.67,143.4h-50.23v-32.87h50.23V143.4z M1649.65,141.19h45.8v-28.44h-45.8V141.19z"/>
						</g>
					</g>
				</g>
				<g>
					<circle class="st13" cx="1720.42" cy="65.27" r="4.87"/>
					<path class="st13" d="M1720.42,53.09c-5.06,0-9.47,2.74-11.88,6.8l2.39,2.39c1.72-3.52,5.32-5.95,9.48-5.95
						s7.77,2.43,9.48,5.95l2.39-2.39C1729.89,55.83,1725.47,53.09,1720.42,53.09z"/>
					<path class="st13" d="M1720.42,44.96c-7.29,0-13.74,3.59-17.73,9.07l3.49,3.49c3.05-4.63,8.29-7.69,14.24-7.69
						c5.95,0,11.19,3.06,14.24,7.69l3.49-3.49C1734.16,48.55,1727.71,44.96,1720.42,44.96z"/>
				</g>
				<g>
					<path class="st6" d="M1755.5,119.76v23.64h13.96v-23.64H1755.5z M1762.48,142.43c-0.74,0-1.39-0.6-1.39-1.34
						c0-0.74,0.6-1.34,1.34-1.34c0.74,0,1.34,0.6,1.34,1.34C1763.78,141.83,1763.22,142.43,1762.48,142.43z M1768.3,138.83h-11.62
						v-17.9h11.62V138.83z"/>
					<rect x="1757.78" y="122.26" class="st12" width="2.53" height="2.53"/>
					<rect x="1761.22" y="122.26" class="st12" width="2.53" height="2.53"/>
					<rect x="1764.66" y="122.26" class="st12" width="2.53" height="2.53"/>
					<rect x="1757.78" y="126.5" class="st12" width="2.53" height="2.53"/>
					<rect x="1761.22" y="126.5" class="st12" width="2.53" height="2.53"/>
					<rect x="1764.66" y="126.5" class="st12" width="2.53" height="2.53"/>
					<rect x="1757.78" y="130.73" class="st12" width="2.53" height="2.53"/>
					<rect x="1761.22" y="130.73" class="st12" width="2.53" height="2.53"/>
				</g>
				<polygon class="st6" points="1757.06,92.09 1757.06,105.96 1757.06,108.02 1757.06,117.13 1760.6,117.13 1760.6,108.91 
					1760.6,106.73 1760.6,92.09 1760.6,72.4 1680.23,72.4 1680.23,109.06 1683.78,109.06 1683.78,75.94 1757.06,75.94 				"/>
				<polygon class="st6" points="1752.84,134.63 1732.23,134.63 1730.74,130.61 1736.06,130.61 1752.84,130.61 1752.84,121.45 
					1744.3,121.45 1742.09,121.45 1736.06,121.45 1699.73,121.45 1699.73,130.61 1710.09,130.61 1708.61,134.63 1699.73,134.63 
					1699.73,143.4 1752.84,143.4 				"/>
				<g>
					<circle class="st13" cx="1762.48" cy="112.26" r="4.87"/>
					<path class="st13" d="M1762.48,100.08c-5.06,0-9.47,2.74-11.88,6.8l2.39,2.39c1.72-3.52,5.32-5.95,9.48-5.95
						c4.17,0,7.77,2.43,9.48,5.95l2.39-2.39C1771.96,102.82,1767.54,100.08,1762.48,100.08z"/>
					<path class="st13" d="M1762.48,91.95c-7.29,0-13.74,3.59-17.73,9.07l3.49,3.49c3.05-4.63,8.29-7.69,14.24-7.69
						c5.95,0,11.19,3.06,14.24,7.69l3.49-3.49C1776.22,95.54,1769.77,91.95,1762.48,91.95z"/>
				</g>
				<g>
					<circle class="st13" cx="1672.55" cy="101.98" r="4.87"/>
					<path class="st13" d="M1672.55,89.8c-5.06,0-9.47,2.74-11.88,6.8l2.39,2.39c1.72-3.52,5.32-5.95,9.48-5.95
						c4.17,0,7.77,2.43,9.48,5.95l2.39-2.39C1682.02,92.54,1677.6,89.8,1672.55,89.8z"/>
					<path class="st13" d="M1672.55,81.67c-7.29,0-13.74,3.59-17.73,9.07l3.49,3.49c3.05-4.63,8.29-7.69,14.24-7.69
						c5.95,0,11.19,3.06,14.24,7.69l3.49-3.49C1686.29,85.26,1679.84,81.67,1672.55,81.67z"/>
				</g>
			</g>
		</g>
		<g>
			<g>
				<polygon class="st16" points="1249.83,340.5 1151.54,170.25 1249.83,0 1446.42,0 1544.71,170.25 1446.42,340.5 				"/>
				<polygon class="st3" points="1438.86,13.1 1257.39,13.1 1166.66,170.25 1257.39,327.4 1438.86,327.4 1529.59,170.25 				"/>
			</g>
			<g>
				<g>
					<path class="st15" d="M1294.3,211.45h134.05c8.78,0,10.87-4.76,11.35-7.57v-98.53h-156.75v98.53
						C1283.42,206.68,1285.52,211.45,1294.3,211.45z"/>
					<g>
						<ellipse class="st6" cx="1444" cy="187.07" rx="10.99" ry="13.86"/>
						<g>
							<path class="st6" d="M1456.91,187.07c0,0.9-0.07,1.79-0.19,2.65c1.8,1.63,4.01,2.61,6.4,2.61c6.07,0,10.99-6.21,10.99-13.86
								s-4.92-13.86-10.99-13.86c-5.17,0-9.49,4.51-10.67,10.57C1455.17,178.07,1456.91,182.33,1456.91,187.07z"/>
							<path class="st6" d="M1424.89,192.33c2.39,0,4.6-0.97,6.4-2.61c-0.12-0.86-0.19-1.75-0.19-2.65c0-4.75,1.73-9,4.45-11.89
								c-1.17-6.06-5.5-10.57-10.67-10.57c-6.07,0-10.99,6.21-10.99,13.86S1418.82,192.33,1424.89,192.33z"/>
							<path class="st6" d="M1472.67,189.03c-2.36,3.19-5.77,5.21-9.55,5.21c-2.51,0-4.84-0.9-6.81-2.42
								c-0.39,1.52-0.97,2.93-1.7,4.21c7.08,3.89,11.74,11.22,12.64,19.6c6.09-0.3,11.89-1.27,17.21-2.78
								c0.1-0.93,0.16-1.88,0.16-2.84C1484.62,200.82,1479.75,192.86,1472.67,189.03z"/>
							<path class="st6" d="M1433.4,196.04c-0.73-1.28-1.3-2.7-1.7-4.21c-1.98,1.52-4.31,2.42-6.81,2.42
								c-3.79,0-7.19-2.02-9.55-5.21c-7.08,3.83-11.95,11.78-11.95,20.98c0,0.96,0.06,1.91,0.16,2.84
								c5.32,1.52,11.12,2.48,17.21,2.78C1421.66,207.26,1426.32,199.93,1433.4,196.04z"/>
						</g>
						<path class="st6" d="M1453.56,197.64c-2.36,3.19-5.77,5.21-9.55,5.21s-7.19-2.02-9.55-5.21
							c-7.08,3.83-11.95,11.78-11.95,20.98c0,0.96,0.06,1.91,0.16,2.84c6.52,1.86,13.74,2.9,21.34,2.9s14.83-1.04,21.34-2.9
							c0.1-0.93,0.16-1.88,0.16-2.84C1465.51,209.42,1460.64,201.47,1453.56,197.64z"/>
					</g>
					<rect x="1279.12" y="88.15" class="st6" width="164.4" height="17.2"/>
					<rect x="1294.89" y="116.34" class="st28" width="106.1" height="12.43"/>
					<rect x="1294.89" y="133.55" class="st6" width="45.88" height="5.73"/>
					<g>
						<circle class="st3" cx="1361.8" cy="170.82" r="30.11"/>
						<g>
							<circle class="st29" cx="1361.8" cy="170.82" r="28.2"/>
							<g>
								<path class="st28" d="M1389.12,163.83c-3.11-12.19-14.16-21.21-27.32-21.21v28.2L1389.12,163.83z"/>
								<path class="st30" d="M1389.71,174.81c0.18-1.3,0.29-2.63,0.29-3.99c0-2.41-0.3-4.75-0.87-6.99l-27.32,6.99L1389.71,174.81z
									"/>
							</g>
							<path class="st31" d="M1388.56,179.72c0.52-1.58,0.91-3.22,1.15-4.91l-27.91-3.99L1388.56,179.72z"/>
						</g>
					</g>
					<g>
						<circle class="st3" cx="1307.32" cy="186.59" r="12.43"/>
						<g>
							<circle class="st29" cx="1307.32" cy="186.59" r="11.64"/>
							<g>
								<path class="st28" d="M1318.6,183.71c-1.28-5.03-5.84-8.75-11.28-8.75v11.64L1318.6,183.71z"/>
								<path class="st30" d="M1318.84,188.24c0.08-0.54,0.12-1.09,0.12-1.65c0-1-0.13-1.96-0.36-2.88l-11.28,2.88L1318.84,188.24z"
									/>
							</g>
							<path class="st31" d="M1318.36,190.27c0.22-0.65,0.38-1.33,0.48-2.02l-11.52-1.65L1318.36,190.27z"/>
						</g>
					</g>
					<g>
						<circle class="st3" cx="1307.32" cy="155.05" r="12.43"/>
						<g>
							<circle class="st29" cx="1307.32" cy="155.05" r="11.64"/>
							<g>
								<path class="st28" d="M1318.6,152.17c-1.28-5.03-5.84-8.75-11.28-8.75v11.64L1318.6,152.17z"/>
								<path class="st30" d="M1318.84,156.7c0.08-0.54,0.12-1.09,0.12-1.65c0-1-0.13-1.96-0.36-2.88l-11.28,2.88L1318.84,156.7z"/>
							</g>
							<path class="st31" d="M1318.36,158.72c0.22-0.65,0.38-1.33,0.48-2.02l-11.52-1.65L1318.36,158.72z"/>
						</g>
					</g>
				</g>
				<g>
					<path class="st7" d="M1442.85,153.54c-10.01,0-18.16-8.15-18.16-18.16c0-2.15,0.4-4.21,1.09-6.13h4.36l-5.73-6.14l-5.73,6.14
						h2.09c-0.54,1.95-0.85,4-0.85,6.13c0,12.65,10.29,22.94,22.94,22.94c5.45,0,10.46-1.92,14.4-5.11v-3.92h-2.75
						C1451.34,151.94,1447.28,153.54,1442.85,153.54z"/>
					<path class="st7" d="M1464.89,141.67c0.58-2,0.9-4.11,0.9-6.3c0-12.65-10.29-22.94-22.94-22.94c-5.45,0-10.46,1.92-14.4,5.11
						v3.92h2.75c3.16-2.65,7.22-4.24,11.65-4.24c10.01,0,18.16,8.15,18.16,18.16c0,2.22-0.43,4.33-1.16,6.3h-3.9l5.73,6.14
						l5.73-6.14H1464.89z"/>
				</g>
				<g>
					<path class="st6" d="M1237.05,169.41c0-0.68,0.21-6.63,7.65-6.63h0.51c7.18,0,7.63,5.54,7.65,6.63v8.59h5.1v-8.59
						c0-4.06-2.66-11.72-12.74-11.72h-0.51c-10.08,0-12.74,7.67-12.74,11.72v5.1h5.1V169.41z"/>
					<path class="st6" d="M1226.79,179.55v17.79c0,5.67,1.81,16.38,15.89,16.38h4.54c14.08,0,15.89-10.71,15.89-16.38v-17.79
						H1226.79z M1246.39,196.85v7.91h-2.87v-7.91c-1.67-0.59-2.87-2.17-2.87-4.04c0-2.38,1.93-4.3,4.3-4.3c2.38,0,4.3,1.93,4.3,4.3
						C1249.25,194.68,1248.05,196.25,1246.39,196.85z"/>
				</g>
				<g>
					<polygon class="st15" points="1246.39,115.03 1260.72,103.44 1246.39,91.85 1246.39,99.62 1219.62,99.62 1219.62,107.26 
						1246.39,107.26 					"/>
					<polygon class="st15" points="1243.52,127.33 1243.52,119.57 1229.18,131.16 1243.52,142.75 1243.52,134.98 1270.28,134.98 
						1270.28,127.33 					"/>
				</g>
			</g>
		</g>
		<g>
			<g>
				<polygon class="st32" points="916.66,598 818.37,427.75 916.66,257.5 1113.25,257.5 1211.54,427.75 1113.25,598 				"/>
				<polygon class="st3" points="1101.37,278.08 928.54,278.08 842.13,427.75 928.54,577.42 1101.37,577.42 1187.78,427.75 				"/>
			</g>
			<g>
				<g>
					<g>
						<g>
							<g>
								<g>
									<rect x="915.65" y="462.55" class="st27" width="4.69" height="4.74"/>
									<rect x="920.34" y="462.55" class="st28" width="4.69" height="4.74"/>
									<rect x="929.72" y="455.59" class="st27" width="4.69" height="11.71"/>
									<rect x="934.41" y="455.59" class="st28" width="4.69" height="11.71"/>
									<rect x="943.8" y="435.26" class="st27" width="4.69" height="32.04"/>
									<rect x="948.49" y="435.26" class="st28" width="4.69" height="32.04"/>
									<rect x="957.87" y="442.65" class="st27" width="4.69" height="24.64"/>
									<rect x="962.56" y="442.65" class="st28" width="4.69" height="24.64"/>
									<rect x="971.95" y="427.25" class="st27" width="4.69" height="40.05"/>
									<rect x="976.64" y="427.25" class="st28" width="4.93" height="40.05"/>
								</g>
								<g>
									<path class="st6" d="M990.5,474.69h-83.79v-54.83h83.79V474.69z M910.41,470.99h76.4v-47.44h-76.4V470.99z"/>
								</g>
							</g>
							<rect x="998.24" y="408.34" class="st18" width="7.51" height="18.73"/>
							<rect x="1005.74" y="408.34" class="st12" width="7.51" height="18.73"/>
							<rect x="1020.76" y="375.81" class="st18" width="7.51" height="51.26"/>
							<rect x="1028.26" y="375.81" class="st12" width="7.51" height="51.26"/>
							<rect x="1043.28" y="387.64" class="st18" width="7.51" height="39.43"/>
							<rect x="1050.79" y="387.64" class="st12" width="7.51" height="39.43"/>
							<rect x="1065.8" y="362.99" class="st18" width="7.51" height="64.07"/>
							<rect x="1073.31" y="362.99" class="st12" width="7.89" height="64.07"/>
							<rect x="975.72" y="413.26" class="st18" width="7.51" height="4.93"/>
							<rect x="983.22" y="413.26" class="st12" width="7.51" height="4.93"/>
							<g>
								<path class="st6" d="M932.34,356.58h-42.39v29.57h4.44v8.95l10.58-8.95h27.38V356.58z M931.36,385.17h-26.75l-9.23,7.81
									v-7.81h-4.44v-27.6h40.42V385.17z"/>
								<polygon class="st6" points="934.31,365.46 934.31,388.13 907.7,388.13 907.7,395.03 935.07,395.03 945.65,403.98 
									945.65,395.03 950.09,395.03 950.09,365.46 								"/>
								<rect x="896.36" y="363.98" class="st6" width="29.57" height="2.96"/>
								<rect x="896.36" y="369.89" class="st6" width="29.57" height="2.96"/>
								<rect x="896.36" y="375.81" class="st6" width="23.66" height="2.96"/>
							</g>
							<g>
								<path class="st6" d="M1073.07,448.26c-0.65-0.52-1.27-1.08-1.87-1.67c-3.81-3.81-5.99-8.63-6.59-13.61h-70.66v15.28h17.28
									l-5.45,14.79h45.35l-5.45-14.79H1073.07z"/>
								<path class="st6" d="M1095.49,412.06c-1.9-0.8-3.89-1.3-5.91-1.49v22.4h-21.29c0.58,4.09,2.41,8.03,5.55,11.17
									c1.79,1.79,3.85,3.15,6.05,4.11h15.6V412.06z"/>
								<path class="st6" d="M1089.57,407.14c2.04,0.17,4.02,0.6,5.91,1.29v-57.27H961.42v65.06h5.91v-59.15h122.23V407.14z"/>
							</g>
							<g>
								<path class="st6" d="M1103.47,414.52c-8.65-8.65-22.72-8.65-31.37,0c-8.65,8.65-8.65,22.72,0,31.37
									c8.3,8.3,21.58,8.63,30.28,1.01l2.63,2.63l-1.74,1.74l19.72,19.72l5.58-5.58l-19.72-19.72l-1.74,1.74l-2.63-2.63
									C1112.09,436.1,1111.76,422.82,1103.47,414.52z M1073.49,444.5c-7.88-7.88-7.88-20.7,0-28.58c7.88-7.88,20.7-7.88,28.58,0
									c7.88,7.88,7.88,20.7,0,28.58C1094.19,452.38,1081.37,452.38,1073.49,444.5z"/>
								<circle class="st33" cx="1087.78" cy="430.21" r="20.21"/>
							</g>
						</g>
						<g>
							<polygon class="st3" points="975.43,417.35 975.07,415.41 1005.29,409.85 1027.97,377.72 1051.05,398.93 1082.97,365.42 
								1084.4,366.78 1051.14,401.7 1028.29,380.69 1006.44,411.65 							"/>
						</g>
					</g>
					<g>
						<path class="st3" d="M914.28,465.65l-0.31-1.95c8.64-1.36,18.17-3.23,19.6-4.08c1.23-2.75,11.98-21.2,14.2-25.01l0.59-1.01
							l0.9,0.76c5.45,4.61,11.58,9.57,13.14,10.51c2.24-1.45,13.89-11.25,21.07-17.41l1.28,1.5
							c-20.98,17.98-21.89,17.98-22.33,17.98c-0.39,0-1.3,0-13.54-10.32c-5.43,9.32-13.12,22.68-13.53,23.83
							C935.18,461.08,934.79,462.42,914.28,465.65z M933.5,459.82c-0.01,0.02-0.01,0.04-0.02,0.06
							C933.48,459.86,933.49,459.84,933.5,459.82z M933.67,459.56L933.67,459.56L933.67,459.56z"/>
					</g>
				</g>
				<g>
					<path class="st7" d="M1140.97,363.21l-3.22-0.12c-0.36-2.09-1.18-4.02-2.35-5.68l2.19-2.37c-0.91-1.19-1.98-2.26-3.17-3.17
						l-2.37,2.19c-1.66-1.18-3.59-2-5.68-2.35l-0.12-3.22c-0.73-0.1-1.48-0.15-2.24-0.15c-0.76,0-1.51,0.05-2.24,0.15l-0.12,3.22
						c-2.09,0.36-4.02,1.18-5.68,2.35l-2.37-2.19c-1.19,0.91-2.26,1.98-3.17,3.17l2.19,2.37c-1.18,1.66-2,3.59-2.35,5.68l-3.22,0.12
						c-0.1,0.73-0.15,1.48-0.15,2.24s0.05,1.51,0.15,2.24l3.22,0.12c0.36,2.09,1.18,4.02,2.35,5.68l-2.19,2.37
						c0.91,1.19,1.98,2.26,3.17,3.17l2.37-2.19c1.66,1.18,3.59,2,5.68,2.35l0.12,3.22c0.73,0.1,1.48,0.15,2.24,0.15
						c0.76,0,1.51-0.05,2.24-0.15l0.12-3.22c2.09-0.36,4.02-1.18,5.68-2.35l2.37,2.19c1.19-0.91,2.26-1.98,3.17-3.17l-2.19-2.37
						c1.18-1.66,2-3.59,2.35-5.68l3.22-0.12c0.1-0.73,0.15-1.48,0.15-2.24S1141.06,363.95,1140.97,363.21z M1124.01,374.75
						c-5.13,0-9.3-4.16-9.3-9.3c0-5.13,4.16-9.3,9.3-9.3c5.13,0,9.3,4.16,9.3,9.3C1133.3,370.59,1129.14,374.75,1124.01,374.75z"/>
				</g>
				<g>
					<path class="st7" d="M1141.12,406.88c0-1.19,0.38-2.4,1.15-3.63c0.77-1.22,1.88-2.24,3.35-3.04c1.47-0.8,3.18-1.21,5.14-1.21
						c1.82,0,3.43,0.34,4.82,1.01c1.39,0.67,2.47,1.59,3.23,2.74c0.76,1.16,1.14,2.41,1.14,3.77c0,1.07-0.22,2-0.65,2.81
						c-0.43,0.8-0.95,1.5-1.54,2.08c-0.6,0.58-1.67,1.57-3.21,2.95c-0.43,0.39-0.77,0.73-1.03,1.03s-0.45,0.57-0.57,0.81
						c-0.13,0.24-0.22,0.49-0.29,0.73c-0.07,0.24-0.17,0.68-0.31,1.29c-0.24,1.31-0.99,1.96-2.24,1.96c-0.65,0-1.2-0.21-1.65-0.64
						c-0.45-0.43-0.67-1.06-0.67-1.9c0-1.05,0.16-1.97,0.49-2.74c0.33-0.77,0.76-1.45,1.3-2.03c0.54-0.58,1.27-1.28,2.19-2.08
						c0.8-0.7,1.38-1.23,1.74-1.59s0.66-0.76,0.9-1.2c0.24-0.44,0.37-0.92,0.37-1.43c0-1-0.37-1.85-1.12-2.54
						c-0.75-0.69-1.71-1.04-2.89-1.04c-1.38,0-2.4,0.35-3.05,1.05c-0.65,0.7-1.21,1.72-1.66,3.08c-0.43,1.42-1.24,2.13-2.43,2.13
						c-0.7,0-1.3-0.25-1.78-0.74C1141.36,407.99,1141.12,407.46,1141.12,406.88z M1150.31,427.52c-0.77,0-1.43-0.25-2.01-0.74
						c-0.57-0.5-0.86-1.19-0.86-2.08c0-0.79,0.28-1.46,0.83-2c0.55-0.54,1.23-0.81,2.03-0.81c0.79,0,1.46,0.27,2,0.81
						s0.81,1.21,0.81,2c0,0.88-0.28,1.57-0.85,2.07C1151.7,427.27,1151.05,427.52,1150.31,427.52z"/>
				</g>
			</g>
		</g>
		<path class="st15" d="M1249.83,340.5H1920v38.74h-736.47c0,0-70.68-120.56-70.28-121.73H916.66l-48.41,83.85l-21.76,37.68H516.27
			l-20.95-37.68l-48.41-83.85H0v-37.68h513.28l21.76,37.68l48.45,82.99h196.59l69.67-120.68h330.41L1249.83,340.5z"/>
	</g>
	<g>
		<g>
			<circle class="st4" cx="193.01" cy="238.66" r="12"/>
			<circle class="st3" cx="193.01" cy="238.66" r="9"/>
		</g>
		<g>
			<circle class="st4" cx="244.88" cy="238.66" r="12"/>
			<circle class="st3" cx="244.88" cy="238.66" r="9"/>
		</g>
		<g>
			<circle class="st4" cx="296.75" cy="238.66" r="12"/>
			<circle class="st3" cx="296.75" cy="238.66" r="9"/>
		</g>
		<g>
			<circle class="st4" cx="348.62" cy="238.66" r="12"/>
			<circle class="st3" cx="348.62" cy="238.66" r="9"/>
		</g>
		<g>
			<circle class="st4" cx="400.48" cy="238.66" r="12"/>
			<circle class="st3" cx="400.48" cy="238.66" r="9"/>
		</g>
		<g>
			<circle class="st4" cx="452.35" cy="238.66" r="12"/>
			<circle class="st3" cx="452.35" cy="238.66" r="9"/>
		</g>
		<g>
			<circle class="st4" cx="504.22" cy="273.66" r="12"/>
			<circle class="st3" cx="504.22" cy="273.66" r="9"/>
		</g>
	</g>
	<g>
		<g>
			<circle class="st4" cx="141.17" cy="238.66" r="12"/>
			<circle class="st3" cx="141.17" cy="238.66" r="9"/>
		</g>
		<g>
			<circle class="st4" cx="89.3" cy="238.66" r="12"/>
			<circle class="st3" cx="89.3" cy="238.66" r="9"/>
		</g>
		<g>
			<circle class="st4" cx="37.43" cy="238.66" r="12"/>
			<circle class="st3" cx="37.43" cy="238.66" r="9"/>
		</g>
	</g>
	<g>
		<g>
			<circle class="st4" cx="526.18" cy="325.32" r="12"/>
			<circle class="st3" cx="526.18" cy="325.32" r="9"/>
		</g>
		<g>
			<circle class="st4" cx="578.05" cy="360.32" r="12"/>
			<circle class="st3" cx="578.05" cy="360.32" r="9"/>
		</g>
		<g>
			<circle class="st4" cx="629.92" cy="360.32" r="12"/>
			<circle class="st3" cx="629.92" cy="360.32" r="9"/>
		</g>
		<g>
			<circle class="st4" cx="681.79" cy="360.32" r="12"/>
			<circle class="st3" cx="681.79" cy="360.32" r="9"/>
		</g>
		<g>
			<circle class="st4" cx="733.65" cy="360.32" r="12"/>
			<circle class="st3" cx="733.65" cy="360.32" r="9"/>
		</g>
		<g>
			<circle class="st4" cx="785.52" cy="360.32" r="12"/>
			<circle class="st3" cx="785.52" cy="360.32" r="9"/>
		</g>
		<g>
			<circle class="st4" cx="837.39" cy="325.32" r="12"/>
			<circle class="st3" cx="837.39" cy="325.32" r="9"/>
		</g>
	</g>
	<g>
		<g>
			<circle class="st4" cx="859.35" cy="273.57" r="12"/>
			<circle class="st3" cx="859.35" cy="273.57" r="9"/>
		</g>
		<g>
			<circle class="st4" cx="911.22" cy="238.57" r="12"/>
			<circle class="st3" cx="911.22" cy="238.57" r="9"/>
		</g>
		<g>
			<circle class="st4" cx="963.09" cy="238.57" r="12"/>
			<circle class="st3" cx="963.09" cy="238.57" r="9"/>
		</g>
		<g>
			<circle class="st4" cx="1014.95" cy="238.57" r="12"/>
			<circle class="st3" cx="1014.95" cy="238.57" r="9"/>
		</g>
		<g>
			<circle class="st4" cx="1066.82" cy="238.57" r="12"/>
			<circle class="st3" cx="1066.82" cy="238.57" r="9"/>
		</g>
		<g>
			<circle class="st4" cx="1118.69" cy="238.57" r="12"/>
			<circle class="st3" cx="1118.69" cy="238.57" r="9"/>
		</g>
		<g>
			<circle class="st4" cx="1170.56" cy="273.57" r="12"/>
			<circle class="st3" cx="1170.56" cy="273.57" r="9"/>
		</g>
	</g>
	<g>
		<g>
			<circle class="st4" cx="1192.52" cy="325.32" r="12"/>
			<circle class="st3" cx="1192.52" cy="325.32" r="9"/>
		</g>
		<g>
			<circle class="st4" cx="1244.39" cy="360.32" r="12"/>
			<circle class="st3" cx="1244.39" cy="360.32" r="9"/>
		</g>
		<g>
			<circle class="st4" cx="1296.26" cy="360.32" r="12"/>
			<circle class="st3" cx="1296.26" cy="360.32" r="9"/>
		</g>
		<g>
			<circle class="st4" cx="1348.12" cy="360.32" r="12"/>
			<circle class="st3" cx="1348.12" cy="360.32" r="9"/>
		</g>
		<g>
			<circle class="st4" cx="1399.99" cy="360.32" r="12"/>
			<circle class="st3" cx="1399.99" cy="360.32" r="9"/>
		</g>
		<g>
			<circle class="st4" cx="1451.86" cy="360.32" r="12"/>
			<circle class="st3" cx="1451.86" cy="360.32" r="9"/>
		</g>
		<g>
			<circle class="st4" cx="1503.73" cy="360.32" r="12"/>
			<circle class="st3" cx="1503.73" cy="360.32" r="9"/>
		</g>
	</g>
	<g>
		<g>
			<circle class="st4" cx="1814.87" cy="360.32" r="12"/>
			<circle class="st3" cx="1814.87" cy="360.32" r="9"/>
		</g>
		<g>
			<circle class="st4" cx="1763" cy="360.32" r="12"/>
			<circle class="st3" cx="1763" cy="360.32" r="9"/>
		</g>
		<g>
			<circle class="st4" cx="1711.13" cy="360.32" r="12"/>
			<circle class="st3" cx="1711.13" cy="360.32" r="9"/>
		</g>
		<g>
			<circle class="st4" cx="1659.26" cy="360.32" r="12"/>
			<circle class="st3" cx="1659.26" cy="360.32" r="9"/>
		</g>
		<g>
			<circle class="st4" cx="1607.39" cy="360.32" r="12"/>
			<circle class="st3" cx="1607.39" cy="360.32" r="9"/>
		</g>
		<g>
			<circle class="st4" cx="1555.52" cy="360.32" r="12"/>
			<circle class="st3" cx="1555.52" cy="360.32" r="9"/>
		</g>
	</g>
	<g>
		<g>
			<circle class="st4" cx="1866.73" cy="360.32" r="12"/>
			<circle class="st3" cx="1866.73" cy="360.32" r="9"/>
		</g>
	</g>
	<text transform="matrix(1 0 0 1 289.4042 520.853)"><tspan x="0" y="0" class="st6 st34 st35">Thu thp</tspan><tspan x="13.31" y="34" class="st6 st34 st35">d liu</tspan></text>
	<text transform="matrix(1 0 0 1 621.9871 259.6296)"><tspan x="0" y="0" class="st6 st34 st35">Gim st</tspan><tspan x="25.8" y="34" class="st6 st34 st35">t xa</tspan></text>
	<text transform="matrix(1 0 0 1 951.4984 520.853)"><tspan x="0" y="0" class="st6 st34 st35">Phn tch</tspan><tspan x="15.8" y="34" class="st6 st34 st35">d bo</tspan></text>
	<text transform="matrix(1 0 0 1 1292.6348 259.6297)"><tspan x="0" y="0" class="st6 st34 st35">Bo co</tspan><tspan x="-9.2" y="34" class="st6 st34 st35">trc quan</tspan></text>
</g>
<g id="Layer_3">
</g>
<g id="Layer_4">
</g>
</svg>
