<?xml version="1.0" encoding="utf-8"?>
<!-- Generator: Adobe Illustrator 23.0.5, SVG Export Plug-In . SVG Version: 6.00 Build 0)  -->
<svg version="1.1" id="Layer_1" xmlns="http://www.w3.org/2000/svg" xmlns:xlink="http://www.w3.org/1999/xlink" x="0px" y="0px"
	 viewBox="0 0 1920 598" style="enable-background:new 0 0 1920 598;" xml:space="preserve">
<style type="text/css">
	.st0{opacity:0.4;fill:#00A859;}
	.st1{opacity:0.25;}
	.st2{clip-path:url(#SVGID_2_);}
	.st3{opacity:0.5;}
	.st4{fill:#B5D5E3;}
	.st5{fill:#E4EFF5;}
	.st6{fill:#172237;}
	.st7{fill:#C7DFF4;}
	.st8{fill:#9CB4BE;}
	.st9{fill:#FFFFFF;}
	.st10{fill:#2C5972;}
	.st11{fill:#2CABB2;}
	.st12{fill:#ACFFFD;}
	.st13{fill:#CB5731;}
	.st14{fill:#ECEDE7;}
	.st15{fill:#587790;}
	.st16{fill:#FD6222;}
	.st17{fill:#FF9762;}
	.st18{fill:#FCC200;}
	.st19{fill:#63301F;}
	.st20{fill:#00A26D;}
	.st21{fill:#EB6A65;}
	.st22{fill:#1EA9AC;}
	.st23{fill:#007396;}
	.st24{fill:#30A3A0;}
	.st25{fill:#D47141;}
	.st26{fill:#6D5C81;}
	.st27{fill:#D18E2B;}
	.st28{fill:#7CBF56;}
	.st29{fill:#FDC539;}
	.st30{fill:#BC4211;}
	.st31{fill:#98A7AF;}
	.st32{fill:#27B3C1;}
	.st33{fill:#7AD5D3;}
	.st34{fill:#B9E2F8;}
	.st35{fill:#98CCE4;}
	.st36{fill:#D5D6D2;}
	.st37{fill:#5F4C76;}
	.st38{fill:#ED6151;}
	.st39{fill:#F0AAA0;}
	.st40{fill:#4C4C4C;}
	.st41{opacity:0.5;fill:#AFD3E2;}
	.st42{fill:#EF6A1C;}
	.st43{fill:#E06A62;}
	.st44{fill:#F9BEC0;}
	.st45{fill:#78BCDA;}
	.st46{fill:#E6E6E6;}
	.st47{fill:#3B0856;}
	.st48{fill:#4D226F;}
	.st49{fill:#662D91;}
	.st50{fill:#A066AA;}
	.st51{fill:#C78FBF;}
	.st52{fill:#F2F2F2;}
	.st53{fill:#1F1D5E;}
	.st54{fill:#282D7F;}
	.st55{fill:#2E3192;}
	.st56{fill:#1D2ACE;}
	.st57{fill:#5264E8;}
	.st58{fill:#00491E;}
	.st59{fill:#005B27;}
	.st60{fill:#009245;}
	.st61{fill:#50B848;}
	.st62{fill:#77CC6E;}
	.st63{fill:#DBA111;}
	.st64{fill:#FDB913;}
	.st65{fill:#FFF200;}
	.st66{fill:#FFF685;}
	.st67{fill:#FFFAC2;}
	.st68{fill:#8B0704;}
	.st69{fill:#B11516;}
	.st70{fill:#CE181E;}
	.st71{fill:#FF0000;}
	.st72{fill:#EF4123;}
	.st73{fill:#D1D1D1;}
	.st74{fill:#909090;}
	.st75{fill:#BCCBD9;}
	.st76{fill:#F8CD9B;}
	.st77{fill:#372D24;}
	.st78{fill:#4E6DA5;}
	.st79{fill:#33446D;}
	.st80{fill:#FF5C1F;}
	.st81{fill:#F8F58F;}
	.st82{fill:#FAC207;}
	.st83{fill:#8E9999;}
</style>
<g>
	<g>
		<rect class="st0" width="1920" height="598"/>
		<g class="st1">
			<defs>
				<rect id="SVGID_1_" class="st1" width="1920" height="598"/>
			</defs>
			<clipPath id="SVGID_2_">
				<use xlink:href="#SVGID_1_"  style="overflow:visible;"/>
			</clipPath>
			<g class="st2">
				<g>
					<g class="st3">
						<path class="st4" d="M409.7,599.18l-0.71-0.2l-38.55,7.71l-17.19-35.95l-1.2-0.42c-1.35-0.47-33.24-11.23-49.85,7.27
							l-0.78,0.87v29.73l23.57,1.57c-1.53,7.72-6.88,28.18-22.83,46.58l-1.43,1.65l1.09,1.88c0.75,1.29,18.78,31.69,59.97,36.63
							l1.99,0.24l31.23-53.72l18.82,20.91l22.65-24.17l-0.68-1.78C434.44,634.37,422.06,602.71,409.7,599.18z M413.92,654.89
							l-19.98-22.2l-33.41,57.47c-31.26-4.52-47.93-25.36-52.27-31.6c19.92-24.05,23.19-50.15,23.32-51.28l0.38-3.19l-24.45-1.63
							v-21.63c12.51-12.61,35.85-6.74,41.35-5.12l18.12,37.89l41.67-8.33c6.74,2.85,15.91,20.91,20.77,33.1L413.92,654.89z"/>
						<path class="st4" d="M112.24,640.27c-4.67-3.41-10.21-4.46-16.46-3.12c-12.13,2.6-20.19,2.11-24.65-1.49
							c-3.63-2.93-5.39-8.3-5.39-16.4c0-14.31-13.68-30.64-27.11-32.36c-4.94-0.63-16.98,0.08-22.26,20.35
							c-3.08,11.81-1.99,22.08,3.25,30.54c6.93,11.2,19.09,15.83,24.13,17.33c-0.11,3.35-1.82,10.72-13.77,15.96
							c-4.32,1.9-7.28,5.11-8.8,9.55c-4.76,13.89,6.85,35.55,7.34,36.46l1.44,2.66l95.41-50.56l-0.2-2.04
							C125.09,666.38,123.15,648.23,112.24,640.27z M32.52,711.48c-3.35-7.07-8.39-20.66-5.57-28.87c0.96-2.8,2.75-4.74,5.48-5.94
							c20.35-8.93,17.33-23.97,17.19-24.6l-0.42-1.93l-1.93-0.41c-0.15-0.03-15.1-3.29-22.45-15.16
							c-4.32-6.98-5.17-15.65-2.53-25.78c1.93-7.41,5.92-15.93,14.01-15.93c0.51,0,1.03,0.03,1.57,0.1
							c10.38,1.33,21.79,15.1,21.79,26.3c0,10.07,2.5,16.98,7.66,21.15c6.07,4.9,15.53,5.77,29.77,2.72
							c4.54-0.97,8.32-0.3,11.57,2.07c6.86,4.99,9.39,16.03,10.16,20.56L32.52,711.48z"/>
						<path class="st4" d="M340.7,298.07l0.23,0.69l72.82,71.28l26.03-27.98l-70.59-69.64l-0.38-0.21
							c-1.86-1.02-18.46-9.8-27.03-2.67c-4.12,3.43-5.38,9.43-3.79,18.24C338.54,290.86,339.45,294.29,340.7,298.07z M345.68,274.24
							c4.43-3.69,15.68,0.95,19.81,3.12l65.81,64.84l-17.73,19.06l-67.31-65.8C342.7,284.42,342.49,276.9,345.68,274.24z"/>
						<path class="st4" d="M20.24,365.72c1.44,2.68,3.19,5.22,5.26,7.58c1.15,1.32,2.57,2.42,3.88,3.61l-7.71,15.32l6.28,3.16
							l7.05-14.01c1.82,1.23,3.62,2.51,5.57,3.49c1.07,0.54,2.09,0.88,3.14,1.34l-6.87,13.66l6.28,3.16l7.24-14.4
							c1.45,0.42,2.91,0.89,4.32,1.15c4.55,0.83,8.77,0.87,12.67,0.13c3.91-0.74,7.38-2.26,10.44-4.54s5.53-5.3,7.43-9.08
							c1.81-3.6,2.83-7.12,3.05-10.57c0.22-3.44-0.33-6.93-1.66-10.47c-1.33-3.53-3.44-7.16-6.35-10.88
							c-1.42-1.81-3.04-3.68-4.84-5.59l16.33-32.46c1.67,1.91,2.98,3.9,3.74,6.03c0.88,2.46,1.18,5,0.9,7.62s-1.07,5.22-2.37,7.8
							l12.26,6.17c1.81-3.6,2.84-7.45,3.11-11.57s-0.34-8.16-1.81-12.14c-1.47-3.97-3.85-7.78-7.13-11.39
							c-0.99-1.09-2.24-2.05-3.41-3.05l7.42-14.75l-6.28-3.16l-6.92,13.76c-1.18-0.71-2.24-1.49-3.54-2.15
							c-1.82-0.92-3.61-1.59-5.39-2.26l6.96-13.83l-6.28-3.16l-7.57,15.05c-0.52-0.1-1.05-0.3-1.57-0.38
							c-4.49-0.67-8.68-0.56-12.58,0.32s-7.36,2.47-10.41,4.79s-5.48,5.27-7.29,8.87c-1.81,3.6-2.72,7.15-2.73,10.65
							c-0.01,3.5,0.74,6.99,2.25,10.48c1.51,3.49,3.69,7,6.56,10.54c0.58,0.72,1.28,1.44,1.9,2.16l-16.99,33.77
							c-1.04-1.24-1.96-2.54-2.69-3.92c-1.35-2.54-2.08-5.26-2.19-8.15c-0.11-2.89,0.63-5.93,2.23-9.11l-12.26-6.17
							c-1.55,3.09-2.52,6.17-2.88,9.22c-0.37,3.05-0.25,6.03,0.36,8.94C17.79,360.24,18.81,363.04,20.24,365.72z M74.82,364.04
							c-0.17,1.98-0.8,4.05-1.89,6.21c-2.28,4.53-5.79,7.24-10.55,8.15c-2.1,0.4-4.38,0.32-6.81-0.09l13.7-27.22
							c1.95,2.39,3.44,4.62,4.34,6.65C74.59,359.96,74.99,362.06,74.82,364.04z M77.28,297.36c1.74,0.55,3.53,1.24,5.42,2.2
							c1.32,0.66,2.44,1.38,3.56,2.11l-16.08,31.96c-0.36-0.33-0.64-0.65-1.01-0.99c-2.5-2.27-4.58-4.37-6.43-6.37L77.28,297.36z
							 M56.04,304.93c1.09-2.16,2.47-3.96,4.15-5.4c1.68-1.43,3.64-2.43,5.87-2.97c1.23-0.3,2.56-0.42,3.95-0.41l-12.11,24.07
							c-0.65-1.01-1.25-2-1.71-2.95c-1.06-2.23-1.59-4.35-1.61-6.38C54.58,308.86,55.06,306.87,56.04,304.93z M56.72,338.22
							c1.03,1.03,2.02,2.06,3.14,3.09c1.6,1.49,3,2.87,4.33,4.21l-15.46,30.74c-1.03-0.43-2.05-0.83-3.13-1.37
							c-2.02-1.02-3.84-2.2-5.58-3.47L56.72,338.22z"/>
						<path class="st4" d="M186.12,462.19l-38.9,38.9l-38.9-38.9l-16.24,16.24l38.9,38.9l-38.9,38.9l16.24,16.24l38.9-38.9
							l38.9,38.9l16.24-16.24l-38.9-38.9l38.9-38.9L186.12,462.19z M193.73,556.24l-7.61,7.61l-38.9-38.9l-38.9,38.9l-7.61-7.61
							l38.9-38.9l-38.9-38.9l7.61-7.61l38.9,38.9l38.9-38.9l7.61,7.61l-38.9,38.9L193.73,556.24z"/>
						<path class="st4" d="M288.21,369.01c-19.97,0-36.22,16.25-36.22,36.22c0,19.97,16.25,36.23,36.22,36.23
							c19.97,0,36.22-16.25,36.22-36.23C324.43,385.26,308.18,369.01,288.21,369.01z M288.21,435.35
							c-16.61,0-30.12-13.51-30.12-30.12c0-16.61,13.51-30.12,30.12-30.12c16.61,0,30.12,13.51,30.12,30.12
							C318.33,421.84,304.82,435.35,288.21,435.35z"/>
						<path class="st4" d="M325.17,457.68l2.04-1.57c4.46-3.42,8.45-7.42,11.88-11.88l1.57-2.04l-7.93-8.56
							c3.35-5.24,5.72-10.94,7.04-17l11.66-0.45l0.34-2.55c0.38-2.86,0.57-5.68,0.57-8.4c0-2.71-0.19-5.54-0.57-8.4l-0.34-2.55
							l-11.66-0.45c-1.33-6.06-3.69-11.76-7.04-17l7.93-8.56l-1.57-2.04c-3.42-4.46-7.42-8.45-11.88-11.88l-2.04-1.57l-8.56,7.93
							c-5.24-3.35-10.94-5.72-17-7.04l-0.45-11.66l-2.55-0.34c-5.72-0.75-11.08-0.75-16.79,0l-2.55,0.34l-0.45,11.66
							c-6.06,1.33-11.76,3.69-17,7.04l-8.56-7.93l-2.04,1.57c-4.46,3.42-8.45,7.42-11.88,11.88l-1.57,2.04l7.93,8.56
							c-3.35,5.24-5.72,10.94-7.04,17l-11.66,0.45l-0.34,2.55c-0.37,2.85-0.56,5.68-0.56,8.4c0,2.72,0.19,5.54,0.56,8.4l0.34,2.55
							l11.66,0.45c1.33,6.06,3.69,11.76,7.04,17l-7.93,8.56l1.57,2.04c3.42,4.46,7.42,8.45,11.88,11.88l2.04,1.57l8.56-7.93
							c5.24,3.35,10.94,5.72,17,7.04l0.45,11.66l2.55,0.34c2.86,0.38,5.68,0.57,8.4,0.57c2.71,0,5.54-0.19,8.4-0.57l2.55-0.34
							l0.45-11.66c6.06-1.33,11.76-3.69,17-7.04L325.17,457.68z M296.14,451.26l-2.44,0.42l-0.44,11.34c-3.43,0.31-6.66,0.31-10.1,0
							l-0.44-11.34l-2.44-0.42c-6.89-1.18-13.29-3.83-19.01-7.88l-2.02-1.43l-8.33,7.71c-2.58-2.17-4.97-4.56-7.14-7.14l7.71-8.33
							l-1.43-2.02c-4.05-5.72-6.7-12.12-7.88-19.01l-0.42-2.44l-11.34-0.43c-0.15-1.72-0.23-3.41-0.23-5.05
							c0-1.64,0.08-3.33,0.23-5.05l11.34-0.44l0.42-2.44c1.18-6.89,3.83-13.29,7.88-19.01l1.43-2.02l-7.71-8.33
							c2.17-2.58,4.56-4.97,7.14-7.14l8.33,7.71l2.02-1.43c5.72-4.05,12.12-6.7,19.01-7.88l2.44-0.42l0.44-11.34
							c3.43-0.31,6.66-0.31,10.1,0l0.44,11.34l2.44,0.42c6.89,1.18,13.29,3.83,19.01,7.88l2.02,1.43l8.33-7.71
							c2.58,2.17,4.97,4.56,7.14,7.14l-7.71,8.33l1.43,2.02c4.05,5.72,6.7,12.12,7.88,19.01l0.42,2.44l11.34,0.44
							c0.15,1.72,0.23,3.41,0.23,5.05s-0.08,3.33-0.23,5.05l-11.34,0.43l-0.42,2.44c-1.18,6.89-3.83,13.29-7.88,19.01l-1.43,2.02
							l7.71,8.33c-2.17,2.58-4.56,4.97-7.14,7.14l-8.33-7.71l-2.02,1.43C309.42,447.43,303.03,450.08,296.14,451.26z"/>
					</g>
				</g>
				<g>
					<g class="st3">
						<path class="st4" d="M898.22,110.66l-0.71-0.2l-38.55,7.71l-17.19-35.95l-1.2-0.42c-1.35-0.47-33.24-11.23-49.85,7.27
							l-0.78,0.87v29.73l23.57,1.57c-1.53,7.72-6.88,28.18-22.83,46.58l-1.43,1.65l1.09,1.88c0.75,1.29,18.78,31.69,59.97,36.63
							l1.99,0.24l31.23-53.72l18.82,20.91l22.65-24.17l-0.68-1.78C922.96,145.85,910.58,114.19,898.22,110.66z M902.44,166.38
							l-19.98-22.2l-33.41,57.47c-31.26-4.52-47.93-25.36-52.27-31.6c19.92-24.05,23.19-50.15,23.32-51.28l0.38-3.19l-24.45-1.63
							V92.32c12.51-12.61,35.85-6.74,41.35-5.12l18.12,37.89l41.67-8.33c6.74,2.85,15.92,20.91,20.77,33.1L902.44,166.38z"/>
						<path class="st4" d="M600.76,151.75c-4.67-3.41-10.21-4.46-16.46-3.12c-12.13,2.6-20.19,2.11-24.65-1.49
							c-3.63-2.93-5.39-8.3-5.39-16.4c0-14.31-13.68-30.64-27.11-32.36c-4.94-0.63-16.98,0.08-22.26,20.35
							c-3.08,11.81-1.99,22.08,3.25,30.54c6.93,11.2,19.09,15.83,24.13,17.33c-0.11,3.35-1.82,10.72-13.77,15.96
							c-4.32,1.9-7.28,5.11-8.8,9.55c-4.76,13.89,6.85,35.55,7.34,36.46l1.44,2.66l95.41-50.56l-0.2-2.04
							C613.6,177.86,611.67,159.71,600.76,151.75z M521.04,222.96c-3.35-7.07-8.39-20.66-5.57-28.87c0.96-2.8,2.75-4.74,5.48-5.94
							c20.35-8.93,17.33-23.97,17.19-24.6l-0.42-1.93l-1.93-0.41c-0.15-0.03-15.1-3.29-22.45-15.16
							c-4.32-6.98-5.17-15.65-2.53-25.78c1.93-7.41,5.92-15.93,14.01-15.93c0.51,0,1.03,0.03,1.57,0.1
							c10.38,1.33,21.79,15.1,21.79,26.3c0,10.07,2.5,16.98,7.66,21.15c6.07,4.9,15.53,5.77,29.77,2.72
							c4.54-0.97,8.32-0.3,11.57,2.07c6.86,4.99,9.39,16.03,10.16,20.56L521.04,222.96z"/>
						<path class="st4" d="M829.22-190.45l0.23,0.69l72.82,71.28l26.03-27.98l-70.59-69.64l-0.38-0.21
							c-1.86-1.02-18.46-9.8-27.03-2.67c-4.12,3.43-5.38,9.43-3.79,18.24C827.06-197.65,827.97-194.23,829.22-190.45z M834.2-214.28
							c4.43-3.69,15.68,0.95,19.81,3.12l65.81,64.84l-17.73,19.06l-67.31-65.8C831.22-204.1,831.01-211.62,834.2-214.28z"/>
						<path class="st4" d="M508.76-122.8c1.44,2.68,3.19,5.22,5.26,7.58c1.15,1.32,2.57,2.42,3.88,3.61l-7.71,15.32l6.28,3.16
							l7.05-14.01c1.82,1.23,3.62,2.51,5.57,3.49c1.07,0.54,2.09,0.88,3.14,1.34l-6.87,13.66l6.28,3.16l7.24-14.4
							c1.45,0.42,2.91,0.89,4.32,1.15c4.55,0.83,8.77,0.87,12.67,0.13c3.91-0.74,7.38-2.26,10.44-4.54
							c3.06-2.28,5.53-5.31,7.43-9.08c1.81-3.6,2.83-7.12,3.05-10.57c0.22-3.44-0.33-6.93-1.66-10.47
							c-1.33-3.53-3.44-7.16-6.35-10.88c-1.42-1.81-3.04-3.68-4.84-5.59l16.33-32.46c1.67,1.91,2.98,3.9,3.74,6.03
							c0.88,2.46,1.18,5,0.9,7.62s-1.07,5.22-2.37,7.8l12.26,6.17c1.81-3.6,2.84-7.45,3.11-11.57c0.27-4.11-0.34-8.16-1.81-12.14
							c-1.47-3.97-3.85-7.78-7.13-11.39c-0.99-1.09-2.24-2.05-3.41-3.05l7.42-14.75l-6.28-3.16l-6.92,13.76
							c-1.18-0.71-2.24-1.49-3.54-2.15c-1.82-0.92-3.61-1.59-5.39-2.26l6.96-13.83l-6.28-3.16l-7.57,15.05
							c-0.52-0.1-1.05-0.3-1.57-0.38c-4.49-0.67-8.68-0.56-12.58,0.32c-3.89,0.88-7.36,2.47-10.41,4.79
							c-3.05,2.32-5.48,5.27-7.29,8.87s-2.72,7.15-2.73,10.65c-0.01,3.5,0.74,6.99,2.25,10.48c1.51,3.49,3.69,7,6.56,10.54
							c0.58,0.72,1.28,1.44,1.9,2.16L523.13-122c-1.04-1.24-1.96-2.54-2.69-3.92c-1.35-2.54-2.08-5.26-2.19-8.15
							s0.63-5.93,2.23-9.11l-12.26-6.17c-1.55,3.09-2.52,6.17-2.88,9.22c-0.37,3.05-0.25,6.03,0.36,8.94
							C506.31-128.28,507.32-125.48,508.76-122.8z M563.33-124.48c-0.17,1.98-0.8,4.05-1.89,6.21c-2.28,4.53-5.79,7.24-10.55,8.15
							c-2.1,0.4-4.38,0.32-6.81-0.09l13.7-27.22c1.95,2.39,3.44,4.62,4.34,6.65C563.11-128.56,563.51-126.46,563.33-124.48z
							 M565.8-191.16c1.74,0.55,3.53,1.24,5.42,2.2c1.32,0.66,2.44,1.38,3.56,2.11L558.7-154.9c-0.36-0.33-0.64-0.65-1.01-0.99
							c-2.5-2.27-4.58-4.37-6.43-6.37L565.8-191.16z M544.56-183.59c1.09-2.16,2.47-3.96,4.15-5.4c1.68-1.43,3.64-2.43,5.87-2.97
							c1.23-0.3,2.56-0.42,3.95-0.41l-12.11,24.07c-0.65-1.01-1.25-2-1.71-2.95c-1.06-2.23-1.59-4.35-1.61-6.38
							C543.1-179.66,543.58-181.65,544.56-183.59z M545.24-150.3c1.03,1.03,2.02,2.06,3.14,3.09c1.6,1.49,3,2.87,4.33,4.21
							l-15.46,30.74c-1.03-0.43-2.05-0.83-3.13-1.37c-2.02-1.02-3.84-2.2-5.58-3.47L545.24-150.3z"/>
						<path class="st4" d="M674.64-26.32l-38.9,38.9l-38.9-38.9L580.6-10.08l38.9,38.9l-38.9,38.9l16.24,16.24l38.9-38.9l38.9,38.9
							l16.24-16.24l-38.9-38.9l38.9-38.9L674.64-26.32z M682.25,67.72l-7.61,7.61l-38.9-38.9l-38.9,38.9l-7.61-7.61l38.9-38.9
							l-38.9-38.9l7.61-7.61l38.9,38.9l38.9-38.9l7.61,7.61l-38.9,38.9L682.25,67.72z"/>
						<path class="st4" d="M776.73-119.51c-19.97,0-36.22,16.25-36.22,36.22c0,19.97,16.25,36.22,36.22,36.22
							c19.97,0,36.22-16.25,36.22-36.22C812.95-103.26,796.7-119.51,776.73-119.51z M776.73-53.16c-16.61,0-30.12-13.51-30.12-30.12
							c0-16.61,13.51-30.12,30.12-30.12c16.61,0,30.12,13.51,30.12,30.12C806.85-66.67,793.34-53.16,776.73-53.16z"/>
						<path class="st4" d="M813.69-30.83l2.04-1.57c4.46-3.42,8.45-7.42,11.88-11.88l1.57-2.04l-7.93-8.56
							c3.35-5.24,5.72-10.94,7.04-17l11.66-0.45l0.34-2.55c0.38-2.86,0.57-5.68,0.57-8.4c0-2.71-0.19-5.54-0.57-8.4l-0.34-2.55
							l-11.66-0.45c-1.33-6.06-3.69-11.76-7.04-17l7.93-8.56l-1.57-2.04c-3.42-4.46-7.42-8.45-11.88-11.88l-2.04-1.57l-8.56,7.93
							c-5.24-3.35-10.94-5.72-17-7.04l-0.45-11.66l-2.55-0.34c-5.72-0.75-11.08-0.75-16.79,0l-2.55,0.34l-0.45,11.66
							c-6.06,1.33-11.76,3.69-17,7.04l-8.56-7.93l-2.04,1.57c-4.46,3.42-8.45,7.42-11.88,11.88l-1.57,2.04l7.93,8.56
							c-3.35,5.24-5.72,10.94-7.04,17l-11.66,0.45l-0.34,2.55c-0.37,2.85-0.56,5.68-0.56,8.4c0,2.72,0.19,5.54,0.56,8.4l0.34,2.55
							l11.66,0.45c1.33,6.06,3.69,11.76,7.04,17l-7.93,8.56l1.57,2.04c3.42,4.46,7.42,8.45,11.88,11.88l2.04,1.57l8.56-7.93
							c5.24,3.35,10.94,5.72,17,7.04l0.45,11.66l2.55,0.34c2.86,0.38,5.68,0.57,8.4,0.57c2.71,0,5.54-0.19,8.4-0.57l2.55-0.34
							l0.45-11.66c6.06-1.33,11.76-3.69,17-7.04L813.69-30.83z M784.66-37.26l-2.44,0.42l-0.44,11.34c-3.43,0.31-6.66,0.31-10.1,0
							l-0.44-11.34l-2.44-0.42c-6.89-1.18-13.29-3.83-19.01-7.88l-2.02-1.43l-8.33,7.71c-2.58-2.17-4.97-4.56-7.14-7.14l7.71-8.33
							l-1.43-2.02c-4.05-5.72-6.7-12.12-7.88-19.01l-0.42-2.44l-11.34-0.43c-0.15-1.72-0.23-3.41-0.23-5.05
							c0-1.64,0.08-3.33,0.23-5.05l11.34-0.44l0.42-2.44c1.18-6.89,3.83-13.29,7.88-19.01l1.43-2.02l-7.71-8.33
							c2.17-2.58,4.56-4.97,7.14-7.14l8.33,7.71l2.02-1.43c5.72-4.05,12.12-6.7,19.01-7.88l2.44-0.42l0.44-11.34
							c3.43-0.31,6.66-0.31,10.1,0l0.44,11.34l2.44,0.42c6.89,1.18,13.29,3.83,19.01,7.88l2.02,1.43l8.33-7.71
							c2.58,2.17,4.97,4.56,7.14,7.14l-7.71,8.33l1.43,2.02c4.05,5.72,6.7,12.12,7.88,19.01l0.42,2.44l11.34,0.44
							c0.15,1.72,0.23,3.41,0.23,5.05s-0.08,3.33-0.23,5.05l-11.34,0.43l-0.42,2.44c-1.18,6.89-3.83,13.29-7.88,19.01l-1.43,2.02
							l7.71,8.33c-2.17,2.58-4.56,4.97-7.14,7.14l-8.33-7.71l-2.02,1.43C797.94-41.09,791.55-38.44,784.66-37.26z"/>
					</g>
				</g>
				<g>
					<g class="st3">
						<path class="st4" d="M51.9,189.97l-0.28,0.34c-1.34,1.65-12.92,16.43-7.41,26.13c2.64,4.66,8.33,6.96,17.28,6.96
							c3.13,0,6.66-0.28,10.6-0.85l0.72-0.1l83.05-59.05l-22.93-30.57L51.9,189.97z M70.52,216.62c-11.5,1.56-18.94,0.43-20.99-3.18
							c-2.85-5.01,3.71-15.26,6.58-18.95l75.47-53.28l15.62,20.82L70.52,216.62z"/>
						<path class="st4" d="M65.4-105.64l-24.64-78.98l-33.98,8.71l23.88,80.2L65.4-105.64z M36.68-177.28l21,67.49l-22.91,6.55
							l-20.32-68.34L36.68-177.28z"/>
						<path class="st4" d="M107.3-121.77l-20.32-57.38l-32.07,13.36l19.23,53.78L107.3-121.77z M83.45-171.07l15.85,45.29
							l-21.45,6.31l-15.16-42.94L83.45-171.07z"/>
						<path class="st4" d="M152.06-136.14l-0.85-2.94c-0.05-0.17-7.65-26.8-12.98-43.49c-11.33-35.48-13.44-35.8-15.89-36.18
							c-1.34-0.21-2.66,0.38-3.43,1.54c-1.75,2.34-16.25,7.05-28.68,9.98l-3.21,0.75l25.51,81.64L152.06-136.14z M121.35-211.45
							c3.84,7.61,15.52,44.98,23.14,71.12l-27.93,7.98l-21.73-69.72C102.8-204.05,115.49-207.61,121.35-211.45z"/>
						<path class="st4" d="M344.61,228.27l83.55-97.47H245.41L344.61,228.27z M344.23,219.34l-83.9-82.43h154.55L344.23,219.34z"/>
						<path class="st4" d="M341.04,199.23l45.46-53.03h-99.43L341.04,199.23z M340.66,190.29l-38.67-37.99h71.23L340.66,190.29z"/>
						<path class="st4" d="M154.69-21.99l-1.72-0.25l-1.09,1.36c-1.53,1.75-12.2,4.85-19.99,7.11C111.09-7.74,97.27-3.23,94.78,4.16
							c-1.18,3.5-6.78,7.9-14.86,9.17c-5.08,0.8-18,1.18-28.01-12.41l-1.57-2.13l-2.33,1.25C47.77,0.16,22.83,13.34-1.05,10.79
							l-2.69-0.29l-0.61,2.64c-0.07,0.29-6.23,28.62,20.62,40.29l41.37,48.89l16.75-15.77l-38.24-43c3.11-1.55,8.27-3.41,13.49-2.25
							c4.63,1.03,8.54,4.36,11.61,9.89l0.58,1.05l1.14,0.37c1.44,0.47,35.62,11.25,61.93-10.12c7.78-6.5,46.38-39.73,41.71-56.19
							C165.31-18.25,161.3-21.04,154.69-21.99z M121.02,37.77C99.8,55,71.76,48.68,65.94,47.11c-3.88-6.47-8.91-10.43-14.98-11.78
							c-10.92-2.44-20.94,4.68-21.36,4.98l-2.74,1.98l39.02,43.88l-7.74,7.29L19.99,48.37l-0.68-0.28
							C0.71,40.37,0.52,23.58,1.21,17.1C21.82,18.36,41.9,9.77,48.59,6.57c8.37,10.07,20,14.71,32.28,12.79
							c9.47-1.48,17.57-6.93,19.7-13.25c1.65-4.91,21.29-10.61,33.02-14.01c11.41-3.31,18.28-5.38,21.6-7.8
							c3.17,0.66,5.03,1.89,5.54,3.67C163.52-2.23,137.83,23.73,121.02,37.77z"/>
						<path class="st4" d="M248,78.83c0.18,0.38,0.39,0.82,0.51,1.12c-0.09,2.26,2.12,4.22,4.16,5.73c4.94,3.65,14.29,7.98,25,7.98
							c7.12,0,14.84-1.92,22.27-7.22c19.56-13.97,12.8-38.66,6.5-49.77l-0.12-0.22L274.41-3.06l8.73-6.68l11.04,14.49l0.13,0.17
							c6.81,8.51,13.99,16.64,20.47,14.36c5.84-2.05,6.52-11.28,6.52-18.05c0-30.87-30.84-39.8-31.15-39.89l-0.4-0.11h-53.42
							c-13.3,0-17.38,5.55-17.8,6.18l-1.26,1.89l52.98,64.06C236.38,54.24,245.09,72.66,248,78.83z M276.41,36.81l3.13-1.81
							l-54.15-65.47c1.82-1,5.2-2.19,10.95-2.19h52.56c3.38,1.05,26.3,9.11,26.3,33.89c0,11.3-2.41,12.27-2.44,12.28
							c-1.11,0.38-4.33-0.73-13.68-12.42l-14.79-19.41L265.72-4.1l35.53,43.99c1.34,2.51,14.26,27.93-4.85,41.59
							c-7.55,5.39-16.09,7.23-25.36,5.47c-8.54-1.63-14.85-5.92-16.38-7.56c-0.1-0.97-0.57-1.95-1.13-3.16
							C250.61,70.06,243.79,55.63,276.41,36.81z"/>
						<path class="st4" d="M459.45-104.81l-12.35-5.54l-33.8-78.49l30.64-26.41l-130.71,22.44l-0.49,0.3
							c-44.71,27.02-113.11,67.83-118.29,69.51c0.01,0,0.26-0.08,0.57-0.08v6.11h53.63l16.77,32.35l89.8,8.73l1.02-0.99
							c0.14-0.14,14.08-13.8,27.84-28.09c28.63-29.72,28.64-33.06,28.65-35.05c0-1.02-0.37-1.96-1.05-2.64
							c-2.13-2.13-10.8-18.24-16.91-30.19l13.69-11.8l33.17,77.05c0,6.45,0,16.81,0,18.37L459.45-104.81z M406.33-139.6
							c-3.38,6.46-28.95,33.39-53.35,57.34l-83.67-8.14l-13.79-26.59h74.41l60.06-51.78C394.02-160.96,402.43-144.87,406.33-139.6z
							 M391.92-178.48l-64.24,55.38h-82.19h-37.86c8.66-4.86,23.66-13.59,50-29.26c26.95-16.03,53.83-32.26,57.78-34.65
							l107.89-18.52L391.92-178.48z"/>
					</g>
				</g>
				<g>
					<g class="st3">
						<path class="st4" d="M540.42,678.49l-0.28,0.34c-1.34,1.65-12.92,16.43-7.41,26.13c2.64,4.66,8.33,6.96,17.28,6.96
							c3.13,0,6.66-0.28,10.6-0.85l0.72-0.1l83.05-59.05l-22.93-30.57L540.42,678.49z M559.03,705.14
							c-11.5,1.56-18.94,0.43-20.99-3.18c-2.85-5.01,3.71-15.26,6.58-18.95l75.47-53.28l15.62,20.82L559.03,705.14z"/>
						<path class="st4" d="M553.92,382.88l-24.64-78.98l-33.98,8.71l23.88,80.2L553.92,382.88z M525.2,311.24l21,67.49l-22.91,6.55
							l-20.32-68.34L525.2,311.24z"/>
						<path class="st4" d="M595.81,366.75l-20.32-57.38l-32.07,13.36l19.23,53.78L595.81,366.75z M571.97,317.45l15.85,45.29
							l-21.45,6.31l-15.16-42.94L571.97,317.45z"/>
						<path class="st4" d="M640.57,352.38l-0.85-2.94c-0.05-0.17-7.65-26.8-12.98-43.49c-11.33-35.48-13.44-35.8-15.89-36.18
							c-1.34-0.21-2.66,0.38-3.43,1.54c-1.75,2.34-16.25,7.05-28.68,9.98l-3.21,0.75l25.51,81.64L640.57,352.38z M609.86,277.07
							c3.84,7.61,15.52,44.98,23.14,71.12l-27.93,7.98l-21.73-69.72C591.32,284.47,604.01,280.9,609.86,277.07z"/>
						<path class="st4" d="M833.13,716.79l83.55-97.47H733.92L833.13,716.79z M832.75,707.85l-83.9-82.43H903.4L832.75,707.85z"/>
						<path class="st4" d="M829.56,687.74l45.46-53.03h-99.43L829.56,687.74z M829.18,678.81l-38.67-37.99h71.23L829.18,678.81z"/>
						<path class="st4" d="M643.21,466.53l-1.72-0.25l-1.09,1.36c-1.53,1.75-12.2,4.85-19.99,7.11
							c-20.8,6.03-34.63,10.54-37.11,17.93c-1.18,3.5-6.78,7.9-14.86,9.17c-5.08,0.8-18,1.18-28.01-12.41l-1.57-2.13l-2.33,1.25
							c-0.25,0.13-25.18,13.31-49.06,10.76l-2.69-0.29l-0.61,2.64c-0.07,0.29-6.23,28.62,20.62,40.29l41.37,48.89l16.75-15.77
							l-38.24-43c3.11-1.55,8.27-3.41,13.49-2.25c4.63,1.03,8.54,4.36,11.61,9.89l0.58,1.05l1.14,0.37
							c1.44,0.47,35.62,11.25,61.93-10.12c7.78-6.5,46.38-39.73,41.71-56.19C653.83,470.26,649.82,467.48,643.21,466.53z
							 M609.53,526.29c-21.21,17.23-49.25,10.91-55.08,9.34c-3.88-6.47-8.91-10.43-14.98-11.78c-10.92-2.44-20.94,4.68-21.36,4.98
							l-2.74,1.98l39.02,43.88l-7.74,7.29l-38.15-45.09l-0.68-0.28c-18.6-7.72-18.78-24.5-18.1-30.98
							c20.61,1.26,40.69-7.33,47.38-10.54c8.37,10.07,20,14.71,32.28,12.79c9.47-1.48,17.57-6.93,19.7-13.25
							c1.65-4.91,21.29-10.61,33.02-14.01c11.41-3.31,18.28-5.38,21.6-7.8c3.17,0.66,5.03,1.89,5.54,3.67
							C652.03,486.29,626.35,512.25,609.53,526.29z"/>
						<path class="st4" d="M736.52,567.35c0.18,0.38,0.39,0.82,0.51,1.12c-0.09,2.26,2.12,4.22,4.16,5.73
							c4.94,3.65,14.29,7.98,25,7.98c7.12,0,14.84-1.92,22.27-7.22c19.56-13.97,12.8-38.66,6.5-49.77l-0.12-0.22l-31.92-39.52
							l8.73-6.68l11.04,14.49l0.13,0.17c6.81,8.51,13.99,16.64,20.47,14.36c5.84-2.05,6.52-11.28,6.52-18.05
							c0-30.87-30.84-39.8-31.15-39.89l-0.4-0.11h-53.42c-13.3,0-17.38,5.55-17.8,6.18l-1.26,1.89l52.98,64.06
							C724.9,542.76,733.6,561.18,736.52,567.35z M764.93,525.32l3.13-1.81l-54.15-65.47c1.82-1,5.2-2.19,10.95-2.19h52.56
							c3.38,1.05,26.3,9.11,26.3,33.89c0,11.3-2.41,12.27-2.44,12.28c-1.11,0.38-4.33-0.73-13.68-12.42l-14.79-19.41l-18.57,14.2
							l35.53,43.99c1.34,2.51,14.26,27.93-4.85,41.59c-7.55,5.39-16.09,7.23-25.36,5.47c-8.54-1.63-14.85-5.92-16.38-7.56
							c-0.1-0.97-0.57-1.95-1.13-3.16C739.13,558.58,732.3,544.15,764.93,525.32z"/>
						<path class="st4" d="M947.96,383.71l-12.35-5.54l-33.8-78.49l30.64-26.41L801.75,295.7l-0.49,0.3
							c-44.71,27.02-113.11,67.83-118.29,69.51c0.01,0,0.26-0.08,0.57-0.08v6.11h53.63l16.77,32.35l89.8,8.73l1.02-0.99
							c0.14-0.14,14.08-13.8,27.84-28.09c28.63-29.72,28.64-33.06,28.65-35.05c0-1.02-0.37-1.96-1.05-2.64
							c-2.13-2.13-10.8-18.24-16.91-30.19l13.69-11.8l33.17,77.05c0,6.45,0,16.81,0,18.37L947.96,383.71z M894.85,348.92
							c-3.38,6.46-28.95,33.39-53.35,57.34l-83.67-8.14l-13.79-26.59h74.41l60.06-51.78C882.53,327.56,890.95,343.64,894.85,348.92z
							 M880.44,310.04l-64.24,55.38H734h-37.86c8.66-4.86,23.66-13.59,50-29.26c26.95-16.03,53.83-32.26,57.78-34.65L911.81,283
							L880.44,310.04z"/>
					</g>
				</g>
				<g>
					<g class="st3">
						<path class="st4" d="M1386.74,599.18l-0.71-0.2l-38.55,7.71l-17.19-35.95l-1.2-0.42c-1.35-0.47-33.24-11.23-49.85,7.27
							l-0.78,0.87v29.73l23.57,1.57c-1.54,7.72-6.88,28.18-22.83,46.58l-1.43,1.65l1.09,1.88c0.75,1.29,18.78,31.69,59.97,36.63
							l1.99,0.24l31.23-53.72l18.82,20.91l22.65-24.17l-0.68-1.78C1411.47,634.37,1399.09,602.71,1386.74,599.18z M1390.96,654.89
							l-19.98-22.2l-33.41,57.47c-31.26-4.52-47.93-25.36-52.27-31.6c19.92-24.05,23.19-50.15,23.32-51.28l0.38-3.19l-24.45-1.63
							v-21.63c12.51-12.61,35.85-6.74,41.35-5.12l18.12,37.89l41.67-8.33c6.74,2.85,15.92,20.91,20.77,33.1L1390.96,654.89z"/>
						<path class="st4" d="M1089.28,640.27c-4.67-3.41-10.21-4.46-16.46-3.12c-12.13,2.6-20.19,2.11-24.65-1.49
							c-3.63-2.93-5.39-8.3-5.39-16.4c0-14.31-13.68-30.64-27.11-32.36c-4.94-0.63-16.98,0.08-22.26,20.35
							c-3.08,11.81-1.99,22.08,3.25,30.54c6.93,11.2,19.09,15.83,24.13,17.33c-0.11,3.35-1.82,10.72-13.77,15.96
							c-4.32,1.9-7.28,5.11-8.8,9.55c-4.76,13.89,6.85,35.55,7.34,36.46l1.44,2.66l95.41-50.56l-0.2-2.04
							C1102.12,666.38,1100.19,648.23,1089.28,640.27z M1009.56,711.48c-3.35-7.07-8.39-20.66-5.57-28.87
							c0.96-2.8,2.75-4.74,5.48-5.94c20.35-8.93,17.33-23.97,17.19-24.6l-0.42-1.93l-1.93-0.41c-0.15-0.03-15.1-3.29-22.45-15.16
							c-4.32-6.98-5.17-15.65-2.53-25.78c1.93-7.41,5.92-15.93,14.01-15.93c0.51,0,1.03,0.03,1.57,0.1
							c10.38,1.33,21.79,15.1,21.79,26.3c0,10.07,2.5,16.98,7.66,21.15c6.07,4.9,15.53,5.77,29.77,2.72
							c4.54-0.97,8.32-0.3,11.57,2.07c6.86,4.99,9.39,16.03,10.16,20.56L1009.56,711.48z"/>
						<path class="st4" d="M1317.73,298.07l0.23,0.69l72.82,71.28l26.03-27.98l-70.59-69.64l-0.38-0.21
							c-1.86-1.02-18.46-9.8-27.03-2.67c-4.12,3.43-5.38,9.43-3.79,18.24C1315.58,290.86,1316.48,294.29,1317.73,298.07z
							 M1322.72,274.24c4.43-3.69,15.68,0.95,19.81,3.12l65.81,64.84l-17.73,19.06l-67.31-65.8
							C1319.74,284.42,1319.53,276.9,1322.72,274.24z"/>
						<path class="st4" d="M997.28,365.72c1.44,2.68,3.19,5.22,5.26,7.58c1.15,1.32,2.57,2.42,3.88,3.61l-7.71,15.32l6.28,3.16
							l7.05-14.01c1.82,1.23,3.62,2.51,5.57,3.49c1.07,0.54,2.09,0.88,3.14,1.34l-6.87,13.66l6.28,3.16l7.24-14.4
							c1.45,0.42,2.91,0.89,4.32,1.15c4.55,0.83,8.77,0.87,12.67,0.13c3.91-0.74,7.38-2.26,10.44-4.54c3.06-2.28,5.53-5.3,7.43-9.08
							c1.81-3.6,2.83-7.12,3.05-10.57c0.22-3.44-0.33-6.93-1.66-10.47c-1.33-3.53-3.44-7.16-6.35-10.88
							c-1.42-1.81-3.04-3.68-4.84-5.59l16.33-32.46c1.67,1.91,2.98,3.9,3.74,6.03c0.88,2.46,1.18,5,0.9,7.62s-1.07,5.22-2.37,7.8
							l12.26,6.17c1.81-3.6,2.84-7.45,3.11-11.57s-0.34-8.16-1.81-12.14c-1.47-3.97-3.85-7.78-7.13-11.39
							c-0.99-1.09-2.24-2.05-3.41-3.05l7.42-14.75l-6.28-3.16l-6.92,13.76c-1.18-0.71-2.24-1.49-3.54-2.15
							c-1.82-0.92-3.61-1.59-5.39-2.26l6.96-13.83l-6.28-3.16l-7.57,15.05c-0.52-0.1-1.05-0.3-1.57-0.38
							c-4.49-0.67-8.68-0.56-12.58,0.32c-3.89,0.88-7.36,2.47-10.41,4.79c-3.05,2.32-5.48,5.27-7.29,8.87
							c-1.81,3.6-2.72,7.15-2.73,10.65c-0.01,3.5,0.74,6.99,2.25,10.48c1.51,3.49,3.69,7,6.56,10.54c0.58,0.72,1.28,1.44,1.9,2.16
							l-16.99,33.77c-1.04-1.24-1.96-2.54-2.69-3.92c-1.35-2.54-2.08-5.26-2.19-8.15c-0.11-2.89,0.63-5.93,2.23-9.11l-12.26-6.17
							c-1.55,3.09-2.52,6.17-2.88,9.22c-0.37,3.05-0.25,6.03,0.36,8.94C994.82,360.24,995.84,363.04,997.28,365.72z M1051.85,364.04
							c-0.17,1.98-0.8,4.05-1.89,6.21c-2.28,4.53-5.79,7.24-10.55,8.15c-2.1,0.4-4.38,0.32-6.81-0.09l13.7-27.22
							c1.95,2.39,3.44,4.62,4.34,6.65C1051.63,359.96,1052.02,362.06,1051.85,364.04z M1054.32,297.36c1.74,0.55,3.53,1.24,5.42,2.2
							c1.32,0.66,2.44,1.38,3.56,2.11l-16.08,31.96c-0.36-0.33-0.64-0.65-1.01-0.99c-2.5-2.27-4.58-4.37-6.43-6.37L1054.32,297.36z
							 M1033.08,304.93c1.09-2.16,2.47-3.96,4.15-5.4c1.68-1.43,3.64-2.43,5.87-2.97c1.23-0.3,2.56-0.42,3.95-0.41l-12.11,24.07
							c-0.65-1.01-1.25-2-1.71-2.95c-1.06-2.23-1.59-4.35-1.61-6.38C1031.62,308.86,1032.1,306.87,1033.08,304.93z M1033.76,338.22
							c1.03,1.03,2.02,2.06,3.14,3.09c1.6,1.49,3,2.87,4.33,4.21l-15.46,30.74c-1.03-0.43-2.05-0.83-3.13-1.37
							c-2.02-1.02-3.84-2.2-5.58-3.47L1033.76,338.22z"/>
						<path class="st4" d="M1163.16,462.19l-38.9,38.9l-38.9-38.9l-16.24,16.24l38.9,38.9l-38.9,38.9l16.24,16.24l38.9-38.9
							l38.9,38.9l16.24-16.24l-38.9-38.9l38.9-38.9L1163.16,462.19z M1170.77,556.24l-7.61,7.61l-38.9-38.9l-38.9,38.9l-7.61-7.61
							l38.9-38.9l-38.9-38.9l7.61-7.61l38.9,38.9l38.9-38.9l7.61,7.61l-38.9,38.9L1170.77,556.24z"/>
						<path class="st4" d="M1265.25,369.01c-19.97,0-36.22,16.25-36.22,36.22c0,19.97,16.25,36.23,36.22,36.23
							c19.97,0,36.22-16.25,36.22-36.23C1301.47,385.26,1285.22,369.01,1265.25,369.01z M1265.25,435.35
							c-16.61,0-30.12-13.51-30.12-30.12c0-16.61,13.51-30.12,30.12-30.12c16.61,0,30.12,13.51,30.12,30.12
							C1295.36,421.84,1281.85,435.35,1265.25,435.35z"/>
						<path class="st4" d="M1302.2,457.68l2.04-1.57c4.46-3.42,8.45-7.42,11.88-11.88l1.57-2.04l-7.93-8.56
							c3.35-5.24,5.72-10.94,7.04-17l11.66-0.45l0.34-2.55c0.38-2.86,0.57-5.68,0.57-8.4c0-2.71-0.19-5.54-0.57-8.4l-0.34-2.55
							l-11.66-0.45c-1.33-6.06-3.69-11.76-7.04-17l7.93-8.56l-1.57-2.04c-3.42-4.46-7.42-8.45-11.88-11.88l-2.04-1.57l-8.56,7.93
							c-5.24-3.35-10.94-5.72-17-7.04l-0.45-11.66l-2.55-0.34c-5.72-0.75-11.08-0.75-16.79,0l-2.55,0.34l-0.45,11.66
							c-6.06,1.33-11.76,3.69-17,7.04l-8.56-7.93l-2.04,1.57c-4.46,3.42-8.45,7.42-11.88,11.88l-1.57,2.04l7.93,8.56
							c-3.35,5.24-5.72,10.94-7.04,17l-11.66,0.45l-0.34,2.55c-0.37,2.85-0.56,5.68-0.56,8.4c0,2.72,0.19,5.54,0.56,8.4l0.34,2.55
							l11.66,0.45c1.33,6.06,3.69,11.76,7.04,17l-7.93,8.56l1.57,2.04c3.42,4.46,7.42,8.45,11.88,11.88l2.04,1.57l8.56-7.93
							c5.24,3.35,10.94,5.72,17,7.04l0.45,11.66l2.55,0.34c2.86,0.38,5.68,0.57,8.4,0.57c2.71,0,5.54-0.19,8.4-0.57l2.55-0.34
							l0.45-11.66c6.06-1.33,11.76-3.69,17-7.04L1302.2,457.68z M1273.17,451.26l-2.44,0.42l-0.44,11.34
							c-3.43,0.31-6.66,0.31-10.1,0l-0.44-11.34l-2.44-0.42c-6.89-1.18-13.29-3.83-19.01-7.88l-2.02-1.43l-8.33,7.71
							c-2.58-2.17-4.97-4.56-7.14-7.14l7.71-8.33l-1.43-2.02c-4.05-5.72-6.7-12.12-7.88-19.01l-0.42-2.44l-11.34-0.43
							c-0.15-1.72-0.23-3.41-0.23-5.05c0-1.64,0.08-3.33,0.23-5.05l11.34-0.44l0.42-2.44c1.18-6.89,3.83-13.29,7.88-19.01l1.43-2.02
							l-7.71-8.33c2.17-2.58,4.56-4.97,7.14-7.14l8.33,7.71l2.02-1.43c5.72-4.05,12.12-6.7,19.01-7.88l2.44-0.42l0.44-11.34
							c3.43-0.31,6.66-0.31,10.1,0l0.44,11.34l2.44,0.42c6.89,1.18,13.29,3.83,19.01,7.88l2.02,1.43l8.33-7.71
							c2.58,2.17,4.97,4.56,7.14,7.14l-7.71,8.33l1.43,2.02c4.05,5.72,6.7,12.12,7.88,19.01l0.42,2.44l11.34,0.44
							c0.15,1.72,0.23,3.41,0.23,5.05s-0.08,3.33-0.23,5.05l-11.34,0.43l-0.42,2.44c-1.18,6.89-3.83,13.29-7.88,19.01l-1.43,2.02
							l7.71,8.33c-2.17,2.58-4.56,4.97-7.14,7.14l-8.33-7.71l-2.02,1.43C1286.46,447.43,1280.06,450.08,1273.17,451.26z"/>
					</g>
				</g>
				<g>
					<g class="st3">
						<path class="st4" d="M1875.25,110.66l-0.71-0.2l-38.55,7.71l-17.19-35.95l-1.2-0.42c-1.35-0.47-33.24-11.23-49.85,7.27
							l-0.78,0.87v29.73l23.57,1.57c-1.53,7.72-6.88,28.18-22.83,46.58l-1.43,1.65l1.09,1.88c0.75,1.29,18.78,31.69,59.97,36.63
							l1.99,0.24l31.23-53.72l18.82,20.91l22.65-24.17l-0.68-1.78C1899.99,145.85,1887.61,114.19,1875.25,110.66z M1879.48,166.38
							l-19.98-22.2l-33.41,57.47c-31.26-4.52-47.93-25.36-52.27-31.6c19.92-24.05,23.19-50.15,23.32-51.28l0.38-3.19l-24.45-1.63
							V92.32c12.51-12.61,35.85-6.74,41.35-5.12l18.12,37.89l41.67-8.33c6.74,2.85,15.92,20.91,20.77,33.1L1879.48,166.38z"/>
						<path class="st4" d="M1577.8,151.75c-4.67-3.41-10.21-4.46-16.46-3.12c-12.13,2.6-20.19,2.11-24.65-1.49
							c-3.63-2.93-5.39-8.3-5.39-16.4c0-14.31-13.68-30.64-27.11-32.36c-4.94-0.63-16.98,0.08-22.26,20.35
							c-3.08,11.81-1.99,22.08,3.25,30.54c6.93,11.2,19.09,15.83,24.13,17.33c-0.11,3.35-1.82,10.72-13.77,15.96
							c-4.32,1.9-7.28,5.11-8.8,9.55c-4.76,13.89,6.85,35.55,7.34,36.46l1.44,2.66l95.41-50.56l-0.2-2.04
							C1590.64,177.86,1588.71,159.71,1577.8,151.75z M1498.08,222.96c-3.35-7.07-8.39-20.66-5.57-28.87
							c0.96-2.8,2.75-4.74,5.48-5.94c20.35-8.93,17.33-23.97,17.19-24.6l-0.42-1.93l-1.93-0.41c-0.15-0.03-15.1-3.29-22.45-15.16
							c-4.32-6.98-5.17-15.65-2.53-25.78c1.93-7.41,5.92-15.93,14.01-15.93c0.51,0,1.03,0.03,1.57,0.1
							c10.38,1.33,21.79,15.1,21.79,26.3c0,10.07,2.5,16.98,7.66,21.15c6.07,4.9,15.53,5.77,29.77,2.72
							c4.54-0.97,8.32-0.3,11.57,2.07c6.86,4.99,9.39,16.03,10.16,20.56L1498.08,222.96z"/>
						<path class="st4" d="M1806.25-190.45l0.23,0.69l72.82,71.28l26.03-27.98l-70.59-69.64l-0.38-0.21
							c-1.86-1.02-18.46-9.8-27.03-2.67c-4.12,3.43-5.38,9.43-3.79,18.24C1804.1-197.65,1805-194.23,1806.25-190.45z
							 M1811.24-214.28c4.43-3.69,15.68,0.95,19.81,3.12l65.81,64.84l-17.73,19.06l-67.31-65.8
							C1808.25-204.1,1808.05-211.62,1811.24-214.28z"/>
						<path class="st4" d="M1485.8-122.8c1.44,2.68,3.19,5.22,5.26,7.58c1.15,1.32,2.57,2.42,3.88,3.61l-7.71,15.32l6.28,3.16
							l7.05-14.01c1.82,1.23,3.62,2.51,5.57,3.49c1.07,0.54,2.09,0.88,3.14,1.34l-6.87,13.66l6.28,3.16l7.24-14.4
							c1.45,0.42,2.91,0.89,4.32,1.15c4.55,0.83,8.77,0.87,12.67,0.13c3.91-0.74,7.38-2.26,10.44-4.54s5.53-5.31,7.43-9.08
							c1.81-3.6,2.83-7.12,3.05-10.57c0.22-3.44-0.33-6.93-1.66-10.47c-1.33-3.53-3.44-7.16-6.35-10.88
							c-1.42-1.81-3.04-3.68-4.84-5.59l16.33-32.46c1.67,1.91,2.98,3.9,3.74,6.03c0.88,2.46,1.18,5,0.9,7.62s-1.07,5.22-2.37,7.8
							l12.26,6.17c1.81-3.6,2.84-7.45,3.11-11.57c0.27-4.11-0.34-8.16-1.81-12.14c-1.47-3.97-3.85-7.78-7.13-11.39
							c-0.99-1.09-2.24-2.05-3.41-3.05l7.42-14.75l-6.28-3.16l-6.92,13.76c-1.18-0.71-2.24-1.49-3.54-2.15
							c-1.82-0.92-3.61-1.59-5.39-2.26l6.96-13.83l-6.28-3.16l-7.57,15.05c-0.52-0.1-1.05-0.3-1.57-0.38
							c-4.49-0.67-8.68-0.56-12.58,0.32s-7.36,2.47-10.41,4.79c-3.05,2.32-5.48,5.27-7.29,8.87c-1.81,3.6-2.72,7.15-2.73,10.65
							c-0.01,3.5,0.74,6.99,2.25,10.48c1.51,3.49,3.69,7,6.56,10.54c0.58,0.72,1.28,1.44,1.9,2.16L1500.16-122
							c-1.04-1.24-1.96-2.54-2.69-3.92c-1.35-2.54-2.08-5.26-2.19-8.15c-0.11-2.89,0.63-5.93,2.23-9.11l-12.26-6.17
							c-1.55,3.09-2.52,6.17-2.88,9.22s-0.25,6.03,0.36,8.94C1483.34-128.28,1484.36-125.48,1485.8-122.8z M1540.37-124.48
							c-0.17,1.98-0.8,4.05-1.89,6.21c-2.28,4.53-5.79,7.24-10.55,8.15c-2.1,0.4-4.38,0.32-6.81-0.09l13.7-27.22
							c1.95,2.39,3.44,4.62,4.34,6.65C1540.15-128.56,1540.54-126.46,1540.37-124.48z M1542.83-191.16c1.74,0.55,3.53,1.24,5.42,2.2
							c1.32,0.66,2.44,1.38,3.56,2.11l-16.08,31.96c-0.36-0.33-0.64-0.65-1.01-0.99c-2.5-2.27-4.58-4.37-6.43-6.37L1542.83-191.16z
							 M1521.59-183.59c1.09-2.16,2.47-3.96,4.15-5.4c1.68-1.43,3.64-2.43,5.87-2.97c1.23-0.3,2.56-0.42,3.95-0.41l-12.11,24.07
							c-0.65-1.01-1.25-2-1.71-2.95c-1.06-2.23-1.59-4.35-1.61-6.38C1520.13-179.66,1520.61-181.65,1521.59-183.59z M1522.28-150.3
							c1.03,1.03,2.02,2.06,3.14,3.09c1.6,1.49,3,2.87,4.33,4.21l-15.46,30.74c-1.03-0.43-2.05-0.83-3.13-1.37
							c-2.02-1.02-3.84-2.2-5.58-3.47L1522.28-150.3z"/>
						<path class="st4" d="M1651.68-26.32l-38.9,38.9l-38.9-38.9l-16.24,16.24l38.9,38.9l-38.9,38.9l16.24,16.24l38.9-38.9
							l38.9,38.9l16.24-16.24l-38.9-38.9l38.9-38.9L1651.68-26.32z M1659.28,67.72l-7.61,7.61l-38.9-38.9l-38.9,38.9l-7.61-7.61
							l38.9-38.9l-38.9-38.9l7.61-7.61l38.9,38.9l38.9-38.9l7.61,7.61l-38.9,38.9L1659.28,67.72z"/>
						<path class="st4" d="M1753.76-119.51c-19.97,0-36.22,16.25-36.22,36.22c0,19.97,16.25,36.22,36.22,36.22
							c19.97,0,36.22-16.25,36.22-36.22C1789.99-103.26,1773.74-119.51,1753.76-119.51z M1753.76-53.16
							c-16.61,0-30.12-13.51-30.12-30.12c0-16.61,13.51-30.12,30.12-30.12c16.61,0,30.12,13.51,30.12,30.12
							C1783.88-66.67,1770.37-53.16,1753.76-53.16z"/>
						<path class="st4" d="M1790.72-30.83l2.04-1.57c4.46-3.42,8.45-7.42,11.88-11.88l1.57-2.04l-7.93-8.56
							c3.35-5.24,5.72-10.94,7.04-17l11.66-0.45l0.34-2.55c0.38-2.86,0.57-5.68,0.57-8.4c0-2.71-0.19-5.54-0.57-8.4l-0.34-2.55
							l-11.66-0.45c-1.33-6.06-3.69-11.76-7.04-17l7.93-8.56l-1.57-2.04c-3.42-4.46-7.42-8.45-11.88-11.88l-2.04-1.57l-8.56,7.93
							c-5.24-3.35-10.94-5.72-17-7.04l-0.45-11.66l-2.55-0.34c-5.72-0.75-11.08-0.75-16.79,0l-2.55,0.34l-0.45,11.66
							c-6.06,1.33-11.76,3.69-17,7.04l-8.56-7.93l-2.04,1.57c-4.46,3.42-8.45,7.42-11.88,11.88l-1.57,2.04l7.93,8.56
							c-3.35,5.24-5.72,10.94-7.04,17l-11.66,0.45l-0.34,2.55c-0.37,2.85-0.56,5.68-0.56,8.4c0,2.72,0.19,5.54,0.56,8.4l0.34,2.55
							l11.66,0.45c1.33,6.06,3.69,11.76,7.04,17l-7.93,8.56l1.57,2.04c3.42,4.46,7.42,8.45,11.88,11.88l2.04,1.57l8.56-7.93
							c5.24,3.35,10.94,5.72,17,7.04l0.45,11.66l2.55,0.34c2.86,0.38,5.68,0.57,8.4,0.57c2.71,0,5.54-0.19,8.4-0.57l2.55-0.34
							l0.45-11.66c6.06-1.33,11.76-3.69,17-7.04L1790.72-30.83z M1761.69-37.26l-2.44,0.42l-0.44,11.34c-3.43,0.31-6.66,0.31-10.1,0
							l-0.44-11.34l-2.44-0.42c-6.89-1.18-13.29-3.83-19.01-7.88l-2.02-1.43l-8.33,7.71c-2.58-2.17-4.97-4.56-7.14-7.14l7.71-8.33
							l-1.43-2.02c-4.05-5.72-6.7-12.12-7.88-19.01l-0.42-2.44l-11.34-0.43c-0.15-1.72-0.23-3.41-0.23-5.05
							c0-1.64,0.08-3.33,0.23-5.05l11.34-0.44l0.42-2.44c1.18-6.89,3.83-13.29,7.88-19.01l1.43-2.02l-7.71-8.33
							c2.17-2.58,4.56-4.97,7.14-7.14l8.33,7.71l2.02-1.43c5.72-4.05,12.12-6.7,19.01-7.88l2.44-0.42l0.44-11.34
							c3.43-0.31,6.66-0.31,10.1,0l0.44,11.34l2.44,0.42c6.89,1.18,13.29,3.83,19.01,7.88l2.02,1.43l8.33-7.71
							c2.58,2.17,4.97,4.56,7.14,7.14l-7.71,8.33l1.43,2.02c4.05,5.72,6.7,12.12,7.88,19.01l0.42,2.44l11.34,0.44
							c0.15,1.72,0.23,3.41,0.23,5.05s-0.08,3.33-0.23,5.05l-11.34,0.43l-0.42,2.44c-1.18,6.89-3.83,13.29-7.88,19.01l-1.43,2.02
							l7.71,8.33c-2.17,2.58-4.56,4.97-7.14,7.14l-8.33-7.71l-2.02,1.43C1774.98-41.09,1768.58-38.44,1761.69-37.26z"/>
					</g>
				</g>
				<g>
					<g class="st3">
						<path class="st4" d="M1028.94,189.97l-0.28,0.34c-1.34,1.65-12.92,16.43-7.41,26.13c2.64,4.66,8.33,6.96,17.28,6.96
							c3.13,0,6.66-0.28,10.6-0.85l0.72-0.1l83.05-59.05l-22.93-30.57L1028.94,189.97z M1047.55,216.62
							c-11.5,1.56-18.94,0.43-20.99-3.18c-2.85-5.01,3.71-15.26,6.58-18.95l75.47-53.28l15.62,20.82L1047.55,216.62z"/>
						<path class="st4" d="M1042.43-105.64l-24.64-78.98l-33.98,8.71l23.88,80.2L1042.43-105.64z M1013.71-177.28l21,67.49
							l-22.91,6.55l-20.32-68.34L1013.71-177.28z"/>
						<path class="st4" d="M1084.33-121.77l-20.32-57.38l-32.07,13.36l19.23,53.78L1084.33-121.77z M1060.49-171.07l15.85,45.29
							l-21.45,6.31l-15.16-42.94L1060.49-171.07z"/>
						<path class="st4" d="M1129.09-136.14l-0.85-2.94c-0.05-0.17-7.65-26.8-12.98-43.49c-11.33-35.48-13.44-35.8-15.89-36.18
							c-1.34-0.21-2.66,0.38-3.43,1.54c-1.75,2.34-16.25,7.05-28.68,9.98l-3.21,0.75l25.51,81.64L1129.09-136.14z M1098.38-211.45
							c3.84,7.61,15.52,44.98,23.14,71.12l-27.93,7.98l-21.73-69.72C1079.84-204.05,1092.52-207.61,1098.38-211.45z"/>
						<path class="st4" d="M1321.65,228.27l83.55-97.47h-182.75L1321.65,228.27z M1321.27,219.34l-83.9-82.43h154.55L1321.27,219.34
							z"/>
						<path class="st4" d="M1318.08,199.23l45.46-53.03h-99.43L1318.08,199.23z M1317.7,190.29l-38.67-37.99h71.23L1317.7,190.29z"
							/>
						<path class="st4" d="M1131.73-21.99l-1.72-0.25l-1.09,1.36c-1.53,1.75-12.2,4.85-19.99,7.11
							c-20.8,6.03-34.63,10.54-37.11,17.93c-1.18,3.5-6.78,7.9-14.86,9.17c-5.08,0.8-18,1.18-28.01-12.41l-1.57-2.13l-2.33,1.25
							c-0.25,0.13-25.18,13.31-49.06,10.76l-2.69-0.29l-0.61,2.64c-0.07,0.29-6.23,28.62,20.62,40.29l41.37,48.89l16.75-15.77
							l-38.24-43c3.11-1.55,8.27-3.41,13.49-2.25c4.63,1.03,8.54,4.36,11.61,9.89l0.58,1.05l1.14,0.37
							c1.44,0.47,35.62,11.25,61.93-10.12c7.78-6.5,46.38-39.73,41.71-56.19C1142.35-18.25,1138.34-21.04,1131.73-21.99z
							 M1098.05,37.77c-21.21,17.23-49.25,10.91-55.08,9.34c-3.88-6.47-8.91-10.43-14.98-11.78c-10.92-2.44-20.94,4.68-21.36,4.98
							l-2.74,1.98l39.02,43.88l-7.74,7.29l-38.15-45.09l-0.68-0.28c-18.6-7.72-18.78-24.5-18.1-30.98
							c20.61,1.26,40.69-7.33,47.38-10.54c8.37,10.07,20,14.71,32.28,12.79c9.47-1.48,17.57-6.93,19.7-13.25
							c1.65-4.91,21.29-10.61,33.02-14.01c11.41-3.31,18.28-5.38,21.6-7.8c3.17,0.66,5.03,1.89,5.54,3.67
							C1140.55-2.23,1114.86,23.73,1098.05,37.77z"/>
						<path class="st4" d="M1225.04,78.83c0.18,0.38,0.39,0.82,0.51,1.12c-0.09,2.26,2.12,4.22,4.16,5.73
							c4.94,3.65,14.29,7.98,25,7.98c7.12,0,14.84-1.92,22.27-7.22c19.56-13.97,12.8-38.66,6.5-49.77l-0.12-0.22l-31.92-39.52
							l8.73-6.68l11.04,14.49l0.13,0.17c6.81,8.51,13.99,16.64,20.47,14.36c5.84-2.05,6.52-11.28,6.52-18.05
							c0-30.87-30.84-39.8-31.15-39.89l-0.4-0.11h-53.42c-13.3,0-17.38,5.55-17.8,6.18l-1.26,1.89l52.98,64.06
							C1213.42,54.24,1222.12,72.66,1225.04,78.83z M1253.44,36.81l3.13-1.81l-54.15-65.47c1.82-1,5.2-2.19,10.95-2.19h52.56
							c3.38,1.05,26.3,9.11,26.3,33.89c0,11.3-2.41,12.27-2.44,12.28c-1.11,0.38-4.33-0.73-13.68-12.42l-14.79-19.41l-18.57,14.2
							l35.53,43.99c1.34,2.51,14.26,27.93-4.85,41.59c-7.55,5.39-16.09,7.23-25.36,5.47c-8.54-1.63-14.85-5.92-16.38-7.56
							c-0.1-0.97-0.57-1.95-1.13-3.16C1227.65,70.06,1220.82,55.63,1253.44,36.81z"/>
						<path class="st4" d="M1436.48-104.81l-12.35-5.54l-33.8-78.49l30.64-26.41l-130.71,22.44l-0.49,0.3
							c-44.71,27.02-113.11,67.83-118.29,69.51c0.01,0,0.26-0.08,0.57-0.08v6.11h53.63l16.77,32.35l89.8,8.73l1.02-0.99
							c0.14-0.14,14.08-13.8,27.84-28.09c28.63-29.72,28.64-33.06,28.65-35.05c0-1.02-0.37-1.96-1.05-2.64
							c-2.13-2.13-10.8-18.24-16.91-30.19l13.69-11.8l33.17,77.05c0,6.45,0,16.81,0,18.37L1436.48-104.81z M1383.37-139.6
							c-3.38,6.46-28.95,33.39-53.35,57.34l-83.67-8.14l-13.79-26.59h74.41l60.06-51.78
							C1371.05-160.96,1379.46-144.87,1383.37-139.6z M1368.96-178.48l-64.24,55.38h-82.19h-37.86c8.66-4.86,23.66-13.59,50-29.26
							c26.95-16.03,53.83-32.26,57.78-34.65l107.89-18.52L1368.96-178.48z"/>
					</g>
				</g>
				<g>
					<g class="st3">
						<path class="st4" d="M1517.45,678.49l-0.28,0.34c-1.34,1.65-12.92,16.43-7.41,26.13c2.64,4.66,8.33,6.96,17.28,6.96
							c3.13,0,6.66-0.28,10.6-0.85l0.72-0.1l83.05-59.05l-22.93-30.57L1517.45,678.49z M1536.07,705.14
							c-11.5,1.56-18.94,0.43-20.99-3.18c-2.85-5.01,3.71-15.26,6.58-18.95l75.47-53.28l15.62,20.82L1536.07,705.14z"/>
						<path class="st4" d="M1530.95,382.88l-24.64-78.98l-33.98,8.71l23.88,80.2L1530.95,382.88z M1502.23,311.24l21,67.49
							l-22.91,6.55l-20.32-68.34L1502.23,311.24z"/>
						<path class="st4" d="M1572.85,366.75l-20.32-57.38l-32.07,13.36l19.23,53.78L1572.85,366.75z M1549.01,317.45l15.85,45.29
							l-21.45,6.31l-15.16-42.94L1549.01,317.45z"/>
						<path class="st4" d="M1617.61,352.38l-0.85-2.94c-0.05-0.17-7.65-26.8-12.98-43.49c-11.33-35.48-13.44-35.8-15.89-36.18
							c-1.34-0.21-2.66,0.38-3.43,1.54c-1.75,2.34-16.25,7.05-28.68,9.98l-3.21,0.75l25.51,81.64L1617.61,352.38z M1586.9,277.07
							c3.84,7.61,15.52,44.98,23.14,71.12l-27.93,7.98l-21.73-69.72C1568.36,284.47,1581.04,280.9,1586.9,277.07z"/>
						<path class="st4" d="M1810.17,716.79l83.55-97.47h-182.75L1810.17,716.79z M1809.79,707.85l-83.9-82.43h154.55L1809.79,707.85
							z"/>
						<path class="st4" d="M1806.6,687.74l45.46-53.03h-99.43L1806.6,687.74z M1806.21,678.81l-38.67-37.99h71.23L1806.21,678.81z"
							/>
						<path class="st4" d="M1620.25,466.53l-1.72-0.25l-1.09,1.36c-1.53,1.75-12.2,4.85-19.99,7.11
							c-20.8,6.03-34.63,10.54-37.11,17.93c-1.18,3.5-6.78,7.9-14.86,9.17c-5.08,0.8-18,1.18-28.01-12.41l-1.57-2.13l-2.33,1.25
							c-0.25,0.13-25.18,13.31-49.06,10.76l-2.69-0.29l-0.61,2.64c-0.07,0.29-6.23,28.62,20.62,40.29l41.37,48.89l16.75-15.77
							l-38.24-43c3.11-1.55,8.27-3.41,13.49-2.25c4.63,1.03,8.54,4.36,11.61,9.89l0.58,1.05l1.14,0.37
							c1.44,0.47,35.62,11.25,61.93-10.12c7.78-6.5,46.38-39.73,41.71-56.19C1630.86,470.26,1626.86,467.48,1620.25,466.53z
							 M1586.57,526.29c-21.21,17.23-49.25,10.91-55.08,9.34c-3.88-6.47-8.91-10.43-14.98-11.78c-10.92-2.44-20.94,4.68-21.36,4.98
							l-2.74,1.98l39.02,43.88l-7.74,7.29l-38.15-45.09l-0.68-0.28c-18.6-7.72-18.78-24.5-18.1-30.98
							c20.61,1.26,40.69-7.33,47.38-10.54c8.37,10.07,20,14.71,32.28,12.79c9.47-1.48,17.57-6.93,19.7-13.25
							c1.65-4.91,21.29-10.61,33.02-14.01c11.41-3.31,18.28-5.38,21.6-7.8c3.17,0.66,5.03,1.89,5.54,3.67
							C1629.07,486.29,1603.38,512.25,1586.57,526.29z"/>
						<path class="st4" d="M1713.56,567.35c0.18,0.38,0.39,0.82,0.51,1.12c-0.09,2.26,2.12,4.22,4.16,5.73
							c4.94,3.65,14.29,7.98,25,7.98c7.12,0,14.84-1.92,22.27-7.22c19.56-13.97,12.8-38.66,6.5-49.77l-0.12-0.22l-31.92-39.52
							l8.73-6.68l11.04,14.49l0.13,0.17c6.81,8.51,13.99,16.64,20.47,14.36c5.84-2.05,6.52-11.28,6.52-18.05
							c0-30.87-30.84-39.8-31.15-39.89l-0.4-0.11h-53.42c-13.3,0-17.38,5.55-17.8,6.18l-1.26,1.89l52.98,64.06
							C1701.93,542.76,1710.64,561.18,1713.56,567.35z M1741.96,525.32l3.13-1.81l-54.15-65.47c1.82-1,5.2-2.19,10.95-2.19h52.56
							c3.38,1.05,26.3,9.11,26.3,33.89c0,11.3-2.41,12.27-2.44,12.28c-1.11,0.38-4.33-0.73-13.68-12.42l-14.79-19.41l-18.57,14.2
							l35.53,43.99c1.34,2.51,14.26,27.93-4.85,41.59c-7.55,5.39-16.09,7.23-25.36,5.47c-8.54-1.63-14.85-5.92-16.38-7.56
							c-0.1-0.97-0.57-1.95-1.13-3.16C1716.17,558.58,1709.34,544.15,1741.96,525.32z"/>
						<path class="st4" d="M1925,383.71l-12.35-5.54l-33.8-78.49l30.64-26.41l-130.71,22.44l-0.49,0.3
							c-44.71,27.02-113.11,67.83-118.29,69.51c0.01,0,0.26-0.08,0.57-0.08v6.11h53.63l16.78,32.35l89.8,8.73l1.02-0.99
							c0.14-0.14,14.08-13.8,27.84-28.09c28.63-29.72,28.64-33.06,28.65-35.05c0-1.02-0.37-1.96-1.05-2.64
							c-2.13-2.13-10.8-18.24-16.91-30.19l13.69-11.8l33.17,77.05c0,6.45,0,16.81,0,18.37L1925,383.71z M1871.89,348.92
							c-3.38,6.46-28.95,33.39-53.35,57.34l-83.67-8.14l-13.79-26.59h74.41l60.06-51.78
							C1859.57,327.56,1867.98,343.64,1871.89,348.92z M1857.47,310.04l-64.24,55.38h-82.19h-37.86c8.66-4.86,23.66-13.59,50-29.26
							c26.95-16.03,53.83-32.26,57.78-34.65L1888.84,283L1857.47,310.04z"/>
					</g>
				</g>
			</g>
		</g>
	</g>
	<path class="st5" d="M1234.28,137.46v-5.72h-58.18c-10.27,0-18.21,2.99-23.6,8.89c-7.96,8.7-7.38,20.59-7.27,22.1v85.42
		c0,10.61-3.03,18.71-9.02,24.08c-10.24,9.18-26,7.58-26.15,7.57l-0.16-0.02H917.04v-55.23h-5.72v55.23H683.34
		c-6.32,0-10.95-1.64-13.74-4.87c-4.05-4.69-3.11-11.44-3.1-11.5l0.03-0.22V171.3c0-16.59-4.38-28.96-13.01-36.77
		c-10.35-9.36-23.08-8.68-24.73-8.54h-49.83v5.72h49.95l0.29-0.01c0.11-0.01,11.49-1.05,20.48,7.08
		c7.39,6.68,11.13,17.62,11.13,32.52v91.48c-0.19,1.55-0.88,9.64,4.42,15.81c3.92,4.58,10.02,6.9,18.11,6.9h227.98v31.05h5.72V285.5
		h192.55c0.47,0.05,1.73,0.15,3.55,0.15c5.97,0,17.89-1.12,26.85-9.13c7.27-6.5,10.96-16.04,10.96-28.37v-85.53l-0.01-0.25
		c-0.01-0.11-0.82-10.7,5.82-17.91c4.27-4.64,10.78-6.99,19.35-6.99H1234.28z"/>
	<path class="st5" d="M765.21,443.46v5.36h-51.37c-8.57,0-15.08,2.35-19.35,6.99c-6.63,7.22-5.83,17.81-5.82,17.91l0.01,0.25v4.22
		c0,12.32-3.69,21.87-10.96,28.37c-8.96,8.01-20.88,9.13-26.85,9.13c-1.82,0-3.08-0.1-3.55-0.15H360.55v-5.72h287.08l0.16,0.02
		c0.15,0.02,15.91,1.62,26.15-7.57c5.99-5.37,9.02-13.47,9.02-24.08v-4.11c-0.11-1.51-0.68-13.4,7.27-22.1
		c4.27-4.66,10.13-7.5,17.48-8.49v-25.66H460.25c-0.47,0.05-1.73,0.15-3.55,0.15c-5.97,0-17.89-1.12-26.85-9.13
		c-7.27-6.5-10.96-16.04-10.96-28.37V263.74l0.01-0.13c0.01-0.1,0.82-10.69-5.82-17.91c-4.27-4.64-10.78-6.99-19.35-6.99H257.42
		v-5.72h136.32c10.27,0,18.21,2.99,23.6,8.89c7.95,8.7,7.38,20.58,7.27,22.1v116.51c0,10.63,3.04,18.74,9.05,24.11
		c10.29,9.2,35.5,7.56,35.65,7.54l-9.21-0.02h247.61v-78.44l0.01-0.13c0.01-0.1,0.82-10.69-5.82-17.91
		c-4.27-4.64-10.78-6.99-19.35-6.99h-45.2v-5.72h45.2c10.27,0,18.21,2.99,23.6,8.89c7.96,8.7,7.38,20.58,7.27,41.75v89.7
		L765.21,443.46z"/>
	<path class="st5" d="M1541.01,117.85l87.23,0.23v-5.72l-87.23-0.23c-10.27,0-18.21,2.99-23.6,8.89c-7.96,8.7-7.38,20.59-7.27,22.1
		v136.35h-36.15c-10.27,0-18.21,2.99-23.6,8.89c-7.96,8.7-7.38,20.59-7.27,22.1v88.87c0,10.61-3.03,18.71-9.02,24.08
		c-10.24,9.18-26,7.59-26.15,7.57l-0.16-0.02h-164.48v0.14h-59V314.16l-0.01-0.25c-0.01-0.11-0.86-10.6,5.78-17.87
		c4.27-4.66,10.79-7.03,19.38-7.03h39.56v-5.72h-39.56c-10.27,0-18.21,2.99-23.6,8.89c-7.96,8.7-7.38,20.59-7.27,22.1v116.82h-26.84
		v5.72h105.23c8.57,0,15.08,2.35,19.35,6.99c6.63,7.22,5.83,17.81,5.82,17.91l-0.01,21.25c0,12.32,3.69,21.87,10.96,28.37
		c8.96,8.01,20.88,9.13,26.85,9.13c1.82,0,3.09-0.1,3.55-0.15h187.63v-5.72h-187.78l-0.31,0.02c-0.16,0.01-15.92,1.61-26.15-7.57
		c-5.99-5.37-9.02-13.47-9.02-24.08v-20.88c0.11-1.52,0.68-13.4-7.27-22.1c-1.13-1.23-2.37-2.33-3.72-3.31h130.62
		c0.47,0.05,1.73,0.15,3.55,0.15c5.97,0,17.89-1.12,26.85-9.13c7.27-6.5,10.96-16.04,10.96-28.37v-88.98l-0.01-0.25
		c-0.01-0.11-0.82-10.7,5.82-17.91c4.27-4.64,10.78-6.99,19.35-6.99h154.25v-5.72h-112.38V143.01l-0.01-0.25
		c-0.01-0.11-0.82-10.7,5.82-17.91C1525.93,120.21,1532.44,117.85,1541.01,117.85z"/>
	<g>
		<rect x="1631.97" y="177.9" class="st6" width="251.77" height="204.42"/>
		<g>
			<g>
				<rect x="1628.24" y="174.17" class="st7" width="251.77" height="22.33"/>
				<g>
					<g>
						<circle class="st8" cx="1643.76" cy="185.33" r="7.08"/>
						<rect x="1639.4" y="183.92" class="st9" width="8.73" height="2.82"/>
					</g>
					<g>
						<circle class="st8" cx="1666.35" cy="185.33" r="7.08"/>
						<rect x="1661.98" y="183.92" class="st9" width="8.73" height="2.82"/>
					</g>
					<g>
						<circle class="st8" cx="1688.93" cy="185.33" r="7.08"/>
						<rect x="1684.57" y="183.92" class="st9" width="8.73" height="2.82"/>
					</g>
				</g>
				<rect x="1628.24" y="196.5" class="st9" width="251.77" height="182.09"/>
			</g>
			<g>
				<polygon class="st10" points="1841.76,256.75 1741.43,256.75 1741.43,327.73 1769.39,327.73 1769.39,350.26 1796.02,327.73 
					1841.76,327.73 				"/>
				<g>
					<polygon class="st11" points="1766.81,224.83 1666.48,224.83 1666.48,299.3 1697.61,299.3 1697.61,321.83 1724.24,299.3 
						1766.81,299.3 					"/>
					<g>
						<rect x="1677.98" y="243.26" class="st12" width="72.97" height="2.97"/>
						<rect x="1691.86" y="250.99" class="st12" width="59.09" height="2.97"/>
						<rect x="1677.98" y="258.72" class="st12" width="72.97" height="2.97"/>
						<rect x="1677.98" y="266.46" class="st12" width="72.97" height="2.97"/>
						<rect x="1677.98" y="274.19" class="st12" width="57.01" height="2.97"/>
					</g>
				</g>
			</g>
		</g>
	</g>
	<g>
		<rect x="784.96" y="33.61" class="st6" width="261.72" height="194.45"/>
		<g>
			<g>
				<rect x="781.35" y="30" class="st7" width="261.72" height="23.21"/>
				<g>
					<g>
						<circle class="st8" cx="797.49" cy="41.61" r="7.36"/>
						<rect x="792.96" y="40.14" class="st9" width="9.07" height="2.93"/>
					</g>
					<g>
						<circle class="st8" cx="820.97" cy="41.61" r="7.36"/>
						<rect x="816.44" y="40.14" class="st9" width="9.07" height="2.93"/>
					</g>
					<g>
						<circle class="st8" cx="844.45" cy="41.61" r="7.36"/>
						<rect x="839.91" y="40.14" class="st9" width="9.07" height="2.93"/>
					</g>
				</g>
				<rect x="781.35" y="53.21" class="st9" width="261.72" height="171.24"/>
			</g>
			<g>
				<polygon class="st13" points="911.29,68.59 850.53,120.41 855.62,120.41 902.55,162.24 921.87,162.24 968.8,120.41 
					973.9,120.41 				"/>
				<g>
					<rect x="858.06" y="84.61" class="st14" width="108.3" height="80.38"/>
					<rect x="863.7" y="100.27" class="st15" width="97.03" height="3.95"/>
					<rect x="872.93" y="110.55" class="st15" width="78.57" height="3.96"/>
					<rect x="863.7" y="120.83" class="st15" width="97.03" height="3.96"/>
					<rect x="863.7" y="131.11" class="st15" width="97.03" height="3.96"/>
					<rect x="874.31" y="141.4" class="st15" width="75.8" height="3.95"/>
				</g>
				<polygon class="st16" points="855.62,120.41 850.53,120.41 850.53,200.04 902.55,162.24 				"/>
				<polygon class="st16" points="968.8,120.41 973.9,120.41 973.9,200.04 921.87,162.24 				"/>
				<polygon class="st17" points="850.53,200.04 973.9,200.04 921.87,162.24 902.55,162.24 				"/>
			</g>
		</g>
	</g>
	<g>
		<rect x="424.67" y="53.23" class="st6" width="192.97" height="156.67"/>
		<g>
			<g>
				<rect x="421.09" y="49.65" class="st7" width="192.97" height="17.11"/>
				<g>
					<g>
						<circle class="st8" cx="432.99" cy="58.21" r="5.42"/>
						<rect x="429.65" y="57.13" class="st9" width="6.69" height="2.16"/>
					</g>
					<g>
						<circle class="st8" cx="450.3" cy="58.21" r="5.42"/>
						<rect x="446.96" y="57.13" class="st9" width="6.69" height="2.16"/>
					</g>
					<g>
						<circle class="st8" cx="467.61" cy="58.21" r="5.42"/>
						<rect x="464.27" y="57.13" class="st9" width="6.69" height="2.16"/>
					</g>
				</g>
				<rect x="421.09" y="66.77" class="st9" width="192.97" height="139.56"/>
			</g>
			<g>
				<g>
					<rect x="460.03" y="136.06" class="st18" width="14.35" height="36.09"/>
					<rect x="484.11" y="127.22" class="st18" width="14.35" height="44.94"/>
					<rect x="508.19" y="118.37" class="st18" width="14.35" height="53.78"/>
					<rect x="532.27" y="109.66" class="st18" width="14.35" height="62.62"/>
					<rect x="556.36" y="100.81" class="st18" width="14.35" height="71.47"/>
				</g>
				<g>
					<g>
						<polygon class="st19" points="452.33,168.5 450.57,165.92 474.1,143.53 498.14,153.05 522.18,128.31 546.33,135.94 
							582.89,103.45 584.58,106.11 546.92,139.56 522.9,131.97 498.78,156.79 474.66,147.25 						"/>
					</g>
				</g>
				<ellipse class="st19" cx="474.38" cy="145.26" rx="2.8" ry="3.32"/>
				<ellipse class="st19" cx="498.46" cy="154.89" rx="2.8" ry="3.32"/>
				<ellipse class="st19" cx="522.54" cy="130.53" rx="2.8" ry="3.32"/>
				<ellipse class="st19" cx="546.62" cy="136.55" rx="2.8" ry="3.32"/>
			</g>
		</g>
	</g>
	<g>
		<rect x="40.04" y="86.31" class="st6" width="217.33" height="176.45"/>
		<g>
			<g>
				<rect x="36.26" y="82.53" class="st7" width="217.33" height="19.27"/>
				<g>
					<g>
						<circle class="st8" cx="49.67" cy="92.17" r="6.11"/>
						<rect x="45.9" y="90.95" class="st9" width="7.53" height="2.44"/>
					</g>
					<g>
						<circle class="st8" cx="69.16" cy="92.17" r="6.11"/>
						<rect x="65.4" y="90.95" class="st9" width="7.53" height="2.44"/>
					</g>
					<g>
						<circle class="st8" cx="88.66" cy="92.17" r="6.11"/>
						<rect x="84.89" y="90.95" class="st9" width="7.53" height="2.44"/>
					</g>
				</g>
				<rect x="36.26" y="101.8" class="st9" width="217.33" height="157.18"/>
			</g>
			<g>
				<g>
					
						<rect x="50.85" y="126.97" transform="matrix(0.9913 0.132 -0.132 0.9913 19.5949 -10.5381)" class="st20" width="76.88" height="31.14"/>
					<g>
						<g>
							<path class="st9" d="M60.08,127.17l6.97,0.93c1.38,0.18,2.4,0.38,3.06,0.58c0.66,0.2,1.24,0.53,1.73,0.96
								c0.49,0.44,0.87,0.98,1.14,1.63c0.28,0.66,0.36,1.36,0.26,2.11c-0.11,0.82-0.43,1.54-0.96,2.16c-0.53,0.62-1.2,1.06-2,1.3
								c1.02,0.45,1.77,1.09,2.24,1.91c0.47,0.82,0.64,1.74,0.51,2.74c-0.11,0.79-0.39,1.54-0.86,2.24c-0.47,0.7-1.05,1.23-1.75,1.6
								c-0.7,0.36-1.52,0.53-2.47,0.51c-0.6-0.01-2.02-0.16-4.26-0.45l-5.94-0.79L60.08,127.17z M63.21,130.54l-0.54,4.03l2.31,0.31
								c1.37,0.18,2.23,0.28,2.57,0.28c0.61,0.01,1.11-0.14,1.51-0.44c0.39-0.3,0.62-0.73,0.7-1.29c0.07-0.54-0.02-1-0.27-1.37
								c-0.25-0.38-0.67-0.64-1.25-0.79c-0.34-0.08-1.34-0.24-3-0.46L63.21,130.54z M62.29,137.48l-0.62,4.66l3.26,0.43
								c1.27,0.17,2.08,0.24,2.43,0.21c0.54-0.03,0.99-0.2,1.37-0.53c0.38-0.32,0.61-0.8,0.69-1.41c0.07-0.52,0-0.98-0.2-1.38
								c-0.21-0.4-0.54-0.71-0.99-0.94c-0.46-0.23-1.49-0.45-3.09-0.66L62.29,137.48z"/>
							<path class="st9" d="M83.63,148.06l0.25-1.89c-0.55,0.61-1.23,1.06-2.03,1.35c-0.8,0.29-1.62,0.38-2.45,0.27
								c-0.85-0.11-1.59-0.4-2.21-0.86c-0.62-0.46-1.04-1.05-1.25-1.77c-0.21-0.71-0.24-1.67-0.08-2.86l1.06-8l3.34,0.45l-0.77,5.81
								c-0.24,1.78-0.32,2.87-0.25,3.29c0.07,0.42,0.25,0.76,0.55,1.04c0.29,0.28,0.69,0.45,1.19,0.52c0.57,0.08,1.1-0.01,1.6-0.27
								c0.49-0.25,0.86-0.6,1.08-1.04c0.23-0.44,0.46-1.57,0.7-3.38l0.71-5.33l3.34,0.45l-1.68,12.64L83.63,148.06z"/>
							<path class="st9" d="M90.3,136.08l3.56,0.47l1.83,9.37l4.15-8.58l3.46,0.46l-6.08,11.57l-1.09,2.1
								c-0.39,0.7-0.75,1.22-1.06,1.58c-0.32,0.35-0.66,0.63-1.04,0.83c-0.38,0.2-0.83,0.33-1.35,0.4c-0.52,0.07-1.1,0.06-1.73-0.03
								c-0.64-0.09-1.26-0.24-1.86-0.45l0.05-2.66c0.51,0.17,0.97,0.29,1.4,0.34c0.78,0.1,1.38-0.05,1.82-0.45
								c0.43-0.41,0.8-0.95,1.09-1.63L90.3,136.08z"/>
						</g>
						<circle class="st9" cx="114.93" cy="145.96" r="5.12"/>
					</g>
				</g>
				<g>
					
						<rect x="181.04" y="180.26" transform="matrix(0.8198 0.5726 -0.5726 0.8198 148.0245 -85.5906)" class="st21" width="57.94" height="24.31"/>
					<g>
						<path class="st9" d="M191,182.4l2.65,1.49c-0.43,0.94-0.56,1.76-0.37,2.47c0.18,0.71,0.66,1.34,1.44,1.88
							c0.82,0.57,1.56,0.83,2.22,0.78c0.66-0.06,1.15-0.32,1.48-0.78c0.21-0.3,0.3-0.61,0.27-0.95c-0.03-0.33-0.21-0.73-0.54-1.19
							c-0.23-0.31-0.78-0.97-1.66-1.98c-1.13-1.29-1.8-2.38-2-3.26c-0.29-1.24-0.09-2.35,0.61-3.35c0.45-0.64,1.05-1.12,1.81-1.42
							c0.76-0.3,1.58-0.36,2.47-0.18c0.89,0.19,1.82,0.62,2.79,1.3c1.59,1.11,2.54,2.29,2.85,3.54c0.32,1.25,0.09,2.48-0.68,3.66
							l-2.63-1.67c0.34-0.73,0.44-1.36,0.28-1.89c-0.16-0.54-0.6-1.05-1.32-1.55c-0.74-0.52-1.43-0.77-2.06-0.76
							c-0.41,0.01-0.72,0.17-0.95,0.5c-0.21,0.3-0.26,0.64-0.16,1.03c0.13,0.49,0.72,1.32,1.75,2.48c1.04,1.16,1.74,2.1,2.12,2.83
							c0.38,0.73,0.54,1.48,0.5,2.26c-0.04,0.78-0.34,1.57-0.9,2.36c-0.51,0.72-1.18,1.26-2.02,1.61c-0.84,0.35-1.74,0.42-2.69,0.22
							c-0.95-0.21-1.97-0.69-3.07-1.46c-1.6-1.12-2.57-2.34-2.91-3.68C189.94,185.36,190.18,183.93,191,182.4z"/>
						<path class="st9" d="M206.77,190.08l-1.92-1.93c0.86-0.71,1.75-1.07,2.65-1.07c0.9,0,1.94,0.41,3.13,1.24
							c1.08,0.75,1.79,1.44,2.14,2.07c0.35,0.62,0.49,1.21,0.44,1.75c-0.06,0.54-0.46,1.34-1.19,2.39l-2,2.81
							c-0.56,0.8-0.94,1.42-1.13,1.86c-0.19,0.44-0.33,0.95-0.42,1.53l-2.4-1.67c0.05-0.2,0.14-0.5,0.27-0.88
							c0.06-0.17,0.1-0.29,0.11-0.34c-0.69,0.11-1.35,0.11-1.96-0.02c-0.61-0.13-1.18-0.38-1.72-0.75
							c-0.94-0.66-1.51-1.43-1.69-2.32c-0.19-0.89-0.01-1.73,0.54-2.51c0.36-0.52,0.81-0.89,1.34-1.12c0.53-0.23,1.09-0.3,1.69-0.21
							c0.6,0.1,1.37,0.36,2.32,0.78c1.28,0.58,2.2,0.93,2.77,1.05l0.17-0.24c0.33-0.47,0.44-0.88,0.35-1.24
							c-0.09-0.36-0.46-0.76-1.09-1.21c-0.43-0.3-0.83-0.45-1.19-0.45C207.62,189.6,207.22,189.76,206.77,190.08z M208.64,194.31
							c-0.38-0.11-0.96-0.33-1.73-0.66c-0.77-0.33-1.31-0.49-1.61-0.5c-0.47,0-0.83,0.18-1.07,0.52c-0.24,0.34-0.32,0.72-0.24,1.14
							c0.08,0.42,0.32,0.77,0.71,1.04c0.44,0.3,0.95,0.45,1.55,0.44c0.45-0.01,0.82-0.15,1.14-0.4c0.21-0.16,0.51-0.53,0.92-1.11
							L208.64,194.31z"/>
						<path class="st9" d="M210.34,202.03l8.82-12.63l2.42,1.69l-8.82,12.63L210.34,202.03z"/>
						<path class="st9" d="M222.57,206.24l2.13,2.09c-0.93,0.67-1.89,1-2.88,0.99c-0.99-0.01-1.99-0.36-3-1.06
							c-1.59-1.11-2.41-2.45-2.44-4.03c-0.02-1.25,0.41-2.52,1.3-3.79c1.06-1.52,2.28-2.43,3.68-2.73c1.39-0.31,2.69-0.03,3.91,0.81
							c1.36,0.95,2.12,2.15,2.28,3.6c0.16,1.45-0.43,3.09-1.76,4.92l-6.07-4.24c-0.48,0.73-0.68,1.42-0.58,2.08
							c0.09,0.66,0.42,1.18,0.98,1.57c0.38,0.26,0.77,0.38,1.17,0.36C221.69,206.81,222.12,206.61,222.57,206.24z M224.42,203.89
							c0.47-0.71,0.66-1.37,0.57-1.98c-0.09-0.61-0.38-1.08-0.88-1.43c-0.53-0.37-1.1-0.48-1.71-0.34c-0.61,0.14-1.15,0.55-1.6,1.21
							L224.42,203.89z"/>
					</g>
				</g>
				<path class="st22" d="M145.77,169.83l26.16-26.16l-5.82-5.82l-31.98,31.98H74.26v10h8.89v58.92h104.72v-58.92h8.89v-10H145.77z
					 M100.72,228.3h-8.23v-48.47h8.23V228.3z M116.28,228.3h-8.23v-48.47h8.23V228.3z M131.84,228.3h-8.23v-48.47h8.23V228.3z
					 M147.41,228.3h-8.23v-48.47h8.23V228.3z M162.97,228.3h-8.23v-48.47h8.23V228.3z M178.53,228.3h-8.23v-48.47h8.23V228.3z"/>
			</g>
		</g>
	</g>
	<g>
		<rect x="470.56" y="237.89" class="st6" width="166.8" height="135.43"/>
		<g>
			<g>
				<rect x="466.75" y="234.08" class="st7" width="166.8" height="14.79"/>
				<g>
					<g>
						<circle class="st8" cx="477.04" cy="241.48" r="4.69"/>
						<rect x="474.15" y="240.54" class="st9" width="5.78" height="1.87"/>
					</g>
					<g>
						<circle class="st8" cx="492" cy="241.48" r="4.69"/>
						<rect x="489.11" y="240.54" class="st9" width="5.78" height="1.87"/>
					</g>
					<g>
						<circle class="st8" cx="506.96" cy="241.48" r="4.69"/>
						<rect x="504.07" y="240.54" class="st9" width="5.78" height="1.87"/>
					</g>
				</g>
				<rect x="466.75" y="248.87" class="st9" width="166.8" height="120.63"/>
			</g>
			<g>
				<g>
					<rect x="502.49" y="287" class="st23" width="95.31" height="67.27"/>
					
						<rect x="520.27" y="286.69" transform="matrix(-1.836970e-16 1 -1 -1.836970e-16 866.1713 -224.9063)" class="st9" width="50.55" height="67.89"/>
					<rect x="513.69" y="297.45" class="st24" width="9.1" height="46.36"/>
					<rect x="522.79" y="297.45" class="st25" width="9.1" height="46.36"/>
					<rect x="531.89" y="297.45" class="st26" width="9.1" height="46.36"/>
					<rect x="540.99" y="297.45" class="st27" width="9.1" height="46.36"/>
					<rect x="550.09" y="297.45" class="st28" width="9.1" height="46.36"/>
					<rect x="559.19" y="297.45" class="st29" width="9.1" height="46.36"/>
					<rect x="568.29" y="297.45" class="st30" width="9.1" height="46.36"/>
					<circle class="st9" cx="588.64" cy="306" r="6.01"/>
					<circle class="st9" cx="588.64" cy="319.98" r="4.18"/>
					<circle class="st23" cx="588.64" cy="306" r="2.61"/>
					<circle class="st9" cx="588.64" cy="332.13" r="4.18"/>
				</g>
				<g>
					<polygon class="st23" points="544.5,290.29 522.04,267.66 523.53,266.19 544.5,287.33 565.65,266.19 567.12,267.66 					"/>
				</g>
				<circle class="st23" cx="522.79" cy="267.05" r="2.94"/>
				<circle class="st23" cx="566.68" cy="267.05" r="2.94"/>
			</g>
		</g>
	</g>
	<g>
		<rect x="79.32" y="350.01" class="st6" width="281.23" height="228.34"/>
		<g>
			<g>
				<rect x="75.57" y="346.26" class="st7" width="281.23" height="24.94"/>
				<g>
					<g>
						<circle class="st8" cx="92.92" cy="358.73" r="7.91"/>
						<rect x="88.04" y="357.15" class="st9" width="9.75" height="3.15"/>
					</g>
					<g>
						<circle class="st8" cx="118.14" cy="358.73" r="7.91"/>
						<rect x="113.27" y="357.15" class="st9" width="9.75" height="3.15"/>
					</g>
					<g>
						<circle class="st8" cx="143.37" cy="358.73" r="7.91"/>
						<rect x="138.5" y="357.15" class="st9" width="9.75" height="3.15"/>
					</g>
				</g>
				<rect x="75.57" y="371.2" class="st9" width="281.23" height="203.4"/>
			</g>
			<g>
				<g>
					<g>
						<rect x="222.36" y="410.22" class="st31" width="73.5" height="106.96"/>
						<rect x="220.86" y="408.72" class="st14" width="73.5" height="106.96"/>
						<rect x="220.86" y="416.45" class="st32" width="73.5" height="24.5"/>
						<rect x="270.13" y="418.23" class="st33" width="20.94" height="20.94"/>
						<rect x="224.16" y="418.23" class="st9" width="11.72" height="1.03"/>
						<rect x="224.16" y="420.67" class="st9" width="25.36" height="1.03"/>
						<rect x="224.16" y="423.1" class="st9" width="25.36" height="1.03"/>
						<rect x="224.16" y="425.54" class="st9" width="25.36" height="1.03"/>
						<rect x="238.94" y="427.98" class="st9" width="10.57" height="1.03"/>
						<rect x="224.16" y="443.5" class="st9" width="25.36" height="49.79"/>
						<rect x="253.27" y="443.5" class="st34" width="37.81" height="49.79"/>
						<rect x="224.16" y="495.84" class="st35" width="66.92" height="16.69"/>
					</g>
					<g>
						<rect x="127.23" y="410.22" class="st31" width="73.5" height="106.96"/>
						<rect x="125.74" y="408.72" class="st36" width="73.5" height="106.96"/>
						<rect x="125.74" y="416.45" class="st37" width="73.5" height="24.5"/>
						<rect x="129.03" y="418.23" class="st9" width="11.72" height="1.03"/>
						<rect x="129.03" y="420.67" class="st9" width="25.36" height="1.03"/>
						<rect x="129.03" y="423.1" class="st9" width="25.36" height="1.03"/>
						<rect x="129.03" y="425.54" class="st9" width="25.36" height="1.03"/>
						<rect x="143.82" y="427.98" class="st9" width="10.57" height="1.03"/>
						<rect x="129.03" y="443.5" class="st9" width="25.36" height="49.79"/>
						<rect x="158.15" y="443.5" class="st34" width="37.81" height="49.79"/>
						<rect x="129.03" y="495.84" class="st35" width="66.92" height="16.69"/>
					</g>
					<g>
						<rect x="166.99" y="396.72" class="st31" width="92.31" height="134.33"/>
						<rect x="165.11" y="394.85" class="st14" width="92.31" height="134.33"/>
						<rect x="165.11" y="404.55" class="st38" width="92.31" height="30.77"/>
						<rect x="226.98" y="406.79" class="st39" width="26.3" height="26.3"/>
						<rect x="169.25" y="406.79" class="st9" width="14.72" height="1.3"/>
						<rect x="169.25" y="409.85" class="st9" width="31.85" height="1.3"/>
						<rect x="169.25" y="412.91" class="st9" width="31.85" height="1.3"/>
						<rect x="169.25" y="415.97" class="st9" width="31.85" height="1.3"/>
						<rect x="187.82" y="419.03" class="st9" width="13.28" height="1.3"/>
						<rect x="169.25" y="438.52" class="st9" width="31.85" height="62.53"/>
						<rect x="205.81" y="438.52" class="st34" width="47.48" height="62.53"/>
						<rect x="169.25" y="504.25" class="st35" width="84.04" height="20.95"/>
					</g>
				</g>
				<g>
					<g>
						<path class="st40" d="M260.67,447.52c-15.84-15.84-41.62-15.84-57.46,0s-15.84,41.62,0,57.46c15.2,15.2,39.53,15.8,55.47,1.84
							l4.81,4.81l-3.19,3.19l36.12,36.12l10.21-10.21l-36.12-36.12l-3.19,3.19l-4.81-4.81
							C276.47,487.05,275.86,462.72,260.67,447.52z M205.76,502.42c-14.43-14.43-14.43-37.92,0-52.35s37.92-14.43,52.35,0
							c14.43,14.43,14.43,37.92,0,52.35C243.68,516.86,220.2,516.86,205.76,502.42z"/>
						<circle class="st41" cx="231.94" cy="476.25" r="37.02"/>
					</g>
					
						<rect x="276.25" y="502.24" transform="matrix(0.7071 -0.7071 0.7071 0.7071 -290.1701 355.0251)" class="st42" width="14.45" height="51.08"/>
				</g>
			</g>
		</g>
	</g>
	<g>
		<rect x="1631.95" y="33.72" class="st6" width="148.6" height="120.65"/>
		<g>
			<g>
				<rect x="1628.24" y="30" class="st7" width="148.6" height="13.18"/>
				<g>
					<g>
						<circle class="st8" cx="1637.4" cy="36.59" r="4.18"/>
						<rect x="1634.82" y="35.76" class="st9" width="5.15" height="1.67"/>
					</g>
					<g>
						<circle class="st8" cx="1650.73" cy="36.59" r="4.18"/>
						<rect x="1648.16" y="35.76" class="st9" width="5.15" height="1.67"/>
					</g>
					<g>
						<circle class="st8" cx="1664.06" cy="36.59" r="4.18"/>
						<rect x="1661.49" y="35.76" class="st9" width="5.15" height="1.67"/>
					</g>
				</g>
				<rect x="1628.24" y="43.18" class="st9" width="148.6" height="107.48"/>
			</g>
			<g>
				<path class="st43" d="M1731.52,114.35v-49.9h-75.43v49.9c0,14.58,12.31,15.04,12.31,15.04h75.43
					C1743.83,129.39,1731.52,128.93,1731.52,114.35z"/>
				<path class="st44" d="M1748.9,75.1c-0.13,0-11.99,0-17.38,0v39.25c0,13.42,10.42,14.88,12.08,15.02c0.08,0,0.15,0.01,0.23,0.02
					c0,0,5.07-1.65,5.07-11.05C1748.9,118.34,1749.07,75.1,1748.9,75.1z"/>
				<rect x="1664.67" y="75.1" class="st44" width="58.28" height="3.76"/>
				<rect x="1664.67" y="103.98" class="st9" width="27.83" height="1.88"/>
				<rect x="1664.67" y="107.4" class="st9" width="27.83" height="1.88"/>
				<rect x="1664.7" y="110.85" class="st9" width="27.83" height="1.88"/>
				<rect x="1664.7" y="114.26" class="st9" width="27.83" height="1.88"/>
				<rect x="1695.12" y="103.98" class="st9" width="27.83" height="1.88"/>
				<rect x="1695.12" y="107.4" class="st9" width="27.83" height="1.88"/>
				<rect x="1695.12" y="110.85" class="st9" width="27.83" height="1.88"/>
				<rect x="1695.12" y="114.26" class="st9" width="27.83" height="1.88"/>
				<rect x="1664.67" y="83.13" class="st45" width="58.28" height="17.94"/>
			</g>
		</g>
	</g>
	<g>
		<rect x="1252.71" y="249.12" class="st6" width="133.88" height="108.7"/>
		<g>
			<g>
				<rect x="1249.02" y="245.42" class="st7" width="133.88" height="11.87"/>
				<g>
					<g>
						<circle class="st8" cx="1257.27" cy="251.36" r="3.76"/>
						<rect x="1254.95" y="250.61" class="st9" width="4.64" height="1.5"/>
					</g>
					<g>
						<circle class="st8" cx="1269.28" cy="251.36" r="3.76"/>
						<rect x="1266.96" y="250.61" class="st9" width="4.64" height="1.5"/>
					</g>
					<g>
						<circle class="st8" cx="1281.29" cy="251.36" r="3.76"/>
						<rect x="1278.97" y="250.61" class="st9" width="4.64" height="1.5"/>
					</g>
				</g>
				<rect x="1249.02" y="257.3" class="st9" width="133.88" height="96.83"/>
			</g>
			<g>
				<g>
					
						<rect x="1250.27" y="295.93" transform="matrix(0.1736 -0.9848 0.9848 0.1736 761.2546 1520.7461)" class="st10" width="73.07" height="21.67"/>
					<g>
						
							<rect x="1251.24" y="297.32" transform="matrix(0.1736 -0.9848 0.9848 0.1736 760.6882 1522.86)" class="st46" width="73.07" height="21.67"/>
						
							<rect x="1280.36" y="315.93" transform="matrix(0.1736 -0.9848 0.9848 0.1736 741.6893 1533.8291)" class="st47" width="8.92" height="18.06"/>
						
							<rect x="1282.39" y="304.43" transform="matrix(0.1736 -0.9848 0.9848 0.1736 754.6968 1526.3191)" class="st48" width="8.92" height="18.06"/>
						
							<rect x="1284.41" y="292.92" transform="matrix(0.1736 -0.9848 0.9848 0.1736 767.7044 1518.8092)" class="st49" width="8.92" height="18.06"/>
						
							<rect x="1286.44" y="281.41" transform="matrix(0.1736 -0.9848 0.9848 0.1736 780.712 1511.2993)" class="st50" width="8.92" height="18.06"/>
						
							<rect x="1288.47" y="269.91" transform="matrix(0.1736 -0.9848 0.9848 0.1736 793.7196 1503.7893)" class="st51" width="8.92" height="18.06"/>
					</g>
				</g>
				<g>
					
						<rect x="1263.31" y="296.48" transform="matrix(0.5 -0.866 0.866 0.5 383.7832 1279.3593)" class="st10" width="73.07" height="21.67"/>
					<g>
						
							<rect x="1263.75" y="298.12" transform="matrix(0.5 -0.866 0.866 0.5 382.5795 1280.563)" class="st52" width="73.07" height="21.67"/>
						
							<rect x="1287.3" y="314.71" transform="matrix(0.5 -0.866 0.866 0.5 365.5147 1280.563)" class="st53" width="8.92" height="18.06"/>
						
							<rect x="1293.14" y="304.59" transform="matrix(0.5 -0.866 0.866 0.5 377.1981 1280.563)" class="st54" width="8.92" height="18.06"/>
						
							<rect x="1298.98" y="294.47" transform="matrix(0.5 -0.866 0.866 0.5 388.8814 1280.563)" class="st55" width="8.92" height="18.06"/>
						
							<rect x="1304.82" y="284.35" transform="matrix(0.5 -0.866 0.866 0.5 400.5648 1280.563)" class="st56" width="8.92" height="18.06"/>
						
							<rect x="1310.66" y="274.24" transform="matrix(0.5 -0.866 0.866 0.5 412.2482 1280.563)" class="st57" width="8.92" height="18.06"/>
					</g>
				</g>
				<g>
					
						<rect x="1275.58" y="301.7" transform="matrix(0.766 -0.6428 0.6428 0.766 106.082 916.5306)" class="st10" width="73.07" height="21.67"/>
					<g>
						
							<rect x="1275.43" y="303.4" transform="matrix(0.766 -0.6428 0.6428 0.766 104.9572 916.832)" class="st46" width="73.07" height="21.67"/>
						
							<rect x="1294.43" y="316.17" transform="matrix(0.766 -0.6428 0.6428 0.766 94.8481 910.9955)" class="st58" width="8.92" height="18.06"/>
						
							<rect x="1303.38" y="308.66" transform="matrix(0.766 -0.6428 0.6428 0.766 101.7693 914.9914)" class="st59" width="8.92" height="18.06"/>
						
							<rect x="1312.33" y="301.15" transform="matrix(0.766 -0.6428 0.6428 0.766 108.6905 918.9874)" class="st60" width="8.92" height="18.06"/>
						
							<rect x="1321.28" y="293.64" transform="matrix(0.766 -0.6428 0.6428 0.766 115.6117 922.9833)" class="st61" width="8.92" height="18.06"/>
						
							<rect x="1330.23" y="286.13" transform="matrix(0.766 -0.6428 0.6428 0.766 122.5329 926.9792)" class="st62" width="8.92" height="18.06"/>
					</g>
				</g>
				<g>
					
						<rect x="1284.05" y="310.96" transform="matrix(0.9397 -0.342 0.342 0.9397 -30.42 471.074)" class="st10" width="73.07" height="21.67"/>
					<g>
						
							<rect x="1283.33" y="312.51" transform="matrix(0.9397 -0.342 0.342 0.9397 -30.9911 470.921)" class="st52" width="73.07" height="21.67"/>
						
							<rect x="1299.37" y="320.15" transform="matrix(0.9397 -0.342 0.342 0.9397 -33.9544 465.7885)" class="st63" width="8.92" height="18.06"/>
						
							<rect x="1310.35" y="316.15" transform="matrix(0.9397 -0.342 0.342 0.9397 -31.9256 469.3025)" class="st64" width="8.92" height="18.06"/>
						
							<rect x="1321.33" y="312.16" transform="matrix(0.9397 -0.342 0.342 0.9397 -29.8968 472.8164)" class="st65" width="8.92" height="18.06"/>
						
							<rect x="1332.31" y="308.16" transform="matrix(0.9397 -0.342 0.342 0.9397 -27.868 476.3304)" class="st66" width="8.92" height="18.06"/>
						
							<rect x="1343.29" y="304.16" transform="matrix(0.9397 -0.342 0.342 0.9397 -25.8392 479.8444)" class="st67" width="8.92" height="18.06"/>
					</g>
				</g>
				<g>
					<rect x="1289.05" y="323.15" class="st10" width="73.07" height="21.67"/>
					<g>
						<rect x="1287.85" y="324.35" class="st46" width="73.07" height="21.67"/>
						<rect x="1302.86" y="326.16" class="st68" width="8.92" height="18.06"/>
						<rect x="1314.54" y="326.16" class="st69" width="8.92" height="18.06"/>
						<rect x="1326.23" y="326.16" class="st70" width="8.92" height="18.06"/>
						<rect x="1337.91" y="326.16" class="st71" width="8.92" height="18.06"/>
						<rect x="1349.59" y="326.16" class="st72" width="8.92" height="18.06"/>
					</g>
				</g>
			</g>
		</g>
	</g>
	<g>
		<g>
			<path class="st9" d="M1151.33,518.79h0.42V330.58h-0.42c0,0,1.15-13.8-15.31-13.8c-0.83,0-1.56-0.09-2.24-0.23H783.18
				c-0.68,0.14-1.41,0.23-2.24,0.23c-16.46,0-15.31,13.8-15.31,13.8h-0.42v188.21h0.42c0,0-1.15,13.8,15.31,13.8
				c0.83,0,1.56,0.09,2.24,0.23h350.61c0.68-0.14,1.41-0.23,2.24-0.23C1152.48,532.59,1151.33,518.79,1151.33,518.79z"/>
			<g>
				<rect x="779.02" y="330.35" class="st73" width="358.93" height="179.46"/>
				<g>
					<rect x="799.26" y="343.69" class="st74" width="322.11" height="156.46"/>
					<g>
						<rect x="795.58" y="340.01" class="st7" width="322.11" height="21.61"/>
						<g>
							<g>
								<circle class="st8" cx="810.61" cy="350.82" r="6.85"/>
								<rect x="806.39" y="349.45" class="st9" width="8.45" height="2.73"/>
							</g>
							<g>
								<circle class="st8" cx="832.47" cy="350.82" r="6.85"/>
								<rect x="828.25" y="349.45" class="st9" width="8.45" height="2.73"/>
							</g>
							<g>
								<circle class="st8" cx="854.33" cy="350.82" r="6.85"/>
								<rect x="850.11" y="349.45" class="st9" width="8.45" height="2.73"/>
							</g>
						</g>
						<rect x="795.58" y="361.62" class="st9" width="322.11" height="134.84"/>
					</g>
				</g>
			</g>
		</g>
		<g>
			<polygon class="st75" points="1290.55,540.51 648.05,540.51 620.44,569.09 1318.16,569.09 			"/>
			<rect x="620.44" y="569.09" class="st9" width="697.72" height="5.63"/>
			<g>
				
					<rect x="611.62" y="583.55" transform="matrix(6.123234e-17 -1 1 6.123234e-17 36.895 1209.6161)" class="st9" width="23.28" height="5.63"/>
				
					<rect x="639.23" y="583.55" transform="matrix(6.123234e-17 -1 1 6.123234e-17 64.5048 1237.226)" class="st9" width="23.28" height="5.63"/>
			</g>
			<g>
				
					<rect x="1184.06" y="583.55" transform="matrix(6.123234e-17 -1 1 6.123234e-17 609.3385 1782.0597)" class="st9" width="23.28" height="5.63"/>
				
					<rect x="1303.7" y="583.55" transform="matrix(6.123234e-17 -1 1 6.123234e-17 728.981 1901.7021)" class="st9" width="23.28" height="5.63"/>
			</g>
			<g>
				<g>
					<polygon class="st9" points="1060.3,548.41 857.94,548.41 844.13,558.8 1074.11,558.8 					"/>
					<rect x="844.13" y="558.8" class="st6" width="229.97" height="2.38"/>
				</g>
				<g>
					<path class="st76" d="M891.88,568.52v-8.09h8.45c0,0-3.25-4.01-6.39-3.9c-3.14,0.11-7.9,1.08-9.53,10.29
						C882.79,576.02,891.88,568.52,891.88,568.52z"/>
					<path class="st76" d="M1033.29,568.12l-0.54-4.11c0,0-2.17-7.69-5.85-8.66c-3.68-0.97-9.1-2.06-9.96,5.09
						c-0.87,7.15,5.96,14.29,5.96,14.29l2.71-1.08c0,0,5.09,0.32,5.09-0.22C1030.69,572.88,1033.29,568.12,1033.29,568.12z"/>
					<g>
						<g>
							<path class="st76" d="M997.89,393.69c-3.68-8.01-11.69,1.84-11.69,1.84l-27.08,9.85v30.42h-0.21v-30.42l-27.08-9.85
								c0,0-8.01-9.85-11.69-1.84c-3.68,8.01,3.46,20.14,11.69,14.51l-2.27,12.92c0,0-1.19,26.93,15.92,28.23
								c0,0,6.5,1.52,4.33,9.53c-0.22,1.73-1.92,9.9-1.92,9.9l6.25,4.17h4.78v-3.19h0.21v3.19h4.78l6.25-4.17c0,0-1.7-8.17-1.92-9.9
								c-2.17-8.01,4.33-9.53,4.33-9.53c17.11-1.3,15.92-28.23,15.92-28.23l-2.27-12.92C994.43,413.83,1001.58,401.7,997.89,393.69z
								"/>
							<path class="st77" d="M987.27,363.15c0,0,3.9-13.43-8.23-13.43s-40.49,7.15-55.65-1.95c0,0,0.87,12.99,6.71,17.11
								c0,0-4.11,3.46-4.33,21.65c-0.22,18.19,3.46,53.7,19.49,56.74c0,0,14.94-7.36,23.82,0c0,0,17.97-0.87,23.39-36.6
								C992.47,406.68,999.4,361.64,987.27,363.15z"/>
							<path class="st20" d="M1004.6,482.9c-8.66-8.23-32.05-6.93-32.05-6.93c0-9.09-5.63-8.66-5.63-8.66h-7.8h-7.8
								c0,0-5.63-0.43-5.63,8.66c0,0-23.39-1.3-32.05,6.93c0,0-50.67,57.6-55,95.71c0,0,6.5,17.32,22.95,13.43
								c0,0,8.66-8.23,13.43-18.19c0,0-4.33-9.53-10.39-11.69l-2.6,2.6c0,0-3.03-2.6,21.22-39.41v35.08h55.87h55.87v-35.08
								c24.25,36.81,21.22,39.41,21.22,39.41l-2.6-2.6c-6.06,2.17-10.39,11.69-10.39,11.69c4.76,9.96,13.43,18.19,13.43,18.19
								c16.46,3.9,22.95-13.43,22.95-13.43C1055.27,540.51,1004.6,482.9,1004.6,482.9z"/>
						</g>
						<rect x="891.88" y="560.43" class="st6" width="134.48" height="37.57"/>
					</g>
				</g>
			</g>
			<rect x="1198.51" y="574.72" class="st75" width="114.01" height="23.28"/>
			<path class="st6" d="M1255.52,586.23c6.35,0,11.5-5.15,11.5-11.5h-23.01C1244.02,581.07,1249.17,586.23,1255.52,586.23z"/>
			<rect x="1170.9" y="574.72" class="st75" width="21.98" height="23.28"/>
		</g>
	</g>
	<g>
		<rect x="1237.96" y="43.51" class="st6" width="202.68" height="164.56"/>
		<g>
			<g>
				<g>
					<rect x="1234.28" y="39.83" class="st7" width="202.68" height="17.97"/>
					<g>
						<g>
							<circle class="st8" cx="1246.78" cy="48.81" r="5.7"/>
							<rect x="1243.26" y="47.68" class="st9" width="7.02" height="2.27"/>
						</g>
						<g>
							<circle class="st8" cx="1264.96" cy="48.81" r="5.7"/>
							<rect x="1261.44" y="47.68" class="st9" width="7.02" height="2.27"/>
						</g>
						<g>
							<circle class="st8" cx="1283.14" cy="48.81" r="5.7"/>
							<rect x="1279.63" y="47.68" class="st9" width="7.02" height="2.27"/>
						</g>
					</g>
					<rect x="1234.28" y="57.8" class="st9" width="202.68" height="146.59"/>
				</g>
			</g>
			<g>
				<g>
					<rect x="1266.52" y="81.72" class="st78" width="138.19" height="84.36"/>
					<g>
						
							<rect x="1266.52" y="166.08" transform="matrix(-1 -1.224647e-16 1.224647e-16 -1 2671.2322 346.5554)" class="st79" width="138.19" height="14.4"/>
						
							<rect x="1287.37" y="171.75" transform="matrix(-1 -1.224647e-16 1.224647e-16 -1 2685.3188 346.5554)" class="st9" width="110.58" height="3.06"/>
						<rect x="1287.37" y="171.75" class="st80" width="63.51" height="3.06"/>
					</g>
					<path class="st9" d="M1275.33,171.37h-2.05v1.91v1.91h2.05c2.05,3,6.14,3.27,6.14,3.27v-5.18v-5.18
						C1281.46,168.1,1277.37,168.37,1275.33,171.37z"/>
				</g>
				<g>
					<polygon class="st9" points="1322.78,123.9 1322.79,141.05 1352.79,123.9 1322.78,106.75 					"/>
					<path class="st9" d="M1333.96,95.11c-15.87,0-28.79,12.91-28.79,28.79s12.91,28.79,28.79,28.79
						c15.88,0,28.79-12.91,28.79-28.79S1349.83,95.11,1333.96,95.11z M1333.96,149.75c-14.25,0-25.85-11.6-25.85-25.85
						s11.6-25.85,25.85-25.85c14.25,0,25.85,11.6,25.85,25.85S1348.21,149.75,1333.96,149.75z"/>
				</g>
			</g>
		</g>
	</g>
	<path class="st5" d="M1299.36,446.11c8.16,0,14.77-6.61,14.77-14.77c0-6.8-4.61-12.52-10.87-14.23c0.26-1.37,0.4-2.78,0.4-4.23
		c0-12.64-10.25-22.89-22.89-22.89c-9.02,0-16.82,5.22-20.55,12.8c-2.3-0.8-4.77-1.24-7.34-1.24c-12.31,0-22.28,9.98-22.28,22.28
		s9.98,22.28,22.28,22.28H1299.36z"/>
	<path class="st5" d="M734.57,430.18c8.16,0,14.77-6.61,14.77-14.77c0-6.8-4.61-12.52-10.87-14.23c0.26-1.37,0.4-2.78,0.4-4.23
		c0-12.64-10.25-22.89-22.89-22.89c-9.02,0-16.82,5.22-20.55,12.8c-2.3-0.8-4.77-1.24-7.34-1.24c-12.31,0-22.28,9.98-22.28,22.28
		c0,12.31,9.98,22.28,22.28,22.28H734.57z"/>
	<path class="st5" d="M934.45,295.41c6.72,0,12.16-5.44,12.16-12.16c0-5.6-3.79-10.31-8.95-11.72c0.21-1.13,0.33-2.29,0.33-3.48
		c0-10.41-8.44-18.85-18.85-18.85c-7.43,0-13.85,4.3-16.92,10.54c-1.89-0.66-3.93-1.02-6.04-1.02c-10.13,0-18.35,8.22-18.35,18.35
		c0,10.13,8.22,18.35,18.35,18.35H934.45z"/>
	<g>
		<rect x="1514.81" y="405.8" class="st6" width="212.51" height="172.54"/>
		<g>
			<g>
				<rect x="1511.13" y="402.12" class="st7" width="212.51" height="18.85"/>
				<g>
					<g>
						<circle class="st8" cx="1524.23" cy="411.54" r="5.97"/>
						<rect x="1520.55" y="410.35" class="st9" width="7.37" height="2.38"/>
					</g>
					<g>
						<circle class="st8" cx="1543.3" cy="411.54" r="5.97"/>
						<rect x="1539.61" y="410.35" class="st9" width="7.37" height="2.38"/>
					</g>
					<g>
						<circle class="st8" cx="1562.36" cy="411.54" r="5.97"/>
						<rect x="1558.68" y="410.35" class="st9" width="7.37" height="2.38"/>
					</g>
				</g>
				<rect x="1511.13" y="420.97" class="st9" width="212.51" height="153.7"/>
			</g>
			<g>
				<g>
					<g>
						<g>
							<path class="st81" d="M1558.59,484c0,12.31,6.45,23.11,16.14,29.22v18.42h18.38v-13.11V496v-46.52
								C1574.04,449.48,1558.59,464.93,1558.59,484z"/>
							<path class="st82" d="M1627.64,484c0,12.31-6.45,23.11-16.14,29.22v18.42h-18.38v-13.11V496v-46.52
								C1612.18,449.48,1627.64,464.93,1627.64,484z"/>
							<path class="st10" d="M1604.77,494.65c-0.29-0.51-2.23-3.08-11.65-3.08s-11.36,2.56-11.65,3.08l-0.15,0.26l0.03,0.3
								c0.05,0.57,1.24,14.13,3.48,21.55c2.17,7.18,2.37,14.82,2.37,14.89l1.95-0.04c-0.01-0.32-0.2-7.97-2.45-15.41
								c-1.97-6.51-3.14-18.35-3.37-20.73c0.61-0.52,2.93-1.95,9.8-1.95c6.93,0,9.22,1.45,9.8,1.94c-0.22,2.36-1.4,14.22-3.37,20.74
								c-2.25,7.45-2.45,15.09-2.45,15.41l1.95,0.04c0-0.08,0.19-7.7,2.37-14.89c2.24-7.42,3.43-20.98,3.48-21.55l0.03-0.3
								L1604.77,494.65z"/>
						</g>
						<rect x="1575.89" y="534.4" class="st83" width="34.44" height="2.41"/>
						<rect x="1577.86" y="538.41" class="st83" width="30.5" height="2.41"/>
						<rect x="1581.31" y="542.43" class="st83" width="23.61" height="2.41"/>
						<rect x="1584.23" y="546.45" class="st83" width="17.76" height="2.41"/>
						<polygon class="st10" points="1600.04,557.01 1586.18,557.01 1584.23,550.47 1601.99,550.47 						"/>
					</g>
					<g>
						<g>
							<path class="st82" d="M1604.3,446.51l2.63-9.81l-2.14-0.57l-2.63,9.81C1602.89,446.11,1603.6,446.3,1604.3,446.51z"/>
							<path class="st82" d="M1584.06,445.94l-2.63-9.81l-2.14,0.57l2.63,9.81C1582.62,446.3,1583.34,446.11,1584.06,445.94z"/>
							<path class="st82" d="M1621.54,457.14l7.19-7.19l-1.56-1.56l-7.19,7.19C1620.51,456.08,1621.04,456.6,1621.54,457.14z"/>
							<path class="st82" d="M1555.62,472.81l-9.81-2.63l-0.57,2.14l9.81,2.63C1555.22,474.23,1555.41,473.51,1555.62,472.81z"/>
							<path class="st82" d="M1631.17,474.95l9.81-2.63l-0.57-2.14l-9.81,2.63C1630.82,473.51,1631,474.23,1631.17,474.95z"/>
							<path class="st82" d="M1566.24,455.57l-7.19-7.19l-1.56,1.56l7.19,7.19C1565.19,456.6,1565.71,456.08,1566.24,455.57z"/>
							<path class="st82" d="M1619.98,512.43l7.19,7.19l1.57-1.56l-7.19-7.19C1621.04,511.41,1620.51,511.93,1619.98,512.43z"/>
							<path class="st82" d="M1631.17,493.06c-0.17,0.72-0.36,1.43-0.57,2.14l9.81,2.63l0.57-2.14L1631.17,493.06z"/>
							<path class="st82" d="M1564.68,510.87l-7.19,7.19l1.56,1.56l7.19-7.19C1565.71,511.93,1565.19,511.41,1564.68,510.87z"/>
							<path class="st82" d="M1555.05,493.06l-9.81,2.63l0.57,2.14l9.81-2.63C1555.41,494.49,1555.22,493.78,1555.05,493.06z"/>
						</g>
						<g>
							<path class="st81" d="M1559.81,463.46l-9.98-5.76l-1.14,1.97l9.98,5.76C1559.03,464.76,1559.41,464.11,1559.81,463.46z"/>
							<path class="st81" d="M1553.98,484c0-0.38,0.02-0.76,0.03-1.14h-11.54v2.27h11.54C1554,484.76,1553.98,484.38,1553.98,484z"
								/>
							<path class="st81" d="M1574.54,449.56l-5.76-9.98l-1.97,1.14l5.76,9.98C1573.21,450.3,1573.87,449.92,1574.54,449.56z"/>
							<path class="st81" d="M1593.11,444.87c0.38,0,0.76,0.02,1.14,0.03v-11.54h-2.27v11.54
								C1592.35,444.89,1592.73,444.87,1593.11,444.87z"/>
							<path class="st81" d="M1627.56,465.43l9.98-5.76l-1.14-1.97l-9.98,5.76C1626.81,464.11,1627.19,464.76,1627.56,465.43z"/>
							<path class="st81" d="M1613.65,450.7l5.76-9.98l-1.97-1.14l-5.76,9.98C1612.35,449.92,1613.01,450.3,1613.65,450.7z"/>
							<path class="st81" d="M1558.67,502.58l-9.98,5.76l1.14,1.97l9.98-5.76C1559.41,503.9,1559.03,503.24,1558.67,502.58z"/>
							<path class="st81" d="M1626.41,504.54l9.98,5.76l1.14-1.97l-9.98-5.76C1627.19,503.24,1626.81,503.9,1626.41,504.54z"/>
							<path class="st81" d="M1632.21,482.87c0.01,0.38,0.03,0.76,0.03,1.14s-0.02,0.76-0.03,1.14h11.54v-2.27H1632.21z"/>
						</g>
					</g>
				</g>
				<g>
					
						<rect x="1602.41" y="516.64" transform="matrix(0.92 -0.3919 0.3919 0.92 -76.6641 687.7267)" class="st20" width="87.5" height="30"/>
					<g>
						<path class="st9" d="M1616.1,550.26l-5.94-13.95l10.34-4.41l1.01,2.36l-7.52,3.21l1.32,3.09l7-2.98l1,2.35l-7,2.98l1.62,3.8
							l7.79-3.32l1,2.35L1616.1,550.26z"/>
						<path class="st9" d="M1638.27,540.82l-2.67,1.14l-2.2-5.16c-0.46-1.09-0.82-1.77-1.07-2.04c-0.25-0.27-0.54-0.44-0.87-0.51
							c-0.33-0.07-0.68-0.03-1.04,0.13c-0.46,0.2-0.82,0.5-1.08,0.91c-0.26,0.41-0.37,0.85-0.33,1.33c0.04,0.48,0.3,1.28,0.78,2.41
							l1.95,4.58l-2.67,1.14l-4.3-10.1l2.48-1.06l0.63,1.48c0.4-1.52,1.26-2.56,2.6-3.13c0.59-0.25,1.17-0.37,1.75-0.37
							s1.06,0.12,1.45,0.34c0.39,0.22,0.72,0.52,1,0.9c0.28,0.38,0.58,0.96,0.91,1.74L1638.27,540.82z"/>
						<path class="st9" d="M1645.46,533.96l2.85-0.69c0.07,1.12-0.15,2.1-0.67,2.92s-1.34,1.47-2.45,1.95
							c-1.76,0.75-3.3,0.73-4.63-0.06c-1.06-0.64-1.89-1.65-2.48-3.06c-0.71-1.67-0.83-3.17-0.36-4.49
							c0.47-1.32,1.38-2.27,2.71-2.84c1.5-0.64,2.9-0.65,4.19-0.03s2.35,1.97,3.19,4.03l-6.7,2.85c0.36,0.78,0.84,1.31,1.44,1.57
							c0.6,0.27,1.21,0.27,1.82,0c0.42-0.18,0.72-0.44,0.91-0.79C1645.47,534.99,1645.53,534.53,1645.46,533.96z M1644.46,531.19
							c-0.35-0.77-0.8-1.27-1.35-1.51c-0.55-0.24-1.1-0.24-1.65-0.01c-0.58,0.25-0.97,0.67-1.17,1.25c-0.2,0.59-0.14,1.24,0.18,1.97
							L1644.46,531.19z"/>
						<path class="st9" d="M1654.37,533.96l-2.67,1.14l-4.3-10.1l2.48-1.06l0.61,1.44c0.14-0.86,0.33-1.47,0.57-1.83
							s0.59-0.63,1.02-0.82c0.61-0.26,1.27-0.34,1.97-0.25l0.17,2.68c-0.57-0.1-1.06-0.07-1.44,0.1c-0.37,0.16-0.65,0.4-0.82,0.71
							c-0.17,0.32-0.22,0.78-0.14,1.38s0.49,1.76,1.22,3.48L1654.37,533.96z"/>
						<path class="st9" d="M1659.43,532.59l3.21-0.93c0.2,0.33,0.42,0.53,0.66,0.58c0.33,0.08,0.77,0.01,1.32-0.23
							c0.7-0.3,1.18-0.62,1.44-0.98c0.18-0.24,0.26-0.54,0.24-0.9c-0.01-0.26-0.15-0.68-0.4-1.28l-0.63-1.47
							c-0.33,1.43-1.11,2.41-2.33,2.92c-1.36,0.58-2.68,0.46-3.96-0.35c-1.01-0.64-1.8-1.64-2.38-2.99
							c-0.72-1.69-0.87-3.16-0.43-4.4c0.43-1.24,1.26-2.12,2.47-2.64c1.25-0.53,2.51-0.42,3.79,0.33l-0.6-1.42l2.5-1.07l3.86,9.07
							c0.51,1.19,0.79,2.13,0.84,2.8c0.05,0.67-0.02,1.25-0.24,1.74s-0.57,0.95-1.09,1.4c-0.51,0.44-1.22,0.86-2.13,1.24
							c-1.71,0.73-3.05,0.95-4.02,0.67c-0.97-0.28-1.64-0.87-2.03-1.77C1659.52,532.83,1659.48,532.72,1659.43,532.59z
							 M1659.29,525.65c0.46,1.07,1,1.77,1.63,2.09c0.63,0.32,1.25,0.35,1.85,0.09c0.65-0.28,1.1-0.77,1.33-1.47
							c0.23-0.7,0.14-1.55-0.29-2.56c-0.45-1.05-0.99-1.73-1.64-2.06s-1.3-0.34-1.96-0.06c-0.64,0.27-1.06,0.75-1.27,1.42
							C1658.74,523.78,1658.86,524.63,1659.29,525.65z"/>
						<path class="st9" d="M1665.73,517.19l2.84-1.21l5.47,6.14l-0.7-8.18l2.77-1.18l0.57,11.24l0.11,2.03
							c0.02,0.69-0.02,1.24-0.1,1.64c-0.08,0.4-0.22,0.76-0.41,1.07c-0.19,0.31-0.47,0.61-0.83,0.89c-0.36,0.28-0.79,0.53-1.3,0.74
							c-0.51,0.22-1.04,0.38-1.58,0.48l-1.13-1.99c0.45-0.1,0.85-0.22,1.18-0.36c0.62-0.26,1-0.64,1.15-1.13
							c0.14-0.49,0.17-1.05,0.09-1.69L1665.73,517.19z"/>
					</g>
				</g>
			</g>
		</g>
	</g>
</g>
</svg>
