<svg xmlns="http://www.w3.org/2000/svg" xmlns:xlink="http://www.w3.org/1999/xlink" width="1920" height="598" viewBox="0 0 1920 598">
  <defs>
    <clipPath id="clip-path">
      <rect id="Rectangle_6213" data-name="Rectangle 6213" width="1920" height="598" transform="translate(0 80)" fill="#a8ebd9"/>
    </clipPath>
    <linearGradient id="linear-gradient" x1="0.5" y1="1.377" x2="0.5" y2="0.007" gradientUnits="objectBoundingBox">
      <stop offset="0.187" stop-color="#d2dbea" stop-opacity="0"/>
      <stop offset="1" stop-color="#d2dbea"/>
    </linearGradient>
    <linearGradient id="linear-gradient-2" x1="0.5" y1="0.854" x2="0.5" y2="0.05" gradientUnits="objectBoundingBox">
      <stop offset="0.002" stop-color="#d2dbea" stop-opacity="0"/>
      <stop offset="1" stop-color="#d2dbea"/>
    </linearGradient>
    <linearGradient id="linear-gradient-3" x1="0.378" y1="0.387" x2="0.378" y2="2.006" gradientUnits="objectBoundingBox">
      <stop offset="0" stop-color="#8ed0ff"/>
      <stop offset="0.184" stop-color="#84ccf9"/>
      <stop offset="0.492" stop-color="#6bc2e9"/>
      <stop offset="0.884" stop-color="#41b2cf"/>
      <stop offset="0.992" stop-color="#34adc7"/>
    </linearGradient>
    <linearGradient id="linear-gradient-4" x1="0.331" y1="2.026" x2="0.331" y2="0.608" xlink:href="#linear-gradient-3"/>
    <linearGradient id="linear-gradient-5" x1="0.733" y1="-0.649" x2="0.733" y2="0.945" gradientUnits="objectBoundingBox">
      <stop offset="0" stop-color="#fff"/>
      <stop offset="0.31" stop-color="#f5f7fb"/>
      <stop offset="0.827" stop-color="#dce3ef"/>
      <stop offset="0.992" stop-color="#d2dbea"/>
    </linearGradient>
    <linearGradient id="linear-gradient-6" x1="0.828" y1="1.537" x2="0.828" y2="-0.626" gradientUnits="objectBoundingBox">
      <stop offset="0" stop-color="#fff"/>
      <stop offset="0.299" stop-color="#f5f7fb"/>
      <stop offset="0.799" stop-color="#dce3ef"/>
      <stop offset="0.958" stop-color="#d2dbea"/>
    </linearGradient>
    <linearGradient id="linear-gradient-7" y1="0.5" x2="1" y2="0.5" gradientUnits="objectBoundingBox">
      <stop offset="0" stop-color="#151616"/>
      <stop offset="1" stop-color="#282723"/>
    </linearGradient>
    <linearGradient id="linear-gradient-8" x1="6.045" y1="0.5" x2="-22.734" y2="0.5" gradientUnits="objectBoundingBox">
      <stop offset="0" stop-color="#19425e"/>
      <stop offset="0.992" stop-color="#34adc7"/>
    </linearGradient>
    <linearGradient id="linear-gradient-9" x1="6.045" y1="0.5" x2="-22.734" y2="0.5" xlink:href="#linear-gradient-8"/>
    <linearGradient id="linear-gradient-10" x1="-214.664" y1="0.971" x2="-243.441" y2="0.971" xlink:href="#linear-gradient-7"/>
    <linearGradient id="linear-gradient-11" x1="2.207" y1="1.118" x2="-0.081" y2="0.253" gradientUnits="objectBoundingBox">
      <stop offset="0" stop-color="#34adc7"/>
      <stop offset="0.163" stop-color="#32a3be"/>
      <stop offset="0.436" stop-color="#2b8aa4"/>
      <stop offset="0.783" stop-color="#21607b"/>
      <stop offset="1" stop-color="#19425e"/>
    </linearGradient>
    <linearGradient id="linear-gradient-12" x1="-0.644" y1="1.435" x2="0.825" y2="0.066" xlink:href="#linear-gradient-11"/>
    <linearGradient id="linear-gradient-13" x1="0.5" y1="-0.299" x2="0.5" y2="2.722" gradientUnits="objectBoundingBox">
      <stop offset="0" stop-color="#fcc4ad"/>
      <stop offset="0.147" stop-color="#f3baa4"/>
      <stop offset="0.393" stop-color="#dda18d"/>
      <stop offset="0.706" stop-color="#b77766"/>
      <stop offset="0.958" stop-color="#955043"/>
    </linearGradient>
    <linearGradient id="linear-gradient-14" x1="2.245" y1="-3.807" x2="0.113" y2="1.506" gradientUnits="objectBoundingBox">
      <stop offset="0" stop-color="#fad553"/>
      <stop offset="0.151" stop-color="#f2c24b"/>
      <stop offset="0.458" stop-color="#de9035"/>
      <stop offset="0.891" stop-color="#be4012"/>
      <stop offset="1" stop-color="#b52b09"/>
    </linearGradient>
    <linearGradient id="linear-gradient-15" x1="1.606" y1="0.5" x2="-0.352" y2="0.5" xlink:href="#linear-gradient-13"/>
    <linearGradient id="linear-gradient-16" x1="1.061" y1="0.516" x2="-0.974" y2="0.424" xlink:href="#linear-gradient-13"/>
    <linearGradient id="linear-gradient-17" x1="-0.65" y1="-1.36" x2="0.642" y2="0.731" gradientUnits="objectBoundingBox">
      <stop offset="0" stop-color="#fad553"/>
      <stop offset="0.115" stop-color="#f6cb4f"/>
      <stop offset="0.308" stop-color="#ecb244"/>
      <stop offset="0.555" stop-color="#da8731"/>
      <stop offset="0.843" stop-color="#c34e18"/>
      <stop offset="1" stop-color="#b52b09"/>
    </linearGradient>
    <linearGradient id="linear-gradient-18" x1="1.754" y1="-1.569" x2="-0.107" y2="1.206" xlink:href="#linear-gradient-14"/>
    <linearGradient id="linear-gradient-19" x1="0.645" y1="-0.93" x2="0.066" y2="2.81" xlink:href="#linear-gradient-13"/>
    <linearGradient id="linear-gradient-20" x1="1.142" y1="-0.554" x2="-0.98" y2="2.931" xlink:href="#linear-gradient-11"/>
    <linearGradient id="linear-gradient-21" x1="-2.405" y1="0.661" x2="4.465" y2="0.249" xlink:href="#linear-gradient-13"/>
    <linearGradient id="linear-gradient-22" x1="-1.545" y1="0.697" x2="3.501" y2="0.175" xlink:href="#linear-gradient-13"/>
    <linearGradient id="linear-gradient-23" x1="-3.148" y1="-5.794" x2="0.592" y2="-3.201" xlink:href="#linear-gradient-13"/>
    <linearGradient id="linear-gradient-24" x1="-0.509" y1="0.158" x2="5.555" y2="1.35" gradientUnits="objectBoundingBox">
      <stop offset="0" stop-color="#fad553"/>
      <stop offset="0.139" stop-color="#f3cb52"/>
      <stop offset="0.37" stop-color="#dfb24f"/>
      <stop offset="0.667" stop-color="#bf874a"/>
      <stop offset="1" stop-color="#955043"/>
    </linearGradient>
    <linearGradient id="linear-gradient-25" x1="-0.899" y1="-0.237" x2="1.508" y2="0.881" xlink:href="#linear-gradient-13"/>
    <linearGradient id="linear-gradient-26" x1="-0.702" y1="-0.285" x2="3.027" y2="2.147" xlink:href="#linear-gradient-13"/>
    <linearGradient id="linear-gradient-27" x1="-1.279" y1="0.5" x2="2.216" y2="0.5" xlink:href="#linear-gradient-13"/>
    <linearGradient id="linear-gradient-28" x1="-1.099" y1="0.17" x2="2.432" y2="0.913" xlink:href="#linear-gradient-24"/>
    <linearGradient id="linear-gradient-29" x1="2.451" y1="0.989" x2="-3.54" y2="-0.516" xlink:href="#linear-gradient-24"/>
    <linearGradient id="linear-gradient-30" x1="4.541" y1="-1.484" x2="-3.144" y2="2.078" xlink:href="#linear-gradient-13"/>
    <clipPath id="clip-path-2">
      <rect id="Rectangle_6227" data-name="Rectangle 6227" width="322" height="597.88" transform="translate(0 0.12)"/>
    </clipPath>
  </defs>
  <g id="Mask_Group_20" data-name="Mask Group 20" transform="translate(0 -80)" clip-path="url(#clip-path)">
    <g id="mobile" transform="translate(0 79.88)">
      <g id="Layer_4">
        <ellipse id="Ellipse_838" data-name="Ellipse 838" cx="339.4" cy="74.16" rx="339.4" ry="74.16" transform="translate(1060.91 436.26)" fill="#007840" opacity="0.19"/>
        <g id="Group_10680" data-name="Group 10680">
          <g id="Group_10619" data-name="Group 10619">
            <path id="Path_26612" data-name="Path 26612" d="M1363.57,114.68c4.78-15.99,21.67-25.13,37.56-25.46s31.1,6.25,45.78,12.72c7.18-24.81,27.83-44.73,51.9-50.06s50.59,4.13,66.63,23.79,20.97,48.71,12.38,73.01c-2.12,6-5,11.75-6.18,18.02s-.3,13.48,4.12,17.86c5.98,5.92,15.58,4.43,23.31,1.54s15.86-6.87,23.8-4.68,13.01,14.7,6.21,19.53c-2.53,1.8-5.78,1.89-8.82,1.92l-47.44.48c-13.5.14-27.56.15-39.71-6.06-9.89-5.05-17.8-13.91-28.01-18.2-17.3-7.27-36.65,0-54.34,6.14a447.452,447.452,0,0,1-179.52,23.62c-7.81-.58-15.93-1.47-22.54-5.89s-11.14-13.41-8.26-21.09c3.06-8.17,13.02-11.24,21.18-9.43s15.11,7.18,22.32,11.58,15.64,8.02,23.72,5.89c7.8-2.05,13.46-8.94,20.24-13.49,8.06-5.43,17.47-7.3,26.92-7.33,5.48-.02,22.39,4.97,25.73-2.51,2.81-6.29-9.86-15.95-12.93-21.87C1362.91,135.64,1360.55,124.77,1363.57,114.68Z" fill="url(#linear-gradient)"/>
            <g id="Group_10618" data-name="Group 10618">
              <path id="Path_26613" data-name="Path 26613" d="M1242.64,370.29c2.55-9.43,1.95-14.52-.54-17.51-2.49-3.02-6.56-4.29-11.46-6.18a16.067,16.067,0,0,1-6.35-4.66,16.875,16.875,0,0,1-3.65-7.2c-1.16-5.4.53-11.9,7.52-17.54,6.96-5.62,14.4-3.22,20.86,1.64a71.647,71.647,0,0,1,8.77,8.33c2.53,2.92,4.71,5.64,6.47,7.44,3.54,3.57,7.98,2.06,13.9.92,5.87-1.1,13.25-1.85,21.9,4.07a27.816,27.816,0,0,1,5.51,4.81,26.951,26.951,0,0,1,3.58,5.5,31.461,31.461,0,0,1,3.05,11.91,94.776,94.776,0,0,1-.06,11.82,73.891,73.891,0,0,0-.21,10.38c1.15,12.21,12,19.49,27.46,22.93,7.72,1.7,11.7,5.6,13.54,10.38,1.78,4.83,1.18,10.66-.12,16.44-2.83,11.7-2.98,17.7,8,27.41,2.82,2.41,4.06,5.85,4.28,9.58a23.329,23.329,0,0,1-2.74,11.77,34.971,34.971,0,0,1-20.87,17.56c-9.26,2.73-20.92,1.98-31.64-1.41-10.79-3.42-20.86-9.34-27.43-18.07a31.6,31.6,0,0,1-6.71-17.68c-.35-6,.44-12.01,1.37-18.07.92-6.04,1.63-11.95,1.19-17.61a27.326,27.326,0,0,0-2.07-8.02,20.115,20.115,0,0,0-5.08-7.08,78.387,78.387,0,0,0-6.89-5.63c-2.3-1.61-4.55-2.99-6.66-4.28s-4.08-2.49-5.91-3.61a41.053,41.053,0,0,1-4.97-3.44,15.622,15.622,0,0,1-5.66-9C1240.19,382.36,1240.78,377.26,1242.64,370.29Z" fill="url(#linear-gradient-2)"/>
            </g>
          </g>
          <g id="Group_10621" data-name="Group 10621">
            <g id="Group_10620" data-name="Group 10620">
              <path id="Path_26614" data-name="Path 26614" d="M1588.53,283.97c.3-.4.6-.8.89-1.2" fill="none" stroke="#19425e" stroke-miterlimit="10" stroke-width="0.5"/>
              <path id="Path_26615" data-name="Path 26615" d="M1591.11,280.31c18.41-28.02,20.33-75.11-18.61-101.04-40.44-26.93-88.24-24.19-130.02-73.03-5.22-6.11-9.91-12.87-10.93-20.98-1.33-10.6,7.15-21.34,14.81-15.14,8.55,6.91,3.78,27.23-16.1,42.32a124.918,124.918,0,0,1-77.6,25.21c-28.5-.6-56.39-11.06-84.87-9.61-45.58,2.32-87.56,38.73-97.71,84.75-6.07,27.53-.44,57.07,13.65,81.19" fill="none" stroke="#19425e" stroke-miterlimit="10" stroke-width="0.5" stroke-dasharray="2.99 2.99"/>
              <path id="Path_26616" data-name="Path 26616" d="M1184.51,295.25c.26.43.52.86.78,1.28" fill="none" stroke="#19425e" stroke-miterlimit="10" stroke-width="0.5"/>
            </g>
          </g>
          <g id="Group_10631" data-name="Group 10631">
            <g id="Group_10626" data-name="Group 10626">
              <g id="Group_10622" data-name="Group 10622">
                <path id="Path_26617" data-name="Path 26617" d="M1626.11,402.83a36.012,36.012,0,0,0-6.98,2.64c-1.33.7-2.78,1.46-4.33,2.28s-3.11,1.84-4.79,2.81c-6.71,4.05-14.43,9.2-23.32,14.71-5.41,3.44-10.57,6.76-15.38,10.03-4.74,3.35-9.25,6.51-13.13,9.7-7.87,6.27-13.68,12.2-16.41,16.49,2.72-4.27,5.84-11.95,11.71-20.76a93.69,93.69,0,0,1,10.89-13.6,88.2,88.2,0,0,1,15.6-12.64,72.327,72.327,0,0,1,27.94-9.92C1616.02,403.33,1622.33,403.68,1626.11,402.83Z" fill="#007840" opacity="0.47"/>
              </g>
              <g id="Group_10623" data-name="Group 10623">
                <path id="Path_26618" data-name="Path 26618" d="M1620.08,382.83c-3.2.85-7.83,3.62-13.21,7.56-5.43,3.9-11.58,8.74-18.8,13.75-4.39,3.13-8.6,6.09-12.56,9-3.88,2.97-7.62,5.78-10.82,8.6-6.5,5.54-11.3,10.78-13.37,14.59,2.06-3.78,4.05-10.58,8.41-18.56a74.7,74.7,0,0,1,8.38-12.38,69.711,69.711,0,0,1,12.68-11.66,56.63,56.63,0,0,1,23.71-9.23C1611.47,383.34,1616.9,383.68,1620.08,382.83Z" fill="#007840" opacity="0.47"/>
              </g>
              <g id="Group_10624" data-name="Group 10624" opacity="0.47">
                <path id="Path_26619" data-name="Path 26619" d="M1617.08,354.62a25.266,25.266,0,0,0-5.82,2.47c-1.08.67-2.26,1.4-3.53,2.18-1.25.77-2.49,1.78-3.83,2.71-5.33,3.91-11.22,8.86-17.99,14.17-4.11,3.33-8.01,6.55-11.62,9.76-3.52,3.27-6.9,6.41-9.68,9.57-5.71,6.22-9.58,12.18-10.95,16.26,1.37-4.05,2.19-11.09,5.53-19.58a65.757,65.757,0,0,1,7-13.28,62.575,62.575,0,0,1,11.82-12.69,51.139,51.139,0,0,1,23.48-10.1c1.76-.24,3.38-.53,4.93-.63s2.97-.2,4.28-.29A34.705,34.705,0,0,0,1617.08,354.62Z" fill="#007840"/>
              </g>
              <g id="Group_10625" data-name="Group 10625">
                <path id="Path_26620" data-name="Path 26620" d="M1564.39,299.26c.79,3.2,3.67,7.78,6.2,14.32a61.7,61.7,0,0,1,4.53,24.82,76.632,76.632,0,0,1-2.68,16.83,86.317,86.317,0,0,1-5.28,13.86c-3.89,8.14-8.05,13.86-9.76,17.8,1.73-3.96,2.94-10.94,3.64-19.49.41-4.27.57-8.96.82-13.89.18-4.92.37-10.14.57-15.59.31-8.87,1.26-16.73,1.88-23.41C1564.98,307.85,1565.19,302.47,1564.39,299.26Z" fill="#007840" opacity="0.47"/>
              </g>
            </g>
            <g id="Group_10630" data-name="Group 10630">
              <g id="Group_10627" data-name="Group 10627">
                <path id="Path_26621" data-name="Path 26621" d="M1290.38,501.25c-2.91-1.33-8.12-2.16-14.51-5.03a43.623,43.623,0,0,1-19.22-16.48,49.9,49.9,0,0,1-3.99-8.02,52.238,52.238,0,0,1-2.34-8.1,54.326,54.326,0,0,1-.82-14.85c.74-8.99,3.35-15.43,4.16-19.52-.83,4.12-.21,11.09,2.17,18.91a105.149,105.149,0,0,0,11.61,24.86,215.822,215.822,0,0,0,12.3,18.15C1283.65,496.18,1287.45,499.93,1290.38,501.25Z" fill="#007840" opacity="0.47"/>
              </g>
              <g id="Group_10628" data-name="Group 10628">
                <path id="Path_26622" data-name="Path 26622" d="M1272.88,500.64c-2.03-.68-8.33,3.91-14.06,1.99-7.01-2.35-10.78-10.3-13.42-11.19,2.65.89,10.44-3.21,17.45-.86C1268.58,492.51,1270.85,499.97,1272.88,500.64Z" fill="#007840" opacity="0.47"/>
              </g>
              <g id="Group_10629" data-name="Group 10629">
                <path id="Path_26623" data-name="Path 26623" d="M1614.01,487.99c-2.86,1.02-6.8,9.15-14.91,12.03-9.92,3.52-20.21.43-23.95,1.76,3.74-1.33,9.79-10.21,19.7-13.73C1602.96,485.17,1611.15,489.01,1614.01,487.99Z" fill="#007840" opacity="0.47"/>
              </g>
            </g>
          </g>
          <g id="Group_10633" data-name="Group 10633">
            <path id="Path_26624" data-name="Path 26624" d="M1364.72,415.81a93.107,93.107,0,0,1,17.96,35.71,99.535,99.535,0,0,1,2.74,17.94c.16,2.88.26,5.64.22,8.33-.12,2.72-.3,5.33-.55,7.8a86.258,86.258,0,0,1-2.33,13.39c-.48,1.96-.96,3.77-1.46,5.44q-.855,2.535-1.64,4.58a81.618,81.618,0,0,1-3.68,8.42s-2.9-2-7.35-5.38c-1.09-.84-2.3-1.77-3.6-2.77-1.34-.97-2.77-2.02-4.29-3.13-3-2.21-6.14-4.68-9.71-7.19-1.74-1.27-3.5-2.59-5.25-3.94-1.82-1.33-3.72-2.66-5.55-4.06-3.55-2.84-7.54-5.58-11.07-8.62a124.54,124.54,0,0,1-36.26-43.43c-2.36-4.02-4.35-8.43-6.5-12.43-1.04-2.05-2.02-4.15-3-6.18q-1.53-2.94-2.94-5.87c-1.83-3.96-3.7-7.49-5.34-10.84-.82-1.69-1.59-3.29-2.31-4.78-.75-1.46-1.45-2.81-2.08-4.03-2.53-4.98-3.98-8.19-3.98-8.19a80.95,80.95,0,0,1,8.94-2.12c1.44-.27,3.04-.54,4.8-.8,1.73-.19,3.59-.34,5.61-.47a86.211,86.211,0,0,1,13.59.1c2.48.2,5.08.49,7.77.86,2.65.44,5.35,1.04,8.15,1.71a99.8,99.8,0,0,1,17.16,5.9A93.035,93.035,0,0,1,1364.72,415.81Z" fill="#007840" opacity="0.47"/>
            <g id="Group_10632" data-name="Group 10632">
              <path id="Path_26625" data-name="Path 26625" d="M1338.91,394.91l-1.85-1.02c.18,2.97.48,6.83.98,11.2.42,4.45.95,9.51,1.81,14.7.42,2.61.77,5.39,1.29,8.11.47,2.77,1.17,5.43,1.75,8.28.61,2.82,1.34,5.62,2.21,8.37.91,2.73,1.7,5.61,2.83,8.32-1.63-2.26-3.12-4.63-4.88-6.79l-5.18-6.57c-1.76-2.16-3.67-4.2-5.5-6.31-.93-1.04-1.83-2.11-2.79-3.12l-2.94-2.97a48.619,48.619,0,0,1-4.37-5.11,50.981,50.981,0,0,1-3.81-5.3,101.174,101.174,0,0,1-5.98-11.28c-1.64-3.9-3.17-7.63-4.44-11.3s-2.27-7.26-3.21-10.3l-1.87-.21c1.5,4.83,3.23,10.89,5.68,16.86,1.26,2.94,2.46,6.18,4,9.16.75,1.52,1.58,2.99,2.43,4.47.82,1.53,1.69,3.02,2.65,4.48a188.108,188.108,0,0,0-49.78-32.35c-.77.22-1.2.35-1.2.35h0s.19.42.53,1.16a186.374,186.374,0,0,1,49.34,32.07,49.947,49.947,0,0,0-4.63-2.09,48.088,48.088,0,0,0-4.8-1.38,44.653,44.653,0,0,0-9.36-1.3,54.1,54.1,0,0,0-16.14,1.9c.23.46.47.93.71,1.4a48.188,48.188,0,0,1,9.56-1.57,44.492,44.492,0,0,1,11.22.42,39.839,39.839,0,0,1,11.67,3.56,45.955,45.955,0,0,1,5.59,3.18,41.584,41.584,0,0,1,5.02,4.35l2.92,2.95c.95,1,1.84,2.06,2.77,3.09,1.81,2.09,3.71,4.11,5.45,6.25l5.14,6.52c1.74,2.15,3.22,4.5,4.84,6.74a45.646,45.646,0,0,0-6.87-5.18,66.015,66.015,0,0,0-7.37-3.79,50.443,50.443,0,0,0-7.54-2.5,58.912,58.912,0,0,0-7.3-1.46,72.542,72.542,0,0,0-13.15-.34,74.975,74.975,0,0,0-9.76,1.51l.77,1.34a61.344,61.344,0,0,1,11.92-1.43,59.807,59.807,0,0,1,15.9,1.62,53.519,53.519,0,0,1,16.95,7.21,60.023,60.023,0,0,1,7.59,6.31,48.945,48.945,0,0,1,6.26,8.19c1.23,1.86,2.17,3.88,3.27,5.82,1.05,1.96,2.15,3.89,3.15,5.88l2.84,6.04,1.42,3.02c.45,1.02.84,2.06,1.26,3.09a45.541,45.541,0,0,0-7.19-7.88,46.319,46.319,0,0,0-8.23-5.95,60.863,60.863,0,0,0-16.89-6.72,73.116,73.116,0,0,0-13.9-1.7,55.74,55.74,0,0,0-7.23.31l1.28,1.31a60.181,60.181,0,0,1,10.43.15,65.043,65.043,0,0,1,7.79,1.15,71.886,71.886,0,0,1,8.67,2.55,51.28,51.28,0,0,1,8.97,4.28c1.49.87,2.98,1.82,4.45,2.85q2.085,1.605,4.11,3.45c1.34,1.23,2.66,2.54,3.93,3.93a45.126,45.126,0,0,1,3.39,4.52,57.312,57.312,0,0,1,2.98,5,49.885,49.885,0,0,1,2.2,5.54c1.75,4.82,2.92,9.81,4.26,14.75.67.47,1.05.73,1.05.73l.56-1.12c-1.35-4.99-2.54-10.02-4.3-14.88-.65-1.93-1.15-3.88-1.61-5.81a58.641,58.641,0,0,1-1.31-5.74c-.36-1.92-.57-3.87-.81-5.78q-.42-2.85-.61-5.71c-.13-1.91-.2-3.83-.21-5.74-.1-1.87-.14-3.74-.13-5.61-.02-3.71.28-7.47.38-10.95.17-3.52.45-6.94.79-10.18s.56-6.16.91-8.88c.63-5.4,1.4-9.73,1.73-11.99l-1.48-2.2c-.22,1.06-.63,3.92-1.23,8.16-.63,4.26-1.23,9.72-1.72,15.86-.66,6.26-.87,12.97-1.02,20.09-.01,3.53.17,7.06.31,10.71.16,3.64.76,7.17,1.22,10.85-.43-1.04-.81-2.09-1.27-3.12l-1.43-3.05-2.86-6.09c-1.01-2-2.12-3.95-3.18-5.93-1.1-1.95-2.06-3.99-3.3-5.87a67.4,67.4,0,0,1-4.72-9.32,70.029,70.029,0,0,1-3.52-9.54,145.064,145.064,0,0,1-4.6-19.16c-1.02-6.37-1.91-12.33-2.45-17.79C1339.63,403.14,1339.11,398.53,1338.91,394.91Z" fill="#955043"/>
            </g>
          </g>
          <g id="Group_10635" data-name="Group 10635">
            <path id="Path_26626" data-name="Path 26626" d="M1302.87,458.39a98.217,98.217,0,0,1,9.43,12.62c2.95,4.44,5.87,9.1,8.73,13.24,2.84,4.15,5.54,7.9,7.58,10.54,2.01,2.65,3.28,4.32,3.28,4.32s-.46.24-1.29.67a37.69,37.69,0,0,1-3.76,1.64,49.263,49.263,0,0,1-14.29,3.09,53.562,53.562,0,0,1-20.96-2.76,49.988,49.988,0,0,1-32.96-36.23,53.373,53.373,0,0,1-.77-21.12,49.232,49.232,0,0,1,4.43-13.94,38.28,38.28,0,0,1,1.99-3.58c.51-.78.79-1.22.79-1.22s1.54,1.42,4,3.68c2.44,2.27,5.91,5.32,9.78,8.53,3.86,3.24,8.22,6.58,12.36,9.94A101.018,101.018,0,0,1,1302.87,458.39Z" fill="#007840" opacity="0.47"/>
            <g id="Group_10634" data-name="Group 10634">
              <path id="Path_26627" data-name="Path 26627" d="M1293.42,449.64l-.66-.56a33.518,33.518,0,0,0-3.4,12.99,28.193,28.193,0,0,0,5.2,18.1,83.077,83.077,0,0,1-13.46-14.58,21.8,21.8,0,0,1-3.9-14.3,27.562,27.562,0,0,1,3.62-11.77l-.72-.59a28.869,28.869,0,0,0-3.43,8.97,24.634,24.634,0,0,0,.39,11.56,85.239,85.239,0,0,1-11.43-33.27c-.36-.33-.57-.51-.57-.51h0l-.41.63a86.413,86.413,0,0,0,11.57,33.66c-5.93-5.77-13.23-10.25-18.64-13.55l-.12,1.14c3.4,2.05,7.59,4.65,11.66,7.67a51.467,51.467,0,0,1,11.19,10.94,83.942,83.942,0,0,0,13.62,14.75,141.235,141.235,0,0,0-19.22-7.65c-6.18-2.06-11.79-3.78-15.28-4.82l.4,1.27c4.27,1.24,11.25,3.34,18.6,5.89,7.45,2.59,15.07,5.53,22.06,10.37a84.363,84.363,0,0,0,14.06,7.97,100.121,100.121,0,0,0-12.99-1.53c-4.26-.29-8.45-.4-12.25-.48-7.59-.15-13.62-.16-14.93-.09l1.29,1.1c2.91-.07,10.57-.08,19.22.15,4.34.13,8.92.38,13.53.91a66.945,66.945,0,0,1,13.84,2.98,87.093,87.093,0,0,0,8.98,2.48c.43-.23.67-.35.67-.35s-.16-.22-.45-.61a90.971,90.971,0,0,1-8.87-2.45,24.9,24.9,0,0,1-11.15-7.75,28.477,28.477,0,0,1-5.53-10.79,32.832,32.832,0,0,1-.27-15.88l-.63-.77a32.623,32.623,0,0,0-.88,12.33,31.531,31.531,0,0,0,3.03,10.31,27.832,27.832,0,0,0,7.81,9.55,84.272,84.272,0,0,1-13.9-7.88,24.708,24.708,0,0,1-7.84-9.05,28.018,28.018,0,0,1-2.87-10.48A32.6,32.6,0,0,1,1293.42,449.64Z" fill="#955043"/>
            </g>
          </g>
          <g id="Group_10637" data-name="Group 10637">
            <path id="Path_26628" data-name="Path 26628" d="M1583.29,484.03a65.26,65.26,0,0,1-22.64,15.29,70.631,70.631,0,0,1-11.91,3.56c-1.94.39-3.81.73-5.64.97-1.86.2-3.65.34-5.36.43a63.276,63.276,0,0,1-9.36-.17c-1.39-.12-2.68-.25-3.87-.4-1.21-.2-2.31-.4-3.31-.6a57.406,57.406,0,0,1-6.17-1.55s1.02-2.21,2.83-5.64c.46-.85.96-1.78,1.49-2.78.53-1.03,1.09-2.13,1.68-3.29,1.19-2.3,2.55-4.74,3.92-7.46,1.43-2.65,2.93-5.44,4.46-8.28,1.61-2.76,3.15-5.78,4.94-8.54a89.366,89.366,0,0,1,11.92-16.21,90.323,90.323,0,0,1,15.41-12.94c2.64-1.96,5.56-3.69,8.2-5.48,2.74-1.71,5.42-3.38,7.98-4.98,2.63-1.54,4.97-3.06,7.19-4.4,1.12-.66,2.18-1.29,3.17-1.89.96-.6,1.86-1.16,2.68-1.67,3.31-2.03,5.45-3.19,5.45-3.19a57.14,57.14,0,0,1,1.94,6.06c.26.98.54,2.07.81,3.26.23,1.18.45,2.46.65,3.83a61.935,61.935,0,0,1,.77,9.33c.02,1.71,0,3.51-.08,5.37-.12,1.84-.34,3.73-.61,5.69a70.593,70.593,0,0,1-2.79,12.11A64.471,64.471,0,0,1,1583.29,484.03Z" fill="#007840" opacity="0.47"/>
            <g id="Group_10636" data-name="Group 10636">
              <path id="Path_26629" data-name="Path 26629" d="M1595.42,464.86l.55-1.33c-2.02.33-4.64.81-7.6,1.46-3.02.61-6.44,1.35-9.94,2.34a98.339,98.339,0,0,0-22.01,8.32,143.858,143.858,0,0,0,15.92-16.82,50.368,50.368,0,0,1,6.54-6.43,65.639,65.639,0,0,1,7.33-4.92c2.56-1.4,5.03-2.7,7.47-3.8s4.83-2.02,6.87-2.85l.03-1.29c-6.6,2.61-15.65,6.43-23.04,12.49a145.346,145.346,0,0,0,19.16-36.43c-.19-.52-.3-.81-.3-.81h0s-.28.15-.77.43a144.543,144.543,0,0,1-19.01,36.14c3.44-9,1.89-18.39-.38-24.4l-.93.59a35.417,35.417,0,0,1,1.68,6.54,32.123,32.123,0,0,1,.46,7.8,28.523,28.523,0,0,1-1.62,8.32,33.219,33.219,0,0,1-1.77,4.09,28.437,28.437,0,0,1-2.6,3.8,140.842,140.842,0,0,1-15.8,16.69c4.67-6.66,6.31-14.53,6.46-21.17a51.954,51.954,0,0,0-.75-9.14,54.728,54.728,0,0,0-1.73-6.66l-.88.65a44.645,44.645,0,0,1,1.84,8.17,43.319,43.319,0,0,1,.11,11.14,38.353,38.353,0,0,1-3.55,12.31,41.809,41.809,0,0,1-3.66,5.79,34.48,34.48,0,0,1-5.04,5.07c-2.41,1.93-4.92,3.72-7.4,5.55-2.59,1.67-5.08,3.51-7.76,5.03,7.24-7.16,10.26-16.72,11.01-24.28a52.378,52.378,0,0,0-.02-9.77,39.1,39.1,0,0,0-.81-4.98l-.81,1.01a43.987,43.987,0,0,1,.77,7.24,47.084,47.084,0,0,1-.12,5.49,52.706,52.706,0,0,1-.98,6.22,37.1,37.1,0,0,1-2.11,6.6c-.46,1.11-.97,2.23-1.53,3.34-.6,1.07-1.25,2.13-1.96,3.17s-1.48,2.08-2.3,3.09a32.851,32.851,0,0,1-2.74,2.8,37.236,37.236,0,0,1-3.11,2.57,34.6,34.6,0,0,1-3.55,2.11c-3.11,1.72-6.38,3.1-9.6,4.58-.24.51-.38.8-.38.8l.83.25c3.25-1.49,6.55-2.89,9.68-4.62,9.94-5.16,20.72-6.76,30.55-7.53,2.42-.21,4.78-.32,7.02-.38s4.26-.15,6.15-.15c3.74-.03,6.76.14,8.33.18l1.36-1.19c-.74-.06-2.73-.11-5.68-.17s-6.74-.02-10.98.19c-8.59.37-18.79,1.25-28.43,4.37,2.71-1.54,5.21-3.39,7.82-5.07,2.5-1.84,5.04-3.65,7.46-5.59,7.7-6.09,16.49-9.56,24.94-12.13A197.5,197.5,0,0,1,1595.42,464.86Z" fill="#955043"/>
            </g>
          </g>
          <g id="Group_10640" data-name="Group 10640">
            <g id="Group_10638" data-name="Group 10638">
              <path id="Path_26630" data-name="Path 26630" d="M1506.26,237.18l-14.83,6.12a8.665,8.665,0,0,1-9.66-2.19c-1.51-1.63-3.07-3.19-4.68-4.7a8.665,8.665,0,0,1-2.17-9.66l6.16-14.81a8.59,8.59,0,0,0-4.63-11.23l-33.74-14.03a8.59,8.59,0,0,0-11.23,4.63l-6.16,14.81a8.672,8.672,0,0,1-8.38,5.28c-2.2-.08-4.42-.08-6.63-.01a8.644,8.644,0,0,1-8.36-5.3l-6.12-14.83a8.59,8.59,0,0,0-11.22-4.67l-33.77,13.93a8.59,8.59,0,0,0-4.67,11.22l6.12,14.83a8.665,8.665,0,0,1-2.19,9.66c-1.63,1.51-3.19,3.07-4.7,4.68a8.665,8.665,0,0,1-9.66,2.17l-14.81-6.16a8.59,8.59,0,0,0-11.23,4.63l-14.03,33.74a8.59,8.59,0,0,0,4.63,11.23l14.81,6.16a8.672,8.672,0,0,1,5.28,8.38c-.08,2.2-.08,4.42-.01,6.63a8.644,8.644,0,0,1-5.3,8.36l-14.83,6.12a8.59,8.59,0,0,0-4.67,11.22l13.93,33.77a8.59,8.59,0,0,0,11.22,4.67l14.83-6.12a8.665,8.665,0,0,1,9.66,2.19c1.51,1.63,3.07,3.19,4.68,4.7a8.665,8.665,0,0,1,2.17,9.66l-6.16,14.81a8.59,8.59,0,0,0,4.63,11.23l33.74,14.03a8.59,8.59,0,0,0,11.23-4.63l6.16-14.81a8.672,8.672,0,0,1,8.38-5.28c2.2.08,4.42.08,6.63.01a8.644,8.644,0,0,1,8.36,5.3l6.12,14.83a8.59,8.59,0,0,0,11.22,4.67l33.77-13.93a8.59,8.59,0,0,0,4.67-11.22l-6.12-14.83a8.665,8.665,0,0,1,2.19-9.66c1.63-1.51,3.19-3.07,4.7-4.68a8.665,8.665,0,0,1,9.66-2.17l14.81,6.16a8.59,8.59,0,0,0,11.23-4.63l14.03-33.74a8.59,8.59,0,0,0-4.63-11.23l-14.81-6.16a8.672,8.672,0,0,1-5.28-8.38c.08-2.2.08-4.42.01-6.63a8.644,8.644,0,0,1,5.3-8.36l14.83-6.12a8.59,8.59,0,0,0,4.67-11.22l-13.93-33.77A8.594,8.594,0,0,0,1506.26,237.18Zm-78.53,101.85A37.333,37.333,0,1,1,1448,290.28,37.334,37.334,0,0,1,1427.73,339.03Z" fill="url(#linear-gradient-3)"/>
              <path id="Path_26631" data-name="Path 26631" d="M1380.79,225.26a85.727,85.727,0,1,0,111.95,46.55A85.722,85.722,0,0,0,1380.79,225.26Zm51.18,124.05a48.464,48.464,0,1,1,26.31-63.28A48.455,48.455,0,0,1,1431.97,349.31Z" fill="url(#linear-gradient-4)"/>
            </g>
            <g id="Group_10639" data-name="Group 10639">
              <path id="Path_26632" data-name="Path 26632" d="M1348.77,154.69l-9.93.26a5.367,5.367,0,0,1-5.1-3.4c-.51-1.27-1.07-2.53-1.67-3.75a5.364,5.364,0,0,1,.89-6.07l6.84-7.2a5.322,5.322,0,0,0-.19-7.52l-16.4-15.58a5.322,5.322,0,0,0-7.52.19l-6.84,7.2a5.365,5.365,0,0,1-6.01,1.2c-1.26-.53-2.54-1.03-3.83-1.47a5.349,5.349,0,0,1-3.66-4.92l-.26-9.93a5.319,5.319,0,0,0-5.46-5.18L1267,99.1a5.32,5.32,0,0,0-5.18,5.46l.26,9.93a5.367,5.367,0,0,1-3.4,5.1c-1.27.51-2.53,1.07-3.75,1.67a5.364,5.364,0,0,1-6.07-.89l-7.2-6.84a5.322,5.322,0,0,0-7.52.19l-15.58,16.4a5.322,5.322,0,0,0,.19,7.52l7.2,6.84a5.365,5.365,0,0,1,1.2,6.01c-.53,1.26-1.03,2.54-1.47,3.83a5.349,5.349,0,0,1-4.92,3.66l-9.93.26a5.32,5.32,0,0,0-5.18,5.46l.58,22.61a5.319,5.319,0,0,0,5.46,5.18l9.93-.26a5.367,5.367,0,0,1,5.1,3.4c.51,1.27,1.07,2.53,1.67,3.75a5.364,5.364,0,0,1-.89,6.07l-6.84,7.2a5.322,5.322,0,0,0,.19,7.52l16.4,15.58a5.322,5.322,0,0,0,7.52-.19l6.84-7.2a5.365,5.365,0,0,1,6.01-1.2c1.26.53,2.54,1.03,3.83,1.47a5.349,5.349,0,0,1,3.66,4.92l.26,9.93a5.319,5.319,0,0,0,5.46,5.18l22.61-.58a5.32,5.32,0,0,0,5.18-5.46l-.26-9.93a5.367,5.367,0,0,1,3.4-5.1c1.27-.51,2.53-1.07,3.75-1.67a5.364,5.364,0,0,1,6.07.89l7.2,6.84a5.322,5.322,0,0,0,7.52-.19l15.58-16.4a5.322,5.322,0,0,0-.19-7.52l-7.2-6.84a5.365,5.365,0,0,1-1.2-6.01c.53-1.26,1.03-2.54,1.47-3.83a5.362,5.362,0,0,1,4.92-3.66l9.93-.26a5.32,5.32,0,0,0,5.18-5.46l-.58-22.61A5.29,5.29,0,0,0,1348.77,154.69Zm-67.94,41.52a23.118,23.118,0,1,1,22.51-23.71A23.122,23.122,0,0,1,1280.83,196.21Z" fill="url(#linear-gradient-5)"/>
              <path id="Path_26633" data-name="Path 26633" d="M1278.86,120.04a53.078,53.078,0,1,0,54.43,51.69A53.076,53.076,0,0,0,1278.86,120.04Zm2.15,83.05a30.005,30.005,0,1,1,29.22-30.77A30,30,0,0,1,1281.01,203.09Z" fill="url(#linear-gradient-6)"/>
            </g>
          </g>
          <g id="Group_10665" data-name="Group 10665">
            <g id="Group_10645" data-name="Group 10645">
              <path id="Path_26634" data-name="Path 26634" d="M1388.9,518.33a28.586,28.586,0,0,1-28.55-28.55V155.08a28.586,28.586,0,0,1,28.55-28.55h138.78a28.586,28.586,0,0,1,28.55,28.55V489.79a28.586,28.586,0,0,1-28.55,28.55H1388.9Z" fill="#555859"/>
              <path id="Path_26635" data-name="Path 26635" d="M1527.68,513.35H1388.9a23.567,23.567,0,0,1-23.57-23.57V155.08a23.567,23.567,0,0,1,23.57-23.57h138.78a23.567,23.567,0,0,1,23.57,23.57V489.79A23.564,23.564,0,0,1,1527.68,513.35Z" stroke="#282723" stroke-miterlimit="10" stroke-width="0.25" fill="url(#linear-gradient-7)"/>
              <path id="Path_26636" data-name="Path 26636" d="M1506.04,142.18h0a10.689,10.689,0,0,1-10.69,10.69h-74.11a10.689,10.689,0,0,1-10.69-10.69h0a2.823,2.823,0,0,0-2.82-2.82h-18.69a15.411,15.411,0,0,0-15.41,15.41V490.08a15.411,15.411,0,0,0,15.41,15.41h138.51a15.411,15.411,0,0,0,15.41-15.41V154.77a15.411,15.411,0,0,0-15.41-15.41h-18.69A2.817,2.817,0,0,0,1506.04,142.18Z" fill="#f7fcfd"/>
              <g id="Group_10643" data-name="Group 10643">
                <g id="Group_10641" data-name="Group 10641">
                  <rect id="Rectangle_6214" data-name="Rectangle 6214" width="4.98" height="1.5" transform="translate(1360.35 155.08)" fill="#282723"/>
                  <rect id="Rectangle_6215" data-name="Rectangle 6215" width="4.98" height="1.5" transform="translate(1360.35 488.29)" fill="#282723"/>
                </g>
                <g id="Group_10642" data-name="Group 10642">
                  <rect id="Rectangle_6216" data-name="Rectangle 6216" width="4.98" height="1.5" transform="translate(1551.25 155.08)" fill="#282723"/>
                  <rect id="Rectangle_6217" data-name="Rectangle 6217" width="4.98" height="1.5" transform="translate(1551.25 488.29)" fill="#282723"/>
                </g>
              </g>
              <g id="Group_10644" data-name="Group 10644">
                <path id="Path_26637" data-name="Path 26637" d="M1471.24,144.35h-25.9a1.874,1.874,0,0,1-1.87-1.87h0a1.874,1.874,0,0,1,1.87-1.87h25.9a1.874,1.874,0,0,1,1.87,1.87h0A1.874,1.874,0,0,1,1471.24,144.35Z" fill="#282723"/>
                <path id="Path_26638" data-name="Path 26638" d="M1484.26,142.48a1.87,1.87,0,1,1-1.87-1.87A1.874,1.874,0,0,1,1484.26,142.48Z" fill="#282723"/>
              </g>
              <path id="Path_26639" data-name="Path 26639" d="M1361.09,236.33H1360a.491.491,0,0,1-.49-.49v-25.8a.491.491,0,0,1,.49-.49h1.09a1.118,1.118,0,0,1,1.12,1.12v24.54A1.118,1.118,0,0,1,1361.09,236.33Z" fill="url(#linear-gradient-8)"/>
              <path id="Path_26640" data-name="Path 26640" d="M1361.09,266.73H1360a.491.491,0,0,1-.49-.49v-25.8a.491.491,0,0,1,.49-.49h1.09a1.118,1.118,0,0,1,1.12,1.12v24.54A1.118,1.118,0,0,1,1361.09,266.73Z" fill="url(#linear-gradient-9)"/>
              <path id="Path_26641" data-name="Path 26641" d="M1555.15,209.55h1.09a.491.491,0,0,1,.49.49v56.2a.491.491,0,0,1-.49.49h-1.09a1.118,1.118,0,0,1-1.12-1.12V210.67A1.118,1.118,0,0,1,1555.15,209.55Z" stroke="#282723" stroke-miterlimit="10" stroke-width="0.25" fill="url(#linear-gradient-10)"/>
            </g>
            <g id="Group_10664" data-name="Group 10664">
              <g id="Group_10663" data-name="Group 10663">
                <g id="Group_10660" data-name="Group 10660" opacity="0.63">
                  <g id="Group_10659" data-name="Group 10659">
                    <rect id="Rectangle_6218" data-name="Rectangle 6218" width="73.48" height="11.33" transform="translate(1421.55 277.41)" fill="#007840"/>
                    <path id="Path_26642" data-name="Path 26642" d="M1461.82,298.32l-3.53,3.53-3.53-3.53h-3.35l6.88,6.88,6.88-6.88Z" fill="#007840"/>
                    <g id="Group_10646" data-name="Group 10646">
                      <rect id="Rectangle_6219" data-name="Rectangle 6219" width="54.45" height="18.53" transform="translate(1401.46 446.56)" fill="#007840"/>
                      <rect id="Rectangle_6220" data-name="Rectangle 6220" width="54.45" height="18.53" transform="translate(1460.68 446.56)" fill="#007840"/>
                    </g>
                    <g id="Group_10655" data-name="Group 10655">
                      <g id="Group_10648" data-name="Group 10648">
                        <g id="Group_10647" data-name="Group 10647">
                          <line id="Line_146" data-name="Line 146" x2="93.57" transform="translate(1421.55 342.82)" fill="#007840"/>
                          <rect id="Rectangle_6221" data-name="Rectangle 6221" width="93.58" height="1.81" transform="translate(1421.55 341.91)" fill="#007840"/>
                        </g>
                        <path id="Path_26643" data-name="Path 26643" d="M1411.74,342.82a5.14,5.14,0,1,1-5.14-5.14A5.138,5.138,0,0,1,1411.74,342.82Z" fill="#007840"/>
                      </g>
                      <g id="Group_10650" data-name="Group 10650">
                        <g id="Group_10649" data-name="Group 10649">
                          <line id="Line_147" data-name="Line 147" x2="93.57" transform="translate(1421.55 365.07)" fill="#007840"/>
                          <rect id="Rectangle_6222" data-name="Rectangle 6222" width="93.58" height="1.81" transform="translate(1421.55 364.17)" fill="#007840"/>
                        </g>
                        <path id="Path_26644" data-name="Path 26644" d="M1411.74,365.07a5.14,5.14,0,1,1-5.14-5.14A5.138,5.138,0,0,1,1411.74,365.07Z" fill="#007840"/>
                      </g>
                      <g id="Group_10652" data-name="Group 10652">
                        <g id="Group_10651" data-name="Group 10651">
                          <line id="Line_148" data-name="Line 148" x2="93.57" transform="translate(1421.55 387.33)" fill="#007840"/>
                          <rect id="Rectangle_6223" data-name="Rectangle 6223" width="93.58" height="1.81" transform="translate(1421.55 386.42)" fill="#007840"/>
                        </g>
                        <path id="Path_26645" data-name="Path 26645" d="M1411.74,387.33a5.14,5.14,0,1,1-5.14-5.14A5.138,5.138,0,0,1,1411.74,387.33Z" fill="#007840"/>
                      </g>
                      <g id="Group_10654" data-name="Group 10654">
                        <g id="Group_10653" data-name="Group 10653">
                          <line id="Line_149" data-name="Line 149" x2="93.57" transform="translate(1421.55 409.58)" fill="#007840"/>
                          <rect id="Rectangle_6224" data-name="Rectangle 6224" width="93.58" height="1.81" transform="translate(1421.55 408.68)" fill="#007840"/>
                        </g>
                        <path id="Path_26646" data-name="Path 26646" d="M1411.74,409.58a5.14,5.14,0,1,1-5.14-5.14A5.138,5.138,0,0,1,1411.74,409.58Z" fill="#007840"/>
                      </g>
                    </g>
                    <g id="Group_10658" data-name="Group 10658">
                      <g id="Group_10656" data-name="Group 10656">
                        <line id="Line_150" data-name="Line 150" x2="113.67" transform="translate(1403.84 429.36)" fill="#007840"/>
                        <rect id="Rectangle_6225" data-name="Rectangle 6225" width="113.67" height="0.45" transform="translate(1403.85 429.14)" fill="#007840"/>
                      </g>
                      <g id="Group_10657" data-name="Group 10657">
                        <line id="Line_151" data-name="Line 151" x2="113.66" transform="translate(1401.46 323.04)" fill="#007840"/>
                        <rect id="Rectangle_6226" data-name="Rectangle 6226" width="113.67" height="0.45" transform="translate(1401.46 322.81)" fill="#007840"/>
                      </g>
                    </g>
                  </g>
                </g>
                <path id="Path_26647" data-name="Path 26647" d="M1499.42,496.38h-82.27a1.888,1.888,0,0,1-1.89-1.89h0a1.888,1.888,0,0,1,1.89-1.89h82.27a1.888,1.888,0,0,1,1.89,1.89h0A1.882,1.882,0,0,1,1499.42,496.38Z" fill="#d2dbea"/>
                <g id="Group_10662" data-name="Group 10662">
                  <g id="Group_10661" data-name="Group 10661">
                    <path id="Path_26648" data-name="Path 26648" d="M1415.4,197.24a18.081,18.081,0,0,1,14.88,7.8,16.4,16.4,0,1,0-2.67,23.64,18.091,18.091,0,1,1-12.21-31.44Z" fill="#00a551" fill-rule="evenodd"/>
                    <path id="Path_26649" data-name="Path 26649" d="M1417.57,226.78l-12.51-18.88h7.61l4.25,9.97,9.5-20.23h11.62Z" fill="#f27321" fill-rule="evenodd"/>
                  </g>
                  <path id="Path_26650" data-name="Path 26650" d="M1432.68,208.44h5.01v3.4h-5.01v-3.4Zm0,4.96h5.01v13.08h-5.01V213.4Zm22.73,7.79h-10.05a3.242,3.242,0,0,0,.66,1.8,2.367,2.367,0,0,0,1.9.85,2.8,2.8,0,0,0,1.41-.37,3.4,3.4,0,0,0,.88-.82l4.94.45a7.078,7.078,0,0,1-2.73,2.82,9.939,9.939,0,0,1-4.59.86,9.387,9.387,0,0,1-4.09-.73,6.042,6.042,0,0,1-2.47-2.33,7.082,7.082,0,0,1-.98-3.75,6.605,6.605,0,0,1,1.97-4.97,7.5,7.5,0,0,1,5.42-1.9,9.719,9.719,0,0,1,4.43.85,5.8,5.8,0,0,1,2.48,2.47,8.986,8.986,0,0,1,.85,4.2v.57Zm-5.09-2.39a3.346,3.346,0,0,0-.79-2.09,2.263,2.263,0,0,0-1.67-.63,2.3,2.3,0,0,0-1.92.95,3.475,3.475,0,0,0-.58,1.77Zm13.43-10.36v4.96h2.75v3.68h-2.75v4.63a2.433,2.433,0,0,0,.16,1.1.915.915,0,0,0,.87.42,5.572,5.572,0,0,0,1.55-.32l.37,3.46a16.34,16.34,0,0,1-3.47.41,6.036,6.036,0,0,1-2.76-.48,2.974,2.974,0,0,1-1.31-1.46,8.666,8.666,0,0,1-.42-3.17v-4.6h-1.84v-3.68h1.84V211l5.01-2.56Zm5.14,0h5.01v6.64a6.677,6.677,0,0,1,2.03-1.52,5.647,5.647,0,0,1,2.38-.46,4.225,4.225,0,0,1,3.21,1.24,5.408,5.408,0,0,1,1.17,3.82v8.32h-5.04v-7.19a2.634,2.634,0,0,0-.45-1.74,1.614,1.614,0,0,0-1.27-.51,1.819,1.819,0,0,0-1.47.69,4.092,4.092,0,0,0-.56,2.48v6.28h-5.01V208.44Zm21.39,9.2-4.79-.5a5.378,5.378,0,0,1,.78-1.98,4.272,4.272,0,0,1,1.47-1.25,6.022,6.022,0,0,1,1.89-.59,15.166,15.166,0,0,1,2.61-.21,20.494,20.494,0,0,1,3.61.25,4.643,4.643,0,0,1,2.27,1.05,3.685,3.685,0,0,1,1.01,1.57,5.583,5.583,0,0,1,.37,1.94v5.78a6.814,6.814,0,0,0,.12,1.45,6.952,6.952,0,0,0,.51,1.34h-4.69a5.421,5.421,0,0,1-.37-.76,7.9,7.9,0,0,1-.17-.82,6.52,6.52,0,0,1-1.96,1.35,8.2,8.2,0,0,1-3.09.54,5.132,5.132,0,0,1-3.55-1.09,3.446,3.446,0,0,1-1.21-2.68,3.54,3.54,0,0,1,.87-2.46,5.9,5.9,0,0,1,3.23-1.43c1.88-.38,3.1-.64,3.65-.8a15.422,15.422,0,0,0,1.77-.6,1.758,1.758,0,0,0-.38-1.29,1.884,1.884,0,0,0-1.34-.37,3.474,3.474,0,0,0-1.84.39,2.274,2.274,0,0,0-.77,1.17Zm4.34,2.62q-1.035.375-2.16.66a4.784,4.784,0,0,0-1.93.81,1.258,1.258,0,0,0-.42.93,1.282,1.282,0,0,0,.41.98,1.755,1.755,0,0,0,1.21.38,3.134,3.134,0,0,0,1.56-.41,2.4,2.4,0,0,0,1.02-1,3.4,3.4,0,0,0,.3-1.54v-.81Zm7,2.59,4.96-.45a2.436,2.436,0,0,0,.86,1.26,2.6,2.6,0,0,0,1.48.38,2.475,2.475,0,0,0,1.56-.43.951.951,0,0,0,.43-.8.923.923,0,0,0-.57-.84,10.552,10.552,0,0,0-2.15-.52,21.973,21.973,0,0,1-3.62-.84,3.888,3.888,0,0,1-1.71-1.31,3.632,3.632,0,0,1,.06-4.34,4.438,4.438,0,0,1,2.07-1.4,10.9,10.9,0,0,1,3.53-.46,12.055,12.055,0,0,1,3.44.36,4.579,4.579,0,0,1,1.86,1.11,5.6,5.6,0,0,1,1.23,2.04l-4.74.45a1.635,1.635,0,0,0-.61-.92,2.517,2.517,0,0,0-1.42-.39,2.023,2.023,0,0,0-1.23.3.9.9,0,0,0-.39.73.786.786,0,0,0,.49.73,7.865,7.865,0,0,0,2.13.45,14.6,14.6,0,0,1,3.72.79,4.073,4.073,0,0,1,1.86,1.44,3.569,3.569,0,0,1,.65,2.06,4.054,4.054,0,0,1-.68,2.2,4.666,4.666,0,0,1-2.15,1.71,10.361,10.361,0,0,1-4,.63q-3.585,0-5.1-1.02A4.636,4.636,0,0,1,1501.62,222.85Z" fill="#f27321" fill-rule="evenodd"/>
                  <path id="Path_26651" data-name="Path 26651" d="M1437.26,235.23a1.869,1.869,0,0,1-.29,1.02,1.834,1.834,0,0,1-.83.69,3.063,3.063,0,0,1-1.25.24h-.51v1.8h-1.69v-5.59h2.29a2.714,2.714,0,0,1,1.73.45,1.694,1.694,0,0,1,.55,1.39Zm-1.79.06a.67.67,0,0,0-.2-.52.839.839,0,0,0-.58-.18h-.32v1.38h.38c.48,0,.72-.23.72-.68Zm4.06-1.38a.732.732,0,0,1-.26.57,1.1,1.1,0,0,1-1.33-.01.726.726,0,0,1-.26-.56.689.689,0,0,1,.25-.56,1.174,1.174,0,0,1,1.34,0,.669.669,0,0,1,.26.56Zm-1.76,5.07v-4h1.66v4Zm6.91-2.07a2.087,2.087,0,0,1-.61,1.59,2.835,2.835,0,0,1-3.41.02,2.032,2.032,0,0,1-.61-1.55,2.069,2.069,0,0,1,.28-1.1,1.894,1.894,0,0,1,.81-.72,2.756,2.756,0,0,1,1.21-.25,2.786,2.786,0,0,1,1.23.26,1.89,1.89,0,0,1,.8.73,1.7,1.7,0,0,1,.3,1.02Zm-1.69.01c0-.54-.21-.82-.62-.82s-.62.29-.62.86q0,.9.63.9c.41,0,.61-.32.61-.94Zm4.9,2.06V236.8a1,1,0,0,0-.11-.53.443.443,0,0,0-.69.01.728.728,0,0,0-.12.43v2.28h-1.66v-4h1.66v.62h.02a1.434,1.434,0,0,1,1.26-.72c.87,0,1.31.55,1.31,1.65v2.44h-1.67Zm3.84-1.53a.55.55,0,0,0,.3.4,1.3,1.3,0,0,0,.67.15,2.7,2.7,0,0,0,1.1-.22v1.05a3.969,3.969,0,0,1-1.47.24,2.351,2.351,0,0,1-1.63-.53,1.9,1.9,0,0,1-.58-1.47,2.385,2.385,0,0,1,.26-1.13,1.82,1.82,0,0,1,.76-.77,2.4,2.4,0,0,1,2.17-.04,1.627,1.627,0,0,1,.67.68,2.192,2.192,0,0,1,.23,1.02v.62h-2.48Zm1-.87c0-.46-.17-.69-.5-.69a.421.421,0,0,0-.35.19.928.928,0,0,0-.16.5Zm3.48.87a.55.55,0,0,0,.3.4,1.3,1.3,0,0,0,.67.15,2.7,2.7,0,0,0,1.1-.22v1.05a3.969,3.969,0,0,1-1.47.24,2.351,2.351,0,0,1-1.63-.53,1.9,1.9,0,0,1-.58-1.47,2.385,2.385,0,0,1,.26-1.13,1.82,1.82,0,0,1,.76-.77,2.4,2.4,0,0,1,2.17-.04,1.627,1.627,0,0,1,.67.68,2.192,2.192,0,0,1,.23,1.02v.62h-2.48Zm1-.87c0-.46-.17-.69-.5-.69a.421.421,0,0,0-.35.19.928.928,0,0,0-.16.5Zm5.05-.18a1.868,1.868,0,0,0-.25-.08,1.572,1.572,0,0,0-.27-.03c-.55,0-.82.32-.82.95v1.73h-1.66v-4h1.66v.7h.02a1.233,1.233,0,0,1,.43-.58,1.144,1.144,0,0,1,.66-.2.6.6,0,0,1,.24.05v1.46Zm7.14.51a2.087,2.087,0,0,1-.61,1.59,2.835,2.835,0,0,1-3.41.02,2.032,2.032,0,0,1-.61-1.55,2.069,2.069,0,0,1,.28-1.1,1.894,1.894,0,0,1,.81-.72,2.756,2.756,0,0,1,1.21-.25,2.786,2.786,0,0,1,1.23.26,1.89,1.89,0,0,1,.8.73,1.7,1.7,0,0,1,.3,1.02Zm-1.68.01c0-.54-.21-.82-.62-.82s-.62.29-.62.86q0,.9.63.9c.4,0,.61-.32.61-.94Zm5.38-2.65a1.445,1.445,0,0,0-.48-.09.564.564,0,0,0-.41.14.517.517,0,0,0-.13.38v.27h.93v1.15h-.93v2.84h-1.66v-2.84h-.67v-1.15h.67v-.37a1.625,1.625,0,0,1,.23-.86,1.5,1.5,0,0,1,.66-.58,2.4,2.4,0,0,1,1.05-.21,2.652,2.652,0,0,1,.75.09v1.23Zm6.63,3.01a1.6,1.6,0,0,1-.3.97,1.787,1.787,0,0,1-.84.62,3.8,3.8,0,0,1-1.29.2,4.233,4.233,0,0,1-1.61-.3v-1.53a3.232,3.232,0,0,0,.78.42,2.222,2.222,0,0,0,.79.16.761.761,0,0,0,.43-.1.327.327,0,0,0,.15-.29.407.407,0,0,0-.08-.24.753.753,0,0,0-.23-.19,4.638,4.638,0,0,0-.57-.25,1.777,1.777,0,0,1-1.35-1.68,1.588,1.588,0,0,1,.62-1.3,2.613,2.613,0,0,1,1.65-.49c.19,0,.37.01.54.02a3.056,3.056,0,0,1,.45.06c.13.02.32.07.56.13v1.42a2.831,2.831,0,0,0-1.39-.38.751.751,0,0,0-.45.11.336.336,0,0,0-.17.29.37.37,0,0,0,.14.29,2.216,2.216,0,0,0,.58.3,3.136,3.136,0,0,1,1.23.77,1.474,1.474,0,0,1,.36.99Zm5.71,1.7v-2.3a.72.72,0,0,0-.1-.43.4.4,0,0,0-.34-.14.446.446,0,0,0-.36.17.78.78,0,0,0-.13.48v2.22h-1.66v-2.26c0-.41-.14-.61-.42-.61a.427.427,0,0,0-.38.18.837.837,0,0,0-.13.51v2.19h-1.66v-4h1.66v.63h.02a1.146,1.146,0,0,1,.3-.34,1.67,1.67,0,0,1,.46-.28,1.551,1.551,0,0,1,1.28.06,1.314,1.314,0,0,1,.48.53,1.472,1.472,0,0,1,.56-.52,1.69,1.69,0,0,1,.78-.18,1.169,1.169,0,0,1,.96.41,1.843,1.843,0,0,1,.34,1.18v2.5Zm4.63,0v-.61h-.02a1.308,1.308,0,0,1-1.22.7,1.161,1.161,0,0,1-.89-.34,1.252,1.252,0,0,1-.32-.9c0-.78.48-1.24,1.45-1.36l.99-.13a.372.372,0,0,0-.18-.32.818.818,0,0,0-.47-.13,3.113,3.113,0,0,0-1.41.38v-1.08a4.191,4.191,0,0,1,.81-.23,4.634,4.634,0,0,1,.84-.09,2.11,2.11,0,0,1,1.48.44,1.911,1.911,0,0,1,.46,1.45v2.2h-1.52Zm-.98-1.36a.362.362,0,0,0,.1.27.4.4,0,0,0,.29.11.531.531,0,0,0,.42-.2.751.751,0,0,0,.16-.5v-.15l-.56.08c-.27.04-.41.17-.41.39Zm6.25-1.22a1.868,1.868,0,0,0-.25-.08,1.572,1.572,0,0,0-.27-.03c-.55,0-.82.32-.82.95v1.73h-1.66v-4H1494v.7h.02a1.233,1.233,0,0,1,.43-.58,1.144,1.144,0,0,1,.66-.2.6.6,0,0,1,.24.05v1.46Zm3.3,2.52a1.443,1.443,0,0,1-.37.1,3.613,3.613,0,0,1-.62.05,1.538,1.538,0,0,1-1.09-.38,1.453,1.453,0,0,1-.39-1.09v-1.47h-.63v-1.15h.63v-.79l1.64-.45v1.24h.83v1.15h-.83v1.2c0,.35.14.53.42.53a1.049,1.049,0,0,0,.41-.09v1.15Zm2.89.06v-5.59h1.69v4.28h1.93v1.32h-3.62Zm5.93-5.07a.732.732,0,0,1-.26.57,1.1,1.1,0,0,1-1.33-.01.726.726,0,0,1-.26-.56.689.689,0,0,1,.25-.56,1.174,1.174,0,0,1,1.34,0,.7.7,0,0,1,.26.56Zm-1.76,5.07v-4h1.66v4Zm5.54-4.71a1.445,1.445,0,0,0-.48-.09.564.564,0,0,0-.41.14.517.517,0,0,0-.13.38v.27h.93v1.15h-.93v2.84h-1.66v-2.84h-.67v-1.15h.67v-.37a1.625,1.625,0,0,1,.23-.86,1.5,1.5,0,0,1,.66-.58,2.4,2.4,0,0,1,1.05-.21,2.652,2.652,0,0,1,.75.09v1.23Zm1.8,3.18a.55.55,0,0,0,.3.4,1.3,1.3,0,0,0,.67.15,2.7,2.7,0,0,0,1.1-.22v1.05a3.969,3.969,0,0,1-1.47.24,2.351,2.351,0,0,1-1.63-.53,1.9,1.9,0,0,1-.58-1.47,2.385,2.385,0,0,1,.26-1.13,1.82,1.82,0,0,1,.76-.77,2.4,2.4,0,0,1,2.17-.04,1.627,1.627,0,0,1,.67.68,2.192,2.192,0,0,1,.23,1.02v.62h-2.48Zm1-.87c0-.46-.17-.69-.5-.69a.421.421,0,0,0-.35.19.928.928,0,0,0-.16.5Z" fill="#00a551" fill-rule="evenodd"/>
                </g>
              </g>
            </g>
          </g>
          <g id="Group_10674" data-name="Group 10674">
            <g id="Group_10668" data-name="Group 10668">
              <g id="Group_10666" data-name="Group 10666">
                <path id="Path_26652" data-name="Path 26652" d="M1201.11,501.78c0,2.13-6.23,6.88-4.32,14.88a2.225,2.225,0,0,0,2.18,1.67h27.99a2.156,2.156,0,0,0,1.83-3.41,8.506,8.506,0,0,0-3.86-2.63c-5.66-2.17-9.84-10.51-9.84-10.51h-13.98Z" fill="#282723"/>
                <path id="Path_26653" data-name="Path 26653" d="M1198,396.3c5.18,13.47,18.91,45.95,18.91,52.61,0,18.99-1.81,52.87-1.81,52.87s-2.66,5.25-13.99,0c0,0-.71-9.42-1.73-25.07s2.76-20.03,2.07-24.75-31.25-33.62-31.25-33.62l16.62-29.21Z" fill="url(#linear-gradient-11)"/>
                <path id="Path_26654" data-name="Path 26654" d="M1207.8,450.93c-1.58-6.27-15.47-24.37-23.13-36.08l-9.68-4.9-4.78,8.4s30.56,28.9,31.25,33.62-3.09,9.09-2.07,24.75,1.73,25.07,1.73,25.07c.55.25,1.06.46,1.57.67C1200.6,461.23,1209.24,456.65,1207.8,450.93Z" fill="#19425e"/>
              </g>
              <g id="Group_10667" data-name="Group 10667">
                <path id="Path_26655" data-name="Path 26655" d="M1100.65,498.27a20.261,20.261,0,0,0-3.62,11.16,2.927,2.927,0,0,0,.91,2.13l4.5,4.34a8.756,8.756,0,0,0,6.08,2.43h13.87a2.331,2.331,0,0,0,2.23-3.16,11.71,11.71,0,0,0-3.18-4.45c-4.12-3.71-3.49-12.45-3.49-12.45h-17.3Z" fill="#282723"/>
                <path id="Path_26656" data-name="Path 26656" d="M1153.35,376.21c-21.13,34.2-10.95,49.02-24.7,67.29s-13.6,7.84-28.01,54.78c0,0,3.06,4.41,17.31,0,0,0,7.13-25.15,19.35-34.53s29.53-38.52,47.35-48.89c0,0,6.11-2.47,11.2-22.22Z" fill="url(#linear-gradient-12)"/>
              </g>
            </g>
            <g id="Group_10669" data-name="Group 10669">
              <path id="Path_26657" data-name="Path 26657" d="M1298.21,266.26c-2.08,1.15-5.13,5.08-6.33,6.7a3.775,3.775,0,0,0-.68,1.53l-2.27,11.14c-3.05,2.96-21.09,9.12-27.73,10.54-5.11,1.09-6.07,2.87-8.84,4.62l-.62,15.19c.46-.25.89-.49,1.37-.75,18.77-10.12,31.34-21.26,38.57-25.13s3.46-13.22,3.76-14.62c.24-1.11,2.53-6.38,3.49-8.57A.513.513,0,0,0,1298.21,266.26Z" fill="url(#linear-gradient-13)"/>
              <path id="Path_26658" data-name="Path 26658" d="M1249.25,302.32c-5.69,2.15-27.37,6.23-32.65,11.52-4.32,4.33-2.82,15.26,6.44,15.38,9.02.12,11.23-3.68,28.7-13.23l.62-15.19A18.424,18.424,0,0,1,1249.25,302.32Z" fill="url(#linear-gradient-14)"/>
            </g>
            <g id="Group_10671" data-name="Group 10671">
              <path id="Path_26659" data-name="Path 26659" d="M1236.61,310.26l-9.51,8.39s-14.41-11.58-13.49-11.44,13.55-12.45,13.55-12.45Z" fill="url(#linear-gradient-15)"/>
              <path id="Path_26660" data-name="Path 26660" d="M1227.45,295.21h-.73c-2.23,2.22-12.28,12.12-13.1,11.99-.53-.08,4.04,3.73,8,6.98,5.59-3.34,1.72-9.95,3.48-8.95,1.88,1.08,2.21.33,3.26,1.46,1,1.08.1,6.9,2.81,8.37l5.46-4.81Z" fill="#955043"/>
              <g id="Group_10670" data-name="Group 10670">
                <path id="Path_26661" data-name="Path 26661" d="M1233.95,291.38a5.958,5.958,0,0,0,2.61-3.78,4.024,4.024,0,0,0-1.74-4.07,3.283,3.283,0,0,0-4.27.76c-.17-1.09-1.49-1.64-2.63-1.73a6.37,6.37,0,0,0-3.26.84,15.608,15.608,0,0,1-3.11,1.36,17.234,17.234,0,0,1-2.78.28,5.54,5.54,0,0,0-2.66.75,2.259,2.259,0,0,0-1.07,2.33c.27,1.05,1.45,1.63,2.01,2.56a6.476,6.476,0,0,0-4.89,2.2,5.873,5.873,0,0,0-1.41,4.95,17.188,17.188,0,0,0,2.1,4.55c.78,1.49,1.36,3.24.77,4.81-.3-.39-1.32.04-1.36.53a1.064,1.064,0,0,0,.94,1,3.076,3.076,0,0,0,1.49-.23,3.639,3.639,0,0,1,1.48-.28c1.06.11,1.74,1.12,2.66,1.64a3.117,3.117,0,0,0,2.55.21,3,3,0,0,0,1.79-1.78,8.74,8.74,0,0,0,.17-2.85,2.818,2.818,0,0,1,1.12-2.51,2.858,2.858,0,0,1,2.19-.09c.72.22,1.4.56,2.14.72a5.1,5.1,0,0,0,4.81-1.86,7.488,7.488,0,0,0,1.51-4.97A19.86,19.86,0,0,0,1233.95,291.38Z" fill="#282723"/>
                <path id="Path_26662" data-name="Path 26662" d="M1228.82,300.96a2.527,2.527,0,0,0-4.84.21,2.875,2.875,0,0,0,.37,2.06,5.776,5.776,0,0,0,1.44,1.6,3.1,3.1,0,0,0,1.52.74,1.3,1.3,0,0,0,1.39-.75,13.859,13.859,0,0,0,2.67,5c1.82,1.94,6.96,3.23,8.53,2.09s1.07-13.16-5.65-22.75c0,0-2.45-.34-3.57,1.48s3.22,2.51,2.74,4.51c-.44,1.85-3.06,1.43-2.2,5.64a1.175,1.175,0,0,1-.94,1.39l-.89.18Z" fill="url(#linear-gradient-16)"/>
              </g>
            </g>
            <g id="Group_10673" data-name="Group 10673">
              <path id="Path_26663" data-name="Path 26663" d="M1225.09,353.41c12.24-15.2,10.3-25.99,2.01-34.77s-12.24-14.38-23.39-6.68-35.34,38.81-50.36,64.24c0,0,10.08,20.25,50.36,20.25,0,0,.82-16.05,5.4-23.21S1220.55,359.05,1225.09,353.41Z" fill="url(#linear-gradient-17)"/>
              <path id="Path_26664" data-name="Path 26664" d="M1220,311.45c-1.57,3.43-2.49,12.3-4.71,14.52-2.78,2.78,1.58,14.97-9.65,28.54-10.49,12.68-11.79,15.04-17.31,40.82a101.027,101.027,0,0,0,15.37,1.12s.82-16.05,5.4-23.21,11.44-14.19,15.98-19.83c12.24-15.2,10.3-25.99,2.01-34.77A93.8,93.8,0,0,0,1220,311.45Z" fill="#b52b09"/>
              <g id="Group_10672" data-name="Group 10672">
                <path id="Path_26665" data-name="Path 26665" d="M1214.23,318.63c-11.44.71-15.37,18.55-3.13,23.55,10.17,4.16,27.18,6.46,42.94,5.48l1.92-14.44C1243.32,333.57,1225.62,317.92,1214.23,318.63Z" fill="url(#linear-gradient-18)"/>
                <path id="Path_26666" data-name="Path 26666" d="M1300.51,320.51c-2.87.1-7.34.73-7.34.73a1.946,1.946,0,0,0-1.71,1.55l-1.93,10.14c-10.22,3.23-19.99-.24-33.41.29-.05,0-.11-.01-.16-.01l-1.92,14.44c3.21-.2,6.38-.53,9.42-1.01,14.29-2.29,25.5-5.89,30.97-8.29a3.984,3.984,0,0,0,2.29-4.6l-.71-2.86a7.621,7.621,0,0,1,4.64-8.88l1.45-.59C1302.09,321.42,1301.98,320.46,1300.51,320.51Z" fill="url(#linear-gradient-19)"/>
              </g>
            </g>
          </g>
          <g id="Group_10675" data-name="Group 10675">
            <path id="Path_26667" data-name="Path 26667" d="M1370.79,535.58h-54.4a16.482,16.482,0,0,1-16.48-16.48V464.7a16.482,16.482,0,0,1,16.48-16.48h54.4a16.482,16.482,0,0,1,16.48,16.48v54.4A16.482,16.482,0,0,1,1370.79,535.58Z" fill="url(#linear-gradient-20)"/>
            <path id="Path_26668" data-name="Path 26668" d="M1370.79,448.21h-54.4a16.482,16.482,0,0,0-16.48,16.48v1.81a16.482,16.482,0,0,1,16.48-16.48h54.4a16.482,16.482,0,0,1,16.48,16.48v-1.81A16.482,16.482,0,0,0,1370.79,448.21Z" fill="#34adc7"/>
          </g>
          <g id="Group_10679" data-name="Group 10679">
            <g id="Group_10676" data-name="Group 10676">
              <path id="Path_26669" data-name="Path 26669" d="M1518.46,464.75c-4.88,24.35-1.78,26.24-3.46,42.47-1.2,11.67-5.86,24.17-5.86,32.91h-6.45s-2.34-20.38-2.93-32.62,2.05-17.47,0-25.04-.09-32.87-.09-32.87Z" fill="url(#linear-gradient-21)"/>
              <path id="Path_26670" data-name="Path 26670" d="M1499.68,449.59s-.7,9-.83,17.87l18.49,3.23c.32-1.83.68-3.79,1.11-5.94Z" fill="#955043"/>
              <path id="Path_26671" data-name="Path 26671" d="M1502.7,540.12c.46,8.96-4.1,9.48-3.19,15.93a.623.623,0,0,0,.61.53h16.23a.612.612,0,0,0,.59-.78c-.46-1.57-1.72-5.03-3.99-5.86-2.95-1.08-3.81-9.82-3.81-9.82Z" fill="#282723"/>
              <path id="Path_26672" data-name="Path 26672" d="M1474.75,449.59c2.29,27.79.29,41.4,1.96,57.62,1.2,11.67,5.86,24.17,5.86,32.91h6.45s2.34-20.38,2.93-32.62-2.05-17.47,0-25.04,2.7-32.87,2.7-32.87Z" fill="url(#linear-gradient-22)"/>
              <path id="Path_26673" data-name="Path 26673" d="M1474.75,449.59c.42,5.09.69,9.69.87,13.93l18.23,3.13c.58-8.6.8-17.06.8-17.06Z" fill="#955043"/>
              <path id="Path_26674" data-name="Path 26674" d="M1489.01,540.12c-.46,8.96,4.1,9.48,3.19,15.93a.623.623,0,0,1-.61.53h-16.23a.612.612,0,0,1-.59-.78c.46-1.57,1.72-5.03,3.99-5.86,2.95-1.08,3.81-9.82,3.81-9.82Z" fill="#282723"/>
            </g>
            <g id="Group_10677" data-name="Group 10677">
              <path id="Path_26675" data-name="Path 26675" d="M1479.83,266.91a3.224,3.224,0,0,1,.78-2.05c1.5-1.74,2.86-2.95,3.46-3.69.79-.97,1.61-11.74,1.16-12.38s-3.3-1.09-3.93-.1-5.11,6.5-5.61,7.95a46.423,46.423,0,0,0-2.05,8.58c-.18,1.28-.65,3.69-1.19,6.58l7.24,2.51C1479.76,271.03,1479.81,268.35,1479.83,266.91Z" fill="url(#linear-gradient-23)"/>
              <path id="Path_26676" data-name="Path 26676" d="M1491.02,326.39a143.813,143.813,0,0,1-11.43-21.42c-1.92-4.49-.09-21.28.1-30.66l-7.24-2.51c-1.07,5.7-7.73,29.55-5.25,35.77,4.02,10.1,5.67,14.2,7.51,21.58,3.14,12.59,6.02,13.03,10.23,13.13C1492.36,342.46,1496.34,334.84,1491.02,326.39Z" fill="url(#linear-gradient-24)"/>
            </g>
            <path id="Path_26677" data-name="Path 26677" d="M1492.89,303.58c-1.04,5.96-.19,11.51,5.2,13.61l2.42-12.11Z" fill="url(#linear-gradient-25)"/>
            <path id="Path_26678" data-name="Path 26678" d="M1495.72,305.02c-.04,1.83-1.11,3.3-2.4,3.27s-2.31-1.53-2.27-3.36,1.11-3.3,2.4-3.27S1495.76,303.18,1495.72,305.02Z" fill="url(#linear-gradient-26)"/>
            <path id="Path_26679" data-name="Path 26679" d="M1496.83,309.48v15.24s4.51,5.06,13.12,2.84V308.78Z" fill="url(#linear-gradient-27)"/>
            <path id="Path_26680" data-name="Path 26680" d="M1496.83,317.43c1.97,1.97,3.27,4.63,2.39,9.07a14.223,14.223,0,0,0,10.73,1.06V308.78l-13.12.7Z" fill="#955043"/>
            <path id="Path_26681" data-name="Path 26681" d="M1491.51,325.01c10-4.18,24.02,2.4,33.23,7.91,0,0,.89,16.99-6.97,28.25s-1.62,21.13,1.62,30.54,10.17,23.65-.92,73.03l-51.07-7.12s-.99-32.38,7.71-55.58,9.85-34.68,8.47-42.72-4.36-17.08-6.72-23.76C1475.43,331.57,1487.21,326.81,1491.51,325.01Z" fill="url(#linear-gradient-28)"/>
            <g id="Group_10678" data-name="Group 10678">
              <path id="Path_26682" data-name="Path 26682" d="M1524.73,332.92s-4.36,13.06-5.42,21.63-1.05,26.34-.49,31.75,7.92,38.12,7.92,38.12h7.29s-4.44-34.65-4.44-40.64S1536.3,338.82,1524.73,332.92Z" fill="url(#linear-gradient-29)"/>
              <path id="Path_26683" data-name="Path 26683" d="M1526.75,424.43c-.15,3.86,1.35,5.93,1.81,7.31s-1.28,4.36-2.32,4.48-.39,3.79,1.2,3.79,7.36-2.87,8.29-4.25-1.69-11.33-1.69-11.33h-7.29Z" fill="url(#linear-gradient-30)"/>
            </g>
            <path id="Path_26684" data-name="Path 26684" d="M1493.58,296.54a8.7,8.7,0,0,0-1.13,3.77,13.558,13.558,0,0,0,.7,4.17l1.83,6.63a9,9,0,0,0,1.41,3.3c1.23,1.55,3.3,2.13,5.22,2.61a8.864,8.864,0,0,0,4.26.36c1.7-.42,2.97-1.78,4.14-3.08,1.84-2.04,3.73-4.18,4.49-6.82.74-2.55.34-5.26-.07-7.88a11.687,11.687,0,0,0-1.67-5.2,8.771,8.771,0,0,0-5-3.04,16.719,16.719,0,0,0-4.9-1.01A12.1,12.1,0,0,0,1493.58,296.54Z" fill="#282723"/>
            <path id="Path_26685" data-name="Path 26685" d="M1524.73,332.92c-6.94-4.15-16.61-8.91-25.24-9.21h0c-.27,5.32,10.58,8.37,4.8,15.53-6.31,7.81-6.34,10.16-5.78,12.7,1.36,6.21,7.91,9.55,14,5.5,7.66-5.09,10.71-9.4,18.75-8.55C1530.66,341.36,1528.87,335.03,1524.73,332.92Z" fill="#fad553"/>
            <path id="Path_26686" data-name="Path 26686" d="M1507.66,307.17c.24,2.66-2.56,4.42-4.25,6.49a9.062,9.062,0,0,0-1.3,9.04c1.38,3.29,4.73,5.75,5.1,9.3.28,2.65-1.22,5.16-2.91,7.23s-3.67,4.01-4.63,6.49a8.956,8.956,0,0,0,3.21,10.48,8.12,8.12,0,0,0,10.64-1.8c1.75-2.43,1.88-5.69,3.4-8.27a8.906,8.906,0,0,1,8.25-4.23c5.32.47,9.32,5.63,14.64,6.1,4.44.4,8.73-2.91,10.06-7.14s-.03-9.01-2.88-12.42a21.118,21.118,0,0,0-11.37-6.56,35.4,35.4,0,0,1-6.39-1.71c-2.01-.91-3.83-2.63-4.09-4.82-.34-2.85,1.98-5.97.44-8.41s-5.24-1.92-7.62-2.85c-3.39-1.33-4.89-4.5-7.59-6.65-2.2-1.74-4.9-1.44-5.84,1.65C1503.52,302.51,1507.39,304.12,1507.66,307.17Z" fill="#282723"/>
          </g>
        </g>
        <g id="Group_10682" data-name="Group 10682">
          <g id="Group_10681" data-name="Group 10681" clip-path="url(#clip-path-2)">
            <path id="Path_26687" data-name="Path 26687" d="M-262.26-142.35S55.47-191.77,90.73,5.92c38.05,213.34,270.92,204.93-40.91,514.54-186.27,184.95,236.21,252.03-241.38-26.73L-473.43,330.76l-45.91-23.08Z" fill="#007840" opacity="0.19"/>
          </g>
        </g>
        <text id="ng_dng" data-name="ng dng" transform="translate(1305.609 498.663)" fill="#fff" font-size="17" font-family="SegoeUI, Segoe UI"><tspan x="0" y="0">ng dng</tspan></text>
      </g>
      <g id="Layer_9" transform="translate(0 5.999)">
        <g id="Group_10689" data-name="Group 10689" transform="translate(0 -4.189)">
          <text id="Pht_trin_ng_dng_trn_nn_tng_in_thoi" data-name="Pht trin ng dng trn nn tng in thoi" transform="translate(322 154.957)" fill="#00a859" font-size="40" font-family="Roboto-Bold, Roboto" font-weight="700"><tspan x="0" y="0">Pht trin ng dng trn nn tng in thoi</tspan></text>
          <text id="m_bo_tin_._Giao_din_d_s_dng_tnh_bo_mt_chuyn_bit._Pht_trin_cho_iOS_v_Android._Nhn_vin_nhiu_nm_kinh_nghim_mi_trng_lm_vic_chuyn_nghip._Dch_v_h_tr_khch_hng_tn_tm." data-name="m bo tin .
Giao din d s dng, tnh bo mt chuyn bit. 
Pht trin cho iOS v Android.
Nhn vin nhiu nm kinh nghim, mi trng lm vic chuyn nghip.
Dch v h tr khch hng tn tm." transform="translate(353.059 205.554)" font-size="22" font-family="Roboto-Regular, Roboto"><tspan x="0" y="0">m bo tin .</tspan><tspan x="0" y="40">Giao din d s dng, tnh bo mt chuyn bit. </tspan><tspan x="0" y="80">Pht trin cho iOS v Android.</tspan><tspan x="0" y="120">Nhn vin nhiu nm kinh nghim, mi trng lm vic chuyn nghip.</tspan><tspan x="0" y="160">Dch v h tr khch hng tn tm.</tspan></text>
          <g id="Group_10688" data-name="Group 10688">
            <g id="Group_10683" data-name="Group 10683">
              <path id="Path_26688" data-name="Path 26688" d="M334.08,186.51a12.08,12.08,0,1,0,12.08,12.08A12.095,12.095,0,0,0,334.08,186.51Z" fill="#f99b3e"/>
              <path id="Path_26689" data-name="Path 26689" d="M340.21,196.03l-6.55,6.55a.993.993,0,0,1-.71.3.976.976,0,0,1-.71-.3l-3.27-3.27a1,1,0,1,1,1.42-1.42l2.56,2.56,5.83-5.83a1.008,1.008,0,0,1,1.42,0A.987.987,0,0,1,340.21,196.03Z" fill="#fafafa"/>
            </g>
            <g id="Group_10684" data-name="Group 10684">
              <path id="Path_26690" data-name="Path 26690" d="M334.08,225.68a12.08,12.08,0,1,0,12.08,12.08A12.095,12.095,0,0,0,334.08,225.68Z" fill="#f99b3e"/>
              <path id="Path_26691" data-name="Path 26691" d="M340.21,235.2l-6.55,6.55a.993.993,0,0,1-.71.3.976.976,0,0,1-.71-.3l-3.27-3.27a1,1,0,1,1,1.42-1.42l2.56,2.56,5.83-5.83a1.008,1.008,0,0,1,1.42,0A.987.987,0,0,1,340.21,235.2Z" fill="#fafafa"/>
            </g>
            <g id="Group_10685" data-name="Group 10685">
              <path id="Path_26692" data-name="Path 26692" d="M334.08,265.92A12.08,12.08,0,1,0,346.16,278,12.095,12.095,0,0,0,334.08,265.92Z" fill="#f99b3e"/>
              <path id="Path_26693" data-name="Path 26693" d="M340.21,275.44l-6.55,6.55a.992.992,0,0,1-.71.3.976.976,0,0,1-.71-.3l-3.27-3.27a1,1,0,1,1,1.42-1.42l2.56,2.56,5.83-5.83a1.008,1.008,0,0,1,1.42,0A.987.987,0,0,1,340.21,275.44Z" fill="#fafafa"/>
            </g>
            <g id="Group_10686" data-name="Group 10686">
              <path id="Path_26694" data-name="Path 26694" d="M334.08,305.09a12.08,12.08,0,1,0,12.08,12.08A12.095,12.095,0,0,0,334.08,305.09Z" fill="#f99b3e"/>
              <path id="Path_26695" data-name="Path 26695" d="M340.21,314.61l-6.55,6.55a.992.992,0,0,1-.71.3.976.976,0,0,1-.71-.3l-3.27-3.27a1,1,0,1,1,1.42-1.42l2.56,2.56,5.83-5.83a1.008,1.008,0,0,1,1.42,0A.987.987,0,0,1,340.21,314.61Z" fill="#fafafa"/>
            </g>
            <g id="Group_10687" data-name="Group 10687">
              <path id="Path_26696" data-name="Path 26696" d="M334.08,344.63a12.08,12.08,0,1,0,12.08,12.08A12.095,12.095,0,0,0,334.08,344.63Z" fill="#f99b3e"/>
              <path id="Path_26697" data-name="Path 26697" d="M340.21,354.15l-6.55,6.55a.992.992,0,0,1-.71.3.976.976,0,0,1-.71-.3l-3.27-3.27a1,1,0,1,1,1.42-1.42l2.56,2.56,5.83-5.83a1.008,1.008,0,0,1,1.42,0A.987.987,0,0,1,340.21,354.15Z" fill="#fafafa"/>
            </g>
          </g>
        </g>
      </g>
    </g>
  </g>
</svg>
