<svg xmlns="http://www.w3.org/2000/svg" width="20.023" height="24" viewBox="0 0 20.023 24">
  <g id="Group_2073" data-name="Group 2073" transform="translate(11274.829 19902)">
    <path id="Path_17" data-name="Path 17" d="M134.812,11.561A5.594,5.594,0,0,0,138.9,9.867a5.594,5.594,0,0,0,1.693-4.087A5.594,5.594,0,0,0,138.9,1.693a5.779,5.779,0,0,0-8.174,0,5.593,5.593,0,0,0-1.694,4.087,5.594,5.594,0,0,0,1.694,4.087A5.6,5.6,0,0,0,134.812,11.561Zm-3.092-8.873a4.373,4.373,0,0,1,6.185,0,4.179,4.179,0,0,1,1.282,3.092A4.179,4.179,0,0,1,137.9,8.873a4.372,4.372,0,0,1-6.185,0,4.178,4.178,0,0,1-1.282-3.093A4.178,4.178,0,0,1,131.719,2.688Z" transform="translate(-11399.78 -19902)" fill="#8e8e93"/>
    <path id="Path_18" data-name="Path 18" d="M61.975,254.178a14.282,14.282,0,0,0-.194-1.516,11.94,11.94,0,0,0-.373-1.525,7.528,7.528,0,0,0-.627-1.422,5.358,5.358,0,0,0-.945-1.232,4.167,4.167,0,0,0-1.358-.853,4.692,4.692,0,0,0-1.733-.314,1.76,1.76,0,0,0-.94.4c-.282.184-.611.4-.979.631a5.607,5.607,0,0,1-1.266.558,4.918,4.918,0,0,1-3.1,0,5.59,5.59,0,0,1-1.265-.558c-.364-.233-.694-.445-.98-.631a1.758,1.758,0,0,0-.939-.4,4.686,4.686,0,0,0-1.733.314,4.164,4.164,0,0,0-1.358.853,5.362,5.362,0,0,0-.945,1.232,7.549,7.549,0,0,0-.627,1.422,11.977,11.977,0,0,0-.373,1.525,14.181,14.181,0,0,0-.194,1.517c-.032.458-.048.935-.048,1.417a3.985,3.985,0,0,0,1.184,3.015,4.26,4.26,0,0,0,3.05,1.112H57.79a4.261,4.261,0,0,0,3.05-1.112,3.984,3.984,0,0,0,1.184-3.015C62.023,255.112,62.007,254.635,61.975,254.178Zm-2.1,3.414a2.869,2.869,0,0,1-2.08.725H46.234a2.868,2.868,0,0,1-2.08-.725,2.6,2.6,0,0,1-.747-2c0-.45.015-.894.044-1.32a12.788,12.788,0,0,1,.176-1.366,10.565,10.565,0,0,1,.328-1.344,6.145,6.145,0,0,1,.51-1.156,3.973,3.973,0,0,1,.694-.91,2.765,2.765,0,0,1,.9-.562,3.236,3.236,0,0,1,1.108-.214c.049.026.137.076.279.169.289.188.622.4.991.639a6.966,6.966,0,0,0,1.59.71,6.322,6.322,0,0,0,3.963,0,6.976,6.976,0,0,0,1.59-.711c.377-.241.7-.45.99-.638.142-.092.23-.143.279-.169a3.238,3.238,0,0,1,1.108.214,2.768,2.768,0,0,1,.9.562,3.963,3.963,0,0,1,.694.91,6.121,6.121,0,0,1,.51,1.156,10.538,10.538,0,0,1,.328,1.344,12.9,12.9,0,0,1,.176,1.366h0c.03.425.045.868.045,1.319A2.6,2.6,0,0,1,59.87,257.592Z" transform="translate(-11316.829 -20137.723)" fill="#8e8e93"/>
  </g>
</svg>
