<svg xmlns="http://www.w3.org/2000/svg" width="22.074" height="25" viewBox="0 0 22.074 25">
  <g id="Group_41" data-name="Group 41" transform="translate(-201.965 40)">
    <g id="Group_40" data-name="Group 40" transform="translate(201.965 -40)">
      <path id="Path_361" data-name="Path 361" d="M635.03,367.323a.489.489,0,1,0-.293.547.493.493,0,0,0,.293-.547Z" transform="translate(-612.965 -347.061)" fill="#8e8e93"/>
      <path id="Path_362" data-name="Path 362" d="M223.176-17.851a.488.488,0,0,0-.673.154,3.653,3.653,0,0,1-3.11,1.721,3.671,3.671,0,0,1-3.668-3.666,3.671,3.671,0,0,1,3.668-3.666,3.658,3.658,0,0,1,3.086,1.684l.018.028a.488.488,0,0,0,.674.15.488.488,0,0,0,.15-.674l-.021-.033a4.629,4.629,0,0,0-3.434-2.108,2.8,2.8,0,0,0-2.785-2.513h-.39a4.931,4.931,0,0,0,1.993-3.96,4.943,4.943,0,0,0-4.938-4.936,4.965,4.965,0,0,0-.739.055,4.9,4.9,0,0,0-1.459-2.983A4.912,4.912,0,0,0,208.1-40a4.943,4.943,0,0,0-4.938,4.936,4.931,4.931,0,0,0,1.993,3.96h-.39a2.8,2.8,0,0,0-2.8,2.8v5a.488.488,0,0,0,.488.488h5.158v3.842a.488.488,0,0,0,.488.488h6.794a4.653,4.653,0,0,0,4.5,3.485,4.624,4.624,0,0,0,3.937-2.178.488.488,0,0,0-.154-.673Zm-5.468-12.882a3.965,3.965,0,0,1-3.962,3.959,3.965,3.965,0,0,1-3.962-3.959,3.965,3.965,0,0,1,3.962-3.959A3.965,3.965,0,0,1,217.708-30.734Zm-13.57-4.331a3.965,3.965,0,0,1,3.962-3.959,3.936,3.936,0,0,1,3.95,3.654,4.948,4.948,0,0,0-3.223,4.2,4,4,0,0,1-.728.067A3.965,3.965,0,0,1,204.138-35.064Zm3.473,11.089v.184h-4.67v-4.514a1.825,1.825,0,0,1,1.823-1.822h4.08a4.937,4.937,0,0,0,1.956,3.354h-.39A2.8,2.8,0,0,0,207.612-23.975Zm.976,4.514v-4.514a1.825,1.825,0,0,1,1.823-1.822h6.67a1.826,1.826,0,0,1,1.8,1.54,4.65,4.65,0,0,0-4.135,4.615q0,.091,0,.181Z" transform="translate(-201.965 40)" fill="#8e8e93"/>
      <path id="Path_363" data-name="Path 363" d="M527.05,346.7a.489.489,0,0,0,.489-.489v-.66h.66a.489.489,0,0,0,0-.979h-.66v-.66a.489.489,0,0,0-.979,0v.66h-.66a.489.489,0,1,0,0,.979h.66v.66A.489.489,0,0,0,527.05,346.7Z" transform="translate(-509.631 -324.713)" fill="#8e8e93"/>
    </g>
  </g>
</svg>
