<svg xmlns="http://www.w3.org/2000/svg" width="40.68" height="24" viewBox="0 0 40.68 24">
  <g id="Group_2086" data-name="Group 2086" transform="translate(-30 -138.667)">
    <g id="Group_2080" data-name="Group 2080" transform="translate(59.213 141.534)">
      <path id="Path_2090" data-name="Path 2090" d="M357.822,178.312a3.822,3.822,0,1,1,3.822-3.822A3.834,3.834,0,0,1,357.822,178.312Zm0-5.733a1.911,1.911,0,1,0,1.911,1.911A1.806,1.806,0,0,0,357.822,172.578Z" transform="translate(-354 -170.667)" fill="#8e8e93"/>
    </g>
    <g id="Group_2081" data-name="Group 2081" transform="translate(59.213 151.174)">
      <path id="Path_2091" data-name="Path 2091" d="M364.511,284.978a.9.9,0,0,1-.956-.956v-1.911a2.939,2.939,0,0,0-2.867-2.867h-5.733a.956.956,0,0,1,0-1.911h5.733a4.732,4.732,0,0,1,4.778,4.778v1.911A.9.9,0,0,1,364.511,284.978Z" transform="translate(-354 -277.333)" fill="#8e8e93"/>
    </g>
    <g id="Group_2082" data-name="Group 2082" transform="translate(33.822 141.534)">
      <path id="Path_2092" data-name="Path 2092" d="M76.489,178.312a3.822,3.822,0,1,1,3.822-3.822A3.834,3.834,0,0,1,76.489,178.312Zm0-5.733a1.911,1.911,0,1,0,1.911,1.911A1.806,1.806,0,0,0,76.489,172.578Z" transform="translate(-72.667 -170.667)" fill="#8e8e93"/>
    </g>
    <g id="Group_2083" data-name="Group 2083" transform="translate(30 151.174)">
      <path id="Path_2093" data-name="Path 2093" d="M30.956,284.978a.9.9,0,0,1-.956-.956v-1.911a4.732,4.732,0,0,1,4.778-4.778h5.733a.956.956,0,0,1,0,1.911H34.778a2.939,2.939,0,0,0-2.867,2.867v1.911A.9.9,0,0,1,30.956,284.978Z" transform="translate(-30 -277.333)" fill="#8e8e93"/>
    </g>
    <g id="Group_2084" data-name="Group 2084" transform="translate(44.607 138.667)">
      <path id="Path_2094" data-name="Path 2094" d="M197.733,150.134a5.733,5.733,0,1,1,5.733-5.733A5.631,5.631,0,0,1,197.733,150.134Zm0-9.556a3.822,3.822,0,1,0,3.822,3.822A3.834,3.834,0,0,0,197.733,140.578Z" transform="translate(-192 -138.667)" fill="#8e8e93"/>
    </g>
    <g id="Group_2085" data-name="Group 2085" transform="translate(39.829 153.111)">
      <path id="Path_2095" data-name="Path 2095" d="M158.734,308.223a.9.9,0,0,1-.956-.956v-3.822a2.939,2.939,0,0,0-2.867-2.867H143.445a2.939,2.939,0,0,0-2.867,2.867v3.822a.956.956,0,0,1-1.911,0v-3.822a4.731,4.731,0,0,1,4.778-4.778h11.467a4.731,4.731,0,0,1,4.778,4.778v3.822A.9.9,0,0,1,158.734,308.223Z" transform="translate(-138.667 -298.667)" fill="#8e8e93"/>
    </g>
  </g>
</svg>
