<svg id="Component_515_5" data-name="Component 515 – 5" xmlns="http://www.w3.org/2000/svg" width="100" height="50" viewBox="0 0 100 50">
  <g id="Rectangle_1755" data-name="Rectangle 1755" fill="#fff" stroke="#8e8e93" stroke-width="0.5">
    <rect width="100" height="50" rx="5" stroke="none"/>
    <rect x="0.25" y="0.25" width="99.5" height="49.5" rx="4.75" fill="none"/>
  </g>
  <g id="Group_2034" data-name="Group 2034" transform="translate(-1.464 -194.902)">
    <g id="Group_1994" data-name="Group 1994" transform="translate(29.237 215.482)">
      <path id="Path_1962" data-name="Path 1962" d="M222.448,249.012v-4.347h1.82l0,6.34h-2.693l-2.094-4.426L219.459,251h-1.838v-6.34h2.724l2.1,4.348Zm-7.351-.268h0v-.437l-.017-.248-.037-.233-.055-.215-.07-.2-.084-.184-.1-.167-.109-.151-.121-.136-.129-.121-.138-.105-.146-.088-.152-.075-.158-.058-.16-.045-.165-.027-.165-.014-.167,0-.166.017-.163.031-.161.047-.157.062-.15.077-.143.091-.137.107-.128.122-.117.136-.106.152-.1.168-.08.183-.067.2-.05.213-.032.227v.671H215.1Zm-5.4-.32h0l.02-.476.06-.445.1-.416L210,246.7l.162-.352.191-.32.217-.29.241-.259.262-.227.278-.195.295-.164.309-.134.317-.1.325-.07.329-.041.333-.01.332.022.33.052.323.08.316.113.306.141.29.171.277.2.257.232.235.259.214.289.184.316.156.347.124.374.09.4.053.429.014.455v2.586h-1.671l.006-1.956-.81.8-1.043,1.037L212.2,249.86l-.826-.823v1.974h-1.68l0-2.587Zm-9.36-3.764h2.035l0,6.34h-2.036l0-6.34Zm-9.679,2.017h0l-.012-.1,0-.026,0-.025-.005-.024-.007-.026-.006-.023-.006-.022-.008-.022-.009-.022-.009-.021-.008-.02-.01-.02-.01-.02-.012-.019-.01-.019-.012-.018-.014-.018-.013-.018-.013-.015-.015-.016-.015-.016-.015-.014-.016-.014-.018-.016-.016-.014-.018-.011-.019-.013-.018-.014-.021-.011-.02-.011-.021-.011-.021-.01-.019-.007-.02-.009-.021-.009-.022-.008-.021-.007-.022-.007-.023-.008-.023-.007-.024-.006-.024-.006-.024-.007-.025-.006-.025-.006-.026,0-.026,0-.025,0-.021,0-.024,0-.022,0-.025,0-.028,0-.026,0H189.7l-.03,0-.031,0h-.3l-.022,0h-.023l-.021,0-.021,0-.022,0-.021,0-.023,0-.021,0-.021,0-.02,0-.02,0-.021,0-.021,0-.02.006-.02,0-.02.006-.02.006-.02.006-.02.007-.02.008-.019.007-.019.007-.018.008-.019.009-.019.009-.018.009-.019.008-.019.011-.017.008-.035.022-.035.02-.036.022-.033.024-.032.024-.031.026-.031.027-.029.027-.028.029-.028.029-.027.03-.026.032-.025.034-.024.035-.023.034-.023.037-.011.02-.012.02-.011.021-.011.018-.011.021-.01.018-.011.021-.011.02-.01.02-.009.019-.01.02-.01.021-.008.02-.008.02-.01.02-.009.019-.007.021-.008.02-.007.022-.007.02-.008.019-.006.02-.007.021-.006.02-.007.021-.006.021-.005.02-.005.021-.006.021-.006.021,0,.02-.006.023-.007.026,0,.023-.007.022,0,.024,0,.024,0,.022,0,.024,0,.024,0,.023,0,.024,0,.025,0,.024,0,.024,0,.024,0,.025,0,.025,0,.024,0,.025v.027l0,.025,0,.026,0,.025,0,.026v.027l0,.026v.374l0,.028v.029l0,.027,0,.028,0,.027,0,.026,0,.026,0,.026,0,.024,0,.021.006.022.007.023.006.023.007.022.007.021,0,.019.007.02.006.018.006.017.006.017,0,.016,0,.015,0,.015,0,.012,0,.014v.007l.013.05.018.048.015.047.018.049.018.046.02.045.021.043.022.044.025.04.024.039.027.04.027.037.03.037.031.035.031.035.034.031.035.032.036.03.039.029.041.026.042.026.043.023.047.022.047.021.05.019.051.015.055.017.056.015.059.011.061.01.063.008.063.007,1.461-.015,0-.951h-1.348v-1.368h3.372v3.653l-3.76.007h-.407l-.047,0-.047,0-.045,0-.046,0-.044-.005-.044,0-.045-.005-.045-.007-.044-.008-.044-.009-.044-.009-.044-.01-.044-.011-.044-.013-.045-.013-.044-.015-.046-.017-.046-.018-.046-.018-.047-.021-.048-.023-.047-.022-.049-.025-.051-.025-.045-.026-.045-.027-.045-.025-.043-.028-.044-.028-.043-.028-.042-.028-.041-.031-.042-.031-.04-.029-.039-.031-.041-.032-.037-.033-.038-.034-.038-.033-.037-.034-.036-.035-.036-.035-.035-.036-.035-.037-.034-.037-.032-.037-.033-.04-.032-.039-.032-.039-.032-.04-.03-.042-.029-.04-.03-.042-.03-.044-.028-.044-.029-.043-.012-.024-.013-.02-.01-.021-.012-.022-.011-.021-.012-.021-.01-.024-.011-.021-.011-.023-.009-.024-.011-.022-.01-.024-.011-.023-.01-.024-.01-.025-.01-.024-.01-.025-.011-.026-.01-.025-.008-.026-.01-.026-.009-.026-.01-.026-.01-.026-.01-.028-.01-.028-.009-.026-.009-.03-.01-.026-.009-.029-.009-.029-.009-.031-.007-.029-.007-.028-.008-.027-.006-.029-.007-.026-.006-.029-.006-.028,0-.028-.006-.028-.005-.029,0-.028-.005-.029,0-.027,0-.028,0-.028-.006-.028,0-.029,0-.028,0-.029,0-.028,0-.029,0-.029,0-.029,0-.028v-.029l0-.03v-.03l0-.03v-.278l0-.039v-.039l0-.039,0-.039,0-.039,0-.039,0-.038,0-.039.006-.04.005-.038.006-.038.006-.038.006-.039.007-.038.007-.038.008-.038.008-.038.006-.036.009-.038.008-.036.01-.037.01-.037.009-.037.01-.036.01-.036.011-.035.012-.036.011-.036.012-.036.013-.035.013-.036.013-.035.015-.035.014-.036.015-.035.015-.035.016-.034.016-.036.017-.035.017-.035.018-.035.019-.035.018-.035.02-.034.02-.035.021-.034.02-.035.022-.035.021-.034.022-.034.023-.034.024-.034.023-.033.024-.035.025-.033.025-.033.025-.033.025-.034.027-.033.028-.035.058-.063.059-.062.059-.06.063-.056.064-.055.066-.053.069-.051.071-.049.072-.048.075-.045.077-.043.079-.041.08-.038.083-.038.085-.034.085-.034.089-.03.09-.029.091-.028.094-.025.1-.023.1-.021.1-.02.1-.017.1-.014.106-.014.105-.012.109-.008.11-.007.113-.005.114,0h.44l.046,0,.044,0,.042,0,.044,0h.043l.043,0,.042,0,.042,0,.042,0,.04,0,.041,0,.04,0,.04,0,.038,0,.04,0,.038,0,.039,0,.036,0,.036,0,.037.006.036,0,.037,0,.035.006.036,0,.035,0,.035.006.034.007.034.007.034.006.033.007.034.007.033.008.033.008.032.008.031.008.033.01.033.009.032.009.032.008.031.01.032.01.03.01.032.01.03.011.031.011.031.011.032.012.029.013.031.011.029.013.032.013.029.012.03.013.029.013.029.012.03.015.029.014.056.029.053.03.052.032.051.033.048.035.048.037.045.037.044.039.041.041.039.043.038.044.037.046.035.046.033.049.031.051.029.051.028.053.024.055.025.056.022.057.021.058.018.061.016.061.016.063.014.063.012.066.008.067.009.067.005.069,0,.07,0,.072,0,.156Zm34.747-2.012h2V247.2l2-2.538H231.8l-2.365,2.807,2.533,3.532h-2.493l-2.056-3.086-.018,3.086h-2v-6.34Zm-19.194,1.371h-.793v1.08h.924l.045,0,.044,0,.04,0,.04-.006.038-.007.036-.007.035-.01.032-.009.032-.011.03-.011.027-.013.026-.013.025-.017.023-.014.021-.015.021-.019.018-.018.018-.019.015-.021.014-.022.014-.022.013-.025.011-.026.01-.026.009-.027.007-.03.007-.032,0-.032,0-.034,0-.035v-.07l0-.031,0-.03,0-.03-.007-.026-.008-.026-.008-.026-.011-.022-.011-.023-.013-.022-.014-.02-.015-.021-.016-.018-.019-.018-.019-.017-.022-.016-.022-.015-.025-.015-.026-.014-.028-.013-.028-.012-.031-.012-.032-.009-.036-.009-.035-.008-.037-.007-.04-.005-.04,0-.043-.005-.045,0h-.15Zm0,2.43h-.793v1.16h1.011l.025,0h.048l.022,0,.024,0,.023,0,.02,0,.023,0,.019,0,.019,0,.019,0,.02,0,.018-.005.017-.005.017-.006.016-.005.018-.005.015-.006.013-.007.014-.006.014-.007.013-.007.013-.007.013-.008.011-.007.012-.01.012-.007.011-.01.009-.009.019-.019.018-.019.016-.019.017-.021.014-.02.014-.024.013-.021.01-.023.012-.024.009-.025.008-.025.007-.027.008-.027.005-.029.006-.03,0-.025v-.068l0-.018,0-.019,0-.019-.005-.018,0-.019,0-.021-.006-.019-.005-.021-.008-.019-.007-.019-.01-.02-.006-.017-.01-.016-.01-.019-.013-.018-.012-.018-.013-.017-.013-.017-.013-.015-.016-.016-.015-.015-.014-.014-.016-.014-.015-.014-.016-.013-.017-.012-.017-.01-.02-.012-.019-.012-.02-.011-.018-.01-.018-.01-.019-.008-.019-.007-.018-.006-.018-.007-.018,0-.019,0-.017,0-.019,0-.019,0-.02,0h-.338Zm.351-3.8h0l.053,0,.051,0,.053,0,.05,0,.053,0,.051,0,.051,0,.053.006.05.006.053.007.052.007.051.008.052.007.051.008.052.01.051.01.053.009.052.011.051.011.052.011.051.011.051.013.053.013.051.013.052.014.051.014.052.016.052.015.052.016.052.016.05.02.05.019.047.023.047.022.045.024.045.025.044.028.04.027.041.031.039.031.036.032.036.033.035.037.033.036.033.038.031.039.028.04.028.042.026.042.025.044.024.045.021.047.021.046.019.048.018.051.017.05.015.053.014.053.013.054.01.056.012.06.01.193v.031l0,.031v.03l0,.029,0,.03,0,.03,0,.029-.006.029-.006.028-.006.03-.006.028-.008.028-.008.029-.008.027-.009.028-.01.028-.011.027-.01.027-.012.025-.012.027-.012.027-.015.026-.013.025-.014.025-.017.026-.015.024-.017.024-.017.025-.017.024-.017.024-.02.024-.021.024-.024.028-.026.027-.026.026-.028.025-.028.025-.029.025-.03.024-.031.023-.032.023-.032.021-.032.022-.035.022-.034.02-.035.02-.037.02-.037.019-.037.018-.038.019-.039.017-.04.016-.042.017-.04.015-.042.016-.043.015-.04.013.013,0,.247.09.036.012.037.015.038.014.036.014.035.016.036.015.034.017.034.017.033.018.033.018.031.019.032.02.03.02.03.022.03.02.025.021.028.021.03.023.028.024.029.026.027.027.027.027.024.029.027.03.025.03.024.032.023.032.023.034.021.035.022.035.02.036.022.039.011.021.008.019.009.019.009.02.007.02.009.018.006.021.007.02.007.019.007.021.005.021.007.02.006.02.006.021,0,.02,0,.022.006.02,0,.021.006.02,0,.021,0,.021,0,.021,0,.022v.021l0,.021,0,.022,0,.021v.107l0,.108-.008.106-.013.1-.02.1-.024.1-.029.092-.036.09-.04.087-.047.081-.052.081-.057.076-.063.071-.069.07-.074.065-.079.061-.084.059-.088.053-.1.05-.1.047-.1.042-.109.039-.113.036-.119.032-.124.029-.129.026-.133.022-.138.018-.143.014-.149.013-.153.009-.158,0H203.4v-6.34h3.108l.05,0Zm-9.994,1.371h-.846v1.248h.846l.054,0,.053,0,.052-.007.049-.007.049-.006.046-.01.044-.009.042-.011.039-.013.039-.014.035-.015.034-.015.033-.018.03-.018.029-.018.026-.02.025-.021.023-.022.021-.021.019-.025.019-.025.017-.026.015-.028.014-.029.012-.03.01-.032.009-.033.007-.034.008-.035,0-.037,0-.039v-.075l0-.034,0-.031-.007-.031-.006-.03-.009-.028-.011-.026-.012-.026-.013-.025-.015-.023-.015-.022-.019-.023-.019-.02-.022-.02-.023-.019-.024-.018-.027-.018-.029-.017-.031-.016-.032-.016-.035-.014-.036-.014L197,246.1l-.041-.012-.041-.009-.044-.01-.046-.009-.049-.007-.05-.006-.052-.007-.054,0-.053,0Zm.794-1.342h0l.065.008.065.008.064.008.064.009.063.009.062.011.062.012.061.011.061.013.059.013.06.014.059.014.056.014.057.017.058.015.056.018.054.018.054.019.054.018.054.021.052.021.051.02.052.021.051.024.05.024.047.027.047.026.045.028.043.03.04.031.042.032.039.034.036.035.034.036.034.037.032.038.029.038.028.043.026.041.025.044.022.045.022.045.02.047.018.048.015.048.014.051.013.05.012.053.01.053.007.054.007.056,0,.056,0,.058v.148l0,.043,0,.043,0,.043-.006.041-.006.042-.008.041-.008.039-.009.04-.011.038-.011.038-.013.039-.013.039-.013.036-.016.035-.017.036-.017.034-.018.034-.019.033-.02.033-.021.032-.022.031-.023.031-.024.03-.024.029-.026.028-.027.029-.028.027-.028.026-.03.027-.03.025-.032.023-.033.026-.031.024-.034.021-.033.023-.034.023-.036.02-.035.021-.035.019-.036.019-.036.018-.038.018-.038.019-.038.015-.039.016-.039.016-.04.014-.041.015-.04.014-.042.012-.043.014h-.006l.017,0,.041.008.041.011.039.009.038.011.038.012.035.013.035.014.034.013.033.015.033.016.032.017.029.017.03.019.028.019.027.02.026.022.026.02.023.023.022.024.023.025.02.024.019.026.018.025.017.028.019.027.017.03.018.03.015.03.015.032.017.033.014.033.016.036.015.036.014.037.013.036.011.04.013.039.012.04.013.041.011.043.012.043.011.043.011.045.01.048.01.047.009.049.009.05.01.051.009.052.008.051.009.054.006.057.008.055.007.055.007.054.008.052.008.052.007.053.009.051.007.049.009.05.009.049.009.048.009.047.009.046.011.047.009.046.009.044.01.044.011.044.011.044.009.041.012.042.012.041.011.04.011.039.013.039.012.038.013.037.011.037.012.035.015.035.013.036.013.034.06.147H197.5l-.02-.073,0-.013,0-.014,0-.015,0-.017,0-.015,0-.017,0-.017,0-.018,0-.019,0-.02,0-.019-.006-.021,0-.021,0-.022,0-.022-.007-.024,0-.023,0-.025,0-.025-.006-.026,0-.027,0-.025-.006-.027,0-.029,0-.029-.005-.03,0-.028,0-.031-.006-.031-.006-.032-.005-.034-.14-1.057,0-.048-.006-.042-.009-.038-.01-.037-.011-.032-.013-.032-.014-.029-.016-.026-.017-.024-.018-.022-.019-.02-.021-.017-.024-.016-.024-.014-.026-.012-.028-.012-.015,0-.019-.005-.019-.006-.02,0-.02,0-.023,0-.022,0-.023,0-.025,0-.024,0-.026,0-.027,0-.029,0-.028,0-.031,0-.031,0-.027,0-.026,0-.028,0-.028,0-.029,0h-.058l-.03,0H196.3l-.033,0h-.548l0,2.349h-2.033l0-6.339h3.058l.07,0,.071,0,.071,0,.067,0,.07,0,.067,0,.068,0,.066,0Z" transform="translate(-174.738 -241.79)" fill="#ae1c3f" fill-rule="evenodd"/>
      <path id="Path_1963" data-name="Path 1963" d="M111.371,230.019l.031-.674.087-.632.14-.587.189-.543.234-.5.278-.455.314-.41.349-.365.38-.32.406-.277.428-.232.447-.189.461-.144.474-.1.479-.056.484-.014.481.029.478.074.472.115.458.158.445.2.422.244.4.283.372.326.343.368.307.409.27.45.226.491.182.53.131.57.076.608.02.645v3.661h-2.428l.011-2.771-1.18,1.141-1.514,1.466-1.513-1.467-1.2-1.164v2.793h-2.44v-3.662Zm7.85.452h0l0-.618-.027-.352-.054-.33-.078-.3-.1-.282-.122-.261-.142-.237-.159-.215-.174-.191-.189-.17-.2-.149-.211-.127-.222-.1-.229-.082-.234-.063-.239-.041-.24-.019-.243,0-.241.025-.237.044-.233.066-.228.088-.218.108-.209.131-.2.152-.185.172-.172.194-.155.215-.137.238-.117.258-.1.28-.074.3-.046.322v.949h5.409Z" transform="translate(-111.37 -224.523)" fill="#ae1c3f" fill-rule="evenodd"/>
    </g>
    <path id="Path_1964" data-name="Path 1964" d="M29.006,214.482a.587.587,0,0,0-.593-.582H17.057a.588.588,0,0,0-.593.582v11.14a.587.587,0,0,0,.593.582H28.413a.586.586,0,0,0,.593-.582Z" fill="#fff" stroke="#bbbdbf" stroke-miterlimit="2.613" stroke-width="0.216" fill-rule="evenodd"/>
    <path id="Path_1965" data-name="Path 1965" d="M19.977,219.06l.428-.179v-.009h-.428v-.085h.6v.1l-.41.17h.41v.094h-.6Z" transform="translate(-2.989 -4.159)" fill="#006940" fill-rule="evenodd"/>
    <path id="Path_1966" data-name="Path 1966" d="M19.919,222.178l.073-.009a.179.179,0,0,1-.083-.142c0-.1.1-.207.308-.207.167,0,.317.077.317.227a.2.2,0,0,1-.205.188v-.094c.028,0,.1-.028.1-.094s-.066-.122-.215-.122-.2.055-.2.122c0,.019.008.094.13.112v-.1h.1v.179h-.326Z" transform="translate(-2.932 -6.74)" fill="#006940" fill-rule="evenodd"/>
    <path id="Path_1967" data-name="Path 1967" d="M19.975,225.438l.131-.028v-.161l-.131-.027v-.1l.6.159v.1l-.6.16v-.1Zm.67-.074h0l.048-.029-.047-.037v-.057l.093.057v.067l-.094.055v-.055Zm-.205-.029h0v-.008l-.231-.049v.113Z" transform="translate(-2.988 -9.547)" fill="#006940" fill-rule="evenodd"/>
    <path id="Path_1968" data-name="Path 1968" d="M19.977,228.743l.428-.19h-.428v-.083h.6v.094l-.411.179h.411v.084h-.6Z" transform="translate(-2.989 -12.442)" fill="#006940" fill-rule="evenodd"/>
    <path id="Path_1969" data-name="Path 1969" d="M19.972,233.283h.27v-.171h-.27v-.095h.6v.094h-.223v.171h.223v.095h-.6Z" transform="translate(-2.985 -16.326)" fill="#006940" fill-rule="evenodd"/>
    <path id="Path_1970" data-name="Path 1970" d="M19.969,236.316l.132-.028v-.16l-.131-.029V236l.6.161v.113l-.6.151v-.1Zm.671-.132h0l.093-.075v.075l-.093.048v-.048Zm-.205.029h0l-.233-.057v.113Z" transform="translate(-2.983 -18.87)" fill="#006940" fill-rule="evenodd"/>
    <path id="Path_1971" data-name="Path 1971" d="M19.969,239.691l.429-.189h-.429v-.083h.6v.094l-.411.179h.411v.084h-.6Z" transform="translate(-2.983 -21.792)" fill="#006940" fill-rule="evenodd"/>
    <path id="Path_1972" data-name="Path 1972" d="M19.913,242.867l.074-.01a.176.176,0,0,1-.084-.141c0-.1.1-.2.308-.2.168,0,.317.067.317.216a.2.2,0,0,1-.205.188v-.093c.028,0,.1-.028.1-.1s-.065-.123-.215-.123-.2.066-.2.123c0,.029.009.094.131.113v-.1h.1v.188h-.326Z" transform="translate(-2.927 -24.44)" fill="#006940" fill-rule="evenodd"/>
    <path id="Path_1973" data-name="Path 1973" d="M19.969,247.531l.429-.179v-.01h-.429v-.085h.6v.1l-.41.171h.41v.093h-.6Z" transform="translate(-2.983 -28.486)" fill="#006940" fill-rule="evenodd"/>
    <path id="Path_1974" data-name="Path 1974" d="M19.906,250.514c0-.057.028-.216.308-.216s.316.16.316.217-.036.217-.316.217-.308-.16-.308-.217Zm.67.039h0l.066-.038-.066-.038v-.056l.112.056v.076l-.112.056v-.056Zm-.149-.038h0c0-.046-.047-.123-.214-.123s-.2.076-.2.123.037.122.2.122S20.428,250.562,20.428,250.515Z" transform="translate(-2.929 -31.083)" fill="#006940" fill-rule="evenodd"/>
    <path id="Path_1975" data-name="Path 1975" d="M19.969,254.04l.428-.178h-.428v-.085h.6v.095l-.411.18h.411v.084h-.6Z" transform="translate(-2.983 -34.053)" fill="#006940" fill-rule="evenodd"/>
    <path id="Path_1976" data-name="Path 1976" d="M19.908,257.111l.074-.009c-.028-.029-.085-.055-.085-.142,0-.1.1-.207.309-.207.168,0,.316.074.316.227a.2.2,0,0,1-.2.189v-.095c.028,0,.1-.027.1-.094s-.066-.123-.215-.123-.2.057-.2.123c0,.018.009.093.13.112v-.1h.1v.179h-.325Z" transform="translate(-2.922 -36.596)" fill="#006940" fill-rule="evenodd"/>
    <path id="Path_1977" data-name="Path 1977" d="M20.153,261.017l.428-.187h-.428v-.086h.6v.095l-.411.178h.411v.086h-.6Z" transform="translate(-3.14 -40.003)" fill="#006940" fill-rule="evenodd"/>
    <path id="Path_1978" data-name="Path 1978" d="M20.1,264.069l.073-.009a.162.162,0,0,1-.083-.133c0-.112.1-.208.308-.208.168,0,.317.067.317.217a.21.21,0,0,1-.2.2v-.094a.119.119,0,0,0,.1-.1c0-.066-.066-.122-.216-.122s-.2.065-.2.131c0,.019.01.086.131.1v-.1h.1v.189H20.1Z" transform="translate(-3.082 -42.545)" fill="#006940" fill-rule="evenodd"/>
    <path id="Path_1979" data-name="Path 1979" d="M20.153,267.349h.27v-.179h-.27v-.094h.6v.095h-.224v.179h.225v.085h-.6Z" transform="translate(-3.14 -45.41)" fill="#006940" fill-rule="evenodd"/>
    <rect id="Rectangle_1713" data-name="Rectangle 1713" width="0.596" height="0.094" transform="translate(17.014 222.113)" fill="#006940"/>
    <path id="Path_1980" data-name="Path 1980" d="M19.968,271.63l.046-.037-.046-.03v-.056l.092.056v.066l-.092.057v-.057Zm-.671-.188h.6v.321h-.1v-.236H19.67v.216h-.113v-.216h-.148v.244H19.3v-.329Zm-.149.113h.074v.084h-.074Z" transform="translate(-2.284 -49.139)" fill="#006940" fill-rule="evenodd"/>
    <path id="Path_1981" data-name="Path 1981" d="M20.362,274.548v-.114h-.215v-.085h.6v.2c0,.084-.074.141-.186.141-.056,0-.2-.028-.2-.141Zm.28-.038h0v-.076h-.177v.094c0,.065.075.065.093.065C20.624,274.595,20.642,274.566,20.642,274.51Z" transform="translate(-3.134 -51.621)" fill="#006940" fill-rule="evenodd"/>
    <path id="Path_1982" data-name="Path 1982" d="M20.147,278.387V278.3l.6-.151v.1l-.446.094.446.094v.095Z" transform="translate(-3.134 -54.869)" fill="#006940" fill-rule="evenodd"/>
    <path id="Path_1983" data-name="Path 1983" d="M20.154,281.318l.121-.037-.009-.161-.122-.028V281l.6.132.009.113-.6.17v-.095Zm.663-.16h0l.093-.076v.076l-.093.047v-.047Zm-.206.028h0l-.233-.048v.114Z" transform="translate(-3.133 -57.3)" fill="#006940" fill-rule="evenodd"/>
    <path id="Path_1984" data-name="Path 1984" d="M21.24,285.21l-.047-.094-.186.094-.046-.086.54-.263.084.178c.036.076-.011.16-.113.207-.046.029-.178.066-.233-.037Zm.233-.151h0l-.027-.065-.159.076.037.074c.029.067.093.03.112.02C21.492,285.134,21.5,285.106,21.473,285.058Z" transform="translate(-3.827 -60.63)" fill="#006940" fill-rule="evenodd"/>
    <path id="Path_1985" data-name="Path 1985" d="M22.827,287.6l.2-.179-.112-.124-.2.179-.064-.066.438-.405.065.066-.168.152.112.132.167-.15.065.066-.438.4Z" transform="translate(-5.265 -62.459)" fill="#006940" fill-rule="evenodd"/>
    <path id="Path_1986" data-name="Path 1986" d="M25.425,289.306l.038-.113-.14-.085-.084.085-.083-.048.438-.433.092.056-.177.595-.084-.057Zm.27-.613h0l-.037-.028.084-.066.066.046-.112.047Zm-.131.161h0l-.168.179.1.056Z" transform="translate(-7.396 -63.812)" fill="#006940" fill-rule="evenodd"/>
    <path id="Path_1987" data-name="Path 1987" d="M29.431,290.335l-.121.472-.093-.02.131-.481-.131-.038.028-.094.345.094-.028.1Z" transform="translate(-10.854 -65.153)" fill="#006940" fill-rule="evenodd"/>
    <path id="Path_1988" data-name="Path 1988" d="M33.011,290.855v.489h-.085v-.489h-.139v-.115h.363v.115Z" transform="translate(-13.892 -65.633)" fill="#006940" fill-rule="evenodd"/>
    <path id="Path_1989" data-name="Path 1989" d="M36.052,291.345a.338.338,0,0,1-.011-.122c0-.075-.009-.112-.074-.112h-.093v.234h-.1v-.6h.225c.121,0,.139.123.139.17a.19.19,0,0,1-.064.151c.027.019.055.038.055.151,0,.085,0,.114.019.114v.018Zm-.066-.5h-.111v.16h.1a.066.066,0,0,0,.075-.076C36.052,290.892,36.042,290.847,35.986,290.847Z" transform="translate(-16.439 -65.635)" fill="#053f2b" fill-rule="evenodd"/>
    <rect id="Rectangle_1714" data-name="Rectangle 1714" width="0.093" height="0.603" transform="translate(19.799 225.107)" fill="#006940"/>
    <path id="Path_1990" data-name="Path 1990" d="M40.578,289.12h-.047a.115.115,0,0,0,.047-.086c0-.018-.009-.028-.018-.028a.054.054,0,0,0-.038.01l-.009-.037a.114.114,0,0,1,.056-.011.055.055,0,0,1,.056.057.108.108,0,0,1-.047.1Zm-.093.047h.056l-.056-.095H40.42l-.046.095h.046l.037-.058.028.058Zm-.2.668h0v-.6h.327v.115h-.233v.123H40.6v.1h-.214v.16h.243v.1Z" transform="translate(-20.275 -64.125)" fill="#006940" fill-rule="evenodd"/>
    <path id="Path_1991" data-name="Path 1991" d="M43.448,291.345l-.185-.423v.423h-.084v-.6h.093l.177.425v-.425h.084v.6Z" transform="translate(-22.735 -65.635)" fill="#006940" fill-rule="evenodd"/>
    <path id="Path_1992" data-name="Path 1992" d="M47.954,291.345l-.186-.423v.423h-.083v-.6h.093l.176.423v-.423h.085v.6Z" transform="translate(-26.57 -65.635)" fill="#006940" fill-rule="evenodd"/>
    <path id="Path_1993" data-name="Path 1993" d="M51,289.714l-.036-.057-.037.057h-.056l.056-.1H51l.057.1Zm-.036.688h0c-.056,0-.215-.037-.214-.321s.158-.311.214-.311.214.029.214.311-.158.321-.214.321Zm0-.529h0c-.046,0-.122.039-.122.208s.076.217.122.217.121-.047.121-.217S51.011,289.873,50.963,289.873Z" transform="translate(-29.178 -64.672)" fill="#006940" fill-rule="evenodd"/>
    <path id="Path_1994" data-name="Path 1994" d="M54.519,291.358l-.177-.425v.425h-.094v-.6h.1l.168.423h.009v-.423h.084v.6Z" transform="translate(-32.156 -65.646)" fill="#006940" fill-rule="evenodd"/>
    <path id="Path_1995" data-name="Path 1995" d="M57.668,291.3l-.011-.076a.142.142,0,0,1-.129.1c-.112,0-.2-.1-.2-.321,0-.161.064-.311.213-.311a.206.206,0,0,1,.2.2H57.64c0-.019-.038-.1-.095-.1s-.13.056-.13.218.065.207.13.207c.02,0,.085-.019.1-.133h-.1v-.1h.188v.321Z" transform="translate(-34.772 -65.588)" fill="#006940" fill-rule="evenodd"/>
    <path id="Path_1996" data-name="Path 1996" d="M62.052,290.865v.49h-.094v-.49h-.13v-.113h.354v.113Z" transform="translate(-38.606 -65.643)" fill="#006940" fill-rule="evenodd"/>
    <path id="Path_1997" data-name="Path 1997" d="M64.964,291.358v-.263H64.8v.263H64.7v-.6H64.8v.235h.167v-.235h.093v.6Z" transform="translate(-41.053 -65.646)" fill="#006940" fill-rule="evenodd"/>
    <path id="Path_1998" data-name="Path 1998" d="M67.923,290.4c-.065,0-.214-.038-.214-.321s.149-.311.214-.311.205.028.2.311-.149.321-.2.321Zm.028-.688h0l-.028-.056-.038.056H67.82l.066-.1h.065l.065.1Zm-.028.159h0c-.056,0-.121.039-.121.207s.065.217.121.217.112-.047.112-.217S67.97,289.876,67.923,289.876Z" transform="translate(-43.611 -64.673)" fill="#006940" fill-rule="evenodd"/>
    <path id="Path_1999" data-name="Path 1999" d="M71.35,291.358l-.177-.424v.424h-.094v-.6h.1l.177.424v-.424h.083v.6Z" transform="translate(-46.479 -65.646)" fill="#006940" fill-rule="evenodd"/>
    <path id="Path_2000" data-name="Path 2000" d="M75.512,291.362h-.094l-.139-.6h.093l.093.461.1-.461h.094Z" transform="translate(-50.053 -65.651)" fill="#006940" fill-rule="evenodd"/>
    <rect id="Rectangle_1715" data-name="Rectangle 1715" width="0.093" height="0.604" transform="translate(25.673 225.11)" fill="#006940"/>
    <path id="Path_2001" data-name="Path 2001" d="M79.785,289.775l-.028-.057-.036.057h-.047l.047-.094h.065l.055.094Zm-.186.67h0v-.6h.316v.112h-.233v.124h.224v.1h-.224v.16h.252v.1Zm.112.074H79.8v.076h-.084Z" transform="translate(-53.73 -64.732)" fill="#006940" fill-rule="evenodd"/>
    <path id="Path_2002" data-name="Path 2002" d="M82.389,290.872v.491H82.3v-.491h-.13v-.112h.354v.112Z" transform="translate(-55.914 -65.651)" fill="#006940" fill-rule="evenodd"/>
    <path id="Path_2003" data-name="Path 2003" d="M86.433,291.363l-.177-.425h-.009v.425h-.085v-.6h.1l.168.423v-.423h.093v.6Z" transform="translate(-59.315 -65.651)" fill="#006940" fill-rule="evenodd"/>
    <path id="Path_2004" data-name="Path 2004" d="M89.429,291.363l-.028-.123h-.168l-.028.123h-.093l.148-.6h.112l.148.6Zm-.112-.463h0l-.056.236h.112Z" transform="translate(-61.827 -65.65)" fill="#006940" fill-rule="evenodd"/>
    <path id="Path_2005" data-name="Path 2005" d="M92.712,291.362v-.5l-.084.5h-.093l-.075-.5h-.009v.5h-.083v-.6h.14l.075.481.083-.481H92.8v.6Z" transform="translate(-64.596 -65.649)" fill="#006940" fill-rule="evenodd"/>
    <path id="Path_2006" data-name="Path 2006" d="M49.859,248.114h6.209a.767.767,0,0,0,.763-.764v-6.212Z" transform="translate(-28.42 -23.421)" fill="#006940" fill-rule="evenodd"/>
    <path id="Path_2007" data-name="Path 2007" d="M36.971,218.535a.753.753,0,0,0-.764-.746H33.922l-7.4,7.242v2.223a.752.752,0,0,0,.763.747H29.53l7.44-7.27Z" transform="translate(-8.557 -3.31)" fill="#ae2638" fill-rule="evenodd"/>
    <path id="Path_2008" data-name="Path 2008" d="M27.289,217.777a.756.756,0,0,0-.765.764v6.175l6.937-6.937Z" transform="translate(-8.561 -3.299)" fill="#006940" fill-rule="evenodd"/>
    <path id="Path_2009" data-name="Path 2009" d="M31.231,240.91a.418.418,0,0,1-.066.262.237.237,0,0,1-.214.093.112.112,0,0,1-.113-.057.209.209,0,0,1-.009-.083v-.587a.489.489,0,0,1,.262.047.354.354,0,0,1,.139.326Zm.383-.01h0a.418.418,0,0,0-.177-.326.753.753,0,0,0-.214-.083v-.019a.512.512,0,0,0,.214-.112.287.287,0,0,0,.1-.232.333.333,0,0,0-.251-.328,1.048,1.048,0,0,0-.328-.047h-.68v.064a.336.336,0,0,1,.129.019.144.144,0,0,1,.067.14v1.138a.144.144,0,0,1-.067.14.655.655,0,0,1-.129.028v.056h.708a.732.732,0,0,0,.448-.12.393.393,0,0,0,.177-.318Zm-.438-.755h0a.271.271,0,0,1-.346.316v-.521a.123.123,0,0,1,.027-.093.187.187,0,0,1,.094-.02.183.183,0,0,1,.177.093A.5.5,0,0,1,31.175,240.145Z" transform="translate(-11.758 -22.086)" fill="#fff" fill-rule="evenodd"/>
    <path id="Path_2010" data-name="Path 2010" d="M32.367,223.076a.441.441,0,0,0-.084.148l-.549,1.371h-.066l-.624-1.408a.271.271,0,0,0-.074-.113.163.163,0,0,0-.122-.045v-.056h.811v.057a1.5,1.5,0,0,0-.168.018c-.027.008-.037.037-.037.074v.037l.01.029.363.868h.019l.317-.794.019-.055a.333.333,0,0,0,.019-.066.081.081,0,0,0-.046-.083.545.545,0,0,0-.169-.026v-.057h.522v.057A.214.214,0,0,0,32.367,223.076Z" transform="translate(-12.241 -7.721)" fill="#fff" fill-rule="evenodd"/>
    <path id="Path_2011" data-name="Path 2011" d="M85.09,274.353a.91.91,0,0,1-.662.243h-.774v-.075c.037.029.074.01.111-.01a.325.325,0,0,0,.113-.055v-1.174a.238.238,0,0,0-.093-.178,1.065,1.065,0,0,0-.13-.028v-.055H84.4a.98.98,0,0,1,.691.224.77.77,0,0,1,.223.568.735.735,0,0,1-.223.541Zm-.318-.951h0c-.1-.167-.2-.3-.41-.3-.056.056-.139-.028-.139.084v1.175c0,.048,0,.085.037.112s.047.029.093.029a.528.528,0,0,0,.373-.159.6.6,0,0,0,.132-.5A.707.707,0,0,0,84.772,273.4Z" transform="translate(-57.181 -50.506)" fill="#fff" fill-rule="evenodd"/>
    <path id="Path_2012" data-name="Path 2012" d="M70.986,274.536l-.5-.728h-.066v.457a.245.245,0,0,0,.047.168.24.24,0,0,0,.168.046v.057h-.811v-.057a.231.231,0,0,0,.159-.046c.037-.018.046-.076.046-.168v-1.036c0-.092-.008-.149-.046-.177a.443.443,0,0,0-.158-.037v-.065H70.6a1.2,1.2,0,0,1,.391.055.373.373,0,0,1,.289.356.35.35,0,0,1-.149.3.6.6,0,0,1-.233.111l.484.663.047.038.056.019v.047Zm-.168-1.371h0a.25.25,0,0,0-.242-.131.208.208,0,0,0-.13.028c-.019.01-.028.038-.028.075v.6a.832.832,0,0,0,.336-.066c.075-.046.1-.14.1-.28A.508.508,0,0,0,70.818,273.165Z" transform="translate(-45.409 -50.446)" fill="#fff" fill-rule="evenodd"/>
    <path id="Path_2013" data-name="Path 2013" d="M36.149,267.044v-.056a.6.6,0,0,0,.158-.028.074.074,0,0,0,.037-.074.8.8,0,0,0-.018-.085.515.515,0,0,0-.037-.074l-.056-.14h-.55c-.037.085-.055.149-.065.177a.359.359,0,0,0-.037.13c0,.037.028.057.074.076.028.008.065.008.121.018v.056h-.493v-.056a.229.229,0,0,0,.14-.084,1.639,1.639,0,0,0,.1-.2l.541-1.278h.065l.541,1.232a1.15,1.15,0,0,0,.141.261.14.14,0,0,0,.129.065v.056Zm-.187-1.1h-.019l-.224.541H36.2Z" transform="translate(-16.015 -44.022)" fill="#fff" fill-rule="evenodd"/>
    <path id="Path_2014" data-name="Path 2014" d="M51.622,279.5a4.4,4.4,0,0,1,.765-.223,1.047,1.047,0,0,0,.9-1.052c-.01-.215-.331.059-.331.059a3.15,3.15,0,0,0-.9.255A1.158,1.158,0,0,0,51.622,279.5Z" transform="translate(-29.921 -54.917)" fill="#fd0" fill-rule="evenodd"/>
    <path id="Path_2015" data-name="Path 2015" d="M51.622,279.5a4.4,4.4,0,0,1,.765-.223,1.047,1.047,0,0,0,.9-1.052c-.01-.215-.331.059-.331.059a3.15,3.15,0,0,0-.9.255,1.158,1.158,0,0,0-.434.959" transform="translate(-29.921 -54.917)" fill="none" stroke="#9a212b" stroke-miterlimit="2.613" stroke-width="0.293" fill-rule="evenodd"/>
    <path id="Path_2016" data-name="Path 2016" d="M61.49,269.408s.15.941-.6,1.239a7.105,7.105,0,0,0-.867.355,1.02,1.02,0,0,1,.383-1.045,3.793,3.793,0,0,1,.774-.336A.634.634,0,0,0,61.49,269.408Z" transform="translate(-37.053 -47.42)" fill="#fd0" fill-rule="evenodd"/>
    <path id="Path_2017" data-name="Path 2017" d="M61.49,269.408s.15.941-.6,1.239a7.105,7.105,0,0,0-.867.355,1.02,1.02,0,0,1,.383-1.045,3.793,3.793,0,0,1,.774-.336.634.634,0,0,0,.307-.213" transform="translate(-37.053 -47.42)" fill="none" stroke="#9a212b" stroke-miterlimit="2.613" stroke-width="0.293" fill-rule="evenodd"/>
    <path id="Path_2018" data-name="Path 2018" d="M67,261.616a.967.967,0,0,1-.055,1.222c-.113.15-.672.512-.812.681a1.22,1.22,0,0,1,.057-1.1,3.079,3.079,0,0,1,.55-.5A1.257,1.257,0,0,0,67,261.616Z" transform="translate(-42.179 -40.768)" fill="#fd0" fill-rule="evenodd"/>
    <path id="Path_2019" data-name="Path 2019" d="M67,261.616a.967.967,0,0,1-.055,1.222c-.113.15-.672.512-.812.681a1.22,1.22,0,0,1,.057-1.1,3.079,3.079,0,0,1,.55-.5,1.257,1.257,0,0,0,.261-.3" transform="translate(-42.179 -40.768)" fill="none" stroke="#9a212b" stroke-miterlimit="2.613" stroke-width="0.293" fill-rule="evenodd"/>
    <path id="Path_2020" data-name="Path 2020" d="M67.373,253.291s-.436.254-.147.98a5.828,5.828,0,0,1,.377.856.971.971,0,0,0,.36-1.139A1.439,1.439,0,0,0,67.373,253.291Z" transform="translate(-43.117 -33.655)" fill="#fd0" fill-rule="evenodd"/>
    <path id="Path_2021" data-name="Path 2021" d="M67.373,253.291s-.436.254-.147.98a5.828,5.828,0,0,1,.377.856.971.971,0,0,0,.36-1.139,1.439,1.439,0,0,0-.59-.7" transform="translate(-43.117 -33.655)" fill="none" stroke="#9a212b" stroke-miterlimit="2.613" stroke-width="0.293" fill-rule="evenodd"/>
    <path id="Path_2022" data-name="Path 2022" d="M61.134,246.644a.987.987,0,0,0,.2.887c.15.176.82.382,1.109.6C62.448,248.128,62.8,246.971,61.134,246.644Z" transform="translate(-37.989 -27.972)" fill="#fd0" fill-rule="evenodd"/>
    <path id="Path_2023" data-name="Path 2023" d="M61.134,246.644a.987.987,0,0,0,.2.887c.15.176.82.382,1.109.6,0,0,.354-1.157-1.314-1.484" transform="translate(-37.989 -27.972)" fill="none" stroke="#9a212b" stroke-miterlimit="2.613" stroke-width="0.293" fill-rule="evenodd"/>
    <path id="Path_2024" data-name="Path 2024" d="M55.054,241.137s1.452.105,1.257,1.433a4.61,4.61,0,0,0-.6-.313c-.116-.058-.7-.241-.661-.785C55.064,241.322,55.054,241.137,55.054,241.137Z" transform="translate(-32.84 -23.267)" fill="#fd0" fill-rule="evenodd"/>
    <path id="Path_2025" data-name="Path 2025" d="M55.054,241.137s1.452.105,1.257,1.433a4.61,4.61,0,0,0-.6-.313c-.116-.058-.7-.241-.661-.785.01-.15,0-.335,0-.335" transform="translate(-32.84 -23.267)" fill="none" stroke="#9a212b" stroke-miterlimit="2.613" stroke-width="0.293" fill-rule="evenodd"/>
    <path id="Path_2026" data-name="Path 2026" d="M53.265,232.145a.95.95,0,0,0-.271,1.1,1.563,1.563,0,0,0,.476.57s.168-.476.271-.821c.037-.14.14-.691-.2-.9A.2.2,0,0,0,53.265,232.145Z" transform="translate(-31.025 -15.51)" fill="#fd0" fill-rule="evenodd"/>
    <path id="Path_2027" data-name="Path 2027" d="M53.265,232.145a.95.95,0,0,0-.271,1.1,1.563,1.563,0,0,0,.476.57s.168-.476.271-.821c.037-.14.14-.691-.2-.9a.2.2,0,0,0-.28.056" transform="translate(-31.025 -15.51)" fill="none" stroke="#9a212b" stroke-miterlimit="2.613" stroke-width="0.293" fill-rule="evenodd"/>
    <path id="Path_2028" data-name="Path 2028" d="M54.184,226.456s-.419-1.231,1.082-1.566a.723.723,0,0,1-.214.97C54.9,226,54.278,226.316,54.184,226.456Z" transform="translate(-32.055 -9.353)" fill="#fd0" fill-rule="evenodd"/>
    <path id="Path_2029" data-name="Path 2029" d="M54.184,226.456s-.419-1.231,1.082-1.566a.723.723,0,0,1-.214.97c-.149.14-.773.457-.867.6" transform="translate(-32.055 -9.353)" fill="none" stroke="#9a212b" stroke-miterlimit="2.613" stroke-width="0.293" fill-rule="evenodd"/>
    <path id="Path_2030" data-name="Path 2030" d="M61.663,218.608s-1.556-.036-1.492,1.358a4.087,4.087,0,0,0,1.238-.589A1.122,1.122,0,0,0,61.663,218.608Z" transform="translate(-37.194 -4.007)" fill="#fd0" fill-rule="evenodd"/>
    <path id="Path_2031" data-name="Path 2031" d="M61.663,218.608s-1.556-.036-1.492,1.358a4.087,4.087,0,0,0,1.238-.589,1.122,1.122,0,0,0,.254-.769" transform="translate(-37.194 -4.007)" fill="none" stroke="#9a212b" stroke-miterlimit="2.613" stroke-width="0.293" fill-rule="evenodd"/>
  </g>
</svg>
