<svg xmlns="http://www.w3.org/2000/svg" xmlns:xlink="http://www.w3.org/1999/xlink" width="300" height="358.923" viewBox="0 0 300 358.923">
  <defs>
    <linearGradient id="linear-gradient" x1="0.475" y1="0.169" x2="0.541" y2="0.973" gradientUnits="objectBoundingBox">
      <stop offset="0.02" stop-color="#fff" stop-opacity="0"/>
      <stop offset="0.39" stop-color="#fff" stop-opacity="0.388"/>
      <stop offset="1" stop-color="#fff"/>
    </linearGradient>
    <linearGradient id="linear-gradient-2" x1="0.551" y1="-3.306" x2="0.48" y2="2.002" gradientUnits="objectBoundingBox">
      <stop offset="0.01"/>
      <stop offset="0.83" stop-opacity="0.071"/>
      <stop offset="1" stop-opacity="0"/>
    </linearGradient>
    <linearGradient id="linear-gradient-3" x1="0.345" y1="-0.221" x2="0.696" y2="1.713" xlink:href="#linear-gradient-2"/>
    <linearGradient id="linear-gradient-4" x1="0.885" y1="1.732" x2="0.398" y2="0.014" xlink:href="#linear-gradient-2"/>
    <linearGradient id="linear-gradient-5" x1="6.003" y1="0.55" x2="-1.173" y2="0.487" xlink:href="#linear-gradient-2"/>
    <linearGradient id="linear-gradient-6" x1="1.711" y1="-0.078" x2="0.187" y2="0.619" xlink:href="#linear-gradient-2"/>
    <linearGradient id="linear-gradient-7" x1="0.529" y1="-1.269" x2="0.463" y2="2.001" xlink:href="#linear-gradient-2"/>
    <linearGradient id="linear-gradient-8" x1="0.406" y1="-0.629" x2="0.537" y2="0.97" xlink:href="#linear-gradient-2"/>
    <linearGradient id="linear-gradient-9" x1="0.336" y1="-0.281" x2="0.534" y2="0.984" xlink:href="#linear-gradient"/>
    <linearGradient id="linear-gradient-10" x1="0.303" y1="-0.333" x2="0.541" y2="1.016" xlink:href="#linear-gradient"/>
    <linearGradient id="linear-gradient-11" x1="0.384" y1="-2.2" x2="0.688" y2="4.746" xlink:href="#linear-gradient-2"/>
    <linearGradient id="linear-gradient-12" x1="0.381" y1="-2.3" x2="0.684" y2="4.672" xlink:href="#linear-gradient-2"/>
    <linearGradient id="linear-gradient-13" x1="0.503" y1="1.278" x2="0.497" y2="-0.407" xlink:href="#linear-gradient-2"/>
  </defs>
  <g id="chef" transform="translate(0.002 -0.003)">
    <path id="Path_2302" data-name="Path 2302" d="M134.968,353.846c22.307,9.005,47.108,7.975,71.1,6.8,29.881-1.453,62.234-3.936,84.49-24.337,20.144-18.464,27.1-47.181,35.527-73.486,15.528-48.582,39.721-97.617,31.715-148.054C352.643,82.643,334.1,53.38,308.832,33.7s-57.021-30-88.766-31.127c-13.5-.474-27.5.783-39.37,7.388C172.37,14.6,165.57,21.6,159.058,28.692a511.523,511.523,0,0,0-68.818,95.6C75.557,150.585,62.976,178.9,59.885,209,54.867,257.517,87.612,334.794,134.968,353.846Z" transform="translate(-59.38 -2.48)" fill="#00a859" opacity="0.18"/>
    <path id="Path_2303" data-name="Path 2303" d="M236.495,90.093c0-6.9,2.2-13.8.952-20.58-1.337-7.322-6.583-14.179-4.993-21.481,1.013-4.537,4.466-8.1,7.8-11.3l6.411-6.259a8.273,8.273,0,0,1,2.451-1.874,8.416,8.416,0,0,1,3.14-.466q9.986-.182,19.962.2c5.51.2,11.718.891,15.121,5.226,3.038,3.93,2.724,9.5,1.651,14.371s-2.724,9.834-1.752,14.726c1.236,6.208,6.614,11.961,4.74,18.007-.81,2.643-2.917,4.709-3.909,7.292-.82,2.127-.932,4.649-2.552,6.249a8.74,8.74,0,0,1-4.051,1.864c-10.634,2.816-21.268,6.36-31.943,8.892C240.738,107.057,236.464,97.932,236.495,90.093Z" transform="translate(-53.354 -2.153)" fill="url(#linear-gradient)"/>
    <ellipse id="Ellipse_389" data-name="Ellipse 389" cx="74.075" cy="13.43" rx="74.075" ry="13.43" transform="translate(72.866 312.887)" fill="url(#linear-gradient-2)"/>
    <path id="Path_2304" data-name="Path 2304" d="M192.955,302.59s1.6,10.482.739,11.677-5.894.79-8.994.111-3.849-4.7-3.849-4.7l-.213-3.3Z" transform="translate(-55.597 7.482)" fill="#f7af81"/>
    <path id="Path_2305" data-name="Path 2305" d="M234.352,299s2.026,12.822,1.337,13.936-5.439.942-8.2.608-3.119-7.343-3.119-7.343l-.466-2.866Z" transform="translate(-54.262 7.436)" fill="#f7af81"/>
    <path id="Path_2306" data-name="Path 2306" d="M193.762,54.821a8.22,8.22,0,0,0,.851,1.509c1.063,1.874.547,4.426,1.863,6.137.324-1.377,3.038-11.06,1.752-11.688-.3-.152-1.9,1.185-2.279,1.357C194.795,52.634,193.184,53.029,193.762,54.821Z" transform="translate(-55.263 -1.863)" fill="#7d3b3d"/>
    <path id="Path_2307" data-name="Path 2307" d="M228.138,175.455l2.633,53.738,5.064,74.46s-2.907,3.484-11.272,3.6l-15.05-75.777-7.089-38.486-6.077,37.564L193.8,308.8s-5.9.122-13.581.81l-4.973-77.154,4.922-59.754Z" transform="translate(-55.334 5.821)" fill="#00a859"/>
    <path id="Path_2308" data-name="Path 2308" d="M228.138,175.455l2.633,53.738,5.064,74.46s-2.907,3.484-11.272,3.6l-15.05-75.777-7.089-38.486-6.077,37.564L193.8,308.8s-5.9.122-13.581.81l-4.973-77.154,4.922-59.754Z" transform="translate(-55.334 5.821)" fill="url(#linear-gradient-3)"/>
    <path id="Path_2309" data-name="Path 2309" d="M185.6,89.5l-4.608,25.472h0c-.415.273-13.622,9.237-15.192,11.3s-8.264,4.841-10.553,5.246-7.383-3.95-6.563-10.594S176.026,92.265,178.8,90.7,185.6,89.5,185.6,89.5Z" transform="translate(-56.446 0.369)" fill="#fff"/>
    <path id="Path_2310" data-name="Path 2310" d="M182.62,102.46l-1.631,12.346h0c-.415.273-13.622,9.237-15.192,11.3s-8.264,4.841-10.553,5.246-7.383-3.95-6.563-10.594l14.179-2.026Z" transform="translate(-56.466 0.713)" fill="url(#linear-gradient-4)"/>
    <path id="Path_2311" data-name="Path 2311" d="M237.006,206.212c0,.405-.4.76-1.013,1.063-4.345,2.086-21.522,1.691-32.126.618-1.013-.1-1.317-14.7-1.317-14.7s-3.727,14.068-4.578,13.9c-9.176-1.742-24.844-3.545-24.844-3.545a237.294,237.294,0,0,0,6.806-45.839c1.347-30.961-1.823-66.743-.82-67.553,1.813-1.458,19.354-6.907,19.354-6.907l18.23,1.58,2.238,1.013c3.849,1.7,11.424,5.064,12.579,6.077.061,0,.1.223.142.517.122.912.182,2.967.213,5.915.071,6.887,0,18.625.061,32.044v4.314c.081,9.642.273,19.962.658,29.847C233.32,182.989,237.108,204.825,237.006,206.212Z" transform="translate(-55.372 0.757)" fill="#fff"/>
    <path id="Path_2312" data-name="Path 2312" d="M236.39,205.791c0,.405-.395.76-1.013,1.063a137.727,137.727,0,0,1-13.774,1.013l2.37-13.308-2.664-68.869,6.806-9.459,3.16,13.754c0,10.847.223,22.8.679,34.161C232.7,182.567,236.492,204.4,236.39,205.791Z" transform="translate(-54.309 1.676)" fill="url(#linear-gradient-5)"/>
    <path id="Path_2313" data-name="Path 2313" d="M246.1,140.914c-1.712,2.532-5.388,3.221-8.2,2.026a11.14,11.14,0,0,1-5.834-6.725,9.772,9.772,0,0,0-.81-1.681c-1.408-2.41-3.666-4.953-3.768-7.414-.273-5.844-2.441-11.677-2.451-17.531,0-4.507,3.038-9.368,4.669-14a19.563,19.563,0,0,0,.9-3.342,1.387,1.387,0,0,1,.354,0c2.228.284,4.963,5.3,5.8,6.958a36.932,36.932,0,0,1,3.038,9.3c1.3,6.472,2.532,9.561,5.064,15.637.9,2.127,1.205,7.829,1.823,10.057A8.1,8.1,0,0,1,246.1,140.914Z" transform="translate(-54.113 0.514)" fill="#fff"/>
    <path id="Path_2314" data-name="Path 2314" d="M245.03,124.256l-4.811,6.077s-3.1-8.882-3.97-13.1c-.79-3.727-3.312-14.392-4.963-18.959a13.561,13.561,0,0,0-.587-1.448,5.062,5.062,0,0,0-.881-1.134c-3.3-3.312-13.318-8.4-13.318-8.4l1.853-1.519c3.849,1.7,11.424,5.064,12.579,6.077.061,0,.1.223.142.517,2.228.284,4.963,5.3,5.8,6.958a36.937,36.937,0,0,1,3.038,9.3C241.212,115.09,242.448,118.179,245.03,124.256Z" transform="translate(-54.313 0.261)" fill="url(#linear-gradient-6)"/>
    <path id="Path_2315" data-name="Path 2315" d="M216.911,71.662s-1.165,8.487-.233,11.627S213.3,95.837,206.9,96.455s-7.373-10.29-7.495-11.566,1.752-2.1.82-5.236S215.929,67.884,216.911,71.662Z" transform="translate(-54.972 -0.313)" fill="#f7af81"/>
    <path id="Path_2316" data-name="Path 2316" d="M200.223,79.612a16.9,16.9,0,0,1-.263,7.768c1.691,1.286,3.251,3.494,5.064,3.322,3.828-.344,9.3-8.9,11.333-14.878a1.405,1.405,0,0,1,.1-.334c.182-2.147.405-3.828.405-3.828C215.922,67.884,199.3,76.473,200.223,79.612Z" transform="translate(-54.96 -0.336)" fill="#f69771"/>
    <path id="Path_2317" data-name="Path 2317" d="M241.79,131.48" transform="translate(-53.84 1.437)" fill="none" stroke="#000" stroke-miterlimit="10" stroke-width="0.55"/>
    <path id="Path_2318" data-name="Path 2318" d="M196.089,53.375s-1.448,16.681-.213,21.177,5.064,8.4,8.9,8.437,9.662-3.109,12.285-8.862,4.051-19.851,3.433-21.785-4.436-8.042-14.7-7.211C198.743,45.7,196.119,50.813,196.089,53.375Z" transform="translate(-55.026 -1.936)" fill="#f7af81"/>
    <path id="Path_2319" data-name="Path 2319" d="M217.79,62.688s.294-3.9,2.967-2.846.111,8.366-1.114,9.115a3.615,3.615,0,0,1-1.853.719" transform="translate(-54.53 7.417)" fill="#f7af81"/>
    <path id="Path_2320" data-name="Path 2320" d="M159.515,127.651s5.945-1.61,3.869-10.594S153.8,81.61,153.8,81.61l-6.8,5.459s-2.36,36.329,2.6,39.5A11.3,11.3,0,0,0,159.515,127.651Z" transform="translate(-56.64 0.135)" fill="#f7af81"/>
    <path id="Path_2321" data-name="Path 2321" d="M153.86,81.83s1.013-4.7.527-5.955-5.449-10.26-7.4-8.953-4.75,9.986-4.973,10.573,5.054,9.763,5.054,9.763Z" transform="translate(-56.806 -0.457)" fill="#f7af81"/>
    <path id="Path_2322" data-name="Path 2322" d="M247.5,139.885l16.883-22.98-.5-13.855-28.054,28.885a7.09,7.09,0,0,0,1.934,11.141l2.086.213a8.365,8.365,0,0,0,7.646-3.4Z" transform="translate(-53.726 0.802)" fill="#f7af81"/>
    <path id="Path_2323" data-name="Path 2323" d="M261.833,117.871a27.238,27.238,0,0,0,4.618-1.388c1.236-.658,5.165-14.685,4.051-15.617s-5.732-3.565-7.019-2.714-8.224,7.515-8.224,7.515S257.225,119.269,261.833,117.871Z" transform="translate(-53.241 0.521)" fill="#f7af81"/>
    <path id="Path_2324" data-name="Path 2324" d="M198.16,83.266,199.872,82s2.026,10.28,5.692,11.313c0,0,5.844,2.289,10.867-11.141l1.924,3.879s-3.555,8.426-5.469,9.318-7.454,6.259-12.427-.891C198.1,91.044,198.16,83.266,198.16,83.266Z" transform="translate(-54.986 0.002)" fill="#00a859"/>
    <path id="Path_2325" data-name="Path 2325" d="M198.16,83.266,199.872,82s2.026,10.28,5.692,11.313c0,0,5.844,2.289,10.867-11.141l1.924,3.879s-3.555,8.426-5.469,9.318-7.454,6.259-12.427-.891C198.1,91.044,198.16,83.266,198.16,83.266Z" transform="translate(-54.986 0.002)" fill="url(#linear-gradient-7)"/>
    <path id="Path_2326" data-name="Path 2326" d="M156.891,71.272a12.6,12.6,0,0,0,2.421-2.937.739.739,0,0,0,.081-.557.648.648,0,0,0-.273-.273,2.866,2.866,0,0,0-2.826,0,4.446,4.446,0,0,0-1.9,2.2,3.393,3.393,0,0,1-.587,1.084,2.654,2.654,0,0,1-2.36.395.952.952,0,0,0-.608,0c-.314.162-.355.587-.324.942.091,1.1,1.489,4.861,3.109,4.578.668-.122,1.013-2.026,1.286-2.562a12.772,12.772,0,0,1,1.985-2.866Z" transform="translate(-56.563 -0.485)" fill="#f7af81"/>
    <path id="Path_2327" data-name="Path 2327" d="M195.979,52.326s14.179-4.821,25.006,6.715l1.165-15.364a18.919,18.919,0,0,0,5.175-1.256c3.251-1.185,5.064-8.274.881-9.459a8.71,8.71,0,0,0-7.393,1.479s3.555-7.393-5.986-7.393c0,0-4.659.881-5.54,3.99,0,0-3.109-6.431-8.426-3.99s-4.659,5.317-4.659,5.317-3.778-1.55-4.882.446-1.59,5.135,2.026,5.55c5.763.658,4.588,1.843,4.588,1.843Z" transform="translate(-55.034 -2.173)" fill="#fff"/>
    <path id="Path_2328" data-name="Path 2328" d="M216.65,66.238a26.677,26.677,0,0,0,3.393-6.482,2.725,2.725,0,0,0,1.408,1.185,1.418,1.418,0,0,0,1.641-.557,1.4,1.4,0,0,0-.263-1.57,2.552,2.552,0,0,0-1.489-.739.79.79,0,0,1-.435-.172c-.263-.284,0-.78-.152-1.1a.871.871,0,0,0-.476-.284c-.922-.3-2.36-1.013-3.251-1.215-.466,1.489.557,3.646.446,5.277A39.5,39.5,0,0,1,216.65,66.238Z" transform="translate(-54.541 6.688)" fill="#7d3b3d"/>
    <path id="Path_2329" data-name="Path 2329" d="M218.569,74.843a5.066,5.066,0,0,1-.273,1.276,5.236,5.236,0,0,1-1.833,2.026.881.881,0,0,1-.375.192.577.577,0,0,1-.567-.506,1.549,1.549,0,0,1,.142-.82l1.965-5.57a7.856,7.856,0,0,0,.365-1.266,1.915,1.915,0,0,1,.142-.587c.142-.273.638-.668,1.013-.486s.061,1.215,0,1.56Z" transform="translate(-54.603 -0.427)" fill="#7d3b3d"/>
    <path id="Path_2330" data-name="Path 2330" d="M175.02,108.1l60.97-14.118L225.811,93.3l-44.147,10.543Z" transform="translate(6.117 2.905)" fill="#00a859"/>
    <path id="Path_2331" data-name="Path 2331" d="M175.02,108.1l60.97-14.118L225.811,93.3l-44.147,10.543Z" transform="translate(6.117 2.905)" fill="url(#linear-gradient-8)"/>
    <path id="Path_2332" data-name="Path 2332" d="M241.007,106.536s-4.841-21.684,14.179-25.816c23.507-5.064,29.887,15.273,29.887,15.273Z" transform="translate(-53.313 -0.018)" fill="#00a859"/>
    <path id="Path_2333" data-name="Path 2333" d="M285.114,95.993l-44.107,10.543s-4.841-21.684,14.179-25.816c1.124-.243,2.208-.425,3.251-.557,19.243-2.451,25.634,13.035,26.525,15.5Z" transform="translate(-53.313 -0.018)" fill="url(#linear-gradient-9)"/>
    <path id="Path_2334" data-name="Path 2334" d="M284.886,95.659,249.3,104.166s-3.869-17.43,9.115-24C277.564,77.712,283.995,93.167,284.886,95.659Z" transform="translate(-53.164 -0.028)" fill="url(#linear-gradient-10)"/>
    <circle id="Ellipse_390" data-name="Ellipse 390" cx="2.066" cy="2.066" r="2.066" transform="translate(198.796 76.706)" fill="#00a859"/>
    <path id="Path_2335" data-name="Path 2335" d="M167.1,313.329c-1.762.668-3.626,1.7-3.626,3.96a4.051,4.051,0,0,0,.871,2.461c2.157,2.9,6.148,3.038,9.652,2.9a117.474,117.474,0,0,0,19.435-2.633,2.653,2.653,0,0,0,1.205-.5,2.451,2.451,0,0,0,.608-1.357,19.568,19.568,0,0,0,.2-6.695,1.175,1.175,0,0,0-1.894-.76,6.553,6.553,0,0,1-4.527,1.479c-3.9-.253-5.388-3.666-9.368-2.5C175.512,310.888,171.1,311.79,167.1,313.329Z" transform="translate(-55.995 7.569)" fill="#00a859"/>
    <path id="Path_2336" data-name="Path 2336" d="M208.6,312.128c-1.762.668-3.626,1.7-3.636,3.95a4.153,4.153,0,0,0,.881,2.471c2.147,2.9,6.148,3.038,9.652,2.886a117.474,117.474,0,0,0,19.435-2.633,2.552,2.552,0,0,0,1.205-.5,2.39,2.39,0,0,0,.608-1.357,19.709,19.709,0,0,0,.192-6.765,1.134,1.134,0,0,0-1.833-.729,6.542,6.542,0,0,1-4.578,1.58c-3.9-.263-5.4-3.666-9.368-2.512C217.012,309.688,212.637,310.589,208.6,312.128Z" transform="translate(-54.645 7.555)" fill="#00a859"/>
    <path id="Path_2337" data-name="Path 2337" d="M167.1,313.329c-1.762.668-3.626,1.7-3.626,3.96a4.051,4.051,0,0,0,.871,2.461c2.157,2.9,6.148,3.038,9.652,2.9a117.474,117.474,0,0,0,19.435-2.633,2.653,2.653,0,0,0,1.205-.5,2.451,2.451,0,0,0,.608-1.357,19.568,19.568,0,0,0,.2-6.695,1.175,1.175,0,0,0-1.894-.76,6.553,6.553,0,0,1-4.527,1.479c-3.9-.253-5.388-3.666-9.368-2.5C175.512,310.888,171.1,311.79,167.1,313.329Z" transform="translate(-55.995 7.569)" fill="url(#linear-gradient-11)"/>
    <path id="Path_2338" data-name="Path 2338" d="M208.6,312.128c-1.762.668-3.626,1.7-3.636,3.95a4.153,4.153,0,0,0,.881,2.471c2.147,2.9,6.148,3.038,9.652,2.886a117.474,117.474,0,0,0,19.435-2.633,2.552,2.552,0,0,0,1.205-.5,2.39,2.39,0,0,0,.608-1.357,19.709,19.709,0,0,0,.192-6.765,1.134,1.134,0,0,0-1.833-.729,6.542,6.542,0,0,1-4.578,1.58c-3.9-.263-5.4-3.666-9.368-2.512C217.012,309.688,212.637,310.589,208.6,312.128Z" transform="translate(-54.645 7.555)" fill="url(#linear-gradient-12)"/>
    <circle id="Ellipse_391" data-name="Ellipse 391" cx="1.256" cy="1.256" r="1.256" transform="translate(144.613 106.635)" fill="#00a859"/>
    <circle id="Ellipse_392" data-name="Ellipse 392" cx="1.256" cy="1.256" r="1.256" transform="translate(142.129 123.412)" fill="#00a859"/>
    <circle id="Ellipse_393" data-name="Ellipse 393" cx="1.256" cy="1.256" r="1.256" transform="translate(141.676 143.568)" fill="#00a859"/>
    <circle id="Ellipse_394" data-name="Ellipse 394" cx="1.256" cy="1.256" r="1.256" transform="translate(142.428 160.19)" fill="#00a859"/>
    <circle id="Ellipse_395" data-name="Ellipse 395" cx="1.256" cy="1.256" r="1.256" transform="translate(142.727 185.015)" fill="#00a859"/>
    <path id="Path_2339" data-name="Path 2339" d="M228.21,162.831a9.236,9.236,0,0,1,4.406.6c1.347.679,2.35,2.289,1.8,3.687a8.164,8.164,0,0,1-1.438,1.924c-1.377,1.793-1.428,4.233-1.408,6.5l.486,66.469c0,2.269-.223,4.993-2.228,6.077a6.159,6.159,0,0,1-2.876.5q-25.573.324-51.136.537c-1.772,0-3.869-.142-4.77-1.671a5.065,5.065,0,0,1-.5-2.421,307.663,307.663,0,0,1,7.4-78.45,5.307,5.307,0,0,1,1.205-2.724c1.013-1.013,6.664.213,8.183.182,4.608-.081,9.206-.263,13.8-.4Z" transform="translate(-55.466 3.301)" fill="#00a859"/>
    <path id="Path_2340" data-name="Path 2340" d="M228.21,162.831a9.236,9.236,0,0,1,4.406.6c1.347.679,2.35,2.289,1.8,3.687a8.164,8.164,0,0,1-1.438,1.924c-1.377,1.793-1.428,4.233-1.408,6.5l.486,66.469c0,2.269-.223,4.993-2.228,6.077a6.159,6.159,0,0,1-2.876.5q-25.573.324-51.136.537c-1.772,0-3.869-.142-4.77-1.671a5.065,5.065,0,0,1-.5-2.421,307.663,307.663,0,0,1,7.4-78.45,5.307,5.307,0,0,1,1.205-2.724c1.013-1.013,6.664.213,8.183.182,4.608-.081,9.206-.263,13.8-.4Z" transform="translate(-55.466 3.301)" fill="url(#linear-gradient-13)"/>
  </g>
</svg>
