<svg xmlns="http://www.w3.org/2000/svg" width="265.034" height="326.906" viewBox="0 0 265.034 326.906"><defs><style>.a{fill:#e0e0e0;}.b{fill:#ebebeb;}.c{fill:#f5f5f5;}.d{fill:#1bbc6f;}.e,.f{opacity:0.8;}.f,.n,.q,.s{fill:#fff;}.g{fill:#ffbe9d;}.h{fill:#263238;}.i{fill:#fafafa;}.j{fill:#455a64;}.k,.l{opacity:0.4;}.m,.n{opacity:0.6;}.o{fill:#eb996e;}.p,.q{opacity:0.2;}.r,.s,.t{opacity:0.3;}</style></defs><g transform="translate(-80.783 -34.854)"><path class="a" d="M332.18,88.235h48.972s-4.327-7.88-16.937-6.7c-12.036,1.095-12.662-3.881-18.769-4.469S334.221,81.092,332.18,88.235Z" transform="translate(-64.151 -10.758)"/><path class="b" d="M159.756,265.67s-4.908,2.652,2.234,12.9a144.128,144.128,0,0,0,11.79,15.165s1.356,2.421-.745,3.113-6.949.6-7.545,3.359c-.618,2.875,1.728,5.214,6.063,6.89s13.7,5.795,14.546,6.167,1.765,1.452.41,2.153-11.865,3.285-10.346,8.193,14.39,7.687,15.79,8.014,1.8.849,1.788,1.594-3.62,1.281-6.584,2.138-6.242,2.376-5.124,5.139,9.206,7.776,27.067,7.068l8.253-.864,3.516-7.56c6.532-16.632,4.469-25.92,2.234-27.886s-4.752.641-6.532,3.158-3.478,5.75-4.186,5.512-1.065-.782-.916-2.234,1.765-14.494-2.376-17.548-10.04,6.018-11.172,7.068-1.825-.186-1.9-1.095-.857-11.105-1.043-15.768-1.594-7.627-4.506-7.984-4.305,4.26-5.653,6.018-3.188-.32-3.188-.32A146.494,146.494,0,0,0,171.2,271.941c-7.307-10.115-11.545-6.2-11.545-6.2" transform="translate(-19.732 -58.728)"/><path class="a" d="M220.8,351.96c-5.355-7.448-14.643-20.855-22.68-32.318s-15.314-21.831-20.632-29.309c-2.659-3.724-4.8-6.748-6.3-8.841l-1.713-2.413-.439-.626c-.1-.141-.142-.223-.142-.223s.06.067.164.209l.462.611,1.75,2.383c1.49,2.063,3.724,5.072,6.368,8.8,5.355,7.448,12.662,17.8,20.691,29.264s17.3,24.884,22.62,32.355" transform="translate(-22.483 -62.105)"/><path class="a" d="M177.119,312.83a3.146,3.146,0,0,1,.6.082c.38.067.924.179,1.6.328,1.348.29,3.2.745,5.214,1.281l5.214,1.393,1.579.417a2.447,2.447,0,0,1,.574.171,2.725,2.725,0,0,1-.6-.074c-.38-.067-.924-.179-1.6-.335-1.341-.305-3.188-.745-5.214-1.318l-5.214-1.356-1.579-.41a2.249,2.249,0,0,1-.574-.179Z" transform="translate(-24.583 -70.934)"/><path class="a" d="M197.618,311.118c-.074,0,.693-3.873,1.706-8.61s1.9-8.573,1.966-8.558-.693,3.866-1.713,8.61S197.685,311.118,197.618,311.118Z" transform="translate(-29.813 -66.116)"/><path class="a" d="M213.119,336.538a2.506,2.506,0,0,1,.261-.551l.79-1.49c.663-1.236,1.579-2.979,2.51-4.886s1.735-3.724,2.294-4.983l.67-1.527a2.111,2.111,0,0,1,.276-.551,3.326,3.326,0,0,1-.179.588c-.134.372-.335.9-.6,1.557-.521,1.311-1.289,3.1-2.234,5.035s-1.884,3.635-2.585,4.856c-.358.6-.655,1.095-.864,1.423A3.275,3.275,0,0,1,213.119,336.538Z" transform="translate(-33.769 -73.414)"/><path class="a" d="M193.76,341.522a1.862,1.862,0,0,1,.559-.067l1.542-.089c1.3-.067,3.091-.134,5.072-.2s3.776-.1,5.08-.119h1.542a3.271,3.271,0,0,1,.566,0,2.139,2.139,0,0,1-.566.074l-1.534.089c-1.3.06-3.1.134-5.08.194s-3.776.1-5.08.119h-1.534a2.483,2.483,0,0,1-.566,0Z" transform="translate(-28.829 -78.131)"/><path class="a" d="M204.709,364.729a3.431,3.431,0,0,1,.745-.082l1.974-.119c1.661-.089,3.962-.2,6.5-.305s4.841-.179,6.5-.223l1.974-.045a4.612,4.612,0,0,1,.745,0,4.547,4.547,0,0,1-.745.082l-1.974.119c-1.661.089-3.962.2-6.5.305s-4.841.179-6.5.223l-1.974.045a4.605,4.605,0,0,1-.745,0Z" transform="translate(-31.623 -83.976)"/><path class="a" d="M228.811,357.65a4.54,4.54,0,0,1,.313-.708l.938-1.9c.79-1.6,1.862-3.813,2.979-6.294s2.085-4.745,2.771-6.4l.812-1.951a5.031,5.031,0,0,1,.32-.7,3.939,3.939,0,0,1-.231.745c-.164.477-.41,1.154-.745,1.981-.641,1.668-1.579,3.955-2.7,6.435s-2.234,4.692-3.061,6.271c-.417.789-.745,1.43-1.013,1.862a5.22,5.22,0,0,1-.38.655Z" transform="translate(-37.774 -77.791)"/><path class="c" d="M319.393,194.1c-8.863-9.943-8.014-24.3-4.655-36.578.559-2.056.849-4.29,2.234-5.869s4.007-2.279,5.653-.968c1.363,1.087,1.609,3.031,2.115,4.715a12.433,12.433,0,0,0,3.724,5.78,4.746,4.746,0,0,0,4.156,1.393c2.018-.566,2.808-2.979,3.285-5.042q1.318-5.757,2.652-11.515a19.98,19.98,0,0,1,2.063-5.959,6.6,6.6,0,0,1,5.035-3.359c2.056-.082,4.238,1.616,4.171,3.724a19.519,19.519,0,0,1-.544,2.577,2.236,2.236,0,0,0,.782,2.331,2.537,2.537,0,0,0,2.48-.41,27.928,27.928,0,0,0,6.666-6.249,38.639,38.639,0,0,1,6.391-6.562,11.4,11.4,0,0,1,8.536-2.443c2.987.536,5.69,3.1,5.75,6.16s-2.324,5.623-4.722,7.53a47.2,47.2,0,0,1-11.679,6.845,3.855,3.855,0,0,0-2,1.341c-.745,1.266.2,2.935,1.445,3.724,1.415.871,3.113,1.11,4.677,1.676s3.128,1.691,3.374,3.344c.343,2.3-1.937,4.089-4.007,5.124a40.541,40.541,0,0,1-13.213,3.948,13.76,13.76,0,0,0-4.826,1.073c-1.475.767-2.644,2.45-2.234,4.074s2.175,2.54,3.828,2.614a29.243,29.243,0,0,0,4.923-.648c3.076-.4,6.7.655,7.91,3.53a6.706,6.706,0,0,1-.67,5.959,15.374,15.374,0,0,1-4.32,4.342,40.67,40.67,0,0,1-19.693,7.865c-7.091.745-13.317-.1-19.268-4.029" transform="translate(-59.096 -24.16)"/><path class="a" d="M324.221,196.242c1.609-4.8-.074-2.391,3.24-8.193a189.22,189.22,0,0,1,12.014-18.114q1.713-2.324,3.389-4.581c1.117-1.49,2.234-2.979,3.4-4.387a95.711,95.711,0,0,1,7.2-7.6c2.406-2.309,4.774-4.409,7.009-6.361s4.35-3.724,6.346-5.251a75.574,75.574,0,0,1,9.958-6.532c1.229-.678,2.234-1.169,2.868-1.49l.745-.365.261-.112a1.5,1.5,0,0,1-.246.149l-.745.4c-.655.35-1.616.864-2.83,1.557A78.752,78.752,0,0,0,366.981,142c-1.981,1.542-4.082,3.322-6.3,5.273s-4.573,4.067-6.971,6.376a97.784,97.784,0,0,0-7.158,7.582c-1.162,1.385-2.234,2.868-3.374,4.372l-3.389,4.581a194.825,194.825,0,0,0-12.007,18.032c-3.322,5.787-1.654,3.344-3.292,8.111" transform="translate(-62.12 -25.111)"/><path class="a" d="M353.991,162.485a4.789,4.789,0,0,1,0-.924c0-.6.1-1.49.194-2.51.194-2.123.566-5.035.983-8.245s.745-6.122.9-8.238c.082-1.058.142-1.907.179-2.5a4.075,4.075,0,0,1,.1-.916,4.511,4.511,0,0,1,.052.924c0,.588,0,1.49-.052,2.51-.089,2.13-.372,5.057-.8,8.275s-.8,6.033-1.087,8.193c-.127.991-.231,1.825-.313,2.5a4.268,4.268,0,0,1-.156.938Z" transform="translate(-69.712 -26.614)"/><path class="a" d="M381.535,171.622a5.272,5.272,0,0,1-1.08-.119c-.693-.1-1.7-.253-2.942-.4-2.48-.313-5.959-.618-9.742-.8s-7.277-.179-9.787-.112c-1.251,0-2.234.074-2.979.1a6.555,6.555,0,0,1-1.095,0,5.9,5.9,0,0,1,1.087-.164c.7-.074,1.713-.164,2.979-.223,2.51-.142,5.959-.179,9.817,0a97.461,97.461,0,0,1,9.765.916c1.236.186,2.234.38,2.927.521a5.676,5.676,0,0,1,1.05.276Z" transform="translate(-69.696 -34.432)"/><path class="a" d="M327.346,193.611a1.139,1.139,0,0,1-.1-.365c-.06-.29-.134-.641-.231-1.065-.186-.924-.432-2.234-.708-3.933-.559-3.329-1.184-7.955-1.81-13.072s-1.207-9.742-1.691-13.079c-.238-1.624-.439-2.979-.588-3.948-.06-.432-.112-.79-.156-1.08a2.02,2.02,0,0,1,0-.38,1.427,1.427,0,0,1,.112.365l.223,1.065q.29,1.385.708,3.933c.559,3.329,1.184,7.955,1.81,13.072s1.207,9.742,1.691,13.079c.246,1.624.439,2.979.588,3.955.067.425.112.782.156,1.073A1.542,1.542,0,0,1,327.346,193.611Z" transform="translate(-61.566 -31.09)"/><path class="a" d="M366.963,202.226a1.242,1.242,0,0,1-.38.06l-1.1.1-4.052.328c-3.419.276-8.141.745-13.355,1.207s-9.951.886-13.407,1.095c-1.713.1-3.1.171-4.059.2h-1.1a1.3,1.3,0,0,1-.387,0,1.525,1.525,0,0,1,.38-.06l1.1-.1,4.052-.328c3.419-.276,8.141-.745,13.355-1.207s9.943-.886,13.407-1.087c1.721-.1,3.106-.179,4.067-.209h1.1a1.544,1.544,0,0,1,.38,0Z" transform="translate(-63.37 -42.707)"/><path class="a" d="M404.668,304a1.616,1.616,0,0,1-.119.35l-.41.991c-.38.894-.916,2.153-1.586,3.724l-5.743,13.28-.037.074h-.082L378.651,325.4l-6.048.991-.276.045.067-.268c1.49-5.8,2.823-11.172,3.977-15.678l.082.171-10.6-4.737-2.927-1.333-.745-.358a1.32,1.32,0,0,1-.253-.142l.268.1.782.32,2.979,1.259,10.651,4.618.119.052v.119c-1.132,4.543-2.465,9.891-3.91,15.7l-.209-.223,6.048-1,18.047-2.935-.127.1,5.862-13.221c.708-1.579,1.274-2.83,1.676-3.724l.447-.976a2.409,2.409,0,0,1,.1-.276Z" transform="translate(-71.743 -68.681)"/><path class="a" d="M377.862,331.089l-.5,1.3.79,1.147-1.385-.067-.842,1.1-.365-1.341-1.311-.462,1.162-.76.037-1.385,1.08.871Z" transform="translate(-74.887 -75.474)"/><path class="a" d="M361.856,302.918l-.246.648.387.566-.685-.037-.417.551-.186-.663-.648-.231.573-.38.022-.693.536.432Z" transform="translate(-71.266 -68.344)"/><path class="a" d="M408.824,327.481l-.246.648.387.566-.685-.03-.417.551-.186-.67-.648-.223.574-.38.015-.693.544.432Z" transform="translate(-83.251 -74.614)"/><path class="a" d="M381.715,311.888l-.246.641.395.574-.693-.037-.417.551-.179-.67-.655-.223.581-.38.015-.693.536.432Z" transform="translate(-76.334 -70.633)"/><path class="a" d="M419.824,303.051l-.246.648.395.566-.693-.03-.417.551-.179-.67-.655-.231.581-.372.015-.693.536.432Z" transform="translate(-86.058 -68.38)"/><path class="a" d="M117.34,372.833h39s-3.449-6.279-13.489-5.363c-9.586.871-10.07-3.091-14.949-3.575S118.971,367.143,117.34,372.833Z" transform="translate(-9.329 -83.954)"/><path class="c" d="M127.74,166.716h38.991s-3.449-6.271-13.489-5.363c-9.578.879-10.07-3.084-14.941-3.568S129.364,161.033,127.74,166.716Z" transform="translate(-11.982 -31.359)"/><path class="c" d="M393.619,203.672h32.027s-2.83-5.154-11.075-4.409c-7.88.745-8.282-2.532-12.282-2.935S394.952,199,393.619,203.672Z" transform="translate(-79.829 -41.196)"/><path class="d" d="M275.928,258.827c1.594-12-6.845-21.905-17.392-27.856s-22.784-7.962-34.433-11.254c-10.986-3.121-21.913-7.679-30.046-15.693s-13.019-20.058-10.1-31.1c.745-2.771,2.048-5.556,4.432-7.158s6.011-1.557,7.791.693c3.784,4.8-3.59,13.407,1.028,17.384,1.058.924,2.517,1.259,3.612,2.13,2.912,2.331,1.974,6.852,2.383,10.562.812,7.336,7.694,12.431,14.45,15.4,9.05,3.977,18.851,5.847,28.445,8.193s19.283,5.333,27.275,11.172,14.941,14.9,14.9,24.8c0,2.763-.365,6.16-2.1,8.3a4.9,4.9,0,0,1-6.443,1.423c-2.5-1.177-4.245-2.979-3.784-6.986" transform="translate(-26.111 -33.123)"/><g class="e" transform="translate(156.995 131.535)"><path class="f" d="M275.928,258.827c1.594-12-6.845-21.905-17.392-27.856s-22.784-7.962-34.433-11.254c-10.986-3.121-21.913-7.679-30.046-15.693s-13.019-20.058-10.1-31.1c.745-2.771,2.048-5.556,4.432-7.158s6.011-1.557,7.791.693c3.784,4.8-3.59,13.407,1.028,17.384,1.058.924,2.517,1.259,3.612,2.13,2.912,2.331,1.974,6.852,2.383,10.562.812,7.336,7.694,12.431,14.45,15.4,9.05,3.977,18.851,5.847,28.445,8.193s19.283,5.333,27.275,11.172,14.941,14.9,14.9,24.8c0,2.763-.365,6.16-2.1,8.3a4.9,4.9,0,0,1-6.443,1.423c-2.5-1.177-4.245-2.979-3.784-6.986" transform="translate(-183.106 -164.658)"/></g><path class="d" d="M239.219,131.735c-.38-4.469,2.935-8.32,6.7-10.39s8.089-2.92,11.969-4.759c9.645-4.573,15.775-15.336,16.23-26.367s-4.335-22.069-11.813-30.173c-3.046-3.292-6.785-6.748-6.83-11.239-.045-4.692,4.469-8.387,9.042-8.327s8.729,3.106,11.448,6.927,4.216,8.357,5.683,12.826c-1.043-1.877,1.095-4.193,3.165-3.992s3.724,1.922,4.968,3.635a38.8,38.8,0,0,1,7.448,25.957,36.57,36.57,0,0,1-11.545,23.79c-7.351,6.7-17.071,9.839-26.5,12.818l-19.671,6.2" transform="translate(-40.422 -1.435)"/><g class="e" transform="translate(198.767 39.044)"><path class="f" d="M239.219,131.735c-.38-4.469,2.935-8.32,6.7-10.39s8.089-2.92,11.969-4.759c9.645-4.573,15.775-15.336,16.23-26.367s-4.335-22.069-11.813-30.173c-3.046-3.292-6.785-6.748-6.83-11.239-.045-4.692,4.469-8.387,9.042-8.327s8.729,3.106,11.448,6.927,4.216,8.357,5.683,12.826c-1.043-1.877,1.095-4.193,3.165-3.992s3.724,1.922,4.968,3.635a38.8,38.8,0,0,1,7.448,25.957,36.57,36.57,0,0,1-11.545,23.79c-7.351,6.7-17.071,9.839-26.5,12.818l-19.671,6.2" transform="translate(-239.189 -40.479)"/></g><path class="d" d="M230.992,37.412a4.185,4.185,0,1,0,.685-.216" transform="translate(-37.669 -0.572)"/><g class="e" transform="translate(190.733 36.523)"><path class="f" d="M230.992,37.412a4.185,4.185,0,1,0,.685-.216" transform="translate(-228.402 -37.095)"/></g><path class="d" d="M259.657,393.862c-2.413-5-.305-11.232,3.538-15.239s9.087-6.294,14.152-8.528c11.217-4.946,23.089-10.83,28.787-21.674a56.514,56.514,0,0,0,4.1-11.671c2.093-7.716,4.059-16.483-.149-23.283-1.214-1.959-3.031-3.724-5.3-4.1a7.352,7.352,0,0,0-6.823,3.039,15.062,15.062,0,0,0-2.6,7.322c-.626,4.938-.1,9.966-.626,14.9s-2.316,10.2-6.368,13.012c-4.968,3.463-12.051,2.689-16.87,6.346-3.9,2.979-5.378,8.074-8.416,11.917-2.562,3.21-6.145,5.4-9.422,7.873s-6.45,5.482-7.567,9.437a11.172,11.172,0,0,0,15.559,13.131" transform="translate(-42.076 -70.029)"/><g class="e" transform="translate(203.594 239.254)"><path class="f" d="M259.657,393.862c-2.413-5-.305-11.232,3.538-15.239s9.087-6.294,14.152-8.528c11.217-4.946,23.089-10.83,28.787-21.674a56.514,56.514,0,0,0,4.1-11.671c2.093-7.716,4.059-16.483-.149-23.283-1.214-1.959-3.031-3.724-5.3-4.1a7.352,7.352,0,0,0-6.823,3.039,15.062,15.062,0,0,0-2.6,7.322c-.626,4.938-.1,9.966-.626,14.9s-2.316,10.2-6.368,13.012c-4.968,3.463-12.051,2.689-16.87,6.346-3.9,2.979-5.378,8.074-8.416,11.917-2.562,3.21-6.145,5.4-9.422,7.873s-6.45,5.482-7.567,9.437a11.172,11.172,0,0,0,15.559,13.131" transform="translate(-245.67 -309.283)"/></g><path class="d" d="M162.18,71.355a15.529,15.529,0,0,1,.447-25.257c2.294-1.572,5.005-2.54,7.046-4.469,1.81-1.683,2.979-4.015,5.013-5.43a7.3,7.3,0,0,1,11.083,8.446c-.931,2.614-3.277,4.529-4.26,7.12-1.058,2.8-.372,5.959-.745,8.893a12.282,12.282,0,0,1-16.446,9.891" transform="translate(-19.17)"/><g class="e" transform="translate(136.738 34.854)"><path class="f" d="M162.18,71.355a15.529,15.529,0,0,1,.447-25.257c2.294-1.572,5.005-2.54,7.046-4.469,1.81-1.683,2.979-4.015,5.013-5.43a7.3,7.3,0,0,1,11.083,8.446c-.931,2.614-3.277,4.529-4.26,7.12-1.058,2.8-.372,5.959-.745,8.893a12.282,12.282,0,0,1-16.446,9.891" transform="translate(-155.908 -34.854)"/></g><path class="d" d="M164.709,62.42h9.154V81.286a4.03,4.03,0,0,1-4.029,4.029h-1.087a4.03,4.03,0,0,1-4.029-4.029V62.42Z" transform="translate(-21.416 -7.034)"/><path class="g" d="M164.709,59.544l4.573-8.394,4.581,8.394Z" transform="translate(-21.416 -4.158)"/><path class="d" d="M168.42,54.472s1.393,2.093,3.627,0l-1.81-3.322Z" transform="translate(-22.363 -4.158)"/><path class="h" d="M173.983,86.448a29.058,29.058,0,0,1-4.655.186,28.924,28.924,0,0,1-4.648-.186,28.943,28.943,0,0,1,4.648-.186,29.059,29.059,0,0,1,4.655.186Z" transform="translate(-21.409 -13.112)"/><path class="h" d="M173.877,84.562a27.863,27.863,0,0,1-4.558.186,27.86,27.86,0,0,1-4.558-.186,29.505,29.505,0,0,1,4.558-.179,29.505,29.505,0,0,1,4.558.179Z" transform="translate(-21.429 -12.633)"/><path class="i" d="M168.254,62.6c.1,0,.186,3.65.186,8.156s-.089,8.193-.186,8.193-.186-3.657-.186-8.193S168.15,62.6,168.254,62.6Z" transform="translate(-22.273 -7.08)"/><path class="i" d="M173.225,62.6c.1,0,.186,3.65.186,8.156s-.082,8.193-.186,8.193-.186-3.657-.186-8.193S173.121,62.6,173.225,62.6Z" transform="translate(-23.542 -7.08)"/><path class="h" d="M259.884,408.72l41.583,1.78,1.005,2.421-27.26,44.242-49.2-1.438Z" transform="translate(-37.059 -95.403)"/><path class="a" d="M223.51,453.263,273,456.093l25.86-40.123L280.7,417.445l-45.948,16.177Z" transform="translate(-36.421 -97.253)"/><path class="b" d="M213.764,447.972l45.434.745c-1.884-5.817,2.562-14,8.677-16.758,4.052-1.825,11.671-4.193,15.6-6.212,7.448-3.836,14.226-11.09,13.638-17.324l-18.68-.618L254.6,406.88c-2,5.914-6.256,9.779-12.736,12.111-5.795,2.086-12.394,2.078-18.054,4.469-9.1,3.813-13.474,16.17-10.085,24.534" transform="translate(-33.633 -94.934)"/><path class="h" d="M213.764,447.9s-.045-.1-.112-.3l-.313-.871a10.473,10.473,0,0,1-.387-1.49,15.072,15.072,0,0,1-.313-2.071,21.257,21.257,0,0,1,.358-5.78,21.6,21.6,0,0,1,2.92-7.21,17.632,17.632,0,0,1,1.3-1.832c.246-.29.484-.611.745-.894l.842-.857a7.9,7.9,0,0,1,.909-.812c.32-.261.633-.536.976-.782a16.746,16.746,0,0,1,2.234-1.326c3.151-1.586,6.912-2.234,10.83-2.979,1.966-.358,3.992-.745,6.018-1.289a28.111,28.111,0,0,0,6-2.413,19.846,19.846,0,0,0,2.793-1.832,16.767,16.767,0,0,0,2.48-2.346,17.874,17.874,0,0,0,3.456-6.093l.045-.127h.127l19.849.745c6.89.268,14.018.454,21.317.7l1.326.045h.164v.164a10.147,10.147,0,0,1-.6,4.2,16.054,16.054,0,0,1-.834,1.937,18.751,18.751,0,0,1-1.087,1.788,27.658,27.658,0,0,1-5.631,5.959,33.43,33.43,0,0,1-6.8,4.193c-2.4,1.08-4.826,1.959-7.2,2.838s-4.73,1.713-6.957,2.681a13.914,13.914,0,0,0-3.061,1.862c-.484.343-.886.782-1.326,1.162a8.174,8.174,0,0,0-1.169,1.311,16.882,16.882,0,0,0-3.18,5.959,11.1,11.1,0,0,0-.112,6.361l.067.2h-.209l-33.063-.581L217,447.938l-2.4-.067H217l9.169.1,33.055.462-.142.194a11.318,11.318,0,0,1,.1-6.54A17.023,17.023,0,0,1,262.408,436c.35-.477.789-.886,1.184-1.333a8.351,8.351,0,0,1,1.356-1.2,13.761,13.761,0,0,1,3.128-1.9c2.234-.983,4.6-1.825,6.979-2.7s4.8-1.765,7.173-2.838a32.682,32.682,0,0,0,6.7-4.156A27.231,27.231,0,0,0,294.488,416a20.189,20.189,0,0,0,1.08-1.728,15.713,15.713,0,0,0,.812-1.884,9.836,9.836,0,0,0,.581-4.044l.179.164-1.333-.037c-7.3-.246-14.427-.439-21.309-.745l-19.857-.745.171-.119a18.386,18.386,0,0,1-3.53,6.2,16.972,16.972,0,0,1-2.532,2.383A19.345,19.345,0,0,1,245.9,417.3a27.97,27.97,0,0,1-6.063,2.428c-2.048.559-4.082.931-6.048,1.281-3.918.7-7.664,1.356-10.77,2.9a16.221,16.221,0,0,0-2.182,1.3c-.343.238-.648.514-.968.745a7.7,7.7,0,0,0-.9.8l-.864.857c-.268.283-.5.6-.745.886a16.469,16.469,0,0,0-1.3,1.8,21.3,21.3,0,0,0-2.927,7.135,20.913,20.913,0,0,0-.41,5.735,14.27,14.27,0,0,0,.283,2.063,10.549,10.549,0,0,0,.358,1.49c.127.387.216.678.283.886A1.181,1.181,0,0,0,213.764,447.9Z" transform="translate(-33.632 -94.862)"/><path class="h" d="M282.824,405.786a7.789,7.789,0,0,0,.1-.812,4.573,4.573,0,0,0-.358-2.145,4.4,4.4,0,0,0-2.145-2.309,4.916,4.916,0,0,0-6.6,2.532,5.5,5.5,0,0,0-.439,3.165,5.423,5.423,0,0,0,.745,2.041c.283.447.492.655.469.678a2.138,2.138,0,0,1-.581-.6,4.989,4.989,0,0,1-.916-2.078,5.594,5.594,0,0,1,.38-3.352,5.214,5.214,0,0,1,7.061-2.7,4.59,4.59,0,0,1,2.234,2.517,4.356,4.356,0,0,1,.253,2.234,3.172,3.172,0,0,1-.149.6C282.869,405.727,282.839,405.786,282.824,405.786Z" transform="translate(-49.05 -93.103)"/><path class="h" d="M292.393,405.788c-.037,0,.06-.29.1-.812a4.682,4.682,0,0,0-.358-2.145,4.427,4.427,0,0,0-2.153-2.309,4.922,4.922,0,0,0-6.6,2.532,5.494,5.494,0,0,0-.432,3.165,5.3,5.3,0,0,0,.745,2.041c.283.447.492.655.469.678a1.986,1.986,0,0,1-.588-.6,5.07,5.07,0,0,1-.916-2.078,5.659,5.659,0,0,1,.387-3.352,5.214,5.214,0,0,1,7.053-2.7,4.59,4.59,0,0,1,2.234,2.517,4.474,4.474,0,0,1,.261,2.234,2.679,2.679,0,0,1-.156.6.544.544,0,0,1-.052.216Z" transform="translate(-51.491 -93.104)"/><path class="h" d="M299.635,406.374a7.588,7.588,0,0,0,.06-.819,4.648,4.648,0,0,0-.477-2.123,4.408,4.408,0,0,0-2.279-2.175,4.96,4.96,0,0,0-3.828.074,5.018,5.018,0,0,0-2.614,2.815,5.537,5.537,0,0,0-.261,3.188,5.335,5.335,0,0,0,.894,2c.305.425.529.626.507.648a2,2,0,0,1-.618-.559,5.036,5.036,0,0,1-1.035-2.026,5.651,5.651,0,0,1,.194-3.367,5.214,5.214,0,0,1,6.9-3.091,4.59,4.59,0,0,1,2.376,2.383,4.363,4.363,0,0,1,.387,2.234,2.661,2.661,0,0,1-.119.611A.431.431,0,0,1,299.635,406.374Z" transform="translate(-53.34 -93.317)"/><path class="h" d="M307.433,406.9v-.819a4.559,4.559,0,0,0-.588-2.093,4.392,4.392,0,0,0-2.391-2.056,4.914,4.914,0,0,0-6.279,3.233,5.484,5.484,0,0,0-.089,3.2,5.41,5.41,0,0,0,1,1.951c.328.4.559.588.536.618a2.089,2.089,0,0,1-.648-.529,5.078,5.078,0,0,1-1.14-1.966,5.655,5.655,0,0,1,0-3.374,5.276,5.276,0,0,1,2.614-3.173,5.209,5.209,0,0,1,4.111-.276,4.614,4.614,0,0,1,2.5,2.234,4.387,4.387,0,0,1,.5,2.234,3.074,3.074,0,0,1-.082.611C307.47,406.829,307.447,406.9,307.433,406.9Z" transform="translate(-55.321 -93.512)"/><path class="h" d="M315.243,406.76v-.819a4.562,4.562,0,0,0-.648-2.078,4.416,4.416,0,0,0-2.443-1.989,4.908,4.908,0,0,0-6.189,3.411,5.443,5.443,0,0,0,1.05,5.117c.343.395.581.573.559.6a1.906,1.906,0,0,1-.663-.5,5.156,5.156,0,0,1-1.192-1.937,5.638,5.638,0,0,1-.082-3.374,5.3,5.3,0,0,1,2.525-3.247,5.211,5.211,0,0,1,4.1-.387,4.629,4.629,0,0,1,2.57,2.175,4.413,4.413,0,0,1,.559,2.234,2.879,2.879,0,0,1-.067.618C315.28,406.686,315.258,406.76,315.243,406.76Z" transform="translate(-57.322 -93.51)"/><path class="h" d="M321.814,407.569v-.819a4.559,4.559,0,0,0-.566-2.1,4.416,4.416,0,0,0-2.361-2.078,4.907,4.907,0,0,0-6.316,3.158,5.472,5.472,0,0,0,.842,5.154c.328.41.551.6.536.626a2.023,2.023,0,0,1-.641-.536,4.962,4.962,0,0,1-1.117-1.981,5.62,5.62,0,0,1,.052-3.374,5.27,5.27,0,0,1,2.652-3.143,5.214,5.214,0,0,1,4.111-.223,4.567,4.567,0,0,1,2.473,2.279,4.379,4.379,0,0,1,.477,2.234,3.024,3.024,0,0,1-.089.611C321.851,407.5,321.829,407.576,321.814,407.569Z" transform="translate(-58.991 -93.671)"/><path class="d" d="M344.233,204.644a40.629,40.629,0,0,0-6.16.283,25.614,25.614,0,0,0-22.345,25.54,45.676,45.676,0,0,0,1.586,12.178c3.583,12.707,4.685,23.9,4.275,29.361l11.992,6.443s5.549-7.977,10.912-11.418,23.209-12.662,30.277-22.084c4.551-6.093,5.43-18.621-5.43-29.54A36.815,36.815,0,0,0,344.233,204.644Z" transform="translate(-59.953 -43.322)"/><path class="j" d="M314.72,313.71l10.83,5.854-7.046,8.953-7.225-3.277Z" transform="translate(-58.818 -71.158)"/><path class="h" d="M316.608,309.323c-.1-.037.976-3.255,2.4-7.18s2.652-7.091,2.748-7.053-.976,3.247-2.4,7.18S316.7,309.353,316.608,309.323Z" transform="translate(-60.176 -66.407)"/><path class="h" d="M329.529,316.407c-.089-.052,1.609-3.091,3.784-6.785S337.327,303,337.424,303s-1.609,3.091-3.791,6.785S329.611,316.444,329.529,316.407Z" transform="translate(-63.474 -68.425)"/><g class="k" transform="translate(265.436 161.651)"><path class="l" d="M351.119,205.106c-.484,0-6.443,7-9.079,11.723-8.871,15.887-9.273,31.342-11.731,49.367-.35,2.577-1.631,8.126-1.609,8a47.722,47.722,0,0,0,5.72,3.076s4.164-5.02,5.817-7.545c6.614-10.107,13.8-17.995,19.47-28.668s11.12-20.11,5.877-31.029C365.583,210.029,356.482,204.8,351.119,205.106Z" transform="translate(-328.7 -205.093)"/></g><path class="h" d="M374.641,252.36a1.922,1.922,0,0,1-.156-.343c-.1-.223-.216-.574-.417-1.006a18.061,18.061,0,0,0-2.093-3.523,18.329,18.329,0,0,0-4.6-4.29,17.6,17.6,0,0,0-7.545-2.793h-.089l-.045-.06a42.62,42.62,0,0,0-4.834-5.556,24.384,24.384,0,0,0-6.607-4.543,16.981,16.981,0,0,0-7.813-1.49,12.9,12.9,0,0,0-6.83,2.279l-.112.074-.1-.089a13.409,13.409,0,0,0-7.3-3.24,13.167,13.167,0,0,0-6.2.79,13.918,13.918,0,0,0-3.56,2c-.372.3-.655.536-.834.7a1.854,1.854,0,0,1-.29.238,3.167,3.167,0,0,1,.253-.276c.171-.179.439-.432.8-.745a13.076,13.076,0,0,1,3.56-2.108,13.234,13.234,0,0,1,6.309-.879,13.623,13.623,0,0,1,7.485,3.27h-.209a13.194,13.194,0,0,1,7.009-2.361,17.372,17.372,0,0,1,7.977,1.49,24.586,24.586,0,0,1,6.7,4.625,41.615,41.615,0,0,1,4.856,5.623l-.112-.067a17.6,17.6,0,0,1,7.657,2.89,18.411,18.411,0,0,1,4.61,4.4,16.953,16.953,0,0,1,2.026,3.6c.186.439.29.8.372,1.028a2.893,2.893,0,0,1,.119.35Z" transform="translate(-59.823 -49.142)"/><path class="h" d="M353.5,276.607a7.724,7.724,0,0,0-1.035-2.6,7.072,7.072,0,0,0-2.3-2.234,6.441,6.441,0,0,0-3.97-.938h-.149v-.149a10.448,10.448,0,0,0-15.232-7.6l-.112.06-.089-.1a7.594,7.594,0,0,0-4.164-2.234,8.4,8.4,0,0,0-3.724.119,8.742,8.742,0,0,0-2.979,1.49.937.937,0,0,1,.156-.164c.112-.1.276-.253.506-.425a7.531,7.531,0,0,1,2.234-1.08,8.4,8.4,0,0,1,3.836-.194,7.771,7.771,0,0,1,4.357,2.3l-.2-.037a10.83,10.83,0,0,1,4.275-1.236,10.967,10.967,0,0,1,4.812.745,10.576,10.576,0,0,1,4.6,3.59,10.7,10.7,0,0,1,2,4.789l-.171-.134a6.7,6.7,0,0,1,4.134,1.035,7.166,7.166,0,0,1,2.324,2.331,6.239,6.239,0,0,1,.789,1.966,4.887,4.887,0,0,1,.082.551.823.823,0,0,1,.03.142Z" transform="translate(-60.977 -57.562)"/><path class="h" d="M324.228,323.686a1.076,1.076,0,0,0-.395-.268,1.957,1.957,0,0,0-1.266.045,3.833,3.833,0,0,1-.961.171,1.491,1.491,0,0,1-1.073-.469c-.574-.6-.79-1.49-1.333-2.063a1.25,1.25,0,0,0-1-.425,6.243,6.243,0,0,0-1.132.231,2.54,2.54,0,0,1-1.132.06,2.165,2.165,0,0,1-1.6-1.661.864.864,0,0,1,0-.507,1.361,1.361,0,0,0,.127.477,2.19,2.19,0,0,0,.745,1.035,1.711,1.711,0,0,0,.782.35,2.245,2.245,0,0,0,.991-.089,5.937,5.937,0,0,1,1.2-.253,1.593,1.593,0,0,1,1.281.529c.633.745.827,1.564,1.311,2.078a1.214,1.214,0,0,0,.834.4,3.466,3.466,0,0,0,.886-.127,1.952,1.952,0,0,1,1.393.089C324.2,323.47,324.243,323.686,324.228,323.686Z" transform="translate(-59.589 -72.457)"/><path class="h" d="M325.738,321.1a45.721,45.721,0,0,1-5.281-2.607,48.33,48.33,0,0,1-5.117-2.935,47.69,47.69,0,0,1,5.288,2.607,48.7,48.7,0,0,1,5.109,2.935Z" transform="translate(-59.854 -71.631)"/><path class="h" d="M323.148,325.266s-.149.074-.41.194c-.134.06-.283.149-.492.238a1.835,1.835,0,0,1-.745.1,3.093,3.093,0,0,1-1.788-.693,2.437,2.437,0,0,1-.678-.931,3.388,3.388,0,0,0-.529-.976,2.512,2.512,0,0,0-1.959-.566,4.508,4.508,0,0,1-1.884-.179,1.755,1.755,0,0,1-.953-.871c-.119-.29-.074-.477-.06-.469a2.58,2.58,0,0,0,.194.4,1.694,1.694,0,0,0,.916.693,4.457,4.457,0,0,0,1.773.082,2.79,2.79,0,0,1,2.234.655,3.747,3.747,0,0,1,.581,1.08,2.227,2.227,0,0,0,.574.827,3.017,3.017,0,0,0,1.586.685,2.233,2.233,0,0,0,1.162-.209C322.977,325.244,323.148,325.244,323.148,325.266Z" transform="translate(-59.418 -73.047)"/><path class="d" d="M215.57,228.01l18.732-2.778-8.938-12.662-4.8.283a8.559,8.559,0,0,0-7.366,5.154h0a8.581,8.581,0,0,0-.544,5.02Z" transform="translate(-33.612 -45.35)"/><path class="l" d="M215.57,228.01l18.732-2.778-8.938-12.662-4.8.283a8.559,8.559,0,0,0-7.366,5.154h0a8.581,8.581,0,0,0-.544,5.02Z" transform="translate(-33.612 -45.35)"/><path class="g" d="M317.96,243.838c.194.536.4,1.169.618,1.929a6.106,6.106,0,0,1,.2,2.011,9.329,9.329,0,0,1-.425,2.473c-.305.745.41,1.43,1.013,1.073s1.49-2.294,1.49-4.782,2.488.492,3.434,1.564,4.029,4.253,4.588,4.223c.819-.045.924-.931-.045-1.981s-3.657-4.394-3.069-4.871,5.325,5.057,5.325,5.057.819,1.348,1.49.827c1.266-.946-4.208-6.45-4.745-6.957-.365-.358.253-.894.633-.492s4.6,5.623,5.9,4.67c.991-.745-4.469-4.566-4.737-6.13s3.843,3.329,4.759,2.6c.35-.276.566-.529-2.234-2.979-1.341-1.207-6.45-4.782-6.45-4.782L310.333,193.28l-11.872,6.8Z" transform="translate(-55.547 -40.427)"/><path class="g" d="M188.542,139.779l-17.176-20.5a11.963,11.963,0,0,0-.842-2.048,6.441,6.441,0,0,0-4.052-3.381c-1.087-.238-2.339-.119-3.2-.834-.38-.32-.633-.745-1.035-1.073a.915.915,0,0,0-1.326.067,1.171,1.171,0,0,0,.074,1.028,9.56,9.56,0,0,0,2.979,3.843c-1.609.492-3.91,1.236-3.91,1.236s-3.627-3.94-5.489-3.933,1.49,3.523,1.49,3.523-2.979-2.756-3.9-1.981,1.445,2.823,1.445,2.823a3.943,3.943,0,0,0-2.421-.678c-.842.142-1.564,1.132-1.11,1.855a1.939,1.939,0,0,0,.745.6l4.573,2.547a5.539,5.539,0,0,0,2.443.894c2.324.074,4.089-1.363,6.405-1.3,0,0,12.952,27.268,14.263,28.676s29.793,3.322,29.793,3.322l16.468-14.189Z" transform="translate(-17.645 -19.609)"/><path class="d" d="M269.456,348.83,287,356.464l-9.385,21.875c-2.041-1.02-1.37-14.152-1.37-14.152l-11.44-4.432Z" transform="translate(-46.958 -80.12)"/><g class="m" transform="translate(231.046 276.561)"><path class="n" d="M282.708,359.72a.977.977,0,0,1,1.289-.186.937.937,0,0,1,.186,1.274,1.019,1.019,0,0,1-1.356.186.969.969,0,0,1-.052-1.348" transform="translate(-282.527 -359.371)"/></g><path class="n" d="M291.13,358.84l-1.8-.7L281,379.375s0,1.162.745,1.341Z" transform="translate(-51.091 -82.496)"/><path class="h" d="M279.78,369.357c.112.037.387-.477.961-.849s1.132-.469,1.132-.581-.685-.223-1.363.246S279.676,369.334,279.78,369.357Z" transform="translate(-50.772 -84.968)"/><path class="h" d="M279.734,373.176c.1.074.477-.313,1.087-.484s1.125-.067,1.169-.171-.536-.439-1.289-.216S279.637,373.131,279.734,373.176Z" transform="translate(-50.764 -86.091)"/><path class="h" d="M281.926,376.687c.067-.089-.41-.469-1.11-.447s-1.147.425-1.08.507.514-.089,1.095-.1S281.867,376.806,281.926,376.687Z" transform="translate(-50.767 -87.115)"/><path class="h" d="M276.4,367.366c.119,0,.179-.559.484-1.14s.693-.976.626-1.073-.648.194-.991.886S276.3,367.381,276.4,367.366Z" transform="translate(-49.891 -84.281)"/><path class="h" d="M273.005,364.6a2.33,2.33,0,0,0,.462-1.095,5.134,5.134,0,0,0,.142-1.3,5.8,5.8,0,0,0-.06-.745,1.452,1.452,0,0,0-.119-.439.5.5,0,0,0-.544-.29.616.616,0,0,0-.447.358,1.608,1.608,0,0,0-.119.439,4.166,4.166,0,0,0,.171,2.078c.246.708.574,1.05.611,1.02s-.171-.425-.343-1.1a4.933,4.933,0,0,1-.127-1.214,4.8,4.8,0,0,1,.074-.745c.037-.253.119-.454.253-.469s.06,0,.112.074a1.5,1.5,0,0,1,.082.328,6.249,6.249,0,0,1,.082.745,6.4,6.4,0,0,1-.052,1.229,8.315,8.315,0,0,0-.179,1.125Z" transform="translate(-48.861 -83.157)"/><path class="h" d="M272.225,365.453a2.345,2.345,0,0,0-.931-.745,3.8,3.8,0,0,0-1.266-.365,3.457,3.457,0,0,0-.745,0,1.007,1.007,0,0,0-.857.462.566.566,0,0,0,.112.588,1.681,1.681,0,0,0,.358.283,2.7,2.7,0,0,0,.745.32,2.753,2.753,0,0,0,1.326,0c.745-.186,1.073-.574,1.043-.6a9.969,9.969,0,0,1-1.095.313,2.723,2.723,0,0,1-1.177-.089,2.526,2.526,0,0,1-.626-.3c-.216-.134-.365-.3-.305-.372a.67.67,0,0,1,.235-.174.656.656,0,0,1,.287-.057,3.888,3.888,0,0,1,.745,0,4.3,4.3,0,0,1,1.184.253C271.823,365.215,272.188,365.5,272.225,365.453Z" transform="translate(-47.873 -84.074)"/><path class="d" d="M252.91,387.863l7.255,15.2,2.272,13.72a1.734,1.734,0,0,0,.253.655,1.723,1.723,0,0,0,3.046-.29c1.333-3.3,6.182-15.477,5.586-16.557-.685-1.251-6.592-16.542-6.592-16.542Z" transform="translate(-43.923 -89.108)"/><path class="n" d="M268.52,423.44l6.316-18.62.3.648a2.6,2.6,0,0,1,.127,1.788c-.462,1.586-1.825,5.959-5.5,15.135a1.714,1.714,0,0,1-1.244,1.05Z" transform="translate(-47.907 -94.408)"/><g class="m" transform="translate(221.416 306.406)"><path class="n" d="M269.733,399.91a1.036,1.036,0,0,0,.3,1.356,1.006,1.006,0,0,0,1.356-.283,1.11,1.11,0,0,0-.328-1.437,1.036,1.036,0,0,0-1.37.454" transform="translate(-269.598 -399.441)"/></g><path class="h" d="M267.876,418.36a3.722,3.722,0,0,0-3.806-.134,1.2,1.2,0,0,1,.447-.447,2.665,2.665,0,0,1,1.49-.38,2.7,2.7,0,0,1,1.452.477C267.787,418.114,267.906,418.33,267.876,418.36Z" transform="translate(-46.771 -97.617)"/><path class="h" d="M267.888,421.949a12.772,12.772,0,0,0-1.654-.045,14.338,14.338,0,0,0-1.586.477c-.082-.06.514-.745,1.534-.849a1.909,1.909,0,0,1,1.706.417Z" transform="translate(-46.917 -98.659)"/><path class="h" d="M268.585,413.706a16.793,16.793,0,0,0-2.547-.246,15.793,15.793,0,0,0-2.517.492,4.7,4.7,0,0,1,5.065-.246Z" transform="translate(-46.631 -96.516)"/><path class="h" d="M266.482,407.437c0,.112-1.006.134-2.13.6s-1.877,1.11-1.951,1.028a3.355,3.355,0,0,1,1.817-1.378A3.32,3.32,0,0,1,266.482,407.437Z" transform="translate(-46.345 -95.051)"/><path class="h" d="M263.784,401.346a8.587,8.587,0,0,0-2.234.566,8.281,8.281,0,0,0-1.8,1.423c-.037,0,.037-.29.305-.648a3.76,3.76,0,0,1,3.031-1.5C263.531,401.2,263.791,401.309,263.784,401.346Z" transform="translate(-45.666 -93.481)"/><path class="h" d="M260.539,399.723a1.728,1.728,0,0,1-.283-.574,4.5,4.5,0,0,1-.216-1.728,1.954,1.954,0,0,1,.38-1.2.693.693,0,0,1,.745-.186,1.165,1.165,0,0,1,.559.588,2.437,2.437,0,0,1-1.028,2.935,2.839,2.839,0,0,1-3.143-.209.976.976,0,0,1-.372-.745.677.677,0,0,1,.5-.618,2.453,2.453,0,0,1,1.251.074,4.812,4.812,0,0,1,1.586.745c.335.231.484.4.469.425a7.462,7.462,0,0,0-2.115-.894,2.182,2.182,0,0,0-1.095-.037.365.365,0,0,0-.276.335.681.681,0,0,0,.092.258.694.694,0,0,0,.184.2,2.522,2.522,0,0,0,2.726.156,2.117,2.117,0,0,0,.938-2.51.781.781,0,0,0-.372-.425.365.365,0,0,0-.425.089,1.721,1.721,0,0,0-.343,1.013,6.6,6.6,0,0,0,.238,2.3Z" transform="translate(-45.013 -92.156)"/><path class="h" d="M261.594,319.443,241.7,306.036l6.584-64.643-18.844-11L212.212,226.4s-7.195,14.971-10.427,24.579c-6.808,20.386-11.582,27.692-10.487,42.455.343,4.677,17.608,16.386,28.512,22.873a35.248,35.248,0,0,0,.581,3.866c3.724,16.848,15.1,39.252,15.1,39.252l17.28-8.037-5.571-19.1,5.81,3.389Zm-42.76-41.71,2.324-10.36c-.492,6.592-.938,13.466-1.259,20.058a20.585,20.585,0,0,1-1.065-9.675Z" transform="translate(-28.161 -48.879)"/><path class="j" d="M244.981,365.781a1.623,1.623,0,0,1-.134-.276l-.365-.812-1.333-3.151c-1.147-2.748-2.793-6.7-4.767-11.656s-4.313-10.822-6.7-17.451c-.588-1.661-1.162-3.367-1.706-5.132-.238-.894-.544-1.773-.7-2.719-.045-.231-.1-.469-.134-.7l-.082-.708-.156-1.415q-.313-2.86-.5-5.824c-.06-.983-.112-1.981-.156-2.979a25.852,25.852,0,0,1,0-3.039c.3-8.119.976-15.82,1.542-22.829s1.11-13.31,1.557-18.621.745-9.586.894-12.558c.1-1.49.149-2.637.179-3.411l.052-.894a1.109,1.109,0,0,1,0-.3,1.809,1.809,0,0,1,0,.3v.894c0,.782-.037,1.937-.1,3.419-.127,2.979-.387,7.269-.782,12.573s-.924,11.612-1.49,18.621-1.214,14.71-1.49,22.806c-.06,1.013,0,2.011,0,3.017s.089,1.989.156,2.979q.179,2.98.484,5.8l.156,1.423.082.7c.037.231.089.454.134.685.149.909.447,1.795.685,2.681.529,1.75,1.1,3.456,1.683,5.117,2.339,6.621,4.655,12.513,6.592,17.466s3.553,8.938,4.663,11.694c.544,1.37.976,2.436,1.274,3.18.134.35.246.626.32.827A1.069,1.069,0,0,0,244.981,365.781Z" transform="translate(-37.618 -55.235)"/><path class="j" d="M232.137,243.511a3.058,3.058,0,0,1-.447-.365,4.689,4.689,0,0,1-.842-1.356,14.471,14.471,0,0,1-.849-5.124,43.384,43.384,0,0,1,.246-5.214,11.866,11.866,0,0,1,.3-2.123,12.578,12.578,0,0,1,0,2.145c-.067,1.318-.171,3.143-.142,5.154a16.647,16.647,0,0,0,.745,5.042,5.766,5.766,0,0,0,.708,1.348A2.873,2.873,0,0,1,232.137,243.511Z" transform="translate(-38.076 -49.626)"/><path class="j" d="M220.715,227.72a4.339,4.339,0,0,1,.149,1.8,8.341,8.341,0,0,1-4.759,6.986,4.392,4.392,0,0,1-1.735.521c0-.06.648-.238,1.616-.745a8.819,8.819,0,0,0,4.618-6.77C220.73,228.413,220.648,227.72,220.715,227.72Z" transform="translate(-34.088 -49.216)"/><path class="j" d="M262.792,278.18v.194a2.97,2.97,0,0,1-.045.573q-.089.8-.223,2.234c-.216,1.944-.514,4.707-.886,8.1-.745,6.875-1.847,16.312-3.024,26.746a48.706,48.706,0,0,0,.976,14.673,50.792,50.792,0,0,0,1.8,6.182c.67,1.907,1.289,3.687,1.862,5.318,1.125,3.233,2.033,5.862,2.674,7.709.3.894.536,1.594.745,2.1l.179.551a.577.577,0,0,1,.045.186.409.409,0,0,0-.082-.179,3.107,3.107,0,0,1-.209-.536c-.194-.5-.447-1.192-.745-2.078l-2.786-7.664c-.581-1.624-1.222-3.4-1.907-5.3a50.3,50.3,0,0,1-1.84-6.219,48.4,48.4,0,0,1-1.02-14.777c1.162-10.465,2.324-19.894,3.136-26.739.425-3.4.745-6.16,1.005-8.1.119-.938.216-1.668.29-2.234a3.194,3.194,0,0,1,.082-.566.655.655,0,0,1-.022-.179Z" transform="translate(-45.255 -62.092)"/><path class="g" d="M219.43,223.578l3.054-7.8,6.964,10.383-9.288-2.316" transform="translate(-35.38 -46.169)"/><path class="d" d="M290.184,182.27l-8.26-18.524c-.991-2.979-2.845-3.441-4.394-5.169l-20.7-11.671c-15.09-6.182-23.305,14.539-23.305,14.539l-13.712,31.282c-16.125,5.34-4.707,17.727-4.707,17.727s-4.387-7.627-.067-10.375c4.514-2.882,9.519,4.707,14.33,11.917,5.683,8.506,24.14,14.032,24.14,14.032,2.16-2.279,1.557-10.241,3.247-14.517.536-1.348,13.317-30.955,13.317-30.955l4.953,12s6.346-7.448,9.429-8.625a35.113,35.113,0,0,1,5.728-1.661Z" transform="translate(-33.276 -28.299)"/><path class="h" d="M261.978,211.53a3.054,3.054,0,0,1-.626.439,12.042,12.042,0,0,1-1.884.886,13.476,13.476,0,0,1-13.079-2.018,11.638,11.638,0,0,1-1.527-1.415,2.447,2.447,0,0,1-.462-.6c.052-.052.745.79,2.145,1.81a14,14,0,0,0,12.833,1.981C261.032,212.059,261.978,211.471,261.978,211.53Z" transform="translate(-41.752 -44.392)"/><path class="d" d="M221.93,165.87l12.774,1.207,20.438-21.6-12.021-.417-21.4,2.115a55.534,55.534,0,0,1,.209,18.695Z" transform="translate(-35.964 -28.122)"/><path class="h" d="M239.9,157.74a1.362,1.362,0,0,1-.156.395l-.514,1.1c-.462,1-1.11,2.376-1.892,4.044-1.586,3.426-3.724,8.193-5.959,13.481s-4.365,10.077-5.959,13.511c-.782,1.721-1.43,3.1-1.892,4.052l-.544,1.087a1.818,1.818,0,0,1-.216.372,2.372,2.372,0,0,1,.149-.4l.477-1.117,1.788-4.1c1.49-3.508,3.568-8.282,5.832-13.556s4.469-10.04,6.085-13.444c.827-1.7,1.49-3.061,2-4,.238-.432.425-.79.574-1.073a1.955,1.955,0,0,1,.223-.358Z" transform="translate(-36.232 -31.358)"/><path class="h" d="M295.794,166.17c.037.067-.745.477-1.84,1.4a13.175,13.175,0,0,0-1.721,1.78,14.552,14.552,0,0,0-1.624,2.57,15.149,15.149,0,0,0-1.013,2.86,12.978,12.978,0,0,0-.328,2.465c-.052,1.415.112,2.294.037,2.3a2.139,2.139,0,0,1-.149-.6,4.331,4.331,0,0,1-.1-.745,7.6,7.6,0,0,1-.052-.983,11.617,11.617,0,0,1,.261-2.532,14.121,14.121,0,0,1,1.005-2.979,14.28,14.28,0,0,1,1.691-2.622,12.032,12.032,0,0,1,1.825-1.765,6.951,6.951,0,0,1,.8-.566,4.538,4.538,0,0,1,.633-.38,1.935,1.935,0,0,1,.581-.2Z" transform="translate(-53.133 -33.509)"/><path class="g" d="M293.569,119.453l-11.984,22.4a7.887,7.887,0,0,1-13.921-7.418l2.063-3.888s-5.214-3.374-2.771-9c2.175-5.02,10.159-19.2,11.85-22.2l10.1,4.521a11.344,11.344,0,0,1,4.663,15.582Z" transform="translate(-47.341 -16.458)"/><path class="o" d="M270.673,141.13a14.289,14.289,0,0,0,8.23,1.192s-3.53,3.255-8.893.253Z" transform="translate(-48.287 -27.119)"/><path class="h" d="M276.043,116.925a.88.88,0,0,0,.41,1.154.837.837,0,0,0,.317.1.837.837,0,0,0,.622-.19.83.83,0,0,0,.208-.258.878.878,0,0,0-.41-1.154.843.843,0,0,0-.938.092.853.853,0,0,0-.209.258Z" transform="translate(-49.806 -20.828)"/><path class="h" d="M276.128,116.009c.052.149.857,0,1.721.358s1.3,1.095,1.438,1.035.045-.261-.134-.581a2.444,2.444,0,0,0-1.095-.961,2.341,2.341,0,0,0-1.43-.156C276.277,115.785,276.1,115.912,276.128,116.009Z" transform="translate(-49.847 -20.619)"/><path class="h" d="M286.852,122.244a.872.872,0,0,0,.41,1.154.842.842,0,0,0,1.147-.358.879.879,0,0,0-.41-1.147.836.836,0,0,0-.647-.069.834.834,0,0,0-.5.419Z" transform="translate(-52.564 -22.184)"/><path class="h" d="M287.39,121.3c.052.149.857,0,1.721.358s1.3,1.1,1.438,1.043.052-.261-.134-.588a2.432,2.432,0,0,0-1.095-.953,2.282,2.282,0,0,0-1.43-.156C287.539,121.084,287.36,121.233,287.39,121.3Z" transform="translate(-52.721 -21.97)"/><path class="h" d="M278.676,125.714a6.512,6.512,0,0,0-1.281-.871c-.209-.127-.4-.261-.372-.425a1.458,1.458,0,0,1,.439-.588l1.4-1.385a31.8,31.8,0,0,0,3.419-3.724,31.02,31.02,0,0,0-3.724,3.434l-1.378,1.408a1.389,1.389,0,0,0-.5.812.628.628,0,0,0,.054.266.64.64,0,0,0,.162.218,1.692,1.692,0,0,0,.35.216A5.684,5.684,0,0,0,278.676,125.714Z" transform="translate(-49.989 -21.401)"/><path class="h" d="M281.108,130.429c-.134-.067-.551.864-1.646,1.169s-2.048-.238-2.115-.112.142.276.559.477a2.524,2.524,0,0,0,1.735.149,2.191,2.191,0,0,0,1.326-1.006C281.175,130.734,281.175,130.459,281.108,130.429Z" transform="translate(-50.156 -24.388)"/><path class="h" d="M289.119,116.683c0,.276.886.544,1.84,1.117s1.654,1.214,1.877,1.065c.1-.074.06-.358-.164-.745a3.78,3.78,0,0,0-2.838-1.661C289.4,116.46,289.126,116.557,289.119,116.683Z" transform="translate(-53.163 -20.824)"/><path class="h" d="M278.047,112.854c.067.268.745.328,1.49.633s1.259.745,1.49.581.1-.313-.082-.611a2.134,2.134,0,0,0-1.035-.849,2.18,2.18,0,0,0-1.341-.127C278.2,112.542,278.01,112.705,278.047,112.854Z" transform="translate(-50.337 -19.796)"/><path class="g" d="M296.929,130.85c.119,0,4.357.581,2.525,4.357s-5.214,1.154-5.214,1.043S296.929,130.85,296.929,130.85Z" transform="translate(-54.47 -24.496)"/><path class="o" d="M296.736,136.008s.045.074.127.186a.744.744,0,0,0,.492.246,1.821,1.821,0,0,0,1.49-1.095,2.453,2.453,0,0,0,.276-1.028.853.853,0,0,0-.253-.745.372.372,0,0,0-.477,0c-.1.082-.112.164-.134.164s-.052-.1.052-.246a.471.471,0,0,1,.268-.164.557.557,0,0,1,.41.082,1.031,1.031,0,0,1,.319.406,1.043,1.043,0,0,1,.083.51,2.505,2.505,0,0,1-.283,1.162,1.909,1.909,0,0,1-1.75,1.169.842.842,0,0,1-.559-.395C296.7,136.1,296.722,136.008,296.736,136.008Z" transform="translate(-55.104 -25.126)"/><path class="h" d="M296.694,124.521a2.233,2.233,0,0,0-2.234.127c-.492.432-.827,1.028-1.318,1.49a1.489,1.489,0,0,1-1.8.283,1.288,1.288,0,0,1-.4-1.229,3.567,3.567,0,0,1,.544-1.244c1.02-1.683,2.19-3.292,3.069-5.057a10.048,10.048,0,0,0,1.2-5.713,5.514,5.514,0,0,0-3.352-4.521c-1.229-.432-2.6-.305-3.858-.663a5.148,5.148,0,0,1-3.307-3.039,8.913,8.913,0,0,0-.492-.849c.045-.089.492-.849.931-1,3.322-1.125,7.813.164,10.562,2.331a12.206,12.206,0,0,1,4.707,9.146c.037,3.5-2.167,7.359-4.216,9.966" transform="translate(-52.046 -17.311)"/><path class="h" d="M295.554,122.663c1.05-1.788,2.748-3.076,4.044-4.685s2.234-3.881,1.266-5.728c-.313-.633-.819-1.162-1.08-1.817a9.006,9.006,0,0,1-.372-2.093,7.271,7.271,0,0,0-3.6-5.214c-1.326-.745-2.853-1.043-4.2-1.75-2.123-1.117-3.679-3.188-5.959-4.074a2.831,2.831,0,0,0-2.316-.074,1.4,1.4,0,0,0-.574,2,1.214,1.214,0,0,0-1.676-.8,1.832,1.832,0,0,0-.946,1.8,3.98,3.98,0,0,0,.812,1.966,10.085,10.085,0,0,0,5.735,3.955l5.147-.4,4.216,3.121,3.113,4.968-5.653,7.344Z" transform="translate(-50.869 -15.862)"/><path class="d" d="M245.221,86.279a18.159,18.159,0,1,0-24.78,18.062c.142,2.145.3,4.573.3,4.573l15.88-1.028s-.067-2.57-.186-4.864a18.144,18.144,0,0,0,8.789-16.743Z" transform="translate(-32.703 -8.787)"/><path class="h" d="M233.9,114.489V113.6c0-.574.082-1.43.171-2.525s.216-2.443.462-3.985a27.524,27.524,0,0,1,1.318-5.154,17.6,17.6,0,0,1,1.318-2.808,3.377,3.377,0,0,1,1.169-1.192,1.87,1.87,0,0,1,1.721-.052,1.229,1.229,0,0,1,.618.678,1.247,1.247,0,0,1,0,.938,2.6,2.6,0,0,1-1.318,1.3,4.989,4.989,0,0,1-6.487-2.882,3.814,3.814,0,0,1-.246-2.086,1.631,1.631,0,0,1,1.572-1.363,1.147,1.147,0,0,1,.961.581,1.633,1.633,0,0,1,.216,1.1,3.559,3.559,0,0,1-1.154,1.884,5.393,5.393,0,0,1-4.149,1.49,4.722,4.722,0,0,1-3.672-2.383,2.747,2.747,0,0,1-.261-2.19,1.326,1.326,0,0,1,1.862-.819,1.85,1.85,0,0,1,.819.745,2.89,2.89,0,0,1,.343,1.028,5.174,5.174,0,0,1-.142,2.086,5.394,5.394,0,0,1-2.361,3.2,5.5,5.5,0,0,1-3.724.745,2.9,2.9,0,0,1-1.683-.745,1.4,1.4,0,0,1-.216-1.735,1.2,1.2,0,0,1,.79-.454,1.77,1.77,0,0,1,.879.112,2.593,2.593,0,0,1,1.184,1.177c.521.953.946,1.884,1.378,2.771,1.683,3.56,2.9,6.5,3.724,8.543.41,1.02.745,1.817.924,2.354.1.268.171.477.231.618a1.57,1.57,0,0,1,.067.216l-.089-.209-.253-.6-.961-2.346c-.849-2.026-2.093-4.961-3.791-8.506-.432-.879-.871-1.825-1.385-2.756a2.454,2.454,0,0,0-1.1-1.095,1.252,1.252,0,0,0-1.452.283,1.228,1.228,0,0,0,.209,1.49,2.7,2.7,0,0,0,1.572.693,5.3,5.3,0,0,0,3.583-.745,5.213,5.213,0,0,0,2.234-3.083,4.918,4.918,0,0,0,.134-2,1.96,1.96,0,0,0-1.035-1.6,1.132,1.132,0,0,0-.946,0,1.154,1.154,0,0,0-.618.745,2.523,2.523,0,0,0,.246,2.011,4.519,4.519,0,0,0,3.5,2.234,5.162,5.162,0,0,0,3.97-1.437,3.362,3.362,0,0,0,1.08-1.743,1.441,1.441,0,0,0-.186-.961.953.953,0,0,0-.782-.477,1.317,1.317,0,0,0-.886.35,1.487,1.487,0,0,0-.462.842,3.569,3.569,0,0,0,.231,1.966,4.79,4.79,0,0,0,6.257,2.778,2.417,2.417,0,0,0,1.221-1.192A1.073,1.073,0,0,0,240,98.051a1.691,1.691,0,0,0-1.557.045,3.228,3.228,0,0,0-1.095,1.117,17.57,17.57,0,0,0-1.311,2.771,27.09,27.09,0,0,0-1.341,5.109c-.261,1.542-.4,2.882-.507,3.977s-.156,1.937-.209,2.525c0,.276-.045.5-.052.655A2.023,2.023,0,0,1,233.9,114.489Z" transform="translate(-35.738 -15.092)"/><path class="h" d="M239.664,124.46l-13.63.886a1.026,1.026,0,1,1-.134-2.048l13.638-.879a1.021,1.021,0,0,1,.985.568,1.011,1.011,0,0,1,.1.386h0a1.027,1.027,0,0,1-.961,1.087Z" transform="translate(-36.785 -22.344)"/><path class="h" d="M239.79,126.36l-13.638.886a1.023,1.023,0,0,0,.134,2.041l1.49-.1,2.234,3.657a1.331,1.331,0,0,0,1.214.626l4.871-.313a1.348,1.348,0,0,0,1.125-.79l1.683-3.9,1.02-.067a1.028,1.028,0,0,0-.134-2.048Z" transform="translate(-36.852 -23.35)"/><g class="p" transform="translate(178.269 64.161)"><path class="q" d="M215.409,77.91a13.2,13.2,0,0,1,3.478-2.644,9.821,9.821,0,0,1,2.711-1c.685-.112,1.08-.074,1.125.067.1.328-1.244.9-2.979,2.234A14.943,14.943,0,0,0,213.9,91.644c.395,2.2,1,3.523.745,3.724-.134.082-.447-.156-.871-.7a9.429,9.429,0,0,1-1.356-2.585,13.317,13.317,0,0,1-.745-4.29,14.165,14.165,0,0,1,.931-5.325" transform="translate(-211.668 -74.202)"/></g><g class="p" transform="translate(191.396 62.567)"><path class="q" d="M231.644,74.295c-1.147.06-2.182-.186-2.339-.79-.067-.3.127-.633.521-.909a3.681,3.681,0,0,1,3.427-.209c.432.231.655.544.625.849" transform="translate(-229.292 -72.062)"/></g><path class="j" d="M238.8,134.668a7.879,7.879,0,0,1-.961-.231,7.954,7.954,0,0,0-2.331-.142,8.051,8.051,0,0,0-2.234.574c-.551.238-.879.432-.894.4a2.77,2.77,0,0,1,.827-.544,6.713,6.713,0,0,1,2.309-.648,6.59,6.59,0,0,1,2.391.209A2.893,2.893,0,0,1,238.8,134.668Z" transform="translate(-38.685 -25.313)"/><path class="j" d="M239.877,129.255c0,.06-2.458.268-5.5.469s-5.5.305-5.512.238,2.458-.268,5.5-.462S239.869,129.195,239.877,129.255Z" transform="translate(-37.786 -24.085)"/><path class="j" d="M239.495,131.508a8.167,8.167,0,0,1-1.333.216c-.827.112-1.974.231-3.247.335s-2.421.156-3.255.179a7.412,7.412,0,0,1-1.348,0,7.57,7.57,0,0,1,1.341-.149l3.247-.246,3.247-.268A8,8,0,0,1,239.495,131.508Z" transform="translate(-38.156 -24.663)"/><path class="d" d="M110.8,251.616l2.979,4.745s12.662-11.627,25.167-8.342C138.925,248,127.664,238.455,110.8,251.616Z" transform="translate(-7.66 -53.538)"/><path class="d" d="M148.561,245.3s9.273-10.07,22.873-7.776l3.724.559-1.177-2.138S150.3,227.843,148.561,245.3Z" transform="translate(-17.296 -50.836)"/><path class="c" d="M111.746,203.295S93.17,200.1,81,206.691L100.365,243.1s15.835-15.261,30.985-5.862Z" transform="translate(-0.055 -42.785)"/><path class="h" d="M111.692,203.256a1.3,1.3,0,0,1,.1.149l.276.462,1.073,1.81,4.022,6.9,14.241,24.579a.164.164,0,0,1-.223.223,20.461,20.461,0,0,0-7.128-2.733,22.3,22.3,0,0,0-4.015-.283,25.3,25.3,0,0,0-4.111.521,35.3,35.3,0,0,0-15.358,8.193l-.164.149a.183.183,0,0,1-.06.042.176.176,0,0,1-.142,0,.169.169,0,0,1-.06-.042v-.037L80.8,206.727a.141.141,0,0,1,.013-.165.139.139,0,0,1,.046-.036h0a37.453,37.453,0,0,1,12.379-3.687,62.988,62.988,0,0,1,9.914-.432c2.741.1,4.879.313,6.324.492.745.089,1.281.171,1.653.238l.425.074h-.007l-.425-.052c-.372-.045-.924-.119-1.654-.194-1.49-.149-3.59-.335-6.324-.4a63.159,63.159,0,0,0-9.869.5,37.36,37.36,0,0,0-12.267,3.724l.06-.2,19.365,36.407-.29-.052.164-.149a39.227,39.227,0,0,1,7.4-5.214,30.9,30.9,0,0,1,8.133-3.084,24.34,24.34,0,0,1,4.178-.521,21.771,21.771,0,0,1,4.082.29,20.958,20.958,0,0,1,7.24,2.793l-.231.223L117.032,212.7l-3.962-6.957-1.035-1.847c-.112-.209-.2-.365-.261-.484A1.251,1.251,0,0,1,111.692,203.256Z" transform="translate(0 -42.746)"/><path class="c" d="M151.561,192.7s-14.047-8.938-28.959,7.448L142.176,234.1s3.992-13.779,27.365-8.99Z" transform="translate(-10.671 -39.657)"/><path class="h" d="M151.509,192.648a.636.636,0,0,1,.1.142c.06.112.149.253.253.439l.991,1.728,3.724,6.584,13.057,23.484a.149.149,0,0,1,.02.059.145.145,0,0,1,0,.062.154.154,0,0,1-.028.055.166.166,0,0,1-.048.04.16.16,0,0,1-.112,0l-3.478-.574a15.775,15.775,0,0,0-1.8-.2l-1.832-.149a15.655,15.655,0,0,0-1.869-.045l-1.884.007c-.641,0-1.274.127-1.914.186a14.178,14.178,0,0,0-1.922.29l-1.914.432-1.884.663a19.874,19.874,0,0,0-1.817.842,5.714,5.714,0,0,0-.879.5l-.857.551c-.566.38-1.073.842-1.6,1.266a16.942,16.942,0,0,0-1.408,1.49,11.745,11.745,0,0,0-2.085,3.575.185.185,0,0,1-.1.105.188.188,0,0,1-.142.007.184.184,0,0,1-.1-.082l-.79-1.363c-6.919-12.029-13.407-23.238-18.762-32.6a.171.171,0,0,1,0-.186,32.949,32.949,0,0,1,10.6-7.97,21.162,21.162,0,0,1,10-1.877,20.534,20.534,0,0,1,6.4,1.43,15.739,15.739,0,0,1,1.564.745l.387.223.119.089-.134-.067-.395-.2c-.35-.171-.871-.425-1.572-.693a20.9,20.9,0,0,0-16.267.588,32.835,32.835,0,0,0-10.472,7.947v-.179l18.807,32.623.819,1.348-.343.045a12.261,12.261,0,0,1,2.153-3.724,20.331,20.331,0,0,1,1.445-1.542c.551-.439,1.065-.916,1.646-1.3l.871-.566a5.98,5.98,0,0,1,.9-.506c.626-.29,1.214-.641,1.855-.864l1.914-.663,1.951-.439a13.393,13.393,0,0,1,1.951-.29c.648-.06,1.289-.179,1.929-.186h1.914a13.264,13.264,0,0,1,1.884.045l1.847.156a14.465,14.465,0,0,1,1.81.2l3.5.588-.171.238c-5.34-9.683-9.8-17.794-12.945-23.507-1.557-2.838-2.786-5.087-3.627-6.636l-.953-1.758c-.1-.194-.179-.343-.238-.454A1.216,1.216,0,0,1,151.509,192.648Z" transform="translate(-10.621 -39.609)"/><path class="c" d="M88,184.62l20.952,40.332s17.019-.745,24.229,7.552l-19.41-33.778S102.39,184.62,88,184.62Z" transform="translate(-1.842 -38.217)"/><path class="h" d="M88,184.61h.536l1.609.067h.566l.618.1,1.4.231a11.365,11.365,0,0,1,1.6.387,18.129,18.129,0,0,1,1.8.529c5.005,1.668,11.723,5.705,17.756,12.662l19.44,33.755a.186.186,0,0,1-.067.253.178.178,0,0,1-.112.039.181.181,0,0,1-.112-.039h0l-.819-.819a17.762,17.762,0,0,0-5.363-3.538,30.526,30.526,0,0,0-6-1.966,50.074,50.074,0,0,0-11.917-1.177h0a.181.181,0,0,1-.156-.089c-6.108-11.843-11.321-21.965-15.023-29.13-1.8-3.538-3.247-6.368-4.268-8.32-.484-.946-.864-1.683-1.125-2.234l-.283-.559-.089-.186a1.044,1.044,0,0,1,.112.2l.313.574,1.177,2.234,4.365,8.357,15.12,28.914-.156-.089a50.055,50.055,0,0,1,12,1.162,31.371,31.371,0,0,1,6.063,1.981,18.154,18.154,0,0,1,5.467,3.62l.849.834-.305.216c-7.2-12.55-13.869-24.184-19.365-33.785a48.842,48.842,0,0,0-9.169-8.3,35.329,35.329,0,0,0-8.4-4.38,18.454,18.454,0,0,0-1.788-.544,11.076,11.076,0,0,0-1.586-.4l-1.393-.253-.6-.112-.551-.045Z" transform="translate(-1.839 -38.207)"/><path class="d" d="M174.73,338.2l.447.745a5.144,5.144,0,0,0,2.115,1.951l.745.387-.745.447a5.216,5.216,0,0,0-1.951,2.115l-.387.782-.447-.745a5.135,5.135,0,0,0-2.115-1.951l-.782-.387.745-.447a5.083,5.083,0,0,0,1.951-2.115Z" transform="translate(-23.177 -77.408)"/><path class="d" d="M119.288,131.93l.447.745a5.126,5.126,0,0,0,2.115,1.944l.745.387-.745.454a5.055,5.055,0,0,0-1.951,2.115l-.387.745-.447-.745a5.111,5.111,0,0,0-2.123-1.951l-.782-.387.745-.447a5.211,5.211,0,0,0,1.951-2.123Z" transform="translate(-9.027 -24.772)"/><path class="d" d="M375.885,167.52l.447.745a5.111,5.111,0,0,0,2.123,1.951l.782.387-.745.447a5.14,5.14,0,0,0-1.944,2.123l-.387.745-.454-.745a5.084,5.084,0,0,0-2.115-1.944l-.79-.372.745-.454a5.051,5.051,0,0,0,1.951-2.115Z" transform="translate(-74.517 -33.854)"/><path class="d" d="M345.586,351.15l.447.745a5.14,5.14,0,0,0,2.123,1.944l.782.387-.745.454a5.139,5.139,0,0,0-1.951,2.115l-.38.782-.454-.745a5.087,5.087,0,0,0-2.115-1.951l-.782-.387.745-.447a5.111,5.111,0,0,0,1.951-2.123Z" transform="translate(-66.787 -80.712)"/><path class="d" d="M352.369,389.74l.216.089a1.389,1.389,0,0,0,.745.074l.231-.045-.089.216a1.389,1.389,0,0,0-.074.745l.045.231-.216-.089a1.4,1.4,0,0,0-.745-.074l-.231.045.089-.216a1.389,1.389,0,0,0,.074-.745Z" transform="translate(-69.273 -90.56)"/><path class="d" d="M369.818,128.81l.209.089a1.412,1.412,0,0,0,.745.074l.223-.045-.082.216a1.327,1.327,0,0,0-.074.745l.045.231-.216-.089a1.419,1.419,0,0,0-.745-.074L369.7,130l.082-.216a1.32,1.32,0,0,0,.074-.745Z" transform="translate(-73.725 -23.976)"/><path class="d" d="M131.59,105l.216.082a1.327,1.327,0,0,0,.745.074h.231l-.089.209a1.412,1.412,0,0,0-.074.745l.045.223-.216-.082a1.327,1.327,0,0,0-.745-.074h-.231l.089-.209a1.419,1.419,0,0,0,.074-.745Z" transform="translate(-12.935 -17.9)"/><path class="d" d="M160.959,308.16l.216.082a1.269,1.269,0,0,0,.745.074l.231-.037-.089.216a1.389,1.389,0,0,0-.074.745l.045.223-.216-.082a1.327,1.327,0,0,0-.745-.074l-.231.045.089-.216a1.419,1.419,0,0,0,.074-.745Z" transform="translate(-20.429 -69.742)"/><path class="d" d="M177.6,386.69l-.209.216-.618.618-2.406,2.376-8.938,8.618v-.089c.469,9.347,1.065,22.009,1.691,36.161v.313l-.268-.171-3.225-2.16-20.438-13.682h-.045v-.045c-3.054-9.109-5.623-16.8-7.448-22.218-.894-2.7-1.594-4.826-2.085-6.3l-.536-1.676q-.089-.268-.134-.425a.331.331,0,0,0-.037-.149l.06.134.156.425c.134.395.328.946.581,1.661l2.16,6.279c1.847,5.415,4.469,13.079,7.552,22.173l-.06-.074,20.46,13.66,3.225,2.153-.253.142c-.6-14.152-1.147-26.814-1.549-36.176V398.4h.037l9-8.536,2.45-2.3.641-.588A1.317,1.317,0,0,1,177.6,386.69Z" transform="translate(-13.299 -89.781)"/><path class="d" d="M178.641,445.25l-.067,2.108,1.706,1.251-2.026.588-.663,2-1.192-1.743-2.108-.007,1.3-1.668-.648-2.011,1.989.715Z" transform="translate(-23.861 -104.725)"/><path class="d" d="M146.164,426.04l.045,1.363,1.147.745-1.289.454-.35,1.326-.834-1.08-1.363.075.767-1.132-.492-1.274,1.311.387Z" transform="translate(-16.009 -99.823)"/><path class="d" d="M132.146,385.11l1.028,1.326,1.676-.1-.938,1.393.611,1.557-1.609-.462-1.3,1.065-.06-1.676-1.408-.9,1.572-.573Z" transform="translate(-12.597 -89.378)"/><path class="d" d="M190.836,383.34l1.035,1.318,1.668-.1-.938,1.385.611,1.564-1.609-.469-1.3,1.065-.052-1.676-1.415-.9,1.579-.573Z" transform="translate(-27.574 -88.927)"/><path class="d" d="M175.681,400.48l.655.849,1.065-.067-.6.886.387,1-1.028-.3-.827.678-.037-1.065-.9-.581,1.006-.365Z" transform="translate(-23.889 -93.3)"/><path class="d" d="M118.1,314.673a14.852,14.852,0,1,0-14.852-14.852A14.851,14.851,0,0,0,118.1,314.673Z" transform="translate(-5.733 -63.825)"/><g class="r" transform="translate(105.583 238.209)"><path class="s" d="M118.936,310.3a2.429,2.429,0,1,1-.711-1.709,2.429,2.429,0,0,1,.711,1.709Z" transform="translate(-114.08 -307.88)"/></g><g class="r" transform="translate(104.182 232.236)"><path class="s" d="M115.029,301.268a1.415,1.415,0,1,1-.417-1,1.419,1.419,0,0,1,.417,1Z" transform="translate(-112.199 -299.86)"/></g><path class="d" d="M100.428,301.768c.067.261-12.714,12.52-9.415,15.135s17.131-4.089,28.966-13.63,22.605-21.131,19.648-24.2-17.719,6.011-17.719,6.011l1.765,1.132s8.938-5.728,11.753-3.508-5.214,10.9-16.587,19.2S96.495,316.016,94.8,313.744s6.331-9.847,6.331-9.847Z" transform="translate(-2.472 -62.158)"/><g class="r" transform="translate(87.997 216.282)"><path class="t" d="M100.428,301.768c.067.261-12.714,12.52-9.415,15.135s17.131-4.089,28.966-13.63,22.605-21.131,19.648-24.2-17.719,6.011-17.719,6.011l1.765,1.132s8.938-5.728,11.753-3.508-5.214,10.9-16.587,19.2S96.495,316.016,94.8,313.744s6.331-9.847,6.331-9.847Z" transform="translate(-90.469 -278.44)"/></g><g class="r" transform="translate(98.609 225.522)"><path class="s" d="M110.29,290.856c.119.142-.886,1-2.026,2.711a13.669,13.669,0,0,0-.3,15.023c1.073,1.765,2.041,2.659,1.914,2.793s-1.266-.581-2.592-2.339a13.066,13.066,0,0,1,.32-15.954C109,291.393,110.223,290.752,110.29,290.856Z" transform="translate(-104.717 -290.845)"/></g><path class="d" d="M347.256,122.718a12.252,12.252,0,1,0-17.324-.345A12.252,12.252,0,0,0,347.256,122.718Z" transform="translate(-62.706 -17.04)"/><g class="k" transform="translate(280.056 90.214)"><path class="l" d="M348.329,111.132a1.989,1.989,0,1,1,.133.769A2,2,0,0,1,348.329,111.132Z" transform="translate(-348.328 -109.181)"/></g><g class="k" transform="translate(284.049 95.681)"><path class="l" d="M353.69,117.667a1.17,1.17,0,1,1,1.14,1.192,1.162,1.162,0,0,1-1.14-1.192Z" transform="translate(-353.69 -116.52)"/></g><g class="k" transform="translate(282.053 100.402)"><path class="l" d="M351.449,122.86a.421.421,0,0,1,.3.127.415.415,0,0,1,.089.141.41.41,0,0,1,.028.164.439.439,0,0,1-.439.425.431.431,0,0,1-.417-.439.415.415,0,0,1,.036-.164.419.419,0,0,1,.238-.226.432.432,0,0,1,.165-.028Z" transform="translate(-351.01 -122.86)"/></g></g></svg>