<svg id="Group_47" data-name="Group 47" xmlns="http://www.w3.org/2000/svg" width="25" height="25" viewBox="0 0 25 25">
  <g id="Group_44" data-name="Group 44">
    <g id="Group_43" data-name="Group 43">
      <path id="Path_366" data-name="Path 366" d="M21.339,3.661A12.5,12.5,0,0,0,3.661,21.339,12.5,12.5,0,0,0,21.339,3.661ZM12.5,23.535A11.035,11.035,0,1,1,23.535,12.5,11.048,11.048,0,0,1,12.5,23.535Z" fill="#8e8e93"/>
    </g>
  </g>
  <g id="Group_46" data-name="Group 46" transform="translate(8.63 4.707)">
    <g id="Group_45" data-name="Group 45">
      <path id="Path_367" data-name="Path 367" d="M181.389,103.462H179.82a1.621,1.621,0,1,1,0-3.242h3.138a.732.732,0,1,0,0-1.465h-1.621V97.133a.732.732,0,0,0-1.465,0v1.621h-.052a3.086,3.086,0,1,0,0,6.172h1.569a1.621,1.621,0,0,1,0,3.242h-3.138a.732.732,0,0,0,0,1.465h1.621v1.621a.732.732,0,1,0,1.465,0v-1.621h.052a3.086,3.086,0,0,0,0-6.172Z" transform="translate(-176.734 -96.401)" fill="#8e8e93"/>
    </g>
  </g>
</svg>
