<svg xmlns="http://www.w3.org/2000/svg" width="24" height="18" viewBox="0 0 24 18">
  <path id="Path_5" data-name="Path 5" d="M21.75,64H2.25A2.252,2.252,0,0,0,0,66.25v13.5A2.252,2.252,0,0,0,2.25,82h19.5A2.252,2.252,0,0,0,24,79.75V66.25A2.252,2.252,0,0,0,21.75,64Zm0,1.5a.746.746,0,0,1,.287.058L12,74.258l-10.037-8.7A.747.747,0,0,1,2.25,65.5Zm0,15H2.25a.75.75,0,0,1-.75-.75V67.143l10.009,8.674a.751.751,0,0,0,.983,0L22.5,67.143V79.75A.751.751,0,0,1,21.75,80.5Z" transform="translate(0 -64)" fill="#8e8e93"/>
</svg>
