<svg xmlns="http://www.w3.org/2000/svg" width="24" height="15.295" viewBox="0 0 24 15.295">
  <g id="Group_19" data-name="Group 19" transform="translate(0 -92.836)">
    <g id="Group_16" data-name="Group 16" transform="translate(0 92.835)">
      <g id="Group_15" data-name="Group 15" transform="translate(0 0)">
        <path id="Path_10" data-name="Path 10" d="M23.847,100.017c-.214-.293-5.323-7.182-11.848-7.182S.366,99.723.152,100.016a.792.792,0,0,0,0,.934c.214.293,5.323,7.182,11.848,7.182s11.633-6.888,11.848-7.181A.791.791,0,0,0,23.847,100.017ZM12,106.549c-4.806,0-8.969-4.572-10.2-6.066,1.231-1.5,5.384-6.065,10.2-6.065s8.968,4.571,10.2,6.066C20.97,101.98,16.816,106.549,12,106.549Z" transform="translate(0 -92.835)" fill="#8e8e93"/>
      </g>
    </g>
    <g id="Group_18" data-name="Group 18" transform="translate(7.083 95.567)">
      <g id="Group_17" data-name="Group 17">
        <path id="Path_11" data-name="Path 11" d="M159.639,154.725a4.917,4.917,0,1,0,4.917,4.917A4.922,4.922,0,0,0,159.639,154.725Zm0,8.194a3.278,3.278,0,1,1,3.278-3.278A3.281,3.281,0,0,1,159.639,162.919Z" transform="translate(-154.722 -154.725)" fill="#8e8e93"/>
      </g>
    </g>
  </g>
</svg>
