<svg xmlns="http://www.w3.org/2000/svg" width="35.142" height="35" viewBox="0 0 35.142 35">
  <g id="Group_22" data-name="Group 22" transform="translate(-0.126)">
    <path id="Path_12" data-name="Path 12" d="M1263.044,1022.377a15.362,15.362,0,0,0-.379-3.665h-16.833v6.654h9.881a8.762,8.762,0,0,1-3.666,5.817l-.033.223,5.323,4.123.369.037a17.53,17.53,0,0,0,5.339-13.188" transform="translate(-1227.777 -1004.908)" fill="#4285f4"/>
    <path id="Path_13" data-name="Path 13" d="M149.015,1506.463a17.089,17.089,0,0,0,11.873-4.343l-5.658-4.383a10.612,10.612,0,0,1-6.215,1.793,10.793,10.793,0,0,1-10.2-7.45l-.21.018-5.534,4.283-.072.2a17.916,17.916,0,0,0,16.017,9.881" transform="translate(-130.96 -1471.463)" fill="#34a853"/>
    <path id="Path_14" data-name="Path 14" d="M7.855,692.14a11.038,11.038,0,0,1-.6-3.546,11.6,11.6,0,0,1,.578-3.546l-.01-.238-5.6-4.352-.183.087a17.892,17.892,0,0,0,0,16.1l5.817-4.5" transform="translate(0 -671.092)" fill="#fbbc05"/>
    <path id="Path_15" data-name="Path 15" d="M149.015,6.933a9.937,9.937,0,0,1,6.933,2.67l5.06-4.941A17.226,17.226,0,0,0,149.015,0,17.916,17.916,0,0,0,133,9.881l5.8,4.5a10.838,10.838,0,0,1,10.22-7.451" transform="translate(-130.96 0)" fill="#eb4335"/>
  </g>
</svg>
