<svg xmlns="http://www.w3.org/2000/svg" width="30" height="29.717" viewBox="0 0 30 29.717">
  <g id="Group_12299" data-name="Group 12299" transform="translate(0 -2)">
    <path id="Path_31253" data-name="Path 31253" d="M28.245,309.322l-1.633-.476v-.252a3.477,3.477,0,0,0,1.452-2.834v-.988a3.388,3.388,0,1,0-6.774,0v.988a3.476,3.476,0,0,0,1.452,2.834v.252l-1.633.477a2.417,2.417,0,0,0-1.271.9,2.42,2.42,0,0,0-1.271-.9l-1.633-.476v-.252a3.477,3.477,0,0,0,1.452-2.834v-.988a3.388,3.388,0,1,0-6.774,0v.988a3.476,3.476,0,0,0,1.452,2.834v.252l-1.633.477a2.417,2.417,0,0,0-1.271.9,2.42,2.42,0,0,0-1.271-.9l-1.633-.476v-.252A3.477,3.477,0,0,0,8.71,305.76v-.988a3.428,3.428,0,0,0-3.387-3.459,3.428,3.428,0,0,0-3.387,3.459v.988a3.476,3.476,0,0,0,1.452,2.834v.252l-1.633.477A2.475,2.475,0,0,0,0,311.7v1.473H30V311.7A2.476,2.476,0,0,0,28.245,309.322Zm-4.536-.249a3.283,3.283,0,0,0,1.935,0v.146a.968.968,0,1,1-1.935,0Zm-1.452-3.313v-.988a2.42,2.42,0,1,1,4.839,0v.988a2.42,2.42,0,1,1-4.839,0Zm-8.226,3.313a3.283,3.283,0,0,0,1.935,0v.146a.968.968,0,1,1-1.935,0Zm-1.452-3.313v-.988a2.42,2.42,0,1,1,4.839,0v.988a2.42,2.42,0,1,1-4.839,0Zm-8.226,3.313a3.283,3.283,0,0,0,1.935,0v.146a.968.968,0,1,1-1.935,0ZM2.9,305.76v-.988A2.448,2.448,0,0,1,5.323,302.3a2.448,2.448,0,0,1,2.419,2.471v.988a2.448,2.448,0,0,1-2.419,2.471A2.448,2.448,0,0,1,2.9,305.76Zm6.774,6.424H.968V311.7a1.485,1.485,0,0,1,1.053-1.426l1.475-.43a1.91,1.91,0,0,0,3.654,0l1.475.43A1.486,1.486,0,0,1,9.677,311.7Zm9.677,0h-8.71V311.7a1.485,1.485,0,0,1,1.053-1.426l1.475-.43a1.91,1.91,0,0,0,3.654,0l1.475.43a1.486,1.486,0,0,1,1.053,1.426Zm9.677,0h-8.71V311.7a1.485,1.485,0,0,1,1.053-1.426l1.475-.43a1.91,1.91,0,0,0,3.654,0l1.475.43a1.486,1.486,0,0,1,1.053,1.426Z" transform="translate(0 -281.456)" fill="#373737"/>
    <path id="Path_31254" data-name="Path 31254" d="M150.424,90.161A6.424,6.424,0,1,0,144,83.737,6.431,6.431,0,0,0,150.424,90.161Zm-5.436-6.424c0-.167.01-.331.025-.494h.84a.928.928,0,0,1,.9.7l.035.14a1.907,1.907,0,0,0,1.254,1.354.926.926,0,0,1,.608.657l.035.14a1.914,1.914,0,0,0,1.86,1.452h.154a.933.933,0,0,1,.743.372l.637.851a5.43,5.43,0,0,1-7.093-5.175Zm10.1,2.77-.307-.154a1.642,1.642,0,0,1,.73-3.111h.32c.014.163.025.327.025.494A5.393,5.393,0,0,1,155.092,86.507Zm-.478-6.229h-.326a2.2,2.2,0,0,0-2.151,1.763.881.881,0,0,1-1.651.222l-.166-.333a2.081,2.081,0,0,0-1.872-1.157,1.1,1.1,0,0,1-.988-.611l-.358-.716a5.416,5.416,0,0,1,7.513.833Zm-8.264-.126.226.451a2.081,2.081,0,0,0,1.872,1.157,1.1,1.1,0,0,1,.988.611l.166.333a1.869,1.869,0,0,0,3.5-.469,1.208,1.208,0,0,1,1.182-.968h.972a5.4,5.4,0,0,1,.389.988h-.134a2.632,2.632,0,0,0-1.171,4.983l.16.08a5.469,5.469,0,0,1-1.486,1.2l-.783-1.044A1.925,1.925,0,0,0,150.7,86.7h-.154a.928.928,0,0,1-.9-.7l-.035-.14a1.908,1.908,0,0,0-1.254-1.354.926.926,0,0,1-.608-.657l-.035-.14a1.914,1.914,0,0,0-1.86-1.453H145.2A5.422,5.422,0,0,1,146.349,80.151Z" transform="translate(-135.424 -70.829)" fill="#373737"/>
    <path id="Path_31255" data-name="Path 31255" d="M219.682,3.892V5.664h.988V3.892l.639.639.7-.7L220.176,2l-1.832,1.832.7.7Z" transform="translate(-205.176 0)" fill="#373737"/>
    <path id="Path_31256" data-name="Path 31256" d="M55.218,154.621l-.639-.639h2.76v-.988H54.58l.639-.639-.7-.7-1.832,1.832,1.832,1.832Z" transform="translate(-49.434 -140.631)" fill="#373737"/>
    <path id="Path_31257" data-name="Path 31257" d="M368,152.994v.988h2.76l-.639.639.7.7,1.832-1.832-1.832-1.832-.7.7.639.639Z" transform="translate(-345.906 -140.631)" fill="#373737"/>
    <path id="Path_31258" data-name="Path 31258" d="M331.043,56.133,332.176,55v.784h.988V53.313h-2.471V54.3h.784l-1.133,1.133Z" transform="translate(-310.406 -48.144)" fill="#373737"/>
    <path id="Path_31259" data-name="Path 31259" d="M120.988,55l1.133,1.133.7-.7L121.687,54.3h.784v-.988H120v2.471h.988Z" transform="translate(-112.758 -48.144)" fill="#373737"/>
  </g>
</svg>
