<svg xmlns="http://www.w3.org/2000/svg" width="16.503" height="24" viewBox="0 0 16.503 24">
  <g id="Group_2097" data-name="Group 2097" transform="translate(-79.968 0.001)">
    <path id="Path_2100" data-name="Path 2100" d="M88.219,24a1.433,1.433,0,0,1-1.255-.727l-.008-.014L81,12.365a8.355,8.355,0,0,1,.109-8.256A8.144,8.144,0,0,1,88.034,0c.123,0,.246,0,.369,0a8.145,8.145,0,0,1,6.921,4.108,8.355,8.355,0,0,1,.109,8.256L89.482,23.258l-.008.014A1.433,1.433,0,0,1,88.219,24Zm0-22.5-.154,0a6.656,6.656,0,0,0-5.653,3.36,6.866,6.866,0,0,0-.09,6.784l5.9,10.8,5.9-10.8a6.866,6.866,0,0,0-.091-6.785A6.656,6.656,0,0,0,88.373,1.5l-.154,0Z" transform="translate(0 0)" fill="#8e8e93"/>
    <path id="Path_2101" data-name="Path 2101" d="M187.4,94.795a3.4,3.4,0,1,1,3.4-3.4A3.4,3.4,0,0,1,187.4,94.795Zm0-5.285a1.887,1.887,0,1,0,1.887,1.887A1.89,1.89,0,0,0,187.4,89.51Z" transform="translate(-99.178 -83.886)" fill="#8e8e93"/>
  </g>
</svg>
