<svg xmlns="http://www.w3.org/2000/svg" width="335.854" height="118.876" viewBox="0 0 335.854 118.876">
  <g id="logo" transform="translate(-156.434 -111.345)">
    <path id="Path_1" data-name="Path 1" d="M207.834,111.345A51.337,51.337,0,0,1,250.107,133.5a46.561,46.561,0,1,0-7.566,67.153,51.4,51.4,0,1,1-34.707-89.311Z" transform="translate(0 0)" fill="#fff" fill-rule="evenodd"/>
    <g id="Group_1" data-name="Group 1" transform="translate(178.462 112.484)">
      <path id="Path_2" data-name="Path 2" d="M211.684,195.18l-35.541-53.646H197.77l12.07,28.332,26.991-57.5h33.026Z" transform="translate(-176.144 -112.364)" fill="#fff" fill-rule="evenodd"/>
      <path id="Path_3" data-name="Path 3" d="M246.368,139.825h14.249v9.666H246.368v-9.666Zm0,14.1h14.249v37.161H246.368V153.929Zm64.583,22.126H282.384a9.2,9.2,0,0,0,1.861,5.108,6.746,6.746,0,0,0,5.395,2.41,8.152,8.152,0,0,0,4-1.037,9.323,9.323,0,0,0,2.495-2.327l14.034,1.289a20.074,20.074,0,0,1-7.769,8.019q-4.547,2.434-13.056,2.434-7.391,0-11.622-2.088a17.127,17.127,0,0,1-7.018-6.612,20.076,20.076,0,0,1-2.781-10.668q0-8.717,5.586-14.118,5.566-5.388,15.405-5.394,7.983,0,12.59,2.422a16.3,16.3,0,0,1,7.041,7.005q2.416,4.583,2.41,11.945v1.612Zm-14.463-6.8c-.274-2.77-1.026-4.75-2.231-5.944a6.982,6.982,0,0,0-10.192.919,9.989,9.989,0,0,0-1.646,5.025Zm38.164-29.428v14.1h7.8v10.454h-7.8v13.151a7.161,7.161,0,0,0,.454,3.138,2.618,2.618,0,0,0,2.458,1.181,15.583,15.583,0,0,0,4.416-.908l1.051,9.845a45.846,45.846,0,0,1-9.857,1.158q-5.316,0-7.84-1.36a8.387,8.387,0,0,1-3.724-4.141c-.8-1.85-1.2-4.857-1.2-9V164.384h-5.227V153.929H320.4v-6.813l14.249-7.291Zm14.594,0h14.249v18.867a19.006,19.006,0,0,1,5.765-4.32,16.134,16.134,0,0,1,6.766-1.3q5.8,0,9.129,3.532t3.329,10.86v23.628h-14.32V170.649c0-2.339-.429-3.985-1.289-4.952a4.589,4.589,0,0,0-3.616-1.456,5.137,5.137,0,0,0-4.165,1.957c-1.062,1.312-1.6,3.651-1.6,7.041v17.852H349.246V139.825Zm60.79,26.135-13.6-1.433a15.243,15.243,0,0,1,2.221-5.621,12.073,12.073,0,0,1,4.175-3.556,17.176,17.176,0,0,1,5.37-1.682,43.613,43.613,0,0,1,7.411-.6,58.953,58.953,0,0,1,10.263.715,13.18,13.18,0,0,1,6.455,3,10.4,10.4,0,0,1,2.864,4.463,15.994,15.994,0,0,1,1.049,5.513v16.42a19.436,19.436,0,0,0,.335,4.117,18.259,18.259,0,0,0,1.444,3.794H424.69a13.759,13.759,0,0,1-1.051-2.172,17.929,17.929,0,0,1-.49-2.339,18.2,18.2,0,0,1-5.561,3.831,23.114,23.114,0,0,1-8.77,1.539q-6.642,0-10.084-3.09a9.788,9.788,0,0,1-3.449-7.6,9.978,9.978,0,0,1,2.482-6.981q2.488-2.739,9.166-4.069,8-1.611,10.382-2.268a46.448,46.448,0,0,0,5.036-1.694c0-1.755-.358-2.972-1.086-3.676s-1.98-1.051-3.794-1.051a9.8,9.8,0,0,0-5.238,1.122,6.241,6.241,0,0,0-2.2,3.318Zm12.315,7.446c-1.957.7-4,1.324-6.134,1.874-2.888.776-4.726,1.539-5.49,2.291A3.707,3.707,0,0,0,410.7,183a4.95,4.95,0,0,0,3.448,1.074,8.881,8.881,0,0,0,4.44-1.169,7.007,7.007,0,0,0,2.9-2.841,9.6,9.6,0,0,0,.859-4.368v-2.291Zm19.9,7.375,14.106-1.289a6.907,6.907,0,0,0,2.447,3.58,7.323,7.323,0,0,0,4.2,1.074,7.038,7.038,0,0,0,4.439-1.229,2.7,2.7,0,0,0,1.229-2.267,2.611,2.611,0,0,0-1.61-2.387,29.489,29.489,0,0,0-6.11-1.467,63.232,63.232,0,0,1-10.3-2.4,10.916,10.916,0,0,1-4.857-3.724,10.288,10.288,0,0,1,.155-12.315,12.624,12.624,0,0,1,5.872-3.974,31.231,31.231,0,0,1,10.024-1.312,34.436,34.436,0,0,1,9.785,1.014,12.822,12.822,0,0,1,5.275,3.151,16.588,16.588,0,0,1,3.508,5.788l-13.461,1.289a4.619,4.619,0,0,0-1.742-2.613,7.129,7.129,0,0,0-4.046-1.11,5.688,5.688,0,0,0-3.5.858,2.575,2.575,0,0,0-1.1,2.077,2.217,2.217,0,0,0,1.385,2.065,21.714,21.714,0,0,0,6.062,1.265,41.7,41.7,0,0,1,10.56,2.243,11.557,11.557,0,0,1,5.288,4.093,10.058,10.058,0,0,1,1.837,5.847,11.457,11.457,0,0,1-1.946,6.265,13.138,13.138,0,0,1-6.109,4.845q-4.171,1.807-11.373,1.8-10.168,0-14.488-2.911A13.041,13.041,0,0,1,442.256,180.78Z" transform="translate(-167.883 -109.134)" fill="#fff" fill-rule="evenodd"/>
    </g>
    <path id="Path_4" data-name="Path 4" d="M259.357,208.61a5.189,5.189,0,0,1-.826,2.9,5.363,5.363,0,0,1-2.354,1.956,8.532,8.532,0,0,1-3.557.693h-1.461v5.11h-4.791v-15.9h6.517a7.717,7.717,0,0,1,4.916,1.275,4.83,4.83,0,0,1,1.556,3.966Zm-5.064.163a1.874,1.874,0,0,0-.564-1.476,2.44,2.44,0,0,0-1.661-.5h-.909v3.928h1.075q2.06,0,2.059-1.952Zm11.535-3.922a2.032,2.032,0,0,1-.726,1.621,2.844,2.844,0,0,1-1.911.62,2.772,2.772,0,0,1-1.889-.643,2.035,2.035,0,0,1-.738-1.6,1.969,1.969,0,0,1,.715-1.581,3.318,3.318,0,0,1,3.822,0,1.955,1.955,0,0,1,.726,1.581Zm-5,14.413V207.91h4.723v11.354Zm19.623-5.878a5.914,5.914,0,0,1-1.733,4.511,8.027,8.027,0,0,1-9.67.038,5.738,5.738,0,0,1-1.721-4.417,5.894,5.894,0,0,1,.809-3.134,5.252,5.252,0,0,1,2.306-2.04,7.96,7.96,0,0,1,3.447-.707,7.712,7.712,0,0,1,3.5.741,5.409,5.409,0,0,1,2.275,2.063,5.626,5.626,0,0,1,.79,2.945Zm-4.791.022q0-2.322-1.771-2.32t-1.77,2.43q0,2.567,1.794,2.566,1.749,0,1.748-2.676Zm13.917,5.855v-6.2a2.783,2.783,0,0,0-.314-1.514,1.158,1.158,0,0,0-1.026-.462,1.1,1.1,0,0,0-.95.477,2.029,2.029,0,0,0-.344,1.218v6.48H282.22V207.91h4.723v1.77h.046a3.977,3.977,0,0,1,1.518-1.507,4.137,4.137,0,0,1,2.07-.536q3.723,0,3.724,4.7v6.926Zm10.923-4.338a1.608,1.608,0,0,0,.844,1.15,3.8,3.8,0,0,0,1.908.417,7.834,7.834,0,0,0,3.129-.636v2.99a11.245,11.245,0,0,1-4.17.688,6.582,6.582,0,0,1-4.621-1.517,5.39,5.39,0,0,1-1.654-4.179,6.894,6.894,0,0,1,.726-3.224,5.251,5.251,0,0,1,2.15-2.187,6.363,6.363,0,0,1,3.141-.791,6.194,6.194,0,0,1,3.016.685,4.579,4.579,0,0,1,1.9,1.93,6.183,6.183,0,0,1,.647,2.9v1.771Zm2.839-2.476q0-1.953-1.408-1.952a1.2,1.2,0,0,0-.988.533,2.685,2.685,0,0,0-.465,1.419Zm9.878,2.476a1.611,1.611,0,0,0,.844,1.15,3.8,3.8,0,0,0,1.908.417,7.84,7.84,0,0,0,3.13-.636v2.99a11.251,11.251,0,0,1-4.171.688,6.586,6.586,0,0,1-4.621-1.517,5.394,5.394,0,0,1-1.654-4.179,6.893,6.893,0,0,1,.727-3.224,5.25,5.25,0,0,1,2.15-2.187,6.365,6.365,0,0,1,3.142-.791,6.193,6.193,0,0,1,3.015.685,4.579,4.579,0,0,1,1.9,1.93,6.169,6.169,0,0,1,.648,2.9v1.771Zm2.839-2.476q0-1.953-1.408-1.952a1.2,1.2,0,0,0-.988.533,2.685,2.685,0,0,0-.465,1.419Zm14.351-.5a3.619,3.619,0,0,0-.719-.219,3.807,3.807,0,0,0-.758-.1q-2.339,0-2.338,2.706v4.924h-4.723V207.91h4.723v2h.045a3.546,3.546,0,0,1,1.23-1.643,3.158,3.158,0,0,1,1.862-.56,1.62,1.62,0,0,1,.677.132v4.114Zm20.3,1.435a5.914,5.914,0,0,1-1.733,4.511,8.027,8.027,0,0,1-9.67.038,5.738,5.738,0,0,1-1.721-4.417,5.894,5.894,0,0,1,.809-3.134,5.246,5.246,0,0,1,2.306-2.04,7.96,7.96,0,0,1,3.447-.707,7.712,7.712,0,0,1,3.5.741,5.409,5.409,0,0,1,2.275,2.063,5.626,5.626,0,0,1,.79,2.945Zm-4.791.022q0-2.322-1.771-2.32t-1.77,2.43q0,2.567,1.794,2.566,1.749,0,1.748-2.676Zm15.3-7.516a4.129,4.129,0,0,0-1.366-.254,1.367,1.367,0,0,0-1.54,1.494v.777h2.634v3.27h-2.634v8.084h-4.724v-8.084h-1.907v-3.27h1.907v-1.042a4.637,4.637,0,0,1,.644-2.449,4.309,4.309,0,0,1,1.87-1.646,6.87,6.87,0,0,1,2.978-.587,8.051,8.051,0,0,1,2.138.243v3.464Zm18.825,8.557a4.6,4.6,0,0,1-.847,2.759,5.045,5.045,0,0,1-2.377,1.752,10.49,10.49,0,0,1-3.679.574,11.95,11.95,0,0,1-4.563-.844v-4.355a9.03,9.03,0,0,0,2.206,1.185,6.517,6.517,0,0,0,2.252.45,2.217,2.217,0,0,0,1.218-.284.927.927,0,0,0,.431-.826,1.111,1.111,0,0,0-.216-.681,2.118,2.118,0,0,0-.655-.549,11.693,11.693,0,0,0-1.627-.7q-3.837-1.475-3.838-4.769a4.451,4.451,0,0,1,1.752-3.686,7.383,7.383,0,0,1,4.7-1.381c.553,0,1.064.022,1.529.068s.89.1,1.272.163.912.192,1.6.378v4.046a8.239,8.239,0,0,0-3.949-1.09,2.43,2.43,0,0,0-1.286.3.925.925,0,0,0-.488.823,1.039,1.039,0,0,0,.395.825,7.416,7.416,0,0,0,1.645.847,9.114,9.114,0,0,1,3.5,2.184,4.14,4.14,0,0,1,1.025,2.812Zm16.234,4.815v-6.544a2.109,2.109,0,0,0-.292-1.227,1.108,1.108,0,0,0-.958-.4,1.194,1.194,0,0,0-1.018.492,2.252,2.252,0,0,0-.367,1.37v6.313h-4.723V212.83q0-1.744-1.185-1.741a1.244,1.244,0,0,0-1.083.5,2.431,2.431,0,0,0-.367,1.448v6.223h-4.724V207.91h4.724V209.7h.045a3.591,3.591,0,0,1,.848-.966,4.967,4.967,0,0,1,1.313-.8,4.089,4.089,0,0,1,1.581-.3,4.025,4.025,0,0,1,2.036.476,3.7,3.7,0,0,1,1.378,1.5,4.024,4.024,0,0,1,1.6-1.465,4.77,4.77,0,0,1,2.222-.514,3.343,3.343,0,0,1,2.74,1.161A5.19,5.19,0,0,1,401,212.16v7.1Zm13.151,0v-1.727h-.045a3.71,3.71,0,0,1-3.456,2,3.312,3.312,0,0,1-2.517-.953,3.537,3.537,0,0,1-.909-2.547q0-3.345,4.111-3.876l2.815-.367a1.087,1.087,0,0,0-.5-.916,2.243,2.243,0,0,0-1.339-.355,8.8,8.8,0,0,0-4.02,1.091v-3.066a10.825,10.825,0,0,1,2.3-.655,13.322,13.322,0,0,1,2.374-.254,5.949,5.949,0,0,1,4.193,1.237q1.3,1.232,1.3,4.125v6.264Zm-2.793-3.857a1.045,1.045,0,0,0,.3.764,1.107,1.107,0,0,0,.837.3,1.481,1.481,0,0,0,1.2-.557,2.144,2.144,0,0,0,.462-1.419v-.431l-1.6.224c-.8.132-1.2.5-1.2,1.12Zm17.78-3.456a3.619,3.619,0,0,0-.719-.219,3.807,3.807,0,0,0-.757-.1q-2.34,0-2.339,2.706v4.924h-4.723V207.91H420.6v2h.045a3.546,3.546,0,0,1,1.231-1.643,3.158,3.158,0,0,1,1.862-.56,1.62,1.62,0,0,1,.677.132v4.114Zm9.356,7.153a4.555,4.555,0,0,1-1.052.292,9.4,9.4,0,0,1-1.764.14,4.253,4.253,0,0,1-3.088-1.085,4.126,4.126,0,0,1-1.113-3.092v-4.178h-1.794v-3.27h1.794v-2.233l4.655-1.288v3.521h2.362v3.27h-2.362v3.405q0,1.5,1.189,1.5a3.166,3.166,0,0,0,1.172-.249V219.1Zm8.217.16v-15.9h4.792v12.149h5.472v3.747Zm16.854-14.413a2.036,2.036,0,0,1-.727,1.621,2.849,2.849,0,0,1-1.912.62,2.769,2.769,0,0,1-1.888-.643,2.032,2.032,0,0,1-.738-1.6,1.969,1.969,0,0,1,.715-1.581,2.849,2.849,0,0,1,1.91-.606,2.884,2.884,0,0,1,1.912.606,1.958,1.958,0,0,1,.727,1.581Zm-5,14.413V207.91h4.723v11.354Zm15.74-13.371a4.129,4.129,0,0,0-1.366-.254,1.367,1.367,0,0,0-1.54,1.494v.777h2.634v3.27h-2.634v8.084h-4.724v-8.084h-1.907v-3.27h1.907v-1.042a4.647,4.647,0,0,1,.644-2.449,4.309,4.309,0,0,1,1.87-1.646,6.874,6.874,0,0,1,2.978-.587,8.05,8.05,0,0,1,2.138.243v3.464Zm5.113,9.034a1.611,1.611,0,0,0,.844,1.15,3.8,3.8,0,0,0,1.908.417,7.84,7.84,0,0,0,3.13-.636v2.99a11.247,11.247,0,0,1-4.171.688,6.586,6.586,0,0,1-4.621-1.517,5.393,5.393,0,0,1-1.654-4.179,6.881,6.881,0,0,1,.728-3.224A5.242,5.242,0,0,1,473,208.429a6.368,6.368,0,0,1,3.142-.791,6.2,6.2,0,0,1,3.016.685,4.578,4.578,0,0,1,1.9,1.93,6.182,6.182,0,0,1,.647,2.9v1.771Zm2.839-2.476q0-1.953-1.408-1.952a1.2,1.2,0,0,0-.987.533,2.7,2.7,0,0,0-.466,1.419Z" transform="translate(10.579 10.686)" fill="#fff" fill-rule="evenodd"/>
  </g>
</svg>
