<svg xmlns="http://www.w3.org/2000/svg" width="50" height="50" viewBox="0 0 50 50">
  <path id="Path_2751" data-name="Path 2751" d="M-240.48-65.756l-2.256,2.256h-2.988a.833.833,0,0,0-.833.833v2.988l-2.845,2.845h-2.988a.833.833,0,0,0-.833.833v2.988l-2.845,2.845h-2.988a.833.833,0,0,0-.833.833v2.988l-3.678,3.679h-2.849a9.963,9.963,0,0,1,4.477-6.762l-.9-1.4a11.668,11.668,0,0,0-3.547,16.115,11.668,11.668,0,0,0,9.83,5.384h10.7a15.846,15.846,0,0,1-10.7,4.167A15.851,15.851,0,0,1-272.39-41h-1.667a17.478,17.478,0,0,0,.5,4.167h-6.336v-8.333h6.667a.833.833,0,0,0,.77-.514l1.346-3.25a.834.834,0,0,0-.181-.908L-276-54.553l5.893-5.893,4.714,4.714a.833.833,0,0,0,.908.181l3.25-1.346a.833.833,0,0,0,.514-.77v-6.667h8.333v5h1.667v-5.833a.833.833,0,0,0-.833-.833h-10a.833.833,0,0,0-.833.833v6.943l-2.221.92-4.909-4.91a.833.833,0,0,0-1.179,0l-7.071,7.071a.834.834,0,0,0,0,1.179l4.91,4.909-.92,2.221h-6.943a.833.833,0,0,0-.833.833v10a.833.833,0,0,0,.833.833h6.943l.92,2.221-4.91,4.909a.834.834,0,0,0,0,1.179l7.071,7.071a.833.833,0,0,0,1.179,0l4.909-4.91,2.221.92v6.943a.833.833,0,0,0,.833.833h10a.833.833,0,0,0,.833-.833v-6.943l2.221-.92,4.91,4.91a.833.833,0,0,0,1.179,0l7.071-7.071a.833.833,0,0,0,0-1.179h0l-1.3-1.3h4.25a.833.833,0,0,0,.833-.833V-58.5a.833.833,0,0,0-.833-.833h-6.667a.833.833,0,0,0-.833.833v5.833h-5.833a.833.833,0,0,0-.833.833v4.167h-5.833a.833.833,0,0,0-.833.833v5h-5.833a.833.833,0,0,0-.833.833v3.333h-6.095A9.956,9.956,0,0,1-266.557-41h3.333a.834.834,0,0,0,.589-.244l3.923-3.923h2.988A.833.833,0,0,0-254.89-46v-2.988l2.845-2.845h2.988a.833.833,0,0,0,.833-.833v-2.988l2.845-2.845h2.988a.833.833,0,0,0,.833-.833v-2.988l2.012-2.012h7.988V-66h-8.333A.834.834,0,0,0-240.48-65.756Zm-29.63,44.2L-276-27.447l4.484-4.484a17.635,17.635,0,0,0,5.892,5.893Zm9.386,3.888V-24a17.5,17.5,0,0,0,8.333,0v6.337Zm23.612-9.781L-243-21.554l-4.482-4.483a17.506,17.506,0,0,0,3.972-3.3H-239Zm-1.112-30.219h5V-31h-5ZM-244.89-51h5v20h-5Zm-6.667,5h5v15h-5Zm-6.667,5.833h5V-31h-3.333a10.018,10.018,0,0,1-1.667-.14ZM-259.89-36v4.428A10.055,10.055,0,0,1-265.215-36Zm3.333-10.833h-1.667V-48.5h1.667Zm6.667-6.667h-1.667v-1.667h1.667Zm6.667-6.667h-1.667v-1.667h1.667Z" transform="translate(281.557 66)" fill="#fff"/>
</svg>
