<svg xmlns="http://www.w3.org/2000/svg" width="13.517" height="24" viewBox="0 0 13.517 24">
  <g id="Group_2098" data-name="Group 2098" transform="translate(-88 -2.398)">
    <path id="Path_2102" data-name="Path 2102" d="M99.738,2.4h-9.96A1.9,1.9,0,0,0,88,4.4v20a1.9,1.9,0,0,0,1.779,2h9.96a1.9,1.9,0,0,0,1.779-2V4.4A1.9,1.9,0,0,0,99.738,2.4Zm.356,20.9a1.583,1.583,0,0,1-1.483,1.667H90.906A1.583,1.583,0,0,1,89.423,23.3V5.5a1.583,1.583,0,0,1,1.483-1.667h7.706A1.583,1.583,0,0,1,100.094,5.5Z" fill="#8e8e93"/>
    <rect id="Rectangle_1762" data-name="Rectangle 1762" width="10.845" height="1.437" transform="translate(89.336 6.178)" fill="#8e8e93"/>
    <rect id="Rectangle_1763" data-name="Rectangle 1763" width="10.845" height="1.437" transform="translate(89.336 21.19)" fill="#8e8e93"/>
    <rect id="Rectangle_1764" data-name="Rectangle 1764" width="3.084" height="1.437" rx="0.718" transform="translate(93.216 4.315)" fill="#8e8e93"/>
    <circle id="Ellipse_48" data-name="Ellipse 48" cx="0.718" cy="0.718" r="0.718" transform="translate(94.04 23.036)" fill="#8e8e93"/>
  </g>
</svg>
