<svg xmlns="http://www.w3.org/2000/svg" width="40" height="39.201" viewBox="0 0 40 39.201">
  <g id="Group_2558" data-name="Group 2558" transform="translate(0 -5.115)">
    <g id="Group_2553" data-name="Group 2553" transform="translate(29.783 25.857)">
      <g id="Group_2552" data-name="Group 2552">
        <path id="Path_2517" data-name="Path 2517" d="M384.453,270.613a.582.582,0,0,0-.582.582.739.739,0,0,1-1.478,0,.582.582,0,1,0-1.164,0,1.9,1.9,0,1,0,3.807,0A.582.582,0,0,0,384.453,270.613Z" transform="translate(-381.228 -270.613)" fill="#fff"/>
      </g>
    </g>
    <g id="Group_2555" data-name="Group 2555" transform="translate(0 5.115)">
      <g id="Group_2554" data-name="Group 2554">
        <path id="Path_2518" data-name="Path 2518" d="M38.472,25.952l-1.638-.525a.685.685,0,0,1-.442-.448,10.564,10.564,0,0,0-1.549-3.064,11.242,11.242,0,0,0-1.035-1.221,14.439,14.439,0,0,0,.356-3.3c-.024-1.483-.321-2.353-.906-2.66-.315-.165-1.275-.667-6.467,1.71a1.889,1.889,0,0,0-.344.2c-.35-.094-.708-.181-1.068-.259l-.132-.027a7.93,7.93,0,0,0,.713-2.948.582.582,0,0,0-1.163-.052,6.773,6.773,0,0,1-4.431,6.056,16.881,16.881,0,0,0-4.686,0,6.779,6.779,0,1,1,8.4-9.411.582.582,0,0,0,1.04-.524A7.946,7.946,0,1,0,13.806,19.8h0q-.543.141-1.076.318a.582.582,0,0,0,.369,1.1,15.622,15.622,0,0,1,9.846,0,.582.582,0,0,0,.369-1.1q-.533-.178-1.076-.318h0a7.938,7.938,0,0,0,2.416-2.363c.16.031.32.064.477.1q.314.068.623.145c-.006.025-.013.051-.019.076a6.943,6.943,0,0,0,.055,3.541,4.215,4.215,0,0,0,1.544,2.17,4.9,4.9,0,0,0,2.865.909,3.841,3.841,0,0,0,1.857-.429A3.545,3.545,0,0,0,33.426,22q.252.294.477.6a9.4,9.4,0,0,1,1.379,2.726,1.851,1.851,0,0,0,1.2,1.208l1.638.525a1.031,1.031,0,0,1,.719.985v2.717a1.031,1.031,0,0,1-.719.985l-2.64.846a1.8,1.8,0,0,0-1.006.817,11.6,11.6,0,0,1-4.847,4.408.912.912,0,0,0-.479.643L28.3,42.939a.262.262,0,0,1-.257.213H25.294a.262.262,0,0,1-.257-.213l-.468-2.474a.915.915,0,0,0-1.04-.736A24.334,24.334,0,0,1,19.9,40a23.208,23.208,0,0,1-2.668-.151.922.922,0,0,0-1.009.74l-.445,2.351a.262.262,0,0,1-.257.213H12.775a.262.262,0,0,1-.257-.215L11.7,38.708a.914.914,0,0,0-.47-.636,10.281,10.281,0,0,1-5.678-9.58A11.191,11.191,0,0,1,6.964,22.8a10.157,10.157,0,0,1,3.784-3.694.582.582,0,0,0-.583-1.008,11.08,11.08,0,0,0-5.623,8.277h0l-.168-.016A2.9,2.9,0,0,0,4.161,25.2a2.384,2.384,0,0,0-1.768-1.544,1.609,1.609,0,0,0-1.515.675,1.533,1.533,0,0,0-.291,1.673c.293.6,1.047,1.031,2.3,1.3q-.052.077-.114.155A2.856,2.856,0,0,1,.6,28.611a.611.611,0,0,0-.6.608v0a.61.61,0,0,0,.584.608q.063,0,.131,0a3.781,3.781,0,0,0,2.966-1.647,3.32,3.32,0,0,0,.425-.687q.165.019.316.032h0c-.02.315-.031.636-.031.961A12,12,0,0,0,6.11,34.917a11.769,11.769,0,0,0,4.473,4.127l.791,4.111a1.427,1.427,0,0,0,1.4,1.161h2.749a1.427,1.427,0,0,0,1.4-1.161l.4-2.126a24.532,24.532,0,0,0,2.575.133,25.574,25.574,0,0,0,3.567-.249l.424,2.241a1.427,1.427,0,0,0,1.4,1.161h2.749a1.427,1.427,0,0,0,1.4-1.161l.823-4.359a12.692,12.692,0,0,0,5.211-4.8.636.636,0,0,1,.354-.292l2.64-.846A2.192,2.192,0,0,0,40,30.763V28.046A2.191,2.191,0,0,0,38.472,25.952Zm-5.56-6.919c-.224,1.916-.825,3.555-1.429,3.9a3.562,3.562,0,0,1-3.461-.406c-1.191-.871-1.588-2.438-1.147-4.532h0a.7.7,0,0,1,.4-.486c2.914-1.334,4.595-1.77,5.219-1.77a.609.609,0,0,1,.211.028C32.893,15.964,33.139,17.1,32.912,19.034ZM1.634,25.5c-.06-.124.082-.343.172-.462a.464.464,0,0,1,.374-.227.437.437,0,0,1,.059,0,1.269,1.269,0,0,1,.841.824,1.767,1.767,0,0,1,.122.549C2.4,26.018,1.77,25.777,1.634,25.5Z" transform="translate(0 -5.115)" fill="#fff"/>
      </g>
    </g>
    <g id="Group_2557" data-name="Group 2557" transform="translate(15.847 8.853)">
      <g id="Group_2556" data-name="Group 2556">
        <path id="Path_2519" data-name="Path 2519" d="M205.585,56.5V54.416c.718.051.985.38,1.231.38.308,0,.452-.39.452-.585,0-.5-.985-.718-1.683-.739V53.2c0-.123-.154-.236-.308-.236a.271.271,0,0,0-.3.236v.3a1.905,1.905,0,0,0-1.95,1.909c0,1.314,1.026,1.683,1.95,2.011v2.412c-1.047-.082-1.324-.8-1.663-.8-.257,0-.472.339-.472.585,0,.5.862,1.19,2.135,1.211h0v.318a.271.271,0,0,0,.3.236c.154,0,.308-.113.308-.236v-.349a1.988,1.988,0,0,0,1.868-2.114C207.453,57.279,206.478,56.828,205.585,56.5Zm-.544-.195c-.544-.205-.985-.421-.985-1.006,0-.534.41-.79.985-.862Zm.482,3.5V57.639a1.2,1.2,0,0,1,.9,1.149A.976.976,0,0,1,205.523,59.8Z" transform="translate(-202.845 -52.959)" fill="#fff"/>
      </g>
    </g>
  </g>
</svg>
