<svg xmlns="http://www.w3.org/2000/svg" width="40" height="40" viewBox="0 0 40 40">
  <g id="Group_2562" data-name="Group 2562" transform="translate(-8 -8)">
    <path id="Path_2526" data-name="Path 2526" d="M47.355,11.871A.645.645,0,0,0,48,11.226V8.645A.645.645,0,0,0,47.355,8H16.387a.645.645,0,0,0-.645.645v2.581a.645.645,0,0,0,.645.645h.645V22.532a5.8,5.8,0,0,0-1.27,10.3c-.01.108-.02.216-.02.325H13.806A5.813,5.813,0,0,0,8,38.968v8.387A.645.645,0,0,0,8.645,48H26.065a.645.645,0,0,0,.645-.645V42.506a3.206,3.206,0,0,1,.945-2.281l9-9h10.7A.645.645,0,0,0,48,30.581V28a.645.645,0,0,0-.645-.645H46.71V11.871ZM17.032,9.29H46.71v1.29H17.032Zm1.935,14.194a4.479,4.479,0,0,1,.995.114,5.839,5.839,0,0,1-4.221,1.821h-.475A4.511,4.511,0,0,1,18.968,23.484Zm11.991,5.161-1.29,1.29H24.435a5.73,5.73,0,0,0,.3-1.29Zm4.95,1.5-.166.166L33.428,28l.166-.166a1.636,1.636,0,0,1,2.314,2.314ZM18.968,33.806a5.764,5.764,0,0,0,1.9-.327,1.928,1.928,0,0,1-3.806,0A5.764,5.764,0,0,0,18.968,33.806Zm3.206-.97a5.859,5.859,0,0,0,1.619-1.611h4.586l-.99.99a3.209,3.209,0,0,1-2.282.945H22.194c0-.108-.01-.217-.02-.325Zm-.945-8.74a4.544,4.544,0,0,1,1.758,1.852,5.864,5.864,0,0,1-2.441-1.13A7.1,7.1,0,0,0,21.228,24.1ZM14.452,28a4.488,4.488,0,0,1,.19-1.29h1.1a7.113,7.113,0,0,0,3.753-1.086,7.158,7.158,0,0,0,3.932,1.7A4.514,4.514,0,1,1,14.452,28ZM26.743,39.313a4.487,4.487,0,0,0-1.323,3.194v4.2H14.452v-7.1h-1.29v7.1H9.29V38.968a4.522,4.522,0,0,1,4.516-4.516h2.209a3.219,3.219,0,0,0,5.9,0h3.186A4.489,4.489,0,0,0,28.3,33.129l4.217-4.217,2.314,2.314ZM46.71,29.935h-9.2a2.378,2.378,0,0,0,.133-1.29H46.71Zm-1.29-2.581H37.176a2.924,2.924,0,0,0-4.494-.433l-.434.433H24.736a5.784,5.784,0,0,0-6.414-5.123V11.871h27.1Z" fill="#fff"/>
    <path id="Path_2527" data-name="Path 2527" d="M172.544,81.087A4.544,4.544,0,1,0,168,76.544,4.549,4.549,0,0,0,172.544,81.087Zm0-1.3a3.226,3.226,0,0,1-2.382-1.059l2.562-1.537h3a3.252,3.252,0,0,1-3.18,2.6Zm3.18-3.895h-2.531V73.364A3.256,3.256,0,0,1,175.724,75.895Zm-3.829-2.531v2.813l-2.4,1.44a3.206,3.206,0,0,1-.2-1.073A3.252,3.252,0,0,1,171.895,73.364Z" transform="translate(-147.12 -58.807)" fill="#fff"/>
    <path id="Path_2528" data-name="Path 2528" d="M312.649,81.736h10.386a.649.649,0,0,0,.649-.649v-2.6a.649.649,0,0,0-.649-.649h-.649V75.895h-1.3v1.947h-1.3V74.6h-1.3v3.245h-1.3V73.3h-1.3v4.544h-1.3V72h-1.3v5.842h-.649a.649.649,0,0,0-.649.649v2.6A.649.649,0,0,0,312.649,81.736Zm.649-2.6h9.087v1.3H313.3Z" transform="translate(-279.578 -58.807)" fill="#fff"/>
    <path id="Path_2529" data-name="Path 2529" d="M376,208h6.491v1.3H376Z" transform="translate(-338.386 -183.874)" fill="#fff"/>
    <path id="Path_2530" data-name="Path 2530" d="M224,208h4.544v1.3H224Z" transform="translate(-198.594 -183.874)" fill="#fff"/>
    <path id="Path_2531" data-name="Path 2531" d="M156.544,376h-3.895a.649.649,0,0,0-.649.649V378.6a2.6,2.6,0,1,0,5.193,0v-1.947A.649.649,0,0,0,156.544,376Zm-.649,2.6a1.3,1.3,0,1,1-2.6,0v-1.3h2.6Z" transform="translate(-132.398 -338.386)" fill="#fff"/>
  </g>
</svg>
