<svg id="Component_514_3" data-name="Component 514 – 3" xmlns="http://www.w3.org/2000/svg" width="100" height="50" viewBox="0 0 100 50">
  <g id="Rectangle_1755" data-name="Rectangle 1755" fill="#fff" stroke="#8e8e93" stroke-width="0.5">
    <rect width="100" height="50" rx="5" stroke="none"/>
    <rect x="0.25" y="0.25" width="99.5" height="49.5" rx="4.75" fill="none"/>
  </g>
  <g id="Group_2035" data-name="Group 2035" transform="translate(-767.629 -237.785)">
    <path id="Path_2057" data-name="Path 2057" d="M855.733,272.517a3.646,3.646,0,0,0-2.029-.544,3.756,3.756,0,0,0-.523.024,4.157,4.157,0,0,0-1.963.706,3.368,3.368,0,0,0-1.375,2.24l-.026.285-.04.334a1.946,1.946,0,0,0,.825,1.7,3.556,3.556,0,0,0,2.081.58c.184,0,.355-.013.5-.025a1.434,1.434,0,0,0,.273-.048,4.744,4.744,0,0,0,.538-.124,4.086,4.086,0,0,0,.392-.138,5.317,5.317,0,0,0,.761-.4,3.563,3.563,0,0,0,.641-.579,3.465,3.465,0,0,0,.759-1.723l.052-.569a1.875,1.875,0,0,0-.862-1.721m-1.82,3.231a1.034,1.034,0,0,1-.733.57.9.9,0,0,1-.262.025c-.522,0-.786-.31-.786-.929a5.427,5.427,0,0,1,.38-1.409,1.029,1.029,0,0,1,.669-.534,1.423,1.423,0,0,1,.327-.037c.484,0,.733.334.733,1a2.722,2.722,0,0,1-.327,1.311" transform="translate(-43.623 -9.454)" fill="#034694"/>
    <path id="Path_2058" data-name="Path 2058" d="M814.856,272.319a3.809,3.809,0,0,0-1.924-.347h-.17c-.341,0-.642.013-.929.039q-2.3.239-2.592,1.818h2.25a.722.722,0,0,1,.342-.409,1.134,1.134,0,0,1,.575-.135c.457,0,.68.135.68.395,0,.173-.118.309-.366.408a4.6,4.6,0,0,1-.89.173c-.081.013-.159.025-.249.037l-.864.124-.589.113a2.921,2.921,0,0,0-1.022.481,1.878,1.878,0,0,0-.654,1.113.683.683,0,0,1-.04.163v.235a1.006,1.006,0,0,0,.432.89,2.321,2.321,0,0,0,1.335.421h.118a3.706,3.706,0,0,0,1.532-.322,4.425,4.425,0,0,0,.757-.457v.607h2.4l.025-.1a.76.76,0,0,1-.247-.421l.065-.371.509-2.7a4.934,4.934,0,0,0,.068-.682,1.194,1.194,0,0,0-.55-1.077m-2.447,3.851a1.355,1.355,0,0,1-.393.307.968.968,0,0,1-.182.064,1.111,1.111,0,0,1-.342.05c-.419,0-.627-.137-.627-.421v-.05a.581.581,0,0,1,.3-.445l.353-.138a1.485,1.485,0,0,1,.315-.087c.05,0,.1-.012.155-.012a4.978,4.978,0,0,0,.81-.224,1.955,1.955,0,0,1-.39.956" transform="translate(-16.288 -9.454)" fill="#034694"/>
    <path id="Path_2059" data-name="Path 2059" d="M835.52,272.556a3.434,3.434,0,0,0-2.132-.583,3.975,3.975,0,0,0-2.709.867,3.715,3.715,0,0,0-1.217,2.14l-.026.259-.052.3a2.123,2.123,0,0,0,.732,1.635,3.2,3.2,0,0,0,2.161.643,4.566,4.566,0,0,0,2.343-.582,2.761,2.761,0,0,0,1.308-1.708H833.61a1.1,1.1,0,0,1-1.034.818c-.561,0-.851-.3-.851-.905A4.863,4.863,0,0,1,832.1,274a1.034,1.034,0,0,1,1-.572.648.648,0,0,1,.523.211.641.641,0,0,1,.169.457l-.011.136h2.354l.014-.31a1.69,1.69,0,0,0-.629-1.372" transform="translate(-30.374 -9.454)" fill="#034694"/>
    <path id="Path_2060" data-name="Path 2060" d="M791.24,258.5a4.6,4.6,0,0,0-2.731-.719c-.248,0-.472.012-.68.026s-.418.04-.614.066a6.521,6.521,0,0,0-1.111.3,4.649,4.649,0,0,0-1.7,1.1,3.2,3.2,0,0,0-.785,1.555l-.025.327-.053.408a1.929,1.929,0,0,0,.864,1.727,7.71,7.71,0,0,0,2.416.943,13.848,13.848,0,0,1,1.425.47.608.608,0,0,1,.339.5v.169c-.118.458-.589.694-1.4.694a1.74,1.74,0,0,1-.939-.262.9.9,0,0,1-.432-.81h-3.149a1.152,1.152,0,0,0-.039.378,2.567,2.567,0,0,0,.967,2.057,4.327,4.327,0,0,0,2.941.942,6.906,6.906,0,0,0,3.423-.824,3.587,3.587,0,0,0,1.84-2.62l.039-.589a1.92,1.92,0,0,0-.755-1.571,5.751,5.751,0,0,0-2.144-.93l-1.058-.274a2.8,2.8,0,0,1-.862-.367.565.565,0,0,1-.237-.446l.013-.118c.077-.354.445-.537,1.085-.537.81,0,1.227.262,1.227.811v.054h3.123V260.8a2.656,2.656,0,0,0-.992-2.292" fill="#034694"/>
    <path id="Path_2061" data-name="Path 2061" d="M946.717,272.357a2.232,2.232,0,0,0-1.388-.384A2.944,2.944,0,0,0,943.144,273l.168-.891h-2.133l-1.033,5.559h2.343l.522-2.837a1.73,1.73,0,0,1,.409-.9,1,1,0,0,1,.705-.222.578.578,0,0,1,.655.657v.186l-.015.173-.547,2.947h2.317l.627-3.343a3.054,3.054,0,0,0,.065-.667,1.536,1.536,0,0,0-.509-1.3" transform="translate(-102.748 -9.454)" fill="#034694"/>
    <path id="Path_2062" data-name="Path 2062" d="M968.452,266.077h-2.717l-1.811,1.685.925-5.006h-2.329l-1.673,9.09h2.328l.338-1.765.5-.427.87,2.191h2.788l-1.782-3.63Z" transform="translate(-115.823 -3.633)" fill="#034694"/>
    <path id="Path_2063" data-name="Path 2063" d="M879.56,272.331a2.162,2.162,0,0,0-1.373-.358,2.985,2.985,0,0,0-2.239,1.014c-.21-.68-.772-1.014-1.7-1.014h-.053a2.422,2.422,0,0,0-1.085.284,3.007,3.007,0,0,0-.917.682l.142-.831H870.2l-1.021,5.559H871.5l.522-2.837a1.916,1.916,0,0,1,.392-.863.919.919,0,0,1,.655-.262.528.528,0,0,1,.6.593l-.04.483-.538,2.886h2.331l.524-2.837a1.519,1.519,0,0,1,.417-.94,1.053,1.053,0,0,1,.6-.185.7.7,0,0,1,.5.137.6.6,0,0,1,.142.445,3.55,3.55,0,0,1-.064.543l-.524,2.837h2.331l.614-3.318a4.483,4.483,0,0,0,.066-.791,1.469,1.469,0,0,0-.471-1.227" transform="translate(-56.331 -9.454)" fill="#034694"/>
    <path id="Path_2064" data-name="Path 2064" d="M926.313,272.319a3.774,3.774,0,0,0-1.91-.347h-.185c-.327,0-.64.013-.915.039q-2.316.239-2.593,1.818h2.251a.746.746,0,0,1,.342-.409,1.113,1.113,0,0,1,.577-.135c.443,0,.678.135.678.395,0,.173-.13.309-.367.408a4.743,4.743,0,0,1-.889.173c-.079.013-.169.025-.262.037l-.85.124-.6.113a2.958,2.958,0,0,0-1.008.481,1.886,1.886,0,0,0-.656,1.113c0,.024-.025.088-.04.163v.235a1.009,1.009,0,0,0,.434.89,2.286,2.286,0,0,0,1.336.421h.1a3.584,3.584,0,0,0,2.289-.779v.607h2.407l.028-.1a.758.758,0,0,1-.247-.421l.064-.371.512-2.7a5.409,5.409,0,0,0,.064-.682,1.177,1.177,0,0,0-.564-1.077m-2.433,3.851a1.257,1.257,0,0,1-.407.307.826.826,0,0,1-.17.064,1.164,1.164,0,0,1-.342.05c-.417,0-.626-.137-.626-.421v-.05a.561.561,0,0,1,.3-.445l.341-.138a1.9,1.9,0,0,1,.327-.087c.039,0,.092-.012.144-.012a4.878,4.878,0,0,0,.823-.224,1.973,1.973,0,0,1-.39.956" transform="translate(-89.178 -9.454)" fill="#034694"/>
    <path id="Path_2065" data-name="Path 2065" d="M904.7,266.14a2.845,2.845,0,0,0-.982.149c-.115.062-.235.123-.352.2a3.9,3.9,0,0,0-.512.372l.745-4.12H901.26l-1.662,9.1h2.094l.172-.782a1.514,1.514,0,0,0,1.5.953h.117a2.891,2.891,0,0,0,2.357-1.113,3.9,3.9,0,0,0,.9-2.551,2.119,2.119,0,0,0-.6-1.619,1.941,1.941,0,0,0-1.441-.583m-.655,3.737a1.121,1.121,0,0,1-.679.509,1.545,1.545,0,0,1-.236.025c-.524,0-.786-.322-.786-.955a4.182,4.182,0,0,1,.407-1.2.851.851,0,0,1,.615-.41,1.772,1.772,0,0,1,.262-.024c.51,0,.758.31.758.928a2.047,2.047,0,0,1-.341,1.125" transform="translate(-76.003 -3.621)" fill="#034694"/>
  </g>
</svg>
