<svg xmlns="http://www.w3.org/2000/svg" width="17.204" height="18" viewBox="0 0 17.204 18">
  <g id="Group_62" data-name="Group 62" transform="translate(0 -14.967)">
    <path id="Path_1779" data-name="Path 1779" d="M150,462.158a1.511,1.511,0,1,0,1.511-1.511A1.513,1.513,0,0,0,150,462.158Zm1.511-.5a.5.5,0,1,1-.5.5A.5.5,0,0,1,151.511,461.654Z" transform="translate(-144.959 -430.702)" fill="#373737"/>
    <path id="Path_1780" data-name="Path 1780" d="M362,462.158a1.511,1.511,0,1,0,1.511-1.511A1.513,1.513,0,0,0,362,462.158Zm1.511-.5a.5.5,0,1,1-.5.5A.5.5,0,0,1,363.511,461.654Z" transform="translate(-349.832 -430.702)" fill="#373737"/>
    <path id="Path_1781" data-name="Path 1781" d="M5.543,27.929h9.141a.5.5,0,0,0,.485-.366l2.016-7.058a.5.5,0,0,0-.485-.643H14.68a4.2,4.2,0,1,0-8.286,0H4.381L4.02,18.241a.5.5,0,0,0-.492-.395H.5a.5.5,0,0,0,0,1.008h2.62l1.82,8.191a1.512,1.512,0,0,0,.6,2.9h9.14a.5.5,0,0,0,0-1.008H5.544a.5.5,0,0,1,0-1.008Zm4.995-12.122a3.361,3.361,0,1,1-3.36,3.361A3.36,3.36,0,0,1,10.538,15.807ZM4.6,20.871H6.7c.01.023.02.046.032.069l.034.072.032.063c.023.045.046.089.071.132s.047.083.072.124l.009.014.034.055.04.063.007.01.035.052c.028.041.056.082.086.122s.056.076.086.113l0,.005.047.058c.031.039.063.076.1.114s.066.074.1.11l.051.054.052.053.019.018c.029.029.059.057.089.084l.055.05,0,0,.053.046.057.048.058.047.059.046.059.045a4.156,4.156,0,0,0,.5.321l.065.035.113.056.044.021a4.221,4.221,0,0,0,.477.188l.067.021.073.022.059.016.043.011.046.012.075.018.067.014.1.021.038.007.035.006.061.01.072.01h.009l.044.005.023,0,.053.006.053.005.058.005.079.005.077,0q.081,0,.162,0t.162,0l.077,0,.079-.005.058-.005.053-.005.053-.006.023,0,.044-.005H11.1l.072-.01.061-.01.033-.006L11.3,23.3l.1-.02.07-.015.075-.018q.075-.018.148-.039l.073-.022.073-.023q.109-.035.215-.077l.06-.024.022-.009.058-.025L12.265,23l.047-.022.044-.021h0l.11-.055.066-.035q.132-.071.258-.152l.062-.041c.062-.041.123-.084.183-.129L13.1,22.5l.059-.046.058-.047q.055-.046.11-.094l0,0,.055-.05.089-.084.019-.018.052-.053.051-.054c.034-.036.068-.073.1-.11s.065-.075.1-.114l.047-.058,0-.005c.029-.037.058-.075.086-.113s.058-.081.086-.122l.035-.052.007-.01.04-.063.034-.055.009-.014q.037-.062.072-.124c.025-.044.048-.088.071-.132l.032-.063c.012-.024.024-.048.034-.072s.022-.046.032-.069h1.654L14.3,26.921H5.949Z" transform="translate(0 0)" fill="#373737"/>
    <path id="Path_1782" data-name="Path 1782" d="M259.1,87.317h.839v.839a.5.5,0,0,0,1.007,0v-.839h.839a.5.5,0,0,0,0-1.007h-.839v-.839a.5.5,0,0,0-1.007,0v.839H259.1a.5.5,0,0,0,0,1.007Z" transform="translate(-249.909 -67.65)" fill="#373737"/>
  </g>
</svg>
