<svg xmlns="http://www.w3.org/2000/svg" width="30" height="30" viewBox="0 0 30 30">
  <g id="Group_12297" data-name="Group 12297" transform="translate(-8 -8)">
    <path id="Path_31260" data-name="Path 31260" d="M35.581,10.9H25.419V9.452A1.453,1.453,0,0,0,23.968,8H11.387A1.453,1.453,0,0,0,9.935,9.452v1.5A2.424,2.424,0,0,0,8,13.323V28.806a2.422,2.422,0,0,0,2.419,2.419h7.742v1.244c-3.859.486-3.871,1.333-3.871,1.66v1.935C14.29,37.907,21.545,38,23,38s8.71-.093,8.71-1.935V34.129c0-.327-.012-1.174-3.871-1.66V31.226h7.742A2.422,2.422,0,0,0,38,28.806V13.323A2.422,2.422,0,0,0,35.581,10.9ZM10.9,9.452a.484.484,0,0,1,.484-.484H23.968a.484.484,0,0,1,.484.484V20.1a.484.484,0,0,1-.484.484H11.387A.484.484,0,0,1,10.9,20.1ZM9.935,11.96V20.1a1.453,1.453,0,0,0,1.452,1.452H23.968A1.453,1.453,0,0,0,25.419,20.1V11.871H35.581a1.453,1.453,0,0,1,1.452,1.452V26.387H8.968V13.323A1.45,1.45,0,0,1,9.935,11.96ZM23,37.032c-4.743,0-7.363-.67-7.742-1.037v-.864c2.025.877,6.617.934,7.742.934s5.717-.057,7.742-.934V36C30.363,36.362,27.743,37.032,23,37.032Zm7.645-2.9c-.617.376-3.2.965-7.645.965s-7.027-.589-7.645-.965a8.494,8.494,0,0,1,2.806-.687v.684h9.677v-.684A8.49,8.49,0,0,1,30.645,34.131Zm-3.774-.97H19.129V31.226h7.742Zm8.71-2.9H10.419a1.453,1.453,0,0,1-1.452-1.452V27.355H37.032v1.452A1.453,1.453,0,0,1,35.581,30.258Z" transform="translate(0 0)" fill="#373737"/>
    <path id="Path_31261" data-name="Path 31261" d="M424,344h.971v.971H424Z" transform="translate(-390.857 -315.68)" fill="#373737"/>
    <path id="Path_31262" data-name="Path 31262" d="M456,344h.971v.971H456Z" transform="translate(-420.914 -315.68)" fill="#373737"/>
    <path id="Path_31263" data-name="Path 31263" d="M392,344h.971v.971H392Z" transform="translate(-360.777 -315.68)" fill="#373737"/>
    <path id="Path_31264" data-name="Path 31264" d="M73.387,65.6l-2.643-3.084,2.643-3.084-.737-.631-3.185,3.716,3.185,3.716Z" transform="translate(-57.732 -47.716)" fill="#373737"/>
    <path id="Path_31265" data-name="Path 31265" d="M202.665,66.232l3.185-3.716L202.665,58.8l-.737.631,2.643,3.084L201.928,65.6Z" transform="translate(-182.205 -47.716)" fill="#373737"/>
    <path id="Path_31266" data-name="Path 31266" d="M72,248h.971v.971H72Z" transform="translate(-60.114 -225.486)" fill="#373737"/>
    <path id="Path_31267" data-name="Path 31267" d="M104,248h9.715v.971H104Z" transform="translate(-90.204 -225.486)" fill="#373737"/>
    <path id="Path_31268" data-name="Path 31268" d="M72,280h9.715v.971H72Z" transform="translate(-60.114 -255.55)" fill="#373737"/>
    <path id="Path_31269" data-name="Path 31269" d="M248,280h.971v.971H248Z" transform="translate(-225.486 -255.55)" fill="#373737"/>
    <path id="Path_31270" data-name="Path 31270" d="M312.857,142.614l-.367.745,1.866,1.867.745-.367c.056.025.113.049.17.071l.267.786h2.639l.268-.785c.057-.022.113-.046.17-.071l.745.367,1.866-1.867-.367-.745c.025-.056.049-.113.071-.17l.785-.268v-2.639l-.785-.268c-.022-.057-.046-.113-.071-.17l.367-.746-1.866-1.865-.745.367c-.056-.025-.113-.049-.17-.071l-.268-.785h-2.639l-.268.785c-.057.022-.113.046-.17.071l-.745-.367-1.866,1.865.367.746c-.025.056-.049.113-.071.17l-.785.268v2.639l.785.268c.022.057.046.113.071.17Zm.115-2.38.578-.2.075-.231a3.363,3.363,0,0,1,.2-.488l.111-.217-.271-.55.882-.882.55.271.217-.111a3.4,3.4,0,0,1,.489-.2l.231-.075.2-.579h1.247l.2.578.231.075a3.419,3.419,0,0,1,.489.2l.217.111.55-.271.882.882-.271.55.111.217a3.417,3.417,0,0,1,.2.488l.075.231.578.2v1.247l-.578.2-.075.231a3.363,3.363,0,0,1-.2.488l-.111.217.271.55-.882.882-.55-.271-.217.111a3.4,3.4,0,0,1-.489.2l-.231.075-.2.579h-1.247l-.2-.578-.231-.075a3.419,3.419,0,0,1-.489-.2l-.217-.111-.55.271-.882-.882.271-.55-.111-.217a3.418,3.418,0,0,1-.2-.488l-.075-.231-.578-.2Z" transform="translate(-285.658 -120.272)" fill="#373737"/>
    <path id="Path_31271" data-name="Path 31271" d="M354.429,180.857A2.429,2.429,0,1,0,352,178.429,2.431,2.431,0,0,0,354.429,180.857Zm0-3.886a1.457,1.457,0,1,1-1.457,1.457A1.459,1.459,0,0,1,354.429,176.971Z" transform="translate(-323.229 -157.846)" fill="#373737"/>
    <path id="Path_31272" data-name="Path 31272" d="M152.026,62.83,153,55.06l.964.12-.971,7.77Z" transform="translate(-135.317 -44.203)" fill="#373737"/>
  </g>
</svg>
