<svg xmlns="http://www.w3.org/2000/svg" width="30" height="29.998" viewBox="0 0 30 29.998">
  <g id="Group_12300" data-name="Group 12300" transform="translate(-8 -8.01)">
    <path id="Path_31291" data-name="Path 31291" d="M38,20.34l-3.871-2.765-1.423,1.017a11.548,11.548,0,0,0-2.4-2.653,4.345,4.345,0,0,0,.429-6.824,4.342,4.342,0,0,0-7.133,4.235,11.736,11.736,0,0,0-2.38.122l-.46-.46-1.233.635a7.309,7.309,0,0,0-1.079-.445l-.424-1.323H14.421L14,13.2a7.287,7.287,0,0,0-1.079.445l-1.233-.635L9.133,15.564,9.768,16.8a7.309,7.309,0,0,0-.445,1.079L8,18.3V21.91l1.323.424a7.244,7.244,0,0,0,.445,1.079l-.635,1.233L11.685,27.2l.141-.072a2.494,2.494,0,0,1,.045.452v1.988a3.4,3.4,0,0,0,.353,1.506l1.1,2.212v.944a1.45,1.45,0,0,0-.968,1.363v2.419H23V36.557a11.681,11.681,0,0,0,2.419-.256v.256a1.453,1.453,0,0,0,1.452,1.452h3.871a1.453,1.453,0,0,0,1.452-1.452V32.03a11.465,11.465,0,0,0,2.4-6.6h2.439V21.557H38Zm-1.317.249H31.575l2.554-1.825Zm-7.877-2.9a.968.968,0,1,1-1.935,0Zm-1.452-5.323a.484.484,0,1,1,.484.484A.484.484,0,0,1,27.355,12.363Zm-2.874-.448A3.4,3.4,0,0,1,27.442,9a3.51,3.51,0,0,1,.4-.023,3.347,3.347,0,0,1,2.251.86,3.385,3.385,0,0,1-.426,5.376,1.886,1.886,0,0,0-.855,1.506h-.49V13.726a1.452,1.452,0,1,0-.968,0v2.992h-.491a1.886,1.886,0,0,0-.846-1.5,3.373,3.373,0,0,1-1.537-3.3ZM10.736,23.172a6.278,6.278,0,0,1-.557-1.353l-.071-.25L8.968,21.2v-2.2l1.14-.365.071-.25a6.237,6.237,0,0,1,.558-1.353l.127-.227-.547-1.062L11.87,14.2l1.062.547.227-.127a6.237,6.237,0,0,1,1.353-.558l.25-.071.364-1.14h2.2l.365,1.14.25.071a6.237,6.237,0,0,1,1.353.558l.227.127,1.062-.547,1.554,1.554-.547,1.062.127.227a6.237,6.237,0,0,1,.558,1.353l.071.25,1.14.364v2.2l-1.14.365-.071.25a6.278,6.278,0,0,1-.557,1.353l-.127.226.075.147a1.539,1.539,0,0,0-.172.053,1.448,1.448,0,0,0-.645-.859,5.274,5.274,0,0,0,.7-2.635,5.323,5.323,0,1,0-9.435,3.373,1.241,1.241,0,0,0-1.147,1.633l-.65-.65.547-1.062Zm8.393-.27a1.407,1.407,0,0,0-1.452-.288V18.17a1.452,1.452,0,0,0-2.9,0v6.038a4.354,4.354,0,1,1,5.806-4.1,4.31,4.31,0,0,1-.756,2.447,1.443,1.443,0,0,0-.7.35Zm-6.038,7.739a2.435,2.435,0,0,1-.252-1.075V27.578A3.548,3.548,0,0,0,12.466,26L11.9,24.873a.3.3,0,0,1-.031-.134.312.312,0,0,1,.345-.3A2.561,2.561,0,0,1,14.774,27v1.8h.968V18.17a.484.484,0,1,1,.968,0v7.742h.968V23.976a.484.484,0,0,1,.968,0v1.935h.968V23.976a.484.484,0,0,1,.968,0v1.935h.968v-.968a.484.484,0,0,1,.968,0v5.323a2.433,2.433,0,0,1-.484,1.452l-.968,1.29v1.129H14.29V33.057Zm8.941,6.4h-8.71V35.589a.484.484,0,0,1,.484-.484h7.742a.484.484,0,0,1,.484.484ZM31.226,29.3H26.387v-.484a.484.484,0,0,1,.484-.484h3.871a.484.484,0,0,1,.484.484Zm-4.839.968h4.839v4.839H26.387Zm4.355,6.774H26.871a.484.484,0,0,1-.484-.484v-.484h4.839v.484A.484.484,0,0,1,30.742,37.041ZM32.194,30.3V28.815a1.453,1.453,0,0,0-1.452-1.452H26.871a1.453,1.453,0,0,0-1.452,1.452V35.3a10.79,10.79,0,0,1-2.42.276,1.448,1.448,0,0,0-.967-1.354v-.9l.774-1.032a3.405,3.405,0,0,0,.677-2.032V24.944a1.449,1.449,0,0,0-.624-1.19l-.176-.342a7.266,7.266,0,0,0,.445-1.079l1.323-.424V18.3l-1.323-.424a7.288,7.288,0,0,0-.445-1.079l.635-1.233L22.1,14.342a10.9,10.9,0,0,1,1.872.006A4.341,4.341,0,0,0,25.5,16.033a.952.952,0,0,1,.406.807v.847a1.935,1.935,0,1,0,3.871,0v-.867c0-.022.006-.043.008-.065a10.587,10.587,0,0,1,2.137,2.4L30.258,20.34v1.217h.968v3.871h2.4A10.494,10.494,0,0,1,32.194,30.3Zm3.871-5.842H32.194v-2.9h3.871Z" fill="#373737"/>
    <path id="Path_31292" data-name="Path 31292" d="M360,280h.969v.969H360Z" transform="translate(-330.711 -255.541)" fill="#373737"/>
    <path id="Path_31293" data-name="Path 31293" d="M328,280h.969v.969H328Z" transform="translate(-300.646 -255.541)" fill="#373737"/>
    <path id="Path_31294" data-name="Path 31294" d="M296,280h.969v.969H296Z" transform="translate(-270.581 -255.541)" fill="#373737"/>
  </g>
</svg>
