<svg xmlns="http://www.w3.org/2000/svg" width="25" height="21.973" viewBox="0 0 25 21.973">
  <g id="Group_38" data-name="Group 38" transform="translate(0 -31)">
    <path id="Path_27" data-name="Path 27" d="M8.055,45.625H21.338a.732.732,0,0,0,.7-.53l2.93-10.237a.731.731,0,0,0-.7-.932H6.366l-.524-2.352A.732.732,0,0,0,5.127,31H.732a.731.731,0,1,0,0,1.462H4.54L7.184,44.343a2.193,2.193,0,0,0,.873,4.207H21.338a.731.731,0,1,0,0-1.463H8.057a.731.731,0,1,1,0-1.462ZM23.3,35.387l-2.511,8.775H8.644L6.691,35.387Z" transform="translate(0 0)" fill="#8e8e93"/>
    <path id="Path_28" data-name="Path 28" d="M150,393.211A2.211,2.211,0,1,0,152.211,391,2.214,2.214,0,0,0,150,393.211Zm2.211-.737a.737.737,0,1,1-.737.737A.738.738,0,0,1,152.211,392.474Z" transform="translate(-142.686 -342.45)" fill="#8e8e93"/>
    <path id="Path_29" data-name="Path 29" d="M362,393.211A2.211,2.211,0,1,0,364.211,391,2.214,2.214,0,0,0,362,393.211Zm2.211-.737a.737.737,0,1,1-.737.737A.738.738,0,0,1,364.211,392.474Z" transform="translate(-344.371 -342.45)" fill="#8e8e93"/>
  </g>
</svg>
