<svg id="Group_637" data-name="Group 637" xmlns="http://www.w3.org/2000/svg" width="25" height="20.833" viewBox="0 0 25 20.833">
  <path id="Path_337" data-name="Path 337" d="M24.72,48.983l-11.979-6.25a.524.524,0,0,0-.482,0L.28,48.983a.521.521,0,0,0,.241.983h.521V62.986a.521.521,0,0,0,.521.521H4.688a.521.521,0,0,0,.521-.521V51.007H19.792V62.986a.521.521,0,0,0,.521.521h3.125a.521.521,0,0,0,.521-.521V49.965h.521a.521.521,0,0,0,.241-.983Zm-1.8.462V62.465H20.833V50.486a.521.521,0,0,0-.521-.521H4.688a.521.521,0,0,0-.521.521V62.465H2.084V49.444a.521.521,0,0,0-.042-.205L12.5,43.782l10.459,5.457A.521.521,0,0,0,22.917,49.444Z" transform="translate(0 -42.674)" fill="#8e8e93"/>
  <path id="Path_338" data-name="Path 338" d="M140.023,320h-6.271a.522.522,0,0,0-.523.523v.523h-4.7a.522.522,0,0,0-.523.523V326.8a.522.522,0,0,0,.523.523h11.5a.522.522,0,0,0,.523-.523v-6.271A.522.522,0,0,0,140.023,320Zm-6.793,6.271h-4.181v-4.181h1.568v1.045a.523.523,0,0,0,1.045,0v-1.045h1.568v4.181Zm6.271,0h-5.226v-5.226h2.09v1.568a.523.523,0,0,0,1.045,0v-1.568h2.09v5.226Z" transform="translate(-121.775 -306.485)" fill="#8e8e93"/>
</svg>
