<svg xmlns="http://www.w3.org/2000/svg" width="49.985" height="50" viewBox="0 0 49.985 50">
  <g id="Group_2048" data-name="Group 2048" transform="translate(-507.107 -1042.95)">
    <path id="Path_2080" data-name="Path 2080" d="M516.423,1051.153l36.644-5.359a11.614,11.614,0,0,0-7.625-2.844H518.758a11.648,11.648,0,0,0-11.651,11.652v26.683a11.659,11.659,0,0,0,9.742,11.5l-4.837-35.683A5.273,5.273,0,0,1,516.423,1051.153Z" fill="#118acb"/>
    <path id="Path_2081" data-name="Path 2081" d="M553.067,1045.794l-36.644,5.359a5.273,5.273,0,0,0-4.411,5.949l4.837,35.683a12.516,12.516,0,0,0,1.909.165h26.684a11.648,11.648,0,0,0,11.651-11.652v-26.7A11.607,11.607,0,0,0,553.067,1045.794Z" fill="#fff"/>
    <path id="Path_2082" data-name="Path 2082" d="M553.067,1045.794l-.123.028a11.781,11.781,0,0,1,4.025,8.78v26.642a11.587,11.587,0,0,1-11.569,11.569H518.745a13.156,13.156,0,0,1-1.924-.165l.014.137a11.161,11.161,0,0,0,1.9.165h26.642a11.716,11.716,0,0,0,11.706-11.706V1054.6A11.522,11.522,0,0,0,553.067,1045.794Z" fill="#b3b3b3"/>
    <g id="Group_2047" data-name="Group 2047">
      <g id="Group_2045" data-name="Group 2045">
        <path id="Path_2083" data-name="Path 2083" d="M538.242,1059.548a1.138,1.138,0,0,0-.866-.357,1.114,1.114,0,0,0-1.085.728,2.519,2.519,0,0,0-2.048-.866,3.509,3.509,0,0,0-2.638,1.182,4.177,4.177,0,0,0-1.044,2.913,4.3,4.3,0,0,0,1.044,2.913,3.326,3.326,0,0,0,2.638,1.181,2.537,2.537,0,0,0,2.048-.865,1.127,1.127,0,0,0,1.085.728,1.215,1.215,0,0,0,.866-.357,1.1,1.1,0,0,0,.316-.866v-5.592A1,1,0,0,0,538.242,1059.548Zm-2.46,5.043a1.435,1.435,0,0,1-1.181.549,1.4,1.4,0,0,1-1.182-.549,2.265,2.265,0,0,1-.453-1.416,1.965,1.965,0,0,1,.453-1.36,1.438,1.438,0,0,1,1.182-.55,1.4,1.4,0,0,1,1.181.55,2.214,2.214,0,0,1,.454,1.36A2.663,2.663,0,0,1,535.782,1064.591Z" fill="#118acb"/>
        <path id="Path_2084" data-name="Path 2084" d="M541.278,1066.816a1.136,1.136,0,0,1-.865.358,1.214,1.214,0,0,1-.866-.358,1.11,1.11,0,0,1-.316-.865v-10a1.324,1.324,0,0,1,.316-.866,1.142,1.142,0,0,1,.866-.357,1.215,1.215,0,0,1,.865.357,1.11,1.11,0,0,1,.316.866v10a1.088,1.088,0,0,1-.316.865Z" fill="#118acb"/>
        <path id="Path_2085" data-name="Path 2085" d="M549.138,1060.276a3.759,3.759,0,0,0-2.913-1.181,3.978,3.978,0,0,0-2.913,1.181,4.193,4.193,0,0,0-1.141,2.954,4.05,4.05,0,0,0,1.141,2.954,3.888,3.888,0,0,0,2.913,1.182,3.979,3.979,0,0,0,2.913-1.182,4.116,4.116,0,0,0,1.085-2.912A3.765,3.765,0,0,0,549.138,1060.276Zm-1.677,4.315a1.435,1.435,0,0,1-1.181.549,1.4,1.4,0,0,1-1.182-.549,2.265,2.265,0,0,1-.453-1.416,1.964,1.964,0,0,1,.453-1.36,1.437,1.437,0,0,1,1.182-.55,1.4,1.4,0,0,1,1.181.55,2.214,2.214,0,0,1,.454,1.36A2.663,2.663,0,0,1,547.461,1064.591Z" fill="#118acb"/>
        <path id="Path_2086" data-name="Path 2086" d="M529.242,1059.369a5.6,5.6,0,0,0,1.278-2.184c0-.866-.55-1.319-1.635-1.319h-5.771a1.463,1.463,0,0,0-1.044.316,1.109,1.109,0,0,0-.357.824,1.052,1.052,0,0,0,.357.824,1.42,1.42,0,0,0,1.044.316h3.957l-5.084,6.541a2.058,2.058,0,0,0-.494,1.14c0,.948.632,1.415,1.91,1.415h5.949c.948,0,1.415-.412,1.415-1.181,0-.825-.453-1.182-1.415-1.182h-4.369l4.259-5.51Z" fill="#118acb"/>
      </g>
      <g id="Group_2046" data-name="Group 2046">
        <path id="Path_2087" data-name="Path 2087" d="M526.412,1073.508h-1.5v3.091h1.5a1.328,1.328,0,0,0,1.085-.453,1.55,1.55,0,0,0,.412-1.086,1.438,1.438,0,0,0-.412-1.085A1.28,1.28,0,0,0,526.412,1073.508Z" fill="#39b54a"/>
        <path id="Path_2088" data-name="Path 2088" d="M533.831,1076.366a1.358,1.358,0,0,0-1.085.494,2.009,2.009,0,0,0-.412,1.278,1.954,1.954,0,0,0,.412,1.278,1.264,1.264,0,0,0,1.085.495,1.36,1.36,0,0,0,1.086-.495,2,2,0,0,0,.412-1.278,1.981,1.981,0,0,0-.412-1.278A1.379,1.379,0,0,0,533.831,1076.366Z" fill="#39b54a"/>
        <path id="Path_2089" data-name="Path 2089" d="M544.287,1069.1h-21.5a1.32,1.32,0,0,0-1.319,1.319V1083a1.32,1.32,0,0,0,1.319,1.319h16.955a.8.8,0,0,1-.274-.591,1.511,1.511,0,0,1,.137-.59l.824-1.773-2.225-5.551a1.727,1.727,0,0,1-.1-.494.672.672,0,0,1,.316-.591.912.912,0,0,1,.632-.275.982.982,0,0,1,1,.728l1.361,3.779,1.456-3.779a1.019,1.019,0,0,1,1-.728.884.884,0,0,1,.632.275.846.846,0,0,1,.316.591,1.375,1.375,0,0,1-.1.494l-3.27,7.956a1.61,1.61,0,0,1-.316.549h3.133a1.32,1.32,0,0,0,1.319-1.319v-12.586A1.291,1.291,0,0,0,544.287,1069.1Zm-15.182,8.45a3.591,3.591,0,0,1-2.542.907h-1.635v2.364a1.027,1.027,0,0,1-.316.824,1.1,1.1,0,0,1-.77.316.947.947,0,0,1-.769-.316,1.212,1.212,0,0,1-.316-.824v-8.176a1,1,0,0,1,1.14-1.14h2.6a3.894,3.894,0,0,1,2.679.948,3.55,3.55,0,0,1-.068,5.1Zm8.409,3.229a1.011,1.011,0,0,1-.316.77.982.982,0,0,1-.77.316,1.122,1.122,0,0,1-1.044-.687,2.335,2.335,0,0,1-1.91.824,3.071,3.071,0,0,1-2.4-1.085,4.037,4.037,0,0,1-1-2.721,3.857,3.857,0,0,1,1-2.72,3.069,3.069,0,0,1,2.4-1.086,2.388,2.388,0,0,1,1.91.825,1.093,1.093,0,0,1,1.044-.687.95.95,0,0,1,.77.316.979.979,0,0,1,.316.769Z" fill="#39b54a"/>
      </g>
    </g>
  </g>
</svg>
