<?xml version="1.0" encoding="utf-8"?>
<!-- Generator: Adobe Illustrator 23.0.5, SVG Export Plug-In . SVG Version: 6.00 Build 0)  -->
<svg version="1.0" id="Layer_1" xmlns="http://www.w3.org/2000/svg" xmlns:xlink="http://www.w3.org/1999/xlink" x="0px" y="0px"
	 viewBox="0 0 624 420" style="enable-background:new 0 0 624 420;" xml:space="preserve">
<style type="text/css">
	.st0{opacity:0.15;fill:#35B24A;enable-background:new    ;}
	.st1{fill:#015E3A;}
	.st2{fill:#BAA97E;}
	.st3{fill:#E5D1A1;}
	.st4{fill:#DFAE0C;}
	.st5{fill:#EE7D00;}
	.st6{fill:#EEB200;}
	.st7{opacity:0.63;fill:#EFDD47;}
	.st8{fill:#ECDFBE;}
	.st9{fill:#66950F;}
	.st10{fill:#2E9D21;}
	.st11{fill:#6AB12C;}
	.st12{fill:#8EC129;}
	.st13{fill:#A6D33D;}
	.st14{fill:#CCE87E;}
	.st15{opacity:0.15;}
	.st16{opacity:0.2;fill:#F4F6DF;}
	.st17{fill:#F42D2F;}
	.st18{fill:#FFC742;}
	.st19{fill:#68BB24;}
	.st20{opacity:0.3;fill:#F4F6DF;}
	.st21{fill:#6A3E33;}
	.st22{fill:#7A4A3B;}
	.st23{fill:#6EB400;}
	.st24{fill:#88D400;}
	.st25{fill:#DEFF78;}
	.st26{fill:#3DA07F;}
	.st27{fill:#2F8968;}
	.st28{fill:#EFF6BB;}
	.st29{fill:#F93D38;}
	.st30{opacity:0.23;fill:#F0FCFC;}
	.st31{opacity:0.39;fill:#611011;}
	.st32{fill:#611011;}
	.st33{fill:#8C3540;}
	.st34{fill:#05893D;}
	.st35{fill:#026329;}
	.st36{fill:#01B05E;}
	.st37{fill:#6AC761;}
	.st38{fill:#54AB4E;}
	.st39{fill:#C6DD7C;}
	.st40{opacity:0.5;fill:#F4F6DF;}
	.st41{fill-rule:evenodd;clip-rule:evenodd;fill:#594C38;}
	.st42{fill-rule:evenodd;clip-rule:evenodd;fill:#D22338;}
	.st43{fill:#7D8F21;}
	.st44{fill:#A9BC21;}
	.st45{fill:#9CCA39;}
	.st46{opacity:0.1;}
	.st47{fill:#4A4A6A;}
	.st48{opacity:0.6;}
	.st49{fill:#22A95B;}
	.st50{opacity:0.2;}
	.st51{fill:#DBC49C;}
	.st52{opacity:0.2;fill:#FFFFFF;}
	.st53{fill:#724A72;}
	.st54{fill:#6FC287;}
	.st55{fill:#788F00;}
	.st56{fill:#009034;}
	.st57{fill-rule:evenodd;clip-rule:evenodd;fill:#006405;}
	.st58{fill-rule:evenodd;clip-rule:evenodd;fill:#3BB700;}
	.st59{fill-rule:evenodd;clip-rule:evenodd;fill:#FFE868;}
	.st60{fill-rule:evenodd;clip-rule:evenodd;fill:#513714;}
	.st61{fill:#FFD94A;}
	.st62{opacity:0.2;fill-rule:evenodd;clip-rule:evenodd;}
	.st63{opacity:0.34;fill-rule:evenodd;clip-rule:evenodd;fill:#FFFFFF;}
	.st64{opacity:0.42;}
	.st65{opacity:0.84;fill:#FFFFFF;}
	.st66{fill:#79CA33;}
	.st67{opacity:0.3;fill:#FFFFFF;}
	.st68{fill:#65B403;}
	.st69{fill:#DDDBB0;}
	.st70{fill:#CE9C88;}
	.st71{opacity:0.1;fill:#630000;}
	.st72{fill:#0C9B38;}
	.st73{fill:#B5D181;}
	.st74{fill:#4AB838;}
	.st75{fill:#7D8E23;}
	.st76{fill:#C4270B;}
	.st77{fill:#FB845F;}
	.st78{fill:#DF270B;}
	.st79{fill:#FBAA89;}
	.st80{fill:#D10019;}
	.st81{fill:#FF0011;}
	.st82{opacity:0.34;fill:#FFFFFF;}
	.st83{opacity:0.44;fill:#FFFFFF;stroke:#D3EAE4;stroke-width:0.958;stroke-miterlimit:10;}
	.st84{opacity:0.34;fill:#D3EAE4;}
	.st85{fill:none;stroke:#B2D2E4;stroke-width:0.958;stroke-miterlimit:10;}
	.st86{fill:#B38156;}
	.st87{fill:#FFF1CC;}
	.st88{fill:#FFDF43;}
	.st89{opacity:0.48;}
	.st90{fill:#FFFFFF;}
	.st91{fill:#8B2F54;}
	.st92{fill:#E3BDFC;}
	.st93{fill:#DBC456;}
	.st94{opacity:0.9;fill:#35B24A;enable-background:new    ;}
	.st95{opacity:0.64;fill:#FFFFFF;}
	.st96{opacity:0.36;fill:#FFFFFF;}
</style>
<g>
	<g>
		<rect x="91.84" y="88.22" class="st0" width="440.32" height="278.11"/>
		<g>
			<path class="st1" d="M90.49,388.08H312h221.51c22.22,0,20.2-21.74,20.2-21.74V88.9c0-23.57-21.55-23.06-21.55-23.06H312H91.84
				c0,0-21.55-0.51-21.55,23.06v277.44C70.29,366.34,68.27,388.08,90.49,388.08z M91.84,88.22H312h220.16v278.11H312H91.84V88.22z"
				/>
			<path class="st1" d="M356.4,393.95c0,8.08-12.12,6.06-12.12,6.06H312h-32.28c0,0-12.12,2.02-12.12-6.06H15.16v6.29
				c0,0,15.49,15.6,52.19,15.6H312h244.65c36.7,0,52.19-15.6,52.19-15.6v-6.29H356.4z"/>
		</g>
	</g>
	<g>
		<path class="st2" d="M203.13,94.98c0,0,4.37-1.8,11.57,0c7.2,1.8,14.4,8.36,9.51,16.45c-4.88,8.1-6.3,0.64-9,0.77
			c-2.7,0.13,0.13,6.56-2.06,10.93c-2.19,4.37-9.64,3.86-12.47-0.51c-2.83-4.37,2.83-7.84,3.34-12.34c0.51-4.5-2.7-1.03-5.27-1.03
			C194.77,109.25,193.49,100.12,203.13,94.98z"/>
		<path class="st3" d="M214.7,94.98c-7.2-1.8-11.57,0-11.57,0c-9.64,5.14-8.36,14.27-4.37,14.27c0.44,0,0.91-0.1,1.36-0.25
			c-0.39-1.24-1.1-4.32,1.46-4.63c2.72-0.33,3.69,2.48,2.44,4.44c0.07,0.35,0.07,0.83,0,1.48c-0.51,4.5-6.17,7.97-3.34,12.34
			c2.83,4.37,10.28,4.88,12.47,0.51c2.08-4.16-0.38-10.18,1.71-10.86c-0.39-1.42-0.93-4.53,1.63-4.82c3.09-0.36,4.64,4.12,1.4,6.53
			c1.52,1.47,3.22,2.59,6.32-2.54C229.09,103.33,221.89,96.78,214.7,94.98z"/>
	</g>
	<g>
		
			<ellipse transform="matrix(0.9483 -0.3174 0.3174 0.9483 -52.7798 97.5739)" class="st4" cx="273.1" cy="210.78" rx="20.88" ry="30.36"/>
		
			<ellipse transform="matrix(0.9483 -0.3174 0.3174 0.9483 -51.2529 103.1915)" class="st5" cx="291.1" cy="208.91" rx="15.25" ry="30.36"/>
		
			<ellipse transform="matrix(0.9483 -0.3174 0.3174 0.9483 -56.3427 93.5205)" class="st5" cx="258.87" cy="219.7" rx="15.25" ry="30.36"/>
		<path class="st5" d="M272.93,190.09c-1.71,0.57-3.16,1.71-4.33,3.29c-1.94-0.54-3.84-0.55-5.62,0.04
			c-8.29,2.77-10.77,17.68-5.55,33.28c5.22,15.61,16.18,26.01,24.47,23.24c1.78-0.6,3.29-1.75,4.51-3.35
			c1.88,0.56,3.72,0.59,5.43,0.02c7.98-2.67,10.22-17.49,5-33.1C291.62,197.9,280.91,187.42,272.93,190.09z"/>
		<path class="st6" d="M281.47,180.11c-3.49,1.17-5.86,4.69-6.99,9.62c-0.53,0.07-1.05,0.18-1.55,0.35
			c-1.71,0.57-3.16,1.71-4.33,3.29c-1.94-0.54-3.84-0.55-5.62,0.04c-0.79,0.26-1.52,0.64-2.2,1.11c-3.92-3.36-8-4.81-11.54-3.63
			c-7.98,2.67-10.14,17.73-4.82,33.63c5.32,15.9,16.11,26.63,24.09,23.96c0.86-0.29,1.64-0.73,2.37-1.28
			c3.73,2.78,7.6,3.88,11.02,2.73c1.78-0.6,3.29-1.75,4.51-3.35c1.88,0.56,3.72,0.59,5.43,0.02c3.25-1.09,5.54-4.18,6.77-8.52
			c0.72-0.04,1.44-0.16,2.12-0.39c7.98-2.67,10.14-17.73,4.82-33.63C300.24,188.17,289.45,177.44,281.47,180.11z"/>
		<path class="st7" d="M291.07,244.28c-1.18,0.4-2.52,0.38-3.96-0.05l-1.62-0.48l-1.03,1.34c-0.96,1.25-2.08,2.09-3.34,2.52
			c-3.18,1.07-6.53-0.7-8.78-2.38l-1.49-1.11l-1.47,1.14c-0.53,0.41-1.07,0.71-1.64,0.9c-5.74,1.92-15.77-6.81-20.99-22.41
			c-5.22-15.6-2.47-28.61,3.27-30.53c2.54-0.85,5.8,0.27,9.17,3.16l1.44,1.23l1.56-1.08c0.5-0.35,1.03-0.61,1.58-0.8
			c1.26-0.42,2.67-0.42,4.18,0l1.63,0.45l1-1.36c0.89-1.21,1.95-2.02,3.13-2.42c0.34-0.11,0.71-0.2,1.08-0.24l1.71-0.21l0.38-1.68
			c0.97-4.22,2.87-7.01,5.37-7.84c5.74-1.92,15.77,6.81,20.99,22.41c5.22,15.6,2.47,28.61-3.27,30.53
			c-0.45,0.15-0.95,0.24-1.47,0.27l-1.76,0.09l-0.48,1.69C295.52,240.01,294.03,243.29,291.07,244.28z"/>
		<path class="st6" d="M273.94,195.99c-1.34,0.45-2.47,1.37-3.37,2.65c-1.54-0.47-3.04-0.5-4.44-0.03
			c-6.51,2.18-8.29,14.39-3.98,27.27c4.31,12.88,13.08,21.56,19.59,19.38c1.4-0.47,2.57-1.4,3.52-2.7c1.49,0.48,2.94,0.53,4.29,0.08
			c6.27-2.1,7.86-14.24,3.55-27.13C288.79,202.64,280.21,193.89,273.94,195.99z"/>
		<path class="st8" d="M268.12,185.2l-2.78-8.3c-0.49-1.47-2.14-2.25-3.65-1.74c-1.52,0.51-2.36,2.12-1.87,3.59l2.76,8.25
			c-4.46,2.27-8.58,7.74-8.58,7.74l4.73,5.24l20.81-6.97l-0.2-6.97C275.92,185.29,270.66,184.79,268.12,185.2z"/>
		<path class="st9" d="M261.69,175.16c-1.52,0.51-2.36,2.12-1.87,3.59l0.83,2.47c0.47-1.15,1.9-3.44,5.57-1.71l-0.87-2.61
			C264.85,175.44,263.2,174.65,261.69,175.16z"/>
		<path class="st8" d="M270.77,203.79c12.92-3.36,11.83-15.12,10.44-20.87c-1.99,1.19-3.51,3.74-4.34,7.36l-0.38,1.68l-1.71,0.21
			c-0.37,0.05-0.73,0.13-1.08,0.24c-1.18,0.4-2.24,1.21-3.13,2.42l-1,1.36l-1.63-0.45c-1.51-0.42-2.92-0.42-4.18,0
			c-0.55,0.18-1.08,0.45-1.58,0.8l-1.56,1.08l-1.44-1.23c-3.02-2.59-5.95-3.76-8.36-3.36C252.14,196.69,257.19,207.32,270.77,203.79
			z"/>
		<path class="st8" d="M271.75,204.83c0,0-1.14,1.1-0.51,2.97c0.63,1.87,2.03,1.76,2.29,1.68s1.77-0.52,0.92-3.04
			C273.95,204.96,271.75,204.83,271.75,204.83z"/>
		<path class="st8" d="M276.06,202.67c0,0-1.14,1.1-0.51,2.97c0.63,1.87,2.03,1.76,2.29,1.68c0.26-0.09,1.77-0.52,0.92-3.04
			C278.26,202.8,276.06,202.67,276.06,202.67z"/>
		<path class="st8" d="M279.31,200.38c0,0-0.83,1.35,0.25,3.01c1.08,1.66,2.41,1.2,2.64,1.05c0.23-0.15,1.58-0.95,0.13-3.17
			C281.47,199.95,279.31,200.38,279.31,200.38z"/>
		<path class="st8" d="M281.64,196.95c0,0-0.49,1.51,0.95,2.87c1.44,1.36,2.62,0.6,2.81,0.4c0.19-0.2,1.31-1.29-0.62-3.12
			C283.64,196.03,281.64,196.95,281.64,196.95z"/>
		<path class="st8" d="M283.25,192.78c0,0-0.14,1.58,1.57,2.58c1.7,1,2.69,0,2.83-0.24c0.14-0.24,0.99-1.55-1.3-2.9
			C284.99,191.43,283.25,192.78,283.25,192.78z"/>
		<path class="st8" d="M283.43,189.01c0,0,0.43,1.53,2.38,1.86c1.95,0.33,2.51-0.95,2.56-1.22c0.05-0.27,0.38-1.8-2.24-2.25
			C284.58,187.13,283.43,189.01,283.43,189.01z"/>
		<path class="st8" d="M282.81,185.31c0,0,0.76,1.32,2.65,1.17c1.89-0.15,2.12-1.48,2.09-1.74c-0.02-0.26-0.08-1.77-2.62-1.56
			C283.43,183.29,282.81,185.31,282.81,185.31z"/>
		<path class="st8" d="M268.12,205.41c0,0,1.55,0.35,1.98,2.28s-0.82,2.56-1.09,2.62c-0.27,0.06-1.78,0.47-2.36-2.12
			C266.31,206.65,268.12,205.41,268.12,205.41z"/>
		<path class="st8" d="M263.67,205.7c0,0,1.49,0.54,1.69,2.5c0.2,1.97-1.13,2.44-1.4,2.47c-0.27,0.03-1.82,0.25-2.09-2.39
			C261.72,206.71,263.67,205.7,263.67,205.7z"/>
		<path class="st8" d="M259.71,204.49c0,0,1.33,0.87,1.06,2.83c-0.27,1.96-1.66,2.11-1.93,2.07c-0.27-0.04-1.83-0.18-1.47-2.82
			C257.57,205.02,259.71,204.49,259.71,204.49z"/>
		<path class="st8" d="M255.84,202.25c0,0,1.1,1.14,0.4,2.99c-0.7,1.85-2.09,1.69-2.35,1.59s-1.75-0.59-0.8-3.07
			C253.64,202.29,255.84,202.25,255.84,202.25z"/>
		<path class="st8" d="M253.33,199.42c0,0,0.62,1.46-0.69,2.94c-1.31,1.48-2.56,0.83-2.76,0.65c-0.2-0.18-1.42-1.17,0.34-3.16
			C251.26,198.68,253.33,199.42,253.33,199.42z"/>
		<path class="st8" d="M251.47,196.1c0,0,0.24,1.57-1.39,2.68c-1.63,1.11-2.68,0.18-2.84-0.05c-0.15-0.23-1.09-1.48,1.1-2.98
			C249.64,194.87,251.47,196.1,251.47,196.1z"/>
	</g>
	<g>
		<g>
			<path class="st10" d="M330.02,179.63c0,0-3.25-2.8-7.05-0.32c-3.8,2.48-3.32,4.76-3.32,4.76s-2.1-4.93-7.4-3.6
				c0,0-8.24-7.89-15.51,0.99l7.96,11.17l19.58-4.86L330.02,179.63z"/>
			<path class="st11" d="M343.99,181.27c0,0-12.19-3.77-27.23,1.38c-15.05,5.15-21.44,14.54-21.44,14.54s-9.63,18.81,1.29,36.68
				c10.92,17.87,42.58,40.98,42.58,40.98s11.32,2,17.58-7.02C363.04,258.83,343.99,181.27,343.99,181.27z"/>
			<path class="st12" d="M349.12,172.5c0,0-9.43-2.61-12.88,2.52c-3.45,5.13-2.58,6.28-2.58,6.28s-10.44-2.12-12.07,9.97
				c-1.63,12.08,12.04,19.52,12.04,19.52s-2.77,12.95,11.13,22.79c13.9,9.84,34.25-37.1,34.25-37.1L349.12,172.5z"/>
			<path class="st12" d="M323.95,235.27c0,0,4.81-2.35,9.81,2.11c5.5,4.91,1.54,10.22,1.54,10.22s6.72,6.76,3.91,13.14
				c-2.81,6.39,9.8,2.74,7.97,9.91c-1.83,7.17-16.94,5.13-17.42,3.49c-0.49-1.64-11.05-30.98-11.05-30.98L323.95,235.27z"/>
			<path class="st13" d="M346.77,273.67c0,0-16.52,14.34-37.94,1.28c-21.43-13.06-30.12-39.23-22.5-58.94
				c7.62-19.71,14.46-23.05,10.41-34.56c0,0,12.62-1.77,10.06,15.47c0,0,6.98-4.97,10.43,3.38s-5.92,12.92-5.92,12.92
				s5.2-3.48,7.04,1.58c1.84,5.06-2.86,6.31-2.86,6.31s5.71-0.49,6.67,4.06c0.96,4.55-1.83,6.54-1.83,6.54s6.95-1.82,7.77,4.99
				c0.82,6.81-4.62,9.16-4.62,9.16s7.97-3.58,11.53,6.91c3.56,10.49-5.65,10.91-0.04,17.89S346.77,273.67,346.77,273.67z"/>
			<path class="st13" d="M367.3,165.29c0,0-3.88,10.1,5,17.22c8.88,7.12,34.55,26.78,29.82,50.8
				c-4.73,24.02-38.72,40.74-47.32,35.87c-8.59-4.87-2.42-13.81-2.42-13.81s-18.22-3.12-11.08-15.69c0,0-5.97-2.07-2.89-6.53
				c0,0-3.29-3.72,0.25-7.78c0,0-7.93-3.95-6.04-12.96c0,0,5.07,7.44,18.39,5.12c0,0-1.52-3.83-6.15-4.06
				c-4.64-0.23-7.63-6.33-0.39-7.92c0,0-2.67-5.93-6.34-4.48c-3.67,1.45-9.46-6.29-0.27-7.57c0,0-6.49-1.86-4.49-8.26
				c2.01-6.41,8.54-3.68,8.54-3.68s-1.92-4.85,2.37-6.26c4.29-1.4,6.57-0.24,6.57-0.24s0.54-5.53,3.94-6.88
				c3.41-1.35,6.05-0.03,6.05-0.03S361.55,162.25,367.3,165.29z"/>
			<g>
				<path class="st14" d="M351.24,209.08c-0.69,0.11-1.07,0.2-1.07,0.2S350.4,209.13,351.24,209.08z"/>
				<path class="st14" d="M363.67,231.11c14.36-3.82,24.22,7.85,26.01,10.16c0.46-4.86,0.24-10.23-1.51-15.24
					c-2.52-3.29-9.59-11.2-21.23-14.23c-9.89-2.57-14.02-2.83-15.69-2.72c4.18-0.68,20.01-2.1,34.46,11.81
					c-0.25-0.39-0.5-0.78-0.77-1.16c-9.43-13.1-17.36-33.88-17.36-33.88s4.67,11.25,13.93,25.2c-0.72-7.37,3.12-8.92,3.12-8.92
					c-2.73,2.63-2.16,8-1.45,11.4c1.21,1.76,2.49,3.56,3.84,5.37c3.05,4.09,4.72,8.25,5.51,12.24c0.95-4.69,2.88-8.26,3.89-13.01
					c1.16-5.48-4.59-12.36-4.59-12.36s8.19,7.68,5.02,15.73c-1.93,4.89-3.13,10.45-3.77,14.08c0.51,10.88-4.78,19.43-4.78,19.43
					c-1.97,3.44-2.64,2.52-2.64,2.52s2.69-6.19,3.78-14.22C380.58,229.39,363.67,231.11,363.67,231.11z"/>
			</g>
			<path class="st14" d="M296.1,208.42c-2.17,6.23-3.33,12.05-3.71,17.48c1.65-3.42,5.05-8.59,11.08-10.1c0,0-7.88,3.7-11.22,14.03
				c-0.02,9.13,2.18,17.03,5.42,23.71c-0.45-4.87,0.63-13.1,10.05-21.31c0,0-12.58,12.93-6.66,27.35
				c4.1,6.38,8.95,11.32,13.06,14.84c-1.09-4.04-3.43-16.94,9.41-21.37c0,0-13.4,7.17-6.64,23.62l0,0c1.88,1.46,3.48,2.54,4.57,3.25
				c-1.44-0.26-2.92-0.64-4.44-1.14C274.84,248.66,296.1,208.42,296.1,208.42z"/>
		</g>
		<path class="st15" d="M394.2,204.09l-0.1-0.01c0,0,14.06,25.87-5.7,45.48c-19.76,19.61-37.32,14.92-37.32,14.92
			c-3.87,4.04-6.47,0.95-6.47,0.95c-5.46,5.6-10.7,2.57-10.7,2.57c-22.72,12.49-38.89-5.99-45.39-15.67
			c4.22,8.93,11.08,16.99,20.31,22.61c3.59,2.19,7.05,3.6,10.31,4.44c0.1,0.03,0.21,0.05,0.31,0.08c0.68,0.17,1.35,0.31,2,0.44
			c0,0,0,0,0,0l0,0c11.62,2.13,20.45-2.8,23.82-5.12c3.21-0.5,7.11-1.87,10.2-5.3c5.65,2.21,19.31-2.65,30.48-11.83
			c0.26-0.02,0.71-0.25,1.41-1.19c7.11-6.2,12.98-14.17,14.75-23.16C404.26,222.42,400.15,212.43,394.2,204.09z"/>
		<path class="st16" d="M296.12,201.16c0,0,2.04-4.1,5.22-2.75c3.18,1.35,0.53,5.87-0.47,20.41c-1,14.53,1.5,27.06,8.27,34.83
			c6.77,7.77-4.43,15.23-17.28-6.22C281.11,229.49,296.12,201.16,296.12,201.16z"/>
		<path class="st16" d="M362.55,195.34c0,0-3.08-5.8,5.01-9.49c8.09-3.69,19.29,11.19,24.07,21.74c4.78,10.55,6.57,22.18-3.56,31.94
			c-10.14,9.76-21.51-4.6-20.03-20.36C369.53,203.41,362.55,195.34,362.55,195.34z"/>
	</g>
	<g>
		<path class="st17" d="M252.91,145.3c0,0-6.69-9.51-13.02-6.26c-5.32,2.73-6.49,13.75-5.19,20.67c1.3,6.92,1.53,9.32,5.24,11.06
			c3.56,1.68,4.74,0.03,13.46-3.46C262.11,163.82,276.77,150.17,252.91,145.3z"/>
		<path class="st18" d="M243.88,141.19c0.1-0.05,0.82,0.12,1.2,0.66c0.38,0.54-1.12,2.15-1.58,2.1
			C243.04,143.89,242.92,141.64,243.88,141.19z"/>
		<path class="st18" d="M257.45,148.45c0.1-0.05,0.82,0.12,1.2,0.66c0.38,0.54-1.12,2.15-1.58,2.1
			C256.61,151.15,256.49,148.9,257.45,148.45z"/>
		<path class="st18" d="M263.5,151.02c0.1-0.05,0.82,0.12,1.2,0.66c0.38,0.54-1.12,2.15-1.58,2.1
			C262.66,153.72,262.54,151.47,263.5,151.02z"/>
		<path class="st18" d="M237.85,151.34c0.08-0.08,0.81-0.15,1.35,0.23c0.54,0.39-0.36,2.4-0.81,2.5
			C237.94,154.17,237.08,152.08,237.85,151.34z"/>
		<path class="st18" d="M239.31,158.7c0.08-0.08,0.81-0.17,1.36,0.21c0.55,0.38-0.31,2.41-0.76,2.52
			C239.46,161.53,238.56,159.46,239.31,158.7z"/>
		<path class="st18" d="M240.53,165.79c0.11-0.03,0.79,0.23,1.1,0.82c0.3,0.59-1.41,1.98-1.86,1.86
			C239.32,168.35,239.51,166.1,240.53,165.79z"/>
		<path class="st18" d="M245.08,149.13c0.1-0.05,0.82,0.12,1.2,0.66c0.38,0.54-1.12,2.15-1.58,2.1
			C244.24,151.83,244.11,149.58,245.08,149.13z"/>
		<path class="st18" d="M255.21,154.35c0-0.11-0.44-0.64-1.04-0.69c-0.6-0.05-1.31,2.03-1.07,2.4
			C253.33,156.42,255.24,155.39,255.21,154.35z"/>
		<path class="st18" d="M248.54,165c0.03-0.11-0.21-0.74-0.76-0.99c-0.55-0.25-1.9,1.5-1.79,1.92
			C246.09,166.35,248.23,165.99,248.54,165z"/>
		<path class="st18" d="M255.67,162.26c0.04-0.1-0.18-0.75-0.73-1.01c-0.55-0.26-1.94,1.44-1.85,1.86
			C253.18,163.53,255.33,163.25,255.67,162.26z"/>
		<path class="st18" d="M263.06,156.74c0-0.11-0.44-0.64-1.04-0.69c-0.6-0.05-1.31,2.03-1.07,2.4
			C261.17,158.81,263.08,157.78,263.06,156.74z"/>
		<path class="st18" d="M248.65,157.77c0-0.11-0.44-0.64-1.04-0.69c-0.6-0.05-1.31,2.03-1.07,2.4
			C246.77,159.84,248.68,158.82,248.65,157.77z"/>
		<path class="st18" d="M250.53,146.17c0.1-0.05,0.82,0.12,1.2,0.66c0.38,0.54-1.12,2.15-1.58,2.1
			C249.69,148.87,249.56,146.62,250.53,146.17z"/>
		<path class="st18" d="M238.53,143.59c0.1-0.05,0.82,0.12,1.2,0.66c0.38,0.54-1.12,2.15-1.58,2.1
			C237.69,146.29,237.57,144.03,238.53,143.59z"/>
		<g>
			<path class="st19" d="M254.86,144.7c0,0,3.4,0.77,5.61-2.37c0,0-4.24-1.09-6.26,1.83c0,0,1.14-2.73-0.95-6.45
				c0,0-2.64,2.78,0.18,5.83c0,0-1.92-3.59-6.05-4.58c0,0,0.12,3.21,5.41,5.71c0,0-3.05-1.76-7.2,1.53c0,0,2.86,2.43,8.25-0.57
				c0,0-2.91,1.65-2.42,6.54c0,0,3.75-1.33,3.43-6.54c0,0,0.69,3.41,5.77,4.26C260.62,149.87,259.98,145.5,254.86,144.7z"/>
			<path class="st19" d="M253.55,144.73c0,0,1.17-5.46,8.59-9.82c0,0,1.06,0.5,0.87,1.63c0,0-6.41,1.35-9,8.76"/>
		</g>
		<path class="st15" d="M261.6,148.25c0.52,1.95,0.43,4.81-2.47,8.74c-3.18,4.31-8.6,8.4-14.36,10.95
			c-4.79,2.12-7.86-0.86-8.76-1.92c0.71,2.4,1.68,3.7,3.92,4.76c3.56,1.68,4.74,0.03,13.46-3.46
			C260.71,164.38,272.21,154.29,261.6,148.25z"/>
		<path class="st20" d="M243.26,141.75c0,0-2.74-1.4-4.99,2.38c-2.26,3.78-1.47,7.24-0.9,9.05c0.57,1.81,4.01,1.15,6.43-2.99
			C246.21,146.05,246.02,142.91,243.26,141.75z"/>
		<path class="st20" d="M237.76,155.8c0,0-1,0.17-1.21,1.26c-0.21,1.09,0.45,1.62,0.85,1.88s1.35-0.42,1.57-1.61
			C239.18,156.15,238.74,155.57,237.76,155.8z"/>
	</g>
	<g>
		<path class="st21" d="M268.89,261.31c0,15.45,12.53,27.98,27.98,27.98c15.45,0,27.98-12.53,27.98-27.98
			c0-15.45-12.53-27.98-27.98-27.98C281.41,233.33,268.89,245.85,268.89,261.31z"/>
		<path class="st22" d="M270.83,261.31c0,14.38,11.66,26.03,26.03,26.03c14.38,0,26.03-11.65,26.03-26.03
			c0-14.38-11.65-26.03-26.03-26.03C282.49,235.28,270.83,246.93,270.83,261.31z"/>
		<path class="st23" d="M274.63,261.31c0,12.28,9.95,22.24,22.24,22.24c12.28,0,22.24-9.96,22.24-22.24
			c0-12.28-9.96-22.24-22.24-22.24C284.58,239.07,274.63,249.02,274.63,261.31z"/>
		<path class="st24" d="M278.05,261.31c0,10.39,8.42,18.82,18.82,18.82c10.39,0,18.82-8.42,18.82-18.82
			c0-10.39-8.43-18.82-18.82-18.82C286.47,242.49,278.05,250.91,278.05,261.31z"/>
		<path class="st25" d="M287.66,261.31c0,5.08,4.12,9.2,9.2,9.2c5.08,0,9.2-4.12,9.2-9.2c0-5.08-4.12-9.2-9.2-9.2
			C291.78,252.1,287.66,256.22,287.66,261.31z"/>
		<g>
			<path d="M298.15,246.64l-1.29,3.48l-1.29-3.48C295.58,246.64,296.87,245.69,298.15,246.64z"/>
			<path d="M295.58,275.97l1.29-3.48l1.29,3.48C298.15,275.97,296.87,276.92,295.58,275.97z"/>
			<path d="M304.23,248.56l-2.64,2.61l0.3-3.7C301.89,247.47,303.47,247.16,304.23,248.56z"/>
			<path d="M289.5,274.05l2.64-2.61l-0.3,3.7C291.84,275.14,290.27,275.46,289.5,274.05z"/>
			<path d="M308.93,252.87l-3.49,1.25l1.84-3.22C307.27,250.89,308.83,251.27,308.93,252.87z"/>
			<path d="M284.81,269.75l3.49-1.25l-1.84,3.22C286.46,271.72,284.91,271.34,284.81,269.75z"/>
			<path d="M311.36,258.75l-3.69-0.34l3.03-2.15C310.7,256.27,311.95,257.27,311.36,258.75z"/>
			<path d="M282.37,263.86l3.69,0.34l-3.02,2.15C283.03,266.35,281.78,265.35,282.37,263.86z"/>
			<path d="M311.08,265.12l-3.2-1.87l3.65-0.67C311.53,262.58,312.24,264.02,311.08,265.12z"/>
			<path d="M282.64,257.49l3.2,1.87l-3.65,0.67C282.2,260.03,281.49,258.59,282.64,257.49z"/>
			<path d="M303.08,274.65l-0.63-3.65l2.86,2.37C305.32,273.36,304.67,274.83,303.08,274.65z"/>
			<path d="M290.65,247.96l0.62,3.66l-2.85-2.37C288.42,249.25,289.06,247.78,290.65,247.96z"/>
			<path d="M308.14,270.77l-2.11-3.05l3.59,0.94C309.61,268.66,309.66,270.26,308.14,270.77z"/>
			<path d="M285.59,251.84l2.11,3.05l-3.59-0.94C284.11,253.95,284.07,252.35,285.59,251.84z"/>
		</g>
	</g>
	<g>
		<path class="st26" d="M292.33,337.99l16.86-89.78l84.71,32.8c0,0-5.57,28.26-39.18,48.99
			C321.12,350.73,292.33,337.99,292.33,337.99z"/>
		<path class="st27" d="M292.33,337.99l16.86-89.78l84.71,32.8c0,0-5.57,28.26-39.18,48.99
			C321.12,350.73,292.33,337.99,292.33,337.99z"/>
		<path class="st28" d="M292.87,335.11c6,2.22,31.43,9.83,60.22-7.74c30.27-18.48,37.11-43.44,38.03-47.42l-81.94-31.73
			L292.87,335.11z"/>
		<path class="st29" d="M294.84,324.65c6.99,2.34,28.84,7.58,53.39-7.41c24.06-14.69,31.77-33.89,33.86-40.8l-72.89-28.23
			L294.84,324.65z"/>
		<path class="st30" d="M296.66,339.72l15.87-90.21l-3.34-1.3l-16.86,89.78C292.33,337.99,295.02,339.18,296.66,339.72z"/>
		<g>
			<path class="st31" d="M320.08,283.21c0,0-3.32,5.12-1.85,7.99c1.47,2.87,4.01,2.08,4.01,2.08s2.61-0.31,2.77-3.53
				C325.16,286.53,320.08,283.21,320.08,283.21z"/>
			<g>
				<path class="st32" d="M319.9,284.12c0,0-2.34,3.96-1.24,6.22c1.1,2.26,2.93,1.68,2.93,1.68s1.89-0.21,1.96-2.73
					C323.62,286.78,319.9,284.12,319.9,284.12z"/>
				<path class="st33" d="M319.48,290c0,0-0.62-0.61-0.25-2.36c0.37-1.75,1.54-0.9,1.44,0.26c-0.09,1.16,0.26,2.22,0.61,2.65
					C321.63,290.99,320.43,291.71,319.48,290z"/>
			</g>
		</g>
		<g>
			<path class="st31" d="M311.71,304.81c0,0-4.56,4.06-3.9,7.21c0.66,3.16,3.31,3.07,3.31,3.07s2.6,0.39,3.6-2.67
				C315.73,309.36,311.71,304.81,311.71,304.81z"/>
			<g>
				<path class="st32" d="M311.3,305.64c0,0-3.3,3.2-2.84,5.67c0.46,2.47,2.38,2.4,2.38,2.4s1.88,0.3,2.61-2.11
					C314.18,309.19,311.3,305.64,311.3,305.64z"/>
				<path class="st33" d="M309.34,311.2c0,0-0.44-0.75,0.39-2.34c0.83-1.59,1.72-0.46,1.32,0.63c-0.4,1.1-0.34,2.21-0.12,2.72
					C311.14,312.72,309.8,313.1,309.34,311.2z"/>
			</g>
		</g>
		<g>
			<path class="st31" d="M340.25,299.18c0,0-1.08,6,1.38,8.08c2.46,2.08,4.5,0.37,4.5,0.37s2.29-1.3,1.19-4.33
				C346.22,300.27,340.25,299.18,340.25,299.18z"/>
			<g>
				<path class="st32" d="M340.44,300.08c0,0-0.62,4.56,1.27,6.22c1.89,1.66,3.35,0.41,3.35,0.41s1.66-0.93,0.75-3.27
					C344.9,301.09,340.44,300.08,340.44,300.08z"/>
				<path class="st33" d="M342.33,305.66c0,0-0.81-0.32-1.14-2.08c-0.33-1.76,1.07-1.42,1.43-0.32c0.36,1.11,1.1,1.94,1.59,2.21
					C344.69,305.75,343.86,306.88,342.33,305.66z"/>
			</g>
		</g>
		<g>
			<path class="st31" d="M354.65,277.04c0,0,0.33,6.09,3.21,7.55c2.88,1.45,4.46-0.68,4.46-0.68s1.92-1.79,0.16-4.48
				C360.71,276.73,354.65,277.04,354.65,277.04z"/>
			<g>
				<path class="st32" d="M355.03,277.88c0,0,0.44,4.58,2.66,5.76c2.22,1.18,3.36-0.37,3.36-0.37s1.4-1.28-0.02-3.36
					C359.61,277.83,355.03,277.88,355.03,277.88z"/>
				<path class="st33" d="M358.16,282.88c0,0-0.86-0.12-1.59-1.76c-0.73-1.64,0.71-1.63,1.32-0.64c0.61,0.99,1.52,1.64,2.05,1.79
					C360.48,282.41,359.93,283.7,358.16,282.88z"/>
			</g>
		</g>
		<g>
			<path class="st31" d="M323.42,262.9c0,0,0.33,6.09,3.21,7.55c2.88,1.45,4.46-0.68,4.46-0.68s1.92-1.79,0.16-4.48
				C329.48,262.59,323.42,262.9,323.42,262.9z"/>
			<g>
				<path class="st32" d="M323.8,263.73c0,0,0.44,4.58,2.66,5.76c2.22,1.18,3.36-0.37,3.36-0.37s1.4-1.28-0.02-3.36
					C328.38,263.69,323.8,263.73,323.8,263.73z"/>
				<path class="st33" d="M326.93,268.73c0,0-0.86-0.12-1.59-1.76c-0.73-1.64,0.71-1.63,1.32-0.64c0.61,0.99,1.52,1.64,2.05,1.79
					C329.25,268.27,328.7,269.56,326.93,268.73z"/>
			</g>
		</g>
	</g>
	<g>
		<g>
			<path class="st34" d="M171.68,171.03c0,0,6.04-4.76,16.81,1.66c10.78,6.41,0.38,36.23,0.38,36.23L171.68,171.03z"/>
			<path class="st35" d="M161.66,173.7c0,0,2.34-7.36,7.82-13.17c0,0,7.21,26.29,31.62,49.18l-1.18,17.29l-36.42-41.9L161.66,173.7z
				"/>
			<path class="st36" d="M189.3,214.7c0,0-8.04-24.93-3.22-44.38c0,0,3.34-3.56,11.86,1.67c8.53,5.23-0.64,47.65-0.64,47.65
				L189.3,214.7z"/>
			<path class="st37" d="M193.81,218.03c0,0-6.91-18.81,1.14-52.31c0,0,3.37-3.74,10.36-1.47c6.99,2.27-2.05,63.17-2.05,63.17
				L193.81,218.03z"/>
			<path class="st38" d="M153.97,178.14c-0.03,1.32,34.1,48.12,40.7,55.46c6.6,7.34,12.12,19.42,12.12,19.42l8.64-11.5
				c0,0-4-11.03-4.17-20.2c-0.17-9.17-0.45-42.9,6.62-64.21c0,0-9.66-1.26-14.39,2.61c0,0-10.86,24.21-4.56,61.37
				c0,0-29.58-29.76-39.87-59.87C159.07,161.22,154.17,169.05,153.97,178.14z"/>
			<path class="st39" d="M219.25,303.91l21.89-11.09c-3.65-4.88-21.89-31.16-29.87-71.49c0,0-0.59,10.16,2.78,20.51
				c0,0-4.92-7.21-6.23-17.35c0,0-1.4,9.44,3.87,19.76c0,0-8.53-12.27-8.82-18.79c0,0-0.44,10.38,5.42,20.63
				c0,0-6.56-13.61-12.72-20.29c0,0,5.73,7.93,10.03,22.45c0,0-5.44-11.5-14.65-19.14c0,0,8.03,9.89,14.61,25.41
				C212.14,270.02,214.58,292.37,219.25,303.91z"/>
		</g>
		<path class="st15" d="M155.58,169.08c4.53,14.67,26.21,44.16,36.29,54.13c10.63,10.52,20.26,29.57,23.39,44.76
			c2.73,13.27,10.17,28.29,12.01,31.87l-8.01,4.06c-4.67-11.54-7.1-33.89-13.68-49.4c-6.58-15.52-14.61-25.41-14.61-25.41
			c0.01,0.01,0.02,0.02,0.03,0.03c-10.98-13.92-37.05-49.83-37.02-50.98C154.04,174.85,154.73,171.73,155.58,169.08z"/>
		<path class="st40" d="M236.78,291.25c0,0-0.71,6.23-5.53,1.25c-4.82-4.98-11.37-31.24-15.7-39.57
			c-4.33-8.34-6.49-14.78-3.13-13.37c3.36,1.4,5.44,16.39,12.42,29.63C231.83,282.42,236.78,291.25,236.78,291.25z"/>
	</g>
	<g>
		<path class="st41" d="M358.98,141.32c0,0-19.35,4.62-20.43,23.5c0,0,0.85,0.98,1.9-0.07c0,0-2.03-15.21,19.38-23.15L358.98,141.32
			z"/>
		<path class="st42" d="M356.86,142.51c0,0-5.12-2.65-3.11-7.92c2-5.27,12.91-5.94,17.26-0.46c4.35,5.47,1.07,12.77-3.05,15.92
			C363.83,153.2,356.13,149.97,356.86,142.51z"/>
	</g>
	<g>
		<path class="st43" d="M191.33,78.06c0,0-7.97-8.57-6.24-13.68c1.73-5.11,4.2-1.06,4.2-1.06s-1.13-5.43,2.34-8.3
			c3.47-2.87,2.47,3,2.47,3s-0.26-6.41,2.92-7.9c3.19-1.49,3.34,2.02,3.34,2.02s1.59-4.42,4.7-5.04c3.12-0.62,6.05-2.22,6.05-2.22
			s-0.25,3.04-1.59,4.42c-1.34,1.38-5.9,3.63-5.9,3.63s4.96-2.83,5.72-0.41c0.76,2.43-3.18,7.79-5.28,8.85c0,0,3.62-2.5,4.2-0.01
			c0.58,2.5-3.03,7.11-7.92,10.12c0,0,3.76-3.19,4.42-0.51c0.66,2.68-4.99,7.47-12.17,7.41c0,0-0.25,5.15-3.4,7.25
			C186.06,87.76,190.35,83.5,191.33,78.06z"/>
		<path class="st44" d="M206.09,48.77c0,0-5.75,4.14-8,12.23c-2.26,8.09-6.33,14.95-5.85,16.39c0.48,1.44,3-4.15,3.79-6.43
			c0.8-2.28,3.1-11.61,5.19-15.44c2.1-3.83,5.24-7.27,5.24-7.27"/>
		<path class="st44" d="M187.1,65.03c0,0,1.77,7.26,6.23,9.29c4.45,2.03,9.2-1.52,9.2-1.52s-5.14,2.03-8.63,0.48
			C190.41,71.72,187.1,65.03,187.1,65.03z"/>
		<path class="st44" d="M192.47,56.97c0,0-0.26,7.1,3.89,9.92c4.16,2.82,9.82-3.63,9.82-3.63s-6.83,4.63-9.17,3.03
			C194.67,64.69,192.56,59.1,192.47,56.97z"/>
		<path class="st44" d="M197.78,52.55c0,0-0.27,4.88,1.29,6c1.56,1.12,4.28-0.37,6.86-2.94c0,0-3.92,2.78-5.85,2.18
			C198.14,57.18,197.78,52.55,197.78,52.55z"/>
	</g>
	<g>
		<path class="st45" d="M397.01,63.16c0.39,3.01-1.73,5.76-4.74,6.16c-3.01,0.39-5.76-1.73-6.16-4.74
			c-0.39-3.01,1.73-5.76,4.74-6.16C393.86,58.03,396.62,60.15,397.01,63.16z"/>
		<path class="st46" d="M392.27,69.31c3.01-0.39,5.13-3.15,4.74-6.16c-0.21-1.63-1.13-3-2.4-3.85c1.21,1.65,2.05,5.75-2.19,7.19
			c-4.36,1.48-5.99-1.71-6.35-2.62c0,0.23,0.01,0.46,0.04,0.7C386.51,67.59,389.27,69.71,392.27,69.31z"/>
		<path class="st20" d="M391.46,60.39c0.37,0.62-0.1,1.59-1.06,2.17c-0.96,0.58-2.04,0.55-2.41-0.07c-0.37-0.62,0.1-1.59,1.06-2.17
			C390.01,59.74,391.09,59.78,391.46,60.39z"/>
	</g>
	<g>
		<path class="st45" d="M291.32,32.78c-0.67,2.55-3.29,4.07-5.83,3.4c-2.55-0.67-4.07-3.29-3.4-5.83c0.67-2.55,3.29-4.07,5.83-3.4
			C290.47,27.62,291.99,30.23,291.32,32.78z"/>
		<path class="st46" d="M285.49,36.18c2.55,0.67,5.16-0.85,5.83-3.4c0.37-1.39,0.08-2.79-0.66-3.89c0.43,1.72-0.24,5.3-4.12,5.07
			c-3.99-0.24-4.25-3.35-4.25-4.19c-0.08,0.19-0.14,0.38-0.2,0.58C281.42,32.9,282.94,35.51,285.49,36.18z"/>
		<path class="st20" d="M287.76,28.73c0.1,0.62-0.6,1.25-1.56,1.4c-0.96,0.15-1.82-0.23-1.92-0.85c-0.1-0.62,0.6-1.25,1.56-1.4
			C286.81,27.73,287.66,28.11,287.76,28.73z"/>
	</g>
	<g>
		<g>
			<path d="M226.82,133.55L226.82,133.55c-0.24-0.25-0.23-0.64,0.02-0.88l2.09-2.02c0.25-0.24,0.64-0.23,0.88,0.02l0,0
				c0.24,0.25,0.23,0.64-0.02,0.88l-2.09,2.02C227.46,133.81,227.06,133.8,226.82,133.55z"/>
			<g>
				<path class="st47" d="M228.2,132.42c2.69,2.79,1.92,7.91-1.72,11.42c-3.65,3.52-8.78,4.1-11.48,1.31
					c-2.69-2.79-1.92-7.91,1.72-11.42C220.37,130.22,225.51,129.63,228.2,132.42z"/>
			</g>
		</g>
		<path class="st48" d="M218.05,145.05c-0.55,0.63-1.64,0.58-2.43-0.11c-0.79-0.69-0.98-1.76-0.42-2.39
			c0.55-0.63,1.64-0.58,2.43,0.11C218.41,143.35,218.6,144.42,218.05,145.05z"/>
		<path class="st15" d="M214.24,144.15c0.21,0.36,0.46,0.7,0.76,1.01c2.69,2.79,7.83,2.2,11.48-1.31c3.64-3.52,4.42-8.63,1.72-11.42
			c-0.12-0.12-0.25-0.23-0.38-0.35c0.21,2.06,0.21,5.36-3,9.04C220.74,145.81,216.35,145.02,214.24,144.15z"/>
		<path class="st16" d="M220.03,134.32c0.66,0.53,0.32,2.06-0.77,3.42c-1.09,1.36-2.5,2.04-3.17,1.51
			c-0.66-0.53-0.32-2.06,0.77-3.42C217.95,134.47,219.36,133.79,220.03,134.32z"/>
	</g>
	<g>
		<g>
			<path d="M243.93,111.13L243.93,111.13c-0.27-0.03-0.47-0.28-0.43-0.55l0.28-2.3c0.03-0.27,0.28-0.47,0.55-0.43l0,0
				c0.27,0.03,0.47,0.28,0.43,0.55l-0.28,2.3C244.45,110.97,244.2,111.16,243.93,111.13z"/>
			<g>
				<path class="st47" d="M244.22,109.74c3.07,0.38,5.16,3.94,4.66,7.94c-0.5,4.01-3.39,6.95-6.45,6.57
					c-3.07-0.38-5.16-3.94-4.66-7.94C238.26,112.3,241.15,109.36,244.22,109.74z"/>
			</g>
		</g>
		<path class="st48" d="M244.26,122.66c-0.03,0.67-0.73,1.18-1.56,1.15c-0.84-0.03-1.49-0.6-1.46-1.27
			c0.03-0.67,0.73-1.18,1.56-1.15C243.63,121.42,244.29,121.99,244.26,122.66z"/>
		<path class="st15" d="M241.45,124.01c0.31,0.12,0.64,0.2,0.98,0.24c3.07,0.38,5.96-2.56,6.45-6.57c0.5-4.01-1.59-7.56-4.66-7.94
			c-0.14-0.02-0.27-0.02-0.41-0.02c1.16,1.17,2.82,3.22,2.68,7.11C246.3,121.77,243.19,123.48,241.45,124.01z"/>
		<path class="st16" d="M240.1,115.01c0.68-0.01,1.23,1.12,1.24,2.51c0.01,1.39-0.53,2.52-1.2,2.53c-0.68,0.01-1.23-1.12-1.24-2.51
			C238.89,116.15,239.43,115.02,240.1,115.01z"/>
	</g>
	<g>
		<path class="st49" d="M168.88,107.72c-0.5,0.56,2.85,9.62,5.77,13.27s-2.69,9.93,0.17,12.79c2.87,2.86,4.33-3.51,4.33-3.51
			s0.3,12.31,5.02,14.11s1.05-6.74,1.05-6.74s6.31,10.29,11.73,10.46c5.42,0.17-1.71-9.05-7.97-12.82c0,0,5.77,3.65,7.71,1.31
			c1.93-2.34-6.53-8.53-12.3-9.32c0,0,8.24,2.23,7.11-2.23c-1.13-4.47-11.41-2.05-14.71-4.25c-3.31-2.2-6.51-9.57-7.02-14.39
			C169.76,106.39,170,106.46,168.88,107.72z"/>
		<path class="st50" d="M196.94,148.1c0.78,0.02,1.29-0.15,1.59-0.47c-4.32-2.66-8.84-8.2-10.87-11.05
			c-2.47-3.46-4.56-6.5-11.21-14.34c-5.18-6.1-6.9-12.29-7.4-14.73c-0.06,0.07-0.11,0.13-0.17,0.2c-0.5,0.56,2.85,9.62,5.77,13.27
			c2.91,3.65-2.69,9.93,0.17,12.79c2.87,2.86,4.33-3.51,4.33-3.51s0.3,12.31,5.02,14.11s1.05-6.74,1.05-6.74
			S191.53,147.93,196.94,148.1z"/>
	</g>
	<g>
		<g>
			<path class="st2" d="M429.3,198.05c0,0-0.44-1.33,0.32-1.66c0.77-0.33,0.96,1.15,0.96,1.15s3.57-0.5,5.97,5.34
				c2.4,5.83,0.79,8.93-0.75,10.05c-1.93,1.41-5.95-0.91-7.65-5.08C426.46,203.67,427.75,199.92,429.3,198.05z"/>
			<path class="st51" d="M429.91,198.64c0,0-2.33,2.08-1.45,6.75c0.73,3.86,4.05,7.06,6.63,6.41c2.58-0.65,2.3-6.77-0.17-10.19
				C432.45,198.18,431.21,197.9,429.91,198.64z"/>
			<path class="st46" d="M430.58,197.53c0,0-0.16-1.21-0.76-1.19c0.41,0.61,0.51,1.6,0.51,1.6c1.03-0.1,4.23,2.31,5.39,7.87
				c1.08,5.18-2.88,6.71-3.42,6.9c1.32,0.72,2.63,0.85,3.5,0.21c1.54-1.12,3.15-4.22,0.75-10.05
				C434.15,197.04,430.58,197.53,430.58,197.53z"/>
			<path class="st52" d="M429.04,202.13c0.14,1.05,0.85,1.82,1.59,1.72c0.74-0.1,1.24-1.02,1.1-2.07c-0.14-1.05-0.85-1.82-1.59-1.72
				C429.4,200.15,428.91,201.08,429.04,202.13z"/>
		</g>
		<g>
			<path class="st2" d="M422.87,175.99c0,0-1.11-0.71-0.75-1.41c0.37-0.7,1.38,0.27,1.38,0.27s2.32-2.48,7.54,0.37
				c5.22,2.85,5.87,6.07,5.41,7.81c-0.58,2.17-4.9,2.87-8.61,0.81C424.12,181.8,422.84,178.29,422.87,175.99z"/>
			<path class="st51" d="M423.67,176.06c0,0-0.48,2.9,2.95,5.8c2.82,2.39,7.15,2.77,8.66,0.76c1.5-2.01-2.33-6.32-6.17-7.36
				C425.26,174.22,424.18,174.75,423.67,176.06z"/>
			<path class="st46" d="M423.5,174.86c0,0-0.83-0.79-1.26-0.42c0.66,0.2,1.32,0.87,1.32,0.87c0.7-0.69,4.47-0.82,8.61,2.57
				c3.87,3.15,1.87,6.63,1.58,7.08c1.39-0.26,2.43-0.94,2.69-1.92c0.46-1.74-0.19-4.96-5.41-7.81
				C425.82,172.38,423.5,174.86,423.5,174.86z"/>
			<path class="st52" d="M425.1,179.13c0.72,0.69,1.7,0.83,2.19,0.32c0.49-0.51,0.3-1.48-0.42-2.17c-0.72-0.69-1.7-0.83-2.19-0.32
				C424.19,177.47,424.38,178.45,425.1,179.13z"/>
		</g>
		<g>
			<path class="st2" d="M412.74,184.35c0,0-0.51-0.89-0.01-1.24c0.5-0.35,0.85,0.69,0.85,0.69s2.49-0.87,5.05,2.97
				c2.56,3.84,1.85,6.29,0.91,7.32c-1.18,1.29-4.4,0.21-6.22-2.54C411.52,188.79,411.9,185.91,412.74,184.35z"/>
			<path class="st51" d="M413.27,184.68c0,0-1.37,1.83-0.07,5.05c1.08,2.66,3.92,4.48,5.68,3.64c1.76-0.84,0.68-5.18-1.59-7.28
				C415.03,183.99,414.1,183.96,413.27,184.68z"/>
			<path class="st46" d="M413.59,183.79c0,0-0.29-0.84-0.71-0.75c0.38,0.38,0.59,1.08,0.59,1.08c0.73-0.22,3.37,1.05,5,4.87
				c1.52,3.56-1.1,5.23-1.46,5.44c1.05,0.32,2,0.23,2.54-0.35c0.94-1.03,1.65-3.48-0.91-7.32
				C416.08,182.92,413.59,183.79,413.59,183.79z"/>
			<path class="st52" d="M413.15,187.31c0.25,0.73,0.87,1.18,1.39,1.01c0.52-0.18,0.74-0.91,0.49-1.64
				c-0.25-0.73-0.87-1.18-1.39-1.01C413.12,185.84,412.9,186.57,413.15,187.31z"/>
		</g>
	</g>
	<g>
		<g>
			<path d="M426.53,103.79L426.53,103.79c0.17-0.31,0.57-0.43,0.88-0.26l2.66,1.46c0.31,0.17,0.43,0.57,0.26,0.88l0,0
				c-0.17,0.31-0.57,0.43-0.88,0.26l-2.66-1.46C426.48,104.5,426.36,104.11,426.53,103.79z"/>
			<g>
				<path class="st47" d="M428.09,104.82c-1.95,3.55-7.29,4.36-11.92,1.82c-4.63-2.55-6.81-7.49-4.86-11.03
					c1.95-3.55,7.29-4.36,11.92-1.82C427.86,96.33,430.03,101.27,428.09,104.82z"/>
			</g>
		</g>
		<path class="st48" d="M412.35,98.61c-0.8-0.36-1.09-1.46-0.64-2.45c0.45-1,1.45-1.52,2.25-1.16c0.8,0.36,1.09,1.46,0.64,2.45
			C414.16,98.44,413.15,98.97,412.35,98.61z"/>
		<path class="st15" d="M412.08,94.53c-0.29,0.32-0.56,0.68-0.77,1.07c-1.95,3.55,0.23,8.49,4.86,11.03
			c4.63,2.55,9.97,1.73,11.92-1.82c0.09-0.16,0.16-0.32,0.23-0.49c-1.99,0.85-5.28,1.87-9.94-0.19
			C412.44,101.52,411.87,96.9,412.08,94.53z"/>
		<path class="st16" d="M423.67,97.26c-0.32,0.82-1.96,0.96-3.65,0.3c-1.7-0.66-2.81-1.86-2.49-2.69c0.32-0.82,1.96-0.96,3.65-0.3
			C422.87,95.23,423.99,96.43,423.67,97.26z"/>
	</g>
	<g>
		<g>
			<path d="M319.82,108L319.82,108c-0.05-0.28,0.14-0.55,0.42-0.6l2.38-0.42c0.28-0.05,0.55,0.14,0.6,0.42l0,0
				c0.05,0.28-0.14,0.55-0.42,0.6l-2.38,0.42C320.14,108.47,319.87,108.29,319.82,108z"/>
			<g>
				<path class="st47" d="M321.29,107.87c0.56,3.18-2.34,6.35-6.49,7.09c-4.15,0.74-7.97-1.24-8.54-4.42
					c-0.56-3.18,2.34-6.35,6.49-7.09C316.91,102.71,320.73,104.69,321.29,107.87z"/>
			</g>
		</g>
		<path class="st48" d="M308.42,111.88c-0.67,0.18-1.4-0.36-1.63-1.2c-0.22-0.84,0.14-1.67,0.82-1.85c0.67-0.18,1.4,0.36,1.63,1.2
			C309.46,110.87,309.09,111.7,308.42,111.88z"/>
		<path class="st15" d="M306.21,109.48c-0.02,0.35-0.01,0.7,0.06,1.05c0.56,3.18,4.39,5.16,8.54,4.42c4.15-0.74,7.06-3.91,6.49-7.09
			c-0.03-0.14-0.06-0.28-0.1-0.42c-0.81,1.52-2.35,3.8-6.27,4.85C309.93,113.64,307.26,111.06,306.21,109.48z"/>
		<path class="st16" d="M314.77,105.38c0.21,0.67-0.74,1.57-2.12,2.01c-1.38,0.44-2.68,0.25-2.89-0.42
			c-0.21-0.67,0.74-1.57,2.12-2.01C313.26,104.52,314.55,104.71,314.77,105.38z"/>
	</g>
	<g>
		<g>
			<path class="st53" d="M397.05,223.69c0,0,3.4,15.55-17.27,30.2c-20.67,14.64-69.43,34.9-49.54,66.92
				c19.88,32.02,70.85,2.33,89.99-39.19c19.15-41.51,0.45-70.51-5.23-73.39c-5.68-2.87-12.72-6.15-16.62,1
				C394.47,216.39,397.05,223.69,397.05,223.69z"/>
			<g>
				<path class="st54" d="M392.12,225.05c0,0,8.62-0.56,7.65-11.53c0,0,3.76-0.67,7.61,7.38c0,0,3.39-3.67,0.08-7.77
					c-2.42-2.99-0.72-9.56,4.45-2.24c5.17,7.32,14.41,4.72,10.97-0.97c0,0-2.84,5.83-6.69-2.21s-18.78-10.25-21.12-1.59
					C392.72,214.76,398.89,219.49,392.12,225.05z"/>
				<path class="st54" d="M398.17,202.65c0,0-1.22-6.89-8.3-8.55c0,0,0.53-4.29,3.94-3.28c3.41,1.01,6.18,5.69,6.4,12.44
					C400.44,210,398.17,202.65,398.17,202.65z"/>
			</g>
		</g>
		<path class="st15" d="M420.97,215.2c2.31-0.57,3.55-2.58,1.91-5.29c0,0-2.84,5.83-6.69-2.21c-2.68-5.59-10.71-8.36-16.14-6.61
			c-0.68-5.57-3.2-9.37-6.23-10.27c-0.97-0.29-1.69-0.14-2.25,0.21c8.76,5.12,6.52,10.39,8.27,10.91c2.05,0.61,4.41,2.74,8.45,5.64
			c4.04,2.91,7.36,10.67,10.31,24.33c2.95,13.66-3.55,48.9-33.39,77.57c-27.03,25.98-48.51,16.95-52.31,15.02
			c21.44,25.82,68.99-3.1,87.33-42.88C434.54,250.6,427.7,226.56,420.97,215.2z"/>
		<path class="st16" d="M338.56,290.55c0,0-11.62,12.67-4.13,19.06c7.49,6.39,18.1-14.03,31.91-27.04
			c13.81-13.01,9.08-15.69,1.9-12.94C361.07,272.37,347.27,280.76,338.56,290.55z"/>
		<path class="st20" d="M398.67,204.48c1.27,0.21,1.96,2.5,1.53,5.11c-0.43,2.62-1.8,4.57-3.07,4.36c-1.27-0.21-1.96-2.5-1.53-5.11
			C396.02,206.22,397.4,204.27,398.67,204.48z"/>
		<path class="st20" d="M387.23,256.96c0.96,0.86,0.31,3.16-1.46,5.13c-1.77,1.98-3.98,2.88-4.94,2.02
			c-0.96-0.86-0.31-3.16,1.46-5.13C384.06,257.01,386.27,256.11,387.23,256.96z"/>
		<path class="st48" d="M336.12,321.19c0.33,1.01-0.1,2.05-0.96,2.34c-0.86,0.28-1.83-0.3-2.16-1.31c-0.33-1.01,0.1-2.05,0.96-2.34
			C334.82,319.59,335.79,320.18,336.12,321.19z"/>
	</g>
	<g>
		<g>
			<path class="st24" d="M340.98,14.36c1.51,3.34,4.97,5.16,8.59,6.15c3.16,0.72,7.14,0.82,10.21,1.95c6.02,2.5-1.62,4.19-4.68,3.84
				c4.01,1.67,9.18,1.05,13.32,2.48c6.57,2.35-1.92,5.26-4.99,4.13c2.64,0.27,5.2,0.95,7.84,1.22c2.41,0.13,6.83-2.18,9.03-1.02
				c5.31,2.81-5.87,6.08-8.56,5.63c2.41,0.13,16.46,2.1,15.46,5.95c-1.4,5.36-13.95-2.61-15.74-4.09c2.46,2.49,6.06,9.98-0.81,6.52
				c-5.05-2.57-6.94-8.15-10.22-12.2c0.6,2.2,3.41,9.45-1.05,6.71c-3.12-1.92-4.03-8.68-4.85-12.41c0.64,1.6,0.41,6.65-1.41,7.94
				c-2.64,1.91-2.33-3.55-3.02-5.34c-1.29-3.99-3.26-7.6-5.24-11.21L340.98,14.36z"/>
		</g>
		<g>
			<path class="st55" d="M337.55,4.9c0.55,3.46,1.87,6.7,3.71,9.61c1.85,2.9,4.1,5.54,6.6,7.94c2.47,2.42,5.19,4.58,7.98,6.64
				c1.4,1.02,2.84,2.01,4.3,2.94c1.45,0.97,2.95,1.85,4.46,2.73c-3.22-1.37-6.27-3.12-9.2-5.04c-2.92-1.93-5.7-4.1-8.24-6.55
				c-2.52-2.45-4.81-5.18-6.56-8.26c-0.87-1.54-1.59-3.16-2.15-4.83C337.95,8.38,337.62,6.65,337.55,4.9z"/>
		</g>
	</g>
	<path class="st56" d="M275.47,41.41c-1.02-0.2-1.34-0.16-1.34-0.16s1.7-1.1,0.73-1.4c-0.97-0.3-1.92,0.76-1.92,0.76
		s0.31-0.72-0.59-0.62c-0.9,0.1-3.1,5.15-4.19,4.13c-1.09-1.03,5.62-6.14,4.55-6.92c-0.98-0.71-1.81,0.24-1.95,0.4
		c0.24-0.3,2.41-3.11,0.59-3.2c-1.92-0.1-3.02,4.27-3.52,3.44c-0.5-0.83,1.87-6.55,0.61-6.48c-1.26,0.07-1.68,2.03-1.68,2.03
		s-1.34-2.98-1.91-2.67c-0.56,0.31-0.64,1.62-0.64,1.62s-0.17-0.87-0.81-0.54c-0.64,0.34,2.47,4.33,1.01,3.88
		c-1.46-0.45-2.28-2.52-2.87-2.29c-0.59,0.23,0.15,2.33,0.15,2.33l-1.17-0.14c0,0,3.77,4.59,2.85,4.86c-0.92,0.28-2-4-3.75-2.8
		c-1.75,1.2,2.37,3.85,1.19,4.32c-1.18,0.47-3.35-0.91-2.91,0.2c0.44,1.11,2.27,1.42,2.27,1.42s-1.71-0.01-1.53,0.69
		c0.19,0.7,2.18-0.77,3.53,2.89c0.83,2.25,1.16,3.88,1.3,4.81c-1.17-1.5-2.42-2.88-3.64-4.14c-0.85-1.43-2.44-4.14-2.93-5.36
		c-0.69-1.7,1-8.33,0.06-8.86c-0.94-0.53-1.9,2.53-2.42,2.16c-0.52-0.37,0.46-3.97-0.1-4.24s-1.33,1.31-1.33,1.31
		s-0.46-2.15-1.85-1.95c-1.4,0.2-0.01,2.28-0.01,2.28s-0.66-0.49-1.53-0.09c-0.87,0.4,1.14,2.1,1.14,2.1s-1.12-0.54-1.25,0.13
		c-0.13,0.67,2.02,4.24,1.16,4.63c-0.87,0.4-2.01-7.65-2.62-7.64c-0.61,0.01-0.34,0.59-0.34,0.59s-1.03-1.1-2.28-0.97
		c-1.25,0.13,1.48,3.61,0.61,3.83c-0.86,0.22-2.02-3.45-2.88-3.23c-0.86,0.22,0.99,1.21,0.27,1.54c-0.72,0.33-2.56-1.19-2.94-0.49
		c-0.38,0.7,1.74,2.09,1.74,2.09s-1.56-0.16-1.98,0.64c-0.42,0.8,3.8,1.24,3.56,2.05c-0.24,0.81-3.69-0.41-3.86,0.54
		c-0.18,0.96,0.92,0.28,1.33,0.62c0.42,0.33-0.59,0.44-0.25,0.99c0.34,0.55,7.6,0.55,7.91,1.81c0.31,1.26-4.76-1.41-5.64-0.66
		c-0.88,0.75,1.43,0.83,1.27,1.25c-0.16,0.42-4.73,0.76-4.41,1.84c0.32,1.08,1.36-0.09,2.09,0.36c0.73,0.45-1.35,1.06-0.96,1.92
		c0.4,0.87,2.49-2.01,3.64-1.4c1.15,0.61-2.45,1.91-2.19,2.49c0.26,0.58,2.75-0.12,2.75-0.12s-0.88,0.75-0.05,1.42
		c0.83,0.67,2.23-1.63,6.91-2.29c4.69-0.66,6.54,2.26,6.54,2.26l0.05-0.02c1.62,1.69,3.24,3.6,4.67,5.67
		c-1.37-0.23-3.33-0.29-6.04-0.79c-4.43-0.82-4.88-4.15-5.71-3.65c-0.83,0.5,1.77,2.98-0.7,0.62c-2.47-2.36-2.51,0.13-1.56,1.04
		c0.63,0.6-2.53-1.23-3.16-0.64c-0.62,0.59,2.58,1.55,2.45,2.97c-0.13,1.42-4-3.64-4.57-3.59c-0.58,0.06-0.06,0.71-0.06,0.71
		s-1.98-0.68-2.83-0.25c-0.86,0.42,2.53,1.65,2.47,2.36c-0.06,0.71-3.05-1.02-3.57-0.82c-0.52,0.2,1.32,1.19,1.32,1.19
		s-2.08-0.72-2.63,0.27c-0.55,0.99,3.3,1.44,3.19,2.25c-0.11,0.81-1.92-0.1-2.12,1.35c-0.2,1.45,6.24-0.66,7.41,0.16
		c1.18,0.82-5.1,1.15-5.3,1.74c-0.2,0.59,1.03,0.88,1.03,0.88s-1.72,0.42-1.56,1.47c0.16,1.05,2.17-0.34,2.17-0.34
		s-0.95,0.63-0.84,1.35c0.11,0.72,2.93-1.67,3.34-1.06c0.41,0.61-2.05,1.32-1.34,1.81c0.71,0.49,2.18-1.2,2.18-1.2
		s-0.11,1.67,0.79,1.14c0.9-0.53,3.62-4.93,4.65-4.48c1.03,0.45-2.74,4.33-2.29,4.83c0.46,0.5,2.03-1.57,1.84-0.98
		c-0.2,0.59-2.32,2.37-1.52,3.08c0.79,0.71,1.67,0.11,1.67,0.11s-0.6,1.52,0.27,1.77c0.87,0.26,1.39-2.34,1.46-1.94
		c0.07,0.4,0.08,0.65,0.82,0.79c0.74,0.14,1.57-5.15,2.54-4.85c0.97,0.3-1.11,2.83-0.3,2.94c0.81,0.11,1.55-2.15,2.18-2.06
		c0.63,0.09-1.25,2.03-1.08,2.48c0.17,0.44,1.59,0.14,1.91-1.44c0.32-1.58,0.67-5.91,3.75-6.77c0.45-0.13,0.83-0.18,1.16-0.19
		c0.57,0.99,1.1,2.01,1.54,3.06c4.49,10.57,5.08,18.83,5.09,18.92l1.59-0.1c-0.02-0.35-0.6-8.59-5.21-19.43
		c-0.58-1.36-1.27-2.67-2.04-3.93c-0.09-1.41,0.24-3.54,2.74-4.41c3.91-1.37,6.86-2.78,5.4-3.66c-1.46-0.88-5.33,0.13-2.81-1.71
		c2.52-1.85,4.82-1.21,4.52-2.2c-0.3-0.99-1.85-0.13-1.81-0.91C274.2,42.08,276.49,41.61,275.47,41.41z"/>
	<g>
		<path class="st57" d="M252.76,209.33c2.43,0.77,4.95,0.7,6.97,2.4c10.33,8.71,15.21,28.36,13.39,45.89
			c-2.18,20.95-13.92,38.87-37.33,31.44c-23.42-7.43-26.52-30.06-20.06-49.65c5.56-16.85,18.19-31.46,31.06-32.22
			C248.87,207.06,250.69,208.67,252.76,209.33z"/>
		<path class="st58" d="M252.25,211.72c2.05,0.65,4.23,0.35,5.97,1.74c9.83,7.92,14.44,26.69,12.66,43.44
			c-2.09,19.7-12.99,36.61-34.59,29.75c-21.59-6.85-24.37-28.1-18.34-46.55c5.22-15.96,17.05-29.82,29.01-30.46
			C248.83,209.55,250.41,211.13,252.25,211.72z"/>
		<path class="st59" d="M252.03,212.79c1.85,0.59,3.86,0.18,5.43,1.43c9.41,7.5,13.74,25.83,11.96,42.22
			c-2.08,19.13-12.5,35.62-32.9,29.15c-20.4-6.47-22.92-27.07-17.11-45.02c5.06-15.62,16.44-29.24,27.83-29.81
			C248.94,210.69,250.35,212.25,252.03,212.79z"/>
		<path class="st60" d="M252.95,208.48c2.42,0.77,4.3,1.8,4.2,2.3c-0.11,0.5-2.16,0.29-4.58-0.48c-2.42-0.77-4.3-1.8-4.2-2.3
			C248.47,207.49,250.52,207.71,252.95,208.48z"/>
		<path class="st61" d="M269.44,256.44c1.78-16.39-2.55-34.73-11.96-42.22c-1.57-1.25-3.58-0.84-5.43-1.43
			c-0.02-0.01-0.05-0.02-0.07-0.03l-13.16,73.46C257.72,290.8,267.44,274.85,269.44,256.44z"/>
		<path class="st62" d="M245.63,241.61c9.52-0.22,13.36,10.05,12.83,18.46c-0.53,8.41-7.23,15.37-14.97,15.54
			c-7.74,0.18-13.59-6.5-13.06-14.91C230.96,252.3,236.1,241.83,245.63,241.61z"/>
		<path class="st60" d="M244.29,238.92c9.52-0.22,13.36,10.05,12.83,18.46c-0.53,8.41-7.23,15.37-14.97,15.54
			c-7.74,0.18-13.59-6.5-13.06-14.91C229.62,249.61,234.77,239.14,244.29,238.92z"/>
		<path class="st63" d="M237.62,244.23c1.46-0.37,2.27,1.18,1.82,3.47c-0.46,2.29-2.01,4.44-3.47,4.82
			c-1.46,0.37-2.27-1.18-1.82-3.47C234.61,246.76,236.16,244.61,237.62,244.23z"/>
		<g class="st64">
			<path class="st65" d="M253.1,263.15c-0.07,0.22-0.29,0.35-0.49,0.29c-0.2-0.06-0.3-0.29-0.22-0.51c0.07-0.22,0.29-0.35,0.49-0.29
				C253.07,262.7,253.17,262.93,253.1,263.15z"/>
			<path class="st65" d="M248.46,268.48c-0.07,0.22-0.29,0.35-0.49,0.29c-0.2-0.06-0.3-0.29-0.22-0.51
				c0.07-0.22,0.29-0.35,0.49-0.29C248.43,268.03,248.53,268.26,248.46,268.48z"/>
			<path class="st65" d="M242.54,269.65c-0.07,0.22-0.29,0.35-0.49,0.29c-0.2-0.06-0.3-0.29-0.22-0.51
				c0.07-0.22,0.29-0.35,0.49-0.29C242.52,269.2,242.62,269.43,242.54,269.65z"/>
			<path class="st65" d="M248.3,258.8c-0.07,0.22-0.29,0.35-0.49,0.29c-0.2-0.06-0.3-0.29-0.22-0.51c0.07-0.22,0.29-0.35,0.49-0.29
				C248.27,258.35,248.37,258.58,248.3,258.8z"/>
			<path class="st65" d="M246.54,256.29c-0.07,0.22-0.29,0.35-0.49,0.29c-0.2-0.06-0.3-0.29-0.22-0.51
				c0.07-0.22,0.29-0.35,0.49-0.29C246.51,255.85,246.61,256.07,246.54,256.29z"/>
			<path class="st65" d="M248.17,248.37c-0.07,0.22-0.29,0.35-0.49,0.29c-0.2-0.06-0.3-0.29-0.22-0.51
				c0.07-0.22,0.29-0.35,0.49-0.29C248.15,247.92,248.25,248.15,248.17,248.37z"/>
			<path class="st65" d="M255.2,255.23c-0.07,0.22-0.29,0.35-0.49,0.29c-0.2-0.06-0.3-0.29-0.22-0.51c0.07-0.22,0.29-0.35,0.49-0.29
				C255.18,254.78,255.28,255.01,255.2,255.23z"/>
		</g>
	</g>
	<g>
		<path class="st66" d="M277.61,146.77c2.23,1.97,5.64,1.76,7.61-0.48c1.97-2.23,1.76-5.64-0.48-7.61
			c-2.23-1.97-5.64-1.76-7.61,0.48C275.16,141.39,275.37,144.8,277.61,146.77z"/>
		<path class="st50" d="M285.22,146.29c1.97-2.23,1.76-5.64-0.48-7.61c-0.57-0.5-1.22-0.86-1.9-1.08c0.62,1.26,1.88,3.5-1.53,5.6
			c-2.32,1.42-5.11,0.3-5.52-0.17c0.08,1.39,0.69,2.75,1.82,3.74C279.84,148.74,283.25,148.52,285.22,146.29z"/>
		<path class="st67" d="M280.95,139.87c0.13,0.63-0.43,1.27-1.25,1.45c-0.82,0.17-1.6-0.19-1.73-0.82
			c-0.13-0.63,0.43-1.27,1.25-1.45C280.04,138.88,280.82,139.25,280.95,139.87z"/>
	</g>
	<g>
		<path class="st66" d="M227.02,197.58c2.23,1.97,5.64,1.76,7.61-0.48c1.97-2.23,1.76-5.64-0.48-7.61
			c-2.23-1.97-5.64-1.76-7.61,0.48C224.57,192.2,224.78,195.61,227.02,197.58z"/>
		<path class="st50" d="M234.63,197.1c1.97-2.23,1.76-5.64-0.48-7.61c-0.57-0.5-1.22-0.86-1.9-1.08c0.62,1.26,1.88,3.5-1.53,5.6
			c-2.32,1.42-5.11,0.3-5.52-0.17c0.08,1.39,0.69,2.75,1.82,3.74C229.25,199.55,232.66,199.34,234.63,197.1z"/>
		<path class="st67" d="M230.36,190.69c0.13,0.63-0.43,1.27-1.25,1.45c-0.82,0.17-1.6-0.19-1.73-0.82
			c-0.13-0.63,0.43-1.27,1.25-1.45C229.46,189.69,230.23,190.06,230.36,190.69z"/>
	</g>
	<g>
		<path class="st66" d="M445.01,196.12c2.23,1.97,5.64,1.76,7.61-0.48c1.97-2.23,1.76-5.64-0.48-7.61
			c-2.23-1.97-5.64-1.76-7.61,0.48C442.56,190.74,442.78,194.15,445.01,196.12z"/>
		<path class="st50" d="M452.62,195.64c1.97-2.23,1.76-5.64-0.48-7.61c-0.57-0.5-1.22-0.86-1.9-1.08c0.62,1.26,1.88,3.5-1.53,5.6
			c-2.32,1.42-5.11,0.3-5.52-0.17c0.08,1.39,0.69,2.75,1.82,3.74C447.24,198.09,450.65,197.87,452.62,195.64z"/>
		<path class="st67" d="M448.36,189.22c0.13,0.63-0.43,1.27-1.25,1.45c-0.82,0.17-1.6-0.19-1.73-0.82
			c-0.13-0.63,0.43-1.27,1.25-1.45C447.45,188.23,448.22,188.6,448.36,189.22z"/>
	</g>
	<g>
		<path class="st66" d="M273.95,126.03c1.75,1.55,4.43,1.38,5.97-0.38c1.55-1.75,1.38-4.43-0.38-5.97
			c-1.75-1.55-4.43-1.38-5.97,0.38C272.03,121.81,272.2,124.48,273.95,126.03z"/>
		<path class="st50" d="M279.93,125.65c1.55-1.75,1.38-4.43-0.38-5.97c-0.45-0.39-0.96-0.68-1.49-0.85c0.49,0.99,1.48,2.75-1.2,4.39
			c-1.82,1.12-4.01,0.24-4.33-0.13c0.06,1.09,0.54,2.16,1.43,2.94C275.71,127.57,278.38,127.4,279.93,125.65z"/>
		<path class="st67" d="M276.58,120.62c0.1,0.49-0.34,1-0.98,1.14c-0.65,0.14-1.25-0.15-1.36-0.64s0.34-1,0.98-1.14
			C275.87,119.84,276.48,120.12,276.58,120.62z"/>
	</g>
	<g>
		<path class="st66" d="M221.77,210.88c1.75,1.55,4.43,1.38,5.97-0.38c1.55-1.75,1.38-4.43-0.38-5.97
			c-1.75-1.55-4.43-1.38-5.97,0.38C219.85,206.66,220.02,209.34,221.77,210.88z"/>
		<path class="st50" d="M227.75,210.51c1.55-1.75,1.38-4.43-0.38-5.97c-0.45-0.39-0.96-0.68-1.49-0.85c0.49,0.99,1.48,2.75-1.2,4.39
			c-1.82,1.12-4.01,0.24-4.33-0.13c0.06,1.09,0.54,2.16,1.43,2.94C223.53,212.43,226.2,212.26,227.75,210.51z"/>
		<path class="st67" d="M224.4,205.47c0.1,0.49-0.34,1-0.98,1.14c-0.65,0.14-1.25-0.15-1.36-0.64c-0.1-0.49,0.34-1,0.98-1.14
			C223.69,204.69,224.29,204.98,224.4,205.47z"/>
	</g>
	<g>
		<path class="st66" d="M284.7,119.79c1.06,2.78,4.18,4.18,6.96,3.11c2.78-1.06,4.18-4.18,3.11-6.96c-1.06-2.78-4.18-4.18-6.96-3.11
			C285.03,113.89,283.64,117.01,284.7,119.79z"/>
		<path class="st50" d="M291.66,122.9c2.78-1.06,4.18-4.18,3.11-6.96c-0.27-0.71-0.68-1.33-1.18-1.84
			c-0.04,1.41,0.04,3.97-3.96,4.24c-2.71,0.18-4.66-2.11-4.81-2.71c-0.58,1.27-0.67,2.75-0.13,4.16
			C285.77,122.57,288.88,123.97,291.66,122.9z"/>
		<path class="st67" d="M290.87,115.24c-0.17,0.62-0.97,0.93-1.78,0.7c-0.81-0.23-1.33-0.91-1.15-1.53c0.17-0.62,0.97-0.93,1.78-0.7
			C290.53,113.94,291.04,114.63,290.87,115.24z"/>
	</g>
	<g>
		<g>
			<path class="st66" d="M235.68,82.45c-1,2.25,0.01,4.88,2.26,5.88c2.25,1,4.88-0.01,5.88-2.26c1-2.25-0.01-4.88-2.26-5.88
				C239.31,79.19,236.68,80.2,235.68,82.45z"/>
			<path class="st50" d="M237.94,88.33c2.25,1,4.88-0.01,5.88-2.26c0.26-0.57,0.38-1.17,0.38-1.76c-0.84,0.8-2.29,2.35-4.79,0.18
				c-1.69-1.47-1.5-3.95-1.23-4.39c-1.08,0.41-2,1.22-2.5,2.36C234.68,84.69,235.69,87.33,237.94,88.33z"/>
			<path class="st67" d="M241.94,83.38c-0.46,0.26-1.11-0.02-1.45-0.63c-0.34-0.61-0.24-1.31,0.22-1.57
				c0.46-0.26,1.11,0.02,1.45,0.63C242.5,82.42,242.4,83.12,241.94,83.38z"/>
		</g>
		<g>
			<path class="st66" d="M243.88,87.63c-1,2.25,0.01,4.88,2.26,5.88c2.25,1,4.88-0.01,5.88-2.26c1-2.25-0.01-4.88-2.26-5.88
				C247.51,84.37,244.88,85.38,243.88,87.63z"/>
			<path class="st50" d="M246.14,93.51c2.25,1,4.88-0.01,5.88-2.26c0.26-0.57,0.38-1.17,0.38-1.76c-0.84,0.8-2.29,2.35-4.79,0.18
				c-1.69-1.47-1.5-3.95-1.23-4.39c-1.08,0.41-2,1.22-2.5,2.36C242.88,89.88,243.89,92.51,246.14,93.51z"/>
			<path class="st67" d="M250.14,88.56c-0.46,0.26-1.11-0.02-1.45-0.63c-0.34-0.61-0.24-1.31,0.22-1.57
				c0.46-0.26,1.11,0.02,1.45,0.63C250.7,87.6,250.6,88.3,250.14,88.56z"/>
		</g>
		<g>
			<path class="st66" d="M253.29,90.85c-1,2.25,0.01,4.88,2.26,5.88c2.25,1,4.88-0.01,5.88-2.26c1-2.25-0.01-4.88-2.26-5.88
				C256.92,87.59,254.29,88.6,253.29,90.85z"/>
			<path class="st50" d="M255.55,96.73c2.25,1,4.88-0.01,5.88-2.26c0.26-0.57,0.38-1.17,0.38-1.76c-0.84,0.8-2.29,2.35-4.79,0.18
				c-1.69-1.47-1.5-3.95-1.23-4.39c-1.08,0.41-2,1.22-2.5,2.36C252.29,93.1,253.3,95.73,255.55,96.73z"/>
			<path class="st67" d="M259.55,91.78c-0.46,0.26-1.11-0.02-1.45-0.63c-0.34-0.61-0.24-1.31,0.22-1.57
				c0.46-0.26,1.11,0.02,1.45,0.63C260.11,90.82,260.01,91.52,259.55,91.78z"/>
		</g>
		<g>
			<path class="st66" d="M262.89,92.19c-1,2.25,0.01,4.88,2.26,5.88c2.25,1,4.88-0.01,5.88-2.26c1-2.25-0.01-4.88-2.26-5.88
				C266.52,88.93,263.89,89.94,262.89,92.19z"/>
			<path class="st50" d="M265.15,98.07c2.25,1,4.88-0.01,5.88-2.26c0.26-0.57,0.38-1.17,0.38-1.76c-0.84,0.8-2.29,2.35-4.79,0.18
				c-1.69-1.47-1.5-3.95-1.23-4.39c-1.08,0.41-2,1.22-2.5,2.36C261.89,94.44,262.91,97.07,265.15,98.07z"/>
			<path class="st67" d="M269.16,93.12c-0.46,0.26-1.11-0.02-1.45-0.63c-0.34-0.61-0.24-1.31,0.22-1.57
				c0.46-0.26,1.11,0.02,1.45,0.63C269.71,92.16,269.62,92.86,269.16,93.12z"/>
		</g>
		<g>
			<path class="st66" d="M272.61,92.75c-0.83,1.87,0.01,4.05,1.88,4.88c1.87,0.83,4.05-0.01,4.88-1.88
				c0.83-1.87-0.01-4.05-1.88-4.88C275.63,90.04,273.44,90.88,272.61,92.75z"/>
			<path class="st50" d="M274.49,97.63c1.87,0.83,4.05-0.01,4.88-1.88c0.21-0.48,0.31-0.97,0.32-1.47c-0.7,0.66-1.91,1.95-3.98,0.15
				c-1.41-1.22-1.25-3.28-1.02-3.65c-0.89,0.34-1.66,1.02-2.08,1.96C271.78,94.62,272.62,96.8,274.49,97.63z"/>
			<path class="st67" d="M277.81,93.52c-0.38,0.22-0.92-0.02-1.21-0.52c-0.28-0.5-0.2-1.09,0.18-1.3c0.38-0.22,0.92,0.02,1.21,0.52
				C278.28,92.72,278.2,93.3,277.81,93.52z"/>
		</g>
		<g>
			<path class="st66" d="M281.13,93.16c-0.83,1.87,0.01,4.05,1.88,4.88c1.87,0.83,4.05-0.01,4.88-1.88
				c0.83-1.87-0.01-4.05-1.88-4.88C284.15,90.45,281.96,91.29,281.13,93.16z"/>
			<path class="st50" d="M283.01,98.04c1.87,0.83,4.05-0.01,4.88-1.88c0.21-0.48,0.31-0.97,0.32-1.47c-0.7,0.66-1.91,1.95-3.98,0.15
				c-1.41-1.22-1.25-3.28-1.02-3.65c-0.89,0.34-1.66,1.02-2.08,1.96C280.3,95.03,281.14,97.21,283.01,98.04z"/>
			<path class="st67" d="M286.34,93.93c-0.38,0.22-0.92-0.02-1.21-0.52c-0.28-0.5-0.2-1.09,0.18-1.3c0.38-0.22,0.92,0.02,1.21,0.52
				C286.8,93.13,286.72,93.72,286.34,93.93z"/>
		</g>
		<g>
			<path class="st68" d="M293.31,98.22c0,0-1.85-4.09-10.44-2.91c-8.58,1.18-29.37,2.14-44.1-10.74c0,0-2.71-1.96-4.88-1.81
				c0,0,3.68-4.38,1.56-7.63c0,0-1.16,5.17-5.1,6.1c0,0,3.18-4.4-3.85-8.45c0,0,3.26,4.76,0.19,9.24c0,0-5.12-1.47-10.45,2.58
				c0,0-0.48,1.37,1.04,2.13c0,0,3.64-3.38,8.67-2.49c0,0-2.68,1.33-3.12,5.99c0,0,1.82-4.18,5.38-4.36c0,0,3.03,1.51-0.68,5.69
				c0,0,4.13,0.23,5.03-5.3c0,0,8.1,12.55,24.35,18.11c16.25,5.56,20.83-3.44,30.29-3.18C294.62,101.4,293.31,98.22,293.31,98.22z"
				/>
			<g class="st15">
				<path d="M217.29,86.74c0,0,3.64-3.38,8.67-2.49c0,0-2.68,1.33-3.12,5.99c0,0,0.28-0.63,0.82-1.41c-0.07-0.39,0-1.42,1.87-3.12
					c2.46-2.25,1.31-1.89,1.31-1.89s-0.75-0.71-4.26-0.46c-2.91,0.21-5.25,2.2-5.97,2.88C216.77,86.41,216.99,86.59,217.29,86.74z"
					/>
				<path d="M227.02,86.07l-0.04,0.04c0.39-0.13,0.8-0.21,1.24-0.23c0,0,3.03,1.51-0.68,5.69c0,0,0.08,0,0.21,0
					c2.45-1.29,3.01-3.62,2.32-5.19C229.33,84.71,227.02,86.07,227.02,86.07z"/>
			</g>
			<path class="st15" d="M287.21,101.2c7.41,0.2,6.1-2.98,6.1-2.98s-0.11-0.24-0.39-0.58c0,3.15-4.37,1.61-9.53,2.18
				c-5.2,0.58-3.84,1.21-10.67,3.35c-6.82,2.14-6.64-0.98-13.4-0.65c-6.76,0.33-4.73-2.63-11.2-4.4c-6.47-1.77-8.13-6.74-8.13-6.74
				c-2.67-0.12-4.7-1.75-5.95-3.14c3,3.76,10.62,11.93,22.88,16.13C273.17,109.94,277.75,100.94,287.21,101.2z"/>
		</g>
	</g>
	<g>
		<g>
			<path class="st69" d="M324.07,148.99c0,0-12.86,13.35-30.49,7.09c0,0,4.63,13.65,19.8,15.77c15.18,2.12,17.3-18.94,17.3-18.94
				S327.47,152.75,324.07,148.99z"/>
			<path class="st70" d="M324.98,148.03c0,0,2.74,2.65,6.72,3.42c0,0-0.09,1.79-1.27,3.88c0,0-4.76-1.03-8.43-4.94L324.98,148.03z"
				/>
		</g>
		<path class="st71" d="M313.39,171.85c11.98,1.67,15.83-11.09,16.92-16.54c0.07,0.02,0.12,0.03,0.12,0.03
			c1.18-2.09,1.27-3.88,1.27-3.88c-0.68-0.13-1.32-0.32-1.92-0.54c-1.46,5.76-4.79,12.47-12.36,15.04
			c-14.34,4.86-23.83-9.87-23.83-9.87S298.21,169.73,313.39,171.85z"/>
		<path class="st67" d="M324.98,148.03l-2.99,2.36c0.08,0.08,0.16,0.15,0.23,0.23c-3.6,2.91-12.21,8.52-23.36,6.79
			c3.89,3.14,11.04,5.47,18.01,3.55c7.32-2.02,9.91-8.66,10.63-11.11C325.93,148.95,324.98,148.03,324.98,148.03z"/>
	</g>
	<g>
		<g>
			<g>
				<path class="st72" d="M436.28,158.3c3.21-4.32,2.79-10.21-0.71-14.03c1.73-3.19,0.91-7.24-2.09-9.47c-0.58-0.43-1.2-0.76-1.84-1
					c1.46-4.09,0.17-8.81-3.49-11.54c-3.05-2.27-6.95-2.56-10.18-1.12c0.39-2.62-0.63-5.36-2.91-7.05
					c-3.29-2.45-7.93-1.77-10.38,1.52c-0.3,0.41-0.56,0.84-0.77,1.28c-0.37-0.45-0.8-0.87-1.29-1.24
					c-3.29-2.45-7.93-1.77-10.38,1.52c-2.02,2.72-1.9,6.36,0.05,8.92c-3.13,0.19-6.16,1.71-8.18,4.42
					c-3.64,4.89-2.63,11.8,2.26,15.44c1.15,0.86,2.41,1.44,3.72,1.8c-0.78,3.45,0.47,7.18,3.49,9.43c1.86,1.39,4.07,1.96,6.22,1.79
					c-0.99,3.56,0.23,7.52,3.37,9.86c3.82,2.85,9.12,2.29,12.28-1.14c0.41,0.54,0.9,1.03,1.46,1.45c3.29,2.45,7.93,1.77,10.38-1.52
					c1.11-1.49,1.57-3.26,1.44-4.97C431.64,162.31,434.4,160.83,436.28,158.3z"/>
				<path class="st73" d="M389.68,137.59c0,0,0.99,13.82-15.18,25.23c0,0-2.22,7.82,7.5,12.35c0,0,16.41-17.72,35.59-13.81
					c0,0,2.25-1.88,0.44-4.91c0,0-9.02-1.98-18.55,1.75c0,0-3.74,0.94-1.37-2.71c2.37-3.64,13.04-10.25,13.04-10.25
					s-0.61-2.82-3.27-3.79c0,0-8,7.57-10.98,9.75c-2.98,2.18-4.66,1.94-5.02-0.52c-0.36-2.47,2.33-9.94,3.54-12.25
					C395.43,138.43,392.07,136.04,389.68,137.59z"/>
			</g>
			<path class="st15" d="M382,175.17c0,0,16.41-17.72,35.59-13.81c0,0,1.05-0.88,1.14-2.4c-2.9-0.73-22.61,0.2-28.46,5.97
				c-5.13,5.05-11.02,6.11-13.17,6.83C378.24,172.97,379.82,174.15,382,175.17z"/>
			<path class="st74" d="M438.44,151.1c-0.14-2.49-1.12-4.92-2.87-6.83c1.73-3.19,0.91-7.24-2.09-9.47c-0.58-0.43-1.2-0.76-1.84-1
				c1.46-4.09,0.17-8.81-3.49-11.54c-3.05-2.27-6.95-2.56-10.18-1.12c0.39-2.62-0.63-5.36-2.91-7.05
				c-3.29-2.45-7.93-1.77-10.38,1.52c-0.3,0.41-0.56,0.84-0.77,1.28c-0.37-0.45-0.8-0.87-1.29-1.24c-3.29-2.45-7.93-1.77-10.38,1.52
				c-2.02,2.72-1.9,6.36,0.05,8.92c-1.98,0.12-3.93,0.78-5.6,1.93c-0.63,2.07-0.79,5.08,2.79,6.62c5.78,2.49,9.15-3.58,9.15-3.58
				s0.09,8.47,7.17,8.32c6.47-0.13,8.13-3.76,8.37-4.38c-0.26,0.72-1.78,5.58,2.79,8.75c4.95,3.43,8.87,1.31,8.87,1.31
				s0.3,7.92,6.79,8.49C435.59,153.82,437.37,152.56,438.44,151.1z"/>
		</g>
		<path class="st16" d="M414.87,121.75c-0.87,1.18-2.79,1.24-4.3,0.14c-1.51-1.1-2.03-2.96-1.16-4.14c0.87-1.18,2.79-1.24,4.3-0.14
			C415.22,118.72,415.74,120.57,414.87,121.75z"/>
		<path class="st16" d="M434.65,140.55c-0.87,1.18-2.79,1.24-4.3,0.14c-1.51-1.1-2.03-2.96-1.16-4.14c0.87-1.18,2.79-1.24,4.3-0.14
			C434.99,137.52,435.51,139.37,434.65,140.55z"/>
		<path class="st16" d="M400.42,120.74c-0.16,1.46-1.79,2.47-3.65,2.27c-1.86-0.2-3.23-1.55-3.08-3c0.16-1.46,1.79-2.47,3.65-2.27
			C399.21,117.94,400.58,119.29,400.42,120.74z"/>
		<path class="st16" d="M429.48,129.97c-1.33,1.82-4.3,1.92-6.62,0.21c-2.32-1.7-3.12-4.56-1.79-6.38c1.33-1.82,4.3-1.92,6.62-0.21
			C430.02,125.29,430.82,128.15,429.48,129.97z"/>
		<path class="st20" d="M391.63,138.61c0,0,1.24-0.45,0.22,3.11c-1.02,3.56-0.77,9.41-4.75,14.21c-3.97,4.8-7.67,11.39-10.86,10.18
			c-3.2-1.21,2.51-4.97,3.34-5.49c0.84-0.52,6.25-6.91,8.26-10.95C389.73,145.84,390.34,137.9,391.63,138.61z"/>
	</g>
	<g>
		<g>
			<path class="st45" d="M394.08,303.27c0,0-7.58,12.55-19.9,14.52c-12.32,1.98-21.94,12.67-30.35,15.98
				c-8.41,3.31-14.97,0.44-15.41,3.12c-0.44,2.69,15.62,9.05,27.38,6.29c11.76-2.76,34.14-11.36,41.01-22.92
				c6.86-11.56,6.2-18.43,4.34-20.53C399.28,297.65,394.35,300.83,394.08,303.27z"/>
			<path class="st75" d="M390.98,301.59c0,0,3,4.42,5.82,2.34c2.83-2.09-0.56,1.29,1.23,4.27c0,0-0.04-2.28,1.52-3.4
				c1.56-1.12,0.93-1.02,2.51,0.69c1.58,1.71,4.14,2.06,5.67,0.73c0,0-3.75-0.27-4.46-2.66c-0.71-2.39,1.14-4.43-1.94-6.66
				c0,0,2.18-6.12-2.77-9.15c0,0-1.22-0.13-0.65,1.41c0,0,3.84,2.22,2.54,7.66c0,0-2.69-0.44-4.47,2.02
				C394.2,301.29,393.04,302.9,390.98,301.59z"/>
		</g>
		<g class="st46">
			<path d="M355.8,343.19c11.76-2.76,34.14-11.36,41.01-22.92c3.69-6.21,5.2-11.06,5.52-14.55c1.59,1.48,3.96,1.75,5.41,0.48
				c0,0-3.75-0.27-4.46-2.66c-0.71-2.39,1.14-4.43-1.94-6.66c1.48,3.32-0.35,7.21-0.35,7.21s1.12-2.66-4.99,10.92
				c-6.11,13.58-25.26,21.98-40.82,25.79c-15.56,3.81-26.76-3.9-26.76-3.9C327.98,339.59,344.04,345.95,355.8,343.19z"/>
			<path d="M398.57,287.73c0,0-0.44-0.05-0.67,0.26c4.35,2.09,3.44,8.89,3.44,8.89S403.52,290.75,398.57,287.73z"/>
		</g>
		<path class="st16" d="M352.34,331.77c0,0,6.57-6.5,12.86-9.16c6.29-2.67,9.76-3.02,10.29-1.82c0.53,1.19-5.69,3.98-10.64,7.53
			C359.91,331.87,348.71,336.72,352.34,331.77z"/>
		<path class="st16" d="M380.35,317.95c0,0-2.49,3.46,1.47,2.81c3.97-0.64,6.62-4.69,9.63-8.12c3.01-3.43,3.57-4.75,3.19-5.7
			c-0.38-0.95-4.36,4.55-7.81,7.22C383.38,316.85,383.13,315.83,380.35,317.95z"/>
		<path class="st16" d="M395.08,301.69c0,0,0.62,1.64,3.05-0.78c2.43-2.42,2.92-3.87,1.38-3.64
			C397.98,297.49,394.67,301.26,395.08,301.69z"/>
	</g>
	<g>
		<path class="st76" d="M305.96,305.33c3.5-23.58-18.39-26.7-20.5-26.95c-1.43-1.58-16.69-17.58-33.85-1.03
			c-17.75,17.12-7.58,45.96,8.29,50.67C272.96,338.21,302.34,329.73,305.96,305.33z"/>
		<path class="st77" d="M304.53,305.4c3.23-22.42-17.77-25.5-19.8-25.75c-1.38-1.51-16.09-16.81-32.46-1.15
			c-16.93,16.2-7.03,43.69,8.21,48.26C273.06,336.51,301.18,328.59,304.53,305.4z"/>
		<g>
			<path class="st78" d="M262.54,311.82c0,0-4.62-5.96,2.66-15.25c7.28-9.3,9.59-17.82,0.01-20.2c-9.58-2.37-19.65,13.16-18.73,25.9
				c0.92,12.75,9.13,19.65,14.36,16.09C264.67,315.74,262.54,311.82,262.54,311.82z"/>
			<g>
				<g>
					<path class="st77" d="M260.01,296.55c0,0,3.26-5.93,0.73-8.27c-2.54-2.34-7.82,0.88-7.89,9.88c-0.06,9,3.72,12.75,6.1,11.14
						S257.33,303.17,260.01,296.55z"/>
					<g>
						<path class="st79" d="M262.7,291.03c0,0,0.85,1.98,2.56,0.67C266.97,290.39,264.56,288.63,262.7,291.03z"/>
						<path class="st79" d="M261.84,287.87c0,0,1.69,1.07,2.75-0.93C265.65,284.94,262.55,284.94,261.84,287.87z"/>
						<path class="st79" d="M253.83,290.09c0,0,0.31-2.39-1.6-2.21C250.32,288.06,251.29,291.21,253.83,290.09z"/>
						<path class="st79" d="M252.33,294.04c0,0-0.63-2.12-2.43-1.01C248.11,294.14,250.29,296.24,252.33,294.04z"/>
						<path class="st79" d="M251.92,298.01c0,0-1.35-1.54-2.75,0.21C247.76,299.96,250.64,300.79,251.92,298.01z"/>
						<path class="st79" d="M252.27,302.58c0,0-1.35-1.54-2.75,0.21C248.11,304.53,250.99,305.36,252.27,302.58z"/>
						<path class="st79" d="M253.21,306.38c0,0-1.79-0.89-2.71,1.17C249.57,309.62,252.7,309.33,253.21,306.38z"/>
						<path class="st79" d="M255.02,309.56c0,0-2.01-0.32-2.49,1.85C252.04,313.58,255.15,312.44,255.02,309.56z"/>
						<path class="st79" d="M258.33,310.79c0,0-2.01,1.11-1.33,2.98C257.68,315.64,259.93,312.75,258.33,310.79z"/>
						<path class="st79" d="M259.69,286.44c0,0,2.02-1.07,1.38-2.96C260.41,281.6,258.12,284.44,259.69,286.44z"/>
						<path class="st79" d="M256.78,287.05c0,0,1.33-2.09-0.22-3.04C255,283.06,254.31,286.61,256.78,287.05z"/>
					</g>
				</g>
			</g>
			<path class="st78" d="M271.44,316.41c0,0,7.53,0.3,10.87-11.03c3.34-11.32,8.93-18.16,16.43-11.74c7.5,6.42,0.71,23.64-10.2,30.3
				c-10.91,6.66-21.3,3.99-21.43-2.34C267.01,316.94,271.44,316.41,271.44,316.41z"/>
			<g>
				<g>
					<path class="st77" d="M285.34,309.59c0,0,2.93-6.1,6.31-5.4c3.38,0.71,3.83,6.88-3.46,12.16c-7.29,5.28-12.54,4.39-12.62,1.51
						C275.5,314.98,281.51,315.62,285.34,309.59z"/>
					<g>
						<path class="st79" d="M288.27,304.19c0,0-2.11,0.46-2.04-1.69C286.31,300.34,289.15,301.29,288.27,304.19z"/>
						<path class="st79" d="M291.34,303.06c0,0-1.85-0.76-0.84-2.78C291.52,298.25,293.31,300.77,291.34,303.06z"/>
						<path class="st79" d="M294.19,310.86c0,0,1.76-1.64,2.73,0.02C297.88,312.55,294.76,313.58,294.19,310.86z"/>
						<path class="st79" d="M291.84,314.38c0,0,2.09-0.72,2.23,1.39C294.22,317.88,291.25,317.32,291.84,314.38z"/>
						<path class="st79" d="M288.85,317.02c0,0,2.04,0.21,1.43,2.36C289.68,321.54,287.33,319.68,288.85,317.02z"/>
						<path class="st79" d="M284.93,319.39c0,0,2.04,0.21,1.43,2.36S283.41,322.05,284.93,319.39z"/>
						<path class="st79" d="M281.29,320.84c0,0,1.76,0.94,0.62,2.89C280.77,325.68,279.19,322.97,281.29,320.84z"/>
						<path class="st79" d="M277.65,321.21c0,0,1.43,1.45-0.06,3.1C276.11,325.97,275.24,322.77,277.65,321.21z"/>
						<path class="st79" d="M274.73,319.24c0,0,0.27,2.28-1.65,2.81C271.16,322.58,272.2,319.07,274.73,319.24z"/>
						<path class="st79" d="M293.75,303.98c0,0-0.31-2.27,1.61-2.84C297.28,300.57,296.29,304.1,293.75,303.98z"/>
						<path class="st79" d="M294.95,306.7c0,0,0.92-2.3,2.6-1.59C299.23,305.83,296.74,308.45,294.95,306.7z"/>
					</g>
				</g>
			</g>
		</g>
		<path class="st79" d="M290.77,281.18c-2.97-1.1-5.41-1.45-6.04-1.53c-0.39-0.42-1.83-1.94-4.06-3.54
			c-0.07,1.94-0.46,4.42-1.73,7.08c-2.78,5.8-2.93,9.33-0.8,10.43c2.03,1.05,4.75-1.17,7.85-6.8
			C287.44,284.18,289.25,282.38,290.77,281.18z"/>
	</g>
	<g>
		<path class="st45" d="M272.23,340.83c-0.85,3.24-4.17,5.17-7.41,4.31c-3.24-0.85-5.17-4.17-4.31-7.41
			c0.85-3.24,4.17-5.17,7.41-4.31C271.16,334.28,273.09,337.6,272.23,340.83z"/>
		<path class="st46" d="M264.82,345.14c3.24,0.85,6.55-1.07,7.41-4.31c0.46-1.76,0.1-3.54-0.84-4.93c0.54,2.19-0.31,6.73-5.23,6.43
			c-5.07-0.31-5.4-4.25-5.39-5.32c-0.1,0.24-0.18,0.48-0.25,0.73C259.66,340.97,261.59,344.29,264.82,345.14z"/>
		<path class="st20" d="M267.72,335.69c0.12,0.79-0.77,1.58-1.99,1.77c-1.22,0.19-2.31-0.29-2.43-1.08
			c-0.12-0.79,0.77-1.58,1.99-1.77C266.5,334.42,267.59,334.91,267.72,335.69z"/>
	</g>
	<g>
		<path class="st45" d="M304.96,344.57c-0.91,3.44-4.43,5.49-7.86,4.58c-3.44-0.91-5.49-4.43-4.58-7.86
			c0.91-3.44,4.43-5.49,7.86-4.58C303.81,337.62,305.86,341.14,304.96,344.57z"/>
		<path class="st46" d="M297.09,349.15c3.44,0.91,6.96-1.14,7.86-4.58c0.49-1.87,0.11-3.76-0.89-5.24c0.58,2.32-0.32,7.15-5.56,6.83
			c-5.38-0.33-5.73-4.51-5.73-5.65c-0.1,0.25-0.19,0.51-0.27,0.78C291.61,344.73,293.66,348.25,297.09,349.15z"/>
		<path class="st20" d="M300.16,339.12c0.13,0.84-0.81,1.68-2.11,1.88c-1.3,0.2-2.45-0.31-2.58-1.15c-0.13-0.84,0.81-1.68,2.11-1.88
			S300.03,338.28,300.16,339.12z"/>
	</g>
	<g>
		<path class="st45" d="M286.7,341.43c-0.67,2.55-3.29,4.07-5.83,3.4c-2.55-0.67-4.07-3.29-3.4-5.83s3.29-4.07,5.83-3.4
			C285.86,336.27,287.38,338.88,286.7,341.43z"/>
		<path class="st46" d="M280.87,344.83c2.55,0.67,5.16-0.85,5.83-3.4c0.37-1.39,0.08-2.79-0.66-3.89c0.43,1.72-0.24,5.3-4.12,5.07
			c-3.99-0.24-4.25-3.35-4.25-4.19c-0.08,0.19-0.14,0.38-0.2,0.58C276.8,341.55,278.32,344.16,280.87,344.83z"/>
		<path class="st20" d="M283.14,337.39c0.1,0.62-0.6,1.25-1.56,1.4c-0.96,0.15-1.82-0.23-1.92-0.85c-0.1-0.62,0.6-1.25,1.56-1.4
			C282.19,336.38,283.05,336.77,283.14,337.39z"/>
	</g>
	<g>
		<g>
			<path class="st56" d="M219.12,307.73c-0.36-0.06-0.71-0.25-0.98-0.54c-3.84-4.19-7.85-8.34-11.92-12.33l-0.29-0.29
				c-4.88-4.77-10.42-10.19-11.8-17.36c-0.48-2.47-0.24-4.55,0.71-6.17c1.54-2.62,4.92-3.97,9.05-3.6c0.95,0.09,1.67,0.93,1.58,1.89
				c-0.09,0.96-0.93,1.67-1.89,1.58c-2.12-0.19-4.74,0.2-5.72,1.88c-0.51,0.87-0.61,2.13-0.3,3.74c1.17,6.11,6.07,10.9,10.81,15.53
				l0.29,0.29c4.12,4.03,8.18,8.22,12.06,12.46c0.65,0.71,0.6,1.82-0.11,2.47C220.19,307.68,219.63,307.82,219.12,307.73z"/>
		</g>
		<path class="st56" d="M217.71,299.62c-0.53,2.99-3.35,5-6.28,4.48c-2.94-0.52-4.89-3.37-4.36-6.37c0.53-2.99,3.35-5,6.28-4.48
			C216.29,293.78,218.24,296.63,217.71,299.62z"/>
		<path class="st56" d="M219.55,301.45c-0.57,3.2-3.58,5.35-6.72,4.79c-3.14-0.56-5.23-3.61-4.66-6.81c0.57-3.2,3.58-5.35,6.72-4.79
			C218.03,295.2,220.12,298.25,219.55,301.45z"/>
		<path class="st80" d="M312.76,308.07c0.89-0.73,2.03,8.57-1.41,13.61c-11.28,16.53-38.35,16.08-52.47,13.39
			c-39.73-7.56-55.96-26.69-49.77-35.05c7.76-10.48,15.31-1.29,23.91,5.75c7.94,6.5,17.16,20.91,57.32,18.53
			c7.36-0.44,13.01-1.62,18.07-6.81C311.88,313.92,311.58,309.03,312.76,308.07z"/>
		<path class="st81" d="M311.34,317c1.32-1.93,1.96-4.49,2.21-6.86c-0.17-1.44-0.49-2.31-0.79-2.07c-1.17,0.96-0.87,5.86-4.34,9.41
			c-5.06,5.19-10.71,6.37-18.07,6.81c-40.16,2.39-49.38-12.03-57.32-18.53c-8.6-7.04-16.15-16.23-23.91-5.75
			c-0.41,0.55-0.72,1.15-0.93,1.79c2.57,9.4,19.28,22.61,50.69,28.58C272.99,333.08,300.05,333.53,311.34,317z"/>
		<path class="st82" d="M236.17,315.09c-0.92,1.14-5.37-0.91-9.94-4.59c-4.57-3.68-7.52-7.59-6.6-8.73
			c0.92-1.14,5.37,0.91,9.94,4.59C234.13,310.04,237.09,313.95,236.17,315.09z"/>
		<path class="st82" d="M249.62,321.91c-0.27,0.55-2.54-0.03-5.06-1.29c-2.52-1.26-4.35-2.72-4.08-3.26
			c0.27-0.55,2.54,0.03,5.06,1.29C248.07,319.9,249.89,321.36,249.62,321.91z"/>
	</g>
	<g>
		<path class="st45" d="M260.84,334.81c-0.74,2.81-3.62,4.49-6.43,3.75c-2.81-0.74-4.49-3.62-3.74-6.43
			c0.74-2.81,3.62-4.49,6.43-3.74C259.9,329.12,261.58,332,260.84,334.81z"/>
		<path class="st46" d="M254.41,338.55c2.81,0.74,5.69-0.94,6.43-3.74c0.4-1.53,0.09-3.07-0.73-4.28c0.47,1.9-0.27,5.84-4.54,5.58
			c-4.4-0.27-4.69-3.69-4.68-4.62c-0.08,0.21-0.16,0.42-0.22,0.64C249.92,334.93,251.6,337.81,254.41,338.55z"/>
		<path class="st20" d="M256.91,330.34c0.11,0.68-0.66,1.37-1.72,1.54c-1.06,0.17-2.01-0.25-2.11-0.94
			c-0.11-0.68,0.66-1.37,1.72-1.54C255.86,329.24,256.81,329.66,256.91,330.34z"/>
	</g>
	<g>
		<path class="st45" d="M420.57,294.25c-0.67,2.55-3.29,4.07-5.83,3.4c-2.55-0.67-4.07-3.29-3.4-5.83c0.67-2.55,3.29-4.07,5.83-3.4
			C419.72,289.09,421.25,291.7,420.57,294.25z"/>
		<path class="st46" d="M414.74,297.65c2.55,0.67,5.16-0.85,5.83-3.4c0.37-1.39,0.08-2.79-0.66-3.89c0.43,1.72-0.24,5.3-4.12,5.07
			c-3.99-0.24-4.25-3.35-4.25-4.19c-0.08,0.19-0.14,0.38-0.2,0.58C410.67,294.36,412.19,296.98,414.74,297.65z"/>
		<path class="st20" d="M417.01,290.2c0.1,0.62-0.6,1.25-1.56,1.4c-0.96,0.15-1.82-0.23-1.92-0.85c-0.1-0.62,0.6-1.25,1.56-1.4
			C416.06,289.2,416.92,289.58,417.01,290.2z"/>
	</g>
	<g>
		<path class="st83" d="M435.57,238.57H187.29c0,0-14.62,121.9,124.14,121.9C450.2,360.47,435.57,238.57,435.57,238.57z"/>
		<path class="st84" d="M398.86,238.57c0.86,8.47,3.59,54.03-31.7,89.64c-31.92,32.21-77.7,30.45-93.39,28.73
			c11.1,2.26,23.58,3.53,37.66,3.53c138.76,0,124.14-121.9,124.14-121.9H398.86z"/>
		<path class="st85" d="M435.57,238.57H187.29c0,0-14.62,121.9,124.14,121.9C450.2,360.47,435.57,238.57,435.57,238.57z"/>
	</g>
	<g>
		<g>
			<path class="st34" d="M356.95,116.15c0,0,39.46-30.51,42.39-34.61c5.19-7.25-38.15,23.11-38.15,23.11L356.95,116.15z"/>
			<path class="st35" d="M367.31,110.89c0,0,21.13-9.97,20.64-15.63c0,0-15.62,11.47-39.32,13.45l-6.97,10.15l28.63-9.02
				L367.31,110.89z"/>
			<path class="st36" d="M353,116.71c0,0,19.37-16.65,25.27-29.61l0,0c-7.06-0.85-31.91,28.83-31.91,28.83L353,116.71z"/>
			<path class="st37" d="M349.02,116.58c0,0,12.15-7.44,22.45-29.65c0,0,3.6-6.81,2.73-7.48c-4.15-3.18-38.56,42.04-38.56,42.04
				L349.02,116.58z"/>
			<path class="st38" d="M384.82,107.69c-16.58,8.9-36.23,16.01-43.15,17.19c-6.92,1.18-15.32,5.47-15.32,5.47l0.26-10.22
				c0,0,6.39-5.07,11.24-9.42c17.08-15.3,28.53-32.34,33.99-47.34c0,0,3.58,4.54-5.38,20.94c0,0-8.92,17.17-28.82,35.1
				c0,0,45.01-10.77,64.03-23.01C401.67,96.4,407.11,95.72,384.82,107.69z"/>
		</g>
		<g>
			<path class="st86" d="M305.02,133.98c0,0-4.93-2.16-6.32-0.77c-1.39,1.38,7,2.49,7,2.49L305.02,133.98z"/>
			<path class="st86" d="M305.8,136.02c0,0-5.84,0.34-6.5,2.06c-0.66,1.72,8.01-0.94,8.01-0.94L305.8,136.02z"/>
			<path class="st86" d="M307.92,139.54c0,0-1.55,5.41-3.44,5.68c-1.89,0.27,2.61-7.32,2.61-7.32L307.92,139.54z"/>
			<path class="st86" d="M306.71,138.24c0,0-3.68,4.75-5.4,4.31c-1.72-0.44,5.42-6.24,5.42-6.24L306.71,138.24z"/>
		</g>
		<path class="st87" d="M328.57,118.51c0,0-5.06,3.29-11.54,7.08c-6.48,3.78-14,4.97-11.18,11.65c2.82,6.68,20.5-6.89,20.5-6.89
			l5.63-2.26c0,0-0.44-1.68-3.23-1.61c-2.79,0.07-0.42-3,1.07-5.06C331.3,119.35,328.57,118.51,328.57,118.51z"/>
	</g>
	<g>
		<path class="st88" d="M423.82,77.47c0,0,1.25-5.84-2.29-7.46c-3.54-1.62-5.44-1.2-7.69,0.62c-2.26,1.82-2.83,7.12,0.67,9.14
			C418,81.79,422.92,78.19,423.82,77.47z"/>
		<g class="st89">
			<path class="st90" d="M420.58,71.39c-2.39-1.51-5.16-1.21-6.96,1.02c-0.68,0.84,0.59,1.94,1.28,1.09
				c1.36-1.69,3.18-1.73,4.95-0.61C420.77,73.49,421.49,71.97,420.58,71.39L420.58,71.39z"/>
		</g>
	</g>
	<g>
		<path class="st88" d="M190.67,159.93c0,0,1.25-5.84-2.29-7.46c-3.54-1.62-5.44-1.2-7.69,0.62c-2.26,1.82-2.83,7.12,0.67,9.14
			C184.85,164.25,189.77,160.66,190.67,159.93z"/>
		<g class="st89">
			<path class="st90" d="M187.44,153.86c-2.39-1.51-5.16-1.21-6.96,1.02c-0.68,0.84,0.59,1.94,1.28,1.09
				c1.36-1.69,3.18-1.73,4.95-0.61C187.62,155.95,188.34,154.43,187.44,153.86L187.44,153.86z"/>
		</g>
	</g>
	<g>
		<path class="st88" d="M284.4,165.34c0,0-1.8-4.14-4.69-3.58c-2.88,0.56-3.87,1.65-4.46,3.76s1.39,5.61,4.43,5.32
			C282.72,170.55,284.17,166.18,284.4,165.34z"/>
		<g class="st89">
			<path class="st90" d="M279.75,163.03c-2.13,0.12-3.7,1.52-3.82,3.69c-0.05,0.81,1.22,0.93,1.26,0.11
				c0.09-1.64,1.19-2.46,2.77-2.55C280.78,164.24,280.55,162.99,279.75,163.03L279.75,163.03z"/>
		</g>
	</g>
	<g>
		<path class="st88" d="M226.68,176.18c0,0,2.39-3.83,0.29-5.89c-2.1-2.06-3.55-2.25-5.62-1.54c-2.07,0.71-3.83,4.33-1.87,6.66
			C221.43,177.75,225.85,176.46,226.68,176.18z"/>
		<g class="st89">
			<path class="st90" d="M225.94,171.03c-1.31-1.69-3.35-2.19-5.2-1.06c-0.7,0.42-0.08,1.53,0.63,1.1c1.4-0.85,2.7-0.41,3.67,0.84
				C225.53,172.56,226.43,171.67,225.94,171.03L225.94,171.03z"/>
		</g>
	</g>
	<g>
		<path class="st88" d="M447.3,168.9c0,0-1.8-4.14-4.69-3.58c-2.88,0.56-3.87,1.65-4.46,3.76c-0.59,2.11,1.39,5.61,4.43,5.32
			C445.62,174.12,447.07,169.75,447.3,168.9z"/>
		<g class="st89">
			<path class="st90" d="M442.64,166.6c-2.13,0.12-3.7,1.52-3.82,3.69c-0.05,0.81,1.22,0.93,1.26,0.11
				c0.09-1.64,1.19-2.46,2.77-2.55C443.67,167.8,443.45,166.55,442.64,166.6L442.64,166.6z"/>
		</g>
	</g>
	<g>
		<path class="st91" d="M319.17,34.76c-6.36-2.93-6.72-8.89-6.72-8.89c-2.96-1.27-5.48,2.04-6.12,2.6
			c-1.06-0.52-4.65-0.02-5.82,1.94c0,0,3.47,5.87,0.67,12.29s-14.44,20.44-7.95,32.43c6.44,11.9,20.53,16.61,35.23,11.39l0.01,0.02
			c0.05-0.02,0.1-0.05,0.15-0.07c0.05-0.02,0.11-0.03,0.16-0.05l-0.01-0.02c15.6-6.79,21.54-19.36,18.44-32.53
			C344.09,40.58,325.54,37.69,319.17,34.76z"/>
		<path class="st92" d="M318.76,36.69c-6.18-2.94-7.32-9.96-7.32-9.96c-1.83-0.51-3.91,2.05-4.52,2.61c-0.83,0-3.94-0.17-4.97,1.44
			c0,0,3.99,5.08,1.33,11.38c-2.66,6.31-14.91,19.93-8.54,31.8c6.33,11.78,18.78,15.6,33.25,11.25l0.01,0.02
			c0.05-0.02,0.1-0.05,0.15-0.07c0.05-0.02,0.11-0.03,0.16-0.05l-0.01-0.02c13.7-6.37,20.47-17.5,17.37-30.51
			C342.53,41.48,324.94,39.64,318.76,36.69z"/>
		<g>
			<path class="st91" d="M329.07,86.03l-1.39,0.65l-0.17-0.13c-0.19-0.14-5.02-4.24-9.18-11.2c-3.84-6.41-7.99-17.11-5.95-31.67
				l0.11-0.77l0.66,0.42c0.19,0.12,4.7,3.04,8.96,9.71c3.92,6.13,8.58,17.35,7.32,32.96L329.07,86.03z M327.7,84.99l0.52-0.09
				c1.13-15.12-3.15-25.36-6.96-31.32c-3.21-5.01-6.61-7.88-8-8.93c-1.73,13.85,2.24,24.04,5.93,30.19
				C322.82,80.9,326.85,84.3,327.7,84.99z"/>
		</g>
		<g>
			<path class="st91" d="M330.35,84.7l-2.67,1.99c-0.21,0.03-4.58,0.3-10.47-1.25c-5.46-1.44-12.73-5.09-16.34-14.26
				c-6.39-16.22,0.41-26.74,0.68-27.15l0.11,1.34l-0.42-0.27l0.54-0.45c-0.06,0.1-6.18,10.44,0.02,26.16
				c5.07,12.85,17.65,14.59,23.4,14.68c-4.61-1.74-13.44-6.53-17.13-18.52c-5.03-16.32-1.7-37.49-1.67-37.7l0.99,0.16
				c-0.03,0.21-3.32,21.15,1.63,37.25c4.9,15.93,19.36,19.32,19.51,19.35L330.35,84.7z"/>
		</g>
		<g>
			<path class="st91" d="M326.17,87.02l3.07-0.93c0.17-0.12,3.62-2.82,6.99-7.89c3.12-4.71,6.13-12.26,2.73-21.52
				c-6.01-16.37-14.82-18.81-15.29-18.93l-2.88-0.45l0.56,0.14l1.24,0.6c0.11,0.03,9.61,3.13,15.43,18.99
				c4.76,12.97-3.49,22.63-7.73,26.52c2.29-4.36,5.7-13.81,0.49-25.22c-7.09-15.54-23.65-29.14-23.81-29.28l-0.63,0.78
				c0.16,0.13,16.54,13.6,23.54,28.92c6.92,15.16-1.62,27.31-1.71,27.42L326.17,87.02z"/>
		</g>
	</g>
	<path class="st51" d="M333.03,100.29c0,0.56-0.46,1.02-1.02,1.02c-0.56,0-1.02-0.46-1.02-1.02c0-0.56,0.46-1.02,1.02-1.02
		C332.57,99.27,333.03,99.72,333.03,100.29z"/>
	<path class="st51" d="M336.08,26.98c0,0.56-0.46,1.02-1.02,1.02c-0.56,0-1.02-0.46-1.02-1.02s0.46-1.02,1.02-1.02
		C335.63,25.97,336.08,26.42,336.08,26.98z"/>
	<path class="st51" d="M409.64,87.94c0,0.91-0.74,1.65-1.65,1.65c-0.91,0-1.65-0.74-1.65-1.65c0-0.91,0.74-1.65,1.65-1.65
		C408.9,86.29,409.64,87.03,409.64,87.94z"/>
	<path class="st51" d="M162.11,147.25c0,0.91-0.74,1.65-1.65,1.65s-1.65-0.74-1.65-1.65s0.74-1.65,1.65-1.65
		S162.11,146.33,162.11,147.25z"/>
	<path class="st93" d="M440.69,117.59c0,0.91-0.74,1.65-1.65,1.65c-0.91,0-1.65-0.74-1.65-1.65c0-0.91,0.74-1.65,1.65-1.65
		C439.95,115.94,440.69,116.68,440.69,117.59z"/>
	<circle class="st93" cx="284.03" cy="78.91" r="1.65"/>
	<path class="st51" d="M223.71,62.74c0,0.91-0.74,1.65-1.65,1.65c-0.91,0-1.65-0.74-1.65-1.65c0-0.91,0.74-1.65,1.65-1.65
		C222.97,61.09,223.71,61.83,223.71,62.74z"/>
	<path class="st51" d="M399.84,179.57c0,0.91-0.74,1.65-1.65,1.65s-1.65-0.74-1.65-1.65c0-0.91,0.74-1.65,1.65-1.65
		S399.84,178.66,399.84,179.57z"/>
	<path class="st51" d="M340.28,140.88c0,0.91-0.74,1.65-1.65,1.65s-1.65-0.74-1.65-1.65s0.74-1.65,1.65-1.65
		S340.28,139.97,340.28,140.88z"/>
	<path class="st94" d="M435.22,238.5h-247.4c-1.89,0-3.44-1.55-3.44-3.44l0,0c0-1.89,1.55-3.44,3.44-3.44h247.4
		c1.89,0,3.44,1.55,3.44,3.44l0,0C438.66,236.95,437.11,238.5,435.22,238.5z"/>
	
		<ellipse transform="matrix(0.9454 -0.3259 0.3259 0.9454 -76.4919 84.4744)" class="st95" cx="213.91" cy="270.57" rx="11.71" ry="21.63"/>
	<path class="st95" d="M235.02,307.24c3.19,5.53,3.36,11.42,0.36,13.15c-2.99,1.73-8.01-1.36-11.21-6.89
		c-3.19-5.53-3.36-11.42-0.36-13.15C226.81,298.62,231.83,301.7,235.02,307.24z"/>
	<path class="st96" d="M194.69,235.06c0,1.12-1.68,2.03-3.75,2.03s-3.75-0.91-3.75-2.03c0-1.12,1.68-2.03,3.75-2.03
		S194.69,233.94,194.69,235.06z"/>
</g>
</svg>
