<?xml version="1.0" encoding="utf-8"?>
<!-- Generator: Adobe Illustrator 23.0.5, SVG Export Plug-In . SVG Version: 6.00 Build 0)  -->
<svg version="1.0" id="Layer_1" xmlns="http://www.w3.org/2000/svg" xmlns:xlink="http://www.w3.org/1999/xlink" x="0px" y="0px"
	 viewBox="0 0 624 420" style="enable-background:new 0 0 624 420;" xml:space="preserve">
<style type="text/css">
	.st0{opacity:0.15;fill:#35B24A;}
	.st1{fill:#EEA987;}
	.st2{fill:#E8734D;}
	.st3{fill:#EEA886;}
	.st4{fill:#00A26D;}
	.st5{fill:#363A5E;}
	.st6{fill:#E6E6E6;}
	.st7{fill:#CFBEB8;}
	.st8{fill:#FAE6DE;}
	.st9{fill:#D6C5BE;}
	.st10{fill:#A77860;}
	.st11{fill:#FCFCFC;}
	.st12{fill:#A1A1A1;}
	.st13{fill:#524B47;}
	.st14{fill:#E3CFC5;}
	.st15{fill:#D1D1D1;}
	.st16{fill:#A86230;}
	.st17{fill:#C47428;}
	.st18{fill:#DB984B;}
	.st19{fill:#FFCF99;}
	.st20{fill:#B56933;}
	.st21{fill:#C98B45;}
	.st22{fill:#BA8140;}
	.st23{fill:#F5965E;}
	.st24{fill:#E4AF61;}
	.st25{fill:#C1753A;}
	.st26{fill:#FACB7C;}
	.st27{fill:#BC5D40;}
	.st28{fill:#ECE6C8;}
	.st29{fill:#364163;}
	.st30{fill:#E0DBBF;}
	.st31{fill:#242C42;}
	.st32{fill:#E8C489;}
	.st33{fill:#2F6B8C;}
	.st34{fill:#D1C1B9;}
	.st35{fill:#EBEBEB;}
	.st36{fill:#EF6A1C;}
	.st37{fill:#EE6F62;}
	.st38{fill:#EECEBE;}
	.st39{fill:#D16257;}
	.st40{fill:#E3C4B5;}
	.st41{fill:#EE958C;}
	.st42{fill:#DE8B83;}
	.st43{fill:#015E3A;}
	.st44{fill:#665249;}
	.st45{fill:#9CCC9B;}
	.st46{fill:#CA595B;}
	.st47{fill:#EC686B;}
	.st48{fill:#9A6FA0;}
	.st49{fill:#82C07E;}
	.st50{fill:#E2D4C6;}
	.st51{fill:#AFA090;}
	.st52{fill:#81807E;}
	.st53{fill:#D88A51;}
	.st54{fill:#C78D71;}
	.st55{fill:#A09EA6;}
	.st56{fill:#C5C2CC;}
	.st57{fill:#F2C095;}
	.st58{fill:#E85C5C;}
	.st59{fill:#FCF1E8;}
	.st60{fill:#F7DEC8;}
	.st61{fill:#23593E;}
	.st62{fill:#61492C;}
	.st63{fill:#B49870;}
	.st64{fill:#F2CC95;}
	.st65{fill:#F2D7B0;}
	.st66{fill:#A0896A;}
	.st67{fill:#F7F7F7;}
	.st68{fill:#D98A32;}
	.st69{fill:#E39D4D;}
	.st70{fill:#B18450;}
	.st71{fill:#997345;}
	.st72{fill:#CAC7A9;}
	.st73{fill:#B5B398;}
	.st74{fill:#FFFFFF;}
</style>
<g>
	<rect x="0" class="st0" width="624" height="419.2"/>
	<g>
		<g>
			<g>
				<g>
					<g>
						<g>
							<g>
								<path class="st1" d="M440.69,116.16c0,0,2.48-2.3,1.99-4.02c-0.42-1.47,0.21-3.11,0.37-3.78c0.21-0.9,0.3-3.83,0.97-3.67
									c1.14,0.27,0.88,4.94,1.02,5.94c0.14,1,3.15-2.34,4.18-2.51c1.03-0.17,6.27,5.13,3.93,7.18c-2.33,2.05-5.55,2.88-5.89,3.32
									c-0.34,0.44-1.94,1.66-1.94,1.66L440.69,116.16z"/>
							</g>
						</g>
					</g>
				</g>
				<g>
					<g>
						<g>
							<g>
								<path class="st1" d="M448.56,108.47c0,0,7.56-5.79,8.38-5.76c0.83,0.04,1.12,0.46,0.43,1.03c-0.69,0.57-7.14,5.81-7.14,5.81
									s10.1-5.35,10.78-5.47c0.4-0.07,0.7,0.7,0.37,1.03c-0.34,0.34-9.74,6.25-9.74,6.25s9.44-4.98,10.04-4.91
									c0.53,0.06,0.9,0.93,0.23,1.35c-0.67,0.42-9.17,5.53-9.17,5.53s7.1-3.19,7.57-2.83c0.29,0.22,0.7,0.71-1.16,1.47
									c-1.86,0.77-5.9,3.21-5.9,3.21L448.56,108.47z"/>
							</g>
						</g>
					</g>
				</g>
			</g>
			<g>
				<path class="st2" d="M388.19,46.28c0,0,16.9-1.99,16.4,17.03c-0.5,19.02-2.33,22.37,1.19,35.81
					c3.52,13.44-17.63-7.63-17.63-7.63L388.19,46.28z"/>
			</g>
			<g>
				<g>
					<path d="M333.11,330.94c0,0-6.71,9.43-5.79,10.93c0.92,1.5,7.98,1.71,12.28,0c4.3-1.71,4.4-12.76,6.34-17.51
						c0.81-1.99-0.93-7.86-3.38-8.28c-2.45-0.43-5.11,0.82-5.11,0.82S339.99,323.59,333.11,330.94z"/>
				</g>
			</g>
			<g>
				<g>
					<g>
						<path class="st3" d="M337.41,316.82c0,0-1.41,4.02-1.93,7.85c-0.43,3.18-4.78,9.93-4.58,10.79c0.21,0.85,5.73,1.63,7.98-0.57
							c2.25-2.2,3.7-8.61,4.2-12.44c0.46-3.57,1.05-5.33,1.05-5.33S339.55,314.47,337.41,316.82z"/>
					</g>
				</g>
			</g>
			<g>
				<g>
					<path d="M391.55,331.1c0,0-6.47,9.27-5.55,10.77c0.92,1.5,7.98,1.71,12.28,0c4.3-1.71,4.4-12.76,6.34-17.51
						c0.81-1.99-0.93-7.86-3.38-8.28c-2.45-0.43-5.32,0.92-5.32,0.92S398.43,323.74,391.55,331.1z"/>
				</g>
			</g>
			<g>
				<g>
					<g>
						<path class="st3" d="M395.92,316.99c0,0-0.51,4.38-1.33,7.47c-0.82,3.1-5.22,10.14-5.01,11c0.21,0.85,5.73,1.63,7.98-0.57
							c2.25-2.2,3.99-8.58,4.2-12.44c0.2-3.86-0.51-6.37-0.51-6.37S398.07,314.64,395.92,316.99z"/>
					</g>
				</g>
			</g>
			<g>
				<g>
					<g>
						<g>
							<path class="st4" d="M363.58,163.44c0,0-5.76,27.97-7.08,35.01c-1.32,7.04-5.03,41.15-5.43,46.94
								c-0.4,5.8-6.01,27.65-5.75,29.72c0.26,2.07-9.12,43.12-9.12,43.12s6.65,0.72,9.3-0.39c1.81-0.76,16.37-37.78,16.37-48.14
								c0-14.32,7.99-33,9.15-36.26c11.4-32.07,13.5-39.68,15.09-41.61c0,0,0.24,2.61,0.78,6.96c0.62,5,3.34,40.69,4.54,45.38
								c1.19,4.69,0.26,20.57,0.93,28.58c0.66,8.01,1.89,44.54,1.89,44.54s5.97,0.26,8.6-1.31c0.88-0.53,3.93-39.25,4.06-48.78
								c0.13-9.53,0.27-22.67,0.53-26.79c2.45-39.48,8.48-45.12-1.01-73.05C388.66,115.05,363.58,163.44,363.58,163.44z"/>
						</g>
					</g>
				</g>
			</g>
			<g>
				<g>
					<polygon class="st5" points="346.12,323.53 346.12,333.4 344.89,333.4 344.89,325.77 					"/>
				</g>
			</g>
			<g>
				<g>
					<polygon class="st5" points="404.8,323.53 404.8,333.4 403.57,333.4 403.57,325.77 					"/>
				</g>
			</g>
			<g>
				<path class="st3" d="M380.66,96.89c0,0,1.59-3.74,2.77-7.93c0.06-0.2,0.11-0.4,0.16-0.6c0.14-0.55,0.27-1.1,0.39-1.65
					c0.06-0.31,0.13-0.62,0.18-0.93c0.42-2.31,0.54-4.52,0-6.1c-1.75-5.18,10.99-1.59,10.99-1.59s-2.47,13.7,0,18.32
					C397.63,101.03,380.66,96.89,380.66,96.89z"/>
			</g>
			<g>
				<path class="st6" d="M402.28,96.66c1.42-1.78-8.56-2.4-8.56-2.4l-11.65-1c0,0-8.01,1.33-14.22,3.48
					c-6.21,2.15-12.45,15.73-12.45,15.73s9.33,24.56,11.48,32.13c2.15,7.57-5.49,29.5-5.49,29.5c14.56,14.13,47.36,0.79,47.36,0.79
					S393.89,107.17,402.28,96.66z"/>
			</g>
			<g>
				<path class="st7" d="M407.03,128.44c0,0-0.52,1.1-1.96,5.46c-1.46-12.22-0.7-18.58-0.7-18.58
					C404.53,121.85,407.03,128.44,407.03,128.44z"/>
			</g>
			<g>
				<path class="st3" d="M394.37,93.86l-13.71,11.17l1.41-11.77C382.07,93.26,390.07,91.54,394.37,93.86z"/>
			</g>
			<g>
				<path class="st6" d="M403.41,140.94c-1.88,7.82,5.35,33.96,5.35,33.96l-13.79,3.78c-1.99,0.67-4.11-0.58-4.48-2.65
					c-1.81-10.18-6.52-37.47-7.05-49.57c-0.66-15.03,10.28-32.76,10.28-32.76c19.45,3.34,14.12,32.76,14.12,32.76
					s-0.71,1.86-1.65,4.75c0,0,0,0,0,0c-0.24,0.73-0.49,1.52-0.75,2.37C404.77,135.75,404.05,138.28,403.41,140.94z"/>
			</g>
			<g>
				<path class="st6" d="M380.7,93.91l0.24-0.64c0,0-9.96,1.52-15.02,4.04c-5.06,2.53-12.41,18.01-12.41,18.01l10.33,14.32
					c0.01,12.86-2.44,44.47-2.44,44.47l6.77,2.17c1.37,0.56,2.88-0.43,2.9-1.92c0.14-9.18,0.57-36.39,0.79-47.01
					c0.26-12.86,9.44-33.66,9.44-33.66C381.1,93.76,380.9,93.83,380.7,93.91z"/>
			</g>
			<g>
				<polygon class="st8" points="382.79,91.09 375.42,102.79 371.86,105.03 380.16,93.39 				"/>
			</g>
			<g>
				<polygon class="st9" points="375.42,102.79 380.66,105.03 382.07,93.26 382.79,91.09 				"/>
			</g>
			<g>
				<path class="st6" d="M426.77,126.61c2.16-1.78,3.43-2.43,6.03-4.67c4.04-3.48,9.22-7.89,9.22-7.89l4.91,7.22
					c0,0-11.89,10.45-18.21,16.66l0,0c0,0-8,8.59-9.78,7.83c-1.79-0.76-8.16-10-13.25-18.88c-5.09-8.88-7.37-14.56-7.63-18.42
					c-0.25-3.87,12.55-5.73,12.55-5.73l10.03,21.9c0,0,1.78,3.13,2.69,4.08C423.33,128.69,425.59,127.4,426.77,126.61z"/>
			</g>
			<g>
				<path class="st3" d="M389.96,48.21c-4.48-0.73-14.74,0.39-17.64,12.16c0,0-0.01,3.26,0.48,5.88c0.49,2.62-2.63,9.82-2.08,10.25
					c0.55,0.43,2.94,1.19,2.94,1.19s1.7,8.45,4.57,8.71c2.87,0.26,13.95-0.74,20.21-10.29C404.7,66.54,408.05,51.17,389.96,48.21z"
					/>
			</g>
			<g>
				<path class="st2" d="M372.31,60.37c0,0,6.74,5.82,13.89,7.66c7.15,1.84,10.93,9.86,10.93,9.86s12.64-12.61,5.01-24.85
					C394.51,40.81,372.33,46.26,372.31,60.37z"/>
			</g>
			<g>
				<path class="st2" d="M387.52,68.45c0,0,7.48,19.63,6.6,24.36c0,0,3.67-0.54,10.55,1.57C404.68,94.37,401.38,59.21,387.52,68.45z
					"/>
			</g>
			<g>
				<polygon class="st9" points="384.62,103.14 380.66,105.03 394.12,91.69 				"/>
			</g>
			<g>
				<polygon class="st8" points="394.12,91.69 384.62,103.14 389.82,107.77 395.43,94.07 				"/>
			</g>
			<g>
				<path class="st10" d="M391.51,82.8c-0.06,0.1-2.12,3.3-7.92,5.57c0.14-0.55,0.27-1.1,0.39-1.65c0.06-0.31,0.13-0.62,0.18-0.93
					C384.16,85.78,388.96,84.61,391.51,82.8z"/>
			</g>
			<g>
				<path class="st6" d="M395.43,94.07c0,0,12.53-1.7,16.18,11.42C411.61,105.48,395.68,103.77,395.43,94.07z"/>
			</g>
			<g>
				<polygon class="st11" points="369.75,170.84 368.42,170.84 368.42,109.69 376.64,108.17 376.88,109.48 369.75,110.8 				"/>
			</g>
			<path class="st12" d="M375.37,118.37c0,0.93-0.75,1.68-1.68,1.68c-0.93,0-1.68-0.75-1.68-1.68c0-0.93,0.75-1.68,1.68-1.68
				C374.61,116.69,375.37,117.44,375.37,118.37z"/>
			<path class="st12" d="M393.51,118.37c0,0.93-0.75,1.68-1.68,1.68c-0.93,0-1.68-0.75-1.68-1.68c0-0.93,0.75-1.68,1.68-1.68
				C392.76,116.69,393.51,117.44,393.51,118.37z"/>
			<path class="st12" d="M375.37,128.89c0,0.93-0.75,1.68-1.68,1.68c-0.93,0-1.68-0.75-1.68-1.68c0-0.93,0.75-1.68,1.68-1.68
				C374.61,127.2,375.37,127.96,375.37,128.89z"/>
			<path class="st12" d="M393.51,128.89c0,0.93-0.75,1.68-1.68,1.68c-0.93,0-1.68-0.75-1.68-1.68c0-0.93,0.75-1.68,1.68-1.68
				C392.76,127.2,393.51,127.96,393.51,128.89z"/>
			<path class="st12" d="M375.37,139.53c0,0.93-0.75,1.68-1.68,1.68c-0.93,0-1.68-0.75-1.68-1.68c0-0.93,0.75-1.68,1.68-1.68
				C374.61,137.85,375.37,138.6,375.37,139.53z"/>
			<path class="st12" d="M393.51,139.53c0,0.93-0.75,1.68-1.68,1.68c-0.93,0-1.68-0.75-1.68-1.68c0-0.93,0.75-1.68,1.68-1.68
				C392.76,137.85,393.51,138.6,393.51,139.53z"/>
			<path class="st12" d="M375.37,150.17c0,0.93-0.75,1.68-1.68,1.68c-0.93,0-1.68-0.75-1.68-1.68c0-0.93,0.75-1.68,1.68-1.68
				C374.61,148.49,375.37,149.24,375.37,150.17z"/>
			<path class="st12" d="M393.51,150.17c0,0.93-0.75,1.68-1.68,1.68c-0.93,0-1.68-0.75-1.68-1.68c0-0.93,0.75-1.68,1.68-1.68
				C392.76,148.49,393.51,149.24,393.51,150.17z"/>
			<path class="st12" d="M375.37,160.77c0,0.93-0.75,1.68-1.68,1.68c-0.93,0-1.68-0.75-1.68-1.68s0.75-1.68,1.68-1.68
				C374.61,159.09,375.37,159.84,375.37,160.77z"/>
			<path class="st12" d="M393.51,160.77c0,0.93-0.75,1.68-1.68,1.68c-0.93,0-1.68-0.75-1.68-1.68s0.75-1.68,1.68-1.68
				C392.76,159.09,393.51,159.84,393.51,160.77z"/>
			<path class="st6" d="M372.45,58.53c0,0,19.43,2.96,31.83-0.23V33.84c0,0-15.04-0.44-33.1,2.2L372.45,58.53z"/>
			<path class="st6" d="M409.32,32.94c0,5.85-4.74,10.59-10.6,10.59c-5.85,0-10.59-4.74-10.59-10.59c0-5.85,4.74-10.6,10.59-10.6
				C404.58,22.35,409.32,27.09,409.32,32.94z"/>
			<path class="st6" d="M397.66,30.2c0,5.85-4.74,10.59-10.6,10.59c-5.85,0-10.6-4.74-10.6-10.59c0-5.85,4.74-10.6,10.6-10.6
				C392.92,19.6,397.66,24.34,397.66,30.2z"/>
			<path class="st6" d="M385.96,33.45c0,5.85-4.74,10.6-10.59,10.6c-5.85,0-10.6-4.74-10.6-10.6s4.74-10.6,10.6-10.6
				C381.22,22.85,385.96,27.6,385.96,33.45z"/>
			<path class="st6" d="M353.5,115.31c0,0-5.84,14.7-6.51,19.53c-0.67,4.83,20.41,1.42,20.41,1.42l-1.2-12.99L353.5,115.31z"/>
			<g>
				<path class="st3" d="M362.64,154.21c0,0,9.56,0.37,11.04,0c1.49-0.37,11.4-4.67,12-8.92c0.6-4.25-23.05,3.81-23.05,3.81V154.21z
					"/>
			</g>
			<g>
				<path class="st6" d="M363.8,148.74c0,0-0.4,4.94,0,5.97c0,0-23.92-2.39-26.15-5.73c-2.23-3.35-2.15-7.41-2.15-7.41L363.8,148.74
					z"/>
			</g>
			<path class="st13" d="M394.12,140.66c0,6.06-15.5,10.98-34.62,10.98c-19.12,0-34.63-4.91-34.63-10.98
				c0-6.06,15.5-10.98,34.63-10.98C378.62,129.68,394.12,134.6,394.12,140.66z"/>
			<path class="st14" d="M485.82,105.48c0,6.06-15.5,10.98-34.63,10.98c-19.12,0-34.63-4.92-34.63-10.98
				c0-6.06,15.5-10.98,34.63-10.98C470.32,94.51,485.82,99.42,485.82,105.48z"/>
			<path class="st15" d="M408.76,174.89c0,0-1.04,30.42,5.58,85.73c0,0-44.09,8.41-75.45,0l22.5-86.52
				C361.4,174.1,370.8,179.65,408.76,174.89z"/>
			<g>
				<path class="st16" d="M468.77,96.46c0.24-0.96,0.98,0.32,0.45,0.96C468.7,98.07,468.61,97.11,468.77,96.46z"/>
				<g>
					<path class="st17" d="M472.35,106.83c-0.12,0.81-6.63,2.79-12.79,3.72c-0.38,0.05-0.82,0.09-1.33,0.11
						c-0.23,0.01-0.47,0.01-0.72,0.01c-0.31,0-0.63,0-0.98-0.01h-0.02c-0.24-0.01-0.49-0.02-0.75-0.03h0
						c-7.06-0.31-19.52-2.35-25.07-3.31c-2.17-0.37-3.87-2.07-4.23-4.24c-0.45-2.68-0.22-6.11,1.01-9.21
						c0.36-0.91,0.81-1.79,1.35-2.62c0.75-1.15,1.69-2.18,2.83-3.04c6.4-4.77,35.35-0.58,38.49,1.86c0.12,0.1,0.24,0.21,0.36,0.34
						c0.17,0.2,0.33,0.43,0.48,0.7c0.37,0.68,0.66,1.57,0.88,2.58C472.91,98.58,472.44,106.22,472.35,106.83z"/>
					<path class="st18" d="M456.53,110.66h-0.02l-0.75-0.03h0c-7.06-0.31-19.52-2.35-25.07-3.31c-2.17-0.37-3.87-2.07-4.23-4.24
						c-0.26-1.54-0.29-3.34-0.04-5.17c0.19-1.35,0.52-2.72,1.04-4.03c5.59-3.77,28.25-1.47,31.17,4.48
						C461.56,104.31,456.53,110.66,456.53,110.66z"/>
					<path class="st19" d="M470.5,90.43c-1.35,1.45-5.12,4.62-11.85,3.97c-8.42-0.8-14.09-5.32-29.82-3.14
						c0.46-0.7,0.99-1.37,1.59-1.97c0.38-0.38,0.8-0.74,1.24-1.07c5.84-4.35,30.5-1.24,37.12,1.19c0.63,0.23,1.1,0.45,1.37,0.67
						C470.27,90.18,470.38,90.3,470.5,90.43z"/>
					<path class="st20" d="M472.35,106.83c-0.12,0.81-6.63,2.79-12.79,3.72c-0.38,0.05-0.82,0.09-1.33,0.11
						c-0.23,0.01-0.47,0.01-0.72,0.01l-0.02-0.01c0,0,5.91-12.2,9.28-14.76c1.72-1.3,3.18-3.21,4.2-4.77
						c0.37,0.68,0.66,1.57,0.88,2.58C472.91,98.58,472.44,106.22,472.35,106.83z"/>
					<path class="st16" d="M472.35,106.83c-0.12,0.81-6.63,2.79-12.79,3.72c-0.38,0.05-0.82,0.09-1.33,0.11
						c0.05-0.07,5.07-6.51,8.42-7.9c2.55-1.05,4.56-5.82,5.2-9.04C472.91,98.58,472.44,106.22,472.35,106.83z"/>
					<path class="st19" d="M468.77,89.42c-12.77-1.85-31.19-0.69-38.36-0.12c0.38-0.38,0.8-0.74,1.24-1.07
						C437.49,83.87,462.15,86.99,468.77,89.42z"/>
					<path class="st21" d="M456.53,110.66c0,0-12.64-14.82-30.1-12.75c0.19-1.35,0.52-2.72,1.04-4.03
						c5.59-3.77,28.25-1.47,31.17,4.48C461.56,104.31,456.53,110.66,456.53,110.66z"/>
					<path class="st22" d="M431.98,101.35c0,0,0.23,4.25,0.93,2.85C433.6,102.81,433.37,100.59,431.98,101.35z"/>
					<path class="st22" d="M434.07,101.35c0.07,1.22,0.37,1.99,0.57,1.49C434.84,102.35,434.03,100.7,434.07,101.35z"/>
					<path class="st22" d="M435.62,101.2c0.15,0.91,2.02,0.97,1.55-0.3C436.71,99.63,435.47,100.28,435.62,101.2z"/>
					<path class="st22" d="M441.9,105.06c0,1.08,1.1,1.71,1.09,0.62C442.98,104.59,441.9,103.97,441.9,105.06z"/>
					<path class="st22" d="M447.09,105.37c-0.15,0.85,2.35,0.54,1.64-1.4C448.02,102.04,447.24,104.52,447.09,105.37z"/>
					<path class="st22" d="M452.67,102.19c0,0,0.7,1.55,1.24,1.55s1.16-2.53,0-2.54C452.75,101.18,452.18,101.3,452.67,102.19z"/>
					<path class="st22" d="M449.39,98.86c0.1,1.09,1.58,1.32,1.42,0C450.66,97.54,449.29,97.77,449.39,98.86z"/>
					<path class="st22" d="M445.77,98.36c0,0.73,1.53,0.42,1.31-0.82C446.86,96.3,445.77,97.63,445.77,98.36z"/>
					<path class="st22" d="M452.5,96.38c-0.21,0.85,0.1,2.02,0.72,1.51C453.84,97.39,452.71,95.53,452.5,96.38z"/>
					<path class="st16" d="M461.97,96.69c-0.57,1.19,0.36,2.41,0.68,1.2C462.98,96.69,462.26,96.1,461.97,96.69z"/>
					<path class="st16" d="M464.45,95.68c-0.32,0.64-0.93,2.24,0,1.35C465.38,96.14,464.91,94.78,464.45,95.68z"/>
					<path class="st16" d="M461.28,100.9c-0.08,0.59,0.89-0.08,0.99-1.14C462.36,98.7,461.35,100.31,461.28,100.9z"/>
					<path class="st16" d="M464.47,102.84c-0.1,1.3,1.22-0.39,1.22-1.49C465.69,100.25,464.57,101.48,464.47,102.84z"/>
					<path class="st16" d="M466.73,99.41c-0.23,0.64,0.64,0.98,0.93-0.23C467.95,97.95,466.96,98.77,466.73,99.41z"/>
					<path class="st16" d="M468.35,99.41c-0.45,1.05-1.1,2.67-0.29,1.71C468.88,100.16,468.64,98.75,468.35,99.41z"/>
					<path class="st23" d="M455.45,90.19c0.91,0.51,3.14,0.22,1.72-0.3C455.74,89.39,454.69,89.77,455.45,90.19z"/>
					<path class="st23" d="M451.21,91.13c0.43,0.8,3.48,0.62,1.71,0C451.15,90.51,450.63,90.06,451.21,91.13z"/>
					<path class="st23" d="M458.95,90.85c0.45,0.36,2.53-0.26,1.86-0.4C460.16,90.31,458.3,90.33,458.95,90.85z"/>
					<path class="st23" d="M443.35,90.27c0,0,9.22,1.42,13.06,2.58c3.84,1.16,3.52-1.67-5.43-2.58
						C442.03,89.36,443.35,90.27,443.35,90.27z"/>
				</g>
			</g>
			<g>
				<path class="st24" d="M381.64,134.84l-3.77,5.61l-18.54,6.07c0,0-25.82-8.23-23.61-12.52c0,0,5.73-3.42,14.85-5.81
					c2.96-0.78,6.28-1.45,9.88-1.85c2.19-0.25,4.47-0.4,6.85-0.41c2.33-0.02,4.3,0.12,5.97,0.36c0.36,0.05,0.71,0.11,1.04,0.17
					c1.8,0.34,3.19,0.82,4.26,1.39c2.5,1.32,3.27,3.08,3.41,4.5C382.11,133.76,381.64,134.84,381.64,134.84z"/>
				<path class="st25" d="M381.96,132.35l-21.04,5.78l-7.38-4.13l20.75-7.54C380.28,127.6,381.76,130.31,381.96,132.35z"/>
				<path class="st26" d="M360.44,126.34c-8.26,2.85-20.35,8.26-20.35,8.26h-3.62l14.09-6.41
					C353.52,127.41,356.84,126.74,360.44,126.34z"/>
				<path class="st27" d="M378.55,127.85l-24.26,8.37l-7.05-1.38l26.01-8.55c0.36,0.05,0.71,0.11,1.04,0.17
					C376.09,126.8,377.48,127.28,378.55,127.85z"/>
				<path class="st28" d="M359.32,146.52c-5.61,0.51-11.84-0.9-16.67-2.45c-4.83-1.54-8.26-3.21-8.26-3.21
					c-1.54-7.1,2.8-8.82,8.41-8.62c4.86,0.17,10.66,1.79,14.41,2.59C365.28,136.57,359.32,146.52,359.32,146.52z"/>
				<path class="st29" d="M354.19,130.75c-0.51,0.5-2.09,0.86-2.5,0.13c-0.31-0.56-0.18-0.89,0.16-1.05
					c0.58-0.28,1.74-0.08,2.32,0.33C354.42,130.35,354.39,130.56,354.19,130.75z"/>
				<path class="st30" d="M342.65,144.07c-4.83-1.54-8.26-3.21-8.26-3.21c-1.54-7.1,2.8-8.82,8.41-8.62
					C342.78,132.3,339.8,139.2,342.65,144.07z"/>
				<path class="st29" d="M360.92,130.3c-0.72,0.44-2.84,0.21-2.64-0.39c0.06-0.19,0.18-0.34,0.33-0.46
					c0.77-0.61,2.47-0.31,2.55,0.46C361.17,130.07,361.08,130.2,360.92,130.3z"/>
				<path class="st29" d="M367.69,130.95c-0.74,0.39-2.71-0.07-2.63-0.62c0.03-0.21,0.13-0.37,0.29-0.49
					c0.73-0.56,2.56-0.21,2.62,0.65C367.98,130.71,367.87,130.85,367.69,130.95z"/>
				<path class="st29" d="M365.49,127.93c-0.77,0.14-3.18-0.43-2.6-0.76c0.12-0.07,0.24-0.13,0.36-0.18
					c1.31-0.54,2.28,0.16,2.46,0.73C365.75,127.83,365.66,127.9,365.49,127.93z"/>
				<path class="st31" d="M354.19,130.75c-0.51,0.5-2.09,0.86-2.5,0.13c-0.31-0.56-0.18-0.89,0.16-1.05
					C352.11,130.23,352.84,131.09,354.19,130.75z"/>
				<path class="st31" d="M360.92,130.3c-0.72,0.44-2.84,0.21-2.64-0.39c0.06-0.19,0.18-0.34,0.33-0.46
					C359.08,129.86,360,130.51,360.92,130.3z"/>
				<path class="st31" d="M367.69,130.95c-0.74,0.39-2.71-0.07-2.63-0.62c0.03-0.21,0.13-0.37,0.29-0.49
					C365.77,130.2,366.59,130.79,367.69,130.95z"/>
				<path class="st31" d="M363.25,126.99c0.52,0.27,1.5,0.76,2.24,0.94c-0.77,0.14-3.18-0.43-2.6-0.76
					C363.02,127.09,363.14,127.04,363.25,126.99z"/>
				<path class="st31" d="M340.28,136.55c0,0.18,0.15,0.33,0.33,0.33c0.18,0,0.33-0.15,0.33-0.33c0-0.18-0.15-0.33-0.33-0.33
					C340.43,136.22,340.28,136.37,340.28,136.55z"/>
				<path class="st31" d="M344.32,135.24c0,0.54-0.34,0.98-0.76,0.98c-0.42,0-0.76-0.44-0.76-0.98c0-0.54,0.34-0.98,0.76-0.98
					C343.98,134.26,344.32,134.7,344.32,135.24z"/>
				<path class="st31" d="M348.78,140.71c0,0.71-0.34,1.28-0.77,1.28c-0.42,0-0.77-0.57-0.77-1.28c0-0.71,0.34-1.28,0.77-1.28
					C348.43,139.42,348.78,140,348.78,140.71z"/>
				<path class="st31" d="M353.54,139.52c0,0.66-0.37,1.19-0.82,1.19c-0.45,0-0.82-0.53-0.82-1.19c0-0.66,0.36-1.19,0.82-1.19
					C353.17,138.32,353.54,138.86,353.54,139.52z"/>
				<path class="st31" d="M337.85,139.96c0,0.29-0.24,0.53-0.53,0.53c-0.29,0-0.53-0.24-0.53-0.53c0-0.29,0.24-0.53,0.53-0.53
					C337.61,139.42,337.85,139.66,337.85,139.96z"/>
				<path class="st32" d="M342.45,139.22c0,0.41-0.2,0.74-0.45,0.74c-0.25,0-0.45-0.33-0.45-0.74c0-0.41,0.2-0.74,0.45-0.74
					C342.25,138.49,342.45,138.81,342.45,139.22z"/>
				<path class="st32" d="M349.14,136.46c0,0.23-0.19,0.42-0.42,0.42c-0.23,0-0.42-0.19-0.42-0.42c0-0.23,0.19-0.42,0.42-0.42
					C348.95,136.04,349.14,136.23,349.14,136.46z"/>
				<path class="st32" d="M352.21,143.95c0,0.53-0.21,0.96-0.47,0.96c-0.26,0-0.47-0.43-0.47-0.96c0-0.53,0.21-0.96,0.47-0.96
					C352,142.99,352.21,143.42,352.21,143.95z"/>
				<path class="st32" d="M352.72,136.36c0,0.08-0.06,0.14-0.14,0.14c-0.08,0-0.14-0.06-0.14-0.14c0-0.08,0.06-0.14,0.14-0.14
					C352.66,136.22,352.72,136.28,352.72,136.36z"/>
				<path class="st32" d="M348.78,134.42c0,0.26-0.11,0.47-0.24,0.47c-0.13,0-0.24-0.21-0.24-0.47c0-0.26,0.11-0.47,0.24-0.47
					C348.67,133.95,348.78,134.16,348.78,134.42z"/>
				<ellipse class="st32" cx="340.34" cy="134.59" rx="0.28" ry="0.64"/>
				<path class="st32" d="M356.22,142.3c0,0.38-0.2,0.69-0.46,0.69c-0.25,0-0.46-0.31-0.46-0.69c0-0.38,0.21-0.69,0.46-0.69
					C356.02,141.62,356.22,141.92,356.22,142.3z"/>
				<path class="st32" d="M358.38,137.44c0,0.49-0.27,0.89-0.6,0.89c-0.33,0-0.6-0.4-0.6-0.89c0-0.49,0.27-0.89,0.6-0.89
					C358.11,136.55,358.38,136.95,358.38,137.44z"/>
				<path class="st32" d="M337.34,137.16c0,0.15-0.13,0.28-0.28,0.28c-0.15,0-0.28-0.12-0.28-0.28s0.12-0.28,0.28-0.28
					C337.22,136.88,337.34,137,337.34,137.16z"/>
				<path class="st29" d="M376.84,130.75c-0.01,0.3-0.45,0.45-0.98,0.48c-0.96,0.06-2.24-0.26-1.93-0.71
					c0.05-0.08,0.12-0.15,0.2-0.21C374.96,129.64,376.87,129.98,376.84,130.75z"/>
				<path class="st31" d="M375.87,131.23c-0.96,0.06-2.24-0.26-1.93-0.71c0.05-0.08,0.12-0.15,0.2-0.21
					C374.49,130.59,375.17,131.07,375.87,131.23z"/>
			</g>
		</g>
		<g>
			<path class="st3" d="M178.96,151.78c0,0-5.72,3.76-8.05,4.64c-2.33,0.88,1.4-9.02,1.4-9.02L178.96,151.78z"/>
			<path class="st3" d="M172.31,147.39c0,0-0.22-5.3-0.23-6.1c-0.01-0.81,1.23-2.7,2.84-4.74c1.61-2.05,4.71-4.09,5.15-4.05
				c0.45,0.04,0.92-0.13,1.81,0.6c0.89,0.74,1.23,1.84,1.23,1.84s1.52,0.39,1.85,1.79c0,0,1.41,0.43,1.52,2.08
				c0,0,1.37,0.46,1.35,1.67c0,0-1.24,1.9-1.5,2.73c-0.26,0.83-4.09,5.38-7.37,8.57C178.96,151.78,175.81,152.96,172.31,147.39z"/>
			<g>
				<path d="M123.13,381.94c0,0,1.58,3.8,2.9,5.31c1.33,1.5,6.42,4.2,6.44,8.67c0.03,4.85-8.58,3.5-11.94,3.33
					c-3.37-0.18-3.62-2.77-5.04-5.51c-1.42-2.75-2.85-2.28-3.11-4.5c-0.26-2.21,1.08-7.17,1.08-7.17L123.13,381.94z"/>
			</g>
			<g>
				<path d="M61.65,381.94c0,0-1.57,3.8-2.9,5.31c-1.33,1.5-6.42,4.2-6.44,8.67c-0.03,4.85,8.58,3.5,11.94,3.33
					c3.37-0.18,3.62-2.77,5.04-5.51c1.42-2.75,2.85-2.28,3.11-4.5c0.27-2.21-1.08-7.17-1.08-7.17L61.65,381.94z"/>
			</g>
			<g>
				<path class="st33" d="M61.51,380.54l-0.31,2.44c0,0,5.37,1.81,10.37,0.1l-0.29-3.19L61.51,380.54z"/>
			</g>
			<g>
				<path class="st33" d="M123.2,380.54l0.3,2.25c0,0-5.27,1.95-10.28,0.25l0.2-3.14L123.2,380.54z"/>
			</g>
			<g>
				<path class="st4" d="M121.07,319.33c0,5.98,4.5,61.69,4.5,61.69c-0.6,1.99-12.81,1.91-14.8,0.92c-1.99-1-7.64-56.38-8.01-62.41
					c-0.37-6.03-11.16-51.99-12.9-51.79c-1.75,0.2-7.56,49.91-8.95,54.49c-1.39,4.59-7.22,59.7-7.22,59.7
					c-5.77,1.16-14.17-0.26-14.17-0.26s1.04-56.96,1.29-58.64c0.37-2.49-0.02-9.21,1-24.13c0.91-13.34,4.18-42.39,6.26-58.11
					c0.08-0.56,0.15-1.1,0.21-1.61c0.41-3.06,0.71-5.31,0.86-6.39c0.06-0.47,0.1-0.71,0.1-0.71c0.56-0.26,1.15-0.5,1.76-0.72
					c14.6-5.25,42.75,0.31,42.75,0.31s0.02,0.14,0.05,0.4c0.04,0.32,0.1,0.81,0.17,1.45c0.16,1.39,0.4,3.45,0.68,5.85
					c0,0.02,0,0.04,0.01,0.05c0.01,0.07,0.02,0.15,0.03,0.22c0.98,8.53,2.37,21.02,2.24,22.32
					C116.71,263.96,121.07,313.35,121.07,319.33z"/>
			</g>
			<g>
				<path class="st6" d="M50.85,223.85c0,0-14.77-25.53-14.82-31.44c-0.02-2.73,3.86-11.84,7.21-16.13c1.1-1.41,2.28-2.82,3.46-4.17
					c0,0,0.01-0.01,0.01-0.01c4.7-5.4,9.37-9.89,9.37-9.89s12.05-14.34,20.54-6.52c0,0,1.47,3.4,0.47,8.02
					c-0.86,4-7.1,8.22-8.68,9.5c-1.57,1.27-17.2,17.93-17.42,18.62c-0.22,0.69,2.61,7.17,4.69,10.77c2.97,5.14,9.1,17.06,9.1,17.06
					L50.85,223.85z"/>
			</g>
			<g>
				<path class="st6" d="M177.17,156.47c0,0-20.81,24.76-26.54,26.22c-2.65,0.67-10.96-2.89-15.92-5.12
					c-1.63-0.74-3.28-1.55-4.88-2.37c0,0-0.01,0-0.01,0c-6.37-3.27-11.84-6.75-11.84-6.75s-16.79-8.29-11.23-18.39
					c0,0,5.16-1.01,9.63,0.52c4.47,1.53,8.18,3.95,9.79,5.18c1.61,1.23,19.83,9.96,20.55,10.01c0.72,0.05,7.58-3.66,10.58-6.54
					c4.28-4.11,14.72-12.68,14.72-12.68L177.17,156.47z"/>
			</g>
			<g>
				<path class="st6" d="M126.18,155.77l-7.98,28.46c-0.26,0.88-0.57,1.96-0.9,3.23l-0.01,0.05c0,0.01-0.01,0.02-0.01,0.03
					c-1.26,4.84-1.64,13.04-2.1,21.24c-0.32,5.59,0.41,23.52,0.41,23.52s-11.24,4.25-28.38,3.17c0,0-19.53,3.31-18.03-7.99
					c3.98-29.92,0.09-42.26-0.43-45.27c0,0-0.49-15.73-2.28-27.91c5.19-1.93,25.34-8.18,25.34-8.18l12.02,0.13
					C103.83,146.24,119.85,150.65,126.18,155.77z"/>
			</g>
			<g>
				<path class="st1" d="M88.99,147.18c0,0,2.65-2.62,0.16-12.97c-0.66-2.73,14.56,3.29,14.56,3.29s-0.12,2.26-0.11,4.53
					c0,1.02,0.04,2.03,0.12,2.85c0.06,0.61,0.15,1.11,0.28,1.41C104.68,147.87,94.56,151.17,88.99,147.18z"/>
			</g>
			<path class="st34" d="M103.72,144.88c0,0-1.73,2.18-6.44,4.15l2.12,4.62l6.05-6.9L103.72,144.88z"/>
			<path class="st34" d="M89.92,144.96c0,0,1.74,2.77,7.35,4.07l-2.49,5.26l-6.43-7.07L89.92,144.96z"/>
			<path class="st3" d="M62.68,219.81c0,0,0.8,0.87,1.74,0.96c1.63,0.15,3.7-1.5,5.21,0.35c1.5,1.85-2.93,8.61-4.32,9.31
				c-1.39,0.7-4.15-1.1-6.82-5.38C55.82,220.78,62.68,219.81,62.68,219.81z"/>
			<path class="st6" d="M64.76,219.67c0,0-5.55,6.51-10.62,9.45c0,0-6.49-8.54-13.63-24.62l16.84,1.12
				C57.35,205.62,63.65,217.11,64.76,219.67z"/>
			<g>
				<path class="st1" d="M99.05,105.28c0,0,11.76,1.98,9.76,20.39c-2,18.41-12.37,16.78-13.07,16.76
					c-0.7-0.03-10.44,0.22-10.95-22.29C84.79,120.15,84.64,103.51,99.05,105.28z"/>
			</g>
			<g>
				<path class="st1" d="M109.05,120.47c0,0,1.3-1.36,1.76,0.04c0.46,1.4-2.08,7.6-1.92,7.88c0,0-0.24,0.54-0.55,0.24
					C108.03,128.33,109.05,120.47,109.05,120.47z"/>
			</g>
			<g>
				<path class="st1" d="M84.93,119.98c0,0-1.25-1.42-1.76-0.04c-0.51,1.38,1.37,7.57,1.6,7.96c0,0,0.4,0.64,0.72,0.35
					C85.81,127.96,84.93,119.98,84.93,119.98z"/>
			</g>
			<g>
				<path class="st2" d="M109.8,118.91c-0.41,2.52-0.79,4.39-0.79,4.39l-1.71,2.24c0,0,0.1-4.94-0.16-5.72
					c-0.1-0.29-0.21-0.82-0.34-1.38c-0.2-0.93-0.4-1.98-0.53-2.33c-0.22-0.56-10.08-3.44-18.85,0.61c0,0,0.07,0.76,0.07,1.61
					c0,0.99-0.11,2.09-0.56,2.26c-0.84,0.31-0.49,5.78-0.49,5.78l-1.37-1.58c0,0-0.39-2.86-0.79-6.15c0,0,0-0.01,0-0.02
					c-0.09-0.77-0.18-1.56-0.26-2.34c-0.05-0.85-0.06-1.87,0.01-2.99v-0.02c0.09-1.33,0.32-2.79,0.78-4.23
					c2.97-0.99,13.94-4.16,23.66-0.81c0.47,1.22,0.8,2.49,1.01,3.7C110.15,115.67,109.8,118.91,109.8,118.91z"/>
			</g>
			<path class="st10" d="M91.64,140.99c0,0,5.27,3.52,10.73-0.42c0,0-2.22,3.58-5.45,3.73C93.69,144.46,91.64,140.99,91.64,140.99z"
				/>
			<path class="st35" d="M217.7,143.43c0,1.34-15.56,2.42-34.76,2.42c-19.2,0-34.76-1.08-34.76-2.42c0-1.34,15.56-2.42,34.76-2.42
				C202.14,141.01,217.7,142.1,217.7,143.43z"/>
			<path class="st6" d="M84.1,112.41c0,0,14.51,2.52,25.41-0.29l0.74-19.7c0,0-12.12-2.32-28,0L84.1,112.41z"/>
			<path class="st6" d="M114.44,90.08c0,4.78-3.88,8.65-8.65,8.65c-4.78,0-8.65-3.87-8.65-8.65c0-4.78,3.87-8.66,8.65-8.66
				C110.56,81.42,114.44,85.3,114.44,90.08z"/>
			<path class="st6" d="M104.91,87.83c0,4.78-3.88,8.66-8.66,8.66c-4.78,0-8.66-3.88-8.66-8.66c0-4.78,3.87-8.65,8.66-8.65
				C101.04,79.18,104.91,83.05,104.91,87.83z"/>
			<path class="st6" d="M95.35,90.49c0,4.78-3.88,8.65-8.66,8.65c-4.78,0-8.65-3.87-8.65-8.65c0-4.78,3.87-8.66,8.65-8.66
				C91.48,81.83,95.35,85.71,95.35,90.49z"/>
			<path class="st36" d="M115.59,232.29l8.92,92.93c0,0-33.22,7.75-67.79,0.9l12.64-95.54C69.37,230.58,89.01,237.92,115.59,232.29z
				"/>
			<path class="st3" d="M69.04,220.58c0,0,3.15,1.52,6.45,3.66c2.89,1.88,5.97,4.54,5.46,5.33c-0.7,1.08-2.88-1.33-5.87-2.99
				c-2.76-1.53-2.47-0.74-2.47-0.74s-0.07-0.23,2.61,2.06c2.88,2.46,5.94,5.48,5.32,6.19c-0.39,0.45-0.4,0.54-1.59-0.17
				c0.6,0.57,0.53,0.82,0.31,1.11c-1.09,1.5-5.88-1.41-7.78-2.57c1.45,0.9,2.43,1.72,1.2,2.21c-1.4,0.55-7.99-3.89-10.5-5.24
				C59.43,227.98,69.04,220.58,69.04,220.58z"/>
			<path class="st37" d="M193.62,126.68v16.36H165.6c-4.11,0-7.45-3.65-7.45-8.17c0-4.52,3.34-8.19,7.45-8.19H193.62z"/>
			<path class="st38" d="M200.58,134.86c0,4.52-3.33,8.18-7.44,8.18c-4.11,0-7.44-3.66-7.44-8.18c0-4.52,3.33-8.18,7.44-8.18
				C197.25,126.69,200.58,130.35,200.58,134.86z"/>
			<path class="st37" d="M209.54,142.25c0.02,0.43-4.05,0.95-9.09,1.15c-5.04,0.21-9.13,0.02-9.15-0.42
				c-0.02-0.43,4.05-0.95,9.08-1.15C205.42,141.63,209.52,141.81,209.54,142.25z"/>
			<path class="st39" d="M193.62,142.49v0.55H165.6c-4.11,0-7.45-3.65-7.45-8.17c0-4.52,3.34-8.19,7.45-8.19h2.42
				c0,0-6.39,10.32,4.04,10.32c7.85,0,13.88,0,13.88,0S188.75,142.69,193.62,142.49z"/>
			
				<rect x="191.29" y="142.43" transform="matrix(0.9991 -0.0415 0.0415 0.9991 -5.7411 8.4387)" class="st37" width="18.25" height="0.19"/>
			<path class="st40" d="M209.53,142.06c0.02,0.43-4.05,0.95-9.09,1.15c-5.04,0.2-9.13,0.02-9.15-0.42
				c-0.02-0.43,4.05-0.95,9.08-1.15C205.41,141.44,209.51,141.62,209.53,142.06z"/>
			<path class="st41" d="M196.25,128.49c0,0,3.39,2.03,3.24,4.73c-0.15,2.7-2.74,2.76-3.33,1.31c-0.59-1.44-2.73-3.07-2.19-4.22
				C194.51,129.17,195.02,127.57,196.25,128.49z"/>
			<path class="st41" d="M193.14,129.1c-0.25,0.67-0.62,1.76-1.87,2.06c-1.25,0.3-1.72,3.62-2.77,3.48
				c-1.05-0.14-1.52-3.82,1.45-5.31C192.93,127.85,193.24,128.82,193.14,129.1z"/>
			<path class="st41" d="M191.91,131.85c-0.82,0.53-1.32,0.94-1.32,1.68c0,0.74,1.55,0,1.69-0.51
				C192.42,132.51,192.42,131.52,191.91,131.85z"/>
			<path class="st41" d="M191.1,135.01c0.4,0.42,4.87,4.09,6.12,3.17c1.25-0.91,1.59,4.01-3.06,2.95c-4.65-1.06-6.61-3.56-5.49-4.54
				C189.78,135.62,190.33,134.19,191.1,135.01z"/>
			<path class="st40" d="M193.14,143.04c0,0,2.73-12.3,8.54-14.82c5.81-2.52,6.21,11.05-3.65,14.92
				C198.02,143.15,196.69,143.16,193.14,143.04z"/>
			<path class="st42" d="M196.69,137.34c-0.71,1.54-1.7,2.8-1.4,3.14c0.3,0.34,3.38,0.1,3.95-0.95c0.57-1.05-0.36-3.18,0.24-3.78
				C200.09,135.15,197.81,134.91,196.69,137.34z"/>
			<path class="st42" d="M199.04,134.37c0.17,0.47,0.49,0.52,1.15,0.61c0.65,0.09,3.78-3.73,4.32-2.49
				c0.54,1.25,1.13-1.66-0.25-2.52c-1.37-0.86-3.06,0.77-4.08,2.14C199.18,133.49,198.68,133.36,199.04,134.37z"/>
			<path class="st42" d="M203.21,133.84c-0.59,0.58-1.8,0.62-1.31,1.14c0.5,0.52,1.33-0.26,1.4-0.57
				C203.37,134.1,203.38,133.68,203.21,133.84z"/>
			<path class="st42" d="M203.77,136.49c0.16,0.56-2.46,2.7-3.19,2.52c-0.73-0.18,0.04-2.05,0.83-2.05
				C202.2,136.96,203.57,135.79,203.77,136.49z"/>
			<path class="st42" d="M201.15,141.94c0,0-1.28,0.81-1.05,0.81c0.24,0,2.33-0.03,2.46-0.2c0.13-0.17-1.01-0.39-0.94-0.51
				C201.69,141.92,201.35,141.81,201.15,141.94z"/>
			<path class="st42" d="M202.42,141.97c-0.05,0.01,0.96,0.45,1.45,0.5c0.49,0.05,4.19-0.17,4-0.38
				C207.69,141.87,203.11,141.81,202.42,141.97z"/>
			<g>
				<polygon class="st11" points="85.57,229.12 84.24,229.12 84.24,155.36 89.41,154.09 89.73,155.38 85.57,156.41 				"/>
			</g>
			<path class="st12" d="M91.27,172.38c0,0.94-0.76,1.7-1.7,1.7c-0.94,0-1.7-0.76-1.7-1.7c0-0.94,0.76-1.7,1.7-1.7
				C90.51,170.68,91.27,171.44,91.27,172.38z"/>
			<path class="st12" d="M109.65,172.38c0,0.94-0.76,1.7-1.7,1.7c-0.94,0-1.7-0.76-1.7-1.7c0-0.94,0.76-1.7,1.7-1.7
				C108.89,170.68,109.65,171.44,109.65,172.38z"/>
			<path class="st12" d="M91.27,183.03c0,0.94-0.76,1.7-1.7,1.7c-0.94,0-1.7-0.76-1.7-1.7c0-0.94,0.76-1.7,1.7-1.7
				C90.51,181.33,91.27,182.09,91.27,183.03z"/>
			<path class="st12" d="M109.65,183.03c0,0.94-0.76,1.7-1.7,1.7c-0.94,0-1.7-0.76-1.7-1.7c0-0.94,0.76-1.7,1.7-1.7
				C108.89,181.33,109.65,182.09,109.65,183.03z"/>
			<path class="st12" d="M91.27,193.81c0,0.94-0.76,1.71-1.7,1.71c-0.94,0-1.7-0.76-1.7-1.71c0-0.94,0.76-1.7,1.7-1.7
				C90.51,192.11,91.27,192.87,91.27,193.81z"/>
			<path class="st12" d="M109.65,193.81c0,0.94-0.76,1.71-1.7,1.71c-0.94,0-1.7-0.76-1.7-1.71c0-0.94,0.76-1.7,1.7-1.7
				C108.89,192.11,109.65,192.87,109.65,193.81z"/>
			<path class="st12" d="M91.27,204.59c0,0.94-0.76,1.7-1.7,1.7c-0.94,0-1.7-0.76-1.7-1.7c0-0.94,0.76-1.7,1.7-1.7
				C90.51,202.89,91.27,203.65,91.27,204.59z"/>
			<path class="st12" d="M109.65,204.59c0,0.94-0.76,1.7-1.7,1.7c-0.94,0-1.7-0.76-1.7-1.7c0-0.94,0.76-1.7,1.7-1.7
				C108.89,202.89,109.65,203.65,109.65,204.59z"/>
			<path class="st12" d="M91.27,215.11c0,0.94-0.76,1.7-1.7,1.7c-0.94,0-1.7-0.76-1.7-1.7c0-0.94,0.76-1.71,1.7-1.71
				C90.51,213.4,91.27,214.17,91.27,215.11z"/>
			<path class="st12" d="M109.65,215.11c0,0.94-0.76,1.7-1.7,1.7c-0.94,0-1.7-0.76-1.7-1.7c0-0.94,0.76-1.71,1.7-1.71
				C108.89,213.4,109.65,214.17,109.65,215.11z"/>
		</g>
		<g>
			<g>
				<path d="M205.3,381.7c0,0-1.6,3.85-2.95,5.38c-1.35,1.53-6.5,4.26-6.53,8.79c-0.03,4.92,8.7,3.55,12.11,3.37
					c3.41-0.18,3.67-2.81,5.11-5.59c1.44-2.78,2.89-2.31,3.15-4.56c0.27-2.25-1.1-7.27-1.1-7.27L205.3,381.7z"/>
			</g>
			<g>
				<path class="st33" d="M205.15,380.28l0.26,2.53c0,0,4.6,1.73,9.68,0l-0.03-3.18L205.15,380.28z"/>
			</g>
			<g>
				<path d="M256.76,381.7c0,0,1.6,3.85,2.94,5.38c1.35,1.53,6.5,4.26,6.53,8.79c0.03,4.92-8.7,3.55-12.11,3.37
					c-3.41-0.18-3.67-2.81-5.11-5.59c-1.44-2.78-2.88-2.31-3.16-4.56c-0.27-2.25,1.1-7.27,1.1-7.27L256.76,381.7z"/>
			</g>
			<g>
				<path class="st33" d="M256.91,380.28l-0.26,2.53c0,0-4.6,1.73-9.68,0l0.03-3.18L256.91,380.28z"/>
			</g>
			<g>
				<path class="st43" d="M264.14,317.25c0,6.06-4.68,63.41-4.68,63.41c-0.61,2.02-11.97,2.24-13.99,1.23
					c-2.02-1.01,0.17-58.41-0.2-64.52c-0.37-6.11-9.62-51.63-11.39-51.43c-1.77,0.2-7.66,50.6-9.08,55.24
					c-1.41,4.65-8.59,60.43-8.59,60.43c-4.45,2.63-13.78,0-13.78,0s1.74-57.91,1.99-59.62c0.38-2.53-0.02-9.34,1.01-24.46
					c0.92-13.52,4.24-42.97,6.35-58.91c0.08-0.57,0.15-1.11,0.22-1.63c0.41-3.1,0.72-5.38,0.87-6.48c0.06-0.47,0.1-0.72,0.1-0.72
					c0.57-0.26,1.16-0.5,1.78-0.72c14.8-5.32,43.34,0.31,43.34,0.31s0.02,0.14,0.05,0.41c0.04,0.32,0.1,0.82,0.17,1.47
					c0.16,1.41,0.41,3.5,0.69,5.93c0,0.02,0,0.03,0.01,0.05c0.01,0.07,0.02,0.15,0.03,0.22c1,8.65,2.4,21.31,2.27,22.63
					C261.11,262.1,264.14,311.19,264.14,317.25z"/>
			</g>
			<path class="st4" d="M244.35,375.13l0.72,6.77c0,0,0.62,0.95,7.2,1.14c6.58,0.19,7.63-2.14,7.63-2.14l0.29-6.1
				C260.18,374.79,254.41,377.56,244.35,375.13z"/>
			<path class="st4" d="M217.65,375.13l-0.71,6.77c0,0-0.62,0.95-7.2,1.14c-6.58,0.19-7.63-2.14-7.63-2.14l-0.29-6.1
				C201.82,374.79,207.59,377.56,217.65,375.13z"/>
			<g>
				<path class="st6" d="M258.85,235.77c0,0-0.35-20.4-0.09-26.09c0.38-8.34,1.45-16.1,2.68-21.03c0-0.01,0.01-0.02,0.01-0.03
					l0.01-0.05c0.32-1.28,0.62-2.39,0.88-3.29l7.4-27.69c-5.19-5.84-22.43-10.76-22.43-10.76h-12.22c0,0-21.42,6.6-26.67,8.62
					c-5.25,2.02-24.2,44.82-24.37,47.11c-0.18,2.47,17.93,35.38,17.93,35.38c6.6-0.94,9.67-6.33,9.67-6.33s-13.96-27.39-13.29-30.7
					c0.49-2.47,12.56-18.7,13.1-18.43c0.54,0.27,4.5,22.38,0.79,52.84C212.23,235.32,227.07,240.89,258.85,235.77z"/>
			</g>
			<g>
				<g>
					<g>
						<g>
							<g>
								<path class="st3" d="M211.36,248.55c0,0-1.2-0.48-1.6-0.92c0,0-0.65-0.85-1.15-1.43c-0.16-0.18-0.3-0.34-0.41-0.43
									c-0.44-0.38-1.55-1.1-2.3-2.3c-0.75-1.2-2.43-7.15-2.43-7.15l3.47-1.87l2.99-2.15c0,0,8.39,4,9.24,5.04
									c0.08,0.1,0.16,0.21,0.22,0.31c0.62,0.94,0.61,1.9,0.87,2.42c0.09,0.2,0.87,2.2,0.48,2.76c-0.54,0.78-1.26,1.15-1.96,1.19
									c0,0-1.13,1.49-2.42,1.88c0,0-0.99,1.4-2.73,1.49C213.63,247.39,212.44,248.72,211.36,248.55z"/>
							</g>
						</g>
					</g>
				</g>
			</g>
			<g>
				<polygon class="st11" points="226.68,230.17 225.34,230.17 225.34,156.41 230.51,155.14 230.83,156.43 226.68,157.46 				"/>
			</g>
			<g>
				<path class="st3" d="M316.32,205.92c0,0,5.32-0.36,6.13-0.39c0.81-0.03,2.75,1.17,4.85,2.74c2.1,1.57,4.23,4.63,4.2,5.08
					c-0.03,0.45,0.16,0.92-0.56,1.83c-0.71,0.91-1.82,1.29-1.82,1.29s-0.35,1.54-1.75,1.9c0,0-0.4,1.43-2.05,1.59
					c0,0-0.43,1.39-1.64,1.4c0,0-1.94-1.2-2.78-1.43c-0.85-0.24-4.39-3.35-7.68-6.58C313.21,213.34,309.11,210.27,316.32,205.92z"/>
			</g>
			<g>
				<g>
					<g>
						<g>
							<g>
								<g>
									<path class="st1" d="M231.01,129.66c0,0.01,0,0.01,0,0.01c0.68,2.82,1.65,5.57,2.84,7.97c4.12,8.32,17.12,11.17,21.35-8.48
										c0.8-3.72,0.96-6.84,0.71-9.45c-0.88-9.29-6.85-12.03-6.85-12.03c-4.58-1.21-12.93-1.73-16.86,3.75
										C229.41,115.34,229.34,122.73,231.01,129.66z"/>
								</g>
							</g>
						</g>
					</g>
				</g>
			</g>
			<g>
				<g>
					<g>
						<g>
							<g>
								<g>
									<path class="st44" d="M231.01,129.66c0,0.01,0,0.01,0,0.01s0.63,0.31,4.04-4.05c0.68-0.88,0.91-0.1,1.21-0.49l4.14-0.71
										c0,0-1.9-4.28,3.42-5.02c5.43-0.76,12.1,0.31,12.1,0.31c-0.88-9.29-6.85-12.03-6.85-12.03
										c-4.58-1.21-12.93-1.73-16.86,3.75C229.41,115.34,229.34,122.73,231.01,129.66z"/>
								</g>
							</g>
						</g>
					</g>
				</g>
			</g>
			<g>
				<g>
					<g>
						<g>
							<g>
								<g>
									<path class="st1" d="M237.65,122.34c-0.01-1.37-2.38-3.04-4.07-0.44c-1.68,2.6,1.4,6.36,2.5,5.94
										C237.18,127.43,237.67,124.62,237.65,122.34z"/>
								</g>
							</g>
						</g>
					</g>
				</g>
			</g>
			<g>
				<path class="st6" d="M312.42,214.42c0,0-21.47-10.27-26.62-13.59c-2.33-1.51-7.85-5.38-11.22-9.76
					c-1.11-1.44-2.2-2.96-3.24-4.45c0-0.01,0-0.01,0-0.01c-4.14-5.98-7.39-11.72-7.39-11.72s-12.25-14.35-2.42-20.75
					c0,0,4.71-0.32,7.99,3.2c3.28,3.51,5.98,9.83,6.83,11.7c0.86,1.87,8.58,11.29,9.21,11.68c0.62,0.39,6.71,9.19,10.57,10.93
					c4.8,2.16,22.94,13.39,22.94,13.39L312.42,214.42z"/>
			</g>
			<g>
				<path class="st1" d="M247.08,137.95c0,0-0.31,7.35,0.4,8.94c0.71,1.59-5.61,9.89-15.62,0.94c0,0,1.65-8.99,1.24-11.81
					C232.69,133.18,247.08,137.95,247.08,137.95z"/>
			</g>
			<path class="st6" d="M201.97,237.94c0,0,7.55-0.66,9.67-6.33c0,0-9.17-18.88-10.42-21.92l-9.37,9.41L201.97,237.94z"/>
			<path class="st10" d="M247.03,143.05c0,0-6.07,3.51-11.91-3.35c0,0,2.17,6.29,6.49,6.39
				C245.93,146.19,247.03,143.05,247.03,143.05z"/>
			<path class="st6" d="M230.34,116.08c0,0,13.8,2.09,24.69-0.72l0.76-19.7c0,0-12.12-2.32-28,0L230.34,116.08z"/>
			<path class="st6" d="M259.99,93.31c0,4.78-3.87,8.65-8.65,8.65c-4.78,0-8.66-3.87-8.66-8.65c0-4.78,3.88-8.66,8.66-8.66
				C256.11,84.66,259.99,88.53,259.99,93.31z"/>
			<path class="st6" d="M250.46,91.07c0,4.78-3.88,8.66-8.66,8.66c-4.78,0-8.65-3.88-8.65-8.66c0-4.78,3.87-8.65,8.65-8.65
				C246.59,82.41,250.46,86.29,250.46,91.07z"/>
			<path class="st6" d="M240.9,93.72c0,4.78-3.88,8.65-8.65,8.65c-4.78,0-8.65-3.87-8.65-8.65c0-4.78,3.87-8.66,8.65-8.66
				C237.03,85.07,240.9,88.94,240.9,93.72z"/>
			<path class="st45" d="M299.56,206.33c-9.98,0-10.34,9.45-10.34,9.45h19.08C308.29,215.78,309.54,206.33,299.56,206.33z"/>
			<path class="st46" d="M310.25,211.05c-4.63-0.45-5.17,4.73-5.17,4.73h9.98C315.07,215.78,314.89,211.5,310.25,211.05z"/>
			<path class="st47" d="M315.25,211.05c-4.64-0.45-5.17,4.73-5.17,4.73h9.99C320.06,215.78,319.88,211.5,315.25,211.05z"/>
			<path class="st48" d="M339.32,207.4c3.39-8.38-10.16-9.81-11.06-4.28c-0.89,5.53-10.16,12.66-10.16,12.66l16.23,3.21
				C334.33,218.98,335.93,215.78,339.32,207.4z"/>
			<path class="st49" d="M332.82,199.58c-5.34-0.24-8.12,5.49-8.12,5.49s7.94-3.6,8.47-1.86c0.53,1.74,1.69,6.77,1.69,6.77
				s1.34-7.78,1.71-6.56c0.37,1.22,4.36,3.26,4.36,3.26c0.27-4.67-4.36-6.53-4.36-6.53S338.16,199.82,332.82,199.58z"/>
			<path class="st50" d="M292.78,238.96h39.05c0.34-0.21,0.67-0.44,0.99-0.71c6.67-5.56,6.5-22.47,6.5-22.47h-53.49
				C284.58,234.5,292.78,238.96,292.78,238.96z"/>
			<path class="st51" d="M285.83,215.78c-1.25,18.72,6.95,23.18,6.95,23.18h39.05c0.34-0.21,0.67-0.44,0.99-0.71
				c-25.18-2.86-21.89-22.47-21.89-22.47H285.83z"/>
			<g>
				<path class="st3" d="M322.63,205.63c0,0,2.1,4.04,2.28,6.76c0.04,0.61-0.03,1.22-0.59,1.48c-0.55,0.27-1.65-0.19-2.65-1.9
					c-1-1.71-3.07-3.45-3.07-3.45S318.09,206.47,322.63,205.63z"/>
			</g>
			<path class="st12" d="M232.37,173.43c0,0.94-0.76,1.7-1.7,1.7c-0.94,0-1.7-0.76-1.7-1.7c0-0.94,0.76-1.7,1.7-1.7
				C231.61,171.72,232.37,172.49,232.37,173.43z"/>
			<path class="st12" d="M250.76,173.43c0,0.94-0.76,1.7-1.7,1.7c-0.94,0-1.7-0.76-1.7-1.7c0-0.94,0.76-1.7,1.7-1.7
				C249.99,171.72,250.76,172.49,250.76,173.43z"/>
			<path class="st12" d="M232.37,184.08c0,0.94-0.76,1.7-1.7,1.7c-0.94,0-1.7-0.76-1.7-1.7c0-0.94,0.76-1.7,1.7-1.7
				C231.61,182.37,232.37,183.14,232.37,184.08z"/>
			<path class="st12" d="M250.76,184.08c0,0.94-0.76,1.7-1.7,1.7c-0.94,0-1.7-0.76-1.7-1.7c0-0.94,0.76-1.7,1.7-1.7
				C249.99,182.37,250.76,183.14,250.76,184.08z"/>
			<path class="st12" d="M232.37,194.86c0,0.94-0.76,1.71-1.7,1.71c-0.94,0-1.7-0.76-1.7-1.71c0-0.94,0.76-1.7,1.7-1.7
				C231.61,193.15,232.37,193.92,232.37,194.86z"/>
			<path class="st12" d="M250.76,194.86c0,0.94-0.76,1.71-1.7,1.71c-0.94,0-1.7-0.76-1.7-1.71c0-0.94,0.76-1.7,1.7-1.7
				C249.99,193.15,250.76,193.92,250.76,194.86z"/>
			<path class="st12" d="M232.37,205.64c0,0.94-0.76,1.7-1.7,1.7c-0.94,0-1.7-0.76-1.7-1.7c0-0.94,0.76-1.7,1.7-1.7
				C231.61,203.94,232.37,204.7,232.37,205.64z"/>
			<path class="st12" d="M250.76,205.64c0,0.94-0.76,1.7-1.7,1.7c-0.94,0-1.7-0.76-1.7-1.7c0-0.94,0.76-1.7,1.7-1.7
				C249.99,203.94,250.76,204.7,250.76,205.64z"/>
		</g>
		<g>
			<g>
				<g>
					<path class="st3" d="M451.76,189.34l12.55,0.34c-1.06-0.67-2.77-1.87-2.36-2.37c0.58-0.72,4.07,1.03,5.51,1.23
						c1.32,0.18,3.54,0.1,5.2,0.77l3.9,1.83l-3.75,3.23c0,0-6.6,0.7-8.52,0.77c-3.13,0.11-12.55-3.96-12.69-4.53
						C451.35,189.58,451.76,189.34,451.76,189.34z"/>
				</g>
			</g>
			<path class="st3" d="M577.32,241.75c0,0-0.18,2.54-0.5,3.51c-0.55,1.68-1.83,3.95-0.73,6.24c1.1,2.29,9.35,0.85,10.6-0.22
				c1.25-1.07,0.74-4.58-2.14-9.07C581.67,237.71,577.32,241.75,577.32,241.75z"/>
			<path class="st3" d="M575.83,250.68c0,0,0.08,3.78,0.69,7.97c0.53,3.68,1.71,8.17,2.64,8.05c1.41-0.19,0.02-3.76-0.26-7.44
				c-0.26-3.39,0.37-2.76,0.37-2.76s-0.19-0.17,0.82,3.47c1.08,3.91,2.41,8.07,3.18,7.99c0.94-0.11,1.05-0.2,0.89-1.68
				c0.28,0.83,0.55,0.88,0.91,0.8c1.88-0.42,1.19-6.42,0.91-8.8c0.22,1.83,0.58,3.14,1.56,2.14c1.12-1.14-0.24-9.58-0.43-12.65
				C586.89,244.4,575.83,250.68,575.83,250.68z"/>
			<path d="M568.32,380.34c0,0,2.23,4.15,3.68,5.8c1.45,1.65,7.02,4.6,7.05,9.49c0.03,5.31-9.39,3.83-13.07,3.64
				c-3.68-0.19-3.96-3.03-5.52-6.03c-1.55-3.01-3.11-2.5-3.41-4.92c-0.29-2.42,1.5-7.97,1.5-7.97H568.32z"/>
			<g>
				<path class="st52" d="M558.69,378.73c0,0-0.43,2.27-0.35,2.32c0.08,0.06,10.44,1.9,10.38,0.02c-0.05-1.49-0.96-3.24-0.96-3.24
					L558.69,378.73z"/>
			</g>
			<g>
				<path d="M512.2,379.55c0,0-4.54,5.07-9.15,6.13c-4.61,1.06-7.83,2.41-7.87,5.32c-0.03,2.91,13.26,4.82,18.54,1.89
					c7.87-4.38,8.67-3.05,9.54-5.24c0.87-2.19-1.05-8.04-0.99-8.73C522.35,378.06,512.2,379.55,512.2,379.55z"/>
			</g>
			<g>
				<path class="st52" d="M512.71,377.13c0,0-0.6,2.37-0.51,2.42c0.09,0.05,10.39,1.28,10.08-0.63c-0.25-1.55-0.61-3.23-0.61-3.23
					L512.71,377.13z"/>
			</g>
			<g>
				<g>
					<path class="st43" d="M522.07,234.99c0,0-3.75,36.37-5.69,48.81c-2.28,14.55-3.05,26.58-3.68,34.11
						c-0.8,9.47-0.95,56.09-1.51,58.86c-0.56,2.77,12.4,0.77,12.4,0.77s6.38-60.9,8.76-71c2.21-9.4,10.44-49.85,12.46-47.29
						c2.02,2.57,4.53,47.21,6.03,54.62c1.5,7.41,6.05,65.43,6.05,65.43s10.32,2.05,13.06-0.27c0,0,1.25-50,0.3-63.9
						c-0.36-5.3,6.2-63.49-2.22-86.91C563.56,215.85,522.07,234.99,522.07,234.99z"/>
				</g>
			</g>
			<g>
				<path class="st6" d="M521.29,242.46c27.98,5.4,49.64-1.2,49.64-1.2s-2.76-28.46-2.61-35.94c0.14-7.21,4.18-22.21,4.48-23.29
					c0-0.01,0-0.02,0-0.03c0,0,0-0.01,0-0.02c0-0.02,0-0.02,0-0.02s3,14.46,3.08,19.93c0.1,6.75-1.67,40.12,0.98,40.61
					c2.64,0.49,10.47-0.8,10.47-0.8s0.55-38.19,0.13-43.33c-0.23-2.86-5.3-43.66-7.7-45.38c-1.64-1.18-11.91-5.29-17.23-7.31
					c-2.46-0.94-4.34-1.59-4.72-1.62c-1.22-0.08-16.24,1.37-16.24,1.37s-2.15,0.74-4.36,1.75c-3.76,1.72-9.06,3.8-13.26,5.8
					c-1.36,0.64-3.17,1.57-4.58,2.31c0.17,5.11,0.02,11.15,0.46,17.01c0,0,2.77,13.25,2.84,26.16
					C522.67,198.46,521.75,231.19,521.29,242.46z"/>
			</g>
			<g>
				<path class="st1" d="M546.84,106.69c0,0-11.15,1.88-9.26,19.34c1.89,17.46,11.74,15.92,12.4,15.9
					c0.66-0.02,9.9,0.21,10.39-21.14C560.36,120.79,560.51,105,546.84,106.69z"/>
			</g>
			<g>
				<path class="st1" d="M541.95,136.87c0,0,0,7.19-0.3,8.75c-0.32,1.68,8.96,6.51,14.94,0.88c0,0-1.21-7.86-0.83-10.63
					C556.14,133.09,541.95,136.87,541.95,136.87z"/>
			</g>
			<g>
				<path class="st1" d="M537.53,121.97c0,0-1.24-1.29-1.67,0.04c-0.43,1.33,1.57,6.94,1.83,7.48c0,0,0.23,0.51,0.52,0.22
					C538.5,129.42,537.53,121.97,537.53,121.97z"/>
			</g>
			<g>
				<path class="st1" d="M560.24,120.63c0,0,1.18-1.34,1.67-0.03c0.49,1.31-1.29,7.19-1.52,7.55c0,0-0.38,0.6-0.68,0.33
					C559.4,128.2,560.24,120.63,560.24,120.63z"/>
			</g>
			<g>
				<path class="st53" d="M536.64,119.61c0.38,2.39,0.75,4.17,0.75,4.17l1.62,2.12c0,0-0.1-4.69,0.15-5.42
					c0.09-0.28,0.2-0.77,0.32-1.31c0.19-0.88,0.38-1.88,0.51-2.21c0.21-0.53,9.56-3.26,17.89,0.57c0,0-0.07,0.72-0.06,1.53
					c0,0.94,0.11,1.98,0.53,2.14c0.8,0.29,0.47,5.49,0.47,5.49l1.3-1.5c0,0,0.38-2.71,0.75-5.83c0,0,0-0.01,0-0.02
					c0.08-0.73,0.17-1.48,0.25-2.22c0.19-3.14-0.12-8.83-4.21-12.18c-2.76-1.18-7.16-2.18-14.49,0.06c0,0-1.83,0.52-2.3,0.97
					C535.53,111,536.64,119.61,536.64,119.61z"/>
			</g>
			<path class="st54" d="M555,139.6c0,0-1.78,2.47-5.92,2.38c-4.14-0.09-5.93-2.25-5.93-2.25s1.96,4.09,5.95,4.05
				C553.1,143.74,555,139.6,555,139.6z"/>
			<path class="st55" d="M541.22,151.08l4.16,3.08c0,0-3.5-7.41-3.57-10.38L541.22,151.08z"/>
			<polygon class="st56" points="541.82,143.78 538.99,146.41 536.01,155.29 541.22,151.08 			"/>
			<g>
				<path class="st6" d="M471.35,196.43c0,0,24.56,6.47,30.57,4.99c2.78-0.68,6.43-4.51,9.91-9.02c1.14-1.48,2.27-3.04,3.34-4.58
					c0,0,0-0.01,0-0.01c4.26-6.16,7.6-12.05,7.6-12.05s12.6-14.76,2.49-21.35c0,0-4.26-0.43-6.69,1.36
					c-2.24,1.65-7.68,12.05-8.57,13.97c-0.88,1.92-10.46,19.82-11.1,20.22c-0.64,0.4-8.85-1.07-13.19-1.43
					c-7.07-0.59-12.95-2.39-12.95-2.39L471.35,196.43z"/>
			</g>
			<path class="st1" d="M542.36,146.43c0,0,1.15,4.04,3.03,7.73c0,0,4.37-3.83,5.74-5.19C552.5,147.61,542.36,146.43,542.36,146.43z
				"/>
			<path class="st55" d="M549.96,149.88l-4.57,4.28c0,0,5.4-0.36,6.41-1.26L549.96,149.88z"/>
			<path class="st56" d="M556.02,142c0,0-3.66,5.94-6.06,7.88l4.05,6.73l6.5-11.81L556.02,142z"/>
			<path class="st14" d="M421.77,181.4c0,6.06,15.5,10.98,34.63,10.98c19.12,0,34.63-4.91,34.63-10.98
				c0-6.06-15.5-10.98-34.63-10.98C437.27,170.43,421.77,175.34,421.77,181.4z"/>
			<g>
				<path class="st57" d="M426.4,181.4c0,5.25,13.43,9.51,29.99,9.51s30-4.26,30-9.51c0-5.25-13.43-9.51-30-9.51
					S426.4,176.15,426.4,181.4z"/>
			</g>
			<g>
				<path class="st58" d="M429.68,181.4c0,4.68,11.96,8.47,26.71,8.47c14.75,0,26.71-3.79,26.71-8.47s-11.96-8.47-26.71-8.47
					C441.64,172.94,429.68,176.73,429.68,181.4z"/>
			</g>
			<g>
				<path class="st59" d="M456.4,186.18c0,1.09,2.8,1.98,6.26,1.98c3.46,0,6.26-0.89,6.26-1.98c0-1.1-2.8-1.98-6.26-1.98
					C459.21,184.2,456.4,185.09,456.4,186.18z"/>
			</g>
			<g>
				<path class="st59" d="M440.74,185.51c0,1.1,2.8,1.99,6.26,1.99c3.45,0,6.26-0.89,6.26-1.99c0-1.09-2.8-1.98-6.26-1.98
					C443.54,183.53,440.74,184.42,440.74,185.51z"/>
			</g>
			<g>
				<path class="st60" d="M445.3,185.81c0,0.56,1.43,1.01,3.19,1.01c1.76,0,3.19-0.45,3.19-1.01c0-0.56-1.43-1.01-3.19-1.01
					C446.73,184.8,445.3,185.25,445.3,185.81z"/>
			</g>
			<g>
				<path class="st61" d="M452.4,182.89c0,0.35,0.88,0.62,1.97,0.62c1.09,0,1.97-0.28,1.97-0.62c0-0.35-0.88-0.62-1.97-0.62
					C453.28,182.26,452.4,182.54,452.4,182.89z"/>
			</g>
			<g>
				<path class="st61" d="M472.09,178.18c0,0.35,0.88,0.62,1.97,0.62c1.09,0,1.97-0.28,1.97-0.62c0-0.35-0.88-0.62-1.97-0.62
					C472.97,177.56,472.09,177.84,472.09,178.18z"/>
				<path class="st61" d="M454.94,174.84c0,0.35,0.88,0.62,1.97,0.62c1.09,0,1.97-0.28,1.97-0.62c0-0.35-0.88-0.62-1.97-0.62
					C455.82,174.22,454.94,174.49,454.94,174.84z"/>
				<path class="st61" d="M435.53,184.56c0,0.35,0.88,0.63,1.97,0.63c1.09,0,1.97-0.28,1.97-0.63c0-0.34-0.88-0.62-1.97-0.62
					C436.41,183.94,435.53,184.22,435.53,184.56z"/>
			</g>
			<g>
				<path class="st60" d="M460.12,186.53c0,0.56,1.43,1.01,3.19,1.01c1.76,0,3.19-0.45,3.19-1.01c0-0.56-1.43-1.01-3.19-1.01
					C461.55,185.51,460.12,185.97,460.12,186.53z"/>
			</g>
			<g>
				<path class="st59" d="M467.42,181.95c0,1.09,2.8,1.98,6.26,1.98c3.45,0,6.26-0.89,6.26-1.98c0-1.1-2.8-1.98-6.26-1.98
					C470.22,179.97,467.42,180.86,467.42,181.95z"/>
			</g>
			<g>
				<path class="st59" d="M457.81,177.02c0,1.09,2.8,1.98,6.26,1.98c3.46,0,6.26-0.89,6.26-1.98c0-1.1-2.8-1.98-6.26-1.98
					C460.62,175.03,457.81,175.92,457.81,177.02z"/>
			</g>
			<g>
				<path class="st59" d="M442.97,176.2c0,1.09,2.8,1.98,6.26,1.98c3.46,0,6.26-0.89,6.26-1.98c0-1.1-2.8-1.98-6.26-1.98
					C445.77,174.22,442.97,175.1,442.97,176.2z"/>
			</g>
			<g>
				<path class="st59" d="M432.15,180.57c0,1.1,2.8,1.98,6.26,1.98c3.46,0,6.26-0.89,6.26-1.98c0-1.09-2.8-1.98-6.26-1.98
					C434.95,178.59,432.15,179.48,432.15,180.57z"/>
			</g>
			<g>
				<path class="st60" d="M436.76,180.86c0,0.56,1.43,1.01,3.19,1.01c1.76,0,3.19-0.45,3.19-1.01c0-0.56-1.43-1.01-3.19-1.01
					C438.19,179.84,436.76,180.3,436.76,180.86z"/>
			</g>
			<g>
				<path class="st60" d="M433.48,179.84c0,0.26,0.65,0.46,1.45,0.46c0.8,0,1.45-0.2,1.45-0.46c0-0.25-0.65-0.46-1.45-0.46
					C434.13,179.39,433.48,179.59,433.48,179.84z"/>
			</g>
			<g>
				<path class="st60" d="M443.81,176.2c0,0.56,1.43,1.01,3.19,1.01c1.76,0,3.19-0.45,3.19-1.01c0-0.56-1.43-1.01-3.19-1.01
					C445.24,175.19,443.81,175.64,443.81,176.2z"/>
			</g>
			<g>
				<path class="st60" d="M468.66,182.03c0,0.52,1.32,0.93,2.94,0.93s2.94-0.42,2.94-0.93c0-0.52-1.32-0.93-2.94-0.93
					S468.66,181.52,468.66,182.03z"/>
			</g>
			<g>
				<path class="st60" d="M474.82,181.63c0,0.38,0.98,0.69,2.18,0.69c1.2,0,2.18-0.31,2.18-0.69c0-0.38-0.98-0.69-2.18-0.69
					C475.8,180.94,474.82,181.25,474.82,181.63z"/>
			</g>
			<g>
				<path class="st60" d="M458.71,177.42c0,0.45,1.14,0.81,2.54,0.81c1.4,0,2.54-0.36,2.54-0.81c0-0.44-1.14-0.81-2.54-0.81
					C459.85,176.61,458.71,176.97,458.71,177.42z"/>
			</g>
			<g>
				<ellipse class="st60" cx="466.61" cy="176.61" rx="2.54" ry="0.81"/>
			</g>
			<path class="st59" d="M456.6,180.95c0,0,0.34-1.03,4.7-1.03c4.35,0,5.2,1.03,5.2,1.03h-3.79c-0.13,0.72-0.48,1.93-1.41,1.93
				c-0.99,0-1.28-1.29-1.36-1.93H456.6z"/>
			<path class="st59" d="M445.27,180.01c0,0,0.23-0.67,3.06-0.67c2.84,0,3.39,0.67,3.39,0.67h-2.47c-0.08,0.47-0.31,1.26-0.92,1.26
				c-0.65,0-0.83-0.84-0.89-1.26H445.27z"/>
			<path class="st6" d="M560.92,118.81c0,0-13.5,1.93-24.4-0.88l-0.99-19.76c0,0,12.12-2.32,28,0L560.92,118.81z"/>
			<path class="st6" d="M531.33,95.83c0,4.78,3.88,8.66,8.66,8.66c4.78,0,8.65-3.88,8.65-8.66c0-4.78-3.87-8.66-8.65-8.66
				C535.21,87.17,531.33,91.05,531.33,95.83z"/>
			<path class="st6" d="M540.86,93.58c0,4.78,3.87,8.65,8.65,8.65c4.78,0,8.66-3.87,8.66-8.65c0-4.78-3.88-8.66-8.66-8.66
				C544.73,84.93,540.86,88.8,540.86,93.58z"/>
			<path class="st6" d="M550.42,96.24c0,4.78,3.87,8.66,8.65,8.66c4.78,0,8.66-3.88,8.66-8.66c0-4.78-3.88-8.66-8.66-8.66
				C554.29,87.58,550.42,91.46,550.42,96.24z"/>
			<g>
				<polygon class="st11" points="554.86,240.08 556.19,240.08 556.19,159.87 547.1,155.36 546.51,156.55 554.86,160.69 				"/>
			</g>
			<path class="st12" d="M549.24,169.44c0,0.93,0.75,1.68,1.68,1.68c0.93,0,1.68-0.75,1.68-1.68c0-0.93-0.75-1.68-1.68-1.68
				C549.99,167.76,549.24,168.51,549.24,169.44z"/>
			<path class="st12" d="M534.12,169.34c0,0.93,0.75,1.68,1.68,1.68c0.93,0,1.68-0.75,1.68-1.68c0-0.93-0.75-1.68-1.68-1.68
				C534.87,167.66,534.12,168.41,534.12,169.34z"/>
			<path class="st12" d="M549.24,179.95c0,0.93,0.75,1.68,1.68,1.68c0.93,0,1.68-0.75,1.68-1.68c0-0.93-0.75-1.68-1.68-1.68
				C549.99,178.27,549.24,179.02,549.24,179.95z"/>
			<path class="st12" d="M534.12,179.86c0,0.93,0.75,1.68,1.68,1.68c0.93,0,1.68-0.75,1.68-1.68c0-0.93-0.75-1.68-1.68-1.68
				C534.87,178.17,534.12,178.93,534.12,179.86z"/>
			<path class="st12" d="M549.24,190.6c0,0.93,0.75,1.68,1.68,1.68c0.93,0,1.68-0.75,1.68-1.68c0-0.93-0.75-1.68-1.68-1.68
				C549.99,188.91,549.24,189.67,549.24,190.6z"/>
			<path class="st12" d="M534.12,190.5c0,0.93,0.75,1.68,1.68,1.68c0.93,0,1.68-0.75,1.68-1.68c0-0.93-0.75-1.68-1.68-1.68
				C534.87,188.82,534.12,189.57,534.12,190.5z"/>
			<path class="st12" d="M549.24,201.24c0,0.93,0.75,1.68,1.68,1.68c0.93,0,1.68-0.75,1.68-1.68c0-0.93-0.75-1.68-1.68-1.68
				C549.99,199.56,549.24,200.31,549.24,201.24z"/>
			<path class="st12" d="M534.12,201.14c0,0.93,0.75,1.68,1.68,1.68c0.93,0,1.68-0.75,1.68-1.68c0-0.93-0.75-1.68-1.68-1.68
				C534.87,199.46,534.12,200.22,534.12,201.14z"/>
			<path class="st12" d="M549.24,213.54c0,0.93,0.75,1.68,1.68,1.68c0.93,0,1.68-0.75,1.68-1.68c0-0.93-0.75-1.68-1.68-1.68
				C549.99,211.86,549.24,212.61,549.24,213.54z"/>
			<circle class="st12" cx="535.8" cy="213.44" r="1.68"/>
			<path class="st12" d="M549.24,225.93c0,0.93,0.75,1.68,1.68,1.68c0.93,0,1.68-0.75,1.68-1.68c0-0.93-0.75-1.68-1.68-1.68
				C549.99,224.25,549.24,225,549.24,225.93z"/>
			<path class="st12" d="M534.12,225.84c0,0.93,0.75,1.68,1.68,1.68c0.93,0,1.68-0.75,1.68-1.68c0-0.93-0.75-1.68-1.68-1.68
				C534.87,224.16,534.12,224.91,534.12,225.84z"/>
		</g>
		<g>
			<rect x="176.44" y="246.09" class="st62" width="9.27" height="153.51"/>
			<rect x="430.71" y="246.09" class="st62" width="9.27" height="153.51"/>
			<g>
				<path class="st63" d="M184.22,239.01h16.85h4.26c0,0,11.87-14.84,9.9-15.85c-5.15-2.64-23.36-0.8-23.36-0.8l0,0
					c-2.07,0.12-4.23,0.35-6.25,0.7c-7.19,1.26-2.32,4.06-2.32,4.06v11.89H184.22z"/>
				<path class="st64" d="M214.53,239.01V227c0,0,1.13-2.1,0.95-3.49c-0.18-1.39-9.21-1.71-16.4-0.45
					c-7.19,1.26-2.32,4.06-2.32,4.06v11.89H214.53z"/>
				<path class="st65" d="M200.56,237.44c0.89,0.02,11.11-0.09,11.29-0.57c0.18-0.48,0.77-9.95,1.01-10.71
					c0.24-0.76,0.06-1.95-1.07-1.95c-1,0-5.79-0.46-11.31,0.43c-0.87,0.14-1.29,1.13-0.8,1.86c0.26,0.39,0.48,0.82,0.51,1.22
					C200.32,228.96,199.67,237.41,200.56,237.44z"/>
				<rect x="183.3" y="227.12" class="st66" width="13.46" height="11.89"/>
			</g>
			<g>
				<g>
					<path class="st67" d="M256.83,219.41l-9.58-2.05c0.01-0.04,0.03-0.07,0.03-0.1c0.06-0.66-0.44-1.24-1.1-1.3
						c-0.66-0.05-1.24,0.44-1.3,1.1c-0.02,0.3,0.08,0.58,0.24,0.81c-0.39,0.17-0.69,0.53-0.73,0.99c-0.05,0.66,0.44,1.24,1.1,1.3
						c0.46,0.04,0.87-0.2,1.11-0.57l9.74,2.09L256.83,219.41z"/>
					<path class="st68" d="M274.43,215.47L274.43,215.47L274.43,215.47c-0.76-0.33-1.59-0.54-2.46-0.61
						c-1.26-0.11-2.47,0.1-3.58,0.54c-5.96,0-14.33,0.23-15.38,1.44c0,0-0.01,0.01-0.01,0.01c-1.06,0.65-1.82,1.78-1.93,3.12
						c-0.16,1.91,1.04,3.61,2.78,4.18c0,0,0.01,0.01,0.01,0.01s7.88,2.81,13.29,5.27c0.51,0.32,1.06,0.58,1.64,0.77l0,0
						c0.34,0.17,0.66,0.25,0.96,0.26c0.3,0.06,0.61,0.11,0.93,0.14c4.35,0.36,8.16-2.88,8.52-7.22
						C279.49,219.9,277.47,216.77,274.43,215.47z"/>
					<path class="st69" d="M282.69,235.26c4.8-1.21,10.88-9.61,4.89-15.2c-5.98-5.59-10.88-11.84-24.48-5.81
						c-13.6,6.03-18.86,16.09-15.23,19C251.5,236.16,273.8,237.5,282.69,235.26z"/>
					<path class="st67" d="M246.6,224.14l-9.72-1.26c0-0.04,0.02-0.07,0.02-0.1c0-0.67-0.54-1.2-1.2-1.2s-1.2,0.54-1.2,1.2
						c0,0.3,0.12,0.57,0.31,0.78c-0.38,0.2-0.64,0.59-0.64,1.05c0,0.66,0.54,1.2,1.2,1.2c0.46,0,0.86-0.27,1.06-0.66l9.88,1.28
						L246.6,224.14z"/>
					<path class="st68" d="M263.82,218.76L263.82,218.76L263.82,218.76c-0.79-0.26-1.63-0.41-2.5-0.41c-1.27,0-2.46,0.31-3.52,0.83
						c-5.94,0.49-14.27,1.4-15.21,2.7c0,0.01-0.01,0.01-0.01,0.02c-1.01,0.74-1.67,1.92-1.67,3.26c0,1.91,1.33,3.51,3.11,3.94
						c0,0,0,0.01,0,0.01s8.09,2.15,13.69,4.16c0.53,0.28,1.1,0.49,1.69,0.64l0,0c0.35,0.14,0.67,0.19,0.97,0.18
						c0.31,0.04,0.62,0.06,0.94,0.06c4.36,0,7.9-3.53,7.9-7.9C269.22,222.76,266.95,219.81,263.82,218.76z"/>
					<path class="st68" d="M279.23,229.82c0,1.48-1.2,2.68-2.68,2.68c-1.48,0-2.68-1.2-2.68-2.68c0-1.48,1.2-2.68,2.68-2.68
						C278.03,227.14,279.23,228.34,279.23,229.82z"/>
					<path class="st68" d="M286.38,227.14c0,1.48-1.2,2.68-2.68,2.68s-2.68-1.2-2.68-2.68c0-1.48,1.2-2.68,2.68-2.68
						S286.38,225.66,286.38,227.14z"/>
					<path class="st68" d="M285.38,225.05c0,0-6.65-4.89-4.56-5.44c1.51-0.39,2.63-0.3,2.63-0.3s1.01-0.56-1-0.71
						c-2.13-0.16-7.3,0.52-5.52,3.63c1.79,3.11,3.46,4.34,1.86,4.49c-1.6,0.15-3.21,0.39-3.75,0.87c-0.54,0.49,0.77,5.13,1.71,4.89
						c0.94-0.25,9.76-2.11,9.76-4.5C286.5,225.71,285.38,225.05,285.38,225.05z"/>
				</g>
				<rect x="233.24" y="234.32" class="st70" width="63.83" height="4.63"/>
				<polygon class="st71" points="266.14,234.32 233.24,234.32 233.24,238.96 268.27,238.96 				"/>
			</g>
			<g>
				<rect x="176.44" y="238.96" class="st72" width="263.54" height="17.83"/>
				<rect x="176.44" y="246.74" class="st73" width="263.54" height="47.72"/>
			</g>
		</g>
	</g>
	<path class="st74" d="M328.57,250.5c-6.53,0-12.67,3.2-16.41,8.57c-0.95,1.36-0.62,3.24,0.75,4.19c1.36,0.95,3.24,0.62,4.19-0.75
		c2.62-3.75,6.91-5.99,11.47-5.99c7.71,0,13.98,6.27,13.98,13.98c0,7.71-6.27,13.98-13.98,13.98c-4.56,0-8.85-2.24-11.47-5.98
		l-0.4-0.58c-0.03-0.04-0.05-0.09-0.08-0.13l-7.29-10.67l-5.47-8.01c-0.01-0.01-0.02-0.03-0.02-0.04
		c-3.74-5.37-9.88-8.57-16.41-8.57c-11.03,0-20,8.97-20,20c0,11.03,8.97,20,20,20c6.53,0,12.66-3.2,16.4-8.55
		c0.95-1.36,0.62-3.24-0.74-4.19c-1.36-0.95-3.24-0.62-4.19,0.74c-2.62,3.75-6.9,5.98-11.47,5.98c-7.71,0-13.98-6.27-13.98-13.98
		c0-7.71,6.27-13.98,13.98-13.98c4.53,0,8.79,2.21,11.41,5.91c0.01,0.02,0.02,0.04,0.04,0.06l5.52,8.08l7.75,11.35
		c0,0,0.01,0.01,0.01,0.01c0,0.01,0.01,0.01,0.01,0.02c3.74,5.36,9.88,8.55,16.4,8.55c11.03,0,20-8.97,20-20
		C348.57,259.47,339.6,250.5,328.57,250.5z"/>
</g>
</svg>
