<?xml version="1.0" encoding="utf-8"?>
<!-- Generator: Adobe Illustrator 23.0.5, SVG Export Plug-In . SVG Version: 6.00 Build 0)  -->
<svg version="1.0" id="Layer_1" xmlns="http://www.w3.org/2000/svg" xmlns:xlink="http://www.w3.org/1999/xlink" x="0px" y="0px"
	 viewBox="0 0 624 420" style="enable-background:new 0 0 624 420;" xml:space="preserve">
<style type="text/css">
	.st0{opacity:0.15;fill:#35B24A;}
	.st1{fill:#00A26D;}
	.st2{fill:#163560;}
	.st3{fill:#C65447;}
	.st4{fill:#E49963;}
	.st5{fill:#008253;}
	.st6{fill:#D68D5D;}
	.st7{fill:#FFFFFF;}
	.st8{fill:#A86337;}
	.st9{fill:#DCE3F1;}
	.st10{fill:#E57970;}
	.st11{fill:#1C468A;}
	.st12{fill:#B77446;}
	.st13{fill:#7AF4C5;}
	.st14{fill:#365DA4;}
	.st15{fill:#285493;}
	.st16{fill:#80BDCC;}
	.st17{fill:#5F9AA8;}
	.st18{fill:#EE9849;}
	.st19{fill:#E58638;}
	.st20{fill:#CE6D25;}
	.st21{fill:#D38957;}
	.st22{fill:#2F5791;}
	.st23{fill:#B74B42;}
	.st24{fill:#C45446;}
	.st25{fill:#E37970;}
	.st26{fill:#ED975D;}
	.st27{fill:#015E3A;}
	.st28{fill:#699DEE;}
	.st29{fill:#3B76CA;}
	.st30{fill:#DDE3F2;}
	.st31{opacity:0.2;fill:#E37970;}
	.st32{fill:#A53934;}
	.st33{fill:#233862;}
	.st34{fill:#B64C41;}
	.st35{fill:#2D427C;}
	.st36{fill:#EA8E50;}
	.st37{fill:#FFB07B;}
	.st38{fill:#2C3A64;}
</style>
<rect x="0" class="st0" width="624" height="419.2"/>
<g>
	<g>
		<path class="st2" d="M83.85,17.79c0,0-0.74-1.52-4.45-1.1c-3.71,0.42-4.75,3.75-4.92,5.96c-0.14,1.78-1.54,18.77-4.32,27.36
			c-0.64,1.99,1.04,3.96,3.11,3.65l8.39-1.26L83.85,17.79z"/>
		<path class="st3" d="M84.93,18.06c0,0-3.95-1.33-6.03,0.64c-2.08,1.98-0.9,4.59-0.9,4.59L84.93,18.06z"/>
		<path class="st2" d="M97.41,25.84c0,0-0.07-8.72-14.1-7.71c-2.38,0.17-4.55,1.54-5.64,3.66c-1.58,3.08-2.27,8.51,2.83,17.22
			L97.41,25.84z"/>
		<path class="st4" d="M79.65,51.43l3.16,12.36l9.13,0.45l4.55-6.81c-4.25-3.22-4.85-8.87-4.79-12.22c0-0.03,0-0.07,0-0.1
			c0.04-1.58,0.22-2.62,0.22-2.62l-6.48-1.97l-4.94-1.5c0.45,3.77,0.42,6.48,0.22,8.4C80.4,50.4,79.65,51.43,79.65,51.43z"/>
		<path class="st4" d="M70.43,115.33l33.14-0.04c0,0-4.12-22.22-1.83-29.5c2.29-7.28-0.11-17.92-0.11-17.92
			c-3.33-7.91-4.18-15.31-5.66-15.7c-0.81-0.21-1.47-0.65-2.27-0.81c-13.02-2.6-23.6,2.13-23.6,2.13
			c-2.92,7.34,3.33,12.85,3.64,29.42C74.04,99.2,70.43,115.33,70.43,115.33z"/>
		<path class="st1" d="M69.13,54.02c1.58-2.94,10.29-2.98,10.29-2.98c0.82,0.99,5.26,4.18,10.78,4.14c5.51-0.03,2.98-3.93,2.98-3.93
			c0.19,0.03,0.4,0.07,0.59,0.13c1.17,0.37,2.01,1.19,2.57,1.96c-0.04-0.72-0.06-1.15-0.06-1.15s8.1,2.21,19.72,21.93
			c0.34,0.58,1.33,0.49,3.61,0.05c2.9-0.57,8.83-0.49,17.78-1.81c0,0,0.31,0.22,0.39,1.2c0.18,2.16,0.4,2.8,0.4,2.8
			s-5.89,2.78-12.15,4.76c-2.22,0.7-4.53,1.36-6.74,1.85c-2.06,0.46-4.03,0.78-5.73,0.86c0,0-4.62-1.78-10.03-6.44
			c0.44,3.14,0.67,5.39,0.65,5.64c-0.23,2.92,0.11,7.44,0.11,7.44s-23.48,6.4-30.39,3.11c-1.14-0.54-1.83-1.35-1.89-2.49
			c-0.68-12.79-3.68-23.17-3.97-30.34C67.91,58.03,68.18,55.77,69.13,54.02z"/>
		<path class="st1" d="M79.1,68.01c-4.2-1.31-8.41,2.01-8.12,6.4c0.28,4.32,0.63,9.36,1.01,16.7c0.06,1.14,0.75,1.95,1.89,2.49
			l6.72-13.95L79.1,68.01L79.1,68.01z"/>
		<path class="st5" d="M68.64,114.66l3.19-23.28c0.05-0.34,0.19-0.65,0.4-0.92c4.02-5.06,4.44-20.87,4.44-26.91
			c0-1.29,1.02-2.34,2.27-2.35c-0.09-0.27-2.51-7.7-4.39-9.72c0,0,0.63-0.1,0.83-0.13c0.47-0.07,1.29-0.15,1.29-0.15
			s3.46,4.88,4.98,10.02c0,0,0.03,0.01,0.1,0.02c7.18,0.88,13.29,0.45,16.94-0.02h-0.54c0,0-2.49-7.56-4.39-9.83
			c0.8,0.16,1.74,0.54,2.51,0.81c1.18,1.7,3.37,4.98,4.51,8.76c0.87,0.06,1.59,0.76,1.67,1.69l0.94,10.94l1.28,14.98
			c0.46,3.32,0.35,20.65,0.3,26.38c-0.01,1.02-0.82,1.84-1.81,1.84H70.43C69.33,116.77,68.49,115.78,68.64,114.66z"/>
		<path class="st6" d="M80.72,47.41c3.92-2.1,10-2.2,10.98-2.2c0.09,0,0.14,0,0.14,0s-0.05-0.03-0.13-0.1
			c-0.65-0.48-3.56-2.62-6.26-4.6l-4.94-1.5C80.96,42.77,80.93,45.49,80.72,47.41z"/>
		<path class="st4" d="M94.14,45.39c0,0-13.92,0.64-14.19-8.04c-0.26-8.68-2.24-14.44,6.64-15.21c8.88-0.77,10.71,2.49,11.5,5.36
			C98.89,30.37,97.75,45,94.14,45.39z"/>
		<path class="st2" d="M92.62,25.56c0,0,6.2,3.72,5.54,8.53c0,0,2.85-1.73,2.3-6.24c-0.55-4.51-5.06-7.35-8.88-7.35
			c-3.81,0-6.66,0.49-6.66,0.49L92.62,25.56z"/>
		<path class="st2" d="M93.78,24.06c2.47,1.31-7.74,2.41-8.37,6.57c-0.62,4.16-5.49,5.75-5.49,5.75S73.74,13.44,93.78,24.06z"/>
		<path class="st7" d="M95.81,40.67c0,0-0.1,0.88-2.25,1c0,0-1.8,0.1-1.86-0.85C91.7,40.82,93.35,39.94,95.81,40.67z"/>
		<path class="st1" d="M114.28,77.47c0,0-9.53,4.79-17.79,6.77c-2.38,0.57-4.67,0.97-6.62,1.07c0,0-8.88-2.73-15.66-12.23
			c-13.09-18.34-2.98-20.32-2.98-20.32s8.75,5.46,21.1,22.83c0.43,0.61,1.52,0.47,4.33-0.1c3-0.61,8.98-0.53,17.22-1.75
			c0,0,0.14,0.31,0.22,1.28C114.29,77.19,114.28,77.47,114.28,77.47z"/>
		<path class="st8" d="M119.61,74.17c2.87-0.56,8.99-0.6,17.79-1.88c0.68-0.22,1.46-0.5,2.18-0.87c1.89-0.94,6.91-1.57,7.98-0.57
			c1.07,1.01-1.13,5.09-5.72,5.22c-1.61,0.04-2.81,0.17-3.7,0.3c-0.48,0.23-6.13,2.85-12.12,4.74c-2.22,0.7-4.53,1.36-6.74,1.85
			C118.4,79.02,119.01,75.95,119.61,74.17z"/>
		<g>
			<g>
				<polygon class="st3" points="117.5,62.47 117.61,64.94 117.84,70.11 117.94,72.49 124.5,72.49 124.64,70.11 124.97,64.94 
					125.12,62.47 				"/>
				<polygon class="st9" points="117.38,60.8 125.14,60.8 125.46,62.47 117.16,62.47 				"/>
				<polygon class="st10" points="117.61,64.94 117.84,70.11 124.64,70.11 124.97,64.94 				"/>
			</g>
			<g>
				<polygon class="st3" points="129.4,62.47 129.5,64.94 129.73,70.11 129.83,72.49 136.39,72.49 136.54,70.11 136.86,64.94 
					137.01,62.47 				"/>
				<polygon class="st9" points="129.27,60.8 137.04,60.8 137.36,62.47 129.05,62.47 				"/>
				<polygon class="st10" points="129.5,64.94 129.73,70.11 136.54,70.11 136.86,64.94 				"/>
			</g>
			<path class="st11" d="M111.83,74.22h31.15c0.48,0,0.87-0.39,0.87-0.87l0,0c0-0.48-0.39-0.87-0.87-0.87h-31.15
				c-0.48,0-0.87,0.39-0.87,0.87l0,0C110.97,73.83,111.36,74.22,111.83,74.22z"/>
		</g>
		<path class="st12" d="M96.5,84.23c1.81-3.59,1.1-6.72,0.16-8.75c3-0.61,9.02-0.87,17.26-2.08c0,0,0,0.01,0,0.01
			c0.89-0.23,2.2-0.64,3.38-1.23c2.01-1.01,7.38-1.68,8.52-0.6c1.14,1.07-1.21,5.43-6.11,5.57c-2.71,0.07-4.35,0.35-5.28,0.59
			C113.67,78.11,104.4,82.34,96.5,84.23z"/>
		<path class="st5" d="M90.9,11.84c0,0,4.57,2.18,7.96,12.22l-5.08-0.01L90.9,11.84z"/>
		<path class="st1" d="M93.78,24.06c0,0-14.34,0.22-19.29-1.4c0,0,0.93-8.7,4.53-11.65l11.88,0.84
			C90.9,11.84,94.49,20.44,93.78,24.06z"/>
	</g>
	<path class="st13" d="M22.08,99.3h343.53c2.52,0,4.58,2.06,4.58,4.58v102.55c0,2.52-2.06,4.58-4.58,4.58H22.08
		c-2.52,0-4.58-2.06-4.58-4.58V103.87C17.5,101.36,19.56,99.3,22.08,99.3z"/>
	<g>
		<polygon class="st13" points="175.25,80.38 152.32,80.38 148.65,95.17 171.32,95.17 		"/>
		<polygon class="st13" points="169.08,85.16 158.99,85.16 155.13,99.48 165.74,99.48 		"/>
		<polygon class="st1" points="158.99,85.16 158.31,85.16 154.06,99.48 155.21,99.48 		"/>
		<polygon class="st1" points="152.32,80.38 151.92,80.38 148.21,95.17 148.65,95.17 		"/>
	</g>
	<g>
		<path class="st12" d="M203.89,208.34c-0.17,2.13-3.21,1.95-6.63,1.53c-3.42-0.42-2.49,0.64-7.28,0.67
			c-4.79,0.03-6.43-1.56-6.65-2.25c-0.2-0.61,2.11-1.1,4.58-1.68c0.31-0.07,0.62-0.15,0.93-0.22c2.79-0.69,5.19-2.19,7.04-4.55
			c2.08-2.66,3.97-14.78,3.97-14.78l7.48,1.4c0,0-4.35,10.38-4.8,13.79c-0.2,1.53,0.89,2.55,1.14,3.89
			C203.82,206.85,203.96,207.59,203.89,208.34z"/>
		<path class="st14" d="M197.29,210.06c-1.36-0.33-2.51,0.45-7.3,0.48c-4.79,0.03-6.43-1.56-6.65-2.25c-0.2-0.61,2.11-1.1,4.58-1.68
			l0.03,0.05c0,0,3.07,1.68,7.02,1.31c3.21-0.3,6.5-1.62,8.72-1.84c0.14,0.73,0.27,1.47,0.21,2.22
			C203.72,210.48,201.35,211.05,197.29,210.06z"/>
		<g>
			<path class="st14" d="M197.2,195.77c0,0,1.96,1.3,3.8,1.63c2.76,0.5,4.05-0.06,4.05-0.06s13.29-33.37,12.53-44.65
				c-0.02-0.27-0.03-0.56-0.03-0.86c-0.02-1.96,0.26-4.56,0.75-7.57c0.18-1.1,0.38-2.25,0.61-3.45c0.53-2.78,1.19-5.78,1.92-8.84
				c0.32-1.35,0.65-2.71,0.99-4.06c3.34-13.34,7.43-26.49,7.43-26.49s-23.99-7.84-25.34-0.51c-0.52,2.81-2.25,14.06-1.47,31.25
				c0.63,13.84,0.22,24.64-0.97,37.17C200.41,180.34,198.61,189.8,197.2,195.77z"/>
		</g>
		<path class="st15" d="M217.55,151.83c-0.02-1.96,0.26-4.56,0.75-7.57c0.18-1.1,0.38-2.25,0.61-3.45c0.53-2.78,1.19-5.78,1.92-8.84
			c0.32-1.35,0.65-2.71,0.99-4.06c-0.47-4.07-0.86-6.87-0.86-6.87S211.01,134.58,217.55,151.83z"/>
		<path class="st12" d="M234.15,208.34c-0.17,2.13-3.19,2.14-6.6,1.71c-3.42-0.42-2.51,0.45-7.3,0.48
			c-4.79,0.03-6.43-1.56-6.65-2.25c-0.2-0.61,2.11-1.1,4.58-1.68c0.31-0.07,0.62-0.15,0.93-0.22c2.79-0.69,4.64-2.75,7.04-4.55
			c2.27-1.71,0.68-9.97,0.68-9.97l7.03-2.51c0,0-1.06,8.32-1.06,12.9c0,1.54,0.89,2.55,1.14,3.89
			C234.08,206.85,234.22,207.59,234.15,208.34z"/>
		<path class="st14" d="M227.55,210.06c-0.8-0.19-2.51,0.45-7.3,0.48c-4.79,0.03-6.43-1.56-6.65-2.25c-0.2-0.61,2.11-1.1,4.58-1.68
			l0.03,0.05c0,0,3.07,1.68,7.02,1.31c3.22-0.3,6.5-1.62,8.72-1.84c0.14,0.73,0.27,1.47,0.21,2.22
			C233.98,210.48,231.94,211.08,227.55,210.06z"/>
		<path class="st14" d="M214.8,98.82c0,0,7.8,38.89,9.12,60.06c1.32,21.17,2.96,38.69,2.96,38.69s1.7,0.61,3.66,0.5
			c2.06-0.12,3.7-0.75,3.7-0.75s7.73-31.85,5.17-44.6c-2.56-12.75-0.43-24.51,0.8-35.08c1.76-15.16-5.02-22.21-9.76-27.01
			C225.66,85.77,214.8,98.82,214.8,98.82z"/>
		<path class="st2" d="M209.27,27.58c-0.78-6.33,1.2-16.46,13.84-14.85c12.64,1.62,16.62,14.04,14.07,19.56
			c-2.55,5.52,3.67,6.85,5.62,12.79c1.68,5.1,2.26,11.44,4.98,14.28c8.75,9.17-8.4,23.26-18.74,20.29
			c-18.83-5.41-21.26-6.22-20.59-21.02c0.34-7.58,6.24-10.52,2.5-12.71C201.9,40.63,211.02,41.91,209.27,27.58z"/>
		<path class="st8" d="M212.05,43.96c0.19,0,1.71-0.47,4.25-0.71c1.24-3.74,0.57-7.65,0.57-7.65l9.4-2.86
			c0.45,10,1.35,11.25,1.54,11.4c1.95,0.46,4.03,1.11,6.23,2c0,0-6,34.35-3.42,40.9c2.58,6.56,3.56,12.37,3.56,12.37l-27.98,0.35
			c0,0,0.39-22.5-0.9-30.46C204,61.34,212.05,43.96,212.05,43.96z"/>
		<path class="st12" d="M214.41,36.24c0,0,11.26,2.26,12.56-4.77c1.3-7.03,3.63-11.48-3.5-13.22c-7.13-1.74-9.03,0.68-10.03,2.93
			C212.42,23.42,211.51,35.48,214.41,36.24z"/>
		<path class="st16" d="M165.58,67.07c0.08-0.98,0.39-1.2,0.39-1.2c8.94,1.31,14.87,1.24,17.78,1.81c2.28,0.44,3.21,0.51,3.61-0.05
			c12.36-17.37,21.1-22.83,21.1-22.83s0.93-0.55,4.58-1.06c0,0,0.52,6.61,3.92,7.17c5.87,0.97,10.6-4.41,11.99-6.58
			c0,0,6.74,1.7,8.72,3.96c1.42,1.62,1.24,5.5,0.81,7.94c-0.13,0.77-0.29,1.4-0.43,1.77c-0.42,1.1-2,9.2-2.72,12.43
			c-0.02,0.08-0.03,0.16-0.05,0.23c-0.05,0.22-0.09,0.41-0.13,0.56c0,0,0,0.01,0,0.01c-0.04,0.17-0.08,0.31-0.11,0.39
			c-0.02,0.05-0.03,0.11-0.05,0.16c0,0,0,0.01,0,0.01c-1.04,3.32-1.67,6.7-1.3,10.84c0.04,0.49,0.16,1.07,0.32,1.74
			c0.94,4.82,4.84,14.31,5.65,18.67c-0.47,0.98-1.53,1.76-2.81,2.38c-1.68,0.81-3.75,1.35-5.39,1.73c-1.27,0.29-3.23,0.62-5.49,0.87
			c-1.2,0.13-2.48,0.25-3.79,0.32c-0.18,0.01-0.37,0.02-0.55,0.03c-8.43,0.42-17.86,0.21-19.09-3.8
			c-0.59-1.92,1.76-13.48,2.07-16.92c0.55-6.03-0.35-14.3-0.75-20.69c-6.92,7.62-14.05,10.36-14.05,10.36
			c-1.71-0.08-3.68-0.4-5.73-0.86c-2.21-0.49-4.53-1.15-6.74-1.85c-6.26-1.98-12.15-4.76-12.15-4.76S165.4,69.23,165.58,67.07z"/>
		<path class="st2" d="M219.91,16.5c0,0-0.2,2.39,3.51,6.43c3.7,4.05,2.82,11.26,2.82,11.26s6.24-11.73,2.91-15.47
			C225.81,14.98,219.91,16.5,219.91,16.5z"/>
		<path class="st2" d="M224.43,13.4c0,0-5.6-1.87-11.15,3.6c-2.39,2.36-2.03,6.99-0.75,9.68c0,0,1.97-5.76,5.55-7.02
			C221.67,18.4,224.43,13.4,224.43,13.4z"/>
		<path class="st7" d="M217.91,32.78c0,0-0.3,0.83-2.42,0.46c0,0-1.78-0.32-1.62-1.25C213.88,31.99,215.69,31.52,217.91,32.78z"/>
		<path class="st17" d="M215.65,95.47c1.6,5.42,2.52,9.87,6.53,12.88c1.31-0.08,2.59-0.19,3.79-0.32c2.26-0.25,4.22-0.58,5.49-0.87
			c1.64-0.38,3.71-0.92,5.39-1.73c1.29-0.62,2.35-1.4,2.81-2.38c-0.81-4.36-4.72-13.86-5.65-18.67c-0.09-0.47-0.16-0.89-0.19-1.26
			c-0.35-4.31,0.21-7.86,1.16-11.32c0,0,0-0.01,0-0.01c0.05-0.18,0.1-0.37,0.16-0.55c0-0.01,0-0.01,0-0.01
			c0.03-0.12,0.08-0.31,0.13-0.56c0.02-0.07,0.03-0.15,0.05-0.23c0.64-3.06,2.33-12.64,2.76-13.89c0.14-0.4,0.29-1.07,0.42-1.91
			l-3.37-3.24c0,0-19.33,8.25-23.58,19.64C207.3,82.4,213.36,87.7,215.65,95.47z"/>
		<path class="st17" d="M177.34,74.63c4.28,1.36,8.93,2.55,12.48,2.72c0,0,7.23-2.78,14.19-10.52c0.29-1.32,0.58-3.52-1.02-2.88
			c-2.23,0.89-10.5,11.5-13.62,11.72C187.13,75.83,180.77,75.07,177.34,74.63z"/>
		<path class="st16" d="M192.6,71.61c0,0,9.53,4.79,17.79,6.76c2.38,0.57,4.67,0.97,6.62,1.07c0,0,8.88-2.73,15.66-12.23
			c13.09-18.34,2.99-20.32,2.99-20.32s-8.75,5.46-21.1,22.83c-0.43,0.61-1.52,0.47-4.33-0.1c-3-0.61-8.98-0.53-17.22-1.75
			c0,0-0.14,0.31-0.22,1.28C192.59,71.32,192.6,71.61,192.6,71.61z"/>
		<path class="st8" d="M155.8,64.37c1.07-1.01,6.1-0.38,7.98,0.57c0.72,0.36,1.5,0.65,2.18,0.86c8.8,1.27,14.91,1.32,17.79,1.88
			c0.6,1.78,1.22,4.86,0.33,8.81c-2.21-0.49-4.53-1.15-6.74-1.85c-5.99-1.9-11.63-4.52-12.12-4.74c-0.89-0.14-2.09-0.26-3.7-0.3
			C156.93,69.46,154.73,65.37,155.8,64.37z"/>
		<path class="st12" d="M181.05,65.73c1.14-1.07,6.51-0.4,8.52,0.6c1.18,0.59,2.49,0.99,3.38,1.23c0,0,0-0.01,0-0.01
			c8.25,1.21,14.26,1.47,17.26,2.08c-0.94,2.03-1.65,5.16,0.16,8.75c-7.91-1.89-17.17-6.13-17.95-6.49
			c-0.93-0.24-2.57-0.52-5.28-0.59C182.26,71.16,179.91,66.8,181.05,65.73z"/>
	</g>
</g>
<g>
	<g>
		<g>
			<g>
				<g>
					<path class="st18" d="M39.09,327.33c-0.01,0-0.01,0-0.02,0c-0.84-0.01-1.52-0.62-1.5-1.37c0.86-53.15-19.7-94.02-19.91-94.43
						c-0.35-0.68-0.28-2.2,1.93-2.39c1.94-0.17,3.14,0.25,3.49,0.93c0.05,0.1,4.64,9.83,9.73,26.73c4.7,15.59,8.26,41.11,7.81,69.19
						C40.6,326.73,39.92,327.33,39.09,327.33z"/>
				</g>
				<g>
					<path class="st18" d="M84.93,327.33c-0.01,0-0.01,0-0.02,0c-0.84-0.01-1.52-0.62-1.5-1.37c0.86-53.15-19.7-94.02-19.91-94.43
						c-0.35-0.68-0.28-2.2,1.93-2.39c1.94-0.17,3.14,0.25,3.49,0.93c0.05,0.1,4.64,9.83,9.73,26.73c4.7,15.59,8.26,41.11,7.81,69.19
						C86.44,326.73,85.76,327.33,84.93,327.33z"/>
				</g>
				<g>
					<path class="st18" d="M25.52,247.85c-0.73,0-1.37-0.47-1.5-1.12c-0.14-0.74,0.42-1.43,1.25-1.56
						c1.32-0.2,32.49-4.85,46.45-0.97c0.8,0.22,1.25,0.98,1,1.69c-0.25,0.71-1.11,1.11-1.91,0.88c-13.25-3.69-44.71,1.01-45.02,1.06
						C25.69,247.84,25.6,247.85,25.52,247.85z"/>
				</g>
				<g>
					<path class="st18" d="M29.08,256.8c-0.73,0-1.37-0.47-1.5-1.12c-0.14-0.74,0.42-1.43,1.25-1.56c1.32-0.2,32.49-4.86,46.45-0.97
						c0.8,0.22,1.25,0.98,1,1.69c-0.25,0.71-1.11,1.11-1.91,0.88c-13.26-3.69-44.71,1.01-45.02,1.06
						C29.25,256.79,29.16,256.8,29.08,256.8z"/>
				</g>
			</g>
			<path class="st18" d="M37.26,327.33h93.94c0,0-2.19-9.08-56.59-7.72C36.1,320.56,37.26,327.33,37.26,327.33z"/>
			<g>
				<path class="st19" d="M29.61,408.83c10.89-48.48,8.09-78.23,8.08-78.6c-0.03-0.75,1.54-1.42,2.38-1.45
					c0.85-0.01,4.61-0.22,5.05,0.42c0.57,0.84,2.76,37.49-13.47,79.63H29.61z"/>
			</g>
			<g>
				<path class="st19" d="M109.36,408.83c-10.89-48.48-8.09-78.23-8.08-78.6c0.03-0.75-1.54-1.42-2.38-1.45
					c-0.85-0.01-4.61-0.22-5.05,0.42c-0.57,0.84-2.76,37.49,13.47,79.63H109.36z"/>
			</g>
			<g>
				<path class="st20" d="M134.7,408.83c-10.89-48.48-8.09-78.23-8.08-78.6c0.03-0.75-1.54-1.42-2.38-1.45
					c-0.85-0.01-4.61-0.22-5.05,0.42c-0.57,0.84-2.76,37.49,13.47,79.63H134.7z"/>
			</g>
			<g>
				<path class="st20" d="M57.19,408.83c10.89-48.48,8.09-78.23,8.08-78.6c-0.03-0.75,1.54-1.42,2.38-1.45
					c0.85-0.01,4.61-0.22,5.05,0.42c0.57,0.84,2.76,37.49-13.47,79.63H57.19z"/>
			</g>
			<path class="st19" d="M131.73,330.22H36.84c-0.8,0-1.45-0.65-1.45-1.45l0,0c0-0.8,0.65-1.45,1.45-1.45h94.89
				c0.8,0,1.45,0.65,1.45,1.45l0,0C133.18,329.57,132.52,330.22,131.73,330.22z"/>
		</g>
		<g>
			<g>
				<g>
					<path class="st18" d="M377.13,327.7c0.01,0,0.01,0,0.02,0c0.84-0.01,1.52-0.62,1.5-1.37c-0.86-53.15,19.7-94.02,19.91-94.43
						c0.35-0.68,0.28-2.2-1.93-2.39c-1.94-0.17-3.14,0.25-3.49,0.93c-0.05,0.1-4.64,9.83-9.73,26.73
						c-4.7,15.59-8.26,41.11-7.81,69.19C375.62,327.1,376.3,327.7,377.13,327.7z"/>
				</g>
				<g>
					<path class="st18" d="M331.29,327.7c0.01,0,0.01,0,0.02,0c0.84-0.01,1.52-0.62,1.5-1.37c-0.86-53.15,19.7-94.02,19.91-94.43
						c0.35-0.68,0.28-2.2-1.93-2.39c-1.94-0.17-3.14,0.25-3.49,0.93c-0.05,0.1-4.64,9.83-9.73,26.73
						c-4.7,15.59-8.26,41.11-7.81,69.19C329.78,327.1,330.46,327.7,331.29,327.7z"/>
				</g>
				<g>
					<path class="st18" d="M390.7,248.22c0.73,0,1.37-0.47,1.5-1.12c0.14-0.74-0.42-1.43-1.25-1.56c-1.32-0.2-32.49-4.85-46.45-0.97
						c-0.8,0.22-1.25,0.98-1,1.69c0.25,0.71,1.11,1.11,1.91,0.88c13.25-3.69,44.7,1.01,45.02,1.06
						C390.53,248.21,390.62,248.22,390.7,248.22z"/>
				</g>
				<g>
					<path class="st18" d="M387.14,257.17c0.73,0,1.37-0.47,1.5-1.12c0.14-0.74-0.42-1.43-1.25-1.56
						c-1.32-0.2-32.49-4.86-46.45-0.97c-0.8,0.22-1.25,0.98-1,1.69c0.25,0.71,1.11,1.11,1.91,0.88c13.26-3.69,44.71,1.01,45.02,1.06
						C386.97,257.17,387.06,257.17,387.14,257.17z"/>
				</g>
			</g>
			<path class="st18" d="M378.96,327.7h-93.94c0,0,2.19-9.08,56.59-7.72C380.11,320.93,378.96,327.7,378.96,327.7z"/>
			<g>
				<path class="st19" d="M386.61,409.2c-10.89-48.48-8.09-78.23-8.08-78.6c0.03-0.75-1.54-1.42-2.38-1.45
					c-0.85-0.01-4.61-0.22-5.05,0.42c-0.57,0.84-2.76,37.49,13.47,79.63H386.61z"/>
			</g>
			<g>
				<path class="st19" d="M306.86,409.2c10.89-48.48,8.09-78.23,8.08-78.6c-0.03-0.75,1.54-1.42,2.38-1.45
					c0.85-0.01,4.61-0.22,5.05,0.42c0.57,0.84,2.76,37.49-13.47,79.63H306.86z"/>
			</g>
			<g>
				<path class="st20" d="M281.52,409.2c10.89-48.48,8.09-78.23,8.08-78.6c-0.03-0.75,1.54-1.42,2.38-1.45
					c0.85-0.01,4.61-0.22,5.05,0.42c0.57,0.84,2.76,37.49-13.47,79.63H281.52z"/>
			</g>
			<g>
				<path class="st20" d="M359.03,409.2c-10.89-48.48-8.09-78.23-8.08-78.6c0.03-0.75-1.54-1.42-2.38-1.45
					c-0.85-0.01-4.61-0.22-5.05,0.42c-0.57,0.84-2.76,37.49,13.47,79.63H359.03z"/>
			</g>
			<path class="st19" d="M284.49,330.59h94.89c0.8,0,1.45-0.65,1.45-1.45l0,0c0-0.8-0.65-1.45-1.45-1.45h-94.89
				c-0.8,0-1.45,0.65-1.45,1.45l0,0C283.04,329.94,283.69,330.59,284.49,330.59z"/>
		</g>
		<g>
			<path class="st4" d="M155.37,260.08c0,0,5.49-3.42,7.87-2.9c2.38,0.52,8.91,2.38,9.12,5.08c0.21,2.69-9.32,6.94-16.37,4.56
				C148.95,264.43,155.37,260.08,155.37,260.08z"/>
			<path class="st21" d="M126.26,403.4c0,1.21,0.6,2.04,1.61,2.59c0,0,0.01,0.01,0.02,0.01c1.87,1.03,4.85,0.24,8.42,0.08
				c0.46-0.02,1.16,0.86,1.53,0.86c0.1,0,0.19,0,0.29,0c0.07,0,0.15,0,0.22,0c3.53,0.09,3.16,1.14,9.87,1.72
				c7.65,0.65,10.47-1.69,10.92-2.75c0.38-0.9-2.9-1.93-6.57-3.1c-0.18-0.06-0.35-0.11-0.53-0.17c-0.49-0.16-0.98-0.32-1.47-0.48
				c-4.37-1.45-8.67-3.17-9.74-7.59c-1.14-4.69,2.28-17.77,2.28-17.77l-12.12-1.31c0,0-1.17,13.68-1.93,17.94
				c-0.41,2.28-1.44,4.08-2.05,6.03c-0.04,0.14-0.08,0.27-0.12,0.41C126.57,401.02,126.25,402.19,126.26,403.4z"/>
			<g>
				<path class="st22" d="M159.12,405.91c-0.24,0.57-0.75,2.24-3.96,2.92H143c-0.04-0.02-0.08-0.04-0.11-0.05
					c-4.01-1.78-7.21-1.99-9.74-2.02c-1.35-0.02-2.5,0-3.48-0.14h0c-0.59-0.09-1.11-0.23-1.58-0.49c0,0,0,0,0,0
					c-0.07-0.04-0.14-0.08-0.2-0.12c-0.01,0-0.01,0-0.01-0.01c-0.06-0.03-0.12-0.07-0.18-0.11h0l0,0c-0.11-0.07-0.21-0.14-0.31-0.22
					c-0.05-0.04-0.1-0.08-0.15-0.12c-0.05-0.04-0.09-0.08-0.14-0.13c-0.03-0.03-0.06-0.06-0.1-0.1c-0.06-0.06-0.11-0.12-0.16-0.19
					c0,0-0.01-0.01-0.01-0.01c-0.03-0.04-0.06-0.08-0.08-0.12c-0.03-0.04-0.06-0.09-0.09-0.13c0,0-0.01-0.01-0.01-0.01
					c0-0.01-0.01-0.01-0.01-0.01c-0.02-0.04-0.05-0.07-0.06-0.11c0,0,0,0,0,0c-0.01-0.03-0.03-0.05-0.04-0.08
					c-0.02-0.04-0.04-0.08-0.05-0.12c-0.02-0.06-0.05-0.11-0.06-0.17c-0.02-0.05-0.03-0.09-0.04-0.14
					c-0.02-0.06-0.03-0.12-0.04-0.19c-0.01-0.05-0.02-0.1-0.03-0.16c-0.01-0.04-0.01-0.07-0.01-0.11c-0.01-0.05-0.01-0.1-0.01-0.16
					c-0.01-0.07-0.01-0.15-0.01-0.22v-0.02c0-0.06,0-0.13,0-0.19c0-0.06,0.01-0.13,0.01-0.19c0-0.06,0.01-0.13,0.01-0.2
					c0-0.06,0.01-0.13,0.02-0.2c0.01-0.1,0.02-0.19,0.03-0.28c0-0.02,0.01-0.04,0.01-0.06c0.01-0.06,0.01-0.12,0.03-0.18
					c0.01-0.09,0.03-0.18,0.04-0.27c0.03-0.16,0.06-0.31,0.09-0.46c0.01-0.06,0.03-0.13,0.04-0.19c0.03-0.15,0.07-0.29,0.1-0.43
					c0.02-0.07,0.04-0.15,0.06-0.22c0.04-0.14,0.08-0.29,0.11-0.43c0.02-0.07,0.04-0.14,0.06-0.21c0.04-0.14,0.08-0.28,0.12-0.41
					c3.65,0.85,8.71,3.39,13.82,4.35c0.08,0.01,0.16,0.03,0.23,0.04c2.74,0.49,5.26,0.36,7.26,0.05c2.17-0.34,3.72-0.89,4.24-1.09
					C156.22,403.98,159.5,405.01,159.12,405.91z"/>
				<polygon class="st22" points="133.15,408.83 133.15,407.93 133.15,407.24 133.15,406.75 133.15,406.39 132.93,406.36 
					127.48,405.5 127.68,405.88 127.68,405.88 127.69,405.88 127.82,406.13 128.22,406.89 128.22,406.89 129.26,408.83 				"/>
			</g>
			<path class="st23" d="M63.63,286.82l39.24-3.74c0,0,60.06,0.27,65.65,8.2c0,0,10.72,7.43-1.4,38.16
				c-12.12,30.72-26.36,61.43-26.36,61.43s-3.63,0.99-8.6,0.61c-1.96-0.15-4.61-0.83-4.61-0.83s2.74-45.84,8.8-63.68
				c6.06-17.84,7.92-14.37-2.8-13.38c-10.72,0.99-45.22,8.92-61.07,6.94C56.63,318.53,63.63,286.82,63.63,286.82z"/>
			<path class="st4" d="M118.69,403.4c0,1.21,0.6,2.04,1.61,2.59c0,0,0.01,0.01,0.02,0.01c1.87,1.03,4.85,0.24,8.42,0.08
				c0.46-0.02,1.16,0.86,1.53,0.86c0.1,0,0.19,0,0.29,0c0.07,0,0.15,0,0.22,0c3.53,0.09,3.16,1.14,9.87,1.72
				c7.65,0.65,10.47-1.69,10.92-2.75c0.38-0.9-2.9-1.93-6.57-3.1c-0.18-0.06-0.35-0.11-0.53-0.17c-0.49-0.16-0.98-0.32-1.47-0.48
				c-4.37-1.45-8.67-3.17-9.74-7.59c-1.14-4.69,2.28-17.77,2.28-17.77l-12.12-1.31c0,0-1.17,13.68-1.93,17.94
				c-0.41,2.28-1.44,4.08-2.05,6.03c-0.04,0.14-0.08,0.27-0.12,0.41C119,401.02,118.69,402.19,118.69,403.4z"/>
			<path class="st3" d="M58.14,289.6l36.8-3.11c0,0,60.06,0.26,65.65,7.94c0,0,9.07,5.68-3.05,35.44
				c-12.12,29.75-24.4,62.5-24.4,62.5s-2.72,0.37-6.01,0.11c-4.14-0.34-5.52-1.68-5.52-1.68s0.86-40.71,6.92-57.99
				c6.06-17.28,8.39-15.52-2.33-14.56c-10.72,0.96-40.87,8.48-61.65,4.5C48.87,319.75,58.14,289.6,58.14,289.6z"/>
			<g>
				<path class="st14" d="M151.59,405.77c0,0.05-0.01,0.1-0.03,0.14c-0.22,0.53-0.68,2-3.31,2.76c-0.2,0.06-0.42,0.11-0.64,0.16
					h-12.17c-0.79-0.36-1.56-0.65-2.29-0.9c-1.83-0.61-3.47-0.9-4.93-1.04h0c-0.95-0.09-1.83-0.12-2.63-0.14
					c-2.28-0.04-4.01,0.06-5.27-0.76c-0.01,0-0.01,0-0.01-0.01c-0.06-0.03-0.12-0.07-0.18-0.11h0l0,0
					c-0.11-0.07-0.22-0.14-0.31-0.22c-0.05-0.04-0.1-0.08-0.15-0.12c-0.05-0.04-0.09-0.08-0.14-0.13c-0.03-0.03-0.06-0.06-0.1-0.1
					c-0.03-0.03-0.06-0.07-0.09-0.11c-0.03-0.04-0.06-0.08-0.09-0.11c-0.02-0.02-0.04-0.04-0.05-0.07
					c-0.03-0.04-0.06-0.08-0.09-0.12c-0.02-0.04-0.05-0.08-0.07-0.12c-0.04-0.06-0.07-0.13-0.1-0.2c0,0,0-0.01-0.01-0.01
					c-0.02-0.04-0.04-0.09-0.05-0.13c-0.01-0.03-0.03-0.07-0.04-0.1c0-0.01,0-0.01-0.01-0.01c0-0.01,0-0.01-0.01-0.02
					c0-0.01,0-0.01,0-0.01c-0.01-0.04-0.03-0.09-0.04-0.13c-0.01-0.05-0.03-0.1-0.04-0.15c-0.01-0.05-0.02-0.1-0.03-0.16
					c-0.01-0.03-0.01-0.07-0.01-0.1c0,0,0,0,0-0.01c-0.01-0.05-0.01-0.1-0.01-0.16c-0.01-0.07-0.01-0.15-0.01-0.22
					c0-1.21,0.31-2.38,0.62-3.52c0.04-0.14,0.08-0.28,0.12-0.41c1.98,0.46,4.38,1.42,6.97,2.35c2.19,0.79,4.51,1.56,6.85,1.99
					c2.97,0.56,5.69,0.39,7.79,0.04c2.01-0.34,3.44-0.84,3.94-1.04c1.18,0.38,2.33,0.74,3.32,1.09c0.19,0.07,0.38,0.13,0.55,0.2
					c0.17,0.06,0.34,0.13,0.49,0.19c0.16,0.06,0.31,0.12,0.45,0.18c0.07,0.03,0.14,0.06,0.21,0.09c0.07,0.03,0.13,0.06,0.2,0.09
					c0.13,0.06,0.25,0.12,0.36,0.18c0.06,0.03,0.11,0.06,0.16,0.09c0.11,0.06,0.2,0.12,0.29,0.18c0.07,0.04,0.13,0.09,0.19,0.13
					c0.04,0.04,0.08,0.07,0.11,0.1c0.02,0.02,0.04,0.04,0.06,0.06c0.08,0.08,0.13,0.16,0.16,0.23c0.01,0.02,0.01,0.04,0.02,0.06
					c0,0,0,0,0,0.01C151.59,405.71,151.59,405.74,151.59,405.77z"/>
				<polygon class="st14" points="125.59,406.39 125.59,408.83 121.7,408.83 120.12,405.88 120.12,405.88 120.12,405.88 
					119.92,405.5 125.37,406.36 				"/>
			</g>
			<path class="st18" d="M158.06,267.18c-0.06,0.34-0.16,0.67-0.3,0.98c-1.55,3.42-33.88,7.77-37.92,5.59
				c-1.81-0.97-4.43-17.27-6.78-35c-2.91-21.91-5.39-46.01-5.39-46.01s13.42,4.23,14.97,11.38c1.55,7.15,1.87,51.28,5.91,53.46
				c4.04,2.18,21.13,0.31,27.04,1.24C155.58,258.83,158.67,263.72,158.06,267.18z"/>
			<path class="st2" d="M108.55,141.96c-2.51-2.02-6.16-1.77-8.51-1.63c0.6-0.62,1.79-0.85,1.79-0.85
				c-1.46-0.22-4.71,1.23-4.71,1.23s-12.31-6.3-18.01,9.86c0,0,0.98-1.22,2.33-2.61c-3.3,9.3,0.03,23.36,10.41,25.87
				C98.61,175.45,134.29,162.64,108.55,141.96z"/>
			<path class="st4" d="M108.63,196.31c0.07,0.03-6.51,3.44-11.45,2.09c-4.65-1.27-7.69-7.3-7.63-7.31c1.97-0.39,2.54-3.1,2.5-14.73
				l0.89,0.18l14.97,2.97c0,0-0.34,4.71-0.35,9.15C107.55,192.38,107.78,195.91,108.63,196.31z"/>
			<path class="st6" d="M107.91,179.5c0,0-0.34,4.71-0.35,9.15c-8.38-0.24-12.81-7.88-14.62-12.12L107.91,179.5z"/>
			<path class="st2" d="M91.39,174.9c0,0-4.39-6.94-5.45-12.87c-0.75-4.24,1.41-19.94,17.18-17.67c0,0,4.58,0.45,8.89,3.36
				c3.43,2.31,8.37,7.31,2.84,21.01l-1.44,4.63L91.39,174.9z"/>
			<path class="st4" d="M110.71,183.7c0,0-19.82,0.33-19.84-12.02c-0.01-12.35-2.58-20.62,10.08-21.35
				c12.66-0.73,15.12,3.98,16.13,8.1C118.08,162.54,115.87,183.3,110.71,183.7z"/>
			<path class="st2" d="M109.98,150.02c0,0-5.43,14.49-13.76,16.63c-8.33,2.14-11.94-0.09-11.94-0.09s6.39-5.08,7.72-13.94
				C91.99,152.63,105.88,143.13,109.98,150.02z"/>
			<path class="st19" d="M115.56,211.04c-0.35-1.41,2.62-2.46,3.35-1.21c1.36,2.35,1.63,5.31,2.18,7.67c1.55,6.73,0,15.95,0,15.95
				L115.56,211.04z"/>
			<path class="st2" d="M108.63,151.2c0,0,4.05,3.23,5.04,6.38c0.99,3.14,1.43,9.62,3.32,9.4c0,0,4.09-9.85-0.51-15.42
				C111.61,145.65,108.63,151.2,108.63,151.2z"/>
			<path class="st7" d="M106.3,176.21c0,0,0.37,1.57,4.27,1.33c0,0,3.28-0.2,3.18-1.93C113.75,175.62,110.57,174.39,106.3,176.21z"
				/>
			<path class="st19" d="M158.06,267.18c-0.06,0.34-0.16,0.67-0.3,0.98c-1.55,3.42-33.88,7.77-37.92,5.59
				c-1.81-0.97-4.98-21.24-2.7-39.37c2.44,10.37,3.19,31.63,8.91,32.63C132.54,268.16,149.58,265.99,158.06,267.18z"/>
			<path class="st18" d="M122.29,234.28c-8.03,38.73-1.31,44.68-5.49,48.49c-0.02,0.02-3.7,1.61-3.73,1.63
				c-4.35,3.77-4.46-0.8-18.14,5.13c-6.51,2.83-14.87,6.57-22.16,8.78c-2.75,0.83-5.34,1.45-7.64,1.72
				c-4.39,0.52-7.67-0.25-8.74-3.22c-3.11-8.62,11.81-31.53,8.08-47.16c-0.03-0.13-0.06-0.27-0.09-0.4
				c-0.27-1.37-0.32-2.94-0.18-4.66c0.7-8.72,6.2-21.4,11.91-32.22c6.3-11.94,12.84-21.62,13.43-21.27
				c16.62,9.86,18.12,1.66,18.12,1.66S125.03,221.07,122.29,234.28z"/>
			<path class="st19" d="M114.4,283.85C114.38,283.87,114.42,283.83,114.4,283.85c-4.35,3.77-5.78-0.26-19.46,5.67
				c-6.51,2.83-14.87,6.57-22.16,8.78c-3.73,0.65-6.5,1.22-7.64,1.72c-4.39,0.52-7.67-0.25-8.74-3.22
				c-3.11-8.62,11.81-31.53,8.08-47.16c-0.03-0.13-0.06-0.27-0.09-0.4c-0.32-1.54-0.36-3.09-0.18-4.66
				c0.79-6.63,5.66-13.82,11.18-24.29c3.69,3.9,31.42-0.62,24.86,37.92C98.25,270.03,112.67,274.69,114.4,283.85z"/>
			<g>
				<path class="st24" d="M161.38,266.48L161.38,266.48c1.2,1.36,2.94,2.22,4.89,2.22c3.58,0,6.52-2.93,6.52-6.52v-2.54
					c0-0.28-0.02-0.55-0.05-0.81H159.8c-0.03,0.27,0.1,3.74,0.29,4.82C160.39,265.4,161.38,266.48,161.38,266.48z"/>
				<path class="st25" d="M171.67,258.83h-1.75c0.03,0.27,0.05,0.54,0.05,0.82v2.54c0,3.29-2.47,6.02-5.64,6.45
					c0.29,0.04,0.58,0.06,0.88,0.06c3.58,0,6.51-2.93,6.51-6.52v-2.54C171.72,259.37,171.7,259.09,171.67,258.83z"/>
				
					<rect x="163.61" y="268.13" transform="matrix(-1 -1.224647e-16 1.224647e-16 -1 332.5356 537.0493)" class="st24" width="5.32" height="0.8"/>
			</g>
			<path class="st4" d="M113.05,285.82c0,0,6.11-1.45,8.91-0.31c2.8,1.14,8.39,4.04,7.87,5.59c-0.52,1.55-7.15,2.38-9.95,0.83
				c-2.8-1.55-4.87,0.41-8.29-0.73C108.18,290.07,113.05,285.82,113.05,285.82z"/>
			<path class="st18" d="M89.55,191.09c0,0-22.55,0.3-26.59,11.18c-4.04,10.88-2.8,49.11,3.11,60.61s39.47,27.04,43.2,27.66
				c3.73,0.62,6.06-5.13,5.91-5.75c-0.16-0.62-35.28-29.06-35.12-32.01C80.21,249.82,89.55,191.09,89.55,191.09z"/>
		</g>
		<g>
			<path class="st26" d="M229.77,236.23c0,0-5.76-6.98-7-7.8c-1.24-0.82-6.68-2.27-6.99-1.98c-0.31,0.29-0.32,0.71,0.35,1.31
				c0.67,0.6,3.25,2.1,2.88,2.27c-0.37,0.17-8.13-3.69-9.25-2.4c-1.12,1.3,0.63,6.66,3.62,9.24c2.99,2.57,11.92,3.67,12.48,4.03
				C230.63,243.94,229.77,236.23,229.77,236.23z"/>
			<path class="st4" d="M283.76,403.61c0,1.17-0.6,1.97-1.61,2.51c0,0-0.01,0.01-0.02,0.01c-1.87,1-5.15,1.1-8.72,0.95
				c-0.46-0.02-0.87-0.03-1.23-0.03c-0.1,0-0.19,0-0.29,0c-0.07,0-0.15,0-0.22,0c-3.53,0.08-3.16,1.11-9.87,1.66
				c-7.65,0.63-10.47-1.63-10.92-2.67c-0.38-0.88,2.9-1.87,6.57-3c0.18-0.05,0.35-0.11,0.53-0.17c0.49-0.15,0.98-0.31,1.47-0.46
				c4.37-1.41,8.67-3.07,9.74-7.36c1.14-4.54-2.28-17.21-2.28-17.21l12.12-1.27c0,0,1.17,13.25,1.93,17.38
				c0.41,2.2,1.44,3.96,2.05,5.84c0.04,0.13,0.08,0.26,0.12,0.4C283.45,401.31,283.76,402.44,283.76,403.61z"/>
			<path class="st3" d="M283.76,403.61c0,1.17-0.6,1.97-1.61,2.51c0,0-0.01,0.01-0.02,0.01c-1.99,0.89-5.21,1.02-8.71,0.92
				c-0.46-0.01-0.87-0.02-1.24-0.01c-0.1,0-0.19,0-0.29,0c-0.07,0-0.15,0-0.22,0c-3.53,0.08-3.16,1.11-9.87,1.66
				c-7.65,0.63-10.47-1.63-10.92-2.67c-0.38-0.88,2.9-1.87,6.57-3c1.03,0.38,5.93,2.04,11.74,0.97c5.1-0.93,10.17-3.39,13.82-4.21
				c0.04,0.13,0.08,0.26,0.12,0.4C283.45,401.31,283.76,402.44,283.76,403.61z"/>
			<path class="st4" d="M205.1,389.02c-0.67,3.37-5.47,2.81-10.83,1.5c-5.36-1.31-4.09,0.25-11.72-0.6
				c-7.63-0.84-9.94-3.69-10.17-4.82c-0.21-1.01,3.56-1.36,7.61-1.83c0.51-0.06,1.02-0.12,1.53-0.18c4.57-0.57,7.91-3.52,12.06-5.94
				c3.93-2.29,9.79-11.63,9.79-11.63l10.46,0.83c0,0-5.49,8.34-7.61,11.97c-1.25,2.13-1.18,4.95-1.03,7.13
				C205.26,386.62,205.34,387.83,205.1,389.02z"/>
			<path class="st3" d="M194.27,390.51c-5.36-1.31-4.09,0.25-11.72-0.6c-7.63-0.84-9.94-3.69-10.17-4.82
				c-0.21-1.01,3.56-1.36,7.61-1.83l0.04,0.08c0,0,4.58,3.24,10.93,3.4c5.18,0.13,10.66-1.36,14.23-1.3
				c0.08,1.18,0.16,2.39-0.08,3.58C204.43,392.38,199.63,391.82,194.27,390.51z"/>
			<path class="st27" d="M245.2,322.11l22.55,60.69c0,0,3.46,0.34,6.79-0.62c3.06-0.88,6.56-3.19,6.56-3.19s-5.59-58.27-15.85-70.39
				C254.99,296.47,245.2,322.11,245.2,322.11z"/>
			<path class="st5" d="M334.4,297.55c0,0-64.8-21.91-79.25-17.25c-14.45,4.66-57.84,90.99-57.84,90.99s0.98,1.3,3.65,2.31
				c2.49,0.93,8.5,0.87,8.5,0.87s39.16-33.57,43.82-43.36c4.66-9.79,6.53-19.11,11.19-18.18c4.66,0.93,60.14,22.84,72.73,9.79
				c12.59-13.05,9.3-30.01,9.3-30.01L334.4,297.55z"/>
			<path class="st23" d="M294.8,195.62c-1.03-2.14-2.19-5.93-2.76-12.7c0.09,0.67,1.25,9.2,4.53,14.03
				c13.48,8.85,39.31,38.39,38.8,43.99c0,0,9.1-15.43,9.26-15.52c0,0,16.78-21.34-3.11-33.57c-10.11-6.21-10.06-14.19-9.64-21.11
				c0.43-6.93-2.76-36.75-23.01-28.94c0,0-3.25-1.44-4.71-1.23c0,0,1.19,0.23,1.79,0.85c-2.35-0.14-5.7,0.03-8.51,1.63
				C290.03,147.27,283.39,185.12,294.8,195.62z"/>
			<path class="st4" d="M297.37,197.4c-0.07,0.03,6.51,3.44,11.45,2.09c4.65-1.27,7.69-7.3,7.63-7.31c-1.97-0.39-2.54-3.1-2.5-14.73
				l-0.89,0.17l-14.97,2.97c0,0,0.34,4.71,0.35,9.15C298.45,193.47,298.23,197,297.37,197.4z"/>
			<path class="st6" d="M298.09,180.59c0,0,0.34,4.71,0.35,9.15c8.38-0.24,12.81-7.88,14.62-12.12L298.09,180.59z"/>
			<path class="st23" d="M314.61,175.99c0,0,4.39-6.94,5.45-12.87c0.75-4.24-1.41-19.94-17.18-17.67c0,0-4.58,0.45-8.89,3.36
				c-3.43,2.31-8.37,7.31-2.84,21.01l1.44,4.63L314.61,175.99z"/>
			<path class="st4" d="M295.29,184.79c0,0,19.82,0.33,19.84-12.02s2.58-20.62-10.08-21.35c-12.66-0.73-15.12,3.98-16.13,8.1
				C287.92,163.64,290.14,184.39,295.29,184.79z"/>
			<path class="st23" d="M296.03,151.11c0,0,5.43,14.49,13.76,16.63c8.33,2.14,11.94-0.09,11.94-0.09s-6.39-5.08-7.72-13.94
				C314.01,153.72,300.12,144.22,296.03,151.11z"/>
			<path class="st23" d="M297.37,152.29c0,0-4.05,3.23-5.04,6.38c-0.99,3.14-1.43,9.62-3.32,9.4c0,0-4.09-9.85,0.51-15.42
				C294.39,146.74,297.37,152.29,297.37,152.29z"/>
			<path class="st28" d="M341.52,250.73c1.96-8.2-4.7-24.11-11.64-37.28c-6.3-11.94-12.84-21.62-13.43-21.27
				c-16.62,9.86-18.12,1.66-18.12,1.66s-15.09,2-19.37,9.36c-5.91,10.17-12.35,40.7-18.67,40.25c-2.9-0.21-32.12-11.19-32.12-11.19
				s-4.87,4.56-3.93,10.15c0,0,14.42,9.66,26.62,15.82c6.45,3.26,12.28,5.54,15.02,4.89c5.56-1.31,14.24-14.19,18.93-21.78
				c0.01-0.02,0.02-0.03,0.03-0.05c5.99,33.89-2.15,41.6,1.97,45.18c4.35,3.77,10.57-1.8,24.24,4.13c8.97,3.89,21.42,9.52,29.8,10.5
				c4.39,0.52,7.67-0.25,8.74-3.22C352.71,289.27,337.79,266.37,341.52,250.73z"/>
			<path class="st7" d="M299.7,177.31c0,0-0.37,1.57-4.27,1.33c0,0-3.28-0.2-3.18-1.93C292.25,176.71,295.43,175.48,299.7,177.31z"
				/>
			<path class="st29" d="M349.6,297.9c-1.07,2.97-4.35,3.73-8.74,3.22c-5.8-2.53-30.85-12.23-30.57-18.81
				c0.42-9.74,4.82-10.05,1.71-22.07c-2.5-9.65,20.65-27.59,24.35-31.5c6.94,13.17,7.14,13.79,5.18,21.99
				C337.79,266.37,352.71,289.27,349.6,297.9z"/>
			<path class="st29" d="M284.82,241.36c-4.69,7.58-13.37,20.47-18.93,21.78c-2.74,0.65-8.57-1.63-15.02-4.89
				c4.71,1.21,9.28,1.18,13.73,0.75c4.82-0.47,6.22-6.37,13.83-15.23C283.36,238.02,284.58,239.46,284.82,241.36z"/>
			<g>
				<path class="st24" d="M300.94,259.28c-0.61-0.38-1.8-0.23-2.66-0.05v-1.25c0-0.28-0.02-0.55-0.05-0.81H285.3
					c-0.03,0.27-0.05,0.54-0.05,0.81v2.54c0,3.58,2.93,6.52,6.52,6.52c1.94,0,3.69-0.86,4.89-2.22l0,0c0,0,3.08-0.76,4.04-1.9
					C301.66,261.77,301.97,259.92,300.94,259.28z M300.26,261.63c-0.33,0.84-1.79,1.3-2.52,1.47c0.29-0.67,0.47-1.39,0.52-2.14
					c0.45-0.61,1.15-0.97,1.67-0.88C300.4,260.17,300.68,260.56,300.26,261.63z"/>
				<path class="st25" d="M286.31,257.99v2.54c0,3.58,2.93,6.52,6.51,6.52c0.3,0,0.59-0.02,0.88-0.06
					c-3.17-0.43-5.64-3.17-5.64-6.45v-2.54c0-0.28,0.02-0.55,0.05-0.81h-1.75C286.33,257.44,286.31,257.71,286.31,257.99z"/>
				<rect x="289.1" y="266.47" class="st24" width="5.32" height="0.8"/>
			</g>
			<path class="st4" d="M308.03,260c0,0-4.2-3.26-8.16-2.49c-3.96,0.78-5.91,3.5-5.75,4.74c0.16,1.24,2.25,4.74,5.28,5.05
				c3.03,0.31,11.66-1.86,11.66-1.86L308.03,260z"/>
			<path class="st28" d="M316.45,192.18c0,0,16.16,1,21.75,8.8c7.87,10.98,21.55,55.82,17.82,66.07c0,0-15.34,1.62-26.29,1.62
				c-5.72,0-22.87-1.82-22.87-1.82s-1.19-5.57,0.47-8.26c1.66-2.69,28.59-7.04,29.84-8.29c1.24-1.24-15.54-24.24-15.54-27.97
				S316.45,192.18,316.45,192.18z"/>
		</g>
		<path class="st1" d="M318.94,271.17h-199.8c-2.34,0-4.26,1.92-4.26,4.26v5.56c0,2.34,1.92,4.26,4.26,4.26h96.21v107.69
			c-18.69,0.75-34.6,7.16-41.09,15.88h89.28c-6.44-8.75-22.11-15.12-40.8-15.88V285.25h96.21c2.34,0,4.26-1.92,4.26-4.26v-5.56
			C323.21,273.09,321.29,271.17,318.94,271.17z"/>
		<g>
			<polygon class="st24" points="206.12,255.22 205.95,259.16 205.59,267.4 205.42,271.2 194.96,271.2 194.72,267.4 194.21,259.16 
				193.97,255.22 			"/>
			<polygon class="st30" points="206.32,252.55 193.93,252.55 193.42,255.22 206.67,255.22 			"/>
			<polygon class="st25" points="205.95,259.16 205.59,267.4 194.72,267.4 194.21,259.16 			"/>
		</g>
		<g>
			<path class="st25" d="M235.19,256.34l-0.07,1.62l-0.05,1.19l-0.33,7.59l-0.03,0.65l-0.16,3.8h-10.46l-0.24-3.8l-0.04-0.65
				l-0.47-7.59l-0.07-1.19l-0.13-2.15l0.03-0.07c0,0,2.44-0.44,3.9,0.49c1.46,0.93,3.06-0.89,4.39-0.36
				c1.33,0.53,1.42,1.2,2.49,0.76C234.25,256.5,234.71,256.41,235.19,256.34z"/>
			<polygon class="st31" points="235.24,255.22 235.19,256.34 235.12,257.97 235.07,259.16 234.74,266.75 234.71,267.4 
				234.55,271.2 224.08,271.2 223.85,267.4 223.81,266.75 223.33,259.16 223.26,257.97 223.12,255.81 223.09,255.22 			"/>
			<path class="st31" d="M235.31,255.21c0-0.06,0-0.12,0-0.19c0-3.36-2.73-6.09-6.09-6.09c-3.36,0-6.09,2.73-6.09,6.09
				c0,0.06,0,0.12,0,0.19H235.31z"/>
			<g>
				<path class="st24" d="M228.17,270.23l-0.53-0.07c0.03-0.33,1.74-22.86,2-24.36c0.29-1.65,1.89-2.14,1.96-2.16l0.03-0.01
					l8.52-1.51l0.09,0.52l-8.5,1.51c-0.14,0.05-1.35,0.47-1.58,1.74C229.9,247.38,228.17,270.15,228.17,270.23z"/>
			</g>
			<polygon class="st24" points="235.12,257.97 235.07,259.16 234.74,266.75 223.81,266.75 223.33,259.16 223.26,257.97 			"/>
		</g>
		<g>
			<path class="st30" d="M175.88,265.79c0.03-0.1,0-1.87,2.99-2.51c2.99-0.64,2.09-2.13,2.09-2.13s4.35,2.12,3.49,4.65
				C183.58,268.31,175.88,265.79,175.88,265.79z"/>
			<polygon class="st25" points="184.51,271.2 175.74,271.2 174.24,264.85 185.82,264.85 			"/>
		</g>
	</g>
	<g>
		<g>
			<g>
				<g>
					<path class="st18" d="M589.39,247.31c0.01,0,0.01,0,0.02,0c0.67-0.01,1.2-0.49,1.19-1.09c-0.68-42.12,15.61-74.51,15.77-74.83
						c0.28-0.54,0.22-1.74-1.53-1.9c-1.53-0.13-2.49,0.2-2.76,0.74c-0.04,0.08-3.68,7.79-7.71,21.19
						c-3.72,12.35-6.54,32.58-6.19,54.83C588.19,246.84,588.73,247.31,589.39,247.31z"/>
				</g>
				<g>
					<path class="st18" d="M553.07,247.31c0.01,0,0.01,0,0.02,0c0.67-0.01,1.2-0.49,1.19-1.09c-0.68-42.12,15.61-74.51,15.78-74.83
						c0.28-0.54,0.22-1.74-1.53-1.9c-1.54-0.13-2.49,0.2-2.76,0.74c-0.04,0.08-3.67,7.79-7.71,21.19
						c-3.72,12.35-6.54,32.58-6.19,54.83C551.87,246.84,552.41,247.31,553.07,247.31z"/>
				</g>
				<g>
					<path class="st18" d="M600.15,184.33c0.58,0,1.09-0.37,1.19-0.89c0.11-0.58-0.33-1.14-0.99-1.24
						c-1.05-0.16-25.75-3.85-36.81-0.77c-0.64,0.18-0.99,0.78-0.79,1.34c0.2,0.56,0.88,0.88,1.52,0.7
						c10.5-2.92,35.43,0.8,35.68,0.84C600.01,184.32,600.08,184.33,600.15,184.33z"/>
				</g>
				<g>
					<path class="st18" d="M597.32,191.42c0.58,0,1.09-0.37,1.19-0.89c0.11-0.58-0.33-1.14-0.99-1.24
						c-1.05-0.16-25.75-3.85-36.81-0.77c-0.64,0.18-0.99,0.78-0.79,1.34c0.2,0.56,0.88,0.88,1.52,0.7
						c10.51-2.92,35.43,0.8,35.68,0.84C597.19,191.42,597.26,191.42,597.32,191.42z"/>
				</g>
			</g>
			<path class="st18" d="M590.84,247.31H516.4c0,0,1.73-7.19,44.85-6.12C591.76,241.95,590.84,247.31,590.84,247.31z"/>
			<g>
				<path class="st19" d="M596.9,311.9c-8.63-38.42-6.41-61.99-6.4-62.29c0.02-0.59-1.22-1.13-1.89-1.15
					c-0.68-0.01-3.65-0.17-4,0.33c-0.45,0.66-2.19,29.71,10.67,63.11H596.9z"/>
			</g>
			<g>
				<path class="st19" d="M533.7,311.9c8.63-38.42,6.41-61.99,6.4-62.29c-0.02-0.59,1.22-1.13,1.89-1.15c0.68-0.01,3.65-0.17,4,0.33
					c0.45,0.66,2.19,29.71-10.67,63.11H533.7z"/>
			</g>
			<g>
				<path class="st20" d="M513.62,311.9c8.63-38.42,6.41-61.99,6.4-62.29c-0.02-0.59,1.22-1.13,1.89-1.15
					c0.68-0.01,3.65-0.17,4,0.33c0.45,0.66,2.19,29.71-10.67,63.11H513.62z"/>
			</g>
			<g>
				<path class="st20" d="M575.05,311.9c-8.63-38.42-6.41-61.99-6.4-62.29c0.02-0.59-1.22-1.13-1.89-1.15
					c-0.68-0.01-3.65-0.17-4,0.33c-0.45,0.66-2.19,29.71,10.67,63.11H575.05z"/>
			</g>
			<path class="st19" d="M515.98,249.61h75.2c0.63,0,1.15-0.52,1.15-1.15l0,0c0-0.63-0.52-1.15-1.15-1.15h-75.2
				c-0.63,0-1.15,0.52-1.15,1.15l0,0C514.83,249.09,515.35,249.61,515.98,249.61z"/>
		</g>
		<path class="st1" d="M391.67,199.71H528.6c1.68,0,3.05,1.37,3.05,3.05v5.39c0,1.68-1.37,3.05-3.05,3.05h-65.45v87.76
			c15.2,0.6,27.96,5.77,33.25,12.87l-72.52,0.07c5.25-7.13,18.02-12.33,33.25-12.94v-87.77h-65.45c-1.68,0-3.05-1.37-3.05-3.05
			v-5.39C388.62,201.08,389.99,199.71,391.67,199.71z"/>
		<g>
			<path class="st32" d="M485.62,294.71c0,0-8.15,8.14-10.17,10.14c-2.02,2-9.6,1.12-11.68,7h20.66c0,0,5.12-3.73,13.08-3.55
				c0,0,1.52-5.63,0-7.8c-1.52-2.18-2.07-5.78-2.07-5.78H485.62z"/>
			<path class="st32" d="M497.5,308.29l-1.04,3.55h-7.3v-3.01C489.16,308.84,493.24,307.57,497.5,308.29z"/>
			<path class="st33" d="M498.18,234.56c0,0,0.38,38.61-2.75,60.15h-9.81l-6.92-40.68L498.18,234.56z"/>
			<path class="st14" d="M456.59,294.71h9.81c0,0,0,0,0.01-0.01c0.47-0.49,30.53-31.65,35.22-51.22c0,0,2.81-0.25,6.19-0.11
				c0.98,0.05,2.02,0.12,3.05,0.25c4.55,0.57,64.15,2.75,67.27-0.38c3.13-3.13,1.87-21.13,1.87-21.13l-5.86-3.1l-6.19-3.28
				c0,0-68.73,1.08-75.9,6.48C484.9,227.62,468.1,263.58,456.59,294.71z"/>
			<path class="st34" d="M456.59,294.71c0,0-8.15,8.16-10.17,10.17c-2.02,2-9.6,1.12-11.68,7.02h20.66c0,0,5.12-3.75,13.08-3.56
				c0,0,1.52-5.64,0-7.83c-1.52-2.18-2.07-5.8-2.07-5.8H456.59z"/>
			<path class="st34" d="M468.47,308.29l-1.04,3.55h-7.3v-3.01C460.13,308.84,464.21,307.57,468.47,308.29z"/>
			<path class="st35" d="M507.82,243.38c0.98,0.05,2.02,0.12,3.05,0.25c4.55,0.57,64.15,2.75,67.27-0.38
				c3.13-3.13,1.87-21.13,1.87-21.13l-5.86-3.1l-9.85,4.18C564.3,223.19,565.76,241.77,507.82,243.38z"/>
			<path class="st36" d="M507.06,192.68c1.28-3.83,4.82-3.99,4.82-3.99s3.39-0.25,5.84,0.47s6.51-0.7,6.51-0.7s14.9-5.18,18.38-7.35
				c7.47-4.65,20.98-34.79,25.58-31.12c0,0,5.95,5.61,2.68,15.26c-3.26,9.65-16.17,22.93-24,25.08c-5.79,1.58-20.91,2.43-22.91,2.53
				c-2.5,0.32-5.89,1.77-6.79,1.84c-1,0.08-3.24-1.41-4.78-1.19C506.73,194.31,507.06,192.68,507.06,192.68z"/>
			<path class="st37" d="M565.52,150.35c6.17,0.09,13.01-0.55,18.86-1.33c-1.08-1.8-2.36-6.99-2.73-14.16v-0.03l-2.17,0.12
				l-10.29,0.55c0,0,0.01,0.15,0.03,0.41c0.1,1.39,0.4,5.93,0.35,8.49c-0.02,0.98-0.53,3.11-0.69,3.21
				C567.76,148.58,566.64,149.47,565.52,150.35z"/>
			<path class="st38" d="M583.8,106.88c0.15-0.59,2.04-6.92,11.9-5.08c0,0-4.94-0.49-6.24,1.44c0,0,3.86-1.89,6.34-0.46
				c2.48,1.43,3.01,6.46,2.69,8c-0.33,1.54-2.91,6.17-4.69,6.22c-0.68,0.02-1.41-0.19-2.05-0.45c0.29,0.8,0.56,1.68,0.79,2.64
				c2.13,8.88-3.64,15.83-6.75,14.23c-2-1.03-3.4,2.46-3.4,2.46l-16.91-21.25C565.48,114.63,576.52,100.64,583.8,106.88z"/>
			<path class="st36" d="M569.58,144.4c6.24-0.74,10.22-6.22,12.08-9.54c0.02-0.04,0.05-0.08,0.07-0.12l-2.24,0.21l-10.26,0.96
				C569.32,137.3,569.63,141.84,569.58,144.4z"/>
			<path class="st37" d="M568.69,139.61c0,0,14.59-0.14,14.37-9.22c-0.22-9.09,1.51-15.22-7.82-15.52
				c-9.33-0.3-11.05,3.21-11.71,6.27C562.87,124.19,564.89,139.41,568.69,139.61z"/>
			<path class="st38" d="M563.83,116.07c2.18-2.79,3.9-2.24,4.88-1.44c7.86-4.59,13.16,1.76,13.16,1.76
				c1.14,6.49,5.94,10.11,5.94,10.11s-2.62,1.71-8.79,0.29c-1.88-0.43-3.59-1.72-5.05-3.3c2.59,4.09,6.04,7,6.04,7
				c-7.41-3.2-10.61-13.3-10.93-14.37c-0.87,0.82-2.58,2.61-3.07,4.32c-0.67,2.33-0.87,7.1-2.26,6.98
				C563.75,127.42,560.56,120.26,563.83,116.07z"/>
			<path class="st32" d="M554.32,167.19c0,0-9.38,12.13-11.51,12.31c-2.13,0.19-1.14,8.26,0,10.34c1.14,2.08,8.44,6.52,13.1,1.74
				C560.57,186.8,554.32,167.19,554.32,167.19z"/>
			<path class="st34" d="M542.81,217.5c6.96,0.99,19.12,1.85,21.5,5.69c2.38,3.84,17.52,1.14,18.76-1.28
				c1.24-2.42-2.59-22.06-0.6-25.38c1.5-2.5,6.67-16.26,9.34-24.18c0.89-2.62,1.5-4.6,1.62-5.32c0.47-2.9,2.26-13.33-4.92-16.39
				c0,0-3.48-1.5-3.77-2.73c-0.07-0.29-0.08-0.74-0.08-1.26v0c-0.01-1.66,0.03-3.94-1.59-3.29c-2.12,0.85-4.36,2.94-7.98,2.75
				c-3.62-0.19-6.75-1.8-7.22-0.76c-0.47,1.04,0.84,2.43,0,3.12c-0.84,0.68-11.42,7.1-14.69,16.46c0,0-2.66,6.76-2.66,12.42
				c0,0.44,0.01,0.88,0.02,1.33c0.07,3.38,0.38,6.97,0.04,10.08c-0.02,0.17-0.04,0.33-0.06,0.5c-0.53,3.94-1.11,7.67-1.7,10.55
				c-0.58,2.85-1.18,4.86-1.76,5.45C544.23,208.12,535.84,216.51,542.81,217.5z"/>
			<path class="st37" d="M505.5,192.92c0.19-0.57,0.69-1.42,1.16-2.27c0.47-0.85,4.07-4.55,5.5-4.93c1.42-0.38,8.38,1.56,8.38,1.56
				s27.38,0.36,31.74-2.32c5.69-3.49,19.5-17.96,29.1-25.34c4.58-3.52,8.21-5.43,9.55-3.78c0,0,3.66,3.51-0.95,12.19
				c-0.25,0.49-0.54,0.99-0.85,1.51c-5.88,9.78-28.46,28.62-37.54,29.24c-9.07,0.62-32.09-7.09-32.09-7.09s-2.4-0.65-3.63,0.29
				c-1.23,0.95-5.99,0.77-6.67,1.42C507.95,194.6,505.19,193.86,505.5,192.92z"/>
			<path class="st32" d="M564.3,223.19c2.38,3.84,17.52,1.14,18.76-1.28c1.24-2.42-2.59-22.06-0.6-25.38
				c1.5-2.5,6.67-16.26,9.34-24.18c-0.44-0.89-1.08-1.3-1.95-1.06c-6.12,1.68-35.14,23.97-41.02,28.53
				c-0.58,2.85-1.18,4.86-1.76,5.45C547.07,205.26,565.19,212.53,564.3,223.19z"/>
			<path class="st32" d="M550.59,188.76c8.9-3.78,30.99-25.2,31.31-25.51c-0.25,0.09-7.38-3.09-24.64,12.62
				c-2,1.82-4.81,5.5-5.46,7.09C551.01,184.89,550.75,187.28,550.59,188.76z"/>
			<path class="st34" d="M589,155.23c0,0-4.36,0.63-8.62,3.95c-4.26,3.32-25.56,24.12-29.13,24.99c-3.56,0.87-11.23,0.46-11.14,2.7
				c0.09,2.24,1.8,13.23,4.07,15.22c2.27,1.99,14.31,2.94,19.52-0.38c5.21-3.32,31.08-34.49,29.47-41.22
				C591.56,153.78,589,155.23,589,155.23z"/>
			<path class="st32" d="M578.98,150.63c2.27-0.57,9.52,0,9.52,0s-3.48-1.5-3.77-2.73c-0.07-0.29-0.08-0.74-0.08-1.26
				c-0.37,1.5-1.48,2.2-4.47,2.35C577.2,149.14,576.7,151.2,578.98,150.63z"/>
			<path class="st35" d="M466.4,294.71C466.4,294.71,466.4,294.71,466.4,294.71c0.47-0.49,30.54-31.65,35.23-51.23
				c0,0-7.38-2.05-11.84,3.82C485.34,253.18,466.4,294.71,466.4,294.71z"/>
		</g>
		<g>
			<g>
				<polygon class="st1" points="437.54,182.33 449.09,182.33 449.57,184.82 449.06,184.82 448.83,188.49 448.35,196.18 
					448.13,199.71 438.38,199.71 438.22,196.18 437.89,188.49 437.73,184.82 437.21,184.82 				"/>
				<path class="st1" d="M461.18,190.34c0,0-0.84,1.39,1.95,1.99c1.49,0.32,2.17,0.94,2.49,1.47h1.82l-1.4,5.92h-8.18l-1.22-5.92
					h1.19C458.09,191.85,461.18,190.34,461.18,190.34z"/>
			</g>
		</g>
		<path class="st27" d="M483.11,172.77c0.46-0.17,0.98,0.07,1.15,0.54l8.95,24.62h26.17c0.49,0,0.9,0.4,0.9,0.89
			c0,0.49-0.4,0.89-0.9,0.89h-26.82c0,0-0.01,0-0.01,0c0,0,0,0,0,0c-0.45-0.01-0.82-0.35-0.87-0.79l-9.09-25
			C482.41,173.45,482.65,172.94,483.11,172.77z"/>
	</g>
</g>
</svg>
