<svg xmlns="http://www.w3.org/2000/svg" xmlns:xlink="http://www.w3.org/1999/xlink" width="191.593" height="229.224" viewBox="0 0 191.593 229.224"><defs><style>.a,.f{fill:#00a859;}.a{opacity:0.18;}.b{fill:url(#a);}.c{fill:url(#b);}.d{fill:#f7af81;}.e{fill:#7d3b3d;}.g{fill:url(#c);}.h{fill:#fff;}.i{fill:url(#d);}.j{fill:url(#e);}.k{fill:url(#f);}.l{fill:#f69771;}.m{fill:none;stroke:#000;stroke-miterlimit:10;stroke-width:0.55px;}.n{fill:url(#g);}.o{fill:url(#h);}.p{fill:url(#i);}.q{fill:url(#j);}.r{fill:url(#k);}.s{fill:url(#l);}.t{fill:url(#m);}</style><linearGradient id="a" x1="0.475" y1="0.169" x2="0.541" y2="0.973" gradientUnits="objectBoundingBox"><stop offset="0.02" stop-color="#fff" stop-opacity="0"/><stop offset="0.39" stop-color="#fff" stop-opacity="0.388"/><stop offset="1" stop-color="#fff"/></linearGradient><linearGradient id="b" x1="0.551" y1="-3.306" x2="0.48" y2="2.002" gradientUnits="objectBoundingBox"><stop offset="0.01"/><stop offset="0.83" stop-opacity="0.071"/><stop offset="1" stop-opacity="0"/></linearGradient><linearGradient id="c" x1="0.345" y1="-0.221" x2="0.696" y2="1.713" xlink:href="#b"/><linearGradient id="d" x1="0.885" y1="1.732" x2="0.398" y2="0.014" xlink:href="#b"/><linearGradient id="e" x1="6.003" y1="0.55" x2="-1.173" y2="0.487" xlink:href="#b"/><linearGradient id="f" x1="1.711" y1="-0.078" x2="0.187" y2="0.619" xlink:href="#b"/><linearGradient id="g" x1="0.529" y1="-1.269" x2="0.463" y2="2.001" xlink:href="#b"/><linearGradient id="h" x1="0.406" y1="-0.629" x2="0.537" y2="0.97" xlink:href="#b"/><linearGradient id="i" x1="0.336" y1="-0.281" x2="0.534" y2="0.984" xlink:href="#a"/><linearGradient id="j" x1="0.303" y1="-0.333" x2="0.541" y2="1.016" xlink:href="#a"/><linearGradient id="k" x1="0.384" y1="-2.2" x2="0.688" y2="4.746" xlink:href="#b"/><linearGradient id="l" x1="0.381" y1="-2.3" x2="0.684" y2="4.672" xlink:href="#b"/><linearGradient id="m" x1="0.503" y1="1.278" x2="0.497" y2="-0.407" xlink:href="#b"/></defs><g transform="translate(0.002 -0.003)"><path class="a" d="M107.653,226.879c14.247,5.751,30.086,5.093,45.4,4.343,19.083-.928,39.746-2.514,53.959-15.543,12.865-11.792,17.306-30.132,22.689-46.931,9.917-31.027,25.367-62.343,20.254-94.554-3.29-20.518-15.135-39.206-31.27-51.774S182.275,3.258,162,2.54c-8.62-.3-17.563.5-25.144,4.718-5.317,2.961-9.66,7.436-13.819,11.963a326.681,326.681,0,0,0-43.95,61.053C69.71,97.067,61.676,115.15,59.7,134.372,56.5,165.359,77.41,214.712,107.653,226.879Z" transform="translate(-59.38 -2.48)"/><path class="b" d="M234.975,68.369c0-4.481,1.428-8.969.619-13.371-.869-4.758-4.277-9.213-3.244-13.957.658-2.948,2.9-5.264,5.067-7.344l4.165-4.067a5.375,5.375,0,0,1,1.592-1.217,5.468,5.468,0,0,1,2.04-.3q6.488-.118,12.97.132c3.58.132,7.613.579,9.824,3.4,1.974,2.553,1.77,6.172,1.073,9.338s-1.77,6.39-1.138,9.568c.8,4.034,4.3,7.771,3.08,11.7-.526,1.717-1.9,3.06-2.54,4.738-.533,1.382-.605,3.02-1.658,4.06a5.679,5.679,0,0,1-2.632,1.211c-6.909,1.829-13.819,4.132-20.755,5.778C237.732,79.391,234.955,73.462,234.975,68.369Z" transform="translate(-118.464 -11.23)"/><ellipse class="c" cx="48.129" cy="8.726" rx="48.129" ry="8.726" transform="translate(45.746 199.314)"/><path class="d" d="M188.642,302.59s1.04,6.811.48,7.587-3.83.513-5.843.072-2.5-3.053-2.5-3.053l-.138-2.145Z" transform="translate(-100.847 -105.105)"/><path class="d" d="M230.691,299s1.316,8.331.869,9.055-3.534.612-5.33.395-2.027-4.771-2.027-4.771l-.3-1.862Z" transform="translate(-115.64 -103.877)"/><path class="e" d="M193.719,53.4a5.342,5.342,0,0,0,.553.98c.691,1.217.355,2.876,1.211,3.988.211-.895,1.974-7.186,1.138-7.594-.2-.1-1.237.77-1.481.882C194.39,51.98,193.344,52.237,193.719,53.4Z" transform="translate(-105.293 -18.992)"/><path class="f" d="M209.613,174.49l1.711,34.915,3.29,48.379s-1.889,2.264-7.324,2.336l-9.778-49.234-4.606-25.005-3.948,24.407-1.652,50.84s-3.836.079-8.824.526l-3.231-50.129,3.2-38.824Z" transform="translate(-99.004 -60.688)"/><path class="g" d="M209.613,174.49l1.711,34.915,3.29,48.379s-1.889,2.264-7.324,2.336l-9.778-49.234-4.606-25.005-3.948,24.407-1.652,50.84s-3.836.079-8.824.526l-3.231-50.129,3.2-38.824Z" transform="translate(-99.004 -60.688)"/><path class="h" d="M172.636,89.487l-2.994,16.55h0c-.27.178-8.851,6-9.871,7.344s-5.37,3.145-6.857,3.409-4.8-2.566-4.264-6.883,17.767-18.622,19.57-19.642A8.806,8.806,0,0,1,172.636,89.487Z" transform="translate(-89.888 -32.223)"/><path class="i" d="M170.7,102.46l-1.059,8.021h0c-.27.178-8.851,6-9.871,7.344s-5.37,3.145-6.857,3.409-4.8-2.566-4.264-6.883l9.213-1.316Z" transform="translate(-89.888 -36.668)"/><path class="h" d="M214.632,163.142c0,.263-.257.494-.658.691-2.823,1.356-13.983,1.1-20.873.4-.658-.066-.855-9.548-.855-9.548s-2.422,9.14-2.974,9.028c-5.962-1.132-16.142-2.3-16.142-2.3a154.177,154.177,0,0,0,4.422-29.783c.875-20.116-1.184-43.365-.533-43.891,1.178-.948,12.575-4.488,12.575-4.488l11.845,1.027,1.454.658c2.5,1.106,7.423,3.29,8.173,3.948.039,0,.066.145.092.336.079.592.118,1.928.138,3.843.046,4.475,0,12.1.039,20.82v2.8c.053,6.265.178,12.97.428,19.392C212.237,148.054,214.7,162.241,214.632,163.142Z" transform="translate(-98.279 -30.099)"/><path class="j" d="M231.108,174.42c0,.263-.257.494-.658.691a89.485,89.485,0,0,1-8.949.658l1.54-8.647-1.731-44.747,4.422-6.146,2.053,8.936c0,7.048.145,14.812.441,22.2C228.713,159.332,231.174,173.519,231.108,174.42Z" transform="translate(-114.755 -41.377)"/><path class="h" d="M238.717,123.865a4.455,4.455,0,0,1-5.33,1.316,7.238,7.238,0,0,1-3.79-4.369,6.35,6.35,0,0,0-.526-1.092c-.915-1.566-2.382-3.218-2.448-4.817-.178-3.8-1.586-7.587-1.592-11.391,0-2.928,1.974-6.087,3.034-9.094a12.707,12.707,0,0,0,.586-2.172.9.9,0,0,1,.23,0c1.448.184,3.224,3.442,3.771,4.521a24,24,0,0,1,1.974,6.041,45.265,45.265,0,0,0,3.29,10.16c.586,1.382.783,5.087,1.184,6.534A5.264,5.264,0,0,1,238.717,123.865Z" transform="translate(-116.027 -33.173)"/><path class="k" d="M235.037,110.779l-3.126,3.948s-2.014-5.771-2.58-8.508c-.513-2.422-2.152-9.351-3.224-12.318a8.813,8.813,0,0,0-.382-.941,3.289,3.289,0,0,0-.572-.737c-2.145-2.152-8.653-5.455-8.653-5.455l1.2-.987c2.5,1.106,7.423,3.29,8.173,3.948.039,0,.066.145.092.336,1.448.184,3.224,3.442,3.771,4.521a24,24,0,0,1,1.974,6.041A43.791,43.791,0,0,0,235.037,110.779Z" transform="translate(-113.11 -30.964)"/><path class="d" d="M210.779,71.333s-.757,5.514-.151,7.554-2.2,8.153-6.35,8.555-4.791-6.686-4.869-7.515,1.138-1.362.533-3.4S210.141,68.878,210.779,71.333Z" transform="translate(-107.264 -25.815)"/><path class="l" d="M200.131,76.5a10.983,10.983,0,0,1-.171,5.047c1.1.836,2.112,2.27,3.29,2.158,2.487-.224,6.041-5.784,7.363-9.667a.913.913,0,0,1,.066-.217c.118-1.4.263-2.487.263-2.487C210.331,68.877,199.532,74.457,200.131,76.5Z" transform="translate(-107.454 -25.814)"/><path class="m" d="M241.79,131.48" transform="translate(-121.758 -46.592)"/><path class="d" d="M195.84,50.46S194.9,61.3,195.7,64.22s3.29,5.455,5.784,5.481,6.278-2.02,7.982-5.758,2.632-12.9,2.231-14.154-2.882-5.225-9.548-4.685C197.564,45.472,195.859,48.8,195.84,50.46Z" transform="translate(-105.887 -17.038)"/><path class="d" d="M217.79,61.628s.191-2.533,1.928-1.849.072,5.435-.724,5.922a2.349,2.349,0,0,1-1.2.467" transform="translate(-113.551 -22.033)"/><path class="d" d="M154.937,111.524s3.863-1.046,2.514-6.883-6.225-23.031-6.225-23.031l-4.415,3.547s-1.533,23.6,1.691,25.663A7.344,7.344,0,0,0,154.937,111.524Z" transform="translate(-89.154 -29.538)"/><path class="d" d="M149.707,76.563s.658-3.053.342-3.869-3.54-6.666-4.81-5.817-3.086,6.488-3.231,6.87,3.284,6.343,3.284,6.343Z" transform="translate(-87.635 -24.471)"/><path class="d" d="M242.746,126.983l10.969-14.931-.322-9-18.228,18.767a4.606,4.606,0,0,0,1.257,7.238l1.356.138a5.435,5.435,0,0,0,4.968-2.211Z" transform="translate(-119.069 -36.87)"/><path class="d" d="M259.531,110.906a17.694,17.694,0,0,0,3-.9c.8-.428,3.356-9.542,2.632-10.147s-3.725-2.316-4.56-1.764-5.343,4.883-5.343,4.883S256.537,111.814,259.531,110.906Z" transform="translate(-126.364 -35.138)"/><path class="f" d="M198.16,82.823,199.272,82s1.316,6.679,3.7,7.35c0,0,3.8,1.487,7.061-7.238l1.25,2.52s-2.31,5.475-3.553,6.054-4.843,4.067-8.074-.579C198.12,87.876,198.16,82.823,198.16,82.823Z" transform="translate(-106.838 -29.672)"/><path class="n" d="M198.16,82.823,199.272,82s1.316,6.679,3.7,7.35c0,0,3.8,1.487,7.061-7.238l1.25,2.52s-2.31,5.475-3.553,6.054-4.843,4.067-8.074-.579C198.12,87.876,198.16,82.823,198.16,82.823Z" transform="translate(-106.838 -29.672)"/><path class="d" d="M154.653,69.822a8.185,8.185,0,0,0,1.573-1.908.48.48,0,0,0,.053-.362.421.421,0,0,0-.178-.178,1.862,1.862,0,0,0-1.836,0,2.889,2.889,0,0,0-1.237,1.428,2.2,2.2,0,0,1-.382.7,1.724,1.724,0,0,1-1.533.257.619.619,0,0,0-.395,0c-.2.105-.23.382-.211.612.059.717.967,3.159,2.02,2.974.434-.079.658-1.316.836-1.665a8.3,8.3,0,0,1,1.29-1.862Z" transform="translate(-90.541 -24.588)"/><path class="h" d="M194.065,43.278s9.213-3.132,16.247,4.363l.757-9.982a12.292,12.292,0,0,0,3.363-.816c2.112-.77,3.29-5.376.572-6.146a5.659,5.659,0,0,0-4.8.961s2.31-4.8-3.889-4.8c0,0-3.027.572-3.6,2.593,0,0-2.02-4.179-5.475-2.593s-3.027,3.455-3.027,3.455-2.454-1.007-3.172.29S190,33.934,192.354,34.2c3.744.428,2.981,1.2,2.981,1.2Z" transform="translate(-104.224 -10.691)"/><path class="e" d="M216.65,62.407a17.333,17.333,0,0,0,2.2-4.211,1.77,1.77,0,0,0,.915.77.921.921,0,0,0,1.066-.362.908.908,0,0,0-.171-1.02,1.658,1.658,0,0,0-.967-.48.513.513,0,0,1-.283-.112c-.171-.184,0-.507-.1-.717a.566.566,0,0,0-.309-.184c-.6-.2-1.533-.658-2.112-.79-.3.967.362,2.369.29,3.428A25.664,25.664,0,0,1,216.65,62.407Z" transform="translate(-113.161 -20.541)"/><path class="e" d="M217.5,72.815a3.291,3.291,0,0,1-.178.829,3.4,3.4,0,0,1-1.191,1.316.572.572,0,0,1-.243.125.375.375,0,0,1-.369-.329,1.007,1.007,0,0,1,.092-.533l1.277-3.619a5.1,5.1,0,0,0,.237-.823,1.244,1.244,0,0,1,.092-.382c.092-.178.415-.434.658-.316s.039.79,0,1.013Z" transform="translate(-112.772 -25.245)"/><path class="f" d="M175.02,102.914l39.614-9.173-6.613-.441-28.684,6.85Z" transform="translate(-59.851 -31.904)"/><path class="o" d="M175.02,102.914l39.614-9.173-6.613-.441-28.684,6.85Z" transform="translate(-59.851 -31.904)"/><path class="f" d="M240.814,97.21s-3.145-14.089,9.213-16.773c15.273-3.29,19.419,9.923,19.419,9.923Z" transform="translate(-121.302 -28.957)"/><path class="p" d="M269.472,90.357l-28.658,6.85s-3.145-14.089,9.213-16.773c.73-.158,1.435-.276,2.112-.362A15.518,15.518,0,0,1,269.373,90.14Z" transform="translate(-121.302 -28.954)"/><path class="q" d="M272.231,90.139l-23.123,5.528s-2.514-11.325,5.922-15.6A15.5,15.5,0,0,1,272.231,90.139Z" transform="translate(-124.141 -28.954)"/><circle class="f" cx="1.342" cy="1.342" r="1.342" transform="translate(126.928 48.979)"/><path class="f" d="M165.826,311.967c-1.145.434-2.356,1.106-2.356,2.573a2.632,2.632,0,0,0,.566,1.6c1.4,1.882,3.994,1.974,6.271,1.882a76.327,76.327,0,0,0,12.628-1.711,1.723,1.723,0,0,0,.783-.322,1.593,1.593,0,0,0,.395-.882,12.714,12.714,0,0,0,.132-4.35.763.763,0,0,0-1.231-.494,4.257,4.257,0,0,1-2.941.961c-2.533-.164-3.5-2.382-6.087-1.625C171.294,310.381,168.425,310.967,165.826,311.967Z" transform="translate(-94.976 -107.448)"/><path class="f" d="M207.322,310.782c-1.145.434-2.356,1.105-2.362,2.566a2.7,2.7,0,0,0,.573,1.606c1.4,1.882,3.994,1.974,6.271,1.875a76.327,76.327,0,0,0,12.628-1.711,1.658,1.658,0,0,0,.783-.322,1.553,1.553,0,0,0,.395-.882,12.805,12.805,0,0,0,.125-4.4.737.737,0,0,0-1.191-.474,4.251,4.251,0,0,1-2.974,1.027c-2.533-.171-3.507-2.382-6.087-1.632C212.791,309.2,209.948,309.782,207.322,310.782Z" transform="translate(-109.164 -107.052)"/><path class="r" d="M165.826,311.967c-1.145.434-2.356,1.106-2.356,2.573a2.632,2.632,0,0,0,.566,1.6c1.4,1.882,3.994,1.974,6.271,1.882a76.327,76.327,0,0,0,12.628-1.711,1.723,1.723,0,0,0,.783-.322,1.593,1.593,0,0,0,.395-.882,12.714,12.714,0,0,0,.132-4.35.763.763,0,0,0-1.231-.494,4.257,4.257,0,0,1-2.941.961c-2.533-.164-3.5-2.382-6.087-1.625C171.294,310.381,168.425,310.967,165.826,311.967Z" transform="translate(-94.976 -107.448)"/><path class="s" d="M207.322,310.782c-1.145.434-2.356,1.105-2.362,2.566a2.7,2.7,0,0,0,.573,1.606c1.4,1.882,3.994,1.974,6.271,1.875a76.327,76.327,0,0,0,12.628-1.711,1.658,1.658,0,0,0,.783-.322,1.553,1.553,0,0,0,.395-.882,12.805,12.805,0,0,0,.125-4.4.737.737,0,0,0-1.191-.474,4.251,4.251,0,0,1-2.974,1.027c-2.533-.171-3.507-2.382-6.087-1.632C212.791,309.2,209.948,309.782,207.322,310.782Z" transform="translate(-109.164 -107.052)"/><circle class="f" cx="0.816" cy="0.816" r="0.816" transform="translate(92.342 68.095)"/><circle class="f" cx="0.816" cy="0.816" r="0.816" transform="translate(90.756 78.808)"/><circle class="f" cx="0.816" cy="0.816" r="0.816" transform="translate(90.466 91.679)"/><circle class="f" cx="0.816" cy="0.816" r="0.816" transform="translate(90.947 102.293)"/><circle class="f" cx="0.816" cy="0.816" r="0.816" transform="translate(91.138 118.145)"/><path class="f" d="M207.951,162.812a6,6,0,0,1,2.863.388,2.052,2.052,0,0,1,1.171,2.4,5.3,5.3,0,0,1-.934,1.25,6.711,6.711,0,0,0-.915,4.225l.316,43.187c0,1.474-.145,3.244-1.448,3.948a4,4,0,0,1-1.869.322q-16.615.211-33.224.349c-1.152,0-2.514-.092-3.1-1.086a3.29,3.29,0,0,1-.322-1.573,199.9,199.9,0,0,1,4.81-50.972,3.448,3.448,0,0,1,.783-1.77c.658-.658,4.33.138,5.317.118,2.994-.053,5.982-.171,8.969-.257Z" transform="translate(-97.335 -57.294)"/><path class="t" d="M207.951,162.812a6,6,0,0,1,2.863.388,2.052,2.052,0,0,1,1.171,2.4,5.3,5.3,0,0,1-.934,1.25,6.711,6.711,0,0,0-.915,4.225l.316,43.187c0,1.474-.145,3.244-1.448,3.948a4,4,0,0,1-1.869.322q-16.615.211-33.224.349c-1.152,0-2.514-.092-3.1-1.086a3.29,3.29,0,0,1-.322-1.573,199.9,199.9,0,0,1,4.81-50.972,3.448,3.448,0,0,1,.783-1.77c.658-.658,4.33.138,5.317.118,2.994-.053,5.982-.171,8.969-.257Z" transform="translate(-97.335 -57.294)"/></g></svg>